<svg version="1.0" viewBox="0 0 16 16" xmlns="http://www.w3.org/2000/svg"><g stroke-linecap="square" transform="translate(-16 332)"><path d="M26.5-318H18c-.554 0-1-.446-1-1v-9c0-.554.446-1 1-1h8.5l5.5 5.5z" fill="#ffce51"/><path d="M18-329c-.554 0-1 .446-1 1v9c0 .554.446 1 1 1h8.5l5.5-5.5-5.5-5.5zm0 1h8l4.5 4.5L26-319h-8z" fill-opacity=".5"/><rect x="23" y="-325" width="9" height="9" ry="4.5" fill="#479863"/><path d="M27.5-325c-2.493 0-4.5 2.007-4.5 4.5s2.007 4.5 4.5 4.5 4.5-2.007 4.5-4.5-2.007-4.5-4.5-4.5zm0 1c1.939 0 3.5 1.561 3.5 3.5s-1.561 3.5-3.5 3.5-3.5-1.561-3.5-3.5 1.561-3.5 3.5-3.5z" fill-opacity=".5"/><path fill="#fff" d="M27-323h1v5h-1z"/><path fill="#fff" d="M25-321h5v1h-5z"/></g></svg>