<svg version="1.0" viewBox="0 0 16 16" xmlns="http://www.w3.org/2000/svg"><g transform="translate(-16 -268)"><rect x="22" y="268" width="4" height="10.5" ry="2" fill="#f15d22"/><rect x="22" y="268" width="4" height="10.5" ry="2" fill="#f15d22"/><path d="M18 280v5h12v-5z" fill="#ffce51"/><path d="M24 268c-1.108 0-2 .892-2 2v6.5a1.99 1.99 0 0 0 1.05 1.752c-.021-.082-.05-.163-.05-.252v-8c0-.554.446-1 1-1s1 .446 1 1v8c0 .09-.029.17-.05.252A1.989 1.989 0 0 0 26 276.5V270c0-1.108-.892-2-2-2z" fill-opacity=".502"/><path d="M18 280v5h12v-5h-1v4H19v-4z" fill-opacity=".502"/><path d="M20 275c-1.108 0-2 .892-2 2v3h12v-3c0-1.108-.892-2-2-2z" fill="#f15d22"/><path d="M20 275c-1.108 0-2 .892-2 2v3h1v-3c0-.554.446-1 1-1h8c.554 0 1 .446 1 1v3h1v-3c0-1.108-.892-2-2-2z" fill-opacity=".502"/><path fill-opacity=".502" d="M21 280h1v5h-1z"/><path fill-opacity=".502" d="M24 280h1v5h-1z"/><path fill-opacity=".502" d="M27 280h1v5h-1z"/></g></svg>