<svg version="1.0" viewBox="0 0 16 16" xmlns="http://www.w3.org/2000/svg"><g transform="translate(-16 -268)"><rect x="114" y="254" width="4" height="16" ry="2" fill="#f15d22"/><rect x="177" y="239" width="6" height="24" ry="3" fill="#f15d22"/><rect x="252" y="224" width="8" height="32" ry="4" fill="#f15d22"/><rect x="368" y="164" width="16" height="64" ry="8" fill="#f15d22"/><rect x="576" y="44" width="32" height="128" ry="16" fill="#f15d22"/><rect x="66" y="260" width="4" height="17" ry="2" fill="#f15d22"/><rect x="252" y="224" width="8" height="32" ry="4" fill="#f15d22"/><path d="M256 224c-2.216 0-4 1.784-4 4v24a3.97 3.97 0 0 0 1 2.625V228a2.994 2.994 0 0 1 3-3c1.662 0 3 1.338 3 3v26.625a3.97 3.97 0 0 0 1-2.625v-24c0-2.216-1.784-4-4-4z" fill-opacity=".502"/><path d="M238 245c-2.216 0-4 1.784-4 4v12h44v-12c0-2.216-1.784-4-4-4z" fill="#f15d22"/><path d="M234 261v17h44v-17z" fill="#ffce51"/><path d="M238 245c-2.216 0-4 1.784-4 4v12h1v-11.5c0-1.939 1.561-3.5 3.5-3.5h35c1.939 0 3.5 1.561 3.5 3.5V261h1v-12c0-2.216-1.784-4-4-4z" fill-opacity=".502"/><path d="M234 261v17h44v-17zm1 1h42v11h-42z" fill-opacity=".502"/><path d="M116 254c-1.108 0-2 .892-2 2v12a1.99 1.99 0 0 0 1.05 1.752c-.021-.082-.05-.163-.05-.252V256c0-.554.446-1 1-1s1 .446 1 1v13.5c0 .09-.029.17-.05.252A1.989 1.989 0 0 0 118 268v-12c0-1.108-.892-2-2-2z" fill-opacity=".502"/><path d="M107 264c-1.108 0-2 .892-2 2v7h22v-7c0-1.108-.892-2-2-2z" fill="#f15d22"/><path d="M105 273v8h22v-8z" fill="#ffce51"/><rect x="22" y="268" width="4" height="10.5" ry="2" fill="#f15d22"/><rect x="22" y="268" width="4" height="10.5" ry="2" fill="#f15d22"/><path d="M18 280v5h12v-5z" fill="#ffce51"/><path d="M24 268c-1.108 0-2 .892-2 2v6.5a1.99 1.99 0 0 0 1.05 1.752c-.021-.082-.05-.163-.05-.252v-8c0-.554.446-1 1-1s1 .446 1 1v8c0 .09-.029.17-.05.252A1.989 1.989 0 0 0 26 276.5V270c0-1.108-.892-2-2-2z" fill-opacity=".502"/><path d="M18 280v5h12v-5h-1v4H19v-4z" fill-opacity=".502"/><path d="M20 275c-1.108 0-2 .892-2 2v3h12v-3c0-1.108-.892-2-2-2z" fill="#f15d22"/><path d="M180 239c-1.662 0-3 1.338-3 3v18a2.983 2.983 0 0 0 2.596 2.959A1.995 1.995 0 0 1 178 261v-19c0-1.108.892-2 2-2s2 .892 2 2v19c0 .97-.683 1.773-1.596 1.959A2.983 2.983 0 0 0 183 260v-18c0-1.662-1.338-3-3-3z" fill-opacity=".502"/><path d="M167 254c-1.662 0-3 1.338-3 3v9h32v-9c0-1.662-1.338-3-3-3z" fill="#f15d22"/><path d="M164 266v13h32v-13z" fill="#ffce51"/><path d="M238 245c-2.216 0-4 1.784-4 4v12h44v-12c0-2.216-1.784-4-4-4z" fill="#f15d22"/><path d="M234 261v17h44v-17z" fill="#ffce51"/><path d="M376 164c-4.432 0-8 3.568-8 8v48c0 4.188 3.187 7.6 7.277 7.963A6.984 6.984 0 0 1 369 221v-49c0-3.878 3.122-7 7-7s7 3.122 7 7v49a6.984 6.984 0 0 1-6.277 6.963A7.977 7.977 0 0 0 384 220v-48c0-4.432-3.568-8-8-8z" fill-opacity=".502"/><path d="M340 206c-4.432 0-8 3.568-8 8v24h88v-24c0-4.432-3.568-8-8-8z" fill="#f15d22"/><path d="M332 238v34h88v-34z" fill="#ffce51"/><path d="M592 44c-8.864 0-16 7.136-16 16v96c0 8.864 7.136 16 16 16s16-7.136 16-16V60c0-8.864-7.136-16-16-16zm0 1c8.31 0 15 6.69 15 15v77c0 8.31-6.69 15-15 15s-15-6.69-15-15V60c0-8.31 6.69-15 15-15z" fill-opacity=".502"/><path d="M520 128c-8.864 0-16 7.136-16 16v48h176v-48c0-8.864-7.136-16-16-16z" fill="#f15d22"/><path d="M504 192v68h176v-68z" fill="#ffce51"/><path d="M68 260c-1.108 0-2 .892-2 2v13c0 1.108.892 2 2 2s2-.892 2-2v-13c0-1.108-.892-2-2-2zm0 1c.554 0 1 .446 1 1v12c0 .554-.446 1-1 1s-1-.446-1-1v-12c0-.554.446-1 1-1z" fill-opacity=".502"/><path d="M60 279v5h16v-5z" fill="#ffce51"/><path d="M62 270c-1.108 0-2 .892-2 2v7h16v-7c0-1.108-.892-2-2-2z" fill="#f15d22"/><path d="M20 275c-1.108 0-2 .892-2 2v3h1v-3c0-.554.446-1 1-1h8c.554 0 1 .446 1 1v3h1v-3c0-1.108-.892-2-2-2z" fill-opacity=".502"/><path d="M62 270c-1.108 0-2 .892-2 2v7h1v-7c0-.554.446-1 1-1h12c.554 0 1 .446 1 1v7h1v-7c0-1.108-.892-2-2-2z" fill-opacity=".502"/><path d="M107 264c-1.108 0-2 .892-2 2v7h1v-7c0-.554.446-1 1-1h18c.554 0 1 .446 1 1v7h1v-7c0-1.108-.892-2-2-2z" fill-opacity=".502"/><path d="M167 254c-1.662 0-3 1.338-3 3v9h1v-9c0-1.108.892-2 2-2h26c1.108 0 2 .892 2 2v9h1v-9c0-1.662-1.338-3-3-3z" fill-opacity=".502"/><path d="M238 245c-2.216 0-4 1.784-4 4v12h1v-12c0-1.662 1.338-3 3-3h36c1.662 0 3 1.338 3 3v12h1v-12c0-2.216-1.784-4-4-4z" fill-opacity=".502"/><path d="M340 206c-4.432 0-8 3.568-8 8v24h1v-24c0-3.878 3.122-7 7-7h72c3.878 0 7 3.122 7 7v24h1v-24c0-4.432-3.568-8-8-8z" fill-opacity=".502"/><path d="M520 128c-8.864 0-16 7.136-16 16v48h1v-48c0-8.31 6.69-15 15-15h144c8.31 0 15 6.69 15 15v48h1v-48c0-8.864-7.136-16-16-16z" fill-opacity=".502"/><path d="M60 279v5h16v-5h-1v4H61v-4z" fill-opacity=".502"/><path d="M105 273v8h22v-8h-1v6h-20v-6z" fill-opacity=".502"/><path d="M164 266v13h32v-13h-1v10h-30v-10z" fill-opacity=".502"/><path d="M234 261v17h44v-17h-1v14h-42v-14z" fill-opacity=".502"/><path d="M332 238v34h88v-34h-1v30h-86v-30z" fill-opacity=".502"/><path d="M504 192v68h176v-68h-1v63H505v-63z" fill-opacity=".502"/><path fill-opacity=".502" d="M21 280h1v5h-1z"/><path fill-opacity=".502" d="M24 280h1v5h-1z"/><path fill-opacity=".502" d="M27 280h1v5h-1z"/><path fill-opacity=".502" d="M63 279h1v5h-1z"/><path fill-opacity=".502" d="M66 279h1v5h-1z"/><path fill-opacity=".502" d="M69 279h1v5h-1z"/><path fill-opacity=".502" d="M72 279h1v5h-1z"/><path fill-opacity=".502" d="M114 273h1v8h-1z"/><path fill-opacity=".502" d="M117 273h1v8h-1z"/><path fill-opacity=".502" d="M120 273h1v8h-1z"/><path fill-opacity=".502" d="M123 273h1v8h-1z"/><path fill-opacity=".502" d="M111 273h1v8h-1z"/><path fill-opacity=".502" d="M108 273h1v8h-1z"/><path fill-opacity=".502" d="M172 266h1v13h-1z"/><path fill-opacity=".502" d="M177 266h1v13h-1z"/><path fill-opacity=".502" d="M182 266h1v13h-1z"/><path fill-opacity=".502" d="M187 266h1v13h-1z"/><path fill-opacity=".502" d="M167 266h1v13h-1z"/><path fill-opacity=".502" d="M192 266h1v13h-1z"/><path fill-opacity=".502" d="M245 261h1v17h-1z"/><path fill-opacity=".502" d="M252 261h1v17h-1z"/><path fill-opacity=".502" d="M259 261h1v17h-1z"/><path fill-opacity=".502" d="M238 261h1v17h-1z"/><path fill-opacity=".502" d="M266 261h1v17h-1z"/><path fill-opacity=".502" d="M273 261h1v17h-1z"/><path fill-opacity=".502" d="M348 238h1v34h-1z"/><path fill-opacity=".502" d="M381 238h1v34h-1z"/><path fill-opacity=".502" d="M392 238h1v34h-1z"/><path fill-opacity=".502" d="M337 238h1v34h-1z"/><path fill-opacity=".502" d="M403 238h1v34h-1z"/><path fill-opacity=".502" d="M414 238h1v34h-1z"/><path fill-opacity=".502" d="M359 238h1v34h-1z"/><path fill-opacity=".502" d="M370 238h1v34h-1z"/><g fill-opacity=".502"><path d="M536 191.994h2v67.998h-2z"/><path d="M602 191.994h2v67.998h-2z"/><path d="M624 191.994h2v67.998h-2z"/><path d="M514 191.994h2v67.998h-2z"/><path d="M646 191.994h2v67.998h-2z"/><path d="M668 191.994h2v67.998h-2z"/><path d="M558 191.994h2v67.998h-2z"/><path d="M580 191.994h2v67.998h-2z"/></g></g></svg>