<svg version="1.0" viewBox="0 0 16 16" xmlns="http://www.w3.org/2000/svg"><g transform="translate(-16 32)"><rect x="17" y="-31" width="14" height="15" ry="2" fill="#50443f"/><rect transform="matrix(0 -1 -1 0 0 0)" x="17" y="-30" width="13" height="12" rx="1" ry="1" fill="#a1887f"/><path fill="#fff" d="M19-28h10v10H19z"/><rect x="21" y="-32" width="6" height="6" ry="3" fill="#666"/><rect x="21" y="-29" width="6" height="1" ry="0" fill="#666"/><path d="M24-31c-1.108 0-2 .892-2 2v1h-1c-.554 0-.984.446-1 1v1h8v-1c0-.554-.446-1-1-1h-1v-1c0-1.108-.892-2-2-2z" fill="#ccc"/><circle cx="24" cy="-29" r="1" fill="#fff"/><rect x="20" y="-25" width="8" height="1" ry=".5" fill="#474341" fill-opacity=".69"/><rect x="20" y="-23" width="8" height="1" ry=".5" fill="#474341" fill-opacity=".69"/><rect x="20" y="-21" width="5" height="1" ry=".456" fill="#474341" fill-opacity=".69"/></g></svg>