<svg version="1.0" viewBox="0 0 16 16" xmlns="http://www.w3.org/2000/svg"><g transform="translate(-16 632)"><rect x="17" y="-631" width="14" height="14" ry="1.9" fill="#767676"/><rect x="18" y="-630" width="12" height="12" ry="1" fill="#ededed"/><rect x="18" y="-630" width="12" height="3" ry="1" fill="#faa41a"/><rect x="18" y="-628.5" width="12" height="1.5" ry="0" fill="#faa41a"/><g aria-label="19"><path d="M20-621h1v-4h-1v-1h2v5h1v1h-3z"/><path d="M25.5-626c-.831 0-1.5.669-1.5 1.5v1c0 .831.669 1.5 1.5 1.5.177 0 .343-.036.5-.092v.592c0 .277-.223.5-.5.5H24v1h2c.554 0 1-.446 1-1v-3.5c0-.831-.669-1.5-1.5-1.5zm0 1c.277 0 .5.223.5.5v1a.499.499 0 1 1-1 0v-1c0-.277.223-.5.5-.5z"/></g><rect x="23" y="-625" width="9" height="9" ry="4.5" fill="#479863"/><path d="M27.5-625c-2.493 0-4.5 2.007-4.5 4.5s2.007 4.5 4.5 4.5 4.5-2.007 4.5-4.5-2.007-4.5-4.5-4.5zm0 1c1.939 0 3.5 1.561 3.5 3.5s-1.561 3.5-3.5 3.5-3.5-1.561-3.5-3.5 1.561-3.5 3.5-3.5z" fill-opacity=".5"/><path fill="#fff" d="M27-623h1v5h-1z"/><path fill="#fff" d="M25-621h5v1h-5z"/></g></svg>