<svg version="1.0" viewBox="0 0 16 16" xmlns="http://www.w3.org/2000/svg"><g transform="translate(-16 -268)"><rect x="17" y="269" width="14" height="14" ry="7" fill="#3f51b5"/><rect x="17.5" y="269.5" width="13" height="13" ry="6.5" fill="none" stroke="#fff" stroke-linecap="round" stroke-linejoin="round" stroke-opacity=".392"/><path d="M23.998 272c-1.169 0-2.523.402-3 2l.978.306c.347-1.454 1.318-1.306 2.022-1.306.873 0 2 .225 2 1 0 1.521-3.107 1.932-3 4.296V279h1v-.634c0-1.845 3-2.113 3-4.366 0-1.127-1.225-2-3-2z" fill="#fff"/><rect x="22.998" y="280" width="1" height="1" ry="0" fill="#fff"/></g></svg>