<svg version="1.0" viewBox="0 0 16 16" xmlns="http://www.w3.org/2000/svg"><g transform="translate(-16 -268)"><rect x="23" y="269" width="8" height="8" ry="1" fill="#4860c8"/><rect x="23" y="271" width="8" height="8" ry="1" fill="#213397"/><rect x="23" y="270" width="8" height="8" ry="1" fill="#3f51b5"/><rect x="17" y="275" width="8" height="8" ry="1" fill="#1c8d9b"/><path d="m27 272-1 3h2zm-.5-1h1l3 7h-1l-1-2h-3l-1 2h-1z" fill="#fff"/><rect x="17" y="273" width="8" height="8" ry="1" fill="#4ea9b4"/><rect x="17" y="274" width="8" height="8" ry="1" fill="#48b9c7"/><path d="M20.998 276.002c-1.712 0-2.012.726-2 2 .017 1.609.687 1.938 2 2 1.485.07 2.013-.732 2-2-.016-1.607-.686-2-2-2zm1.5 4.5 1 1.5h-1l-1-1h-.5c-1.967 0-3.023-1.279-3-3 .026-1.9 1.285-3 2.998-3 1.964 0 3.094 1.285 3.002 3-.083 1.556-.487 1.863-1.5 2.5z" fill="#fff" aria-label="Q?"/></g></svg>