<svg version="1.0" viewBox="0 0 16 16" xmlns="http://www.w3.org/2000/svg"><path d="M11 15H5l-4-4V5l4-4h6l4 4v6z" fill="#cf3b00"/><path d="M10.786 14.5H5.214L1.5 10.786V5.214L5.214 1.5h5.572L14.5 5.214v5.572z" fill="none" stroke="#e8e8e8" stroke-opacity=".392"/><path d="M7.5 2.5c-.331 0-.503.272-.503.603C7.003 4.397 7 5.703 7 7H6V4.003h-.003c0-.332-.166-.503-.497-.503-.331 0-.5.169-.5.5.007.894.003 1.8.003 2.698v2.997l-1.06-1.53c-.495-.718-1.803-.113-1.188.93C3.517 10.39 5.702 13 7.5 13c1.668 0 4.5 0 4.5-2V4.5c0-.331-.169-.5-.5-.5-.331 0-.5.169-.5.5 0 .017.001.035.003.052L11 8h-1c-.001-1.19-.003-3.688 0-4.5 0-.331-.169-.5-.5-.5-.331 0-.5.169-.5.5 0 .017.001.035.003.052L9 7H8l.003-4H8c0-.331-.169-.5-.5-.5z" fill="#fff"/></svg>