<svg version="1.0" viewBox="0 0 16 16" xmlns="http://www.w3.org/2000/svg"><path d="M11.315 16H4.688L0 11.316V4.687L4.689.001h6.627l4.686 4.686v6.628z" fill="#cf3b00"/><path d="M4.686 0 0 4.686v6.628L4.686 16h6.629L16 11.314V4.686L11.315 0zM5.1 1h5.8L15 5.1v5.8L10.9 15H5.1L1 10.9V5.1z" fill-opacity=".502"/><path d="M21 273h1c.276 0 .538.1.719.281l1.28 1.278 1.282-1.278A1.02 1.02 0 0 1 26 273h1v1c0 .276-.1.538-.281.719l-1.282 1.277 1.282 1.285c.18.181.282.443.28.719v1h-1c-.275 0-.537-.1-.718-.281L24 277.434l-1.281 1.285A1.015 1.015 0 0 1 22 279h-1v-1c0-.276.1-.538.281-.719l1.281-1.285-1.28-1.277A1.015 1.015 0 0 1 21 274z" color="#000" fill="#fff" style="text-decoration-line:none;text-indent:0;text-transform:none" transform="translate(-16 -268)"/></svg>