<svg version="1.0" viewBox="0 0 16 16" xmlns="http://www.w3.org/2000/svg"><g transform="translate(-16 632)"><rect x="16" y="-632" width="16" height="16" ry="8" fill="#7b736e"/><path d="M24-632c-4.432 0-8 3.568-8 8s3.568 8 8 8 8-3.568 8-8-3.568-8-8-8zm0 1c3.878 0 7 3.122 7 7s-3.122 7-7 7-7-3.122-7-7 3.122-7 7-7z" fill="#fff" fill-opacity=".502"/><path d="M23.981-629.24a5.142 5.142 0 0 0-4.665 3.426c-.978 2.728.386 5.765 3.071 6.758 2.039.754 4.243.11 5.613-1.431a4.716 4.716 0 0 1-3.118-.047c-2.493-.922-3.772-3.732-2.864-6.266a4.799 4.799 0 0 1 1.963-2.44z" color="#bebebe" fill="#fff"/></g></svg>