<svg version="1.0" viewBox="0 0 16 16" xmlns="http://www.w3.org/2000/svg"><g transform="translate(-16 332)"><rect x="16" y="-332" width="16" height="16" ry="8" fill="#7b736e"/><path d="M24-332c-4.432 0-8 3.568-8 8s3.568 8 8 8 8-3.568 8-8-3.568-8-8-8zm0 1c3.878 0 7 3.122 7 7s-3.122 7-7 7-7-3.122-7-7 3.122-7 7-7z" fill="#fff" fill-opacity=".502"/><path d="M24-330a1 1 0 0 0-1 1 1 1 0 0 0 0 .004v4.992a1 1 0 0 0 0 .004 1 1 0 0 0 1 1 1 1 0 0 0 1-1 1 1 0 0 0 0-.004v-4.992a1 1 0 0 0 0-.004 1 1 0 0 0-1-1z" color="#bebebe" fill="#fff"/><path d="M20.16-328.23a1 1 0 0 0-.766.357 1 1 0 0 0-.084.116 5.997 5.997 0 0 0-1.091 5.322 6.008 6.008 0 0 0 5.81 4.398 6.006 6.006 0 0 0 5.768-4.453 5.999 5.999 0 0 0-1.117-5.279 1 1 0 0 0-.84-.461 1 1 0 0 0-1 1 1 1 0 0 0 .244.656 3.985 3.985 0 0 1 .781 3.569 3.991 3.991 0 0 1-3.846 2.968 3.992 3.992 0 0 1-3.875-2.931 3.987 3.987 0 0 1 .772-3.611l.008-.008a1 1 0 0 0 0-.002 1 1 0 0 0 .236-.641 1 1 0 0 0-1-1z" color="#000" fill="#fff" style="isolation:auto;mix-blend-mode:normal;text-decoration-color:#000;text-decoration-line:none;text-decoration-style:solid;text-indent:0;text-transform:none;white-space:normal"/></g></svg>