<svg version="1.0" viewBox="0 0 16 16" xmlns="http://www.w3.org/2000/svg"><g transform="translate(-16 32)"><rect x="16" y="-32" width="16" height="16" ry="8" fill="#7b736e"/><path d="M24-32c-4.432 0-8 3.568-8 8s3.568 8 8 8 8-3.568 8-8-3.568-8-8-8zm0 1c3.878 0 7 3.122 7 7s-3.122 7-7 7-7-3.122-7-7 3.122-7 7-7z" fill="#fff" fill-opacity=".502"/><path d="m28-27 4 3-4 3v-2h-4v-2h4z" color="#bebebe" fill="#fff"/><path d="M28.193-27.843a1 1 0 0 0-.357-.766 1 1 0 0 0-.116-.084 5.997 5.997 0 0 0-5.322-1.091A6.008 6.008 0 0 0 18-23.974a6.006 6.006 0 0 0 4.453 5.768 6 6 0 0 0 5.279-1.117 1 1 0 0 0 .461-.84 1 1 0 0 0-1-1 1 1 0 0 0-.656.244 3.985 3.985 0 0 1-3.569.781A3.991 3.991 0 0 1 20-23.984a3.992 3.992 0 0 1 2.931-3.875 3.987 3.987 0 0 1 3.611.772l.008.008a1 1 0 0 0 .002 0 1 1 0 0 0 .641.236 1 1 0 0 0 1-1z" color="#000" fill="#fff" style="isolation:auto;mix-blend-mode:normal;text-decoration-color:#000;text-decoration-line:none;text-decoration-style:solid;text-indent:0;text-transform:none;white-space:normal"/></g></svg>