<svg version="1.0" viewBox="0 0 16 16" xmlns="http://www.w3.org/2000/svg"><g transform="translate(-16 -268)"><rect x="16" y="268" width="16" height="16" ry="8" fill="#73c48f"/><path d="M24 268c-4.432 0-8 3.568-8 8s3.568 8 8 8 8-3.568 8-8-3.568-8-8-8zm0 1c3.878 0 7 3.122 7 7s-3.122 7-7 7-7-3.122-7-7 3.122-7 7-7z" fill-opacity=".502"/><path d="M23 272a1 1 0 1 0 0 2 4 4 0 0 1 4 4h-2l3 4 3-4h-2a6 6 0 0 0-6-6zm-3 0-3 4h2a6 6 0 0 0 6 6 1 1 0 0 0 0-2 4 4 0 0 1-4-4h2z" fill-opacity=".196"/><path d="M23 271a1 1 0 1 0 0 2 4 4 0 0 1 4 4h-2l3 4 3-4h-2a6 6 0 0 0-6-6zm-3 0-3 4h2a6 6 0 0 0 6 6 1 1 0 0 0 0-2 4 4 0 0 1-4-4h2z" fill="#fff"/></g></svg>