<svg version="1.0" viewBox="0 0 16 16" xmlns="http://www.w3.org/2000/svg"><g transform="translate(-16 -268)"><rect x="17" y="269" width="14" height="14" ry="2" fill="#7b736e"/><path d="M19 269c-1.108 0-2 .892-2 2v10c0 1.108.892 2 2 2h10c1.108 0 2-.892 2-2v-10c0-1.108-.892-2-2-2zm0 1h10c.554 0 1 .446 1 1v10c0 .554-.446 1-1 1H19c-.554 0-1-.446-1-1v-10c0-.554.446-1 1-1z" fill="#fff" fill-opacity=".502"/><path d="M23 272h2v2.996l3 .004v2l-3-.004V280h-2v-3.004L20 277v-2l3-.004z" color="#bebebe" fill="#fff" fill-opacity=".902"/></g></svg>