<svg version="1.0" viewBox="0 0 48 48" xmlns="http://www.w3.org/2000/svg"><g transform="translate(-156 -236)"><path d="M166.6 238a3.591 3.591 0 0 0-3.6 3.6v37.8c0 1.995 1.606 3.6 3.6 3.6h26.801c1.994 0 3.6-1.605 3.6-3.6V251l-13-13z" fill="#6f6f6f"/><path d="M196 251v27c0 1.662-1.338 3-3 3h-26c-1.662 0-3-1.338-3-3v-36c0-1.662 1.338-3 3-3h17" fill="#ececec"/><path d="M196 253h-10c-1.662 0-3-1.338-3-3v-11h1l12 12z" fill="#6f6f6f" fill-opacity=".502"/><path d="M196 251h-9c-1.662 0-3-1.338-3-3v-9" fill="#fafafa"/><rect x="168" y="276" width="15" height="2" ry=".912" fill="#474341" fill-opacity=".69"/><rect x="168" y="270" width="24" height="2" ry=".845" fill="#474341" fill-opacity=".69"/><rect x="168" y="264" width="24" height="2" ry=".75" fill="#474341" fill-opacity=".69"/><rect x="168" y="258" width="24" height="2" ry=".912" fill="#474341" fill-opacity=".69"/><rect transform="rotate(45)" x="319.4" y="65.332" width="7.5" height="4.5" ry="0" fill="#a27100"/><rect transform="rotate(45)" x="319.4" y="37.582" width="7.5" height="32.25" ry="2.25" fill="#a27100"/><path d="M176.47 275.23v5.303h5.303z" fill="#a27100"/><rect transform="rotate(45)" x="320.15" y="41.332" width="6" height="4.5" ry="0" fill="#d4d1ca"/><path fill="#ffce51" d="m195.033 259.849 2.121 2.121-16.97 16.97-2.122-2.12z"/><path fill="#fffa7d" d="m193.972 258.788 1.06 1.061-16.97 16.97-1.06-1.06z"/><path fill="#d1a023" d="m197.154 261.97 1.06 1.061-16.97 16.97-1.06-1.06z"/><path d="M177 275.76v4.243h4.243z" fill="#f5f2e3"/><path d="m177 278.94 1.06 1.06H177z" fill="#3c3c3c"/><rect transform="rotate(45)" x="320.15" y="38.332" width="6" height="3" ry="1.5" fill="#ff8989"/><rect transform="rotate(45)" x="320.15" y="39.832" width="6" height="1.5" ry="0" fill="#ff8989"/></g></svg>