<svg version="1.0" viewBox="0 0 48 48" xmlns="http://www.w3.org/2000/svg"><g transform="translate(-156 -236)"><rect x="160" y="240" width="40" height="41" ry="4" fill="#dedede"/><path d="M164.004 239.998c-2.216 0-4 1.784-4 4v33c0 2.216 1.784 4 4 4h32c2.216 0 4-1.784 4-4v-33c0-2.216-1.784-4-4-4zm.5 1h31c1.939 0 3.5 1.561 3.5 3.5v30c0 1.94-1.561 3.5-3.5 3.5h-31a3.492 3.492 0 0 1-3.5-3.5v-30c0-1.939 1.561-3.5 3.5-3.5z" fill-opacity=".502"/><rect x="163" y="242" width="16" height="17" ry="3.182" fill-opacity=".5"/><rect x="181" y="242" width="16" height="17" ry="3.182" fill-opacity=".5"/><rect x="163" y="260" width="16" height="17" ry="3.182" fill-opacity=".5"/><rect x="181" y="260" width="16" height="17" ry="3.182" fill-opacity=".5"/><rect x="163" y="242" width="16" height="16" ry="3.182" fill="#aaa"/><rect x="181" y="242" width="16" height="16" ry="3.182" fill="#aaa"/><rect x="163" y="260" width="16" height="16" ry="3.182" fill="#aaa"/><rect x="181" y="260" width="16" height="16" ry="3.182" fill="#73c48f"/><path d="M172 246v4h4v2h-4v4h-2v-4h-4v-2h4v-4z" fill-opacity=".196"/><path d="m194.5 247-4 4 4 4-1.5 1.5-4-4-4 4-1.5-1.5 4-4-4-4 1.5-1.5 4 4 4-4z" fill-opacity=".196"/><path d="M170 264h2v2h-2zm0 8h2v2h-2zm-5-4h12v2h-12z" fill-opacity=".196"/><path d="M184 266h10v2h-10zm0 4h10v2h-10z" fill-opacity=".196"/><path d="M172 245v4h4v2h-4v4h-2v-4h-4v-2h4v-4z" fill="#fff"/><path d="m194.5 246-4 4 4 4-1.5 1.5-4-4-4 4-1.5-1.5 4-4-4-4 1.5-1.5 4 4 4-4z" fill="#fff"/><path d="M170 263h2v2h-2zm0 8h2v2h-2zm-5-4h12v2h-12z" fill="#fff"/><path d="M184 265h10v2h-10zm0 4h10v2h-10z" fill="#fbfbfb"/></g></svg>