<svg version="1.0" viewBox="0 0 48 48" xmlns="http://www.w3.org/2000/svg"><g transform="translate(-156 -236)"><rect x="164" y="240" width="33" height="39" ry="3" fill="#560c00"/><rect x="165" y="241" width="31" height="37" ry="2.5" fill="#dedede"/><rect x="164" y="239" width="31" height="36" ry="3" fill="#560c00"/><rect x="165" y="240" width="29" height="34" ry="2.4" fill="#f15d22"/><path d="M167.4 240c-1.33 0-2.4 1.07-2.4 2.4v33.2c0 1.329 1.07 2.4 2.4 2.4h.6v-38z" fill="#350700"/><path d="M174 252c-2.216 0-4 1.784-4 4v8h2v-4h4v4h2v-8c0-2.216-1.784-4-4-4zm0 2c1.108 0 2 .892 2 2v2h-4v-2c0-1.108.892-2 2-2z" fill-opacity=".196"/><path d="M184 252v2h5l-5 8v2h8v-2h-5l5-8v-2h-2z" fill-opacity=".196"/><path fill-opacity=".196" d="M179 258h5v2h-5z"/><path d="M174 251c-2.216 0-4 1.784-4 4v8h2v-4h4v4h2v-8c0-2.216-1.784-4-4-4zm0 2c1.108 0 2 .892 2 2v2h-4v-2c0-1.108.892-2 2-2z" fill="#ededed"/><path d="M184 251v2h5l-5 8v2h8v-2h-5l5-8v-2h-2z" fill="#ededed"/><path fill="#ededed" d="M179 257h5v2h-5z"/></g></svg>