<svg version="1.0" viewBox="0 0 48 48" xmlns="http://www.w3.org/2000/svg"><g transform="translate(-156 -236)"><rect x="158" y="238" width="44" height="46" ry="22" fill="#7b7b7b"/><circle cx="180" cy="260" r="21" fill="#f6f6f6"/><rect transform="rotate(60)" x="314.67" y="-44.702" width="1" height="6" ry=".5" fill="#333"/><rect transform="rotate(30)" x="285.38" y="116.35" width="1" height="6" ry=".5" fill="#333"/><rect x="179" y="240.68" width="2" height="7" ry="1" fill="#333"/><rect transform="rotate(-30)" x="25.385" y="296.35" width="1" height="6" ry=".5" fill="#333"/><rect transform="rotate(-60)" x="-135.67" y="267.07" width="1" height="6" ry=".5" fill="#333"/><rect transform="rotate(-90)" x="-261" y="160.68" width="2" height="7" ry="1" fill="#333"/><rect transform="rotate(240)" x="-315.67" y="7.067" width="1" height="6" ry=".5" fill="#333"/><rect transform="rotate(210)" x="-286.38" y="-153.98" width="1" height="6" ry=".5" fill="#333"/><rect transform="scale(-1)" x="-181" y="-279.32" width="2" height="7" ry="1" fill="#333"/><rect transform="rotate(150)" x="-26.385" y="-333.98" width="1" height="6" ry=".5" fill="#333"/><rect transform="rotate(120)" x="134.67" y="-304.7" width="1" height="6" ry=".5" fill="#333"/><rect transform="rotate(90)" x="259" y="-199.32" width="2" height="7" ry="1" fill="#333"/><path d="M193.7 254.9a1 1 0 0 0-1.32-.507l-12.954 4.692a2 2 0 0 0-.243.089 2 2 0 0 0-1.014 2.64 2 2 0 0 0 2.641 1.014 2 2 0 0 0 .204-.108l12.18-6.5a1 1 0 0 0 .506-1.32z" fill-opacity=".502"/><path d="M193.7 253.9a1 1 0 0 0-1.32-.507l-12.954 4.692a2 2 0 0 0-.243.089 2 2 0 0 0-1.014 2.64 2 2 0 0 0 2.641 1.014 2 2 0 0 0 .204-.108l12.18-6.5a1 1 0 0 0 .506-1.32z" fill="#2b2928"/><path d="M184.07 270.14a1 1 0 0 0 .507-1.32l-2.615-8.217a2 2 0 0 0-.132-.412 2 2 0 0 0-2.64-1.013 2 2 0 0 0-1.014 2.64 2 2 0 0 0 .212.363l4.362 7.452a1 1 0 0 0 1.32.507z" fill-opacity=".502"/><path d="M184.07 269.14a1 1 0 0 0 .507-1.32l-2.615-8.217a2 2 0 0 0-.132-.412 2 2 0 0 0-2.64-1.013 2 2 0 0 0-1.014 2.64 2 2 0 0 0 .212.363l4.362 7.452a1 1 0 0 0 1.32.507z" fill="#474341"/><circle cx="180" cy="261" r="1" fill-opacity=".502"/><circle cx="180" cy="260" r="1" fill="#f6f6f6"/></g></svg>