<svg version="1.0" viewBox="0 0 48 48" xmlns="http://www.w3.org/2000/svg"><g transform="translate(-156 -236)"><rect transform="matrix(0 -1 -1 0 0 0)" x="-281" y="-196" width="40" height="32" ry="3" fill="#50443f"/><rect transform="matrix(0 -1 -1 0 0 0)" x="-278" y="-195" width="36" height="30" ry="2.5" fill="#a1887f"/><path fill="#fff" d="M167 244h26v32h-26z"/><rect x="176" y="237" width="8" height="9" ry="4" fill="#666"/><rect x="176" y="242" width="8" height="4" ry="0" fill="#666"/><path fill="#ccc" d="M173 244h14v2h-14z"/><rect x="173" y="243" width="14" height="2" ry="1" fill="#ccc"/><circle cx="180" cy="241" r="3" fill="#ccc"/><path fill="#ccc" d="M177 241h6v2.5h-6z"/><circle cx="180" cy="240.5" r="1.5" fill="#fff"/></g></svg>