<svg version="1.0" viewBox="0 0 48 48" xmlns="http://www.w3.org/2000/svg"><g transform="translate(-156 364)"><rect x="159" y="-353" width="42" height="32" ry="3" fill="#6f6f6f"/><rect x="160" y="-352" width="40" height="28" ry="2.5" fill="#dedede"/><path fill="#45454f" d="M162-350h36v22h-36z"/><rect x="162" y="-350" width="36" height="22" ry="0" fill="#48b9c7"/><path d="M163-348v8h2v-6h8v-2h-8zm24 0v2h8v6h2v-8h-2zm-24 12v8h10v-2h-8v-6zm32 0v6h-8v2h10v-8z" fill-opacity=".196"/><path d="M163-349v8h2v-6h8v-2h-8zm24 0v2h8v6h2v-8h-2zm-24 12v8h10v-2h-8v-6zm32 0v6h-8v2h10v-8z" fill="#fff" fill-opacity=".989"/></g></svg>