<svg version="1.0" viewBox="0 0 48 48" xmlns="http://www.w3.org/2000/svg"><path d="M10.6 2A3.591 3.591 0 0 0 7 5.6v37.8c0 1.995 1.606 3.6 3.6 3.6h26.801c1.994 0 3.6-1.605 3.6-3.6V15L28 2z" fill="#6f6f6f"/><path d="M40 15v27c0 1.662-1.338 3-3 3H11c-1.662 0-3-1.338-3-3V6c0-1.662 1.338-3 3-3h17" fill="#ececec"/><path d="M40 17H30c-1.662 0-3-1.338-3-3V3h1l12 12z" fill="#6f6f6f" fill-opacity=".502"/><path d="M40 15h-9c-1.662 0-3-1.338-3-3V3" fill="#fafafa"/><rect x="-136" y="40" width="8" height="1" ry=".5" fill="#474341" fill-opacity=".69"/><rect x="-136" y="42" width="8" height="1" ry=".5" fill="#474341" fill-opacity=".69"/><rect x="-136" y="44" width="5" height="1" ry=".456" fill="#474341" fill-opacity=".69"/><rect x="-95" y="44" width="9" height="1" ry=".456" fill="#474341" fill-opacity=".69"/><rect x="-95" y="41" width="14" height="1" ry=".456" fill="#474341" fill-opacity=".69"/><rect x="-95" y="38" width="14" height="1" ry=".456" fill="#474341" fill-opacity=".69"/><rect x="-95" y="35" width="14" height="1" ry=".456" fill="#474341" fill-opacity=".69"/><rect x="-47" y="41" width="9" height="1" ry=".456" fill="#474341" fill-opacity=".69"/><rect x="-47" y="38" width="14" height="1" ry=".456" fill="#474341" fill-opacity=".69"/><rect x="-47" y="35" width="14" height="1" ry=".456" fill="#474341" fill-opacity=".69"/><rect x="-47" y="32" width="14" height="1" ry=".456" fill="#474341" fill-opacity=".69"/><g transform="translate(-156 -236)" fill="#474341" fill-opacity=".69"><rect x="243" y="-334.5" width="9" height="1" ry=".456"/><rect x="243" y="-337.5" width="14" height="1" ry=".456"/><rect x="243" y="-340.5" width="14" height="1" ry=".456"/><rect x="243" y="-343.5" width="14" height="1" ry=".456"/><rect x="243" y="-334.5" width="9" height="1" ry=".456"/><rect x="243" y="-337.5" width="14" height="1" ry=".456"/><rect x="243" y="-340.5" width="14" height="1" ry=".456"/><rect x="243" y="-343.5" width="14" height="1" ry=".456"/><rect x="243" y="-334.5" width="9" height="1" ry=".456"/><rect x="243" y="-337.5" width="14" height="1" ry=".456"/><rect x="243" y="-340.5" width="14" height="1" ry=".456"/><rect x="243" y="-343.5" width="14" height="1" ry=".456"/><rect x="243" y="-334.5" width="7.5" height="1" ry=".456"/><rect x="243" y="-337.5" width="12" height="1" ry=".423"/><rect x="243" y="-340.5" width="12" height="1" ry=".375"/><rect x="243" y="-343.5" width="12" height="1" ry=".456"/></g><rect x="-42" y="33" width="15" height="15" ry="3.5" fill="#671d00"/><rect x="-41" y="34" width="13" height="12" ry="3" fill="#cf3b00"/><rect x="22" y="28" width="20" height="20" ry="3.5" fill="#671d00"/><rect x="23" y="29" width="18" height="16" ry="3" fill="#cf3b00"/><rect x="98" y="24" width="26" height="24" ry="5.5" fill="#671d00"/><rect x="99" y="25" width="24" height="20" ry="5" fill="#cf3b00"/><rect x="216" width="52" height="47" ry="10.5" fill="#671d00"/><rect x="217" y="1" width="50" height="42" ry="10" fill="#cf3b00"/><rect x="427" y="-47.987" width="104" height="91.987" ry="20.5" fill="#671d00"/><rect x="428" y="-47" width="102" height="86" ry="20" fill="#cf3b00"/><rect x="-90" y="36" width="13" height="12" ry="2.5" fill="#671d00"/><rect x="-89" y="37" width="11" height="10.002" ry="2" fill="#cf3b00"/><rect x="-135" y="38" width="11" height="10" ry="1.5" fill="#671d00"/><rect x="-134" y="39" width="9" height="8" ry="1" fill="#cf3b00"/><path d="M32 32a8.939 9 0 0 0-8 5.01A8.939 9 0 0 0 32 42a8.939 9 0 0 0 8-5.01A8.939 9 0 0 0 32 32zm0 1a4 4 0 0 1 4 4 4 4 0 0 1-4 4 4 4 0 0 1-4-4 4 4 0 0 1 4-4zm0 2a2 2 0 0 0-2 2 2 2 0 0 0 2 2 2 2 0 0 0 2-2 2 2 0 0 0-2-2z" fill="#fff"/></svg>