<svg version="1.0" viewBox="0 0 48 48" xmlns="http://www.w3.org/2000/svg"><g transform="translate(-156 -236)"><path d="M166.6 238a3.591 3.591 0 0 0-3.6 3.6v37.8c0 1.995 1.606 3.6 3.6 3.6h26.801c1.994 0 3.6-1.605 3.6-3.6V251l-13-13z" fill="#6f6f6f"/><path d="M196 251v27c0 1.662-1.338 3-3 3h-26c-1.662 0-3-1.338-3-3v-36c0-1.662 1.338-3 3-3h17" fill="#ececec"/><path d="M196 253h-10c-1.662 0-3-1.338-3-3v-11h1l12 12z" fill="#6f6f6f" fill-opacity=".502"/><path d="M196 251h-9c-1.662 0-3-1.338-3-3v-9" fill="#fafafa"/><rect x="168" y="276" width="15" height="2" ry=".912" fill="#474341" fill-opacity=".69"/><rect x="168" y="270" width="24" height="2" ry=".845" fill="#474341" fill-opacity=".69"/><rect x="168" y="264" width="24" height="2" ry=".75" fill="#474341" fill-opacity=".69"/><rect x="168" y="258" width="24" height="2" ry=".912" fill="#474341" fill-opacity=".69"/><rect x="178" y="264" width="20" height="20" ry="3.5" fill="#671d00"/><rect x="179" y="265" width="18" height="16" ry="3" fill="#cf3b00"/><path d="M188 268a8.939 9 0 0 0-8 5.01 8.939 9 0 0 0 8 4.99 8.939 9 0 0 0 8-5.01 8.939 9 0 0 0-8-4.99zm0 1a4 4 0 0 1 4 4 4 4 0 0 1-4 4 4 4 0 0 1-4-4 4 4 0 0 1 4-4zm0 2a2 2 0 0 0-2 2 2 2 0 0 0 2 2 2 2 0 0 0 2-2 2 2 0 0 0-2-2z" fill="#fff"/></g></svg>