<svg version="1.0" viewBox="0 0 48 48" xmlns="http://www.w3.org/2000/svg"><g transform="translate(-156 -236)"><rect x="160" y="240" width="40" height="39" ry="3.5" fill="#4f4b49"/><rect x="161" y="241" width="38" height="35" ry="3" fill="#9f9792"/><path d="m177.38 248-.231 2.766a8.25 8.25 0 0 0-2.412 1.394l-2.513-1.183-2.625 4.546 2.282 1.585a8.25 8.25 0 0 0-.126 1.392 8.25 8.25 0 0 0 .12 1.397l-2.276 1.58 2.625 4.546 2.507-1.18a8.25 8.25 0 0 0 2.417 1.386l.232 2.771h5.25l.231-2.766a8.25 8.25 0 0 0 2.411-1.394l2.514 1.184 2.625-4.547-2.282-1.585a8.25 8.25 0 0 0 .126-1.392 8.25 8.25 0 0 0-.12-1.397l2.276-1.58-2.625-4.546-2.508 1.18a8.25 8.25 0 0 0-2.417-1.386L182.63 248zm2.625 7.5a3 3 0 0 1 3 3 3 3 0 0 1-3 3 3 3 0 0 1-3-3 3 3 0 0 1 3-3z" fill="#2b2928"/></g></svg>