<svg version="1.0" viewBox="0 0 48 48" xmlns="http://www.w3.org/2000/svg" xmlns:xlink="http://www.w3.org/1999/xlink"><defs><linearGradient id="b" x1="60" x2="68" y1="268" y2="268" gradientUnits="userSpaceOnUse" xlink:href="#a"/><linearGradient id="a" x1="60" x2="68" y1="268" y2="268" gradientUnits="userSpaceOnUse"><stop stop-color="#949390" offset="0"/><stop stop-color="#d5d3cf" offset=".083"/><stop stop-color="#949390" offset=".167"/><stop stop-color="#949390" offset=".833"/><stop stop-color="#d5d3cf" offset=".917"/><stop stop-color="#949390" offset="1"/></linearGradient></defs><g transform="translate(-156 -236)"><rect x="103" y="255" width="26" height="26" ry="2" fill="#396247"/><rect x="104" y="256" width="24" height="17" ry="1.5" fill="#73c48f"/><rect x="57" y="261" width="22" height="22" ry="1.5" fill="#396247"/><rect x="58" y="262" width="20" height="17" ry="1" fill="#73c48f"/><rect x="17" y="269" width="14" height="14" ry="1" fill="#396247"/><rect x="18" y="270" width="12" height="10" ry=".5" fill="#73c48f"/><rect x="160" y="240" width="40" height="39" ry="3" fill="#396247"/><rect x="230" y="226" width="54" height="52" ry="4.5" fill="#396247"/><rect x="324" y="168" width="108" height="104" ry="6.5" fill="#396247"/><rect x="488" y="52" width="216" height="208" ry="8.5" fill="#396247"/><rect x="161" y="241" width="38" height="26" ry="2" fill="#73c48f"/><rect x="231" y="227" width="52" height="35" ry="4" fill="#73c48f"/><rect x="325" y="169" width="106" height="67" ry="6" fill="#73c48f"/><rect x="489" y="53" width="214" height="140" ry="8" fill="#73c48f"/><path d="M110 277.5h12m5-4-5 4 5 3m-22-7 5 4-5 3" fill="none" stroke="#000" stroke-opacity=".251"/><path d="M245 270.5h24m10-8-10 8 10 6m-44-14 10 8-10 6" fill="none" stroke="#000" stroke-opacity=".251"/><path d="M354 254.98h48m20-16-20 16 20 12m-88-28 20 16-20 12" fill="none" stroke="#000" stroke-opacity=".251"/><path d="M548 229.96h96m40-32-40 32 40 24m-176-56 40 32-40 24" fill="none" stroke="#000" stroke-opacity=".251" stroke-width="2"/><path d="M171 273.5h18m7.5-6-7.5 6 7.5 4.5m-33-10.5 7.5 6-7.5 4.5" fill="none" stroke="#000" stroke-opacity=".251"/><g transform="translate(0 300)"><rect x="115" y="-44" width="1" height="17" ry="0" fill-opacity=".502"/><path fill="#fff" fill-opacity=".251" d="M116-44h1v17h-1z"/><path fill-opacity=".502" d="M115-43h1v1h-1z"/><path fill-opacity=".502" d="M115-41h1v1h-1z"/><path fill-opacity=".502" d="M115-39h1v1h-1z"/><path fill-opacity=".502" d="M115-37h1v1h-1z"/><path fill-opacity=".502" d="M115-35h1v1h-1z"/><path fill-opacity=".502" d="M115-33h1v1h-1z"/><path fill-opacity=".502" d="M115-31h1v1h-1z"/><path fill-opacity=".502" d="M115-29h1v1h-1z"/><path fill-opacity=".502" d="M116-44h1v1h-1z"/><path fill-opacity=".502" d="M116-42h1v1h-1z"/><path fill-opacity=".502" d="M116-40h1v1h-1z"/><path fill-opacity=".502" d="M116-38h1v1h-1z"/><path fill-opacity=".502" d="M116-36h1v1h-1z"/><path fill-opacity=".502" d="M116-34h1v1h-1z"/><path fill-opacity=".502" d="M116-32h1v1h-1z"/><path fill-opacity=".502" d="M116-30h1v1h-1z"/><path fill-opacity=".502" d="M116-28h1v1h-1z"/><path fill="#fefefe" fill-opacity=".502" d="M115-28h1v1h-1z"/><path fill="#fefefe" fill-opacity=".502" d="M116-29h1v1h-1z"/><path fill="#fefefe" fill-opacity=".502" d="M115-30h1v1h-1z"/><path fill="#fefefe" fill-opacity=".502" d="M116-31h1v1h-1z"/><path fill="#fefefe" fill-opacity=".502" d="M115-32h1v1h-1z"/><path fill="#fefefe" fill-opacity=".502" d="M115-34h1v1h-1z"/><path fill="#fefefe" fill-opacity=".502" d="M115-36h1v1h-1z"/><path fill="#fefefe" fill-opacity=".502" d="M115-38h1v1h-1z"/><path fill="#fefefe" fill-opacity=".502" d="M115-40h1v1h-1z"/><path fill="#fefefe" fill-opacity=".502" d="M115-42h1v1h-1z"/><path fill="#fefefe" fill-opacity=".502" d="M115-44h1v1h-1z"/><path fill="#fefefe" fill-opacity=".502" d="M116-43h1v1h-1z"/><path fill="#fefefe" fill-opacity=".502" d="M116-41h1v1h-1z"/><path fill="#fefefe" fill-opacity=".502" d="M116-39h1v1h-1z"/><path fill="#fefefe" fill-opacity=".502" d="M116-37h1v1h-1z"/><path fill="#fefefe" fill-opacity=".502" d="M116-35h1v1h-1z"/><path fill="#fefefe" fill-opacity=".502" d="M116-33h1v1h-1z"/></g><g fill-opacity=".251"><path d="M178 241h2v26h-2z"/><path fill="#fff" d="M180 241h2v26h-2z"/></g><g fill-opacity=".251"><path d="M255 227h2v35h-2z"/><path fill="#fff" d="M257 227h2v35h-2z"/></g><g transform="translate(2 300)" fill-opacity=".502"><rect x="176" y="-59" width="2" height="2" ry="0"/><path d="M176-55h2v2h-2z"/><path d="M176-51h2v2h-2z"/><path d="M176-47h2v2h-2z"/><path d="M176-43h2v2h-2z"/><path d="M176-39h2v2h-2z"/><path d="M176-35h2v2h-2z"/></g><g transform="translate(4 302)" fill="#131313" fill-opacity=".502"><rect x="176" y="-59" width="2" height="2" ry="0"/><path d="M176-55h2v2h-2z"/><path d="M176-51h2v2h-2z"/><path d="M176-47h2v2h-2z"/><path d="M176-43h2v2h-2z"/><path d="M176-39h2v2h-2z"/></g><g transform="translate(4 300)" fill="#f4f4f4" fill-opacity=".502"><rect x="176" y="-59" width="2" height="2" ry="0"/><path d="M176-55h2v2h-2z"/><path d="M176-51h2v2h-2z"/><path d="M176-47h2v2h-2z"/><path d="M176-43h2v2h-2z"/><path d="M176-39h2v2h-2z"/><path d="M176-35h2v2h-2z"/></g><g transform="translate(2 302)" fill="#fdfdfd" fill-opacity=".502"><rect x="176" y="-59" width="2" height="2" ry="0"/><path d="M176-55h2v2h-2z"/><path d="M176-51h2v2h-2z"/><path d="M176-47h2v2h-2z"/><path d="M176-43h2v2h-2z"/><path d="M176-39h2v2h-2z"/></g><g transform="translate(79 286)" fill-opacity=".502"><rect x="176" y="-59" width="2" height="2" ry="0"/><path d="M176-55h2v2h-2z"/><path d="M176-51h2v2h-2z"/><path d="M176-47h2v2h-2z"/><path d="M176-43h2v2h-2z"/><path d="M176-39h2v2h-2z"/><path d="M176-35h2v2h-2z"/></g><g transform="translate(79 288)" fill="#fdfdfd" fill-opacity=".502"><rect x="176" y="-59" width="2" height="2" ry="0"/><path d="M176-55h2v2h-2z"/><path d="M176-51h2v2h-2z"/><path d="M176-47h2v2h-2z"/><path d="M176-43h2v2h-2z"/><path d="M176-39h2v2h-2z"/></g><g transform="translate(81 286)" fill="#f4f4f4" fill-opacity=".502"><rect x="176" y="-59" width="2" height="2" ry="0"/><path d="M176-55h2v2h-2z"/><path d="M176-51h2v2h-2z"/><path d="M176-47h2v2h-2z"/><path d="M176-43h2v2h-2z"/><path d="M176-39h2v2h-2z"/><path d="M176-35h2v2h-2z"/></g><g transform="translate(81 288)" fill="#131313" fill-opacity=".502"><rect x="176" y="-59" width="2" height="2" ry="0"/><path d="M176-55h2v2h-2z"/><path d="M176-51h2v2h-2z"/><path d="M176-47h2v2h-2z"/><path d="M176-43h2v2h-2z"/><path d="M176-39h2v2h-2z"/></g><g transform="translate(79 314)" fill-opacity=".502"><rect x="176" y="-59" width="2" height="2" ry="0"/><path d="M176-55h2v2h-2z"/></g><g transform="translate(79 312)" fill="#fdfdfd" fill-opacity=".502"><rect x="176" y="-59" width="2" height="2" ry="0"/><path d="M176-55h2v2h-2z"/><path d="M176-51h2v1h-2z"/></g><g transform="translate(81 314)" fill="#f4f4f4" fill-opacity=".502"><rect x="176" y="-59" width="2" height="2" ry="0"/><path d="M176-55h2v2h-2z"/></g><g transform="translate(81 312)" fill="#131313" fill-opacity=".502"><rect x="176" y="-59" width="2" height="2" ry="0"/><path d="M176-55h2v2h-2z"/><path d="M176-51h2v1h-2z"/></g><g fill-opacity=".251"><path d="M374 169h4v67h-4z"/><path fill="#fff" d="M378 169h4v67h-4z"/></g><g transform="matrix(2 0 0 2 22 287)" fill-opacity=".502"><rect x="176" y="-59" width="2" height="2" ry="0"/><path d="M176-55h2v2h-2z"/><path d="M176-51h2v2h-2z"/><path d="M176-47h2v2h-2z"/><path d="M176-43h2v2h-2z"/><path d="M176-39h2v2h-2z"/><path d="M176-35h2v2h-2z"/></g><g transform="matrix(2 0 0 2 22 291)" fill="#fdfdfd" fill-opacity=".502"><rect x="176" y="-59" width="2" height="2" ry="0"/><path d="M176-55h2v2h-2z"/><path d="M176-51h2v2h-2z"/><path d="M176-47h2v2h-2z"/><path d="M176-43h2v2h-2z"/><path d="M176-39h2v2h-2z"/></g><g transform="matrix(2 0 0 2 26 287)" fill="#f4f4f4" fill-opacity=".502"><rect x="176" y="-59" width="2" height="2" ry="0"/><path d="M176-55h2v2h-2z"/><path d="M176-51h2v2h-2z"/><path d="M176-47h2v2h-2z"/><path d="M176-43h2v2h-2z"/><path d="M176-39h2v2h-2z"/><path d="M176-35h2v2h-2z"/></g><g transform="matrix(2 0 0 2 26 291)" fill="#131313" fill-opacity=".502"><rect x="176" y="-59" width="2" height="2" ry="0"/><path d="M176-55h2v2h-2z"/><path d="M176-51h2v2h-2z"/><path d="M176-47h2v2h-2z"/><path d="M176-43h2v2h-2z"/><path d="M176-39h2v2h-2z"/></g><g transform="matrix(2 0 0 2 22 343)" fill-opacity=".502"><rect x="176" y="-59" width="2" height="2" ry="0"/><path d="M176-55h2v1.5h-2z"/></g><g transform="matrix(2 0 0 2 22 339)" fill="#fdfdfd" fill-opacity=".502"><rect x="176" y="-59" width="2" height="2" ry="0"/><path d="M176-55h2v2h-2z"/></g><g transform="matrix(2 0 0 2 26 343)" fill="#f4f4f4" fill-opacity=".502"><rect x="176" y="-59" width="2" height="2" ry="0"/><path d="M176-55h2v1.5h-2z"/></g><g transform="matrix(2 0 0 2 26 339)" fill="#131313" fill-opacity=".502"><rect x="176" y="-59" width="2" height="2" ry="0"/><path d="M176-55h2v2h-2z"/></g><g fill-opacity=".251"><path d="M592 53.001h4v64h-4z"/><path fill="#fff" d="M596 53.001h4v64h-4z"/></g><g transform="matrix(2 0 0 2 240 171)" fill-opacity=".502"><rect x="176" y="-59" width="2" height="2" ry="0"/><path d="M176-55h2v2h-2z"/><path d="M176-51h2v2h-2z"/><path d="M176-47h2v2h-2z"/><path d="M176-43h2v2h-2z"/><path d="M176-39h2v2h-2z"/><path d="M176-35h2v2h-2z"/></g><g transform="matrix(2 0 0 2 240 175)" fill="#fdfdfd" fill-opacity=".502"><rect x="176" y="-59" width="2" height="2" ry="0"/><path d="M176-55h2v2h-2z"/><path d="M176-51h2v2h-2z"/><path d="M176-47h2v2h-2z"/><path d="M176-43h2v2h-2z"/><path d="M176-39h2v2h-2z"/></g><g transform="matrix(2 0 0 2 244 171)" fill="#f4f4f4" fill-opacity=".502"><rect x="176" y="-59" width="2" height="2" ry="0"/><path d="M176-55h2v2h-2z"/><path d="M176-51h2v2h-2z"/><path d="M176-47h2v2h-2z"/><path d="M176-43h2v2h-2z"/><path d="M176-39h2v2h-2z"/><path d="M176-35h2v2h-2z"/></g><g transform="matrix(2 0 0 2 244 175)" fill="#131313" fill-opacity=".502"><rect x="176" y="-59" width="2" height="2" ry="0"/><path d="M176-55h2v2h-2z"/><path d="M176-51h2v2h-2z"/><path d="M176-47h2v2h-2z"/><path d="M176-43h2v2h-2z"/><path d="M176-39h2v2h-2z"/></g><rect x="176" y="-59" width="2" height="2" ry="0" transform="matrix(2 0 0 2 240 227)" fill-opacity=".502"/><g transform="matrix(2 0 0 2 240 223)" fill="#fdfdfd" fill-opacity=".502"><rect x="176" y="-59" width="2" height="2" ry="0"/><path d="M176-55h2v2h-2z"/></g><rect x="176" y="-59" width="2" height="2" ry="0" transform="matrix(2 0 0 2 244 227)" fill="#f4f4f4" fill-opacity=".502"/><g transform="matrix(2 0 0 2 244 223)" fill="#131313" fill-opacity=".502"><rect x="176" y="-59" width="2" height="2" ry="0"/><path d="M176-55h2v2h-2z"/></g><g fill-opacity=".251"><path d="M592 117h4v67h-4z"/><path fill="#fff" d="M596 117h4v67h-4z"/></g><g transform="matrix(2 0 0 2 240 235)" fill-opacity=".502"><rect x="176" y="-59" width="2" height="2" ry="0"/><path d="M176-55h2v2h-2z"/><path d="M176-51h2v2h-2z"/><path d="M176-47h2v2h-2z"/><path d="M176-43h2v2h-2z"/><path d="M176-39h2v2h-2z"/><path d="M176-35h2v2h-2z"/></g><g transform="matrix(2 0 0 2 240 239)" fill="#fdfdfd" fill-opacity=".502"><rect x="176" y="-59" width="2" height="2" ry="0"/><path d="M176-55h2v2h-2z"/><path d="M176-51h2v2h-2z"/><path d="M176-47h2v2h-2z"/><path d="M176-43h2v2h-2z"/><path d="M176-39h2v2h-2z"/></g><g transform="matrix(2 0 0 2 244 235)" fill="#f4f4f4" fill-opacity=".502"><rect x="176" y="-59" width="2" height="2" ry="0"/><path d="M176-55h2v2h-2z"/><path d="M176-51h2v2h-2z"/><path d="M176-47h2v2h-2z"/><path d="M176-43h2v2h-2z"/><path d="M176-39h2v2h-2z"/><path d="M176-35h2v2h-2z"/></g><g transform="matrix(2 0 0 2 244 239)" fill="#131313" fill-opacity=".502"><rect x="176" y="-59" width="2" height="2" ry="0"/><path d="M176-55h2v2h-2z"/><path d="M176-51h2v2h-2z"/><path d="M176-47h2v2h-2z"/><path d="M176-43h2v2h-2z"/><path d="M176-39h2v2h-2z"/></g><g transform="matrix(2 0 0 2 240 291)" fill-opacity=".502"><rect x="176" y="-59" width="2" height="2" ry="0"/><path d="M176-55h2v1.5h-2z"/></g><g transform="matrix(2 0 0 2 240 287)" fill="#fdfdfd" fill-opacity=".502"><rect x="176" y="-59" width="2" height="2" ry="0"/><path d="M176-55h2v2h-2z"/></g><g transform="matrix(2 0 0 2 244 291)" fill="#f4f4f4" fill-opacity=".502"><rect x="176" y="-59" width="2" height="2" ry="0"/><path d="M176-55h2v1.5h-2z"/></g><g transform="matrix(2 0 0 2 244 287)" fill="#131313" fill-opacity=".502"><rect x="176" y="-59" width="2" height="2" ry="0"/><path d="M176-55h2v2h-2z"/></g><g fill-opacity=".251"><path d="M592 184h4v9h-4z"/><path fill="#fff" d="M596 184h4v9h-4z"/></g><g transform="matrix(-2 0 0 -2 948 75)" fill-opacity=".502"><rect x="176" y="-59" width="2" height="2" ry="0"/><path d="M176-55h2v.5h-2z"/></g><rect x="176" y="-59" width="2" height="2" ry="0" transform="matrix(2 0 0 2 240 303)" fill="#fdfdfd" fill-opacity=".502"/><g transform="matrix(2 0 0 -2 244 75)" fill="#f4f4f4" fill-opacity=".502"><rect x="176" y="-59" width="2" height="2" ry="0"/><path d="M176-55h2v.5h-2z"/></g><rect x="176" y="-59" width="2" height="2" ry="0" transform="matrix(2 0 0 2 244 303)" fill="#131313" fill-opacity=".502"/><g transform="translate(-48 306)"><rect x="115" y="-44" width="1" height="17" ry="0" fill-opacity=".502"/><path fill="#fff" fill-opacity=".251" d="M116-44h1v17h-1z"/><path fill-opacity=".502" d="M115-43h1v1h-1z"/><path fill-opacity=".502" d="M115-41h1v1h-1z"/><path fill-opacity=".502" d="M115-39h1v1h-1z"/><path fill-opacity=".502" d="M115-37h1v1h-1z"/><path fill-opacity=".502" d="M115-35h1v1h-1z"/><path fill-opacity=".502" d="M115-33h1v1h-1z"/><path fill-opacity=".502" d="M115-31h1v1h-1z"/><path fill-opacity=".502" d="M115-29h1v1h-1z"/><path fill-opacity=".502" d="M116-44h1v1h-1z"/><path fill-opacity=".502" d="M116-42h1v1h-1z"/><path fill-opacity=".502" d="M116-40h1v1h-1z"/><path fill-opacity=".502" d="M116-38h1v1h-1z"/><path fill-opacity=".502" d="M116-36h1v1h-1z"/><path fill-opacity=".502" d="M116-34h1v1h-1z"/><path fill-opacity=".502" d="M116-32h1v1h-1z"/><path fill-opacity=".502" d="M116-30h1v1h-1z"/><path fill-opacity=".502" d="M116-28h1v1h-1z"/><path fill="#fefefe" fill-opacity=".502" d="M115-28h1v1h-1z"/><path fill="#fefefe" fill-opacity=".502" d="M116-29h1v1h-1z"/><path fill="#fefefe" fill-opacity=".502" d="M115-30h1v1h-1z"/><path fill="#fefefe" fill-opacity=".502" d="M116-31h1v1h-1z"/><path fill="#fefefe" fill-opacity=".502" d="M115-32h1v1h-1z"/><path fill="#fefefe" fill-opacity=".502" d="M115-34h1v1h-1z"/><path fill="#fefefe" fill-opacity=".502" d="M115-36h1v1h-1z"/><path fill="#fefefe" fill-opacity=".502" d="M115-38h1v1h-1z"/><path fill="#fefefe" fill-opacity=".502" d="M115-40h1v1h-1z"/><path fill="#fefefe" fill-opacity=".502" d="M115-42h1v1h-1z"/><path fill="#fefefe" fill-opacity=".502" d="M115-44h1v1h-1z"/><path fill="#fefefe" fill-opacity=".502" d="M116-43h1v1h-1z"/><path fill="#fefefe" fill-opacity=".502" d="M116-41h1v1h-1z"/><path fill="#fefefe" fill-opacity=".502" d="M116-39h1v1h-1z"/><path fill="#fefefe" fill-opacity=".502" d="M116-37h1v1h-1z"/><path fill="#fefefe" fill-opacity=".502" d="M116-35h1v1h-1z"/><path fill="#fefefe" fill-opacity=".502" d="M116-33h1v1h-1z"/></g><g transform="translate(-92 314)"><rect x="115" y="-44" width="1" height="10" ry="0" fill-opacity=".502"/><path fill="#fff" fill-opacity=".251" d="M116-44h1v10h-1z"/><path fill-opacity=".502" d="M115-43h1v1h-1z"/><path fill-opacity=".502" d="M115-41h1v1h-1z"/><path fill-opacity=".502" d="M115-39h1v1h-1z"/><path fill-opacity=".502" d="M115-37h1v1h-1z"/><path fill-opacity=".502" d="M115-35h1v1h-1z"/><path fill-opacity=".502" d="M116-44h1v1h-1z"/><path fill-opacity=".502" d="M116-42h1v1h-1z"/><path fill-opacity=".502" d="M116-40h1v1h-1z"/><path fill-opacity=".502" d="M116-38h1v1h-1z"/><path fill-opacity=".502" d="M116-36h1v1h-1z"/><path fill="#fefefe" fill-opacity=".502" d="M115-36h1v1h-1z"/><path fill="#fefefe" fill-opacity=".502" d="M115-38h1v1h-1z"/><path fill="#fefefe" fill-opacity=".502" d="M115-40h1v1h-1z"/><path fill="#fefefe" fill-opacity=".502" d="M115-42h1v1h-1z"/><path fill="#fefefe" fill-opacity=".502" d="M115-44h1v1h-1z"/><path fill="#fefefe" fill-opacity=".502" d="M116-43h1v1h-1z"/><path fill="#fefefe" fill-opacity=".502" d="M116-41h1v1h-1z"/><path fill="#fefefe" fill-opacity=".502" d="M116-39h1v1h-1z"/><path fill="#fefefe" fill-opacity=".502" d="M116-37h1v1h-1z"/><path fill="#fefefe" fill-opacity=".502" d="M116-35h1v1h-1z"/></g><g transform="translate(314 -79)"><path d="M62 258c-1.108 0-2 .892-2 2v16c0 1.108.892 2 2 2h4c1.108 0 2-.892 2-2v-16c0-1.108-.892-2-2-2zm0 14h4v4h-4z" fill="url(#b)"/><rect x="56" y="250" width="16" height="18" rx="4" ry="4" fill="#3d3846"/><rect x="56" y="248" width="16" height="18" rx="4" ry="4" fill="#5e5c64"/><path d="M62 254c-1.108 0-2 .892-2 2v18c0 1.108.892 2 2 2h4c1.108 0 2-.892 2-2v-18c0-1.108-.892-2-2-2zm0 16h4v4h-4z" fill="#fff"/><rect transform="scale(1 -1)" x="62" y="-260" width="4" height="10" rx="2" ry="2" fill="#68676b" style="paint-order:normal"/><rect transform="scale(1 -1)" x="62" y="-258" width="4" height="8" rx="2" ry="2" fill="#949390" style="paint-order:normal"/></g><g transform="translate(532 -195)"><path d="M62 258c-1.108 0-2 .892-2 2v16c0 1.108.892 2 2 2h4c1.108 0 2-.892 2-2v-16c0-1.108-.892-2-2-2zm0 14h4v4h-4z" fill="url(#b)"/><rect x="56" y="250" width="16" height="18" rx="4" ry="4" fill="#3d3846"/><rect x="56" y="248" width="16" height="18" rx="4" ry="4" fill="#5e5c64"/><path d="M62 254c-1.108 0-2 .892-2 2v18c0 1.108.892 2 2 2h4c1.108 0 2-.892 2-2v-18c0-1.108-.892-2-2-2zm0 16h4v4h-4z" fill="#fff"/><rect transform="scale(1 -1)" x="62" y="-260" width="4" height="10" rx="2" ry="2" fill="#68676b" style="paint-order:normal"/><rect transform="scale(1 -1)" x="62" y="-258" width="4" height="8" rx="2" ry="2" fill="#949390" style="paint-order:normal"/></g><g transform="matrix(.5 0 0 .5 225 103)"><path d="M62 258c-1.108 0-2 .892-2 2v16c0 1.108.892 2 2 2h4c1.108 0 2-.892 2-2v-16c0-1.108-.892-2-2-2zm0 14h4v4h-4z" fill="url(#b)"/><rect x="56" y="250" width="16" height="18" rx="4" ry="4" fill="#3d3846"/><rect x="56" y="248" width="16" height="18" rx="4" ry="4" fill="#5e5c64"/><path d="M62 254c-1.108 0-2 .892-2 2v18c0 1.108.892 2 2 2h4c1.108 0 2-.892 2-2v-18c0-1.108-.892-2-2-2zm0 16h4v4h-4z" fill="#fff"/><rect transform="scale(1 -1)" x="62" y="-260" width="4" height="10" rx="2" ry="2" fill="#68676b" style="paint-order:normal"/><rect transform="scale(1 -1)" x="62" y="-258" width="4" height="8" rx="2" ry="2" fill="#949390" style="paint-order:normal"/></g><g transform="matrix(.5 0 0 .5 148 117)"><path d="M62 258c-1.108 0-2 .892-2 2v16c0 1.108.892 2 2 2h4c1.108 0 2-.892 2-2v-16c0-1.108-.892-2-2-2zm0 14h4v4h-4z" fill="url(#b)"/><rect x="56" y="250" width="16" height="18" rx="4" ry="4" fill="#3d3846"/><rect x="56" y="248" width="16" height="18" rx="4" ry="4" fill="#5e5c64"/><path d="M62 254c-1.108 0-2 .892-2 2v18c0 1.108.892 2 2 2h4c1.108 0 2-.892 2-2v-18c0-1.108-.892-2-2-2zm0 16h4v4h-4z" fill="#fff"/><rect transform="scale(1 -1)" x="62" y="-260" width="4" height="10" rx="2" ry="2" fill="#68676b" style="paint-order:normal"/><rect transform="scale(1 -1)" x="62" y="-258" width="4" height="8" rx="2" ry="2" fill="#949390" style="paint-order:normal"/></g><g transform="matrix(.25 0 0 .25 100 194)"><path d="M62 258c-1.108 0-2 .892-2 2v16c0 1.108.892 2 2 2h4c1.108 0 2-.892 2-2v-16c0-1.108-.892-2-2-2zm0 14h4v4h-4z" fill="url(#b)"/><rect x="56" y="250" width="16" height="18" rx="4" ry="4" fill="#3d3846"/><rect x="56" y="248" width="16" height="18" rx="4" ry="4" fill="#5e5c64"/><path d="M62 254c-1.108 0-2 .892-2 2v18c0 1.108.892 2 2 2h4c1.108 0 2-.892 2-2v-18c0-1.108-.892-2-2-2zm0 16h4v4h-4z" fill="#fff"/><rect transform="scale(1 -1)" x="62" y="-260" width="4" height="10" rx="2" ry="2" fill="#68676b" style="paint-order:normal"/><rect transform="scale(1 -1)" x="62" y="-258" width="4" height="8" rx="2" ry="2" fill="#949390" style="paint-order:normal"/></g><g transform="matrix(.25 0 0 .25 52 200)"><path d="M62 258c-1.108 0-2 .892-2 2v16c0 1.108.892 2 2 2h4c1.108 0 2-.892 2-2v-16c0-1.108-.892-2-2-2zm0 14h4v4h-4z" fill="url(#b)"/><rect x="56" y="250" width="16" height="18" rx="4" ry="4" fill="#3d3846"/><rect x="56" y="248" width="16" height="18" rx="4" ry="4" fill="#5e5c64"/><path d="M62 254c-1.108 0-2 .892-2 2v18c0 1.108.892 2 2 2h4c1.108 0 2-.892 2-2v-18c0-1.108-.892-2-2-2zm0 16h4v4h-4z" fill="#fff"/><rect transform="scale(1 -1)" x="62" y="-260" width="4" height="10" rx="2" ry="2" fill="#68676b" style="paint-order:normal"/><rect transform="scale(1 -1)" x="62" y="-258" width="4" height="8" rx="2" ry="2" fill="#949390" style="paint-order:normal"/></g><g transform="matrix(.25 0 0 .25 8 208)"><path d="M62 258c-1.108 0-2 .892-2 2v16c0 1.108.892 2 2 2h4c1.108 0 2-.892 2-2v-16c0-1.108-.892-2-2-2zm0 14h4v4h-4z" fill="url(#b)"/><rect x="56" y="250" width="16" height="18" rx="4" ry="4" fill="#3d3846"/><rect x="56" y="248" width="16" height="18" rx="4" ry="4" fill="#5e5c64"/><path d="M62 254c-1.108 0-2 .892-2 2v18c0 1.108.892 2 2 2h4c1.108 0 2-.892 2-2v-18c0-1.108-.892-2-2-2zm0 16h4v4h-4z" fill="#fff"/><rect transform="scale(1 -1)" x="62" y="-260" width="4" height="10" rx="2" ry="2" fill="#68676b" style="paint-order:normal"/><rect transform="scale(1 -1)" x="62" y="-258" width="4" height="8" rx="2" ry="2" fill="#949390" style="paint-order:normal"/></g></g></svg>