<svg version="1.0" viewBox="0 0 48 48" xmlns="http://www.w3.org/2000/svg"><g transform="translate(-892 664)"><g transform="translate(736 -900)"><rect x="163" y="238" width="34" height="46" ry="3.5" fill="#565656"/><rect x="164" y="239" width="32" height="42" ry="3" fill="#acacac"/><circle cx="180" cy="255" r="12" fill="#444"/><path fill="#444" d="M168 254.5h7v11h-7z"/><path fill="#444" d="M180 260v7h-10.5v-7z"/><rect x="168" y="260" width="7" height="7" ry="1" fill="#444"/><circle cx="180" cy="255" r="6" fill="#acacac"/></g><rect x="914" y="-644" width="26" height="28" ry="13" fill="#245c63"/><path d="m927-631-9.305 11.088A12.954 12.954 0 0 0 927-616c7.202 0 13-5.798 13-13v-2z" fill="#396247"/><path d="M939-631a12 12 0 0 1-6.929 10.876 12 12 0 0 1-12.785-1.683L927-631z" fill="#73c48f"/><path d="M917.81-638.71a12 12 0 0 1 13.297-3.563 12 12 0 0 1 7.896 11.276h-12z" fill="#48b9c7"/><path d="M917.04-639.36a12.955 12.955 0 0 0-3.035 8.361v2a12.95 12.95 0 0 0 3.697 9.088l9.303-11.088z" fill="#7f3c1f"/><path d="M919.29-621.81a12 12 0 0 1-4.24-8.147 12 12 0 0 1 2.76-8.759l9.193 7.713z" fill="#ff793e"/><circle cx="927" cy="-631" r="8" fill="#fff"/></g></svg>