<svg version="1.0" viewBox="0 0 48 48" xmlns="http://www.w3.org/2000/svg"><g transform="translate(-892 64)"><g transform="translate(736 -300)"><rect x="163" y="238" width="34" height="46" ry="3.5" fill="#565656"/><rect x="164" y="239" width="32" height="42" ry="3" fill="#acacac"/><circle cx="180" cy="255" r="12" fill="#444"/><path fill="#444" d="M168 254.5h7v11h-7z"/><path fill="#444" d="M180 260v7h-10.5v-7z"/><rect x="168" y="260" width="7" height="7" ry="1" fill="#444"/><circle cx="180" cy="255" r="6" fill="#acacac"/></g><rect x="914" y="-44" width="26" height="28" ry="13" fill="#552d5d"/><circle cx="927" cy="-31" r="12" fill="#aa5abb"/><path d="m925.25-38-.154 1.844a5.5 5.5 0 0 0-1.608.93l-1.676-.79-1.75 3.032 1.522 1.056a5.5 5.5 0 0 0-.084.928 5.5 5.5 0 0 0 .08.932l-1.518 1.052 1.75 3.032 1.672-.788a5.5 5.5 0 0 0 1.612.924L925.25-24h3.5l.154-1.844a5.5 5.5 0 0 0 1.608-.93l1.675.79 1.75-3.032-1.521-1.056A5.5 5.5 0 0 0 932.5-31a5.5 5.5 0 0 0-.08-.932l1.518-1.052-1.75-3.032-1.672.788a5.5 5.5 0 0 0-1.612-.924L928.75-38zm1.75 5a2 2 0 0 1 2 2 2 2 0 0 1-2 2 2 2 0 0 1-2-2 2 2 0 0 1 2-2z" fill="#fafafb"/></g></svg>