<svg version="1.0" viewBox="0 0 48 48" xmlns="http://www.w3.org/2000/svg"><g transform="translate(-156 64)"><path d="M180-62c-12.188 0-22 9.812-22 22v2c0 12.188 9.812 22 22 22s22-9.812 22-22v-2c0-12.188-9.812-22-22-22z" fill="#cdcdcd"/><path d="M180-62c-12.188 0-22 9.812-22 22v2c0 12.188 9.812 22 22 22s22-9.812 22-22v-2c0-12.188-9.812-22-22-22zm0 1a21 21 0 0 1 21 21 21 21 0 0 1-21 21 21 21 0 0 1-21-21 21 21 0 0 1 21-21z" fill-opacity=".5"/><circle cx="180" cy="-40" r="8.5" fill="none" stroke="#000" stroke-linecap="square" stroke-opacity=".5"/><circle cx="180" cy="-40" r="8" fill-opacity=".2"/><circle cx="180" cy="-40" r="3" fill-opacity=".8"/><rect x="178" y="-44" width="26" height="28" ry="13" fill="#f15d22"/><path d="M191-44c-7.202 0-13 5.798-13 13v2c0 7.202 5.798 13 13 13s13-5.798 13-13v-2c0-7.202-5.798-13-13-13zm0 1a12 12 0 0 1 12 12 12 12 0 0 1-12 12 12 12 0 0 1-12-12 12 12 0 0 1 12-12z" fill-opacity=".5"/><path d="M190.81-25.969c-1.168 0-2.107-.925-2.107-2.06 0-1.064.676-1.812 1.838-2.049 1.162-.236 2.363-.794 3.032-1.693.256.847.381 1.74.381 2.652a3.15 3.15 0 0 1-3.144 3.15m1.175-12.03s.486 1.738.486 3.15c0 1.352-.886 2.448-2.239 2.448-1.358 0-2.382-1.096-2.382-2.448l.02-.243a9.041 9.041 0 0 0-2.12 5.841A5.25 5.25 0 0 0 191-24a5.25 5.25 0 0 0 5.251-5.25c0-3.545-1.7-6.696-4.266-8.75z" fill="#fff"/></g></svg>