<svg enable-background="new" version="1.0" viewBox="0 0 48 48" xmlns="http://www.w3.org/2000/svg"><defs><filter id="a" x="0" y="0" width="1" height="1" color-interpolation-filters="sRGB"><feBlend in2="BackgroundImage" mode="darken"/></filter></defs><g filter="url(#a)" transform="translate(-156 -236)"><rect x="160" y="240" width="40" height="39" ry="3.5" fill="#5c0b2a"/><rect x="161" y="241" width="38" height="35" ry="3" fill="#ad154f"/><path d="M174.5 248c-.831 0-1.412.674-1.5 1.5v1.5h-2.5c-.831 0-1.5.669-1.5 1.5v12c0 .831.669 1.5 1.5 1.5h2.5v1.5c0 .831.669 1.5 1.5 1.5s1.584-.673 1.5-1.5V266h3v1.5c0 .831.669 1.5 1.5 1.5s1.5-.669 1.5-1.5V266h3v1.5c0 .831.669 1.5 1.5 1.5s1.5-.669 1.5-1.5V266h2.5c.831 0 1.5-.669 1.5-1.5v-12c0-.831-.669-1.5-1.5-1.5H188v-1.5c0-.831-.669-1.5-1.5-1.5s-1.5.669-1.5 1.5v1.5h-3v-1.5c0-.831-.669-1.5-1.5-1.5s-1.5.669-1.5 1.5v1.5h-3v-1.5c0-.831-.669-1.5-1.5-1.5zm-2.5 6h17v1.5a3 3 0 0 0 0 6v1.5h-17z" enable-background="new" fill="#fff"/></g></svg>