<svg version="1.0" viewBox="0 0 48 48" xmlns="http://www.w3.org/2000/svg"><g fill="#306ab8"><path d="M14.25 24.75h4.5v-3l-4.03.013c-.324-.003-.48-.078-.465-.474L14.25 18h5.25v-3c-2.799.2-5.443.55-8.25.75V31.5c2.748.326 5.497 1.173 8.25 1.5v-3.75c-1.662-.144-3.627-.609-5.25-.75zM26.298 43.5c-7.278-1.351-14.52-2.773-21.798-4.125V8.625C11.75 7.28 18.956 5.854 26.25 4.5v39"/><path d="M37.267 22.343c.338.252.674.492.999.75.237.188.41.12.593-.09.517-.587 1.398-1.166 1.924-1.745.172-.189.216-.409.215-.662-.004-1.557-.002-3.116.005-4.673.002-.481-.29-.924-.765-.922a768.1 768.1 0 0 1-4.74 0c-.325-.001-.705.333-.92.577-1.674 1.912-3.12 3.992-4.29 6.278-.184.36-.112.581.16.67 1.327-1.336 2.651-2.58 3.868-3.93.656-.727 1.589-1.024 2.542-.97 1.43.082 1.394.022 1.444 1.533.04 1.172.069 2.297-1.005 3.054-.01.008-.009.035-.03.13zm1.117 8.033c-.672 0-1.7.007-2.323 0-.978-.011-2.407-.996-2.48-1.05l-.752 1.019c-.208.257-.135.457.086.665a53.12 53.12 0 0 1 1.56 1.517c.233.237.516.474.836.474 1.427-.002 3.5.014 4.927 0 .668-.007.758-.309.76-.993 0-1.354-.024-2.708.011-4.062.015-.574-.16-1.001-.568-1.361-1.796-1.587-4.286-3.055-6.377-4.208-.343-.189-.6-.213-.798.332.13.107.314.229.465.383 1.312 1.337 2.879 2.679 4.184 4.021.162.167.468.364.47.638.003.868 0 1.63 0 2.625zM27.991 32.9c1.031.11 1.514-.667 2.046-1.358 1.37-1.782 2.69-3.599 3.631-5.668-.094-.188-.2-.33-.352-.367-.871.882-1.729 1.743-2.576 2.612-.635.652-1.263 1.31-1.88 1.979-.233.251-.482.365-.85.266v-5.689c.617.353 1.187.685 1.764 1.004.404.223.419.212.726-.229-.734-.769-1.47-1.542-2.211-2.311-.166-.172-.317-.33-.316-.61.01-1.595.005-3.19.005-4.856.45.012.892-.186 1.282.16.322.286.62.6.951.922.363-.357.582-.782.85-1.167.139-.201.029-.343-.11-.48a315.64 315.64 0 0 1-1.755-1.714c-.34-.335-.795-.094-1.197-.253V13l12.985-.013c1.414-.001 2.015.64 2.015 2.104 0 6.366.002 11.777-.001 18.143 0 1.687-.565 1.767-2.187 1.766H27.998"/></g></svg>