<svg version="1.0" viewBox="0 0 48 48" xmlns="http://www.w3.org/2000/svg"><g transform="translate(-156 -236)"><rect x="160" y="240" width="36" height="33" ry="3.5" fill="#396247"/><rect x="161" y="241" width="34" height="29" ry="3" fill="#73c48f"/><g transform="matrix(2 0 0 2 -320 932)" fill="#fff"><rect x="243" y="-334.5" width="7.5" height="1" ry=".456"/><rect x="243" y="-337.5" width="12" height="1" ry=".423"/><rect x="243" y="-340.5" width="12" height="1" ry=".375"/><rect x="243" y="-343.5" width="12" height="1" ry=".456"/></g><rect x="174" y="253" width="26" height="26" ry="3.5" fill="#245c63"/><rect x="175" y="254" width="24" height="22" ry="3" fill="#48b9c7"/><g fill="#fff" transform="matrix(1.5 0 0 1.5 79.75 -149.75)"><circle cx="67.167" cy="276.5" r="1.333"/><circle cx="71.167" cy="276.5" r="1.333"/><circle cx="75.167" cy="276.5" r="1.333"/></g></g></svg>