<svg version="1.0" viewBox="0 0 48 48" xmlns="http://www.w3.org/2000/svg"><g transform="translate(-156 -236)"><rect x="158" y="238" width="44" height="46" ry="22" fill="#1f285a"/><rect x="159" y="239" width="42" height="42" ry="21" fill="#3f51b5"/><path d="M180 239c-3.318 0-6.439.782-9.223 2.14a18 22 0 0 0-5.857 6.86h-2.162a20.91 20.91 0 0 0-1.242 2h2.453a18 22 0 0 0-1.94 9h-3.004c-.015.331-.025.665-.025 1s.01.669.025 1h3.016a18 22 0 0 0 1.947 9h-2.472c.374.693.794 1.357 1.242 2h2.176a18 22 0 0 0 5.955 6.912A20.957 20.957 0 0 0 180 281c3.318 0 6.439-.782 9.223-2.14a18 22 0 0 0 5.857-6.86h2.162a20.91 20.91 0 0 0 1.242-2h-2.453a18 22 0 0 0 1.94-9h3.004c.015-.331.025-.665.025-1s-.01-.669-.025-1h-3.016a18 22 0 0 0-1.947-9h2.472a20.911 20.911 0 0 0-1.242-2h-2.176a18 22 0 0 0-5.955-6.912A20.957 20.957 0 0 0 180 239zm1 1.133a9 20 0 0 1 6.19 7.867H181zm-2 .015V248h-6.186a9 20 0 0 1 6.186-7.852zm-4.807 1.217a11 22 0 0 0-3.408 6.635h-3.56a16 20 0 0 1 6.968-6.635zm11.627.026a16 20 0 0 1 6.96 6.609h-3.573a11 22 0 0 0-3.387-6.61zM166.16 250h4.043a11 22 0 0 0-1.185 9h-4.977a16 20 0 0 1 2.12-9zm6.055 0H179v9h-7.976a9 20 0 0 1 1.191-9zm8.785 0h6.782a9 20 0 0 1 1.203 9H181zm8.786 0h4.048a16 20 0 0 1 2.137 9h-4.996a11 22 0 0 0-1.19-9zm-25.756 11h4.996a11 22 0 0 0 1.189 9h-4.049a16 20 0 0 1-2.136-9zm6.986 0H179v9h-6.781a9 20 0 0 1-1.203-9zm9.984 0h7.977a9 20 0 0 1-1.192 9H181zm9.983 0h4.976a16 20 0 0 1-2.119 9h-4.043a11 22 0 0 0 1.186-9zm-23.762 11h3.572a11 22 0 0 0 3.387 6.61 16 20 0 0 1-6.96-6.61zm5.59 0H179v7.867a9 20 0 0 1-6.19-7.867zm8.189 0h6.185a9 20 0 0 1-6.185 7.852zm8.215 0h3.56a16 20 0 0 1-6.969 6.635 11 22 0 0 0 3.409-6.635z" fill="#94a6ff"/></g></svg>