<svg version="1.0" viewBox="0 0 48 48" xmlns="http://www.w3.org/2000/svg"><g transform="translate(-156 -236)"><rect x="102" y="259" width="28" height="22" ry="2" fill="#245c63"/><rect x="103" y="260" width="26" height="19" ry="1.5" fill="#48b9c7"/><rect x="105" y="262" width="22" height="15" ry="1" fill="#f6f6f6"/><rect x="56" y="262" width="24" height="20" ry="2" fill="#245c63"/><rect x="57" y="263" width="22" height="18" ry="1.5" fill="#48b9c7"/><rect x="59" y="265" width="18" height="14" ry="1" fill="#f6f6f6"/><rect x="16" y="269" width="16" height="14" ry="4" fill="#245c63"/><rect x="18" y="271" width="12" height="10" ry="2" fill="#fbfefe" stroke="#48b9c7" stroke-linecap="round" stroke-width="2"/><rect x="228" y="234" width="56" height="44" ry="4" fill="#245c63"/><rect x="229" y="235" width="54" height="40" ry="3.5" fill="#48b9c7"/><rect x="234" y="240" width="44" height="30" ry="2" fill="#f6f6f6"/><rect x="320" y="184" width="112" height="88" ry="8" fill="#245c63"/><rect x="321" y="185" width="110" height="83" ry="7.5" fill="#48b9c7"/><rect x="332" y="196" width="88" height="60" ry="4" fill="#f6f6f6"/><rect x="480" y="84" width="224" height="176" ry="16" fill="#245c63"/><rect x="481" y="85" width="222" height="170" ry="15.5" fill="#48b9c7"/><rect x="504" y="108" width="176" height="120" ry="8" fill="#f6f6f6"/><rect x="159" y="247" width="42" height="32" ry="3" fill="#245c63"/><rect x="160" y="248" width="40" height="28" ry="2.5" fill="#48b9c7"/><rect x="163" y="251" width="33" height="22" ry="2" fill="#f6f6f6"/><g fill="#1c8d9b"><path d="M108 263v8.5l3-3 3 3 5-5 5 5V263z" opacity=".5"/><path d="m116 267.5 8 8.5h-16z"/></g><g fill="#1c8d9b"><path d="M60 266v8l3-3 3 3 5-5 5 5v-8z" opacity=".5"/><path d="m68 270 8 8H60z"/></g><path d="M20 273v4l1.5-1.5L23 277l2.5-2.5L28 277v-4z" fill="#1c8d9b" opacity=".5"/><path d="m24 275 4 4h-8z" fill="#1c8d9b"/><g fill="#1c8d9b"><path d="M240 242v17l6-6 6 6 10-10 10 10v-17z" opacity=".5"/><path d="m256 251 16 17h-32z"/></g><g fill="#1c8d9b"><path d="M344 200v34l12-12 12 12 20-20 20 20v-34z" opacity=".5"/><path d="m376 218 32 34h-64z"/></g><g fill="#1c8d9b"><path d="M528 116v68l24-24 24 24 40-40 40 40v-68z" opacity=".5"/><path d="m592 152 64 68H528z"/></g><g fill="#1c8d9b"><path d="M168 252v13l4.5-5 4.5 5 7.5-8 7.5 8v-13z" opacity=".5"/><path d="m180 258.99 12 13h-24z"/></g><rect x="116" y="269" width="15" height="15" ry="3.5" fill="#671d00"/><rect x="117" y="270" width="13" height="12" ry="3" fill="#cf3b00"/><rect x="183" y="263" width="20" height="20" ry="3.5" fill="#671d00"/><rect x="184" y="264" width="18" height="16" ry="3" fill="#cf3b00"/><rect x="260" y="256" width="26" height="24" ry="5.5" fill="#671d00"/><rect x="261" y="257" width="24" height="20" ry="5" fill="#cf3b00"/><rect x="384" y="229" width="52" height="47" ry="10.5" fill="#671d00"/><rect x="385" y="230" width="50" height="42" ry="10" fill="#cf3b00"/><rect x="610" y="176.01" width="104" height="91.987" ry="20.5" fill="#671d00"/><rect x="611" y="177" width="102" height="86" ry="20" fill="#cf3b00"/><rect x="67" y="272" width="13" height="12" ry="2.5" fill="#671d00"/><rect x="68" y="273" width="11" height="10.002" ry="2" fill="#cf3b00"/><rect x="21" y="274" width="11" height="10" ry="1.5" fill="#671d00"/><rect x="22" y="275" width="9" height="8" ry="1" fill="#cf3b00"/><path d="M273 262a8.939 9 0 0 0-8 5.01 8.939 9 0 0 0 8 4.99 8.939 9 0 0 0 8-5.01 8.939 9 0 0 0-8-4.99zm0 1a4 4 0 0 1 4 4 4 4 0 0 1-4 4 4 4 0 0 1-4-4 4 4 0 0 1 4-4zm0 2a2 2 0 0 0-2 2 2 2 0 0 0 2 2 2 2 0 0 0 2-2 2 2 0 0 0-2-2z" fill="#fff"/><path d="M193 267a8.939 9 0 0 0-8 5.01 8.939 9 0 0 0 8 4.99 8.939 9 0 0 0 8-5.01 8.939 9 0 0 0-8-4.99zm0 1a4 4 0 0 1 4 4 4 4 0 0 1-4 4 4 4 0 0 1-4-4 4 4 0 0 1 4-4zm0 2a2 2 0 0 0-2 2 2 2 0 0 0 2 2 2 2 0 0 0 2-2 2 2 0 0 0-2-2z" fill="#fff"/><path d="M123.5 273.5a4.47 4.5 0 0 0-4 2.505 4.47 4.5 0 0 0 4 2.495 4.47 4.5 0 0 0 4-2.505 4.47 4.5 0 0 0-4-2.495zm0 .5a2 2 0 0 1 2 2 2 2 0 0 1-2 2 2 2 0 0 1-2-2 2 2 0 0 1 2-2zm0 1a1 1 0 0 0-1 1 1 1 0 0 0 1 1 1 1 0 0 0 1-1 1 1 0 0 0-1-1z" fill="#fff"/><path d="M73.5 275.5a4.47 4.5 0 0 0-4 2.505 4.47 4.5 0 0 0 4 2.495 4.47 4.5 0 0 0 4-2.505 4.47 4.5 0 0 0-4-2.495zm0 .5a2 2 0 0 1 2 2 2 2 0 0 1-2 2 2 2 0 0 1-2-2 2 2 0 0 1 2-2zm0 1a1 1 0 0 0-1 1 1 1 0 0 0 1 1 1 1 0 0 0 1-1 1 1 0 0 0-1-1z" fill="#fff"/><path d="M26.5 276.5a4.47 4.5 0 0 0-4 2.505 4.47 4.5 0 0 0 4 2.495 4.47 4.5 0 0 0 4-2.505 4.47 4.5 0 0 0-4-2.495zm0 .5a2 2 0 0 1 2 2 2 2 0 0 1-2 2 2 2 0 0 1-2-2 2 2 0 0 1 2-2zm0 1a1 1 0 0 0-1 1 1 1 0 0 0 1 1 1 1 0 0 0 1-1 1 1 0 0 0-1-1z" fill="#fff"/><path d="M410 241a17.878 18 0 0 0-16 10.02 17.878 18 0 0 0 16 9.98 17.878 18 0 0 0 16-10.02 17.878 18 0 0 0-16-9.98zm0 2a8 8 0 0 1 8 8 8 8 0 0 1-8 8 8 8 0 0 1-8-8 8 8 0 0 1 8-8zm0 4a4 4 0 0 0-4 4 4 4 0 0 0 4 4 4 4 0 0 0 4-4 4 4 0 0 0-4-4z" fill="#fff"/><path d="M662 200a35.756 36 0 0 0-32 20.039A35.756 36 0 0 0 662 240a35.756 36 0 0 0 32-20.039A35.756 36 0 0 0 662 200zm0 4a16 16 0 0 1 16 16 16 16 0 0 1-16 16 16 16 0 0 1-16-16 16 16 0 0 1 16-16zm0 8a8 8 0 0 0-8 8 8 8 0 0 0 8 8 8 8 0 0 0 8-8 8 8 0 0 0-8-8z" fill="#fff"/></g></svg>