<svg version="1.0" viewBox="0 0 48 48" xmlns="http://www.w3.org/2000/svg"><g transform="translate(-156 -236)"><rect x="159" y="247" width="42" height="33" ry="3" fill="#782e11"/><rect x="160" y="248" width="40" height="29" ry="2.5" fill="#f15d22"/><path d="M162.5 248a2.495 2.495 0 0 0-2.5 2.5v3.5h40v-3.5c0-1.385-1.115-2.5-2.5-2.5z"/><g fill="#f7f7f7"><path d="m165.875 248-3 6h4.5l3-6z"/><path d="m174.875 248-3 6h4.5l3-6z"/><path d="m183.875 248-3 6h4.5l3-6z"/><path d="m192.875 248-3 6h4.5l3-6z"/></g><path d="M176.03 255.68a1 1 0 0 0-.996.941h-.002v.026l-.002.033c0 .023 0 .047.002.07l-.002 8.576a1 1 0 0 0 1 1 1 1 0 0 0 .422-.095l.002.002.025-.014.004-.002a1 1 0 0 0 .088-.049l7.846-4.271.01-.004v-.002a1 1 0 0 0 .033-1.752l-.018-.01-.004-.002-7.923-4.322h-.002a1.01 1.01 0 0 0-.483-.125z" fill="#fff"/><rect x="160" y="269" width="40" height="8" ry="2.5" fill="#dedede"/><rect x="161" y="272" width="23" height="2" ry=".5" fill="#cf3b00"/><rect x="183" y="271" width="4" height="4" ry="2" fill="#822500"/><circle cx="185" cy="273" r="1" fill="#fff"/></g></svg>