<svg version="1.0" viewBox="0 0 48 48" xmlns="http://www.w3.org/2000/svg"><g transform="translate(-156 -236)"><rect x="159" y="247" width="42" height="32" ry="3" fill="#245c63"/><rect x="160" y="248" width="40" height="28" ry="2.5" fill="#48b9c7"/><rect x="163" y="251" width="33" height="22" ry="2" fill="#f6f6f6"/><path d="M168 252v13l4.5-5 4.5 5 7.5-8 7.5 8v-13z" fill="#1c8d9b" opacity=".5"/><path d="m180 259 12 13h-24z" fill="#1c8d9b"/><rect x="183" y="263" width="20" height="20" ry="3.5" fill="#671d00"/><rect x="184" y="264" width="18" height="16" ry="3" fill="#cf3b00"/><path d="M193 267a8.939 9 0 0 0-8 5.01 8.939 9 0 0 0 8 4.99 8.939 9 0 0 0 8-5.01 8.939 9 0 0 0-8-4.99zm0 1a4 4 0 0 1 4 4 4 4 0 0 1-4 4 4 4 0 0 1-4-4 4 4 0 0 1 4-4zm0 2a2 2 0 0 0-2 2 2 2 0 0 0 2 2 2 2 0 0 0 2-2 2 2 0 0 0-2-2z" fill="#fff"/></g></svg>