<svg version="1.0" viewBox="0 0 48 48" xmlns="http://www.w3.org/2000/svg"><path d="m169.96 243.11-1.441.117c-11.49.925-21.418 8.416-21.418 8.416v2.666l.26.78s5.405 16.31 21.14 17.795l1.46.136v-24.229z" clip-rule="evenodd" color="#000" fill="#626b26" fill-rule="evenodd" style="font-feature-settings:normal;font-variant-alternates:normal;font-variant-caps:normal;font-variant-east-asian:normal;font-variant-ligatures:normal;font-variant-numeric:normal;font-variant-position:normal;font-variation-settings:normal;inline-size:0;isolation:auto;mix-blend-mode:normal;shape-margin:0;shape-padding:0;text-decoration-color:#000;text-decoration-line:none;text-decoration-style:solid;text-indent:0;text-orientation:mixed;text-transform:none;white-space:normal" transform="matrix(.75 0 0 .75 -107.472 -164.917)"/><path d="m169.96 240.44-1.441.117c-11.49.925-20.838 10.5-20.838 10.5l-.58.582.26.78s5.405 16.31 21.14 17.795l1.46.136v-24.229z" clip-rule="evenodd" color="#000" fill="#626b26" fill-rule="evenodd" style="font-feature-settings:normal;font-variant-alternates:normal;font-variant-caps:normal;font-variant-east-asian:normal;font-variant-ligatures:normal;font-variant-numeric:normal;font-variant-position:normal;font-variation-settings:normal;inline-size:0;isolation:auto;mix-blend-mode:normal;shape-margin:0;shape-padding:0;text-decoration-color:#000;text-decoration-line:none;text-decoration-style:solid;text-indent:0;text-orientation:mixed;text-transform:none;white-space:normal" transform="matrix(.75 0 0 .75 -107.472 -164.917)"/><path d="M17.996 10.993v34h23.999c1.662 0 3-1.338 3-3v-28c0-1.662-1.338-3-3-3z" fill="#626b26"/><g clip-rule="evenodd" fill="#c4d64d" fill-rule="evenodd"><path d="M20.448 20.88c4.24 0 6.757 3.3 6.757 3.3l-3.447 2.903c-1.549-2.578-2.178-3.518-4.755-3.83v7.125a6.804 6.804 0 0 0 2.066.324c5.03 0 9.723-6.513 9.723-6.513s-4.418-5.643-11.039-5.436c-.24.008-.515-.022-.75 0v2.25c.431-.045.983-.123 1.445-.123z"/><path d="M18.996 11.993v4.5c.24-.017.514.007.75 0 9.205-.312 15.276 7.584 15.276 7.584s-6.887 8.373-14.061 8.373c-.66 0-1.385-.105-1.965-.207v2.25c.495.06 1.117.133 1.65.133 6.68 0 11.51-3.41 16.188-7.446.777.62 3.954 2.13 4.605 2.793-4.448 3.72-14.693 6.77-20.567 6.77-.567 0-1.341.05-1.875 0v5.25h23c1.107 0 2-.892 2-2v-26c0-1.108-.893-2-2-2z"/><path d="M14.493 25.155s1.917-2.217 4.504-1.905V21c-4.926.533-7.781 3.775-7.781 3.775s1.604 6.373 7.78 7.475v-1.875c-3.48-1.172-4.503-5.22-4.503-5.22z"/><path d="M8.14 24.496s3.554-5.194 10.863-5.75v-2.25c-8.097.652-15 7.585-15 7.585s3.863 11.615 15 12.666v-2.25C10.83 33.47 8.14 24.495 8.14 24.495z"/></g></svg>