<svg version="1.0" viewBox="0 0 48 48" xmlns="http://www.w3.org/2000/svg"><path d="m250 241.92-1.08.088c-9.566.77-17.633 7.618-19.92 9.734v-1.738l-1.143.844v2l.194.584s5.341 16.105 20.855 17.568l1.093.103v-24.172z" clip-rule="evenodd" color="#000" fill="#626b26" fill-rule="evenodd" style="font-feature-settings:normal;font-variant-alternates:normal;font-variant-caps:normal;font-variant-east-asian:normal;font-variant-ligatures:normal;font-variant-numeric:normal;font-variant-position:normal;font-variation-settings:normal;inline-size:0;isolation:auto;mix-blend-mode:normal;shape-margin:0;shape-padding:0;text-decoration-color:#000;text-decoration-line:none;text-decoration-style:solid;text-indent:0;text-orientation:mixed;text-transform:none;white-space:normal" transform="translate(-156 -236)"/><path d="m250 239.92-1.08.088c-11.316.91-20.63 10.402-20.63 10.402l-.433.437.194.584s5.341 16.105 20.855 17.568l1.093.104v-4.983l-.875-.109c-9.545-1.199-13.038-10.872-13.469-12.164.757-1.01 4.993-6.205 13.42-6.846l.924-.07z" clip-rule="evenodd" color="#000" fill="#626b26" fill-rule="evenodd" style="font-feature-settings:normal;font-variant-alternates:normal;font-variant-caps:normal;font-variant-east-asian:normal;font-variant-ligatures:normal;font-variant-numeric:normal;font-variant-position:normal;font-variation-settings:normal;inline-size:0;isolation:auto;mix-blend-mode:normal;shape-margin:0;shape-padding:0;text-decoration-color:#000;text-decoration-line:none;text-decoration-style:solid;text-indent:0;text-orientation:mixed;text-transform:none;white-space:normal" transform="translate(-156 -236)"/><path d="m169.96 243.11-1.441.117c-11.49.925-21.418 8.416-21.418 8.416v2.666l.26.78s5.405 16.31 21.14 17.795l1.46.136v-24.229z" clip-rule="evenodd" color="#000" fill="#626b26" fill-rule="evenodd" style="font-feature-settings:normal;font-variant-alternates:normal;font-variant-caps:normal;font-variant-east-asian:normal;font-variant-ligatures:normal;font-variant-numeric:normal;font-variant-position:normal;font-variation-settings:normal;inline-size:0;isolation:auto;mix-blend-mode:normal;shape-margin:0;shape-padding:0;text-decoration-color:#000;text-decoration-line:none;text-decoration-style:solid;text-indent:0;text-orientation:mixed;text-transform:none;white-space:normal" transform="matrix(.75 0 0 .75 -107.472 -164.917)"/><path d="m169.96 240.44-1.441.117c-11.49.925-20.838 10.5-20.838 10.5l-.58.582.26.78s5.405 16.31 21.14 17.795l1.46.136v-24.229z" clip-rule="evenodd" color="#000" fill="#626b26" fill-rule="evenodd" style="font-feature-settings:normal;font-variant-alternates:normal;font-variant-caps:normal;font-variant-east-asian:normal;font-variant-ligatures:normal;font-variant-numeric:normal;font-variant-position:normal;font-variation-settings:normal;inline-size:0;isolation:auto;mix-blend-mode:normal;shape-margin:0;shape-padding:0;text-decoration-color:#000;text-decoration-line:none;text-decoration-style:solid;text-indent:0;text-orientation:mixed;text-transform:none;white-space:normal" transform="matrix(.75 0 0 .75 -107.472 -164.917)"/><path d="M17.996 10.993v34h23.999c1.662 0 3-1.338 3-3v-28c0-1.662-1.338-3-3-3z" fill="#626b26"/><g clip-rule="evenodd" fill="#c4d64d" fill-rule="evenodd"><path d="M20.448 20.88c4.24 0 6.757 3.3 6.757 3.3l-3.447 2.903c-1.549-2.578-2.178-3.518-4.755-3.83v7.125a6.804 6.804 0 0 0 2.066.324c5.03 0 9.723-6.513 9.723-6.513s-4.418-5.643-11.039-5.436c-.24.008-.515-.022-.75 0v2.25c.431-.045.983-.123 1.445-.123z"/><path d="M18.996 11.993v4.5c.24-.017.514.007.75 0 9.205-.312 15.276 7.584 15.276 7.584s-6.887 8.373-14.061 8.373c-.66 0-1.385-.105-1.965-.207v2.25c.495.06 1.117.133 1.65.133 6.68 0 11.51-3.41 16.188-7.446.777.62 3.954 2.13 4.605 2.793-4.448 3.72-14.693 6.77-20.567 6.77-.567 0-1.341.05-1.875 0v5.25h23c1.107 0 2-.892 2-2v-26c0-1.108-.893-2-2-2z"/><path d="M14.493 25.155s1.917-2.217 4.504-1.905V21c-4.926.533-7.781 3.775-7.781 3.775s1.604 6.373 7.78 7.475v-1.875c-3.48-1.172-4.503-5.22-4.503-5.22z"/><path d="M8.14 24.496s3.554-5.194 10.863-5.75v-2.25c-8.097.652-15 7.585-15 7.585s3.863 11.615 15 12.666v-2.25C10.83 33.47 8.14 24.495 8.14 24.495z"/></g><path d="m114 261.92-1.08.087c-5.918.476-10.63 5.348-10.63 5.348l-.434.436.195.585s2.766 8.36 10.855 9.123l1.093.104V265.43z" clip-rule="evenodd" color="#000" fill="#626b26" fill-rule="evenodd" style="font-feature-settings:normal;font-variant-alternates:normal;font-variant-caps:normal;font-variant-east-asian:normal;font-variant-ligatures:normal;font-variant-numeric:normal;font-variant-position:normal;font-variation-settings:normal;inline-size:0;isolation:auto;mix-blend-mode:normal;shape-margin:0;shape-padding:0;text-decoration-color:#000;text-decoration-line:none;text-decoration-style:solid;text-indent:0;text-orientation:mixed;text-transform:none;white-space:normal" transform="translate(-156 -236)"/><path d="m114 262.92-1.08.087c-5.918.476-11.063 4.784-11.063 4.784v1l.194.585s2.767 8.36 10.855 9.123l1.094.104V266.43z" clip-rule="evenodd" color="#000" fill="#626b26" fill-rule="evenodd" style="font-feature-settings:normal;font-variant-alternates:normal;font-variant-caps:normal;font-variant-east-asian:normal;font-variant-ligatures:normal;font-variant-numeric:normal;font-variant-position:normal;font-variation-settings:normal;inline-size:0;isolation:auto;mix-blend-mode:normal;shape-margin:0;shape-padding:0;text-decoration-color:#000;text-decoration-line:none;text-decoration-style:solid;text-indent:0;text-orientation:mixed;text-transform:none;white-space:normal" transform="translate(-156 -236)"/><path d="m24 271.42-1.08.088c-3.22.259-5.629 2.818-5.629 2.818l-.434.438.194.584s1.478 4.49 5.855 4.902l1.094.104v-6.172z" clip-rule="evenodd" color="#000" fill="#626b26" fill-rule="evenodd" style="font-feature-settings:normal;font-variant-alternates:normal;font-variant-caps:normal;font-variant-east-asian:normal;font-variant-ligatures:normal;font-variant-numeric:normal;font-variant-position:normal;font-variation-settings:normal;inline-size:0;isolation:auto;mix-blend-mode:normal;shape-margin:0;shape-padding:0;text-decoration-color:#000;text-decoration-line:none;text-decoration-style:solid;text-indent:0;text-orientation:mixed;text-transform:none;white-space:normal" transform="translate(-156 -236)"/><path d="m65 264.92-1.08.088c-4.77.384-8.617 4.26-8.617 4.26l-.46.447.214.603s2.34 6.699 8.85 7.313l1.093.103v-9.623z" clip-rule="evenodd" color="#000" fill="#626b26" fill-rule="evenodd" style="font-feature-settings:normal;font-variant-alternates:normal;font-variant-caps:normal;font-variant-east-asian:normal;font-variant-ligatures:normal;font-variant-numeric:normal;font-variant-position:normal;font-variation-settings:normal;inline-size:0;isolation:auto;mix-blend-mode:normal;shape-margin:0;shape-padding:0;text-decoration-color:#000;text-decoration-line:none;text-decoration-style:solid;text-indent:0;text-orientation:mixed;text-transform:none;white-space:normal" transform="translate(-154 -236)"/><path d="m364 198.92-1.08.088c-22.112 1.779-41.062 17.95-41.062 17.95v3l.193.587s10.492 31.59 40.855 34.455l1.094.103v-48.172z" clip-rule="evenodd" color="#000" fill="#626b26" fill-rule="evenodd" style="font-feature-settings:normal;font-variant-alternates:normal;font-variant-caps:normal;font-variant-east-asian:normal;font-variant-ligatures:normal;font-variant-numeric:normal;font-variant-position:normal;font-variation-settings:normal;inline-size:0;isolation:auto;mix-blend-mode:normal;shape-margin:0;shape-padding:0;text-decoration-color:#000;text-decoration-line:none;text-decoration-style:solid;text-indent:0;text-orientation:mixed;text-transform:none;white-space:normal" transform="translate(-156 -236)"/><path d="m364 195.92-1.08.088c-22.112 1.779-40.63 20.516-40.63 20.516l-.433.435.194.586s10.492 31.591 40.855 34.455l1.093.104v-48.172z" clip-rule="evenodd" color="#000" fill="#626b26" fill-rule="evenodd" style="font-feature-settings:normal;font-variant-alternates:normal;font-variant-caps:normal;font-variant-east-asian:normal;font-variant-ligatures:normal;font-variant-numeric:normal;font-variant-position:normal;font-variation-settings:normal;inline-size:0;isolation:auto;mix-blend-mode:normal;shape-margin:0;shape-padding:0;text-decoration-color:#000;text-decoration-line:none;text-decoration-style:solid;text-indent:0;text-orientation:mixed;text-transform:none;white-space:normal" transform="translate(-156 -236)"/><path d="m568 111.92-1.08.088c-43.704 3.516-81.062 37.176-81.062 37.176v4l.193.586s20.794 62.565 80.855 68.23l1.094.103z" clip-rule="evenodd" color="#000" fill="#626b26" fill-rule="evenodd" style="font-feature-settings:normal;font-variant-alternates:normal;font-variant-caps:normal;font-variant-east-asian:normal;font-variant-ligatures:normal;font-variant-numeric:normal;font-variant-position:normal;font-variation-settings:normal;inline-size:0;isolation:auto;mix-blend-mode:normal;shape-margin:0;shape-padding:0;text-decoration-color:#000;text-decoration-line:none;text-decoration-style:solid;text-indent:0;text-orientation:mixed;text-transform:none;white-space:normal" transform="translate(-156 -236)"/><path d="m568 107.92-1.08.088c-43.704 3.516-80.63 40.74-80.63 40.74l-.433.435.194.586s20.794 62.565 80.855 68.23l1.093.104z" clip-rule="evenodd" color="#000" fill="#626b26" fill-rule="evenodd" style="font-feature-settings:normal;font-variant-alternates:normal;font-variant-caps:normal;font-variant-east-asian:normal;font-variant-ligatures:normal;font-variant-numeric:normal;font-variant-position:normal;font-variation-settings:normal;inline-size:0;isolation:auto;mix-blend-mode:normal;shape-margin:0;shape-padding:0;text-decoration-color:#000;text-decoration-line:none;text-decoration-style:solid;text-indent:0;text-orientation:mixed;text-transform:none;white-space:normal" transform="translate(-156 -236)"/></svg>