<svg version="1.0" viewBox="0 0 48 48" xmlns="http://www.w3.org/2000/svg"><g transform="translate(-156 -236)"><rect x="164" y="240" width="33" height="39" ry="3" fill="#245c63"/><rect x="165" y="241" width="31" height="37" ry="2.5" fill="#dedede"/><path d="M194.5 242v8h3c.831 0 1.5-.669 1.5-1.5v-5c0-.831-.669-1.5-1.5-1.5H196z" fill-opacity=".196"/><rect x="194.5" y="243" width="4.5" height="8" ry="1.5" fill="#faa41a"/><rect x="194.5" y="243" width="2.5" height="8" ry="0" fill="#faa41a"/><path d="M194.5 249v8h3c.831 0 1.5-.669 1.5-1.5v-5c0-.831-.669-1.5-1.5-1.5H196z" fill-opacity=".196"/><rect x="194.5" y="250" width="4.5" height="8" ry="1.5" fill="#73c48f"/><rect x="194.5" y="250" width="2.5" height="8" ry="0" fill="#73c48f"/><path d="M194.5 256v8h3c.831 0 1.5-.669 1.5-1.5v-5c0-.831-.669-1.5-1.5-1.5H196z" fill-opacity=".196"/><rect x="194.5" y="257" width="4.5" height="8" ry="1.5" fill="#b84acb"/><rect x="194.5" y="257" width="2.5" height="8" ry="0" fill="#b84acb"/><path d="M194.5 263v8h3c.831 0 1.5-.669 1.5-1.5v-5c0-.831-.669-1.5-1.5-1.5H196z" fill-opacity=".196"/><rect x="194.5" y="264" width="4.5" height="8" ry="1.5" fill="#f15d22"/><rect x="194.5" y="264" width="2.5" height="8" ry="0" fill="#f15d22"/><rect x="164" y="239" width="31" height="36" ry="3" fill="#245c63"/><rect x="165" y="240" width="29" height="34" ry="2.4" fill="#48b9c7"/><path d="M167.4 240c-1.33 0-2.4 1.07-2.4 2.4v33.2c0 1.329 1.07 2.4 2.4 2.4h.6v-38z" fill="#16393e"/><path d="M181 250a8 8 0 0 1 8 8v1a3 3 0 0 1-5.297 1.93A3.975 3.975 0 0 1 181 262a4 4 0 1 1 4-4v1a1 1 0 0 0 2 0v-1a6 6 0 1 0-6 6h5s1 0 1 1c-.062 1-1 1-1 1h-5a8 8 0 1 1 0-16zm0 6a2 2 0 1 0 0 4 2 2 0 0 0 0-4z" fill-opacity=".196"/><path d="M181 249a8 8 0 0 1 8 8v1a3 3 0 0 1-5.297 1.93A3.975 3.975 0 0 1 181 261a4 4 0 1 1 4-4v1a1 1 0 0 0 2 0v-1a6 6 0 1 0-6 6h5s1 0 1 1c-.062 1-1 1-1 1h-5a8 8 0 1 1 0-16zm0 6a2 2 0 1 0 0 4 2 2 0 0 0 0-4z" fill="#fff"/></g></svg>