<svg version="1.0" viewBox="0 0 48 48" xmlns="http://www.w3.org/2000/svg"><g transform="translate(-156 -236)"><rect x="159" y="247" width="42" height="32" ry="3" fill="#767676"/><rect x="160" y="248" width="40" height="28" ry="2.5" fill="#ededed"/><rect x="160" y="248" width="40" height="6" ry="2.5" fill="#faa41a"/><rect x="160" y="251" width="40" height="5" ry="0" fill="#faa41a"/><path fill-opacity=".235" d="M164 258h4v4h-4z"/><path fill-opacity=".235" d="M171 258h4v4h-4z"/><path fill-opacity=".235" d="M178 258h4v4h-4z"/><path fill-opacity=".235" d="M185 258h4v4h-4z"/><path fill-opacity=".235" d="M164 264h4v4h-4z"/><path fill-opacity=".235" d="M171 264h4v4h-4z"/><path fill-opacity=".235" d="M178 264h4v4h-4z"/><path fill-opacity=".235" d="M192 258h4v4h-4z"/><path fill-opacity=".235" d="M192 264h4v4h-4z"/><path fill-opacity=".235" d="M164 270h4v4h-4z"/><path fill-opacity=".235" d="M171 270h4v4h-4z"/><path fill-opacity=".235" d="M178 270h4v4h-4z"/><path fill-opacity=".235" d="M185 270h4v4h-4z"/><path fill-opacity=".235" d="M192 270h4v4h-4z"/><circle cx="187" cy="267" r="3" fill-opacity=".196"/><circle cx="187" cy="266" r="3" fill="#faa41a"/></g></svg>