<svg version="1.0" viewBox="0 0 48 48" xmlns="http://www.w3.org/2000/svg"><g transform="translate(-156 -236)"><rect x="160" y="240" width="40" height="39" ry="3" fill="#444"/><path d="M163 240c-1.662 0-3 1.338-3 3v33c0 1.662 1.338 3 3 3h34c1.662 0 3-1.338 3-3v-33c0-1.662-1.338-3-3-3zm0 1h34c1.108 0 2 .892 2 2v31c0 1.108-.892 2-2 2h-34c-1.108 0-2-.892-2-2v-31c0-1.108.892-2 2-2z" fill="#fff" fill-opacity=".502"/><rect x="164" y="244" width="32" height="29" ry="2" fill="#cdcdcd"/><path d="M182.84 267.19a1.494 1.494 0 0 0 1.653.102c.72-.416.965-1.328.55-2.048l-2.452-4.243a3 3 0 0 0 0-.003 3 3 0 0 0 0-2.998l2.452-4.247c.415-.72.17-1.634-.55-2.05s-1.633-.17-2.048.55l-2.454 4.25a3 3 0 0 0-2.595 1.495l-.001.003h-4.901c-.831 0-1.499.668-1.499 1.499 0 .83.669 1.498 1.5 1.498h4.905a3 3 0 0 0 1.094 1.1 3 3 0 0 0 1.5.398l2.452 4.247c.104.18.24.33.394.448z" fill-opacity=".196"/><g transform="rotate(-150 157.98 328.698) scale(1.5)" fill="#656565"><circle cx="116" cy="267" r="2"/><rect x="115" y="267" width="2" height="6" ry="1"/><rect transform="rotate(240)" x="-290.23" y="-33.041" width="2" height="6" ry="1"/><rect transform="rotate(120)" x="172.23" y="-233.96" width="2" height="6" ry="1"/></g><g transform="matrix(1.5 0 0 1.5 5 -141.5)" fill-opacity=".196"><rect x="105.33" y="261.67" width="1.333" height="4" ry=".333"/><rect x="105.33" y="269.67" width="1.333" height="4" ry=".333"/></g><rect x="105.33" y="260.67" width="1.333" height="4" ry=".333" transform="matrix(1.5 0 0 1.5 5 -141)" fill="#ededed"/><rect x="105.33" y="260.67" width="1.333" height="4" ry=".333" transform="matrix(1.5 0 0 1.5 5 -129)" fill="#ededed"/></g></svg>