<svg version="1.0" viewBox="0 0 48 48" xmlns="http://www.w3.org/2000/svg"><g transform="translate(-156 964)"><rect x="159" y="-953" width="42" height="32" ry="3" fill="#6f6f6f"/><rect x="160" y="-952" width="40" height="28" ry="2.5" fill="#dedede"/><path fill="#45454f" d="M162-950h36v22h-36z"/><rect x="162" y="-950" width="36" height="22" ry="0" fill="#48b9c7"/><g fill-opacity=".196"><path d="M186-945c.554 0 1 .446 1 1v2c0 .554-.446 1-1 1h-12c-.554 0-1-.446-1-1v-2c0-.554.446-1 1-1zm-1 1c-.554 0-1 .446-1 1s.446 1 1 1 1-.446 1-1-.446-1-1-1z"/><path d="M186-940c.554 0 1 .446 1 1v2c0 .554-.446 1-1 1h-12c-.554 0-1-.446-1-1v-2c0-.554.446-1 1-1zm-1 1c-.554 0-1 .446-1 1s.446 1 1 1 1-.446 1-1-.446-1-1-1z"/><path d="M186-935c.554 0 1 .446 1 1v2c0 .554-.446 1-1 1h-12c-.554 0-1-.446-1-1v-2c0-.554.446-1 1-1zm-1 1a1 1 0 0 0-1 1 1 1 0 0 0 1 1 1 1 0 0 0 1-1 1 1 0 0 0-1-1z"/></g><g fill="#fff"><path d="M186-946c.554 0 1 .446 1 1v2c0 .554-.446 1-1 1h-12c-.554 0-1-.446-1-1v-2c0-.554.446-1 1-1zm-1 1c-.554 0-1 .446-1 1s.446 1 1 1 1-.446 1-1-.446-1-1-1z"/><path d="M186-941c.554 0 1 .446 1 1v2c0 .554-.446 1-1 1h-12c-.554 0-1-.446-1-1v-2c0-.554.446-1 1-1zm-1 1c-.554 0-1 .446-1 1s.446 1 1 1 1-.446 1-1-.446-1-1-1z"/><path d="M186-936c.554 0 1 .446 1 1v2c0 .554-.446 1-1 1h-12c-.554 0-1-.446-1-1v-2c0-.554.446-1 1-1zm-1 1a1 1 0 0 0-1 1 1 1 0 0 0 1 1 1 1 0 0 0 1-1 1 1 0 0 0-1-1z"/></g></g></svg>