<svg version="1.0" viewBox="0 0 48 48" xmlns="http://www.w3.org/2000/svg"><g transform="translate(-156 -236)"><path d="M487 52c-4.432 0-8 3.568-8 8v192c0 4.432 3.568 8 8 8h208c4.432 0 8-3.568 8-8V84c0-4.432-3.568-8-8-8h-92l-24-24z" fill="#48b9c7"/><rect x="478" y="83" width="228" height="181" ry="8" fill="#565656"/><rect x="481" y="83" width="222" height="39" ry="7.25" fill="#051719" fill-opacity=".314"/><path d="M332 168h34l12 12h46c4.432 0 8 3.568 8 8v74c0 4.432-3.568 8-8 8h-92c-4.432 0-8-3.568-8-8v-86c0-4.432 3.568-8 8-8z" fill="#48b9c7"/><rect x="322" y="183" width="112" height="91" ry="8" fill="#565656"/><rect x="325" y="183" width="106" height="25" ry="8" fill-opacity=".314"/><path d="M234 226h18l5 5h23c2.216 0 4 1.784 4 4v37c0 2.216-1.784 4-4 4h-46c-2.216 0-4-1.784-4-4v-42c0-2.216 1.784-4 4-4z" fill="#48b9c7"/><rect x="229.18" y="232.87" width="56" height="47" ry="4" fill="#565656"/><rect x="231" y="233" width="52" height="12.5" ry="4" fill-opacity=".314"/><path d="M164 240h12l4 4h16c2.216 0 4 1.784 4 4v27c0 2.216-1.784 4-4 4h-32c-2.216 0-4-1.784-4-4v-31c0-2.216 1.784-4 4-4z" fill="#48b9c7"/><rect x="159" y="246" width="42" height="36" ry="4" fill="#565656"/><rect x="161" y="246" width="38" height="16" ry="4" fill-opacity=".314"/><path d="M105 255h8l3 3h11c1.108 0 2 .892 2 2v18c0 1.108-.892 2-2 2h-22c-1.108 0-2-.892-2-2v-21c0-1.108.892-2 2-2z" fill="#48b9c7"/><rect x="103" y="259" width="26" height="23" ry="2.5" fill="#565656"/><rect x="104" y="259" width="24" height="7" ry="2" fill-opacity=".314"/><rect x="104" y="260" width="24" height="20" ry="2" fill="#acacac"/><g fill="#acacac"><path d="M59 261h6l4 4h8c1.108 0 2 .892 2 2v14c0 1.108-.892 2-2 2H59c-1.108 0-2-.892-2-2v-18c0-1.108.892-2 2-2z"/><path d="M59 261.5h5.797l3.996 4H77c.831 0 1.5.669 1.5 1.5v14c0 .831-.669 1.5-1.5 1.5H59c-.831 0-1.5-.669-1.5-1.5v-18c0-.831.669-1.5 1.5-1.5z" stroke="#000" stroke-linecap="round" stroke-opacity=".502"/><path d="M19 269h3l2 2h5c1.108 0 2 .892 2 2v8c0 1.108-.892 2-2 2H19c-1.108 0-2-.892-2-2v-10c0-1.108.892-2 2-2z"/><path d="M19 269.5h2.793l2 2H29c.831 0 1.5.669 1.5 1.5v8c0 .831-.669 1.5-1.5 1.5H19c-.831 0-1.5-.669-1.5-1.5v-10c0-.831.669-1.5 1.5-1.5z" stroke="#000" stroke-linecap="round" stroke-opacity=".502"/></g><rect x="110" y="264" width="12" height="5" ry="1.5" fill="#676767" fill-opacity=".502"/><rect x="111" y="265" width="10" height="2" ry="1" fill="#fafafa"/><rect x="160" y="247" width="40" height="32" ry="3.5" fill="#acacac"/><rect x="230" y="234" width="54" height="43" ry="4" fill="#acacac"/><rect x="323" y="184" width="110" height="86" ry="7.5" fill="#acacac"/><rect x="479" y="84" width="226" height="175" ry="7.5" fill="#acacac"/><g transform="translate(-.5)"><rect x="172.5" y="253" width="16" height="7" ry="1.5" fill="#676767" fill-opacity=".502"/><rect x="173.5" y="254" width="14" height="3" ry="1" fill="#fafafa"/></g><rect x="246" y="242" width="22" height="8" ry="1.5" fill="#676767" fill-opacity=".502"/><rect x="247" y="243" width="20" height="4" ry="1" fill="#fafafa"/><g transform="translate(111 -42)"><rect x="246" y="242" width="42" height="13" ry="1.5" fill="#676767" fill-opacity=".502"/><rect x="247" y="243" width="40" height="8" ry="1" fill="#fafafa"/></g><g transform="translate(305 -126)"><rect x="246" y="242" width="82" height="23" ry="1.5" fill="#676767" fill-opacity=".502"/><rect x="247" y="243" width="80" height="16" ry="1" fill="#fafafa"/></g><g transform="translate(-48 4)"><rect x="110" y="264" width="12" height="5" ry="1.5" fill="#676767" fill-opacity=".502"/><rect x="111" y="265" width="10" height="2" ry="1" fill="#fafafa"/></g><g transform="translate(-91 9)"><rect x="110" y="264" width="10" height="5" ry="1.5" fill="#676767" fill-opacity=".502"/><rect x="111" y="265" width="8" height="2" ry="1" fill="#fafafa"/></g></g></svg>