<svg version="1.0" viewBox="0 0 48 48" xmlns="http://www.w3.org/2000/svg"><g transform="translate(-156 -236)"><path d="M164 240h12l4 4h16c2.216 0 4 1.784 4 4v27c0 2.216-1.784 4-4 4h-32c-2.216 0-4-1.784-4-4v-31c0-2.216 1.784-4 4-4z" fill="#48b9c7"/><rect x="159" y="246" width="42" height="36" ry="4" fill="#565656"/><rect x="161" y="246" width="38" height="16" ry="4" fill-opacity=".314"/><rect x="160" y="247" width="40" height="32" ry="3.5" fill="#acacac"/><g transform="translate(-.5)"><rect x="172.5" y="253" width="16" height="7" ry="1.5" fill="#676767" fill-opacity=".502"/><rect x="173.5" y="254" width="14" height="3" ry="1" fill="#fafafa"/></g></g></svg>