<svg version="1.0" viewBox="0 0 48 48" xmlns="http://www.w3.org/2000/svg"><g transform="translate(-156 -236)"><rect x="160" y="240" width="40" height="39" ry="3.5" fill="#245c63"/><rect x="161" y="241" width="38" height="35" ry="3" fill="#48b9c7"/><path d="M184.93 246.18c.584-.152 1.186-.166 1.756-.121l-2.04 3.458a1.463 1.463 0 0 0 .531 2.022l1.311.762a1.485 1.485 0 0 0 2.036-.53l2.04-3.458c.318.471.6.999.752 1.58.73 2.778-.947 5.622-3.745 6.35-.584.152-1.186.166-1.756.121l-1.203 1.672-5.114-.033s2.278-3.866 2.44-3.892c-.318-.472-.6-1-.753-1.58-.73-2.779.947-5.622 3.745-6.35z" color="#000" fill="#fff" style="text-decoration-line:none;text-indent:0;text-transform:none"/><path d="M172.9 247.08c-.345.07-.665.196-.983.328-.025.937.13 2.163-.234 2.485-.358.316-1.555.05-2.48-.047a5.446 5.446 0 0 0-.469 1.125c.716.593 1.708 1.258 1.732 1.734.024.482-.938 1.207-1.591 1.875.154.387.374.74.608 1.078.911-.19 2.047-.56 2.434-.281.394.284.397 1.508.515 2.437.374.113.767.157 1.17.188.421-.832.85-1.98 1.31-2.11.474-.133 1.444.688 2.247 1.172a5.52 5.52 0 0 0 .89-.797c-.38-.858-1.08-1.938-.89-2.39.191-.453 1.461-.705 2.34-1.031.007-.11.047-.217.047-.329 0-.287-.051-.568-.093-.843-.908-.242-2.198-.362-2.434-.797-.235-.432.362-1.592.655-2.485a5.522 5.522 0 0 0-.983-.703c-.75.563-1.624 1.492-2.106 1.407-.475-.084-.993-1.23-1.498-2.016-.06.01-.127-.012-.187 0zm.936 2.813a2.53 2.53 0 0 1 0 5.062c-1.396 0-2.527-1.133-2.527-2.531s1.131-2.531 2.527-2.531z" color="#000" fill="#fff"/><path d="m172 259 .012 9.5c0 .856.69 1.5 1.498 1.5h11.988c.784 0 1.492-.668 1.492-1.406l-.012-9.594zm6 1h3v3h1l-2.5 4-2.5-4h1zm-1 8h5a.499.499 0 1 1 0 1h-5a.499.499 0 1 1 0-1z" color="#bebebe" fill="#fff"/></g></svg>