<svg version="1.0" viewBox="0 0 48 48" xmlns="http://www.w3.org/2000/svg"><g transform="translate(-156 -236)"><rect x="163" y="238" width="34" height="46" ry="3.5" fill="#565656"/><rect x="164" y="239" width="32" height="42" ry="3" fill="#acacac"/><circle cx="180" cy="255" r="12" fill="#444"/><path fill="#444" d="M168 254.5h7v11h-7z"/><path fill="#444" d="M180 260v7h-10.5v-7z"/><rect x="168" y="260" width="7" height="7" ry="1" fill="#444"/><circle cx="180" cy="255" r="6" fill="#acacac"/></g><g transform="translate(-222 90)"><rect x="244" y="-70" width="26" height="28" ry="13" fill="#245c63"/><circle cx="257" cy="-57" r="12" fill="#48b9c7"/></g><g fill="#fefeff"><path d="M37 25v6h2.5L35 38l-4.5-7H33v-6z"/><path d="M30 39a1 1 0 1 0 0 2h10a1 1 0 1 0 0-2z"/></g></svg>