<svg version="1.0" viewBox="0 0 48 48" xmlns="http://www.w3.org/2000/svg"><g transform="translate(-156 64)"><rect x="158" y="-62" width="44" height="46" ry="22" fill="#245c63"/><rect x="159" y="-61" width="42" height="42" ry="21" fill="#48b9c7"/><path d="M180-49.505a4.5 4.5 0 1 1 0 9 4.5 4.5 0 0 1 0-9zM180-38c9-.005 9 6.5 9 6.5v1.5h-18v-1.5s0-6.495 9-6.5z" color="#000" fill="#fff" style="text-decoration-line:none;text-indent:0;text-transform:none"/><circle cx="180" cy="-45" r="5" fill="#fff"/><rect x="181" y="-39" width="21" height="23" ry="10.5" fill="#1f285a"/><rect x="182" y="-38" width="19" height="19" ry="9.5" fill="#3f51b5"/><g transform="translate(68 -4)" fill="#fff"><path d="M125-26h-2v7h2z"/><circle cx="124" cy="-28" r="1"/></g></g></svg>