<svg version="1.0" viewBox="0 0 48 48" xmlns="http://www.w3.org/2000/svg"><g transform="translate(-156 -236)"><rect x="159" y="247" width="42" height="32" ry="3" fill="#cdcdcd"/><path d="M162 247c-1.662 0-3 1.338-3 3v26c0 1.662 1.338 3 3 3h36c1.662 0 3-1.338 3-3v-26c0-1.662-1.338-3-3-3zm.5 1h35c1.385 0 2.5 1.115 2.5 2.5v23c0 1.385-1.115 2.5-2.5 2.5h-35a2.495 2.495 0 0 1-2.5-2.5v-23c0-1.385 1.115-2.5 2.5-2.5z" fill-opacity=".502"/><rect x="162" y="250" width="36" height="24" ry=".75" fill="#424242"/><g fill="#f6f6f6"><path d="M169 252v1a2 2 0 0 0-2 2 2 2 0 0 0 2 2v2h-2v1h2v1h1v-1a2 2 0 0 0 2-2 2 2 0 0 0-2-2v-2h1v-1h-1v-1zm0 2v2a1 1 0 0 1-1-1 1 1 0 0 1 1-1zm1 3a1 1 0 0 1 1 1 1 1 0 0 1-1 1z"/><path d="M173 260h5v1h-5z"/></g></g></svg>