<svg version="1.0" viewBox="0 0 48 48" xmlns="http://www.w3.org/2000/svg"><g transform="translate(-156 364)"><rect x="159" y="-353" width="42" height="32" ry="3" fill="#cdcdcd"/><path d="M162-353c-1.662 0-3 1.338-3 3v26c0 1.662 1.338 3 3 3h36c1.662 0 3-1.338 3-3v-26c0-1.662-1.338-3-3-3zm.5 1h35c1.385 0 2.5 1.115 2.5 2.5v23c0 1.385-1.115 2.5-2.5 2.5h-35a2.495 2.495 0 0 1-2.5-2.5v-23c0-1.385 1.115-2.5 2.5-2.5z" fill-opacity=".502"/><rect x="162" y="-350" width="36" height="24" ry=".75" fill="#424242"/><rect x="162" y="-350" width="36" height="24" ry="1" fill="#ac1800"/><g transform="translate(60 -611)" fill="#f6f6f6"><path d="M113 271h5v1h-5z"/><rect x="108" y="263" width="1" height="9" ry="0"/><rect x="110" y="263" width="1" height="9" ry="0"/><path d="M107 265h5v1h-5z"/><path d="M107 269h5v1h-5z"/></g></g></svg>