<svg version="1.0" viewBox="0 0 48 48" xmlns="http://www.w3.org/2000/svg"><g transform="translate(-156 -236)"><rect x="160" y="240" width="40" height="39" ry="19.5" fill="#ffce51"/><path d="M179.5 240c-10.803 0-19.5 8.697-19.5 19.5s8.697 19.5 19.5 19.5h1c10.803 0 19.5-8.697 19.5-19.5s-8.697-19.5-19.5-19.5zm0 1h1c10.249 0 18.5 8.251 18.5 18.5s-8.251 18.5-18.5 18.5h-1c-10.249 0-18.5-8.251-18.5-18.5s8.251-18.5 18.5-18.5z" fill-opacity=".392"/><rect x="164" y="267" width="35" height="12" ry="6" fill="#fff"/><circle cx="174" cy="267" r="6" fill="#fff"/><circle cx="188" cy="267" r="9" fill="#fff"/><path d="M188 258a9 9 0 0 0-8.607 6.379A6 6 0 0 0 174 261a6 6 0 0 0-6 6 6 6 0 0 0 .012.342A5.982 5.982 0 0 0 164 273c0 3.324 2.676 6 6 6h23c3.324 0 6-2.676 6-6a5.98 5.98 0 0 0-2.123-4.582A9 9 0 0 0 197 267a9 9 0 0 0-9-9zm0 1a8 8 0 0 1 8 8 8 8 0 0 1-.143 1.475A3.974 3.974 0 0 1 198 272c0 2.216-1.784 4-4 4h-25c-2.216 0-4-1.784-4-4s1.784-4 4-4h.105a5 5 0 0 1-.105-1 5 5 0 0 1 5-5 5 5 0 0 1 5 5 5 5 0 0 1-.102 1h1.174a8 8 0 0 1-.072-1 8 8 0 0 1 8-8z" fill-opacity=".392"/></g></svg>