<svg enable-background="new" version="1.0" viewBox="0 0 512 512" xmlns="http://www.w3.org/2000/svg"><defs><filter id="a" x="-.027" y="-.022" width="1.053" height="1.044" color-interpolation-filters="sRGB"><feGaussianBlur stdDeviation="4.08"/></filter></defs><g color="#000"><path d="M272-16h112v-64h128v-112H272zm256-176v448h112v-448zM400-64v320h112V-64zM272 0v256h112V0z" enable-background="new" filter="url(#a)" opacity=".1" transform="translate(-208 228)"/><path d="M272-16h112v-64h128v-112H272zm256-176v448h112v-448zM400-64v320h112V-64zM272 0v256h112V0z" enable-background="new" filter="url(#a)" opacity=".2" transform="translate(-208 228)"/><path d="M64 210h112v-64h128V34H64zM320 34v448h112V34zM192 162v320h112V162zM64 226v256h112V226z" enable-background="new" opacity=".2"/><path d="M64 208h112v-64h128V32H64zM320 32v448h112V32zM192 160v320h112V160zM64 224v256h112V224z" enable-background="new" fill="#00e676"/><path d="M64 32v2h240v-2zm256 0v2h112v-2zM192 160v2h112v-2zM64 224v2h112v-2z" enable-background="new" fill="#fff" opacity=".2"/></g></svg>