<svg enable-background="new" version="1.0" viewBox="0 0 512 512" xmlns="http://www.w3.org/2000/svg"><defs><filter id="a" x="-.024" y="-.024" width="1.048" height="1.048" color-interpolation-filters="sRGB"><feGaussianBlur stdDeviation="4.8"/></filter></defs><g transform="translate(-208 228)"><circle cx="464" cy="32" r="240" enable-background="new" filter="url(#a)" opacity=".1"/><circle cx="464" cy="32" r="240" enable-background="new" filter="url(#a)" opacity=".2"/><circle cx="464" cy="28" r="240" enable-background="new" fill="#0087ed"/><path d="M464-212A240 240 0 0 0 224 28a240 240 0 0 0 .041 1.172A240 240 0 0 1 464-210 240 240 0 0 1 703.959 28.828 240 240 0 0 0 704 28a240 240 0 0 0-240-240Z" enable-background="new" fill="#fff" opacity=".2"/><path d="M450.375-126.698c-7.031 4.22-15.996 10.195-26.894 17.93-10.724 7.559-22.149 17.402-34.277 29.531-10.547 10.547-17.93 20.918-22.149 31.113-4.044 10.372-5.449 20.567-4.218 30.586 1.23 10.02 4.658 19.775 10.283 29.268 5.8 9.668 13.36 19.16 22.676 28.476l76.99 76.991 24.522-24.521-71.718-71.719c-16.7-16.7-26.016-31.289-27.95-43.77-1.932-12.48 3.34-24.96 15.821-37.441 2.637-2.637 5.45-5.273 8.438-7.91s5.801-5.098 8.437-7.383c2.813-2.11 5.274-4.043 7.383-5.801 2.46-1.758 4.307-2.9 5.537-3.428L601.004 72.971l24.521-24.521zm-7.632 77.914-24.528 24.522 115.758 115.75c-.528 1.23-1.669 3.078-3.427 5.538-1.759 2.11-3.69 4.57-5.801 7.383-2.286 2.636-4.746 5.45-7.383 8.437s-5.274 5.801-7.91 8.438c-12.481 12.48-24.961 17.754-37.442 15.82-12.48-1.933-27.07-11.25-43.77-27.949l-71.719-71.718L332 61.958l76.991 76.991c9.317 9.317 18.809 16.875 28.477 22.676 9.492 5.625 19.248 9.053 29.267 10.283 10.02 1.23 20.215-.175 30.586-4.218 10.195-4.22 20.566-11.602 31.113-22.149 12.13-12.129 21.973-23.554 29.532-34.277 7.734-10.898 13.71-19.863 17.929-26.894z" fill="#fff"/></g></svg>