<svg version="1.0" viewBox="0 0 16 16" xmlns="http://www.w3.org/2000/svg"><g transform="translate(-16 32)"><path d="M26.5-18H18c-.554 0-1-.446-1-1v-9c0-.554.446-1 1-1h8.5l5.5 5.5z" fill="#ffce51"/><path d="M18-29c-.554 0-1 .446-1 1v9c0 .554.446 1 1 1h8.5l5.5-5.5-5.5-5.5zm0 1h8l4.5 4.5L26-19h-8z" fill-opacity=".5"/><rect x="24" y="-24" width="8" height="8" ry="4" fill="#cf3b00"/><path d="M28-24c-2.216 0-4 1.784-4 4s1.784 4 4 4 4-1.784 4-4-1.784-4-4-4zm0 1c1.662 0 3 1.338 3 3s-1.338 3-3 3-3-1.338-3-3 1.338-3 3-3z" fill-opacity=".5"/><path d="M26.5-22a.5.5 0 0 0-.5.5.5.5 0 0 0 .146.354L27.293-20l-1.147 1.147A.5.5 0 0 0 26-18.5a.5.5 0 0 0 .5.5.5.5 0 0 0 .354-.146L28-19.293l1.142 1.142A.5.5 0 0 0 29.5-18a.5.5 0 0 0 .5-.5.5.5 0 0 0-.146-.353L28.707-20l1.142-1.142A.5.5 0 0 0 30-21.5a.5.5 0 0 0-.5-.5.5.5 0 0 0-.354.146L28-20.707l-1.142-1.142a.5.5 0 0 0-.005-.005A.5.5 0 0 0 26.5-22z" fill="#fff"/></g></svg>