<svg version="1.0" viewBox="0 0 16 16" xmlns="http://www.w3.org/2000/svg"><g transform="translate(-16 -268)"><circle cx="24" cy="276" r="8" fill="#3d91e7"/><path d="M24 270a6 6 0 1 0 0 12 6 6 0 0 0 0-12zm0 .5a5.503 5.503 0 0 1 5.294 4.005 9.544 9.544 0 0 1-2.33 3.04c-.468.405-.978.766-1.54 1.02-.564.253-1.183.397-1.8.362a3.114 3.114 0 0 1-1.327-.38 10.009 10.009 0 0 0 2.84-2.29c.521-.611.977-1.305 1.153-2.089.088-.392.103-.802.02-1.195a2.208 2.208 0 0 0-.538-1.06 2.163 2.163 0 0 0-1-.592 2.626 2.626 0 0 0-1.166-.042c-.771.14-1.46.59-2.013 1.146-.974.981-1.576 2.366-1.465 3.744.055.69.286 1.367.681 1.933.089.127.186.248.29.362a8.996 8.996 0 0 1-1.779.426A5.5 5.5 0 0 1 24 270.5zm.035 1.111c.387.001.776.118 1.084.35.278.21.484.51.601.838a2.3 2.3 0 0 1 .107 1.03c-.08.692-.429 1.327-.85 1.882-.748.981-1.74 1.767-2.844 2.317a8.91 8.91 0 0 1-.344.161 2.84 2.84 0 0 1-.603-.737c-.328-.58-.436-1.27-.372-1.935.063-.663.291-1.303.597-1.896.355-.687.839-1.338 1.516-1.711.338-.187.721-.3 1.108-.299zm5.416 3.653a5.5 5.5 0 0 1-9.69 4.24 9.902 9.902 0 0 0 1.815-.603c.255.195.537.354.836.469.864.33 1.843.283 2.717-.02.873-.302 1.648-.844 2.323-1.476a10 10 0 0 0 1.999-2.61z" fill="#fff"/></g></svg>