<svg version="1.0" viewBox="0 0 16 16" xmlns="http://www.w3.org/2000/svg"><g transform="translate(-16 -268)"><circle cx="24" cy="276" r="8" fill="#e95420"/><path d="M19.059 275.07a.934.934 0 1 0 0 1.869.934.934 0 0 0 0-1.869zm6.673 4.247a.934.934 0 1 0 .934 1.619.934.934 0 0 0-.934-1.618zm-4.643-3.313c0-.923.459-1.739 1.16-2.233l-.682-1.145a4.067 4.067 0 0 0-1.68 2.36 1.31 1.31 0 0 1 0 2.036 4.066 4.066 0 0 0 1.68 2.36l.683-1.144a2.725 2.725 0 0 1-1.161-2.234zm2.73-2.73a2.73 2.73 0 0 1 2.719 2.488l1.332-.02a4.047 4.047 0 0 0-1.207-2.633 1.31 1.31 0 0 1-1.76-1.017 4.059 4.059 0 0 0-2.883.273l.649 1.163a2.73 2.73 0 0 1 1.15-.254zm0 5.46c-.411 0-.8-.091-1.15-.254l-.65 1.164a4.044 4.044 0 0 0 2.885.273 1.31 1.31 0 0 1 1.76-1.018 4.047 4.047 0 0 0 1.206-2.633l-1.332-.02a2.73 2.73 0 0 1-2.719 2.488zm1.913-6.043a.934.934 0 1 0 .934-1.618.934.934 0 0 0-.934 1.618z" fill="#fff"/></g></svg>