<svg version="1.0" viewBox="0 0 16 16" xmlns="http://www.w3.org/2000/svg"><g transform="translate(-16 -268)"><circle cx="24" cy="276" r="8" fill="#0068c8"/><path d="M25.799 270.65c-.223-.008-1.445.353-1.803.807-1.079.078-5.43 3.045-7.986 4.85.009.19.024.379.047.568 1.162-.448 2.515-.918 3.062-.914.108 0 .187.019.223.06.21.248-.685 1.448-1.61 2.807-.239.352-.48.713-.712 1.062.073.137.15.272.232.405 1.27-1.591 2.868-3.584 3.31-3.65a.105.105 0 0 1 .063.007c.079.096-1.38 2.422-2.685 4.559.146.17.3.336.46.494.634-.872 1.321-1.83 1.987-2.748 1.388-1.918 2.617-3.71 3.217-3.727v.002a.253.253 0 0 1 .054.002c1.845.011 3.649 4.638 4.598 7.54.135-.088.267-.18.397-.276-.456-3.244-1.526-8.587-3.75-10.074.238-.16.26-.975.26-.975zm-9.758 4.543zm.053 1.977c.014.102.03.204.049.306-.02-.101-.034-.204-.05-.306zm.158.796c.024.1.05.198.078.295-.028-.097-.053-.196-.078-.295zm.238.776zm.323.76a8.094 8.094 0 0 0 0-.001zm.47.843zm1.407 1.63c.068.063.138.126.209.187-.073-.06-.14-.125-.21-.188zm.625.503c.065.05.132.099.199.147-.069-.047-.133-.098-.2-.147z" fill="#fff"/></g></svg>