<svg version="1.0" viewBox="0 0 16 16" xmlns="http://www.w3.org/2000/svg"><g transform="translate(-16 -268)"><circle cx="24" cy="276" r="8" fill="#0087ed"/><path d="M23.546 270.84c-.235.14-.534.34-.897.597-.357.252-.738.58-1.143.985-.351.351-.597.697-.738 1.037a2.077 2.077 0 0 0-.14 1.02 2.5 2.5 0 0 0 .342.975c.194.322.446.639.756.95l2.567 2.566.817-.818-2.39-2.39c-.557-.557-.868-1.043-.932-1.46-.065-.415.111-.831.527-1.247.088-.088.182-.176.281-.264s.194-.17.282-.246c.093-.07.175-.135.246-.194.082-.058.143-.096.184-.114l5.258 5.258.818-.817zm-.255 2.597-.817.817 3.858 3.859a1.138 1.138 0 0 1-.114.184c-.059.07-.123.153-.194.246-.076.088-.158.182-.246.281s-.175.194-.263.282c-.416.416-.832.592-1.248.527-.416-.064-.903-.375-1.46-.932l-2.39-2.39-.817.817 2.566 2.567c.31.31.627.562.95.755a2.5 2.5 0 0 0 .975.343c.334.041.674-.006 1.02-.14.34-.141.685-.387 1.036-.739.405-.404.733-.785.985-1.142.258-.364.457-.662.597-.897z" fill="#fff"/></g></svg>