<svg version="1.0" viewBox="0 0 16 16" xmlns="http://www.w3.org/2000/svg"><g transform="translate(-16 -268)"><rect transform="matrix(0 -1 -1 0 0 0)" x="-284" y="-32" width="16" height="16" rx="2" ry="2" fill="#1794d1"/><path d="M23.999 270.67c-.445 1.091-.714 1.805-1.21 2.864.305.322.678.697 1.283 1.12-.65-.267-1.095-.536-1.427-.815-.634 1.323-1.628 3.208-3.644 6.831 1.585-.915 2.813-1.479 3.958-1.694a2.9 2.9 0 0 1-.075-.679l.002-.05c.026-1.016.554-1.797 1.18-1.744.625.053 1.111.92 1.086 1.935a2.844 2.844 0 0 1-.064.545c1.133.222 2.348.784 3.912 1.687-.309-.568-.584-1.08-.847-1.566-.413-.321-.845-.739-1.726-1.19.606.157 1.039.338 1.377.54-2.672-4.973-2.888-5.634-3.804-7.784z" fill="#fff" fill-rule="evenodd"/></g></svg>