<svg version="1.0" viewBox="0 0 16 16" xmlns="http://www.w3.org/2000/svg"><g transform="translate(-16 -268)"><circle cx="24" cy="276" r="8" fill="#0079c1"/><path d="m23.612 269.97-1.085.267a.103.103 0 0 0-.08.098l.48 2.205.018.01a3.653 3.653 0 0 1 4.767 2.917l2.232-.49a.1.1 0 0 0 .053-.116l-.258-1.085a.103.103 0 0 0-.097-.08h-1.788a3.923 3.923 0 0 0-.551-.791l.578-1.636a.107.107 0 0 0-.045-.125l-.951-.578a.102.102 0 0 0-.125.018l-1.2 1.2a3.95 3.95 0 0 0-1.085-.186l-.747-1.575a.1.1 0 0 0-.116-.053zm-3.504 1.592a.118.118 0 0 0-.062.035l-.792.783c-.033.033-.033.084-.009.125l.925 1.53a3.912 3.912 0 0 0-.39.88l-1.7.355a.099.099 0 0 0-.08.098v1.12c0 .048.035.087.08.098l1.646.4c.087.364.22.707.4 1.023l-.952 1.459c-.026.04-.016.09.018.124l.783.792a.102.102 0 0 0 .124.018l1.53-1.69v-.018a3.647 3.647 0 0 1-1.174-2.686c0-1.177.558-2.213 1.423-2.881l-1.699-1.547a.116.116 0 0 0-.071-.018zm7.56 5.238a3.657 3.657 0 0 1-3.567 2.864c-.463 0-.9-.092-1.307-.25l-.009.01-.578 2.214a.09.09 0 0 0 .071.098l1.085.293a.104.104 0 0 0 .116-.053l.853-1.556a3.91 3.91 0 0 0 .96-.107l1.157 1.298a.098.098 0 0 0 .124.018l.97-.56a.099.099 0 0 0 .044-.116l-.471-1.627c.27-.258.5-.549.685-.863l1.734.098c.048.003.094-.024.107-.071l.293-1.076a.104.104 0 0 0-.053-.116l-2.215-.498z" fill="#fff"/></g></svg>