<svg enable-background="new" version="1.0" viewBox="0 0 16 16" xmlns="http://www.w3.org/2000/svg"><defs><filter id="a" x="-.024" y="-.024" width="1.048" height="1.048" color-interpolation-filters="sRGB"><feGaussianBlur stdDeviation="4.48"/></filter></defs><g transform="translate(-16 -268)"><rect transform="matrix(0 -1 -1 0 0 0)" x="-256" y="-688" width="448" height="448" rx="36" ry="36" filter="url(#a)" opacity=".1"/><rect transform="matrix(0 -1 -1 0 0 0)" x="-256" y="-688" width="448" height="448" rx="36" ry="36" filter="url(#a)" opacity=".2"/><rect transform="matrix(0 -1 -1 0 0 0)" x="-283" y="-74" width="20" height="20" rx="2" ry="2" opacity=".2"/><rect transform="matrix(0 -1 -1 0 0 0)" x="-281" y="-188" width="40" height="40" rx="3" ry="3" opacity=".2"/><rect transform="matrix(0 -1 -1 0 0 0)" x="-283" y="-126" width="28" height="28" rx="3" ry="3" opacity=".2"/><rect transform="matrix(0 -1 -1 0 0 0)" x="-282" y="-74" width="20" height="20" rx="2" ry="2" fill="#1794d1"/><rect transform="matrix(0 -1 -1 0 0 0)" x="-280" y="-188" width="40" height="40" rx="3" ry="3" fill="#1794d1"/><rect transform="matrix(0 -1 -1 0 0 0)" x="-282" y="-126" width="28" height="28" rx="3" ry="3" fill="#1794d1"/><rect transform="matrix(0 -1 -1 0 0 0)" x="-284" y="-32" width="16" height="16" rx="2" ry="2" enable-background="new" fill="#1794d1"/><rect transform="matrix(0 -1 -1 0 0 0)" x="-252" y="-688" width="448" height="448" rx="36" ry="36" fill="#1794d1"/><path d="M276-196c-19.944 0-36 16.056-36 36v2c0-19.944 16.056-36 36-36h376c19.944 0 36 16.056 36 36v-2c0-19.944-16.056-36-36-36z" fill="#fff" opacity=".2"/><path d="M56 262c-1.108 0-2 .892-2 2v1c0-1.108.892-2 2-2h16c1.108 0 2 .892 2 2v-1c0-1.108-.892-2-2-2z" fill="#fff" opacity=".2"/><path d="M151 240c-1.662 0-3 1.338-3 3v1c0-1.662 1.338-3 3-3h34c1.662 0 3 1.338 3 3v-1c0-1.662-1.338-3-3-3z" fill="#fff" opacity=".2"/><path d="M101 254c-1.662 0-3 1.338-3 3v1c0-1.662 1.338-3 3-3h22c1.662 0 3 1.338 3 3v-1c0-1.662-1.338-3-3-3z" fill="#fff" opacity=".2"/></g><path d="M7.999 2.67c-.445 1.091-.714 1.805-1.21 2.864.305.322.678.697 1.283 1.12-.65-.267-1.095-.536-1.427-.815-.634 1.323-1.628 3.208-3.644 6.831 1.585-.915 2.813-1.479 3.958-1.694a2.9 2.9 0 0 1-.075-.679l.002-.05c.026-1.016.554-1.797 1.18-1.744.625.053 1.111.92 1.086 1.935a2.844 2.844 0 0 1-.064.545c1.133.222 2.348.784 3.912 1.687-.309-.568-.584-1.08-.847-1.566-.413-.321-.845-.739-1.726-1.19.606.157 1.039.338 1.377.54C9.132 5.482 8.916 4.82 8 2.67z" fill="#fff" fill-rule="evenodd"/></svg>