<svg version="1.0" viewBox="0 0 16 16" xmlns="http://www.w3.org/2000/svg"><g transform="translate(-16 -268)"><circle cx="24" cy="276" r="8" fill="#4c5263"/><path d="M31.812 277.64c-1.167 1.574-3.322 2.415-5.89 2.788-2.679.39-5.785.274-8.557.037.132.199.278.39.428.577a18.274 18.274 0 0 0 8.046.66c2.167-.316 4.595-1.252 5.629-2.88.147-.382.267-.805.344-1.182z" color="#000" fill="#fff" fill-rule="evenodd" style="isolation:auto;mix-blend-mode:normal;text-decoration-color:#000;text-decoration-line:none;text-decoration-style:solid;text-indent:0;text-transform:none;white-space:normal"/><circle cx="24" cy="275.99" r="8" fill="none"/><path d="M17.793 281.05c1.754 2.236 4.801 3.363 7.616 2.82 2.717-.467 5.098-2.457 6.058-5.038-1.105 1.21-3.454 2.303-5.785 2.644-2.332.341-5.496.313-7.889-.426z" fill="#5294e2"/><path d="M20.892 267.99c-.86 3.508-3.334 7.826-4.892 10.579 2.739.654 5.265.477 8.066.748-.041-.53-.433-5.984-.53-7.095-.961-1.743-1.741-2.644-2.644-4.232zm3.306 4.496c1.274 2.625 1.275 4.914.529 6.831 1.051.006 2.767-.185 4.628-1.103-1.53-3.492-5.157-5.728-5.157-5.728zm2.512 1.499c.791.53 1.545 1.101 2.116 1.675.774.776 1.169 1.203 1.058 2.29 1.036-.52 1.722-.947 2.116-1.674-1.714-1.162-3.438-1.666-5.29-2.291z" fill="#fff" fill-rule="evenodd"/></g></svg>