<svg enable-background="new" version="1.0" viewBox="0 0 16 16" xmlns="http://www.w3.org/2000/svg"><defs><filter id="a" x="-.024" y="-.024" width="1.048" height="1.048" color-interpolation-filters="sRGB"><feGaussianBlur stdDeviation="4.8"/></filter></defs><g transform="translate(-16 -268)"><circle cx="464" cy="30" r="240" opacity=".2"/><circle cx="112" cy="269" r="15" enable-background="new" opacity=".2"/><circle cx="464" cy="32" r="240" filter="url(#a)" opacity=".1"/><circle cx="464" cy="32" r="240" filter="url(#a)" opacity=".2"/><circle cx="64" cy="273" r="11" opacity=".2"/><circle cx="168" cy="261" r="22" opacity=".2"/><circle cx="24" cy="276" r="8" fill="#0079c1"/><circle cx="64" cy="272" r="11" fill="#0079c1"/><path d="M64 261a11 11 0 0 0-11 11 11 11 0 0 0 .021.586A11 11 0 0 1 64 262a11 11 0 0 1 10.979 10.414A11 11 0 0 0 75 272a11 11 0 0 0-11-11Z" fill="#fff" opacity=".2"/><circle cx="168" cy="260" r="22" fill="#0079c1"/><path d="M168 238a22 22 0 0 0-22 22 22 22 0 0 0 .021.586A22 22 0 0 1 168 239a22 22 0 0 1 21.979 21.414A22 22 0 0 0 190 260a22 22 0 0 0-22-22z" fill="#fff" opacity=".2"/><circle cx="464" cy="28" r="240" fill="#0079c1"/><path d="M464-212A240 240 0 0 0 224 28a240 240 0 0 0 .041 1.172A240 240 0 0 1 464-210 240 240 0 0 1 703.959 28.828 240 240 0 0 0 704 28a240 240 0 0 0-240-240Z" fill="#fff" opacity=".2"/><circle cx="112" cy="268" r="15" enable-background="new" fill="#0079c1"/><path d="M112 253a15 15 0 0 0-15 15 15 15 0 0 0 .02.544A15 15 0 0 1 112 253.938a15 15 0 0 1 14.98 14.456A15 15 0 0 0 127 268a15 15 0 0 0-15-15z" enable-background="new" fill="#fff" opacity=".2"/></g><path d="m7.612 1.97-1.085.267a.103.103 0 0 0-.08.098l.48 2.205.018.01a3.653 3.653 0 0 1 4.767 2.917l2.232-.49a.1.1 0 0 0 .053-.116l-.258-1.085a.103.103 0 0 0-.097-.08h-1.788a3.923 3.923 0 0 0-.551-.791l.578-1.636a.107.107 0 0 0-.045-.125l-.951-.578a.102.102 0 0 0-.125.018l-1.2 1.2a3.95 3.95 0 0 0-1.085-.186l-.747-1.575a.1.1 0 0 0-.116-.053zM4.108 3.562a.118.118 0 0 0-.062.035l-.792.783c-.033.033-.033.084-.009.125l.925 1.53a3.912 3.912 0 0 0-.391.88L2.08 7.27a.099.099 0 0 0-.08.098v1.12c0 .048.035.087.08.098l1.646.4c.087.364.22.707.4 1.023l-.952 1.459c-.026.04-.016.09.018.124l.783.792a.102.102 0 0 0 .124.018l1.53-1.69v-.018a3.647 3.647 0 0 1-1.174-2.686c0-1.177.558-2.213 1.423-2.881L4.179 3.58a.116.116 0 0 0-.071-.018zm7.56 5.238A3.657 3.657 0 0 1 8.1 11.664c-.463 0-.9-.092-1.307-.25l-.009.01-.578 2.214a.09.09 0 0 0 .071.098l1.085.293a.104.104 0 0 0 .116-.053l.853-1.556a3.91 3.91 0 0 0 .96-.107l1.157 1.298a.098.098 0 0 0 .124.018l.97-.56a.099.099 0 0 0 .044-.116l-.471-1.627c.27-.257.5-.549.685-.863l1.734.098c.048.003.094-.024.107-.071l.293-1.076a.104.104 0 0 0-.053-.116L11.667 8.8z" fill="#fff"/></svg>