<svg enable-background="new" version="1.0" viewBox="0 0 16 16" xmlns="http://www.w3.org/2000/svg"><defs><filter id="a" x="-.024" y="-.024" width="1.048" height="1.048" color-interpolation-filters="sRGB"><feGaussianBlur stdDeviation="4.8"/></filter></defs><g transform="translate(-16 -268)"><circle cx="464" cy="30" r="240" opacity=".2"/><circle cx="112" cy="269" r="15" enable-background="new" opacity=".2"/><circle cx="464" cy="32" r="240" filter="url(#a)" opacity=".1"/><circle cx="464" cy="32" r="240" filter="url(#a)" opacity=".2"/><circle cx="64" cy="273" r="11" opacity=".2"/><circle cx="168" cy="261" r="22" opacity=".2"/><circle cx="24" cy="276" r="8" fill="#04a"/><circle cx="64" cy="272" r="11" fill="#04a"/><path d="M64 261a11 11 0 0 0-11 11 11 11 0 0 0 .021.586A11 11 0 0 1 64 262a11 11 0 0 1 10.979 10.414A11 11 0 0 0 75 272a11 11 0 0 0-11-11Z" fill="#fff" opacity=".2"/><circle cx="168" cy="260" r="22" fill="#04a"/><path d="M168 238a22 22 0 0 0-22 22 22 22 0 0 0 .021.586A22 22 0 0 1 168 239a22 22 0 0 1 21.979 21.414A22 22 0 0 0 190 260a22 22 0 0 0-22-22z" fill="#fff" opacity=".2"/><circle cx="464" cy="28" r="240" fill="#04a"/><path d="M464-212A240 240 0 0 0 224 28a240 240 0 0 0 .041 1.172A240 240 0 0 1 464-210 240 240 0 0 1 703.959 28.828 240 240 0 0 0 704 28a240 240 0 0 0-240-240Z" fill="#fff" opacity=".2"/><circle cx="112" cy="268" r="15" enable-background="new" fill="#04a"/><path d="M112 253a15 15 0 0 0-15 15 15 15 0 0 0 .02.544A15 15 0 0 1 112 253.938a15 15 0 0 1 14.98 14.456A15 15 0 0 0 127 268a15 15 0 0 0-15-15z" enable-background="new" fill="#fff" opacity=".2"/></g><g fill="#fff"><path d="M10.615 3.002c-.025.015-.034.028-.029.018-.27.459-.273 1.06-.396 1.6a.2.2 0 0 1 0 .029c-.06.592-.254 1.194-.098 1.762a.2.2 0 0 1 .013.033c.03.038.067.072.088.077.017.003.04-.004.097-.043.06-.042.099-.12.117-.23a.2.2 0 0 1 .024-.022.2.2 0 0 1 .005-.034c.246-.97.42-1.99.356-2.988a.2.2 0 0 1 0-.009c-.008-.046-.023-.073-.067-.126a.453.453 0 0 0-.056-.061c-.007-.006-.001-.007-.029-.005a.2.2 0 0 1-.026 0z"/><path d="M12.826 3.471c-.418.202-.632.693-.92 1.088a.187.187 0 0 1-.022.056c-.363.643-.826 1.281-.874 2.026.002.117.07.184.139.2a.268.268 0 0 0 .235-.103c.004-.01 0-.021.007-.03a.187.187 0 0 1 .005-.007c.658-.905 1.156-1.978 1.565-3.02a.187.187 0 0 1 0-.004c.029-.068.03-.095.005-.147-.007-.015-.081-.064-.121-.06a.187.187 0 0 1-.019 0z"/><path d="M6.368 3.772c-.067.012-.166.072-.238.1-.25.095-.39.31-.45.562-.06.258-.04.545 0 .838.041.293.1.595.163.825.055.2.094.296.112.363v.05c0 .021-.01.02-.025.037-.008.004.008.025 0 .025a.107.107 0 0 1-.062.025c-.044.003-.08-.013-.125-.025-.031-.007-.072-.032-.063-.025-.014-.009-.04-.01-.05-.025 0 .006.01.006 0-.012-.01-.02-.021-.067-.037-.1-.036-.076-.064-.164-.112-.275a9.987 9.987 0 0 0-.363-.75 2.412 2.412 0 0 0-.488-.65.82.82 0 0 0-.312-.188.507.507 0 0 0-.338.05 1.02 1.02 0 0 0-.5.675c-.061.27-.032.58.013.85.046.27.117.492.162.675.02.077.044.149.05.188 0 .038-.015.137-.025.175a5.199 5.199 0 0 1-.162.437s-2.181 5.793 2.5 5.388c.039-.003.126-.025.162-.025a14.58 14.58 0 0 0 2.563-.775c.152-.073.351-.146.575-.25.447-.21 1.01-.479 1.55-.775.54-.297 1.042-.614 1.425-.95.384-.338.664-.707.612-1.075-.081-.594-.475-1.035-1-1.375-.526-.342-1.182-.578-1.837-.75a18.766 18.766 0 0 0-1.775-.388c-.243-.038-.47-.049-.613-.075-.042-.007-.064-.018-.087-.025-.012-.001-.013-.005-.025-.012-.015-.01-.041-.01-.05-.025-.008-.015 0-.034 0-.05v-.388a7.873 7.873 0 0 0-.088-1.062c-.062-.37-.159-.724-.362-.963a.709.709 0 0 0-.5-.25.682.682 0 0 0-.2 0z"/></g></svg>