<svg version="1.0" viewBox="0 0 16 16" xmlns="http://www.w3.org/2000/svg"><g transform="translate(-16 -268)"><circle cx="24" cy="276" r="8" fill="#8bc34a"/><path d="M24 269a7 7 0 1 0 0 14 7 7 0 0 0 0-14zm.034.97c3.33 0 6.033 2.7 6.033 6.03a6.033 6.033 0 0 1-10.55 3.994c.454-.353 1.214-.267 2.15-.16.448.051.96.11 1.487.121 1.475.01 3.061-.26 4.04-.688.634-.278 1.039-.46 1.292-.691.092-.075.14-.2.188-.33l.034-.088c.041-.105.1-.33.126-.454.012-.054.018-.112-.02-.142l-.137.026c-.43.258-1.503.749-2.509.769-1.246.026-3.757-1.255-4.02-1.39l-.025-.031a792.07 792.07 0 0 0-.518-1.23c1.808 1.19 3.306 1.85 4.455 1.952 1.277.113 2.273-.584 2.7-.882.083-.057.146-.101.172-.11l.029-.047c-.071-.449-.741-2.621-1.246-3.143-.14-.143-.25-.282-.477-.415-1.826-1.065-6.162-1.706-6.365-1.735l-.034.01-.013.028-.018 1c-.149-.048-.61-.2-1.271-.38.862-1.068 2.184-2.014 4.497-2.014zm1.593 3.191h.093a1.862 1.862 0 0 1 1.792 1.921 1.845 1.845 0 0 1-.588 1.29 1.847 1.847 0 0 1-1.33.5 1.866 1.866 0 0 1-1.793-1.921c.018-.496.228-.956.59-1.292a1.83 1.83 0 0 1 1.236-.498zm-.05.547a1.278 1.278 0 0 0-.798.345c-.251.236-.4.555-.41.9a1.299 1.299 0 0 0 1.248 1.34 1.293 1.293 0 1 0 .087-2.585 1.065 1.065 0 0 0-.126 0zm.341.647c.317 0 .573.172.573.384 0 .211-.256.384-.573.384-.318 0-.575-.173-.575-.384 0-.212.257-.384.575-.384z" fill="#fff" fill-rule="evenodd"/></g></svg>