<svg version="1.0" viewBox="0 0 16 16" xmlns="http://www.w3.org/2000/svg"><path fill="#e9e9e9" d="M16 0H0v16h16z"/><g transform="translate(-16 -268)"><rect transform="matrix(0 -1 -1 0 0 0)" x="-284" y="-32" width="16" height="16" rx="2" ry="2" fill="#c70036"/><path d="M27.084 275.28c.01.27-.079.401-.159.633l-.144.072c-.119.229.011.145-.073.328-.185.163-.56.512-.68.544-.087 0 .06-.103.08-.143-.248.17-.199.254-.576.357l-.011-.024c-.93.438-2.223-.43-2.206-1.613-.01.075-.028.056-.049.086-.048-.609.281-1.22.837-1.47.543-.27 1.18-.159 1.568.204-.213-.28-.639-.577-1.142-.55-.494.009-.956.323-1.11.663-.253.16-.283.614-.393.697-.148 1.09.279 1.561 1.002 2.115.113.077.032.089.047.147a1.96 1.96 0 0 1-.64-.49c.095.14.199.277.333.384-.227-.076-.53-.549-.618-.568.39.7 1.584 1.226 2.209.964-.29.011-.657.006-.981-.114-.137-.07-.322-.215-.29-.242.854.318 1.734.24 2.472-.35.188-.147.393-.396.452-.4-.089.135.016.065-.053.184.187-.302-.081-.123.193-.521l.102.14c-.038-.251.31-.555.275-.951.08-.121.09.13.004.409.118-.31.032-.359.062-.614.032.086.076.177.098.267-.077-.298.078-.502.117-.676-.038-.017-.119.132-.137-.22.003-.154.042-.081.058-.119-.03-.017-.11-.135-.157-.36.034-.053.093.137.14.145-.03-.179-.083-.316-.085-.453-.138-.29-.049.039-.161-.124-.148-.46.122-.107.14-.316.224.324.35.825.41 1.033a4.224 4.224 0 0 0-.205-.736c.068.029-.11-.52.088-.157-.211-.776-.902-1.5-1.538-1.84.077.07.175.16.14.174-.316-.188-.26-.203-.306-.282-.257-.105-.275.009-.445 0-.486-.258-.58-.23-1.026-.392l.02.095c-.322-.107-.375.04-.723 0-.02-.016.112-.06.221-.075-.311.041-.297-.062-.601.011.075-.053.154-.087.234-.132-.253.015-.605.148-.497.027-.414.185-1.149.444-1.561.83l-.013-.086c-.189.227-.824.678-.875.972l-.05.012c-.099.166-.162.355-.24.526-.129.22-.189.084-.17.119-.253.513-.38.943-.488 1.297.078.116.002.696.031 1.16-.127 2.295 1.61 4.523 3.51 5.037.278.1.692.096 1.044.106-.416-.119-.47-.063-.874-.204-.292-.138-.356-.295-.562-.474l.081.145c-.405-.144-.235-.178-.565-.282l.087-.114c-.131-.01-.348-.222-.407-.34l-.144.007c-.173-.213-.265-.367-.258-.486l-.046.083c-.053-.09-.636-.8-.334-.635-.056-.05-.13-.083-.211-.23l.061-.07c-.145-.188-.268-.428-.258-.508.077.105.131.125.184.143-.367-.912-.388-.05-.666-.928l.059-.004c-.045-.069-.073-.142-.109-.215l.026-.255c-.265-.306-.074-1.3-.036-1.846.026-.222.22-.458.369-.829l-.09-.015c.172-.3.983-1.206 1.358-1.16.182-.228-.036 0-.071-.058.4-.414.525-.292.795-.367.29-.172-.25.068-.112-.065.503-.129.356-.292 1.012-.358.07.04-.16.061-.218.112.419-.205 1.325-.158 1.915.114.683.32 1.451 1.264 1.481 2.152l.035.009c-.018.353.054.761-.07 1.136l.084-.177" fill="#fff"/></g></svg>