<svg enable-background="new" version="1.0" viewBox="0 0 16 16" xmlns="http://www.w3.org/2000/svg"><defs><filter id="a" x="-.024" y="-.024" width="1.048" height="1.048" color-interpolation-filters="sRGB"><feGaussianBlur stdDeviation="4.8"/></filter><filter id="b" x="-.052" y="-.071" width="1.104" height="1.142" color-interpolation-filters="sRGB"><feGaussianBlur stdDeviation="10.367"/></filter></defs><g transform="translate(-16 -268)"><circle cx="464" cy="30" r="240" opacity=".2"/><circle cx="464" cy="32" r="240" filter="url(#a)" opacity=".1"/><circle cx="464" cy="32" r="240" filter="url(#a)" opacity=".2"/><circle cx="64" cy="273" r="11" opacity=".2"/><circle cx="168" cy="261" r="22" opacity=".2"/><circle cx="24" cy="276" r="8" fill="#4c5263"/><circle cx="64" cy="272" r="11" fill="#4c5263"/><path d="M64 261a11 11 0 0 0-11 11 11 11 0 0 0 .021.586A11 11 0 0 1 64 262a11 11 0 0 1 10.979 10.414A11 11 0 0 0 75 272a11 11 0 0 0-11-11Z" fill="#fff" opacity=".2"/><circle cx="168" cy="260" r="22" fill="#4c5263"/><path d="M189.48 264.54c-3.209 4.329-9.136 6.642-16.198 7.668-7.367 1.07-15.91.753-23.533.102.365.545.766 1.074 1.178 1.584 7.338.582 14.98 2.853 22.126 1.815 5.96-.866 11.786-4.656 15.48-7.92.403-1.05.735-2.213.946-3.249z" color="#000" enable-background="accumulate" fill="#fff" fill-rule="evenodd" style="isolation:auto;mix-blend-mode:normal;text-decoration-color:#000;text-decoration-line:none;text-decoration-style:solid;text-indent:0;text-transform:none;white-space:normal"/><circle cx="168" cy="260" r="22" fill="none"/><path d="M173.5 273.68c-7.467 1.054-15.073.792-22.566.22 4.822 6.149 13.203 9.248 20.944 7.754 7.471-1.284 14.02-6.756 16.658-13.854-4.437 3.147-9.678 5.057-15.036 5.88z" fill="#5294e2"/><path d="M159.13 237.53c-2.472 10.087-9.586 22.5-14.065 30.414 7.81 1.881 16.473 2.427 23.189 3.04-.117-1.523-1.244-18.094-1.52-21.287-2.765-5.01-5.008-7.6-7.604-12.167zm9.505 12.926c3.664 7.548 3.667 15.017 1.52 20.529 3.023.018 7.956.357 13.306-2.281-4.397-10.04-14.827-18.248-14.827-18.248zm7.223 4.563c2.273 1.524 4.44 2.913 6.083 4.56 2.224 2.232 3.36 5.24 3.04 8.366 2.98-1.498 4.95-3.995 6.084-6.084-1.981-1.824-5.421-3.628-9.124-4.941a90.23 90.23 0 0 0-6.083-1.901z" fill-rule="evenodd" opacity=".2"/><path d="M159.13 236.53c-2.472 10.087-9.586 22.5-14.065 30.414 7.81 1.881 16.473 2.427 23.189 3.04-.117-1.523-1.244-18.094-1.52-21.287-2.765-5.01-5.008-7.6-7.604-12.167zm9.505 12.926c3.664 7.548 3.667 15.017 1.52 20.529 3.023.018 7.956.357 13.306-2.281-4.397-10.04-14.827-18.248-14.827-18.248zm7.223 4.563c2.273 1.524 4.44 2.913 6.083 4.56 2.224 2.232 3.36 5.24 3.04 8.366 2.98-1.498 4.95-3.995 6.084-6.084-1.981-1.824-5.421-3.628-9.124-4.941a90.23 90.23 0 0 0-6.083-1.901z" fill="#fff" fill-rule="evenodd"/><path d="M168 238a22 22 0 0 0-22 22 22 22 0 0 0 .021.586A22 22 0 0 1 168 239a22 22 0 0 1 21.979 21.414A22 22 0 0 0 190 260a22 22 0 0 0-22-22z" fill="#fff" opacity=".2"/><path d="M464-212A240 240 0 0 0 224 28a240 240 0 0 0 48.293 144h383.34a240 240 0 0 0 48.371-144 240 240 0 0 0-240-240z" fill="#4c5263"/><path d="M464-212A240 240 0 0 0 224 28a240 240 0 0 0 .041 1.172A240 240 0 0 1 464-210 240 240 0 0 1 703.959 28.828 240 240 0 0 0 704 28a240 240 0 0 0-240-240Z" fill="#fff" opacity=".2"/><path d="M59.369 261.02c-1.29 5.263-5.001 11.739-7.338 15.868 4.109.981 8.147.93 12.349 1.336-.062-.795-.9-9.19-1.044-10.857-1.442-2.613-2.612-3.965-3.967-6.347zm4.959 6.744c1.5 3.408 1.303 6.515.918 10.336 1.577.01 3.714-.252 6.505-1.628-2.294-5.238-7.423-8.708-7.423-8.708zm3.768 2.38c1.187.795 2.317 1.52 3.174 2.38 1.16 1.164 1.44 1.921 1.274 3.552 1.555-.781 2.52-2.334 3.112-3.424-2.563-1.484-4.83-1.754-7.56-2.507z" fill-rule="evenodd" opacity=".2"/><circle cx="112" cy="269" r="15" enable-background="new" opacity=".2"/><circle cx="112" cy="268" r="15" enable-background="new" fill="#4c5263"/><path d="M126.65 271.08c-2.188 2.951-6.23 4.529-11.044 5.228-5.023.73-10.848.513-16.045.07.249.371.522.732.803 1.08 5.003.396 10.214 1.945 15.086 1.237 4.063-.59 8.036-3.174 10.555-5.4.275-.716.501-1.509.645-2.215z" color="#000" enable-background="accumulate" fill="#fff" fill-rule="evenodd" style="isolation:auto;mix-blend-mode:normal;text-decoration-color:#000;text-decoration-line:none;text-decoration-style:solid;text-indent:0;text-transform:none;white-space:normal"/><circle cx="112" cy="267.99" r="15" fill="none"/><path d="M115.75 277.31c-5.091.718-10.277.54-15.386.15 3.288 4.192 9.002 6.305 14.28 5.287 5.094-.876 9.56-4.606 11.358-9.446-3.025 2.146-6.599 3.448-10.252 4.009z" fill="#5294e2"/><path d="M74.741 274.26c-1.604 2.164-4.568 3.321-8.099 3.834-3.683.535-7.955.376-11.766.05.183.273.383.538.59.793 3.668.291 7.49 1.426 11.062.907 2.98-.433 5.893-2.327 7.74-3.96.202-.525.368-1.106.473-1.624z" color="#000" enable-background="accumulate" fill="#fff" fill-rule="evenodd" style="isolation:auto;mix-blend-mode:normal;text-decoration-color:#000;text-decoration-line:none;text-decoration-style:solid;text-indent:0;text-transform:none;white-space:normal"/><circle cx="64" cy="271.99" r="11" fill="none"/><path d="M66.748 278.83c-3.733.527-7.537.396-11.283.11 2.411 3.074 6.601 4.624 10.472 3.877 3.736-.642 7.01-3.378 8.329-6.927-2.218 1.574-4.84 2.529-7.518 2.94z" fill="#5294e2"/><path d="M59.369 260.02c-1.29 5.263-5.001 11.739-7.338 15.868 4.109.981 8.147.93 12.349 1.336-.062-.795-.9-9.19-1.044-10.857-1.442-2.613-2.612-3.965-3.967-6.347zm4.959 6.744c1.5 3.408 1.303 6.515.918 10.336 1.577.01 3.714-.252 6.505-1.628-2.294-5.238-7.423-8.708-7.423-8.708zm3.768 2.38c1.187.795 2.317 1.52 3.174 2.38 1.16 1.164 1.44 1.921 1.274 3.552 1.555-.781 2.52-2.334 3.112-3.424-2.563-1.484-4.83-1.754-7.56-2.507z" fill="#fff" fill-rule="evenodd"/><path d="M31.812 277.64c-1.167 1.574-3.322 2.415-5.89 2.788-2.679.39-5.785.274-8.557.037.132.199.278.39.428.577a18.274 18.274 0 0 0 8.046.66c2.167-.316 4.595-1.252 5.629-2.88.147-.382.267-.805.344-1.182z" color="#000" enable-background="accumulate" fill="#fff" fill-rule="evenodd" style="isolation:auto;mix-blend-mode:normal;text-decoration-color:#000;text-decoration-line:none;text-decoration-style:solid;text-indent:0;text-transform:none;white-space:normal"/><circle cx="24" cy="275.99" r="8" fill="none"/><path d="M17.793 281.05c1.754 2.236 4.801 3.363 7.616 2.82 2.717-.467 5.098-2.457 6.058-5.038-1.105 1.21-3.454 2.303-5.785 2.644-2.332.341-5.496.313-7.889-.426z" fill="#5294e2"/><path d="M20.892 267.99c-.86 3.508-3.334 7.826-4.892 10.579 2.739.654 5.265.477 8.066.748-.041-.53-.433-5.984-.53-7.095-.961-1.743-1.741-2.644-2.644-4.232zm3.306 4.496c1.274 2.625 1.275 4.914.529 6.831 1.051.006 2.767-.185 4.628-1.103-1.53-3.492-5.157-5.728-5.157-5.728zm2.512 1.499c.791.53 1.545 1.101 2.116 1.675.774.776 1.169 1.203 1.058 2.29 1.036-.52 1.722-.947 2.116-1.674-1.714-1.162-3.438-1.666-5.29-2.291z" fill="#fff" fill-rule="evenodd"/><path d="M698.35 77.305c-35.005 47.224-99.668 72.463-176.7 83.655-80.37 11.677-173.56 8.208-256.72 1.105 3.983 5.95 8.354 11.718 12.853 17.287 87.121 36.045 163.42 31.118 241.37 19.793 65.01-9.446 136.47-27.144 168.88-86.401 4.397-11.451 8.013-24.134 10.32-35.438z" color="#000" enable-background="accumulate" fill="#fff" fill-rule="evenodd" style="isolation:auto;mix-blend-mode:normal;text-decoration-color:#000;text-decoration-line:none;text-decoration-style:solid;text-indent:0;text-transform:none;white-space:normal"/><circle cx="464" cy="27.766" r="240" fill="none"/><path d="M523.96 176.96c-81.458 11.494-164.43 8.645-246.18 2.392 52.604 67.086 144.03 100.89 228.48 84.598 81.505-14.009 152.95-73.697 181.72-151.14-48.4 34.332-105.58 55.17-164.03 64.146z" fill="#5294e2"/><path d="M373.25-194.44C347.459-89.19 273.22 40.34 226.48 122.93c81.544 18.16 158.32 24.63 241.97 31.728-1.223-15.903-12.984-188.82-15.864-222.14-28.853-52.275-52.255-79.305-79.342-126.96zm99.177 134.88c38.236 78.765 38.266 156.69 15.864 214.22 31.544.19 83.024 3.723 138.85-23.807-45.883-104.77-154.71-190.41-154.71-190.41zm75.37 47.614c23.728 15.9 46.342 30.397 63.478 47.592 23.207 23.286 35.059 54.672 31.728 87.285 31.094-15.624 51.657-41.682 63.478-63.478-20.674-19.037-56.568-37.864-95.206-51.563C589.97.336 567.533-6.522 547.797-11.945z" fill-rule="evenodd" filter="url(#b)" opacity=".2"/><path d="M373.25-212.44C347.459-107.19 273.22 22.34 226.48 104.93c81.544 18.16 158.32 24.63 241.97 31.728-1.223-15.903-12.984-188.82-15.864-222.14-28.853-52.275-52.255-79.305-79.342-126.96zm99.177 134.88c38.236 78.765 38.266 156.69 15.864 214.22 31.544.19 83.024 3.723 138.85-23.807-45.883-104.77-154.71-190.41-154.71-190.41zm75.37 47.614c23.728 15.9 46.342 30.397 63.478 47.592 23.207 23.286 35.059 54.672 31.728 87.285 31.094-15.624 51.657-41.682 63.478-63.478-20.674-19.037-56.568-37.864-95.206-51.563-21.305-7.554-43.742-14.412-63.478-19.835z" fill="#fff" fill-rule="evenodd"/><path d="M106.58 252.97c-1.612 6.578-6.252 14.674-9.173 19.835 5.136 1.22 9.87 1.485 15.123 1.983-.076-.994-.812-11.801-.992-13.884-1.803-3.267-3.265-4.957-4.958-7.935zm6.199 8.43c2.39 4.923 2.391 9.793.991 13.389 1.972.012 5.19.232 8.678-1.488-2.868-6.548-9.67-11.901-9.67-11.901zm4.71 2.976c1.483.993 2.897 1.9 3.968 2.974 1.45 1.456 2.19 3.417 1.983 5.456 1.943-.977 3.228-2.606 3.967-3.968-1.292-1.19-3.535-2.366-5.95-3.223a58.857 58.857 0 0 0-3.968-1.24z" fill-rule="evenodd" opacity=".2"/><path d="M112 253a15 15 0 0 0-15 15 15 15 0 0 0 .02.544A15 15 0 0 1 112 253.938a15 15 0 0 1 14.98 14.456A15 15 0 0 0 127 268a15 15 0 0 0-15-15z" enable-background="new" fill="#fff" opacity=".2"/><path d="M106.58 251.97c-1.612 6.578-6.252 14.674-9.173 19.835 5.136 1.22 9.87 1.485 15.123 1.983-.076-.994-.812-11.801-.992-13.884-1.803-3.267-3.265-4.957-4.958-7.935zm6.199 8.43c2.39 4.923 2.391 9.793.991 13.389 1.972.012 5.19.232 8.678-1.488-2.868-6.548-9.67-11.901-9.67-11.901zm4.71 2.976c1.483.993 2.897 1.9 3.968 2.974 1.45 1.456 2.19 3.417 1.983 5.456 1.943-.977 3.228-2.606 3.967-3.968-1.292-1.19-3.535-2.366-5.95-3.223a58.857 58.857 0 0 0-3.968-1.24z" fill="#fff" fill-rule="evenodd"/></g></svg>