<svg version="1.0" viewBox="0 0 16 16" xmlns="http://www.w3.org/2000/svg"><g color="#000"><path d="M0 2v4h2v4.047A4.944 4.944 0 0 0 6.953 15H15.5V6.953A4.944 4.944 0 0 0 10.547 2H2z" fill="#fff"/><path d="M1 3v2h1c.524 0 1 .476 1 1v4.047A3.925 3.925 0 0 0 6.953 14H14.5V6.953A3.925 3.925 0 0 0 10.547 3H2z" fill="#4caf50"/><path d="M8 13h2s3 0 3-3V9h-1v1c0 2-2 2-2 2H8z" opacity=".2"/><path d="M4 5v5s0 3 3 3h1v-1H7c-2 0-2-2-2-2V5zm4 0c-1.108 0-2 .892-2 2v3h1V7c0-.554.446-1 1-1s1 .446 1 1v3h1V7c0-.554.446-1 1-1s1 .446 1 1v3h1V7a1.996 1.996 0 0 0-3.5-1.314A1.987 1.987 0 0 0 8 5z" fill="#fff"/></g></svg>