<svg enable-background="new" version="1.0" viewBox="0 0 16 16" xmlns="http://www.w3.org/2000/svg"><defs><filter id="b" x="-.024" y="-.024" width="1.048" height="1.048" color-interpolation-filters="sRGB"><feGaussianBlur stdDeviation="2.72"/></filter><filter id="a" x="-.023" y="-.025" width="1.045" height="1.051" color-interpolation-filters="sRGB"><feGaussianBlur stdDeviation="4.24"/></filter></defs><path d="M240-176v96h32c8.836 0 15.999 7.164 16 16V96s0 128 128 128h272V-33.5c0-79.154-63.346-142.5-142.5-142.5H272z" color="#000" enable-background="accumulate" filter="url(#a)" opacity=".1" transform="translate(-16 -268)"/><path d="M240-176v96h32c8.836 0 15.999 7.164 16 16V96s0 128 128 128h272V-33.5c0-79.154-63.346-142.5-142.5-142.5H272z" color="#000" enable-background="accumulate" filter="url(#a)" opacity=".2" transform="translate(-16 -268)"/><path d="M53 264v7h3v5c0 4.566 3.635 7 8 7h11v-11.14c0-4.365-3.593-7.86-7.93-7.86H57z" color="#000" enable-background="accumulate" opacity=".2" style="isolation:auto;mix-blend-mode:normal;text-decoration-color:#000;text-decoration-line:none;text-decoration-style:solid;text-indent:0;text-transform:none;white-space:normal" transform="translate(-16 -268)"/><path d="M53 263v7h3v5c0 4.566 3.635 7 8 7h11v-11.14c0-4.365-3.593-7.86-7.93-7.86H57z" color="#000" enable-background="accumulate" fill="#fff" style="isolation:auto;mix-blend-mode:normal;text-decoration-color:#000;text-decoration-line:none;text-decoration-style:solid;text-indent:0;text-transform:none;white-space:normal" transform="translate(-16 -268)"/><path d="M352-112V96c0 35.456 28.544 64 64 64h48.25v-32H416c-17.728 0-32-14.272-32-32v-208zm136 32c-30.928 0-56 25.072-56 56V80h32V-24c0-13.255 10.745-24 24-24s24 10.745 24 24V80h32V-24c0-13.255 10.745-24 24-24s24 10.745 24 24V80h32V-24c0-30.928-25.072-56-56-56-15.713 0-29.83 6.577-40 17-10.17-10.423-24.287-17-40-17z" color="#000" enable-background="accumulate" filter="url(#b)" opacity=".2" transform="translate(-16 -268)"/><path d="M0 2v4h2v4.047A4.944 4.944 0 0 0 6.953 15H15.5V6.953A4.944 4.944 0 0 0 10.547 2H2z" color="#000" enable-background="accumulate" fill="#fff"/><path d="M1 3v2h1c.524 0 1 .476 1 1v4.047A3.925 3.925 0 0 0 6.953 14H14.5V6.953A3.925 3.925 0 0 0 10.547 3H2z" color="#000" enable-background="accumulate" fill="#4caf50"/><path d="M8 13h2s3 0 3-3V9h-1v1c0 2-2 2-2 2H8z" color="#000" enable-background="accumulate" opacity=".2"/><path d="M4 5v5s0 3 3 3h1v-1H7c-2 0-2-2-2-2V5zm4 0c-1.108 0-2 .892-2 2v3h1V7c0-.554.446-1 1-1s1 .446 1 1v3h1V7c0-.554.446-1 1-1s1 .446 1 1v3h1V7a1.996 1.996 0 0 0-3.5-1.314A1.987 1.987 0 0 0 8 5z" color="#000" enable-background="accumulate" fill="#fff"/></svg>