<svg enable-background="new" version="1.0" viewBox="0 0 16 16" xmlns="http://www.w3.org/2000/svg"><defs><filter id="a" x="-.03" y="-.02" width="1.06" height="1.04" color-interpolation-filters="sRGB"><feGaussianBlur stdDeviation="4"/></filter></defs><path d="M452.57-208a17.143 17.143 0 0 0-17.145 17.143 17.143 17.143 0 0 0 17.145 17.143 17.143 17.143 0 0 0 17.143-17.143A17.143 17.143 0 0 0 452.57-208zm45.713 28.572a20 20 0 0 0-20 20 20 20 0 0 0 20 20 20 20 0 0 0 20-20 20 20 0 0 0-20-20zm-45.713 28.57a22.857 22.857 0 0 0-22.857 22.857 22.857 22.857 0 0 0 22.857 22.857 22.857 22.857 0 0 0 22.855-22.857 22.857 22.857 0 0 0-22.855-22.857zm57.096 51.428c-14.18.012-25.714 11.554-25.691 25.75.01 14.159 11.544 25.68 25.715 25.68h.023c14.178-.014 25.69-11.554 25.69-25.75-.015-14.159-11.548-25.68-25.737-25.68zm-74.264 17.146c-15.752.017-28.57 12.834-28.547 28.613.017 15.727 12.832 28.527 28.57 28.527h.023l.002.002c15.752-.017 28.547-12.838 28.547-28.617-.019-15.727-12.834-28.525-28.596-28.525zm-70.199 68.48a160 160 0 0 0-61.205 125.8 160 160 0 0 0 160 160 160 160 0 0 0 160-160 160 160 0 0 0-61.205-125.62 160 160 0 0 1-98.795 34.197 160 160 0 0 1-98.795-34.375z" filter="url(#a)" opacity=".1" transform="translate(-16 -268)"/><path d="M452.57-208a17.143 17.143 0 0 0-17.145 17.143 17.143 17.143 0 0 0 17.145 17.143 17.143 17.143 0 0 0 17.143-17.143A17.143 17.143 0 0 0 452.57-208zm45.713 28.572a20 20 0 0 0-20 20 20 20 0 0 0 20 20 20 20 0 0 0 20-20 20 20 0 0 0-20-20zm-45.713 28.57a22.857 22.857 0 0 0-22.857 22.857 22.857 22.857 0 0 0 22.857 22.857 22.857 22.857 0 0 0 22.855-22.857 22.857 22.857 0 0 0-22.855-22.857zm57.096 51.428c-14.18.012-25.714 11.554-25.691 25.75.01 14.159 11.544 25.68 25.715 25.68h.023c14.178-.014 25.69-11.554 25.69-25.75-.015-14.159-11.548-25.68-25.737-25.68zm-74.264 17.146c-15.752.017-28.57 12.834-28.547 28.613.017 15.727 12.832 28.527 28.57 28.527h.023l.002.002c15.752-.017 28.547-12.838 28.547-28.617-.019-15.727-12.834-28.525-28.596-28.525zm-70.199 68.48a160 160 0 0 0-61.205 125.8 160 160 0 0 0 160 160 160 160 0 0 0 160-160 160 160 0 0 0-61.205-125.62 160 160 0 0 1-98.795 34.197 160 160 0 0 1-98.795-34.375z" filter="url(#a)" opacity=".2" transform="translate(-16 -268)"/><path d="M7.643 1a.536.536 0 0 0-.536.536.536.536 0 0 0 .536.535.536.536 0 0 0 .536-.535A.536.536 0 0 0 7.643 1zm1.428.893a.625.625 0 0 0-.625.625.625.625 0 0 0 .625.625.625.625 0 0 0 .625-.625.625.625 0 0 0-.625-.625zm-1.428.893a.714.714 0 0 0-.714.714.714.714 0 0 0 .714.714.714.714 0 0 0 .714-.714.714.714 0 0 0-.714-.714zm1.784 1.607A.804.804 0 0 0 9.428 6h.001a.804.804 0 0 0-.002-1.607zm-2.32.536a.893.893 0 0 0 0 1.785h.001a.893.893 0 0 0-.001-1.785z" fill="#03a9f4"/><path d="M4.913 7.07A5 5 0 0 0 3 11.001a5 5 0 0 0 5 5 5 5 0 0 0 5-5 5 5 0 0 0-1.912-3.925A5 5 0 0 1 8 8.144 5 5 0 0 1 4.913 7.07z" fill="#0d47a1"/></svg>