<svg enable-background="new" version="1.0" viewBox="0 0 16 16" xmlns="http://www.w3.org/2000/svg"><defs><filter id="a" x="-.024" y="-.024" width="1.048" height="1.048" color-interpolation-filters="sRGB"><feGaussianBlur stdDeviation="4.8"/></filter></defs><g transform="translate(-16 -268)"><circle cx="464" cy="32" r="240" filter="url(#a)" opacity=".1"/><circle cx="464" cy="32" r="240" filter="url(#a)" opacity=".2"/><circle cx="64" cy="273" r="11" opacity=".2"/><circle cx="168" cy="261" r="22" opacity=".2"/><circle cx="24" cy="276" r="8" fill="#0087ed"/><circle cx="64" cy="272" r="11" fill="#0087ed"/><path d="M64 261a11 11 0 0 0-11 11 11 11 0 0 0 .021.586A11 11 0 0 1 64 262a11 11 0 0 1 10.979 10.414A11 11 0 0 0 75 272a11 11 0 0 0-11-11Z" fill="#fff" opacity=".2"/><circle cx="168" cy="260" r="22" fill="#0087ed"/><path d="M168 238a22 22 0 0 0-22 22 22 22 0 0 0 .021.586A22 22 0 0 1 168 239a22 22 0 0 1 21.979 21.414A22 22 0 0 0 190 260a22 22 0 0 0-22-22z" fill="#fff" opacity=".2"/><circle cx="464" cy="28" r="240" fill="#0087ed"/><path d="M464-212A240 240 0 0 0 224 28a240 240 0 0 0 .041 1.172A240 240 0 0 1 464-210 240 240 0 0 1 703.959 28.828 240 240 0 0 0 704 28a240 240 0 0 0-240-240Z" fill="#fff" opacity=".2"/><circle cx="112" cy="269" r="15" enable-background="new" opacity=".2"/><circle cx="112" cy="268" r="15" enable-background="new" fill="#0087ed"/><path d="M112 253a15 15 0 0 0-15 15 15 15 0 0 0 .02.544A15 15 0 0 1 112 253.938a15 15 0 0 1 14.98 14.456A15 15 0 0 0 127 268a15 15 0 0 0-15-15z" enable-background="new" fill="#fff" opacity=".2"/></g><path d="M7.546 2.84c-.235.14-.534.34-.897.597-.357.252-.738.58-1.143.985-.351.351-.597.697-.738 1.037a2.077 2.077 0 0 0-.14 1.02 2.5 2.5 0 0 0 .342.975c.194.322.446.639.756.95l2.567 2.566.817-.818-2.39-2.39c-.557-.557-.868-1.043-.932-1.46-.065-.415.111-.831.527-1.247.088-.088.182-.176.281-.264s.194-.17.282-.246c.093-.07.175-.135.246-.194.082-.058.143-.096.184-.114l5.258 5.258.818-.817zM7.29 5.437l-.817.817 3.858 3.859a1.138 1.138 0 0 1-.114.184c-.059.07-.123.153-.194.246-.076.088-.158.182-.246.281s-.175.194-.263.282c-.416.416-.832.592-1.248.527-.416-.064-.903-.375-1.46-.932l-2.39-2.39-.817.817 2.566 2.567c.31.31.627.562.95.755a2.5 2.5 0 0 0 .975.343c.334.041.674-.006 1.02-.14.34-.141.685-.387 1.036-.739.405-.404.733-.785.985-1.142.258-.364.457-.662.597-.897z" fill="#fff"/></svg>