<svg enable-background="new" version="1.0" viewBox="0 0 16 16" xmlns="http://www.w3.org/2000/svg"><defs><filter id="a" x="-.024" y="-.024" width="1.048" height="1.048" color-interpolation-filters="sRGB"><feGaussianBlur stdDeviation="4.48"/></filter></defs><g transform="translate(-16 -268)"><rect transform="matrix(0 -1 -1 0 0 0)" x="-256" y="-688" width="448" height="448" rx="36" ry="36" filter="url(#a)" opacity=".1"/><rect transform="matrix(0 -1 -1 0 0 0)" x="-256" y="-688" width="448" height="448" rx="36" ry="36" filter="url(#a)" opacity=".2"/><rect transform="matrix(0 -1 -1 0 0 0)" x="-283" y="-74" width="20" height="20" rx="2" ry="2" opacity=".2"/><rect transform="matrix(0 -1 -1 0 0 0)" x="-281" y="-188" width="40" height="40" rx="3" ry="3" opacity=".2"/><rect transform="matrix(0 -1 -1 0 0 0)" x="-283" y="-126" width="28" height="28" rx="3" ry="3" opacity=".2"/><rect transform="matrix(0 -1 -1 0 0 0)" x="-282" y="-74" width="20" height="20" rx="2" ry="2" fill="#f2f2f2"/><rect transform="matrix(0 -1 -1 0 0 0)" x="-280" y="-188" width="40" height="40" rx="3" ry="3" fill="#f2f2f2"/><rect transform="matrix(0 -1 -1 0 0 0)" x="-282" y="-126" width="28" height="28" rx="3" ry="3" fill="#f2f2f2"/><rect transform="matrix(0 -1 -1 0 0 0)" x="-284" y="-32" width="16" height="16" rx="2" ry="2" enable-background="new" fill="#f2f2f2"/><rect transform="matrix(0 -1 -1 0 0 0)" x="-252" y="-688" width="448" height="448" rx="36" ry="36" fill="#f2f2f2"/><path d="M276-196c-19.944 0-36 16.056-36 36v2c0-19.944 16.056-36 36-36h376c19.944 0 36 16.056 36 36v-2c0-19.944-16.056-36-36-36z" fill="#fff" opacity=".2"/><path d="M56 262c-1.108 0-2 .892-2 2v1c0-1.108.892-2 2-2h16c1.108 0 2 .892 2 2v-1c0-1.108-.892-2-2-2z" fill="#fff" opacity=".2"/><path d="M151 240c-1.662 0-3 1.338-3 3v1c0-1.662 1.338-3 3-3h34c1.662 0 3 1.338 3 3v-1c0-1.662-1.338-3-3-3z" fill="#fff" opacity=".2"/><path d="M101 254c-1.662 0-3 1.338-3 3v1c0-1.662 1.338-3 3-3h22c1.662 0 3 1.338 3 3v-1c0-1.662-1.338-3-3-3z" fill="#fff" opacity=".2"/></g><path d="M8.025 2.15c-1.707 0-4.231.82-4.231 2.863 0 1.958 2.425 2.636 3.986 2.636 1.626 0 3.14.401 3.14 1.664 0 1.23-1.434 1.802-3.108 1.802-1.902 0-2.826-1.267-2.826-1.915 0-.227-.353-.47-.76-.47-.406 0-.646.211-.646.47v2.053c.016.47.231.942.791.942.603 0 .779-.083.779-.685.929.475 1.891.685 2.925.685 2.585 0 4.355-1.267 4.345-2.87-.017-2.59-3.125-2.894-4.621-2.894-1.544-.016-2.41-.75-2.41-1.43 0-.73.749-1.771 2.586-1.771 2.066 0 2.567 1.11 2.637 1.481.08.293.37.446.728.446.374 0 .628-.19.628-.465V2.778c0-.243-.376-.565-.779-.565-.341 0-.693.128-.71.452-.34-.26-1.477-.515-2.454-.515z"/><path d="M1 10v4h15v-1H2v-3z"/></svg>