<svg enable-background="new" version="1.0" viewBox="0 0 16 16" xmlns="http://www.w3.org/2000/svg"><defs><filter id="a" x="-.027" y="-.022" width="1.053" height="1.044" color-interpolation-filters="sRGB"><feGaussianBlur stdDeviation="4.08"/></filter></defs><g color="#000"><path d="M272-16h112v-64h128v-112H272zm256-176v448h112v-448zM400-64v320h112V-64zM272 0v256h112V0z" enable-background="new" filter="url(#a)" opacity=".1" transform="translate(-16 -268)"/><path d="M272-16h112v-64h128v-112H272zm256-176v448h112v-448zM400-64v320h112V-64zM272 0v256h112V0z" enable-background="new" filter="url(#a)" opacity=".2" transform="translate(-16 -268)"/><path d="M2 8h3V4h4V1H2zm8-7v14h3V1zM6 5v10h3V5zM2 9v6h3V9z" enable-background="new" fill="#00e676"/></g></svg>