<svg version="1.0" viewBox="0 0 16 16" xmlns="http://www.w3.org/2000/svg"><path d="M8 0a8.001 8.001 0 0 0-8 7.996v6.762C0 15.447.554 16 1.242 16h6.762A8 8 0 0 0 16 8a8 8 0 0 0-8-8z" fill="#294172"/><path d="M10.368 1.49a3.836 3.836 0 0 0-3.836 3.836V7.36H4.508A3.829 3.829 0 0 0 .67 11.187a3.836 3.836 0 1 0 7.672 0V9.145h2.025c2.119 0 3.836-1.7 3.836-3.819a3.836 3.836 0 0 0-3.836-3.836zm-3.836 9.7a2.025 2.025 0 0 1-2.025 2.022 2.032 2.032 0 0 1-2.033-2.025c0-1.118.915-2.042 2.033-2.042h1.739c.158 0 .286.128.286.286v1.76zm3.836-3.83H8.629a.286.286 0 0 1-.286-.287v-1.75A2.025 2.025 0 0 1 10.368 3.3c1.118 0 2.033.907 2.033 2.025a2.04 2.04 0 0 1-2.033 2.033z" fill="#5484c6"/><path d="M6.532 7.36V5.327a3.836 3.836 0 0 1 3.836-3.836c.321 0 .55.036.847.114.434.113.788.469.789.882 0 .5-.363.864-.906.864-.258 0-.352-.05-.73-.05a2.025 2.025 0 0 0-2.025 2.022v1.75c0 .159.128.287.286.287h1.33a.892.892 0 1 1 0 1.786H8.343v2.041a3.836 3.836 0 0 1-3.836 3.836c-.321 0-.55-.036-.847-.114-.434-.114-.788-.47-.788-.883 0-.5.362-.864.905-.864.258 0 .352.05.73.05a2.025 2.025 0 0 0 2.025-2.021V9.43a.286.286 0 0 0-.286-.285h-1.33a.891.891 0 0 1-.896-.893c0-.5.405-.893.905-.893h1.607z" fill="#fff"/></svg>