<svg enable-background="new" version="1.0" viewBox="0 0 16 16" xmlns="http://www.w3.org/2000/svg"><defs><filter id="a" x="-.024" y="-.024" width="1.047" height="1.049" color-interpolation-filters="sRGB"><feGaussianBlur stdDeviation="4.546"/></filter></defs><path d="M464-192c-114.87 0-218.26 218.26-229.74 310.15C219.941 232.7 395.08 256 464 256c68.923 0 244.06-23.293 229.74-137.85C682.253 26.253 578.87-192 464-192z" fill-rule="evenodd" filter="url(#a)" opacity=".1" transform="translate(-16 -268)"/><path d="M464-192c-114.87 0-218.26 218.26-229.74 310.15C219.941 232.7 395.08 256 464 256c68.923 0 244.06-23.293 229.74-137.85C682.253 26.253 578.87-192 464-192z" fill-rule="evenodd" filter="url(#a)" opacity=".2" transform="translate(-16 -268)"/><path d="M8 0C4.014 0 .427 7.573.029 10.761c-.497 3.975 5.58 4.783 7.971 4.783s8.468-.808 7.971-4.783C15.573 7.573 11.986 0 8 0z" fill="#7986cb" fill-rule="evenodd"/><path d="M9.126 12.57c1.035-2.586 1.237-5.93.498-8.241-.194-.607-.283-.467-.628 1-.521 2.213-1.727 4.874-2.85 6.292-.31.392-.54.783-.512.87.099.296 1.33.648 2.295.656l.963.008zm3.598-4.132c0-1.297-.5-2.515-1.37-3.345-.39-.37-.551-.463-.476-.271.504 1.297.97 3.123 1.121 4.392l.18 1.517.273-.624c.183-.42.272-.965.272-1.669zm-8.35.566C5.452 8.2 6.561 7.09 7.251 6.126 8.253 4.726 8.745 3.59 8.35 3.59c-.076 0-.567.32-1.09.712-.524.391-1.536 1.013-2.25 1.381-1.28.661-1.298.68-1.517 1.416-.316 1.064-.28 2.433.063 2.433.06 0 .427-.238.817-.528z" fill="#fff"/></svg>