<svg version="1.0" viewBox="0 0 16 16" xmlns="http://www.w3.org/2000/svg"><g transform="translate(-16 -268)"><circle cx="24" cy="276" r="8" fill="#87a556"/><path d="m25.17 270.89 2.72 1.607-2.723 1.607.003-3.214zm-1.17.826c.2 0 .395.016.587.043v.595a3.691 3.691 0 0 0-4.016 2.26l-.505-.297a4.287 4.287 0 0 1 3.934-2.6zm0 1.456c.2 0 .395.023.584.063v.605a2.256 2.256 0 0 0-.584-.076 2.224 2.224 0 0 0-2.142 1.61l-.522-.31A2.832 2.832 0 0 1 24 273.173zm3.434.27c.532.714.847 1.6.847 2.555 0 .971-.327 1.87-.875 2.589l-.507-.301a3.675 3.675 0 0 0 .793-2.288 3.68 3.68 0 0 0-.766-2.254zm-1.267.75a2.806 2.806 0 0 1-.028 3.646l-.52-.306a2.23 2.23 0 0 0 .034-3.039zm-7.122.198 2.72 1.607-2.723 1.607.003-3.214zm2.813 2.23A2.222 2.222 0 0 0 24 278.227a2.3 2.3 0 0 0 .584-.076v.608c-.189.04-.384.064-.584.064a2.831 2.831 0 0 1-2.664-1.896l.522-.307zm-1.288.76a3.69 3.69 0 0 0 4.01 2.263v.592a4.102 4.102 0 0 1-.58.043 4.287 4.287 0 0 1-3.934-2.6l.504-.298zm4.597.562 2.72 1.604-2.723 1.607.003-3.211z" fill="#fff"/></g></svg>