<svg version="1.0" viewBox="0 0 16 16" xmlns="http://www.w3.org/2000/svg"><g transform="translate(-16 -268)"><rect transform="matrix(0 -1 -1 0 0 0)" x="-284" y="-32" width="16" height="16" rx="2" ry="2" fill="#f2f2f2"/><path d="M24.025 270.15c-1.707 0-4.231.82-4.231 2.863 0 1.959 2.425 2.636 3.986 2.636 1.626 0 3.14.401 3.14 1.664 0 1.23-1.434 1.802-3.108 1.802-1.902 0-2.826-1.267-2.826-1.915 0-.227-.353-.47-.76-.47-.406 0-.646.211-.646.47v2.053c.016.47.231.942.791.942.603 0 .779-.083.779-.685.929.475 1.891.685 2.925.685 2.585 0 4.355-1.267 4.345-2.87-.017-2.59-3.125-2.894-4.621-2.894-1.544-.016-2.41-.75-2.41-1.43 0-.73.749-1.771 2.586-1.771 2.066 0 2.567 1.11 2.637 1.481.08.293.37.446.728.446.374 0 .628-.19.628-.465v-1.914c0-.243-.376-.565-.779-.565-.341 0-.693.128-.71.452-.34-.26-1.476-.515-2.454-.515z"/><path d="M17 278v4h15v-1H18v-3z"/></g></svg>