<svg enable-background="new" version="1.0" viewBox="0 0 16 16" xmlns="http://www.w3.org/2000/svg"><defs><filter id="a" x="-.024" y="-.024" width="1.048" height="1.048" color-interpolation-filters="sRGB"><feGaussianBlur stdDeviation="4.8"/></filter></defs><g transform="translate(-16 -268)"><circle cx="464" cy="30" r="240" opacity=".2"/><circle cx="464" cy="32" r="240" filter="url(#a)" opacity=".1"/><circle cx="464" cy="32" r="240" filter="url(#a)" opacity=".2"/><circle cx="64" cy="273" r="11" opacity=".2"/><circle cx="168" cy="261" r="22" opacity=".2"/><circle cx="24" cy="276" r="8" fill="#0068c8"/><circle cx="64" cy="272" r="11" fill="#0068c8"/><path d="M64 261a11 11 0 0 0-11 11 11 11 0 0 0 .021.586A11 11 0 0 1 64 262a11 11 0 0 1 10.979 10.414A11 11 0 0 0 75 272a11 11 0 0 0-11-11Z" fill="#fff" opacity=".2"/><circle cx="168" cy="260" r="22" fill="#0068c8"/><path d="M168 238a22 22 0 0 0-22 22 22 22 0 0 0 .021.586A22 22 0 0 1 168 239a22 22 0 0 1 21.979 21.414A22 22 0 0 0 190 260a22 22 0 0 0-22-22z" fill="#fff" opacity=".2"/><circle cx="464" cy="28" r="240" fill="#0068c8"/><path d="M25.799 270.65c-.223-.008-1.445.353-1.803.807-1.079.078-5.43 3.045-7.986 4.85.009.19.024.379.047.568 1.162-.448 2.515-.918 3.062-.914.108 0 .187.019.223.06.21.248-.685 1.448-1.61 2.807-.239.352-.48.713-.712 1.062.073.137.15.272.232.405 1.27-1.591 2.868-3.584 3.31-3.65a.105.105 0 0 1 .063.007c.079.096-1.38 2.422-2.685 4.559.146.17.3.336.46.494.634-.872 1.321-1.83 1.987-2.748 1.388-1.918 2.617-3.71 3.217-3.727v.002a.253.253 0 0 1 .054.002c1.845.011 3.649 4.638 4.598 7.54.135-.088.267-.18.397-.276-.456-3.244-1.526-8.587-3.75-10.074.238-.16.26-.975.26-.975zm-9.758 4.543zm.053 1.977c.014.102.03.204.049.306-.02-.101-.034-.204-.05-.306zm.158.796c.024.1.05.198.078.295-.028-.097-.053-.196-.078-.295zm.238.776zm.323.76a8.094 8.094 0 0 0 0-.001zm.47.843zm1.407 1.63c.068.063.138.126.209.187-.073-.06-.14-.125-.21-.188zm.625.503c.065.05.132.099.199.147-.069-.047-.133-.098-.2-.147z" fill="#fff"/><path d="M464-212A240 240 0 0 0 224 28a240 240 0 0 0 .041 1.172A240 240 0 0 1 464-210 240 240 0 0 1 703.959 28.828 240 240 0 0 0 704 28a240 240 0 0 0-240-240Z" fill="#fff" opacity=".2"/><path d="M63.885 261a11 11 0 0 0-.822.043c.271-.023.545-.04.822-.043zm-1.438.117a11 11 0 0 0-.45.069c.148-.028.3-.047.45-.069zm-1.115.219a11 11 0 0 0-.398.102c.131-.038.265-.069.398-.102zm-1.088.332a11 11 0 0 0-.32.117c.106-.042.213-.078.32-.117zm-1.029.434a11 11 0 0 0-.28.134c.092-.047.187-.09.28-.134zm-.924.503a11 11 0 0 0-.316.194c.103-.068.21-.13.316-.194zm-.842.569a11 11 0 0 0-.357.267c.116-.093.238-.178.357-.267zm13.598.379c.104.087.2.183.301.273a11 11 0 0 0-.3-.273zm-14.436.31a11 11 0 0 0-.326.297c.105-.103.218-.198.326-.297zm15.225.418c.102.103.194.214.291.32a11 11 0 0 0-.29-.32zm-15.973.33a11 11 0 0 0-.314.348c.1-.12.21-.232.314-.348zm10.611.026c-.306-.011-1.986.484-2.478 1.107-1.484.108-7.468 4.188-10.982 6.668a11 11 0 0 0 .064.783c1.599-.616 3.457-1.26 4.21-1.256.148.001.257.025.306.082.29.341-.942 1.993-2.213 3.862-.33.484-.662.978-.98 1.459a11 11 0 0 0 .32.556c1.747-2.187 3.944-4.927 4.553-5.02a.144.144 0 0 1 .084.01c.108.133-1.898 3.33-3.692 6.268a11 11 0 0 0 .635.682c.872-1.198 1.817-2.518 2.732-3.781 1.91-2.636 3.598-5.1 4.422-5.121a.389.389 0 0 1 .077.004c2.536.015 5.015 6.376 6.32 10.365a11 11 0 0 0 .545-.377c-.627-4.46-2.095-11.807-5.155-13.852.329-.219.356-1.342.356-1.342zm6.086.457c.083.102.156.21.235.314a11 11 0 0 0-.235-.314zm-17.473.472a11 11 0 0 0-.175.237c.055-.082.118-.157.175-.237zm18.12.418c.061.095.116.195.175.291a11 11 0 0 0-.176-.29zm.548.94c.052.099.096.202.145.303a11 11 0 0 0-.145-.303zm.455.994c.044.11.081.223.121.334a11 11 0 0 0-.12-.334zm.346 1.008c.04.134.071.271.105.408a11 11 0 0 0-.105-.408zm.252 1.066c.028.15.049.304.07.457a11 11 0 0 0-.07-.457zm.144 1.06c.027.312.047.626.047.944a11 11 0 0 0-.047-.943zm.047.954c0 .417-.03.827-.076 1.232a11 11 0 0 0 .076-1.232zm-21.875 1.574a11 11 0 0 0 .077.465 11.009 11.009 0 0 1-.077-.465zm21.732.096c-.038.25-.081.499-.136.744a11 11 0 0 0 .136-.744zm-21.514 1.012a11 11 0 0 0 .11.41 10.94 10.94 0 0 1-.11-.41zm21.232.29c-.055.196-.116.39-.181.58a11 11 0 0 0 .181-.58zm-20.895.805a11 11 0 0 0 .123.324 10.915 10.915 0 0 1-.123-.324zm20.506.344c-.086.213-.186.419-.285.625a11 11 0 0 0 .285-.625zm-20.076.668a11 11 0 0 0 .155.31c-.054-.102-.104-.206-.155-.31zm19.584.39c-.16.3-.337.588-.523.87a11 11 0 0 0 .523-.87zm-.7 1.133c-.208.294-.427.579-.661.85a11 11 0 0 0 .66-.85zm-17.667.438a11 11 0 0 0 .13.162 10.773 10.773 0 0 1-.13-.162zm16.793.64c-.2.22-.404.433-.62.635a11 11 0 0 0 .62-.635zm-15.42.817a11 11 0 0 0 .278.246c-.096-.08-.185-.164-.278-.246zm14.494.086c-.207.18-.42.353-.64.517a11 11 0 0 0 .64-.517zm-13.543.672a11 11 0 0 0 .16.117c-.054-.037-.106-.08-.16-.117zm.94.597a11 11 0 0 0 .156.092c-.053-.029-.104-.062-.156-.092zm8.37 1.022c-.02.006-.041.01-.062.015a11 11 0 0 0 .063-.015zm-1.03.232-.108.02a11 11 0 0 0 .108-.02z" fill="#fff"/><circle cx="112" cy="269" r="15" enable-background="new" opacity=".2"/><path d="M166.52 238.05a22 22 0 0 0-.152.012l.152-.012zm-10.377 3.418a22 22 0 0 0-.06.037l.06-.037zm-1.754 1.248a22 22 0 0 0-.121.098l.121-.098zm-1.63 1.424a22 22 0 0 0-.143.135l.142-.135zm30.98.49.095.102a22 22 0 0 0-.096-.102zm-10.792.648c-.612-.021-3.974.969-4.959 2.215-2.967.215-14.93 8.377-21.96 13.338a22 22 0 0 0 .126 1.565c3.197-1.232 6.915-2.523 8.42-2.512.297.002.512.052.611.166.579.682-1.883 3.982-4.425 7.719a288.92 288.92 0 0 0-1.96 2.922 22 22 0 0 0 .64 1.111c3.494-4.376 7.888-9.852 9.105-10.037v-.002c.06-.01.126 0 .17.022.216.264-3.795 6.657-7.383 12.533a22 22 0 0 0 1.266 1.36c1.743-2.396 3.634-5.03 5.464-7.558 3.82-5.273 7.2-10.202 8.848-10.246v.002a.758.758 0 0 1 .15.008c5.074.03 10.03 12.752 12.641 20.73a22 22 0 0 0 1.092-.754c-1.253-8.921-4.193-23.616-10.312-27.705.657-.437.711-2.681.711-2.681zm-21.727.495a22 22 0 0 0-.074.086c.024-.03.05-.058.074-.086zm33.977.51c.024.029.045.06.069.09a22 22 0 0 0-.069-.09zm-35.322 1.247a22 22 0 0 0-.048.069l.048-.069zm39.795 8.69.012.066a22 22 0 0 0-.012-.066zm.256 2.076c.008.104.017.208.024.313a22 22 0 0 0-.024-.313zm-.027 3.691-.031.348a22 22 0 0 0 .03-.348zm-.336 2.358c-.004.022-.011.044-.016.066a22 22 0 0 0 .016-.066zm-1.275 4.146c-.019.044-.035.088-.053.131a22 22 0 0 0 .053-.13zm-.958 1.998-.08.143a22 22 0 0 0 .08-.143zm-36.674 3.032a22 22 0 0 0 .256.32 22.143 22.143 0 0 1-.256-.32zm34.295.482c-.071.087-.141.174-.214.26a22 22 0 0 0 .214-.26zm-1.476 1.615c-.115.114-.23.225-.348.336a22 22 0 0 0 .348-.336zm-30.057.826a22 22 0 0 0 .523.467c-.18-.15-.348-.312-.523-.467zm28.316.73c-.071.058-.145.11-.217.167a22 22 0 0 0 .217-.166zm-26.57.669a22 22 0 0 0 .498.365c-.17-.116-.331-.245-.498-.365zm22.848 1.742c-.032.016-.064.03-.096.047a22 22 0 0 0 .096-.047zm-6.137 2.06-.236.044a22 22 0 0 0 .236-.043z" fill="#fff"/><circle cx="112" cy="268" r="15" enable-background="new" fill="#0068c8"/><circle cx="464" cy="28" r="240" fill="#0068c8"/><path d="M112 253a15 15 0 0 0-15 15 15 15 0 0 0 .02.544A15 15 0 0 1 112 253.938a15 15 0 0 1 14.98 14.456A15 15 0 0 0 127 268a15 15 0 0 0-15-15z" enable-background="new" fill="#fff" opacity=".2"/><path d="M112 253a15 15 0 0 0-1.299.066c.43-.037.86-.066 1.299-.066zm.074.004c.487.002.97.025 1.444.072a15 15 0 0 0-1.444-.072zm-2.164.158a15 15 0 0 0-.65.1c.214-.04.432-.07.65-.1zm-1.564.305a15 15 0 0 0-.512.13c.168-.048.34-.087.512-.13zm-1.442.44a15 15 0 0 0-.486.177c.16-.064.324-.119.486-.178zm-1.37.574a15 15 0 0 0-.462.222c.151-.079.307-.149.461-.222zm-1.278.691a15 15 0 0 0-.479.291c.156-.102.319-.194.479-.291zm16.189.434c.09.061.173.132.262.195a15 15 0 0 0-.262-.195zm-17.357.35a15 15 0 0 0-.516.386c.167-.135.343-.259.516-.387zm18.53.536c.124.103.237.218.356.324a15 15 0 0 0-.355-.324zm-19.653.383a15 15 0 0 0-.492.445c.157-.155.328-.297.492-.445zm20.729.611c.128.13.246.272.369.407a15 15 0 0 0-.37-.407zm-21.738.391a15 15 0 0 0-.488.54c.155-.187.324-.361.488-.54zm14.42.09c-.418-.015-2.71.66-3.381 1.51-2.023.146-10.182 5.71-14.975 9.093a15 15 0 0 0 .088 1.067c2.179-.84 4.714-1.718 5.74-1.711.202.002.349.033.416.111.394.465-1.284 2.716-3.018 5.264-.448.66-.9 1.335-1.334 1.99a15 15 0 0 0 .434.758c2.383-2.984 5.38-6.716 6.209-6.842v-.002a.197.197 0 0 1 .115.016c.147.18-2.584 4.539-5.031 8.545a15 15 0 0 0 .861.927c1.19-1.634 2.479-3.429 3.727-5.152 2.604-3.595 4.908-6.956 6.031-6.986a.599.599 0 0 1 .104.006c3.458.02 6.839 8.693 8.619 14.133a15 15 0 0 0 .742-.514c-.854-6.083-2.858-16.1-7.03-18.889.448-.298.485-1.828.485-1.828zm8.299.623c.11.137.212.282.318.424a15 15 0 0 0-.318-.424zm-23.662.424a15 15 0 0 0-.42.562c.132-.194.279-.375.42-.562zm24.54.785c.087.132.164.27.247.406a15 15 0 0 0-.246-.406zm.75 1.283c.075.143.14.29.21.436a15 15 0 0 0-.21-.436zm.614 1.338c.066.164.121.333.182.5a15 15 0 0 0-.182-.5zm.482 1.406c.05.17.092.343.135.516a15 15 0 0 0-.135-.516zm.344 1.453c.035.192.062.386.09.58a15 15 0 0 0-.09-.58zM97.08 266.48a15 15 0 0 0-.078 1.52c0-.513.028-1.02.078-1.52zm29.857.243c.036.421.064.846.064 1.277a15 15 0 0 0-.064-1.277zm-.004 2.654c-.006.071-.012.142-.02.213a15 15 0 0 0 .02-.213zm-29.758.797a15 15 0 0 0 .096.605c-.038-.2-.067-.402-.096-.605zm.305 1.535a15 15 0 0 0 .133.498c-.048-.165-.09-.331-.133-.498zm.45 1.457a15 15 0 0 0 .169.445c-.06-.146-.113-.296-.168-.445zm27.9.639-.026.066a15 15 0 0 0 .027-.066zm-27.306.756a15 15 0 0 0 .193.388c-.067-.128-.13-.258-.193-.388zm26.652.607-.035.062a15 15 0 0 0 .035-.062zm-24.992 2.062a15 15 0 0 0 .156.196c-.052-.065-.105-.13-.156-.196zm23.363.336-.127.155a15 15 0 0 0 .127-.155zm-1.023 1.116-.166.162a15 15 0 0 0 .166-.162zm-20.45.547a15 15 0 0 0 .338.302c-.116-.097-.224-.202-.337-.302zm19.272.503-.079.059a15 15 0 0 0 .079-.059zm-18.01.5a15 15 0 0 0 .232.172c-.08-.054-.154-.116-.232-.172zm11.262 2.538-.084.015a15 15 0 0 0 .084-.015z" enable-background="new" fill="#fff"/><circle cx="464" cy="28" r="240" fill="#0068c8"/><path d="M447.15-211.402a240 240 0 0 0-.182.012l.182-.012zM315-160.129a240 240 0 0 0-.408.328c.136-.109.271-.22.408-.328zm303.57 4.531.094.078a240 240 0 0 0-.094-.078zm-321.36 11.07a240 240 0 0 0-.832.81l.832-.81zm338.82 5.186.26.265a240 240 0 0 0-.26-.265zm-118 6.795c-6.68-.239-43.344 10.57-54.08 24.17-32.37 2.345-162.94 91.388-239.62 145.51a240 240 0 0 0 1.396 17.059c34.87-13.438 75.423-27.517 91.84-27.393v.002c3.235.024 5.545.56 6.672 1.804 6.312 7.439-20.546 43.445-48.285 84.21a3015.245 3015.245 0 0 0-21.36 31.851 240 240 0 0 0 6.953 12.121c38.12-47.735 86.053-107.47 99.33-109.48.716-.108 1.352-.02 1.859.22 2.356 2.878-41.373 72.63-80.521 136.73a240 240 0 0 0 13.805 14.851c19.018-26.149 39.642-54.893 59.607-82.459C397.286 59.13 434.165 5.42 452.14 4.88v-.002c.58-.017 1.1.014 1.64.11 55.34.328 109.41 139.09 137.89 226.12a240 240 0 0 0 11.938-8.254c-13.673-97.335-45.743-257.59-112.48-302.19 7.158-4.772 7.764-29.256 7.764-29.256zM280.81-127a240 240 0 0 0-.664.785c.22-.263.442-.524.664-.785zm-14.805 19.387a240 240 0 0 0-.127.183l.127-.183zm437.4 118.59.01.158a240 240 0 0 0-.01-.158z" fill="#fff"/></g></svg>