<svg version="1.0" viewBox="0 0 16 16" xmlns="http://www.w3.org/2000/svg"><path d="M7.643 1a.536.536 0 0 0-.536.536.536.536 0 0 0 .536.535.536.536 0 0 0 .536-.535A.536.536 0 0 0 7.643 1zm1.428.893a.625.625 0 0 0-.625.625.625.625 0 0 0 .625.625.625.625 0 0 0 .625-.625.625.625 0 0 0-.625-.625zm-1.428.893a.714.714 0 0 0-.714.714.714.714 0 0 0 .714.714.714.714 0 0 0 .714-.714.714.714 0 0 0-.714-.714zm1.784 1.607A.804.804 0 0 0 9.428 6h.001a.804.804 0 0 0-.002-1.607zm-2.32.536a.893.893 0 0 0 0 1.785h.001a.893.893 0 0 0-.001-1.785z" fill="#03a9f4"/><path d="M4.913 7.07A5 5 0 0 0 3 11.001a5 5 0 0 0 5 5 5 5 0 0 0 5-5 5 5 0 0 0-1.912-3.925A5 5 0 0 1 8 8.144 5 5 0 0 1 4.913 7.07z" fill="#0d47a1"/></svg>