<svg version="1.0" viewBox="0 0 16 16" xmlns="http://www.w3.org/2000/svg"><path d="M19-2311a2 2 0 0 0-2 2v9a2 2 0 0 0 2 2h10a2 2 0 0 0 2-2v-7a2 2 0 0 0-2-2h-4l-2-2zm6.594 6c1.309 0 2.487.469 3.469 1.188L26.5-2301c-.455.5-1.36.506-1.824 0l-2.55-2.781c.984-.727 2.149-1.219 3.468-1.219z" color="#000" fill="#48b9c7" style="text-decoration-line:none;text-indent:0;text-transform:none" transform="translate(-16 2312)"/><path d="M3 1.5h3.793l2 2H13c.831 0 1.5.669 1.5 1.5v7c0 .831-.669 1.5-1.5 1.5H3c-.831 0-1.5-.669-1.5-1.5V3c0-.831.669-1.5 1.5-1.5z" fill="none" stroke="#000" stroke-linecap="round" stroke-opacity=".392"/><path d="M9.5 6.105a5.641 5.641 0 0 0-4 1.656l3.273 3.966h.003a1 1 0 0 0 1.445-.003h.002L13.5 7.761a5.641 5.641 0 0 0-4-1.656z" fill="#33302f"/></svg>