<svg version="1.0" viewBox="0 0 16 16" xmlns="http://www.w3.org/2000/svg"><path d="M19-1351a2 2 0 0 0-2 2v9a2 2 0 0 0 2 2h10a2 2 0 0 0 2-2v-7a2 2 0 0 0-2-2h-4l-2-2z" color="#000" fill="#48b9c7" style="text-decoration-line:none;text-indent:0;text-transform:none" transform="translate(-16 1352)"/><path d="M26-1346.5a1.5 1.5 0 1 1 0 3 1.5 1.5 0 0 1 0-3zm0 4c3 0 3 2.002 3 2.002v.5h-6v-.5s0-2 3-2.002z" color="#000" fill="#33302f" style="text-decoration-line:none;text-indent:0;text-transform:none" transform="translate(-16 1352)"/><path d="M3 1.5h3.793l2 2H13c.831 0 1.5.669 1.5 1.5v7c0 .831-.669 1.5-1.5 1.5H3c-.831 0-1.5-.669-1.5-1.5V3c0-.831.669-1.5 1.5-1.5z" fill="none" stroke="#000" stroke-linecap="round" stroke-opacity=".392"/></svg>