<svg version="1.0" viewBox="0 0 16 16" xmlns="http://www.w3.org/2000/svg"><g transform="translate(-16 1032)"><rect x="18" y="-1029" width="11" height="10" ry="2" fill="#fff" stroke="#1c8d9b" stroke-linecap="round" stroke-width="2"/><g fill="#1c8d9b"><path d="M20-1025.5v4h7v-4zm3.5.5a1.5 1.5 0 0 1 1.5 1.5 1.5 1.5 0 0 1-1.5 1.5 1.5 1.5 0 0 1-1.5-1.5 1.5 1.5 0 0 1 1.5-1.5z"/><path d="m23-1027-1 1h-1.5c-.277 0-.5.223-.5.5h7c0-.277-.223-.5-.5-.5H25l-1-1zm-3 5.5c0 .277.223.5.5.5h6c.277 0 .5-.223.5-.5z"/></g></g></svg>