<svg version="1.0" viewBox="0 0 16 16" xmlns="http://www.w3.org/2000/svg"><path color="#bebebe" fill="none" d="M0 0h16v16H0z"/><path d="M8 .5a4 4 0 0 0-4 4 4 4 0 0 0 1.266 2.916l-1.84 1.963c-.007-.01-.015-.014-.022-.021a1 1 0 1 0-1.533 1.285c.059.07.127.128.188.195L.5 12.5v2l2-1 1.176-1.283a7.996 7.996 0 0 0 5.851 1.136 7.961 7.961 0 0 0 2.577-1.003L13.5 14l2 1v-2l-1.74-1.973a7.975 7.975 0 0 0 1.848-3.054 1 1 0 0 0-.948-1.323 1 1 0 0 0-.953.703 5.981 5.981 0 0 1-1.27 2.174l-1.792-2.03A4 4 0 0 0 12 4.5a4 4 0 0 0-4-4zm0 2a2 2 0 0 1 2 2 2 2 0 0 1-.678 1.498L8 4.5 6.635 5.957A2 2 0 0 1 6 4.5a2 2 0 0 1 2-2zm-.832 5.906A4 4 0 0 0 8 8.5a4 4 0 0 0 .781-.078l2.012 2.379a5.986 5.986 0 0 1-1.648.588 5.987 5.987 0 0 1-4.092-.674z" fill="#6a7ce0" stroke="#000" stroke-opacity=".588"/></svg>