<svg version="1.0" viewBox="0 0 16 16" xmlns="http://www.w3.org/2000/svg"><g transform="translate(-16 1992)"><path d="M19.5-1991c-1.939 0-3.5 1.561-3.5 3.5s1.561 3.5 3.5 3.5 3.5-1.561 3.5-3.5-1.561-3.5-3.5-3.5zm0 2c.831 0 1.5.669 1.5 1.5s-.669 1.5-1.5 1.5-1.5-.669-1.5-1.5.669-1.5 1.5-1.5z" fill="#ff793e"/><path d="M27.5-1991c-1.939 0-3.5 1.561-3.5 3.5s1.561 3.5 3.5 3.5 3.5-1.561 3.5-3.5-1.561-3.5-3.5-3.5zm0 2c.831 0 1.5.669 1.5 1.5s-.669 1.5-1.5 1.5-1.5-.669-1.5-1.5.669-1.5 1.5-1.5z" fill="#ff793e"/><rect x="18" y="-1985" width="11" height="8" ry="2" fill="#ff793e"/><path d="M26.75-1980.5 32-1984v7z" fill="#ff793e"/><path d="M19.5-1990.5a3 3 0 0 0-3 3 3 3 0 0 0 3 3 3 3 0 0 0 3-3 3 3 0 0 0-3-3zm8 0a3 3 0 0 0-3 3 3 3 0 0 0 3 3 3 3 0 0 0 3-3 3 3 0 0 0-3-3zm-7.5 6c-.831 0-1.5.669-1.5 1.5v4c0 .831.669 1.5 1.5 1.5h7c.831 0 1.5-.669 1.5-1.5v-.938l3 2.004v-5.132l-3 2.003V-1983c0-.831-.669-1.5-1.5-1.5z" fill="none" stroke="#1a1818" stroke-linecap="square" stroke-opacity=".502"/></g></svg>