<svg version="1.0" viewBox="0 0 16 16" xmlns="http://www.w3.org/2000/svg"><g transform="translate(-16 632)"><rect x="16" y="-628" width="16" height="12" ry="2" fill="#ffce51"/><path d="M19-626c-.554 0-1 .446-1 1v3c0 .554.446 1 1 1h2v1c0 .554.446 1 1 1h4c.554 0 1-.446 1-1v-1h2c.554 0 1-.446 1-1v-3c0-.554-.446-1-1-1z" fill-opacity=".5"/><path d="M21-620v1c0 .554.446 1 1 1h4c.554 0 1-.446 1-1v-1c0 .554-.446 1-1 1h-4c-.554 0-1-.446-1-1z" fill="#efefef" fill-opacity=".5"/><path d="M18-627c-.554 0-1 .446-1 1v5c0 .554.446 1 1 1h3v-1h-2c-.554 0-1-.446-1-1v-3c0-.554.446-1 1-1h10c.554 0 1 .446 1 1v3c0 .554-.446 1-1 1h-2v1h3c.554 0 1-.446 1-1v-5c0-.554-.446-1-1-1z" fill="#efefef" fill-opacity=".5"/><path d="M18-628c-1.108 0-2 .892-2 2v8c0 1.108.892 2 2 2h12c1.108 0 2-.892 2-2v-8c0-1.108-.892-2-2-2zm0 1h12c.554 0 1 .446 1 1v8c0 .554-.446 1-1 1H18c-.554 0-1-.446-1-1v-8c0-.554.446-1 1-1z" fill-opacity=".5"/><g stroke-linecap="square" stroke-width="2"><path d="M20-631c-.554 0-1 .446-1 1v9h2v1c0 .554.446 1 1 1h4c.554 0 1-.446 1-1v-1h2v-9c0-.554-.446-1-1-1z" fill="#ededed"/><path d="M20-631c-.554 0-1 .446-1 1v9h2v1c0 .554.446 1 1 1h4c.554 0 1-.446 1-1v-1h2v-9c0-.554-.446-1-1-1zm0 1h8v8h-2v2h-4v-2h-2z" fill-opacity=".3"/></g><path d="M21-629v3l4.5.5-4.5.5v3l7-3.5z" fill="#393634" opacity=".8"/></g></svg>