<svg version="1.0" viewBox="0 0 16 16" xmlns="http://www.w3.org/2000/svg" xmlns:xlink="http://www.w3.org/1999/xlink"><g transform="translate(-16 632)"><g id="a" stroke-linecap="square"><rect x="228" y="234" width="56" height="44" ry="4" fill="#ffce51" stroke-width="2"/><path d="M232 234c-2.216 0-4 1.784-4 4v36c0 2.216 1.784 4 4 4h48c2.216 0 4-1.784 4-4v-36c0-2.216-1.784-4-4-4zm0 1h48c1.662 0 3 1.338 3 3v36c0 1.662-1.338 3-3 3h-48c-1.662 0-3-1.338-3-3v-36c0-1.662 1.338-3 3-3z" fill-opacity=".5" stroke-width="2"/><path d="M233 236c-1.662 0-3 1.338-3 3v20c0 1.662 1.338 3 3 3h11v6c0 1.662 1.338 3 3 3h18c1.662 0 3-1.338 3-3v-6h11c1.662 0 3-1.338 3-3v-20c0-1.662-1.338-3-3-3z" fill-opacity=".5" stroke-width="2"/><path d="M244 268v1c0 1.662 1.338 3 3 3h18c1.662 0 3-1.338 3-3v-1c0 1.662-1.338 3-3 3h-18c-1.662 0-3-1.338-3-3z" fill="#f8f8f8" fill-opacity=".5" stroke-width="2"/><path d="M232 235c-1.662 0-3 1.338-3 3v22c0 1.662 1.338 3 3 3h12v-1h-11c-1.662 0-3-1.338-3-3v-20c0-1.662 1.338-3 3-3h46c1.662 0 3 1.338 3 3v20c0 1.662-1.338 3-3 3h-11v1h12c1.662 0 3-1.338 3-3v-22c0-1.662-1.338-3-3-3z" fill="#f8f8f8" fill-opacity=".5" stroke-width="2"/><rect x="102" y="259" width="28" height="22" ry="2" fill="#ffce51"/><path d="M104 259c-1.108 0-2 .892-2 2v18c0 1.108.892 2 2 2h24c1.108 0 2-.892 2-2v-18c0-1.108-.892-2-2-2zm0 1h24c.554 0 1 .446 1 1v18c0 .554-.446 1-1 1h-24c-.554 0-1-.446-1-1v-18c0-.554.446-1 1-1z" fill-opacity=".5"/><rect x="16" y="272" width="16" height="12" ry="2" fill="#ffce51" stroke-width=".5"/><path d="M19 274c-.554 0-1 .446-1 1v3c0 .554.446 1 1 1h2v1c0 .554.446 1 1 1h4c.554 0 1-.446 1-1v-1h2c.554 0 1-.446 1-1v-3c0-.554-.446-1-1-1z" fill-opacity=".5" stroke-width="2"/><path d="M21 280v1c0 .554.446 1 1 1h4c.554 0 1-.446 1-1v-1c0 .554-.446 1-1 1h-4c-.554 0-1-.446-1-1z" fill="#efefef" fill-opacity=".5" stroke-width="2"/><path d="M18 273c-.554 0-1 .446-1 1v5c0 .554.446 1 1 1h3v-1h-2c-.554 0-1-.446-1-1v-3c0-.554.446-1 1-1h10c.554 0 1 .446 1 1v3c0 .554-.446 1-1 1h-2v1h3c.554 0 1-.446 1-1v-5c0-.554-.446-1-1-1z" fill="#efefef" fill-opacity=".5" stroke-width="2"/><path d="M18 272c-1.108 0-2 .892-2 2v8c0 1.108.892 2 2 2h12c1.108 0 2-.892 2-2v-8c0-1.108-.892-2-2-2zm0 1h12c.554 0 1 .446 1 1v8c0 .554-.446 1-1 1H18c-.554 0-1-.446-1-1v-8c0-.554.446-1 1-1z" fill-opacity=".5" stroke-width=".5"/><rect x="56" y="265" width="24" height="18" ry="2" fill="#ffce51" stroke-width=".75"/><path d="M58 265c-1.108 0-2 .892-2 2v14c0 1.108.892 2 2 2h20c1.108 0 2-.892 2-2v-14c0-1.108-.892-2-2-2zm0 1h20c.554 0 1 .446 1 1v14c0 .554-.446 1-1 1H58c-.554 0-1-.446-1-1v-14c0-.554.446-1 1-1z" fill-opacity=".51" stroke-width=".75"/><path d="M59 267c-.554 0-1 .446-1 1v7c0 .554.446 1 1 1h4v2c0 .554.446 1 1 1h8c.554 0 1-.446 1-1v-2h4c.554 0 1-.446 1-1v-7c0-.554-.446-1-1-1z" fill-opacity=".51" stroke-width="2"/><path d="M58 266c-.554 0-1 .446-1 1v9c0 .554.446 1 1 1h5v-1h-4c-.554 0-1-.446-1-1v-7c0-.554.446-1 1-1h18c.554 0 1 .446 1 1v7c0 .554-.446 1-1 1h-4v1h5c.554 0 1-.446 1-1v-9c0-.554-.446-1-1-1z" fill="#fff" fill-opacity=".51" stroke-width="2"/><path d="M63 278v1c0 .554.446 1 1 1h8c.554 0 1-.446 1-1v-1c0 .554-.446 1-1 1h-8c-.554 0-1-.446-1-1z" fill="#fff" fill-opacity=".51" stroke-width="2"/><rect x="159" y="247" width="42" height="32" ry="3" fill="#ffce51" stroke-width="1.5"/><path d="M162 247c-1.662 0-3 1.338-3 3v26c0 1.662 1.338 3 3 3h36c1.662 0 3-1.338 3-3v-26c0-1.662-1.338-3-3-3zm0 1h36c1.108 0 2 .892 2 2v26c0 1.108-.892 2-2 2h-36c-1.108 0-2-.892-2-2v-26c0-1.108.892-2 2-2z" fill-opacity=".5" stroke-width="1.5"/><path d="M163 249c-1.108 0-2 .892-2 2v15c0 1.108.892 2 2 2h7v4c0 1.108.892 2 2 2h16c1.108 0 2-.892 2-2v-4h7c1.108 0 2-.892 2-2v-15c0-1.108-.892-2-2-2z" fill-opacity=".5" stroke-width="2"/><path d="M162 248c-1.108 0-2 .892-2 2v17c0 1.108.892 2 2 2h8v-1h-7c-1.108 0-2-.892-2-2v-15c0-1.108.892-2 2-2h34c1.108 0 2 .892 2 2v15c0 1.108-.892 2-2 2h-7v1h8c1.108 0 2-.892 2-2v-17c0-1.108-.892-2-2-2z" fill="#fbfbfb" fill-opacity=".5" stroke-width="2"/><path d="M170 272v1c0 1.108.892 2 2 2h16c1.108 0 2-.892 2-2v-1c0 1.108-.892 2-2 2h-16c-1.108 0-2-.892-2-2z" fill="#fbfbfb" fill-opacity=".5" stroke-width="2"/><path d="M105 261c-.554 0-1 .446-1 1v10c0 .554.446 1 1 1h5v3c0 .554.446 1 1 1h10c.554 0 1-.446 1-1v-3h5c.554 0 1-.446 1-1v-10c0-.554-.446-1-1-1z" fill-opacity=".5" stroke-width="2"/><path d="M104 260c-.554 0-1 .446-1 1v12c0 .554.446 1 1 1h6v-1h-5c-.554 0-1-.446-1-1v-10c0-.554.446-1 1-1h22c.554 0 1 .446 1 1v10c0 .554-.446 1-1 1h-5v1h6c.554 0 1-.446 1-1v-12c0-.554-.446-1-1-1z" fill="#fbfbfb" fill-opacity=".5" stroke-width="2"/><path d="M110 276v1c0 .554.446 1 1 1h10c.554 0 1-.446 1-1v-1c0 .554-.446 1-1 1h-10c-.554 0-1-.446-1-1z" fill="#fbfbfb" fill-opacity=".5" stroke-width="2"/><rect x="320" y="184" width="112" height="88" ry="8" fill="#ffce51" stroke-width="2"/><path d="M328 184c-4.432 0-8 3.568-8 8v72c0 4.432 3.568 8 8 8h96c4.432 0 8-3.568 8-8v-72c0-4.432-3.568-8-8-8zm0 1h96c3.878 0 7 3.122 7 7v72c0 3.878-3.122 7-7 7h-96c-3.878 0-7-3.122-7-7v-72c0-3.878 3.122-7 7-7z" fill-opacity=".502" stroke-width="2"/><path d="M328 187c-2.77 0-5 2.23-5 5v43c0 2.77 2.23 5 5 5h21v13c0 2.77 2.23 5 5 5h44c2.77 0 5-2.23 5-5v-13h21c2.77 0 5-2.23 5-5v-43c0-2.77-2.23-5-5-5z" fill-opacity=".502" stroke-width="2"/><path d="M328 185c-3.878 0-7 3.122-7 7v43c0 3.878 3.122 7 7 7h21v-2h-21c-2.77 0-5-2.23-5-5v-43c0-2.77 2.23-5 5-5h96c2.77 0 5 2.23 5 5v43c0 2.77-2.23 5-5 5h-21v2h21c3.878 0 7-3.122 7-7v-43c0-3.878-3.122-7-7-7z" fill="#fff" fill-opacity=".502" stroke-width="2"/><path d="M349 253v2c0 2.77 2.23 5 5 5h44c2.77 0 5-2.23 5-5v-2c0 2.77-2.23 5-5 5h-44c-2.77 0-5-2.23-5-5z" fill="#fff" fill-opacity=".502" stroke-width="2"/><rect x="480" y="84" width="224" height="176" ry="8" fill="#ffce51" stroke-width="2"/><path d="M488 84c-4.432 0-8 3.568-8 8v160c0 4.432 3.568 8 8 8h208c4.432 0 8-3.568 8-8V92c0-4.432-3.568-8-8-8zm0 1h208c3.878 0 7 3.122 7 7v160c0 3.878-3.122 7-7 7H488c-3.878 0-7-3.122-7-7V92c0-3.878 3.122-7 7-7z" fill-opacity=".502" stroke-width="2"/><path d="M488 87c-2.77 0-5 2.23-5 5v99c0 2.77 2.23 5 5 5h49v32c0 2.77 2.23 5 5 5h100c2.77 0 5-2.23 5-5v-32h49c2.77 0 5-2.23 5-5V92c0-2.77-2.23-5-5-5z" fill-opacity=".502" stroke-width="2"/><path d="M488 85c-3.878 0-7 3.122-7 7v99c0 3.878 3.122 7 7 7h49v-2h-49c-2.77 0-5-2.23-5-5V92c0-2.77 2.23-5 5-5h208c2.77 0 5 2.23 5 5v99c0 2.77-2.23 5-5 5h-49v2h49c3.878 0 7-3.122 7-7V92c0-3.878-3.122-7-7-7z" fill="#fff" fill-opacity=".502" stroke-width="2"/><path d="M537 228v2c0 2.77 2.23 5 5 5h100c2.77 0 5-2.23 5-5v-2c0 2.77-2.23 5-5 5H542c-2.77 0-5-2.23-5-5z" fill="#fff" fill-opacity=".502" stroke-width="2"/></g></g><g transform="translate(-16 632)"><use transform="translate(0 -300)" width="100%" height="100%" xlink:href="#a"/><g id="b" stroke-linecap="square" stroke-width="2"><path d="M512-256c-4.432 0-8 3.568-8 8v144h33v32c0 2.77 2.23 5 5 5h100c2.77 0 5-2.23 5-5v-32h33v-144c0-4.432-3.568-8-8-8z" fill="#ededed"/><path d="M512-256c-4.432 0-8 3.568-8 8v144h33v32c0 2.77 2.23 5 5 5h100c2.77 0 5-2.23 5-5v-32h33v-144c0-4.432-3.568-8-8-8zm0 1h160c3.878 0 7 3.122 7 7v142h-33v32c0 2.77-2.23 5-5 5h-98c-2.77 0-5-2.23-5-5v-32h-33v-142c0-3.878 3.122-7 7-7z" fill-opacity=".3"/><path d="M340-136c-4.432 0-8 3.568-8 8v68h17v13c0 2.77 2.23 5 5 5h44c2.77 0 5-2.23 5-5v-13h17v-68c0-4.432-3.568-8-8-8z" fill="#ededed"/><path d="M340-136c-4.432 0-8 3.568-8 8v68h17v13c0 2.77 2.23 5 5 5h44c2.77 0 5-2.23 5-5v-13h17v-68c0-4.432-3.568-8-8-8zm0 1h72c3.878 0 7 3.122 7 7v66h-17v13c0 2.77-2.23 5-5 5h-42c-2.77 0-5-2.23-5-5v-13h-17v-66c0-3.878 3.122-7 7-7z" fill-opacity=".3"/><path d="M238-76c-2.216 0-4 1.784-4 4v34h10v6c0 1.662 1.338 3 3 3h18c1.662 0 3-1.338 3-3v-6h10v-34c0-2.216-1.784-4-4-4z" fill="#ededed"/><path d="M238-76c-2.216 0-4 1.784-4 4v34h10v6c0 1.662 1.338 3 3 3h18c1.662 0 3-1.338 3-3v-6h10v-34c0-2.216-1.784-4-4-4zm0 1h36c1.662 0 3 1.338 3 3v32h-10v6c0 1.662-1.338 3-3 3h-16c-1.662 0-3-1.338-3-3v-6h-10v-32c0-1.662 1.338-3 3-3z" fill-opacity=".3"/><path d="M167-61c-1.662 0-3 1.338-3 3v26h6v4c0 1.108.892 2 2 2h16c1.108 0 2-.892 2-2v-4h6v-26c0-1.662-1.338-3-3-3z" fill="#ededed"/><path d="M167-61c-1.662 0-3 1.338-3 3v26h6v4c0 1.108.892 2 2 2h16c1.108 0 2-.892 2-2v-4h6v-26c0-1.662-1.338-3-3-3zm0 1h26c1.108 0 2 .892 2 2v24h-6v4c0 1.108-.892 2-2 2h-14c-1.108 0-2-.892-2-2v-4h-6v-24c0-1.108.892-2 2-2z" fill-opacity=".3"/><path d="M107-46c-1.108 0-2 .892-2 2v17h5v3c0 .554.446 1 1 1h10c.554 0 1-.446 1-1v-3h5v-17c0-1.108-.892-2-2-2z" fill="#ededed"/><path d="M107-46c-1.108 0-2 .892-2 2v17h5v3c0 .554.446 1 1 1h10c.554 0 1-.446 1-1v-3h5v-17c0-1.108-.892-2-2-2zm0 1h18c.554 0 1 .446 1 1v16h-5v4h-10v-4h-5v-16c0-.554.446-1 1-1z" fill-opacity=".3"/><path d="M60-39c-.554 0-1 .446-1 1v14h4v2c0 .554.446 1 1 1h8c.554 0 1-.446 1-1v-2h4v-14c0-.554-.446-1-1-1z" fill="#ededed"/><path d="M60-39c-.554 0-1 .446-1 1v14h4v2c0 .554.446 1 1 1h8c.554 0 1-.446 1-1v-2h4v-14c0-.554-.446-1-1-1zm0 1h16v13h-4v3h-8v-3h-4v-3z" fill-opacity=".3"/><path d="M20-31c-.554 0-1 .446-1 1v9h2v1c0 .554.446 1 1 1h4c.554 0 1-.446 1-1v-1h2v-9c0-.554-.446-1-1-1z" fill="#ededed"/><path d="M20-31c-.554 0-1 .446-1 1v9h2v1c0 .554.446 1 1 1h4c.554 0 1-.446 1-1v-1h2v-9c0-.554-.446-1-1-1zm0 1h8v8h-2v2h-4v-2h-2z" fill-opacity=".3"/></g><path d="m111.5-34 4.5 5.5 4.5-5.5c-.003.004-1.833 0-2.5 0v-5h-4v5z" color="#000" fill="#393634" opacity=".8"/><path d="m63.5-29 4.5 5.5 4.5-5.5c-.003.004-1.833 0-2.5 0v-5h-4v5z" color="#000" fill="#393634" opacity=".8"/><path d="m20-25 4 5 4-5h-2v-4h-4v4z" color="#000" fill="#393634" opacity=".8"/><path d="m173.25-43.5 6.75 8.25 6.75-8.25c-.005.006-2.75 0-3.75 0V-51h-6v7.5z" color="#000" fill="#393634" opacity=".8"/><path d="m247-54 9 11 9-11c-.006.008-3.667 0-5 0v-10h-8v10z" color="#000" fill="#393634" opacity=".8"/><path d="m358-93 18 22 18-22c-.012.016-7.333 0-10 0v-20h-16v20z" color="#000" fill="#393634" opacity=".8"/><path d="m556-173 36 44 36-44c-.024.032-14.667 0-20 0v-40h-32v40z" color="#000" fill="#393634" opacity=".8"/></g><g transform="translate(-16 632)"><use transform="translate(0 -600)" width="100%" height="100%" xlink:href="#a"/><use id="c" transform="translate(0 -300)" width="100%" height="100%" xlink:href="#b"/><path d="M120.5-335.5 116-341l-4.5 5.5c.003-.004 1.833 0 2.5 0v5h4v-5z" color="#000" fill="#393634" opacity=".8"/><path d="M72.5-330.5 68-336l-4.5 5.5c.003-.004 1.833 0 2.5 0v5h4v-5z" color="#000" fill="#393634" opacity=".8"/><path d="m28-325-4-5-4 5h2v4h4v-4z" color="#000" fill="#393634" opacity=".8"/><path d="M186.75-344.75 180-353l-6.75 8.25c.005-.006 2.75 0 3.75 0v7.5h6v-7.5z" color="#000" fill="#393634" opacity=".8"/><path d="m265-355-9-11-9 11c.006-.008 3.667 0 5 0v10h8v-10z" color="#000" fill="#393634" opacity=".8"/><path d="m394-394-18-22-18 22c.012-.016 7.333 0 10 0v20h16v-20z" color="#000" fill="#393634" opacity=".8"/><path d="m628-472-36-44-36 44c.024-.032 14.667 0 20 0v40h32v-40z" color="#000" fill="#393634" opacity=".8"/></g><g transform="translate(-16 632)"><use transform="translate(0 -900)" width="100%" height="100%" xlink:href="#a"/><use transform="translate(0 -300)" width="100%" height="100%" xlink:href="#c"/><path d="M111-641v5l7 .5-7 .5v5l11-5.5z" fill="#393634" opacity=".8"/><path d="M21-629v3l4.5.5-4.5.5v3l7-3.5z" fill="#393634" opacity=".8"/><path d="M174-653v6l9 1-9 1v6l14-7z" fill="#393634" opacity=".8"/><path d="M174-653v6l9 1-9 1v6l14-7z" fill="#393634" opacity=".8"/><path d="M246-666v9l13.5 1.5L246-654v9l21-10.5z" fill="#393634" opacity=".8"/><path d="M356-716v18l27 3-27 3v18l42-21z" fill="#393634" opacity=".8"/><path d="M551-816v36l54 6-54 6v36l84-42z" fill="#393634" opacity=".8"/><path d="M63-637v5l7 .5-7 .5v5l11-5.5z" fill="#393634" opacity=".8"/></g></svg>