<svg version="1.0" viewBox="0 0 16 16" xmlns="http://www.w3.org/2000/svg"><path d="M3.5 0h9c.831 0 1.566.672 1.5 1.5L13 14c-2.5 2-7.5 2-10 0L2 1.5C1.934.672 2.669 0 3.5 0z" fill="#898989"/><path d="M3.5 0C2.669 0 1.934.672 2 1.5L3 14c2.5 2 7.5 2 10 0l1-12.5c.066-.828-.669-1.5-1.5-1.5zm0 1h9c.277 0 .524.224.5.5L12 13c-2.5 2-5.5 2-8 0L3 1.5c-.024-.276.223-.5.5-.5z" fill-opacity=".5"/><path d="m6.632 10.222-1.747.585-.716-3.082 1.183-.214L5.2 4.059l2.598-2.077 2.248.395-.467 3.296 1.962 1.517-.52 2.77-1.63-.239-1.085 3.14-1.63-.239z" fill="#ededed"/><path d="m5.351 7.511 2.168-.394 1.827.204" fill="none" stroke="#898989" stroke-width=".866"/><path d="M9.579 5.673 6.999 4" fill="none" stroke="#898989" stroke-width=".866"/></svg>