<svg version="1.0" viewBox="0 0 16 16" xmlns="http://www.w3.org/2000/svg"><g transform="translate(-16 -268)"><rect x="18" y="268" width="12" height="16" ry="2" fill="#7b7b7b"/><rect x="19" y="269" width="10" height="14" ry="1.5" fill="#f6f6f6"/><path d="M24 271.007c-2.17 0-4 1.654-4 4.998 0 3.358 1.83 5 4 5s4-1.642 4-5c0-3.344-1.83-4.998-4-4.998zm0 .998c1.261 0 3 1.022 3 4 0 2.992-1.739 4-3 4-1.247 0-3-1.008-3-4 0-2.978 1.753-4 3-4zm0 3c-.543 0-1 .472-1 1 0 .542.457 1 1 1 .557 0 1-.458 1-1 0-.528-.443-1-1-1z" fill="#393634" fill-opacity=".51" aria-label="0x"/></g></svg>