<svg version="1.0" viewBox="0 0 16 16" xmlns="http://www.w3.org/2000/svg"><path d="M3.5 0C2.669 0 2 .669 2 1.5v13c0 .831.669 1.5 1.5 1.5h9c.831 0 1.5-.669 1.5-1.5v-10L9.5 0z" fill="#671d00"/><path d="M13 5v9c0 .554-.446 1-1 1H4c-.554 0-1-.446-1-1V2c0-.554.446-1 1-1h5" fill="#cf3b00"/><path d="M13 6H9c-.554 0-1-.446-1-1V1h1l4 4z" fill="#671d00" fill-opacity=".502"/><path d="M13 5h-3c-.554 0-1-.446-1-1V1" fill="#f15d22"/><path d="M3 9v5h1v-2h.5A1.5 1.5 0 0 0 6 10.5 1.5 1.5 0 0 0 4.5 9h-1zm1 1h.5a.5.5 0 0 1 .5.5.5.5 0 0 1-.5.5H4v-.5z" fill="#f6f6f6"/><path d="M6 9v5h1.5c.831 0 1.5-.669 1.5-1.5v-2C9 9.669 8.331 9 7.5 9h-1zm1 1h.5c.277 0 .5.223.5.5v2c0 .277-.223.5-.5.5H7z" fill="#f6f6f6"/><path d="M10 9v5h1v-2h1v-1h-1v-1h2V9h-2z" fill="#f6f6f6"/></svg>