<svg version="1.0" viewBox="0 0 16 16" xmlns="http://www.w3.org/2000/svg"><g transform="translate(-16 6632)"><rect x="16" y="-6632" width="16" height="16" ry="2" fill="#6f6f6f"/><rect x="17" y="-6631" width="14" height="14" ry="1.5" fill="#ececec"/><path d="m22.25-6631-.154 1.844a5.5 5.5 0 0 0-1.608.93l-1.675-.79-1.75 3.032 1.521 1.056a5.5 5.5 0 0 0-.084.928 5.5 5.5 0 0 0 .08.932l-1.517 1.052 1.75 3.032 1.671-.787a5.5 5.5 0 0 0 1.612.923l.154 1.848h3.5l.154-1.844a5.5 5.5 0 0 0 1.608-.93l1.676.79 1.75-3.032-1.522-1.056a5.5 5.5 0 0 0 .084-.928 5.5 5.5 0 0 0-.08-.932l1.517-1.052-1.75-3.032-1.671.787a5.5 5.5 0 0 0-1.612-.923L25.75-6631zm1.75 5a2 2 0 0 1 2 2 2 2 0 0 1-2 2 2 2 0 0 1-2-2 2 2 0 0 1 2-2z" fill="#474341" fill-opacity=".69"/></g></svg>