<svg version="1.0" viewBox="0 0 16 16" xmlns="http://www.w3.org/2000/svg"><g transform="translate(-16 632)"><rect x="16" y="-631" width="16" height="14" ry="4" fill="#245c63"/><rect x="18" y="-629" width="12" height="10" ry="2" fill="#fbfefe" stroke="#48b9c7" stroke-linecap="round" stroke-width="2"/><rect x="19" y="-628" width="10" height="8" ry="1" fill="#001d26"/><path d="M20-627v1.957a2 2 0 0 0 0 .043v4h1v-2h1a2 2 0 0 0 2-2 2 2 0 0 0-2-2h-1.5zm1 1h1a1 1 0 0 1 1 1 1 1 0 0 1-1 1h-1v-1z" fill="#00c8ff"/><path d="M26.5-626a1.5 1.5 0 0 0-1.5 1.5 1.5 1.5 0 0 0 1.5 1.5.5.5 0 0 1 .5.5.5.5 0 0 1-.5.5H25v1h1.5a1.5 1.5 0 0 0 1.5-1.5 1.5 1.5 0 0 0-1.5-1.5.5.5 0 0 1-.5-.5.5.5 0 0 1 .5-.5H28v-1z" fill="#00c8ff"/></g><style>.st0{fill:#261300}.st1{fill:#ff7c00}</style></svg>