<svg version="1.0" viewBox="0 0 16 16" xmlns="http://www.w3.org/2000/svg"><g transform="translate(-16 4832)"><rect x="16" y="-4832" width="16" height="16" ry="2" fill="#4c0101"/><rect x="17" y="-4831" width="14" height="14" ry="2" fill="#cf3b00"/><path transform="translate(0 8)" d="M27-4836c-1.042 0-1.824.572-2.334 1.31-.51.74-.824 1.647-1.137 2.522s-.623 1.717-1.02 2.291c-.395.574-.8.877-1.509.877v1c1.042 0 1.824-.572 2.334-1.31.51-.74.824-1.647 1.137-2.522.02-.059.043-.11.064-.168H26v-1h-1.086c.177-.425.364-.816.576-1.123.396-.574.802-.877 1.51-.877z" color="#000" fill="#fff" style="font-feature-settings:normal;font-variant-alternates:normal;font-variant-caps:normal;font-variant-ligatures:normal;font-variant-numeric:normal;font-variant-position:normal;isolation:auto;mix-blend-mode:normal;shape-padding:0;text-decoration-color:#000;text-decoration-line:none;text-decoration-style:solid;text-indent:0;text-orientation:mixed;text-transform:none;white-space:normal"/></g></svg>