<svg version="1.0" viewBox="0 0 16 16" xmlns="http://www.w3.org/2000/svg"><g transform="translate(-16 2432)"><rect x="18" y="-2431" width="12" height="15" ry="1.5" fill="#425c0b"/><rect x="19" y="-2430" width="10" height="13" ry="1" fill="#dedede"/><rect x="18" y="-2432" width="10" height="13" ry="1.5" fill="#425c0b"/><rect x="19" y="-2431" width="8" height="11" ry="1" fill="#85b916"/><path d="M20-2431c-.554 0-1 .446-1 1v12c0 .554.446.992 1 1h1v-14z" fill="#293907"/><path d="m24-2423.9-1.541-1.541 1.541-1.541.514.513-1.028 1.028.514.513 1.541-1.54-1.342-1.343a.28.28 0 0 0-.398 0l-2.17 2.171a.28.28 0 0 0 0 .397l2.17 2.172c.11.11.288.11.398 0l2.171-2.172a.28.28 0 0 0 0-.397l-.315-.315z" fill="#fff"/></g></svg>