<svg version="1.0" viewBox="0 0 16 16" xmlns="http://www.w3.org/2000/svg"><g transform="translate(-16 6932)"><rect x="17" y="-6932" width="15" height="16" ry="2" fill="#6f6f6f"/><rect x="18" y="-6931" width="13" height="14" ry="1.5" fill="#ececec"/><path d="M22.5-6928c-.277 0-.43.232-.5.5v.5h-1.5c-.277 0-.5.223-.5.5v5c0 .277.223.5.5.5H22v.5a.499.499 0 1 0 1 0v-.5h1v.5c0 .277.223.5.5.5s.55-.228.5-.5v-.5h1v.5a.499.499 0 1 0 1 0v-.5h1.5c.277 0 .5-.223.5-.5v-5c0-.277-.223-.5-.5-.5H27v-.5c0-.277-.223-.5-.5-.5s-.58.235-.5.5v.5h-1v-.5c0-.277-.223-.5-.5-.5s-.447.228-.5.5v.5h-1v-.5c0-.277-.223-.5-.5-.5zm-1.5 2h7v1a1 1 0 1 0 0 2v1h-7z" fill="#474341" fill-opacity=".69" filter="url(#filter1113)"/></g></svg>