<svg version="1.0" viewBox="0 0 16 16" xmlns="http://www.w3.org/2000/svg"><path d="M3.5 0C2.669 0 2 .669 2 1.5v13c0 .831.669 1.5 1.5 1.5h9c.831 0 1.5-.669 1.5-1.5v-10L9.5 0z" fill="#396247"/><path d="M13 5v9c0 .554-.446 1-1 1H4c-.554 0-1-.446-1-1V2c0-.554.446-1 1-1h5" fill="#73c48f"/><path d="M13 6H9c-.554 0-1-.446-1-1V1h1l4 4z" fill="#396247" fill-opacity=".502"/><path d="M13 5h-3c-.554 0-1-.446-1-1V1" fill="#8adba6"/><g fill="#f6f6f6"><path d="m116-1532.6-8 1v10.75l8 4.25 8-4.25v-10.75zm0 2 6 .75v8l-6 3-6-3v-8z" color="#000" style="font-feature-settings:normal;font-variant-alternates:normal;font-variant-caps:normal;font-variant-ligatures:normal;font-variant-numeric:normal;font-variant-position:normal;isolation:auto;mix-blend-mode:normal;shape-padding:0;text-decoration-color:#000;text-decoration-line:none;text-decoration-style:solid;text-indent:0;text-orientation:mixed;text-transform:none;white-space:normal" transform="matrix(.5 0 0 .5 -50 773.31)"/><path d="m8 9.01-2 .375v2.5l2 1.25 2-1.25v-2.5z"/></g></svg>