<svg version="1.0" viewBox="0 0 16 16" xmlns="http://www.w3.org/2000/svg"><g transform="translate(-16 1232)"><path d="M29-1226h-4c-.554 0-1-.446-1-1v-4h1l4 4z" fill="#6f6f6f" fill-opacity=".502"/><path d="M29-1227h-3c-.554 0-1-.446-1-1v-3" fill="#fafafa"/><rect x="16" y="-1232" width="16" height="16" ry="1.5" fill="#3c4365"/><rect x="17" y="-1231" width="14" height="14" ry="1" fill="#7986cb"/><g fill="#fff"><path d="M26.002-1230v3h2v1l-3.5 5h-1l-3.5-5v-1h2v-3z"/><path d="M19.002-1220a1 1 0 1 0 0 2h10a1 1 0 1 0 0-2z"/></g></g></svg>