<svg version="1.0" viewBox="0 0 16 16" xmlns="http://www.w3.org/2000/svg"><g transform="translate(-16 -268)"><path d="M361 168c-6.094 0-11 4.906-11 11v12h-20.5a5.488 5.488 0 0 0-5.5 5.5V225h16c3.878 0 7 3.122 7 7 0 .243-.018.482-.035.72A9.97 9.97 0 0 1 337 242h-13v28.5c0 3.047 2.453 5.5 5.5 5.5H351v-8c0-6.094 4.46-11 10-11s10 4.906 10 11v8h21.5c3.047 0 5.5-2.453 5.5-5.5V246h12c6.094 0 11-4.906 11-11v-3c0-6.094-4.906-11-11-11h-12v-24.5c0-3.047-2.453-5.5-5.5-5.5H372v-12c0-6.094-4.906-11-11-11z" fill="#396247"/><path d="M361 169c-5.54 0-10 4.918-10 11.025V192h-21c-2.77 0-5 2.23-5 5v24h12c6.094 0 11 4.906 11 11s-4.906 11-11 11h-12v24c0 2.77 2.23 5 5 5h20v-8c0-6.094 4.906-11 11-11s11 4.906 11 11v8h20c2.77 0 5-2.23 5-5v-25h11.975c6.108 0 11.025-4.46 11.025-10s-4.918-10-11.025-10H397v-25c0-2.77-2.23-5-5-5h-21v-11.975c0-6.108-4.46-11.025-10-11.025z" fill="#73c48f"/><path d="M562 53c-12.188 0-20.969 9.812-21 22v24h-41c-6.094 0-11 4.906-11 11v56h31c7.756 0 15 6.244 15 14 0 .487-.036.964-.07 1.441-.737 10.4-10.336 19.56-20.93 19.56h-25v56c0 6.093 4.906 11 11 11h41v-19c0-12.189 9.92-22 21-22s21 9.811 21 22v19h41c6.094 0 11-4.907 11-11v-49h24c12.188 0 22-9.813 22-22v-6c0-12.189-9.812-21-22-21h-24v-49c0-6.095-4.906-11-11-11h-41V75c0-12.189-8.812-22-21-22z" fill="#396247"/><path d="M562 54c-11.08 0-20 9.835-20 22.051V100h-42c-5.54 0-10 4.46-10 10v48h24c12.188 0 22 9.812 22 22s-9.812 22-22 22h-24v48c0 5.54 4.46 10 10 10h40v-16c0-12.188 9.812-22 22-22s22 9.812 22 22v16h40c5.54 0 10-4.46 10-10v-50h23.949c12.215 0 22.051-8.92 22.051-20s-9.835-20-22.051-20H634v-50c0-5.54-4.46-10-10-10h-42V76.051C582 63.836 573.08 54 562 54z" fill="#73c48f"/><path d="M23 268c-1.108 0-2 .892-2 2v1h-2.5c-.831 0-1.5.669-1.5 1.5v3.5h2c.554 0 1 .446 1 1s-.446 1-1 1h-2v3.5c0 .831.669 1.5 1.5 1.5H22v-2c0-.554.446-1 1-1s1 .446 1 1v2h3.5c.831 0 1.5-.669 1.5-1.5V279h1c1.108 0 2-.892 2-2s-.892-2-2-2h-1v-2.5c0-.831-.669-1.5-1.5-1.5H25v-1c0-1.108-.892-2-2-2z" fill="#396247"/><path d="M19 272c-.554 0-1 .446-1 1v2h1c1.108 0 2 .892 2 2s-.892 2-2 2h-1v2c0 .554.446 1 1 1h2v-1c0-1.108.892-2 2-2s2 .892 2 2v1h2c.554 0 1-.446 1-1v-8c0-.554-.446-1-1-1z" fill="#73c48f"/><rect x="22" y="269" width="2" height="5" ry="1" fill="#73c48f"/><rect x="24" y="276" width="7" height="2" ry="1" fill="#73c48f"/><path d="M66.5 261a2.495 2.495 0 0 0-2.5 2.5v1.5h-5c-1.108 0-2 .892-2 2v5h3.5c.831 0 1.5.669 1.5 1.5s-.669 1.5-1.5 1.5H57v6c0 1.108.892 2 2 2h6v-3.5c0-.831.669-1.5 1.5-1.5s1.5.669 1.5 1.5v3.5h5c1.108 0 2-.892 2-2v-5h1.5c1.385 0 2.5-1.115 2.5-2.5s-1.115-2.5-2.5-2.5H75v-4c0-1.108-.892-2-2-2h-4v-1.5c0-1.385-1.115-2.5-2.5-2.5z" fill="#396247"/><path d="M59.5 266c-.831 0-1.5.669-1.5 1.5v3.5h2.5c1.385 0 2.5 1.115 2.5 2.5s-1.115 2.5-2.5 2.5H58v4.5c0 .831.669 1.5 1.5 1.5H64v-2.5c0-1.385 1.115-2.5 2.5-2.5s2.5 1.115 2.5 2.5v2.5h3.5c.831 0 1.5-.669 1.5-1.5v-13c0-.831-.669-1.5-1.5-1.5z" fill="#73c48f"/><rect x="65" y="262" width="3" height="6" ry="1.5" fill="#73c48f"/><rect x="70" y="272" width="8" height="3" ry="1.5" fill="#73c48f"/><path d="M177 240c-2.216 0-4 1.784-4 4v2h-10c-1.662 0-3 1.338-3 3v11h6.111c1.047 0 1.889.842 1.889 1.889v.222c0 .15-.022.291-.055.43A2.989 2.989 0 0 1 165 265h-5v13c0 1.662 1.338 3 3 3h11v-4c0-1.662 1.338-3 3-3s3 1.338 3 3v4h11c1.662 0 3-1.338 3-3v-11h2c2.216 0 4-1.784 4-4v-1c0-2.216-1.784-4-4-4h-2v-9c0-1.662-1.338-3-3-3h-10v-2c0-2.216-1.784-4-4-4z" fill="#396247"/><path d="M163.5 247a2.495 2.495 0 0 0-2.5 2.5v8.5h4c2.216 0 4 1.784 4 4s-1.784 4-4 4h-4v10.5c0 1.385 1.115 2.5 2.5 2.5h9.5v-3c0-2.216 1.784-4 4-4s4 1.784 4 4v3h9.5c1.385 0 2.5-1.115 2.5-2.5v-27c0-1.385-1.115-2.5-2.5-2.5z" fill="#73c48f"/><rect x="174" y="241" width="6" height="9.708" ry="3" fill="#73c48f"/><rect transform="rotate(-90)" x="-265" y="189.29" width="6" height="9.708" ry="3" fill="#73c48f"/><path d="M114.5 255a2.495 2.495 0 0 0-2.5 2.5v1.5h-7c-1.108 0-2 .892-2 2v9h5c.554 0 1 .446 1 1v.023a1.972 1.972 0 0 1-1.977 1.977H103v8c0 1.108.892 2 2 2h8v-3.5c0-.831.669-1.5 1.5-1.5s1.5.669 1.5 1.5v3.5h8c1.108 0 2-.892 2-2v-7h1.5c1.385 0 2.5-1.115 2.5-2.5v-1c0-1.385-1.115-2.5-2.5-2.5H126v-7c0-1.108-.892-2-2-2h-7v-1.5c0-1.385-1.115-2.5-2.5-2.5z" fill="#396247"/><path d="M105.5 260c-.831 0-1.5.669-1.5 1.5v6.5h3c1.662 0 3 1.338 3 3s-1.338 3-3 3h-3v5.5c0 .831.669 1.5 1.5 1.5h6.5v-2.5c0-1.385 1.115-2.5 2.5-2.5s2.5 1.115 2.5 2.5v2.5h6.5c.831 0 1.5-.669 1.5-1.5v-18c0-.831-.669-1.5-1.5-1.5z" fill="#73c48f"/><rect x="113" y="256" width="3" height="6" ry="1.5" fill="#73c48f"/><rect x="120.5" y="269" width="8.5" height="3" ry="1.481" fill="#73c48f"/><path d="M252.5 226a4.49 4.49 0 0 0-4.5 4.5v3.5h-14c-2.216 0-4 1.784-4 4v17h8.5c.831 0 1.5.669 1.5 1.5 0 1.939-1.561 3.5-3.5 3.5H230v17c0 2.216 1.784 4 4 4h15v-5.5c0-1.939 1.561-3.5 3.5-3.5s3.5 1.561 3.5 3.5v5.5h15c2.216 0 4-1.784 4-4v-14h3.5a4.49 4.49 0 0 0 4.5-4.5v-2a4.49 4.49 0 0 0-4.5-4.5H275v-14c0-2.216-1.784-4-4-4h-14v-3.5a4.49 4.49 0 0 0-4.5-4.5z" fill="#285f3b"/><path d="M234.5 235a3.492 3.492 0 0 0-3.5 3.5V252h5.5c2.493 0 4.5 2.007 4.5 4.5s-2.007 4.5-4.5 4.5H231v13.5c0 1.939 1.561 3.5 3.5 3.5H248v-4.75c0-2.493 2.007-4.5 4.5-4.5s4.5 2.007 4.5 4.5V278h13.5c1.939 0 3.5-1.561 3.5-3.5v-36c0-1.939-1.561-3.5-3.5-3.5z" fill="#73c48f"/><rect x="249" y="227" width="7" height="14" ry="3.5" fill="#73c48f"/><rect x="265" y="253" width="17" height="7" ry="3.5" fill="#73c48f"/></g></svg>