<svg version="1.0" viewBox="0 0 16 16" xmlns="http://www.w3.org/2000/svg"><g transform="translate(-16 -268)"><path d="M23 268c-1.108 0-2 .892-2 2v1h-2.5c-.831 0-1.5.669-1.5 1.5v3.5h2c.554 0 1 .446 1 1s-.446 1-1 1h-2v3.5c0 .831.669 1.5 1.5 1.5H22v-2c0-.554.446-1 1-1s1 .446 1 1v2h3.5c.831 0 1.5-.669 1.5-1.5V279h1c1.108 0 2-.892 2-2s-.892-2-2-2h-1v-2.5c0-.831-.669-1.5-1.5-1.5H25v-1c0-1.108-.892-2-2-2z" fill="#396247"/><path d="M19 272c-.554 0-1 .446-1 1v2h1c1.108 0 2 .892 2 2s-.892 2-2 2h-1v2c0 .554.446 1 1 1h2v-1c0-1.108.892-2 2-2s2 .892 2 2v1h2c.554 0 1-.446 1-1v-8c0-.554-.446-1-1-1z" fill="#73c48f"/><rect x="22" y="269" width="2" height="5" ry="1" fill="#73c48f"/><rect x="24" y="276" width="7" height="2" ry="1" fill="#73c48f"/></g></svg>