<svg version="1.0" viewBox="0 0 16 16" xmlns="http://www.w3.org/2000/svg"><g transform="translate(-16 -268)"><rect x="16" y="268" width="16" height="15" ry="2.5" fill="#ffcc85"/><path d="M25 273a1 1 0 0 0-1 1v3.094a1.464 1.464 0 0 0-.5-.094 1.5 1.5 0 1 0 1.5 1.5V275h3v2.094a1.464 1.464 0 0 0-.5-.094 1.5 1.5 0 1 0 1.5 1.5V274a1 1 0 0 0-1-1z" fill-opacity=".196"/><path d="M25 272a1 1 0 0 0-1 1v3.094a1.464 1.464 0 0 0-.5-.094 1.5 1.5 0 1 0 1.5 1.5V274h3v2.094a1.464 1.464 0 0 0-.5-.094 1.5 1.5 0 1 0 1.5 1.5V273a1 1 0 0 0-1-1z" fill="#fff"/><path d="M18.248 268.03A2.485 2.485 0 0 0 16 270.505v10c0 1.298.984 2.347 2.248 2.474A1.988 1.988 0 0 0 20 281.005v-11a1.988 1.988 0 0 0-1.752-1.975z" fill="#faa41a"/><path d="M18.5 268a2.57 2.57 0 0 0-.5.05v14.899c.161.032.329.05.5.05H20v-15z" fill="#faa41a"/><path d="M18.5 268a2.495 2.495 0 0 0-2.5 2.5v10c0 1.385 1.115 2.5 2.5 2.5h11c1.385 0 2.5-1.115 2.5-2.5v-10c0-1.385-1.115-2.5-2.5-2.5zm.5 1h10c1.108 0 2 .892 2 2v9c0 1.108-.892 2-2 2H19c-1.108 0-2-.892-2-2v-9c0-1.108.892-2 2-2z" fill-opacity=".502"/></g></svg>