<svg version="1.0" viewBox="0 0 16 16" xmlns="http://www.w3.org/2000/svg"><g transform="translate(-16 -268)"><rect x="16" y="269" width="16" height="14" ry="4" fill="#245c63"/><rect x="18" y="271" width="12" height="10" ry="2" fill="#fbfefe" stroke="#48b9c7" stroke-linecap="round" stroke-width="2"/><path d="M20 274.5v4h8v-4zm4 .5a1.5 1.5 0 1 1 0 3 1.5 1.5 0 0 1 0-3z" fill="#1c8d9b" fill-opacity=".502"/><path d="m23 273-1 1h-1.5c-.277 0-.5.223-.5.5h8c0-.277-.223-.5-.5-.5H26l-1-1zm-3 5.5c0 .277.223.5.5.5h7c.277 0 .5-.223.5-.5z" fill="#1c8d9b"/></g><style>.st0{fill:#261300}.st1{fill:#ff7c00}</style></svg>