<svg version="1.0" viewBox="0 0 16 16" xmlns="http://www.w3.org/2000/svg"><g transform="translate(-16 332)"><rect x="16" y="-331" width="16" height="14" ry="4" fill="#245c63"/><rect x="18" y="-329" width="12" height="10" ry="2" fill="#fbfefe" stroke="#48b9c7" stroke-linecap="round" stroke-width="2"/><path d="m19-327 1 3-1 3h1l.5-1.5.5 1.5h1l-1-3 1-3h-1l-.5 1.5-.5-1.5z" fill="#9b9291" fill-opacity=".751"/><path d="M23.5-327c-.831 0-1.5.669-1.5 1.5v3c0 .831.669 1.5 1.5 1.5s1.5-.669 1.5-1.5v-.5h-1v.5a.499.499 0 1 1-1 0v-3a.499.499 0 1 1 1 0v.5h1v-.5c0-.831-.669-1.5-1.5-1.5z" fill="#9b9291" fill-opacity=".751"/><path d="M26-327v6h1v-2h1v-1h-1v-2h2v-1h-2z" fill="#9b9291" fill-opacity=".751"/></g><style>.st0{fill:#261300}.st1{fill:#ff7c00}</style></svg>