<svg version="1.0" viewBox="0 0 16 16" xmlns="http://www.w3.org/2000/svg"><g transform="translate(-16 -268)"><rect x="17" y="269" width="15" height="14" ry="1" fill="#a19282"/><rect x="18" y="270" width="13" height="10" ry=".5" fill="#d7c3ad"/></g><path d="M6 10h1V8h2v2h1V6a2 2 0 0 0-2-2 2 2 0 0 0-2 2zm1-3V6a1 1 0 0 1 1-1 1 1 0 0 1 1 1v1z" fill="#635749"/><path d="M3 10h1V8l1 2h1l-.926-2.314A2 2 0 0 0 4 4H3v2zm1-4V5a1 1 0 1 1 0 2z" fill="#635749"/><path d="M11 10h1V8l1 2h1l-.926-2.314A2 2 0 0 0 12 4h-1v2zm1-4V5a1 1 0 1 1 0 2z" fill="#635749"/></svg>