<svg version="1.0" viewBox="0 0 16 16" xmlns="http://www.w3.org/2000/svg"><g transform="translate(-16 2732)"><rect x="17" y="-2731" width="15" height="14" ry="1" fill="#a19282"/><rect x="18" y="-2730" width="13" height="10" ry=".5" fill="#d7c3ad"/><g fill="#635749"><path d="m23-2728-3 6h-1l3-6z"/><path d="m19-2728 3 6h1l-3-6z"/></g><path d="M27-2722h1v-2l1 2h1l-.926-2.314A2 2 0 0 0 28-2728h-1v2zm1-4v-1a1 1 0 1 1 0 2z" fill="#635749"/><path d="M23-2722h1v-2h1v2h1v-4c0-1.105-.395-2-1.5-2s-1.5.895-1.5 2zm1-3v-1c0-.552-.052-1 .5-1s.5.448.5 1v1z" fill="#635749"/></g></svg>