<svg version="1.0" viewBox="0 0 16 16" xmlns="http://www.w3.org/2000/svg"><g transform="translate(-16 2132)"><rect x="17" y="-2131" width="15" height="14" ry="1" fill="#a19282"/><rect x="18" y="-2130" width="13" height="10" ry=".5" fill="#d7c3ad"/><path d="M23-2122h1v-2c.5 0 .76-.151 1.074-.315A2 2 0 0 0 24-2128h-1v2zm1-4v-1a1 1 0 1 1 0 2z" fill="#635749"/><path d="M27-2128v6h1v-3l.082-.082L29-2122h1l-1.305-3.695L30-2128h-1.11l-.89 1.89v-1.89z" fill="#635749"/><path d="M19-2122h1v-2h1v2h1v-4c0-1.105-.395-2-1.5-2s-1.5.895-1.5 2zm1-3v-1c0-.552-.052-1 .5-1s.5.448.5 1v1z" fill="#635749"/></g></svg>