<svg version="1.0" viewBox="0 0 16 16" xmlns="http://www.w3.org/2000/svg"><g transform="translate(-16 1832)"><rect x="17" y="-1831" width="15" height="14" ry="1" fill="#a19282"/><rect x="18" y="-1830" width="13" height="10" ry=".5" fill="#d7c3ad"/><path d="M26-1822v-6h1l1 2 1-2h1v6h-1v-3.5l-1 1.5-1-1.5v3.5z" fill="#635749"/><path d="M23-1822h1v-2c.5 0 .76-.151 1.074-.315A2 2 0 0 0 24-1828h-1v2zm1-4v-1a1 1 0 1 1 0 2z" fill="#635749"/><path d="M19-1822h1v-2l1 2h1l-.926-2.314A2 2 0 0 0 20-1828h-1v2zm1-4v-1a1 1 0 1 1 0 2z" fill="#635749"/></g></svg>