<svg version="1.0" viewBox="0 0 16 16" xmlns="http://www.w3.org/2000/svg"><g transform="translate(-16 2432)"><rect x="17" y="-2431" width="15" height="14" ry="1" fill="#a19282"/><rect x="18" y="-2430" width="13" height="10" ry=".5" fill="#d7c3ad"/><path d="M19-2422.5h1v-2h1v2h1v-4c0-1.105-.395-2-1.5-2s-1.5.895-1.5 2zm1-3v-1c0-.552-.052-1 .5-1s.5.448.5 1v1z" fill="#635749"/><path d="M28.5-2428.5c-1.108 0-1.5.892-1.5 2v2c0 1.108.392 2 1.5 2s1.5-.892 1.5-2h-1c0 .554.054 1-.5 1s-.5-.446-.5-1v-2c0-.554-.054-1 .5-1s.5.446.5 1h1c0-1.108-.392-2-1.5-2z" fill="#635749"/><path d="M23-2422.5h1v-2l1 2h1l-.926-2.314A2 2 0 0 0 24-2428.5h-1v2zm1-4v-1a1 1 0 1 1 0 2z" fill="#635749"/></g></svg>