<svg version="1.0" viewBox="0 0 16 16" xmlns="http://www.w3.org/2000/svg"><g transform="translate(-16 3332)"><rect x="17" y="-3331" width="15" height="14" ry="1" fill="#a19282"/><rect x="18" y="-3330" width="13" height="10" ry=".5" fill="#d7c3ad"/><g fill="#635749"><path d="M22-3322h1v-2h2v2h1v-4a2 2 0 0 0-2-2 2 2 0 0 0-2 2zm1-3v-1a1 1 0 0 1 1-1 1 1 0 0 1 1 1v1z"/><path d="M27-3322h1v-2l1 2h1l-.926-2.314A2 2 0 0 0 28-3328h-1v2zm1-4v-1a1 1 0 1 1 0 2z"/><path d="M19-3328v1h1v5h1v-5h1v-1z"/></g></g></svg>