<svg version="1.0" viewBox="0 0 16 16" xmlns="http://www.w3.org/2000/svg"><g transform="translate(-16 1532)"><rect x="17" y="-1531" width="15" height="14" ry="1" fill="#a19282"/><rect x="18" y="-1530" width="13" height="10" ry=".5" fill="#d7c3ad"/><g fill="#635749"><path d="M27-1528h1a1.5 1.5 0 0 1 1.197 2.4A2 2 0 0 1 28-1522h-1zm1 2a.5.5 0 0 0 0-1zm0 3a1 1 0 1 0 0-2z"/><path d="M23-1528h3v1h-3z"/><path d="M23-1523h3v1h-3z"/><path d="M23-1528h1v6h-1z"/><path d="M23.38-1526h1.625v1H23.38z"/><path d="M19-1528v6h1c1.108 0 2-.892 2-2v-2c0-1.108-.892-2-2-2zm1 1c.554 0 1 .446 1 1v2c0 .554-.446 1-1 1z"/></g></g></svg>