<svg version="1.0" viewBox="0 0 16 16" xmlns="http://www.w3.org/2000/svg"><g transform="translate(-16 32)"><rect x="17" y="-31" width="15" height="14" ry="1" fill="#a19282"/><rect x="18" y="-30" width="13" height="10" ry=".5" fill="#d7c3ad"/><rect x="18" y="-30" width="12" height="10" ry=".5" fill="#d7c3ad"/><path d="M19-28h4v1l-3 4h3v1h-4v-1l3-4h-3z" fill-opacity=".69"/><path fill-opacity=".69" d="M25-28v6h-1v-6z"/><path d="M30-26a2 2 0 0 0-2-2h-2v6h1v-2h1a2 2 0 0 0 2-2zm-1 0a1 1 0 0 1-1 1h-1v-2h1a1 1 0 0 1 1 1z" fill-opacity=".69"/></g></svg>