<svg version="1.0" viewBox="0 0 16 16" xmlns="http://www.w3.org/2000/svg"><g transform="translate(-16 6032)"><rect x="16" y="-6032" width="16" height="16" ry="2" fill="#6f6f6f"/><rect x="17" y="-6031" width="14" height="14" ry="1.5" fill="#ececec"/><path fill="#474341" fill-opacity=".69" d="M22-6023h6v1h-6z"/><path fill="#474341" fill-opacity=".69" d="M22-6021h6v1h-6z"/><path fill="#474341" fill-opacity=".69" d="M22-6019h6v1h-6z"/><path fill="#474341" fill-opacity=".69" d="M20-6023h1v1h-1z"/><path fill="#474341" fill-opacity=".69" d="M20-6021h1v1h-1z"/><path fill="#474341" fill-opacity=".69" d="M20-6019h1v1h-1z"/><path d="M24-6030a1 1 0 0 0-1 1v2.094a1.458 1.458 0 0 0-.5-.094 1.5 1.5 0 1 0 1.5 1.5v-2.5h3v1.094a1.458 1.458 0 0 0-.5-.094 1.5 1.5 0 1 0 1.5 1.5v-3.5a1 1 0 0 0-1-1z" fill="#474341" fill-opacity=".69"/></g></svg>