<svg version="1.0" viewBox="0 0 16 16" xmlns="http://www.w3.org/2000/svg"><path d="M3.5 0C2.669 0 2 .669 2 1.5v13c0 .831.669 1.5 1.5 1.5h9c.831 0 1.5-.669 1.5-1.5v-10L9.5 0z" fill="#6f6f6f"/><path d="M13 5v9c0 .554-.446 1-1 1H4c-.554 0-1-.446-1-1V2c0-.554.446-1 1-1h5" fill="#ececec"/><path d="M13 6H9c-.554 0-1-.446-1-1V1h1l4 4z" fill="#6f6f6f" fill-opacity=".502"/><path d="M13 5h-3c-.554 0-1-.446-1-1V1" fill="#fafafa"/><g transform="translate(-14.185 4281.48)" fill-rule="evenodd"><rect x="14.185" y="-4281.5" width="16" height="16" rx="2" ry="2" fill="#3f51b5"/><path d="M24.355-4272.8s.384.116.607.229c.077.039.21.117.307.22.095.1.141.202.141.202l1.53 2.671h-3.363l-1.143-2.146s-.234-.402-.378-.519c-.12-.097-.172-.126-.29-.132h-.581v2.796h-3v-7.999h5.575c.5 0 2.566.412 2.566 2.294 0 1.882-1.971 2.383-1.971 2.383zm-3.17-3.177v2h1.374s.626 0 .687-.979c.064-1.02-.688-1.02-.688-1.02z" fill="#fff"/></g></svg>