<svg version="1.0" viewBox="0 0 16 16" xmlns="http://www.w3.org/2000/svg"><g transform="translate(-16 3332)"><rect x="16" y="-3332" width="16" height="16" ry="2" fill="#393634"/><rect x="17" y="-3331" width="14" height="14" ry="1.5" fill="#726c68"/><g fill="#fff"><path d="M20.005-3318.02v-2l4-7 4 7v2l-1.5-1.5-2.5-4.5-2.5 4.5z"/><path d="M115.16-3924.9a.713.73 0 0 0-.68.513 4.312 4.312 0 0 1-3.253 2.946 4.218 4.218 0 0 1-4.092-1.483.713.73 0 1 0-1.094.938 5.636 5.636 0 0 0 5.46 1.979c2.033-.405 3.695-1.91 4.336-3.928a.713.73 0 0 0-.677-.965z" color="#000" style="font-feature-settings:normal;font-variant-alternates:normal;font-variant-caps:normal;font-variant-ligatures:normal;font-variant-numeric:normal;font-variant-position:normal;isolation:auto;mix-blend-mode:normal;shape-padding:0;text-decoration-color:#000;text-decoration-line:none;text-decoration-style:solid;text-indent:0;text-orientation:mixed;text-transform:none;white-space:normal" transform="translate(-86.875 600.88)"/><path d="M24.005-3330.02a3 3 0 0 0-3 3 3 3 0 0 0 3 3 3 3 0 0 0 3-3 3 3 0 0 0-3-3zm0 1.5a1.5 1.5 0 0 1 1.5 1.5 1.5 1.5 0 0 1-1.5 1.5 1.5 1.5 0 0 1-1.5-1.5 1.5 1.5 0 0 1 1.5-1.5z"/></g></g></svg>