<svg version="1.0" viewBox="0 0 16 16" xmlns="http://www.w3.org/2000/svg"><g transform="translate(-6 3268)"><rect x="6" y="-3268" width="16" height="16" rx="2" ry="2" fill="#1976d2" fill-rule="evenodd"/><g fill="#fff"><path d="M14-3266a.155.155 0 0 0-.135.07l-.285.463-.135.014-.37-.399c-.076-.08-.228-.049-.266.055l-.192.506-.13.04-.44-.317c-.09-.064-.23-.01-.248.104l-.088.535-.121.064-.494-.225c-.1-.046-.23.04-.225.15l.02.543-.104.086-.531-.125c-.108-.025-.217.084-.192.192l.125.53-.085.104-.543-.019c-.11-.01-.197.126-.15.227l.224.494-.065.12-.535.087c-.109.017-.168.16-.103.25l.316.44-.039.13-.508.19c-.103.038-.133.192-.053.268l.399.367-.016.137-.46.287c-.094.058-.094.211 0 .27l.46.284.016.137-.399.37c-.08.074-.05.226.053.265l.508.19.039.13-.316.442c-.065.09-.005.232.103.25l.535.086.065.12-.225.495c-.046.1.04.229.15.224l.543-.02.086.104-.125.531c-.025.108.084.217.192.192l.531-.125.104.086-.02.543c-.005.11.124.194.225.148l.494-.223.12.062.089.536c.018.109.158.167.248.103l.44-.316.13.039.192.508c.038.103.188.134.263.053l.371-.399.137.016.285.46c.058.094.214.094.272 0l.283-.46.137-.016.37.399c.076.08.228.05.266-.053l.19-.508.13-.04.44.317c.09.064.232.01.25-.103l.086-.536.121-.062.494.223c.1.046.229-.037.225-.148l-.02-.543.104-.086.531.125c.108.025.217-.084.192-.192l-.125-.531.085-.104.543.02c.11.01.197-.124.15-.224l-.224-.494.065-.121.535-.086c.109-.017.168-.16.103-.25l-.316-.442.039-.13.508-.19c.103-.038.133-.19.053-.266l-.399-.369.016-.137.46-.285c.094-.058.094-.211 0-.27l-.46-.286-.016-.137.399-.367c.08-.075.05-.23-.053-.268l-.508-.19-.04-.13.317-.44c.065-.089.006-.232-.103-.25l-.535-.088-.065-.119.225-.494c.046-.1-.04-.23-.15-.227l-.544.02-.085-.104.125-.531c.025-.108-.084-.217-.192-.192l-.53.125-.105-.086.02-.543c.004-.11-.124-.196-.225-.15l-.494.225-.121-.064-.084-.535c-.018-.109-.162-.168-.252-.104l-.44.316-.13-.039-.19-.506c-.038-.103-.19-.134-.265-.055l-.371.399-.135-.014-.285-.463A.159.159 0 0 0 14-3266zm0 1.5a4 4 0 0 1 4 4 4 4 0 0 1-4 4 4 4 0 0 1-4-4 4 4 0 0 1 4-4z"/><path d="M10-3263v1h1v3h-1v1h3v-1h-1v-1h1c1 0 1 2 2 2h2c1 0 1-2 1-2h-1s0 1-1 1c-.471 0-1-1-1-1h.5c.831 0 1.5-.669 1.5-1.5s-.669-1.5-1.5-1.5H14zm2 1h3a.499.499 0 1 1 0 1h-3z"/></g></g></svg>