<svg version="1.0" viewBox="0 0 16 16" xmlns="http://www.w3.org/2000/svg"><g transform="translate(-16 32)"><path d="M19.5-32c-.831 0-1.5.669-1.5 1.5v13c0 .831.669 1.5 1.5 1.5h9c.831 0 1.5-.669 1.5-1.5v-10L25.5-32z" fill="#6f6f6f"/><path d="M29-27v9c0 .554-.446 1-1 1h-8c-.554 0-1-.446-1-1v-12c0-.554.446-1 1-1h5" fill="#ececec"/><path d="M20-28v2l2 2-2 2v2l4-4z" fill="#6f6f6f" fill-opacity=".784"/><path d="M29-26h-4c-.554 0-1-.446-1-1v-4h1l4 4z" fill="#6f6f6f" fill-opacity=".502"/><rect x="23" y="-22" width="5" height="2" ry="1" fill="#6f6f6f" fill-opacity=".784"/><path d="M29-27h-3c-.554 0-1-.446-1-1v-3" fill="#fafafa"/></g></svg>