<svg version="1.0" viewBox="0 0 16 16" xmlns="http://www.w3.org/2000/svg"><g transform="translate(-16 332)"><path d="M19.5-332c-.831 0-1.5.669-1.5 1.5v13c0 .831.669 1.5 1.5 1.5h9c.831 0 1.5-.669 1.5-1.5v-10l-4.5-4.5z" fill="#6f6f6f"/><path d="M29-327v9c0 .554-.446 1-1 1h-8c-.554 0-1-.446-1-1v-12c0-.554.446-1 1-1h5" fill="#ececec"/><path d="M29-326h-4c-.554 0-1-.446-1-1v-4h1l4 4z" fill="#6f6f6f" fill-opacity=".502"/><path d="M29-327h-3c-.554 0-1-.446-1-1v-3" fill="#fafafa"/><rect x="20" y="-324" width="8" height="1" ry=".5" fill="#474341" fill-opacity=".69"/><rect x="20" y="-322" width="8" height="1" ry=".5" fill="#474341" fill-opacity=".69"/><rect x="20" y="-320" width="5" height="1" ry=".456" fill="#474341" fill-opacity=".69"/></g></svg>