<svg version="1.0" viewBox="0 0 16 16" xmlns="http://www.w3.org/2000/svg"><g transform="translate(-16 6691)"><path d="M19-6691s-2 0-2 2v1c0-2 2-2 2-2h10c2 0 2 2 2 2v-1s0-2-2-2z" fill="#fff" opacity=".1"/><path fill="#64b5f6" d="M17-6684h14v6H17z"/><circle cx="18.5" cy="-6688.5" r="2.5" fill="#1e88e5"/><circle cx="29.5" cy="-6688.5" r="2.5" fill="#1e88e5"/><path d="M24-6691a7 7 0 0 0-7 7h14a7 7 0 0 0-7-7z" fill="#64b5f6"/><path fill="#fff" d="M23-6683h1v2h-1z"/><path fill="#f2f2f2" d="M24-6683h1v2h-1z"/><path d="M23-6684a1 1 0 1 0 0 2c.51 0 .993-.444.993-.444h.014s.484.443.993.444a1 1 0 1 0 0-2z" fill="#1e88e5"/><ellipse cx="24" cy="-6683.5" rx="1.125" ry=".75" fill="#3e2723"/><g transform="translate(-11 -6258.2) scale(.0625)"><circle cx="512" cy="-6844" r="32" fill="#fefefe"/><circle transform="scale(-1 1)" cx="-505.14" cy="-6850.9" r="11.429" fill="#333"/></g><g transform="translate(-5 -6258.2) scale(.0625)"><circle cx="512" cy="-6844" r="32" fill="#fefefe"/><circle transform="scale(-1 1)" cx="-505.14" cy="-6850.9" r="11.429" fill="#333"/></g><rect x="17" y="-6681" width="14" height="6" ry="2" fill="#64b5f6"/></g></svg>