<svg version="1.0" viewBox="0 0 16 16" xmlns="http://www.w3.org/2000/svg"><g transform="translate(-16 1832)"><rect x="16" y="-1832" width="16" height="16" rx="2" ry="2" fill="#722613" fill-rule="evenodd"/><rect x="17" y="-1831" width="14" height="14" rx="1.75" ry="1.75" fill="#e44d26" fill-rule="evenodd"/><path d="m19.591-1829.05.803 9 3.6 1 3.612-1 .803-9zm1.641 1.84h5.53l-.027.296-.05.56-.022.248h-4.224l.1 1.13h4.023l-.027.297-.26 2.906-.016.186-2.259.626-.005.002-2.261-.628-.155-1.733h1.108l.079.88 1.23.332 1.231-.333.129-1.431H21.53l-.271-3.042-.027-.296z" fill="#fff"/><path d="m19.591-1829.05.803 9 3.6 1 .006-.001v-1.91l-.005.002-2.261-.628-.155-1.733h1.108l.079.88 1.23.332.004-.001v-1.763h-2.47l-.271-3.042-.027-.296H24v-1.84h-4.409zm2.848 2.944.1 1.13H24v-1.13h-.004z" opacity=".1"/></g></svg>