<svg version="1.0" viewBox="0 0 16 16" xmlns="http://www.w3.org/2000/svg"><path d="M3.5 0C2.669 0 2 .669 2 1.5v13c0 .831.669 1.5 1.5 1.5h9c.831 0 1.5-.669 1.5-1.5v-10L9.5 0z" fill="#6f6f6f"/><path d="M13 5v9c0 .554-.446 1-1 1H4c-.554 0-1-.446-1-1V2c0-.554.446-1 1-1h5" fill="#ececec"/><path d="M13 6H9c-.554 0-1-.446-1-1V1h1l4 4z" fill="#6f6f6f" fill-opacity=".502"/><path d="M13 5h-3c-.554 0-1-.446-1-1V1" fill="#fafafa"/><g transform="translate(-37 4647)"><rect x="37" y="-4647" width="16" height="16" rx="2" ry="2" fill="#455a64" fill-rule="evenodd"/><path d="M40-4643c-.545 0-1 .455-1 1v6c0 .545.455 1 1 1h10c.545 0 1-.455 1-1v-6c0-.545-.455-1-1-1zm0 1h10v6H40zm1 1v4h1v-2.188l1 1.563 1-1.563v2.188h1v-4h-1l-1 1.563-1-1.563zm6 0v2h-1l1 2h1l1-2h-1v-2z" color="#000" fill="#fff" style="isolation:auto;mix-blend-mode:normal;text-decoration-color:#000;text-decoration-line:none;text-decoration-style:solid;text-indent:0;text-transform:none;white-space:normal"/></g></svg>