<svg version="1.0" viewBox="0 0 16 16" xmlns="http://www.w3.org/2000/svg"><g transform="translate(-16 1532)"><rect x="16" y="-1532" width="16" height="16" ry="1.5" fill="#1f285a" fill-rule="evenodd"/><rect x="17" y="-1531" width="14" height="14" ry="1" fill="#3f51b5" fill-rule="evenodd"/><path d="M27.98-1522.4q-.047 1.016-.548 1.797-.5.775-1.41 1.202-.901.428-2.063.428-1.918 0-3.02-1.249-1.102-1.25-1.102-3.527v-.481q0-1.43.494-2.499.501-1.075 1.437-1.656.935-.588 2.164-.588 1.77 0 2.846.935 1.075.929 1.222 2.565h-2.338q-.027-.888-.448-1.276-.42-.387-1.282-.387-.875 0-1.283.655-.407.654-.427 2.09v.689q0 1.556.387 2.224.394.668 1.35.668.808 0 1.235-.38.428-.381.455-1.21z" fill="#fff"/></g></svg>