<svg version="1.0" viewBox="0 0 16 16" xmlns="http://www.w3.org/2000/svg"><g transform="translate(-16 632)"><rect x="17" y="-631" width="14" height="14" ry="1.5" fill="#6f6f6f"/><rect x="18" y="-630" width="12" height="12" ry="1" fill="#ececec"/><g transform="translate(0 150)"><path d="M23.001-779s-2.042-.107-2 1v1h-1c-1.108 0-1 2-1 2v2c0 2 1 2 1 2h7v-7c0-1-2-1-2-1z" fill="#3776ab"/><path d="M25.001-769c2 0 2-1 2-1v-1h1c1 0 1-2 1-2v-2c0-2-1-2-1-2h-1v2c0 1-1 1-1 1h-4c-1 0-1 2-1 2v2c0 1.108 2 1 2 1z" fill="#ffd343"/><circle cx="22.501" cy="-777.5" r=".5" fill="#fff"/><circle cx="25.501" cy="-770.5" r=".5" fill="#fff"/></g></g></svg>