<svg version="1.0" viewBox="0 0 16 16" xmlns="http://www.w3.org/2000/svg"><g fill-rule="evenodd" transform="translate(-16 932)"><rect x="16" y="-932" width="16" height="16" rx="2" ry="2" fill="#6e271b"/><rect x="17" y="-931" width="14" height="14" ry="1" fill="#dd4f37"/><g clip-rule="evenodd" fill="#fff"><path d="M22.425-920.7s-.458.267.327.357c.95.108 1.437.093 2.484-.105 0 0 .276.172.661.322-2.35 1.006-5.317-.058-3.472-.574z"/><path d="M22.138-922s-.514.38.272.462c1.015.105 1.817.113 3.206-.154 0 0 .192.195.493.301-2.84.83-6.003.065-3.97-.609z"/><path d="M24.558-924.3c.58.667-.152 1.266-.152 1.266s1.47-.758.795-1.709c-.63-.886-1.114-1.326 1.503-2.843 0 0-4.108 1.025-2.146 3.286z"/><path d="M27.665-919.7s.34.28-.373.496c-1.356.41-5.644.534-6.835.016-.428-.187.375-.445.627-.5.264-.056.414-.046.414-.046-.476-.336-3.078.658-1.321.943 4.79.777 8.73-.35 7.488-.91z"/><path d="M22.645-923.4s-2.18.518-.772.706c.595.08 1.78.061 2.885-.03.903-.076 1.809-.238 1.809-.238s-.318.136-.549.293c-2.215.583-6.493.312-5.261-.284 1.041-.504 1.888-.447 1.888-.447z"/><path d="M26.558-921.2c2.252-1.17 1.21-2.294.484-2.143-.178.037-.257.07-.257.07s.066-.104.192-.149c1.437-.505 2.543 1.49-.464 2.281 0 0 .035-.031.045-.059z"/><path d="M25.201-930s1.247 1.247-1.183 3.165c-1.948 1.539-.444 2.416 0 3.418-1.138-1.026-1.972-1.93-1.412-2.77.821-1.233 3.098-1.832 2.595-3.813z"/><path d="M22.867-918c2.16.138 5.48-.077 5.558-1.1 0 0-.15.388-1.786.696-1.844.347-4.12.307-5.468.084 0 0 .276.229 1.696.32z"/></g></g></svg>