<svg version="1.0" viewBox="0 0 16 16" xmlns="http://www.w3.org/2000/svg"><g transform="translate(-16 -268)"><rect x="17" y="269" width="15" height="14" ry="2" fill="#782e11"/><rect x="18" y="270" width="13" height="12" ry="1.5" fill="#f15d22"/><path d="M19.5 270c-.831 0-1.5.669-1.5 1.5v2.5h13v-2.5c0-.831-.669-1.5-1.5-1.5z"/><path d="m20 270-2 4h2l2-4z" fill="#f7f7f7"/><path d="m24 270-2 4h2l2-4z" fill="#f7f7f7"/><path d="m28 270-2 4h2l1.96-3.92a1.487 1.487 0 0 0-.46-.08z" fill="#f7f7f7"/><g transform="matrix(.5 0 0 .5 -33.839 154.68)" fill="#fff"><path d="m121.68 248.64 4-2v6l-4-2z" filter="url(#filter7554)"/><rect x="109.68" y="246.64" width="12" height="6" ry="2" filter="url(#filter7554)"/><path d="M111.14 240.64c-1.939 0-3.5 1.561-3.5 3.5s1.561 3.5 3.5 3.5 3.5-1.561 3.5-3.5-1.561-3.5-3.5-3.5zm0 2c.831 0 1.5.669 1.5 1.5s-.669 1.5-1.5 1.5-1.5-.669-1.5-1.5.669-1.5 1.5-1.5z" filter="url(#filter7554)"/><path d="M119.14 240.64c-1.939 0-3.5 1.561-3.5 3.5s1.561 3.5 3.5 3.5 3.5-1.561 3.5-3.5-1.561-3.5-3.5-3.5zm0 2c.831 0 1.5.669 1.5 1.5s-.669 1.5-1.5 1.5-1.5-.669-1.5-1.5.669-1.5 1.5-1.5z" filter="url(#filter7554)"/></g></g></svg>