<svg version="1.0" viewBox="0 0 16 16" xmlns="http://www.w3.org/2000/svg"><g transform="translate(-16 1832)"><path d="M19.5-1832c-.831 0-1.5.669-1.5 1.5v13c0 .831.669 1.5 1.5 1.5h9c.831 0 1.5-.669 1.5-1.5v-10l-4.5-4.5z" fill="#245c63"/><path d="M29-1827v9c0 .554-.446 1-1 1h-8c-.554 0-1-.446-1-1v-12c0-.554.446-1 1-1h5" fill="#48b9c7"/><path d="M29-1826h-4c-.554 0-1-.446-1-1v-4h1l4 4z" fill="#245c63" fill-opacity=".502"/><path d="M29-1827h-3c-.554 0-1-.446-1-1v-3" fill="#67d8e6"/><path d="M24-1821c3 0 3 2.502 3 2.502v.5h-6v-1s0-2 3-2.002z" color="#000" fill="#f6f7f8" style="text-decoration-line:none;text-indent:0;text-transform:none"/><circle cx="24" cy="-1824" r="2" fill="#fff"/></g></svg>