<svg version="1.0" viewBox="0 0 16 16" xmlns="http://www.w3.org/2000/svg"><g transform="translate(-16 -268)"><path d="M19.5 268c-.831 0-1.5.669-1.5 1.5v13c0 .831.669 1.5 1.5 1.5h9c.831 0 1.5-.669 1.5-1.5v-10l-4.5-4.5z" fill="#1f285a"/><path d="M29 273v9c0 .554-.446 1-1 1h-8c-.554 0-1-.446-1-1v-12c0-.554.446-1 1-1h5" fill="#3f51b5"/><path d="M29 274h-4c-.554 0-1-.446-1-1v-4h1l4 4z" fill="#1f285a" fill-opacity=".502"/><path d="M29 273h-3c-.554 0-1-.446-1-1v-3" fill="#6a7ce0"/><rect x="20" y="276" width="8" height="1" ry="0" fill="#fff"/><rect x="20" y="278" width="8" height="1" ry="0" fill="#fff"/><rect x="20" y="280" width="5" height="1" ry="0" fill="#fff"/></g></svg>