<svg version="1.0" viewBox="0 0 16 16" xmlns="http://www.w3.org/2000/svg"><path d="M3.5 0C2.669 0 2 .669 2 1.5v13c0 .831.669 1.5 1.5 1.5h9c.831 0 1.5-.669 1.5-1.5v-10L9.5 0z" fill="#7f6728"/><path d="M13 5v9c0 .554-.446 1-1 1H4c-.554 0-1-.446-1-1V2c0-.554.446-1 1-1h5" fill="#ffce51"/><path d="M13 6H9c-.554 0-1-.446-1-1V1h1l4 4z" fill="#7f6728" fill-opacity=".502"/><path d="M13 5h-3c-.554 0-1-.446-1-1V1" fill="#fffa7d"/><g transform="matrix(.25 0 0 .25 -55.5 169.5)" fill="#fff"><circle cx="246" cy="-638" r="8"/><path d="M258-650h12v8h-12z"/><path d="M270-638v12h-12z"/></g></svg>