<svg version="1.0" viewBox="0 0 16 16" xmlns="http://www.w3.org/2000/svg"><g transform="translate(-16 332)"><path d="M19.5-332c-.831 0-1.5.669-1.5 1.5v13c0 .831.669 1.5 1.5 1.5h9c.831 0 1.5-.669 1.5-1.5v-10l-4.5-4.5z" fill="#671d00"/><path d="M29-327v9c0 .554-.446 1-1 1h-8c-.554 0-1-.446-1-1v-12c0-.554.446-1 1-1h5" fill="#cf3b00"/><path d="M29-326h-4c-.554 0-1-.446-1-1v-4h1l4 4z" fill="#671d00" fill-opacity=".502"/><path d="M29-327h-3c-.554 0-1-.446-1-1v-3" fill="#f15d22"/><rect x="20" y="-321" width="8" height="1" ry="0" fill="#fff"/><rect x="20" y="-319" width="5" height="1" ry="0" fill="#fff"/><path d="M19.5-324a1.5 1.5 0 0 1 1.5-1.5 1.5 1.5 0 0 1 1.5 1.5 1.5 1.5 0 0 1-1.5 1.5v-1.5z" fill="#fffffe"/><rect x="24" y="-325" width="4" height="3" ry="0" fill="#fff"/></g></svg>