<svg version="1.0" viewBox="0 0 16 16" xmlns="http://www.w3.org/2000/svg"><path d="M3.5 0C2.669 0 2 .669 2 1.5v13c0 .831.669 1.5 1.5 1.5h9c.831 0 1.5-.669 1.5-1.5v-10L9.5 0z" fill="#6f4400"/><path d="M13 5v9c0 .554-.446 1-1 1H4c-.554 0-1-.446-1-1V2c0-.554.446-1 1-1h5" fill="#de8800"/><path d="M13 6H9c-.554 0-1-.446-1-1V1h1l4 4z" fill="#6f4400" fill-opacity=".502"/><path d="M13 5h-3c-.554 0-1-.446-1-1V1" fill="#faa41a"/><g transform="matrix(.5 0 0 .5 -50 474)" fill="#fff"><rect x="108" y="-932" width="16" height="4" ry="2"/><rect x="108" y="-926" width="16" height="4" ry="2"/></g></svg>