<svg version="1.0" viewBox="0 0 32 32" xmlns="http://www.w3.org/2000/svg"><g transform="translate(-100 48)"><path d="M120-19h-16c-1.108 0-2-.892-2-2v-18c0-1.108.892-2 2-2h16l11 11z" fill="#ffce51"/><path d="M104-41c-1.108 0-2 .892-2 2v18c0 1.108.892 2 2 2h16l11-11-11-11zm0 1h15.5l9.5 9.5-9.5 9.5H104c-.554 0-1-.446-1-1v-17c0-.554.446-1 1-1z" fill-opacity=".5"/><rect x="116" y="-33" width="16" height="17" ry="8" fill="#cf3b00"/><path d="M124-33c-4.432 0-8 3.568-8 8v1c0 4.432 3.568 8 8 8s8-3.568 8-8v-1c0-4.432-3.568-8-8-8zm0 1c3.878 0 7 3.122 7 7s-3.122 7-7 7-7-3.122-7-7 3.122-7 7-7z" fill-opacity=".5"/><path d="M121-29.5a1 1 0 0 0-1 1 1 1 0 0 0 .293.707l2.293 2.293-2.293 2.293a1 1 0 0 0-.293.707 1 1 0 0 0 1 1 1 1 0 0 0 .707-.293L124-24.086l2.283 2.283a1 1 0 0 0 .717.303 1 1 0 0 0 1-1 1 1 0 0 0-.293-.707l-2.293-2.293 2.283-2.283A1 1 0 0 0 128-28.5a1 1 0 0 0-1-1 1 1 0 0 0-.707.293L124-26.914l-2.283-2.283a1 1 0 0 0-.01-.01A1 1 0 0 0 121-29.5z" fill="#fff"/></g></svg>