<svg version="1.0" viewBox="0 0 32 32" xmlns="http://www.w3.org/2000/svg"><g transform="translate(-96 -252)"><circle cx="112" cy="269" r="15" opacity=".2"/><circle cx="112" cy="268" r="15" fill="#0079c1"/><path d="M112 253a15 15 0 0 0-15 15 15 15 0 0 0 .02.544A15 15 0 0 1 112 253.938a15 15 0 0 1 14.98 14.456A15 15 0 0 0 127 268a15 15 0 0 0-15-15z" fill="#fff" opacity=".2"/><path d="m111.29 256.95-1.99.49a.189.189 0 0 0-.146.178l.88 4.044.033.016a6.696 6.696 0 0 1 8.739 5.348l4.092-.897a.183.183 0 0 0 .098-.212l-.473-1.989a.188.188 0 0 0-.179-.147h-3.277a7.193 7.193 0 0 0-1.01-1.45l1.059-3a.196.196 0 0 0-.081-.229l-1.745-1.06a.186.186 0 0 0-.228.033l-2.201 2.2a7.24 7.24 0 0 0-1.99-.341l-1.369-2.886a.183.183 0 0 0-.212-.098zm-6.424 2.918a.211.211 0 0 0-.114.066l-1.45 1.434c-.062.061-.062.155-.017.229l1.695 2.804c-.3.505-.545 1.04-.717 1.614l-3.114.652a.181.181 0 0 0-.147.18v2.054a.19.19 0 0 0 .147.18l3.016.733c.161.666.404 1.295.734 1.875l-1.745 2.674c-.049.074-.03.165.033.228l1.435 1.451c.06.06.154.077.228.033l2.804-3.098v-.033a6.686 6.686 0 0 1-2.152-4.924 6.648 6.648 0 0 1 2.609-5.282l-3.114-2.837a.214.214 0 0 0-.13-.033zm13.858 9.604c-.662 2.998-3.34 5.25-6.538 5.25a6.61 6.61 0 0 1-2.396-.457l-.017.016-1.06 4.06a.166.166 0 0 0 .13.18l1.99.537a.19.19 0 0 0 .212-.097l1.565-2.853a7.184 7.184 0 0 0 1.76-.196l2.12 2.38a.18.18 0 0 0 .229.033l1.777-1.027a.181.181 0 0 0 .081-.212l-.864-2.984a7.247 7.247 0 0 0 1.256-1.581l3.179.18c.089.005.173-.045.196-.131l.538-1.973a.191.191 0 0 0-.098-.212l-4.06-.913z" fill="#fff"/></g></svg>