<svg version="1.0" viewBox="0 0 32 32" xmlns="http://www.w3.org/2000/svg"><g transform="translate(-96 -252)"><circle cx="112" cy="269" r="15" opacity=".2"/><circle cx="112" cy="268" r="15" fill="#8bc34a"/><path d="M112 253a15 15 0 0 0-15 15 15 15 0 0 0 .02.544A15 15 0 0 1 112 253.938a15 15 0 0 1 14.98 14.456A15 15 0 0 0 127 268a15 15 0 0 0-15-15z" fill="#fff" opacity=".2"/><path d="M112 256c-6.627 0-12 5.372-12 12s5.373 12 12 12 12-5.372 12-12-5.373-12-12-12zm.057 1.662c5.71 0 10.343 4.629 10.343 10.338 0 5.71-4.633 10.338-10.343 10.338-3.083 0-5.85-1.351-7.743-3.492.779-.604 2.081-.457 3.686-.274.769.088 1.645.188 2.55.208 2.528.015 5.248-.447 6.926-1.18 1.085-.476 1.78-.79 2.215-1.185.156-.128.239-.343.322-.565l.058-.15c.07-.18.171-.568.216-.779.02-.092.03-.191-.035-.243l-.234.044c-.737.442-2.577 1.283-4.3 1.318-2.137.044-6.442-2.15-6.891-2.383l-.045-.053c-.107-.257-.752-1.786-.888-2.108 3.1 2.04 5.668 3.17 7.638 3.346 2.19.194 3.897-1.001 4.627-1.512.143-.097.252-.173.296-.19l.049-.08c-.121-.769-1.27-4.493-2.135-5.387-.24-.245-.43-.484-.817-.712-3.131-1.825-10.565-2.924-10.913-2.974l-.058.017-.022.049-.03 1.715a44.161 44.161 0 0 0-2.18-.654c1.478-1.83 3.744-3.452 7.708-3.452zm2.732 5.472c.053 0 .106-.002.159 0a3.192 3.192 0 0 1 3.072 3.292 3.163 3.163 0 0 1-1.008 2.21 3.158 3.158 0 0 1-2.28.858 3.199 3.199 0 0 1-3.072-3.293 3.15 3.15 0 0 1 1.012-2.214 3.137 3.137 0 0 1 2.117-.853zm-.084.937c-.51.03-.993.238-1.37.592-.43.404-.684.95-.703 1.543a2.227 2.227 0 0 0 2.14 2.298 2.208 2.208 0 0 0 2.294-2.14 2.223 2.223 0 0 0-2.144-2.293 2.235 2.235 0 0 0-.217 0zm.583 1.11c.544 0 .982.294.982.658 0 .361-.438.658-.982.658-.545 0-.985-.297-.985-.658 0-.364.44-.659.985-.659z" fill="#fff" fill-rule="evenodd"/></g></svg>