<svg version="1.0" viewBox="0 0 32 32" xmlns="http://www.w3.org/2000/svg"><g transform="translate(-96 -252)"><rect transform="matrix(0 -1 -1 0 0 0)" x="-283" y="-126" width="28" height="28" rx="3" ry="3" opacity=".2"/><rect transform="matrix(0 -1 -1 0 0 0)" x="-282" y="-126" width="28" height="28" rx="3" ry="3" fill="#f2f2f2"/><path d="M101 254c-1.662 0-3 1.338-3 3v1c0-1.662 1.338-3 3-3h22c1.662 0 3 1.338 3 3v-1c0-1.662-1.338-3-3-3z" fill="#fff" opacity=".2"/><path d="M101 273v5h25v-1h-24v-4z"/><path d="M112.04 258.91c-2.655 0-6.582 1.277-6.582 4.453 0 3.047 3.773 4.102 6.201 4.102 2.53 0 4.883.623 4.883 2.588 0 1.914-2.23 2.802-4.834 2.802-2.958 0-4.394-1.97-4.394-2.978 0-.354-.55-.733-1.182-.733-.633 0-1.006.33-1.006.733v3.193c.025.73.36 1.465 1.23 1.465.939 0 1.211-.128 1.211-1.064 1.445.738 2.943 1.064 4.551 1.064 4.021 0 6.774-1.97 6.758-4.463-.025-4.029-4.86-4.502-7.187-4.502-2.402-.025-3.75-1.169-3.75-2.226 0-1.134 1.166-2.754 4.023-2.754 3.214 0 3.993 1.726 4.102 2.304.126.455.575.694 1.132.694.582 0 .977-.295.977-.723v-2.978c0-.378-.585-.88-1.211-.88-.531 0-1.078.2-1.104.704-.53-.403-2.297-.801-3.818-.801z"/></g></svg>