<svg version="1.0" viewBox="0 0 32 32" xmlns="http://www.w3.org/2000/svg"><g transform="translate(-96 -252)"><circle cx="112" cy="269" r="15" opacity=".2"/><circle cx="112" cy="268" r="15" fill="#04a"/><path d="M112 253a15 15 0 0 0-15 15 15 15 0 0 0 .02.544A15 15 0 0 1 112 253.938a15 15 0 0 1 14.98 14.456A15 15 0 0 0 127 268a15 15 0 0 0-15-15z" fill="#fff" opacity=".2"/><g fill="#fff"><path d="M116.905 258.624c-.045.027-.064.051-.053.033-.509.86-.513 1.987-.743 2.999a.374.374 0 0 1-.001.055c-.113 1.11-.476 2.24-.183 3.305a.374.374 0 0 1 .025.06c.054.072.124.137.165.145.03.006.076-.008.18-.08.114-.08.187-.225.22-.433a.374.374 0 0 1 .046-.04.374.374 0 0 1 .008-.064c.461-1.817.79-3.73.668-5.601a.374.374 0 0 1 0-.018c-.015-.086-.042-.137-.124-.237a.85.85 0 0 0-.106-.114c-.014-.01-.002-.012-.054-.009a.374.374 0 0 1-.048-.002z"/><path d="M121.052 259.503c-.784.379-1.186 1.3-1.728 2.039a.35.35 0 0 1-.039.105c-.68 1.207-1.548 2.403-1.64 3.798.005.221.13.347.262.375a.503.503 0 0 0 .44-.191c.008-.02.002-.04.014-.058a.35.35 0 0 1 .008-.013c1.235-1.696 2.168-3.708 2.934-5.663a.35.35 0 0 1 .002-.006c.053-.128.056-.179.009-.275-.014-.029-.152-.12-.227-.112a.35.35 0 0 1-.035 0z"/><path d="M108.942 260.067c-.125.023-.312.136-.445.188-.471.178-.731.582-.844 1.054-.114.483-.076 1.02 0 1.57.077.55.186 1.115.305 1.547.102.374.176.556.211.68v.094c0 .04-.02.037-.047.07-.015.008.015.047 0 .047a.2.2 0 0 1-.117.047c-.083.005-.148-.025-.234-.047-.059-.014-.135-.06-.118-.047-.027-.016-.076-.018-.093-.047 0 .011.016.01 0-.023-.02-.036-.04-.125-.07-.188-.067-.142-.12-.306-.212-.515a18.726 18.726 0 0 0-.68-1.407c-.262-.48-.57-.917-.913-1.218-.171-.15-.383-.301-.586-.352-.197-.049-.43-.007-.633.094a1.912 1.912 0 0 0-.938 1.266c-.115.505-.06 1.086.024 1.593.086.506.219.923.305 1.266.036.144.081.28.093.351 0 .072-.029.259-.047.329-.088.307-.304.82-.304.82s-4.09 10.862 4.687 10.102c.073-.006.237-.047.305-.047a27.4 27.4 0 0 0 4.805-1.453c.284-.137.658-.272 1.078-.47a51.52 51.52 0 0 0 2.906-1.452c1.013-.557 1.953-1.15 2.672-1.781.72-.633 1.245-1.326 1.148-2.016-.153-1.113-.891-1.94-1.875-2.578-.987-.641-2.218-1.084-3.445-1.406-1.227-.323-2.418-.585-3.328-.727-.455-.07-.881-.092-1.149-.14-.079-.014-.121-.034-.164-.048-.023-.003-.025-.01-.047-.023-.027-.016-.077-.018-.093-.047-.015-.027 0-.062 0-.094v-.726c-.015-.561-.048-1.302-.164-1.992-.118-.694-.299-1.357-.68-1.805a1.33 1.33 0 0 0-.938-.469 1.28 1.28 0 0 0-.375 0z"/></g></g></svg>