<svg version="1.0" viewBox="0 0 32 32" xmlns="http://www.w3.org/2000/svg"><path d="M15.29 2a1.071 1.071 0 0 0-1.07 1.072 1.071 1.071 0 0 0 1.07 1.07 1.071 1.071 0 0 0 1.072-1.07A1.071 1.071 0 0 0 15.29 2zm2.857 1.785a1.25 1.25 0 0 0-1.25 1.25 1.25 1.25 0 0 0 1.25 1.25 1.25 1.25 0 0 0 1.25-1.25 1.25 1.25 0 0 0-1.25-1.25zM15.29 5.572A1.429 1.429 0 0 0 13.862 7a1.429 1.429 0 0 0 1.428 1.428A1.429 1.429 0 0 0 16.72 7a1.429 1.429 0 0 0-1.43-1.428zm3.568 3.213A1.609 1.609 0 0 0 18.86 12h.002a1.608 1.608 0 0 0-.004-3.215zm-4.64 1.072a1.79 1.79 0 0 0-1.785 1.79 1.787 1.787 0 0 0 1.787 1.78h.002a1.786 1.786 0 0 0 1.783-1.786 1.788 1.788 0 0 0-1.785-1.784h-.002zm-4.387 4.28A10 10 0 0 0 6.005 22a10 10 0 0 0 10 10 10 10 0 0 0 10-10 10 10 0 0 0-3.826-7.851 10 10 0 0 1-6.174 2.136 10 10 0 0 1-6.174-2.148z" opacity=".2"/><path d="M15.29 1a1.071 1.071 0 0 0-1.072 1.072 1.071 1.071 0 0 0 1.072 1.07 1.071 1.071 0 0 0 1.072-1.07A1.071 1.071 0 0 0 15.29 1zm2.856 1.786a1.25 1.25 0 0 0-1.25 1.25 1.25 1.25 0 0 0 1.25 1.25 1.25 1.25 0 0 0 1.25-1.25 1.25 1.25 0 0 0-1.25-1.25zM15.29 4.572A1.429 1.429 0 0 0 13.862 6a1.429 1.429 0 0 0 1.428 1.428A1.429 1.429 0 0 0 16.718 6a1.429 1.429 0 0 0-1.428-1.428zm3.568 3.214A1.608 1.608 0 0 0 18.86 11h.002a1.608 1.608 0 0 0-.004-3.214zm-4.64 1.072a1.79 1.79 0 0 0-1.786 1.788 1.787 1.787 0 0 0 1.786 1.782h.002a1.786 1.786 0 0 0-.002-3.57z" fill="#03a9f4"/><path d="M9.83 13.14a10 10 0 0 0-3.825 7.863 10 10 0 0 0 10 10 10 10 0 0 0 10-10 10 10 0 0 0-3.826-7.852 10 10 0 0 1-6.174 2.137A10 10 0 0 1 9.83 13.14z" fill="#0d47a1"/><path d="M15.29 1a1.071 1.071 0 0 0-1.07 1.072 1.071 1.071 0 0 0 .123.498A1.071 1.071 0 0 1 15.29 2a1.071 1.071 0 0 1 .947.572 1.071 1.071 0 0 0 .125-.5A1.071 1.071 0 0 0 15.29 1zm2.857 1.785a1.25 1.25 0 0 0-1.25 1.25 1.25 1.25 0 0 0 .106.5 1.25 1.25 0 0 1 1.144-.75 1.25 1.25 0 0 1 1.145.75 1.25 1.25 0 0 0 .105-.5 1.25 1.25 0 0 0-1.25-1.25zM15.29 4.572A1.429 1.429 0 0 0 13.862 6a1.429 1.429 0 0 0 .092.5 1.429 1.429 0 0 1 1.336-.928 1.429 1.429 0 0 1 1.338.93A1.429 1.429 0 0 0 16.72 6a1.429 1.429 0 0 0-1.43-1.428zm3.568 3.213c-.886 0-1.606.722-1.605 1.61 0 .174.036.34.088.498a1.603 1.603 0 0 1 1.517-1.108c.712 0 1.309.467 1.52 1.108.052-.16.088-.326.088-.502a1.609 1.609 0 0 0-1.608-1.606zm-4.64 1.072a1.79 1.79 0 0 0-1.785 1.79c0 .173.033.339.08.498a1.787 1.787 0 0 1 1.705-1.287h.002c.81 0 1.487.544 1.705 1.283.047-.16.08-.325.08-.5a1.788 1.788 0 0 0-1.785-1.783zm-4.387 4.28A10 10 0 0 0 6.005 21a10 10 0 0 0 .025.492 10 10 0 0 1 3.801-7.355 10 10 0 0 0 6.174 2.148 10 10 0 0 0 6.174-2.137 10 10 0 0 1 3.804 7.438 10 10 0 0 0 .022-.586 10 10 0 0 0-3.826-7.852 10 10 0 0 1-6.174 2.137 10 10 0 0 1-6.174-2.148z" fill="#fff" opacity=".2"/></svg>