<svg version="1.0" viewBox="0 0 32 32" xmlns="http://www.w3.org/2000/svg"><g transform="translate(-96 -252)"><rect transform="matrix(0 -1 -1 0 0 0)" x="-283" y="-126" width="28" height="28" rx="3" ry="3" opacity=".2"/><rect transform="matrix(0 -1 -1 0 0 0)" x="-282" y="-126" width="28" height="28" rx="3" ry="3" fill="#1794d1"/><path d="M101 254c-1.662 0-3 1.338-3 3v1c0-1.662 1.338-3 3-3h22c1.662 0 3 1.338 3 3v-1c0-1.662-1.338-3-3-3z" fill="#fff" opacity=".2"/><path d="M112 259c-.801 1.964-1.284 3.25-2.176 5.155.547.58 1.218 1.255 2.308 2.017-1.172-.482-1.972-.966-2.569-1.469-1.142 2.382-2.93 5.776-6.56 12.297 2.853-1.647 5.064-2.662 7.125-3.05a5.222 5.222 0 0 1-.135-1.221l.004-.092c.045-1.827.996-3.233 2.122-3.137 1.126.095 2.002 1.655 1.957 3.483a5.12 5.12 0 0 1-.116.981c2.039.399 4.227 1.412 7.04 3.036a805.694 805.694 0 0 1-1.522-2.82c-.745-.577-1.523-1.328-3.108-2.142 1.09.283 1.87.61 2.478.975C114.039 264.06 113.65 262.87 112 259z" fill="#fff" fill-rule="evenodd"/></g></svg>