<svg version="1.0" viewBox="0 0 32 32" xmlns="http://www.w3.org/2000/svg"><g transform="translate(-89 -235.188) scale(.9375)"><circle cx="112" cy="269" r="16" opacity=".2"/><circle cx="112" cy="267.93" r="16" fill="#87a556"/><path d="M112 251.93a16 16 0 0 0-16 16 16 16 0 0 0 .021.58 16 16 0 0 1 15.98-15.58 16 16 0 0 1 15.978 15.42 16 16 0 0 0 .022-.42 16 16 0 0 0-16-16z" fill="#fff" opacity=".2"/><path d="m114.51 256.99 5.827 3.444-5.834 3.444.006-6.888zm-2.506 1.77c.427 0 .845.035 1.256.092v1.276a7.91 7.91 0 0 0-8.607 4.844l-1.08-.638c1.403-3.272 4.653-5.573 8.43-5.573zm0 3.12c.427 0 .846.05 1.25.136v1.296a4.835 4.835 0 0 0-1.25-.163 4.765 4.765 0 0 0-4.59 3.45l-1.12-.664c.828-2.356 3.079-4.056 5.71-4.056zm7.356.579a9.13 9.13 0 0 1 1.817 5.475c0 2.08-.702 4.005-1.875 5.547l-1.088-.645a7.875 7.875 0 0 0 1.7-4.902c0-1.82-.613-3.496-1.64-4.83zm-2.715 1.608a6.012 6.012 0 0 1-.058 7.812l-1.113-.657a4.742 4.742 0 0 0 1.315-3.288 4.767 4.767 0 0 0-1.244-3.223zm-15.26.423 5.827 3.444-5.833 3.444.006-6.888zm6.03 4.779a4.761 4.761 0 0 0 4.589 3.444 4.93 4.93 0 0 0 1.25-.163v1.302a6.005 6.005 0 0 1-1.25.137c-2.633 0-4.883-1.703-5.71-4.063l1.12-.657zm-2.761 1.627a7.91 7.91 0 0 0 7.35 4.948c.424 0 .838-.033 1.243-.097v1.269a8.974 8.974 0 0 1-1.243.091c-3.777 0-7.028-2.301-8.431-5.573l1.08-.638zm9.85 1.205 5.827 3.437-5.834 3.444.006-6.881z" fill="#fff"/></g></svg>