<svg enable-background="new" version="1.0" viewBox="0 0 32 32" xmlns="http://www.w3.org/2000/svg"><defs><filter id="a" x="-.024" y="-.024" width="1.048" height="1.048" color-interpolation-filters="sRGB"><feGaussianBlur stdDeviation="4.8"/></filter></defs><g transform="translate(-96 -252)"><circle cx="464" cy="32" r="240" filter="url(#a)" opacity=".1"/><circle cx="464" cy="32" r="240" filter="url(#a)" opacity=".2"/><circle cx="64" cy="273" r="11" opacity=".2"/><circle cx="168" cy="261" r="22" opacity=".2"/><circle cx="24" cy="276" r="8" fill="#3d91e7"/><circle cx="64" cy="272" r="11" fill="#3d91e7"/><path d="M64 261a11 11 0 0 0-11 11 11 11 0 0 0 .021.586A11 11 0 0 1 64 262a11 11 0 0 1 10.979 10.414A11 11 0 0 0 75 272a11 11 0 0 0-11-11Z" fill="#fff" opacity=".2"/><circle cx="168" cy="260" r="22" fill="#3d91e7"/><path d="M168 238a22 22 0 0 0-22 22 22 22 0 0 0 .021.586A22 22 0 0 1 168 239a22 22 0 0 1 21.979 21.414A22 22 0 0 0 190 260a22 22 0 0 0-22-22z" fill="#fff" opacity=".2"/><circle cx="464" cy="28" r="240" fill="#3d91e7"/><path d="M464-212A240 240 0 0 0 224 28a240 240 0 0 0 .041 1.172A240 240 0 0 1 464-210 240 240 0 0 1 703.959 28.828 240 240 0 0 0 704 28a240 240 0 0 0-240-240Z" fill="#fff" opacity=".2"/><circle cx="112" cy="269" r="15" enable-background="new" opacity=".2"/><circle cx="112" cy="268" r="15" enable-background="new" fill="#3d91e7"/><path d="M112 253a15 15 0 0 0-15 15 15 15 0 0 0 .02.544A15 15 0 0 1 112 253.938a15 15 0 0 1 14.98 14.456A15 15 0 0 0 127 268a15 15 0 0 0-15-15z" enable-background="new" fill="#fff" opacity=".2"/></g><path d="M16 4C9.373 4 4 9.373 4 16s5.373 12 12 12 12-5.373 12-12S22.627 4 16 4zm0 1c5.039 0 9.286 3.388 10.589 8.01a19.085 19.085 0 0 1-4.662 6.081c-.934.81-1.954 1.53-3.08 2.038-1.127.508-2.366.796-3.6.725a6.228 6.228 0 0 1-2.653-.761 20.015 20.015 0 0 0 5.68-4.58c1.043-1.222 1.955-2.61 2.306-4.177a5.67 5.67 0 0 0 .041-2.39c-.164-.786-.527-1.535-1.077-2.12a4.326 4.326 0 0 0-1.999-1.185 5.254 5.254 0 0 0-2.332-.083c-1.544.282-2.921 1.179-4.027 2.292-1.947 1.963-3.152 4.732-2.93 7.489a7.879 7.879 0 0 0 1.363 3.866c.177.253.37.494.579.723-1.153.403-2.347.69-3.558.852A10.947 10.947 0 0 1 5 16C5 9.925 9.925 5 16 5zm.07 2.223c.773.002 1.552.235 2.169.7.556.42.968 1.018 1.201 1.675s.294 1.369.214 2.06c-.16 1.385-.858 2.654-1.701 3.763-1.494 1.964-3.48 3.535-5.688 4.635-.226.113-.455.22-.686.323-.48-.42-.892-.92-1.206-1.475-.656-1.162-.873-2.541-.745-3.869.127-1.328.583-2.607 1.195-3.792.71-1.375 1.677-2.676 3.03-3.423.678-.373 1.444-.599 2.217-.597zm10.831 7.304c.064.482.099.974.099 1.473 0 6.075-4.925 11-11 11a10.978 10.978 0 0 1-8.479-3.991 19.803 19.803 0 0 0 3.63-1.206 6.78 6.78 0 0 0 1.674.937c1.726.662 3.686.566 5.432-.039 1.747-.605 3.296-1.69 4.647-2.952a19.999 19.999 0 0 0 3.997-5.222z" fill="#fff"/></svg>