<svg enable-background="new" version="1.0" viewBox="0 0 32 32" xmlns="http://www.w3.org/2000/svg"><defs><filter id="a" x="-.024" y="-.024" width="1.048" height="1.048" color-interpolation-filters="sRGB"><feGaussianBlur stdDeviation="4.8"/></filter></defs><g transform="translate(-96 -252)"><circle cx="464" cy="32" r="240" filter="url(#a)" opacity=".1"/><circle cx="464" cy="32" r="240" filter="url(#a)" opacity=".2"/><circle cx="64" cy="273" r="11" opacity=".2"/><circle cx="168" cy="261" r="22" opacity=".2"/><circle cx="24" cy="276" r="8" fill="#0087ed"/><circle cx="64" cy="272" r="11" fill="#0087ed"/><path d="M64 261a11 11 0 0 0-11 11 11 11 0 0 0 .021.586A11 11 0 0 1 64 262a11 11 0 0 1 10.979 10.414A11 11 0 0 0 75 272a11 11 0 0 0-11-11Z" fill="#fff" opacity=".2"/><circle cx="168" cy="260" r="22" fill="#0087ed"/><path d="M168 238a22 22 0 0 0-22 22 22 22 0 0 0 .021.586A22 22 0 0 1 168 239a22 22 0 0 1 21.979 21.414A22 22 0 0 0 190 260a22 22 0 0 0-22-22z" fill="#fff" opacity=".2"/><circle cx="464" cy="28" r="240" fill="#0087ed"/><path d="M464-212A240 240 0 0 0 224 28a240 240 0 0 0 .041 1.172A240 240 0 0 1 464-210 240 240 0 0 1 703.959 28.828 240 240 0 0 0 704 28a240 240 0 0 0-240-240Z" fill="#fff" opacity=".2"/><circle cx="112" cy="269" r="15" enable-background="new" opacity=".2"/><circle cx="112" cy="268" r="15" enable-background="new" fill="#0087ed"/><path d="M112 253a15 15 0 0 0-15 15 15 15 0 0 0 .02.544A15 15 0 0 1 112 253.938a15 15 0 0 1 14.98 14.456A15 15 0 0 0 127 268a15 15 0 0 0-15-15z" enable-background="new" fill="#fff" opacity=".2"/></g><path d="M15.148 6.331c-.44.264-1 .637-1.681 1.12-.67.473-1.384 1.088-2.142 1.846-.66.66-1.121 1.308-1.385 1.945-.252.648-.34 1.285-.263 1.912a4.68 4.68 0 0 0 .642 1.829 9.318 9.318 0 0 0 1.418 1.78l4.812 4.812 1.532-1.533L13.6 15.56c-1.044-1.044-1.626-1.956-1.747-2.736-.12-.78.209-1.56.989-2.34.165-.165.34-.33.527-.494l.527-.462c.176-.132.33-.253.462-.362.154-.11.27-.182.346-.215l9.86 9.86 1.532-1.533zm-.477 4.87-1.533 1.532 7.235 7.235a2.134 2.134 0 0 1-.215.346c-.11.132-.23.286-.362.461l-.461.528c-.164.188-.33.362-.495.527-.78.78-1.56 1.11-2.34.989-.78-.121-1.692-.703-2.736-1.747L9.282 16.59 7.75 18.122l4.812 4.812a9.318 9.318 0 0 0 1.78 1.417 4.688 4.688 0 0 0 1.83.643c.626.077 1.263-.011 1.911-.264.637-.263 1.285-.725 1.945-1.384.758-.758 1.373-1.472 1.845-2.142a26.96 26.96 0 0 0 1.12-1.681z" fill="#fff"/></svg>