<svg version="1.0" viewBox="0 0 32 32" xmlns="http://www.w3.org/2000/svg"><path d="M16 3C8.82 3 2.359 16.641 1.641 22.385.746 29.545 11.692 31 16 31s15.254-1.455 14.359-8.615C29.641 16.641 23.179 3 16 3z" fill-rule="evenodd" opacity=".2"/><path d="M16 2C8.82 2 2.359 15.641 1.641 21.385.746 28.545 11.692 30 16 30s15.254-1.455 14.359-8.615C29.641 15.641 23.179 2 16 2z" fill="#7986cb" fill-rule="evenodd"/><path d="M18.03 24.64c1.864-4.658 2.228-10.682.897-14.845-.35-1.094-.509-.84-1.131 1.801-.94 3.987-3.11 8.78-5.134 11.335-.559.706-.974 1.411-.922 1.567.178.534 2.394 1.168 4.134 1.182l1.734.014zm6.48-7.443c0-2.336-.898-4.531-2.466-6.025-.702-.669-.993-.835-.859-.49.91 2.338 1.749 5.626 2.02 7.912l.325 2.734.49-1.124c.33-.758.49-1.739.49-3.007zM9.47 18.215c1.944-1.448 3.942-3.445 5.185-5.183 1.803-2.523 2.69-4.569 1.979-4.569-.138 0-1.022.577-1.965 1.282-.943.706-2.766 1.826-4.05 2.489-2.307 1.19-2.341 1.223-2.736 2.55-.569 1.916-.505 4.383.114 4.383.107 0 .77-.428 1.473-.952z" fill="#fff"/><path d="M16 2C8.82 2 2.359 15.641 1.641 21.385c-.059.47-.064.915-.025 1.338.008-.113.01-.222.025-.338C2.359 16.641 8.821 3 16 3s13.641 13.641 14.359 19.385c.014.116.017.225.025.338a6.226 6.226 0 0 0-.025-1.338C29.641 15.641 23.179 2 16 2z" fill="#fff" fill-rule="evenodd" opacity=".2"/></svg>