<svg version="1.0" viewBox="0 0 32 32" xmlns="http://www.w3.org/2000/svg"><g transform="translate(-96 -252)"><circle cx="112" cy="269" r="15" opacity=".2"/><circle cx="112" cy="268" r="15" fill="#e95420"/><path d="M112 253a15 15 0 0 0-15 15 15 15 0 0 0 .02.544A15 15 0 0 1 112 253.938a15 15 0 0 1 14.98 14.456A15 15 0 0 0 127 268a15 15 0 0 0-15-15z" fill="#fff" opacity=".2"/><path d="M102.44 266.19a1.877 1.877 0 1 0 0 3.755 1.877 1.877 0 0 0 0-3.755zm13.405 8.533a1.877 1.877 0 1 0 1.876 3.25 1.877 1.877 0 0 0-1.876-3.25zm-9.327-6.656c0-1.855.922-3.494 2.332-4.487l-1.373-2.299a8.17 8.17 0 0 0-3.373 4.742c.593.483.972 1.22.972 2.044a2.63 2.63 0 0 1-.972 2.045 8.169 8.169 0 0 0 3.373 4.741l1.373-2.299a5.475 5.475 0 0 1-2.332-4.487zm5.484-5.484a5.484 5.484 0 0 1 5.462 4.998l2.676-.04a8.13 8.13 0 0 0-2.424-5.29 2.63 2.63 0 0 1-2.25-.182 2.63 2.63 0 0 1-1.285-1.861 8.156 8.156 0 0 0-5.793.548l1.304 2.337a5.461 5.461 0 0 1 2.31-.51zm0 10.969a5.462 5.462 0 0 1-2.31-.51l-1.305 2.337a8.158 8.158 0 0 0 5.794.548 2.63 2.63 0 0 1 1.284-1.861 2.63 2.63 0 0 1 2.251-.183 8.13 8.13 0 0 0 2.424-5.29l-2.676-.04a5.483 5.483 0 0 1-5.462 4.999zm3.843-12.14a1.877 1.877 0 1 0 1.877-3.25 1.877 1.877 0 0 0-1.877 3.25z" fill="#fff"/></g></svg>