<svg version="1.0" viewBox="0 0 32 32" xmlns="http://www.w3.org/2000/svg"><path d="M16 2C7.72 2 1.006 8.712 1 16.992v12.68A2.323 2.323 0 0 0 3.328 32h12.68C24.289 31.996 31 25.282 31 17c0-8.285-6.716-15-15-15z" opacity=".2"/><path d="M16 1C7.72 1 1.006 7.712 1 15.992v12.68A2.323 2.323 0 0 0 3.328 31h12.68C24.289 30.996 31 24.282 31 16c0-8.285-6.716-15-15-15z" fill="#294172"/><path d="M20.44 3.79a7.192 7.192 0 0 0-7.193 7.193v3.811H9.452c-3.973 0-7.193 3.205-7.193 7.177a7.193 7.193 0 1 0 14.384 0v-3.827h3.797c3.972 0 7.193-3.19 7.193-7.161A7.193 7.193 0 0 0 20.44 3.79zm-7.193 18.188a3.796 3.796 0 0 1-3.796 3.79c-2.096 0-3.811-1.7-3.811-3.796 0-2.097 1.715-3.829 3.811-3.829h3.26c.296 0 .536.24.536.536v3.299zm7.193-7.184h-3.261a.535.535 0 0 1-.536-.536v-3.282a3.797 3.797 0 0 1 3.796-3.79c2.097 0 3.812 1.7 3.812 3.796a3.823 3.823 0 0 1-3.812 3.812z" fill="#5484c6"/><path d="M13.25 14.79v-3.812a7.193 7.193 0 0 1 7.193-7.193c.602 0 1.03.068 1.588.214.814.214 1.478.88 1.478 1.656 0 .937-.68 1.62-1.697 1.62-.485 0-.66-.094-1.37-.094a3.797 3.797 0 0 0-3.796 3.79v3.283c0 .296.24.536.536.536h2.495a1.674 1.674 0 1 1 0 3.349h-3.03v3.829a7.192 7.192 0 0 1-7.193 7.192c-.603 0-1.03-.068-1.589-.214-.813-.213-1.478-.88-1.478-1.656 0-.937.68-1.62 1.698-1.62.484 0 .66.094 1.37.094a3.797 3.797 0 0 0 3.795-3.79v-3.3a.536.536 0 0 0-.536-.535H10.22a1.67 1.67 0 0 1-1.68-1.673c0-.937.76-1.676 1.698-1.676h3.012z" fill="#fff"/></svg>