<svg enable-background="new" version="1.0" viewBox="0 0 32 32" xmlns="http://www.w3.org/2000/svg"><defs><filter id="a" x="-.024" y="-.024" width="1.048" height="1.048" color-interpolation-filters="sRGB"><feGaussianBlur stdDeviation="4.8"/></filter></defs><g transform="translate(-96 -252)"><circle cx="464" cy="32" r="240" filter="url(#a)" opacity=".1"/><circle cx="464" cy="32" r="240" filter="url(#a)" opacity=".2"/><circle cx="64" cy="273" r="11" opacity=".2"/><circle cx="168" cy="261" r="22" opacity=".2"/><circle cx="24" cy="276" r="8" fill="#e95420"/><circle cx="64" cy="272" r="11" fill="#e95420"/><path d="M64 261a11 11 0 0 0-11 11 11 11 0 0 0 .021.586A11 11 0 0 1 64 262a11 11 0 0 1 10.979 10.414A11 11 0 0 0 75 272a11 11 0 0 0-11-11Z" fill="#fff" opacity=".2"/><circle cx="168" cy="260" r="22" fill="#e95420"/><path d="M168 238a22 22 0 0 0-22 22 22 22 0 0 0 .021.586A22 22 0 0 1 168 239a22 22 0 0 1 21.979 21.414A22 22 0 0 0 190 260a22 22 0 0 0-22-22z" fill="#fff" opacity=".2"/><circle cx="464" cy="28" r="240" fill="#e95420"/><path d="M464-212A240 240 0 0 0 224 28a240 240 0 0 0 .041 1.172A240 240 0 0 1 464-210 240 240 0 0 1 703.959 28.828 240 240 0 0 0 704 28a240 240 0 0 0-240-240Z" fill="#fff" opacity=".2"/><path d="M314.4-1.368c-16.225 0-29.373 13.147-29.373 29.373 0 16.219 13.147 29.368 29.373 29.368 16.219 0 29.368-13.149 29.368-29.368 0-16.227-13.147-29.373-29.368-29.373zm209.72 133.49c-14.049 8.11-18.858 26.066-10.751 40.109 8.112 14.049 26.066 18.861 40.116 10.751 14.044-8.109 18.856-26.065 10.746-40.112-8.109-14.043-26.066-18.856-40.111-10.748zM378.2 27.992c0-29.028 14.425-54.668 36.483-70.193l-21.473-35.97c-25.705 17.174-44.825 43.428-52.768 74.177 9.278 7.562 15.206 19.078 15.206 31.988 0 12.907-5.928 24.423-15.207 31.983 7.941 30.753 27.063 57.007 52.768 74.179l21.475-35.973c-22.059-15.522-36.483-41.16-36.483-70.193zm85.799-85.799c44.823 0 81.591 34.368 85.445 78.19l41.86-.612c-2.06-32.354-16.193-61.409-37.913-82.763-11.167 4.22-24.067 3.58-35.217-2.859-11.164-6.445-18.169-17.317-20.087-29.115A127.602 127.602 0 0 0 464-99.606c-20.312 0-39.502 4.768-56.549 13.211l20.405 36.57a85.44 85.44 0 0 1 36.142-7.983zm0 171.6a85.44 85.44 0 0 1-36.143-7.983l-20.409 36.573c17.048 8.44 36.24 13.21 56.552 13.21 11.811 0 23.234-1.637 34.088-4.64 1.919-11.798 8.925-22.67 20.09-29.12 11.15-6.436 24.05-7.075 35.217-2.855 21.719-21.355 35.852-50.41 37.908-82.764l-41.86-.611c-3.851 43.828-40.62 78.19-85.444 78.19zm60.113-189.93c14.048 8.114 32.005 3.3 40.112-10.743 8.112-14.049 3.303-32.005-10.746-40.117-14.046-8.109-32.002-3.297-40.114 10.752-8.109 14.043-3.297 32.001 10.748 40.108z" fill="#fff"/><path d="M154.4 257.33a2.67 2.67 0 1 0 0 5.34 2.67 2.67 0 0 0 0-5.34zm19.065 12.136a2.669 2.669 0 1 0 2.668 4.623 2.669 2.669 0 0 0-2.668-4.623zM160.2 260a7.788 7.788 0 0 1 3.317-6.381l-1.952-3.27a11.62 11.62 0 0 0-4.798 6.743A3.742 3.742 0 0 1 158.15 260c0 1.174-.54 2.22-1.383 2.908a11.618 11.618 0 0 0 4.797 6.743l1.953-3.27A7.787 7.787 0 0 1 160.2 260zm7.8-7.8a7.799 7.799 0 0 1 7.768 7.108l3.805-.055a11.564 11.564 0 0 0-3.447-7.524 3.74 3.74 0 0 1-3.201-.26 3.74 3.74 0 0 1-1.826-2.647 11.6 11.6 0 0 0-8.24.78l1.855 3.324A7.767 7.767 0 0 1 168 252.2zm0 15.6a7.768 7.768 0 0 1-3.286-.726l-1.855 3.325a11.601 11.601 0 0 0 8.24.78 3.742 3.742 0 0 1 1.826-2.648 3.741 3.741 0 0 1 3.202-.26 11.563 11.563 0 0 0 3.446-7.523l-3.806-.056A7.798 7.798 0 0 1 168 267.8zm5.465-17.266a2.669 2.669 0 1 0 2.67-4.622 2.669 2.669 0 0 0-2.67 4.622z" fill="#fff"/><circle cx="112" cy="269" r="15" enable-background="new" opacity=".2"/><circle cx="112" cy="268" r="15" enable-background="new" fill="#e95420"/><path d="M112 253a15 15 0 0 0-15 15 15 15 0 0 0 .02.544A15 15 0 0 1 112 253.938a15 15 0 0 1 14.98 14.456A15 15 0 0 0 127 268a15 15 0 0 0-15-15z" enable-background="new" fill="#fff" opacity=".2"/><path d="M102.44 266.19a1.877 1.877 0 1 0 0 3.755 1.877 1.877 0 0 0 0-3.755zm13.405 8.533a1.877 1.877 0 1 0 1.876 3.25 1.877 1.877 0 0 0-1.876-3.25zm-9.327-6.656c0-1.855.922-3.494 2.332-4.487l-1.373-2.299a8.17 8.17 0 0 0-3.373 4.742c.593.483.972 1.22.972 2.044a2.63 2.63 0 0 1-.972 2.045 8.169 8.169 0 0 0 3.373 4.741l1.373-2.299a5.475 5.475 0 0 1-2.332-4.487zm5.484-5.484a5.484 5.484 0 0 1 5.462 4.998l2.676-.04a8.13 8.13 0 0 0-2.424-5.29 2.63 2.63 0 0 1-2.25-.182 2.63 2.63 0 0 1-1.285-1.861 8.156 8.156 0 0 0-5.793.548l1.304 2.337a5.461 5.461 0 0 1 2.31-.51zm0 10.969a5.462 5.462 0 0 1-2.31-.51l-1.305 2.337a8.158 8.158 0 0 0 5.794.548 2.63 2.63 0 0 1 1.284-1.861 2.63 2.63 0 0 1 2.251-.183 8.13 8.13 0 0 0 2.424-5.29l-2.676-.04a5.483 5.483 0 0 1-5.462 4.999zm3.843-12.14a1.877 1.877 0 1 0 1.877-3.25 1.877 1.877 0 0 0-1.877 3.25z" fill="#fff"/><path d="M57.2 270.67a1.335 1.335 0 1 0 0 2.67 1.335 1.335 0 0 0 0-2.67zm9.533 6.068a1.335 1.335 0 1 0 1.334 2.312 1.335 1.335 0 0 0-1.335-2.312zm-6.633-4.733c0-1.32.656-2.485 1.658-3.19l-.976-1.636a5.81 5.81 0 0 0-2.398 3.372c.421.344.69.867.69 1.454s-.269 1.11-.69 1.454a5.81 5.81 0 0 0 2.398 3.372l.976-1.636a3.893 3.893 0 0 1-1.658-3.19zm3.9-3.9a3.9 3.9 0 0 1 3.884 3.554l1.903-.028a5.782 5.782 0 0 0-1.724-3.762 1.87 1.87 0 0 1-1.6-.13 1.87 1.87 0 0 1-.914-1.323 5.8 5.8 0 0 0-4.12.39l.928 1.662a3.884 3.884 0 0 1 1.643-.363zm0 7.8c-.587 0-1.144-.13-1.643-.363l-.928 1.662a5.777 5.777 0 0 0 4.12.39 1.87 1.87 0 0 1 .914-1.324 1.87 1.87 0 0 1 1.6-.13 5.782 5.782 0 0 0 1.723-3.761l-1.902-.028A3.9 3.9 0 0 1 64 275.905zm2.732-8.633a1.335 1.335 0 1 0 1.335-2.311 1.335 1.335 0 0 0-1.335 2.31z" fill="#fff"/><path d="M19.059 275.07a.934.934 0 1 0 0 1.869.934.934 0 0 0 0-1.869zm6.673 4.247a.934.934 0 1 0 .934 1.619.934.934 0 0 0-.934-1.618zm-4.643-3.313c0-.923.459-1.739 1.16-2.233l-.682-1.145a4.067 4.067 0 0 0-1.68 2.36 1.31 1.31 0 0 1 0 2.036 4.066 4.066 0 0 0 1.68 2.36l.683-1.144a2.725 2.725 0 0 1-1.161-2.234zm2.73-2.73a2.73 2.73 0 0 1 2.719 2.488l1.332-.02a4.047 4.047 0 0 0-1.207-2.633 1.31 1.31 0 0 1-1.76-1.017 4.059 4.059 0 0 0-2.883.273l.649 1.163a2.73 2.73 0 0 1 1.15-.254zm0 5.46c-.411 0-.8-.091-1.15-.254l-.65 1.164a4.044 4.044 0 0 0 2.885.273 1.31 1.31 0 0 1 1.76-1.018 4.047 4.047 0 0 0 1.206-2.633l-1.332-.02a2.73 2.73 0 0 1-2.719 2.488zm1.913-6.043a.934.934 0 1 0 .934-1.618.934.934 0 0 0-.934 1.618z" fill="#fff"/></g></svg>