<svg version="1.0" viewBox="0 0 32 32" xmlns="http://www.w3.org/2000/svg"><path fill="#e9e9e9" d="M32 0H0v32h32z"/><g transform="translate(-96 -252)"><rect transform="matrix(0 -1 -1 0 0 0)" x="-283" y="-126" width="28" height="28" rx="3" ry="3" opacity=".2"/><rect transform="matrix(0 -1 -1 0 0 0)" x="-282" y="-126" width="28" height="28" rx="3" ry="3" fill="#c70036"/><path d="M101 254c-1.662 0-3 1.338-3 3v1c0-1.662 1.338-3 3-3h22c1.662 0 3 1.338 3 3v-1c0-1.662-1.338-3-3-3z" fill="#fff" opacity=".2"/><path d="M117.55 266.7c.018.486-.142.722-.286 1.14l-.26.128c-.213.413.02.263-.131.59-.332.296-1.007.923-1.223.98-.157-.002.107-.185.142-.257-.444.305-.357.458-1.036.643l-.02-.044c-1.674.788-4-.773-3.97-2.904-.018.136-.051.102-.088.156-.086-1.096.506-2.196 1.506-2.647.977-.483 2.124-.285 2.823.368-.384-.504-1.15-1.038-2.057-.988-.888.014-1.72.579-1.998 1.192-.455.287-.508 1.105-.706 1.255-.267 1.962.502 2.81 1.803 3.807.205.138.058.159.085.264a3.53 3.53 0 0 1-1.154-.882c.173.253.36.498.6.691-.407-.137-.952-.987-1.11-1.022.702 1.258 2.85 2.206 3.975 1.736-.52.019-1.182.01-1.766-.206-.247-.126-.58-.388-.52-.437 1.535.574 3.12.434 4.448-.63.338-.264.707-.711.814-.717-.16.241.028.116-.096.33.336-.544-.146-.222.348-.938l.183.25c-.069-.45.56-.998.496-1.71.144-.218.16.234.008.736.212-.556.056-.646.11-1.105.058.154.136.318.176.481-.138-.538.141-.905.21-1.218-.068-.03-.213.238-.246-.397.005-.276.077-.144.105-.212-.054-.032-.196-.243-.283-.649.062-.095.168.248.253.261-.055-.322-.15-.568-.153-.815-.25-.52-.089.07-.29-.224-.266-.827.22-.192.252-.567.402.582.631 1.484.737 1.858a7.606 7.606 0 0 0-.369-1.325c.122.052-.197-.937.159-.282-.38-1.396-1.624-2.7-2.769-3.313.14.128.317.289.253.314-.57-.338-.47-.365-.55-.508-.464-.189-.495.015-.802 0-.874-.464-1.043-.415-1.847-.705l.036.171c-.58-.193-.675.073-1.3 0-.039-.029.2-.107.397-.135-.56.074-.534-.11-1.082.02.135-.095.278-.158.422-.238-.457.028-1.09.266-.895.05-.745.332-2.068.798-2.81 1.494l-.024-.156c-.34.409-1.483 1.22-1.574 1.75l-.091.02c-.177.3-.292.64-.432.948-.232.394-.34.152-.307.214-.455.923-.681 1.698-.877 2.335.14.208.003 1.253.056 2.089-.228 4.13 2.899 8.14 6.317 9.065.5.18 1.246.173 1.88.191-.748-.214-.845-.113-1.573-.367-.525-.248-.64-.53-1.013-.853l.148.26c-.73-.258-.425-.32-1.019-.508l.158-.205c-.237-.018-.627-.398-.733-.61l-.26.01c-.31-.383-.476-.66-.464-.874l-.083.15c-.095-.163-1.144-1.44-.6-1.143-.101-.092-.236-.15-.381-.415l.11-.126c-.261-.338-.482-.77-.465-.914.14.19.237.224.333.257-.662-1.641-.699-.09-1.2-1.67l.106-.009c-.081-.123-.13-.255-.196-.386l.046-.459c-.476-.55-.133-2.341-.064-3.323.048-.4.398-.825.664-1.491l-.162-.028c.31-.54 1.77-2.171 2.446-2.088.327-.411-.066 0-.13-.105.72-.744.946-.525 1.431-.66.524-.31-.449.122-.2-.118.904-.231.64-.526 1.821-.643.125.071-.289.11-.392.202.753-.37 2.386-.285 3.446.204 1.23.575 2.613 2.275 2.667 3.874l.062.016c-.03.636.098 1.371-.126 2.046l.151-.32" fill="#fff"/></g></svg>