<svg enable-background="new" version="1.0" viewBox="0 0 32 32" xmlns="http://www.w3.org/2000/svg"><defs><filter id="b" x="-.024" y="-.024" width="1.048" height="1.048" color-interpolation-filters="sRGB"><feGaussianBlur stdDeviation="2.72"/></filter><filter id="a" x="-.023" y="-.025" width="1.045" height="1.051" color-interpolation-filters="sRGB"><feGaussianBlur stdDeviation="4.24"/></filter></defs><path d="M240-176v96h32c8.836 0 15.999 7.164 16 16V96s0 128 128 128h272V-33.5c0-79.154-63.346-142.5-142.5-142.5H272z" color="#000" enable-background="accumulate" filter="url(#a)" opacity=".1" transform="translate(-96 -252)"/><path d="M240-176v96h32c8.836 0 15.999 7.164 16 16V96s0 128 128 128h272V-33.5c0-79.154-63.346-142.5-142.5-142.5H272z" color="#000" enable-background="accumulate" filter="url(#a)" opacity=".2" transform="translate(-96 -252)"/><path d="M53 264v7h3v5c0 4.566 3.635 7 8 7h11v-11.14c0-4.365-3.593-7.86-7.93-7.86H57z" color="#000" enable-background="accumulate" opacity=".2" style="isolation:auto;mix-blend-mode:normal;text-decoration-color:#000;text-decoration-line:none;text-decoration-style:solid;text-indent:0;text-transform:none;white-space:normal" transform="translate(-96 -252)"/><path d="M53 263v7h3v5c0 4.566 3.635 7 8 7h11v-11.14c0-4.365-3.593-7.86-7.93-7.86H57z" color="#000" enable-background="accumulate" fill="#fff" style="isolation:auto;mix-blend-mode:normal;text-decoration-color:#000;text-decoration-line:none;text-decoration-style:solid;text-indent:0;text-transform:none;white-space:normal" transform="translate(-96 -252)"/><path d="M1 4v8h4v9.094A9.889 9.889 0 0 0 14.906 31H32V13.906A9.889 9.889 0 0 0 22.094 4H5z" color="#000" enable-background="accumulate" opacity=".2"/><g color="#000"><path d="M1 3v8h4v9.094A9.889 9.889 0 0 0 14.906 30H32V12.906A9.889 9.889 0 0 0 22.094 3H5z" enable-background="accumulate" fill="#fff"/><path d="M3 5v4h2c1.047 0 2 .953 2 2v9.094C7 24.504 10.496 28 14.906 28H30V12.906C30 8.496 26.504 5 22.094 5H5z" enable-background="accumulate" fill="#4caf50"/><path d="M25 21c0 1.108-.892 2-2 2h-5.984v2H23c2.216 0 4-1.784 4-4z" enable-background="accumulate" fill="#a5d6a7"/><path d="M10 8v14c0 2.216 1.784 4 4 4h3.016v-2H14c-1.108 0-2-.892-2-2V8zm8.5 3a3.5 3.5 0 0 0-3.5 3.5V21h2v-6.5a1.5 1.5 0 1 1 3 0V21h2v-6.5a1.5 1.5 0 1 1 3 0V21h2v-6.5a3.5 3.5 0 0 0-3.5-3.5c-.982 0-1.864.411-2.5 1.063A3.483 3.483 0 0 0 18.5 11z" enable-background="accumulate" opacity=".2"/><path d="M10 7v14c0 2.216 1.784 4 4 4h3.016v-2H14c-1.108 0-2-.892-2-2V7zm8.5 3a3.5 3.5 0 0 0-3.5 3.5V20h2v-6.5a1.5 1.5 0 1 1 3 0V20h2v-6.5a1.5 1.5 0 1 1 3 0V20h2v-6.5a3.5 3.5 0 0 0-3.5-3.5c-.982 0-1.864.411-2.5 1.063A3.483 3.483 0 0 0 18.5 10z" enable-background="accumulate" fill="#fff"/></g><path d="M352-112V96c0 35.456 28.544 64 64 64h48.25v-32H416c-17.728 0-32-14.272-32-32v-208zm136 32c-30.928 0-56 25.072-56 56V80h32V-24c0-13.255 10.745-24 24-24s24 10.745 24 24V80h32V-24c0-13.255 10.745-24 24-24s24 10.745 24 24V80h32V-24c0-30.928-25.072-56-56-56-15.713 0-29.83 6.577-40 17-10.17-10.423-24.287-17-40-17z" color="#000" enable-background="accumulate" filter="url(#b)" opacity=".2" transform="translate(-96 -252)"/></svg>