<svg version="1.0" viewBox="0 0 32 32" xmlns="http://www.w3.org/2000/svg"><g transform="translate(-96 -252)"><circle cx="112" cy="269" r="15" opacity=".2"/><circle cx="112" cy="268" r="15" fill="#4c5263"/><path d="M126.65 271.08c-2.188 2.951-6.23 4.529-11.044 5.228-5.023.73-10.848.513-16.045.07.249.371.522.732.803 1.08 5.003.396 10.214 1.945 15.086 1.237 4.063-.59 8.036-3.174 10.555-5.4.275-.716.501-1.509.645-2.215z" color="#000" fill="#fff" fill-rule="evenodd" style="isolation:auto;mix-blend-mode:normal;text-decoration-color:#000;text-decoration-line:none;text-decoration-style:solid;text-indent:0;text-transform:none;white-space:normal"/><circle cx="112" cy="267.99" r="15" fill="none"/><path d="M115.75 277.31c-5.091.718-10.277.54-15.386.15 3.288 4.192 9.002 6.305 14.28 5.287 5.094-.876 9.56-4.606 11.358-9.446-3.025 2.146-6.599 3.448-10.252 4.009z" fill="#5294e2"/><path d="M106.58 252.97c-1.612 6.578-6.252 14.674-9.173 19.835 5.136 1.22 9.87 1.485 15.123 1.983-.076-.994-.812-11.801-.992-13.884-1.803-3.267-3.265-4.957-4.958-7.935zm6.199 8.43c2.39 4.923 2.391 9.793.991 13.389 1.972.012 5.19.232 8.678-1.488-2.868-6.548-9.67-11.901-9.67-11.901zm4.71 2.976c1.483.993 2.897 1.9 3.968 2.974 1.45 1.456 2.19 3.417 1.983 5.456 1.943-.977 3.228-2.606 3.967-3.968-1.292-1.19-3.535-2.366-5.95-3.223a58.857 58.857 0 0 0-3.968-1.24z" fill-rule="evenodd" opacity=".2"/><path d="M112 253a15 15 0 0 0-15 15 15 15 0 0 0 .02.544A15 15 0 0 1 112 253.938a15 15 0 0 1 14.98 14.456A15 15 0 0 0 127 268a15 15 0 0 0-15-15z" fill="#fff" opacity=".2"/><path d="M106.58 251.97c-1.612 6.578-6.252 14.674-9.173 19.835 5.136 1.22 9.87 1.485 15.123 1.983-.076-.994-.812-11.801-.992-13.884-1.803-3.267-3.265-4.957-4.958-7.935zm6.199 8.43c2.39 4.923 2.391 9.793.991 13.389 1.972.012 5.19.232 8.678-1.488-2.868-6.548-9.67-11.901-9.67-11.901zm4.71 2.976c1.483.993 2.897 1.9 3.968 2.974 1.45 1.456 2.19 3.417 1.983 5.456 1.943-.977 3.228-2.606 3.967-3.968-1.292-1.19-3.535-2.366-5.95-3.223a58.857 58.857 0 0 0-3.968-1.24z" fill="#fff" fill-rule="evenodd"/></g></svg>