<svg version="1.0" viewBox="0 0 32 32" xmlns="http://www.w3.org/2000/svg"><g color="#000"><path d="M1 4v8h4v9.094A9.889 9.889 0 0 0 14.906 31H32V13.906A9.889 9.889 0 0 0 22.094 4H5z" opacity=".2"/><path d="M1 3v8h4v9.094A9.889 9.889 0 0 0 14.906 30H32V12.906A9.889 9.889 0 0 0 22.094 3H5z" fill="#fff"/><path d="M3 5v4h2c1.047 0 2 .953 2 2v9.094C7 24.504 10.496 28 14.906 28H30V12.906C30 8.496 26.504 5 22.094 5H5z" fill="#4caf50"/><path d="M25 21c0 1.108-.892 2-2 2h-5.984v2H23c2.216 0 4-1.784 4-4z" fill="#a5d6a7"/><path d="M10 8v14c0 2.216 1.784 4 4 4h3.016v-2H14c-1.108 0-2-.892-2-2V8zm8.5 3a3.5 3.5 0 0 0-3.5 3.5V21h2v-6.5a1.5 1.5 0 1 1 3 0V21h2v-6.5a1.5 1.5 0 1 1 3 0V21h2v-6.5a3.5 3.5 0 0 0-3.5-3.5c-.982 0-1.864.411-2.5 1.063A3.483 3.483 0 0 0 18.5 11z" opacity=".2"/><path d="M10 7v14c0 2.216 1.784 4 4 4h3.016v-2H14c-1.108 0-2-.892-2-2V7zm8.5 3a3.5 3.5 0 0 0-3.5 3.5V20h2v-6.5a1.5 1.5 0 1 1 3 0V20h2v-6.5a1.5 1.5 0 1 1 3 0V20h2v-6.5a3.5 3.5 0 0 0-3.5-3.5c-.982 0-1.864.411-2.5 1.063A3.483 3.483 0 0 0 18.5 10z" fill="#fff"/></g></svg>