<svg version="1.0" viewBox="0 0 32 32" xmlns="http://www.w3.org/2000/svg"><g transform="translate(-96 -252)"><circle cx="112" cy="269" r="15" opacity=".2"/><circle cx="112" cy="268" r="15" fill="#0087ed"/><path d="M112 253a15 15 0 0 0-15 15 15 15 0 0 0 .02.544A15 15 0 0 1 112 253.938a15 15 0 0 1 14.98 14.456A15 15 0 0 0 127 268a15 15 0 0 0-15-15z" fill="#fff" opacity=".2"/><path d="M111.148 258.331c-.44.264-1 .637-1.681 1.12-.67.473-1.384 1.088-2.142 1.846-.66.66-1.121 1.308-1.385 1.945-.252.648-.34 1.285-.263 1.912a4.68 4.68 0 0 0 .642 1.829 9.318 9.318 0 0 0 1.418 1.78l4.812 4.812 1.532-1.533-4.482-4.482c-1.044-1.044-1.626-1.956-1.747-2.736-.12-.78.209-1.56.989-2.34.165-.165.34-.33.527-.494l.527-.462c.176-.132.33-.253.462-.362.154-.11.27-.182.346-.215l9.86 9.86 1.532-1.533zm-.477 4.87-1.533 1.532 7.235 7.235a2.134 2.134 0 0 1-.215.346c-.11.132-.23.286-.362.461l-.461.528c-.164.188-.33.362-.495.527-.78.78-1.56 1.11-2.34.989-.78-.121-1.692-.703-2.736-1.747l-4.482-4.482-1.533 1.532 4.812 4.812a9.318 9.318 0 0 0 1.78 1.417 4.688 4.688 0 0 0 1.83.643c.626.077 1.263-.011 1.911-.264.637-.263 1.285-.725 1.945-1.384.758-.758 1.373-1.472 1.845-2.142a26.96 26.96 0 0 0 1.12-1.681z" fill="#fff"/></g></svg>