<svg version="1.0" viewBox="0 0 32 32" xmlns="http://www.w3.org/2000/svg"><g transform="translate(-96 -252)"><circle cx="112" cy="269" r="15" opacity=".2"/><circle cx="112" cy="268" r="15" fill="#0068c8"/><path d="M112 253a15 15 0 0 0-15 15 15 15 0 0 0 .02.544A15 15 0 0 1 112 253.938a15 15 0 0 1 14.98 14.456A15 15 0 0 0 127 268a15 15 0 0 0-15-15z" fill="#fff" opacity=".2"/><path d="M112 253a15 15 0 0 0-1.299.066c.43-.037.86-.066 1.299-.066zm.074.004c.487.002.97.025 1.444.072a15 15 0 0 0-1.444-.072zm-2.164.158a15 15 0 0 0-.65.1c.214-.04.432-.07.65-.1zm-1.564.305a15 15 0 0 0-.512.13c.168-.048.34-.087.512-.13zm-1.442.44a15 15 0 0 0-.486.177c.16-.064.324-.119.486-.178zm-1.37.574a15 15 0 0 0-.462.222c.151-.079.307-.149.461-.222zm-1.278.691a15 15 0 0 0-.479.291c.156-.102.319-.194.479-.291zm16.189.434c.09.061.173.132.262.195a15 15 0 0 0-.262-.195zm-17.357.35a15 15 0 0 0-.516.386c.167-.135.343-.259.516-.387zm18.53.536c.124.103.237.218.356.324a15 15 0 0 0-.355-.324zm-19.653.383a15 15 0 0 0-.492.445c.157-.155.328-.297.492-.445zm20.729.611c.128.13.246.272.369.407a15 15 0 0 0-.37-.407zm-21.738.391a15 15 0 0 0-.488.54c.155-.187.324-.361.488-.54zm14.42.09c-.418-.015-2.71.66-3.381 1.51-2.023.146-10.182 5.71-14.975 9.093a15 15 0 0 0 .088 1.067c2.179-.84 4.714-1.718 5.74-1.711.202.002.349.033.416.111.394.465-1.284 2.716-3.018 5.264-.448.66-.9 1.335-1.334 1.99a15 15 0 0 0 .434.758c2.383-2.984 5.38-6.716 6.209-6.842v-.002a.197.197 0 0 1 .115.016c.147.18-2.584 4.539-5.031 8.545a15 15 0 0 0 .861.927c1.19-1.634 2.479-3.429 3.727-5.152 2.604-3.595 4.908-6.956 6.031-6.986a.599.599 0 0 1 .104.006c3.458.02 6.839 8.693 8.619 14.133a15 15 0 0 0 .742-.514c-.854-6.083-2.858-16.1-7.03-18.889.448-.298.485-1.828.485-1.828zm8.299.623c.11.137.212.282.318.424a15 15 0 0 0-.318-.424zm-23.662.424a15 15 0 0 0-.42.562c.132-.194.279-.375.42-.562zm24.54.785c.087.132.164.27.247.406a15 15 0 0 0-.246-.406zm.75 1.283c.075.143.14.29.21.436a15 15 0 0 0-.21-.436zm.614 1.338c.066.164.121.333.182.5a15 15 0 0 0-.182-.5zm.482 1.406c.05.17.092.343.135.516a15 15 0 0 0-.135-.516zm.344 1.453c.035.192.062.386.09.58a15 15 0 0 0-.09-.58zM97.08 266.48a15 15 0 0 0-.078 1.52c0-.513.028-1.02.078-1.52zm29.857.243c.036.421.064.846.064 1.277a15 15 0 0 0-.064-1.277zm-.004 2.654c-.006.071-.012.142-.02.213a15 15 0 0 0 .02-.213zm-29.758.797a15 15 0 0 0 .096.605c-.038-.2-.067-.402-.096-.605zm.305 1.535a15 15 0 0 0 .133.498c-.048-.165-.09-.331-.133-.498zm.45 1.457a15 15 0 0 0 .169.445c-.06-.146-.113-.296-.168-.445zm27.9.639-.026.066a15 15 0 0 0 .027-.066zm-27.306.756a15 15 0 0 0 .193.388c-.067-.128-.13-.258-.193-.388zm26.652.607-.035.062a15 15 0 0 0 .035-.062zm-24.992 2.062a15 15 0 0 0 .156.196c-.052-.065-.105-.13-.156-.196zm23.363.336-.127.155a15 15 0 0 0 .127-.155zm-1.023 1.116-.166.162a15 15 0 0 0 .166-.162zm-20.45.547a15 15 0 0 0 .338.302c-.116-.097-.224-.202-.337-.302zm19.272.503-.079.059a15 15 0 0 0 .079-.059zm-18.01.5a15 15 0 0 0 .232.172c-.08-.054-.154-.116-.232-.172zm11.262 2.538-.084.015a15 15 0 0 0 .084-.015z" fill="#fff"/></g></svg>