<svg enable-background="new" version="1.0" viewBox="0 0 32 32" xmlns="http://www.w3.org/2000/svg"><defs><filter id="a" x="-.027" y="-.022" width="1.053" height="1.044" color-interpolation-filters="sRGB"><feGaussianBlur stdDeviation="4.08"/></filter></defs><g color="#000"><path d="M272-16h112v-64h128v-112H272zm256-176v448h112v-448zM400-64v320h112V-64zM272 0v256h112V0z" enable-background="new" filter="url(#a)" opacity=".1" transform="translate(-96 -252)"/><path d="M272-16h112v-64h128v-112H272zm256-176v448h112v-448zM400-64v320h112V-64zM272 0v256h112V0z" enable-background="new" filter="url(#a)" opacity=".2" transform="translate(-96 -252)"/><path d="M4 14h7v-4h8V3H4zM20 3v28h7V3zm-8 8v20h7V11zm-8 4v16h7V15z" enable-background="new" opacity=".2"/><path d="M4 13h7V9h8V2H4zM20 2v28h7V2zm-8 8v20h7V10zm-8 4v16h7V14z" enable-background="new" fill="#00e676"/><path d="M4 2v1h15V2zm16 0v1h7V2zm-8 8v1h7v-1zm-8 4v1h7v-1z" enable-background="new" fill="#fff" opacity=".2"/></g></svg>