<svg enable-background="new" version="1.0" viewBox="0 0 32 32" xmlns="http://www.w3.org/2000/svg"><defs><filter id="a" x="-.024" y="-.024" width="1.048" height="1.048" color-interpolation-filters="sRGB"><feGaussianBlur stdDeviation="4.48"/></filter><filter id="e" x="-.06" y="-.06" width="1.12" height="1.12" color-interpolation-filters="sRGB"><feGaussianBlur stdDeviation="5.6"/></filter><filter id="b" x="-.06" y="-.06" width="1.12" height="1.12" color-interpolation-filters="sRGB"><feGaussianBlur stdDeviation="5.6"/></filter><filter id="d" x="-.06" y="-.06" width="1.12" height="1.12" color-interpolation-filters="sRGB"><feGaussianBlur stdDeviation="8"/></filter><clipPath id="c"/></defs><path d="M527.98-192A160 160 0 0 0 370.77-61.2 160 160 0 0 0 239.99 95.98v135.53A24.436 24.436 0 0 0 264.48 256h135.53a160 160 0 0 0 157.21-130.8A160 160 0 0 0 688-31.98v-135.53A24.44 24.44 0 0 0 663.51-192h-66.934z" filter="url(#a)" opacity=".1" transform="translate(-96 -252)"/><path d="M527.98-192A160 160 0 0 0 370.77-61.2 160 160 0 0 0 239.99 95.98v135.53A24.436 24.436 0 0 0 264.48 256h135.53a160 160 0 0 0 157.21-130.8A160 160 0 0 0 688-31.98v-135.53A24.44 24.44 0 0 0 663.51-192h-66.934z" filter="url(#a)" opacity=".2" transform="translate(-96 -252)"/><path d="M20 3a10 10 0 0 0-9.999 10.001A10 10 0 0 0 20 23a10 10 0 0 0 10.001-9.999v-8.47c0-.848-.683-1.531-1.53-1.531h-4.184z" opacity=".2"/><path d="M12 11a10 10 0 0 0-10.001 9.999v8.47c0 .848.683 1.531 1.53 1.531H12a10 10 0 0 0 10-10.001A10 10 0 0 0 12 11z" opacity=".2"/><path d="M528 84c62.048 0 112-49.952 112-112v-112H528c-62.048 0-112 49.952-112 112S465.952 84 528 84z" filter="url(#b)" opacity=".2" transform="translate(-96 -252)"/><path d="M20 2a10 10 0 0 0-9.999 10.001A10 10 0 0 0 20 22a10 10 0 0 0 10.001-9.999v-8.47c0-.848-.683-1.531-1.53-1.531h-4.184z" fill="#666"/><path d="M20 20c3.878 0 7-3.122 7-7V6h-7c-3.878 0-7 3.122-7 7s3.122 7 7 7z" opacity=".2"/><path d="M20 19c3.878 0 7-3.122 7-7V5h-7c-3.878 0-7 3.122-7 7s3.122 7 7 7z" fill="#ececec"/><path d="M12 10a10 10 0 0 0-10.001 9.999v8.47c0 .848.683 1.531 1.53 1.531H12a10 10 0 0 0 10-10.001A10 10 0 0 0 12 10z" fill="gray"/><path d="M20 2a10 10 0 0 0-9.998 10.002 10 10 0 0 0 .021.414A10 10 0 0 1 20 3h8.47c.848 0 1.532.683 1.532 1.531v-1c0-.848-.684-1.53-1.531-1.53h-4.184z" fill="#fff" opacity=".2"/><path d="M12 14c-3.878 0-7 3.122-7 7v7h7c3.878 0 7-3.122 7-7s-3.122-7-7-7z" opacity=".2"/><path d="M12 10a10 10 0 0 0-10.002 9.998v1A10 10 0 0 1 12 11a10 10 0 0 1 9.977 9.584 10 10 0 0 0 .021-.586A10 10 0 0 0 12 10z" fill="#fff" opacity=".2"/><path d="M400.02-62C311.655-62.007 240.01 9.619 240 97.98v135.53c0 13.568 10.927 24.844 24.49 24.49h135.53c88.365-.01 159.99-71.651 159.98-160.02C559.99 9.628 488.368-61.99 400.02-62z" clip-path="url(#c)" filter="url(#d)" opacity=".5" transform="translate(-96 -252)"/><path d="M12 13c-3.878 0-7 3.122-7 7v7h7c3.878 0 7-3.122 7-7s-3.122-7-7-7z" fill="#fff"/><path d="M400-12c-62.048 0-112 49.952-112 112v112h112c62.048 0 112-49.952 112-112S462.048-12 400-12z" filter="url(#e)" opacity=".2" transform="translate(-96 -252)"/></svg>