<svg enable-background="new" version="1.0" viewBox="0 0 32 32" xmlns="http://www.w3.org/2000/svg"><defs><filter id="a" x="-.024" y="-.024" width="1.048" height="1.048" color-interpolation-filters="sRGB"><feGaussianBlur stdDeviation="4.8"/></filter></defs><g transform="translate(-96 -252)"><circle cx="464" cy="30" r="240" opacity=".2"/><circle cx="112" cy="269" r="15" enable-background="new" opacity=".2"/><circle cx="464" cy="32" r="240" filter="url(#a)" opacity=".1"/><circle cx="464" cy="32" r="240" filter="url(#a)" opacity=".2"/><circle cx="64" cy="273" r="11" opacity=".2"/><circle cx="168" cy="261" r="22" opacity=".2"/><circle cx="24" cy="276" r="8" fill="#0079c1"/><circle cx="64" cy="272" r="11" fill="#0079c1"/><path d="M64 261a11 11 0 0 0-11 11 11 11 0 0 0 .021.586A11 11 0 0 1 64 262a11 11 0 0 1 10.979 10.414A11 11 0 0 0 75 272a11 11 0 0 0-11-11Z" fill="#fff" opacity=".2"/><circle cx="168" cy="260" r="22" fill="#0079c1"/><path d="M168 238a22 22 0 0 0-22 22 22 22 0 0 0 .021.586A22 22 0 0 1 168 239a22 22 0 0 1 21.979 21.414A22 22 0 0 0 190 260a22 22 0 0 0-22-22z" fill="#fff" opacity=".2"/><circle cx="464" cy="28" r="240" fill="#0079c1"/><path d="M464-212A240 240 0 0 0 224 28a240 240 0 0 0 .041 1.172A240 240 0 0 1 464-210 240 240 0 0 1 703.959 28.828 240 240 0 0 0 704 28a240 240 0 0 0-240-240Z" fill="#fff" opacity=".2"/><circle cx="112" cy="268" r="15" enable-background="new" fill="#0079c1"/><path d="M112 253a15 15 0 0 0-15 15 15 15 0 0 0 .02.544A15 15 0 0 1 112 253.938a15 15 0 0 1 14.98 14.456A15 15 0 0 0 127 268a15 15 0 0 0-15-15z" enable-background="new" fill="#fff" opacity=".2"/></g><path d="m15.29 4.95-1.99.49a.189.189 0 0 0-.146.178l.88 4.044.033.016a6.696 6.696 0 0 1 8.739 5.348l4.092-.897a.183.183 0 0 0 .098-.212l-.473-1.989a.188.188 0 0 0-.179-.147h-3.277a7.193 7.193 0 0 0-1.01-1.45l1.059-3a.196.196 0 0 0-.081-.229l-1.745-1.06a.186.186 0 0 0-.228.033l-2.201 2.2a7.24 7.24 0 0 0-1.99-.341l-1.369-2.886a.183.183 0 0 0-.212-.098zM8.866 7.868a.211.211 0 0 0-.114.065l-1.45 1.435c-.062.061-.062.155-.017.229L8.98 12.4c-.3.505-.545 1.04-.717 1.614l-3.114.652a.181.181 0 0 0-.147.18V16.9a.19.19 0 0 0 .147.18l3.016.733c.161.666.404 1.295.734 1.875l-1.745 2.674c-.049.074-.03.165.033.228l1.435 1.451c.06.06.154.077.228.033l2.804-3.098v-.033a6.686 6.686 0 0 1-2.152-4.924 6.648 6.648 0 0 1 2.609-5.282L8.997 7.9a.214.214 0 0 0-.13-.033zm13.858 9.603c-.662 3-3.34 5.25-6.538 5.25a6.61 6.61 0 0 1-2.396-.456l-.017.016-1.06 4.06a.166.166 0 0 0 .13.18l1.99.537a.19.19 0 0 0 .212-.097l1.565-2.853a7.184 7.184 0 0 0 1.76-.196l2.12 2.38a.18.18 0 0 0 .229.033l1.777-1.027a.181.181 0 0 0 .081-.212l-.864-2.984a7.247 7.247 0 0 0 1.256-1.581l3.179.18c.089.005.173-.045.196-.131l.538-1.973a.191.191 0 0 0-.098-.212l-4.06-.913z" fill="#fff"/></svg>