<svg version="1.0" viewBox="0 0 32 32" xmlns="http://www.w3.org/2000/svg"><path d="M5 3h8l3 3h11c1.108 0 2 .892 2 2v20c0 1.108-.892 2-2 2H5c-1.108 0-2-.892-2-2V5c0-1.108.892-2 2-2z" fill="#48b9c7"/><path d="M5 3c-1.108 0-2 .892-2 2v23c0 1.108.892 2 2 2h22c1.108 0 2-.892 2-2V8c0-1.108-.892-2-2-2H16l-3-3zm0 5h22c.554 0 1 .446 1 1v18c0 .554-.446 1-1 1H5c-.554 0-1-.446-1-1V9c0-.554.446-1 1-1z" fill-opacity=".25"/><path d="M5 7c-1.108 0-2 .892-2 2v19c0 1.108.892 2 2 2h22c1.108 0 2-.892 2-2V9c0-1.108-.892-2-2-2zm0 1h22c.554 0 1 .446 1 1v18c0 .554-.446 1-1 1H5c-.554 0-1-.446-1-1V9c0-.554.446-1 1-1z" fill-opacity=".25"/><path d="M15 12a2 2 0 0 0-2 2v6.188A2.927 2.927 0 0 0 12 20a3 3 0 1 0 3 3v-7h6v4.188A2.927 2.927 0 0 0 20 20a3 3 0 1 0 3 3v-9a2 2 0 0 0-2-2z" fill-opacity=".314"/><path d="M15 11a2 2 0 0 0-2 2v6.188A2.927 2.927 0 0 0 12 19a3 3 0 1 0 3 3v-7h6v4.188A2.927 2.927 0 0 0 20 19a3 3 0 1 0 3 3v-9a2 2 0 0 0-2-2z" fill="#fff"/></svg>