<svg version="1.0" viewBox="0 0 32 32" xmlns="http://www.w3.org/2000/svg"><path d="M5 3h8l3 3h11c1.108 0 2 .892 2 2v20c0 1.108-.892 2-2 2H5c-1.108 0-2-.892-2-2V5c0-1.108.892-2 2-2z" fill="#48b9c7"/><path d="M5 3c-1.108 0-2 .892-2 2v23c0 1.108.892 2 2 2h22c1.108 0 2-.892 2-2V8c0-1.108-.892-2-2-2H16l-3-3zm0 5h22c.554 0 1 .446 1 1v18c0 .554-.446 1-1 1H5c-.554 0-1-.446-1-1V9c0-.554.446-1 1-1z" fill-opacity=".25"/><path d="M5 7c-1.108 0-2 .892-2 2v19c0 1.108.892 2 2 2h22c1.108 0 2-.892 2-2V9c0-1.108-.892-2-2-2zm0 1h22c.554 0 1 .446 1 1v18c0 .554-.446 1-1 1H5c-.554 0-1-.446-1-1V9c0-.554.446-1 1-1z" fill-opacity=".25"/><g fill-opacity=".314"><path d="M18 11v6h2.5L16 24l-4.5-7H14v-6z"/><path d="M11 25a1 1 0 0 0 0 2h10a1 1 0 0 0 0-2z"/></g><g fill="#fff"><path d="M18 10v6h2.5L16 23l-4.5-7H14v-6z"/><path d="M11 24a1 1 0 0 0 0 2h10a1 1 0 0 0 0-2z"/></g></svg>