<svg version="1.0" viewBox="0 0 32 32" xmlns="http://www.w3.org/2000/svg"><path d="M5 3h8l3 3h11c1.108 0 2 .892 2 2v20c0 1.108-.892 2-2 2H5c-1.108 0-2-.892-2-2V5c0-1.108.892-2 2-2z" fill="#48b9c7"/><path d="M5 3c-1.108 0-2 .892-2 2v23c0 1.108.892 2 2 2h22c1.108 0 2-.892 2-2V8c0-1.108-.892-2-2-2H16l-3-3zm0 5h22c.554 0 1 .446 1 1v18c0 .554-.446 1-1 1H5c-.554 0-1-.446-1-1V9c0-.554.446-1 1-1z" fill-opacity=".25"/><path d="M5 7c-1.108 0-2 .892-2 2v19c0 1.108.892 2 2 2h22c1.108 0 2-.892 2-2V9c0-1.108-.892-2-2-2zm0 1h22c.554 0 1 .446 1 1v18c0 .554-.446 1-1 1H5c-.554 0-1-.446-1-1V9c0-.554.446-1 1-1z" fill-opacity=".25"/><path d="M16 13a11.34 11.34 0 0 0-4.258.828A11.241 11.241 0 0 0 8 16.313l6.55 7.931h.003a2 2 0 0 0 2.889-.006h.004L24 16.313a11.309 11.309 0 0 0-2.74-2.02c-.022-.012-.046-.02-.068-.031-.352-.182-.712-.34-1.077-.482-.137-.053-.277-.098-.416-.147a11.1 11.1 0 0 0-2.043-.498c-.145-.021-.29-.047-.437-.062A11.29 11.29 0 0 0 16 13.001z" fill="#030303" fill-opacity=".318"/><path d="M16 12.01a11.34 11.34 0 0 0-4.258.828A11.241 11.241 0 0 0 8 15.323l6.55 7.931h.003a2 2 0 0 0 2.889-.006h.004L24 15.322a11.31 11.31 0 0 0-2.74-2.019c-.022-.012-.046-.02-.068-.031a11.36 11.36 0 0 0-1.077-.483c-.137-.053-.277-.098-.416-.146a11.284 11.284 0 0 0-1.246-.354c-.264-.058-.53-.105-.797-.144-.145-.022-.29-.047-.437-.063A11.393 11.393 0 0 0 16 12.01z" fill="#88d1db"/><path d="M16 15.01a8.678 8.678 0 0 0-6.154 2.547l4.705 5.697h.002a2 2 0 0 0 2.889-.006h.004l4.707-5.693A8.678 8.678 0 0 0 16 15.01z" fill="#fff"/></svg>