<svg version="1.0" viewBox="0 0 32 32" xmlns="http://www.w3.org/2000/svg"><path d="M5 3h8l3 3h11c1.108 0 2 .892 2 2v20c0 1.108-.892 2-2 2H5c-1.108 0-2-.892-2-2V5c0-1.108.892-2 2-2z" fill="#48b9c7"/><path d="M5 3c-1.108 0-2 .892-2 2v23c0 1.108.892 2 2 2h22c1.108 0 2-.892 2-2V8c0-1.108-.892-2-2-2H16l-3-3zm0 5h22c.554 0 1 .446 1 1v18c0 .554-.446 1-1 1H5c-.554 0-1-.446-1-1V9c0-.554.446-1 1-1z" fill-opacity=".25"/><path d="M5 7c-1.108 0-2 .892-2 2v19c0 1.108.892 2 2 2h22c1.108 0 2-.892 2-2V9c0-1.108-.892-2-2-2zm0 1h22c.554 0 1 .446 1 1v18c0 .554-.446 1-1 1H5c-.554 0-1-.446-1-1V9c0-.554.446-1 1-1z" fill-opacity=".25"/><path d="M16 12a4 4 0 0 0-4 4 4 4 0 0 0 1.174 2.826l-1.903 1.902a1 1 0 0 0-1.406 1.407L8 24v2l2-1 1.434-1.434a8.004 8.004 0 0 0 6.093 1.288 7.974 7.974 0 0 0 3.036-1.291L22 25l2 1v-2l-1.871-1.871a7.985 7.985 0 0 0 1.478-2.656 1 1 0 0 0-.947-1.323 1 1 0 0 0-.953.704 5.979 5.979 0 0 1-1.002 1.851l-1.879-1.879A4 4 0 0 0 20 16a4 4 0 0 0-4-4zm0 2a2 2 0 0 1 2 2 2 2 0 0 1-.586 1.414L16 16l-1.414 1.414A2 2 0 0 1 14 16a2 2 0 0 1 2-2zm-.893 5.893A4 4 0 0 0 16 20a4 4 0 0 0 .895-.105l2.22 2.22a5.983 5.983 0 0 1-1.97.774 5.986 5.986 0 0 1-4.26-.774z" fill="#121212" fill-opacity=".314"/><path d="M8 25v-2l8-8 8 8v2l-2-1-6-6-6 6z" fill="#fff"/><path d="M22.66 18.16a7 7 0 0 1-5.322 4.708 7 7 0 0 1-6.698-2.372" fill="none" stroke="#fff" stroke-linecap="round" stroke-width="2"/><path d="M16 11a4 4 0 0 0-4 4 4 4 0 0 0 4 4 4 4 0 0 0 4-4 4 4 0 0 0-4-4zm0 2a2 2 0 0 1 2 2 2 2 0 0 1-2 2 2 2 0 0 1-2-2 2 2 0 0 1 2-2z" fill="#fff"/></svg>