<svg version="1.0" viewBox="0 0 32 32" xmlns="http://www.w3.org/2000/svg"><path d="M5 3h8l3 3h11c1.108 0 2 .892 2 2v20c0 1.108-.892 2-2 2H5c-1.108 0-2-.892-2-2V5c0-1.108.892-2 2-2z" fill="#48b9c7"/><path d="M5 3c-1.108 0-2 .892-2 2v23c0 1.108.892 2 2 2h22c1.108 0 2-.892 2-2V8c0-1.108-.892-2-2-2H16l-3-3zm0 5h22c.554 0 1 .446 1 1v18c0 .554-.446 1-1 1H5c-.554 0-1-.446-1-1V9c0-.554.446-1 1-1z" fill-opacity=".25"/><path d="M5 7c-1.108 0-2 .892-2 2v19c0 1.108.892 2 2 2h22c1.108 0 2-.892 2-2V9c0-1.108-.892-2-2-2zm0 1h22c.554 0 1 .446 1 1v18c0 .554-.446 1-1 1H5c-.554 0-1-.446-1-1V9c0-.554.446-1 1-1z" fill-opacity=".25"/><path d="M116.01-1356a3 3 0 1 1 0 6 3 3 0 0 1 0-6zm0 8c6 0 6 4.003 6 4.003v1h-12v-1s0-4 6-4.003z" color="#000" fill-opacity=".314" style="text-decoration-line:none;text-indent:0;text-transform:none" transform="translate(-100 1368)"/><path d="M116-1357a3 3 0 1 1 0 6 3 3 0 0 1 0-6zm0 8c6 0 6 4.003 6 4.003v1h-12v-1s0-4 6-4.003z" color="#000" fill="#fafafb" style="text-decoration-line:none;text-indent:0;text-transform:none" transform="translate(-100 1368)"/></svg>