<svg version="1.0" viewBox="0 0 32 32" xmlns="http://www.w3.org/2000/svg"><g transform="translate(-100 348)"><rect x="102" y="-341" width="28" height="22" ry="2" fill="#ffce51"/><path d="M104-341c-1.108 0-2 .892-2 2v18c0 1.108.892 2 2 2h24c1.108 0 2-.892 2-2v-18c0-1.108-.892-2-2-2zm0 1h24c.554 0 1 .446 1 1v18c0 .554-.446 1-1 1h-24c-.554 0-1-.446-1-1v-18c0-.554.446-1 1-1z" fill-opacity=".5"/><path d="M105-339c-.554 0-1 .446-1 1v10c0 .554.446 1 1 1h5v3c0 .554.446 1 1 1h10c.554 0 1-.446 1-1v-3h5c.554 0 1-.446 1-1v-10c0-.554-.446-1-1-1z" fill-opacity=".5"/><path d="M104-340c-.554 0-1 .446-1 1v12c0 .554.446 1 1 1h6v-1h-5c-.554 0-1-.446-1-1v-10c0-.554.446-1 1-1h22c.554 0 1 .446 1 1v10c0 .554-.446 1-1 1h-5v1h6c.554 0 1-.446 1-1v-12c0-.554-.446-1-1-1z" fill="#fbfbfb" fill-opacity=".5"/><path d="M110-324v1c0 .554.446 1 1 1h10c.554 0 1-.446 1-1v-1c0 .554-.446 1-1 1h-10c-.554 0-1-.446-1-1z" fill="#fbfbfb" fill-opacity=".5"/><g stroke-linecap="square" stroke-width="2"><path d="M107-346c-1.108 0-2 .892-2 2v17h5v3c0 .554.446 1 1 1h10c.554 0 1-.446 1-1v-3h5v-17c0-1.108-.892-2-2-2z" fill="#ededed"/><path d="M107-346c-1.108 0-2 .892-2 2v17h5v3c0 .554.446 1 1 1h10c.554 0 1-.446 1-1v-3h5v-17c0-1.108-.892-2-2-2zm0 1h18c.554 0 1 .446 1 1v16h-5v4h-10v-4h-5v-16c0-.554.446-1 1-1z" fill-opacity=".3"/></g><path d="M120.5-335.5 116-341l-4.5 5.5c.003-.004 1.833 0 2.5 0v5h4v-5z" color="#000" fill="#393634" opacity=".8"/></g></svg>