<svg version="1.0" viewBox="0 0 32 32" xmlns="http://www.w3.org/2000/svg" xmlns:xlink="http://www.w3.org/1999/xlink"><g transform="translate(-100 -252)"><g id="a" stroke-linecap="square"><path d="M264 278h-32c-2.216 0-4-1.784-4-4v-36c0-2.216 1.784-4 4-4h32l22 22z" fill="#ffce51" stroke-width="2"/><path d="M186 279h-24c-1.662 0-3-1.338-3-3v-26c0-1.662 1.338-3 3-3h24l16 16z" fill="#ffce51" stroke-width="1.5"/><path d="M120 281h-16c-1.108 0-2-.892-2-2v-18c0-1.108.892-2 2-2h16l11 11z" fill="#ffce51"/><path d="M26.5 282H18c-.554 0-1-.446-1-1v-9c0-.554.446-1 1-1h8.5l5.5 5.5z" fill="#ffce51" stroke-width=".5"/><path d="M70.5 280h-12c-.831 0-1.5-.669-1.5-1.5v-13c0-.831.669-1.5 1.5-1.5h12l8 8z" fill="#ffce51" stroke-width=".75"/><path d="M392 272h-64c-4.432 0-8-3.568-8-8v-72c0-4.432 3.568-8 8-8h64l44 44z" fill="#ffce51" stroke-width="4"/><path d="M624 260H496c-8.864 0-16-7.136-16-16V100c0-8.864 7.136-16 16-16h128l88 88z" fill="#ffce51" stroke-width="8"/><path d="M232 234c-2.216 0-4 1.784-4 4v36c0 2.216 1.784 4 4 4h32l22-22-22-22zm0 1h31.5l20 20-20 20H232c-1.662 0-3-1.338-3-3v-34c0-1.662 1.338-3 3-3z" fill-opacity=".5" stroke-width="2"/><path d="M162 247c-1.662 0-3 1.338-3 3v26c0 1.662 1.338 3 3 3h24l16-16-16-16zm0 1h23.5l14 14-14 14H162c-1.108 0-2-.892-2-2v-24c0-1.108.892-2 2-2z" fill-opacity=".5" stroke-width="1.5"/><path d="M104 259c-1.108 0-2 .892-2 2v18c0 1.108.892 2 2 2h16l11-11-11-11zm0 1h15.5l9.5 9.5-9.5 9.5H104c-.554 0-1-.446-1-1v-17c0-.554.446-1 1-1z" fill-opacity=".5"/><path d="M18 271c-.554 0-1 .446-1 1v9c0 .554.446 1 1 1h8.5l5.5-5.5-5.5-5.5zm0 1h8l4.5 4.5L26 281h-8z" fill-opacity=".5" stroke-width=".5"/><path d="M58.5 264c-.831 0-1.5.669-1.5 1.5v13c0 .831.669 1.5 1.5 1.5h12l8-8-8-8zm0 1H70l7 7-7 7H58.5a.499.499 0 0 1-.5-.5v-13c0-.277.223-.5.5-.5z" fill-opacity=".5" stroke-width=".75"/><path d="M328 184c-4.432 0-8 3.568-8 8v72c0 4.432 3.568 8 8 8h64l44-44-44-44zm0 1h63.5l41.5 41.5-41.5 41.5H328c-3.878 0-7-3.122-7-7v-69c0-3.878 3.122-7 7-7z" fill-opacity=".5" stroke-width="4"/><path d="M496 84c-8.864 0-16 7.136-16 16v144c0 8.864 7.136 16 16 16h128l88-88-88-88zm0 1h127.5l84.5 85-84.5 85H496c-8.31 0-15-6.69-15-15V100c0-8.31 6.69-15 15-15z" fill-opacity=".5" stroke-width="8"/></g></g><g transform="translate(-100 -252)"><use transform="translate(0 -300)" width="100%" height="100%" xlink:href="#a"/><rect x="116" y="-33" width="16" height="17" ry="8" fill="#cf3b00"/><path d="M124-33c-4.432 0-8 3.568-8 8v1c0 4.432 3.568 8 8 8s8-3.568 8-8v-1c0-4.432-3.568-8-8-8zm0 1c3.878 0 7 3.122 7 7s-3.122 7-7 7-7-3.122-7-7 3.122-7 7-7z" fill-opacity=".5"/><rect x="68" y="-28" width="12" height="12" ry="6" fill="#cf3b00"/><path d="M74-28c-3.324 0-6 2.676-6 6s2.676 6 6 6 6-2.676 6-6-2.676-6-6-6zm0 1c2.77 0 5 2.23 5 5s-2.23 5-5 5-5-2.23-5-5 2.23-5 5-5z" fill-opacity=".5"/><rect x="24" y="-24" width="8" height="8" ry="4" fill="#cf3b00"/><path d="M28-24c-2.216 0-4 1.784-4 4s1.784 4 4 4 4-1.784 4-4-1.784-4-4-4zm0 1c1.662 0 3 1.338 3 3s-1.338 3-3 3-3-1.338-3-3 1.338-3 3-3z" fill-opacity=".5"/><rect x="180" y="-42" width="24" height="26" ry="12" fill="#cf3b00"/><path d="M192-42c-6.648 0-12 5.352-12 12v2c0 6.648 5.352 12 12 12s12-5.352 12-12v-2c0-6.648-5.352-12-12-12zm0 1c6.094 0 11 4.906 11 11s-4.906 11-11 11-11-4.906-11-11 4.906-11 11-11z" fill-opacity=".5"/><rect x="256" y="-50" width="32" height="34" ry="16" fill="#cf3b00"/><path d="M272-50c-8.864 0-16 7.136-16 16v2c0 8.864 7.136 16 16 16s16-7.136 16-16v-2c0-8.864-7.136-16-16-16zm0 1c8.31 0 15 6.69 15 15s-6.69 15-15 15-15-6.69-15-15 6.69-15 15-15z" fill-opacity=".5"/><rect x="376" y="-83" width="64" height="67" ry="32" fill="#cf3b00"/><path d="M408-83c-17.728 0-32 14.272-32 32v3c0 17.728 14.272 32 32 32s32-14.272 32-32v-3c0-17.728-14.272-32-32-32zm0 1c17.174 0 31 13.826 31 31s-13.826 31-31 31-31-13.826-31-31 13.826-31 31-31z" fill-opacity=".5"/><rect x="592" y="-148" width="128" height="132" ry="64" fill="#cf3b00"/><path d="M656-148c-35.456 0-64 28.544-64 64v4c0 35.456 28.544 64 64 64s64-28.544 64-64v-4c0-35.456-28.544-64-64-64zm0 1c34.902 0 63 28.098 63 63s-28.098 63-63 63-63-28.098-63-63 28.098-63 63-63z" fill-opacity=".5"/><path d="M121-29.5a1 1 0 0 0-1 1 1 1 0 0 0 .293.707l2.293 2.293-2.293 2.293a1 1 0 0 0-.293.707 1 1 0 0 0 1 1 1 1 0 0 0 .707-.293L124-24.086l2.283 2.283a1 1 0 0 0 .717.303 1 1 0 0 0 1-1 1 1 0 0 0-.293-.707l-2.293-2.293 2.283-2.283A1 1 0 0 0 128-28.5a1 1 0 0 0-1-1 1 1 0 0 0-.707.293L124-26.914l-2.283-2.283a1 1 0 0 0-.01-.01A1 1 0 0 0 121-29.5z" fill="#fff"/><path d="M26.5-22a.5.5 0 0 0-.5.5.5.5 0 0 0 .146.354L27.293-20l-1.147 1.147A.5.5 0 0 0 26-18.5a.5.5 0 0 0 .5.5.5.5 0 0 0 .354-.146L28-19.293l1.142 1.142A.5.5 0 0 0 29.5-18a.5.5 0 0 0 .5-.5.5.5 0 0 0-.146-.353L28.707-20l1.142-1.142A.5.5 0 0 0 30-21.5a.5.5 0 0 0-.5-.5.5.5 0 0 0-.354.146L28-20.707l-1.142-1.142a.5.5 0 0 0-.005-.005A.5.5 0 0 0 26.5-22z" fill="#fff"/><path d="M266-42a2 2 0 0 0-2 2 2 2 0 0 0 .586 1.414L269.172-34l-4.586 4.586A2 2 0 0 0 264-28a2 2 0 0 0 2 2 2 2 0 0 0 1.414-.586L272-31.172l4.566 4.567A2 2 0 0 0 278-26a2 2 0 0 0 2-2 2 2 0 0 0-.586-1.414L274.828-34l4.567-4.566A2 2 0 0 0 280-40a2 2 0 0 0-2-2 2 2 0 0 0-1.414.586L272-36.828l-4.566-4.567a2 2 0 0 0-.02-.02A2 2 0 0 0 266-42z" fill="#fff"/><path d="M396-68a4 4 0 0 0-4 4 4 4 0 0 0 1.172 2.828L402.344-52l-9.172 9.172A4 4 0 0 0 392-40a4 4 0 0 0 4 4 4 4 0 0 0 2.828-1.172L408-46.344l9.133 9.133a4 4 0 0 0 2.867 1.21 4 4 0 0 0 4-4 4 4 0 0 0-1.172-2.827L413.656-52l9.133-9.133a4 4 0 0 0 1.21-2.867 4 4 0 0 0-4-4 4 4 0 0 0-2.827 1.172L408-57.656l-9.133-9.133a4 4 0 0 0-.04-.04A4 4 0 0 0 396-68z" fill="#fff"/><path d="M632-114a8 8 0 0 0-8 8 8 8 0 0 0 2.344 5.656L644.688-82l-18.344 18.344A8 8 0 0 0 624-58a8 8 0 0 0 8 8 8 8 0 0 0 5.656-2.343L656-70.687l18.266 18.266A8 8 0 0 0 680.001-50a8 8 0 0 0 8-8 8 8 0 0 0-2.344-5.656L667.313-82l18.266-18.266A8 8 0 0 0 688-106a8 8 0 0 0-8-8 8 8 0 0 0-5.657 2.344L656-93.312l-18.266-18.266a8 8 0 0 0-.08-.08 8 8 0 0 0-5.656-2.342z" fill="#fff"/><path d="M187.5-35a1.5 1.5 0 0 0-1.5 1.5 1.5 1.5 0 0 0 .44 1.06l3.439 3.44-3.44 3.44A1.5 1.5 0 0 0 186-24.5a1.5 1.5 0 0 0 1.5 1.5 1.5 1.5 0 0 0 1.06-.44l3.44-3.439 3.425 3.425A1.5 1.5 0 0 0 196.5-23a1.5 1.5 0 0 0 1.5-1.5 1.5 1.5 0 0 0-.44-1.06L194.122-29l3.425-3.425A1.5 1.5 0 0 0 198-33.5a1.5 1.5 0 0 0-1.5-1.5 1.5 1.5 0 0 0-1.06.44L192-31.122l-3.425-3.425a1.5 1.5 0 0 0-.015-.015 1.5 1.5 0 0 0-1.06-.44z" fill="#fff"/><path d="M71.75-25a.75.75 0 0 0-.75.75.75.75 0 0 0 .22.53L72.94-22l-1.72 1.72a.75.75 0 0 0-.22.53.75.75 0 0 0 .75.75.75.75 0 0 0 .53-.22L74-20.94l1.712 1.713a.75.75 0 0 0 .538.227.75.75 0 0 0 .75-.75.75.75 0 0 0-.22-.53L75.06-22l1.713-1.712A.75.75 0 0 0 77-24.25a.75.75 0 0 0-.75-.75.75.75 0 0 0-.53.22L74-23.06l-1.712-1.713a.75.75 0 0 0-.007-.008.75.75 0 0 0-.53-.219z" fill="#fff"/></g><g transform="translate(-100 -252)"><use transform="translate(0 -600)" width="100%" height="100%" xlink:href="#a"/><rect x="116" y="-333" width="16" height="17" ry="8" fill="#479863"/><path d="M124-333c-4.432 0-8 3.568-8 8v1c0 4.432 3.568 8 8 8s8-3.568 8-8v-1c0-4.432-3.568-8-8-8zm0 1c3.878 0 7 3.122 7 7s-3.122 7-7 7-7-3.122-7-7 3.122-7 7-7z" fill-opacity=".5"/><rect x="68" y="-328" width="12" height="12" ry="6" fill="#479863"/><g fill="#fff" stroke-linecap="square" stroke-width="2"><rect x="73" y="-326" width="2" height="8" ry="0"/><path d="M70-323h8v2h-8z"/></g><path d="M74-328c-3.324 0-6 2.676-6 6s2.676 6 6 6 6-2.676 6-6-2.676-6-6-6zm0 1c2.77 0 5 2.23 5 5s-2.23 5-5 5-5-2.23-5-5 2.23-5 5-5z" fill-opacity=".5"/><rect x="23" y="-325" width="9" height="9" ry="4.5" fill="#479863"/><rect x="180" y="-342" width="24" height="26" ry="12" fill="#479863"/><path d="M192-342c-6.648 0-12 5.352-12 12v2c0 6.648 5.352 12 12 12s12-5.352 12-12v-2c0-6.648-5.352-12-12-12zm0 1c6.094 0 11 4.906 11 11s-4.906 11-11 11-11-4.906-11-11 4.906-11 11-11z" fill-opacity=".5"/><rect x="256" y="-350" width="32" height="34" ry="16" fill="#479863"/><path d="M272-350c-8.864 0-16 7.136-16 16v2c0 8.864 7.136 16 16 16s16-7.136 16-16v-2c0-8.864-7.136-16-16-16zm0 1c8.31 0 15 6.69 15 15s-6.69 15-15 15-15-6.69-15-15 6.69-15 15-15z" fill-opacity=".5"/><rect x="376" y="-383" width="64" height="67" ry="32" fill="#479863"/><path d="M408-383c-17.728 0-32 14.272-32 32v3c0 17.728 14.272 32 32 32s32-14.272 32-32v-3c0-17.728-14.272-32-32-32zm0 1c17.174 0 31 13.826 31 31s-13.826 31-31 31-31-13.826-31-31 13.826-31 31-31z" fill-opacity=".5"/><rect x="592" y="-448" width="128" height="132" ry="64" fill="#479863"/><path d="M656-448c-35.456 0-64 28.544-64 64v4c0 35.456 28.544 64 64 64s64-28.544 64-64v-4c0-35.456-28.544-64-64-64zm0 1c34.902 0 63 28.098 63 63s-28.098 63-63 63-63-28.098-63-63 28.098-63 63-63z" fill-opacity=".5"/><path d="M273.41-343.9a2 2 0 0 0-2.828 0 2 2 0 0 0-.586 1.414V-336h-6.485a2 2 0 0 0-1.415.585 2 2 0 0 0 0 2.829 2 2 0 0 0 1.415.585h6.485v6.458a2 2 0 0 0 .586 1.442 2 2 0 0 0 2.828 0 2 2 0 0 0 .586-1.414v-6.486h6.457a2 2 0 0 0 1.442-.585 2 2 0 0 0 0-2.829 2 2 0 0 0-1.414-.585h-6.485v-6.458a2 2 0 0 0 0-.028 2 2 0 0 0-.586-1.414z" fill="#fff"/><path d="M410.83-371.8a4 4 0 0 0-5.657 0 4 4 0 0 0-1.171 2.828V-356h-12.971a4 4 0 0 0-2.828 1.171 4 4 0 0 0 0 5.657A4 4 0 0 0 391.03-348h12.971v12.916a4 4 0 0 0 1.171 2.883 4 4 0 0 0 5.657 0 4 4 0 0 0 1.171-2.828V-348h12.916a4 4 0 0 0 2.884-1.171 4 4 0 0 0 0-5.657 4 4 0 0 0-2.829-1.171h-12.97v-12.916a4 4 0 0 0 0-.057 4 4 0 0 0-1.172-2.828z" fill="#fff"/><path d="M661.66-421.6a8 8 0 0 0-11.314 0 8 8 0 0 0-2.342 5.657v25.942h-25.942a8 8 0 0 0-5.657 2.342 8 8 0 0 0 0 11.314 8 8 0 0 0 5.657 2.342h25.942v25.832a8 8 0 0 0 2.342 5.768 8 8 0 0 0 11.314 0 8 8 0 0 0 2.342-5.657v-25.942h25.832a8 8 0 0 0 5.768-2.342 8 8 0 0 0 0-11.314 8 8 0 0 0-5.657-2.343h-25.942v-25.832a8 8 0 0 0 0-.113 8 8 0 0 0-2.344-5.655z" fill="#fff"/><path d="M27.5-325c-2.493 0-4.5 2.007-4.5 4.5s2.007 4.5 4.5 4.5 4.5-2.007 4.5-4.5-2.007-4.5-4.5-4.5zm0 1c1.939 0 3.5 1.561 3.5 3.5s-1.561 3.5-3.5 3.5-3.5-1.561-3.5-3.5 1.561-3.5 3.5-3.5z" fill-opacity=".5"/><path fill="#fff" d="M27-323h1v5h-1z"/><path fill="#fff" d="M25-321h5v1h-5z"/><path fill="#fff" d="M123-330h2v10h-2z"/><path fill="#fff" d="M119-326h10v2h-10z"/><path fill="#fff" d="M191-338h2v16h-2z"/><path fill="#fff" d="M184-331h16v2h-16z"/><path fill="#fff" d="M270-345h4v22h-4z"/><path fill="#fff" d="M261-336h22v4h-22z"/><path fill="#fff" d="M404-373h8v42h-8z"/><path fill="#fff" d="M387-356h42v8h-42z"/><path fill="#fff" d="M648-424h16v84h-16z"/><path fill="#fff" d="M614-390h84v16h-84z"/></g></svg>