<svg version="1.0" viewBox="0 0 32 32" xmlns="http://www.w3.org/2000/svg"><path d="M5 3h8l3 3h11c1.108 0 2 .892 2 2v20c0 1.108-.892 2-2 2H5c-1.108 0-2-.892-2-2V5c0-1.108.892-2 2-2z" fill="#48b9c7"/><path d="M5 3c-1.108 0-2 .892-2 2v23c0 1.108.892 2 2 2h22c1.108 0 2-.892 2-2V8c0-1.108-.892-2-2-2H16l-3-3zm0 5h22c.554 0 1 .446 1 1v18c0 .554-.446 1-1 1H5c-.554 0-1-.446-1-1V9c0-.554.446-1 1-1z" fill-opacity=".25"/><path d="M5 7c-1.108 0-2 .892-2 2v19c0 1.108.892 2 2 2h22c1.108 0 2-.892 2-2V9c0-1.108-.892-2-2-2zm0 1h22c.554 0 1 .446 1 1v18c0 .554-.446 1-1 1H5c-.554 0-1-.446-1-1V9c0-.554.446-1 1-1z" fill-opacity=".25"/><path d="m16.5 12-7 5.996H11V25h6v-5h3v4.996h2v-7h1.5zM13 19.996h2v2h-2z" fill-opacity=".314"/><path d="m16.5 11-7 5.996H11V24h6v-5h3v5h2v-7.004h1.5zM13 18.996h2v2h-2z" fill="#fff"/></svg>