<svg version="1.0" viewBox="0 0 32 32" xmlns="http://www.w3.org/2000/svg"><path d="M7 2c-1.108 0-2.088.896-2 2l2 25c4.5 2.5 13.5 2.5 18 0l2-25c.088-1.105-.892-2-2-2z" fill="#898989"/><path d="M7 2c-1.108 0-2.088.896-2 2l2 25c4.5 2.5 13.5 2.5 18 0l2-25c.088-1.105-.892-2-2-2zm0 1h18c.554 0 1 .446 1 1l-2 23c-4.5 2.5-11.5 2.5-16 0L6 4c0-.554.446-1 1-1z" fill-opacity=".5"/><g stroke-width="2"><path d="m11.25 12.37-2.5-2 2.5-3.5 1.5 1.5 3.5-3 5 2 2 3.5-4 2 .5 4-3.5 1.5-1.5-2.5-4.5 1-1.5-2.5z" fill="#ededed"/><path d="m12.75 8.37 2.75 2.75 1.75 2.75" fill="none" stroke="#898989" stroke-width="1"/></g><g stroke-width="2"><path d="m14.53 16 1.594-2.777 3.841 1.936-1.253 1.712 3.5 3L21 25.118l-3.152 2.511-2.589-3.647-3.876 1.106-2.018-3.23 2.241-1.864L9.93 15.7l2.241-1.865z" fill="#ededed"/><path d="m18.712 16.87-2.297 3.139-2.45 2.15" fill="none" stroke="#898989" stroke-width="1"/></g></svg>