<svg version="1.0" viewBox="0 0 256 256" xmlns="http://www.w3.org/2000/svg"><g transform="translate(-464 -28)"><rect x="504" y="45" width="176" height="215" ry="8" fill="#560c00"/><rect x="505" y="46" width="174" height="213" ry="7.5" fill="#dedede"/><rect x="504" y="44" width="174" height="202" ry="8" fill="#560c00"/><rect x="505" y="45" width="172" height="200" ry="7.5" fill="#f15d22"/><path d="M512.5 45a7.484 7.484 0 0 0-7.5 7.5v199c0 4.155 3.348 7.646 7.5 7.5h3.5V45z" fill="#350700"/><path d="M564 122c-8.864 0-16 7.136-16 16v32h8v-16h16v16h8v-32c0-8.864-7.136-16-16-16zm0 8c4.432 0 8 3.568 8 8v8h-16v-8c0-4.432 3.568-8 8-8z" fill-opacity=".196"/><path d="M604 122v8h20l-20 32v8h32v-8h-20l20-32v-8h-8z" fill-opacity=".196"/><path fill-opacity=".196" d="M584 146h20v8h-20z"/><path d="M564 121c-8.864 0-16 7.136-16 16v32h8v-16h16v16h8v-32c0-8.864-7.136-16-16-16zm0 8c4.432 0 8 3.568 8 8v8h-16v-8c0-4.432 3.568-8 8-8z" fill="#ededed"/><path d="M604 121v8h20l-20 32v8h32v-8h-20l20-32v-8h-8z" fill="#ededed"/><path fill="#ededed" d="M584 145h20v8h-20z"/></g></svg>