<svg version="1.0" viewBox="0 0 256 256" xmlns="http://www.w3.org/2000/svg"><g transform="translate(-464 -28)"><rect x="472" y="36" width="240" height="244" ry="120" fill="#7b7b7b"/><rect x="472" y="36" width="240" height="240" ry="120" fill="#f6f6f6"/><path d="M594.44 162.48a6 6 0 0 0 .498-.256l61.824-31.87a2 2 0 0 0 1.013-2.64 2 2 0 0 0-2.64-1.014l-64.964 24.586a6 6 0 0 0-.611.232 6 6 0 0 0-3.041 7.921 6 6 0 0 0 7.921 3.041z" fill-opacity=".502"/><rect x="472.5" y="36.5" width="239" height="239" ry="119.5" fill="none" stroke="#000" stroke-linecap="round" stroke-opacity=".502"/><rect transform="rotate(60)" x="430.49" y="-545.05" width="2" height="12" ry="1" fill="#333"/><rect transform="rotate(30)" x="590.08" y="-271.26" width="2" height="12" ry="1" fill="#333"/><rect x="590" y="42" width="4" height="20" ry="2" fill="#333"/><rect transform="rotate(-30)" x="434.08" y="320.74" width="2" height="12" ry="1" fill="#333"/><rect transform="rotate(-60)" x="160.29" y="480.33" width="2" height="12" ry="1" fill="#333"/><rect transform="rotate(-90)" x="-158" y="478" width="4" height="20" ry="2" fill="#333"/><rect transform="rotate(240)" x="-431.71" y="324.33" width="2" height="12" ry="1" fill="#333"/><rect transform="rotate(210)" x="-591.29" y="50.538" width="2" height="12" ry="1" fill="#333"/><rect transform="scale(-1)" x="-594" y="-270" width="4" height="20" ry="2" fill="#333"/><rect transform="rotate(150)" x="-435.29" y="-541.46" width="2" height="12" ry="1" fill="#333"/><rect transform="rotate(120)" x="-161.51" y="-701.05" width="2" height="12" ry="1" fill="#333"/><rect transform="rotate(90)" x="154" y="-706" width="4" height="20" ry="2" fill="#333"/><path d="M594.44 161.48a6 6 0 0 0 .498-.256l61.824-31.87a2 2 0 0 0 1.013-2.64 2 2 0 0 0-2.64-1.014l-64.964 24.586a6 6 0 0 0-.611.232 6 6 0 0 0-3.041 7.921 6 6 0 0 0 7.921 3.041z" fill="#2b2928"/><path d="M586.52 159.44a6 6 0 0 0 .539.955l20.198 35.787a2 2 0 0 0 2.64 1.014 2 2 0 0 0 1.014-2.64l-13.08-38.957a6 6 0 0 0-.349-1.04 6 6 0 0 0-7.921-3.04 6 6 0 0 0-3.041 7.922z" fill-opacity=".502"/><path d="M586.52 158.44a6 6 0 0 0 .539.955l20.198 35.787a2 2 0 0 0 2.64 1.014 2 2 0 0 0 1.014-2.64l-13.08-38.957a6 6 0 0 0-.349-1.04 6 6 0 0 0-7.921-3.04 6 6 0 0 0-3.041 7.922z" fill="#474341"/><circle cx="592" cy="157" r="4" fill-opacity=".502"/><circle cx="592" cy="156" r="4" fill="#f6f6f6"/></g></svg>