<svg version="1.0" viewBox="0 0 256 256" xmlns="http://www.w3.org/2000/svg"><g transform="translate(-464 -28)"><rect x="488.01" y="55.992" width="150" height="150" ry="8" fill="#5f5f5f"/><rect x="546" y="114" width="150" height="150" ry="8" fill="#6f6f6f"/><rect x="488" y="52" width="150" height="150" ry="8" fill="#bebebe"/><rect x="488.5" y="52" width="149" height="149.5" ry="7.5" fill="none" stroke="#000" stroke-linecap="round" stroke-opacity=".5"/><path d="M539 105c-4.625 0-8.281 2.125-10.969 5.75-2.688 3.594-4.031 8.969-4.031 15.25s1.328 10.797 3.984 14.422c2.688 3.594 6.36 5.578 11.016 5.578 4.594 0 8.235-2 10.922-5.625S554 132.25 554 126c0-6.219-1.39-11.578-4.078-15.203C547.235 107.141 543.594 105 539 105zm0-7c7.5 0 13.391 2.438 17.672 7.313C560.953 110.186 563 117.374 563 126c0 8.594-2.047 14.907-6.328 19.813C552.391 150.688 546.5 153 539 153c-7.531 0-13.438-2.313-17.719-7.188C517.031 140.906 515 134.594 515 126c0-8.624 2.031-15.812 6.281-20.687C525.562 100.436 531.469 98 539 98zm4-19h10v10h-10zm-18 0h10v10h-10z" fill="#393634" fill-opacity=".8"/><rect x="546" y="110" width="150" height="150" ry="8" fill="#dedede"/><rect x="546.5" y="110.5" width="149" height="149" ry="7.5" fill="none" stroke="#000" stroke-linecap="round" stroke-opacity=".5"/><path d="M626 184v4h-39c.375 5.938 1.828 10.992 5.016 14.117C595.234 205.211 599.28 207 605 207c3.312 0 6.937-.649 10.03-1.461 3.126-.813 5.907-1.914 8.97-3.54v8c-3.094 1.313-5.954 2.352-9.204 3.04s-6.453.96-9.797.96c-8.375 0-15.109-2.366-20.016-7.241C580.108 201.883 578 195.313 578 187c0-8.594 1.984-15.43 6.61-20.461 4.656-5.063 11.015-7.54 18.89-7.54 7.063 0 12.547 2.227 16.641 6.79 4.125 4.53 5.86 10.398 5.86 18.21zm-8-2c-.063-4.719-1.688-8.71-4.281-11.523-2.563-2.813-5.969-4.477-10.22-4.477-4.812 0-8.671 1.618-11.577 4.336-2.875 2.72-4.485 6.727-4.922 11.664zm-18.5-46h7l11.5 18h-6.5l-8.5-12-8.5 12H588z" fill="#393634" fill-opacity=".8"/></g></svg>