<svg version="1.0" viewBox="0 0 256 256" xmlns="http://www.w3.org/2000/svg"><g transform="translate(-464 -28)"><path d="M511.5 43a8.481 8.481 0 0 0-8.5 8.5v214c0 4.709 3.791 8.5 8.5 8.5h161c4.709 0 8.5-3.791 8.5-8.5V107.05l-64.447-64.055z" fill="#6f6f6f"/><path d="M680 108v152c0 4.432-3.568 8-8 8H512c-4.432 0-8-3.568-8-8V52c0-4.432 3.568-8 8-8h104" fill="#ececec"/><path d="M680 114h-57c-4.432 0-8-3.568-8-8V44h1l64 64z" fill="#6f6f6f" fill-opacity=".502"/><path d="M680 108h-56c-4.432 0-8-3.568-8-8V44" fill="#fafafa"/><rect x="536" y="228" width="72" height="8" ry="3.646" fill="#474341" fill-opacity=".69"/><rect x="536" y="204" width="112" height="8" ry="3.646" fill="#474341" fill-opacity=".69"/><rect x="536" y="180" width="112" height="8" ry="3.646" fill="#474341" fill-opacity=".69"/><rect x="536" y="156" width="112" height="8" ry="3.646" fill="#474341" fill-opacity=".69"/><rect x="583" y="188.01" width="104" height="91.987" ry="20.5" fill="#671d00"/><rect x="584" y="189" width="102" height="86" ry="20" fill="#cf3b00"/><path d="M635 212a35.756 36 0 0 0-32 20.039A35.756 36 0 0 0 635 252a35.756 36 0 0 0 32-20.039A35.756 36 0 0 0 635 212zm0 4a16 16 0 0 1 16 16 16 16 0 0 1-16 16 16 16 0 0 1-16-16 16 16 0 0 1 16-16zm0 8a8 8 0 0 0-8 8 8 8 0 0 0 8 8 8 8 0 0 0 8-8 8 8 0 0 0-8-8z" fill="#fff"/></g></svg>