<svg version="1.0" viewBox="0 0 256 256" xmlns="http://www.w3.org/2000/svg"><g transform="translate(-464 -28)"><path d="M511.5 43a8.481 8.481 0 0 0-8.5 8.5v214c0 4.709 3.791 8.5 8.5 8.5h161c4.709 0 8.5-3.791 8.5-8.5V107.05l-64.447-64.055z" fill="#6f6f6f"/><path d="M680 108v152c0 4.432-3.568 8-8 8H512c-4.432 0-8-3.568-8-8V52c0-4.432 3.568-8 8-8h104" fill="#ececec"/><path d="M680 114h-57c-4.432 0-8-3.568-8-8V44h1l64 64z" fill="#6f6f6f" fill-opacity=".502"/><path d="M680 108h-56c-4.432 0-8-3.568-8-8V44" fill="#fafafa"/><rect x="536" y="227.5" width="72" height="8" ry="3.646" fill="#474341" fill-opacity=".69"/><rect x="536" y="203.5" width="112" height="8" ry="3.646" fill="#474341" fill-opacity=".69"/><rect x="536" y="179.5" width="112" height="8" ry="3.646" fill="#474341" fill-opacity=".69"/><rect x="536" y="155.5" width="112" height="8" ry="3.646" fill="#474341" fill-opacity=".69"/><rect transform="rotate(45)" x="560.5" y="-253.03" width="33" height="15" ry="0" fill="#a27100"/><rect transform="rotate(45)" x="560.5" y="-406.53" width="33" height="168.5" ry="8.5" fill="#a27100"/><path d="M564.65 228.02v23.335h23.335z" fill="#a27100"/><rect transform="rotate(45)" x="561" y="-406.03" width="32" height="16" ry="8" fill="#ff8989"/><rect transform="rotate(45)" x="561" y="-390.03" width="32" height="24" ry="0" fill="#d4d1ca"/><path fill="#ffce51" d="m661.166 143.521 11.314 11.314-90.51 90.51-11.314-11.314z"/><path fill="#fffa7d" d="m655.51 137.865 5.656 5.656-90.51 90.51-5.656-5.657z"/><path fill="#d1a023" d="m672.48 154.835 5.657 5.657-90.51 90.51-5.657-5.657z"/><path d="M565 228.37v22.627h22.627z" fill="#f5f2e3"/><path d="m565 245.34 5.657 5.657H565z" fill="#3c3c3c"/><rect transform="rotate(45)" x="561" y="-398.03" width="32" height="8" ry="0" fill="#ff8989"/></g></svg>