<svg version="1.0" viewBox="0 0 256 256" xmlns="http://www.w3.org/2000/svg"><g transform="translate(-464 -28)"><rect x="488" y="52" width="208" height="212" ry="8" fill="#dedede"/><path d="M496.004 52c-4.432 0-8 3.568-8 8v196c0 4.432 3.568 8 8 8h192c4.432 0 8-3.568 8-8V60c0-4.432-3.568-8-8-8zm.5 1h191c4.155 0 7.5 3.345 7.5 7.5v191c0 4.155-3.345 7.5-7.5 7.5h-191a7.484 7.484 0 0 1-7.5-7.5v-191c0-4.155 3.345-7.5 7.5-7.5z" fill-opacity=".502"/><rect x="501" y="65.75" width="86" height="86" ry="7" fill-opacity=".5"/><rect x="597" y="65.75" width="86" height="86" ry="7" fill-opacity=".5"/><rect x="501" y="162.25" width="86" height="86" ry="7" fill-opacity=".5"/><rect x="597" y="159.75" width="86" height="88" ry="7" fill-opacity=".5"/><rect x="501" y="63.75" width="86" height="86" ry="7" fill="#aaa"/><rect x="597" y="63.75" width="86" height="86" ry="7" fill="#aaa"/><rect x="501" y="159.75" width="86" height="86" ry="7" fill="#aaa"/><rect x="597" y="159.75" width="86" height="86" ry="7" fill="#73c48f"/><path d="M548 79v26h26v8h-26v26h-8v-26h-26v-8h26V79z" fill-opacity=".196"/><path d="M667 87.5 645.5 109l21.5 21.5-5.5 5.5-21.5-21.5-21.5 21.5-5.5-5.5 21.5-21.5L613 87.5l5.5-5.5 21.5 21.5L661.5 82z" fill-opacity=".196"/><path d="M538 182h12v11h-12zm0 35h12v11h-12zm-24-16h60v8h-60z" fill-opacity=".196"/><path d="M612 191h56v8h-56zm0 20h56v8h-56z" fill-opacity=".196"/><path d="M548 78v26h26v8h-26v26h-8v-26h-26v-8h26V78z" fill="#fff"/><path d="M667 86.5 645.5 108l21.5 21.5-5.5 5.5-21.5-21.5-21.5 21.5-5.5-5.5 21.5-21.5L613 86.5l5.5-5.5 21.5 21.5L661.5 81z" fill="#fff"/><path d="M538 181h12v11h-12zm0 35h12v11h-12zm-24-16h60v8h-60z" fill="#fff"/><path d="M612 190h56v8h-56zm0 20h56v8h-56z" fill="#fbfbfb"/></g></svg>