<svg version="1.0" viewBox="0 0 256 256" xmlns="http://www.w3.org/2000/svg"><path d="M47.5 15a8.481 8.481 0 0 0-8.5 8.5v214c0 4.709 3.791 8.5 8.5 8.5h161c4.709 0 8.5-3.791 8.5-8.5V79.05l-64.447-64.055z" fill="#6f6f6f"/><path d="M216 80v152c0 4.432-3.568 8-8 8H48c-4.432 0-8-3.568-8-8V24c0-4.432 3.568-8 8-8h104" fill="#ececec"/><path d="M216 86h-57c-4.432 0-8-3.568-8-8V16h1l64 64z" fill="#6f6f6f" fill-opacity=".502"/><path d="M216 80h-56c-4.432 0-8-3.568-8-8V16" fill="#fafafa"/><rect x="-444" y="248" width="8" height="1" ry=".5" fill="#474341" fill-opacity=".69"/><rect x="-444" y="250" width="8" height="1" ry=".5" fill="#474341" fill-opacity=".69"/><rect x="-444" y="252" width="5" height="1" ry=".456" fill="#474341" fill-opacity=".69"/><rect x="-403" y="252" width="9" height="1" ry=".456" fill="#474341" fill-opacity=".69"/><rect x="-403" y="249" width="14" height="1" ry=".456" fill="#474341" fill-opacity=".69"/><rect x="-403" y="246" width="14" height="1" ry=".456" fill="#474341" fill-opacity=".69"/><rect x="-403" y="243" width="14" height="1" ry=".456" fill="#474341" fill-opacity=".69"/><rect x="-355" y="249" width="9" height="1" ry=".456" fill="#474341" fill-opacity=".69"/><rect x="-355" y="246" width="14" height="1" ry=".456" fill="#474341" fill-opacity=".69"/><rect x="-355" y="243" width="14" height="1" ry=".456" fill="#474341" fill-opacity=".69"/><rect x="-355" y="240" width="14" height="1" ry=".456" fill="#474341" fill-opacity=".69"/><g transform="translate(-464 -28)" fill="#474341" fill-opacity=".69"><rect x="243" y="-334.5" width="9" height="1" ry=".456"/><rect x="243" y="-337.5" width="14" height="1" ry=".456"/><rect x="243" y="-340.5" width="14" height="1" ry=".456"/><rect x="243" y="-343.5" width="14" height="1" ry=".456"/><rect x="243" y="-334.5" width="9" height="1" ry=".456"/><rect x="243" y="-337.5" width="14" height="1" ry=".456"/><rect x="243" y="-340.5" width="14" height="1" ry=".456"/><rect x="243" y="-343.5" width="14" height="1" ry=".456"/><rect x="243" y="-334.5" width="9" height="1" ry=".456"/><rect x="243" y="-337.5" width="14" height="1" ry=".456"/><rect x="243" y="-340.5" width="14" height="1" ry=".456"/><rect x="243" y="-343.5" width="14" height="1" ry=".456"/><rect x="243" y="-334.5" width="7.5" height="1" ry=".456"/><rect x="243" y="-337.5" width="12" height="1" ry=".423"/><rect x="243" y="-340.5" width="12" height="1" ry=".375"/><rect x="243" y="-343.5" width="12" height="1" ry=".456"/></g><rect x="-350" y="241" width="15" height="15" ry="3.5" fill="#671d00"/><rect x="-349" y="242" width="13" height="12" ry="3" fill="#cf3b00"/><rect x="-286" y="236" width="20" height="20" ry="3.5" fill="#671d00"/><rect x="-285" y="237" width="18" height="16" ry="3" fill="#cf3b00"/><rect x="-210" y="232" width="26" height="24" ry="5.5" fill="#671d00"/><rect x="-209" y="233" width="24" height="20" ry="5" fill="#cf3b00"/><rect x="-92" y="208" width="52" height="47" ry="10.5" fill="#671d00"/><rect x="-91" y="209" width="50" height="42" ry="10" fill="#cf3b00"/><rect x="119" y="160.01" width="104" height="91.987" ry="20.5" fill="#671d00"/><rect x="120" y="161" width="102" height="86" ry="20" fill="#cf3b00"/><rect x="-398" y="244" width="13" height="12" ry="2.5" fill="#671d00"/><rect x="-397" y="245" width="11" height="10.002" ry="2" fill="#cf3b00"/><rect x="-443" y="246" width="11" height="10" ry="1.5" fill="#671d00"/><rect x="-442" y="247" width="9" height="8" ry="1" fill="#cf3b00"/><path d="M171 184a35.756 36 0 0 0-32 20.039A35.756 36 0 0 0 171 224a35.756 36 0 0 0 32-20.039A35.756 36 0 0 0 171 184zm0 4a16 16 0 0 1 16 16 16 16 0 0 1-16 16 16 16 0 0 1-16-16 16 16 0 0 1 16-16zm0 8a8 8 0 0 0-8 8 8 8 0 0 0 8 8 8 8 0 0 0 8-8 8 8 0 0 0-8-8z" fill="#fff"/></svg>