<svg version="1.0" viewBox="0 0 256 256" xmlns="http://www.w3.org/2000/svg"><g transform="translate(-464 572)"><rect x="480" y="-516" width="224" height="176" ry="8" fill="#6f6f6f"/><rect x="481" y="-515" width="222" height="170" ry="7.5" fill="#dedede"/><rect x="488" y="-508" width="208" height="143" ry="1" fill="#45454f"/><rect x="488" y="-508" width="208" height="143" ry="1" fill="#48b9c7"/><path d="M500-493v32h8v-24h32v-8h-32zm144 0v8h32v24h8v-32h-8zm-144 86v32h40v-8h-32v-24zm176 0v24h-32v8h40v-32z" fill-opacity=".196"/><path d="M500-495v32h8v-24h32v-8h-32zm144 0v8h32v24h8v-32h-8zm-144 86v32h40v-8h-32v-24zm176 0v24h-32v8h40v-32z" fill="#fff" fill-opacity=".989"/></g></svg>