<svg version="1.0" viewBox="0 0 256 256" xmlns="http://www.w3.org/2000/svg"><g transform="translate(-464 272)"><rect x="472" y="-264" width="240" height="244" ry="120" fill="#cdcdcd"/><path d="M592-264c-66.48 0-120 53.52-120 120v4c0 66.48 53.52 120 120 120s120-53.52 120-120v-4c0-66.48-53.52-120-120-120zm0 1c65.926 0 119 53.074 119 119S657.926-25 592-25 473-78.074 473-144s53.074-119 119-119z" fill-opacity=".5"/><circle cx="592" cy="-144" r="40.5" fill="none" stroke="#000" stroke-linecap="square" stroke-opacity=".5"/><circle cx="592" cy="-144" r="40" fill-opacity=".2"/><circle cx="592" cy="-144" r="16" fill-opacity=".8"/><rect x="590" y="-150" width="130" height="134" ry="65" fill="#f15d22"/><path d="M655-150c-36.01 0-65 28.99-65 65v4c0 36.01 28.99 65 65 65s65-28.99 65-65v-4c0-36.01-28.99-65-65-65zm0 1a64 64 0 0 1 64 64 64 64 0 0 1-64 64 64 64 0 0 1-64-64 64 64 0 0 1 64-64z" fill-opacity=".5"/><path d="M653.91-56.252c-6.676 0-12.039-5.288-12.039-11.777 0-6.076 3.863-10.352 10.502-11.702 6.639-1.35 13.502-4.538 17.328-9.677 1.463 4.839 2.175 9.94 2.175 15.153 0 9.901-8.026 18.002-17.965 18.002M660.625-125s2.775 9.94 2.775 18.004c0 7.726-5.063 13.99-12.789 13.99-7.764 0-13.615-6.264-13.615-13.99l.113-1.388c-7.576 9.001-12.114 20.666-12.114 33.38A30.005 30.005 0 0 0 655-45a30.005 30.005 0 0 0 30.005-30.005c0-20.253-9.714-38.256-24.379-49.995z" fill="#fff"/></g></svg>