<svg version="1.0" viewBox="0 0 256 256" xmlns="http://www.w3.org/2000/svg"><g transform="translate(-1200 872)"><rect x="1239" y="-857" width="178" height="230" ry="8.5" fill="#565656"/><rect x="1240" y="-856" width="176" height="224" ry="8" fill="#acacac"/><circle cx="1328" cy="-768" r="56" fill="#444"/><path fill="#444" d="M1272-768h56v44h-56z"/><path fill="#444" d="M1328-768v56h-44v-56z"/><rect x="1272" y="-768" width="56" height="56" ry="8" fill="#444"/><circle cx="1328" cy="-768" r="28" fill="#acacac"/><rect x="1344" y="-732" width="112" height="116" ry="56" fill="#245c63"/><path d="m1400-676-37.957 45.234C1372.008-621.593 1385.325-616 1400-616c31.024 0 56-24.976 56-56v-4z" fill="#396247"/><path d="M1455-676a55 55 0 0 1-31.756 49.847 55 55 0 0 1-58.597-7.715L1400-676z" fill="#73c48f"/><path d="M1357.9-711.35a55 55 0 0 1 60.944-16.33 55 55 0 0 1 36.189 51.683h-55z" fill="#48b9c7"/><path d="M1357.1-712.02c-8.16 9.725-13.068 22.276-13.068 36.021v4c0 16.349 6.94 31.015 18.043 41.234l37.957-45.234zm54.707 94.783zm-23.35.045c.116.024.231.053.348.076l-.348-.076zm2.709.494c1.483.234 2.988.4 4.508.516a59.999 59.999 0 0 1-4.508-.516zm16.125.22a59.998 59.998 0 0 1-4.83.419 56.71 56.71 0 0 0 4.83-.418zm-10.736.362c1.15.07 2.308.117 3.477.117.597 0 1.188-.026 1.78-.045a59.99 59.99 0 0 1-5.257-.072z" fill="#7f3c1f"/><path d="M1364.6-633.87a55 55 0 0 1-19.437-37.339 55 55 0 0 1 12.658-40.147l42.132 35.353z" fill="#ff793e"/><circle cx="1400" cy="-676" r="36" fill="#fff"/></g></svg>