<svg version="1.0" viewBox="0 0 256 256" xmlns="http://www.w3.org/2000/svg"><g transform="translate(-1200 272)"><rect x="1239" y="-257" width="178" height="230" ry="8.5" fill="#565656"/><rect x="1240" y="-256" width="176" height="224" ry="8" fill="#acacac"/><circle cx="1328" cy="-168" r="56" fill="#444"/><path fill="#444" d="M1272-168h56v44h-56z"/><path fill="#444" d="M1328-168v56h-44v-56z"/><rect x="1272" y="-168" width="56" height="56" ry="8" fill="#444"/><circle cx="1328" cy="-168" r="28" fill="#acacac"/><rect x="1344" y="-132" width="112" height="116" ry="56" fill="#552d5d"/><circle cx="1400" cy="-76" r="55" fill="#aa5abb"/><path d="m1393-104-.617 7.375a22 22 0 0 0-6.43 3.719l-6.703-3.156-7 12.125 6.086 4.226A22 22 0 0 0 1378-76a22 22 0 0 0 .32 3.727l-6.07 4.21 7 12.126 6.687-3.149a22 22 0 0 0 6.445 3.696L1393-48h14l.617-7.375a22 22 0 0 0 6.43-3.719l6.703 3.157 7-12.125-6.086-4.227a22 22 0 0 0 .336-3.71 22 22 0 0 0-.32-3.728l6.07-4.21-7-12.126-6.688 3.149a22 22 0 0 0-6.445-3.695L1407-104zm7 20a8 8 0 0 1 8 8 8 8 0 0 1-8 8 8 8 0 0 1-8-8 8 8 0 0 1 8-8z" fill="#fafafb"/></g></svg>