<svg enable-background="new" version="1.0" viewBox="0 0 256 256" xmlns="http://www.w3.org/2000/svg"><defs><filter id="a" x="0" y="0" width="1" height="1" color-interpolation-filters="sRGB"><feBlend in2="BackgroundImage" mode="darken"/></filter></defs><g filter="url(#a)" transform="translate(-464 -28)"><rect x="488" y="52" width="208" height="208" ry="16.5" fill="#5c0b2a"/><rect x="489" y="53" width="206" height="202" ry="16" fill="#ad154f"/><path d="M568 112c-3.324 0-5.648 2.695-6 6v6h-10c-3.324 0-6 2.676-6 6v48c0 3.324 2.676 6 6 6h10v6c0 3.324 2.676 6 6 6s6.337-2.693 6-6v-6h12v6c0 3.324 2.676 6 6 6s6-2.676 6-6v-6h12v6c0 3.324 2.676 6 6 6s6-2.676 6-6v-6h10c3.324 0 6-2.676 6-6v-48c0-3.324-2.676-6-6-6h-10v-6c0-3.324-2.676-6-6-6s-6 2.676-6 6v6h-12v-6c0-3.324-2.676-6-6-6s-6 2.676-6 6v6h-12v-6c0-3.324-2.676-6-6-6zm-10 24h68v6c-6.627 0-12 5.373-12 12s5.373 12 12 12v6h-68z" enable-background="new" fill="#fff"/></g></svg>