<svg version="1.0" viewBox="0 0 256 256" xmlns="http://www.w3.org/2000/svg"><g fill="#306ab8"><path d="M76 132h22v-18l-19.525.061c-1.723-.022-2.56-.417-2.475-2.532l-.03-17.54L102 94V76c-14.926 1.063-29.028 2.932-44 4v86c14.656 1.74 29.322 4.258 44 6v-18c-8.866-.77-17.343-2.247-26-3zm64.254 100C101.44 224.792 62.816 217.208 24 210V46c38.664-7.18 77.098-14.78 116-22v208"/><path d="M200.04 119.16c1.799 1.344 3.593 2.626 5.323 3.999 1.267 1.006 2.186.639 3.166-.474 2.758-3.133 5.565-6.223 8.372-9.307.917-1.009 1.15-2.18 1.147-3.532a3287.4 3287.4 0 0 1 .025-24.926c.012-2.563-1.548-4.924-4.078-4.915-7.706.032-14.293.018-22 0-1.737-.004-3.764 1.775-4.904 3.079-8.931 10.197-16.649 21.288-22.882 33.48-.983 1.924-.6 3.1.85 3.572 7.078-7.126 14.14-13.763 20.628-20.958 3.5-3.88 7.085-5.462 12.167-5.173 7.625.435 7.436.119 7.706 8.176.21 6.251.364 12.25-5.36 16.289-.06.04-.049.185-.16.69zm5.955 42.846c-3.585 0-7.674.038-11 0-5.216-.06-12.84-5.313-13.23-5.595l-4.007 5.431c-1.111 1.373-.72 2.438.46 3.548 2.816 2.648 5.61 5.32 8.32 8.088 1.242 1.266 2.75 2.531 4.457 2.528 7.612-.01 15.39.079 23 0 3.562-.034 4.042-1.644 4.047-5.292.008-7.223-.123-14.447.063-21.664.08-3.062-.858-5.343-3.029-7.26-9.581-8.465-19.582-16.293-30.732-22.44-1.831-1.01-3.198-1.138-4.259 1.77.7.57 1.676 1.219 2.485 2.043a6609.74 6609.74 0 0 1 20.922 21.444c.863.89 2.495 1.94 2.502 3.4.018 4.631 0 8.697 0 14zm-54.044 13.465c5.503.586 8.078-3.56 10.912-7.245 7.31-9.502 14.353-19.195 19.369-30.228-.506-1.003-1.07-1.758-1.88-1.959-4.645 4.707-9.218 9.295-13.738 13.933a552.05 552.05 0 0 0-10.028 10.55c-1.239 1.342-2.57 1.95-4.532 1.42v-30.34c3.293 1.88 6.332 3.654 9.409 5.356 2.157 1.19 2.233 1.128 3.873-1.222-3.918-4.1-7.846-8.226-11.796-12.325-.884-.918-1.69-1.764-1.681-3.253.05-8.505.024-17.01.024-25.9 2.402.063 4.758-.993 6.837.852 1.717 1.527 3.312 3.203 5.075 4.92 1.933-1.905 3.102-4.17 4.528-6.226.744-1.072.157-1.827-.588-2.554-3.123-3.043-6.249-6.083-9.356-9.145-1.811-1.786-4.239-.504-6.385-1.35V66.007l69.256-.066c7.539.006 10.743 3.41 10.743 11.218 0 33.95.004 66.814-.004 100.764 0 8.997-3.011 12.09-11.665 12.084h-68.33"/></g></svg>