<svg version="1.0" viewBox="0 0 256 256" xmlns="http://www.w3.org/2000/svg"><g transform="translate(-464 -28)"><rect x="103" y="255" width="24" height="22" ry="2.5" fill="#396247"/><rect x="104" y="256" width="22" height="19" ry="2" fill="#73c48f"/><rect x="160" y="240" width="36" height="33" ry="3.5" fill="#396247"/><rect x="161" y="241" width="34" height="29" ry="3" fill="#73c48f"/><g transform="matrix(2 0 0 2 -320 932)" fill="#fff"><rect x="243" y="-334.5" width="7.5" height="1" ry=".456"/><rect x="243" y="-337.5" width="12" height="1" ry=".423"/><rect x="243" y="-340.5" width="12" height="1" ry=".375"/><rect x="243" y="-343.5" width="12" height="1" ry=".456"/></g><rect x="174" y="253" width="26" height="26" ry="3.5" fill="#245c63"/><rect x="175" y="254" width="24" height="22" ry="3" fill="#48b9c7"/><rect x="230" y="226" width="48" height="44" ry="4.5" fill="#396247"/><rect x="231" y="227" width="46" height="40" ry="4" fill="#73c48f"/><g transform="matrix(2 0 0 2 -246 922)" fill="#fff"><rect x="243" y="-334.5" width="9" height="1" ry=".456"/><rect x="243" y="-337.5" width="14" height="1" ry=".456"/><rect x="243" y="-340.5" width="14" height="1" ry=".456"/><rect x="243" y="-343.5" width="14" height="1" ry=".456"/></g><rect x="246" y="244" width="36" height="34" ry="4.5" fill="#245c63"/><rect x="247" y="245" width="34" height="30" ry="4" fill="#48b9c7"/><rect x="324" y="168" width="96" height="88" ry="8.5" fill="#396247"/><rect x="325" y="169" width="94" height="83" ry="8" fill="#73c48f"/><g transform="matrix(4 0 0 4 -628 1560)" fill="#fff"><rect x="243" y="-334.5" width="9" height="1" ry=".456"/><rect x="243" y="-337.5" width="14" height="1" ry=".456"/><rect x="243" y="-340.5" width="14" height="1" ry=".456"/><rect x="243" y="-343.5" width="14" height="1" ry=".456"/></g><rect x="356" y="204" width="72" height="68" ry="8.5" fill="#245c63"/><rect x="357" y="205" width="70" height="63" ry="8" fill="#48b9c7"/><rect x="488" y="52" width="192" height="176" ry="16.5" fill="#396247"/><rect x="489" y="53" width="190" height="170" ry="16" fill="#73c48f"/><g transform="matrix(8 0 0 8 -1416 2838)" fill="#fff"><rect x="243" y="-334.5" width="9" height="1" ry=".456"/><rect x="243" y="-337.5" width="14" height="1" ry=".456"/><rect x="243" y="-340.5" width="14" height="1" ry=".456"/><rect x="243" y="-343.5" width="14" height="1" ry=".456"/></g><rect x="552" y="124" width="144" height="136" ry="16.5" fill="#245c63"/><rect x="553" y="125" width="142" height="130" ry="16" fill="#48b9c7"/><rect x="56" y="260" width="18" height="17" ry="2.5" fill="#396247"/><rect x="57" y="261" width="16" height="15" ry="2" fill="#73c48f"/><rect x="16" y="268" width="12" height="11" ry="1.5" fill="#396247"/><rect x="17" y="269" width="10" height="9" ry="1" fill="#73c48f"/><rect x="18" y="271" width="8" height="1" ry=".5" fill="#fff"/><rect x="58" y="272" width="9" height="1" ry=".456" fill="#fff"/><rect x="58" y="269" width="14" height="1" ry=".456" fill="#fff"/><rect x="63" y="267" width="17" height="17" ry="2.5" fill="#245c63"/><rect x="64" y="268" width="15" height="15" ry="2" fill="#48b9c7"/><rect x="58" y="266" width="14" height="1" ry=".456" fill="#fff"/><rect x="58" y="263" width="14" height="1" ry=".456" fill="#fff"/><g fill="#fff"><rect x="108" y="269" width="9" height="1" ry=".456"/><rect x="108" y="266" width="14" height="1" ry=".456"/><rect x="108" y="263" width="14" height="1" ry=".456"/><rect x="108" y="260" width="14" height="1" ry=".456"/></g><rect x="112" y="264" width="17" height="17" ry="2.5" fill="#245c63"/><rect x="113" y="265" width="15" height="14" ry="2" fill="#48b9c7"/><rect x="18" y="273" width="8" height="1" ry=".5" fill="#fff"/><rect x="18" y="275" width="5" height="1" ry=".456" fill="#fff"/><rect x="20" y="273" width="12" height="11" ry="1.5" fill="#245c63"/><rect x="21" y="274" width="10" height="9" ry="1" fill="#48b9c7"/><g fill="#fff"><circle cx="23" cy="279" r="1"/><circle cx="26" cy="279" r="1"/><circle cx="29" cy="279" r="1"/></g><g transform="translate(0 -1)" fill="#fff"><circle cx="67.5" cy="276.5" r="1.5"/><circle cx="71.5" cy="276.5" r="1.5"/><circle cx="75.5" cy="276.5" r="1.5"/></g><g transform="translate(49 -4.5)" fill="#fff"><circle cx="67.5" cy="276.5" r="1.5"/><circle cx="71.5" cy="276.5" r="1.5"/><circle cx="75.5" cy="276.5" r="1.5"/></g><g fill="#fff" transform="matrix(1.5 0 0 1.5 79.75 -149.75)"><circle cx="67.167" cy="276.5" r="1.333"/><circle cx="71.167" cy="276.5" r="1.333"/><circle cx="75.167" cy="276.5" r="1.333"/></g><g fill="#fff" transform="matrix(1.5 0 0 1.5 157.25 -154.75)"><circle cx="67.167" cy="276.5" r="1.333"/><circle cx="71.167" cy="276.5" r="1.333"/><circle cx="75.167" cy="276.5" r="1.333"/></g><g fill="#fff" transform="matrix(3 0 0 3 178.5 -593.5)"><circle cx="67.167" cy="276.5" r="1.333"/><circle cx="71.167" cy="276.5" r="1.333"/><circle cx="75.167" cy="276.5" r="1.333"/></g><g fill="#fff" transform="matrix(6 0 0 6 197 -1469)"><circle cx="67.167" cy="276.5" r="1.333"/><circle cx="71.167" cy="276.5" r="1.333"/><circle cx="75.167" cy="276.5" r="1.333"/></g></g></svg>