<svg version="1.0" viewBox="0 0 256 256" xmlns="http://www.w3.org/2000/svg"><g transform="translate(-464 -28)"><rect x="472" y="36" width="240" height="243" ry="120" fill="#1f285a"/><rect x="473" y="37" width="238" height="238" ry="117.87" fill="#3f51b5"/><path d="M592 37.999c-1.417 0-2.818.056-4.223.105h-.008c-1.13.04-2.257.09-3.379.16l-.054.005c-.386.024-.768.061-1.153.09-1.987.146-3.96.34-5.918.581-1.958.242-3.901.53-5.828.868l-.207.035c-.25.043-.5.087-.75.133l-.078.015c-1.256.231-2.508.476-3.75.746a117.553 117.553 0 0 0-12.45 3.438c-18.411 10.005-33.901 27.076-44.3 48.824h-17.766c-.006.008-.01.018-.016.027a118.682 118.682 0 0 0-2.227 3.684l-.039.066c-.079.136-.156.274-.234.41l-.035.063a116.005 116.005 0 0 0-2.055 3.73l-.008.012-.004.008h18.805c-6.283 15.854-9.767 33.258-10.211 51H474.1c-.044 1.331-.102 2.659-.102 4s.058 2.67.102 4h22.055c.462 17.747 3.967 35.152 10.27 51h-18.906a115.927 115.927 0 0 0 2.067 3.75l.035.063c.078.137.155.274.234.41a118.565 118.565 0 0 0 2.266 3.75l.008.012a.06.06 0 0 0 .008.016h17.793c10.159 21.4 25.243 38.32 43.215 48.47.002 0 .006.001.008.003h.004c.014.004.028.01.043.016.025.008.052.014.078.024 1.922.663 3.87 1.28 5.836 1.843.103.03.206.057.309.086 1.975.561 3.968 1.074 5.984 1.536l.027.008a117.974 117.974 0 0 0 4.656.969h.005c.266.049.534.092.8.14a118.165 118.165 0 0 0 12.348 1.55c.308.023.614.05.922.07 1.256.083 2.518.142 3.785.184 1.348.046 2.692.102 4.05.102 1.417 0 2.82-.056 4.224-.105h.008c1.13-.04 2.257-.09 3.378-.16l.055-.005c.386-.024.768-.061 1.152-.09 1.988-.146 3.96-.34 5.918-.581a116.42 116.42 0 0 0 5.828-.868l.207-.035c.25-.044.501-.087.75-.133.027-.004.052-.01.079-.016 1.256-.23 2.508-.475 3.75-.746a117.553 117.553 0 0 0 12.449-3.437C648.21 257.82 663.7 240.749 674.099 219h17.766c.004-.004.004-.01.008-.016l.008-.012a118.682 118.682 0 0 0 2.227-3.684c.104-.179.205-.36.308-.539.705-1.23 1.393-2.472 2.055-3.73l.008-.012.004-.008h-18.805c6.282-15.854 9.767-33.258 10.21-51H709.9c.044-1.331.101-2.658.101-4s-.057-2.67-.101-4h-22.055c-.462-17.747-3.967-35.152-10.27-51h18.906l-.004-.008c-.002-.004-.006-.006-.008-.012a115.956 115.956 0 0 0-2.055-3.73l-.308-.54a118.565 118.565 0 0 0-2.227-3.683l-.008-.012c-.004-.004-.004-.01-.008-.016H674.07c-10.159-21.4-25.243-38.32-43.215-48.47l-.012-.003a.405.405 0 0 1-.043-.016c-.026-.008-.053-.014-.078-.024-1.922-.663-3.87-1.28-5.836-1.844-.103-.03-.206-.056-.309-.085a119.412 119.412 0 0 0-5.984-1.536l-.028-.007c-.275-.063-.55-.127-.828-.188-1.268-.28-2.544-.542-3.828-.781h-.004c-.266-.05-.534-.093-.8-.14a118.165 118.165 0 0 0-12.348-1.552c-.308-.022-.614-.05-.922-.07-1.256-.082-2.518-.14-3.785-.184-1.346-.043-2.69-.1-4.05-.1zm4 4.582c11.927 3.44 22.684 21.944 29.309 50.418H596zm-8 .074V93h-29.309c6.63-28.445 17.386-46.92 29.309-50.344zm23.812 2.387c21.849 6.593 40.928 23.748 53.34 47.957h-32.156c-4.999-21.045-12.383-37.761-21.184-47.957zm-39.695.05c-8.8 10.182-16.184 26.879-21.188 47.907h-32.133c12.414-24.185 31.485-41.32 53.32-47.906zM515 101h34.234c-3.174 15.835-4.948 33.24-5.2 51h-39.878c.478-17.866 4.192-35.337 10.844-51zm41.973 0H588v51h-35.93c.209-17.86 1.888-35.33 4.902-51zM596 101h30.988c3.034 15.656 4.734 33.126 4.96 51H596zm38.754 0h34.16c6.711 15.644 10.485 33.116 11.016 51h-40.012c-.24-17.753-2.003-35.158-5.164-51zm-130.68 59h40.012c.24 17.753 2.002 35.158 5.164 51h-34.16c-6.711-15.644-10.485-33.116-11.016-51zm47.98 0h35.949v51h-30.988c-3.035-15.656-4.734-33.126-4.96-51zm43.949 0h35.93c-.209 17.86-1.888 35.33-4.902 51h-31.027zm43.965 0h39.879c-.478 17.866-4.192 35.337-10.844 51h-34.234c3.174-15.835 4.948-33.24 5.2-51zm-121.12 59h32.156c4.999 21.045 12.383 37.76 21.184 47.957-21.849-6.594-40.928-23.748-53.34-47.957zm39.844 0h29.309v50.418c-11.927-3.44-22.684-21.944-29.309-50.418zm37.309 0h29.309c-6.63 28.445-17.386 46.92-29.309 50.344zm37.07 0h32.133c-12.414 24.185-31.485 41.319-53.32 47.906 8.8-10.181 16.184-26.878 21.188-47.906z" fill="#94a6ff"/></g></svg>