<svg version="1.0" viewBox="0 0 256 256" xmlns="http://www.w3.org/2000/svg"><g transform="translate(-464 -28)"><rect x="488" y="52" width="192" height="176" ry="16.5" fill="#396247"/><rect x="489" y="53" width="190" height="170" ry="16" fill="#73c48f"/><g transform="matrix(8 0 0 8 -1416 2838)" fill="#fff"><rect x="243" y="-334.5" width="9" height="1" ry=".456"/><rect x="243" y="-337.5" width="14" height="1" ry=".456"/><rect x="243" y="-340.5" width="14" height="1" ry=".456"/><rect x="243" y="-343.5" width="14" height="1" ry=".456"/></g><rect x="552" y="124" width="144" height="136" ry="16.5" fill="#245c63"/><rect x="553" y="125" width="142" height="130" ry="16" fill="#48b9c7"/><g fill="#fff" transform="matrix(6 0 0 6 197 -1469)"><circle cx="67.167" cy="276.5" r="1.333"/><circle cx="71.167" cy="276.5" r="1.333"/><circle cx="75.167" cy="276.5" r="1.333"/></g></g></svg>