<svg version="1.0" viewBox="0 0 256 256" xmlns="http://www.w3.org/2000/svg"><g transform="translate(-464 -28)"><rect x="480" y="84" width="224" height="176" ry="16" fill="#245c63"/><rect x="481" y="85" width="222" height="170" ry="15.5" fill="#48b9c7"/><rect x="504" y="108" width="176" height="120" ry="8" fill="#f6f6f6"/><path d="M528 116v68l24-24 24 24 40-40 40 40v-68z" fill="#1c8d9b" opacity=".5"/><path d="m592 152 64 68H528z" fill="#1c8d9b"/><rect x="610" y="176.01" width="104" height="91.987" ry="20.5" fill="#671d00"/><rect x="611" y="177" width="102" height="86" ry="20" fill="#cf3b00"/><path d="M662 200a35.756 36 0 0 0-32 20.039A35.756 36 0 0 0 662 240a35.756 36 0 0 0 32-20.039A35.756 36 0 0 0 662 200zm0 4a16 16 0 0 1 16 16 16 16 0 0 1-16 16 16 16 0 0 1-16-16 16 16 0 0 1 16-16zm0 8a8 8 0 0 0-8 8 8 8 0 0 0 8 8 8 8 0 0 0 8-8 8 8 0 0 0-8-8z" fill="#fff"/></g></svg>