<svg version="1.0" viewBox="0 0 256 256" xmlns="http://www.w3.org/2000/svg"><g transform="translate(-464 -28)"><rect x="480" y="84" width="224" height="176" ry="16" fill="#782e11"/><rect x="481" y="85" width="222" height="170" ry="15.5" fill="#f15d22"/><path d="M496.5 85c-8.587 0-15.5 6.913-15.5 15.5V117h222v-16.5c0-8.587-6.913-15.5-15.5-15.5z"/><g fill="#f7f7f7"><path d="m516 85-16 32h24l16-32z"/><path d="m564 85-16 32h24l16-32z"/><path d="m612 85-16 32h24l16-32z"/><path d="m660 85-16 32h24l16-32z"/></g><path d="M568.2 134.06a5.998 5.998 0 0 0-5.976 5.648h-.012v.153c-.004.066-.004.133-.012.199-.001.14.002.281.012.422l-.012 51.457a6 6 0 0 0 6 6 6 6 0 0 0 2.53-.574l.013.012.152-.083.024-.012a6 6 0 0 0 .528-.293l47.074-25.629c.02-.008.042-.02.06-.024v-.012a6 6 0 0 0 3.222-5.308 6 6 0 0 0-3.023-5.203l-.106-.06c-.008-.004-.02-.004-.024-.012l-47.543-25.934h-.012a6.058 6.058 0 0 0-2.895-.748z" fill="#fff"/><rect x="481" y="215" width="222" height="40" ry="14" fill="#dedede"/><rect x="493" y="231" width="140" height="8" ry="4" fill="#cf3b00"/><g transform="matrix(2 0 0 2 -129 -281)"><circle cx="382" cy="258" r="6" fill="#822500"/><circle cx="382" cy="258" r="4" fill="#fffaf8"/></g></g></svg>