<svg version="1.0" viewBox="0 0 256 256" xmlns="http://www.w3.org/2000/svg"><path d="m250 241.92-1.08.088c-9.566.77-17.633 7.618-19.92 9.734v-1.738l-1.143.844v2l.194.584s5.341 16.105 20.855 17.568l1.093.103v-24.172z" clip-rule="evenodd" color="#000" fill="#626b26" fill-rule="evenodd" style="font-feature-settings:normal;font-variant-alternates:normal;font-variant-caps:normal;font-variant-east-asian:normal;font-variant-ligatures:normal;font-variant-numeric:normal;font-variant-position:normal;font-variation-settings:normal;inline-size:0;isolation:auto;mix-blend-mode:normal;shape-margin:0;shape-padding:0;text-decoration-color:#000;text-decoration-line:none;text-decoration-style:solid;text-indent:0;text-orientation:mixed;text-transform:none;white-space:normal" transform="translate(-464 -28)"/><path d="m250 239.92-1.08.088c-11.316.91-20.63 10.402-20.63 10.402l-.433.437.194.584s5.341 16.105 20.855 17.568l1.093.104v-4.983l-.875-.109c-9.545-1.199-13.038-10.872-13.469-12.164.757-1.01 4.993-6.205 13.42-6.846l.924-.07z" clip-rule="evenodd" color="#000" fill="#626b26" fill-rule="evenodd" style="font-feature-settings:normal;font-variant-alternates:normal;font-variant-caps:normal;font-variant-east-asian:normal;font-variant-ligatures:normal;font-variant-numeric:normal;font-variant-position:normal;font-variation-settings:normal;inline-size:0;isolation:auto;mix-blend-mode:normal;shape-margin:0;shape-padding:0;text-decoration-color:#000;text-decoration-line:none;text-decoration-style:solid;text-indent:0;text-orientation:mixed;text-transform:none;white-space:normal" transform="translate(-464 -28)"/><path d="m169.96 243.11-1.441.117c-11.49.925-21.418 8.416-21.418 8.416v2.666l.26.78s5.405 16.31 21.14 17.795l1.46.136v-24.229z" clip-rule="evenodd" color="#000" fill="#626b26" fill-rule="evenodd" style="font-feature-settings:normal;font-variant-alternates:normal;font-variant-caps:normal;font-variant-east-asian:normal;font-variant-ligatures:normal;font-variant-numeric:normal;font-variant-position:normal;font-variation-settings:normal;inline-size:0;isolation:auto;mix-blend-mode:normal;shape-margin:0;shape-padding:0;text-decoration-color:#000;text-decoration-line:none;text-decoration-style:solid;text-indent:0;text-orientation:mixed;text-transform:none;white-space:normal" transform="matrix(.75 0 0 .75 -415.472 43.083)"/><path d="m169.96 240.44-1.441.117c-11.49.925-20.838 10.5-20.838 10.5l-.58.582.26.78s5.405 16.31 21.14 17.795l1.46.136v-24.229z" clip-rule="evenodd" color="#000" fill="#626b26" fill-rule="evenodd" style="font-feature-settings:normal;font-variant-alternates:normal;font-variant-caps:normal;font-variant-east-asian:normal;font-variant-ligatures:normal;font-variant-numeric:normal;font-variant-position:normal;font-variation-settings:normal;inline-size:0;isolation:auto;mix-blend-mode:normal;shape-margin:0;shape-padding:0;text-decoration-color:#000;text-decoration-line:none;text-decoration-style:solid;text-indent:0;text-orientation:mixed;text-transform:none;white-space:normal" transform="matrix(.75 0 0 .75 -415.472 43.083)"/><path d="m114 261.92-1.08.087c-5.918.476-10.63 5.348-10.63 5.348l-.434.436.195.585s2.766 8.36 10.855 9.123l1.093.104V265.43z" clip-rule="evenodd" color="#000" fill="#626b26" fill-rule="evenodd" style="font-feature-settings:normal;font-variant-alternates:normal;font-variant-caps:normal;font-variant-east-asian:normal;font-variant-ligatures:normal;font-variant-numeric:normal;font-variant-position:normal;font-variation-settings:normal;inline-size:0;isolation:auto;mix-blend-mode:normal;shape-margin:0;shape-padding:0;text-decoration-color:#000;text-decoration-line:none;text-decoration-style:solid;text-indent:0;text-orientation:mixed;text-transform:none;white-space:normal" transform="translate(-464 -28)"/><path d="m114 262.92-1.08.087c-5.918.476-11.063 4.784-11.063 4.784v1l.194.585s2.767 8.36 10.855 9.123l1.094.104V266.43z" clip-rule="evenodd" color="#000" fill="#626b26" fill-rule="evenodd" style="font-feature-settings:normal;font-variant-alternates:normal;font-variant-caps:normal;font-variant-east-asian:normal;font-variant-ligatures:normal;font-variant-numeric:normal;font-variant-position:normal;font-variation-settings:normal;inline-size:0;isolation:auto;mix-blend-mode:normal;shape-margin:0;shape-padding:0;text-decoration-color:#000;text-decoration-line:none;text-decoration-style:solid;text-indent:0;text-orientation:mixed;text-transform:none;white-space:normal" transform="translate(-464 -28)"/><path d="m24 271.42-1.08.088c-3.22.259-5.629 2.818-5.629 2.818l-.434.438.194.584s1.478 4.49 5.855 4.902l1.094.104v-6.172z" clip-rule="evenodd" color="#000" fill="#626b26" fill-rule="evenodd" style="font-feature-settings:normal;font-variant-alternates:normal;font-variant-caps:normal;font-variant-east-asian:normal;font-variant-ligatures:normal;font-variant-numeric:normal;font-variant-position:normal;font-variation-settings:normal;inline-size:0;isolation:auto;mix-blend-mode:normal;shape-margin:0;shape-padding:0;text-decoration-color:#000;text-decoration-line:none;text-decoration-style:solid;text-indent:0;text-orientation:mixed;text-transform:none;white-space:normal" transform="translate(-464 -28)"/><path d="m65 264.92-1.08.088c-4.77.384-8.617 4.26-8.617 4.26l-.46.447.214.603s2.34 6.699 8.85 7.313l1.093.103v-9.623z" clip-rule="evenodd" color="#000" fill="#626b26" fill-rule="evenodd" style="font-feature-settings:normal;font-variant-alternates:normal;font-variant-caps:normal;font-variant-east-asian:normal;font-variant-ligatures:normal;font-variant-numeric:normal;font-variant-position:normal;font-variation-settings:normal;inline-size:0;isolation:auto;mix-blend-mode:normal;shape-margin:0;shape-padding:0;text-decoration-color:#000;text-decoration-line:none;text-decoration-style:solid;text-indent:0;text-orientation:mixed;text-transform:none;white-space:normal" transform="translate(-462 -28)"/><path d="m364 198.92-1.08.088c-22.112 1.779-41.062 17.95-41.062 17.95v3l.193.587s10.492 31.59 40.855 34.455l1.094.103v-48.172z" clip-rule="evenodd" color="#000" fill="#626b26" fill-rule="evenodd" style="font-feature-settings:normal;font-variant-alternates:normal;font-variant-caps:normal;font-variant-east-asian:normal;font-variant-ligatures:normal;font-variant-numeric:normal;font-variant-position:normal;font-variation-settings:normal;inline-size:0;isolation:auto;mix-blend-mode:normal;shape-margin:0;shape-padding:0;text-decoration-color:#000;text-decoration-line:none;text-decoration-style:solid;text-indent:0;text-orientation:mixed;text-transform:none;white-space:normal" transform="translate(-464 -28)"/><path d="m364 195.92-1.08.088c-22.112 1.779-40.63 20.516-40.63 20.516l-.433.435.194.586s10.492 31.591 40.855 34.455l1.093.104v-48.172z" clip-rule="evenodd" color="#000" fill="#626b26" fill-rule="evenodd" style="font-feature-settings:normal;font-variant-alternates:normal;font-variant-caps:normal;font-variant-east-asian:normal;font-variant-ligatures:normal;font-variant-numeric:normal;font-variant-position:normal;font-variation-settings:normal;inline-size:0;isolation:auto;mix-blend-mode:normal;shape-margin:0;shape-padding:0;text-decoration-color:#000;text-decoration-line:none;text-decoration-style:solid;text-indent:0;text-orientation:mixed;text-transform:none;white-space:normal" transform="translate(-464 -28)"/><path d="m568 111.92-1.08.088c-43.704 3.516-81.062 37.176-81.062 37.176v4l.193.586s20.794 62.565 80.855 68.23l1.094.103z" clip-rule="evenodd" color="#000" fill="#626b26" fill-rule="evenodd" style="font-feature-settings:normal;font-variant-alternates:normal;font-variant-caps:normal;font-variant-east-asian:normal;font-variant-ligatures:normal;font-variant-numeric:normal;font-variant-position:normal;font-variation-settings:normal;inline-size:0;isolation:auto;mix-blend-mode:normal;shape-margin:0;shape-padding:0;text-decoration-color:#000;text-decoration-line:none;text-decoration-style:solid;text-indent:0;text-orientation:mixed;text-transform:none;white-space:normal" transform="translate(-464 -28)"/><path d="m568 107.92-1.08.088c-43.704 3.516-80.63 40.74-80.63 40.74l-.433.435.194.586s20.794 62.565 80.855 68.23l1.093.104z" clip-rule="evenodd" color="#000" fill="#626b26" fill-rule="evenodd" style="font-feature-settings:normal;font-variant-alternates:normal;font-variant-caps:normal;font-variant-east-asian:normal;font-variant-ligatures:normal;font-variant-numeric:normal;font-variant-position:normal;font-variation-settings:normal;inline-size:0;isolation:auto;mix-blend-mode:normal;shape-margin:0;shape-padding:0;text-decoration-color:#000;text-decoration-line:none;text-decoration-style:solid;text-indent:0;text-orientation:mixed;text-transform:none;white-space:normal" transform="translate(-464 -28)"/><path d="M102 56v166h125.5c6.925 0 12.5-5.575 12.5-12.5v-141c0-6.925-5.575-12.5-12.5-12.5z" fill="#626b26"/><path d="M110.7 104.35c22.617 0 36.039 17.595 36.039 17.595l-18.387 15.487c-8.259-13.753-11.614-18.767-25.357-20.429v38c3.365 1.114 7.474 1.747 11.019 1.727 26.827 0 51.852-34.734 51.852-34.734S142.304 91.9 106.995 93.003c-1.279.042-2.747-.12-4 0v12c2.299-.238 5.24-.653 7.705-.653z" clip-rule="evenodd" fill="#c4d64d" fill-rule="evenodd"/><path d="M103 57v24c1.279-.093 2.742.036 4 0 49.098-1.667 81.484 40.445 81.484 40.445s-36.742 44.664-75.008 44.664c-3.521 0-7.38-.566-10.477-1.11v12c2.64.322 5.962.712 8.805.712 35.625 0 61.386-18.191 86.328-39.711 4.147 3.308 21.088 11.349 24.563 14.89-23.726 19.843-78.363 36.11-109.7 36.11-3.024 0-7.152.269-10 0v28h124c6.648 0 12-5.352 12-12V69c0-6.648-5.352-12-12-12z" clip-rule="evenodd" fill="#c4d64d" fill-rule="evenodd"/><path d="M78.98 127.16s10.227-11.828 24.021-10.161v-12C76.728 107.842 61.5 125.13 61.5 125.13s8.559 33.992 41.501 39.869v-10c-18.568-6.25-24.02-27.839-24.02-27.839z" clip-rule="evenodd" fill="#c4d64d" fill-rule="evenodd"/><path d="M45.07 123.66S64.021 95.961 103.001 93V81c-43.184 3.474-80 40.449-80 40.449s20.603 61.948 80 67.551v-12c-43.583-5.473-57.931-53.34-57.931-53.34z" clip-rule="evenodd" fill="#c4d64d" fill-rule="evenodd"/></svg>