<svg version="1.0" viewBox="0 0 256 256" xmlns="http://www.w3.org/2000/svg"><g transform="translate(-464 -28)"><rect x="480" y="84" width="224" height="176" ry="16" fill="#767676"/><rect x="481" y="85" width="222" height="170" ry="16.5" fill="#ededed"/><rect x="481" y="85" width="222" height="35" ry="15.5" fill="#faa41a"/><rect x="481" y="104" width="222" height="24" ry="0" fill="#faa41a"/><g transform="matrix(4 0 0 4 -432 -848)"><path fill-opacity=".235" d="M235 248h6v6h-6z"/><path fill-opacity=".235" d="M244 248h6v6h-6z"/><path fill-opacity=".235" d="M253 248h6v6h-6z"/><path fill-opacity=".235" d="M262 248h6v6h-6z"/><path fill-opacity=".235" d="M235 257h6v6h-6z"/><path fill-opacity=".235" d="M244 257h6v6h-6z"/><path fill-opacity=".235" d="M253 257h6v6h-6z"/><path fill-opacity=".235" d="M271 248h6v6h-6z"/><path fill-opacity=".235" d="M271 257h6v6h-6z"/><path fill-opacity=".235" d="M235 265.5h6v6h-6z"/><path fill-opacity=".235" d="M244 265.5h6v6h-6z"/><path fill-opacity=".235" d="M253 265.5h6v6h-6z"/><path fill-opacity=".235" d="M262 265.5h6v6h-6z"/><path fill-opacity=".235" d="M271 265.5h6v6h-6z"/><circle cx="265" cy="260" r="4" fill-opacity=".196"/><circle cx="265" cy="259.5" r="4" fill="#faa41a"/></g></g></svg>