<svg version="1.0" viewBox="0 0 256 256" xmlns="http://www.w3.org/2000/svg"><g transform="translate(-464 -28)"><rect x="504" y="45" width="176" height="215" ry="8" fill="#245c63"/><rect x="505" y="46" width="174" height="213" ry="7.5" fill="#dedede"/><path d="M672 69v40h16c4.432 0 8-3.568 8-8V77c0-4.432-3.568-8-8-8h-8z" fill-opacity=".196"/><rect x="672" y="71" width="24" height="40" ry="8" fill="#faa41a"/><rect x="672" y="71" width="16" height="40" ry="0" fill="#faa41a"/><path d="M672 105v40h16c4.432 0 8-3.568 8-8v-24c0-4.432-3.568-8-8-8h-8z" fill-opacity=".196"/><rect x="672" y="107" width="24" height="40" ry="8" fill="#73c48f"/><rect x="672" y="107" width="16" height="40" ry="0" fill="#73c48f"/><path d="M672 141v40h16c4.432 0 8-3.568 8-8v-24c0-4.432-3.568-8-8-8h-8z" fill-opacity=".196"/><rect x="672" y="143" width="24" height="40" ry="8" fill="#b84acb"/><rect x="672" y="143" width="16" height="40" ry="0" fill="#b84acb"/><path d="M672 177v40h16c4.432 0 8-3.568 8-8v-24c0-4.432-3.568-8-8-8h-8z" fill-opacity=".196"/><rect x="672" y="179" width="24" height="40" ry="8" fill="#f15d22"/><rect x="672" y="179" width="16" height="40" ry="0" fill="#f15d22"/><rect x="504" y="44" width="174" height="202" ry="8" fill="#245c63"/><rect x="505" y="45" width="172" height="200" ry="7.5" fill="#48b9c7"/><path d="M512.5 45a7.484 7.484 0 0 0-7.5 7.5v199c0 4.155 3.348 7.646 7.5 7.5h3.5V45z" fill="#16393e"/><path d="M601 99c26.51 0 48 21.49 48 48v6c0 9.941-8.059 18-18 18a18.009 18.009 0 0 1-13.781-6.422C612.942 168.523 607.277 171 601 171c-13.255 0-24-10.745-24-24s10.745-24 24-24 24 10.745 24 24v6a6 6 0 0 0 12 0v-6c0-19.882-16.118-36-36-36s-36 16.118-36 36 16.118 36 36 36h30s6 0 6 6c-.374 6-6 6-6 6h-30c-26.51 0-48-21.49-48-48s21.49-48 48-48zm0 36c-6.628 0-12 5.373-12 12s5.372 12 12 12 12-5.373 12-12-5.372-12-12-12z" fill-opacity=".196"/><path d="M601 97c26.51 0 48 21.49 48 48v6c0 9.941-8.059 18-18 18a18.009 18.009 0 0 1-13.781-6.422C612.942 166.523 607.277 169 601 169c-13.255 0-24-10.745-24-24s10.745-24 24-24 24 10.745 24 24v6a6 6 0 0 0 12 0v-6c0-19.882-16.118-36-36-36s-36 16.118-36 36 16.118 36 36 36h30s6 0 6 6c-.374 6-6 6-6 6h-30c-26.51 0-48-21.49-48-48s21.49-48 48-48zm0 36c-6.628 0-12 5.373-12 12s5.372 12 12 12 12-5.373 12-12-5.372-12-12-12z" fill="#fff"/></g></svg>