<svg version="1.0" viewBox="0 0 256 256" xmlns="http://www.w3.org/2000/svg"><g transform="translate(-464 -28)"><rect x="105" y="255" width="22" height="26" ry="2" fill="#245c63"/><rect x="106" y="256" width="20" height="24" ry="1.5" fill="#dedede"/><rect x="105" y="254" width="20" height="24" ry="2" fill="#245c63"/><rect x="106" y="255" width="18" height="22" ry="1.5" fill="#48b9c7"/><path d="M107.5 255c-.831 0-1.5.669-1.5 1.5v22c0 .831.669 1.5 1.5 1.5h.5v-25z" fill="#16393e"/><rect x="234" y="225" width="44" height="53" ry="3" fill="#245c63"/><rect x="235" y="226" width="42" height="51" ry="2.5" fill="#dedede"/><rect x="234" y="224" width="42" height="49" ry="3" fill="#245c63"/><rect x="235" y="225" width="40" height="47" ry="2.5" fill="#48b9c7"/><path d="M237.5 225a2.495 2.495 0 0 0-2.5 2.5v47c0 1.385 1.147 2.796 2.5 2.5h.5v-52z" fill="#16393e"/><rect x="332" y="165" width="88" height="107" ry="5" fill="#245c63"/><rect x="333" y="166" width="86" height="105" ry="5" fill="#dedede"/><path d="M416 176v20h8c2.216 0 4-1.784 4-4v-12c0-2.216-1.784-4-4-4h-4z" fill-opacity=".196"/><g transform="matrix(4 0 0 4 -84 -855)" fill="#faa41a"><rect x="125" y="258" width="3" height="5" ry="1"/><rect x="125" y="258" width="2" height="5" ry="0"/></g><path d="M416 194v20h8c2.216 0 4-1.784 4-4v-12c0-2.216-1.784-4-4-4h-4z" fill-opacity=".196"/><g transform="matrix(4 0 0 4 -84 -837)" fill="#73c48f"><rect x="125" y="258" width="3" height="5" ry="1"/><rect x="125" y="258" width="2" height="5" ry="0"/></g><path d="M416 212v20h8c2.216 0 4-1.784 4-4v-12c0-2.216-1.784-4-4-4h-4z" fill-opacity=".196"/><g transform="matrix(4 0 0 4 -84 -819)" fill="#b84acb"><rect x="125" y="258" width="3" height="5" ry="1"/><rect x="125" y="258" width="2" height="5" ry="0"/></g><path d="M416 230v20h8c2.216 0 4-1.784 4-4v-12c0-2.216-1.784-4-4-4h-4z" fill-opacity=".196"/><g transform="matrix(4 0 0 4 -84 -801)" fill="#f15d22"><rect x="125" y="258" width="3" height="5" ry="1"/><rect x="125" y="258" width="2" height="5" ry="0"/></g><rect x="332" y="164" width="86" height="100" ry="5" fill="#245c63"/><rect x="333" y="165" width="84" height="98" ry="4.5" fill="#48b9c7"/><path d="M337.5 165a4.49 4.49 0 0 0-4.5 4.5v97a4.49 4.49 0 0 0 4.5 4.5h1.5V165z" fill="#16393e"/><rect x="504" y="45" width="176" height="215" ry="8" fill="#245c63"/><rect x="505" y="46" width="174" height="213" ry="7.5" fill="#dedede"/><path d="M672 69v40h16c4.432 0 8-3.568 8-8V77c0-4.432-3.568-8-8-8h-8z" fill-opacity=".196"/><rect x="672" y="71" width="24" height="40" ry="8" fill="#faa41a"/><rect x="672" y="71" width="16" height="40" ry="0" fill="#faa41a"/><path d="M672 105v40h16c4.432 0 8-3.568 8-8v-24c0-4.432-3.568-8-8-8h-8z" fill-opacity=".196"/><rect x="672" y="107" width="24" height="40" ry="8" fill="#73c48f"/><rect x="672" y="107" width="16" height="40" ry="0" fill="#73c48f"/><path d="M672 141v40h16c4.432 0 8-3.568 8-8v-24c0-4.432-3.568-8-8-8h-8z" fill-opacity=".196"/><rect x="672" y="143" width="24" height="40" ry="8" fill="#b84acb"/><rect x="672" y="143" width="16" height="40" ry="0" fill="#b84acb"/><path d="M672 177v40h16c4.432 0 8-3.568 8-8v-24c0-4.432-3.568-8-8-8h-8z" fill-opacity=".196"/><rect x="672" y="179" width="24" height="40" ry="8" fill="#f15d22"/><rect x="672" y="179" width="16" height="40" ry="0" fill="#f15d22"/><rect x="504" y="44" width="174" height="202" ry="8" fill="#245c63"/><rect x="505" y="45" width="172" height="200" ry="7.5" fill="#48b9c7"/><path d="M512.5 45a7.484 7.484 0 0 0-7.5 7.5v199c0 4.155 3.348 7.646 7.5 7.5h3.5V45z" fill="#16393e"/><rect x="164" y="240" width="33" height="39" ry="3" fill="#245c63"/><rect x="165" y="241" width="31" height="37" ry="2.5" fill="#dedede"/><path d="M194.5 242v8h3c.831 0 1.5-.669 1.5-1.5v-5c0-.831-.669-1.5-1.5-1.5H196z" fill-opacity=".196"/><g transform="matrix(1.5 0 0 1.5 7 -144)" fill="#faa41a"><rect x="125" y="258" width="3" height="5.333" ry="1"/><rect x="125" y="258" width="1.667" height="5.333" ry="0"/></g><path d="M194.5 249v8h3c.831 0 1.5-.669 1.5-1.5v-5c0-.831-.669-1.5-1.5-1.5H196z" fill-opacity=".196"/><g transform="matrix(1.5 0 0 1.5 7 -137)" fill="#73c48f"><rect x="125" y="258" width="3" height="5.333" ry="1"/><rect x="125" y="258" width="1.667" height="5.333" ry="0"/></g><path d="M194.5 256v8h3c.831 0 1.5-.669 1.5-1.5v-5c0-.831-.669-1.5-1.5-1.5H196z" fill-opacity=".196"/><g transform="matrix(1.5 0 0 1.5 7 -130)" fill="#b84acb"><rect x="125" y="258" width="3" height="5.333" ry="1"/><rect x="125" y="258" width="1.667" height="5.333" ry="0"/></g><path d="M194.5 263v8h3c.831 0 1.5-.669 1.5-1.5v-5c0-.831-.669-1.5-1.5-1.5H196z" fill-opacity=".196"/><g transform="matrix(1.5 0 0 1.5 7 -123)" fill="#f15d22"><rect x="125" y="258" width="3" height="5.333" ry="1"/><rect x="125" y="258" width="1.667" height="5.333" ry="0"/></g><rect x="164" y="239" width="31" height="36" ry="3" fill="#245c63"/><rect x="165" y="240" width="29" height="34" ry="2.4" fill="#48b9c7"/><path d="M167.4 240c-1.33 0-2.4 1.07-2.4 2.4v33.2c0 1.329 1.07 2.4 2.4 2.4h.6v-38z" fill="#16393e"/><rect x="58" y="261" width="20" height="23" ry="1.5" fill="#245c63"/><rect x="59" y="262" width="18" height="21" ry="1" fill="#dedede"/><g fill="#faa41a" transform="translate(-49 5)"><rect x="125" y="258" width="3" height="5" ry="1"/><rect x="125" y="258" width="2" height="5" ry="0"/></g><g transform="translate(-49 9)" fill="#73c48f"><rect x="125" y="258" width="3" height="5" ry="1"/><rect x="125" y="258" width="2" height="5" ry="0"/></g><g transform="translate(-49 13)" fill="#b84acb"><rect x="125" y="258" width="3" height="5" ry="1"/><rect x="125" y="258" width="2" height="5" ry="0"/></g><g transform="translate(-49 17)" fill="#f15d22"><rect x="125" y="258" width="3" height="5" ry="1"/><rect x="124" y="258" width="3" height="5" ry="0"/></g><rect x="58" y="260" width="18" height="21" ry="1.5" fill="#245c63"/><rect x="59" y="261" width="16" height="19" ry="1" fill="#48b9c7"/><path d="M60 261c-.554 0-1 .446-1 1v20c0 .554.446 1 1 1h1v-22z" fill="#16393e"/><rect x="16" y="269" width="16" height="15" ry="1.5" fill="#245c63"/><rect x="17" y="270" width="14" height="13" ry="1" fill="#dedede"/><g transform="translate(-96 13)"><rect x="125" y="258" width="3" height="3" ry="1" fill="#faa41a"/><rect x="125" y="260" width="3" height="3" ry="1" fill="#73c48f"/><rect x="125" y="262" width="3" height="3" ry="1" fill="#b84acb"/><rect x="125" y="264" width="3" height="3" ry="1" fill="#f15d22"/></g><rect x="16" y="268" width="14" height="13" ry="1.5" fill="#245c63"/><rect x="17" y="269" width="12" height="11" ry="1" fill="#48b9c7"/><path d="M18 269c-.554 0-1 .446-1 1v12c0 .554.446.992 1 1h1v-14z" fill="#16393e"/><g fill-opacity=".196"><path d="M68 267a4 4 0 0 1 4 4v.5a1.5 1.5 0 0 1-2.648.965A1.987 1.987 0 0 1 68 273a2 2 0 1 1 2-2v.5a.5.5 0 0 0 1 0v-.5a3 3 0 1 0-3 3h2.5s.5 0 .5.5c-.031.5-.5.5-.5.5H68a4 4 0 0 1 0-8zm0 3a1 1 0 1 0 0 2 1 1 0 0 0 0-2z"/><path d="M24 271a4 4 0 0 1 4 4v.5a1.5 1.5 0 0 1-2.648.965A1.987 1.987 0 0 1 24 277a2 2 0 1 1 2-2v.5a.5.5 0 0 0 1 0v-.5a3 3 0 1 0-3 3h2.5s.5 0 .5.5c-.031.5-.5.5-.5.5H24a4 4 0 0 1 0-8zm0 3a1 1 0 1 0 0 2 1 1 0 0 0 0-2z"/><path d="M116 263a4 4 0 0 1 4 4v.5a1.5 1.5 0 0 1-2.648.965A1.987 1.987 0 0 1 116 269a2 2 0 1 1 2-2v.5a.5.5 0 0 0 1 0v-.5a3 3 0 1 0-3 3h2.5s.5 0 .5.5c-.031.5-.5.5-.5.5H116a4 4 0 0 1 0-8zm0 3a1 1 0 1 0 0 2 1 1 0 0 0 0-2z"/><path d="M181 250a8 8 0 0 1 8 8v1a3 3 0 0 1-5.297 1.93A3.975 3.975 0 0 1 181 262a4 4 0 1 1 4-4v1a1 1 0 0 0 2 0v-1a6 6 0 1 0-6 6h5s1 0 1 1c-.062 1-1 1-1 1h-5a8 8 0 1 1 0-16zm0 6a2 2 0 1 0 0 4 2 2 0 0 0 0-4z"/><path d="M257 237.5c6.627 0 12 5.373 12 12v1.5a4.5 4.5 0 0 1-7.945 2.895c-1.07.986-2.486 1.605-4.055 1.605a6 6 0 1 1 6-6v1.5a1.5 1.5 0 0 0 3 0v-1.5a9 9 0 1 0-9 9h7.5s1.5 0 1.5 1.5c-.094 1.5-1.5 1.5-1.5 1.5H257c-6.627 0-12-5.373-12-12s5.373-12 12-12zm0 9a3 3 0 1 0 0 6 3 3 0 0 0 0-6z"/><path d="M379 191c13.255 0 24 10.745 24 24v3a9 9 0 0 1-15.89 5.79c-2.139 1.971-4.972 3.21-8.11 3.21-6.627 0-12-5.373-12-12s5.373-12 12-12 12 5.373 12 12v3a3 3 0 0 0 6 0v-3c0-9.941-8.059-18-18-18s-18 8.059-18 18 8.059 18 18 18h15s3 0 3 3c-.187 3-3 3-3 3h-15c-13.255 0-24-10.745-24-24s10.745-24 24-24zm0 18a6 6 0 1 0 0 12 6 6 0 0 0 0-12z"/><path d="M601 99c26.51 0 48 21.49 48 48v6c0 9.941-8.059 18-18 18a18.009 18.009 0 0 1-13.781-6.422C612.942 168.523 607.277 171 601 171c-13.255 0-24-10.745-24-24s10.745-24 24-24 24 10.745 24 24v6a6 6 0 0 0 12 0v-6c0-19.882-16.118-36-36-36s-36 16.118-36 36 16.118 36 36 36h30s6 0 6 6c-.374 6-6 6-6 6h-30c-26.51 0-48-21.49-48-48s21.49-48 48-48zm0 36c-6.628 0-12 5.373-12 12s5.372 12 12 12 12-5.373 12-12-5.372-12-12-12z"/></g><path d="M125 257v5h2c.554 0 1-.446 1-1v-3c0-.554-.446-1-1-1h-1z" fill-opacity=".196"/><g fill="#fff"><path d="M68 266a4 4 0 0 1 4 4v.5a1.5 1.5 0 0 1-2.648.965A1.987 1.987 0 0 1 68 272a2 2 0 1 1 2-2v.5a.5.5 0 0 0 1 0v-.5a3 3 0 1 0-3 3h2.5s.5 0 .5.5c-.031.5-.5.5-.5.5H68a4 4 0 0 1 0-8zm0 3a1 1 0 1 0 0 2 1 1 0 0 0 0-2z"/><path d="M24 270a4 4 0 0 1 4 4v.5a1.5 1.5 0 0 1-2.648.965A1.987 1.987 0 0 1 24 276a2 2 0 1 1 2-2v.5a.5.5 0 0 0 1 0v-.5a3 3 0 1 0-3 3h2.5s.5 0 .5.5c-.031.5-.5.5-.5.5H24a4 4 0 0 1 0-8zm0 3a1 1 0 1 0 0 2 1 1 0 0 0 0-2z"/><path d="M116 262a4 4 0 0 1 4 4v.5a1.5 1.5 0 0 1-2.648.965A1.987 1.987 0 0 1 116 268a2 2 0 1 1 2-2v.5a.5.5 0 0 0 1 0v-.5a3 3 0 1 0-3 3h2.5s.5 0 .5.5c-.031.5-.5.5-.5.5H116a4 4 0 0 1 0-8zm0 3a1 1 0 1 0 0 2 1 1 0 0 0 0-2z"/><path d="M181 249a8 8 0 0 1 8 8v1a3 3 0 0 1-5.297 1.93A3.975 3.975 0 0 1 181 261a4 4 0 1 1 4-4v1a1 1 0 0 0 2 0v-1a6 6 0 1 0-6 6h5s1 0 1 1c-.062 1-1 1-1 1h-5a8 8 0 1 1 0-16zm0 6a2 2 0 1 0 0 4 2 2 0 0 0 0-4z"/><path d="M257 236.5c6.627 0 12 5.373 12 12v1.5a4.5 4.5 0 0 1-7.945 2.895c-1.07.986-2.486 1.605-4.055 1.605a6 6 0 1 1 6-6v1.5a1.5 1.5 0 0 0 3 0v-1.5a9 9 0 1 0-9 9h7.5s1.5 0 1.5 1.5c-.094 1.5-1.5 1.5-1.5 1.5H257c-6.627 0-12-5.373-12-12s5.373-12 12-12zm0 9a3 3 0 1 0 0 6 3 3 0 0 0 0-6z"/><path d="M379 190c13.255 0 24 10.745 24 24v3a9 9 0 0 1-15.89 5.79c-2.139 1.971-4.972 3.21-8.11 3.21-6.627 0-12-5.373-12-12s5.373-12 12-12 12 5.373 12 12v3a3 3 0 0 0 6 0v-3c0-9.941-8.059-18-18-18s-18 8.059-18 18 8.059 18 18 18h15s3 0 3 3c-.187 3-3 3-3 3h-15c-13.255 0-24-10.745-24-24s10.745-24 24-24zm0 18a6 6 0 1 0 0 12 6 6 0 0 0 0-12z"/><path d="M601 97c26.51 0 48 21.49 48 48v6c0 9.941-8.059 18-18 18a18.009 18.009 0 0 1-13.781-6.422C612.942 166.523 607.277 169 601 169c-13.255 0-24-10.745-24-24s10.745-24 24-24 24 10.745 24 24v6a6 6 0 0 0 12 0v-6c0-19.882-16.118-36-36-36s-36 16.118-36 36 16.118 36 36 36h30s6 0 6 6c-.374 6-6 6-6 6h-30c-26.51 0-48-21.49-48-48s21.49-48 48-48zm0 36c-6.628 0-12 5.373-12 12s5.372 12 12 12 12-5.373 12-12-5.372-12-12-12z"/></g><g fill="#faa41a"><rect x="125" y="258" width="3" height="5" ry="1"/><rect x="125" y="258" width="2" height="5" ry="0"/></g><path d="M125 261v5h2c.554 0 1-.446 1-1v-3c0-.554-.446-1-1-1h-1z" fill-opacity=".196"/><g transform="translate(0 4)" fill="#73c48f"><rect x="125" y="258" width="3" height="5" ry="1"/><rect x="125" y="258" width="2" height="5" ry="0"/></g><path d="M125 265v5h2c.554 0 1-.446 1-1v-3c0-.554-.446-1-1-1h-1z" fill-opacity=".196"/><g transform="translate(0 8)" fill="#b84acb"><rect x="125" y="258" width="3" height="5" ry="1"/><rect x="125" y="258" width="2" height="5" ry="0"/></g><path d="M125 269v5h2c.554 0 1-.446 1-1v-3c0-.554-.446-1-1-1h-1z" fill-opacity=".196"/><g transform="translate(0 12)" fill="#f15d22"><rect x="125" y="258" width="3" height="5" ry="1"/><rect x="125" y="258" width="2" height="5" ry="0"/></g><path d="M276 229v10h4c1.108 0 2-.892 2-2v-6c0-1.108-.892-2-2-2h-2z" fill-opacity=".196"/><g transform="matrix(2 0 0 2 26 -286)" fill="#faa41a"><rect x="125" y="258" width="3" height="5" ry="1"/><rect x="125" y="258" width="2" height="5" ry="0"/></g><path d="M276 238v10h4c1.108 0 2-.892 2-2v-6c0-1.108-.892-2-2-2h-2z" fill-opacity=".196"/><g transform="matrix(2 0 0 2 26 -277)" fill="#73c48f"><rect x="125" y="258" width="3" height="5" ry="1"/><rect x="125" y="258" width="2" height="5" ry="0"/></g><path d="M276 247v10h4c1.108 0 2-.892 2-2v-6c0-1.108-.892-2-2-2h-2z" fill-opacity=".196"/><g transform="matrix(2 0 0 2 26 -268)" fill="#b84acb"><rect x="125" y="258" width="3" height="5" ry="1"/><rect x="125" y="258" width="2" height="5" ry="0"/></g><path d="M276 256v10h4c1.108 0 2-.892 2-2v-6c0-1.108-.892-2-2-2h-2z" fill-opacity=".196"/><g transform="matrix(2 0 0 2 26 -259)" fill="#f15d22"><rect x="125" y="258" width="3" height="5" ry="1"/><rect x="125" y="258" width="2" height="5" ry="0"/></g></g></svg>