<svg version="1.0" viewBox="0 0 256 256" xmlns="http://www.w3.org/2000/svg"><g transform="translate(-464 -28)"><rect x="488" y="52" width="208" height="208" ry="16" fill="#444"/><rect x="512" y="76" width="160" height="152" ry="8.99" fill="#cdcdcd"/><path d="M607.17 191.02a7.966 7.966 0 0 0 8.816.543 7.973 7.973 0 0 0 2.93-10.919l-13.076-22.633a16 16 0 0 0 .008-.016 16 16 0 0 0-.008-15.989l13.078-22.652c2.216-3.838.91-8.712-2.928-10.928s-8.712-.91-10.928 2.928l-13.086 22.666a16 16 0 0 0-13.84 7.978l-.009.016-26.139-.008a7.973 7.973 0 0 0-7.991 7.998 7.973 7.973 0 0 0 7.997 7.991l26.16.002a16 16 0 0 0 5.837 5.86 16 16 0 0 0 7.993 2.124l13.082 22.654a8.003 8.003 0 0 0 2.104 2.388z" fill-opacity=".196"/><g transform="rotate(-150 493.654 1187) scale(8)" fill="#656565"><circle cx="116" cy="267" r="2"/><rect x="115" y="267" width="2" height="6" ry="1"/><rect transform="rotate(240)" x="-290.23" y="-33.041" width="2" height="6" ry="1"/><rect transform="rotate(120)" x="172.23" y="-233.96" width="2" height="6" ry="1"/></g><g transform="matrix(8 0 0 8 -336 -1980)" fill-opacity=".196"><rect x="105" y="262" width="2" height="4" ry=".5"/><rect x="105" y="269" width="2" height="4" ry=".5"/></g><g transform="matrix(8 0 0 8 -336 -1988)" fill="#ededed"><rect x="105" y="262" width="2" height="4" ry=".5"/><rect x="105" y="269" width="2" height="4" ry=".5"/></g><path d="M504 52c-8.864 0-16 7.136-16 16v176c0 8.864 7.136 16 16 16h176c8.864 0 16-7.136 16-16V68c0-8.864-7.136-16-16-16zm0 1h176c8.31 0 15 6.69 15 15v172c0 8.31-6.69 15-15 15H504c-8.31 0-15-6.69-15-15V68c0-8.31 6.69-15 15-15z" fill="#fff" fill-opacity=".502"/></g></svg>