<svg version="1.0" viewBox="0 0 256 256" xmlns="http://www.w3.org/2000/svg"><g transform="translate(-464 1172)"><rect x="480" y="-1116" width="224" height="176" ry="8" fill="#6f6f6f"/><rect x="481" y="-1115" width="222" height="170" ry="7.5" fill="#dedede"/><rect x="488" y="-1108" width="208" height="143" ry="1" fill="#45454f"/><rect x="488" y="-1108" width="208" height="143" ry="1" fill="#48b9c7"/><g fill-opacity=".196"><path d="M640-1090c4.432 0 8 3.568 8 8v16c0 4.432-3.568 8-8 8h-96c-4.432 0-8-3.568-8-8v-16c0-4.432 3.568-8 8-8zm-8 8c-4.432 0-8 3.568-8 8s3.568 8 8 8 8-3.568 8-8-3.568-8-8-8z"/><path d="M640-1050c4.432 0 8 3.568 8 8v16c0 4.432-3.568 8-8 8h-96c-4.432 0-8-3.568-8-8v-16c0-4.432 3.568-8 8-8zm-8 8c-4.432 0-8 3.568-8 8s3.568 8 8 8 8-3.568 8-8-3.568-8-8-8z"/><path d="M640-1010c4.432 0 8 3.568 8 8v16c0 4.432-3.568 8-8 8h-96c-4.432 0-8-3.568-8-8v-16c0-4.432 3.568-8 8-8zm-8 8a8 8 0 0 0-8 8 8 8 0 0 0 8 8 8 8 0 0 0 8-8 8 8 0 0 0-8-8z"/></g><g fill="#fff"><path d="M640-1092c4.432 0 8 3.568 8 8v16c0 4.432-3.568 8-8 8h-96c-4.432 0-8-3.568-8-8v-16c0-4.432 3.568-8 8-8zm-8 8c-4.432 0-8 3.568-8 8s3.568 8 8 8 8-3.568 8-8-3.568-8-8-8z"/><path d="M640-1052c4.432 0 8 3.568 8 8v16c0 4.432-3.568 8-8 8h-96c-4.432 0-8-3.568-8-8v-16c0-4.432 3.568-8 8-8zm-8 8c-4.432 0-8 3.568-8 8s3.568 8 8 8 8-3.568 8-8-3.568-8-8-8z"/><path d="M640-1012c4.432 0 8 3.568 8 8v16c0 4.432-3.568 8-8 8h-96c-4.432 0-8-3.568-8-8v-16c0-4.432 3.568-8 8-8zm-8 8a8 8 0 0 0-8 8 8 8 0 0 0 8 8 8 8 0 0 0 8-8 8 8 0 0 0-8-8z"/></g></g></svg>