<svg version="1.0" viewBox="0 0 256 256" xmlns="http://www.w3.org/2000/svg"><g transform="translate(-464 -28)"><path d="M487 52c-4.432 0-8 3.568-8 8v192c0 4.432 3.568 8 8 8h208c4.432 0 8-3.568 8-8V84c0-4.432-3.568-8-8-8h-92l-24-24z" fill="#48b9c7"/><rect x="478" y="83" width="228" height="181" ry="8" fill="#565656"/><rect x="481" y="83" width="222" height="39" ry="7.25" fill="#051719" fill-opacity=".314"/><rect x="479" y="84" width="226" height="175" ry="7.5" fill="#acacac"/><g transform="translate(305 -126)"><rect x="246" y="242" width="82" height="23" ry="1.5" fill="#676767" fill-opacity=".502"/><rect x="247" y="243" width="80" height="16" ry="1" fill="#fafafa"/></g></g></svg>