<svg version="1.0" viewBox="0 0 256 256" xmlns="http://www.w3.org/2000/svg"><g transform="translate(-1200 -28)"><rect x="1239" y="43" width="178" height="230" ry="8.5" fill="#565656"/><rect x="1240" y="44" width="176" height="224" ry="8" fill="#acacac"/><circle cx="1328" cy="132" r="56" fill="#444"/><path fill="#444" d="M1272 132h56v44h-56z"/><path fill="#444" d="M1328 132v56h-44v-56z"/><rect x="1272" y="132" width="56" height="56" ry="8" fill="#444"/><circle cx="1328" cy="132" r="28" fill="#acacac"/><g transform="matrix(4 0 0 4 337 430.21)"><rect x="251.75" y="-65.552" width="28" height="29" ry="14" fill="#245c63"/><circle cx="265.75" cy="-51.552" r="13.75" fill="#48b9c7"/><g fill="#fff"><path d="M267.75-59.802v6h2.5l-4.5 7-4.5-7h2.5v-6z"/><path d="M260.75-45.802a1 1 0 0 0 0 2h10a1 1 0 0 0 0-2z"/></g></g></g></svg>