<svg version="1.0" viewBox="0 0 256 256" xmlns="http://www.w3.org/2000/svg"><g transform="translate(-464 -28)"><rect x="488" y="52" width="208" height="208" ry="16.5" fill="#245c63"/><rect x="489" y="53" width="206" height="202" ry="16" fill="#48b9c7"/><path d="M615.98 88.947c3.117-.812 6.326-.886 9.365-.647l-10.878 18.447c-2.235 3.79-.982 8.566 2.83 10.782l6.995 4.066a7.918 7.918 0 0 0 10.855-2.827l10.878-18.447c1.698 2.515 3.203 5.329 4.015 8.426 3.89 14.82-5.051 29.984-19.972 33.87-3.117.811-6.325.886-9.365.647l-6.417 8.917-27.278-.18s12.15-20.62 13.016-20.758c-1.698-2.515-3.203-5.33-4.015-8.426-3.89-14.82 5.051-29.985 19.972-33.87z" color="#000" fill="#fff" style="text-decoration-line:none;text-indent:0;text-transform:none"/><path d="M551.81 93.75c-1.839.377-3.546 1.048-5.242 1.75-.134 4.995.694 11.534-1.249 13.25-1.909 1.686-8.294.274-13.23-.25a29.041 29.041 0 0 0-2.497 6c3.82 3.167 9.11 6.712 9.237 9.25.127 2.57-5.004 6.439-8.488 10 .826 2.062 1.998 3.948 3.245 5.75 4.86-1.012 10.915-2.989 12.981-1.5 2.104 1.515 2.119 8.042 2.746 13 1.994.6 4.094.836 6.241 1 2.248-4.437 4.533-10.558 6.99-11.25 2.522-.71 7.697 3.665 11.982 6.25 1.747-1.213 3.299-2.697 4.743-4.25-2.028-4.579-5.76-10.335-4.743-12.75 1.018-2.417 7.792-3.757 12.482-5.5.032-.588.25-1.154.25-1.75 0-1.531-.276-3.032-.5-4.5-4.841-1.287-11.72-1.93-12.98-4.25-1.253-2.305 1.93-8.492 3.494-13.25A29.455 29.455 0 0 0 572.03 97c-4.001 3-8.662 7.954-11.234 7.5-2.531-.448-5.295-6.557-7.988-10.75-.321.056-.681-.064-.999 0zm4.993 15c7.445 0 13.48 6.044 13.48 13.5s-6.036 13.5-13.48 13.5-13.48-6.044-13.48-13.5 6.035-13.5 13.48-13.5z" color="#000" fill="#fff"/><path d="m547 160 .064 48c0 4.563 3.683 8 7.989 8h63.938c4.181 0 7.957-3.562 7.957-7.5l-.065-48.5zm31.973 4h16v20h8l-16 20-16-20h8zm-6 44h28c1.108 0 2 .892 2 2s-.892 2-2 2h-28c-1.108 0-2-.892-2-2s.892-2 2-2z" color="#bebebe" fill="#fff"/></g></svg>