<svg version="1.0" viewBox="0 0 256 256" xmlns="http://www.w3.org/2000/svg"><g transform="translate(-464 272)"><rect x="472" y="-264" width="240" height="244" ry="119.5" fill="#245c63"/><rect x="473" y="-263" width="238" height="238" ry="119" fill="#48b9c7"/><path d="M592-200.03c13.255 0 24 10.746 24 24s-10.745 24-24 24-24-10.746-24-24 10.745-24 24-24zm0 64c47.998-.024 47.998 32.027 47.998 32.027v8h-96v-8s0-32 48.002-32.027z" color="#000" fill="#fff" style="text-decoration-line:none;text-indent:0;text-transform:none"/><rect x="593" y="-139" width="119" height="123" ry="59.578" fill="#1f285a"/><rect x="594" y="-138" width="117" height="117" ry="119" fill="#3f51b5"/><g transform="matrix(6 0 0 6 -91 65)" fill="#fff"><path d="M124.67-26h-1.333v7h1.333z"/><circle cx="124" cy="-28.333" r="1"/></g></g></svg>