<svg version="1.0" viewBox="0 0 256 256" xmlns="http://www.w3.org/2000/svg"><g transform="translate(-464 -28)"><rect x="480" y="84" width="224" height="176" ry="16" fill="#cdcdcd"/><path d="M496 84c-8.864 0-16 7.136-16 16v144c0 8.864 7.136 16 16 16h192c8.864 0 16-7.136 16-16V100c0-8.864-7.136-16-16-16zm.5 1h191c8.587 0 15.5 6.913 15.5 15.5v139c0 8.587-6.913 15.5-15.5 15.5h-191c-8.587 0-15.5-6.913-15.5-15.5v-139c0-8.587 6.913-15.5 15.5-15.5z" fill="#666"/><rect x="496" y="101" width="192" height="138" ry="2" fill="#424242"/><g fill="#f6f6f6"><path d="M517 109v4a8 8 0 0 0-8 8 8 8 0 0 0 8 8v8h-8v4h8v4h4v-4a8 8 0 0 0 8-8 8 8 0 0 0-8-8v-8h4v-4h-4v-4zm0 8v8a4 4 0 0 1-4-4 4 4 0 0 1 4-4zm4 12a4 4 0 0 1 4 4 4 4 0 0 1-4 4z"/><path d="M533 141h20v4h-20z"/></g></g></svg>