<svg version="1.0" viewBox="0 0 256 256" xmlns="http://www.w3.org/2000/svg"><g transform="translate(-464 572)"><rect x="480" y="-516" width="224" height="176" ry="16" fill="#cdcdcd"/><path d="M496-516c-8.864 0-16 7.136-16 16v144c0 8.864 7.136 16 16 16h192c8.864 0 16-7.136 16-16v-144c0-8.864-7.136-16-16-16zm.5 1h191c8.587 0 15.5 6.913 15.5 15.5v139c0 8.587-6.913 15.5-15.5 15.5h-191c-8.587 0-15.5-6.913-15.5-15.5v-139c0-8.587 6.913-15.5 15.5-15.5z" fill="#666"/><rect x="496" y="-499" width="192" height="138" ry="2" fill="#424242"/><rect x="496" y="-499" width="192" height="138" ry="2" fill="#ac1800"/><g transform="matrix(4 0 0 4 81 -1543)" fill="#f6f6f6"><path d="M113 271h5v1h-5z"/><rect x="108" y="263" width="1" height="9" ry="0"/><rect x="110" y="263" width="1" height="9" ry="0"/><path d="M107 265h5v1h-5z"/><path d="M107 269h5v1h-5z"/></g></g></svg>