<svg version="1.0" viewBox="0 0 256 256" xmlns="http://www.w3.org/2000/svg"><g transform="translate(-464 -28)"><rect x="488" y="52" width="208" height="208" ry="104" fill="#ffce51"/><path d="M592 52c-57.616 0-104 46.384-104 104s46.384 104 104 104 104-46.384 104-104S649.616 52 592 52zm0 1c57.062 0 103 45.938 103 103s-45.938 103-103 103-103-45.938-103-103S534.938 53 592 53z" fill-opacity=".392"/><rect x="504" y="196" width="192" height="64" ry="32" fill="#fff"/><circle cx="560" cy="196" r="32" fill="#fff"/><circle cx="632" cy="196" r="48" fill="#fff"/><path d="M632 148a48 48 0 0 0-44.859 31.084A32 32 0 0 0 560 164a32 32 0 0 0-32 32 32 32 0 0 0 .035.992A31.927 31.927 0 0 0 504 228c0 17.728 14.272 32 32 32h128c17.728 0 32-14.272 32-32 0-11.975-6.517-22.366-16.207-27.854A48 48 0 0 0 680 196a48 48 0 0 0-48-48zm0 1c26.038 0 47 20.962 47 47 0 1.7-.095 3.377-.27 5.03A29.184 29.184 0 0 1 694 226.75 29.187 29.187 0 0 1 664.75 256h-129.5A29.187 29.187 0 0 1 506 226.75a29.18 29.18 0 0 1 23.082-28.6A31.642 31.642 0 0 1 529 196c0-17.174 13.826-31 31-31a30.926 30.926 0 0 1 27.332 16.322C593.472 162.518 611.094 149 632 149z" fill-opacity=".392"/></g></svg>