<svg version="1.0" viewBox="0 0 64 64" xmlns="http://www.w3.org/2000/svg"><g transform="translate(-224 80)"><path d="M264-22h-32c-2.216 0-4-1.784-4-4v-36c0-2.216 1.784-4 4-4h32l22 22z" fill="#ffce51"/><path d="M232-66c-2.216 0-4 1.784-4 4v36c0 2.216 1.784 4 4 4h32l22-22-22-22zm0 1h31.5l20 20-20 20H232c-1.662 0-3-1.338-3-3v-34c0-1.662 1.338-3 3-3z" fill-opacity=".5"/><rect x="256" y="-50" width="32" height="34" ry="16" fill="#cf3b00"/><path d="M272-50c-8.864 0-16 7.136-16 16v2c0 8.864 7.136 16 16 16s16-7.136 16-16v-2c0-8.864-7.136-16-16-16zm0 1c8.31 0 15 6.69 15 15s-6.69 15-15 15-15-6.69-15-15 6.69-15 15-15z" fill-opacity=".5"/><path d="M266-42a2 2 0 0 0-2 2 2 2 0 0 0 .586 1.414L269.172-34l-4.586 4.586A2 2 0 0 0 264-28a2 2 0 0 0 2 2 2 2 0 0 0 1.414-.586L272-31.172l4.566 4.567A2 2 0 0 0 278-26a2 2 0 0 0 2-2 2 2 0 0 0-.586-1.414L274.828-34l4.567-4.566A2 2 0 0 0 280-40a2 2 0 0 0-2-2 2 2 0 0 0-1.414.586L272-36.828l-4.566-4.567a2 2 0 0 0-.02-.02A2 2 0 0 0 266-42z" fill="#fff"/></g></svg>