<svg version="1.0" viewBox="0 0 64 64" xmlns="http://www.w3.org/2000/svg"><path d="M10 6h18l5 5h23c2.216 0 4 1.784 4 4v41c0 2.216-1.784 4-4 4H10c-2.216 0-4-1.784-4-4V10c0-2.216 1.784-4 4-4z" fill="#48b9c7"/><path d="M10 6c-2.216 0-4 1.784-4 4v46c0 2.216 1.784 4 4 4h46c2.216 0 4-1.784 4-4V15c0-2.216-1.784-4-4-4H33l-5-5zm0 8h46c1.662 0 3 1.338 3 3v37c0 1.662-1.338 3-3 3H10c-1.662 0-3-1.338-3-3V17c0-1.662 1.338-3 3-3z" fill-opacity=".25"/><path d="M10 13c-2.216 0-4 1.784-4 4v39c0 2.216 1.784 4 4 4h46c2.216 0 4-1.784 4-4V17c0-2.216-1.784-4-4-4zm0 1h46c1.662 0 3 1.338 3 3v37c0 1.662-1.338 3-3 3H10c-1.662 0-3-1.338-3-3V17c0-1.662 1.338-3 3-3z" fill-opacity=".25"/><path d="M33 25c-2.895 0-5.792.552-8.516 1.656A22.479 22.479 0 0 0 17 31.625l13.102 15.863h.004a3.993 3.993 0 0 0 5.777-.012h.008l13.11-15.852a22.617 22.617 0 0 0-5.481-4.039c-.045-.024-.092-.04-.137-.062a22.46 22.46 0 0 0-2.152-.965c-.275-.106-.555-.196-.832-.292a22.204 22.204 0 0 0-2.492-.708 23.35 23.35 0 0 0-1.594-.289c-.292-.042-.582-.094-.875-.124A22.579 22.579 0 0 0 33 25.001z" fill="#030303" fill-opacity=".318"/><path d="M33 24.02a22.68 22.68 0 0 0-8.516 1.656A22.483 22.483 0 0 0 17 30.645l13.102 15.863h.004a4 4 0 0 0 2.886 1.23 4 4 0 0 0 2.891-1.241h.008l13.11-15.852a22.619 22.619 0 0 0-5.481-4.04c-.045-.022-.092-.038-.137-.061a22.429 22.429 0 0 0-2.152-.965c-.275-.107-.554-.197-.832-.293a22.568 22.568 0 0 0-2.492-.707c-.528-.117-1.06-.21-1.594-.29-.292-.042-.582-.093-.875-.124A22.786 22.786 0 0 0 33 24.02z" fill="#88d1db"/><path d="M33 30.02c-4.455 0-8.91 1.697-12.309 5.094l9.41 11.394h.005a4 4 0 0 0 2.886 1.23 4 4 0 0 0 2.891-1.241h.008l9.414-11.387A17.356 17.356 0 0 0 33 30.02z" fill="#fff"/></svg>