<svg version="1.0" viewBox="0 0 64 64" xmlns="http://www.w3.org/2000/svg"><path d="M10 6h18l5 5h23c2.216 0 4 1.784 4 4v41c0 2.216-1.784 4-4 4H10c-2.216 0-4-1.784-4-4V10c0-2.216 1.784-4 4-4z" fill="#48b9c7"/><path d="M10 6c-2.216 0-4 1.784-4 4v46c0 2.216 1.784 4 4 4h46c2.216 0 4-1.784 4-4V15c0-2.216-1.784-4-4-4H33l-5-5zm0 8h46c1.662 0 3 1.338 3 3v37c0 1.662-1.338 3-3 3H10c-1.662 0-3-1.338-3-3V17c0-1.662 1.338-3 3-3z" fill-opacity=".25"/><path d="M10 13c-2.216 0-4 1.784-4 4v39c0 2.216 1.784 4 4 4h46c2.216 0 4-1.784 4-4V17c0-2.216-1.784-4-4-4zm0 1h46c1.662 0 3 1.338 3 3v37c0 1.662-1.338 3-3 3H10c-1.662 0-3-1.338-3-3V17c0-1.662 1.338-3 3-3z" fill-opacity=".25"/><path d="M33 23a8 8 0 0 0-8 8 8 8 0 0 0 2.348 5.652l-3.805 3.805a2 2 0 0 0-2.813 2.813L17 47v4l4-2 2.867-2.867a16.007 16.007 0 0 0 12.188 2.574 15.948 15.948 0 0 0 6.07-2.582L45 49l4 2v-4l-3.742-3.742a15.97 15.97 0 0 0 2.957-5.313 2 2 0 0 0-1.895-2.644 2 2 0 0 0-1.906 1.406 11.958 11.958 0 0 1-2.004 3.703l-3.758-3.758A8 8 0 0 0 41 31a8 8 0 0 0-8-8zm0 4a4 4 0 0 1 4 4 4 4 0 0 1-1.172 2.828L33 31l-2.828 2.828A4 4 0 0 1 29 31a4 4 0 0 1 4-4zm-1.785 11.785A8 8 0 0 0 33 39a8 8 0 0 0 1.79-.211l4.44 4.441a11.941 11.941 0 0 1-3.94 1.547 11.972 11.972 0 0 1-8.52-1.547z" fill="#121212" fill-opacity=".314"/><g fill="#fff"><path d="M17 50v-4l16-16 16 16v4l-4-2-12-12-12 12z"/><path d="M578.66 169.15a1 1 0 0 0-.953.703c-.675 2.076-2.42 3.619-4.563 4.035s-4.337-.359-5.74-2.03a1 1 0 1 0-1.533 1.284 8.002 8.002 0 0 0 13.736-2.67 1 1 0 0 0-.947-1.322z" color="#000" style="font-feature-settings:normal;font-variant-alternates:normal;font-variant-caps:normal;font-variant-ligatures:normal;font-variant-numeric:normal;font-variant-position:normal;isolation:auto;mix-blend-mode:normal;shape-padding:0;text-decoration-color:#000;text-decoration-line:none;text-decoration-style:solid;text-indent:0;text-orientation:mixed;text-transform:none;white-space:normal" transform="matrix(2 0 0 2 -1111 -304)"/><path d="M33 22a8 8 0 0 0-8 8 8 8 0 0 0 8 8 8 8 0 0 0 8-8 8 8 0 0 0-8-8zm0 4a4 4 0 0 1 4 4 4 4 0 0 1-4 4 4 4 0 0 1-4-4 4 4 0 0 1 4-4z"/></g></svg>