<svg version="1.0" viewBox="0 0 64 64" xmlns="http://www.w3.org/2000/svg"><path d="M10 6h18l5 5h23c2.216 0 4 1.784 4 4v41c0 2.216-1.784 4-4 4H10c-2.216 0-4-1.784-4-4V10c0-2.216 1.784-4 4-4z" fill="#48b9c7"/><path d="M10 6c-2.216 0-4 1.784-4 4v46c0 2.216 1.784 4 4 4h46c2.216 0 4-1.784 4-4V15c0-2.216-1.784-4-4-4H33l-5-5zm0 8h46c1.662 0 3 1.338 3 3v37c0 1.662-1.338 3-3 3H10c-1.662 0-3-1.338-3-3V17c0-1.662 1.338-3 3-3z" fill-opacity=".25"/><path d="M10 13c-2.216 0-4 1.784-4 4v39c0 2.216 1.784 4 4 4h46c2.216 0 4-1.784 4-4V17c0-2.216-1.784-4-4-4zm0 1h46c1.662 0 3 1.338 3 3v37c0 1.662-1.338 3-3 3H10c-1.662 0-3-1.338-3-3V17c0-1.662 1.338-3 3-3z" fill-opacity=".25"/><path d="M257-1376a6 6 0 1 1 0 12 6 6 0 0 1 0-12zm0 16c12-.006 12 8.007 12 8.007v2h-24v-2s0-8 12-8.007z" color="#000" fill-opacity=".314" style="text-decoration-line:none;text-indent:0;text-transform:none" transform="translate(-224 1400)"/><path d="M257-1377a6 6 0 1 1 0 12 6 6 0 0 1 0-12zm0 16c12-.006 12 8.007 12 8.007v2h-24v-2s0-8 12-8.007z" color="#000" fill="#fafafb" style="text-decoration-line:none;text-indent:0;text-transform:none" transform="translate(-224 1400)"/></svg>