<svg version="1.0" viewBox="0 0 64 64" xmlns="http://www.w3.org/2000/svg"><path d="M10 6h18l5 5h23c2.216 0 4 1.784 4 4v41c0 2.216-1.784 4-4 4H10c-2.216 0-4-1.784-4-4V10c0-2.216 1.784-4 4-4z" fill="#48b9c7"/><path d="M10 6c-2.216 0-4 1.784-4 4v46c0 2.216 1.784 4 4 4h46c2.216 0 4-1.784 4-4V15c0-2.216-1.784-4-4-4H33l-5-5zm0 8h46c1.662 0 3 1.338 3 3v37c0 1.662-1.338 3-3 3H10c-1.662 0-3-1.338-3-3V17c0-1.662 1.338-3 3-3z" fill-opacity=".25"/><path d="M10 13c-2.216 0-4 1.784-4 4v39c0 2.216 1.784 4 4 4h46c2.216 0 4-1.784 4-4V17c0-2.216-1.784-4-4-4zm0 1h46c1.662 0 3 1.338 3 3v37c0 1.662-1.338 3-3 3H10c-1.662 0-3-1.338-3-3V17c0-1.662 1.338-3 3-3z" fill-opacity=".25"/><g transform="matrix(2 0 0 2 -1351 137)" fill-opacity=".314"><path d="M688-57c-1.645 0-3 1.355-3 3v8c0 1.645 1.355 3 3 3h8c1.645 0 3-1.355 3-3v-8c0-1.645-1.355-3-3-3zm0 2h8c.571 0 1 .429 1 1v8c0 .571-.429 1-1 1h-8c-.571 0-1-.429-1-1v-8c0-.571.429-1 1-1z" color="#000" style="font-feature-settings:normal;font-variant-alternates:normal;font-variant-caps:normal;font-variant-ligatures:normal;font-variant-numeric:normal;font-variant-position:normal;isolation:auto;mix-blend-mode:normal;shape-padding:0;text-decoration-color:#000;text-decoration-line:none;text-decoration-style:solid;text-indent:0;text-orientation:mixed;text-transform:none;white-space:normal"/><path d="M690-54v4.578l4.5 2.598 1-1.733-3.5-2.021V-54z" color="#000" style="font-feature-settings:normal;font-variant-alternates:normal;font-variant-caps:normal;font-variant-ligatures:normal;font-variant-numeric:normal;font-variant-position:normal;isolation:auto;mix-blend-mode:normal;shape-padding:0;text-decoration-color:#000;text-decoration-line:none;text-decoration-style:solid;text-indent:0;text-orientation:mixed;text-transform:none;white-space:normal"/><rect x="689" y="-58" width="6" height="1" ry="0"/><rect x="689" y="-43" width="6" height="1" ry="0"/></g><g transform="matrix(2 0 0 2 -1351 136)" fill="#fff"><path d="M688-57c-1.645 0-3 1.355-3 3v8c0 1.645 1.355 3 3 3h8c1.645 0 3-1.355 3-3v-8c0-1.645-1.355-3-3-3zm0 2h8c.571 0 1 .429 1 1v8c0 .571-.429 1-1 1h-8c-.571 0-1-.429-1-1v-8c0-.571.429-1 1-1z" color="#000" style="font-feature-settings:normal;font-variant-alternates:normal;font-variant-caps:normal;font-variant-ligatures:normal;font-variant-numeric:normal;font-variant-position:normal;isolation:auto;mix-blend-mode:normal;shape-padding:0;text-decoration-color:#000;text-decoration-line:none;text-decoration-style:solid;text-indent:0;text-orientation:mixed;text-transform:none;white-space:normal"/><path d="M690-54v4.578l4.5 2.598 1-1.733-3.5-2.021V-54z" color="#000" style="font-feature-settings:normal;font-variant-alternates:normal;font-variant-caps:normal;font-variant-ligatures:normal;font-variant-numeric:normal;font-variant-position:normal;isolation:auto;mix-blend-mode:normal;shape-padding:0;text-decoration-color:#000;text-decoration-line:none;text-decoration-style:solid;text-indent:0;text-orientation:mixed;text-transform:none;white-space:normal"/><rect x="689" y="-58" width="6" height="1" ry="0"/><rect x="689" y="-43" width="6" height="1" ry="0"/></g></svg>