<svg version="1.0" viewBox="0 0 64 64" xmlns="http://www.w3.org/2000/svg"><path d="M10 6h18l5 5h23c2.216 0 4 1.784 4 4v41c0 2.216-1.784 4-4 4H10c-2.216 0-4-1.784-4-4V10c0-2.216 1.784-4 4-4z" fill="#48b9c7"/><path d="M10 6c-2.216 0-4 1.784-4 4v46c0 2.216 1.784 4 4 4h46c2.216 0 4-1.784 4-4V15c0-2.216-1.784-4-4-4H33l-5-5zm0 8h46c1.662 0 3 1.338 3 3v37c0 1.662-1.338 3-3 3H10c-1.662 0-3-1.338-3-3V17c0-1.662 1.338-3 3-3z" fill-opacity=".25"/><path d="M10 13c-2.216 0-4 1.784-4 4v39c0 2.216 1.784 4 4 4h46c2.216 0 4-1.784 4-4V17c0-2.216-1.784-4-4-4zm0 1h46c1.662 0 3 1.338 3 3v37c0 1.662-1.338 3-3 3H10c-1.662 0-3-1.338-3-3V17c0-1.662 1.338-3 3-3z" fill-opacity=".25"/><g transform="matrix(2 0 0 2 -201 -505)" fill-opacity=".314"><path d="M112.5 264c-1.939 0-3.5 1.561-3.5 3.5s1.561 3.5 3.5 3.5 3.5-1.561 3.5-3.5-1.561-3.5-3.5-3.5zm0 2c.831 0 1.5.669 1.5 1.5s-.669 1.5-1.5 1.5-1.5-.669-1.5-1.5.669-1.5 1.5-1.5z"/><path d="M120.5 264c-1.939 0-3.5 1.561-3.5 3.5s1.561 3.5 3.5 3.5 3.5-1.561 3.5-3.5-1.561-3.5-3.5-3.5zm0 2c.831 0 1.5.669 1.5 1.5s-.669 1.5-1.5 1.5-1.5-.669-1.5-1.5.669-1.5 1.5-1.5z"/><rect x="111" y="270" width="11" height="8" ry="2"/><path d="M119.75 274.5 125 271v7z"/></g><g transform="matrix(2 0 0 2 -201 -506)" fill="#fff"><path d="M112.5 264c-1.939 0-3.5 1.561-3.5 3.5s1.561 3.5 3.5 3.5 3.5-1.561 3.5-3.5-1.561-3.5-3.5-3.5zm0 2c.831 0 1.5.669 1.5 1.5s-.669 1.5-1.5 1.5-1.5-.669-1.5-1.5.669-1.5 1.5-1.5z"/><path d="M120.5 264c-1.939 0-3.5 1.561-3.5 3.5s1.561 3.5 3.5 3.5 3.5-1.561 3.5-3.5-1.561-3.5-3.5-3.5zm0 2c.831 0 1.5.669 1.5 1.5s-.669 1.5-1.5 1.5-1.5-.669-1.5-1.5.669-1.5 1.5-1.5z"/><rect x="111" y="270" width="11" height="8" ry="2"/><path d="M119.75 274.5 125 271v7z"/></g></svg>