<svg version="1.0" viewBox="0 0 64 64" xmlns="http://www.w3.org/2000/svg"><g transform="translate(-224 680)"><rect x="228" y="-666" width="56" height="44" ry="4" fill="#ffce51"/><path d="M232-666c-2.216 0-4 1.784-4 4v36c0 2.216 1.784 4 4 4h48c2.216 0 4-1.784 4-4v-36c0-2.216-1.784-4-4-4zm0 1h48c1.662 0 3 1.338 3 3v36c0 1.662-1.338 3-3 3h-48c-1.662 0-3-1.338-3-3v-36c0-1.662 1.338-3 3-3z" fill-opacity=".5"/><path d="M233-664c-1.662 0-3 1.338-3 3v20c0 1.662 1.338 3 3 3h11v6c0 1.662 1.338 3 3 3h18c1.662 0 3-1.338 3-3v-6h11c1.662 0 3-1.338 3-3v-20c0-1.662-1.338-3-3-3z" fill-opacity=".5"/><path d="M244-632v1c0 1.662 1.338 3 3 3h18c1.662 0 3-1.338 3-3v-1c0 1.662-1.338 3-3 3h-18c-1.662 0-3-1.338-3-3z" fill="#f8f8f8" fill-opacity=".5"/><path d="M232-665c-1.662 0-3 1.338-3 3v22c0 1.662 1.338 3 3 3h12v-1h-11c-1.662 0-3-1.338-3-3v-20c0-1.662 1.338-3 3-3h46c1.662 0 3 1.338 3 3v20c0 1.662-1.338 3-3 3h-11v1h12c1.662 0 3-1.338 3-3v-22c0-1.662-1.338-3-3-3z" fill="#f8f8f8" fill-opacity=".5"/><g stroke-linecap="square" stroke-width="2"><path d="M238-676c-2.216 0-4 1.784-4 4v34h10v6c0 1.662 1.338 3 3 3h18c1.662 0 3-1.338 3-3v-6h10v-34c0-2.216-1.784-4-4-4z" fill="#ededed"/><path d="M238-676c-2.216 0-4 1.784-4 4v34h10v6c0 1.662 1.338 3 3 3h18c1.662 0 3-1.338 3-3v-6h10v-34c0-2.216-1.784-4-4-4zm0 1h36c1.662 0 3 1.338 3 3v32h-10v6c0 1.662-1.338 3-3 3h-16c-1.662 0-3-1.338-3-3v-6h-10v-32c0-1.662 1.338-3 3-3z" fill-opacity=".3"/></g><path d="M246-666v9l13.5 1.5L246-654v9l21-10.5z" fill="#393634" opacity=".8"/></g></svg>