<svg version="1.0" viewBox="0 0 64 64" xmlns="http://www.w3.org/2000/svg"><path d="M14 4c-2.216 0-4.177 1.791-4 4l4 50c9 5 27 5 36 0l4-50c.177-2.209-1.784-4-4-4z" fill="#898989"/><path d="M14 4c-.277 0-.55.029-.814.082-.007.001-.013.004-.02.006A3.99 3.99 0 0 0 10 8l4 50c9 5 27 5 36 0l4-50a3.99 3.99 0 0 0-3.166-3.912c-.007-.001-.013-.005-.02-.006A4.143 4.143 0 0 0 50 4zm0 1h36c1.662 0 3 1.338 3 3l-4 47c-9 5-25 5-34 0L11 8c0-1.662 1.338-3 3-3z" fill-opacity=".5"/><path d="m23.5 27.5-5-4 5-7 3 3 7-6 10 4 4 7-8 4 1 8-7 3-3-5-9 2-3-5z" fill="#ededed"/><path d="M26.5 19.5 32 25l3.5 5.5" fill="none" stroke="#898989"/><path d="m30.057 34.766 3.188-5.553 7.683 3.87-2.506 3.424 7 6-2.424 10.495-6.306 5.023-5.176-7.294-7.753 2.212-4.035-6.46 4.482-3.729-3.353-8.588 4.482-3.73z" fill="#ededed"/><path d="m38.422 36.507-4.594 6.277-4.9 4.3" fill="none" stroke="#898989"/></svg>