<svg version="1.0" viewBox="0 0 64 64" xmlns="http://www.w3.org/2000/svg"><path d="M14 4c-2.216 0-4.177 1.791-4 4l4 50c9 5 27 5 36 0l4-50c.177-2.209-1.784-4-4-4z" fill="#898989"/><path d="M14 4c-.277 0-.55.029-.814.082-.007.001-.013.004-.02.006A3.99 3.99 0 0 0 10 8l4 50c9 5 27 5 36 0l4-50a3.99 3.99 0 0 0-3.166-3.912c-.007-.001-.013-.005-.02-.006A4.143 4.143 0 0 0 50 4zm0 1h36c1.662 0 3 1.338 3 3l-4 47c-9 5-25 5-34 0L11 8c0-1.662 1.338-3 3-3z" fill-opacity=".5"/><g fill="none"><path d="M32.5 8v48" opacity=".35" stroke="#000"/><path d="M31.5 8v48" opacity=".35" stroke="#fff"/></g></svg>