<svg version="1.0" viewBox="0 0 64 64" xmlns="http://www.w3.org/2000/svg" xmlns:xlink="http://www.w3.org/1999/xlink"><g fill="none" transform="translate(-224 80)"><g id="a" stroke-linecap="square" stroke-opacity=".5"><path d="M238 224c-2.216 0-4.177 1.791-4 4l4 50c9 5 27 5 36 0l4-50c.177-2.209-1.784-4-4-4z" fill="#898989"/><path d="M238 224c-.277 0-.55.029-.814.082-.007.001-.013.004-.02.006A3.99 3.99 0 0 0 234 228l4 50c9 5 27 5 36 0l4-50a3.99 3.99 0 0 0-3.166-3.912c-.007-.001-.013-.005-.02-.006A4.143 4.143 0 0 0 274 224zm0 1h36c1.662 0 3 1.338 3 3l-4 47c-9 5-25 5-34 0l-4-47c0-1.662 1.338-3 3-3z" fill="#000" fill-opacity=".5"/><path d="M107 254c-1.108 0-2.088.896-2 2l2 25c4.5 2.5 13.5 2.5 18 0l2-25c.088-1.105-.892-2-2-2z" fill="#898989" stroke-width=".5"/><path d="M107 254c-1.108 0-2.088.896-2 2l2 25c4.5 2.5 13.5 2.5 18 0l2-25c.088-1.105-.892-2-2-2zm0 1h18c.554 0 1 .446 1 1l-2 23c-4.5 2.5-11.5 2.5-16 0l-2-23c0-.554.446-1 1-1z" fill="#000" fill-opacity=".5" stroke-width=".5"/><path d="M59.5 260h17c.831 0 1.5.669 1.5 1.5L76 282c-5 2.5-11 2.5-16 0l-2-20.5c-.08-.827.669-1.5 1.5-1.5z" fill="#898989"/><path d="M59.5 260c-.831 0-1.58.673-1.5 1.5l2 20.5c5 2.5 11 2.5 16 0l2-20.5c0-.831-.669-1.5-1.5-1.5zm0 1h17c.277 0 .5.223.5.5L75 281c-5 2.5-9 2.5-14 0l-2-19.5c0-.277.223-.5.5-.5z" fill="#000" fill-opacity=".5"/><path d="M19.5 268h9c.831 0 1.566.672 1.5 1.5L29 282c-2.5 2-7.5 2-10 0l-1-12.5c-.066-.828.669-1.5 1.5-1.5z" fill="#898989"/><path d="M19.5 268c-.831 0-1.566.672-1.5 1.5l1 12.5c2.5 2 7.5 2 10 0l1-12.5c.066-.828-.669-1.5-1.5-1.5zm0 1h9c.277 0 .524.224.5.5L28 281c-2.5 2-5.5 2-8 0l-1-11.5c-.024-.276.223-.5.5-.5z" fill="#000" fill-opacity=".5"/><path d="M167 239h26c1.662 0 3.134 1.343 3 3l-3 37c-8 3-18 3-26 0l-3-37c-.134-1.657 1.338-3 3-3z" fill="#898989"/><path d="M167 239c-1.662 0-3.134 1.343-3 3l3 37c8 3 18 3 26 0l3-37c.134-1.657-1.338-3-3-3zm0 1h26c1.108 0 2 .892 2 2v1l-3 33c-8 3-16 3-24 0l-3-33v-1c0-1.108.892-2 2-2z" fill="#000" fill-opacity=".5"/><path d="M340 164c-4.432 0-8.353 3.582-8 8l8 100c18 10 54 10 72 0l8-100c.353-4.418-3.568-8-8-8z" fill="#898989"/><path d="M340 164c-4.432 0-8.353 3.582-8 8l8 100c18 10 54 10 72 0l8-100c.353-4.418-3.568-8-8-8zm0 1h72c3.878 0 7 3.122 7 7l-8 96c-18 10-52 10-70 0l-8-96c0-3.878 3.122-7 7-7z" fill="#000" fill-opacity=".5" stroke-width="2"/><path d="M520 44c-8.864 0-16.707 7.164-16 16l16 200c36 20 108 20 144 0l16-200c.707-8.836-7.136-16-16-16z" fill="#898989" stroke-width="4"/><path d="M520 44c-8.864 0-16.707 7.164-16 16l16 200c36 20 108 20 144 0l16-200c.707-8.836-7.136-16-16-16zm0 1h144c8.31 0 15 6.69 15 15l-16 195c-36 20-106 20-142 0L505 60c0-8.31 6.69-15 15-15z" fill="#000" fill-opacity=".5" stroke-width="4"/></g><g opacity=".35"><path d="m272.5 228-3 44" stroke="#000"/><path d="m268.5 272 3-44" stroke="#fff"/></g><g opacity=".35"><path d="m264.5 228-2 46" stroke="#000"/><path d="m263.5 228-2 46" stroke="#fff"/></g><g opacity=".35"><path d="m239.5 228 3 44" stroke="#000"/><path d="m243.5 272-3-44" stroke="#fff"/></g><g opacity=".35"><path d="m247.5 228 2 46" stroke="#000"/><path d="m248.5 228 2 46" stroke="#fff"/></g><path d="M256.5 228v48" opacity=".35" stroke="#000"/><path d="M255.5 228v48" opacity=".35" stroke="#fff"/><g opacity=".35"><path d="m122.5 256-1 23" stroke="#000"/><path d="m121.5 256-1 23" stroke="#fff"/></g><g opacity=".35"><path d="m109.5 256 1 23" stroke="#000"/><path d="m110.5 256 1 23" stroke="#fff"/></g><path d="M116.5 256v24" opacity=".35" stroke="#000"/><path d="M115.5 256v24" opacity=".35" stroke="#fff"/><g opacity=".35"><path d="m192.498 242-2 33" stroke="#000"/><path d="m189.498 275 2-33" stroke="#fff"/></g><g opacity=".35"><path d="m186.498 242-1 34" stroke="#000"/><path d="m185.5 242-1 34" stroke="#fff"/></g><g opacity=".35"><path d="m167.5 242 2 33" stroke="#000"/><path d="m170.5 275-2-33" stroke="#fff"/></g><g opacity=".35"><path d="m173.5 242 1 34" stroke="#000"/><path d="m174.498 242 1 34" stroke="#fff"/></g><path d="M180.498 242v35" opacity=".35" stroke="#000"/><path d="M179.5 242v35" opacity=".35" stroke="#fff"/><g opacity=".35"><path d="m27.5 270.005-1 11" stroke="#000"/><path d="m26.5 270.005-1 11" stroke="#fff"/></g><g opacity=".35"><path d="m20.5 270.005 1 11" stroke="#000"/><path d="m21.5 270.005 1 11" stroke="#fff"/></g><g opacity=".35"><path d="m73.499 263.002-1 17" stroke="#000"/><path d="m72.501 263.002-1 17" stroke="#fff"/></g><g opacity=".35"><path d="m62.5 263.002 1 17" stroke="#000"/><path d="m63.501 263.002 1 17" stroke="#fff"/></g><path d="M68.5 263.002v18" opacity=".35" stroke="#000"/><path d="M67.499 263.002v18" opacity=".35" stroke="#fff"/><g opacity=".35"><path d="m408.5 174-6 88" stroke="#000"/><path d="m401.5 262 6-88" stroke="#fff"/></g><g opacity=".35"><path d="m392.5 174-4 92" stroke="#000"/><path d="m391.5 174-4 92" stroke="#fff"/></g><g opacity=".35"><path d="m343.5 174 6 88" stroke="#000"/><path d="m350.5 262-6-88" stroke="#fff"/></g><g opacity=".35"><path d="m358.5 174 5 92" stroke="#000"/><path d="m359.5 174 5 92" stroke="#fff"/></g><path d="M376.5 174v96" opacity=".35" stroke="#000"/><path d="M375.5 174v96" opacity=".35" stroke="#fff"/><g stroke-width="2"><g opacity=".35"><path d="m657 63.54-12 176" stroke="#000"/><path d="m643 239.54 12-176" stroke="#fff"/></g><g opacity=".35"><path d="m625 63.54-8 184" stroke="#000"/><path d="m623 63.54-8 184" stroke="#fff"/></g><g opacity=".35"><path d="m527 63.54 12 176" stroke="#000"/><path d="m541 239.54-12-176" stroke="#fff"/></g><g opacity=".35"><path d="m557 63.54 10 184" stroke="#000"/><path d="m559 63.54 10 184" stroke="#fff"/></g><path d="M593 63.54v192" opacity=".35" stroke="#000"/><path d="M591 63.54v192" opacity=".35" stroke="#fff"/></g></g><g transform="translate(-224 80)"><use transform="translate(0 -300)" width="100%" height="100%" xlink:href="#a"/><path d="m247.5-52.5-5-4 5-7 3 3 7-6 10 4 4 7-8 4 1 8-7 3-3-5-9 2-3-5z" fill="#ededed"/><path d="m247.5-52.5 5-4" fill="none" stroke="#898989"/><path d="M250.5-60.5 256-55l3.5 5.5" fill="none" stroke="#898989"/><path d="m263.5-51.5-2-10" fill="none" stroke="#898989"/><path d="m254.5-45.5-3-5" fill="none" stroke="#898989"/><path d="m254.057-45.234 3.188-5.553 7.683 3.87-2.506 3.424 7 6-2.424 10.495-6.306 5.023-5.176-7.294-7.753 2.212-4.035-6.46 4.482-3.729-3.353-8.588 4.482-3.73z" fill="#ededed"/><path d="m254.057-45.234 4.718 4.33" fill="none" stroke="#898989"/><path d="m262.422-43.493-4.594 6.277-4.9 4.3" fill="none" stroke="#898989"/><path d="m255.516-29.27 9.576-3.505" fill="none" stroke="#898989"/><path d="m248.21-37.246 4.482-3.73" fill="none" stroke="#898989"/><g stroke-width=".5"><path d="m358-98-10-8 10-14 6 6 14-12 20 8 8 14-16 8 2 16-14 6-6-10-18 4-6-10z" fill="#ededed"/><path d="m358-98 10-8" fill="none" stroke="#898989" stroke-width="1"/><path d="m364-114 11 11 7 11" fill="none" stroke="#898989" stroke-width="1"/><path d="m390-96-4-20" fill="none" stroke="#898989" stroke-width="1"/><path d="m372-84-6-10" fill="none" stroke="#898989" stroke-width="1"/><path d="m371.114-83.468 6.377-11.106 15.364 7.742-5.011 6.847 14 12-4.848 20.988-12.612 10.047-10.352-14.588-15.506 4.423-8.07-12.918 8.964-7.458-6.706-17.177 8.965-7.459z" fill="#ededed"/><path d="m371.114-83.468 9.435 8.66" fill="none" stroke="#898989" stroke-width="1"/><path d="m387.844-79.985-9.189 12.553-9.8 8.6" fill="none" stroke="#898989" stroke-width="1"/><path d="m374.032-51.538 19.153-7.012" fill="none" stroke="#898989" stroke-width="1"/><path d="m359.42-67.491 8.965-7.46" fill="none" stroke="#898989" stroke-width="1"/></g><g stroke-width=".5"><path d="m552-184-20-16 20-28 12 12 28-24 40 16 16 28-32 16 4 32-28 12-12-20-36 8-12-20z" fill="#ededed"/><path d="m552-184 20-16" fill="none" stroke="#898989" stroke-width="2"/><path d="m564-216 22 22 14 22" fill="none" stroke="#898989" stroke-width="2"/><path d="m616-180-8-40" fill="none" stroke="#898989" stroke-width="2"/><path d="m580-156-12-20" fill="none" stroke="#898989" stroke-width="2"/><path d="m578.228-154.936 12.753-22.211 30.73 15.482-10.024 13.694 28 24-9.694 41.977L604.769-61.9l-20.706-29.177-31.012 8.847-16.14-25.835 17.929-14.918-13.412-34.353 17.93-14.917z" fill="#ededed"/><path d="m578.228-154.936 18.87 17.318" fill="none" stroke="#898989" stroke-width="2"/><path d="m611.687-147.97-18.377 25.105-19.6 17.2" fill="none" stroke="#898989" stroke-width="2"/><path d="M584.063-91.077 622.37-105.1" fill="none" stroke="#898989" stroke-width="2"/><path d="m554.84-122.983 17.93-14.917" fill="none" stroke="#898989" stroke-width="2"/></g><g stroke-width="1.333"><path d="m172.625-47.125-3.75-3 3.75-5.25 2.25 2.25 5.25-4.5 7.5 3 3 5.25-6 3 .75 6-5.25 2.25-2.25-3.75-6.75 1.5-2.25-3.75z" fill="#ededed"/><path d="m172.625-47.125 3.75-3" fill="none" stroke="#898989" stroke-width="1"/><path d="M174.875-53.125 179-49l2.625 4.125" fill="none" stroke="#898989" stroke-width="1"/><path d="m184.625-46.375-1.5-7.5" fill="none" stroke="#898989" stroke-width="1"/><path d="m177.875-41.875-2.25-3.75" fill="none" stroke="#898989" stroke-width="1"/><path d="m177.543-41.675 2.391-4.165 5.762 2.903-1.88 2.568 5.25 4.5L187.25-28l-4.73 3.768-3.882-5.47-5.815 1.658-3.026-4.844 3.361-2.797-2.514-6.441 3.362-2.797z" fill="#ededed"/><path d="m177.543-41.675 3.538 3.247" fill="none" stroke="#898989" stroke-width="1"/><path d="m183.816-40.37-3.445 4.708-3.675 3.225" fill="none" stroke="#898989" stroke-width="1"/><path d="m178.637-29.702 7.182-2.63" fill="none" stroke="#898989" stroke-width="1"/><path d="m173.157-35.684 3.362-2.797" fill="none" stroke="#898989" stroke-width="1"/></g><g stroke-width="2"><path d="m111.25-35.63-2.5-2 2.5-3.5 1.5 1.5 3.5-3 5 2 2 3.5-4 2 .5 4-3.5 1.5-1.5-2.5-4.5 1-1.5-2.5z" fill="#ededed"/><path d="m111.25-35.63 2.5-2" fill="none" stroke="#898989" stroke-width="1"/><path d="m112.75-39.63 2.75 2.75 1.75 2.75" fill="none" stroke="#898989" stroke-width="1"/><path d="m119.25-35.13-1-5" fill="none" stroke="#898989" stroke-width="1"/><path d="m114.75-32.13-1.5-2.5" fill="none" stroke="#898989" stroke-width="1"/><path d="m114.529-31.998 1.594-2.776 3.84 1.935-1.252 1.712 3.5 3-1.212 5.247-3.153 2.512-2.588-3.647-3.877 1.105-2.017-3.23 2.241-1.864-1.676-4.294 2.24-1.865z" fill="#ededed"/><path d="m114.529-31.998 2.358 2.165" fill="none" stroke="#898989" stroke-width="1"/><path d="m118.71-31.127-2.296 3.138-2.45 2.15" fill="none" stroke="#898989" stroke-width="1"/><path d="m115.258-24.015 4.788-1.753" fill="none" stroke="#898989" stroke-width="1"/><path d="m111.605-28.004 2.241-1.864" fill="none" stroke="#898989" stroke-width="1"/></g><path d="m65.992-23.513-3.105.78-1.273-4.11 2.102-.286-.27-4.601 4.619-2.77 3.996.526-.829 4.395 3.487 2.023-.924 3.694-2.898-.32-1.928 4.188-2.898-.319z" fill="#ededed"/><path d="m65.992-23.513-.079-3.201" fill="none" stroke="#898989" stroke-width=".5"/><path d="m63.716-27.129 3.854-.524 3.248.271" fill="none" stroke="#898989" stroke-width=".5"/><path d="m71.232-29.58-4.585-2.23" fill="none" stroke="#898989" stroke-width=".5"/><path d="m70.897-24.181-2.898-.32" fill="none" stroke="#898989" stroke-width=".5"/><g stroke-width="2.667"><path d="m22.632-21.777-1.746.585-.716-3.082 1.182-.214-.152-3.452 2.598-2.077 2.248.395-.466 3.296 1.961 1.517-.52 2.77-1.63-.239-1.084 3.14-1.63-.239z" fill="#ededed"/><path d="m247.5-52.5 5-4" fill="none" stroke="#898989" transform="matrix(.17023 -.29851 .22389 .22697 -7.745 64.02)"/><path d="M250.5-60.5 256-55l3.5 5.5" fill="none" stroke="#898989" transform="matrix(.17023 -.29851 .22389 .22697 -7.745 64.02)"/><path d="m263.5-51.5-2-10" fill="none" stroke="#898989" transform="matrix(.17023 -.29851 .22389 .22697 -7.745 64.02)"/><path d="m254.5-45.5-3-5" fill="none" stroke="#898989" transform="matrix(.17023 -.29851 .22389 .22697 -7.745 64.02)"/></g></g></svg>