<svg version="1.0" viewBox="0 0 64 64" xmlns="http://www.w3.org/2000/svg"><g transform="translate(-224 380)"><rect x="228" y="-366" width="56" height="44" ry="4" fill="#6f6f6f"/><rect x="229" y="-365" width="54" height="40" ry="3.5" fill="#dedede"/><rect x="231" y="-363" width="50" height="34" ry="1" fill="#45454f"/><rect x="231" y="-363" width="50" height="34" ry="1" fill="#48b9c7"/><path d="M233-360v8h2v-6h8v-2h-8zm36 0v2h8v6h2v-8h-2zm-36 22v8h10v-2h-8v-6zm44 0v6h-8v2h10v-8z" fill-opacity=".196"/><path d="M233-361v8h2v-6h8v-2h-8zm36 0v2h8v6h2v-8h-2zm-36 22v8h10v-2h-8v-6zm44 0v6h-8v2h10v-8z" fill="#fff" fill-opacity=".989"/></g></svg>