<svg version="1.0" viewBox="0 0 64 64" xmlns="http://www.w3.org/2000/svg"><path d="M13.5 3A4.49 4.49 0 0 0 9 7.5v51a4.49 4.49 0 0 0 4.5 4.5h37a4.49 4.49 0 0 0 4.5-4.5v-39L38.5 3z" fill="#6f6f6f"/><path d="M54 20v36c0 2.216-1.784 4-4 4H14c-2.216 0-4-1.784-4-4V8c0-2.216 1.784-4 4-4h24" fill="#ececec"/><path d="M54 23H41c-2.216 0-4-1.784-4-4V4h1l16 16z" fill="#6f6f6f" fill-opacity=".502"/><path d="M54 20H42c-2.216 0-4-1.784-4-4V4" fill="#fafafa"/><rect x="-204" y="56" width="8" height="1" ry=".5" fill="#474341" fill-opacity=".69"/><rect x="-204" y="58" width="8" height="1" ry=".5" fill="#474341" fill-opacity=".69"/><rect x="-204" y="60" width="5" height="1" ry=".456" fill="#474341" fill-opacity=".69"/><rect x="-163" y="60" width="9" height="1" ry=".456" fill="#474341" fill-opacity=".69"/><rect x="-163" y="57" width="14" height="1" ry=".456" fill="#474341" fill-opacity=".69"/><rect x="-163" y="54" width="14" height="1" ry=".456" fill="#474341" fill-opacity=".69"/><rect x="-163" y="51" width="14" height="1" ry=".456" fill="#474341" fill-opacity=".69"/><rect x="-115" y="57" width="9" height="1" ry=".456" fill="#474341" fill-opacity=".69"/><rect x="-115" y="54" width="14" height="1" ry=".456" fill="#474341" fill-opacity=".69"/><rect x="-115" y="51" width="14" height="1" ry=".456" fill="#474341" fill-opacity=".69"/><rect x="-115" y="48" width="14" height="1" ry=".456" fill="#474341" fill-opacity=".69"/><g transform="translate(-224 -220)" fill="#474341" fill-opacity=".69"><rect x="243" y="-334.5" width="9" height="1" ry=".456"/><rect x="243" y="-337.5" width="14" height="1" ry=".456"/><rect x="243" y="-340.5" width="14" height="1" ry=".456"/><rect x="243" y="-343.5" width="14" height="1" ry=".456"/><rect x="243" y="-334.5" width="9" height="1" ry=".456"/><rect x="243" y="-337.5" width="14" height="1" ry=".456"/><rect x="243" y="-340.5" width="14" height="1" ry=".456"/><rect x="243" y="-343.5" width="14" height="1" ry=".456"/><rect x="243" y="-334.5" width="9" height="1" ry=".456"/><rect x="243" y="-337.5" width="14" height="1" ry=".456"/><rect x="243" y="-340.5" width="14" height="1" ry=".456"/><rect x="243" y="-343.5" width="14" height="1" ry=".456"/><rect x="243" y="-334.5" width="7.5" height="1" ry=".456"/><rect x="243" y="-337.5" width="12" height="1" ry=".423"/><rect x="243" y="-340.5" width="12" height="1" ry=".375"/><rect x="243" y="-343.5" width="12" height="1" ry=".456"/></g><rect x="-110" y="49" width="15" height="15" ry="3.5" fill="#671d00"/><rect x="-109" y="50" width="13" height="12" ry="3" fill="#cf3b00"/><rect x="-46" y="44" width="20" height="20" ry="3.5" fill="#671d00"/><rect x="-45" y="45" width="18" height="16" ry="3" fill="#cf3b00"/><rect x="30" y="40" width="26" height="24" ry="5.5" fill="#671d00"/><rect x="31" y="41" width="24" height="20" ry="5" fill="#cf3b00"/><rect x="148" y="16" width="52" height="47" ry="10.5" fill="#671d00"/><rect x="149" y="17" width="50" height="42" ry="10" fill="#cf3b00"/><rect x="359" y="-31.987" width="104" height="91.987" ry="20.5" fill="#671d00"/><rect x="360" y="-31" width="102" height="86" ry="20" fill="#cf3b00"/><rect x="-158" y="52" width="13" height="12" ry="2.5" fill="#671d00"/><rect x="-157" y="53" width="11" height="10.002" ry="2" fill="#cf3b00"/><rect x="-203" y="54" width="11" height="10" ry="1.5" fill="#671d00"/><rect x="-202" y="55" width="9" height="8" ry="1" fill="#cf3b00"/><path d="M43 46a8.939 9 0 0 0-8 5.01A8.939 9 0 0 0 43 56a8.939 9 0 0 0 8-5.01A8.939 9 0 0 0 43 46zm0 1a4 4 0 0 1 4 4 4 4 0 0 1-4 4 4 4 0 0 1-4-4 4 4 0 0 1 4-4zm0 2a2 2 0 0 0-2 2 2 2 0 0 0 2 2 2 2 0 0 0 2-2 2 2 0 0 0-2-2z" fill="#fff"/></svg>