<svg version="1.0" viewBox="0 0 64 64" xmlns="http://www.w3.org/2000/svg"><g transform="translate(-224 -220)"><rect x="230" y="226" width="52" height="54" ry="4" fill="#dedede"/><path d="M234.004 225.998c-2.216 0-4 1.784-4 4v46c0 2.216 1.784 4 4 4h44c2.216 0 4-1.784 4-4v-46c0-2.216-1.784-4-4-4zm0 1h44c1.662 0 3 1.338 3 3v44c0 1.662-1.338 3-3 3h-44c-1.662 0-3-1.338-3-3v-44c0-1.662 1.338-3 3-3z" fill-opacity=".502"/><rect x="234" y="230" width="21" height="21" ry="4" fill-opacity=".5"/><rect x="257" y="230" width="21" height="21" ry="4" fill-opacity=".5"/><rect x="234" y="252" width="21" height="21" ry="4" fill-opacity=".5"/><rect x="257" y="252" width="21" height="21" ry="4" fill-opacity=".5"/><rect x="234" y="230" width="21" height="20" ry="4" fill="#aaa"/><rect x="257" y="230" width="21" height="20" ry="4" fill="#aaa"/><rect x="234" y="252" width="21" height="20" ry="4" fill="#aaa"/><rect x="257" y="252" width="21" height="20" ry="4" fill="#73c48f"/><path d="M246 235v5h5v3h-5v5h-3v-5h-5v-3h5v-5z" fill-opacity=".196"/><path d="m274.5 236.5-5 5 5 5-2 2-5-5-5 5-2-2 5-5-5-5 2-2 5 5 5-5z" fill-opacity=".196"/><path d="M243 257h3v3h-3zm0 10h3v3h-3zm-6-5h15v3h-15z" fill-opacity=".196"/><path d="M261 259h13v3h-13zm0 6h13v3h-13z" fill-opacity=".196"/><path d="M246 234v5h5v3h-5v5h-3v-5h-5v-3h5v-5z" fill="#fff"/><path d="m274.5 235.5-5 5 5 5-2 2-5-5-5 5-2-2 5-5-5-5 2-2 5 5 5-5z" fill="#fff"/><path d="M243 256h3v3h-3zm0 10h3v3h-3zm-6-5h15v3h-15z" fill="#fff"/><path d="M261 258h13v3h-13zm0 6h13v3h-13z" fill="#fbfbfb"/></g></svg>