<svg version="1.0" viewBox="0 0 64 64" xmlns="http://www.w3.org/2000/svg"><g transform="translate(-224 -220)"><path d="M237.5 223a4.49 4.49 0 0 0-4.5 4.5v51a4.49 4.49 0 0 0 4.5 4.5h37a4.49 4.49 0 0 0 4.5-4.5v-39L262.5 223z" fill="#6f6f6f"/><path d="M278 240v36c0 2.216-1.784 4-4 4h-36c-2.216 0-4-1.784-4-4v-48c0-2.216 1.784-4 4-4h24" fill="#ececec"/><path d="M278 243h-13c-2.216 0-4-1.784-4-4v-15h1l16 16z" fill="#6f6f6f" fill-opacity=".502"/><path d="M278 240h-12c-2.216 0-4-1.784-4-4v-12" fill="#fafafa"/><rect x="242" y="270" width="18" height="2" ry=".912" fill="#474341" fill-opacity=".69"/><rect x="242" y="264" width="28" height="2" ry=".912" fill="#474341" fill-opacity=".69"/><rect x="242" y="258" width="28" height="2" ry=".912" fill="#474341" fill-opacity=".69"/><rect x="242" y="252" width="28" height="2" ry=".912" fill="#474341" fill-opacity=".69"/><rect x="254" y="260" width="26" height="24" ry="5.5" fill="#671d00"/><rect x="255" y="261" width="24" height="20" ry="5" fill="#cf3b00"/><path d="M267 266a8.939 9 0 0 0-8 5.01 8.939 9 0 0 0 8 4.99 8.939 9 0 0 0 8-5.01 8.939 9 0 0 0-8-4.99zm0 1a4 4 0 0 1 4 4 4 4 0 0 1-4 4 4 4 0 0 1-4-4 4 4 0 0 1 4-4zm0 2a2 2 0 0 0-2 2 2 2 0 0 0 2 2 2 2 0 0 0 2-2 2 2 0 0 0-2-2z" fill="#fff"/></g></svg>