<svg version="1.0" viewBox="0 0 64 64" xmlns="http://www.w3.org/2000/svg"><g transform="translate(-224 -220)"><rect x="472" y="36" width="240" height="244" ry="120" fill="#7b7b7b"/><rect x="472" y="36" width="240" height="240" ry="120" fill="#f6f6f6"/><path d="M594.44 162.48a6 6 0 0 0 .498-.256l61.824-31.87a2 2 0 0 0 1.013-2.64 2 2 0 0 0-2.64-1.014l-64.964 24.586a6 6 0 0 0-.611.232 6 6 0 0 0-3.041 7.921 6 6 0 0 0 7.921 3.041z" fill-opacity=".502"/><rect x="472.5" y="36.5" width="239" height="239" ry="119.5" fill="none" stroke="#000" stroke-linecap="round" stroke-opacity=".502"/><rect transform="rotate(60)" x="430.49" y="-545.05" width="2" height="12" ry="1" fill="#333"/><rect transform="rotate(30)" x="590.08" y="-271.26" width="2" height="12" ry="1" fill="#333"/><rect x="590" y="42" width="4" height="20" ry="2" fill="#333"/><rect transform="rotate(-30)" x="434.08" y="320.74" width="2" height="12" ry="1" fill="#333"/><rect transform="rotate(-60)" x="160.29" y="480.33" width="2" height="12" ry="1" fill="#333"/><rect transform="rotate(-90)" x="-158" y="478" width="4" height="20" ry="2" fill="#333"/><rect transform="rotate(240)" x="-431.71" y="324.33" width="2" height="12" ry="1" fill="#333"/><rect transform="rotate(210)" x="-591.29" y="50.538" width="2" height="12" ry="1" fill="#333"/><rect transform="scale(-1)" x="-594" y="-270" width="4" height="20" ry="2" fill="#333"/><rect transform="rotate(150)" x="-435.29" y="-541.46" width="2" height="12" ry="1" fill="#333"/><rect transform="rotate(120)" x="-161.51" y="-701.05" width="2" height="12" ry="1" fill="#333"/><rect transform="rotate(90)" x="154" y="-706" width="4" height="20" ry="2" fill="#333"/><path d="M594.44 161.48a6 6 0 0 0 .498-.256l61.824-31.87a2 2 0 0 0 1.013-2.64 2 2 0 0 0-2.64-1.014l-64.964 24.586a6 6 0 0 0-.611.232 6 6 0 0 0-3.041 7.921 6 6 0 0 0 7.921 3.041z" fill="#2b2928"/><path d="M586.52 159.44a6 6 0 0 0 .539.955l20.198 35.787a2 2 0 0 0 2.64 1.014 2 2 0 0 0 1.014-2.64l-13.08-38.957a6 6 0 0 0-.349-1.04 6 6 0 0 0-7.921-3.04 6 6 0 0 0-3.041 7.922z" fill-opacity=".502"/><path d="M586.52 158.44a6 6 0 0 0 .539.955l20.198 35.787a2 2 0 0 0 2.64 1.014 2 2 0 0 0 1.014-2.64l-13.08-38.957a6 6 0 0 0-.349-1.04 6 6 0 0 0-7.921-3.04 6 6 0 0 0-3.041 7.922z" fill="#474341"/><circle cx="592" cy="157" r="4" fill-opacity=".502"/><circle cx="592" cy="156" r="4" fill="#f6f6f6"/><rect x="316" y="160" width="120" height="124" ry="60" fill="#7b7b7b"/><rect x="316" y="160" width="120" height="120" ry="60" fill="#f6f6f6"/><rect x="316.5" y="160.5" width="119" height="119" ry="59.5" fill="none" stroke="#000" stroke-linecap="round" stroke-opacity=".502"/><rect transform="rotate(60)" x="378.03" y="-263.63" width="2" height="10" ry="1" fill="#333"/><rect transform="rotate(30)" x="435.13" y="-45.474" width="2" height="10" ry="1" fill="#333"/><rect x="375" y="170" width="4" height="16" ry="2" fill="#333"/><rect transform="rotate(-30)" x="215.13" y="330.53" width="2" height="10" ry="1" fill="#333"/><rect transform="rotate(-60)" x="-3.026" y="387.63" width="2" height="10" ry="1" fill="#333"/><rect transform="rotate(-90)" x="-221" y="326" width="4" height="16" ry="2" fill="#333"/><rect transform="rotate(240)" x="-379.03" y="167.63" width="2" height="10" ry="1" fill="#333"/><rect transform="rotate(210)" x="-436.13" y="-50.526" width="2" height="10" ry="1" fill="#333"/><rect transform="scale(-1)" x="-377" y="-270" width="4" height="16" ry="2" fill="#333"/><rect transform="rotate(150)" x="-216.13" y="-426.53" width="2" height="10" ry="1" fill="#333"/><rect transform="rotate(120)" x="2.026" y="-483.63" width="2" height="10" ry="1" fill="#333"/><rect transform="rotate(90)" x="219" y="-426" width="4" height="16" ry="2" fill="#333"/><path d="M377.63 224.65a4 4 0 0 0 .358-.185l28.975-15.064a2 2 0 0 0 1.014-2.64 2 2 0 0 0-2.641-1.014l-30.539 11.437a4 4 0 0 0-.421.158 4 4 0 0 0-2.028 5.28 4 4 0 0 0 5.281 2.028z" fill-opacity=".502"/><path d="M377.63 223.65a4 4 0 0 0 .358-.185l28.975-15.064a2 2 0 0 0 1.014-2.64 2 2 0 0 0-2.641-1.014l-30.539 11.437a4 4 0 0 0-.421.158 4 4 0 0 0-2.028 5.28 4 4 0 0 0 5.281 2.028z" fill="#2b2928"/><path d="M372.35 222.63a4 4 0 0 0 .376.658l9.586 16.8a2 2 0 0 0 2.64 1.013 2 2 0 0 0 1.014-2.64l-6.057-18.326-.003-.012a4 4 0 0 0-.248-.747 4 4 0 0 0-5.28-2.027 4 4 0 0 0-2.028 5.28z" fill-opacity=".502"/><path d="M372.35 221.63a4 4 0 0 0 .376.658l9.586 16.8a2 2 0 0 0 2.64 1.013 2 2 0 0 0 1.014-2.64l-6.057-18.326-.003-.012a4 4 0 0 0-.248-.747 4 4 0 0 0-5.28-2.027 4 4 0 0 0-2.028 5.28z" fill="#474341"/><circle cx="376" cy="221" r="3" fill-opacity=".502"/><circle cx="376" cy="220" r="3" fill="#f6f6f6"/><rect x="226" y="222" width="60" height="62" ry="30" fill="#7b7b7b"/><rect x="226" y="222" width="60" height="60" ry="30" fill="#f6f6f6"/><path d="M269.7 246.9a1 1 0 0 0-1.32-.507l-12.954 4.692a2 2 0 0 0-.243.089 2 2 0 0 0-1.014 2.64 2 2 0 0 0 2.641 1.014 2 2 0 0 0 .204-.108l12.18-6.5a1 1 0 0 0 .506-1.32z" fill-opacity=".502"/><rect x="226.5" y="222.5" width="59" height="59" ry="29.5" fill="none" stroke="#000" stroke-linecap="round" stroke-opacity=".502"/><rect transform="rotate(60)" x="345.74" y="-118.7" width="1" height="6" ry=".5" fill="#333"/><rect transform="rotate(30)" x="347.2" y="67.238" width="1" height="6" ry=".5" fill="#333"/><rect x="255" y="228" width="2" height="8" ry="1" fill="#333"/><rect transform="rotate(-30)" x="95.203" y="323.24" width="1" height="6" ry=".5" fill="#333"/><rect transform="rotate(-60)" x="-90.738" y="324.7" width="1" height="6" ry=".5" fill="#333"/><rect transform="rotate(-90)" x="-253" y="232" width="2" height="8" ry="1" fill="#333"/><rect transform="rotate(240)" x="-346.74" y="72.702" width="1" height="6" ry=".5" fill="#333"/><rect transform="rotate(210)" x="-348.2" y="-113.24" width="1" height="6" ry=".5" fill="#333"/><rect transform="scale(-1)" x="-257" y="-276" width="2" height="8" ry="1" fill="#333"/><rect transform="rotate(150)" x="-96.202" y="-369.24" width="1" height="6" ry=".5" fill="#333"/><rect transform="rotate(120)" x="89.738" y="-370.7" width="1" height="6" ry=".5" fill="#333"/><rect transform="rotate(90)" x="251" y="-280" width="2" height="8" ry="1" fill="#333"/><path d="M269.7 245.9a1 1 0 0 0-1.32-.507l-12.954 4.692a2 2 0 0 0-.243.089 2 2 0 0 0-1.014 2.64 2 2 0 0 0 2.641 1.014 2 2 0 0 0 .204-.108l12.18-6.5a1 1 0 0 0 .506-1.32z" fill="#2b2928"/><path d="M260.07 262.14a1 1 0 0 0 .507-1.32l-2.615-8.217a2 2 0 0 0-.132-.412 2 2 0 0 0-2.64-1.013 2 2 0 0 0-1.014 2.64 2 2 0 0 0 .212.363l4.362 7.452a1 1 0 0 0 1.32.507z" fill-opacity=".502"/><path d="M260.07 261.14a1 1 0 0 0 .507-1.32l-2.615-8.217a2 2 0 0 0-.132-.412 2 2 0 0 0-2.64-1.013 2 2 0 0 0-1.014 2.64 2 2 0 0 0 .212.363l4.362 7.452a1 1 0 0 0 1.32.507z" fill="#474341"/><circle cx="256" cy="253" r="1" fill-opacity=".502"/><circle cx="256" cy="252" r="1" fill="#f6f6f6"/><rect x="101" y="253" width="30" height="31" ry="15" fill="#7b7b7b"/><rect x="101" y="253" width="30" height="30" ry="15" fill="#f6f6f6"/><rect x="101.5" y="253.5" width="29" height="29" ry="14.5" fill="none" stroke="#000" stroke-linecap="round" stroke-opacity=".502"/><rect transform="rotate(60)" x="289.59" y="20.541" width="1" height="4" ry=".5" fill="#333"/><rect transform="rotate(30)" x="233.96" y="161.09" width="1" height="4" ry=".5" fill="#333"/><rect x="115" y="254.5" width="2" height="5" ry="1" fill="#333"/><rect transform="rotate(-30)" x="-34.041" y="277.09" width="1" height="4" ry=".5" fill="#333"/><rect transform="rotate(-60)" x="-174.59" y="221.46" width="1" height="4" ry=".5" fill="#333"/><rect transform="rotate(-90)" x="-269" y="102.5" width="2" height="5" ry="1" fill="#333"/><rect transform="rotate(240)" x="-290.59" y="-46.541" width="1" height="4" ry=".5" fill="#333"/><rect transform="rotate(210)" x="-234.96" y="-187.09" width="1" height="4" ry=".5" fill="#333"/><rect transform="scale(-1)" x="-117" y="-281.5" width="2" height="5" ry="1" fill="#333"/><rect transform="rotate(150)" x="33.041" y="-303.09" width="1" height="4" ry=".5" fill="#333"/><rect transform="rotate(120)" x="173.59" y="-247.46" width="1" height="4" ry=".5" fill="#333"/><rect transform="rotate(90)" x="267" y="-129.5" width="2" height="5" ry="1" fill="#333"/><path d="M123.1 265.29a.5.5 0 0 0-.66-.253l-6.852 3.05a1 1 0 0 0-.507 1.32 1 1 0 0 0 1.32.507 1 1 0 0 0 .22-.133l6.226-3.83a.5.5 0 0 0 .253-.661z" fill-opacity=".502"/><path d="M123.1 264.29a.5.5 0 0 0-.66-.253l-6.852 3.05a1 1 0 0 0-.507 1.32 1 1 0 0 0 1.32.507 1 1 0 0 0 .22-.133l6.226-3.83a.5.5 0 0 0 .253-.661z" fill="#2b2928"/><path d="M118.9 274.28a.5.5 0 0 0 .253-.66l-2.237-5.025a1 1 0 0 0-1.32-.506 1 1 0 0 0-.507 1.32 1 1 0 0 0 .199.292l2.952 4.326a.5.5 0 0 0 .66.253z" fill-opacity=".502"/><path d="M118.9 273.28a.5.5 0 0 0 .253-.66l-2.237-5.025a1 1 0 0 0-1.32-.506 1 1 0 0 0-.507 1.32 1 1 0 0 0 .199.292l2.952 4.326a.5.5 0 0 0 .66.253z" fill="#474341"/><rect x="115.5" y="267.5" width="1" height="1" ry=".5" fill="#f6f6f6"/><rect x="158" y="238" width="44" height="46" ry="22" fill="#7b7b7b"/><circle cx="180" cy="260" r="21" fill="#f6f6f6"/><rect transform="rotate(60)" x="314.67" y="-44.702" width="1" height="6" ry=".5" fill="#333"/><rect transform="rotate(30)" x="285.38" y="116.35" width="1" height="6" ry=".5" fill="#333"/><rect x="179" y="240.68" width="2" height="7" ry="1" fill="#333"/><rect transform="rotate(-30)" x="25.385" y="296.35" width="1" height="6" ry=".5" fill="#333"/><rect transform="rotate(-60)" x="-135.67" y="267.07" width="1" height="6" ry=".5" fill="#333"/><rect transform="rotate(-90)" x="-261" y="160.68" width="2" height="7" ry="1" fill="#333"/><rect transform="rotate(240)" x="-315.67" y="7.067" width="1" height="6" ry=".5" fill="#333"/><rect transform="rotate(210)" x="-286.38" y="-153.98" width="1" height="6" ry=".5" fill="#333"/><rect transform="scale(-1)" x="-181" y="-279.32" width="2" height="7" ry="1" fill="#333"/><rect transform="rotate(150)" x="-26.385" y="-333.98" width="1" height="6" ry=".5" fill="#333"/><rect transform="rotate(120)" x="134.67" y="-304.7" width="1" height="6" ry=".5" fill="#333"/><rect transform="rotate(90)" x="259" y="-199.32" width="2" height="7" ry="1" fill="#333"/><path d="M193.7 254.9a1 1 0 0 0-1.32-.507l-12.954 4.692a2 2 0 0 0-.243.089 2 2 0 0 0-1.014 2.64 2 2 0 0 0 2.641 1.014 2 2 0 0 0 .204-.108l12.18-6.5a1 1 0 0 0 .506-1.32z" fill-opacity=".502"/><path d="M193.7 253.9a1 1 0 0 0-1.32-.507l-12.954 4.692a2 2 0 0 0-.243.089 2 2 0 0 0-1.014 2.64 2 2 0 0 0 2.641 1.014 2 2 0 0 0 .204-.108l12.18-6.5a1 1 0 0 0 .506-1.32z" fill="#2b2928"/><path d="M184.07 270.14a1 1 0 0 0 .507-1.32l-2.615-8.217a2 2 0 0 0-.132-.412 2 2 0 0 0-2.64-1.013 2 2 0 0 0-1.014 2.64 2 2 0 0 0 .212.363l4.362 7.452a1 1 0 0 0 1.32.507z" fill-opacity=".502"/><path d="M184.07 269.14a1 1 0 0 0 .507-1.32l-2.615-8.217a2 2 0 0 0-.132-.412 2 2 0 0 0-2.64-1.013 2 2 0 0 0-1.014 2.64 2 2 0 0 0 .212.363l4.362 7.452a1 1 0 0 0 1.32.507z" fill="#474341"/><circle cx="180" cy="261" r="1" fill-opacity=".502"/><circle cx="180" cy="260" r="1" fill="#f6f6f6"/><rect x="57" y="261" width="22" height="22" ry="8" fill="#f6f6f6"/><rect x="57.5" y="261.5" width="21" height="21" ry="7.5" fill="none" stroke="#000" stroke-linecap="round" stroke-opacity=".502"/><rect x="67" y="263" width="2" height="3" ry="1" fill="#333"/><rect transform="rotate(-90)" x="-273" y="59" width="2" height="3" ry="1" fill="#333"/><rect transform="scale(-1)" x="-69" y="-281" width="2" height="3" ry="1" fill="#333"/><rect transform="rotate(90)" x="271" y="-77" width="2" height="3" ry="1" fill="#333"/><path d="M74.191 268.7a.5.5 0 0 0-.66-.253l-5.938 2.643a1 1 0 0 0-.507 1.32 1 1 0 0 0 1.32.507 1 1 0 0 0 .248-.159l5.284-3.398a.5.5 0 0 0 .253-.66z" fill="#2b2928"/><path d="M70.49 276.36a.5.5 0 0 0 .253-.66l-1.83-4.111a1 1 0 0 0-1.32-.507 1 1 0 0 0-.507 1.32 1 1 0 0 0 .253.343l2.49 3.362a.5.5 0 0 0 .661.253z" fill="#474341"/><rect x="17" y="269" width="14" height="14" ry="5" fill="#f6f6f6"/><rect x="17.5" y="269.5" width="13" height="13" ry="4.5" fill="none" stroke="#000" stroke-linecap="round" stroke-opacity=".502"/><rect x="23" y="270" width="2" height="3" ry="1" fill="#333"/><rect transform="rotate(-90)" x="-277" y="18" width="2" height="3" ry="1" fill="#333"/><rect transform="scale(-1)" x="-25" y="-282" width="2" height="3" ry="1" fill="#333"/><rect transform="rotate(90)" x="275" y="-30" width="2" height="3" ry="1" fill="#333"/><path d="M28.382 272.16a.5.5 0 0 0-.698-.11l-4.045 2.938a1 1 0 1 0 1.384 1.41l3.248-3.54a.5.5 0 0 0 .111-.698z" fill="#2b2928"/><path d="M26.185 278.93a.5.5 0 0 0 .253-.66l-1.22-2.74a1 1 0 1 0-1.574 1.155l1.88 1.992a.5.5 0 0 0 .661.253z" fill="#474341"/></g></svg>