<svg version="1.0" viewBox="0 0 64 64" xmlns="http://www.w3.org/2000/svg"><g transform="translate(-224 -220)"><rect x="226" y="222" width="60" height="62" ry="30" fill="#7b7b7b"/><rect x="226" y="222" width="60" height="60" ry="30" fill="#f6f6f6"/><path d="M269.7 246.9a1 1 0 0 0-1.32-.507l-12.954 4.692a2 2 0 0 0-.243.089 2 2 0 0 0-1.014 2.64 2 2 0 0 0 2.641 1.014 2 2 0 0 0 .204-.108l12.18-6.5a1 1 0 0 0 .506-1.32z" fill-opacity=".502"/><rect x="226.5" y="222.5" width="59" height="59" ry="29.5" fill="none" stroke="#000" stroke-linecap="round" stroke-opacity=".502"/><rect transform="rotate(60)" x="345.74" y="-118.7" width="1" height="6" ry=".5" fill="#333"/><rect transform="rotate(30)" x="347.2" y="67.238" width="1" height="6" ry=".5" fill="#333"/><rect x="255" y="228" width="2" height="8" ry="1" fill="#333"/><rect transform="rotate(-30)" x="95.203" y="323.24" width="1" height="6" ry=".5" fill="#333"/><rect transform="rotate(-60)" x="-90.738" y="324.7" width="1" height="6" ry=".5" fill="#333"/><rect transform="rotate(-90)" x="-253" y="232" width="2" height="8" ry="1" fill="#333"/><rect transform="rotate(240)" x="-346.74" y="72.702" width="1" height="6" ry=".5" fill="#333"/><rect transform="rotate(210)" x="-348.2" y="-113.24" width="1" height="6" ry=".5" fill="#333"/><rect transform="scale(-1)" x="-257" y="-276" width="2" height="8" ry="1" fill="#333"/><rect transform="rotate(150)" x="-96.202" y="-369.24" width="1" height="6" ry=".5" fill="#333"/><rect transform="rotate(120)" x="89.738" y="-370.7" width="1" height="6" ry=".5" fill="#333"/><rect transform="rotate(90)" x="251" y="-280" width="2" height="8" ry="1" fill="#333"/><path d="M269.7 245.9a1 1 0 0 0-1.32-.507l-12.954 4.692a2 2 0 0 0-.243.089 2 2 0 0 0-1.014 2.64 2 2 0 0 0 2.641 1.014 2 2 0 0 0 .204-.108l12.18-6.5a1 1 0 0 0 .506-1.32z" fill="#2b2928"/><path d="M260.07 262.14a1 1 0 0 0 .507-1.32l-2.615-8.217a2 2 0 0 0-.132-.412 2 2 0 0 0-2.64-1.013 2 2 0 0 0-1.014 2.64 2 2 0 0 0 .212.363l4.362 7.452a1 1 0 0 0 1.32.507z" fill-opacity=".502"/><path d="M260.07 261.14a1 1 0 0 0 .507-1.32l-2.615-8.217a2 2 0 0 0-.132-.412 2 2 0 0 0-2.64-1.013 2 2 0 0 0-1.014 2.64 2 2 0 0 0 .212.363l4.362 7.452a1 1 0 0 0 1.32.507z" fill="#474341"/><circle cx="256" cy="253" r="1" fill-opacity=".502"/><circle cx="256" cy="252" r="1" fill="#f6f6f6"/></g></svg>