<svg version="1.0" viewBox="0 0 64 64" xmlns="http://www.w3.org/2000/svg"><g transform="translate(-224 -220)"><path d="M237.5 223a4.49 4.49 0 0 0-4.5 4.5v51a4.49 4.49 0 0 0 4.5 4.5h37a4.49 4.49 0 0 0 4.5-4.5v-39L262.5 223z" fill="#6f6f6f"/><path d="M278 240v36c0 2.216-1.784 4-4 4h-36c-2.216 0-4-1.784-4-4v-48c0-2.216 1.784-4 4-4h24" fill="#ececec"/><path d="M278 243h-13c-2.216 0-4-1.784-4-4v-15h1l16 16z" fill="#6f6f6f" fill-opacity=".502"/><path d="M278 240h-12c-2.216 0-4-1.784-4-4v-12" fill="#fafafa"/><path d="M339.5 163a8.481 8.481 0 0 0-8.5 8.5v100c0 4.709 3.791 8.5 8.5 8.5h73c4.709 0 8.5-3.791 8.5-8.5v-76L388.5 163z" fill="#6f6f6f"/><path d="M420 196v72c0 4.432-3.568 8-8 8h-72c-4.432 0-8-3.568-8-8v-96c0-4.432 3.568-8 8-8h48" fill="#ececec"/><path d="M420 200h-25c-4.432 0-8-3.568-8-8v-28h1l32 32z" fill="#6f6f6f" fill-opacity=".502"/><path d="M420 196h-24c-4.432 0-8-3.568-8-8v-24" fill="#fafafa"/><path d="M511.5 43a8.481 8.481 0 0 0-8.5 8.5v214c0 4.709 3.791 8.5 8.5 8.5h161c4.709 0 8.5-3.791 8.5-8.5V107.05l-64.447-64.055z" fill="#6f6f6f"/><path d="M680 108v152c0 4.432-3.568 8-8 8H512c-4.432 0-8-3.568-8-8V52c0-4.432 3.568-8 8-8h104" fill="#ececec"/><path d="M680 114h-57c-4.432 0-8-3.568-8-8V44h1l64 64z" fill="#6f6f6f" fill-opacity=".502"/><path d="M680 108h-56c-4.432 0-8-3.568-8-8V44" fill="#fafafa"/><path d="M166.6 238a3.591 3.591 0 0 0-3.6 3.6v37.8c0 1.995 1.606 3.6 3.6 3.6h26.801c1.994 0 3.6-1.605 3.6-3.6V251l-13-13z" fill="#6f6f6f"/><path d="M196 251v27c0 1.662-1.338 3-3 3h-26c-1.662 0-3-1.338-3-3v-36c0-1.662 1.338-3 3-3h17" fill="#ececec"/><path d="M196 253h-10c-1.662 0-3-1.338-3-3v-11h1l12 12z" fill="#6f6f6f" fill-opacity=".502"/><path d="M196 251h-9c-1.662 0-3-1.338-3-3v-9" fill="#fafafa"/><path d="M128 261.5v20c0 1.385-1.115 2.5-2.5 2.5h-19a2.495 2.495 0 0 1-2.5-2.5v-26c0-1.385 1.115-2.5 2.5-2.5h13" fill="#6f6f6f"/><path d="M127 262v18c0 1.108-.892 2-2 2h-18c-1.108 0-2-.892-2-2v-24c0-1.108.892-2 2-2h12" fill="#ececec"/><path d="M127 264h-7c-1.108 0-2-.892-2-2v-8h1l8 8z" fill="#6f6f6f" fill-opacity=".502"/><path d="M127 262h-6c-1.108 0-2-.892-2-2v-6" fill="#fafafa"/><path d="M60.5 260a2.495 2.495 0 0 0-2.5 2.5v19c0 1.385 1.115 2.5 2.5 2.5h15c1.385 0 2.5-1.115 2.5-2.5v-14l-7.5-7.5z" fill="#7f6728"/><path d="M77 268v13c0 1.108-.892 2-2 2H61c-1.108 0-2-.892-2-2v-18c0-1.108.892-2 2-2h9" fill="#ffce51"/><path d="M19.5 268c-.831 0-1.5.669-1.5 1.5v13c0 .831.669 1.5 1.5 1.5h9c.831 0 1.5-.669 1.5-1.5v-10l-4.5-4.5z" fill="#7f6728"/><path d="M29 273v9c0 .554-.446 1-1 1h-8c-.554 0-1-.446-1-1v-12c0-.554.446-1 1-1h5" fill="#ffce51"/><g fill="#cda641"><path d="M70.87 269.655a.454.454 0 0 0-.644 0l-1.092 1.093 2.121 2.121 1.093-1.092a.454.454 0 0 0 0-.644zm-2.443 1.8-6.75 6.75a.454.454 0 0 0 0 .643l1.447 1.446a.534.534 0 0 0 .707 0l6.717-6.718z"/><path d="m61.002 281 .354-2.474.707-.707 2.121 2.121-.707.707z"/><path d="M27.098 273.132a.454.454 0 0 0-.644 0l-1.092 1.092 1.414 1.414 1.092-1.092a.454.454 0 0 0 0-.644zm-2.444 1.799-4.628 4.628a.454.454 0 0 0 0 .644l.771.77a.454.454 0 0 0 .644 0l4.628-4.628z"/><path d="m18.998 282.002.707-2.121.707-.707 1.414 1.414-.707.707z"/></g><rect x="109" y="276.5" width="9" height="1" ry=".456" fill="#474341" fill-opacity=".69"/><rect x="109" y="273.5" width="14" height="1" ry=".456" fill="#474341" fill-opacity=".69"/><rect x="109" y="270.5" width="14" height="1" ry=".456" fill="#474341" fill-opacity=".69"/><rect x="109" y="267.5" width="14" height="1" ry=".456" fill="#474341" fill-opacity=".69"/><g transform="matrix(2 0 0 2 -244 938.5)" fill="#474341" fill-opacity=".69"><rect x="243" y="-334.5" width="9" height="1" ry=".456"/><rect x="243" y="-337.5" width="14" height="1" ry=".456"/><rect x="243" y="-340.5" width="14" height="1" ry=".456"/><rect x="243" y="-343.5" width="14" height="1" ry=".456"/></g><g transform="matrix(4 0 0 4 -624 1592.5)" fill="#474341" fill-opacity=".69"><rect x="243" y="-334.5" width="9" height="1" ry=".456"/><rect x="243" y="-337.5" width="14" height="1" ry=".456"/><rect x="243" y="-340.5" width="14" height="1" ry=".456"/><rect x="243" y="-343.5" width="14" height="1" ry=".456"/></g><g transform="matrix(8 0 0 8 -1408 2903.5)" fill="#474341" fill-opacity=".69"><rect x="243" y="-334.5" width="9" height="1" ry=".456"/><rect x="243" y="-337.5" width="14" height="1" ry=".456"/><rect x="243" y="-340.5" width="14" height="1" ry=".456"/><rect x="243" y="-343.5" width="14" height="1" ry=".456"/></g><g transform="matrix(2 0 0 2 -318 945)" fill="#474341" fill-opacity=".69"><rect x="243" y="-334.5" width="7.5" height="1" ry=".456"/><rect x="243" y="-337.5" width="12" height="1" ry=".423"/><rect x="243" y="-340.5" width="12" height="1" ry=".375"/><rect x="243" y="-343.5" width="12" height="1" ry=".456"/></g><g transform="rotate(45 166.63 256.37)"><g fill="#a27100"><rect x="141.5" y="306" width="5" height="3" ry="0"/><rect x="141.5" y="287.5" width="5" height="21.5" ry="1.5"/><path d="m141.5 309 2.5 2.5 2.5-2.5z"/></g><rect x="142" y="290" width="4" height="3" ry="0" fill="#d4d1ca"/><path fill="#ffce51" d="M143 293h2v16h-2z"/><path fill="#fffa7d" d="M142 293h1v16h-1z"/><path fill="#d1a023" d="M145 293h1v16h-1z"/><path d="m142 309 2 2 2-2z" fill="#f5f2e3"/><path d="M143.5 310.5h1l-.5.5z" fill="#3c3c3c"/><g fill="#ff8989"><rect x="142" y="288" width="4" height="2" ry="1"/><rect x="142" y="289" width="4" height="1" ry="0"/></g></g><g fill="#a27100" transform="rotate(45 317.1 301.79)"><rect x="245.5" y="321" width="9" height="6" ry="0"/><rect x="245.5" y="284.5" width="9" height="42.5" ry="2.5"/><path d="m245.5 327 4.5 4.5 4.5-4.5z"/></g><g transform="rotate(45 770.64 258.768) scale(2)"><rect x="204.63" y="296.55" width="4" height="2" ry="1" fill="#ff8989"/><rect x="204.63" y="298.55" width="4" height="3" ry="0" fill="#d4d1ca"/><path fill="#ffce51" d="M205.63 301.55h2v16h-2z"/><path fill="#fffa7d" d="M204.63 301.55h1v16h-1z"/><path fill="#d1a023" d="M207.63 301.55h1v16h-1z"/><path d="m204.63 317.55 2 2 2-2z" fill="#f5f2e3"/><path d="M206.13 319.05h1l-.5.5z" fill="#3c3c3c"/><rect x="204.63" y="297.55" width="4" height="1" ry="0" fill="#ff8989"/></g><g transform="rotate(45 907.804 297.923) scale(2)" fill="#a27100"><rect x="245.75" y="321" width="8.5" height="6" ry="0"/><rect x="245.75" y="284.75" width="8.5" height="42.25" ry="2.25"/><path d="m245.75 327 4.25 4.25 4.25-4.25z"/></g><g transform="rotate(45 1814.888 211.866) scale(4)"><rect x="204.63" y="296.55" width="4" height="2" ry="1" fill="#ff8989"/><rect x="204.63" y="298.55" width="4" height="3" ry="0" fill="#d4d1ca"/><path fill="#ffce51" d="M205.63 301.55h2v16h-2z"/><path fill="#fffa7d" d="M204.63 301.55h1v16h-1z"/><path fill="#d1a023" d="M207.63 301.55h1v16h-1z"/><path d="m204.63 317.55 2 2 2-2z" fill="#f5f2e3"/><path d="M206.13 319.05h1l-.5.5z" fill="#3c3c3c"/><rect x="204.63" y="297.55" width="4" height="1" ry="0" fill="#ff8989"/></g><g transform="rotate(45 2077.725 262.413) scale(4)" fill="#a27100"><rect x="245.88" y="323.25" width="8.25" height="3.75" ry="0"/><rect x="245.88" y="284.88" width="8.25" height="42.125" ry="2.125"/><path d="m245.88 327 4.125 4.125L254.13 327z"/></g><g transform="rotate(45 3891.913 90.251) scale(8)"><rect x="204.63" y="296.55" width="4" height="2" ry="1" fill="#ff8989"/><rect x="204.63" y="298.55" width="4" height="3" ry="0" fill="#d4d1ca"/><path fill="#ffce51" d="M205.63 301.55h2v16h-2z"/><path fill="#fffa7d" d="M204.63 301.55h1v16h-1z"/><path fill="#d1a023" d="M207.63 301.55h1v16h-1z"/><path d="m204.63 317.55 2 2 2-2z" fill="#f5f2e3"/><path d="M206.13 319.05h1l-.5.5z" fill="#3c3c3c"/><rect x="204.63" y="297.55" width="4" height="1" ry="0" fill="#ff8989"/></g><g transform="rotate(45 421.61 326.16) scale(1.5)"><g fill="#a27100"><rect x="141.5" y="306" width="5" height="3" ry="0"/><rect x="141.5" y="287.5" width="5" height="21.5" ry="1.5"/><path d="m141.5 309 2.5 2.5 2.5-2.5z"/></g><rect x="142" y="290" width="4" height="3" ry="0" fill="#d4d1ca"/><path fill="#ffce51" d="M143 293h2v16h-2z"/><path fill="#fffa7d" d="M142 293h1v16h-1z"/><path fill="#d1a023" d="M145 293h1v16h-1z"/><path d="m142 309 2 2 2-2z" fill="#f5f2e3"/><path d="M143.5 310.5h1l-.5.5z" fill="#3c3c3c"/><g fill="#ff8989"><rect x="142" y="288" width="4" height="2" ry="1"/><rect x="142" y="289" width="4" height="1" ry="0"/></g></g><g fill="#fff"><path d="M70.87 268.655a.454.454 0 0 0-.644 0l-1.092 1.093 2.121 2.121 1.093-1.092a.454.454 0 0 0 0-.644zm-2.443 1.8-6.75 6.75a.454.454 0 0 0 0 .643l1.447 1.446a.534.534 0 0 0 .707 0l6.717-6.718z"/><path d="m61.002 280 .354-2.474.707-.707 2.121 2.121-.707.707z"/><path d="M27.098 272.132a.454.454 0 0 0-.644 0l-1.092 1.092 1.414 1.414 1.092-1.092a.454.454 0 0 0 0-.644zm-2.444 1.799-4.628 4.628a.454.454 0 0 0 0 .644l.771.77a.454.454 0 0 0 .644 0l4.628-4.628z"/><path d="m18.998 281.002.707-2.121.707-.707 1.414 1.414-.707.707z"/></g></g></svg>