<svg version="1.0" viewBox="0 0 64 64" xmlns="http://www.w3.org/2000/svg" xmlns:xlink="http://www.w3.org/1999/xlink"><g transform="translate(-224 380)"><g id="a"><rect x="102" y="259" width="28" height="22" ry="2" fill="#6f6f6f"/><rect x="103" y="260" width="26" height="19" ry="1.5" fill="#dedede"/><path fill="#45454f" d="M105 262h22v14h-22z"/><rect x="56" y="262" width="24" height="20" ry="2" fill="#6f6f6f"/><rect x="57" y="263" width="22" height="18" ry="1.5" fill="#dedede"/><path fill="#45454f" d="M58 264h20v15H58z"/><rect x="16" y="270" width="16" height="12" ry="2" fill="#6f6f6f"/><rect x="17" y="271" width="14" height="10" ry="1.5" fill="#dedede"/><path fill="#45454f" d="M18 272h12v8H18z"/><rect x="159" y="247" width="42" height="32" ry="3" fill="#6f6f6f"/><rect x="160" y="248" width="40" height="28" ry="2.5" fill="#dedede"/><path fill="#45454f" d="M162 250h36v22h-36z"/><rect x="228" y="234" width="56" height="44" ry="4" fill="#6f6f6f"/><rect x="229" y="235" width="54" height="40" ry="3.5" fill="#dedede"/><rect x="231" y="237" width="50" height="34" ry="1" fill="#45454f"/><rect x="320" y="184" width="112" height="88" ry="8" fill="#6f6f6f"/><rect x="321" y="185" width="110" height="83" ry="7.5" fill="#dedede"/><rect x="325" y="189" width="102" height="69" ry="1" fill="#45454f"/><rect x="480" y="84" width="224" height="176" ry="8" fill="#6f6f6f"/><rect x="481" y="85" width="222" height="170" ry="7.5" fill="#dedede"/><rect x="488" y="92" width="208" height="143" ry="1" fill="#45454f"/><g transform="translate(0 600)" fill="#48b9c7"><rect x="488" y="-508" width="208" height="143" ry="1"/><rect x="325" y="-411" width="102" height="69" ry="1"/><rect x="231" y="-363" width="50" height="34" ry="1"/><rect x="162" y="-350" width="36" height="22" ry="0"/><path d="M105-338h22v14h-22z"/><path d="M58-336h20v15H58z"/><path d="M18-328h12v8H18z"/></g></g></g><g transform="translate(-224 380)"><use id="b" transform="translate(0 -300)" width="100%" height="100%" xlink:href="#a"/><g fill-opacity=".196"><path d="M106-36v12h20zm2 3.5 11 6.5h-11z"/><path d="M59-34v13h18zm2 4 10 7H61z"/><path d="M19-26v6h10zm2 3 4 2h-4z"/><path d="M235-56v24h40zm4 7 22 13h-22z"/><path d="M331-95v48h80zm8 14 44 26h-44z"/><path d="M496-167v96h160zm16 28 88 52h-88z"/><path d="M164-47v18h33zm3 5 18 10h-18z"/></g><g fill="#fff"><path d="M106-37v12h20zm2 3.5 11 6.5h-11z"/><path d="M59-35v13h18zm2 4 10 7H61z"/><path d="M19-27v6h10zm2 3 4 2h-4z"/><path d="M235-57v24h40zm4 7 22 13h-22z"/><path d="M331-96v48h80zm8 14 44 26h-44z"/><path d="M496-169v96h160zm16 28 88 52h-88z"/><path d="M164-48v18h33zm3 5 18 10h-18z"/></g></g><g transform="translate(-224 380)"><use id="c" transform="translate(0 -300)" width="100%" height="100%" xlink:href="#b"/><g fill-opacity=".196"><path d="M106-336v4h1v-3h4v-1h-4zm15 0v1h4v3h1v-4h-1zm-15 8v4h5v-1h-4v-3zm19 0v3h-4v1h5v-4z"/><path d="M19-326v2h1v-1h2v-1h-2zm7 0v1h2v1h1v-2h-1zm-7 4v2h3v-1h-2v-1zm9 0v1h-2v1h3v-2z"/><path d="M59-334v4h1v-3h4v-1h-4zm13 0v1h4v3h1v-4h-1zm-13 9v4h5v-1h-4v-3zm17 0v3h-4v1h5v-4z"/><path d="M233-360v8h2v-6h8v-2h-8zm36 0v2h8v6h2v-8h-2zm-36 22v8h10v-2h-8v-6zm44 0v6h-8v2h10v-8z"/><path d="M163-348v8h2v-6h8v-2h-8zm24 0v2h8v6h2v-8h-2zm-24 12v8h10v-2h-8v-6zm32 0v6h-8v2h10v-8z"/><path d="M330-405v16h4v-12h16v-4h-16zm72 0v4h16v12h4v-16h-4zm-72 43v16h20v-4h-16v-12zm88 0v12h-16v4h20v-16z"/><path d="M500-493v32h8v-24h32v-8h-32zm144 0v8h32v24h8v-32h-8zm-144 86v32h40v-8h-32v-24zm176 0v24h-32v8h40v-32z"/></g><g fill="#fff" fill-opacity=".989"><path d="M106-337v4h1v-3h4v-1h-4zm15 0v1h4v3h1v-4h-1zm-15 8v4h5v-1h-4v-3zm19 0v3h-4v1h5v-4z"/><path d="M19-327v2h1v-1h2v-1h-2zm7 0v1h2v1h1v-2h-1zm-7 4v2h3v-1h-2v-1zm9 0v1h-2v1h3v-2z"/><path d="M59-335v4h1v-3h4v-1h-4zm13 0v1h4v3h1v-4h-1zm-13 9v4h5v-1h-4v-3zm17 0v3h-4v1h5v-4z"/><path d="M233-361v8h2v-6h8v-2h-8zm36 0v2h8v6h2v-8h-2zm-36 22v8h10v-2h-8v-6zm44 0v6h-8v2h10v-8z"/><path d="M163-349v8h2v-6h8v-2h-8zm24 0v2h8v6h2v-8h-2zm-24 12v8h10v-2h-8v-6zm32 0v6h-8v2h10v-8z"/><path d="M330-406v16h4v-12h16v-4h-16zm72 0v4h16v12h4v-16h-4zm-72 43v16h20v-4h-16v-12zm88 0v12h-16v4h20v-16z"/><path d="M500-495v32h8v-24h32v-8h-32zm144 0v8h32v24h8v-32h-8zm-144 86v32h40v-8h-32v-24zm176 0v24h-32v8h40v-32z"/></g></g><g transform="translate(-224 380)"><use id="d" transform="translate(0 -300)" width="100%" height="100%" xlink:href="#c"/><g fill="#fff"><path d="M20-627.03v4l1.5-1.5 1.5 1.5 2.5-2.5 2.5 2.5v-4z" opacity=".5"/><path d="m24-625.03 4 4h-8z"/></g><g fill-opacity=".196"><path d="M604.79 384.57c-1.645 0-3 1.355-3 3v6c0 1.645 1.355 3 3 3h8c1.645 0 3-1.355 3-3v-6c0-1.645-1.355-3-3-3zm0 2h8c.571 0 1 .429 1 1v6c0 .571-.429 1-1 1h-8c-.571 0-1-.429-1-1v-6c0-.571.429-1 1-1z" color="#000" style="font-feature-settings:normal;font-variant-alternates:normal;font-variant-caps:normal;font-variant-ligatures:normal;font-variant-numeric:normal;font-variant-position:normal;isolation:auto;mix-blend-mode:normal;shape-padding:0;text-decoration-color:#000;text-decoration-line:none;text-decoration-style:solid;text-indent:0;text-orientation:mixed;text-transform:none;white-space:normal" transform="translate(-492.79 -1020.6)"/><path d="M112-633.03v4l1.5-1.5 1.5 1.5 2.5-2.5 2.5 2.5v-4z" opacity=".5"/><path d="m116-631.03 4 4h-8z"/><path d="M604.79 384.57c-1.645 0-3 1.355-3 3v6c0 1.645 1.355 3 3 3h8c1.645 0 3-1.355 3-3v-6c0-1.645-1.355-3-3-3zm0 2h8c.571 0 1 .429 1 1v6c0 .571-.429 1-1 1h-8c-.571 0-1-.429-1-1v-6c0-.571.429-1 1-1z" color="#000" style="font-feature-settings:normal;font-variant-alternates:normal;font-variant-caps:normal;font-variant-ligatures:normal;font-variant-numeric:normal;font-variant-position:normal;isolation:auto;mix-blend-mode:normal;shape-padding:0;text-decoration-color:#000;text-decoration-line:none;text-decoration-style:solid;text-indent:0;text-orientation:mixed;text-transform:none;white-space:normal" transform="translate(-540.79 -1018.6)"/><path d="M64-631.03v4l1.5-1.5 1.5 1.5 2.5-2.5 2.5 2.5v-4z" opacity=".5"/><path d="m68-629.03 4 4h-8z"/><path d="M604.79 384.57c-1.645 0-3 1.355-3 3v6c0 1.645 1.355 3 3 3h8c1.645 0 3-1.355 3-3v-6c0-1.645-1.355-3-3-3zm0 2h8c.571 0 1 .429 1 1v6c0 .571-.429 1-1 1h-8c-.571 0-1-.429-1-1v-6c0-.571.429-1 1-1z" color="#000" style="font-feature-settings:normal;font-variant-alternates:normal;font-variant-caps:normal;font-variant-ligatures:normal;font-variant-numeric:normal;font-variant-position:normal;isolation:auto;mix-blend-mode:normal;shape-padding:0;text-decoration-color:#000;text-decoration-line:none;text-decoration-style:solid;text-indent:0;text-orientation:mixed;text-transform:none;white-space:normal" transform="matrix(2 0 0 2 -961.58 -1426.1)"/><path d="M248-650.96v8l3-3 3 3 5-5 5 5v-8z" opacity=".5"/><path d="m256-646.96 8 8h-16z"/><path d="M604.79 384.57c-1.645 0-3 1.355-3 3v6c0 1.645 1.355 3 3 3h8c1.645 0 3-1.355 3-3v-6c0-1.645-1.355-3-3-3zm0 2h8c.571 0 1 .429 1 1v6c0 .571-.429 1-1 1h-8c-.571 0-1-.429-1-1v-6c0-.571.429-1 1-1z" color="#000" style="font-feature-settings:normal;font-variant-alternates:normal;font-variant-caps:normal;font-variant-ligatures:normal;font-variant-numeric:normal;font-variant-position:normal;isolation:auto;mix-blend-mode:normal;shape-padding:0;text-decoration-color:#000;text-decoration-line:none;text-decoration-style:solid;text-indent:0;text-orientation:mixed;text-transform:none;white-space:normal" transform="matrix(4 0 0 4 -2059.2 -2238.3)"/><path d="M359.96-688.02v16l6-6 6 6 10-10 10 10v-16z" opacity=".5"/><path d="m375.96-680.02 16 16h-32z"/><path d="M604.79 384.57c-1.645 0-3 1.355-3 3v6c0 1.645 1.355 3 3 3h8c1.645 0 3-1.355 3-3v-6c0-1.645-1.355-3-3-3zm0 2h8c.571 0 1 .429 1 1v6c0 .571-.429 1-1 1h-8c-.571 0-1-.429-1-1v-6c0-.571.429-1 1-1z" color="#000" style="font-feature-settings:normal;font-variant-alternates:normal;font-variant-caps:normal;font-variant-ligatures:normal;font-variant-numeric:normal;font-variant-position:normal;isolation:auto;mix-blend-mode:normal;shape-padding:0;text-decoration-color:#000;text-decoration-line:none;text-decoration-style:solid;text-indent:0;text-orientation:mixed;text-transform:none;white-space:normal" transform="matrix(8 0 0 8 -4278.3 -3859.6)"/><path d="M560.02-759.04v32l12-12 12 12 20-20 20 20v-32z" opacity=".5"/><path d="m592.02-743.04 32 32h-64z"/><path d="M604.46 384.57c-1.645 0-3 1.355-3 3v6c0 1.645 1.355 3 3 3h8.667c1.644 0 3-1.355 3-3v-6c0-1.645-1.356-3-3-3zm0 2h8.667c.571 0 1 .429 1 1v6c0 .571-.429 1-1 1h-8.667c-.571 0-1-.429-1-1v-6c0-.571.429-1 1-1z" color="#000" style="font-feature-settings:normal;font-variant-alternates:normal;font-variant-caps:normal;font-variant-ligatures:normal;font-variant-numeric:normal;font-variant-position:normal;isolation:auto;mix-blend-mode:normal;shape-padding:0;text-decoration-color:#000;text-decoration-line:none;text-decoration-style:solid;text-indent:0;text-orientation:mixed;text-transform:none;white-space:normal" transform="matrix(1.5 0 0 1.5 -733.18 -1223.9)"/><path d="M173-643.04v7l2.5-3 2.75 3 4.25-5 4.5 5v-7z" opacity=".5"/><path d="m180.005-641.045 7 8h-14z"/></g><g fill="#fff"><path d="M604.79 384.57c-1.645 0-3 1.355-3 3v6c0 1.645 1.355 3 3 3h8c1.645 0 3-1.355 3-3v-6c0-1.645-1.355-3-3-3zm0 2h8c.571 0 1 .429 1 1v6c0 .571-.429 1-1 1h-8c-.571 0-1-.429-1-1v-6c0-.571.429-1 1-1z" color="#000" style="font-feature-settings:normal;font-variant-alternates:normal;font-variant-caps:normal;font-variant-ligatures:normal;font-variant-numeric:normal;font-variant-position:normal;isolation:auto;mix-blend-mode:normal;shape-padding:0;text-decoration-color:#000;text-decoration-line:none;text-decoration-style:solid;text-indent:0;text-orientation:mixed;text-transform:none;white-space:normal" transform="translate(-492.79 -1021.6)"/><path d="M112-634.03v4l1.5-1.5 1.5 1.5 2.5-2.5 2.5 2.5v-4z" opacity=".5"/><path d="m116-632.03 4 4h-8z"/><path d="M604.79 384.57c-1.645 0-3 1.355-3 3v6c0 1.645 1.355 3 3 3h8c1.645 0 3-1.355 3-3v-6c0-1.645-1.355-3-3-3zm0 2h8c.571 0 1 .429 1 1v6c0 .571-.429 1-1 1h-8c-.571 0-1-.429-1-1v-6c0-.571.429-1 1-1z" color="#000" style="font-feature-settings:normal;font-variant-alternates:normal;font-variant-caps:normal;font-variant-ligatures:normal;font-variant-numeric:normal;font-variant-position:normal;isolation:auto;mix-blend-mode:normal;shape-padding:0;text-decoration-color:#000;text-decoration-line:none;text-decoration-style:solid;text-indent:0;text-orientation:mixed;text-transform:none;white-space:normal" transform="translate(-540.79 -1019.6)"/><path d="M64-632.03v4l1.5-1.5 1.5 1.5 2.5-2.5 2.5 2.5v-4z" opacity=".5"/><path d="m68-630.03 4 4h-8z"/><path d="M604.79 384.57c-1.645 0-3 1.355-3 3v6c0 1.645 1.355 3 3 3h8c1.645 0 3-1.355 3-3v-6c0-1.645-1.355-3-3-3zm0 2h8c.571 0 1 .429 1 1v6c0 .571-.429 1-1 1h-8c-.571 0-1-.429-1-1v-6c0-.571.429-1 1-1z" color="#000" style="font-feature-settings:normal;font-variant-alternates:normal;font-variant-caps:normal;font-variant-ligatures:normal;font-variant-numeric:normal;font-variant-position:normal;isolation:auto;mix-blend-mode:normal;shape-padding:0;text-decoration-color:#000;text-decoration-line:none;text-decoration-style:solid;text-indent:0;text-orientation:mixed;text-transform:none;white-space:normal" transform="matrix(2 0 0 2 -961.58 -1427.1)"/><path d="M248-651.96v8l3-3 3 3 5-5 5 5v-8z" opacity=".5"/><path d="m256-647.96 8 8h-16z"/><path d="M604.79 384.57c-1.645 0-3 1.355-3 3v6c0 1.645 1.355 3 3 3h8c1.645 0 3-1.355 3-3v-6c0-1.645-1.355-3-3-3zm0 2h8c.571 0 1 .429 1 1v6c0 .571-.429 1-1 1h-8c-.571 0-1-.429-1-1v-6c0-.571.429-1 1-1z" color="#000" style="font-feature-settings:normal;font-variant-alternates:normal;font-variant-caps:normal;font-variant-ligatures:normal;font-variant-numeric:normal;font-variant-position:normal;isolation:auto;mix-blend-mode:normal;shape-padding:0;text-decoration-color:#000;text-decoration-line:none;text-decoration-style:solid;text-indent:0;text-orientation:mixed;text-transform:none;white-space:normal" transform="matrix(4 0 0 4 -2059.2 -2239.3)"/><path d="M359.96-689.02v16l6-6 6 6 10-10 10 10v-16z" opacity=".5"/><path d="m375.96-681.02 16 16h-32z"/><path d="M604.79 384.57c-1.645 0-3 1.355-3 3v6c0 1.645 1.355 3 3 3h8c1.645 0 3-1.355 3-3v-6c0-1.645-1.355-3-3-3zm0 2h8c.571 0 1 .429 1 1v6c0 .571-.429 1-1 1h-8c-.571 0-1-.429-1-1v-6c0-.571.429-1 1-1z" color="#000" style="font-feature-settings:normal;font-variant-alternates:normal;font-variant-caps:normal;font-variant-ligatures:normal;font-variant-numeric:normal;font-variant-position:normal;isolation:auto;mix-blend-mode:normal;shape-padding:0;text-decoration-color:#000;text-decoration-line:none;text-decoration-style:solid;text-indent:0;text-orientation:mixed;text-transform:none;white-space:normal" transform="matrix(8 0 0 8 -4278.3 -3861.6)"/><path d="M560.02-761.04v32l12-12 12 12 20-20 20 20v-32z" opacity=".5"/><path d="m592.02-745.04 32 32h-64z"/><path d="M604.46 384.57c-1.645 0-3 1.355-3 3v6c0 1.645 1.355 3 3 3h8.667c1.644 0 3-1.355 3-3v-6c0-1.645-1.356-3-3-3zm0 2h8.667c.571 0 1 .429 1 1v6c0 .571-.429 1-1 1h-8.667c-.571 0-1-.429-1-1v-6c0-.571.429-1 1-1z" color="#000" style="font-feature-settings:normal;font-variant-alternates:normal;font-variant-caps:normal;font-variant-ligatures:normal;font-variant-numeric:normal;font-variant-position:normal;isolation:auto;mix-blend-mode:normal;shape-padding:0;text-decoration-color:#000;text-decoration-line:none;text-decoration-style:solid;text-indent:0;text-orientation:mixed;text-transform:none;white-space:normal" transform="matrix(1.5 0 0 1.5 -733.18 -1224.9)"/><path d="M173-644.04v7l2.5-3 2.75 3 4.25-5 4.5 5v-7z" opacity=".5"/><path d="m180.005-642.045 7 8h-14z"/></g></g><g transform="translate(-224 380)"><use transform="translate(0 -300)" width="100%" height="100%" xlink:href="#d"/><g fill-opacity=".196"><path d="M186-945c.554 0 1 .446 1 1v2c0 .554-.446 1-1 1h-12c-.554 0-1-.446-1-1v-2c0-.554.446-1 1-1zm-1 1c-.554 0-1 .446-1 1s.446 1 1 1 1-.446 1-1-.446-1-1-1z"/><path d="M186-940c.554 0 1 .446 1 1v2c0 .554-.446 1-1 1h-12c-.554 0-1-.446-1-1v-2c0-.554.446-1 1-1zm-1 1c-.554 0-1 .446-1 1s.446 1 1 1 1-.446 1-1-.446-1-1-1z"/><path d="M186-935c.554 0 1 .446 1 1v2c0 .554-.446 1-1 1h-12c-.554 0-1-.446-1-1v-2c0-.554.446-1 1-1zm-1 1a1 1 0 0 0-1 1 1 1 0 0 0 1 1 1 1 0 0 0 1-1 1 1 0 0 0-1-1z"/><path d="M268-959c1.108 0 2 .892 2 2v4c0 1.108-.892 2-2 2h-24c-1.108 0-2-.892-2-2v-4c0-1.108.892-2 2-2zm-2 2c-1.108 0-2 .892-2 2s.892 2 2 2 2-.892 2-2-.892-2-2-2z"/><path d="M268-949c1.108 0 2 .892 2 2v4c0 1.108-.892 2-2 2h-24c-1.108 0-2-.892-2-2v-4c0-1.108.892-2 2-2zm-2 2c-1.108 0-2 .892-2 2s.892 2 2 2 2-.892 2-2-.892-2-2-2z"/><path d="M268-939c1.108 0 2 .892 2 2v4c0 1.108-.892 2-2 2h-24c-1.108 0-2-.892-2-2v-4c0-1.108.892-2 2-2zm-2 2a2 2 0 0 0-2 2 2 2 0 0 0 2 2 2 2 0 0 0 2-2 2 2 0 0 0-2-2z"/><path d="M400-1003c2.216 0 4 1.784 4 4v8c0 2.216-1.784 4-4 4h-48c-2.216 0-4-1.784-4-4v-8c0-2.216 1.784-4 4-4zm-4 4c-2.216 0-4 1.784-4 4s1.784 4 4 4 4-1.784 4-4-1.784-4-4-4z"/><path d="M400-983c2.216 0 4 1.784 4 4v8c0 2.216-1.784 4-4 4h-48c-2.216 0-4-1.784-4-4v-8c0-2.216 1.784-4 4-4zm-4 4c-2.216 0-4 1.784-4 4s1.784 4 4 4 4-1.784 4-4-1.784-4-4-4z"/><path d="M400-963c2.216 0 4 1.784 4 4v8c0 2.216-1.784 4-4 4h-48c-2.216 0-4-1.784-4-4v-8c0-2.216 1.784-4 4-4zm-4 4a4 4 0 0 0-4 4 4 4 0 0 0 4 4 4 4 0 0 0 4-4 4 4 0 0 0-4-4z"/><path d="M640-1090c4.432 0 8 3.568 8 8v16c0 4.432-3.568 8-8 8h-96c-4.432 0-8-3.568-8-8v-16c0-4.432 3.568-8 8-8zm-8 8c-4.432 0-8 3.568-8 8s3.568 8 8 8 8-3.568 8-8-3.568-8-8-8z"/><path d="M640-1050c4.432 0 8 3.568 8 8v16c0 4.432-3.568 8-8 8h-96c-4.432 0-8-3.568-8-8v-16c0-4.432 3.568-8 8-8zm-8 8c-4.432 0-8 3.568-8 8s3.568 8 8 8 8-3.568 8-8-3.568-8-8-8z"/><path d="M640-1010c4.432 0 8 3.568 8 8v16c0 4.432-3.568 8-8 8h-96c-4.432 0-8-3.568-8-8v-16c0-4.432 3.568-8 8-8zm-8 8a8 8 0 0 0-8 8 8 8 0 0 0 8 8 8 8 0 0 0 8-8 8 8 0 0 0-8-8z"/><path d="M111-935c-.554 0-1 .446-1 1v1c0 .554.446 1 1 1h10c.554 0 1-.446 1-1v-1c0-.554-.446-1-1-1zm9.5 1a.5.5 0 1 1 0 1 .5.5 0 0 1 0-1z"/><path d="M111-931c-.554 0-1 .446-1 1v1c0 .554.446 1 1 1h10c.554 0 1-.446 1-1v-1c0-.554-.446-1-1-1zm9.5 1a.5.5 0 1 1 0 1 .5.5 0 0 1 0-1z"/><path d="M111-927c-.554 0-1 .446-1 1v1c0 .554.446 1 1 1h10c.554 0 1-.446 1-1v-1c0-.554-.446-1-1-1zm9.5 1a.5.5 0 1 1 0 1 .5.5 0 0 1 0-1z"/><path d="M63-933c-.554 0-1 .446-1 1v1c0 .554.446 1 1 1h10c.554 0 1-.446 1-1v-1c0-.554-.446-1-1-1zm9.5 1a.5.5 0 1 1 0 1 .5.5 0 0 1 0-1z"/><path d="M63-929c-.554 0-1 .446-1 1v1c0 .554.446 1 1 1h10c.554 0 1-.446 1-1v-1c0-.554-.446-1-1-1zm9.5 1a.5.5 0 1 1 0 1 .5.5 0 0 1 0-1z"/><path d="M63-925c-.554 0-1 .446-1 1v1c0 .554.446 1 1 1h10c.554 0 1-.446 1-1v-1c0-.554-.446-1-1-1zm9.5 1a.5.5 0 1 1 0 1 .5.5 0 0 1 0-1z"/><path d="M20-926c-.554 0-1 .446-1 1v.5c0 .554.446 1 1 1h8c.554 0 1-.446 1-1v-.5c0-.554-.446-1-1-1zm7.5 1a.5.5 0 1 1 0 1 .5.5 0 0 1 0-1z"/><path d="M20-922.5c-.554 0-1 .446-1 1v.5c0 .554.446 1 1 1h8c.554 0 1-.446 1-1v-.5c0-.554-.446-1-1-1zm7.5.5a.5.5 0 1 1 0 1 .5.5 0 0 1 0-1z"/></g><g fill="#fff"><path d="M186-946c.554 0 1 .446 1 1v2c0 .554-.446 1-1 1h-12c-.554 0-1-.446-1-1v-2c0-.554.446-1 1-1zm-1 1c-.554 0-1 .446-1 1s.446 1 1 1 1-.446 1-1-.446-1-1-1z"/><path d="M186-941c.554 0 1 .446 1 1v2c0 .554-.446 1-1 1h-12c-.554 0-1-.446-1-1v-2c0-.554.446-1 1-1zm-1 1c-.554 0-1 .446-1 1s.446 1 1 1 1-.446 1-1-.446-1-1-1z"/><path d="M186-936c.554 0 1 .446 1 1v2c0 .554-.446 1-1 1h-12c-.554 0-1-.446-1-1v-2c0-.554.446-1 1-1zm-1 1a1 1 0 0 0-1 1 1 1 0 0 0 1 1 1 1 0 0 0 1-1 1 1 0 0 0-1-1z"/><path d="M268-960c1.108 0 2 .892 2 2v4c0 1.108-.892 2-2 2h-24c-1.108 0-2-.892-2-2v-4c0-1.108.892-2 2-2zm-2 2c-1.108 0-2 .892-2 2s.892 2 2 2 2-.892 2-2-.892-2-2-2z"/><path d="M268-950c1.108 0 2 .892 2 2v4c0 1.108-.892 2-2 2h-24c-1.108 0-2-.892-2-2v-4c0-1.108.892-2 2-2zm-2 2c-1.108 0-2 .892-2 2s.892 2 2 2 2-.892 2-2-.892-2-2-2z"/><path d="M268-940c1.108 0 2 .892 2 2v4c0 1.108-.892 2-2 2h-24c-1.108 0-2-.892-2-2v-4c0-1.108.892-2 2-2zm-2 2a2 2 0 0 0-2 2 2 2 0 0 0 2 2 2 2 0 0 0 2-2 2 2 0 0 0-2-2z"/><path d="M400-1004c2.216 0 4 1.784 4 4v8c0 2.216-1.784 4-4 4h-48c-2.216 0-4-1.784-4-4v-8c0-2.216 1.784-4 4-4zm-4 4c-2.216 0-4 1.784-4 4s1.784 4 4 4 4-1.784 4-4-1.784-4-4-4z"/><path d="M400-984c2.216 0 4 1.784 4 4v8c0 2.216-1.784 4-4 4h-48c-2.216 0-4-1.784-4-4v-8c0-2.216 1.784-4 4-4zm-4 4c-2.216 0-4 1.784-4 4s1.784 4 4 4 4-1.784 4-4-1.784-4-4-4z"/><path d="M400-964c2.216 0 4 1.784 4 4v8c0 2.216-1.784 4-4 4h-48c-2.216 0-4-1.784-4-4v-8c0-2.216 1.784-4 4-4zm-4 4a4 4 0 0 0-4 4 4 4 0 0 0 4 4 4 4 0 0 0 4-4 4 4 0 0 0-4-4z"/><path d="M640-1092c4.432 0 8 3.568 8 8v16c0 4.432-3.568 8-8 8h-96c-4.432 0-8-3.568-8-8v-16c0-4.432 3.568-8 8-8zm-8 8c-4.432 0-8 3.568-8 8s3.568 8 8 8 8-3.568 8-8-3.568-8-8-8z"/><path d="M640-1052c4.432 0 8 3.568 8 8v16c0 4.432-3.568 8-8 8h-96c-4.432 0-8-3.568-8-8v-16c0-4.432 3.568-8 8-8zm-8 8c-4.432 0-8 3.568-8 8s3.568 8 8 8 8-3.568 8-8-3.568-8-8-8z"/><path d="M640-1012c4.432 0 8 3.568 8 8v16c0 4.432-3.568 8-8 8h-96c-4.432 0-8-3.568-8-8v-16c0-4.432 3.568-8 8-8zm-8 8a8 8 0 0 0-8 8 8 8 0 0 0 8 8 8 8 0 0 0 8-8 8 8 0 0 0-8-8z"/><path d="M111-936c-.554 0-1 .446-1 1v1c0 .554.446 1 1 1h10c.554 0 1-.446 1-1v-1c0-.554-.446-1-1-1zm9.5 1a.5.5 0 1 1 0 1 .5.5 0 0 1 0-1z"/><path d="M111-932c-.554 0-1 .446-1 1v1c0 .554.446 1 1 1h10c.554 0 1-.446 1-1v-1c0-.554-.446-1-1-1zm9.5 1a.5.5 0 1 1 0 1 .5.5 0 0 1 0-1z"/><path d="M111-928c-.554 0-1 .446-1 1v1c0 .554.446 1 1 1h10c.554 0 1-.446 1-1v-1c0-.554-.446-1-1-1zm9.5 1a.5.5 0 1 1 0 1 .5.5 0 0 1 0-1z"/><path d="M63-934c-.554 0-1 .446-1 1v1c0 .554.446 1 1 1h10c.554 0 1-.446 1-1v-1c0-.554-.446-1-1-1zm9.5 1a.5.5 0 1 1 0 1 .5.5 0 0 1 0-1z"/><path d="M63-930c-.554 0-1 .446-1 1v1c0 .554.446 1 1 1h10c.554 0 1-.446 1-1v-1c0-.554-.446-1-1-1zm9.5 1a.5.5 0 1 1 0 1 .5.5 0 0 1 0-1z"/><path d="M63-926c-.554 0-1 .446-1 1v1c0 .554.446 1 1 1h10c.554 0 1-.446 1-1v-1c0-.554-.446-1-1-1zm9.5 1a.5.5 0 1 1 0 1 .5.5 0 0 1 0-1z"/><path d="M20-927c-.554 0-1 .446-1 1v.5c0 .554.446 1 1 1h8c.554 0 1-.446 1-1v-.5c0-.554-.446-1-1-1zm7.5 1a.5.5 0 1 1 0 1 .5.5 0 0 1 0-1z"/><path d="M20-923.5c-.554 0-1 .446-1 1v.5c0 .554.446 1 1 1h8c.554 0 1-.446 1-1v-.5c0-.554-.446-1-1-1zm7.5.5a.5.5 0 1 1 0 1 .5.5 0 0 1 0-1z"/></g></g></svg>