<svg version="1.0" viewBox="0 0 64 64" xmlns="http://www.w3.org/2000/svg"><g transform="translate(-224 -220)"><rect x="234" y="225" width="44" height="53" ry="3" fill="#560c00"/><rect x="235" y="226" width="42" height="51" ry="2.5" fill="#dedede"/><rect x="234" y="224" width="42" height="49" ry="3" fill="#560c00"/><rect x="235" y="225" width="40" height="47" ry="2.5" fill="#f15d22"/><path d="M237.5 225a2.495 2.495 0 0 0-2.5 2.5v47c0 1.385 1.147 2.796 2.5 2.5h.5v-52z" fill="#350700"/><path d="M249 243c-2.216 0-4 1.784-4 4v8h2v-4h4v4h2v-8c0-2.216-1.784-4-4-4zm0 2c1.108 0 2 .892 2 2v2h-4v-2c0-1.108.892-2 2-2z" fill-opacity=".196"/><path d="M259 243v2h5l-5 8v2h8v-2h-5l5-8v-2h-2z" fill-opacity=".196"/><path fill-opacity=".196" d="M254 249h5v2h-5z"/><path d="M249 242c-2.216 0-4 1.784-4 4v8h2v-4h4v4h2v-8c0-2.216-1.784-4-4-4zm0 2c1.108 0 2 .892 2 2v2h-4v-2c0-1.108.892-2 2-2z" fill="#ededed"/><path d="M259 242v2h5l-5 8v2h8v-2h-5l5-8v-2h-2z" fill="#ededed"/><path fill="#ededed" d="M254 248h5v2h-5z"/></g></svg>