<svg version="1.0" viewBox="0 0 64 64" xmlns="http://www.w3.org/2000/svg"><g transform="translate(-224 -220)"><rect x="230" y="226" width="38" height="40" ry="4" fill="#5f5f5f"/><rect x="230" y="226" width="38" height="38" ry="4" fill="#bebebe"/><rect x="230.5" y="226.5" width="37" height="37" ry="3.5" fill="none" stroke="#000" stroke-linecap="round" stroke-opacity=".5"/><rect x="244" y="241" width="38" height="40" ry="4" fill="#757575"/><path d="M242 242c-3.043.06-4.02 2.508-4.002 4.998C238.015 249.47 239.5 252 242 252c2.768 0 4.026-2.834 4-5-.03-2.456-1.616-5.047-4-5zm0-2c4.065.11 6.034 3.66 6 7-.04 3.899-2.434 7-6 7-4 0-5.977-3.57-6-7-.028-4.138 2.069-7.106 6-7zm1-4h2v2h-2zm-4 0h2v2h-2z" fill="#393634" fill-opacity=".8"/><rect x="244" y="240" width="38" height="38" ry="4" fill="#dedede"/><rect x="244.5" y="240.5" width="37" height="37" ry="3.5" fill="none" stroke="#0d0d0d" stroke-linecap="round" stroke-opacity=".5"/><path d="M264 263h-10c.207 2.862 2 4 4.5 4 1.777 0 2.995-.327 4.5-1v2c-1.63.685-2.894 1-4.5 1-4.5 0-6.5-3-6.5-6.5 0-6 2.252-7.5 6-7.5 4 0 6 2 6 8zm-2-2c0-2.5-2.053-4.046-4-4-2.48.06-4 1.5-4 4zm-5-12h2l2.5 5H260l-2-3-2 3h-1.5z" fill="#393634" fill-opacity=".8"/></g></svg>