<svg version="1.0" viewBox="0 0 64 64" xmlns="http://www.w3.org/2000/svg"><g transform="translate(-224 -220)"><path d="M237.5 223a4.49 4.49 0 0 0-4.5 4.5v51a4.49 4.49 0 0 0 4.5 4.5h37a4.49 4.49 0 0 0 4.5-4.5v-39L262.5 223z" fill="#6f6f6f"/><path d="M278 240v36c0 2.216-1.784 4-4 4h-36c-2.216 0-4-1.784-4-4v-48c0-2.216 1.784-4 4-4h24" fill="#ececec"/><path d="M278 243h-13c-2.216 0-4-1.784-4-4v-15h1l16 16z" fill="#6f6f6f" fill-opacity=".502"/><path d="M278 240h-12c-2.216 0-4-1.784-4-4v-12" fill="#fafafa"/><rect x="242" y="269.5" width="18" height="2" ry=".912" fill="#474341" fill-opacity=".69"/><rect x="242" y="263.5" width="28" height="2" ry=".912" fill="#474341" fill-opacity=".69"/><rect x="242" y="257.5" width="28" height="2" ry=".912" fill="#474341" fill-opacity=".69"/><rect x="242" y="251.5" width="28" height="2" ry=".912" fill="#474341" fill-opacity=".69"/><rect transform="rotate(45)" x="366.02" y="8.385" width="9" height="6" ry="0" fill="#a27100"/><rect transform="rotate(45)" x="366.02" y="-28.115" width="9" height="42.5" ry="2.5" fill="#a27100"/><path d="M248.65 268.99v6.364h6.364z" fill="#a27100"/><rect transform="rotate(45)" x="366.52" y="-27.615" width="8" height="4" ry="2" fill="#ff8989"/><rect transform="rotate(45)" x="366.52" y="-23.615" width="8" height="6" ry="0" fill="#d4d1ca"/><path fill="#ffce51" d="m273.039 248.127 2.828 2.829-22.627 22.627-2.829-2.828z"/><path fill="#fffa7d" d="m271.624 246.713 1.415 1.414-22.628 22.628-1.414-1.414z"/><path fill="#d1a023" d="m275.867 250.956 1.414 1.414-22.627 22.627-1.414-1.414z"/><path d="M249 269.34v5.657h5.657z" fill="#f5f2e3"/><path d="m249 273.59 1.414 1.414H249z" fill="#3c3c3c"/><rect transform="rotate(45)" x="366.52" y="-25.615" width="8" height="2" ry="0" fill="#ff8989"/></g></svg>