<svg version="1.0" viewBox="0 0 64 64" xmlns="http://www.w3.org/2000/svg"><g transform="translate(-224 80)"><rect x="226" y="-78" width="60" height="62" ry="30" fill="#cdcdcd"/><path d="M256-78c-16.62 0-30 13.38-30 30v2c0 16.62 13.38 30 30 30s30-13.38 30-30v-2c0-16.62-13.38-30-30-30zm0 1a29 29 0 0 1 29 29 29 29 0 0 1-29 29 29 29 0 0 1-29-29 29 29 0 0 1 29-29z" fill-opacity=".5"/><circle cx="256" cy="-48" r="10.5" fill="none" stroke="#000" stroke-linecap="square" stroke-opacity=".5"/><circle cx="256" cy="-48" r="10" fill-opacity=".2"/><circle cx="256" cy="-48" r="4" fill-opacity=".8"/><rect x="254" y="-52" width="34" height="36" ry="17" fill="#f15d22"/><path d="M271-52c-9.418 0-17 7.582-17 17v2c0 9.418 7.582 17 17 17s17-7.582 17-17v-2c0-9.418-7.582-17-17-17zm0 1a16 16 0 0 1 16 16 16 16 0 0 1-16 16 16 16 0 0 1-16-16 16 16 0 0 1 16-16z" fill-opacity=".5"/><path d="M270.73-27.813c-1.669 0-3.01-1.322-3.01-2.944 0-1.52.966-2.588 2.626-2.926 1.66-.337 3.375-1.134 4.332-2.419.365 1.21.543 2.485.543 3.788 0 2.476-2.006 4.501-4.49 4.501M272.407-45s.694 2.485.694 4.5c0 1.932-1.265 3.498-3.197 3.498-1.941 0-3.404-1.566-3.404-3.497l.028-.347a12.916 12.916 0 0 0-3.028 8.345A7.501 7.501 0 0 0 271.002-25a7.501 7.501 0 0 0 7.501-7.501c0-5.064-2.428-9.564-6.094-12.5z" fill="#fff"/></g></svg>