<svg version="1.0" viewBox="0 0 64 64" xmlns="http://www.w3.org/2000/svg"><g transform="translate(-960 680)"><g transform="translate(736 -900)"><rect x="233" y="223" width="46" height="60" ry="4.5" fill="#565656"/><rect x="234" y="224" width="44" height="56" ry="4" fill="#acacac"/><circle cx="256" cy="246" r="14" fill="#444"/><path fill="#444" d="M242 246h14v11h-14z"/><path fill="#444" d="M256 246v14h-11v-14z"/><rect x="242" y="246" width="14" height="14" ry="2" fill="#444"/><circle cx="256" cy="246" r="7" fill="#acacac"/></g><rect x="994" y="-648" width="30" height="32" ry="15" fill="#245c63"/><path d="m1009-633-10.6 12.633A14.953 14.953 0 0 0 1009-616c8.31 0 15-6.69 15-15v-2z" fill="#396247"/><path d="M1023-633a14 14 0 0 1-8.083 12.688 14 14 0 0 1-14.916-1.964L1009-633z" fill="#73c48f"/><path d="M997.5-642.65a14.948 14.948 0 0 0-3.502 9.648v2c0 4.164 1.68 7.92 4.4 10.633l10.6-12.633z" fill="#7f3c1f"/><path d="M1000-622.28a14 14 0 0 1-4.948-9.504 14 14 0 0 1 3.222-10.22l10.725 9z" fill="#ff793e"/><path d="M998.28-642a14 14 0 0 1 15.513-4.157 14 14 0 0 1 9.212 13.156h-14z" fill="#48b9c7"/><circle cx="1009" cy="-633" r="10" fill="#fff"/></g></svg>