<svg version="1.0" viewBox="0 0 64 64" xmlns="http://www.w3.org/2000/svg"><g transform="translate(-960 80)"><g transform="translate(736 -300)"><rect x="233" y="223" width="46" height="60" ry="4.5" fill="#565656"/><rect x="234" y="224" width="44" height="56" ry="4" fill="#acacac"/><circle cx="256" cy="246" r="14" fill="#444"/><path fill="#444" d="M242 246h14v11h-14z"/><path fill="#444" d="M256 246v14h-11v-14z"/><rect x="242" y="246" width="14" height="14" ry="2" fill="#444"/><circle cx="256" cy="246" r="7" fill="#acacac"/></g><rect x="994" y="-48" width="30" height="32" ry="15" fill="#552d5d"/><circle cx="1009" cy="-33" r="14" fill="#aa5abb"/><path d="m1007.2-40-.154 1.844a5.5 5.5 0 0 0-1.608.93l-1.675-.79-1.75 3.032 1.521 1.056a5.5 5.5 0 0 0-.084.928 5.5 5.5 0 0 0 .08.932l-1.518 1.052 1.75 3.032 1.672-.788a5.5 5.5 0 0 0 1.612.924L1007.2-26h3.5l.154-1.844a5.5 5.5 0 0 0 1.608-.93l1.675.79 1.75-3.032-1.521-1.056a5.5 5.5 0 0 0 .084-.928 5.5 5.5 0 0 0-.08-.932l1.518-1.052-1.75-3.032-1.672.788a5.5 5.5 0 0 0-1.612-.924L1010.7-40zm1.75 5a2 2 0 0 1 2 2 2 2 0 0 1-2 2 2 2 0 0 1-2-2 2 2 0 0 1 2-2z" fill="#fafafb"/></g></svg>