<svg enable-background="new" version="1.0" viewBox="0 0 64 64" xmlns="http://www.w3.org/2000/svg"><defs><filter id="a" x="0" y="0" width="1" height="1" color-interpolation-filters="sRGB"><feBlend in2="BackgroundImage" mode="darken"/></filter></defs><g filter="url(#a)" transform="translate(-224 -220)"><rect x="230" y="226" width="52" height="52" ry="4.5" fill="#5c0b2a"/><rect x="231" y="227" width="50" height="48" ry="4" fill="#ad154f"/><path d="M250.5 240c-.831 0-1.412.674-1.5 1.5v1.5h-2.5c-.831 0-1.5.669-1.5 1.5v12c0 .831.669 1.5 1.5 1.5h2.5v1.5c0 .831.669 1.5 1.5 1.5s1.584-.673 1.5-1.5V258h3v1.5c0 .831.669 1.5 1.5 1.5s1.5-.669 1.5-1.5V258h3v1.5c0 .831.669 1.5 1.5 1.5s1.5-.669 1.5-1.5V258h2.5c.831 0 1.5-.669 1.5-1.5v-12c0-.831-.669-1.5-1.5-1.5H264v-1.5c0-.831-.669-1.5-1.5-1.5s-1.5.669-1.5 1.5v1.5h-3v-1.5c0-.831-.669-1.5-1.5-1.5s-1.5.669-1.5 1.5v1.5h-3v-1.5c0-.831-.669-1.5-1.5-1.5zm-2.5 6h17v1.5a3 3 0 0 0 0 6v1.5h-17z" enable-background="new" fill="#fff"/></g></svg>