<svg version="1.0" viewBox="0 0 64 64" xmlns="http://www.w3.org/2000/svg"><g fill="#306ab8"><path d="M19 33h6v-4l-5.374.018c-.431-.005-.64-.104-.62-.633L19 24h7v-4c-3.732.266-7.257.733-11 1v21c3.664.435 7.33 1.564 11 2v-5c-2.216-.192-4.836-.812-7-1zm16.064 25C25.36 56.198 15.704 54.302 6 52.5v-41C15.666 9.705 25.275 7.805 35 6v52"/><path d="M50.01 29.79c.45.336.898.657 1.33 1 .317.251.547.16.792-.119.69-.783 1.864-1.556 2.566-2.326.229-.253.287-.546.286-.883-.006-2.077-.003-4.155.006-6.232.003-.64-.387-1.231-1.02-1.229-1.926.008-4.045.005-5.972 0-.434-.002-.94.444-1.225.77-2.233 2.55-4.163 5.322-5.721 8.37-.246.481-.15.775.212.893 1.77-1.781 3.535-3.44 5.158-5.24.874-.969 1.77-1.365 3.041-1.293 1.907.11 1.86.03 1.927 2.044.052 1.563.09 3.063-1.34 4.073-.015.01-.012.046-.04.172zm1.489 10.711c-.897 0-1.919.009-2.75 0-1.304-.015-3.21-1.328-3.308-1.399L44.44 40.46c-.278.343-.18.61.114.887.704.662 1.403 1.33 2.08 2.022.311.316.688.633 1.115.632 1.903-.002 4.32.02 6.222 0 .89-.01 1.01-.411 1.012-1.323.002-1.806-.03-3.612.016-5.416.02-.765-.215-1.336-.758-1.815-2.395-2.116-5.367-4.073-8.155-5.61-.458-.253-.8-.285-1.064.442.174.143.418.305.62.511 1.749 1.782 3.49 3.57 5.231 5.361.216.222.624.485.626.85.005 1.158 0 2.174 0 3.5zm-13.511 3.366c1.375.147 2.02-.89 2.728-1.811 1.827-2.376 3.588-4.799 4.842-7.557-.126-.25-.268-.44-.47-.49-1.161 1.177-2.305 2.324-3.435 3.483-.845.87-1.683 1.747-2.506 2.638-.31.336-.643.488-1.133.355V32.9c.823.47 1.583.913 2.352 1.339.539.298.558.282.968-.306-.98-1.024-1.961-2.056-2.949-3.081-.221-.23-.422-.441-.42-.813.012-2.126.006-4.253.006-6.475.6.015 1.19-.249 1.709.213.43.381.828.8 1.269 1.23.483-.477.775-1.043 1.132-1.557.186-.268.039-.457-.147-.638-.781-.761-1.563-1.521-2.34-2.286-.452-.447-1.06-.127-1.596-.338V17l17.315-.017c1.884-.002 2.686.853 2.686 2.805 0 8.488.003 15.703-.001 24.191 0 2.25-.753 3.023-2.917 3.02H37.998"/></g></svg>