<svg version="1.0" viewBox="0 0 64 64" xmlns="http://www.w3.org/2000/svg"><g transform="translate(-224 -220)"><rect x="226" y="222" width="60" height="62" ry="30" fill="#1f285a"/><rect x="227" y="223" width="58" height="58" ry="29" fill="#3f51b5"/><path d="M256 223c-2.626 0-5.166.352-7.582 1h.467a20 30 0 0 0-9.338 11h-7.066a28.888 28.888 0 0 0-1.329 2h7.555a20 30 0 0 0-2.683 14h-8.998c-.012.333-.026.664-.026 1s.014.667.026 1h9.007a20 30 0 0 0 2.668 14h-7.548c.414.687.86 1.352 1.328 2h7.045a20 30 0 0 0 9.304 11h-.412a29.224 29.224 0 0 0 15.164 0h-.467a20 30 0 0 0 9.338-11h7.067c.468-.648.913-1.313 1.328-2h-7.555a20 30 0 0 0 2.684-14h8.998c.01-.333.025-.664.025-1s-.014-.667-.025-1h-9.008a20 30 0 0 0-2.668-14h7.549a28.917 28.917 0 0 0-1.329-2h-7.044a20 30 0 0 0-9.305-11h.412c-2.416-.648-4.956-1-7.582-1zm1 1.246A8 28 0 0 1 262.35 235H257zm-2 .01V235h-5.346A8 28 0 0 1 255 224.256zm5.191.547A18 28 0 0 1 270.285 235h-6.047a10 30 0 0 0-4.046-10.197zm-8.386.002A10 30 0 0 0 247.773 235h-6.048a18 28 0 0 1 10.08-10.195zM240.825 237h6.529a10 30 0 0 0-1.342 14h-7.98a18 28 0 0 1 2.793-14zm8.43 0H255v14h-6.987a8 28 0 0 1 1.24-14zm7.746 0h5.753a8 28 0 0 1 1.237 14H257zm7.65 0h6.543a18 28 0 0 1 2.783 14h-7.994a10 30 0 0 0-1.332-14zm-26.627 16h7.994a10 30 0 0 0 1.332 14h-6.543a18 28 0 0 1-2.783-14zm9.986 0H255v14h-5.754a8 28 0 0 1-1.236-14zm8.99 0h6.987a8 28 0 0 1-1.24 14H257zm8.989 0h7.98a18 28 0 0 1-2.793 14h-6.53a10 30 0 0 0 1.343-14zm-24.273 16h6.047a10 30 0 0 0 4.046 10.197A18 28 0 0 1 241.715 269zm7.935 0h5.35v10.754A8 28 0 0 1 249.65 269zm7.35 0h5.346A8 28 0 0 1 257 279.744zm7.226 0h6.05a18 28 0 0 1-10.08 10.195 10 30 0 0 0 4.03-10.195z" fill="#94a6ff"/></g></svg>