<svg version="1.0" viewBox="0 0 64 64" xmlns="http://www.w3.org/2000/svg"><g transform="translate(-224 -220)"><rect x="230" y="226" width="48" height="44" ry="4.5" fill="#396247"/><rect x="231" y="227" width="46" height="40" ry="4" fill="#73c48f"/><g transform="matrix(2 0 0 2 -246 922)" fill="#fff"><rect x="243" y="-334.5" width="9" height="1" ry=".456"/><rect x="243" y="-337.5" width="14" height="1" ry=".456"/><rect x="243" y="-340.5" width="14" height="1" ry=".456"/><rect x="243" y="-343.5" width="14" height="1" ry=".456"/></g><rect x="246" y="244" width="36" height="34" ry="4.5" fill="#245c63"/><rect x="247" y="245" width="34" height="30" ry="4" fill="#48b9c7"/><g fill="#fff" transform="matrix(1.5 0 0 1.5 157.25 -154.75)"><circle cx="67.167" cy="276.5" r="1.333"/><circle cx="71.167" cy="276.5" r="1.333"/><circle cx="75.167" cy="276.5" r="1.333"/></g></g></svg>