<svg version="1.0" viewBox="0 0 64 64" xmlns="http://www.w3.org/2000/svg"><g transform="translate(-224 -220)"><rect x="228" y="234" width="56" height="44" ry="4" fill="#245c63"/><rect x="229" y="235" width="54" height="40" ry="3.5" fill="#48b9c7"/><rect x="234" y="240" width="44" height="30" ry="2" fill="#f6f6f6"/><path d="M240 242v17l6-6 6 6 10-10 10 10v-17z" fill="#1c8d9b" opacity=".5"/><path d="m256 251 16 17h-32z" fill="#1c8d9b"/><rect x="260" y="256" width="26" height="24" ry="5.5" fill="#671d00"/><rect x="261" y="257" width="24" height="20" ry="5" fill="#cf3b00"/><path d="M268 261v1h-1c-.554 0-1 .446-1 1v9c0 .554.446 1 1 1h12c.554 0 1-.446 1-1v-9c0-.554-.446-1-1-1h-8v-1zm1 3a1 1 0 1 1 0 2 1 1 0 0 1 0-2zm5 1a3 3 0 1 1 0 6 3 3 0 0 1 0-6z" fill="#fefefe"/><path color="#bebebe" fill="none" d="M281 259h-16v16h16z"/></g></svg>