<svg version="1.0" viewBox="0 0 64 64" xmlns="http://www.w3.org/2000/svg"><g transform="translate(-224 -220)"><rect x="228" y="234" width="56" height="44" ry="4" fill="#782e11"/><rect x="229" y="235" width="54" height="40" ry="3.5" fill="#f15d22"/><path d="M232.5 235a3.492 3.492 0 0 0-3.5 3.5v4.5h54v-4.5c0-1.939-1.561-3.5-3.5-3.5z"/><g fill="#f7f7f7"><path d="m237 235-4 8h6l4-8z"/><path d="m249 235-4 8h6l4-8z"/><path d="m261 235-4 8h6l4-8z"/><path d="m273 235-4 8h6l4-8z"/></g><path d="M250.55 246.02a1.5 1.5 0 0 0-1.494 1.412h-.003v.038l-.003.05c0 .035 0 .07.003.105l-.003 12.864a1.5 1.5 0 0 0 1.5 1.5 1.5 1.5 0 0 0 .633-.143l.003.003.038-.02.006-.004a1.5 1.5 0 0 0 .132-.073l11.769-6.407.015-.006v-.003a1.5 1.5 0 0 0 .805-1.327 1.5 1.5 0 0 0-.756-1.301l-.026-.015c-.002-.001-.005-.001-.006-.003l-11.886-6.483h-.003a1.515 1.515 0 0 0-.724-.187z" fill="#fff"/><rect x="229" y="265" width="54" height="10" ry="3.5" fill="#dedede"/><rect x="236" y="269" width="23" height="2" ry="1" fill="#cf3b00"/><circle cx="259.5" cy="270" r="3" fill="#822500"/><circle cx="259.5" cy="270" r="2" fill="#fffaf8"/></g></svg>