<svg version="1.0" viewBox="0 0 64 64" xmlns="http://www.w3.org/2000/svg"><path d="m250 241.92-1.08.088c-9.566.77-17.633 7.618-19.92 9.734v-1.738l-1.143.844v2l.194.584s5.341 16.105 20.855 17.568l1.093.103v-24.172z" clip-rule="evenodd" color="#000" fill="#626b26" fill-rule="evenodd" style="font-feature-settings:normal;font-variant-alternates:normal;font-variant-caps:normal;font-variant-east-asian:normal;font-variant-ligatures:normal;font-variant-numeric:normal;font-variant-position:normal;font-variation-settings:normal;inline-size:0;isolation:auto;mix-blend-mode:normal;shape-margin:0;shape-padding:0;text-decoration-color:#000;text-decoration-line:none;text-decoration-style:solid;text-indent:0;text-orientation:mixed;text-transform:none;white-space:normal" transform="translate(-224 -220)"/><path d="m250 239.92-1.08.088c-11.316.91-20.63 10.402-20.63 10.402l-.433.437.194.584s5.341 16.105 20.855 17.568l1.093.104v-4.983l-.875-.109c-9.545-1.199-13.038-10.872-13.469-12.164.757-1.01 4.993-6.205 13.42-6.846l.924-.07z" clip-rule="evenodd" color="#000" fill="#626b26" fill-rule="evenodd" style="font-feature-settings:normal;font-variant-alternates:normal;font-variant-caps:normal;font-variant-east-asian:normal;font-variant-ligatures:normal;font-variant-numeric:normal;font-variant-position:normal;font-variation-settings:normal;inline-size:0;isolation:auto;mix-blend-mode:normal;shape-margin:0;shape-padding:0;text-decoration-color:#000;text-decoration-line:none;text-decoration-style:solid;text-indent:0;text-orientation:mixed;text-transform:none;white-space:normal" transform="translate(-224 -220)"/><path d="M24 14v44h32c2.216 0 4-1.784 4-4V18c0-2.216-1.784-4-4-4z" fill="#626b26"/><g clip-rule="evenodd" fill="#c4d64d" fill-rule="evenodd" stroke-width="1.294"><path d="M26.93 26.84c5.654 0 9.01 4.399 9.01 4.399l-4.597 3.872c-2.065-3.439-2.904-4.692-6.34-5.108v9.5a9.083 9.083 0 0 0 2.755.432c6.707 0 12.963-8.683 12.963-8.683s-5.89-7.524-14.718-7.249c-.32.01-.686-.03-1 0v3c.575-.06 1.31-.163 1.927-.163z"/><path d="M25 15v6c.32-.023.685.009 1 0 12.274-.417 20.371 10.111 20.371 10.111s-9.186 11.166-18.752 11.166c-.88 0-1.845-.141-2.62-.277v3c.661.08 1.491.177 2.202.177 8.906 0 15.346-4.547 21.582-9.927 1.037.827 5.272 2.837 6.14 3.722C48.994 43.932 35.334 48 27.5 48c-.756 0-1.788.067-2.5 0v7h31c1.662 0 3-1.338 3-3V18c0-1.662-1.338-3-3-3z"/><path d="M18.99 32.54s2.557-2.957 6.005-2.54v-3c-6.568.71-10.375 5.032-10.375 5.032S16.76 40.53 24.995 42v-2.5c-4.642-1.563-6.005-6.96-6.005-6.96z"/><path d="M10.52 31.67s4.738-6.925 14.483-7.665v-3c-10.796.869-20 10.112-20 10.112s5.15 15.487 20 16.888v-3C14.107 43.637 10.52 31.67 10.52 31.67z"/></g></svg>