<svg version="1.0" viewBox="0 0 64 64" xmlns="http://www.w3.org/2000/svg"><g transform="translate(-224 -220)"><rect x="234" y="225" width="44" height="53" ry="3" fill="#245c63"/><rect x="235" y="226" width="42" height="51" ry="2.5" fill="#dedede"/><rect x="234" y="224" width="42" height="49" ry="3" fill="#245c63"/><rect x="235" y="225" width="40" height="47" ry="2.5" fill="#48b9c7"/><path d="M237.5 225a2.495 2.495 0 0 0-2.5 2.5v47c0 1.385 1.147 2.796 2.5 2.5h.5v-52z" fill="#16393e"/><path d="M257 237.5c6.627 0 12 5.373 12 12v1.5a4.5 4.5 0 0 1-7.945 2.895c-1.07.986-2.486 1.605-4.055 1.605a6 6 0 1 1 6-6v1.5a1.5 1.5 0 0 0 3 0v-1.5a9 9 0 1 0-9 9h7.5s1.5 0 1.5 1.5c-.094 1.5-1.5 1.5-1.5 1.5H257c-6.627 0-12-5.373-12-12s5.373-12 12-12zm0 9a3 3 0 1 0 0 6 3 3 0 0 0 0-6z" fill-opacity=".196"/><path d="M257 236.5c6.627 0 12 5.373 12 12v1.5a4.5 4.5 0 0 1-7.945 2.895c-1.07.986-2.486 1.605-4.055 1.605a6 6 0 1 1 6-6v1.5a1.5 1.5 0 0 0 3 0v-1.5a9 9 0 1 0-9 9h7.5s1.5 0 1.5 1.5c-.094 1.5-1.5 1.5-1.5 1.5H257c-6.627 0-12-5.373-12-12s5.373-12 12-12zm0 9a3 3 0 1 0 0 6 3 3 0 0 0 0-6z" fill="#fff"/><path d="M276 229v10h4c1.108 0 2-.892 2-2v-6c0-1.108-.892-2-2-2h-2z" fill-opacity=".196"/><rect x="276" y="230" width="6" height="10" ry="2" fill="#faa41a"/><rect x="276" y="230" width="4" height="10" ry="0" fill="#faa41a"/><path d="M276 238v10h4c1.108 0 2-.892 2-2v-6c0-1.108-.892-2-2-2h-2z" fill-opacity=".196"/><rect x="276" y="239" width="6" height="10" ry="2" fill="#73c48f"/><rect x="276" y="239" width="4" height="10" ry="0" fill="#73c48f"/><path d="M276 247v10h4c1.108 0 2-.892 2-2v-6c0-1.108-.892-2-2-2h-2z" fill-opacity=".196"/><rect x="276" y="248" width="6" height="10" ry="2" fill="#b84acb"/><rect x="276" y="248" width="4" height="10" ry="0" fill="#b84acb"/><path d="M276 256v10h4c1.108 0 2-.892 2-2v-6c0-1.108-.892-2-2-2h-2z" fill-opacity=".196"/><rect x="276" y="257" width="6" height="10" ry="2" fill="#f15d22"/><rect x="276" y="257" width="4" height="10" ry="0" fill="#f15d22"/></g></svg>