<svg version="1.0" viewBox="0 0 64 64" xmlns="http://www.w3.org/2000/svg"><g transform="translate(-224 -220)"><rect x="228" y="234" width="56" height="44" ry="4" fill="#767676"/><rect x="229" y="235" width="54" height="40" ry="3.5" fill="#ededed"/><rect x="229" y="235" width="54" height="8" ry="3.5" fill="#faa41a"/><rect x="229" y="239" width="54" height="6" ry="0" fill="#faa41a"/><path fill-opacity=".235" d="M235 248h6v6h-6z"/><path fill-opacity=".235" d="M244 248h6v6h-6z"/><path fill-opacity=".235" d="M253 248h6v6h-6z"/><path fill-opacity=".235" d="M262 248h6v6h-6z"/><path fill-opacity=".235" d="M235 257h6v6h-6z"/><path fill-opacity=".235" d="M244 257h6v6h-6z"/><path fill-opacity=".235" d="M253 257h6v6h-6z"/><path fill-opacity=".235" d="M271 248h6v6h-6z"/><path fill-opacity=".235" d="M271 257h6v6h-6z"/><path fill-opacity=".235" d="M235 266h6v6h-6z"/><path fill-opacity=".235" d="M244 266h6v6h-6z"/><path fill-opacity=".235" d="M253 266h6v6h-6z"/><path fill-opacity=".235" d="M262 266h6v6h-6z"/><path fill-opacity=".235" d="M271 266h6v6h-6z"/><circle cx="265" cy="260" r="4" fill-opacity=".196"/><circle cx="265" cy="259" r="4" fill="#faa41a"/></g></svg>