<svg version="1.0" viewBox="0 0 64 64" xmlns="http://www.w3.org/2000/svg"><g transform="translate(-224 -220)"><rect x="230" y="226" width="52" height="52" ry="4" fill="#444"/><rect x="236" y="232" width="40" height="38" ry="2.248" fill="#cdcdcd"/><path d="M259.79 261.26c.621.47 1.484.551 2.204.136a1.993 1.993 0 0 0 .733-2.73l-3.27-5.658a4 4 0 0 0 .003-.004 4 4 0 0 0-.002-3.998l3.269-5.662c.554-.96.228-2.178-.732-2.732s-2.178-.228-2.732.732l-3.272 5.666a4 4 0 0 0-3.46 1.994l-.002.004-6.534-.002a1.993 1.993 0 0 0-1.998 2c0 1.108.891 1.998 2 1.998h6.54a4 4 0 0 0 1.458 1.465 4 4 0 0 0 1.999.531l3.27 5.664a2 2 0 0 0 .526.596z" fill-opacity=".196"/><g transform="matrix(-1.7321 -1 1 -1.7321 189.92 828.46)" fill="#656565"><circle cx="116" cy="267" r="2"/><rect x="115" y="267" width="2" height="6" ry="1"/><rect transform="rotate(240)" x="-290.23" y="-33.041" width="2" height="6" ry="1"/><rect transform="rotate(120)" x="172.23" y="-233.96" width="2" height="6" ry="1"/></g><g transform="matrix(2 0 0 2 24 -282)" fill-opacity=".196"><rect x="105" y="262" width="2" height="4" ry=".5"/><rect x="105" y="269" width="2" height="4" ry=".5"/></g><g transform="matrix(2 0 0 2 24 -284)" fill="#ededed"><rect x="105" y="262" width="2" height="4" ry=".5"/><rect x="105" y="269" width="2" height="4" ry=".5"/></g><path d="M234 226c-2.216 0-4 1.784-4 4v44c0 2.216 1.784 4 4 4h44c2.216 0 4-1.784 4-4v-44c0-2.216-1.784-4-4-4zm0 1h44c1.662 0 3 1.338 3 3v42c0 1.662-1.338 3-3 3h-44c-1.662 0-3-1.338-3-3v-42c0-1.662 1.338-3 3-3z" fill="#fff" fill-opacity=".502"/></g></svg>