<svg version="1.0" viewBox="0 0 64 64" xmlns="http://www.w3.org/2000/svg"><g transform="translate(-224 980)"><rect x="228" y="-966" width="56" height="44" ry="4" fill="#6f6f6f"/><rect x="229" y="-965" width="54" height="40" ry="3.5" fill="#dedede"/><rect x="231" y="-963" width="50" height="34" ry="1" fill="#45454f"/><rect x="231" y="-963" width="50" height="34" ry="1" fill="#48b9c7"/><g fill-opacity=".196"><path d="M268-959c1.108 0 2 .892 2 2v4c0 1.108-.892 2-2 2h-24c-1.108 0-2-.892-2-2v-4c0-1.108.892-2 2-2zm-2 2c-1.108 0-2 .892-2 2s.892 2 2 2 2-.892 2-2-.892-2-2-2z"/><path d="M268-949c1.108 0 2 .892 2 2v4c0 1.108-.892 2-2 2h-24c-1.108 0-2-.892-2-2v-4c0-1.108.892-2 2-2zm-2 2c-1.108 0-2 .892-2 2s.892 2 2 2 2-.892 2-2-.892-2-2-2z"/><path d="M268-939c1.108 0 2 .892 2 2v4c0 1.108-.892 2-2 2h-24c-1.108 0-2-.892-2-2v-4c0-1.108.892-2 2-2zm-2 2a2 2 0 0 0-2 2 2 2 0 0 0 2 2 2 2 0 0 0 2-2 2 2 0 0 0-2-2z"/></g><g fill="#fff"><path d="M268-960c1.108 0 2 .892 2 2v4c0 1.108-.892 2-2 2h-24c-1.108 0-2-.892-2-2v-4c0-1.108.892-2 2-2zm-2 2c-1.108 0-2 .892-2 2s.892 2 2 2 2-.892 2-2-.892-2-2-2z"/><path d="M268-950c1.108 0 2 .892 2 2v4c0 1.108-.892 2-2 2h-24c-1.108 0-2-.892-2-2v-4c0-1.108.892-2 2-2zm-2 2c-1.108 0-2 .892-2 2s.892 2 2 2 2-.892 2-2-.892-2-2-2z"/><path d="M268-940c1.108 0 2 .892 2 2v4c0 1.108-.892 2-2 2h-24c-1.108 0-2-.892-2-2v-4c0-1.108.892-2 2-2zm-2 2a2 2 0 0 0-2 2 2 2 0 0 0 2 2 2 2 0 0 0 2-2 2 2 0 0 0-2-2z"/></g></g></svg>