<svg version="1.0" viewBox="0 0 64 64" xmlns="http://www.w3.org/2000/svg"><g transform="translate(-224 -220)"><path d="M234 226h18l5 5h23c2.216 0 4 1.784 4 4v37c0 2.216-1.784 4-4 4h-46c-2.216 0-4-1.784-4-4v-42c0-2.216 1.784-4 4-4z" fill="#48b9c7"/><rect x="229.18" y="232.87" width="56" height="47" ry="4" fill="#565656"/><rect x="231" y="233" width="52" height="12.5" ry="4" fill-opacity=".314"/><rect x="230" y="234" width="54" height="43" ry="4" fill="#acacac"/><rect x="246" y="242" width="22" height="8" ry="1.5" fill="#676767" fill-opacity=".502"/><rect x="247" y="243" width="20" height="4" ry="1" fill="#fafafa"/></g></svg>