<svg version="1.0" viewBox="0 0 64 64" xmlns="http://www.w3.org/2000/svg"><g transform="translate(-224 -220)"><rect x="230" y="226" width="52" height="52" ry="4.5" fill="#de8800"/><path d="M234.5 226a4.49 4.49 0 0 0-4.5 4.5v43a4.49 4.49 0 0 0 4.5 4.5h43a4.49 4.49 0 0 0 4.5-4.5v-43a4.49 4.49 0 0 0-4.5-4.5zm.5 1h42c2.216 0 4 1.784 4 4v40c0 2.216-1.784 4-4 4h-42c-2.216 0-4-1.784-4-4v-40c0-2.216 1.784-4 4-4z" fill-opacity=".502"/><path d="M262.24 235.24c.78-.203 1.581-.222 2.341-.162l-2.72 4.612a1.95 1.95 0 0 0 .708 2.696l1.75 1.016a1.98 1.98 0 0 0 2.713-.707l2.72-4.611c.424.628.8 1.332 1.003 2.106.973 3.705-1.263 7.496-4.993 8.467-.78.203-1.581.222-2.341.162l-1.605 2.23-6.819-.046s3.037-5.154 3.254-5.19c-.424-.628-.8-1.331-1.004-2.105-.973-3.705 1.263-7.497 4.993-8.468z" color="#000" fill="#fff" style="text-decoration-line:none;text-indent:0;text-transform:none"/><path d="M246.2 236.44c-.46.094-.887.262-1.31.438-.034 1.248.173 2.883-.313 3.312-.477.422-2.073.069-3.307-.063a7.26 7.26 0 0 0-.624 1.5c.954.792 2.277 1.678 2.309 2.313.031.642-1.251 1.61-2.122 2.5.206.516.5.987.811 1.437 1.215-.252 2.729-.747 3.245-.375.526.38.53 2.011.687 3.25.498.15 1.023.21 1.56.25.562-1.109 1.133-2.64 1.747-2.812.631-.178 1.925.916 2.996 1.562a7.44 7.44 0 0 0 1.186-1.062c-.507-1.145-1.44-2.584-1.186-3.188.254-.604 1.948-.939 3.12-1.375.008-.147.063-.288.063-.437 0-.383-.069-.758-.125-1.125-1.21-.322-2.93-.483-3.245-1.063-.313-.576.483-2.122.873-3.312a7.362 7.362 0 0 0-1.31-.938c-1 .75-2.166 1.99-2.809 1.875-.632-.112-1.323-1.639-1.997-2.687-.08.014-.17-.016-.25 0zm1.248 3.75c1.861 0 3.37 1.511 3.37 3.375s-1.509 3.375-3.37 3.375-3.37-1.511-3.37-3.375 1.509-3.375 3.37-3.375z" color="#000" fill="#fff"/><path d="m245 253 .016 12c0 1.14.921 2 1.998 2h15.984c1.045 0 1.988-.89 1.988-1.875L264.97 253z" color="#bebebe" fill="#fff"/><path d="M253 265h4v-5h2l-4.014-5-3.986 5h2z" fill="#de8800"/></g></svg>