<svg version="1.0" viewBox="0 0 64 64" xmlns="http://www.w3.org/2000/svg"><g transform="translate(-224 -220)"><rect x="233" y="223" width="46" height="60" ry="4.5" fill="#565656"/><rect x="234" y="224" width="44" height="56" ry="4" fill="#acacac"/><circle cx="256" cy="246" r="14" fill="#444"/><path fill="#444" d="M242 246h14v11h-14z"/><path fill="#444" d="M256 246v14h-11v-14z"/><rect x="242" y="246" width="14" height="14" ry="2" fill="#444"/><circle cx="256" cy="246" r="7" fill="#acacac"/></g><g transform="translate(-208 100)"><rect x="242" y="-68" width="30" height="32" ry="15" fill="#245c63"/><circle cx="257" cy="-53" r="14" fill="#48b9c7"/></g><g fill="#fefeff"><path d="M51 39v6h2.5L49 52l-4.5-7H47v-6z"/><path d="M44 53a1 1 0 1 0 0 2h10a1 1 0 1 0 0-2z"/></g></svg>