<svg version="1.0" viewBox="0 0 64 64" xmlns="http://www.w3.org/2000/svg"><g transform="translate(-224 80)"><rect x="226" y="-78" width="60" height="62" ry="30" fill="#245c63"/><rect x="227" y="-77" width="58" height="58" ry="29" fill="#48b9c7"/><path d="M256-62.007a6 6 0 1 1 0 12 6 6 0 0 1 0-12zm0 16C268-46.013 268-38 268-38v2h-24v-2s0-8 12-8.007z" color="#000" fill="#fff" style="text-decoration-line:none;text-indent:0;text-transform:none"/><rect x="258" y="-46" width="28" height="30" ry="14" fill="#1f285a"/><rect x="259" y="-45" width="26" height="26" ry="13" fill="#3f51b5"/><g transform="matrix(1.5 0 0 1.5 86.5 4)" fill="#fff"><path d="M125-26h-2v7h2z"/><circle cx="124" cy="-28.333" r="1"/></g></g></svg>