<svg version="1.0" viewBox="0 0 64 64" xmlns="http://www.w3.org/2000/svg"><g transform="translate(-224 380)"><rect x="228" y="-366" width="56" height="44" ry="4" fill="#cdcdcd"/><path d="M232-366c-2.216 0-4 1.784-4 4v36c0 2.216 1.784 4 4 4h48c2.216 0 4-1.784 4-4v-36c0-2.216-1.784-4-4-4zm.5 1h47c1.939 0 3.5 1.561 3.5 3.5v33c0 1.939-1.561 3.5-3.5 3.5h-47a3.492 3.492 0 0 1-3.5-3.5v-33c0-1.939 1.561-3.5 3.5-3.5z" fill-opacity=".502"/><rect x="232" y="-362" width="48" height="34" ry="1" fill="#424242"/><rect x="232" y="-362" width="48" height="34" ry="1" fill="#ac1800"/><g transform="translate(129 -622)" fill="#f6f6f6"><path d="M113 271h5v1h-5z"/><rect x="108" y="263" width="1" height="9" ry="0"/><rect x="110" y="263" width="1" height="9" ry="0"/><path d="M107 265h5v1h-5z"/><path d="M107 269h5v1h-5z"/></g></g></svg>