<svg version="1.0" viewBox="0 0 64 64" xmlns="http://www.w3.org/2000/svg"><g transform="translate(-224 680)"><rect x="228" y="-666" width="56" height="44" ry="4" fill="#cdcdcd"/><path d="M232-666c-2.216 0-4 1.784-4 4v36c0 2.216 1.784 4 4 4h48c2.216 0 4-1.784 4-4v-36c0-2.216-1.784-4-4-4zm.5 1h47c1.939 0 3.5 1.561 3.5 3.5v33c0 1.939-1.561 3.5-3.5 3.5h-47a3.492 3.492 0 0 1-3.5-3.5v-33c0-1.939 1.561-3.5 3.5-3.5z" fill-opacity=".502"/><rect x="232" y="-662" width="48" height="34" ry="1" fill="#424242"/><rect x="232" y="-662" width="48" height="34" ry="1" fill="#1c6d38"/><g fill="#f6f6f6"><path d="M238-659v1a2 2 0 0 0-2 2 2 2 0 0 0 2 2v2h-2v1h2v1h1v-1a2 2 0 0 0 2-2 2 2 0 0 0-2-2v-2h1v-1h-1v-1zm0 2v2a1 1 0 0 1-1-1 1 1 0 0 1 1-1zm1 3a1 1 0 0 1 1 1 1 1 0 0 1-1 1z"/><path d="M242-651h5v1h-5z"/></g></g></svg>