<svg version="1.0" viewBox="0 0 64 64" xmlns="http://www.w3.org/2000/svg"><g transform="translate(-224 -220)"><rect x="230" y="226" width="52" height="52" ry="26" fill="#ffce51"/><path d="M256 226c-14.404 0-26 11.596-26 26s11.596 26 26 26 26-11.596 26-26-11.596-26-26-26zm0 1a25 25 0 0 1 25 25 25 25 0 0 1-25 25 25 25 0 0 1-25-25 25 25 0 0 1 25-25z" fill-opacity=".392"/><rect x="234" y="262" width="48" height="16" ry="8" fill="#fff"/><circle cx="248" cy="262" r="8" fill="#fff"/><circle cx="266" cy="262" r="12" fill="#fff"/><path d="M266 250a12 12 0 0 0-11.215 7.77A8 8 0 0 0 248 254a8 8 0 0 0-8 8c.002.086.005.172.01.258A7.973 7.973 0 0 0 234 270c0 4.432 3.568 8 8 8h32c4.432 0 8-3.568 8-8a7.975 7.975 0 0 0-4.053-6.959c.033-.346.05-.693.053-1.041 0-6.627-5.373-12-12-12zm.02 1c6.085 0 11.018 4.934 11.018 11.02-.003.438-.032.874-.086 1.309A5.983 5.983 0 0 1 281 269c0 3.324-2.676 6-6 6h-34c-3.324 0-6-2.676-6-6s2.676-6 6-6h.079a7.004 7.004 0 0 1-.079-1 7 7 0 1 1 14 0c.01-6.078 4.942-11 11.02-11z" fill-opacity=".392"/></g></svg>