<svg version="1.0" viewBox="0 0 128 128" xmlns="http://www.w3.org/2000/svg"><g transform="translate(-312 144)"><path d="M392-28h-64c-4.432 0-8-3.568-8-8v-72c0-4.432 3.568-8 8-8h64l44 44z" fill="#ffce51"/><path d="M328-116c-4.432 0-8 3.568-8 8v72c0 4.432 3.568 8 8 8h64l44-44-44-44zm0 1h63.5L433-73.5 391.5-32H328c-3.878 0-7-3.122-7-7v-69c0-3.878 3.122-7 7-7z" fill-opacity=".5"/><rect x="376" y="-83" width="64" height="67" ry="32" fill="#cf3b00"/><path d="M408-83c-17.728 0-32 14.272-32 32v3c0 17.728 14.272 32 32 32s32-14.272 32-32v-3c0-17.728-14.272-32-32-32zm0 1c17.174 0 31 13.826 31 31s-13.826 31-31 31-31-13.826-31-31 13.826-31 31-31z" fill-opacity=".5"/><path d="M396-68a4 4 0 0 0-4 4 4 4 0 0 0 1.172 2.828L402.344-52l-9.172 9.172A4 4 0 0 0 392-40a4 4 0 0 0 4 4 4 4 0 0 0 2.828-1.172L408-46.344l9.133 9.133a4 4 0 0 0 2.867 1.21 4 4 0 0 0 4-4 4 4 0 0 0-1.172-2.827L413.656-52l9.133-9.133a4 4 0 0 0 1.21-2.867 4 4 0 0 0-4-4 4 4 0 0 0-2.827 1.172L408-57.656l-9.133-9.133a4 4 0 0 0-.04-.04A4 4 0 0 0 396-68z" fill="#fff"/></g></svg>