<svg version="1.0" viewBox="0 0 128 128" xmlns="http://www.w3.org/2000/svg"><path d="M20 12h34l12 12h46c4.432 0 8 3.568 8 8v78c0 4.432-3.568 8-8 8H20c-4.432 0-8-3.568-8-8V20c0-4.432 3.568-8 8-8z" fill="#48b9c7"/><path d="M20 12c-4.432 0-8 3.568-8 8v90c0 4.432 3.568 8 8 8h92c4.432 0 8-3.568 8-8V32c0-4.432-3.568-8-8-8H66L54 12zm0 16h92c3.878 0 7 3.122 7 7v72c0 3.878-3.122 7-7 7H20c-3.878 0-7-3.122-7-7V35c0-3.878 3.122-7 7-7z" fill-opacity=".25"/><path d="M20 27c-4.432 0-8 3.568-8 8v75c0 4.432 3.568 8 8 8h92c4.432 0 8-3.568 8-8V35c0-4.432-3.568-8-8-8zm0 1h92c3.878 0 7 3.122 7 7v72c0 3.878-3.122 7-7 7H20c-3.878 0-7-3.122-7-7V35c0-3.878 3.122-7 7-7z" fill-opacity=".25"/><path d="M378-1417c6.627 0 12 5.373 12 12s-5.373 12-12 12-12-5.373-12-12 5.373-12 12-12zm0 32c23.999-.012 23.999 16.013 23.999 16.013v4h-48v-4s0-16 24.001-16.013z" color="#000" fill-opacity=".314" style="text-decoration-line:none;text-indent:0;text-transform:none" transform="translate(-312 1464)"/><path d="M378-1418c6.627 0 12 5.373 12 12s-5.373 12-12 12-12-5.373-12-12 5.373-12 12-12zm0 32c23.999-.012 23.999 16.013 23.999 16.013v4h-48v-4s0-16 24.001-16.013z" color="#000" fill="#fafafb" style="text-decoration-line:none;text-indent:0;text-transform:none" transform="translate(-312 1464)"/></svg>