<svg version="1.0" viewBox="0 0 128 128" xmlns="http://www.w3.org/2000/svg"><path d="M20 12h34l12 12h46c4.432 0 8 3.568 8 8v78c0 4.432-3.568 8-8 8H20c-4.432 0-8-3.568-8-8V20c0-4.432 3.568-8 8-8z" fill="#48b9c7"/><path d="M20 12c-4.432 0-8 3.568-8 8v90c0 4.432 3.568 8 8 8h92c4.432 0 8-3.568 8-8V32c0-4.432-3.568-8-8-8H66L54 12zm0 16h92c3.878 0 7 3.122 7 7v72c0 3.878-3.122 7-7 7H20c-3.878 0-7-3.122-7-7V35c0-3.878 3.122-7 7-7z" fill-opacity=".25"/><path d="M20 27c-4.432 0-8 3.568-8 8v75c0 4.432 3.568 8 8 8h92c4.432 0 8-3.568 8-8V35c0-4.432-3.568-8-8-8zm0 1h92c3.878 0 7 3.122 7 7v72c0 3.878-3.122 7-7 7H20c-3.878 0-7-3.122-7-7V35c0-3.878 3.122-7 7-7z" fill-opacity=".25"/><g transform="matrix(4 0 0 4 -2702 273)" fill-opacity=".314"><path d="M688-57c-1.645 0-3 1.355-3 3v8c0 1.645 1.355 3 3 3h8c1.645 0 3-1.355 3-3v-8c0-1.645-1.355-3-3-3zm0 2h8c.571 0 1 .429 1 1v8c0 .571-.429 1-1 1h-8c-.571 0-1-.429-1-1v-8c0-.571.429-1 1-1z" color="#000" style="font-feature-settings:normal;font-variant-alternates:normal;font-variant-caps:normal;font-variant-ligatures:normal;font-variant-numeric:normal;font-variant-position:normal;isolation:auto;mix-blend-mode:normal;shape-padding:0;text-decoration-color:#000;text-decoration-line:none;text-decoration-style:solid;text-indent:0;text-orientation:mixed;text-transform:none;white-space:normal"/><path d="M690-54v4.578l4.5 2.598 1-1.733-3.5-2.021V-54z" color="#000" style="font-feature-settings:normal;font-variant-alternates:normal;font-variant-caps:normal;font-variant-ligatures:normal;font-variant-numeric:normal;font-variant-position:normal;isolation:auto;mix-blend-mode:normal;shape-padding:0;text-decoration-color:#000;text-decoration-line:none;text-decoration-style:solid;text-indent:0;text-orientation:mixed;text-transform:none;white-space:normal"/><rect x="689" y="-58" width="6" height="1" ry="0"/><rect x="689" y="-43" width="6" height="1" ry="0"/></g><g transform="matrix(4 0 0 4 -2702 272)" fill="#fff"><path d="M688-57c-1.645 0-3 1.355-3 3v8c0 1.645 1.355 3 3 3h8c1.645 0 3-1.355 3-3v-8c0-1.645-1.355-3-3-3zm0 2h8c.571 0 1 .429 1 1v8c0 .571-.429 1-1 1h-8c-.571 0-1-.429-1-1v-8c0-.571.429-1 1-1z" color="#000" style="font-feature-settings:normal;font-variant-alternates:normal;font-variant-caps:normal;font-variant-ligatures:normal;font-variant-numeric:normal;font-variant-position:normal;isolation:auto;mix-blend-mode:normal;shape-padding:0;text-decoration-color:#000;text-decoration-line:none;text-decoration-style:solid;text-indent:0;text-orientation:mixed;text-transform:none;white-space:normal"/><path d="M690-54v4.578l4.5 2.598 1-1.733-3.5-2.021V-54z" color="#000" style="font-feature-settings:normal;font-variant-alternates:normal;font-variant-caps:normal;font-variant-ligatures:normal;font-variant-numeric:normal;font-variant-position:normal;isolation:auto;mix-blend-mode:normal;shape-padding:0;text-decoration-color:#000;text-decoration-line:none;text-decoration-style:solid;text-indent:0;text-orientation:mixed;text-transform:none;white-space:normal"/><rect x="689" y="-58" width="6" height="1" ry="0"/><rect x="689" y="-43" width="6" height="1" ry="0"/></g></svg>