<svg version="1.0" viewBox="0 0 128 128" xmlns="http://www.w3.org/2000/svg"><path d="M20 12h34l12 12h46c4.432 0 8 3.568 8 8v78c0 4.432-3.568 8-8 8H20c-4.432 0-8-3.568-8-8V20c0-4.432 3.568-8 8-8z" fill="#48b9c7"/><path d="M20 12c-4.432 0-8 3.568-8 8v90c0 4.432 3.568 8 8 8h92c4.432 0 8-3.568 8-8V32c0-4.432-3.568-8-8-8H66L54 12zm0 16h92c3.878 0 7 3.122 7 7v72c0 3.878-3.122 7-7 7H20c-3.878 0-7-3.122-7-7V35c0-3.878 3.122-7 7-7z" fill-opacity=".25"/><path d="M20 27c-4.432 0-8 3.568-8 8v75c0 4.432 3.568 8 8 8h92c4.432 0 8-3.568 8-8V35c0-4.432-3.568-8-8-8zm0 1h92c3.878 0 7 3.122 7 7v72c0 3.878-3.122 7-7 7H20c-3.878 0-7-3.122-7-7V35c0-3.878 3.122-7 7-7z" fill-opacity=".25"/><path d="M66 45a16 16 0 0 0-16 16 16 16 0 0 0 4.695 11.305l-7.61 7.609a4.001 4.001 0 0 0-5.624 5.625L34 93v8l8-4 5.734-5.734a32.015 32.015 0 0 0 24.376 5.148c4.441-.863 8.548-2.664 12.14-5.164L90 97l8 4v-8l-7.484-7.484c2.585-3.09 4.628-6.669 5.914-10.625a4 4 0 0 0-3.789-5.29 4 4 0 0 0-3.813 2.813c-.89 2.739-2.282 5.217-4.008 7.406l-7.515-7.515A16 16 0 0 0 82 61a16 16 0 0 0-16-16zm0 8a8 8 0 0 1 8 8 8 8 0 0 1-2.344 5.656L66 61l-5.657 5.656A8 8 0 0 1 58 61a8 8 0 0 1 8-8zm-3.57 23.57A16 16 0 0 0 66 77a16 16 0 0 0 3.578-.422l8.883 8.883c-2.395 1.458-5.04 2.541-7.883 3.094-5.965 1.16-12.01-.032-17.04-3.094z" fill="#121212" fill-opacity=".314"/><g fill="#fff"><path d="M34 100v-8l32-32 32 32v8l-8-4-24-24-24 24z"/><path d="M578.66 169.15a1 1 0 0 0-.953.703c-.675 2.076-2.42 3.619-4.563 4.035s-4.337-.359-5.74-2.03a1 1 0 1 0-1.533 1.284 8.002 8.002 0 0 0 13.736-2.67 1 1 0 0 0-.947-1.322z" color="#000" style="font-feature-settings:normal;font-variant-alternates:normal;font-variant-caps:normal;font-variant-ligatures:normal;font-variant-numeric:normal;font-variant-position:normal;isolation:auto;mix-blend-mode:normal;shape-padding:0;text-decoration-color:#000;text-decoration-line:none;text-decoration-style:solid;text-indent:0;text-orientation:mixed;text-transform:none;white-space:normal" transform="matrix(4 0 0 4 -2222 -608)"/><path d="M66 44a16 16 0 0 0-16 16 16 16 0 0 0 16 16 16 16 0 0 0 16-16 16 16 0 0 0-16-16zm0 8a8 8 0 0 1 8 8 8 8 0 0 1-8 8 8 8 0 0 1-8-8 8 8 0 0 1 8-8z"/></g></svg>