<svg version="1.0" viewBox="0 0 128 128" xmlns="http://www.w3.org/2000/svg"><path d="M20 12h34l12 12h46c4.432 0 8 3.568 8 8v78c0 4.432-3.568 8-8 8H20c-4.432 0-8-3.568-8-8V20c0-4.432 3.568-8 8-8z" fill="#48b9c7"/><path d="M20 12c-4.432 0-8 3.568-8 8v90c0 4.432 3.568 8 8 8h92c4.432 0 8-3.568 8-8V32c0-4.432-3.568-8-8-8H66L54 12zm0 16h92c3.878 0 7 3.122 7 7v72c0 3.878-3.122 7-7 7H20c-3.878 0-7-3.122-7-7V35c0-3.878 3.122-7 7-7z" fill-opacity=".25"/><path d="M20 27c-4.432 0-8 3.568-8 8v75c0 4.432 3.568 8 8 8h92c4.432 0 8-3.568 8-8V35c0-4.432-3.568-8-8-8zm0 1h92c3.878 0 7 3.122 7 7v72c0 3.878-3.122 7-7 7H20c-3.878 0-7-3.122-7-7V35c0-3.878 3.122-7 7-7z" fill-opacity=".25"/><path d="M62 45a8 8 0 0 0-8 8v24.75c-1.266-.454-2.578-.75-4-.75-6.627 0-12 5.373-12 12s5.373 12 12 12 12-5.373 12-12V61h24v16.75c-1.266-.454-2.578-.75-4-.75-6.627 0-12 5.373-12 12s5.373 12 12 12 12-5.373 12-12V53a8 8 0 0 0-8-8z" fill-opacity=".314"/><path d="M62 44a8 8 0 0 0-8 8v24.75c-1.266-.454-2.578-.75-4-.75-6.627 0-12 5.373-12 12s5.373 12 12 12 12-5.373 12-12V60h24v16.75c-1.266-.454-2.578-.75-4-.75-6.627 0-12 5.373-12 12s5.373 12 12 12 12-5.373 12-12V52a8 8 0 0 0-8-8z" fill="#fff"/></svg>