<svg version="1.0" viewBox="0 0 128 128" xmlns="http://www.w3.org/2000/svg"><path d="M20 12h34l12 12h46c4.432 0 8 3.568 8 8v78c0 4.432-3.568 8-8 8H20c-4.432 0-8-3.568-8-8V20c0-4.432 3.568-8 8-8z" fill="#48b9c7"/><path d="M20 12c-4.432 0-8 3.568-8 8v90c0 4.432 3.568 8 8 8h92c4.432 0 8-3.568 8-8V32c0-4.432-3.568-8-8-8H66L54 12zm0 16h92c3.878 0 7 3.122 7 7v72c0 3.878-3.122 7-7 7H20c-3.878 0-7-3.122-7-7V35c0-3.878 3.122-7 7-7z" fill-opacity=".25"/><path d="M20 27c-4.432 0-8 3.568-8 8v75c0 4.432 3.568 8 8 8h92c4.432 0 8-3.568 8-8V35c0-4.432-3.568-8-8-8zm0 1h92c3.878 0 7 3.122 7 7v72c0 3.878-3.122 7-7 7H20c-3.878 0-7-3.122-7-7V35c0-3.878 3.122-7 7-7z" fill-opacity=".25"/><path d="M50 43a8 8 0 0 0-8 8v44a8 8 0 0 0 8 8h32c4.362 0 7.895-3.495 7.984-7.836.042-4.376.02-21.692 0-32.523a7.992 7.992 0 0 0-2.187-5.344L75.922 45.422a8 8 0 0 0-5.734-2.421z" fill-opacity=".314"/><path d="M49.99 42a8 8 0 0 0-8 8v44a8 8 0 0 0 8 8h32c4.362 0 7.895-3.495 7.984-7.836.042-4.376.02-21.692 0-32.523a7.992 7.992 0 0 0-2.187-5.344L75.912 44.422a8 8 0 0 0-5.734-2.421z" fill="#fefeff"/></svg>