<svg version="1.0" viewBox="0 0 128 128" xmlns="http://www.w3.org/2000/svg"><path d="M20 12h34l12 12h46c4.432 0 8 3.568 8 8v78c0 4.432-3.568 8-8 8H20c-4.432 0-8-3.568-8-8V20c0-4.432 3.568-8 8-8z" fill="#48b9c7"/><path d="M20 12c-4.432 0-8 3.568-8 8v90c0 4.432 3.568 8 8 8h92c4.432 0 8-3.568 8-8V32c0-4.432-3.568-8-8-8H66L54 12zm0 16h92c3.878 0 7 3.122 7 7v72c0 3.878-3.122 7-7 7H20c-3.878 0-7-3.122-7-7V35c0-3.878 3.122-7 7-7z" fill-opacity=".25"/><path d="M20 27c-4.432 0-8 3.568-8 8v75c0 4.432 3.568 8 8 8h92c4.432 0 8-3.568 8-8V35c0-4.432-3.568-8-8-8zm0 1h92c3.878 0 7 3.122 7 7v72c0 3.878-3.122 7-7 7H20c-3.878 0-7-3.122-7-7V35c0-3.878 3.122-7 7-7z" fill-opacity=".25"/><path d="M66 49a45.361 45.361 0 0 0-17.031 3.312A44.958 44.958 0 0 0 34 62.25l26.203 31.726h.008a7.987 7.987 0 0 0 11.555-.023h.016L98 62.25a45.235 45.235 0 0 0-10.961-8.078c-.09-.048-.184-.08-.274-.124a44.923 44.923 0 0 0-4.304-1.93c-.55-.212-1.109-.392-1.664-.586a44.394 44.394 0 0 0-4.985-1.414 46.275 46.275 0 0 0-3.187-.578c-.584-.084-1.165-.188-1.75-.248A45.157 45.157 0 0 0 66 49.004z" fill="#030303" fill-opacity=".318"/><path d="M66 48.07a45.361 45.361 0 0 0-17.031 3.312A44.965 44.965 0 0 0 34 61.32l26.203 31.726h.008a8 8 0 0 0 5.774 2.461 8 8 0 0 0 5.781-2.484h.016L98.001 61.32a45.238 45.238 0 0 0-10.961-8.078c-.09-.047-.184-.079-.274-.125a44.857 44.857 0 0 0-4.304-1.93c-.55-.214-1.109-.394-1.664-.586a45.135 45.135 0 0 0-4.985-1.414 45.493 45.493 0 0 0-3.187-.578c-.584-.086-1.165-.187-1.75-.25-1.622-.174-3.246-.289-4.876-.289z" fill="#88d1db"/><path d="M66 60.07c-8.91 0-17.82 3.394-24.617 10.188l18.82 22.789h.008a8 8 0 0 0 5.774 2.46 8 8 0 0 0 5.781-2.484h.016L90.61 70.25C83.813 63.46 74.907 60.07 66 60.07z" fill="#fff"/></svg>