<svg version="1.0" viewBox="0 0 128 128" xmlns="http://www.w3.org/2000/svg"><g transform="translate(-312 744)"><rect x="320" y="-716" width="112" height="88" ry="8" fill="#ffce51"/><path d="M328-716c-4.432 0-8 3.568-8 8v72c0 4.432 3.568 8 8 8h96c4.432 0 8-3.568 8-8v-72c0-4.432-3.568-8-8-8zm0 1h96c3.878 0 7 3.122 7 7v72c0 3.878-3.122 7-7 7h-96c-3.878 0-7-3.122-7-7v-72c0-3.878 3.122-7 7-7z" fill-opacity=".502"/><path d="M328-713c-2.77 0-5 2.23-5 5v43c0 2.77 2.23 5 5 5h21v13c0 2.77 2.23 5 5 5h44c2.77 0 5-2.23 5-5v-13h21c2.77 0 5-2.23 5-5v-43c0-2.77-2.23-5-5-5z" fill-opacity=".502"/><path d="M328-715c-3.878 0-7 3.122-7 7v43c0 3.878 3.122 7 7 7h21v-2h-21c-2.77 0-5-2.23-5-5v-43c0-2.77 2.23-5 5-5h96c2.77 0 5 2.23 5 5v43c0 2.77-2.23 5-5 5h-21v2h21c3.878 0 7-3.122 7-7v-43c0-3.878-3.122-7-7-7z" fill="#fff" fill-opacity=".502"/><path d="M349-647v2c0 2.77 2.23 5 5 5h44c2.77 0 5-2.23 5-5v-2c0 2.77-2.23 5-5 5h-44c-2.77 0-5-2.23-5-5z" fill="#fff" fill-opacity=".502"/><g stroke-linecap="square" stroke-width="2"><path d="M340-736c-4.432 0-8 3.568-8 8v68h17v13c0 2.77 2.23 5 5 5h44c2.77 0 5-2.23 5-5v-13h17v-68c0-4.432-3.568-8-8-8z" fill="#ededed"/><path d="M340-736c-4.432 0-8 3.568-8 8v68h17v13c0 2.77 2.23 5 5 5h44c2.77 0 5-2.23 5-5v-13h17v-68c0-4.432-3.568-8-8-8zm0 1h72c3.878 0 7 3.122 7 7v66h-17v13c0 2.77-2.23 5-5 5h-42c-2.77 0-5-2.23-5-5v-13h-17v-66c0-3.878 3.122-7 7-7z" fill-opacity=".3"/></g><path d="M356-716v18l27 3-27 3v18l42-21z" fill="#393634" opacity=".8"/></g></svg>