<svg version="1.0" viewBox="0 0 128 128" xmlns="http://www.w3.org/2000/svg"><g stroke-linecap="square" stroke-width="2" transform="translate(-312 -156)"><rect x="320" y="184" width="112" height="88" ry="8" fill="#ffce51"/><path d="M328 184c-4.432 0-8 3.568-8 8v72c0 4.432 3.568 8 8 8h96c4.432 0 8-3.568 8-8v-72c0-4.432-3.568-8-8-8zm0 1h96c3.878 0 7 3.122 7 7v72c0 3.878-3.122 7-7 7h-96c-3.878 0-7-3.122-7-7v-72c0-3.878 3.122-7 7-7z" fill-opacity=".502"/><path d="M328 187c-2.77 0-5 2.23-5 5v43c0 2.77 2.23 5 5 5h21v13c0 2.77 2.23 5 5 5h44c2.77 0 5-2.23 5-5v-13h21c2.77 0 5-2.23 5-5v-43c0-2.77-2.23-5-5-5z" fill-opacity=".502"/><path d="M328 185c-3.878 0-7 3.122-7 7v43c0 3.878 3.122 7 7 7h21v-2h-21c-2.77 0-5-2.23-5-5v-43c0-2.77 2.23-5 5-5h96c2.77 0 5 2.23 5 5v43c0 2.77-2.23 5-5 5h-21v2h21c3.878 0 7-3.122 7-7v-43c0-3.878-3.122-7-7-7z" fill="#fff" fill-opacity=".502"/><path d="M349 253v2c0 2.77 2.23 5 5 5h44c2.77 0 5-2.23 5-5v-2c0 2.77-2.23 5-5 5h-44c-2.77 0-5-2.23-5-5z" fill="#fff" fill-opacity=".502"/></g></svg>