<svg version="1.0" viewBox="0 0 128 128" xmlns="http://www.w3.org/2000/svg"><path d="M28 8c-4.432 0-8.353 3.582-8 8l8 100c18 10 54 10 72 0l8-100c.353-4.418-3.568-8-8-8z" fill="#898989"/><path d="M28 8c-4.432 0-8.353 3.582-8 8l8 100c18 10 54 10 72 0l8-100c.353-4.418-3.568-8-8-8zm0 1h72c3.878 0 7 3.122 7 7l-8 96c-18 10-52 10-70 0l-8-96c0-3.878 3.122-7 7-7z" fill-opacity=".5"/><g fill="none"><path d="M64.5 18v96" opacity=".35" stroke="#000"/><path d="M63.5 18v96" opacity=".35" stroke="#fff"/></g></svg>