<svg version="1.0" viewBox="0 0 128 128" xmlns="http://www.w3.org/2000/svg" xmlns:xlink="http://www.w3.org/1999/xlink"><g transform="translate(-312 2744)"><path d="M1268 52c-4.432 0-8 3.568-8 8v196c0 4.432 3.568 8 8 8h208c4.432 0 8-3.568 8-8V84c0-4.432-3.568-8-8-8h-92l-24-24z" fill="#1c8d9b"/><rect x="1260" y="146" width="224" height="74" ry="7.25" fill="#051719" fill-opacity=".314"/><rect x="1260" y="148" width="224" height="112" ry="8" fill="#48b9c7"/><path d="M1112 168h34l12 12h46c4.432 0 8 3.568 8 8v78c0 4.432-3.568 8-8 8h-92c-4.432 0-8-3.568-8-8v-90c0-4.432 3.568-8 8-8z" fill="#1c8d9b"/><rect x="1104" y="215" width="108" height="42" ry="8" fill-opacity=".314"/><rect x="1104" y="216" width="108" height="56" ry="8" fill="#48b9c7"/><path d="M1014 226h18l5 5h23c2.216 0 4 1.784 4 4v41c0 2.216-1.784 4-4 4h-46c-2.216 0-4-1.784-4-4v-46c0-2.216 1.784-4 4-4z" fill="#1c8d9b"/><rect x="1010" y="249" width="54" height="21" ry="4" fill-opacity=".314"/><rect x="1010" y="250" width="54" height="28" ry="4" fill="#48b9c7"/><path d="M944 240h12l4 4h16c2.216 0 4 1.784 4 4v29c0 2.216-1.784 4-4 4h-32c-2.216 0-4-1.784-4-4v-33c0-2.216 1.784-4 4-4z" fill="#1c8d9b"/><rect x="940" y="258" width="40" height="10" ry="4" fill-opacity=".314"/><rect x="940" y="259" width="40" height="20" ry="4" fill="#48b9c7"/><path d="M885 255h8l3 3h11c1.108 0 2 .892 2 2v20c0 1.108-.892 2-2 2h-22c-1.108 0-2-.892-2-2v-23c0-1.108.892-2 2-2z" fill="#1c8d9b"/><rect x="883" y="267" width="26" height="11.5" ry="2" fill-opacity=".314"/><rect x="883" y="268" width="26" height="13" ry="2" fill="#48b9c7"/><path d="M839 261h6l4 4h8c1.108 0 2 .892 2 2v14c0 1.108-.892 2-2 2h-18c-1.108 0-2-.892-2-2v-18c0-1.108.892-2 2-2z" fill="#1c8d9b"/><rect x="838" y="271" width="20" height="9.5" ry="2" fill-opacity=".314"/><path d="M799 269h3l2 2h5c1.108 0 2 .892 2 2v8c0 1.108-.892 2-2 2h-10c-1.108 0-2-.892-2-2v-10c0-1.108.892-2 2-2z" fill="#1c8d9b"/><rect x="838" y="272" width="20" height="11" ry="2" fill="#48b9c7"/><path d="M839 261.5h5.797l3.996 4H857c.831 0 1.5.669 1.5 1.5v14c0 .831-.669 1.5-1.5 1.5h-18c-.831 0-1.5-.669-1.5-1.5v-18c0-.831.669-1.5 1.5-1.5z" fill="none" stroke="#000" stroke-linecap="round" stroke-opacity=".392"/><rect x="798" y="275" width="12" height="7" ry="2" fill-opacity=".314"/><rect x="798" y="276" width="12" height="7" ry="2" fill="#48b9c7"/><path d="M799 269.5h2.793l2 2H809c.831 0 1.5.669 1.5 1.5v8c0 .831-.669 1.5-1.5 1.5h-10c-.831 0-1.5-.669-1.5-1.5v-10c0-.831.669-1.5 1.5-1.5z" fill="none" stroke="#000" stroke-linecap="round" stroke-opacity=".392"/></g><g transform="translate(-312 2744)"><g id="a"><path transform="translate(0 -244)" d="M488 296c-4.432 0-8 3.568-8 8v196c0 4.432 3.568 8 8 8h208c4.432 0 8-3.568 8-8V328c0-4.432-3.568-8-8-8h-92l-24-24z" fill="#48b9c7"/><path transform="translate(-33 2)" d="M521 50c-4.432 0-8 3.568-8 8v196c0 4.432 3.568 8 8 8h208c4.432 0 8-3.568 8-8V82c0-4.432-3.568-8-8-8h-92l-24-24zm0 32h208c3.878 0 7 3.122 7 7v161c0 3.878-3.122 7-7 7H521c-3.878 0-7-3.122-7-7V89c0-3.878 3.122-7 7-7z" fill-opacity=".25"/><path d="M488 83c-4.432 0-8 3.568-8 8v165c0 4.432 3.568 8 8 8h208c4.432 0 8-3.568 8-8V91c0-4.432-3.568-8-8-8zm0 1h208c3.878 0 7 3.122 7 7v161c0 3.878-3.122 7-7 7H488c-3.878 0-7-3.122-7-7V91c0-3.878 3.122-7 7-7z" fill-opacity=".25"/><path d="M332 168h34l12 12h46c4.432 0 8 3.568 8 8v78c0 4.432-3.568 8-8 8h-92c-4.432 0-8-3.568-8-8v-90c0-4.432 3.568-8 8-8z" fill="#48b9c7"/><path transform="translate(-33 2)" d="M365 166c-4.432 0-8 3.568-8 8v90c0 4.432 3.568 8 8 8h92c4.432 0 8-3.568 8-8v-78c0-4.432-3.568-8-8-8h-46l-12-12zm0 16h92c3.878 0 7 3.122 7 7v72c0 3.878-3.122 7-7 7h-92c-3.878 0-7-3.122-7-7v-72c0-3.878 3.122-7 7-7z" fill-opacity=".25"/><path transform="translate(-33 2)" d="M365 181c-4.432 0-8 3.568-8 8v75c0 4.432 3.568 8 8 8h92c4.432 0 8-3.568 8-8v-75c0-4.432-3.568-8-8-8zm0 1h92c3.878 0 7 3.122 7 7v72c0 3.878-3.122 7-7 7h-92c-3.878 0-7-3.122-7-7v-72c0-3.878 3.122-7 7-7z" fill-opacity=".25"/><path d="M234 226h18l5 5h23c2.216 0 4 1.784 4 4v41c0 2.216-1.784 4-4 4h-46c-2.216 0-4-1.784-4-4v-46c0-2.216 1.784-4 4-4z" fill="#48b9c7"/><path transform="translate(-33 2)" d="M267 224c-2.216 0-4 1.784-4 4v46c0 2.216 1.784 4 4 4h46c2.216 0 4-1.784 4-4v-41c0-2.216-1.784-4-4-4h-23l-5-5zm0 8h46c1.662 0 3 1.338 3 3v37c0 1.662-1.338 3-3 3h-46c-1.662 0-3-1.338-3-3v-37c0-1.662 1.338-3 3-3z" fill-opacity=".25"/><path transform="translate(-33 2)" d="M267 231c-2.216 0-4 1.784-4 4v39c0 2.216 1.784 4 4 4h46c2.216 0 4-1.784 4-4v-39c0-2.216-1.784-4-4-4zm0 1h46c1.662 0 3 1.338 3 3v37c0 1.662-1.338 3-3 3h-46c-1.662 0-3-1.338-3-3v-37c0-1.662 1.338-3 3-3z" fill-opacity=".25"/><path d="M164 240h12l4 4h16c2.216 0 4 1.784 4 4v29c0 2.216-1.784 4-4 4h-32c-2.216 0-4-1.784-4-4v-33c0-2.216 1.784-4 4-4z" fill="#48b9c7"/><path transform="translate(-33 2)" d="M197 238c-2.216 0-4 1.784-4 4v33c0 2.216 1.784 4 4 4h32c2.216 0 4-1.784 4-4v-29c0-2.216-1.784-4-4-4h-16l-4-4zm0 7h32c1.662 0 3 1.338 3 3v25c0 1.662-1.338 3-3 3h-32c-1.662 0-3-1.338-3-3v-25c0-1.662 1.338-3 3-3z" fill-opacity=".25"/><path transform="translate(-33 2)" d="M197 244c-2.216 0-4 1.784-4 4v27c0 2.216 1.784 4 4 4h32c2.216 0 4-1.784 4-4v-27c0-2.216-1.784-4-4-4zm0 1h32c1.662 0 3 1.338 3 3v25c0 1.662-1.338 3-3 3h-32c-1.662 0-3-1.338-3-3v-25c0-1.662 1.338-3 3-3z" fill-opacity=".25"/><path d="M105 255h8l3 3h11c1.108 0 2 .892 2 2v20c0 1.108-.892 2-2 2h-22c-1.108 0-2-.892-2-2v-23c0-1.108.892-2 2-2z" fill="#48b9c7"/><path transform="translate(-33 2)" d="M138 253c-1.108 0-2 .892-2 2v23c0 1.108.892 2 2 2h22c1.108 0 2-.892 2-2v-20c0-1.108-.892-2-2-2h-11l-3-3zm0 5h22c.554 0 1 .446 1 1v18c0 .554-.446 1-1 1h-22c-.554 0-1-.446-1-1v-18c0-.554.446-1 1-1z" fill-opacity=".25"/><path transform="translate(-33 2)" d="M138 257c-1.108 0-2 .892-2 2v19c0 1.108.892 2 2 2h22c1.108 0 2-.892 2-2v-19c0-1.108-.892-2-2-2zm0 1h22c.554 0 1 .446 1 1v18c0 .554-.446 1-1 1h-22c-.554 0-1-.446-1-1v-18c0-.554.446-1 1-1z" fill-opacity=".25"/></g><path d="M59 261h6l4 4h8c1.108 0 2 .892 2 2v14c0 1.108-.892 2-2 2H59c-1.108 0-2-.892-2-2v-18c0-1.108.892-2 2-2z" fill="#48b9c7"/><path d="M59 261.5h5.797l3.996 4H77c.831 0 1.5.669 1.5 1.5v14c0 .831-.669 1.5-1.5 1.5H59c-.831 0-1.5-.669-1.5-1.5v-18c0-.831.669-1.5 1.5-1.5z" fill="none" stroke="#000" stroke-linecap="round" stroke-opacity=".502"/><path d="M19 269h3l2 2h5c1.108 0 2 .892 2 2v8c0 1.108-.892 2-2 2H19c-1.108 0-2-.892-2-2v-10c0-1.108.892-2 2-2z" fill="#48b9c7"/><path d="M19 269.5h2.793l2 2H29c.831 0 1.5.669 1.5 1.5v8c0 .831-.669 1.5-1.5 1.5H19c-.831 0-1.5-.669-1.5-1.5v-10c0-.831.669-1.5 1.5-1.5z" fill="none" stroke="#000" stroke-linecap="round" stroke-opacity=".502"/></g><g transform="translate(-312 2744)"><use id="b" transform="translate(0 -340)" width="100%" height="100%" xlink:href="#a"/><path d="M59-79h18c1.108 0 2 .892 2 2v18c0 1.108-.892 2-2 2H59c-1.108 0-2-.892-2-2v-18c0-1.108.892-2 2-2z" fill="#faa41a"/><path d="M59-78.5h18c.831 0 1.5.669 1.5 1.5v18c0 .831-.669 1.5-1.5 1.5H59c-.831 0-1.5-.669-1.5-1.5v-18c0-.831.669-1.5 1.5-1.5z" fill="none" stroke="#000" stroke-linecap="round" stroke-opacity=".392"/><path d="M66-75a2 2 0 0 0-2 2v6.188A2.927 2.927 0 0 0 63-67a3 3 0 1 0 3 3v-7h6v4.188A2.927 2.927 0 0 0 71-67a3 3 0 1 0 3 3v-9a2 2 0 0 0-2-2z" fill="#33302f"/><path d="M22.5-71.5a2 2 0 0 0-2 2v6.188a2.927 2.927 0 0 0-1-.188 3 3 0 1 0 3 3v-7h6v4.188a2.927 2.927 0 0 0-1-.188 3 3 0 1 0 3 3v-9a2 2 0 0 0-2-2z" fill="#faa41a" stroke="#1a1818" stroke-opacity=".588"/><path d="M255-97a4 4 0 0 0-4 4v12.375c-.633-.227-1.289-.375-2-.375a6 6 0 1 0 6 6v-14h12v8.375c-.633-.227-1.289-.375-2-.375a6 6 0 1 0 6 6v-18a4 4 0 0 0-4-4z" fill-opacity=".314"/><path d="M255-98a4 4 0 0 0-4 4v12.375c-.633-.227-1.289-.375-2-.375a6 6 0 1 0 6 6v-14h12v8.375c-.633-.227-1.289-.375-2-.375a6 6 0 1 0 6 6v-18a4 4 0 0 0-4-4z" fill="#fff"/><path d="M374-139a8 8 0 0 0-8 8v24.75c-1.266-.454-2.578-.75-4-.75-6.627 0-12 5.373-12 12s5.373 12 12 12 12-5.373 12-12v-28h24v16.75c-1.266-.454-2.578-.75-4-.75-6.627 0-12 5.373-12 12s5.373 12 12 12 12-5.373 12-12v-36a8 8 0 0 0-8-8z" fill-opacity=".314"/><path d="M374-140a8 8 0 0 0-8 8v24.75c-1.266-.454-2.578-.75-4-.75-6.627 0-12 5.373-12 12s5.373 12 12 12 12-5.373 12-12v-28h24v16.75c-1.266-.454-2.578-.75-4-.75-6.627 0-12 5.373-12 12s5.373 12 12 12 12-5.373 12-12v-36a8 8 0 0 0-8-8z" fill="#fff"/><path d="M584-222a16 16 0 0 0-16 16v49.5c-2.532-.908-5.156-1.5-8-1.5-13.255 0-24 10.745-24 24s10.745 24 24 24 24-10.745 24-24v-56h48v33.5c-2.532-.908-5.156-1.5-8-1.5-13.255 0-24 10.745-24 24s10.745 24 24 24 24-10.745 24-24v-72a16 16 0 0 0-16-16z" fill-opacity=".314"/><path d="M584-224a16 16 0 0 0-16 16v49.5c-2.532-.908-5.156-1.5-8-1.5-13.255 0-24 10.745-24 24s10.745 24 24 24 24-10.745 24-24v-56h48v33.5c-2.532-.908-5.156-1.5-8-1.5-13.255 0-24 10.745-24 24s10.745 24 24 24 24-10.745 24-24v-72a16 16 0 0 0-16-16z" fill="#fff"/><path d="M115-76a2 2 0 0 0-2 2v6.188a2.927 2.927 0 0 0-1-.188 3 3 0 1 0 3 3v-7h6v4.188a2.927 2.927 0 0 0-1-.188 3 3 0 1 0 3 3v-9a2 2 0 0 0-2-2z" fill-opacity=".314"/><path d="M115-77a2 2 0 0 0-2 2v6.188a2.927 2.927 0 0 0-1-.188 3 3 0 1 0 3 3v-7h6v4.188a2.927 2.927 0 0 0-1-.188 3 3 0 1 0 3 3v-9a2 2 0 0 0-2-2z" fill="#fff"/><path d="M178-86.5a3 3 0 0 0-3 3v9.281a4.39 4.39 0 0 0-1.5-.281A4.5 4.5 0 1 0 178-70v-10.5h9v6.281a4.39 4.39 0 0 0-1.5-.281A4.5 4.5 0 1 0 190-70v-13.5a3 3 0 0 0-3-3z" fill-opacity=".314"/><path d="M178-88a3 3 0 0 0-3 3v9.281a4.39 4.39 0 0 0-1.5-.281 4.5 4.5 0 1 0 4.5 4.5V-82h9v6.281a4.39 4.39 0 0 0-1.5-.281 4.5 4.5 0 1 0 4.5 4.5V-85a3 3 0 0 0-3-3z" fill="#fff"/></g><g transform="translate(-312 2744)"><use id="c" transform="translate(0 -320)" width="100%" height="100%" xlink:href="#b"/><path d="M59-399h18c1.108 0 2 .892 2 2v18c0 1.108-.892 2-2 2H59c-1.108 0-2-.892-2-2v-18c0-1.108.892-2 2-2z" fill="#3f51b5"/><path d="M59-398.5h18c.831 0 1.5.669 1.5 1.5v18c0 .831-.669 1.5-1.5 1.5H59c-.831 0-1.5-.669-1.5-1.5v-18c0-.831.669-1.5 1.5-1.5z" fill="none" stroke="#fff" stroke-linecap="round" stroke-opacity=".392"/><g fill="#fff"><path d="M70-396v6h2.5l-4.5 7-4.5-7H66v-6z"/><path d="M63-382a1 1 0 0 0 0 2h10a1 1 0 0 0 0-2z"/><path d="M70-396v6h2.5l-4.5 7-4.5-7H66v-6z"/><path d="M63-382a1 1 0 0 0 0 2h10a1 1 0 0 0 0-2z"/></g><g fill="#6a7ce0" stroke="#1a1818" stroke-opacity=".588"><path d="M26.5-391.5v6h2l-4.5 6-4.5-6h2v-6z"/><path d="M19.5-378.5a1 1 0 0 0 0 2h9a1 1 0 0 0 0-2z"/></g><g fill-opacity=".314"><path d="M118-397v6h2.5l-4.5 7-4.5-7h2.5v-6z"/><path d="M111-383a1 1 0 0 0 0 2h10a1 1 0 0 0 0-2z"/></g><g fill="#fff"><path d="M118-398v6h2.5l-4.5 7-4.5-7h2.5v-6z"/><path d="M111-384a1 1 0 0 0 0 2h10a1 1 0 0 0 0-2z"/></g><g fill-opacity=".314"><path d="M261-419v12h5l-9 14-9-14h5v-12z"/><path d="M247-391a2 2 0 0 0 0 4h20a2 2 0 0 0 0-4z"/></g><g fill="#fff"><path d="M261-420v12h5l-9 14-9-14h5v-12z"/><path d="M247-392a2 2 0 0 0 0 4h20a2 2 0 0 0 0-4z"/></g><g fill-opacity=".314"><path d="M386-462.96v24h10l-18 28-18-28h10v-24z"/><path d="M358-406.96a4 4 0 0 0 0 8h40a4 4 0 0 0 0-8z"/></g><g fill="#fff"><path d="M386-464v24h10l-18 28-18-28h10v-24z"/><path d="M358-408a4 4 0 0 0 0 8h40a4 4 0 0 0 0-8z"/></g><g fill-opacity=".314"><path d="M608-550.46v48h20l-36 56-36-56h20v-48z"/><path d="M552-438.46a8 8 0 0 0 0 16h80a8 8 0 0 0 0-16z"/></g><g fill="#fff"><path d="M608-551.5v48h20l-36 56-36-56h20v-48z"/><path d="M552-439.5a8 8 0 0 0 0 16h80a8 8 0 0 0 0-16z"/></g><g fill-opacity=".314"><path d="M183-407.995v9h3.75l-6.75 10.5-6.75-10.5H177v-9z"/><path d="M172.5-386.995a1.5 1.5 0 0 0 0 3h15a1.5 1.5 0 0 0 0-3z"/></g><g fill="#fff"><path d="M183-409v9h3.75L180-389.5l-6.75-10.5H177v-9z"/><path d="M172.5-388a1.5 1.5 0 0 0 0 3h15a1.5 1.5 0 0 0 0-3z"/></g></g><g transform="translate(-312 2744)"><use id="d" transform="translate(0 -320)" width="100%" height="100%" xlink:href="#c"/><path d="M59-719h18c1.108 0 2 .892 2 2v18c0 1.108-.892 2-2 2H59c-1.108 0-2-.892-2-2v-18c0-1.108.892-2 2-2z" fill="#3f51b5"/><path d="M59-718.5h18c.831 0 1.5.669 1.5 1.5v18c0 .831-.669 1.5-1.5 1.5H59c-.831 0-1.5-.669-1.5-1.5v-18c0-.831.669-1.5 1.5-1.5z" fill="none" stroke="#fff" stroke-linecap="round" stroke-opacity=".392"/><path d="M63.999-716a2 2 0 0 0-2 2v11a2 2 0 0 0 2 2h8c1.09 0 1.974-.874 1.996-1.959.01-1.094.005-5.423 0-8.13a1.998 1.998 0 0 0-.547-1.337l-2.969-2.969a2 2 0 0 0-1.433-.605z" fill="#fefefe"/><path d="M20.5-711.459a2 2 0 0 0-2 2l.004 10.959a2 2 0 0 0 2 2h7c1.09 0 1.974-.874 1.996-1.959.01-1.094.001-5.382-.004-8.09a1.998 1.998 0 0 0-.547-1.336l-2.969-2.969a2 2 0 0 0-1.433-.605z" fill="#6a7ce0" stroke="#1a1818" stroke-opacity=".588"/><path d="M112-717a2 2 0 0 0-2 2v11a2 2 0 0 0 2 2h8c1.09 0 1.974-.874 1.996-1.959.01-1.094.005-5.423 0-8.13a1.998 1.998 0 0 0-.547-1.337l-2.969-2.969a2 2 0 0 0-1.433-.605z" fill-opacity=".314"/><path d="M112-718a2 2 0 0 0-2 2v11a2 2 0 0 0 2 2h8c1.09 0 1.974-.874 1.996-1.959.01-1.094.005-5.423 0-8.13a1.998 1.998 0 0 0-.547-1.337l-2.969-2.969a2 2 0 0 0-1.433-.605z" fill="#fefeff"/><path d="M248.999-738a4 4 0 0 0-4 4v22a4 4 0 0 0 4 4h16a3.996 3.996 0 0 0 3.992-3.918c.021-2.188.01-10.846 0-16.262a3.996 3.996 0 0 0-1.094-2.672l-5.937-5.937a4 4 0 0 0-2.867-1.211z" fill-opacity=".314"/><path d="M248.999-739a4 4 0 0 0-4 4v22a4 4 0 0 0 4 4h16a3.996 3.996 0 0 0 3.992-3.918c.021-2.188.01-10.846 0-16.262a3.996 3.996 0 0 0-1.094-2.672l-5.937-5.937a4 4 0 0 0-2.867-1.211z" fill="#fefeff"/><path d="M362-781a8 8 0 0 0-8 8v44a8 8 0 0 0 8 8h32c4.362 0 7.895-3.495 7.984-7.836.042-4.376.02-21.692 0-32.524a7.992 7.992 0 0 0-2.187-5.343l-11.875-11.875a8 8 0 0 0-5.735-2.422z" fill-opacity=".314"/><path d="M362-782a8 8 0 0 0-8 8v44a8 8 0 0 0 8 8h32c4.362 0 7.895-3.495 7.984-7.836.042-4.376.02-21.692 0-32.524a7.992 7.992 0 0 0-2.187-5.343l-11.875-11.875a8 8 0 0 0-5.735-2.422z" fill="#fefeff"/><path d="M559.99-866.54c-8.837 0-16 7.163-16 16v88c0 8.837 7.163 16 16 16h64c8.724 0 15.79-6.99 15.969-15.672.084-8.752.04-43.383 0-65.047-.086-3.98-1.626-7.797-4.375-10.687l-23.75-23.75a16 16 0 0 0-11.47-4.844z" fill-opacity=".314"/><path d="M559.99-867.5c-8.837 0-16 7.163-16 16v88c0 8.837 7.163 16 16 16h64c8.724 0 15.79-6.99 15.969-15.672.084-8.752.04-43.383 0-65.047-.086-3.98-1.626-7.797-4.375-10.687l-23.75-23.75a16 16 0 0 0-11.47-4.844z" fill="#fefeff"/><path d="M173.999-727.495a3 3 0 0 0-3 3v16.5a3 3 0 0 0 3 3h12c1.636 0 2.96-1.31 2.994-2.939.016-1.64.008-8.134 0-12.196a2.997 2.997 0 0 0-.82-2.004l-4.453-4.453a3 3 0 0 0-2.15-.908z" fill-opacity=".314"/><path d="M173.999-728.995a3 3 0 0 0-3 3l-.003 17a3 3 0 0 0 3 3h12a2.997 2.997 0 0 0 2.994-2.939c.016-1.641.008-8.134 0-12.196a2.997 2.997 0 0 0-.82-2.004l-4.448-4.95-.003-.003a3 3 0 0 0-2.15-.908z" fill="#fefeff"/></g><g transform="translate(-312 2744)"><use id="e" transform="translate(0 -320)" width="100%" height="100%" xlink:href="#d"/><g fill="#1c8d9b"><path d="M59-1039h18c1.108 0 2 .892 2 2v18c0 1.108-.892 2-2 2H59c-1.108 0-2-.892-2-2v-18c0-1.108.892-2 2-2z"/><path d="M59-1038.5h18c.831 0 1.5.669 1.5 1.5v18c0 .831-.669 1.5-1.5 1.5H59c-.831 0-1.5-.669-1.5-1.5v-18c0-.831.669-1.5 1.5-1.5z" stroke="#000" stroke-linecap="round" stroke-opacity=".392"/></g><g fill-opacity=".314"><path d="M109-1032v8h14v-8zm7 1a3 3 0 0 1 3 3 3 3 0 0 1-3 3 3 3 0 0 1-3-3 3 3 0 0 1 3-3z"/><path d="m115-1035-2 2h-3c-.554 0-1 .446-1 1h14c0-.554-.446-1-1-1h-3l-2-2zm-6 11c0 .554.446 1 1 1h12c.554 0 1-.446 1-1z"/></g><g fill="#fff"><path d="M109-1033v8h14v-8zm7 1a3 3 0 0 1 3 3 3 3 0 0 1-3 3 3 3 0 0 1-3-3 3 3 0 0 1 3-3z"/><path d="m115-1036-2 2h-3c-.554 0-1 .446-1 1h14c0-.554-.446-1-1-1h-3l-2-2zm-6 11c0 .554.446 1 1 1h12c.554 0 1-.446 1-1z"/></g><g fill-opacity=".314"><path d="M169.5-1040.5v12h21v-12zm10.5 1.5a4.5 4.5 0 0 1 4.5 4.5 4.5 4.5 0 0 1-4.5 4.5 4.5 4.5 0 0 1-4.5-4.5 4.5 4.5 0 0 1 4.5-4.5z"/><path d="m178.5-1045-3 3H171c-.831 0-1.5.67-1.5 1.5h21c0-.83-.669-1.5-1.5-1.5h-4.5l-3-3zm-9 16.5c0 .831.669 1.5 1.5 1.5h18c.831 0 1.5-.669 1.5-1.5z"/></g><g fill="#fff"><path d="M169.5-1041.5v12h21v-12zm10.5 1.5a4.5 4.5 0 0 1 4.5 4.5 4.5 4.5 0 0 1-4.5 4.5 4.5 4.5 0 0 1-4.5-4.5 4.5 4.5 0 0 1 4.5-4.5z"/><path d="m178.5-1046-3 3H171c-.831 0-1.5.669-1.5 1.5h21c0-.831-.669-1.5-1.5-1.5h-4.5l-3-3zm-9 16.5c0 .831.669 1.5 1.5 1.5h18c.831 0 1.5-.669 1.5-1.5z"/></g><g fill-opacity=".314"><path d="M243-1050v16h28v-16zm14 2a6 6 0 0 1 6 6 6 6 0 0 1-6 6 6 6 0 0 1-6-6 6 6 0 0 1 6-6z"/><path d="m255-1056-4 4h-6c-1.108 0-2 .892-2 2h28c0-1.108-.892-2-2-2h-6l-4-4zm-12 22c0 1.108.892 2 2 2h24c1.108 0 2-.892 2-2z"/></g><g fill="#fff"><path d="M243-1051v16h28v-16zm14 2a6 6 0 0 1 6 6 6 6 0 0 1-6 6 6 6 0 0 1-6-6 6 6 0 0 1 6-6z"/><path d="m255-1057-4 4h-6c-1.108 0-2 .892-2 2h28c0-1.108-.892-2-2-2h-6l-4-4zm-12 22c0 1.108.892 2 2 2h24c1.108 0 2-.892 2-2z"/></g><g fill-opacity=".314"><path d="M350-1085v32h56v-32zm28 4a12 12 0 0 1 12 12 12 12 0 0 1-12 12 12 12 0 0 1-12-12 12 12 0 0 1 12-12z"/><path d="m374-1097-8 8h-12c-2.216 0-4 1.784-4 4h56c0-2.216-1.784-4-4-4h-12l-8-8zm-24 44c0 2.216 1.784 4 4 4h48c2.216 0 4-1.784 4-4z"/></g><g fill="#fff"><path d="M350-1086v32h56v-32zm28 4a12 12 0 0 1 12 12 12 12 0 0 1-12 12 12 12 0 0 1-12-12 12 12 0 0 1 12-12z"/><path d="m374-1098-8 8h-12c-2.216 0-4 1.784-4 4h56c0-2.216-1.784-4-4-4h-12l-8-8zm-24 44c0 2.216 1.784 4 4 4h48c2.216 0 4-1.784 4-4z"/></g><g fill-opacity=".314"><path d="M536-1153v64h112v-64zm56 8a24 24 0 0 1 24 24 24 24 0 0 1-24 24 24 24 0 0 1-24-24 24 24 0 0 1 24-24z"/><path d="m584-1177-16 16h-24c-4.432 0-8 3.568-8 8h112c0-4.432-3.568-8-8-8h-24l-16-16zm-48 88c0 4.432 3.568 8 8 8h96c4.432 0 8-3.568 8-8z"/></g><g fill="#fff"><path d="M536-1155v64h112v-64zm56 8a24 24 0 0 1 24 24 24 24 0 0 1-24 24 24 24 0 0 1-24-24 24 24 0 0 1 24-24z"/><path d="m584-1179-16 16h-24c-4.432 0-8 3.568-8 8h112c0-4.432-3.568-8-8-8h-24l-16-16zm-48 88c0 4.432 3.568 8 8 8h96c4.432 0 8-3.568 8-8z"/></g><g fill-opacity=".314"><path d="M61-1030v8h14v-8zm7 1a3 3 0 0 1 3 3 3 3 0 0 1-3 3 3 3 0 0 1-3-3 3 3 0 0 1 3-3z"/><path d="m67-1033-2 2h-3c-.554 0-1 .446-1 1h14c0-.554-.446-1-1-1h-3l-2-2zm-6 11c0 .554.446 1 1 1h12c.554 0 1-.446 1-1z"/></g><g fill="#fff"><path d="M61-1031v8h14v-8zm7 1a3 3 0 0 1 3 3 3 3 0 0 1-3 3 3 3 0 0 1-3-3 3 3 0 0 1 3-3z"/><path d="m67-1034-2 2h-3c-.554 0-1 .446-1 1h14c0-.554-.446-1-1-1h-3l-2-2zm-6 11c0 .554.446 1 1 1h12c.554 0 1-.446 1-1z"/></g><rect x="604" y="385" width="11" height="10" ry="2" fill="#fff" stroke="#1c8d9b" stroke-linecap="round" stroke-width="2" transform="translate(-586 -1414)"/><g fill="#1c8d9b"><path d="M20-1025.5v4h7v-4zm3.5.5a1.5 1.5 0 0 1 1.5 1.5 1.5 1.5 0 0 1-1.5 1.5 1.5 1.5 0 0 1-1.5-1.5 1.5 1.5 0 0 1 1.5-1.5z"/><path d="m23-1027-1 1h-1.5c-.277 0-.5.223-.5.5h7c0-.277-.223-.5-.5-.5H25l-1-1zm-3 5.5c0 .277.223.5.5.5h6c.277 0 .5-.223.5-.5z"/></g></g><g transform="translate(-312 2744)"><use id="f" transform="translate(0 -320)" width="100%" height="100%" xlink:href="#e"/><path d="M59-1359h18c1.108 0 2 .892 2 2v18c0 1.108-.892 2-2 2H59c-1.108 0-2-.892-2-2v-18c0-1.108.892-2 2-2z" fill="#48b9c7"/><path d="M59-1358.5h18c.831 0 1.5.669 1.5 1.5v18c0 .831-.669 1.5-1.5 1.5H59c-.831 0-1.5-.669-1.5-1.5v-18c0-.831.669-1.5 1.5-1.5z" fill="none" stroke="#000" stroke-linecap="round" stroke-opacity=".392"/><path d="M68-1355a3 3 0 1 1 0 6 3 3 0 0 1 0-6zm0 8c6 0 6 4.003 6 4.003v1H62v-1s0-4 6-4.003z" color="#000" fill="#33302f" style="text-decoration-line:none;text-indent:0;text-transform:none"/><path d="M68-1355a3 3 0 1 1 0 6 3 3 0 0 1 0-6zm0 8c6 0 6 4.003 6 4.003v1H62v-1s0-4 6-4.003z" color="#000" fill="#33302f" style="text-decoration-line:none;text-indent:0;text-transform:none"/><path transform="translate(-588 -1404.01)" d="M607 53a2 2 0 0 0-2 2v9a2 2 0 0 0 2 2h10a2 2 0 0 0 2-2v-7a2 2 0 0 0-2-2h-4l-2-2z" color="#000" style="text-decoration-line:none;text-indent:0;text-transform:none" fill="#48b9c7"/><path d="M26-1346.5a1.5 1.5 0 1 1 0 3 1.5 1.5 0 0 1 0-3zm0 4c3 0 3 2.002 3 2.002v.5h-6v-.5s0-2 3-2.002z" color="#000" fill="#33302f" style="text-decoration-line:none;text-indent:0;text-transform:none"/><path d="M19-1350.5h3.793l2 2H29c.831 0 1.5.669 1.5 1.5v7c0 .831-.669 1.5-1.5 1.5H19c-.831 0-1.5-.669-1.5-1.5v-9c0-.831.669-1.5 1.5-1.5z" fill="none" stroke="#000" stroke-linecap="round" stroke-opacity=".392"/><g color="#000"><path d="M263 247.99a6 6 0 1 1 0 12 6 6 0 0 1 0-12zm0 16c12-.006 12 8.007 12 8.007v2h-24v-2s0-8 12-8.007z" fill-opacity=".314" style="text-decoration-line:none;text-indent:0;text-transform:none" transform="translate(-6 -1624)"/><path d="M263 246.99a6 6 0 1 1 0 12 6 6 0 0 1 0-12zm0 16c12-.006 12 8.007 12 8.007v2h-24v-2s0-8 12-8.007z" fill="#fafafb" style="text-decoration-line:none;text-indent:0;text-transform:none" transform="translate(-6 -1624)"/></g><g color="#000"><path d="M395 211.99c6.627 0 12 5.373 12 12s-5.373 12-12 12-12-5.373-12-12 5.373-12 12-12zm0 32c23.999-.012 23.999 16.013 23.999 16.013v4h-48v-4s0-16 24.001-16.013z" fill-opacity=".314" style="text-decoration-line:none;text-indent:0;text-transform:none" transform="translate(-17 -1629)"/><path d="M395 210.99c6.627 0 12 5.373 12 12s-5.373 12-12 12-12-5.373-12-12 5.373-12 12-12zm0 32c23.999-.012 23.999 16.013 23.999 16.013v4h-48v-4s0-16 24.001-16.013z" fill="#fafafb" style="text-decoration-line:none;text-indent:0;text-transform:none" transform="translate(-17 -1629)"/></g><g color="#000"><path d="M643 147.97c13.255 0 24 10.746 24 24s-10.745 24-24 24-24-10.746-24-24 10.745-24 24-24zm0 64c47.998-.024 47.998 32.027 47.998 32.027v8h-96v-8s0-32 48.002-32.027z" fill-opacity=".314" style="text-decoration-line:none;text-indent:0;text-transform:none" transform="translate(-51 -1646.5)"/><path d="M643 146.97c13.255 0 24 10.746 24 24s-10.745 24-24 24-24-10.746-24-24 10.745-24 24-24zm0 64c47.998-.024 47.998 32.027 47.998 32.027v8h-96v-8s0-32 48.002-32.027z" fill="#fafafb" style="text-decoration-line:none;text-indent:0;text-transform:none" transform="translate(-51 -1646.5)"/></g><g color="#000"><path d="M116 266a3 3 0 1 1 0 6 3 3 0 0 1 0-6zm0 8c6 0 6 4.003 6 4.003v1h-12v-1s0-4 6-4.003z" fill-opacity=".314" style="text-decoration-line:none;text-indent:0;text-transform:none" transform="translate(.007 -1622)"/><path d="M115.99 265a3 3 0 1 1 0 6 3 3 0 0 1 0-6zm0 8c6 0 6 4.003 6 4.003v1h-12v-1s0-4 6-4.003z" fill="#fafafb" style="text-decoration-line:none;text-indent:0;text-transform:none" transform="translate(.007 -1622)"/></g><g color="#000"><g fill-opacity=".314"><path transform="translate(-34.99 -1618)" d="M215 252a4 4 0 0 0-4 4 4 4 0 0 0 4 4 4 4 0 0 0 4-4 4 4 0 0 0-4-4z" style="text-decoration-line:none;text-indent:0;text-transform:none"/><path d="M182 265c9 0 8.99 6.5 8.99 6.5v1.5h-18v-1.5s.01-6.495 9.01-6.5z" style="text-decoration-line:none;text-indent:0;text-transform:none" transform="translate(-1.99 -1620)"/></g><g fill="#fafafb"><path transform="translate(-34.99 -1619)" d="M215 252a4 4 0 0 0-4 4 4 4 0 0 0 4 4 4 4 0 0 0 4-4 4 4 0 0 0-4-4z" style="text-decoration-line:none;text-indent:0;text-transform:none"/><path d="M182 265c9 0 8.99 6.5 8.99 6.5v1.5h-18v-1.5s.01-6.495 9.01-6.5z" style="text-decoration-line:none;text-indent:0;text-transform:none" transform="translate(-1.99 -1621)"/></g></g></g><g transform="translate(-312 2744)"><use id="g" transform="translate(0 -320)" width="100%" height="100%" xlink:href="#f"/><path d="M59-1679h18c1.108 0 2 .892 2 2v18c0 1.108-.892 2-2 2H59c-1.108 0-2-.892-2-2v-18c0-1.108.892-2 2-2z" fill="#3f51b5"/><path d="M59-1678.5h18c.831 0 1.5.669 1.5 1.5v18c0 .831-.669 1.5-1.5 1.5H59c-.831 0-1.5-.669-1.5-1.5v-18c0-.831.669-1.5 1.5-1.5z" fill="none" stroke="#000" stroke-linecap="round" stroke-opacity=".392"/><path d="M60-1661v-2l8-8 8 8v2l-2-1-6-6-6 6z" fill="#fff"/><path d="M74.66-1667.84a7 7 0 0 1-5.322 4.708 7 7 0 0 1-6.698-2.372" fill="none" stroke="#fff" stroke-linecap="round" stroke-width="2"/><path d="M68-1675a4 4 0 0 0-4 4 4 4 0 0 0 4 4 4 4 0 0 0 4-4 4 4 0 0 0-4-4zm0 2a2 2 0 0 1 2 2 2 2 0 0 1-2 2 2 2 0 0 1-2-2 2 2 0 0 1 2-2z" fill="#fff"/><path color="#bebebe" fill="none" d="M16-1672h16v16H16z"/><path d="M24-1671.5a4 4 0 0 0-4 4 4 4 0 0 0 1.266 2.916l-1.84 1.963c-.007-.01-.015-.014-.022-.021a1 1 0 1 0-1.533 1.285c.059.07.127.128.188.195L16.5-1659.5v2l2-1 1.176-1.283a7.996 7.996 0 0 0 5.851 1.136 7.961 7.961 0 0 0 2.577-1.003L29.5-1658l2 1v-2l-1.74-1.973a7.975 7.975 0 0 0 1.848-3.054 1 1 0 0 0-.948-1.323 1 1 0 0 0-.953.703 5.981 5.981 0 0 1-1.27 2.174l-1.792-2.03A4 4 0 0 0 28-1667.5a4 4 0 0 0-4-4zm0 2a2 2 0 0 1 2 2 2 2 0 0 1-.678 1.498L24-1667.5l-1.365 1.457A2 2 0 0 1 22-1667.5a2 2 0 0 1 2-2zm-.832 5.906a4 4 0 0 0 .832.094 4 4 0 0 0 .781-.078l2.012 2.379a5.986 5.986 0 0 1-1.648.588 5.987 5.987 0 0 1-4.092-.674z" fill="#6a7ce0" stroke="#000" stroke-opacity=".588"/><path d="M257-1697a8 8 0 0 0-8 8 8 8 0 0 0 2.348 5.652l-3.805 3.805a2 2 0 0 0-2.813 2.813L241-1673v4l4-2 2.867-2.867a16.007 16.007 0 0 0 12.188 2.574 15.948 15.948 0 0 0 6.07-2.582L269-1671l4 2v-4l-3.742-3.742a15.97 15.97 0 0 0 2.957-5.313 2 2 0 0 0-1.895-2.644 2 2 0 0 0-1.906 1.406 11.958 11.958 0 0 1-2.004 3.703l-3.758-3.758A8 8 0 0 0 265-1689a8 8 0 0 0-8-8zm0 4a4 4 0 0 1 4 4 4 4 0 0 1-1.172 2.828L257-1689l-2.828 2.828A4 4 0 0 1 253-1689a4 4 0 0 1 4-4zm-1.785 11.785A8 8 0 0 0 257-1681a8 8 0 0 0 1.79-.21l4.44 4.44a11.941 11.941 0 0 1-3.94 1.547 11.972 11.972 0 0 1-8.52-1.547z" fill="#121212" fill-opacity=".314"/><g fill="#fff"><path d="M241-1670v-4l16-16 16 16v4l-4-2-12-12-12 12z"/><path d="M578.66 169.15a1 1 0 0 0-.953.703c-.675 2.076-2.42 3.619-4.563 4.035s-4.337-.359-5.74-2.03a1 1 0 1 0-1.533 1.284 8.002 8.002 0 0 0 13.736-2.67 1 1 0 0 0-.947-1.322z" color="#000" style="font-feature-settings:normal;font-variant-alternates:normal;font-variant-caps:normal;font-variant-ligatures:normal;font-variant-numeric:normal;font-variant-position:normal;isolation:auto;mix-blend-mode:normal;shape-padding:0;text-decoration-color:#000;text-decoration-line:none;text-decoration-style:solid;text-indent:0;text-orientation:mixed;text-transform:none;white-space:normal" transform="matrix(2 0 0 2 -887 -2024)"/><path d="M257-1698a8 8 0 0 0-8 8 8 8 0 0 0 8 8 8 8 0 0 0 8-8 8 8 0 0 0-8-8zm0 4a4 4 0 0 1 4 4 4 4 0 0 1-4 4 4 4 0 0 1-4-4 4 4 0 0 1 4-4z"/></g><path d="M378-1739a16 16 0 0 0-16 16 16 16 0 0 0 4.695 11.305l-7.61 7.609a4.001 4.001 0 0 0-5.624 5.625l-7.461 7.46v8l8-4 5.734-5.734a32.015 32.015 0 0 0 24.376 5.149c4.441-.863 8.548-2.664 12.14-5.164L402-1687l8 4v-8l-7.484-7.485c2.585-3.09 4.628-6.668 5.914-10.624a4 4 0 0 0-3.789-5.29 4 4 0 0 0-3.813 2.813c-.89 2.739-2.282 5.217-4.008 7.406l-7.515-7.515A16 16 0 0 0 394-1723a16 16 0 0 0-16-16zm0 8a8 8 0 0 1 8 8 8 8 0 0 1-2.344 5.656L378-1723l-5.657 5.656A8 8 0 0 1 370-1723a8 8 0 0 1 8-8zm-3.57 23.57a16 16 0 0 0 3.57.43 16 16 0 0 0 3.578-.422l8.883 8.883c-2.395 1.458-5.04 2.54-7.883 3.094-5.965 1.16-12.01-.032-17.04-3.094z" fill="#121212" fill-opacity=".314"/><g fill="#fff"><path d="M346-1684v-8l32-32 32 31.999v8.001l-8-4-24-24-24 24z"/><path d="M578.66 169.15a1 1 0 0 0-.953.703c-.675 2.076-2.42 3.619-4.563 4.035s-4.337-.359-5.74-2.03a1 1 0 1 0-1.533 1.284 8.002 8.002 0 0 0 13.736-2.67 1 1 0 0 0-.947-1.322z" color="#000" style="font-feature-settings:normal;font-variant-alternates:normal;font-variant-caps:normal;font-variant-ligatures:normal;font-variant-numeric:normal;font-variant-position:normal;isolation:auto;mix-blend-mode:normal;shape-padding:0;text-decoration-color:#000;text-decoration-line:none;text-decoration-style:solid;text-indent:0;text-orientation:mixed;text-transform:none;white-space:normal" transform="matrix(4 0 0 4 -1910 -2392)"/><path d="M378-1740a16 16 0 0 0-16 16 16 16 0 0 0 16 16 16 16 0 0 0 16-16 16 16 0 0 0-16-16zm0 8a8 8 0 0 1 8 8 8 8 0 0 1-8 8 8 8 0 0 1-8-8 8 8 0 0 1 8-8z"/></g><path d="M592-1822a32 32 0 0 0-32 32 32 32 0 0 0 9.39 22.61l-15.219 15.218a8.002 8.002 0 0 0-11.25 11.25L528-1726v16l16-8 11.469-11.469c14.009 9.737 31.558 13.639 48.75 10.297 8.883-1.726 17.096-5.327 24.282-10.328L640-1718l16 8v-16l-14.969-14.969c5.17-6.179 9.257-13.337 11.828-21.25a8 8 0 0 0-7.578-10.578 8 8 0 0 0-7.625 5.625c-1.78 5.478-4.565 10.434-8.016 14.813l-15.031-15.031A32 32 0 0 0 624-1790a32 32 0 0 0-32-32zm0 16a16 16 0 0 1 16 16 16 16 0 0 1-4.688 11.313L592-1790l-11.313 11.313a16 16 0 0 1-4.688-11.313 16 16 0 0 1 16-16zm-7.14 47.14a32 32 0 0 0 7.14.86 32 32 0 0 0 7.156-.844l17.766 17.766c-4.791 2.916-10.079 5.082-15.766 6.188-11.931 2.319-24.02-.064-34.078-6.188z" fill="#121212" fill-opacity=".314"/><g fill="#fff"><path d="M528-1711v-16l64-64 63.998 63.998v16.003L640-1719l-48-48-48 48z"/><path d="M578.66 169.15a1 1 0 0 0-.953.703c-.675 2.076-2.42 3.619-4.563 4.035s-4.337-.359-5.74-2.03a1 1 0 1 0-1.533 1.284 8.002 8.002 0 0 0 13.736-2.67 1 1 0 0 0-.947-1.322z" color="#000" style="font-feature-settings:normal;font-variant-alternates:normal;font-variant-caps:normal;font-variant-ligatures:normal;font-variant-numeric:normal;font-variant-position:normal;isolation:auto;mix-blend-mode:normal;shape-padding:0;text-decoration-color:#000;text-decoration-line:none;text-decoration-style:solid;text-indent:0;text-orientation:mixed;text-transform:none;white-space:normal" transform="matrix(8 0 0 8 -3984 -3127)"/><path d="M592-1823a32 32 0 0 0-32 32 32 32 0 0 0 32 32 32 32 0 0 0 32-32 32 32 0 0 0-32-32zm0 16a16 16 0 0 1 16 16 16 16 0 0 1-16 16 16 16 0 0 1-16-16 16 16 0 0 1 16-16z"/></g><path d="M180-1687a6 6 0 0 0-6 6 6 6 0 0 0 1.761 4.24l-2.854 2.853a1.5 1.5 0 0 0-2.109 2.11L168-1669v3l3-1.5 2.15-2.15a12.006 12.006 0 0 0 9.141 1.93 11.961 11.961 0 0 0 4.553-1.936L189-1667.5l3 1.5v-3l-2.806-2.807c.97-1.158 1.735-2.5 2.218-3.984a1.5 1.5 0 0 0-1.421-1.983 1.5 1.5 0 0 0-1.43 1.054 8.968 8.968 0 0 1-1.503 2.778l-2.818-2.819A6 6 0 0 0 186-1681a6 6 0 0 0-6-6zm0 3a3 3 0 0 1 3 3 3 3 0 0 1-.879 2.121l-2.12-2.121-2.122 2.121A3 3 0 0 1 177-1681a3 3 0 0 1 3-3zm-1.339 8.839a6 6 0 0 0 1.34.161 6 6 0 0 0 1.341-.158l3.331 3.33a8.974 8.974 0 0 1-2.956 1.161 8.98 8.98 0 0 1-6.39-1.16z" fill="#121212" fill-opacity=".314"/><g fill="#fff"><path d="M168-1667v-3l12-12 12 12v3l-3-1.5-9-9-9 9z"/><path d="M578.66 169.15a1 1 0 0 0-.953.703c-.675 2.076-2.42 3.619-4.563 4.035s-4.337-.359-5.74-2.03a1 1 0 1 0-1.533 1.284 8.002 8.002 0 0 0 13.736-2.67 1 1 0 0 0-.947-1.322z" color="#000" style="font-feature-settings:normal;font-variant-alternates:normal;font-variant-caps:normal;font-variant-ligatures:normal;font-variant-numeric:normal;font-variant-position:normal;isolation:auto;mix-blend-mode:normal;shape-padding:0;text-decoration-color:#000;text-decoration-line:none;text-decoration-style:solid;text-indent:0;text-orientation:mixed;text-transform:none;white-space:normal" transform="matrix(1.5 0 0 1.5 -678 -1932.5)"/><path d="M180-1688a6 6 0 0 0-6 6 6 6 0 0 0 6 6 6 6 0 0 0 6-6 6 6 0 0 0-6-6zm0 3a3 3 0 0 1 3 3 3 3 0 0 1-3 3 3 3 0 0 1-3-3 3 3 0 0 1 3-3z"/></g><path d="M116-1676a4 4 0 0 0-4 4 4 4 0 0 0 1.174 2.826l-1.903 1.903a1 1 0 0 0-1.406 1.406L108-1664v2l2-1 1.434-1.434a8.004 8.004 0 0 0 6.093 1.288 7.974 7.974 0 0 0 3.036-1.291L122-1663l2 1v-2l-1.871-1.871a7.985 7.985 0 0 0 1.478-2.656 1 1 0 0 0-.947-1.322 1 1 0 0 0-.953.703 5.979 5.979 0 0 1-1.002 1.851l-1.879-1.879A4 4 0 0 0 120-1672a4 4 0 0 0-4-4zm0 2a2 2 0 0 1 2 2 2 2 0 0 1-.586 1.414L116-1672l-1.414 1.414A2 2 0 0 1 114-1672a2 2 0 0 1 2-2zm-.893 5.893a4 4 0 0 0 .893.107 4 4 0 0 0 .895-.105l2.22 2.22a5.983 5.983 0 0 1-1.97.774 5.986 5.986 0 0 1-4.26-.774z" fill="#121212" fill-opacity=".314"/><path d="M108-1663v-2l8-8 8 8v2l-2-1-6-6-6 6z" fill="#fff"/><path d="M122.66-1669.84a7 7 0 0 1-5.322 4.708 7 7 0 0 1-6.698-2.371" fill="none" stroke="#fff" stroke-linecap="round" stroke-width="2"/><path d="M116-1677a4 4 0 0 0-4 4 4 4 0 0 0 4 4 4 4 0 0 0 4-4 4 4 0 0 0-4-4zm0 2a2 2 0 0 1 2 2 2 2 0 0 1-2 2 2 2 0 0 1-2-2 2 2 0 0 1 2-2z" fill="#fff"/></g><g transform="translate(-312 2744)"><use id="h" transform="translate(0 -320)" width="100%" height="100%" xlink:href="#g"/><g fill="#ff793e"><path d="M59-1999h18c1.108 0 2 .892 2 2v18c0 1.108-.892 2-2 2H59c-1.108 0-2-.892-2-2v-18c0-1.108.892-2 2-2z"/><path d="M59-1998.5h18c.831 0 1.5.669 1.5 1.5v18c0 .831-.669 1.5-1.5 1.5H59c-.831 0-1.5-.669-1.5-1.5v-18c0-.831.669-1.5 1.5-1.5z" stroke="#000" stroke-linecap="round" stroke-opacity=".392"/></g><g transform="translate(-1 -2260)" fill-opacity=".314"><path d="M112.5 264c-1.939 0-3.5 1.561-3.5 3.5s1.561 3.5 3.5 3.5 3.5-1.561 3.5-3.5-1.561-3.5-3.5-3.5zm0 2c.831 0 1.5.669 1.5 1.5s-.669 1.5-1.5 1.5-1.5-.669-1.5-1.5.669-1.5 1.5-1.5z"/><path d="M120.5 264c-1.939 0-3.5 1.561-3.5 3.5s1.561 3.5 3.5 3.5 3.5-1.561 3.5-3.5-1.561-3.5-3.5-3.5zm0 2c.831 0 1.5.669 1.5 1.5s-.669 1.5-1.5 1.5-1.5-.669-1.5-1.5.669-1.5 1.5-1.5z"/><rect x="111" y="270" width="11" height="8" ry="2"/><path d="M119.75 274.5 125 271v7z"/></g><g transform="translate(-1 -2261)" fill="#fff"><path d="M112.5 264c-1.939 0-3.5 1.561-3.5 3.5s1.561 3.5 3.5 3.5 3.5-1.561 3.5-3.5-1.561-3.5-3.5-3.5zm0 2c.831 0 1.5.669 1.5 1.5s-.669 1.5-1.5 1.5-1.5-.669-1.5-1.5.669-1.5 1.5-1.5z"/><path d="M120.5 264c-1.939 0-3.5 1.561-3.5 3.5s1.561 3.5 3.5 3.5 3.5-1.561 3.5-3.5-1.561-3.5-3.5-3.5zm0 2c.831 0 1.5.669 1.5 1.5s-.669 1.5-1.5 1.5-1.5-.669-1.5-1.5.669-1.5 1.5-1.5z"/><rect x="111" y="270" width="11" height="8" ry="2"/><path d="M119.75 274.5 125 271v7z"/></g><g transform="matrix(1.5 0 0 1.5 4.5 -2403)" fill-opacity=".314"><path d="M112.5 264c-1.939 0-3.5 1.561-3.5 3.5s1.561 3.5 3.5 3.5 3.5-1.561 3.5-3.5-1.561-3.5-3.5-3.5zm0 2c.831 0 1.5.669 1.5 1.5s-.669 1.5-1.5 1.5-1.5-.669-1.5-1.5.669-1.5 1.5-1.5z"/><path d="M120.5 264c-1.939 0-3.5 1.561-3.5 3.5s1.561 3.5 3.5 3.5 3.5-1.561 3.5-3.5-1.561-3.5-3.5-3.5zm0 2c.831 0 1.5.669 1.5 1.5s-.669 1.5-1.5 1.5-1.5-.669-1.5-1.5.669-1.5 1.5-1.5z"/><rect x="111" y="270" width="11" height="8" ry="2"/><path d="M119.75 274.5 125 271v7z"/></g><g transform="matrix(1.5 0 0 1.5 4.5 -2404)" fill="#fff"><path d="M112.5 264c-1.939 0-3.5 1.561-3.5 3.5s1.561 3.5 3.5 3.5 3.5-1.561 3.5-3.5-1.561-3.5-3.5-3.5zm0 2c.831 0 1.5.669 1.5 1.5s-.669 1.5-1.5 1.5-1.5-.669-1.5-1.5.669-1.5 1.5-1.5z"/><path d="M120.5 264c-1.939 0-3.5 1.561-3.5 3.5s1.561 3.5 3.5 3.5 3.5-1.561 3.5-3.5-1.561-3.5-3.5-3.5zm0 2c.831 0 1.5.669 1.5 1.5s-.669 1.5-1.5 1.5-1.5-.669-1.5-1.5.669-1.5 1.5-1.5z"/><rect x="111" y="270" width="11" height="8" ry="2"/><path d="M119.75 274.5 125 271v7z"/></g><g transform="matrix(2 0 0 2 23 -2545)" fill-opacity=".314"><path d="M112.5 264c-1.939 0-3.5 1.561-3.5 3.5s1.561 3.5 3.5 3.5 3.5-1.561 3.5-3.5-1.561-3.5-3.5-3.5zm0 2c.831 0 1.5.669 1.5 1.5s-.669 1.5-1.5 1.5-1.5-.669-1.5-1.5.669-1.5 1.5-1.5z"/><path d="M120.5 264c-1.939 0-3.5 1.561-3.5 3.5s1.561 3.5 3.5 3.5 3.5-1.561 3.5-3.5-1.561-3.5-3.5-3.5zm0 2c.831 0 1.5.669 1.5 1.5s-.669 1.5-1.5 1.5-1.5-.669-1.5-1.5.669-1.5 1.5-1.5z"/><rect x="111" y="270" width="11" height="8" ry="2"/><path d="M119.75 274.5 125 271v7z"/></g><g transform="matrix(2 0 0 2 23 -2546)" fill="#fff"><path d="M112.5 264c-1.939 0-3.5 1.561-3.5 3.5s1.561 3.5 3.5 3.5 3.5-1.561 3.5-3.5-1.561-3.5-3.5-3.5zm0 2c.831 0 1.5.669 1.5 1.5s-.669 1.5-1.5 1.5-1.5-.669-1.5-1.5.669-1.5 1.5-1.5z"/><path d="M120.5 264c-1.939 0-3.5 1.561-3.5 3.5s1.561 3.5 3.5 3.5 3.5-1.561 3.5-3.5-1.561-3.5-3.5-3.5zm0 2c.831 0 1.5.669 1.5 1.5s-.669 1.5-1.5 1.5-1.5-.669-1.5-1.5.669-1.5 1.5-1.5z"/><rect x="111" y="270" width="11" height="8" ry="2"/><path d="M119.75 274.5 125 271v7z"/></g><g transform="matrix(4 0 0 4 -90 -3115)" fill-opacity=".314"><path d="M112.5 264c-1.939 0-3.5 1.561-3.5 3.5s1.561 3.5 3.5 3.5 3.5-1.561 3.5-3.5-1.561-3.5-3.5-3.5zm0 2c.831 0 1.5.669 1.5 1.5s-.669 1.5-1.5 1.5-1.5-.669-1.5-1.5.669-1.5 1.5-1.5z"/><path d="M120.5 264c-1.939 0-3.5 1.561-3.5 3.5s1.561 3.5 3.5 3.5 3.5-1.561 3.5-3.5-1.561-3.5-3.5-3.5zm0 2c.831 0 1.5.669 1.5 1.5s-.669 1.5-1.5 1.5-1.5-.669-1.5-1.5.669-1.5 1.5-1.5z"/><rect x="111" y="270" width="11" height="8" ry="2"/><path d="M119.75 274.5 125 271v7z"/></g><g transform="matrix(4 0 0 4 -90 -3116)" fill="#fff"><path d="M112.5 264c-1.939 0-3.5 1.561-3.5 3.5s1.561 3.5 3.5 3.5 3.5-1.561 3.5-3.5-1.561-3.5-3.5-3.5zm0 2c.831 0 1.5.669 1.5 1.5s-.669 1.5-1.5 1.5-1.5-.669-1.5-1.5.669-1.5 1.5-1.5z"/><path d="M120.5 264c-1.939 0-3.5 1.561-3.5 3.5s1.561 3.5 3.5 3.5 3.5-1.561 3.5-3.5-1.561-3.5-3.5-3.5zm0 2c.831 0 1.5.669 1.5 1.5s-.669 1.5-1.5 1.5-1.5-.669-1.5-1.5.669-1.5 1.5-1.5z"/><rect x="111" y="270" width="11" height="8" ry="2"/><path d="M119.75 274.5 125 271v7z"/></g><g transform="matrix(8 0 0 8 -344 -4253.4)" fill-opacity=".314"><path d="M112.5 264c-1.939 0-3.5 1.561-3.5 3.5s1.561 3.5 3.5 3.5 3.5-1.561 3.5-3.5-1.561-3.5-3.5-3.5zm0 2c.831 0 1.5.669 1.5 1.5s-.669 1.5-1.5 1.5-1.5-.669-1.5-1.5.669-1.5 1.5-1.5z"/><path d="M120.5 264c-1.939 0-3.5 1.561-3.5 3.5s1.561 3.5 3.5 3.5 3.5-1.561 3.5-3.5-1.561-3.5-3.5-3.5zm0 2c.831 0 1.5.669 1.5 1.5s-.669 1.5-1.5 1.5-1.5-.669-1.5-1.5.669-1.5 1.5-1.5z"/><rect x="111" y="270" width="11" height="8" ry="2"/><path d="M119.75 274.5 125 271v7z"/></g><g transform="matrix(8 0 0 8 -344 -4255.4)" fill="#fff"><path d="M112.5 264c-1.939 0-3.5 1.561-3.5 3.5s1.561 3.5 3.5 3.5 3.5-1.561 3.5-3.5-1.561-3.5-3.5-3.5zm0 2c.831 0 1.5.669 1.5 1.5s-.669 1.5-1.5 1.5-1.5-.669-1.5-1.5.669-1.5 1.5-1.5z"/><path d="M120.5 264c-1.939 0-3.5 1.561-3.5 3.5s1.561 3.5 3.5 3.5 3.5-1.561 3.5-3.5-1.561-3.5-3.5-3.5zm0 2c.831 0 1.5.669 1.5 1.5s-.669 1.5-1.5 1.5-1.5-.669-1.5-1.5.669-1.5 1.5-1.5z"/><rect x="111" y="270" width="11" height="8" ry="2"/><path d="M119.75 274.5 125 271v7z"/></g><g transform="translate(-49 -2258)" fill-opacity=".314"><path d="M112.5 264c-1.939 0-3.5 1.561-3.5 3.5s1.561 3.5 3.5 3.5 3.5-1.561 3.5-3.5-1.561-3.5-3.5-3.5zm0 2c.831 0 1.5.669 1.5 1.5s-.669 1.5-1.5 1.5-1.5-.669-1.5-1.5.669-1.5 1.5-1.5z"/><path d="M120.5 264c-1.939 0-3.5 1.561-3.5 3.5s1.561 3.5 3.5 3.5 3.5-1.561 3.5-3.5-1.561-3.5-3.5-3.5zm0 2c.831 0 1.5.669 1.5 1.5s-.669 1.5-1.5 1.5-1.5-.669-1.5-1.5.669-1.5 1.5-1.5z"/><rect x="111" y="270" width="11" height="8" ry="2"/><path d="M119.75 274.5 125 271v7z"/></g><g transform="translate(-49 -2259)" fill="#fff"><path d="M112.5 264c-1.939 0-3.5 1.561-3.5 3.5s1.561 3.5 3.5 3.5 3.5-1.561 3.5-3.5-1.561-3.5-3.5-3.5zm0 2c.831 0 1.5.669 1.5 1.5s-.669 1.5-1.5 1.5-1.5-.669-1.5-1.5.669-1.5 1.5-1.5z"/><path d="M120.5 264c-1.939 0-3.5 1.561-3.5 3.5s1.561 3.5 3.5 3.5 3.5-1.561 3.5-3.5-1.561-3.5-3.5-3.5zm0 2c.831 0 1.5.669 1.5 1.5s-.669 1.5-1.5 1.5-1.5-.669-1.5-1.5.669-1.5 1.5-1.5z"/><rect x="111" y="270" width="11" height="8" ry="2"/><path d="M119.75 274.5 125 271v7z"/></g><g transform="translate(-93 -2255)" fill="#ff793e"><path d="M112.5 264c-1.939 0-3.5 1.561-3.5 3.5s1.561 3.5 3.5 3.5 3.5-1.561 3.5-3.5-1.561-3.5-3.5-3.5zm0 2c.831 0 1.5.669 1.5 1.5s-.669 1.5-1.5 1.5-1.5-.669-1.5-1.5.669-1.5 1.5-1.5z"/><path d="M120.5 264c-1.939 0-3.5 1.561-3.5 3.5s1.561 3.5 3.5 3.5 3.5-1.561 3.5-3.5-1.561-3.5-3.5-3.5zm0 2c.831 0 1.5.669 1.5 1.5s-.669 1.5-1.5 1.5-1.5-.669-1.5-1.5.669-1.5 1.5-1.5z"/><rect x="111" y="270" width="11" height="8" ry="2"/><path d="M119.75 274.5 125 271v7z"/></g><path d="M19.5-1990.5a3 3 0 0 0-3 3 3 3 0 0 0 3 3 3 3 0 0 0 3-3 3 3 0 0 0-3-3zm8 0a3 3 0 0 0-3 3 3 3 0 0 0 3 3 3 3 0 0 0 3-3 3 3 0 0 0-3-3zm-7.5 6c-.831 0-1.5.669-1.5 1.5v4c0 .831.669 1.5 1.5 1.5h7c.831 0 1.5-.669 1.5-1.5v-.938l3 2.004v-5.132l-3 2.003V-1983c0-.831-.669-1.5-1.5-1.5z" fill="none" stroke="#1a1818" stroke-linecap="square" stroke-opacity=".502"/></g><g transform="translate(-312 2744)"><use id="i" transform="translate(0 -320)" width="100%" height="100%" xlink:href="#h"/><path transform="translate(-648 -2364.01)" d="M667 53a2 2 0 0 0-2 2v9a2 2 0 0 0 2 2h10a2 2 0 0 0 2-2v-7a2 2 0 0 0-2-2h-4l-2-2zm6.594 6c1.309 0 2.487.469 3.469 1.188L674.5 63c-.455.5-1.36.506-1.824 0l-2.55-2.781c.984-.727 2.149-1.219 3.468-1.219z" color="#000" fill="#48b9c7" style="text-decoration-line:none;text-indent:0;text-transform:none"/><path d="M19-2310.51h3.793l2 2H29c.831 0 1.5.669 1.5 1.5v7c0 .831-.669 1.5-1.5 1.5H19c-.831 0-1.5-.669-1.5-1.5v-9c0-.831.669-1.5 1.5-1.5z" fill="none" stroke="#000" stroke-linecap="round" stroke-opacity=".392"/><path d="M25.5-2305.935a5.641 5.641 0 0 0-4 1.656l3.273 3.966h.003a1 1 0 0 0 1.445-.003h.002l3.277-3.963a5.641 5.641 0 0 0-4-1.656z" fill="#33302f"/><path d="M59-2319h18c1.108 0 2 .892 2 2v18c0 1.108-.892 2-2 2H59c-1.108 0-2-.892-2-2v-18c0-1.108.892-2 2-2z" fill="#48b9c7"/><path d="M59-2318.5h18c.831 0 1.5.669 1.5 1.5v18c0 .831-.669 1.5-1.5 1.5H59c-.831 0-1.5-.669-1.5-1.5v-18c0-.831.669-1.5 1.5-1.5z" fill="none" stroke="#000" stroke-linecap="round" stroke-opacity=".392"/><path d="M68-2313.86c-2.895 0-5.79 1.105-8 3.313l6.547 7.931h.006a2 2 0 0 0 2.889-.006h.004l6.554-7.926a11.283 11.283 0 0 0-8-3.312z" fill="#33302f"/><path d="M115.996-2315.033a11.34 11.34 0 0 0-4.258.828 11.241 11.241 0 0 0-3.742 2.485l6.55 7.931h.003a2 2 0 0 0 2.889-.005h.004l6.554-7.926a11.309 11.309 0 0 0-2.74-2.02c-.022-.012-.046-.02-.068-.03a11.113 11.113 0 0 0-1.077-.483c-.137-.053-.277-.098-.416-.147a11.1 11.1 0 0 0-2.042-.498c-.146-.02-.292-.047-.438-.062a11.29 11.29 0 0 0-1.219-.072z" fill="#030303" fill-opacity=".318"/><path d="M115.996-2316.023a11.34 11.34 0 0 0-4.258.828 11.241 11.241 0 0 0-3.742 2.485l6.55 7.931h.003a2 2 0 0 0 2.889-.006h.004l6.554-7.925a11.31 11.31 0 0 0-2.74-2.02c-.022-.012-.046-.02-.068-.031-.352-.182-.712-.34-1.076-.482-.138-.054-.278-.099-.417-.147a11.284 11.284 0 0 0-1.246-.353c-.263-.059-.53-.106-.796-.145-.146-.021-.292-.047-.438-.063a11.393 11.393 0 0 0-1.219-.072z" fill="#88d1db"/><path d="M115.996-2313.023a8.678 8.678 0 0 0-6.154 2.547l4.705 5.697h.002a2 2 0 0 0 2.889-.005h.004l4.707-5.694a8.678 8.678 0 0 0-6.153-2.545z" fill="#fff"/><path d="M179.996-2325.545a17.01 17.01 0 0 0-6.387 1.242 16.852 16.852 0 0 0-5.613 3.727l9.826 11.897h.003a2.995 2.995 0 0 0 4.333-.009h.006l9.832-11.89a16.964 16.964 0 0 0-4.11-3.028c-.034-.018-.07-.03-.103-.047a16.834 16.834 0 0 0-1.614-.724c-.206-.08-.416-.147-.624-.22a16.617 16.617 0 0 0-1.87-.53 17.384 17.384 0 0 0-1.195-.217c-.218-.032-.436-.071-.656-.093a16.934 16.934 0 0 0-1.828-.108z" fill="#030303" fill-opacity=".318"/><path d="M179.996-2326.53a17.01 17.01 0 0 0-6.387 1.242 16.862 16.862 0 0 0-5.613 3.726l9.826 11.898h.003a3 3 0 0 0 2.165.923 3 3 0 0 0 2.168-.932h.006l9.832-11.889a16.964 16.964 0 0 0-4.11-3.029c-.033-.017-.069-.03-.102-.047a16.822 16.822 0 0 0-1.615-.723c-.206-.08-.415-.148-.624-.22a16.926 16.926 0 0 0-1.869-.53 17.06 17.06 0 0 0-1.195-.217c-.219-.032-.437-.07-.657-.094a17.09 17.09 0 0 0-1.828-.108z" fill="#88d1db"/><path d="M179.996-2322.03a13.017 13.017 0 0 0-9.231 3.82l7.057 8.546h.003a3 3 0 0 0 2.165.923 3 3 0 0 0 2.168-.932h.006l7.06-8.54a13.017 13.017 0 0 0-9.228-3.817z" fill="#fff"/><path d="M257.002-2334.966c-2.895 0-5.792.553-8.516 1.657a22.479 22.479 0 0 0-7.484 4.968l13.102 15.863h.004a3.993 3.993 0 0 0 5.777-.012h.008l13.11-15.851a22.617 22.617 0 0 0-5.481-4.04c-.045-.023-.092-.04-.137-.061a22.46 22.46 0 0 0-2.152-.965c-.275-.106-.554-.196-.832-.293a22.204 22.204 0 0 0-2.492-.707c-.528-.116-1.06-.21-1.594-.29-.292-.041-.582-.093-.875-.123a22.579 22.579 0 0 0-2.438-.144z" fill="#030303" fill-opacity=".318"/><path d="M257.002-2335.946a22.68 22.68 0 0 0-8.516 1.657 22.483 22.483 0 0 0-7.484 4.968l13.102 15.864h.004a4 4 0 0 0 2.886 1.23 4 4 0 0 0 2.891-1.242h.008l13.11-15.852a22.619 22.619 0 0 0-5.48-4.039c-.046-.023-.093-.04-.138-.062a22.429 22.429 0 0 0-2.152-.965c-.275-.107-.554-.197-.832-.293a22.568 22.568 0 0 0-2.492-.707c-.528-.117-1.06-.21-1.594-.289-.292-.043-.582-.093-.875-.125a22.786 22.786 0 0 0-2.438-.145z" fill="#88d1db"/><path d="M257.002-2329.946c-4.455 0-8.91 1.697-12.309 5.094l9.41 11.395h.005a4 4 0 0 0 2.886 1.23 4 4 0 0 0 2.891-1.242h.008l9.414-11.387a17.356 17.356 0 0 0-12.305-5.09z" fill="#fff"/><path d="M378.004-2374.931a45.361 45.361 0 0 0-17.031 3.312 44.958 44.958 0 0 0-14.969 9.938l26.203 31.726h.008a7.987 7.987 0 0 0 11.555-.023h.016l26.219-31.703a45.235 45.235 0 0 0-10.961-8.078c-.09-.048-.184-.08-.274-.124a44.923 44.923 0 0 0-4.304-1.93c-.55-.212-1.109-.392-1.665-.586a44.394 44.394 0 0 0-4.984-1.414 46.275 46.275 0 0 0-3.187-.578c-.584-.084-1.165-.188-1.75-.248a45.157 45.157 0 0 0-4.875-.288z" fill="#030303" fill-opacity=".318"/><path d="M377.994-2375.931a45.361 45.361 0 0 0-17.031 3.312 44.965 44.965 0 0 0-14.969 9.938l26.203 31.726h.008a8 8 0 0 0 5.774 2.461 8 8 0 0 0 5.781-2.484h.016l26.219-31.703a45.238 45.238 0 0 0-10.961-8.078c-.09-.047-.184-.079-.274-.125a44.857 44.857 0 0 0-4.304-1.93c-.55-.214-1.109-.394-1.664-.586a45.135 45.135 0 0 0-4.985-1.414 45.493 45.493 0 0 0-3.187-.578c-.584-.086-1.165-.187-1.75-.25-1.622-.174-3.246-.289-4.876-.289z" fill="#88d1db"/><path d="M377.994-2363.931c-8.91 0-17.82 3.394-24.617 10.188l18.82 22.789h.008a8 8 0 0 0 5.774 2.46 8 8 0 0 0 5.781-2.484h.016l18.828-22.773c-6.797-6.789-15.703-10.18-24.61-10.18z" fill="#fff"/><path d="M591.999-2453.962a90.734 90.734 0 0 0-34.063 6.625 89.92 89.92 0 0 0-15.75 8.281 90.799 90.799 0 0 0-14.187 11.594l52.406 63.453h.016a16 16 0 0 0 11.547 4.923 15.97 15.97 0 0 0 11.562-4.969h.032L656-2427.461a90.48 90.48 0 0 0-21.922-16.156c-.178-.096-.368-.16-.547-.248-2.812-1.453-5.691-2.722-8.61-3.86-1.098-.424-2.217-.784-3.328-1.171a88.805 88.805 0 0 0-9.969-2.829 92.55 92.55 0 0 0-6.375-1.156c-1.166-.168-2.328-.376-3.5-.496-3.242-.352-6.49-.576-9.75-.576z" fill="#030303" fill-opacity=".318"/><path d="M591.969-2454.882a90.722 90.722 0 0 0-34.062 6.625 89.93 89.93 0 0 0-15.75 8.282 90.855 90.855 0 0 0-14.188 11.593l52.406 63.453h.016a16 16 0 0 0 11.548 4.922 16 16 0 0 0 11.562-4.969h.032l52.438-63.406a90.476 90.476 0 0 0-21.922-16.156c-.178-.094-.368-.158-.547-.25-2.812-1.453-5.691-2.721-8.61-3.86-1.098-.427-2.217-.787-3.328-1.171a90.271 90.271 0 0 0-6.14-1.89 90.604 90.604 0 0 0-3.829-.938 90.985 90.985 0 0 0-6.375-1.157c-1.166-.172-2.328-.373-3.5-.5-3.242-.348-6.49-.578-9.75-.578z" fill="#88d1db"/><path d="M591.969-2430.882c-17.82 0-35.638 6.787-49.234 20.375l37.64 45.579h.016a16 16 0 0 0 11.548 4.921 16 16 0 0 0 11.562-4.968h.032l37.656-45.547c-13.594-13.578-31.406-20.36-49.218-20.36z" fill="#fff"/></g><g transform="translate(-312 2744)"><use id="j" transform="translate(0 -320)" width="100%" height="100%" xlink:href="#i"/><path color="#000" fill="none" d="M16-2632h16v16H16z"/><path d="M59-2639h18c1.108 0 2 .892 2 2v18c0 1.108-.892 2-2 2H59c-1.108 0-2-.892-2-2v-18c0-1.108.892-2 2-2z" fill="#73c48f"/><path d="M59-2638.5h18c.831 0 1.5.669 1.5 1.5v18c0 .831-.669 1.5-1.5 1.5H59c-.831 0-1.5-.669-1.5-1.5v-18c0-.831.669-1.5 1.5-1.5z" fill="none" stroke="#000" stroke-linecap="round" stroke-opacity=".392"/><path d="m24-2630.5-6.5 5h1v8h7v-5h2v5h2v-8h1zm-2.5 8h2v2h-2z" fill="#73c48f" stroke="#1a1818" stroke-opacity=".588"/><path d="m68.5-2635-7 5.996H63v7.004h6v-4.754h3v4.754h2v-7.004h1.5zm-3.5 7.996h2v2h-2z" fill="#33302f"/><path d="m116.5-2636-7 5.996h1.5v7.004h6v-5h3v4.996h2v-7h1.5zm-3.5 7.996h2v2h-2z" fill-opacity=".314"/><path d="m116.5-2637-7 5.996h1.5v7.004h6v-5h3v5h2v-7.004h1.5zm-3.5 7.996h2v2h-2z" fill="#fff"/><path d="m180.25-2645.99-10.25 8.988 2 .006v10h9v-7h4v6.994h3v-9.994h2zm-5.25 11.994h3v3h-3z" fill-opacity=".314"/><path d="m180.25-2646.99-10.25 8.994h2v10h9v-7h4v7h3v-10h2zm-5.25 11.994h3v3h-3z" fill="#fff"/><path d="m257-2656-14 11.992h3V-2630l12-.01v-9.99h6v9.99l4 .01v-14.008h3zm-7 15.992h4v4h-4z" fill-opacity=".314"/><path d="m257-2657-14 11.992h3V-2631l12-.01v-9.99h6v9.99l4 .01v-14.008h3zm-7 15.992h4v4h-4z" fill="#fff"/><path d="m378-2697-28 23.984h6V-2645l24-.016V-2665h12v19.984l8 .016v-28.016h6zm-14 31.984h8v8h-8z" fill-opacity=".314"/><path d="m378-2698-28 23.984h6V-2646l24-.016V-2666h12v19.984l8 .016v-28.016h6zm-14 31.984h8v8h-8z" fill="#fff"/><path d="m592-2777.5-56 47.969h12v56.031l48-.031v-39.969h24v39.969l16 .031v-56.031h12zm-28 63.969h16v16h-16z" fill-opacity=".314"/><path d="m592-2779.5-56 47.969h12v56.031l48-.031v-39.969h24v39.969l16 .031v-56.031h12zm-28 63.969h16v16h-16z" fill="#fff"/></g><g transform="translate(-312 2744)"><use transform="translate(0 -320)" width="100%" height="100%" xlink:href="#j"/><g transform="translate(-668 -2894)"><rect x="686" y="-56" width="12" height="12" ry="2" fill="#ffce51" stroke="#a27100" stroke-linecap="round" stroke-width="2"/><path d="M691-54v4l4 2.31" fill="none" stroke="#33302f" stroke-width="2"/><rect x="689" y="-58" width="6" height="1" ry="0" fill="#a27100"/><rect x="689" y="-43" width="6" height="1" ry="0" fill="#a27100"/></g><g fill="#ffce51"><path d="M59-2959h18c1.108 0 2 .892 2 2v18c0 1.108-.892 2-2 2H59c-1.108 0-2-.892-2-2v-18c0-1.108.892-2 2-2z"/><path d="M59-2958.5h18c.831 0 1.5.669 1.5 1.5v18c0 .831-.669 1.5-1.5 1.5H59c-.831 0-1.5-.669-1.5-1.5v-18c0-.831.669-1.5 1.5-1.5z" stroke="#000" stroke-linecap="round" stroke-opacity=".392"/></g><g transform="translate(-624 -2898)"><rect x="686" y="-56" width="12" height="12" ry="2" fill="none" stroke="#33302f" stroke-linecap="round" stroke-width="2"/><path d="M691-54v4l4 2.31" fill="none" stroke="#33302f" stroke-width="2"/><rect x="689" y="-58" width="6" height="1" ry="0" fill="#33302f"/><rect x="689" y="-43" width="6" height="1" ry="0" fill="#33302f"/></g><g transform="translate(-576 -2899)" fill-opacity=".314"><path d="M688-57c-1.645 0-3 1.355-3 3v8c0 1.645 1.355 3 3 3h8c1.645 0 3-1.355 3-3v-8c0-1.645-1.355-3-3-3zm0 2h8c.571 0 1 .429 1 1v8c0 .571-.429 1-1 1h-8c-.571 0-1-.429-1-1v-8c0-.571.429-1 1-1z" color="#000" style="font-feature-settings:normal;font-variant-alternates:normal;font-variant-caps:normal;font-variant-ligatures:normal;font-variant-numeric:normal;font-variant-position:normal;isolation:auto;mix-blend-mode:normal;shape-padding:0;text-decoration-color:#000;text-decoration-line:none;text-decoration-style:solid;text-indent:0;text-orientation:mixed;text-transform:none;white-space:normal"/><path d="M690-54v4.578l4.5 2.598 1-1.733-3.5-2.021V-54z" color="#000" style="font-feature-settings:normal;font-variant-alternates:normal;font-variant-caps:normal;font-variant-ligatures:normal;font-variant-numeric:normal;font-variant-position:normal;isolation:auto;mix-blend-mode:normal;shape-padding:0;text-decoration-color:#000;text-decoration-line:none;text-decoration-style:solid;text-indent:0;text-orientation:mixed;text-transform:none;white-space:normal"/><rect x="689" y="-58" width="6" height="1" ry="0"/><rect x="689" y="-43" width="6" height="1" ry="0"/></g><g transform="translate(-576 -2900)" fill="#fff"><path d="M688-57c-1.645 0-3 1.355-3 3v8c0 1.645 1.355 3 3 3h8c1.645 0 3-1.355 3-3v-8c0-1.645-1.355-3-3-3zm0 2h8c.571 0 1 .429 1 1v8c0 .571-.429 1-1 1h-8c-.571 0-1-.429-1-1v-8c0-.571.429-1 1-1z" color="#000" style="font-feature-settings:normal;font-variant-alternates:normal;font-variant-caps:normal;font-variant-ligatures:normal;font-variant-numeric:normal;font-variant-position:normal;isolation:auto;mix-blend-mode:normal;shape-padding:0;text-decoration-color:#000;text-decoration-line:none;text-decoration-style:solid;text-indent:0;text-orientation:mixed;text-transform:none;white-space:normal"/><path d="M690-54v4.578l4.5 2.598 1-1.733-3.5-2.021V-54z" color="#000" style="font-feature-settings:normal;font-variant-alternates:normal;font-variant-caps:normal;font-variant-ligatures:normal;font-variant-numeric:normal;font-variant-position:normal;isolation:auto;mix-blend-mode:normal;shape-padding:0;text-decoration-color:#000;text-decoration-line:none;text-decoration-style:solid;text-indent:0;text-orientation:mixed;text-transform:none;white-space:normal"/><rect x="689" y="-58" width="6" height="1" ry="0"/><rect x="689" y="-43" width="6" height="1" ry="0"/></g><g transform="matrix(1.5 0 0 1.5 -857.5 -2881.5)" fill-opacity=".314"><path d="M688-57c-1.645 0-3 1.355-3 3v8c0 1.645 1.355 3 3 3h8c1.645 0 3-1.355 3-3v-8c0-1.645-1.355-3-3-3zm0 2h8c.571 0 1 .429 1 1v8c0 .571-.429 1-1 1h-8c-.571 0-1-.429-1-1v-8c0-.571.429-1 1-1z" color="#000" style="font-feature-settings:normal;font-variant-alternates:normal;font-variant-caps:normal;font-variant-ligatures:normal;font-variant-numeric:normal;font-variant-position:normal;isolation:auto;mix-blend-mode:normal;shape-padding:0;text-decoration-color:#000;text-decoration-line:none;text-decoration-style:solid;text-indent:0;text-orientation:mixed;text-transform:none;white-space:normal"/><path d="M690.33-53.667v4.578l4.5 2.598 1-1.733-3.5-2.021v-3.422z" color="#000" style="font-feature-settings:normal;font-variant-alternates:normal;font-variant-caps:normal;font-variant-ligatures:normal;font-variant-numeric:normal;font-variant-position:normal;isolation:auto;mix-blend-mode:normal;shape-padding:0;text-decoration-color:#000;text-decoration-line:none;text-decoration-style:solid;text-indent:0;text-orientation:mixed;text-transform:none;white-space:normal"/><rect x="689" y="-58" width="6" height="1" ry="0"/><rect x="689" y="-43" width="6" height="1.333" ry="0"/></g><g transform="matrix(1.5 0 0 1.5 -857.5 -2882.5)" fill="#fff"><path d="M688-57c-1.645 0-3 1.355-3 3v8c0 1.645 1.355 3 3 3h8c1.645 0 3-1.355 3-3v-8c0-1.645-1.355-3-3-3zm0 2h8c.571 0 1 .429 1 1v8c0 .571-.429 1-1 1h-8c-.571 0-1-.429-1-1v-8c0-.571.429-1 1-1z" color="#000" style="font-feature-settings:normal;font-variant-alternates:normal;font-variant-caps:normal;font-variant-ligatures:normal;font-variant-numeric:normal;font-variant-position:normal;isolation:auto;mix-blend-mode:normal;shape-padding:0;text-decoration-color:#000;text-decoration-line:none;text-decoration-style:solid;text-indent:0;text-orientation:mixed;text-transform:none;white-space:normal"/><path d="M690.33-53.667v4.578l4.5 2.598 1-1.733-3.5-2.021v-3.422z" color="#000" style="font-feature-settings:normal;font-variant-alternates:normal;font-variant-caps:normal;font-variant-ligatures:normal;font-variant-numeric:normal;font-variant-position:normal;isolation:auto;mix-blend-mode:normal;shape-padding:0;text-decoration-color:#000;text-decoration-line:none;text-decoration-style:solid;text-indent:0;text-orientation:mixed;text-transform:none;white-space:normal"/><rect x="689" y="-58.333" width="6" height="1.333" ry="0"/><rect x="689" y="-43" width="6" height="1.333" ry="0"/></g><g transform="matrix(2 0 0 2 -1127 -2863)" fill-opacity=".314"><path d="M688-57c-1.645 0-3 1.355-3 3v8c0 1.645 1.355 3 3 3h8c1.645 0 3-1.355 3-3v-8c0-1.645-1.355-3-3-3zm0 2h8c.571 0 1 .429 1 1v8c0 .571-.429 1-1 1h-8c-.571 0-1-.429-1-1v-8c0-.571.429-1 1-1z" color="#000" style="font-feature-settings:normal;font-variant-alternates:normal;font-variant-caps:normal;font-variant-ligatures:normal;font-variant-numeric:normal;font-variant-position:normal;isolation:auto;mix-blend-mode:normal;shape-padding:0;text-decoration-color:#000;text-decoration-line:none;text-decoration-style:solid;text-indent:0;text-orientation:mixed;text-transform:none;white-space:normal"/><path d="M690-54v4.578l4.5 2.598 1-1.733-3.5-2.021V-54z" color="#000" style="font-feature-settings:normal;font-variant-alternates:normal;font-variant-caps:normal;font-variant-ligatures:normal;font-variant-numeric:normal;font-variant-position:normal;isolation:auto;mix-blend-mode:normal;shape-padding:0;text-decoration-color:#000;text-decoration-line:none;text-decoration-style:solid;text-indent:0;text-orientation:mixed;text-transform:none;white-space:normal"/><rect x="689" y="-58" width="6" height="1" ry="0"/><rect x="689" y="-43" width="6" height="1" ry="0"/></g><g transform="matrix(2 0 0 2 -1127 -2864)" fill="#fff"><path d="M688-57c-1.645 0-3 1.355-3 3v8c0 1.645 1.355 3 3 3h8c1.645 0 3-1.355 3-3v-8c0-1.645-1.355-3-3-3zm0 2h8c.571 0 1 .429 1 1v8c0 .571-.429 1-1 1h-8c-.571 0-1-.429-1-1v-8c0-.571.429-1 1-1z" color="#000" style="font-feature-settings:normal;font-variant-alternates:normal;font-variant-caps:normal;font-variant-ligatures:normal;font-variant-numeric:normal;font-variant-position:normal;isolation:auto;mix-blend-mode:normal;shape-padding:0;text-decoration-color:#000;text-decoration-line:none;text-decoration-style:solid;text-indent:0;text-orientation:mixed;text-transform:none;white-space:normal"/><path d="M690-54v4.578l4.5 2.598 1-1.733-3.5-2.021V-54z" color="#000" style="font-feature-settings:normal;font-variant-alternates:normal;font-variant-caps:normal;font-variant-ligatures:normal;font-variant-numeric:normal;font-variant-position:normal;isolation:auto;mix-blend-mode:normal;shape-padding:0;text-decoration-color:#000;text-decoration-line:none;text-decoration-style:solid;text-indent:0;text-orientation:mixed;text-transform:none;white-space:normal"/><rect x="689" y="-58" width="6" height="1" ry="0"/><rect x="689" y="-43" width="6" height="1" ry="0"/></g><g transform="matrix(4 0 0 4 -2390 -2791)" fill-opacity=".314"><path d="M688-57c-1.645 0-3 1.355-3 3v8c0 1.645 1.355 3 3 3h8c1.645 0 3-1.355 3-3v-8c0-1.645-1.355-3-3-3zm0 2h8c.571 0 1 .429 1 1v8c0 .571-.429 1-1 1h-8c-.571 0-1-.429-1-1v-8c0-.571.429-1 1-1z" color="#000" style="font-feature-settings:normal;font-variant-alternates:normal;font-variant-caps:normal;font-variant-ligatures:normal;font-variant-numeric:normal;font-variant-position:normal;isolation:auto;mix-blend-mode:normal;shape-padding:0;text-decoration-color:#000;text-decoration-line:none;text-decoration-style:solid;text-indent:0;text-orientation:mixed;text-transform:none;white-space:normal"/><path d="M690-54v4.578l4.5 2.598 1-1.733-3.5-2.021V-54z" color="#000" style="font-feature-settings:normal;font-variant-alternates:normal;font-variant-caps:normal;font-variant-ligatures:normal;font-variant-numeric:normal;font-variant-position:normal;isolation:auto;mix-blend-mode:normal;shape-padding:0;text-decoration-color:#000;text-decoration-line:none;text-decoration-style:solid;text-indent:0;text-orientation:mixed;text-transform:none;white-space:normal"/><rect x="689" y="-58" width="6" height="1" ry="0"/><rect x="689" y="-43" width="6" height="1" ry="0"/></g><g transform="matrix(4 0 0 4 -2390 -2792)" fill="#fff"><path d="M688-57c-1.645 0-3 1.355-3 3v8c0 1.645 1.355 3 3 3h8c1.645 0 3-1.355 3-3v-8c0-1.645-1.355-3-3-3zm0 2h8c.571 0 1 .429 1 1v8c0 .571-.429 1-1 1h-8c-.571 0-1-.429-1-1v-8c0-.571.429-1 1-1z" color="#000" style="font-feature-settings:normal;font-variant-alternates:normal;font-variant-caps:normal;font-variant-ligatures:normal;font-variant-numeric:normal;font-variant-position:normal;isolation:auto;mix-blend-mode:normal;shape-padding:0;text-decoration-color:#000;text-decoration-line:none;text-decoration-style:solid;text-indent:0;text-orientation:mixed;text-transform:none;white-space:normal"/><path d="M690-54v4.578l4.5 2.598 1-1.733-3.5-2.021V-54z" color="#000" style="font-feature-settings:normal;font-variant-alternates:normal;font-variant-caps:normal;font-variant-ligatures:normal;font-variant-numeric:normal;font-variant-position:normal;isolation:auto;mix-blend-mode:normal;shape-padding:0;text-decoration-color:#000;text-decoration-line:none;text-decoration-style:solid;text-indent:0;text-orientation:mixed;text-transform:none;white-space:normal"/><rect x="689" y="-58" width="6" height="1" ry="0"/><rect x="689" y="-43" width="6" height="1" ry="0"/></g><g transform="matrix(8 0 0 8 -4944 -2645)" fill-opacity=".314"><path d="M688-57c-1.645 0-3 1.355-3 3v8c0 1.645 1.355 3 3 3h8c1.645 0 3-1.355 3-3v-8c0-1.645-1.355-3-3-3zm0 2h8c.571 0 1 .429 1 1v8c0 .571-.429 1-1 1h-8c-.571 0-1-.429-1-1v-8c0-.571.429-1 1-1z" color="#000" style="font-feature-settings:normal;font-variant-alternates:normal;font-variant-caps:normal;font-variant-ligatures:normal;font-variant-numeric:normal;font-variant-position:normal;isolation:auto;mix-blend-mode:normal;shape-padding:0;text-decoration-color:#000;text-decoration-line:none;text-decoration-style:solid;text-indent:0;text-orientation:mixed;text-transform:none;white-space:normal"/><path d="M690-54v4.578l4.5 2.598 1-1.733-3.5-2.021V-54z" color="#000" style="font-feature-settings:normal;font-variant-alternates:normal;font-variant-caps:normal;font-variant-ligatures:normal;font-variant-numeric:normal;font-variant-position:normal;isolation:auto;mix-blend-mode:normal;shape-padding:0;text-decoration-color:#000;text-decoration-line:none;text-decoration-style:solid;text-indent:0;text-orientation:mixed;text-transform:none;white-space:normal"/><rect x="689" y="-58" width="6" height="1" ry="0"/><rect x="689" y="-43" width="6" height="1" ry="0"/></g><g transform="matrix(8 0 0 8 -4944 -2647)" fill="#fff"><path d="M688-57c-1.645 0-3 1.355-3 3v8c0 1.645 1.355 3 3 3h8c1.645 0 3-1.355 3-3v-8c0-1.645-1.355-3-3-3zm0 2h8c.571 0 1 .429 1 1v8c0 .571-.429 1-1 1h-8c-.571 0-1-.429-1-1v-8c0-.571.429-1 1-1z" color="#000" style="font-feature-settings:normal;font-variant-alternates:normal;font-variant-caps:normal;font-variant-ligatures:normal;font-variant-numeric:normal;font-variant-position:normal;isolation:auto;mix-blend-mode:normal;shape-padding:0;text-decoration-color:#000;text-decoration-line:none;text-decoration-style:solid;text-indent:0;text-orientation:mixed;text-transform:none;white-space:normal"/><path d="M690-54v4.578l4.5 2.598 1-1.733-3.5-2.021V-54z" color="#000" style="font-feature-settings:normal;font-variant-alternates:normal;font-variant-caps:normal;font-variant-ligatures:normal;font-variant-numeric:normal;font-variant-position:normal;isolation:auto;mix-blend-mode:normal;shape-padding:0;text-decoration-color:#000;text-decoration-line:none;text-decoration-style:solid;text-indent:0;text-orientation:mixed;text-transform:none;white-space:normal"/><rect x="689" y="-58" width="6" height="1" ry="0"/><rect x="689" y="-43" width="6" height="1" ry="0"/></g></g><use transform="translate(-312 2124)" width="100%" height="100%" xlink:href="#j"/></svg>