<svg version="1.0" viewBox="0 0 128 128" xmlns="http://www.w3.org/2000/svg"><path d="M28 8c-4.432 0-8.353 3.582-8 8l8 100c18 10 54 10 72 0l8-100c.353-4.418-3.568-8-8-8z" fill="#898989"/><path d="M28 8c-4.432 0-8.353 3.582-8 8l8 100c18 10 54 10 72 0l8-100c.353-4.418-3.568-8-8-8zm0 1h72c3.878 0 7 3.122 7 7l-8 96c-18 10-52 10-70 0l-8-96c0-3.878 3.122-7 7-7z" fill-opacity=".5"/><g stroke-width=".5"><path d="m46 46-10-8 10-14 6 6 14-12 20 8 8 14-16 8 2 16-14 6-6-10-18 4-6-10z" fill="#ededed"/><path d="m52 30 11 11 7 11" fill="none" stroke="#898989" stroke-width="1"/></g><g stroke-width=".5"><path d="m59.122 60.535 6.376-11.106 15.365 7.741-5.012 6.848 14 12-4.847 20.988-12.612 10.047L62.04 92.465l-15.506 4.423-8.07-12.917 8.964-7.46-6.706-17.176 8.965-7.459z" fill="#ededed"/><path d="M75.851 64.018 66.663 76.57l-9.8 8.6" fill="none" stroke="#898989" stroke-width="1"/></g></svg>