<svg version="1.0" viewBox="0 0 128 128" xmlns="http://www.w3.org/2000/svg"><path d="M20 12h34l12 12h46c4.432 0 8 3.568 8 8v78c0 4.432-3.568 8-8 8H20c-4.432 0-8-3.568-8-8V20c0-4.432 3.568-8 8-8z" fill="#48b9c7"/><path d="M20 12c-4.432 0-8 3.568-8 8v90c0 4.432 3.568 8 8 8h92c4.432 0 8-3.568 8-8V32c0-4.432-3.568-8-8-8H66L54 12zm0 16h92c3.878 0 7 3.122 7 7v72c0 3.878-3.122 7-7 7H20c-3.878 0-7-3.122-7-7V35c0-3.878 3.122-7 7-7z" fill-opacity=".25"/><path d="M20 27c-4.432 0-8 3.568-8 8v75c0 4.432 3.568 8 8 8h92c4.432 0 8-3.568 8-8V35c0-4.432-3.568-8-8-8zm0 1h92c3.878 0 7 3.122 7 7v72c0 3.878-3.122 7-7 7H20c-3.878 0-7-3.122-7-7V35c0-3.878 3.122-7 7-7z" fill-opacity=".25"/><g fill="#fff"><path d="M94 51c0-2.216-1.784-4-4-4H42c-2.216 0-4 1.784-4 4v4h56z"/><path d="M38 91c0 2.216 1.784 4 4 4h48c2.216 0 4-1.784 4-4V51H38z" opacity=".5"/></g></svg>