<svg version="1.0" viewBox="0 0 64 64" xmlns="http://www.w3.org/2000/svg"><g transform="translate(-258 -220)"><rect x="260" y="222" width="60" height="62" ry="30" fill="#f15d22"/><path d="M290 222c-16.62 0-30 13.38-30 30v2c0 16.62 13.38 30 30 30s30-13.38 30-30v-2c0-16.62-13.38-30-30-30zm0 1a29 29 0 0 1 29 29 29 29 0 0 1-29 29 29 29 0 0 1-29-29 29 29 0 0 1 29-29z" fill-opacity=".502"/><rect x="286" y="243" width="10" height="20" ry=".5" fill="#cf3b00"/><path d="M290 239c-7.732 0-14 6.268-14 14s6.268 14 14 14 14-6.268 14-14-6.268-14-14-14zm-2 6h4v6l-.5 4h-2.938l-.562-4zm2 11.5a2.5 2.5 0 1 1 0 5 2.5 2.5 0 0 1 0-5z" fill="#fff"/></g></svg>