<svg version="1.0" viewBox="0 0 64 64" xmlns="http://www.w3.org/2000/svg"><g transform="translate(-258 -220)"><rect transform="matrix(0 -1 -1 0 0 0)" x="-284" y="-66" width="16" height="16" rx="8" ry="8" fill="#ededed"/><rect transform="matrix(0 -1 -1 0 0 0)" x="-284" y="-24" width="8" height="8" rx="1" ry="1" fill="#ededed"/><circle cx="102" cy="272" r="12" fill="#ededed"/><rect x="192" y="238" width="44" height="46" ry="22" fill="#ededed"/><rect x="135" y="253" width="30" height="31" ry="15" fill="#ededed"/><path d="M150 253c-8.31 0-15 6.69-15 15v1c0 8.31 6.69 15 15 15s15-6.69 15-15v-1c0-8.31-6.69-15-15-15zm0 1a14 14 0 0 1 14 14 14 14 0 0 1-14 14 14 14 0 0 1-14-14 14 14 0 0 1 14-14z" fill-opacity=".502"/><rect x="260" y="222" width="60" height="62" ry="30" fill="#ededed"/><path d="M290 222c-16.62 0-30 13.38-30 30v2c0 16.62 13.38 30 30 30s30-13.38 30-30v-2c0-16.62-13.38-30-30-30zm0 1a29 29 0 0 1 29 29 29 29 0 0 1-29 29 29 29 0 0 1-29-29 29 29 0 0 1 29-29z" fill-opacity=".502"/><rect x="16.5" y="276.5" width="7" height="7" ry=".5" fill="none" stroke="#000" stroke-linecap="square" stroke-opacity=".502"/><rect x="50.5" y="268.5" width="15" height="15" ry="7.5" fill="none" stroke="#000" stroke-linecap="square" stroke-opacity=".502"/><rect x="90.5" y="260.5" width="23" height="23" ry="11.478" fill="none" stroke="#000" stroke-linecap="square" stroke-opacity=".502"/><path d="M214 238c-12.188 0-22 9.812-22 22v2c0 12.188 9.812 22 22 22s22-9.812 22-22v-2c0-12.188-9.812-22-22-22zm0 1a21 21 0 0 1 21 21 21 21 0 0 1-21 21 21 21 0 0 1-21-21 21 21 0 0 1 21-21z" fill-opacity=".502"/><g fill="#474341"><path d="M100.964 263.996c-1 0-1.82.736-1.969 1.694v.306h3.406l4.594 4.594c.003 1.8-.002 3.602 0 5.402a1.998 1.998 0 0 0 1.969-1.996v-5a2 2 0 0 0-.55-1.379l-2.97-2.968c-.376-.387-.94-.653-1.48-.653h-3z"/><path d="M97.964 266.996c-1 0-1.82.736-1.969 1.694v8.613c.149.958.97 1.693 1.969 1.693h6a2 2 0 0 0 2-2v-5a2 2 0 0 0-.55-1.378l-2.97-2.97c-.376-.386-.94-.652-1.48-.652z"/></g><g fill="#474341"><path d="M148.964 260.996c-1 0-1.82.736-1.969 1.694v.306h3.407l4.593 4.594c.003 1.8-.002 3.602 0 5.402a1.998 1.998 0 0 0 1.97-1.996v-5a2 2 0 0 0-.552-1.379l-2.968-2.968c-.377-.387-.94-.653-1.48-.653h-3z"/><path d="M145.964 263.996c-1 0-1.82.736-1.969 1.694v8.613c.15.958.97 1.693 1.97 1.693h6a2 2 0 0 0 2-2v-5a2 2 0 0 0-.552-1.378l-2.968-2.97c-.377-.386-.94-.652-1.48-.652z"/></g><g fill="#474341"><path d="M286.96 237.99c-1.999 0-3.64 1.471-3.938 3.387v.613h6.813l9.187 9.188c.006 3.601-.004 7.203 0 10.804a3.995 3.995 0 0 0 3.938-3.992v-10a4 4 0 0 0-1.102-2.758l-5.937-5.937c-.753-.774-1.881-1.305-2.961-1.305h-6z"/><path d="M280.96 243.99c-1.999 0-3.64 1.471-3.938 3.387v17.226c.298 1.916 1.94 3.387 3.938 3.387h12a4 4 0 0 0 4-4v-10a4 4 0 0 0-1.102-2.758l-5.937-5.937c-.753-.774-1.881-1.305-2.961-1.305z"/></g><g fill="#474341"><path d="M211.956 248.995a2.993 2.993 0 0 0-2.953 2.54v.46h5.11l6.89 6.89c.004 2.702-.003 5.403 0 8.104a2.997 2.997 0 0 0 2.953-2.994v-7.5a3 3 0 0 0-.826-2.068l-4.453-4.453c-.565-.581-1.411-.979-2.221-.979h-4.5z"/><path d="M206.946 253.99a2.993 2.993 0 0 0-2.953 2.54v12.92a2.993 2.993 0 0 0 2.953 2.54h9a3 3 0 0 0 3-3v-7.5a3 3 0 0 0-.826-2.068l-4.453-4.453c-.565-.58-1.411-.979-2.221-.979z"/></g><path d="M55 271h3.005L62 275.02V280c0 .554-.446 1-1 1h-6c-.554 0-1-.446-1-1v-8c0-.554.446-1 1-1z" fill="#474341"/><path d="M18.5 278H20l2 2v1.5c0 .277-.223.5-.5.5h-3a.499.499 0 0 1-.5-.5v-3c0-.277.223-.5.5-.5z" fill="#474341"/></g></svg>