<svg version="1.0" viewBox="0 0 64 64" xmlns="http://www.w3.org/2000/svg"><g transform="translate(-258 -220)"><rect x="260" y="222" width="60" height="62" ry="30" fill="#ffce51"/><path d="M290 222c-16.62 0-30 13.38-30 30v2c0 16.62 13.38 30 30 30s30-13.38 30-30v-2c0-16.62-13.38-30-30-30zm0 1a29 29 0 0 1 29 29 29 29 0 0 1-29 29 29 29 0 0 1-29-29 29 29 0 0 1 29-29z" fill-opacity=".502"/><path d="M278 241c-2.216 0-4 1.784-4 4v16c0 2.216 1.784 4 4 4h24c2.216 0 4-1.784 4-4v-16c0-2.216-1.784-4-4-4zm0 4 12 6 12-6v4l-12 6-12-6zm4 7.992 2.5 1.278-6.5 6.722v-4zm16 0 4 4v4l-6.5-6.722z" fill="#474341"/></g></svg>