<svg version="1.0" viewBox="0 0 64 64" xmlns="http://www.w3.org/2000/svg"><g transform="translate(-258 -220)"><rect x="260" y="222" width="60" height="62" ry="30" fill="#3f51b5"/><path d="M290 222c-16.62 0-30 13.38-30 30v2c0 16.62 13.38 30 30 30s30-13.38 30-30v-2c0-16.62-13.38-30-30-30zm0 1a29 29 0 0 1 29 29 29 29 0 0 1-29 29 29 29 0 0 1-29-29 29 29 0 0 1 29-29z" fill-opacity=".502"/><path d="M298 237a6 6 0 0 0-6 6c0 .463.088.88.187 1.313l-6.437 4A5.978 5.978 0 0 0 282 247a6 6 0 0 0 0 12c1.418 0 2.723-.49 3.75-1.313l6.438 4c-.1.433-.188.85-.188 1.313a6 6 0 1 0 6-6c-1.418 0-2.723.49-3.75 1.313l-6.437-4c.099-.433.187-.85.187-1.313s-.088-.88-.187-1.313l6.437-4A5.978 5.978 0 0 0 298 249a6 6 0 0 0 0-12z" fill="#fff"/></g></svg>