<svg version="1.0" viewBox="0 0 64 64" xmlns="http://www.w3.org/2000/svg"><g transform="translate(-258 -220)"><rect x="260" y="222" width="60" height="62" ry="30" fill="#ededed"/><path d="M290 222c-16.62 0-30 13.38-30 30v2c0 16.62 13.38 30 30 30s30-13.38 30-30v-2c0-16.62-13.38-30-30-30zm0 1a29 29 0 0 1 29 29 29 29 0 0 1-29 29 29 29 0 0 1-29-29 29 29 0 0 1 29-29z" fill-opacity=".502"/><g fill="#474341"><path d="M286.96 237.99c-1.999 0-3.64 1.471-3.938 3.387v.613h6.813l9.187 9.188c.006 3.601-.004 7.203 0 10.804a3.995 3.995 0 0 0 3.938-3.992v-10a4 4 0 0 0-1.102-2.758l-5.937-5.937c-.753-.774-1.881-1.305-2.961-1.305h-6z"/><path d="M280.96 243.99c-1.999 0-3.64 1.471-3.938 3.387v17.226c.298 1.916 1.94 3.387 3.938 3.387h12a4 4 0 0 0 4-4v-10a4 4 0 0 0-1.102-2.758l-5.937-5.937c-.753-.774-1.881-1.305-2.961-1.305z"/></g></g></svg>