<svg version="1.0" viewBox="0 0 64 64" xmlns="http://www.w3.org/2000/svg"><g transform="translate(-258 -220)"><rect x="260" y="222" width="60" height="62" ry="30" fill="#cf3b00"/><path d="M290 222c-16.62 0-30 13.38-30 30v2c0 16.62 13.38 30 30 30s30-13.38 30-30v-2c0-16.62-13.38-30-30-30zm0 1a29 29 0 0 1 29 29 29 29 0 0 1-29 29 29 29 0 0 1-29-29 29 29 0 0 1 29-29z" fill-opacity=".502"/><path d="M281 241a3 3 0 0 0-3 3 3 3 0 0 0 .879 2.121l6.879 6.879-6.88 6.879A3 3 0 0 0 278 262a3 3 0 0 0 3 3 3 3 0 0 0 2.121-.879l6.879-6.879 6.85 6.85A3 3 0 0 0 299 265a3 3 0 0 0 3-3 3 3 0 0 0-.879-2.121L294.242 253l6.85-6.85A3 3 0 0 0 302 244a3 3 0 0 0-3-3 3 3 0 0 0-2.121.879L290 248.758l-6.85-6.85a3 3 0 0 0-.03-.03A3 3 0 0 0 281 241z" fill="#fff"/></g></svg>