<svg version="1.0" viewBox="0 0 64 64" xmlns="http://www.w3.org/2000/svg"><g transform="translate(-258 -220)"><rect x="260" y="222" width="60" height="62" ry="30" fill="#cf3b00"/><path d="M290 222c-16.62 0-30 13.38-30 30v2c0 16.62 13.38 30 30 30s30-13.38 30-30v-2c0-16.62-13.38-30-30-30zm0 1a29 29 0 0 1 29 29 29 29 0 0 1-29 29 29 29 0 0 1-29-29 29 29 0 0 1 29-29z" fill-opacity=".502"/><path d="M283.56 241c-4.164 0-7.563 3.35-7.563 7.5 0 2.16.912 4.13 2.375 5.5l11.438 11 11.812-11a7.53 7.53 0 0 0 2.375-5.5c0-4.15-3.398-7.5-7.562-7.5a7.482 7.482 0 0 0-6.438 3.625A7.482 7.482 0 0 0 283.56 241z" fill="#fff"/></g></svg>