<svg version="1.0" viewBox="0 0 64 64" xmlns="http://www.w3.org/2000/svg"><g transform="translate(-258 -220)"><rect x="260" y="222" width="60" height="62" ry="30" fill="#574f4a"/><path d="M290 222c-16.62 0-30 13.38-30 30v2c0 16.62 13.38 30 30 30s30-13.38 30-30v-2c0-16.62-13.38-30-30-30zm0 1a29 29 0 0 1 29 29 29 29 0 0 1-29 29 29 29 0 0 1-29-29 29 29 0 0 1 29-29z" fill-opacity=".502"/><path d="m286.5 239-.309 3.688a11 11 0 0 0-3.214 1.859l-3.352-1.578-3.5 6.062 3.043 2.114A11 11 0 0 0 279 253a11 11 0 0 0 .16 1.863l-3.035 2.106 3.5 6.062 3.344-1.574a11 11 0 0 0 3.222 1.848L286.5 267h7l.309-3.687a11 11 0 0 0 3.214-1.86l3.352 1.578 3.5-6.062-3.043-2.114A11 11 0 0 0 301 253a11 11 0 0 0-.16-1.863l3.035-2.106-3.5-6.062-3.344 1.574a11 11 0 0 0-3.222-1.848L293.5 239zm3.5 10a4 4 0 0 1 4 4 4 4 0 0 1-4 4 4 4 0 0 1-4-4 4 4 0 0 1 4-4z" fill="#fff"/></g></svg>