<svg version="1.0" viewBox="0 0 64 64" xmlns="http://www.w3.org/2000/svg"><g transform="translate(-258 -220)"><rect x="260" y="222" width="60" height="62" ry="30" fill="#73c48f"/><path d="M290 222c-16.62 0-30 13.38-30 30v2c0 16.62 13.38 30 30 30s30-13.38 30-30v-2c0-16.62-13.38-30-30-30zm0 1a29 29 0 0 1 29 29 29 29 0 0 1-29 29 29 29 0 0 1-29-29 29 29 0 0 1 29-29z" fill-opacity=".502"/><path d="M306 253h-4c0-5.525-3.73-10.167-8.813-11.562-.063-.018-.124-.046-.187-.062-.51-.131-1.028-.187-1.562-.25-.467-.056-.957-.125-1.438-.125-1.233 0-2.458.19-3.625.562v.063c-1.683.534-3.227 1.388-4.5 2.562l2.375 3.188c1.004-1.027 2.316-1.693 3.75-2.063v-.062a8.037 8.037 0 0 1 2.375-.188c.364.026.699.057 1.063.125 3.734.676 6.562 3.884 6.562 7.813h-4l6 8 6-8zm-7.875 8.813-2.375-3.188c-1.004 1.026-2.316 1.693-3.75 2.063v.062c-.76.179-1.58.243-2.375.187a9.119 9.119 0 0 1-1.063-.125C284.829 260.137 282 256.93 282 253h4l-6-8-6 8h4c0 5.525 3.73 10.167 8.813 11.562.064.018.122.046.187.062.51.131 1.028.187 1.562.25.467.055.957.125 1.438.125a11.971 11.971 0 0 0 3.625-.562v-.063c1.683-.534 3.227-1.388 4.5-2.562z" fill="#474341"/></g></svg>