<svg version="1.0" viewBox="0 0 64 64" xmlns="http://www.w3.org/2000/svg"><g transform="translate(-258 -220)"><rect x="260" y="222" width="60" height="62" ry="30" fill="#3f51b5"/><path d="M290 222c-16.62 0-30 13.38-30 30v2c0 16.62 13.38 30 30 30s30-13.38 30-30v-2c0-16.62-13.38-30-30-30zm0 1a29 29 0 0 1 29 29 29 29 0 0 1-29 29 29 29 0 0 1-29-29 29 29 0 0 1 29-29z" fill-opacity=".502"/><g fill="#fcfcfd"><path d="M294.001 237v12h5l-9 14-9-14h5v-12z"/><path d="M280.001 265a2 2 0 0 0 0 4h20a2 2 0 0 0 0-4z"/></g></g></svg>