<svg version="1.0" viewBox="0 0 64 64" xmlns="http://www.w3.org/2000/svg"><g transform="translate(-258 -220)"><rect x="260" y="222" width="60" height="62" ry="30" fill="#faa41a"/><path d="M290 222c-16.62 0-30 13.38-30 30v2c0 16.62 13.38 30 30 30s30-13.38 30-30v-2c0-16.62-13.38-30-30-30zm0 1a29 29 0 0 1 29 29 29 29 0 0 1-29 29 29 29 0 0 1-29-29 29 29 0 0 1 29-29z" fill-opacity=".502"/><path d="M290.01 239c-4.432 0-8 3.643-8 8.125V251c-2.216 0-4 1.784-4 4v7.996c0 2.216 1.784 4 4 4h15.988c2.216 0 4-1.784 4-4V255a3.991 3.991 0 0 0-3.988-4v-3.875c0-4.48-3.568-8.125-8-8.125zm0 4c2.216 0 4 1.784 4 4v4h-8v-4c0-2.216 1.784-4 4-4z" color="#000" fill="#474341"/></g></svg>