<svg version="1.0" viewBox="0 0 64 64" xmlns="http://www.w3.org/2000/svg"><g transform="translate(-258 -220)"><rect x="260" y="222" width="60" height="62" ry="30" fill="#dedede"/><path d="M290 222c-16.62 0-30 13.38-30 30v2c0 16.62 13.38 30 30 30s30-13.38 30-30v-2c0-16.62-13.38-30-30-30zm0 1a29 29 0 0 1 29 29 29 29 0 0 1-29 29 29 29 0 0 1-29-29 29 29 0 0 1 29-29z" fill-opacity=".502"/><path d="M280 241v6h11.758l-12.604 12.604c-.715.553-1.087 1.473-1.102 2.397H278v3h3v-.03c.922-.01 1.843-.392 2.396-1.125L296 251.242v11.74l6 .018v-22h-22z" fill="#474341"/></g></svg>