<svg version="1.0" viewBox="0 0 128 128" xmlns="http://www.w3.org/2000/svg"><g transform="translate(-312 444)"><rect x="324" y="-432" width="104" height="104" ry="8" fill="#767676"/><rect x="325" y="-431" width="102" height="99" ry="7" fill="#ededed"/><rect x="325" y="-431" width="102" height="17" ry="7" fill="#faa41a"/><rect x="325" y="-422" width="102" height="12" ry="0" fill="#faa41a"/><g aria-label="19"><path d="m348.04-352.48 7.969-.531v-32h-8v-4l16-4v40l8.031.531-.031 3.469h-24z"/><path d="M388.36-355.56c2.291 0 4.142-.871 5.552-2.614 1.41-1.763 2.073-4.396 2.073-7.901v-.647c-.96 1.234-2.064 2.174-3.395 2.82a9.945 9.945 0 0 1-4.289.94c-3.994 0-7.127-1.302-9.399-3.906-2.271-2.624-2.917-6.237-2.917-10.839 0-4.327.861-7.95 3.563-10.868 2.722-2.937 6.159-4.406 10.31-4.406 4.367 0 7.911 1.508 10.633 4.523 2.722 2.996 3.494 7.216 3.494 12.66v9.282c0 5.541-.929 9.85-3.964 12.924-3.016 3.074-6.903 4.611-11.66 4.611-1.49 0-3.026-.157-4.613-.47a20.054 20.054 0 0 1-3.763-1.08v-4.022l.386-2.428c1.312.49 2.584.863 3.818 1.098 1.234.215 2.624.322 4.17.322zm1.38-13.688c1.43 0 2.673-.264 3.73-.793a6.662 6.662 0 0 0 2.515-2.173v-4.582c0-3.133-.507-5.513-1.604-7.138-1.096-1.625-2.584-2.438-4.464-2.438-1.724 0-3.133.852-4.23 2.556-1.077 1.684-1.702 4.446-1.702 6.836 0 2.584.566 3.914 1.526 5.442.979 1.527 2.389 2.29 4.23 2.29z"/></g><rect x="376" y="-383" width="64" height="67" ry="32" fill="#cf3b00"/><path d="M408-383c-17.728 0-32 14.272-32 32v3c0 17.728 14.272 32 32 32s32-14.272 32-32v-3c0-17.728-14.272-32-32-32zm0 1c17.174 0 31 13.826 31 31s-13.826 31-31 31-31-13.826-31-31 13.826-31 31-31z" fill-opacity=".5"/><path d="M396-368a4 4 0 0 0-4 4 4 4 0 0 0 1.172 2.828l9.172 9.172-9.172 9.172A4 4 0 0 0 392-340a4 4 0 0 0 4 4 4 4 0 0 0 2.828-1.172l9.172-9.172 9.133 9.133a4 4 0 0 0 2.867 1.21 4 4 0 0 0 4-4 4 4 0 0 0-1.172-2.827L413.656-352l9.133-9.133a4 4 0 0 0 1.21-2.867 4 4 0 0 0-4-4 4 4 0 0 0-2.827 1.172L408-357.656l-9.133-9.133a4 4 0 0 0-.04-.04A4 4 0 0 0 396-368z" fill="#fff"/></g></svg>