<svg version="1.0" viewBox="0 0 128 128" xmlns="http://www.w3.org/2000/svg" xmlns:xlink="http://www.w3.org/1999/xlink"><g transform="translate(-312 -156)"><g id="a"><rect x="103" y="255" width="26" height="26" ry="2" fill="#767676"/><rect x="104" y="256" width="24" height="23" ry="1" fill="#ededed"/><rect x="104" y="256" width="24" height="4" ry="1" fill="#faa41a"/><rect x="104" y="258" width="24" height="2" ry="0" fill="#faa41a"/><rect x="160" y="240" width="40" height="39" ry="3" fill="#767676"/><rect x="161" y="241" width="38" height="35" ry="2.5" fill="#ededed"/><rect x="161" y="241" width="38" height="6" ry="2" fill="#faa41a"/><rect x="161" y="244" width="38" height="5" ry="0" fill="#faa41a"/><rect x="230" y="226" width="52" height="52" ry="4" fill="#767676"/><rect x="231" y="227" width="50" height="48" ry="3" fill="#ededed"/><rect x="231" y="227" width="50" height="8" ry="3" fill="#faa41a"/><rect x="231" y="231" width="50" height="6" ry="0" fill="#faa41a"/><rect x="57" y="261" width="22" height="22" ry="1.9" fill="#767676"/><rect x="58" y="262" width="20" height="20" ry="1" fill="#ededed"/><rect x="58" y="262" width="20" height="4" ry="1" fill="#faa41a"/><rect x="58" y="264.5" width="20" height="1.5" ry="0" fill="#faa41a"/><rect x="17" y="269" width="14" height="14" ry="1.9" fill="#767676"/><rect x="18" y="270" width="12" height="12" ry="1" fill="#ededed"/><rect x="18" y="270" width="12" height="3" ry="1" fill="#faa41a"/><rect x="18" y="271.5" width="12" height="1.5" ry="0" fill="#faa41a"/><rect x="324" y="168" width="104" height="104" ry="8" fill="#767676"/><rect x="325" y="169" width="102" height="99" ry="7" fill="#ededed"/><rect x="325" y="169" width="102" height="17" ry="7" fill="#faa41a"/><rect x="325" y="178" width="102" height="12" ry="0" fill="#faa41a"/><rect x="488" y="52" width="208" height="208" ry="16" fill="#767676"/><rect x="489" y="53" width="206" height="202" ry="16" fill="#ededed"/><rect x="489" y="53" width="206.01" height="35" ry="15" fill="#faa41a"/><rect x="489" y="72" width="206.01" height="24" ry="0" fill="#faa41a"/><g aria-label="19"><path d="m110.01 274.13 1.992-.133v-8h-2v-1l4-1v10l2.008.133-.008.867h-6z" transform="translate(-1)"/><path d="M120.09 273.36c.573 0 1.035-.218 1.388-.654.352-.44.518-1.099.518-1.975v-.161c-.24.308-.516.543-.849.705-.332.156-.69.235-1.072.235-.998 0-1.782-.326-2.35-.977-.567-.656-.729-1.56-.729-2.71 0-1.082.216-1.987.891-2.717.68-.734 1.54-1.101 2.578-1.101 1.091 0 1.977.377 2.658 1.13.68.75.873 1.805.873 3.165v2.32c0 1.386-.232 2.463-.99 3.232-.755.768-1.726 1.153-2.916 1.153-.372 0-.756-.04-1.153-.118a5.014 5.014 0 0 1-.94-.27v-1.005l.096-.607c.328.122.646.215.954.274.309.054.656.08 1.043.08zm.345-3.422c.357 0 .668-.066.933-.198.269-.137.472-.318.628-.544v-1.145c0-.783-.127-1.378-.4-1.784-.275-.407-.647-.61-1.117-.61-.43 0-.783.213-1.057.639-.27.42-.426 1.112-.426 1.709 0 .646.142.979.382 1.36.244.382.597.573 1.057.573z" stroke-width=".94" transform="translate(-1)"/></g><g aria-label="19"><path d="m110.01 274.13 1.992-.133v-8h-2v-1l4-1v10l2.008.133-.008 1.2h-6z" transform="matrix(1.5 0 0 1.5 5 -142)"/><path d="M120.43 273.36c.573 0 1.035-.218 1.388-.654.352-.44.518-1.099.518-1.975v-.161c-.24.308-.516.543-.849.705-.332.156-.69.235-1.072.235-.998 0-1.782-.326-2.35-.977-.567-.656-.729-1.56-.729-2.71 0-1.082.216-1.987.891-2.717.68-.734 1.54-1.101 2.578-1.101 1.091 0 1.977.377 2.658 1.13.68.75.873 1.805.873 3.165v2.32c0 1.386-.232 2.463-.99 3.232-.755.768-1.726 1.153-2.916 1.153-.372 0-.756-.04-1.153-.118a5.014 5.014 0 0 1-.94-.27v-1.005l.096-.607c.328.122.646.215.954.274.309.054.656.08 1.043.08zm.345-3.422c.357 0 .668-.066.933-.198.269-.137.472-.318.628-.544v-1.145c0-.783-.127-1.378-.4-1.784-.275-.407-.647-.61-1.117-.61-.43 0-.783.213-1.057.639-.27.42-.426 1.112-.426 1.709 0 .646.142.979.382 1.36.244.382.597.573 1.057.573z" stroke-width=".94" transform="matrix(1.5 0 0 1.5 5 -142)"/></g><g aria-label="19"><path d="m110.01 274.13 1.992-.133v-8h-2v-1l4-1v10l2.008.133-.008.867h-6z" transform="matrix(2 0 0 2 22 -283)"/><path d="M120.09 273.36c.573 0 1.035-.218 1.388-.654.352-.44.518-1.099.518-1.975v-.161c-.24.308-.516.543-.849.705-.332.156-.69.235-1.072.235-.998 0-1.782-.326-2.35-.977-.567-.656-.729-1.56-.729-2.71 0-1.082.216-1.987.891-2.717.68-.734 1.54-1.101 2.578-1.101 1.091 0 1.977.377 2.658 1.13.68.75.873 1.805.873 3.165v2.32c0 1.386-.232 2.463-.99 3.232-.755.768-1.726 1.153-2.916 1.153-.372 0-.756-.04-1.153-.118a5.014 5.014 0 0 1-.94-.27v-1.005l.096-.607c.328.122.646.215.954.274.309.054.656.08 1.043.08zm.345-3.422c.357 0 .668-.066.933-.198.269-.137.472-.318.628-.544v-1.145c0-.783-.127-1.378-.4-1.784-.275-.407-.647-.61-1.117-.61-.43 0-.783.213-1.057.639-.27.42-.426 1.112-.426 1.709 0 .646.142.979.382 1.36.244.382.597.573 1.057.573z" stroke-width=".94" transform="matrix(2 0 0 2 22 -283)"/></g><g aria-label="19"><path d="m110.01 274.13 1.992-.133v-8h-2v-1l4-1v10l2.008.133-.008.867h-6z" transform="matrix(4 0 0 4 -92 -849)"/><path d="M120.09 273.36c.573 0 1.035-.218 1.388-.654.352-.44.518-1.099.518-1.975v-.161c-.24.308-.516.543-.849.705-.332.156-.69.235-1.072.235-.998 0-1.782-.326-2.35-.977-.567-.656-.729-1.56-.729-2.71 0-1.082.216-1.987.891-2.717.68-.734 1.54-1.101 2.578-1.101 1.091 0 1.977.377 2.658 1.13.68.75.873 1.805.873 3.165v2.32c0 1.386-.232 2.463-.99 3.232-.755.768-1.726 1.153-2.916 1.153-.372 0-.756-.04-1.153-.118a5.014 5.014 0 0 1-.94-.27v-1.005l.096-.607c.328.122.646.215.954.274.309.054.656.08 1.043.08zm.345-3.422c.357 0 .668-.066.933-.198.269-.137.472-.318.628-.544v-1.145c0-.783-.127-1.378-.4-1.784-.275-.407-.647-.61-1.117-.61-.43 0-.783.213-1.057.639-.27.42-.426 1.112-.426 1.709 0 .646.142.979.382 1.36.244.382.597.573 1.057.573z" stroke-width=".94" transform="matrix(4 0 0 4 -92 -849)"/></g><g aria-label="19"><path d="m110.01 274.13 1.992-.133v-8h-2v-1l4-1v10l2.008.133-.008.867h-6z" transform="matrix(8 0 0 8 -344 -1980.5)"/><path d="M120.09 273.36c.573 0 1.035-.218 1.388-.654.352-.44.518-1.099.518-1.975v-.161c-.24.308-.516.543-.849.705-.332.156-.69.235-1.072.235-.998 0-1.782-.326-2.35-.977-.567-.656-.729-1.56-.729-2.71 0-1.082.216-1.987.891-2.717.68-.734 1.54-1.101 2.578-1.101 1.091 0 1.977.377 2.658 1.13.68.75.873 1.805.873 3.165v2.32c0 1.386-.232 2.463-.99 3.232-.755.768-1.726 1.153-2.916 1.153-.372 0-.756-.04-1.153-.118a5.014 5.014 0 0 1-.94-.27v-1.005l.096-.607c.328.122.646.215.954.274.309.054.656.08 1.043.08zm.345-3.422c.357 0 .668-.066.933-.198.269-.137.472-.318.628-.544v-1.145c0-.783-.127-1.378-.4-1.784-.275-.407-.647-.61-1.117-.61-.43 0-.783.213-1.057.639-.27.42-.426 1.112-.426 1.709 0 .646.142.979.382 1.36.244.382.597.573 1.057.573z" stroke-width=".94" transform="matrix(8 0 0 8 -344 -1980.5)"/></g><g aria-label="19"><path d="m110.01 274.13 1.992-.133v-8h-2v-1l4-1v10l2.008.133-.008.867h-6z" transform="translate(-49 4)"/><path d="M120.09 273.36c.573 0 1.035-.218 1.388-.654.352-.44.518-1.099.518-1.975v-.161c-.24.308-.516.543-.849.705-.332.156-.69.235-1.072.235-.998 0-1.782-.326-2.35-.977-.567-.656-.729-1.56-.729-2.71 0-1.082.216-1.987.891-2.717.68-.734 1.54-1.101 2.578-1.101 1.091 0 1.977.377 2.658 1.13.68.75.873 1.805.873 3.165v2.32c0 1.386-.232 2.463-.99 3.232-.755.768-1.726 1.153-2.916 1.153-.372 0-.756-.04-1.153-.118a5.014 5.014 0 0 1-.94-.27v-1.005l.096-.607c.328.122.646.215.954.274.309.054.656.08 1.043.08zm.345-3.422c.357 0 .668-.066.933-.198.269-.137.472-.318.628-.544v-1.145c0-.783-.127-1.378-.4-1.784-.275-.407-.647-.61-1.117-.61-.43 0-.783.213-1.057.639-.27.42-.426 1.112-.426 1.709 0 .646.142.979.382 1.36.244.382.597.573 1.057.573z" stroke-width=".94" transform="translate(-49 4)"/></g><g aria-label="19"><path d="M110 274h2v-8h-2v-2h4v10h2v2h-6z" transform="matrix(.5 0 0 .5 -35 142)"/><path transform="translate(-1 -1)" d="M26.5 275c-.831 0-1.5.669-1.5 1.5v1c0 .831.669 1.5 1.5 1.5.177 0 .343-.036.5-.092v.592c0 .277-.223.5-.5.5H25v1h2c.554 0 1-.446 1-1v-3.5c0-.831-.669-1.5-1.5-1.5zm0 1c.277 0 .5.223.5.5v1a.499.499 0 1 1-1 0v-1c0-.277.223-.5.5-.5z"/></g></g></g><g transform="translate(-312 -156)"><use transform="translate(0 -300)" width="100%" height="100%" xlink:href="#a"/><rect x="116" y="-33" width="16" height="17" ry="8" fill="#ffce51"/><path d="M124-33c-4.432 0-8 3.568-8 8v1c0 4.432 3.568 8 8 8s8-3.568 8-8v-1c0-4.432-3.568-8-8-8zm0 1c3.878 0 7 3.122 7 7s-3.122 7-7 7-7-3.122-7-7 3.122-7 7-7z" fill-opacity=".5"/><rect x="68" y="-28" width="12" height="12" ry="6" fill="#ffce51"/><path d="M74-28c-3.324 0-6 2.676-6 6s2.676 6 6 6 6-2.676 6-6-2.676-6-6-6zm0 1c2.77 0 5 2.23 5 5s-2.23 5-5 5-5-2.23-5-5 2.23-5 5-5z" fill-opacity=".5"/><rect x="24" y="-24" width="8" height="8" ry="4" fill="#ffce51"/><path d="M28-24c-2.216 0-4 1.784-4 4s1.784 4 4 4 4-1.784 4-4-1.784-4-4-4zm0 1c1.662 0 3 1.338 3 3s-1.338 3-3 3-3-1.338-3-3 1.338-3 3-3z" fill-opacity=".5"/><rect x="180" y="-42" width="24" height="26" ry="12" fill="#ffce51"/><path d="M192-42c-6.648 0-12 5.352-12 12v2c0 6.648 5.352 12 12 12s12-5.352 12-12v-2c0-6.648-5.352-12-12-12zm0 1c6.094 0 11 4.906 11 11s-4.906 11-11 11-11-4.906-11-11 4.906-11 11-11z" fill-opacity=".5"/><rect x="256" y="-50" width="32" height="34" ry="16" fill="#ffce51"/><path d="M272-50c-8.864 0-16 7.136-16 16v2c0 8.864 7.136 16 16 16s16-7.136 16-16v-2c0-8.864-7.136-16-16-16zm0 1c8.31 0 15 6.69 15 15s-6.69 15-15 15-15-6.69-15-15 6.69-15 15-15z" fill-opacity=".5"/><rect x="376" y="-83" width="64" height="67" ry="32" fill="#ffce51"/><path d="M408-83c-17.728 0-32 14.272-32 32v3c0 17.728 14.272 32 32 32s32-14.272 32-32v-3c0-17.728-14.272-32-32-32zm0 1c17.174 0 31 13.826 31 31s-13.826 31-31 31-31-13.826-31-31 13.826-31 31-31z" fill-opacity=".5"/><rect x="592" y="-148" width="128" height="132" ry="64" fill="#ffce51"/><path d="M656-148c-35.456 0-64 28.544-64 64v4c0 35.456 28.544 64 64 64s64-28.544 64-64v-4c0-35.456-28.544-64-64-64zm0 1c34.902 0 63 28.098 63 63s-28.098 63-63 63-63-28.098-63-63 28.098-63 63-63z" fill-opacity=".5"/><path d="M124-29v4l4 2.31" fill="none" stroke="#2b2928" stroke-opacity=".8" stroke-width="2"/><path d="M74-26v4l3 2" fill="none" stroke="#2b2928" stroke-opacity=".8" stroke-width="2"/><path d="M27.5-22v3l2 1" fill="none" stroke="#2b2928" stroke-opacity=".8"/><path d="M192.5-35v6l6 3.464" fill="none" stroke="#2b2928" stroke-opacity=".8" stroke-width="3"/><path d="M272-40v8l8 4.619" fill="none" stroke="#2b2928" stroke-opacity=".8" stroke-width="4"/><path d="M408-64v16l16 9.238" fill="none" stroke="#2b2928" stroke-opacity=".8" stroke-width="8"/><path d="M656-111v32l32 18.475" fill="none" stroke="#2b2928" stroke-opacity=".8" stroke-width="16"/></g><g transform="translate(-312 -156)"><use transform="translate(0 -600)" width="100%" height="100%" xlink:href="#a"/><rect x="116" y="-333" width="16" height="17" ry="8" fill="#cf3b00"/><path d="M124-333c-4.432 0-8 3.568-8 8v1c0 4.432 3.568 8 8 8s8-3.568 8-8v-1c0-4.432-3.568-8-8-8zm0 1c3.878 0 7 3.122 7 7s-3.122 7-7 7-7-3.122-7-7 3.122-7 7-7z" fill-opacity=".5"/><rect x="68" y="-328" width="12" height="12" ry="6" fill="#cf3b00"/><path d="M74-328c-3.324 0-6 2.676-6 6s2.676 6 6 6 6-2.676 6-6-2.676-6-6-6zm0 1c2.77 0 5 2.23 5 5s-2.23 5-5 5-5-2.23-5-5 2.23-5 5-5z" fill-opacity=".5"/><rect x="24" y="-324" width="8" height="8" ry="4" fill="#cf3b00"/><path d="M28-324c-2.216 0-4 1.784-4 4s1.784 4 4 4 4-1.784 4-4-1.784-4-4-4zm0 1c1.662 0 3 1.338 3 3s-1.338 3-3 3-3-1.338-3-3 1.338-3 3-3z" fill-opacity=".5"/><rect x="180" y="-342" width="24" height="26" ry="12" fill="#cf3b00"/><path d="M192-342c-6.648 0-12 5.352-12 12v2c0 6.648 5.352 12 12 12s12-5.352 12-12v-2c0-6.648-5.352-12-12-12zm0 1c6.094 0 11 4.906 11 11s-4.906 11-11 11-11-4.906-11-11 4.906-11 11-11z" fill-opacity=".5"/><rect x="256" y="-350" width="32" height="34" ry="16" fill="#cf3b00"/><path d="M272-350c-8.864 0-16 7.136-16 16v2c0 8.864 7.136 16 16 16s16-7.136 16-16v-2c0-8.864-7.136-16-16-16zm0 1c8.31 0 15 6.69 15 15s-6.69 15-15 15-15-6.69-15-15 6.69-15 15-15z" fill-opacity=".5"/><rect x="376" y="-383" width="64" height="67" ry="32" fill="#cf3b00"/><path d="M408-383c-17.728 0-32 14.272-32 32v3c0 17.728 14.272 32 32 32s32-14.272 32-32v-3c0-17.728-14.272-32-32-32zm0 1c17.174 0 31 13.826 31 31s-13.826 31-31 31-31-13.826-31-31 13.826-31 31-31z" fill-opacity=".5"/><rect x="592" y="-448" width="128" height="132" ry="64" fill="#cf3b00"/><path d="M656-448c-35.456 0-64 28.544-64 64v4c0 35.456 28.544 64 64 64s64-28.544 64-64v-4c0-35.456-28.544-64-64-64zm0 1c34.902 0 63 28.098 63 63s-28.098 63-63 63-63-28.098-63-63 28.098-63 63-63z" fill-opacity=".5"/><path d="M121-329.5a1 1 0 0 0-1 1 1 1 0 0 0 .293.707l2.293 2.293-2.293 2.293a1 1 0 0 0-.293.707 1 1 0 0 0 1 1 1 1 0 0 0 .707-.293l2.293-2.293 2.283 2.283a1 1 0 0 0 .717.303 1 1 0 0 0 1-1 1 1 0 0 0-.293-.707l-2.293-2.293 2.283-2.283a1 1 0 0 0 .303-.717 1 1 0 0 0-1-1 1 1 0 0 0-.707.293L124-326.914l-2.283-2.283a1 1 0 0 0-.01-.01 1 1 0 0 0-.707-.293z" fill="#fff"/><path d="M26.5-322a.5.5 0 0 0-.5.5.5.5 0 0 0 .146.354L27.293-320l-1.147 1.147a.5.5 0 0 0-.146.353.5.5 0 0 0 .5.5.5.5 0 0 0 .354-.146L28-319.293l1.142 1.142a.5.5 0 0 0 .358.151.5.5 0 0 0 .5-.5.5.5 0 0 0-.146-.353L28.707-320l1.142-1.142A.5.5 0 0 0 30-321.5a.5.5 0 0 0-.5-.5.5.5 0 0 0-.354.146L28-320.707l-1.142-1.142a.5.5 0 0 0-.005-.005.5.5 0 0 0-.353-.146z" fill="#fff"/><path d="M266-342a2 2 0 0 0-2 2 2 2 0 0 0 .586 1.414l4.586 4.586-4.586 4.586A2 2 0 0 0 264-328a2 2 0 0 0 2 2 2 2 0 0 0 1.414-.586l4.586-4.586 4.566 4.567A2 2 0 0 0 278-326a2 2 0 0 0 2-2 2 2 0 0 0-.586-1.414L274.828-334l4.567-4.566A2 2 0 0 0 280-340a2 2 0 0 0-2-2 2 2 0 0 0-1.414.586L272-336.828l-4.566-4.567a2 2 0 0 0-.02-.02A2 2 0 0 0 266-342z" fill="#fff"/><path d="M396-368a4 4 0 0 0-4 4 4 4 0 0 0 1.172 2.828l9.172 9.172-9.172 9.172A4 4 0 0 0 392-340a4 4 0 0 0 4 4 4 4 0 0 0 2.828-1.172l9.172-9.172 9.133 9.133a4 4 0 0 0 2.867 1.21 4 4 0 0 0 4-4 4 4 0 0 0-1.172-2.827L413.656-352l9.133-9.133a4 4 0 0 0 1.21-2.867 4 4 0 0 0-4-4 4 4 0 0 0-2.827 1.172L408-357.656l-9.133-9.133a4 4 0 0 0-.04-.04A4 4 0 0 0 396-368z" fill="#fff"/><path d="M632-414a8 8 0 0 0-8 8 8 8 0 0 0 2.344 5.656L644.688-382l-18.344 18.344A8 8 0 0 0 624-358a8 8 0 0 0 8 8 8 8 0 0 0 5.656-2.343L656-370.687l18.266 18.266a8 8 0 0 0 5.735 2.421 8 8 0 0 0 8-8 8 8 0 0 0-2.344-5.656L667.313-382l18.266-18.266A8 8 0 0 0 688-406a8 8 0 0 0-8-8 8 8 0 0 0-5.657 2.344L656-393.312l-18.266-18.266a8 8 0 0 0-.08-.08 8 8 0 0 0-5.656-2.342z" fill="#fff"/><path d="M187.5-335a1.5 1.5 0 0 0-1.5 1.5 1.5 1.5 0 0 0 .44 1.06l3.439 3.44-3.44 3.44a1.5 1.5 0 0 0-.439 1.06 1.5 1.5 0 0 0 1.5 1.5 1.5 1.5 0 0 0 1.06-.44l3.44-3.439 3.425 3.425a1.5 1.5 0 0 0 1.075.454 1.5 1.5 0 0 0 1.5-1.5 1.5 1.5 0 0 0-.44-1.06l-3.439-3.44 3.425-3.425A1.5 1.5 0 0 0 198-333.5a1.5 1.5 0 0 0-1.5-1.5 1.5 1.5 0 0 0-1.06.44l-3.44 3.439-3.425-3.425a1.5 1.5 0 0 0-.015-.015 1.5 1.5 0 0 0-1.06-.44z" fill="#fff"/><path d="M71.75-325a.75.75 0 0 0-.75.75.75.75 0 0 0 .22.53l1.72 1.72-1.72 1.72a.75.75 0 0 0-.22.53.75.75 0 0 0 .75.75.75.75 0 0 0 .53-.22l1.72-1.72 1.712 1.713a.75.75 0 0 0 .538.227.75.75 0 0 0 .75-.75.75.75 0 0 0-.22-.53L75.06-322l1.713-1.712a.75.75 0 0 0 .227-.538.75.75 0 0 0-.75-.75.75.75 0 0 0-.53.22L74-323.06l-1.712-1.713a.75.75 0 0 0-.007-.008.75.75 0 0 0-.53-.219z" fill="#fff"/></g><g transform="translate(-312 -156)"><use transform="translate(0 -900)" width="100%" height="100%" xlink:href="#a"/><rect x="116" y="-633" width="16" height="17" ry="8" fill="#479863"/><path d="M124-633c-4.432 0-8 3.568-8 8v1c0 4.432 3.568 8 8 8s8-3.568 8-8v-1c0-4.432-3.568-8-8-8zm0 1c3.878 0 7 3.122 7 7s-3.122 7-7 7-7-3.122-7-7 3.122-7 7-7z" fill-opacity=".5"/><rect x="68" y="-628" width="12" height="12" ry="6" fill="#479863"/><g transform="translate(0 -300)" fill="#fff" stroke-linecap="square" stroke-width="2"><rect x="73" y="-326" width="2" height="8" ry="0"/><path d="M70-323h8v2h-8z"/></g><path d="M74-628c-3.324 0-6 2.676-6 6s2.676 6 6 6 6-2.676 6-6-2.676-6-6-6zm0 1c2.77 0 5 2.23 5 5s-2.23 5-5 5-5-2.23-5-5 2.23-5 5-5z" fill-opacity=".5"/><rect x="23" y="-625" width="9" height="9" ry="4.5" fill="#479863"/><rect x="180" y="-642" width="24" height="26" ry="12" fill="#479863"/><path d="M192-642c-6.648 0-12 5.352-12 12v2c0 6.648 5.352 12 12 12s12-5.352 12-12v-2c0-6.648-5.352-12-12-12zm0 1c6.094 0 11 4.906 11 11s-4.906 11-11 11-11-4.906-11-11 4.906-11 11-11z" fill-opacity=".5"/><rect x="256" y="-650" width="32" height="34" ry="16" fill="#479863"/><path d="M272-650c-8.864 0-16 7.136-16 16v2c0 8.864 7.136 16 16 16s16-7.136 16-16v-2c0-8.864-7.136-16-16-16zm0 1c8.31 0 15 6.69 15 15s-6.69 15-15 15-15-6.69-15-15 6.69-15 15-15z" fill-opacity=".5"/><rect x="376" y="-683" width="64" height="67" ry="32" fill="#479863"/><path d="M408-683c-17.728 0-32 14.272-32 32v3c0 17.728 14.272 32 32 32s32-14.272 32-32v-3c0-17.728-14.272-32-32-32zm0 1c17.174 0 31 13.826 31 31s-13.826 31-31 31-31-13.826-31-31 13.826-31 31-31z" fill-opacity=".5"/><rect x="592" y="-748" width="128" height="132" ry="64" fill="#479863"/><path d="M656-748c-35.456 0-64 28.544-64 64v4c0 35.456 28.544 64 64 64s64-28.544 64-64v-4c0-35.456-28.544-64-64-64zm0 1c34.902 0 63 28.098 63 63s-28.098 63-63 63-63-28.098-63-63 28.098-63 63-63z" fill-opacity=".5"/><path d="M273.41-643.9a2 2 0 0 0-2.828 0 2 2 0 0 0-.586 1.414V-636h-6.485a2 2 0 0 0-1.415.585 2 2 0 0 0 0 2.829 2 2 0 0 0 1.415.585h6.485v6.458a2 2 0 0 0 .586 1.442 2 2 0 0 0 2.828 0 2 2 0 0 0 .586-1.414v-6.486h6.457a2 2 0 0 0 1.442-.585 2 2 0 0 0 0-2.829 2 2 0 0 0-1.414-.585h-6.485v-6.458a2 2 0 0 0 0-.029 2 2 0 0 0-.586-1.413z" fill="#fff"/><path d="M410.83-671.8a4 4 0 0 0-5.657 0 4 4 0 0 0-1.171 2.828V-656h-12.971a4 4 0 0 0-2.828 1.172 4 4 0 0 0 0 5.656A4 4 0 0 0 391.03-648h12.971v12.916a4 4 0 0 0 1.171 2.883 4 4 0 0 0 5.657 0 4 4 0 0 0 1.171-2.828V-648h12.916a4 4 0 0 0 2.884-1.171 4 4 0 0 0 0-5.657 4 4 0 0 0-2.829-1.171h-12.97v-12.916a4 4 0 0 0 0-.057 4 4 0 0 0-1.172-2.828z" fill="#fff"/><path d="M661.66-721.6a8 8 0 0 0-11.314 0 8 8 0 0 0-2.342 5.657v25.942h-25.942a8 8 0 0 0-5.657 2.342 8 8 0 0 0 0 11.314 8 8 0 0 0 5.657 2.342h25.942v25.832a8 8 0 0 0 2.342 5.768 8 8 0 0 0 11.314 0 8 8 0 0 0 2.342-5.657v-25.942h25.832a8 8 0 0 0 5.768-2.342 8 8 0 0 0 0-11.314 8 8 0 0 0-5.657-2.343h-25.942v-25.832a8 8 0 0 0 0-.113 8 8 0 0 0-2.344-5.655z" fill="#fff"/><path d="M27.5-625c-2.493 0-4.5 2.007-4.5 4.5s2.007 4.5 4.5 4.5 4.5-2.007 4.5-4.5-2.007-4.5-4.5-4.5zm0 1c1.939 0 3.5 1.561 3.5 3.5s-1.561 3.5-3.5 3.5-3.5-1.561-3.5-3.5 1.561-3.5 3.5-3.5z" fill-opacity=".5"/><path fill="#fff" d="M27-623h1v5h-1z"/><path fill="#fff" d="M25-621h5v1h-5z"/><path fill="#fff" d="M123-630h2v10h-2z"/><path fill="#fff" d="M119-626h10v2h-10z"/><path fill="#fff" d="M191-638h2v16h-2z"/><path fill="#fff" d="M184-631h16v2h-16z"/><path fill="#fff" d="M270-645h4v22h-4z"/><path fill="#fff" d="M261-636h22v4h-22z"/><path fill="#fff" d="M404-673h8v42h-8z"/><path fill="#fff" d="M387-656h42v8h-42z"/><path fill="#fff" d="M648-724h16v84h-16z"/><path fill="#fff" d="M614-690h84v16h-84z"/></g></svg>