<svg version="1.0" viewBox="0 0 128 128" xmlns="http://www.w3.org/2000/svg"><g stroke-linecap="square"><path d="M99 7c16.066 0 29 12.934 29 29v4h-10v-1c0-10.526-8.474-19-19-19s-19 8.474-19 19v16.5c0 1.555.206 3.056.555 4.5H70V36C70 19.934 82.934 7 99 7z" fill="#6f6f6f"/><path d="M99 8c15.512 0 28 12.488 28 28h-8c0-11.08-8.92-20-20-20s-20 8.92-20 20v24h-8V36C71 20.488 83.488 8 99 8z" fill="#dedede"/><g transform="translate(-305 -156)" stroke-width="8"><rect x="312" y="212" width="88" height="64" ry="8" fill="#ffce51"/><path d="M320 212c-4.432 0-8 3.568-8 8v4h88v-4c0-4.432-3.568-8-8-8zm-8 52v4c0 4.432 3.568 8 8 8h72c4.432 0 8-3.568 8-8v-4z" fill-opacity=".118"/><path d="M320 212c-4.432 0-8 3.568-8 8v48c0 4.432 3.568 8 8 8h72c4.432 0 8-3.568 8-8v-48c0-4.432-3.568-8-8-8zm0 1h72c3.878 0 7 3.122 7 7v45c0 3.878-3.122 7-7 7h-72c-3.878 0-7-3.122-7-7v-45c0-3.878 3.122-7 7-7z" fill-opacity=".502"/></g></g></svg>