<svg version="1.0" viewBox="0 0 128 128" xmlns="http://www.w3.org/2000/svg"><g stroke-linecap="square" transform="translate(-312 -156)"><path d="M376 163c-16.066 0-29 12.934-29 29v25c0 16.066 12.934 29 29 29s29-12.934 29-29v-25c0-16.066-12.934-29-29-29zm0 13c10.526 0 19 8.474 19 19v16.5c0 10.526-8.474 19-19 19s-19-8.474-19-19V195c0-10.526 8.474-19 19-19z" fill="#6f6f6f"/><path d="M376 164c-15.512 0-28 12.488-28 28v56c0 15.512 12.488 28 28 28s28-12.488 28-28v-56c0-15.512-12.488-28-28-28zm0 8c11.08 0 20 8.92 20 20v56c0 11.08-8.92 20-20 20s-20-8.92-20-20v-56c0-11.08 8.92-20 20-20z" fill="#dedede"/><rect x="332" y="212" width="88" height="64" ry="8" fill="#ffce51"/><path d="M340 212c-4.432 0-8 3.568-8 8v4h88v-4c0-4.432-3.568-8-8-8zm-8 52v4c0 4.432 3.568 8 8 8h72c4.432 0 8-3.568 8-8v-4z" fill-opacity=".118"/><path d="M340 212c-4.432 0-8 3.568-8 8v48c0 4.432 3.568 8 8 8h72c4.432 0 8-3.568 8-8v-48c0-4.432-3.568-8-8-8zm0 1h72c3.878 0 7 3.122 7 7v45c0 3.878-3.122 7-7 7h-72c-3.878 0-7-3.122-7-7v-45c0-3.878 3.122-7 7-7z" fill-opacity=".502"/></g></svg>