<svg version="1.0" viewBox="0 0 128 128" xmlns="http://www.w3.org/2000/svg"><g transform="translate(-312 144)"><rect x="350" y="-64" width="60" height="36" ry="4" fill="#424242"/><rect x="351" y="-64" width="58" height="32" ry="4" fill="#848484"/><rect x="324" y="-128.01" width="112" height="80" ry="6" fill="#6f6f6f"/><rect x="325" y="-127" width="110" height="75" ry="5.5" fill="#acacac"/><rect x="329" y="-123" width="102" height="62" ry="1" fill="#424242"/><rect x="368" y="-59" width="24" height="4" ry="1" fill="#424242"/><rect transform="matrix(0 -1 -1 0 0 0)" x="61" y="-431" width="62" height="102" ry="1" fill="#cf3b00"/><path d="M360-113v16h6v-16zm34 0v16h6v-16zm-36 30v6h44v-6h-34zm44 6v6h6v-6zm-44 0h-6v6h6z" fill="#fff"/></g></svg>