<svg version="1.0" viewBox="0 0 128 128" xmlns="http://www.w3.org/2000/svg"><g transform="translate(-312 -156)"><rect transform="rotate(-45)" x="71.201" y="382.33" width="78.215" height="78.215" ry="8" fill="#faa41a"/><path d="M376 168a7.97 7.97 0 0 0-5.656 2.35l-43.994 43.994a7.98 7.98 0 0 0 0 11.312l43.994 43.994a7.98 7.98 0 0 0 11.312 0l43.994-43.994a7.98 7.98 0 0 0 0-11.312l-43.994-43.994A7.973 7.973 0 0 0 376 168zm0 1a6.98 6.98 0 0 1 4.95 2.057l41.993 41.994a6.983 6.983 0 0 1 0 9.898l-41.994 41.994a6.983 6.983 0 0 1-9.898 0l-41.994-41.994a6.983 6.983 0 0 1 0-9.898l41.994-41.994A6.977 6.977 0 0 1 376 169z" fill-opacity=".502"/><path d="M380 186.98v44h-8v-44zm0 56v8h-8v-8z" fill="#fff"/></g></svg>