<svg version="1.0" viewBox="0 0 128 128" xmlns="http://www.w3.org/2000/svg"><g transform="translate(-312 -156)"><rect transform="rotate(-45)" x="71.201" y="382.33" width="78.215" height="78.215" ry="8" fill="#6a7ce0"/><path d="M376 168a7.97 7.97 0 0 0-5.656 2.35l-43.994 43.994a7.98 7.98 0 0 0 0 11.312l43.994 43.994a7.98 7.98 0 0 0 11.312 0l43.994-43.994a7.98 7.98 0 0 0 0-11.312l-43.994-43.994A7.973 7.973 0 0 0 376 168zm0 1a6.98 6.98 0 0 1 4.95 2.057l41.993 41.994a6.983 6.983 0 0 1 0 9.898l-41.994 41.994a6.983 6.983 0 0 1-9.898 0l-41.994-41.994a6.983 6.983 0 0 1 0-9.898l41.994-41.994A6.977 6.977 0 0 1 376 169z" fill-opacity=".502"/><path d="M380 244h-8v-8h8zm8.28-27-3.6 3.68C381.8 223.6 380 226 380 232h-8v-2c0-4.4 1.8-8.4 4.68-11.32l4.96-5.04A7.821 7.821 0 0 0 384 208c0-4.4-3.6-8-8-8s-8 3.6-8 8h-8c0-8.84 7.16-16 16-16s16 7.16 16 16c0 3.52-1.44 6.72-3.72 9z" fill="#fff"/></g></svg>