<svg version="1.0" viewBox="0 0 128 128" xmlns="http://www.w3.org/2000/svg"><g transform="translate(-312 -156)"><rect x="316" y="160" width="120" height="123" ry="60" fill="#73c48f"/><path d="M376 160c-33.24 0-60 26.76-60 60v3c0 33.24 26.76 60 60 60s60-26.76 60-60v-3c0-33.24-26.76-60-60-60zm0 1c32.686 0 59 26.314 59 59s-26.314 59-59 59-59-26.314-59-59 26.314-59 59-59z" fill-opacity=".502"/><path d="M376 196c-6.627 0-12 5.373-12 12 0 4.97 2.979 9.214 7.286 11.036L364 244h24l-7.286-24.964A11.935 11.935 0 0 0 388 208c0-6.627-5.373-12-12-12z" color="#000" fill-opacity=".196"/><path d="M376 195c-6.627 0-12 5.373-12 12 0 4.97 2.979 9.214 7.286 11.036L364 243h24l-7.286-24.964A11.935 11.935 0 0 0 388 207c0-6.627-5.373-12-12-12z" color="#000" fill="#fff"/></g></svg>