<svg version="1.0" viewBox="0 0 128 128" xmlns="http://www.w3.org/2000/svg"><g transform="translate(-312 1044)"><rect x="320" y="-1016" width="112" height="88" ry="8" fill="#245c63"/><rect x="321" y="-1015" width="110" height="83" ry="7.5" fill="#48b9c7"/><rect x="332" y="-1004" width="88" height="60" ry="4" fill="#f6f6f6"/><path d="M376-988a14 14 0 0 0-14 14 14 14 0 0 0 14 14 14 14 0 0 0 14-14 14 14 0 0 0-14-14zm0 4a10 10 0 0 1 10 10 10 10 0 0 1-10 10 10 10 0 0 1-10-10 10 10 0 0 1 10-10z" fill="#1c8d9b"/><path d="M380.81-979.63c-.193.051-.37.162-.5.313l-4.313 4.312-3.312-3.313c-.314-.513-1.137-.613-1.563-.187-.426.426-.326 1.248.188 1.563l4 4c.367.347 1.008.347 1.375 0l5-5c.586-.597-.05-1.823-.875-1.688z" color="#bebebe" fill="#1c8d9b"/></g><style>.st0{fill:#261300}.st1{fill:#ff7c00}</style></svg>