<svg version="1.0" viewBox="0 0 128 128" xmlns="http://www.w3.org/2000/svg"><g transform="translate(-312 1344)"><rect x="320" y="-1316" width="112" height="88" ry="8" fill="#245c63"/><rect x="321" y="-1315" width="110" height="83" ry="7.5" fill="#48b9c7"/><rect x="332" y="-1304" width="88" height="60" ry="4" fill="#f6f6f6"/><path d="M364-1290a4 4 0 0 0-4 4 4 4 0 0 0 1.172 2.828l9.172 9.172-9.172 9.172A4 4 0 0 0 360-1262a4 4 0 0 0 4 4 4 4 0 0 0 2.828-1.172l9.172-9.172 9.133 9.133A4 4 0 0 0 388-1258a4 4 0 0 0 4-4 4 4 0 0 0-1.172-2.828l-9.172-9.172 9.133-9.133a4 4 0 0 0 1.21-2.867 4 4 0 0 0-4-4 4 4 0 0 0-2.827 1.172l-9.172 9.172-9.133-9.133a4 4 0 0 0-.04-.04A4 4 0 0 0 364-1290z" fill="#f15d22"/></g><style>.st0{fill:#261300}.st1{fill:#ff7c00}</style></svg>