<svg version="1.0" viewBox="0 0 128 128" xmlns="http://www.w3.org/2000/svg" xmlns:xlink="http://www.w3.org/1999/xlink"><g fill="#393634" fill-opacity=".784" transform="translate(-312 -156)"><g id="a"><path d="m230 234.5 26-12.5 26 12.5c.5.24 2 1.284 2 3.5v38c0 2.216-1.784 4-4 4h-48c-2.216 0-4-1.784-4-4v-38c0-2.216 1.5-3.26 2-3.5z" fill="#a27100" fill-opacity="1"/><g transform="translate(-98 58)"><rect x="332" y="168" width="44" height="48" ry="4" fill="#dedede" fill-opacity="1"/><rect x="332.5" y="168.5" width="43" height="47" ry="3.5" fill="none" stroke="#000" stroke-linecap="round" stroke-opacity=".392"/></g><path transform="translate(0 -244)" d="M228 484v34c0 2.216 1.784 4 4 4h48c2.216 0 4-1.784 4-4v-34l-28 22z" fill="#ffce51" fill-opacity="1"/><path transform="translate(0 -244)" d="m243.61 496.26-15.607 21.738c0 2.216 1.784 4 4 4h48c2.216 0 4-1.784 4-4l-15.607-21.738-12.393 9.738z" fill="#c29a32" fill-opacity="1"/><path d="M280.01 234.5a3.482 3.482 0 0 1 3.49 3.49v36.02a3.482 3.482 0 0 1-3.49 3.49h-48.02a3.482 3.482 0 0 1-3.49-3.49v-36.02a3.482 3.482 0 0 1 3.49-3.49" fill="none" stroke="#303030" stroke-linecap="round" stroke-linejoin="round" stroke-opacity=".392"/><path d="m161 247.5 19-9 19 9c.505.24 2 1.284 2 3.5v26c0 2.216-1.784 4-4 4h-34c-2.216 0-4-1.784-4-4v-26c0-2.216 1.5-3.235 2-3.5z" fill="#a27100" fill-opacity="1"/><rect x="165" y="241" width="30" height="33" ry="4" fill="#dedede" fill-opacity="1"/><rect x="165.5" y="241.5" width="29" height="32" ry="3.5" fill="none" stroke="#000" stroke-linecap="round" stroke-opacity=".392"/><path transform="translate(0 -244)" d="M159 497v22c0 2.216 1.784 4 4 4h34c2.216 0 4-1.784 4-4v-22l-21 15z" fill="#ffce51" fill-opacity="1"/><path transform="translate(0 -244)" d="m170 504.86-11 14.143c0 2.216 1.784 4 4 4h34c2.216 0 4-1.784 4-4l-11-14.143-10 7.143z" fill="#c29a32" fill-opacity="1"/><path d="M197.01 247.5a3.482 3.482 0 0 1 3.49 3.49v24.02a3.482 3.482 0 0 1-3.49 3.49h-34.02a3.482 3.482 0 0 1-3.49-3.49v-24.02a3.482 3.482 0 0 1 3.49-3.49" fill="none" stroke="#303030" stroke-linecap="round" stroke-linejoin="round" stroke-opacity=".392"/><path d="m103.5 259 12.5-6 12.5 6c.905.435 1.5 1 1.5 2v19c0 1.108-.892 2-2 2h-24c-1.108 0-2-.892-2-2v-19c0-1 .577-1.557 1.5-2z" fill="#a27100" fill-opacity="1"/><rect x="106" y="255" width="20" height="22" ry="2" fill="#dedede" fill-opacity="1"/><rect x="106.5" y="255.5" width="19" height="21" ry="1.5" fill="none" stroke="#000" stroke-linecap="round" stroke-opacity=".392"/><path transform="translate(0 -244)" d="M102 506v17c0 1.108.892 2 2 2h24c1.108 0 2-.892 2-2v-17l-14 11z" fill="#ffce51" fill-opacity="1"/><rect x="57" y="269" width="22" height="14" ry="2" fill="#a27100" fill-opacity="1"/><rect x="57" y="268" width="22" height="14" ry="2" fill="#ffce51" fill-opacity="1"/><rect x="17" y="275" width="14" height="9" ry="2" fill="#a27100" fill-opacity="1"/><rect x="17" y="274" width="14" height="9" ry="2" fill="#ffce51" fill-opacity="1"/><path transform="translate(0 -244)" d="m109.93 512.23-7.934 10.768c0 1.108.892 2 2 2h24c1.108 0 2-.892 2-2l-7.933-10.768-6.067 4.768z" fill="#c29a32" fill-opacity="1"/><path d="M128 259.5c.831 0 1.5.669 1.5 1.5v18c0 .831-.669 1.5-1.5 1.5h-24c-.831 0-1.5-.669-1.5-1.5v-18c0-.831.669-1.5 1.5-1.5" fill="none" stroke="#303030" stroke-linecap="round" stroke-linejoin="round" stroke-opacity=".392"/><path d="M323.5 184.5 376 159l52.5 25.5c1.03.5 3.5 2.176 3.5 5.5v78c0 3.324-2.676 6-6 6H326c-3.324 0-6-2.676-6-6v-78c0-3.324 2.5-5.014 3.5-5.5z" fill="#a27100" fill-opacity="1"/><rect x="332" y="165" width="88" height="82" ry="4" fill="#dedede" fill-opacity="1"/><rect x="332.5" y="165.5" width="87" height="81" ry="3.5" fill="none" stroke="#000" stroke-linecap="round" stroke-opacity=".392"/><path transform="translate(0 -244)" d="M320 436v74c0 3.324 2.676 6 6 6h100c3.324 0 6-2.676 6-6v-74l-56 46z" fill="#ffce51" fill-opacity="1"/><path d="M483.5 84.5 592 32l108.5 52.5c1.033.5 3.5 2.176 3.5 5.5v166c0 3.324-2.676 6-6 6H486c-3.324 0-6-2.676-6-6V90c0-3.324 2.467-5 3.5-5.5z" fill="#a27100" fill-opacity="1"/><rect x="512" y="46" width="160" height="160" ry="8" fill="#dedede" fill-opacity="1"/><rect x="512.5" y="46.5" width="159" height="159" ry="7.5" fill="none" stroke="#303030" stroke-linecap="round" stroke-opacity=".392"/><path transform="translate(0 -244)" d="M480 336v162c0 3.324 2.676 6 6 6h212c3.324 0 6-2.676 6-6V336l-112 98z" fill="#ffce51" fill-opacity="1"/><path transform="translate(0 -244)" d="m352.63 462.8-32.631 47.197c0 3.324 2.676 6 6 6h100c3.324 0 6-2.676 6-6L399.368 462.8l-23.369 19.197z" fill="#c29a32" fill-opacity="1"/><path transform="translate(0 -244)" d="M547.96 395.46 480.005 498c0 3.324 2.676 6 6 6h212c3.324 0 6-2.676 6-6L636.05 395.46l-44.045 38.539z" fill="#c29a32" fill-opacity="1"/><path d="M426 184.5c3.047 0 5.5 2.453 5.5 5.5v76c0 3.047-2.453 5.5-5.5 5.5H326a5.488 5.488 0 0 1-5.5-5.5v-76c0-3.047 2.453-5.5 5.5-5.5" fill="none" stroke="#303030" stroke-linecap="round" stroke-linejoin="round" stroke-opacity=".392"/><path d="M698 84.5c3.047 0 5.5 2.453 5.5 5.5v164c0 3.047-2.453 5.5-5.5 5.5H486a5.488 5.488 0 0 1-5.5-5.5V90c0-3.047 2.453-5.5 5.5-5.5" fill="none" stroke="#303030" stroke-linecap="round" stroke-linejoin="round" stroke-opacity=".392"/><rect x="17.5" y="274.5" width="13" height="8" ry="1.5" fill="none" stroke="#303030" stroke-linecap="round" stroke-opacity=".392"/><rect x="57.5" y="268.5" width="21" height="13" ry="1.5" fill="none" stroke="#303030" stroke-linecap="round" stroke-opacity=".392"/><rect x="60" y="261" width="16" height="17" ry="2" fill="#dedede" fill-opacity="1"/><rect x="60.5" y="261.5" width="15" height="16" ry="1.5" fill="none" stroke="#000" stroke-linecap="round" stroke-opacity=".392"/><rect x="19" y="269" width="10" height="11" ry="2" fill="#dedede" fill-opacity="1"/><rect x="19.5" y="269.5" width="9" height="10" ry="1.5" fill="none" stroke="#303030" stroke-linecap="round" stroke-opacity=".392"/></g><path d="m68 263.94-4.836 3.708L68 271.356v-2.06h1.495c1.02 0 1.923.72 2.196 1.648.327 1.11-1.075 3.296-1.075 3.296s2.99-1.236 2.99-3.914c0-2.574-1.494-4.326-3.737-4.326h-1.87z" color="#bebebe" style="text-decoration-line:none;text-indent:0;text-transform:none"/><path d="m115 256.5-6.469 4.5 6.469 4.5V263h2c1.365 0 2.572.873 2.938 2 .437 1.347-1.438 4-1.438 4s4-1.5 4-4.75c0-3.123-2-5.25-5-5.25H115z" color="#bebebe" style="text-decoration-line:none;text-indent:0;text-transform:none"/><path d="M24 270.75 20.766 273 24 275.25V274h1c.682 0 1.286.437 1.469 1 .219.674-.719 2-.719 2s2-.75 2-2.375c0-1.562-1-2.625-2.5-2.625H24z" color="#bebebe" style="text-decoration-line:none;text-indent:0;text-transform:none"/><path d="m179 245.5-6.469 4.5 6.469 4.5V252h2c1.365 0 2.572.873 2.938 2 .437 1.347-1.438 4-1.438 4s4-1.5 4-4.75c0-3.123-2-5.25-5-5.25H179z" color="#bebebe" style="text-decoration-line:none;text-indent:0;text-transform:none"/><path d="m255 233.25-9.703 6.75 9.703 6.75V243h3c2.047 0 3.857 1.31 4.406 3 .657 2.021-2.156 6-2.156 6s6-2.25 6-7.125c0-4.685-3-7.875-7.5-7.875H255z" color="#bebebe" style="text-decoration-line:none;text-indent:0;text-transform:none"/><path d="M374 173.5 354.594 187 374 200.5V193h6c4.095 0 7.715 2.62 8.813 6 1.312 4.043-4.313 12-4.313 12s12-4.5 12-14.25c0-9.37-6-15.75-15-15.75H374z" color="#bebebe" style="text-decoration-line:none;text-indent:0;text-transform:none"/><path d="m589 64-38.812 27L589 118v-15h12c8.19 0 15.43 5.24 17.625 12 2.626 8.085-8.625 24-8.625 24s24-9 24-28.5c0-18.741-12-31.5-30-31.5h-15z" color="#bebebe" style="text-decoration-line:none;text-indent:0;text-transform:none"/></g><g transform="translate(-312 -156)"><use transform="translate(0 -300)" width="100%" height="100%" xlink:href="#a"/><g fill="#393634" opacity=".8"><path d="m-112.63 83.739-6.469 4.5 6.469 4.5v-2.5h2c.19 0 .376.02.559.053.36-.407.864-.7 1.423-.836l.13-.432a2.514 2.514 0 0 1 1.654-1.668c-.845-.713-1.96-1.117-3.266-1.117h-2.5zm4.5 7.5a.52.52 0 0 0-.152.027c.224.243.4.516.521.813a.496.496 0 0 0 .131-.34c0-.288-.212-.5-.5-.5z" color="#bebebe" style="text-decoration-line:none;text-indent:0;text-transform:none" transform="translate(226.63 -127.24)"/><path d="M-106.13 88.239c-.679 0-1.245.454-1.43 1.072.915.219 1.64.945 1.858 1.86a1.496 1.496 0 0 0-.428-2.932zm-2 2a1.5 1.5 0 1 0 0 3 1.5 1.5 0 0 0 0-3zm2.436 2.033a2.536 2.536 0 0 1-.748 1.262c.486.178.878.418 1.158.705h1.654v-.5s-.028-1.294-2.064-1.467zm-2.436 1.967c-2.5 0-2.5 1.5-2.5 1.5v.5h5v-.5s0-1.5-2.5-1.5z" color="#000" style="text-decoration-line:none;text-indent:0;text-transform:none" transform="translate(226.63 -127.24)"/></g><g fill="#393634" opacity=".8"><path d="m-112.63 83.739-6.469 4.5 6.469 4.5v-2.5h2c.19 0 .376.02.559.053.36-.407.864-.7 1.423-.836l.13-.432a2.514 2.514 0 0 1 1.654-1.668c-.845-.713-1.96-1.117-3.266-1.117h-2.5zm4.5 7.5a.52.52 0 0 0-.152.027c.224.243.4.516.521.813a.496.496 0 0 0 .131-.34c0-.288-.212-.5-.5-.5z" color="#bebebe" style="text-decoration-line:none;text-indent:0;text-transform:none" transform="matrix(.75 0 0 .75 151.48 -98.679)"/><path d="M-106.13 88.239c-.679 0-1.245.454-1.43 1.072.915.219 1.64.945 1.858 1.86a1.496 1.496 0 0 0-.428-2.932zm-2 2a1.5 1.5 0 1 0 0 3 1.5 1.5 0 0 0 0-3zm2.436 2.033a2.536 2.536 0 0 1-.748 1.262c.486.178.878.418 1.158.705h1.654v-.5s-.028-1.294-2.064-1.467zm-2.436 1.967c-2.5 0-2.5 1.5-2.5 1.5v.5h5v-.5s0-1.5-2.5-1.5z" color="#000" style="text-decoration-line:none;text-indent:0;text-transform:none" transform="matrix(.75 0 0 .75 151.48 -98.679)"/></g><g fill="#393634" opacity=".8"><path d="m-112.63 83.739-6.469 4.5 6.469 4.5v-2.5h2c.19 0 .376.02.559.053.36-.407.864-.7 1.423-.836l.13-.432a2.514 2.514 0 0 1 1.654-1.668c-.845-.713-1.96-1.117-3.266-1.117h-2.5zm4.5 7.5a.52.52 0 0 0-.152.027c.224.243.4.516.521.813a.496.496 0 0 0 .131-.34c0-.288-.212-.5-.5-.5z" color="#bebebe" style="text-decoration-line:none;text-indent:0;text-transform:none" transform="matrix(.5 0 0 .5 79.317 -71.12)"/><path d="M-106.13 88.239c-.679 0-1.245.454-1.43 1.072.915.219 1.64.945 1.858 1.86a1.496 1.496 0 0 0-.428-2.932zm-2 2a1.5 1.5 0 1 0 0 3 1.5 1.5 0 0 0 0-3zm2.436 2.033a2.536 2.536 0 0 1-.748 1.262c.486.178.878.418 1.158.705h1.654v-.5s-.028-1.294-2.064-1.467zm-2.436 1.967c-2.5 0-2.5 1.5-2.5 1.5v.5h5v-.5s0-1.5-2.5-1.5z" color="#000" style="text-decoration-line:none;text-indent:0;text-transform:none" transform="matrix(.5 0 0 .5 79.317 -71.12)"/></g><g fill="#393634" opacity=".8"><path d="m-112.63 83.739-6.469 4.5 6.469 4.5v-2.5h2c.19 0 .376.02.559.053.36-.407.864-.7 1.423-.836l.13-.432a2.514 2.514 0 0 1 1.654-1.668c-.845-.713-1.96-1.117-3.266-1.117h-2.5zm4.5 7.5a.52.52 0 0 0-.152.027c.224.243.4.516.521.813a.496.496 0 0 0 .131-.34c0-.288-.212-.5-.5-.5z" color="#bebebe" style="text-decoration-line:none;text-indent:0;text-transform:none" transform="translate(290.63 -138.24)"/><path d="M-106.13 88.239c-.679 0-1.245.454-1.43 1.072.915.219 1.64.945 1.858 1.86a1.496 1.496 0 0 0-.428-2.932zm-2 2a1.5 1.5 0 1 0 0 3 1.5 1.5 0 0 0 0-3zm2.436 2.033a2.536 2.536 0 0 1-.748 1.262c.486.178.878.418 1.158.705h1.654v-.5s-.028-1.294-2.064-1.467zm-2.436 1.967c-2.5 0-2.5 1.5-2.5 1.5v.5h5v-.5s0-1.5-2.5-1.5z" color="#000" style="text-decoration-line:none;text-indent:0;text-transform:none" transform="translate(290.63 -138.24)"/></g><g fill="#393634" opacity=".8"><path d="m-112.63 83.739-6.469 4.5 6.469 4.5v-2.5h2c.19 0 .376.02.559.053.36-.407.864-.7 1.423-.836l.13-.432a2.514 2.514 0 0 1 1.654-1.668c-.845-.713-1.96-1.117-3.266-1.117h-2.5zm4.5 7.5a.52.52 0 0 0-.152.027c.224.243.4.516.521.813a.496.496 0 0 0 .131-.34c0-.288-.212-.5-.5-.5z" color="#bebebe" style="text-decoration-line:none;text-indent:0;text-transform:none" transform="matrix(1.5 0 0 1.5 423.95 -192.36)"/><path d="M-106.13 88.239c-.679 0-1.245.454-1.43 1.072.915.219 1.64.945 1.858 1.86a1.496 1.496 0 0 0-.428-2.932zm-2 2a1.5 1.5 0 1 0 0 3 1.5 1.5 0 0 0 0-3zm2.436 2.033a2.536 2.536 0 0 1-.748 1.262c.486.178.878.418 1.158.705h1.654v-.5s-.028-1.294-2.064-1.467zm-2.436 1.967c-2.5 0-2.5 1.5-2.5 1.5v.5h5v-.5s0-1.5-2.5-1.5z" color="#000" style="text-decoration-line:none;text-indent:0;text-transform:none" transform="matrix(1.5 0 0 1.5 423.95 -192.36)"/></g><g fill="#393634" opacity=".8"><path d="m-112.63 83.739-6.469 4.5 6.469 4.5v-2.5h2c.19 0 .376.02.559.053.36-.407.864-.7 1.423-.836l.13-.432a2.514 2.514 0 0 1 1.654-1.668c-.845-.713-1.96-1.117-3.266-1.117h-2.5zm4.5 7.5a.52.52 0 0 0-.152.027c.224.243.4.516.521.813a.496.496 0 0 0 .131-.34c0-.288-.212-.5-.5-.5z" color="#bebebe" style="text-decoration-line:none;text-indent:0;text-transform:none" transform="matrix(3 0 0 3 711.9 -377.72)"/><path d="M-106.13 88.239c-.679 0-1.245.454-1.43 1.072.915.219 1.64.945 1.858 1.86a1.496 1.496 0 0 0-.428-2.932zm-2 2a1.5 1.5 0 1 0 0 3 1.5 1.5 0 0 0 0-3zm2.436 2.033a2.536 2.536 0 0 1-.748 1.262c.486.178.878.418 1.158.705h1.654v-.5s-.028-1.294-2.064-1.467zm-2.436 1.967c-2.5 0-2.5 1.5-2.5 1.5v.5h5v-.5s0-1.5-2.5-1.5z" color="#000" style="text-decoration-line:none;text-indent:0;text-transform:none" transform="matrix(3 0 0 3 711.9 -377.72)"/></g><g fill="#393634" opacity=".8"><path d="m-112.63 83.739-6.469 4.5 6.469 4.5v-2.5h2c.19 0 .376.02.559.053.36-.407.864-.7 1.423-.836l.13-.432a2.514 2.514 0 0 1 1.654-1.668c-.845-.713-1.96-1.117-3.266-1.117h-2.5zm4.5 7.5a.52.52 0 0 0-.152.027c.224.243.4.516.521.813a.496.496 0 0 0 .131-.34c0-.288-.212-.5-.5-.5z" color="#bebebe" style="text-decoration-line:none;text-indent:0;text-transform:none" transform="matrix(6 0 0 6 1264.8 -738.44)"/><path d="M-106.13 88.239c-.679 0-1.245.454-1.43 1.072.915.219 1.64.945 1.858 1.86a1.496 1.496 0 0 0-.428-2.932zm-2 2a1.5 1.5 0 1 0 0 3 1.5 1.5 0 0 0 0-3zm2.436 2.033a2.536 2.536 0 0 1-.748 1.262c.486.178.878.418 1.158.705h1.654v-.5s-.028-1.294-2.064-1.467zm-2.436 1.967c-2.5 0-2.5 1.5-2.5 1.5v.5h5v-.5s0-1.5-2.5-1.5z" color="#000" style="text-decoration-line:none;text-indent:0;text-transform:none" transform="matrix(6 0 0 6 1264.8 -738.44)"/></g></g><g transform="translate(-312 -156)"><use transform="translate(0 -600)" width="100%" height="100%" xlink:href="#a"/><path d="m68.771-336.06 4.836 3.708-4.836 3.708v-2.06h-1.495c-1.02 0-1.923.72-2.196 1.648-.327 1.11 1.075 3.296 1.075 3.296s-2.99-1.236-2.99-3.914c0-2.574 1.494-4.326 3.737-4.326h1.87z" color="#bebebe" fill="#393634" fill-opacity=".784" style="text-decoration-line:none;text-indent:0;text-transform:none"/><path d="m116.03-343.5 6.469 4.5-6.469 4.5v-2.5h-2c-1.365 0-2.572.873-2.938 2-.437 1.347 1.438 4 1.438 4s-4-1.5-4-4.75c0-3.123 2-5.25 5-5.25h2.5z" color="#bebebe" fill="#393634" fill-opacity=".784" style="text-decoration-line:none;text-indent:0;text-transform:none"/><path d="M24.516-329.25 27.75-327l-3.234 2.25V-326h-1c-.682 0-1.286.437-1.469 1-.219.674.719 2 .719 2s-2-.75-2-2.375c0-1.562 1-2.625 2.5-2.625h1.25z" color="#bebebe" fill="#393634" fill-opacity=".784" style="text-decoration-line:none;text-indent:0;text-transform:none"/><path d="m180.03-354.5 6.469 4.5-6.469 4.5v-2.5h-2c-1.365 0-2.572.873-2.938 2-.437 1.347 1.438 4 1.438 4s-4-1.5-4-4.75c0-3.123 2-5.25 5-5.25h2.5z" color="#bebebe" fill="#393634" fill-opacity=".784" style="text-decoration-line:none;text-indent:0;text-transform:none"/><path d="m256.55-366.75 9.703 6.75-9.703 6.75V-357h-3c-2.047 0-3.857 1.31-4.406 3-.657 2.021 2.156 6 2.156 6s-6-2.25-6-7.125c0-4.685 3-7.875 7.5-7.875h3.75z" color="#bebebe" fill="#393634" fill-opacity=".784" style="text-decoration-line:none;text-indent:0;text-transform:none"/><path d="m377.09-426.5 19.406 13.5-19.406 13.5v-7.5h-6c-4.095 0-7.715 2.62-8.813 6-1.312 4.043 4.313 12 4.313 12s-12-4.5-12-14.25c0-9.37 6-15.75 15-15.75h7.5z" color="#bebebe" fill="#393634" fill-opacity=".784" style="text-decoration-line:none;text-indent:0;text-transform:none"/><path d="m595.19-536 38.812 27-38.812 27v-15h-12c-8.19 0-15.43 5.24-17.625 12-2.626 8.085 8.625 24 8.625 24s-24-9-24-28.5c0-18.741 12-31.5 30-31.5h15z" color="#bebebe" fill="#393634" fill-opacity=".784" style="text-decoration-line:none;text-indent:0;text-transform:none"/></g></svg>