<svg version="1.0" viewBox="0 0 128 128" xmlns="http://www.w3.org/2000/svg"><path d="M16 24c-4.432 0-8 3.568-8 8v72c0 4.432 3.568 8 8 8h16l8 8h48l8-8h16c4.432 0 8-3.568 8-8V32c0-4.432-3.568-8-8-8z" fill="#dedede"/><path d="M18 34v64h16l8 8h44l8-8h16V34z" fill="#4d4d4d"/><g fill="#d1a023"><path d="M66 34h6v20h-6z"/><path d="M56 34h6v20h-6z"/><path d="M76 34h6v20h-6z"/><path d="M86 34h6v20h-6z"/><path d="M46 34h6v20h-6z"/><path d="M36 34h6v20h-6z"/><path d="M96 34h6v20h-6z"/><path d="M26 34h6v20h-6z"/></g><path d="M16 24c-4.432 0-8 3.568-8 8v72c0 4.432 3.568 8 8 8h16l8 8h48l8-8h16c4.432 0 8-3.568 8-8V32c0-4.432-3.568-8-8-8zm0 1h96c3.878 0 7 3.122 7 7v69c0 3.878-3.122 7-7 7H96l-8 8H40l-8-8H16c-3.878 0-7-3.122-7-7V32c0-3.878 3.122-7 7-7z" fill-opacity=".5"/><g transform="translate(-200 -156)"><rect x="268" y="222" width="60" height="62" ry="30" fill="#cf3b00"/><path d="M298 222c-16.62 0-30 13.38-30 30v2c0 16.62 13.38 30 30 30s30-13.38 30-30v-2c0-16.62-13.38-30-30-30zm0 1a29 29 0 0 1 29 29 29 29 0 0 1-29 29 29 29 0 0 1-29-29 29 29 0 0 1 29-29z" fill-opacity=".502"/><path d="M289 241a3 3 0 0 0-3 3 3 3 0 0 0 .879 2.121l6.879 6.879-6.88 6.879A3 3 0 0 0 286 262a3 3 0 0 0 3 3 3 3 0 0 0 2.121-.879l6.879-6.879 6.85 6.85A3 3 0 0 0 307 265a3 3 0 0 0 3-3 3 3 0 0 0-.879-2.121L302.242 253l6.85-6.85A3 3 0 0 0 310 244a3 3 0 0 0-3-3 3 3 0 0 0-2.121.879L298 248.758l-6.85-6.85a3 3 0 0 0-.03-.03A3 3 0 0 0 289 241z" fill="#fff"/></g></svg>