<svg version="1.0" viewBox="0 0 128 128" xmlns="http://www.w3.org/2000/svg"><g transform="translate(-312 144)"><rect x="340" y="-136" width="72" height="28" ry="4" fill="#dedede"/><path d="M344-136c-2.216 0-4 1.784-4 4v37a3.97 3.97 0 0 0 1 2.625V-132c0-1.662 1.338-3 3-3h63.906c1.662 0 3 1.338 3 3v39.738A3.977 3.977 0 0 0 412-95v-37c0-2.216-1.784-4-4-4z" fill="#010101" fill-opacity=".5"/><rect x="324" y="-108" width="104" height="52" ry="8" fill="#474341"/><path d="M332-108c-4.432 0-8 3.568-8 8v36c0 4.432 3.568 8 8 8h88c4.432 0 8-3.568 8-8v-36c0-4.432-3.568-8-8-8zm0 1h88c3.878 0 7 3.122 7 7v33c0 3.878-3.122 7-7 7h-88c-3.878 0-7-3.122-7-7v-33c0-3.878 3.122-7 7-7z" fill="#fff" fill-opacity=".5"/><rect x="340" y="-80" width="72" height="56" ry="4" fill="#dedede"/><circle cx="338" cy="-94" r="4" fill="#73c48f"/><path d="M410.91-78.738V-31c0 1.662-1.338 3-3 3h-63.906c-1.662 0-3-1.338-3-3v-47.625a3.97 3.97 0 0 0-1 2.625v48c0 2.216 1.784 4 4 4h64c2.216 0 4-1.784 4-4v-48c0-1.065-.42-2.023-1.094-2.738z" fill="#010101" fill-opacity=".5"/><rect x="376" y="-83" width="64" height="67" ry="32" fill="#cf3b00"/><path d="M408-83c-17.728 0-32 14.272-32 32v3c0 17.728 14.272 32 32 32s32-14.272 32-32v-3c0-17.728-14.272-32-32-32zm0 1c17.174 0 31 13.826 31 31s-13.826 31-31 31-31-13.826-31-31 13.826-31 31-31z" fill-opacity=".5"/><path d="M396-68a4 4 0 0 0-4 4 4 4 0 0 0 1.172 2.828L402.344-52l-9.172 9.172A4 4 0 0 0 392-40a4 4 0 0 0 4 4 4 4 0 0 0 2.828-1.172L408-46.344l9.133 9.133a4 4 0 0 0 2.867 1.21 4 4 0 0 0 4-4 4 4 0 0 0-1.172-2.827L413.656-52l9.133-9.133a4 4 0 0 0 1.21-2.867 4 4 0 0 0-4-4 4 4 0 0 0-2.827 1.172L408-57.656l-9.133-9.133a4 4 0 0 0-.04-.04A4 4 0 0 0 396-68z" fill="#fff"/></g></svg>