<svg version="1.0" viewBox="0 0 128 128" xmlns="http://www.w3.org/2000/svg"><g transform="translate(-312 744)"><rect x="340" y="-736" width="72" height="28" ry="4" fill="#dedede"/><path d="M344-736c-2.216 0-4 1.784-4 4v37a3.97 3.97 0 0 0 1 2.625V-732c0-1.662 1.338-3 3-3h63.906c1.662 0 3 1.338 3 3v39.738A3.977 3.977 0 0 0 412-695v-37c0-2.216-1.784-4-4-4z" fill="#010101" fill-opacity=".5"/><rect x="324" y="-708" width="104" height="52" ry="8" fill="#474341"/><path d="M332-708c-4.432 0-8 3.568-8 8v36c0 4.432 3.568 8 8 8h88c4.432 0 8-3.568 8-8v-36c0-4.432-3.568-8-8-8zm0 1h88c3.878 0 7 3.122 7 7v33c0 3.878-3.122 7-7 7h-88c-3.878 0-7-3.122-7-7v-33c0-3.878 3.122-7 7-7z" fill="#fff" fill-opacity=".5"/><rect x="340" y="-680" width="72" height="56" ry="4" fill="#dedede"/><circle cx="338" cy="-694" r="4" fill="#73c48f"/><path d="M410.91-678.74v47.738c0 1.662-1.338 3-3 3h-63.906c-1.662 0-3-1.338-3-3v-47.625a3.97 3.97 0 0 0-1 2.625v48c0 2.216 1.784 4 4 4h64c2.216 0 4-1.784 4-4v-48c0-1.065-.42-2.023-1.094-2.738z" fill="#010101" fill-opacity=".5"/><rect x="376" y="-683" width="64" height="67" ry="32" fill="#48b9c7"/><path d="M408-683c-17.728 0-32 14.272-32 32v3c0 17.728 14.272 32 32 32s32-14.272 32-32v-3c0-17.728-14.272-32-32-32zm0 1c17.174 0 31 13.826 31 31s-13.826 31-31 31-31-13.826-31-31 13.826-31 31-31z" fill-opacity=".5"/><path d="M411-636v-18h-6v18zm0-24v-6h-6v6z" fill="#fff"/></g></svg>