<svg version="1.0" viewBox="0 0 128 128" xmlns="http://www.w3.org/2000/svg"><g transform="translate(-312 444)"><rect transform="matrix(0 -1 -1 0 0 0)" x="324" y="-420" width="108" height="88" ry="8" fill="#50443f"/><rect transform="matrix(0 -1 -1 0 0 0)" x="328" y="-419" width="103" height="86" ry="7.5" fill="#a1887f"/><path fill="#fff" d="M340-424h72v89h-72z"/><rect x="366" y="-440" width="20" height="25" ry="10" fill="#666"/><rect x="368" y="-438" width="16" height="22.495" ry="8" fill="#ccc"/><path fill="#ccc" d="M358-422h36v7h-36z"/><rect x="358" y="-426" width="36" height="8" ry="4" fill="#ccc"/><circle cx="376" cy="-430" r="4" fill="#fff"/><path d="M380-371h-8v-33h8zm0 16h-8v-8h8z" fill="#f15d22"/></g></svg>