<svg version="1.0" viewBox="0 0 48 48" xmlns="http://www.w3.org/2000/svg"><g transform="translate(-156 -236)"><rect x="160" y="240" width="40" height="39" ry="3" fill="#767676"/><rect x="161" y="241" width="38" height="35" ry="2.5" fill="#ededed"/><rect x="161" y="241" width="38" height="6" ry="2" fill="#faa41a"/><rect x="161" y="244" width="38" height="5" ry="0" fill="#faa41a"/><g aria-label="19"><path d="m170.015 269.195 2.988-.2v-12h-3v-1.5l6-1.5v15l3.012.2-.012 1.8h-9z"/><path d="M185.645 268.04c.86 0 1.553-.327 2.082-.98.529-.661.777-1.649.777-2.963v-.243c-.36.463-.773.816-1.273 1.058a3.73 3.73 0 0 1-1.608.352c-1.498 0-2.673-.488-3.525-1.465-.851-.984-1.094-2.338-1.094-4.064 0-1.623.323-2.981 1.337-4.076 1.02-1.101 2.31-1.652 3.866-1.652 1.637 0 2.966.566 3.987 1.696 1.02 1.124 1.31 2.706 1.31 4.748v3.48c0 2.078-.348 3.694-1.486 4.847-1.131 1.153-2.589 1.73-4.373 1.73a8.923 8.923 0 0 1-1.73-.177 7.52 7.52 0 0 1-1.41-.405v-1.508l.144-.91c.492.183.97.323 1.432.41.463.081.984.122 1.564.122zm.518-5.133c.536 0 1.002-.099 1.399-.297.403-.206.707-.478.942-.815v-1.719c0-1.174-.19-2.067-.601-2.676-.411-.61-.97-.914-1.674-.914-.646 0-1.175.319-1.586.958-.404.631-.639 1.667-.639 2.563 0 .97.213 1.468.573 2.041.367.573.895.86 1.586.86z"/></g></g></svg>