<svg version="1.0" viewBox="0 0 48 48" xmlns="http://www.w3.org/2000/svg"><g stroke-linecap="square" transform="translate(-156 -236)"><path d="M180 238c-6.648 0-12 5.352-12 12v19a11.962 11.962 0 0 0 11.152 11.957 7.965 7.965 0 0 1-7.152-7.941v-21.031a7.967 7.967 0 0 1 7.984-7.985 7.967 7.967 0 0 1 7.984 7.985v21.03a7.966 7.966 0 0 1-7.166 7.944A11.961 11.961 0 0 0 192 269v-19c0-6.648-5.352-12-12-12z" fill="#6f6f6f"/><path d="M179.5 239c-5.817 0-10.5 4.683-10.5 10.5v21c0 5.817 4.683 10.5 10.5 10.5h1c5.817 0 10.5-4.683 10.5-10.5v-21c0-5.817-4.683-10.5-10.5-10.5zm.5 2c4.986 0 9 4.021 9 9.016v19.969c0 4.994-4.014 9.015-9 9.015s-9-4.02-9-9.015v-19.97a8.988 8.988 0 0 1 9-9.015z" fill="#dedede"/><rect x="164" y="257" width="32" height="24" ry="3" fill="#ffce51"/><path d="M167 257c-1.662 0-3 1.338-3 3v1h32v-1c0-1.662-1.338-3-3-3zm-3 20v1c0 1.662 1.338 3 3 3h26c1.662 0 3-1.338 3-3v-1z" fill-opacity=".118"/><path d="M167 257c-1.662 0-3 1.338-3 3v18c0 1.662 1.338 3 3 3h26c1.662 0 3-1.338 3-3v-18c0-1.662-1.338-3-3-3zm0 1h26c1.108 0 2 .892 2 2v16c0 1.108-.892 2-2 2h-26c-1.108 0-2-.892-2-2v-16c0-1.108.892-2 2-2z" fill-opacity=".502"/></g></svg>