<svg version="1.0" viewBox="0 0 48 48" xmlns="http://www.w3.org/2000/svg"><g stroke-linecap="square"><path d="M36 2c-6.648 0-12 5.352-12 12v15h4.031V15.984A7.967 7.967 0 0 1 36.016 8 7.967 7.967 0 0 1 44 15.984V17h4v-3c0-6.648-5.352-12-12-12z" fill="#6f6f6f"/><path d="M35.5 3C29.683 3 25 7.683 25 13.5V28h2V14.016A8.988 8.988 0 0 1 36 5a8.988 8.988 0 0 1 9 9h2v-.5C47 7.683 42.317 3 36.5 3z" fill="#dedede"/><g transform="translate(-156 -236)" stroke-width="3"><rect x="156" y="257" width="32" height="24" ry="3" fill="#ffce51"/><path d="M159 257c-1.662 0-3 1.338-3 3v1h32v-1c0-1.662-1.338-3-3-3zm-3 20v1c0 1.662 1.338 3 3 3h26c1.662 0 3-1.338 3-3v-1z" fill-opacity=".118"/><path d="M159 257c-1.662 0-3 1.338-3 3v18c0 1.662 1.338 3 3 3h26c1.662 0 3-1.338 3-3v-18c0-1.662-1.338-3-3-3zm0 1h26c1.108 0 2 .892 2 2v16c0 1.108-.892 2-2 2h-26c-1.108 0-2-.892-2-2v-16c0-1.108.892-2 2-2z" fill-opacity=".502"/></g></g></svg>