<svg version="1.0" viewBox="0 0 48 48" xmlns="http://www.w3.org/2000/svg"><g transform="translate(-156 64)"><rect x="169" y="-35" width="22" height="14" ry="1.5" fill="#424242"/><rect x="170" y="-34" width="20" height="10" ry="1.5" fill="#848484"/><rect x="159" y="-59" width="42" height="30" ry="2.25" fill="#6f6f6f"/><rect x="160" y="-58" width="40" height="26" ry="1.5" fill="#acacac"/><rect x="162" y="-56" width="36" height="20" ry=".75" fill="#464646"/><rect x="175" y="-35" width="10" height="2" ry=".75" fill="#424242"/><rect transform="matrix(0 -1 -1 0 0 0)" x="36" y="-198" width="20" height="36" ry=".5" fill="#cf3b00"/><path d="M174-53v6h2v-6zm10 0v6h2v-6zm-12 10v2h16v-2h-14zm16 2v2h2v-2zm-16 0h-2v2h2z" fill="#fff"/></g></svg>