<svg version="1.0" viewBox="0 0 48 48" xmlns="http://www.w3.org/2000/svg"><g transform="translate(-156 -236)"><rect transform="rotate(-45)" x="-71.424" y="295.94" width="30.418" height="29.658" ry="3" fill="#faa41a"/><path d="M180.27 239.5c-.767 0-1.535.293-2.123.88l-17.266 17.267a2.995 2.995 0 0 0 0 4.244l16.729 16.729a2.995 2.995 0 0 0 4.244 0l17.266-17.266a2.995 2.995 0 0 0 0-4.244l-16.729-16.73a2.99 2.99 0 0 0-2.121-.88zm-.031 1c.511 0 1.022.196 1.414.588l15.76 15.76a1.995 1.995 0 0 1 0 2.828l-16.236 16.236a1.995 1.995 0 0 1-2.828 0l-15.76-15.76a1.995 1.995 0 0 1 0-2.828l16.236-16.236a1.994 1.994 0 0 1 1.414-.588z" fill-opacity=".502"/><path d="M182 248v16h-4v-16zm0 20v4h-4v-4z" fill="#fff"/></g></svg>