<svg version="1.0" viewBox="0 0 48 48" xmlns="http://www.w3.org/2000/svg"><g transform="translate(-156 -236)"><rect x="158" y="238" width="44" height="46" ry="22" fill="#73c48f"/><path d="M180 238c-12.188 0-22 9.812-22 22v2c0 12.188 9.812 22 22 22s22-9.812 22-22v-2c0-12.188-9.812-22-22-22zm0 1c11.634 0 21 9.366 21 21s-9.366 21-21 21-21-9.366-21-21 9.366-21 21-21z" fill-opacity=".502"/><path d="M180 252a4.5 4.5 0 0 0-4.5 4.5 4.476 4.476 0 0 0 2.732 4.138L175.5 270h9l-2.732-9.362a4.476 4.476 0 0 0 2.732-4.138 4.5 4.5 0 0 0-4.5-4.5z" color="#000" fill-opacity=".196"/><path d="M180 251a4.5 4.5 0 0 0-4.5 4.5 4.476 4.476 0 0 0 2.732 4.138L175.5 269h9l-2.732-9.362a4.476 4.476 0 0 0 2.732-4.138 4.5 4.5 0 0 0-4.5-4.5z" color="#000" fill="#fff"/></g></svg>