<svg version="1.0" viewBox="0 0 48 48" xmlns="http://www.w3.org/2000/svg"><g transform="translate(-156 -236)"><rect transform="rotate(-45)" x="-71.424" y="295.94" width="30.418" height="29.658" ry="3" fill="#6a7ce0"/><path d="M180.27 239.5c-.767 0-1.535.293-2.123.88l-17.266 17.267a2.995 2.995 0 0 0 0 4.244l16.729 16.729a2.995 2.995 0 0 0 4.244 0l17.266-17.266a2.995 2.995 0 0 0 0-4.244l-16.729-16.73a2.99 2.99 0 0 0-2.121-.88zm-.031 1c.511 0 1.022.196 1.414.588l15.76 15.76a1.995 1.995 0 0 1 0 2.828l-16.236 16.236a1.995 1.995 0 0 1-2.828 0l-15.76-15.76a1.995 1.995 0 0 1 0-2.828l16.236-16.236a1.994 1.994 0 0 1 1.414-.588z" fill-opacity=".502"/><path d="M181.5 269h-3v-3h3zm3.105-11.625-1.35 1.38c-1.08 1.095-1.755 1.995-1.755 4.245h-3v-.75c0-1.65.675-3.15 1.755-4.245l1.86-1.89c.555-.54.885-1.29.885-2.115 0-1.65-1.35-3-3-3s-3 1.35-3 3h-3c0-3.315 2.685-6 6-6s6 2.685 6 6c0 1.32-.54 2.52-1.395 3.375z" fill="#fff"/></g></svg>