<svg version="1.0" viewBox="0 0 48 48" xmlns="http://www.w3.org/2000/svg" xmlns:xlink="http://www.w3.org/1999/xlink"><g transform="translate(-156 1264)"><g id="a" stroke-linecap="square"><rect x="238" y="224" width="36" height="14" ry="2" fill="#dedede" stroke-width="2.558"/><path d="M240 224c-1.108 0-2 .892-2 2v16a1.99 1.99 0 0 0 1 1.725V226c0-.554.446-1 1-1h32c.554 0 1 .446 1 1v17.725a1.99 1.99 0 0 0 1-1.725v-16c0-1.108-.892-2-2-2z" fill="#010101" fill-opacity=".5" stroke-width="2"/><rect x="230" y="238" width="52" height="26" ry="4" fill="#474341" stroke-width="2"/><path d="M234 238c-2.216 0-4 1.784-4 4v18c0 2.216 1.784 4 4 4h44c2.216 0 4-1.784 4-4v-18c0-2.216-1.784-4-4-4zm0 1h44c1.662 0 3 1.338 3 3v16c0 1.662-1.338 3-3 3h-44c-1.662 0-3-1.338-3-3v-16c0-1.662 1.338-3 3-3z" fill="#fff" fill-opacity=".5" stroke-width="2"/><rect x="238" y="252" width="36" height="28" ry="2" fill="#dedede" stroke-width="2.558"/><circle cx="237" cy="245" r="2" fill="#73c48f" stroke-width="2"/><rect x="107" y="254" width="18" height="7" ry="1" fill="#dedede" stroke-width="1.279"/><path d="M108 254c-.554 0-1 .446-1 1v7.5c0 .554.446 1 1 1V255h16v8.5c.554 0 1-.446 1-1V255c0-.554-.446-1-1-1z" fill-opacity=".5" stroke-width="2"/><rect x="103" y="261" width="26" height="13" ry="2" fill="#474341"/><path d="M105 261c-1.108 0-2 .892-2 2v9c0 1.108.892 2 2 2h22c1.108 0 2-.892 2-2v-9c0-1.108-.892-2-2-2zm0 1h22c.554 0 1 .446 1 1v8c0 .554-.446 1-1 1h-22c-.554 0-1-.446-1-1v-8c0-.554.446-1 1-1z" fill="#fff" fill-opacity=".5" stroke-width="2"/><rect x="107" y="268" width="18" height="14" ry="1" fill="#dedede" stroke-width="1.279"/><circle cx="106.5" cy="265" r="1" fill="#73c48f"/><rect x="167" y="239" width="27" height="10" ry="1.5" fill="#dedede" stroke-width="1.919"/><path d="M168.5 239c-.831 0-1.5.669-1.5 1.5V254c0 .654.418 1.202 1 1.408V240.5c0-.277.223-.5.5-.5h24c.277 0 .5.223.5.5v14.908c.582-.206 1-.754 1-1.408v-13.5c0-.831-.669-1.5-1.5-1.5z" fill="#010101" fill-opacity=".5" stroke-width="2"/><rect x="160" y="249" width="40" height="20" ry="3" fill="#474341" stroke-width="1.5"/><path d="M163 249c-1.662 0-3 1.338-3 3v14c0 1.662 1.338 3 3 3h34c1.662 0 3-1.338 3-3v-14c0-1.662-1.338-3-3-3zm0 1h34c1.108 0 2 .892 2 2v12c0 1.108-.892 2-2 2h-34c-1.108 0-2-.892-2-2v-12c0-1.108.892-2 2-2z" fill="#fff" fill-opacity=".5" stroke-width="2"/><rect x="167" y="260" width="27" height="21" ry="1.5" fill="#dedede" stroke-width="1.919"/><circle cx="166.25" cy="254.5" r="1.5" fill="#73c48f" stroke-width="1.5"/><rect x="19" y="268" width="10" height="4" ry=".5" fill="#dedede" stroke-width=".64"/><path d="M19.5 268c-.277 0-.5.223-.5.5v5c0 .277.223.5.5.5h.5v-5h8v5h.5c.277 0 .5-.223.5-.5v-5c0-.277-.223-.5-.5-.5z" fill-opacity=".5" stroke-width="2"/><rect x="16" y="272" width="16" height="8" ry="1" fill="#474341" stroke-width=".5"/><path d="M17 272c-.554 0-1 .446-1 1v6c0 .554.446 1 1 1h14c.554 0 1-.446 1-1v-6c0-.554-.446-1-1-1zm0 1h14v6H17z" fill="#fff" fill-opacity=".5" stroke-width="2"/><rect x="19" y="276" width="10" height="8" ry=".5" fill="#dedede" stroke-width=".64"/><rect x="18" y="274" width="1" height="1" ry="0" fill="#73c48f" stroke-width="2"/><rect x="61" y="260" width="14" height="6" ry="1" fill="#dedede" stroke-width=".959"/><path d="M62 260c-.554 0-1 .446-1 1v7.5c0 .554.446 1 1 1V261h12v8.5c.554 0 1-.446 1-1V261c0-.554-.446-1-1-1z" fill-opacity=".5" stroke-width="2"/><rect x="56" y="266" width="24" height="11" ry="1.5" fill="#474341" stroke-width=".75"/><path d="M57.5 266c-.831 0-1.5.669-1.5 1.5v8c0 .831.669 1.5 1.5 1.5h21c.831 0 1.5-.669 1.5-1.5v-8c0-.831-.669-1.5-1.5-1.5zm-.5 1h22v9H57z" fill="#fff" fill-opacity=".5" stroke-width="2"/><rect x="61" y="272" width="14" height="12" ry="1" fill="#dedede" stroke-width=".959"/><rect x="59" y="268" width="1.5" height="1.5" ry=".75" fill="#73c48f" stroke-width="2"/><rect x="340" y="164" width="72" height="28" ry="4" fill="#dedede" stroke-width="5.117"/><path d="M344 164c-2.216 0-4 1.784-4 4v37a3.97 3.97 0 0 0 1 2.625V168c0-1.662 1.338-3 3-3h63.906c1.662 0 3 1.338 3 3v39.738A3.977 3.977 0 0 0 412 205v-37c0-2.216-1.784-4-4-4z" fill="#010101" fill-opacity=".5" stroke-width="2"/><rect x="324" y="192" width="104" height="52" ry="8" fill="#474341" stroke-width="4"/><path d="M332 192c-4.432 0-8 3.568-8 8v36c0 4.432 3.568 8 8 8h88c4.432 0 8-3.568 8-8v-36c0-4.432-3.568-8-8-8zm0 1h88c3.878 0 7 3.122 7 7v33c0 3.878-3.122 7-7 7h-88c-3.878 0-7-3.122-7-7v-33c0-3.878 3.122-7 7-7z" fill="#fff" fill-opacity=".5" stroke-width="2"/><rect x="340" y="220" width="72" height="56" ry="4" fill="#dedede" stroke-width="5.117"/><circle cx="338" cy="206" r="4" fill="#73c48f" stroke-width="4"/><rect x="520" y="44" width="144" height="56" ry="8" fill="#dedede" stroke-width="10.234"/><path d="M528 44c-4.432 0-8 3.568-8 8v66a7.98 7.98 0 0 0 1 3.88V52c0-3.878 3.122-7 7-7h128c3.878 0 7 3.122 7 7v69.88c.636-1.147 1-2.47 1-3.88V52c0-4.432-3.568-8-8-8z" fill-opacity=".5" stroke-width="2"/><rect x="488" y="100" width="208" height="104" ry="16" fill="#474341" stroke-width="8"/><path d="M504 100c-8.864 0-16 7.136-16 16v72c0 8.864 7.136 16 16 16h176c8.864 0 16-7.136 16-16v-72c0-8.864-7.136-16-16-16zm0 1h176c8.31 0 15 6.69 15 15v68c0 8.31-6.69 15-15 15H504c-8.31 0-15-6.69-15-15v-68c0-8.31 6.69-15 15-15z" fill="#fff" fill-opacity=".5" stroke-width="8"/><rect x="520" y="156" width="144" height="112" ry="8" fill="#dedede" stroke-width="10.234"/><circle cx="516" cy="128" r="8" fill="#73c48f" stroke-width="8"/><path d="M19.5 276c-.277 0-.5.223-.5.5v7c0 .277.223.5.5.5h9c.277 0 .5-.223.5-.5v-7c0-.277-.223-.5-.5-.5H28v7h-8v-7z" fill-opacity=".5" stroke-width="2"/><path d="M62 272c-.554 0-1 .446-1 1v10c0 .554.446 1 1 1h12c.554 0 1-.446 1-1v-10c0-.554-.446-1-1-1v11H62z" fill-opacity=".5" stroke-width="2"/><path d="M108 268c-.554 0-1 .446-1 1v12c0 .554.446 1 1 1h16c.554 0 1-.446 1-1v-12c0-.554-.446-1-1-1v12h-16z" fill-opacity=".5" stroke-width="2"/><path d="M168 260.09c-.582.206-1 .754-1 1.408v18c0 .831.669 1.5 1.5 1.5h24c.831 0 1.5-.669 1.5-1.5v-18c0-.654-.418-1.202-1-1.408v17.408c0 .277-.223.5-.5.5h-24a.499.499 0 0 1-.5-.5z" fill="#010101" fill-opacity=".5" stroke-width="2"/><path d="M239 252.28a1.99 1.99 0 0 0-1 1.725v24c0 1.108.892 2 2 2h32c1.108 0 2-.892 2-2v-24a1.99 1.99 0 0 0-1-1.725v23.725c0 .554-.446 1-1 1h-32c-.554 0-1-.446-1-1z" fill="#010101" fill-opacity=".5" stroke-width="2"/><path d="M410.91 221.26v47.738c0 1.662-1.338 3-3 3h-63.906c-1.662 0-3-1.338-3-3v-47.625a3.97 3.97 0 0 0-1 2.625v48c0 2.216 1.784 4 4 4h64c2.216 0 4-1.784 4-4v-48c0-1.065-.42-2.023-1.094-2.738z" fill="#010101" fill-opacity=".5" stroke-width="2"/><path d="M521 160.12a7.987 7.987 0 0 0-1 3.88v96c0 4.433 3.568 8 8 8h128c4.432 0 8-3.567 8-8v-96a7.98 7.98 0 0 0-1-3.88v95.881c0 3.878-3.122 7-7 7H528c-3.878 0-7-3.122-7-7z" fill-opacity=".5" stroke-width="2"/></g></g><g transform="translate(-156 1264)"><use transform="translate(0 -300)" width="100%" height="100%" xlink:href="#a"/><rect x="116" y="-33" width="16" height="17" ry="8" fill="#cf3b00"/><path d="M124-33c-4.432 0-8 3.568-8 8v1c0 4.432 3.568 8 8 8s8-3.568 8-8v-1c0-4.432-3.568-8-8-8zm0 1c3.878 0 7 3.122 7 7s-3.122 7-7 7-7-3.122-7-7 3.122-7 7-7z" fill-opacity=".5"/><rect x="68" y="-28" width="12" height="12" ry="6" fill="#cf3b00"/><path d="M74-28c-3.324 0-6 2.676-6 6s2.676 6 6 6 6-2.676 6-6-2.676-6-6-6zm0 1c2.77 0 5 2.23 5 5s-2.23 5-5 5-5-2.23-5-5 2.23-5 5-5z" fill-opacity=".5"/><rect x="24" y="-24" width="8" height="8" ry="4" fill="#cf3b00"/><path d="M28-24c-2.216 0-4 1.784-4 4s1.784 4 4 4 4-1.784 4-4-1.784-4-4-4zm0 1c1.662 0 3 1.338 3 3s-1.338 3-3 3-3-1.338-3-3 1.338-3 3-3z" fill-opacity=".5"/><rect x="180" y="-42" width="24" height="26" ry="12" fill="#cf3b00"/><path d="M192-42c-6.648 0-12 5.352-12 12v2c0 6.648 5.352 12 12 12s12-5.352 12-12v-2c0-6.648-5.352-12-12-12zm0 1c6.094 0 11 4.906 11 11s-4.906 11-11 11-11-4.906-11-11 4.906-11 11-11z" fill-opacity=".5"/><rect x="256" y="-50" width="32" height="34" ry="16" fill="#cf3b00"/><path d="M272-50c-8.864 0-16 7.136-16 16v2c0 8.864 7.136 16 16 16s16-7.136 16-16v-2c0-8.864-7.136-16-16-16zm0 1c8.31 0 15 6.69 15 15s-6.69 15-15 15-15-6.69-15-15 6.69-15 15-15z" fill-opacity=".5"/><rect x="376" y="-83" width="64" height="67" ry="32" fill="#cf3b00"/><path d="M408-83c-17.728 0-32 14.272-32 32v3c0 17.728 14.272 32 32 32s32-14.272 32-32v-3c0-17.728-14.272-32-32-32zm0 1c17.174 0 31 13.826 31 31s-13.826 31-31 31-31-13.826-31-31 13.826-31 31-31z" fill-opacity=".5"/><rect x="592" y="-148" width="128" height="132" ry="64" fill="#cf3b00"/><path d="M656-148c-35.456 0-64 28.544-64 64v4c0 35.456 28.544 64 64 64s64-28.544 64-64v-4c0-35.456-28.544-64-64-64zm0 1c34.902 0 63 28.098 63 63s-28.098 63-63 63-63-28.098-63-63 28.098-63 63-63z" fill-opacity=".5"/><path d="M121-29.5a1 1 0 0 0-1 1 1 1 0 0 0 .293.707l2.293 2.293-2.293 2.293a1 1 0 0 0-.293.707 1 1 0 0 0 1 1 1 1 0 0 0 .707-.293L124-24.086l2.283 2.283a1 1 0 0 0 .717.303 1 1 0 0 0 1-1 1 1 0 0 0-.293-.707l-2.293-2.293 2.283-2.283A1 1 0 0 0 128-28.5a1 1 0 0 0-1-1 1 1 0 0 0-.707.293L124-26.914l-2.283-2.283a1 1 0 0 0-.01-.01A1 1 0 0 0 121-29.5z" fill="#fff"/><path d="M26.5-22a.5.5 0 0 0-.5.5.5.5 0 0 0 .146.354L27.293-20l-1.147 1.147A.5.5 0 0 0 26-18.5a.5.5 0 0 0 .5.5.5.5 0 0 0 .354-.146L28-19.293l1.142 1.142A.5.5 0 0 0 29.5-18a.5.5 0 0 0 .5-.5.5.5 0 0 0-.146-.354L28.707-20l1.142-1.142A.5.5 0 0 0 30-21.5a.5.5 0 0 0-.5-.5.5.5 0 0 0-.354.146L28-20.707l-1.142-1.142a.5.5 0 0 0-.005-.005A.5.5 0 0 0 26.5-22z" fill="#fff"/><path d="M266-42a2 2 0 0 0-2 2 2 2 0 0 0 .586 1.414L269.172-34l-4.586 4.586A2 2 0 0 0 264-28a2 2 0 0 0 2 2 2 2 0 0 0 1.414-.586L272-31.172l4.566 4.567A2 2 0 0 0 278-26a2 2 0 0 0 2-2 2 2 0 0 0-.586-1.414L274.828-34l4.567-4.566A2 2 0 0 0 280-40a2 2 0 0 0-2-2 2 2 0 0 0-1.414.586L272-36.828l-4.566-4.567a2 2 0 0 0-.02-.02A2 2 0 0 0 266-42z" fill="#fff"/><path d="M396-68a4 4 0 0 0-4 4 4 4 0 0 0 1.172 2.828L402.344-52l-9.172 9.172A4 4 0 0 0 392-40a4 4 0 0 0 4 4 4 4 0 0 0 2.828-1.172L408-46.344l9.133 9.133a4 4 0 0 0 2.867 1.21 4 4 0 0 0 4-4 4 4 0 0 0-1.172-2.827L413.656-52l9.133-9.133a4 4 0 0 0 1.21-2.867 4 4 0 0 0-4-4 4 4 0 0 0-2.827 1.172L408-57.656l-9.133-9.133a4 4 0 0 0-.04-.04A4 4 0 0 0 396-68z" fill="#fff"/><path d="M632-114a8 8 0 0 0-8 8 8 8 0 0 0 2.344 5.656L644.688-82l-18.344 18.344A8 8 0 0 0 624-58a8 8 0 0 0 8 8 8 8 0 0 0 5.656-2.343L656-70.687l18.266 18.266A8 8 0 0 0 680.001-50a8 8 0 0 0 8-8 8 8 0 0 0-2.344-5.656L667.313-82l18.266-18.266A8 8 0 0 0 688-106a8 8 0 0 0-8-8 8 8 0 0 0-5.657 2.344L656-93.312l-18.266-18.266a8 8 0 0 0-.08-.08 8 8 0 0 0-5.656-2.342z" fill="#fff"/><path d="M187.5-35a1.5 1.5 0 0 0-1.5 1.5 1.5 1.5 0 0 0 .44 1.06l3.439 3.44-3.44 3.44A1.5 1.5 0 0 0 186-24.5a1.5 1.5 0 0 0 1.5 1.5 1.5 1.5 0 0 0 1.06-.44l3.44-3.439 3.425 3.425A1.5 1.5 0 0 0 196.5-23a1.5 1.5 0 0 0 1.5-1.5 1.5 1.5 0 0 0-.44-1.06L194.122-29l3.425-3.425A1.5 1.5 0 0 0 198-33.5a1.5 1.5 0 0 0-1.5-1.5 1.5 1.5 0 0 0-1.06.44L192-31.122l-3.425-3.425a1.5 1.5 0 0 0-.015-.015A1.5 1.5 0 0 0 187.5-35z" fill="#fff"/><path d="M71.75-25a.75.75 0 0 0-.75.75.75.75 0 0 0 .22.53L72.94-22l-1.72 1.72a.75.75 0 0 0-.22.53.75.75 0 0 0 .75.75.75.75 0 0 0 .53-.22L74-20.94l1.712 1.713a.75.75 0 0 0 .538.227.75.75 0 0 0 .75-.75.75.75 0 0 0-.22-.53L75.06-22l1.713-1.712A.75.75 0 0 0 77-24.25a.75.75 0 0 0-.75-.75.75.75 0 0 0-.53.22L74-23.06l-1.712-1.713a.75.75 0 0 0-.008-.007.75.75 0 0 0-.53-.22z" fill="#fff"/></g><g transform="translate(-156 1264)"><use transform="translate(0 -600)" width="100%" height="100%" xlink:href="#a"/><rect x="116" y="-333" width="16" height="17" ry="8" fill="#479863"/><path d="M124-333c-4.432 0-8 3.568-8 8v1c0 4.432 3.568 8 8 8s8-3.568 8-8v-1c0-4.432-3.568-8-8-8zm0 1c3.878 0 7 3.122 7 7s-3.122 7-7 7-7-3.122-7-7 3.122-7 7-7z" fill-opacity=".5"/><rect x="68" y="-328" width="12" height="12" ry="6" fill="#479863"/><g fill="#fff" stroke-linecap="square" stroke-width="2"><rect x="73" y="-326" width="2" height="8" ry="0"/><path d="M70-323h8v2h-8z"/></g><path d="M74-328c-3.324 0-6 2.676-6 6s2.676 6 6 6 6-2.676 6-6-2.676-6-6-6zm0 1c2.77 0 5 2.23 5 5s-2.23 5-5 5-5-2.23-5-5 2.23-5 5-5z" fill-opacity=".5"/><rect x="23" y="-325" width="9" height="9" ry="4.5" fill="#479863"/><rect x="180" y="-342" width="24" height="26" ry="12" fill="#479863"/><path d="M192-342c-6.648 0-12 5.352-12 12v2c0 6.648 5.352 12 12 12s12-5.352 12-12v-2c0-6.648-5.352-12-12-12zm0 1c6.094 0 11 4.906 11 11s-4.906 11-11 11-11-4.906-11-11 4.906-11 11-11z" fill-opacity=".5"/><rect x="256" y="-350" width="32" height="34" ry="16" fill="#479863"/><path d="M272-350c-8.864 0-16 7.136-16 16v2c0 8.864 7.136 16 16 16s16-7.136 16-16v-2c0-8.864-7.136-16-16-16zm0 1c8.31 0 15 6.69 15 15s-6.69 15-15 15-15-6.69-15-15 6.69-15 15-15z" fill-opacity=".5"/><rect x="376" y="-383" width="64" height="67" ry="32" fill="#479863"/><path d="M408-383c-17.728 0-32 14.272-32 32v3c0 17.728 14.272 32 32 32s32-14.272 32-32v-3c0-17.728-14.272-32-32-32zm0 1c17.174 0 31 13.826 31 31s-13.826 31-31 31-31-13.826-31-31 13.826-31 31-31z" fill-opacity=".5"/><rect x="592" y="-448" width="128" height="132" ry="64" fill="#479863"/><path d="M656-448c-35.456 0-64 28.544-64 64v4c0 35.456 28.544 64 64 64s64-28.544 64-64v-4c0-35.456-28.544-64-64-64zm0 1c34.902 0 63 28.098 63 63s-28.098 63-63 63-63-28.098-63-63 28.098-63 63-63z" fill-opacity=".5"/><path d="M273.41-343.9a2 2 0 0 0-2.828 0 2 2 0 0 0-.586 1.414V-336h-6.485a2 2 0 0 0-1.415.585 2 2 0 0 0 0 2.829 2 2 0 0 0 1.415.585h6.485v6.458a2 2 0 0 0 .586 1.442 2 2 0 0 0 2.828 0 2 2 0 0 0 .586-1.414v-6.486h6.457a2 2 0 0 0 1.442-.585 2 2 0 0 0 0-2.829 2 2 0 0 0-1.414-.585h-6.485v-6.458a2 2 0 0 0 0-.028 2 2 0 0 0-.586-1.414z" fill="#fff"/><path d="M410.83-371.8a4 4 0 0 0-5.657 0 4 4 0 0 0-1.171 2.828V-356h-12.971a4 4 0 0 0-2.828 1.171 4 4 0 0 0 0 5.657A4 4 0 0 0 391.03-348h12.971v12.916a4 4 0 0 0 1.171 2.883 4 4 0 0 0 5.657 0 4 4 0 0 0 1.171-2.828V-348h12.916a4 4 0 0 0 2.884-1.171 4 4 0 0 0 0-5.657 4 4 0 0 0-2.829-1.171h-12.97v-12.916a4 4 0 0 0 0-.057 4 4 0 0 0-1.172-2.828z" fill="#fff"/><path d="M661.66-421.6a8 8 0 0 0-11.314 0 8 8 0 0 0-2.342 5.657v25.942h-25.942a8 8 0 0 0-5.657 2.342 8 8 0 0 0 0 11.314 8 8 0 0 0 5.657 2.342h25.942v25.832a8 8 0 0 0 2.342 5.768 8 8 0 0 0 11.314 0 8 8 0 0 0 2.342-5.657v-25.942h25.832a8 8 0 0 0 5.768-2.342 8 8 0 0 0 0-11.314 8 8 0 0 0-5.657-2.343h-25.942v-25.832a8 8 0 0 0 0-.113 8 8 0 0 0-2.344-5.655z" fill="#fff"/><path d="M27.5-325c-2.493 0-4.5 2.007-4.5 4.5s2.007 4.5 4.5 4.5 4.5-2.007 4.5-4.5-2.007-4.5-4.5-4.5zm0 1c1.939 0 3.5 1.561 3.5 3.5s-1.561 3.5-3.5 3.5-3.5-1.561-3.5-3.5 1.561-3.5 3.5-3.5z" fill-opacity=".5"/><path fill="#fff" d="M27-323h1v5h-1z"/><path fill="#fff" d="M25-321h5v1h-5z"/><path fill="#fff" d="M123-330h2v10h-2z"/><path fill="#fff" d="M119-326h10v2h-10z"/><path fill="#fff" d="M191-338h2v16h-2z"/><path fill="#fff" d="M184-331h16v2h-16z"/><path fill="#fff" d="M270-345h4v22h-4z"/><path fill="#fff" d="M261-336h22v4h-22z"/><path fill="#fff" d="M404-373h8v42h-8z"/><path fill="#fff" d="M387-356h42v8h-42z"/><path fill="#fff" d="M648-424h16v84h-16z"/><path fill="#fff" d="M614-390h84v16h-84z"/></g><g transform="translate(-156 1264)"><use transform="translate(0 -900)" width="100%" height="100%" xlink:href="#a"/><rect x="116" y="-633" width="16" height="17" ry="8" fill="#48b9c7"/><path d="M124-633c-4.432 0-8 3.568-8 8v1c0 4.432 3.568 8 8 8s8-3.568 8-8v-1c0-4.432-3.568-8-8-8zm0 1c3.878 0 7 3.122 7 7s-3.122 7-7 7-7-3.122-7-7 3.122-7 7-7z" fill-opacity=".5"/><rect x="69" y="-627" width="11" height="11" ry="5.5" fill="#48b9c7"/><rect x="23" y="-625" width="9" height="9" ry="4.5" fill="#48b9c7"/><rect x="180" y="-642" width="24" height="26" ry="12" fill="#48b9c7"/><path d="M192-642c-6.648 0-12 5.352-12 12v2c0 6.648 5.352 12 12 12s12-5.352 12-12v-2c0-6.648-5.352-12-12-12zm0 1c6.094 0 11 4.906 11 11s-4.906 11-11 11-11-4.906-11-11 4.906-11 11-11z" fill-opacity=".5"/><rect x="256" y="-650" width="32" height="34" ry="16" fill="#48b9c7"/><path d="M272-650c-8.864 0-16 7.136-16 16v2c0 8.864 7.136 16 16 16s16-7.136 16-16v-2c0-8.864-7.136-16-16-16zm0 1c8.31 0 15 6.69 15 15s-6.69 15-15 15-15-6.69-15-15 6.69-15 15-15z" fill-opacity=".5"/><rect x="376" y="-683" width="64" height="67" ry="32" fill="#48b9c7"/><path d="M408-683c-17.728 0-32 14.272-32 32v3c0 17.728 14.272 32 32 32s32-14.272 32-32v-3c0-17.728-14.272-32-32-32zm0 1c17.174 0 31 13.826 31 31s-13.826 31-31 31-31-13.826-31-31 13.826-31 31-31z" fill-opacity=".5"/><rect x="592" y="-748" width="128" height="132" ry="64" fill="#48b9c7"/><path d="M656-748c-35.456 0-64 28.544-64 64v4c0 35.456 28.544 64 64 64s64-28.544 64-64v-4c0-35.456-28.544-64-64-64zm0 1c34.902 0 63 28.098 63 63s-28.098 63-63 63-63-28.098-63-63 28.098-63 63-63z" fill-opacity=".5"/><path d="M193-625v-6h-2v6zm0-8v-2h-2v2z" fill="#fff"/><path d="M125-620v-6h-2v6zm0-8v-2h-2v2z" fill="#fff"/><path d="M75-618v-5h-1v5zm0-6v-1h-1v1z" fill="#fff"/><path d="M28-618v-3h-1v3zm0-4v-1h-1v1z" fill="#fff"/><path d="M27.5-625c-2.493 0-4.5 2.007-4.5 4.5s2.007 4.5 4.5 4.5 4.5-2.007 4.5-4.5-2.007-4.5-4.5-4.5zm0 1c1.939 0 3.5 1.561 3.5 3.5s-1.561 3.5-3.5 3.5-3.5-1.561-3.5-3.5 1.561-3.5 3.5-3.5z" fill-opacity=".5"/><path d="M74.5-627c-3.047 0-5.5 2.453-5.5 5.5s2.453 5.5 5.5 5.5 5.5-2.453 5.5-5.5-2.453-5.5-5.5-5.5zm0 1c2.493 0 4.5 2.007 4.5 4.5s-2.007 4.5-4.5 4.5-4.5-2.007-4.5-4.5 2.007-4.5 4.5-4.5z" fill-opacity=".5"/><path d="M274-627v-9h-3v9zm0-12v-3h-3v3z" fill="#fff"/><path d="M411-636v-18h-6v18zm0-24v-6h-6v6z" fill="#fff"/><path d="M662-654v-36h-12v36zm0-48v-12h-12v12z" fill="#fff"/></g><g transform="translate(-156 1264)"><use transform="translate(0 -1200)" width="100%" height="100%" xlink:href="#a"/><path d="M179-932v-4h4v4h3l-5 6-5-6z" fill-rule="evenodd" opacity=".4"/><path d="M66-923v-3h4v3h2l-4 5-4-5z" fill-rule="evenodd" opacity=".4"/><path d="M23-921v-2h2v2h1l-2 3-2-3z" fill-rule="evenodd" opacity=".4"/><path d="M114-927v-3h4v3h2l-4 5-4-5z" fill-rule="evenodd" opacity=".4"/><path d="M252-938v-6h8v6h4l-8 10-8-10z" fill-rule="evenodd" opacity=".4"/><path d="M368-958v-12h16v12h8l-16 20-16-20z" fill-rule="evenodd" opacity=".4"/><path d="M576-996v-24h32v24h16l-32 40-32-40z" fill-rule="evenodd" opacity=".4"/></g><g transform="translate(-156 1264)"><use transform="translate(0 -1500)" width="100%" height="100%" xlink:href="#a"/><rect x="116" y="-1233" width="16" height="17" ry="8" fill="#3f51b5"/><path d="M124-1233c-4.432 0-8 3.568-8 8v1c0 4.432 3.568 8 8 8s8-3.568 8-8v-1c0-4.432-3.568-8-8-8zm0 1c3.878 0 7 3.122 7 7s-3.122 7-7 7-7-3.122-7-7 3.122-7 7-7z" fill-opacity=".5"/><rect x="69" y="-1227" width="11" height="11" ry="5.5" fill="#3f51b5"/><rect x="23" y="-1225" width="9" height="9" ry="4.5" fill="#3f51b5"/><rect x="180" y="-1242" width="24" height="26" ry="12" fill="#3f51b5"/><path d="M192-1242c-6.648 0-12 5.352-12 12v2c0 6.648 5.352 12 12 12s12-5.352 12-12v-2c0-6.648-5.352-12-12-12zm0 1c6.094 0 11 4.906 11 11s-4.906 11-11 11-11-4.906-11-11 4.906-11 11-11z" fill-opacity=".5"/><rect x="256" y="-1250" width="32" height="34" ry="16" fill="#3f51b5"/><path d="M272-1250c-8.864 0-16 7.136-16 16v2c0 8.864 7.136 16 16 16s16-7.136 16-16v-2c0-8.864-7.136-16-16-16zm0 1c8.31 0 15 6.69 15 15s-6.69 15-15 15-15-6.69-15-15 6.69-15 15-15z" fill-opacity=".5"/><rect x="376" y="-1283" width="64" height="67" ry="32" fill="#3f51b5"/><path d="M408-1283c-17.728 0-32 14.272-32 32v3c0 17.728 14.272 32 32 32s32-14.272 32-32v-3c0-17.728-14.272-32-32-32zm0 1c17.174 0 31 13.826 31 31s-13.826 31-31 31-31-13.826-31-31 13.826-31 31-31z" fill-opacity=".5"/><rect x="592" y="-1348" width="128" height="132" ry="64" fill="#3f51b5"/><path d="M656-1348c-35.456 0-64 28.544-64 64v4c0 35.456 28.544 64 64 64s64-28.544 64-64v-4c0-35.456-28.544-64-64-64zm0 1c34.902 0 63 28.098 63 63s-28.098 63-63 63-63-28.098-63-63 28.098-63 63-63z" fill-opacity=".5"/><path d="M27.5-1225c-2.493 0-4.5 2.007-4.5 4.5s2.007 4.5 4.5 4.5 4.5-2.007 4.5-4.5-2.007-4.5-4.5-4.5zm0 1c1.939 0 3.5 1.561 3.5 3.5s-1.561 3.5-3.5 3.5-3.5-1.561-3.5-3.5 1.561-3.5 3.5-3.5z" fill-opacity=".5"/><path d="M74.5-1227c-3.047 0-5.5 2.453-5.5 5.5s2.453 5.5 5.5 5.5 5.5-2.453 5.5-5.5-2.453-5.5-5.5-5.5zm0 1c2.493 0 4.5 2.007 4.5 4.5s-2.007 4.5-4.5 4.5-4.5-2.007-4.5-4.5 2.007-4.5 4.5-4.5z" fill-opacity=".5"/><path d="M272-1239a8.939 9 0 0 0-8 5.01 8.939 9 0 0 0 8 4.99 8.939 9 0 0 0 8-5.01 8.939 9 0 0 0-8-4.99zm0 1a4 4 0 0 1 4 4 4 4 0 0 1-4 4 4 4 0 0 1-4-4 4 4 0 0 1 4-4zm0 2a2 2 0 0 0-2 2 2 2 0 0 0 2 2 2 2 0 0 0 2-2 2 2 0 0 0-2-2z" fill="#fff"/><path d="M192-1235a8.939 9 0 0 0-8 5.01 8.939 9 0 0 0 8 4.99 8.939 9 0 0 0 8-5.01 8.939 9 0 0 0-8-4.99zm0 1a4 4 0 0 1 4 4 4 4 0 0 1-4 4 4 4 0 0 1-4-4 4 4 0 0 1 4-4zm0 2a2 2 0 0 0-2 2 2 2 0 0 0 2 2 2 2 0 0 0 2-2 2 2 0 0 0-2-2z" fill="#fff"/><path d="M124-1227.5a4.47 4.5 0 0 0-4 2.505 4.47 4.5 0 0 0 4 2.495 4.47 4.5 0 0 0 4-2.505 4.47 4.5 0 0 0-4-2.495zm0 .5a2 2 0 0 1 2 2 2 2 0 0 1-2 2 2 2 0 0 1-2-2 2 2 0 0 1 2-2zm0 1a1 1 0 0 0-1 1 1 1 0 0 0 1 1 1 1 0 0 0 1-1 1 1 0 0 0-1-1z" fill="#fff"/><path d="M74.5-1224a4.47 4.5 0 0 0-4 2.505 4.47 4.5 0 0 0 4 2.495 4.47 4.5 0 0 0 4-2.505 4.47 4.5 0 0 0-4-2.495zm0 .5a2 2 0 0 1 2 2 2 2 0 0 1-2 2 2 2 0 0 1-2-2 2 2 0 0 1 2-2zm0 1a1 1 0 0 0-1 1 1 1 0 0 0 1 1 1 1 0 0 0 1-1 1 1 0 0 0-1-1z" fill="#fff"/><path d="M27.5-1223a4.47 4.5 0 0 0-4 2.505 4.47 4.5 0 0 0 4 2.495 4.47 4.5 0 0 0 4-2.505 4.47 4.5 0 0 0-4-2.495zm0 .5a2 2 0 0 1 2 2 2 2 0 0 1-2 2 2 2 0 0 1-2-2 2 2 0 0 1 2-2zm0 1a1 1 0 0 0-1 1 1 1 0 0 0 1 1 1 1 0 0 0 1-1 1 1 0 0 0-1-1z" fill="#fff"/><path d="M408-1262a17.878 18 0 0 0-16 10.02 17.878 18 0 0 0 16 9.98 17.878 18 0 0 0 16-10.02 17.878 18 0 0 0-16-9.98zm0 2a8 8 0 0 1 8 8 8 8 0 0 1-8 8 8 8 0 0 1-8-8 8 8 0 0 1 8-8zm0 4a4 4 0 0 0-4 4 4 4 0 0 0 4 4 4 4 0 0 0 4-4 4 4 0 0 0-4-4z" fill="#fff"/><path d="M656-1304a35.756 36 0 0 0-32 20.039A35.756 36 0 0 0 656-1264a35.756 36 0 0 0 32-20.039A35.756 36 0 0 0 656-1304zm0 4a16 16 0 0 1 16 16 16 16 0 0 1-16 16 16 16 0 0 1-16-16 16 16 0 0 1 16-16zm0 8a8 8 0 0 0-8 8 8 8 0 0 0 8 8 8 8 0 0 0 8-8 8 8 0 0 0-8-8z" fill="#fff"/></g><g transform="translate(-156 1264)"><use transform="translate(0 -1800)" width="100%" height="100%" xlink:href="#a"/><path d="M108-1527v1a6 6 0 0 1 6 6h1a7 7 0 0 0-7-7zm0 2v1a4 4 0 0 1 4 4h1a5 5 0 0 0-5-5zm0 2v1a2 2 0 0 1 2 2h1a3 3 0 0 0-3-3zm0 2v1h1a1 1 0 0 0-1-1z" opacity=".7"/><path d="M62-1524v1a6 6 0 0 1 6 6h1a7 7 0 0 0-7-7zm0 2v1a4 4 0 0 1 4 4h1a5 5 0 0 0-5-5zm0 2v1a2 2 0 0 1 2 2h1a3 3 0 0 0-3-3zm0 2v1h1a1 1 0 0 0-1-1z" opacity=".7"/><path d="M20-1524v1a6 6 0 0 1 6 6h1a7 7 0 0 0-7-7zm0 2v1a4 4 0 0 1 4 4h1a5 5 0 0 0-5-5zm0 2v1a2 2 0 0 1 2 2h1a3 3 0 0 0-3-3zm0 2v1h1a1 1 0 0 0-1-1z" opacity=".7"/><path d="M168-1536v2a12 12 0 0 1 12 12h2a14 14 0 0 0-14-14zm0 4v2a8 8 0 0 1 8 8h2a10 10 0 0 0-10-10zm0 4v2a4 4 0 0 1 4 4h2a6 6 0 0 0-6-6zm0 4v1.5c0 .277.223.5.5.5h1.5a2 2 0 0 0-2-2z" opacity=".7"/><path d="M239-1537v2a12 12 0 0 1 12 12h2a14 14 0 0 0-14-14zm0 4v2a8 8 0 0 1 8 8h2a10 10 0 0 0-10-10zm0 4v2a4 4 0 0 1 4 4h2a6 6 0 0 0-6-6zm0 4v1c0 .554.446 1 1 1h1a2 2 0 0 0-2-2z" opacity=".7"/><path d="M341-1556v4a24 24 0 0 1 24 24h4a28 28 0 0 0-28-28zm0 8v4a16 16 0 0 1 16 16h4a20 20 0 0 0-20-20zm0 8v4a8 8 0 0 1 8 8h4a12 12 0 0 0-12-12zm0 8v1c0 1.662 1.338 3 3 3h1a4 4 0 0 0-4-4z" opacity=".7"/><path d="M521-1593v8a48 48 0 0 1 48 48h8a56 56 0 0 0-56-56zm0 16v8a32 32 0 0 1 32 32h8a40 40 0 0 0-40-40zm0 16v8a16 16 0 0 1 16 16h8a24 24 0 0 0-24-24zm0 16v1c0 3.878 3.122 7 7 7h1a8 8 0 0 0-8-8z" opacity=".7"/></g></svg>