<svg version="1.0" viewBox="0 0 48 48" xmlns="http://www.w3.org/2000/svg"><g transform="translate(-156 1264)"><rect x="167" y="-1261" width="27" height="10" ry="1.5" fill="#dedede"/><path d="M168.5-1261c-.831 0-1.5.669-1.5 1.5v13.5c0 .654.418 1.202 1 1.408v-14.908c0-.277.223-.5.5-.5h24c.277 0 .5.223.5.5v14.908c.582-.206 1-.754 1-1.408v-13.5c0-.831-.669-1.5-1.5-1.5z" fill="#010101" fill-opacity=".5"/><rect x="160" y="-1251" width="40" height="20" ry="3" fill="#474341"/><path d="M163-1251c-1.662 0-3 1.338-3 3v14c0 1.662 1.338 3 3 3h34c1.662 0 3-1.338 3-3v-14c0-1.662-1.338-3-3-3zm0 1h34c1.108 0 2 .892 2 2v12c0 1.108-.892 2-2 2h-34c-1.108 0-2-.892-2-2v-12c0-1.108.892-2 2-2z" fill="#fff" fill-opacity=".5"/><rect x="167" y="-1240" width="27" height="21" ry="1.5" fill="#dedede"/><circle cx="166.25" cy="-1245.5" r="1.5" fill="#73c48f"/><path d="M168-1239.9c-.582.206-1 .754-1 1.408v18c0 .831.669 1.5 1.5 1.5h24c.831 0 1.5-.669 1.5-1.5v-18c0-.654-.418-1.202-1-1.408v17.408c0 .277-.223.5-.5.5h-24a.499.499 0 0 1-.5-.5z" fill="#010101" fill-opacity=".5"/><rect x="180" y="-1242" width="24" height="26" ry="12" fill="#3f51b5"/><path d="M192-1242c-6.648 0-12 5.352-12 12v2c0 6.648 5.352 12 12 12s12-5.352 12-12v-2c0-6.648-5.352-12-12-12zm0 1c6.094 0 11 4.906 11 11s-4.906 11-11 11-11-4.906-11-11 4.906-11 11-11z" fill-opacity=".5"/><path d="M192-1235a8.939 9 0 0 0-8 5.01 8.939 9 0 0 0 8 4.99 8.939 9 0 0 0 8-5.01 8.939 9 0 0 0-8-4.99zm0 1a4 4 0 0 1 4 4 4 4 0 0 1-4 4 4 4 0 0 1-4-4 4 4 0 0 1 4-4zm0 2a2 2 0 0 0-2 2 2 2 0 0 0 2 2 2 2 0 0 0 2-2 2 2 0 0 0-2-2z" fill="#fff"/></g></svg>