<svg version="1.0" viewBox="0 0 48 48" xmlns="http://www.w3.org/2000/svg"><g transform="translate(-156 1264)"><rect x="159" y="-1253" width="42" height="32" ry="3" fill="#245c63"/><rect x="160" y="-1252" width="40" height="28" ry="2.5" fill="#48b9c7"/><rect x="163" y="-1249" width="33" height="22" ry="2" fill="#f6f6f6"/><path d="M175-1244a1.5 1.5 0 0 0-1.5 1.5 1.5 1.5 0 0 0 .44 1.06l3.439 3.44-3.44 3.44a1.5 1.5 0 0 0-.439 1.06 1.5 1.5 0 0 0 1.5 1.5 1.5 1.5 0 0 0 1.06-.44l3.44-3.439 3.425 3.425A1.5 1.5 0 0 0 184-1232a1.5 1.5 0 0 0 1.5-1.5 1.5 1.5 0 0 0-.44-1.06l-3.439-3.44 3.425-3.425a1.5 1.5 0 0 0 .454-1.075 1.5 1.5 0 0 0-1.5-1.5 1.5 1.5 0 0 0-1.06.44l-3.44 3.439-3.425-3.425a1.5 1.5 0 0 0-.015-.015A1.5 1.5 0 0 0 175-1244z" fill="#f15d22"/></g><style>.st0{fill:#261300}.st1{fill:#ff7c00}</style></svg>