<svg version="1.0" viewBox="0 0 48 48" xmlns="http://www.w3.org/2000/svg"><g transform="translate(-156 964)"><rect x="159" y="-953" width="42" height="32" ry="3" fill="#245c63"/><rect x="160" y="-952" width="40" height="28" ry="2.5" fill="#48b9c7"/><rect x="163" y="-949" width="33" height="22" ry="2" fill="#f6f6f6"/><path d="M179.5-945a7 7 0 0 0-7 7 7 7 0 0 0 7 7 7 7 0 0 0 7-7 7 7 0 0 0-7-7zm0 2a5 5 0 0 1 5 5 5 5 0 0 1-5 5 5 5 0 0 1-5-5 5 5 0 0 1 5-5z" fill="#1c8d9b"/><path d="M181.91-940.82a.504.504 0 0 0-.25.156l-2.156 2.156-1.656-1.656c-.158-.257-.569-.306-.782-.093-.213.213-.163.624.094.78l2 2a.519.519 0 0 0 .688 0l2.5-2.5c.292-.298-.025-.91-.438-.843z" color="#bebebe" fill="#1c8d9b"/></g><style>.st0{fill:#261300}.st1{fill:#ff7c00}</style></svg>