<svg version="1.0" viewBox="0 0 48 48" xmlns="http://www.w3.org/2000/svg"><g transform="translate(-156 64)"><rect x="167" y="-61" width="27" height="10" ry="1.5" fill="#dedede"/><path d="M168.5-61c-.831 0-1.5.669-1.5 1.5V-46c0 .654.418 1.202 1 1.408V-59.5c0-.277.223-.5.5-.5h24c.277 0 .5.223.5.5v14.908c.582-.206 1-.754 1-1.408v-13.5c0-.831-.669-1.5-1.5-1.5z" fill="#010101" fill-opacity=".5"/><rect x="160" y="-51" width="40" height="20" ry="3" fill="#474341"/><path d="M163-51c-1.662 0-3 1.338-3 3v14c0 1.662 1.338 3 3 3h34c1.662 0 3-1.338 3-3v-14c0-1.662-1.338-3-3-3zm0 1h34c1.108 0 2 .892 2 2v12c0 1.108-.892 2-2 2h-34c-1.108 0-2-.892-2-2v-12c0-1.108.892-2 2-2z" fill="#fff" fill-opacity=".5"/><rect x="167" y="-40" width="27" height="21" ry="1.5" fill="#dedede"/><circle cx="166.25" cy="-45.5" r="1.5" fill="#73c48f"/><path d="M168-39.908c-.582.206-1 .754-1 1.408v18c0 .831.669 1.5 1.5 1.5h24c.831 0 1.5-.669 1.5-1.5v-18c0-.654-.418-1.202-1-1.408V-22.5c0 .277-.223.5-.5.5h-24a.499.499 0 0 1-.5-.5z" fill="#010101" fill-opacity=".5"/><rect x="180" y="-42" width="24" height="26" ry="12" fill="#cf3b00"/><path d="M192-42c-6.648 0-12 5.352-12 12v2c0 6.648 5.352 12 12 12s12-5.352 12-12v-2c0-6.648-5.352-12-12-12zm0 1c6.094 0 11 4.906 11 11s-4.906 11-11 11-11-4.906-11-11 4.906-11 11-11z" fill-opacity=".5"/><path d="M187.5-35a1.5 1.5 0 0 0-1.5 1.5 1.5 1.5 0 0 0 .44 1.06l3.439 3.44-3.44 3.44A1.5 1.5 0 0 0 186-24.5a1.5 1.5 0 0 0 1.5 1.5 1.5 1.5 0 0 0 1.06-.44l3.44-3.439 3.425 3.425A1.5 1.5 0 0 0 196.5-23a1.5 1.5 0 0 0 1.5-1.5 1.5 1.5 0 0 0-.44-1.06L194.122-29l3.425-3.425A1.5 1.5 0 0 0 198-33.5a1.5 1.5 0 0 0-1.5-1.5 1.5 1.5 0 0 0-1.06.44L192-31.122l-3.425-3.425a1.5 1.5 0 0 0-.015-.015A1.5 1.5 0 0 0 187.5-35z" fill="#fff"/></g></svg>