<svg version="1.0" viewBox="0 0 48 48" xmlns="http://www.w3.org/2000/svg"><g transform="translate(-156 664)"><rect transform="matrix(0 -1 -1 0 0 0)" x="619" y="-196" width="40" height="32" ry="3" fill="#50443f"/><rect transform="matrix(0 -1 -1 0 0 0)" x="622" y="-195" width="36" height="30" ry="2.5" fill="#a1887f"/><path fill="#fff" d="M168-655h24v6h-24z"/><rect x="176" y="-663" width="8" height="9" ry="4" fill="#666"/><rect x="176" y="-658" width="8" height="4" ry="0" fill="#666"/><path fill="#ccc" d="M173-656h14v2h-14z"/><rect x="173" y="-657" width="14" height="2" ry="1" fill="#ccc"/><circle cx="180" cy="-659" r="3" fill="#ccc"/><path fill="#ccc" d="M177-659h6v2.5h-6z"/><circle cx="180" cy="-659.5" r="1.5" fill="#fff"/></g></svg>