<?xml version="1.0" encoding="UTF-8" standalone="no"?>
<!-- Created with Inkscape (http://www.inkscape.org/) -->

<svg
   inkscape:export-ydpi="90.000000"
   inkscape:export-xdpi="90.000000"
   width="8"
   height="8"
   id="svg11300"
   sodipodi:version="0.32"
   inkscape:version="0.92.4 (5da689c313, 2019-01-14)"
   sodipodi:docname="emblem-unreadable.svg"
   inkscape:output_extension="org.inkscape.output.svg.inkscape"
   version="1.0"
   style="display:inline;enable-background:new"
   inkscape:export-filename="/home/sam/Pop-template.png"
   xmlns:inkscape="http://www.inkscape.org/namespaces/inkscape"
   xmlns:sodipodi="http://sodipodi.sourceforge.net/DTD/sodipodi-0.dtd"
   xmlns:xlink="http://www.w3.org/1999/xlink"
   xmlns="http://www.w3.org/2000/svg"
   xmlns:svg="http://www.w3.org/2000/svg"
   xmlns:rdf="http://www.w3.org/1999/02/22-rdf-syntax-ns#"
   xmlns:cc="http://creativecommons.org/ns#"
   xmlns:dc="http://purl.org/dc/elements/1.1/">
  <title
     id="title3004">Pop Icon Theme Template</title>
  <sodipodi:namedview
     stroke="#ef2929"
     fill="#f57900"
     id="base"
     pagecolor="#ffffff"
     bordercolor="#000000"
     borderopacity="0.25490196"
     inkscape:pageopacity="0"
     inkscape:pageshadow="2"
     inkscape:zoom="64.000006"
     inkscape:cx="20.515871"
     inkscape:cy="15.601856"
     inkscape:current-layer="layer6"
     showgrid="false"
     inkscape:grid-bbox="true"
     inkscape:document-units="px"
     inkscape:showpageshadow="false"
     inkscape:window-width="2088"
     inkscape:window-height="1371"
     inkscape:window-x="472"
     inkscape:window-y="32"
     width="400px"
     height="300px"
     inkscape:snap-nodes="true"
     inkscape:snap-bbox="true"
     gridtolerance="10000"
     inkscape:object-nodes="true"
     inkscape:snap-grids="true"
     showguides="true"
     inkscape:guide-bbox="true"
     inkscape:window-maximized="0"
     inkscape:bbox-paths="true"
     inkscape:snap-bbox-midpoints="true"
     inkscape:snap-global="true"
     inkscape:object-paths="true"
     inkscape:snap-intersection-paths="true"
     inkscape:snap-smooth-nodes="true"
     inkscape:lockguides="false"
     inkscape:bbox-nodes="true"
     inkscape:pagecheckerboard="0">
    <inkscape:grid
       spacingy="1"
       spacingx="1"
       id="grid5883"
       type="xygrid"
       enabled="true"
       visible="true"
       empspacing="4"
       snapvisiblegridlinesonly="true"
       originx="0"
       originy="0" />
    <inkscape:grid
       type="xygrid"
       id="grid11592"
       empspacing="2"
       visible="true"
       enabled="true"
       spacingx="0.5"
       spacingy="0.5"
       color="#ff0000"
       opacity="0.1254902"
       empcolor="#ff0000"
       empopacity="0.25098039"
       snapvisiblegridlinesonly="true"
       originx="0"
       originy="0" />
  </sodipodi:namedview>
  <defs
     id="defs3">
    <linearGradient
       inkscape:collect="always"
       id="linearGradient2797">
      <stop
         style="stop-color:#888888;stop-opacity:0.19607843"
         offset="0"
         id="stop2789" />
      <stop
         id="stop2791"
         offset="0.06481481"
         style="stop-color:#7f7f7f;stop-opacity:0.3137255" />
      <stop
         style="stop-color:#7f7f7f;stop-opacity:0.19607843"
         offset="0.92660552"
         id="stop2793" />
      <stop
         style="stop-color:#000000;stop-opacity:0.27450982"
         offset="1"
         id="stop2795" />
    </linearGradient>
    <linearGradient
       inkscape:collect="always"
       id="linearGradient2772">
      <stop
         style="stop-color:#888888;stop-opacity:0.19607843"
         offset="0"
         id="stop2764" />
      <stop
         id="stop2766"
         offset="0.03773585"
         style="stop-color:#7f7f7f;stop-opacity:0.3137255" />
      <stop
         style="stop-color:#7f7f7f;stop-opacity:0.19607843"
         offset="0.94339621"
         id="stop2768" />
      <stop
         style="stop-color:#000000;stop-opacity:0.27450982"
         offset="1"
         id="stop2770" />
    </linearGradient>
    <linearGradient
       inkscape:collect="always"
       id="linearGradient2689">
      <stop
         style="stop-color:#888888;stop-opacity:0.19607843"
         offset="0"
         id="stop2681" />
      <stop
         id="stop2683"
         offset="0.04"
         style="stop-color:#7f7f7f;stop-opacity:0.3137255" />
      <stop
         style="stop-color:#7f7f7f;stop-opacity:0.19607843"
         offset="0.92000002"
         id="stop2685" />
      <stop
         style="stop-color:#000000;stop-opacity:0.27450982"
         offset="1"
         id="stop2687" />
    </linearGradient>
    <linearGradient
       id="linearGradient2649"
       inkscape:collect="always">
      <stop
         id="stop2641"
         offset="0"
         style="stop-color:#888888;stop-opacity:0.19607843" />
      <stop
         style="stop-color:#7f7f7f;stop-opacity:0.3137255"
         offset="0.05263158"
         id="stop2643" />
      <stop
         id="stop2645"
         offset="0.89473683"
         style="stop-color:#7f7f7f;stop-opacity:0.19607843" />
      <stop
         id="stop2647"
         offset="1"
         style="stop-color:#000000;stop-opacity:0.27450982" />
    </linearGradient>
    <linearGradient
       id="linearGradient2591"
       inkscape:collect="always">
      <stop
         id="stop2583"
         offset="0"
         style="stop-color:#000000;stop-opacity:0.98168498" />
      <stop
         style="stop-color:#7f7f7f;stop-opacity:0.19607843"
         offset="0.09417041"
         id="stop2585" />
      <stop
         id="stop2587"
         offset="0.9192825"
         style="stop-color:#7f7f7f;stop-opacity:0.19607843" />
      <stop
         id="stop2589"
         offset="1"
         style="stop-color:#000000;stop-opacity:0.39607844" />
    </linearGradient>
    <linearGradient
       inkscape:collect="always"
       id="linearGradient2312">
      <stop
         style="stop-color:#ffffff;stop-opacity:0.11764706"
         offset="0"
         id="stop2304" />
      <stop
         id="stop2306"
         offset="0.09417041"
         style="stop-color:#7f7f7f;stop-opacity:0.19607843" />
      <stop
         style="stop-color:#7f7f7f;stop-opacity:0.19607843"
         offset="0.9192825"
         id="stop2308" />
      <stop
         style="stop-color:#000000;stop-opacity:0.39607844"
         offset="1"
         id="stop2310" />
    </linearGradient>
    <linearGradient
       id="linearGradient2157"
       inkscape:collect="always">
      <stop
         id="stop2153"
         offset="0"
         style="stop-color:#ffffff;stop-opacity:0.11764706" />
      <stop
         id="stop2155"
         offset="1"
         style="stop-color:#000000;stop-opacity:0.39215687" />
    </linearGradient>
    <linearGradient
       gradientTransform="translate(41,-7)"
       inkscape:collect="always"
       xlink:href="#linearGradient2157"
       id="linearGradient2071-2"
       x1="27"
       y1="270"
       x2="27"
       y2="288"
       gradientUnits="userSpaceOnUse" />
    <linearGradient
       gradientTransform="translate(461.5,-226.5)"
       inkscape:collect="always"
       xlink:href="#linearGradient2312"
       id="linearGradient2071-2-2-6-0-9-3"
       x1="130.5"
       y1="272.5"
       x2="130.5"
       y2="492.5"
       gradientUnits="userSpaceOnUse" />
    <linearGradient
       inkscape:collect="always"
       xlink:href="#linearGradient2591"
       id="linearGradient2571"
       x1="22"
       y1="271"
       x2="22"
       y2="281"
       gradientUnits="userSpaceOnUse" />
    <linearGradient
       gradientTransform="translate(44,-6)"
       inkscape:collect="always"
       xlink:href="#linearGradient2649"
       id="linearGradient2601-3"
       x1="20"
       y1="269"
       x2="20"
       y2="288"
       gradientUnits="userSpaceOnUse" />
    <linearGradient
       gradientTransform="translate(71,-29)"
       inkscape:collect="always"
       xlink:href="#linearGradient2689"
       id="linearGradient2601-3-4"
       x1="38"
       y1="285"
       x2="38"
       y2="310"
       gradientUnits="userSpaceOnUse" />
    <linearGradient
       gradientTransform="translate(178,-68)"
       inkscape:collect="always"
       xlink:href="#linearGradient2772"
       id="linearGradient2601-3-4-2-6"
       x1="66"
       y1="294"
       x2="66"
       y2="347"
       gradientUnits="userSpaceOnUse" />
    <linearGradient
       gradientTransform="translate(287,-75)"
       inkscape:collect="always"
       xlink:href="#linearGradient2797"
       id="linearGradient2601-3-4-2-7"
       x1="57"
       y1="241"
       x2="57"
       y2="350"
       gradientUnits="userSpaceOnUse" />
  </defs>
  <metadata
     id="metadata4">
    <rdf:RDF>
      <cc:Work
         rdf:about="">
        <dc:format>image/svg+xml</dc:format>
        <dc:type
           rdf:resource="http://purl.org/dc/dcmitype/StillImage" />
        <dc:creator>
          <cc:Agent>
            <dc:title>Sam Hewitt</dc:title>
          </cc:Agent>
        </dc:creator>
        <dc:source />
        <cc:license
           rdf:resource="http://creativecommons.org/licenses/by-sa/4.0/" />
        <dc:title>Pop Icon Theme Template</dc:title>
        <dc:subject>
          <rdf:Bag />
        </dc:subject>
        <dc:date />
        <dc:rights>
          <cc:Agent>
            <dc:title />
          </cc:Agent>
        </dc:rights>
        <dc:publisher>
          <cc:Agent>
            <dc:title />
          </cc:Agent>
        </dc:publisher>
        <dc:identifier />
        <dc:relation />
        <dc:language />
        <dc:coverage />
        <dc:description />
        <dc:contributor>
          <cc:Agent>
            <dc:title />
          </cc:Agent>
        </dc:contributor>
      </cc:Work>
      <cc:Work
         rdf:about="">
        <dc:format>image/svg+xml</dc:format>
        <dc:type
           rdf:resource="http://purl.org/dc/dcmitype/StillImage" />
      </cc:Work>
      <cc:License
         rdf:about="http://creativecommons.org/licenses/by-sa/4.0/">
        <cc:permits
           rdf:resource="http://creativecommons.org/ns#Reproduction" />
        <cc:permits
           rdf:resource="http://creativecommons.org/ns#Distribution" />
        <cc:requires
           rdf:resource="http://creativecommons.org/ns#Notice" />
        <cc:requires
           rdf:resource="http://creativecommons.org/ns#Attribution" />
        <cc:permits
           rdf:resource="http://creativecommons.org/ns#DerivativeWorks" />
        <cc:requires
           rdf:resource="http://creativecommons.org/ns#ShareAlike" />
      </cc:License>
    </rdf:RDF>
  </metadata>
  <g
     style="display:inline"
     inkscape:groupmode="layer"
     inkscape:label="Icon"
     id="layer1"
     transform="translate(-16,-276)">
    <g
       style="display:none"
       inkscape:label="Baseplate"
       id="layer7"
       inkscape:groupmode="layer"
       sodipodi:insensitive="true">
      <text
         y="231.826"
         xml:space="preserve"
         x="14.974"
         style="font-style:normal;font-variant:normal;font-weight:normal;font-stretch:normal;line-height:0%;font-family:'DejaVu Sans';-inkscape-font-specification:'DejaVu Sans';display:inline;fill:#000000;fill-opacity:1;stroke:none;enable-background:new"
         inkscape:label="context"
         id="context"><tspan
           style="font-style:normal;font-variant:normal;font-weight:normal;font-stretch:normal;font-size:18px;line-height:1.25;font-family:'Fira Sans';-inkscape-font-specification:'Fira Sans'"
           y="231.826"
           x="14.974"
           sodipodi:role="line"
           id="tspan3933">emblems</tspan></text>
      <text
         y="155.81543"
         xml:space="preserve"
         x="15.657227"
         style="font-style:normal;font-variant:normal;font-weight:bold;font-stretch:normal;line-height:0%;font-family:'DejaVu Sans';-inkscape-font-specification:'DejaVu Sans Bold';text-align:start;writing-mode:lr-tb;text-anchor:start;display:inline;fill:#000000;fill-opacity:1;stroke:none;enable-background:new"
         inkscape:label="icon-name"
         id="icon-name"><tspan
           style="font-style:normal;font-variant:normal;font-weight:bold;font-stretch:normal;font-size:18px;line-height:1.25;font-family:'Roboto Slab';-inkscape-font-specification:'Roboto Slab Bold'"
           y="155.81543"
           x="15.657227"
           sodipodi:role="line"
           id="tspan3937">emblem-unreadable</tspan></text>
      <rect
         style="display:inline;overflow:visible;visibility:visible;fill:#d3d7cf;fill-opacity:1;fill-rule:nonzero;stroke:none;stroke-width:2;marker:none;enable-background:accumulate"
         id="rect16x16"
         width="16"
         height="16"
         x="-66"
         y="268"
         inkscape:label="16x16"
         transform="scale(-1,1)" />
      <rect
         style="display:inline;overflow:visible;visibility:visible;fill:#d3d7cf;fill-opacity:1;fill-rule:nonzero;stroke:none;stroke-width:2;marker:none;enable-background:accumulate"
         id="rect24x24"
         width="24"
         height="24"
         x="-114"
         y="260"
         inkscape:label="24x24"
         transform="scale(-1,1)" />
      <rect
         style="display:inline;overflow:visible;visibility:visible;fill:#d3d7cf;fill-opacity:1;fill-rule:nonzero;stroke:none;stroke-width:2;marker:none;enable-background:accumulate"
         id="rect32x32"
         width="32"
         height="32"
         x="-166"
         y="252"
         inkscape:label="32x32"
         transform="scale(-1,1)" />
      <rect
         inkscape:label="48x48"
         y="236"
         x="-238"
         height="48"
         width="48"
         id="rect48x48"
         style="display:inline;overflow:visible;visibility:visible;fill:#d3d7cf;fill-opacity:1;fill-rule:nonzero;stroke:none;stroke-width:2;marker:none;enable-background:accumulate"
         transform="scale(-1,1)" />
      <rect
         style="display:inline;overflow:visible;visibility:visible;fill:#d3d7cf;fill-opacity:1;fill-rule:nonzero;stroke:none;stroke-width:0.25;marker:none;enable-background:accumulate"
         id="rect3951"
         width="64"
         height="64"
         x="-322"
         y="220"
         inkscape:label="48x48"
         transform="scale(-1,1)" />
      <text
         xml:space="preserve"
         style="font-style:normal;font-weight:normal;font-size:10.6667px;line-height:1.25;font-family:sans-serif;letter-spacing:0px;word-spacing:0px;display:inline;fill:#000000;fill-opacity:1;stroke:none;enable-background:new"
         x="257.60513"
         y="294.06894"
         id="text858-79"><tspan
           sodipodi:role="line"
           id="tspan856-7"
           x="257.60513"
           y="294.06894"
           style="font-style:normal;font-variant:normal;font-weight:normal;font-stretch:normal;font-family:'Roboto Slab';-inkscape-font-specification:'Roboto Slab'">64</tspan></text>
      <text
         xml:space="preserve"
         style="font-style:normal;font-weight:normal;font-size:10.6667px;line-height:1.25;font-family:sans-serif;letter-spacing:0px;word-spacing:0px;display:inline;fill:#000000;fill-opacity:1;stroke:none;enable-background:new"
         x="189.60513"
         y="294.06894"
         id="text858-1"><tspan
           sodipodi:role="line"
           id="tspan856-6"
           x="189.60513"
           y="294.06894"
           style="font-style:normal;font-variant:normal;font-weight:normal;font-stretch:normal;font-family:'Roboto Slab';-inkscape-font-specification:'Roboto Slab'">48</tspan></text>
      <text
         xml:space="preserve"
         style="font-style:normal;font-weight:normal;font-size:10.6667px;line-height:1.25;font-family:sans-serif;letter-spacing:0px;word-spacing:0px;display:inline;fill:#000000;fill-opacity:1;stroke:none;enable-background:new"
         x="133.60513"
         y="294.06894"
         id="text858-3"><tspan
           sodipodi:role="line"
           id="tspan856-0"
           x="133.60513"
           y="294.06894"
           style="font-style:normal;font-variant:normal;font-weight:normal;font-stretch:normal;font-family:'Roboto Slab';-inkscape-font-specification:'Roboto Slab'">32</tspan></text>
      <text
         xml:space="preserve"
         style="font-style:normal;font-weight:normal;font-size:10.6667px;line-height:1.25;font-family:sans-serif;letter-spacing:0px;word-spacing:0px;display:inline;fill:#000000;fill-opacity:1;stroke:none;enable-background:new"
         x="89.605133"
         y="294.06894"
         id="text858-2"><tspan
           sodipodi:role="line"
           id="tspan856-1"
           x="89.605133"
           y="294.06894"
           style="font-style:normal;font-variant:normal;font-weight:normal;font-stretch:normal;font-family:'Roboto Slab';-inkscape-font-specification:'Roboto Slab'">24</tspan></text>
      <text
         xml:space="preserve"
         style="font-style:normal;font-weight:normal;font-size:10.6667px;line-height:1.25;font-family:sans-serif;letter-spacing:0px;word-spacing:0px;display:inline;fill:#000000;fill-opacity:1;stroke:none;enable-background:new"
         x="49.605141"
         y="294.06894"
         id="text858-5"><tspan
           sodipodi:role="line"
           id="tspan856-65"
           x="49.605141"
           y="294.06894"
           style="font-style:normal;font-variant:normal;font-weight:normal;font-stretch:normal;font-family:'Roboto Slab';-inkscape-font-specification:'Roboto Slab'">16</tspan></text>
      <rect
         transform="scale(-1,1)"
         inkscape:label="16x16"
         y="276"
         x="-24"
         height="8"
         width="8"
         id="rect1005"
         style="display:inline;overflow:visible;visibility:visible;fill:#d3d7cf;fill-opacity:1;fill-rule:nonzero;stroke:none;stroke-width:2;marker:none;enable-background:accumulate" />
      <text
         id="text1140"
         y="294.06894"
         x="15.520833"
         style="font-style:normal;font-weight:normal;font-size:10.6667px;line-height:1.25;font-family:sans-serif;letter-spacing:0px;word-spacing:0px;display:inline;fill:#000000;fill-opacity:1;stroke:none;enable-background:new"
         xml:space="preserve"><tspan
           style="font-style:normal;font-variant:normal;font-weight:normal;font-stretch:normal;font-family:'Roboto Slab';-inkscape-font-specification:'Roboto Slab'"
           y="294.06894"
           x="15.520833"
           sodipodi:role="line"
           id="tspan1142">8</tspan></text>
    </g>
    <g
       inkscape:groupmode="layer"
       id="layer6"
       inkscape:label="Symbols"
       style="display:inline">
      <g
         aria-label="?"
         style="font-style:normal;font-variant:normal;font-weight:normal;font-stretch:normal;font-size:14.0836px;line-height:1.25;font-family:'Fira Sans';-inkscape-font-specification:'Fira Sans';letter-spacing:0px;word-spacing:0px;display:inline;fill:#ffffff;fill-opacity:1;stroke:none;stroke-width:2.64067;enable-background:new"
         id="text1492-4"
         transform="translate(41,-6)" />
      <rect
         ry="8"
         rx="8"
         y="-66"
         x="-284"
         height="16"
         width="16"
         id="rect4414"
         style="display:inline;fill:#cf3b00;fill-opacity:1;stroke:none;enable-background:new"
         transform="matrix(0,-1,-1,0,0,0)" />
      <rect
         transform="matrix(0,-1,-1,0,0,0)"
         style="display:inline;fill:#cf3b00;fill-opacity:1;stroke:none;enable-background:new"
         id="rect4420"
         width="8"
         height="8"
         x="-284"
         y="-24"
         rx="1"
         ry="1" />
      <circle
         style="opacity:1;vector-effect:none;fill:#cf3b00;fill-opacity:1;stroke:none;stroke-width:1;stroke-linecap:square;stroke-miterlimit:4;stroke-dasharray:none;stroke-opacity:1"
         id="path991"
         cx="102"
         cy="272"
         r="12" />
      <rect
         style="display:inline;opacity:1;vector-effect:none;fill:#cf3b00;fill-opacity:1;stroke:none;stroke-width:1;stroke-linecap:square;stroke-miterlimit:4;stroke-dasharray:none;stroke-opacity:0.501961;enable-background:new"
         id="rect1022"
         width="44"
         height="46"
         x="192"
         y="238"
         ry="22" />
      <rect
         ry="15"
         y="253"
         x="135"
         height="31"
         width="30"
         id="rect1019"
         style="opacity:1;vector-effect:none;fill:#cf3b00;fill-opacity:1;stroke:none;stroke-width:1;stroke-linecap:square;stroke-miterlimit:4;stroke-dasharray:none;stroke-opacity:0.501961" />
      <path
         style="opacity:1;vector-effect:none;fill:#000000;fill-opacity:0.501961;stroke:none;stroke-width:1;stroke-linecap:square;stroke-miterlimit:4;stroke-dasharray:none;stroke-opacity:0.501961"
         d="m 150,253 c -8.31,0 -15,6.69 -15,15 v 1 c 0,8.31 6.69,15 15,15 8.31,0 15,-6.69 15,-15 v -1 c 0,-8.31 -6.69,-15 -15,-15 z m 0,1 a 14,14 0 0 1 14,14 14,14 0 0 1 -14,14 14,14 0 0 1 -14,-14 14,14 0 0 1 14,-14 z"
         id="rect1015"
         inkscape:connector-curvature="0" />
      <rect
         style="opacity:1;vector-effect:none;fill:#cf3b00;fill-opacity:1;stroke:none;stroke-width:1;stroke-linecap:square;stroke-miterlimit:4;stroke-dasharray:none;stroke-opacity:0.501961"
         id="rect1029"
         width="60"
         height="62"
         x="260"
         y="222"
         ry="30" />
      <path
         style="opacity:1;vector-effect:none;fill:#000000;fill-opacity:0.501961;stroke:none;stroke-width:1;stroke-linecap:square;stroke-miterlimit:4;stroke-dasharray:none;stroke-opacity:0.501961"
         d="m 290,222 c -16.62,0 -30,13.38 -30,30 v 2 c 0,16.62 13.38,30 30,30 16.62,0 30,-13.38 30,-30 v -2 c 0,-16.62 -13.38,-30 -30,-30 z m 0,1 a 29,29 0 0 1 29,29 29,29 0 0 1 -29,29 29,29 0 0 1 -29,-29 29,29 0 0 1 29,-29 z"
         id="rect1031"
         inkscape:connector-curvature="0" />
      <rect
         style="opacity:1;vector-effect:none;fill:none;fill-opacity:1;stroke:#000000;stroke-width:1;stroke-linecap:square;stroke-miterlimit:4;stroke-dasharray:none;stroke-opacity:0.501961"
         id="rect1007"
         width="7"
         height="7"
         x="16.5"
         y="276.5"
         ry="0.5" />
      <rect
         style="opacity:1;vector-effect:none;fill:none;fill-opacity:1;stroke:#000000;stroke-width:1;stroke-linecap:square;stroke-miterlimit:4;stroke-dasharray:none;stroke-opacity:0.501961"
         id="rect1009"
         width="15"
         height="15"
         x="50.5"
         y="268.5"
         ry="7.5" />
      <rect
         style="opacity:1;vector-effect:none;fill:none;fill-opacity:1;stroke:#000000;stroke-width:1;stroke-linecap:square;stroke-miterlimit:4;stroke-dasharray:none;stroke-opacity:0.501961"
         id="rect1011"
         width="23"
         height="23"
         x="90.5"
         y="260.5"
         ry="11.477903" />
      <path
         style="display:inline;opacity:1;vector-effect:none;fill:#000000;fill-opacity:0.501961;stroke:none;stroke-width:1;stroke-linecap:square;stroke-miterlimit:4;stroke-dasharray:none;stroke-opacity:0.501961;enable-background:new"
         d="m 214,238 c -12.188,0 -22,9.812 -22,22 v 2 c 0,12.188 9.812,22 22,22 12.188,0 22,-9.812 22,-22 v -2 c 0,-12.188 -9.812,-22 -22,-22 z m 0,1 a 21,21 0 0 1 21,21 21,21 0 0 1 -21,21 21,21 0 0 1 -21,-21 21,21 0 0 1 21,-21 z"
         id="rect1026"
         inkscape:connector-curvature="0" />
      <path
         inkscape:connector-curvature="0"
         style="display:inline;opacity:1;fill:#ffffff;fill-opacity:1;stroke:none;stroke-width:3;stroke-linecap:square;stroke-linejoin:round;stroke-miterlimit:4;stroke-dasharray:none;stroke-opacity:1;enable-background:new"
         d="m 97.5,266 a 1.5,1.5 0 0 0 -1.5,1.5 1.5,1.5 0 0 0 0.439455,1.06055 L 99.87891,272 96.439455,275.43946 A 1.5,1.5 0 0 0 96,276.5 a 1.5,1.5 0 0 0 1.5,1.5 1.5,1.5 0 0 0 1.060545,-0.43945 L 102,274.12109 l 3.4248,3.42482 A 1.5,1.5 0 0 0 106.5,278 a 1.5,1.5 0 0 0 1.5,-1.5 1.5,1.5 0 0 0 -0.43946,-1.06054 L 104.12109,272 l 3.42482,-3.4248 A 1.5,1.5 0 0 0 108,267.5 a 1.5,1.5 0 0 0 -1.5,-1.5 1.5,1.5 0 0 0 -1.06054,0.43946 L 102,269.87891 98.5752,266.4541 a 1.5,1.5 0 0 0 -0.015,-0.015 A 1.5,1.5 0 0 0 97.4997,266 Z"
         id="path5403" />
      <path
         id="path997"
         d="m 97.5,266 a 1.5,1.5 0 0 0 -1.5,1.5 1.5,1.5 0 0 0 0.439455,1.06055 L 99.87891,272 96.439455,275.43946 A 1.5,1.5 0 0 0 96,276.5 a 1.5,1.5 0 0 0 1.5,1.5 1.5,1.5 0 0 0 1.060545,-0.43945 L 102,274.12109 l 3.4248,3.42482 A 1.5,1.5 0 0 0 106.5,278 a 1.5,1.5 0 0 0 1.5,-1.5 1.5,1.5 0 0 0 -0.43946,-1.06054 L 104.12109,272 l 3.42482,-3.4248 A 1.5,1.5 0 0 0 108,267.5 a 1.5,1.5 0 0 0 -1.5,-1.5 1.5,1.5 0 0 0 -1.06054,0.43946 L 102,269.87891 98.5752,266.4541 a 1.5,1.5 0 0 0 -0.015,-0.015 A 1.5,1.5 0 0 0 97.4997,266 Z"
         style="display:inline;opacity:1;fill:#ffffff;fill-opacity:1;stroke:none;stroke-width:3;stroke-linecap:square;stroke-linejoin:round;stroke-miterlimit:4;stroke-dasharray:none;stroke-opacity:1;enable-background:new"
         inkscape:connector-curvature="0" />
      <path
         inkscape:connector-curvature="0"
         style="display:inline;opacity:1;fill:#ffffff;fill-opacity:1;stroke:none;stroke-width:3;stroke-linecap:square;stroke-linejoin:round;stroke-miterlimit:4;stroke-dasharray:none;stroke-opacity:1;enable-background:new"
         d="m 145.5,262.5 a 1.5,1.5 0 0 0 -1.5,1.5 1.5,1.5 0 0 0 0.43945,1.06055 l 3.43946,3.43945 -3.43946,3.43946 A 1.5,1.5 0 0 0 144,273 a 1.5,1.5 0 0 0 1.5,1.5 1.5,1.5 0 0 0 1.06054,-0.43945 L 150,270.62109 l 3.4248,3.42482 A 1.5,1.5 0 0 0 154.5,274.5 1.5,1.5 0 0 0 156,273 a 1.5,1.5 0 0 0 -0.43946,-1.06054 l -3.43945,-3.43946 3.42482,-3.4248 A 1.5,1.5 0 0 0 156,264 a 1.5,1.5 0 0 0 -1.5,-1.5 1.5,1.5 0 0 0 -1.06054,0.43946 L 150,266.37891 146.5752,262.9541 a 1.5,1.5 0 0 0 -0.015,-0.015 1.5,1.5 0 0 0 -1.0605,-0.4391 z"
         id="path999" />
      <path
         id="path1001"
         d="m 207.25,252 a 2.25,2.25 0 0 0 -2.25,2.25 2.25,2.25 0 0 0 0.65917,1.59083 l 5.15919,5.15917 -5.15919,5.15919 A 2.25,2.25 0 0 0 205,267.75 a 2.25,2.25 0 0 0 2.25,2.25 2.25,2.25 0 0 0 1.59081,-0.65917 L 214,264.18164 l 5.1372,5.13723 A 2.25,2.25 0 0 0 220.75,270 2.25,2.25 0 0 0 223,267.75 2.25,2.25 0 0 0 222.34081,266.15919 L 217.18164,261 l 5.13723,-5.1372 A 2.25,2.25 0 0 0 223,254.25 2.25,2.25 0 0 0 220.75,252 a 2.25,2.25 0 0 0 -1.59081,0.65919 L 214,257.81837 l -5.1372,-5.13722 a 2.25,2.25 0 0 0 -0.0225,-0.0225 A 2.25,2.25 0 0 0 207.24955,252 Z"
         style="display:inline;opacity:1;fill:#ffffff;fill-opacity:1;stroke:none;stroke-width:4.5;stroke-linecap:square;stroke-linejoin:round;stroke-miterlimit:4;stroke-dasharray:none;stroke-opacity:1;enable-background:new"
         inkscape:connector-curvature="0" />
      <path
         id="path1003"
         d="m 281,241 a 3,3 0 0 0 -3,3 3,3 0 0 0 0.8789,2.1211 l 6.87892,6.8789 -6.87892,6.87892 A 3,3 0 0 0 278,262 a 3,3 0 0 0 3,3 3,3 0 0 0 2.12108,-0.8789 L 290,257.24218 l 6.8496,6.84964 A 3,3 0 0 0 299,265 a 3,3 0 0 0 3,-3 3,3 0 0 0 -0.87892,-2.12108 L 294.24218,253 l 6.84964,-6.8496 A 3,3 0 0 0 302,244 a 3,3 0 0 0 -3,-3 3,3 0 0 0 -2.12108,0.87892 L 290,248.75782 283.1504,241.9082 a 3,3 0 0 0 -0.03,-0.03 3,3 0 0 0 -2.121,-0.8782 z"
         style="display:inline;opacity:1;fill:#ffffff;fill-opacity:1;stroke:none;stroke-width:6;stroke-linecap:square;stroke-linejoin:round;stroke-miterlimit:4;stroke-dasharray:none;stroke-opacity:1;enable-background:new"
         inkscape:connector-curvature="0" />
      <path
         inkscape:connector-curvature="0"
         style="display:inline;opacity:1;fill:#fafafb;fill-opacity:1;stroke:none;stroke-width:2;stroke-linecap:square;stroke-linejoin:round;stroke-miterlimit:4;stroke-dasharray:none;stroke-opacity:1;enable-background:new"
         d="m 55,272 a 1,1 0 0 0 -1,1 1,1 0 0 0 0.29297,0.70703 L 56.58594,276 54.29297,278.29297 A 1,1 0 0 0 54,279 a 1,1 0 0 0 1,1 1,1 0 0 0 0.70703,-0.29297 L 58,277.41406 l 2.2832,2.28321 A 1,1 0 0 0 61,280 a 1,1 0 0 0 1,-1 1,1 0 0 0 -0.29297,-0.70703 L 59.41406,276 61.69727,273.7168 A 1,1 0 0 0 62,273 a 1,1 0 0 0 -1,-1 1,1 0 0 0 -0.70703,0.29297 L 58,274.58594 55.7168,272.30273 a 1,1 0 0 0 -0.01,-0.01 A 1,1 0 0 0 54.9998,272 Z"
         id="path5403-3" />
      <path
         id="path1011"
         d="m 17.75,277 a 0.75,0.75 0 0 0 -0.75,0.75 0.75,0.75 0 0 0 0.219727,0.53027 L 18.939455,280 17.219727,281.71973 A 0.75,0.75 0 0 0 17,282.25 0.75,0.75 0 0 0 17.75,283 0.75,0.75 0 0 0 18.280272,282.78027 L 20,281.06054 l 1.7124,1.71241 A 0.75,0.75 0 0 0 22.25,283 0.75,0.75 0 0 0 23,282.25 0.75,0.75 0 0 0 22.780272,281.71973 L 21.060545,280 22.772952,278.2876 A 0.75,0.75 0 0 0 23,277.75 0.75,0.75 0 0 0 22.25,277 0.75,0.75 0 0 0 21.719727,277.21973 L 20,278.93945 l -1.7124,-1.7124 a 0.75,0.75 0 0 0 -0.0075,-0.007 A 0.75,0.75 0 0 0 17.74985,277 Z"
         style="display:inline;opacity:1;fill:#fafafb;fill-opacity:1;stroke:none;stroke-width:1.5;stroke-linecap:square;stroke-linejoin:round;stroke-miterlimit:4;stroke-dasharray:none;stroke-opacity:1;enable-background:new"
         inkscape:connector-curvature="0" />
    </g>
  </g>
</svg>
