<svg version="1.0" viewBox="0 0 32 32" xmlns="http://www.w3.org/2000/svg"><g transform="translate(-100 648)"><rect x="109" y="-628" width="15" height="9" ry="1" fill="#424242"/><rect x="110" y="-628" width="13" height="7" ry="1" fill="#848484"/><rect x="102" y="-645" width="28" height="21" ry="1.5" fill="#6f6f6f"/><rect x="103" y="-644" width="26" height="18" ry="1" fill="#acacac"/><rect x="105" y="-642" width="22" height="13" ry=".5" fill="#464646"/><rect x="113" y="-628" width="6" height="1" ry=".5" fill="#424242"/><path d="m114.69-640.75-.116 1.383a4.125 4.125 0 0 0-1.205.697l-1.257-.592-1.313 2.274 1.141.792a4.125 4.125 0 0 0-.063.696 4.125 4.125 0 0 0 .06.699l-1.138.79 1.313 2.273 1.254-.59a4.125 4.125 0 0 0 1.208.692l.116 1.386h2.625l.116-1.383a4.125 4.125 0 0 0 1.205-.697l1.257.592 1.313-2.274-1.141-.792a4.125 4.125 0 0 0 .063-.696 4.125 4.125 0 0 0-.06-.699l1.138-.79-1.313-2.273-1.254.59a4.125 4.125 0 0 0-1.208-.692l-.116-1.386zm1.313 3.75a1.5 1.5 0 0 1 1.5 1.5 1.5 1.5 0 0 1-1.5 1.5 1.5 1.5 0 0 1-1.5-1.5 1.5 1.5 0 0 1 1.5-1.5z" fill="#fff"/></g></svg>