<svg version="1.0" viewBox="0 0 32 32" xmlns="http://www.w3.org/2000/svg"><g transform="translate(-100 -252)"><rect x="103" y="255" width="26" height="26" ry="2.5" fill="#2e7153"/><path d="M105.5 255a2.495 2.495 0 0 0-2.5 2.5v21c0 1.385 1.115 2.5 2.5 2.5h21c1.385 0 2.5-1.115 2.5-2.5v-21c0-1.385-1.115-2.5-2.5-2.5zm.5 1h20c1.108 0 2 .892 2 2v19c0 1.108-.892 2-2 2h-20c-1.108 0-2-.892-2-2v-19c0-1.108.892-2 2-2z" fill-opacity=".502"/><g fill="#fff" aria-label="ABC"><path d="m107.67 267.53-.037.015q-.03-.007 0-.097l.037-.105.037.082zm2.882 0q0 .045-.007.075 0 .022-.007.044l-.03-.156zm1.792 4.234-.127.127q-.045.06-.06.141-.014-.014-.037-.171 0-.135-.082-.15l-.075.023q-.112.097-.149.254l-.112.03q-.112 0-.202-.157l-.149-.291q.022-.112-.067-.292-.082-.179-.082-.283-.164-.045-.202-.314 0-.261-.194-.336 0-.224-.157-.448l-.306-.44q-.067.022-.134-.008-.06-.03-.135-.112-.097.038-.216.038-.112 0-.262-.038l-.253-.037q-.135 0-.262.075l-.022-.075q-.023-.045-.037-.06-.27.068-.381.404l-.105.582q-.09-.112-.134-.276l.03.052q.052.022.074-.007l.045-.075q0-.09-.09-.231-.081-.142-.081-.194 0-.09.156-.157 0-.067-.03-.097-.082 0-.141.045l-.135.171q.052.09.052.21 0 .067-.007.104-.007.037-.052.18l-.052.275q0 .172.179.307l-.157.5q-.045.18-.224.358-.052-.112-.134-.127-.023.007-.052.023-.03.015-.098.067-.067.045-.149.06-.067 0-.142-.082l-.082.119h-.067v-.06q-.06.045-.127.053-.067 0-.12-.165l-.067-.201.12-.053q-.023-.052-.12-.134-.09-.09-.09-.164 0-.045.03-.105l.06-.142q.023-.037.157-.097.037.03.12.06.09-.067.09-.15 0-.067-.075-.179-.068-.119-.068-.186l.023-.082.082-.366q.045-.329.254-.359l-.12-.156q-.045-.068-.045-.142 0-.045.045-.135l-.142-.149q-.06-.082-.06-.164 0-.06.016-.082.164 0 .313-.157l.18-.187v-.12q.052 0 .081.008l.127.03q.06 0 .097-.068l.038-.12.007-.104q0-.104-.067-.26l-.135-.344.194.03q.023-.045 0-.09l-.067-.105q.023-.052.037-.074l.18-.105-.135-.134q-.067-.067-.134-.045l.03-.194q0-.135.015-.21h.074q0 .068-.03.105.038.038.112.053.075 0 .172-.06l.135-.067q.022-.038.022-.053l.015-.097-.067-.03-.105.068q-.067.067-.134.03l.03-.202.03-.21q0-.096-.03-.156.015-.015.082-.015.037 0 .074.09l-.052.09q-.022.03.015.059.097-.045.134-.09.045-.052.045-.112 0-.052-.052-.164l-.052-.187q0-.052.007-.082.015-.037.074-.097l-.007-.104q0-.053-.06-.082l-.06.022-.059.015.262-.433q.112-.172.298-.172 0-.112.075-.12l.127.038q.09.022.157.007.134.18.298.18.075 0 .135-.03.022.03-.007.081l-.053.068q.105.007.157.082.053.074.053.201l-.007.15-.007.149-.068.216q0 .053.03.09.09.022.15.09l.156.254-.03.201q0 .15.053.403l.067.284q-.015.037.007.112.022.067.082.075.052-.023.067-.038l.03-.03q-.045.083-.045.187 0 .09.053.254l.052.224q0 .12-.06.202.082.052.127.343.03.269.112.284.06 0 .15-.082h.037l.015.09q0 .097-.06.194-.06.09-.142.149.03.022.052.03.023.007.038.015.09 0 .134-.015.12 0 .224.186.105.187.157.202.06 0 .15-.164 0 .127.193.239.165.09.165.276-.068 0-.172-.134-.105-.135-.164-.15-.068 0-.165.12 0 .067.075.149l.075.105q0 .044-.082.09h-.067q0-.135-.053-.18h-.067l-.022.097q0 .075.037.142l.104.097.038-.037q.082.03.097.112l-.037.097-.03.097q0 .06.09.104.126-.022.104-.186.03.194.082.336.052.142.187.343l-.03.015q.127.067.224.351.104.269.268.336 0 .127.083.314.09.194.104.306zm-5.324-2.069q-.052.038-.09.038l.075-.09q.03.015.015.052zm-.149.374h-.03v-.12h.03zm.06.224h-.15l.03-.135.09.045q.045.022.03.09zm-.15.769-.044.067-.045.052q-.06 0-.075-.067 0-.052.045-.09.112 0 .12.038zm1.606 0-.023.134q-.007.052-.052.105-.022-.023-.022-.06 0-.112.097-.18zm-1.635.268-.007.06q-.023.03-.038.03h-.045v-.09zm1.799-6.854q-.067.022-.075.097l.03.053h.03l.03-.075q.03-.053-.015-.075zm.47.187v-.038h-.06v.038zm.03 1.448v-.254q-.082-.007-.127.127-.03.127-.149.127l-.03.142q.037.045.067.045l.06-.105q.052-.09.112-.104zm-.65.277q-.014-.06-.059-.098-.045-.037-.09-.022v.21q.053-.03.083-.03.067 0 .067-.06zm1.793.642-.03-.224q-.15-.075-.194-.351l-.03-.291q-.097.037-.097.104 0 .052.06.15.06.089.06.141 0 .038-.046.097l.097.277q.03.097.18.097zm-1.449-.299v-.045h-.052v.045zm-.194.418q-.022-.052-.075-.06-.052.03-.067.06l-.022.127q.045.067.15.067l.029-.074zm1.695.157v-.067q-.022-.038-.075-.007-.03.022-.007.074zm-.426 1.3q.045-.15.045-.277 0-.232-.216-.732-.217-.508-.224-.567-.03-.038-.053-.232 0-.186-.141-.186-.068.082-.127.194-.03.06-.03.127 0 .044.007.067h.12q.074.022.074.186-.03.045-.112.06l-.142-.007-.052.052-.007.053q.037.022.09 0l.066-.03q.045.03.053.06.015.09-.09.09-.09 0-.134.044l-.03.075q.007.022.022.044.015.015.067.053.053.037.075.09 0 .052-.075.074t-.112.045q.007.037.075.06.06.007.082.044-.067 0-.112.068-.037.06-.082.082-.022.186.142.306.164 0 .299.007t.261.037q.134.03.261.112zm-1.127-.748v-.03l-.037-.03zm-.68.135q-.06 0-.119.082-.052.082-.075.187.015.022.023.044.015.023.022.068.007.044.075.044l.03-.231zm.18 1.127q.022-.052-.038-.074t-.067-.03l-.015-.015q-.067 0-.067.052 0 .045.082.127l.06-.015zm-.344.254v-.224h-.06q-.052.007-.06.105v.12zm-.269.164q-.015-.014-.037-.149 0-.112-.082-.12-.075.053-.075.128 0 .044.03.097l.06.082q.082 0 .104-.037zm.971.157v-.052zm-.478.224v-.395h-.06v.395zm-.522.306v-.156q-.06-.023-.083.022l-.007.134zm.298.5q-.03-.074-.03-.216 0-.157-.03-.216 0 .044-.007.074t-.044.135l-.053.179q0 .052.015.075l.082-.007zm-.746.404-.053-.067-.03.015.068.067z"/><path d="M117.24 264.41q-.037.022-.075.022-.022 0-.067-.014-.037-.03-.097-.075-.06-.053-.105-.097h.105q0 .06.105.104.104.023.134.06zm.15 3.218-.083.015v-.082q.023.007.038.022zm.395-2.374q-.022-.045-.037-.053l-.045-.037-.075.015q-.067 0-.157-.112-.03-.045-.082-.082-.015-.007-.037-.03-.052 0-.112.06l.112.269q.022.06.037.186.03-.067.112-.104l.27-.03-.038.134-.187.052.067.075q.023.023.023.075l-.023.075-.06-.023q-.022-.015-.074-.015l-.09.09.112.09q.082.044.082.134-.126.045-.298.201l-.351.329-.037.15.104.014-.343.262-.075-.142q-.03-.053-.112-.015l-.09.12h-.067q.045-.083-.06-.105l-.126-.045-.03.104.022.105.075.127q.03.03.06.03l.06.007.066-.105h.09q.022.127-.097.27-.12.14-.12.2 0 .053.03.113l.15.156q.134-.082.134-.268l.022-.21h.15q.015.038.022.135.015.09.015.202 0 .239.12.395l-.023.172q0 .09.09.134l.06-.074.03-.135-.008-.149q0-.142.142-.142l.067.007.068.03.067.052q-.09.023-.142.105-.037.09-.037.216v.12l.03.157q.134.037.134.127 0 .06-.082.164l-.082.12.067.006.15-.022v-.037h.037v.261q-.023-.06-.09-.06-.045 0-.067.06l.052.15q-.12 0-.142.164 0 .134-.045.194-.044-.067-.044-.142l.022-.142.03-.164q0-.135-.18-.135l-.149.142q-.037.045-.037.135l.09.052q.074.022.097.067l-.157.284q-.067.112-.067.216t.082.187q0 .052-.052.127l-.098.112q-.022-.037-.022-.082l.022-.12.03-.141q0-.09-.12-.12-.022.022-.104.21-.052.156-.201.134 0 .126-.045.283l-.105.329-.037-.097q-.022-.075-.082-.105-.03.015-.037.105 0 .074-.068.097l-.06-.052q-.03-.023-.059.014-.067.038-.104.157-.038.12-.112.127l-.09-.022q-.03.112-.269.134-.224 0-.246.172-.03-.015-.038-.06l.03-.15q0-.059-.097-.066-.067-.023-.164.067-.09.09-.142.104l-.037-.306-.067-.022q-.053 0-.157.052l-.127.045q-.075 0-.075-.157l-.045-.052-.037-.023-.067.075q.015.015.015.037.007.023.015.03l-.082.053q.022-.112-.112-.202-.127-.09-.15-.157-.112.03-.12.127l.016.082.015.097q0 .075-.098.12-.082-.023-.104-.232 0-.216-.202-.179-.015.097-.052.157t-.12.03l.015-.082-.03-.142-.022-.172.023-.112q.022-.045.134-.104l-.007-.105.007-.12q0-.119-.097-.171h-.12l.045-.127q.023-.052.075-.06l-.037-.254q-.007-.119-.03-.209-.015-.09-.053-.156.068 0 .112-.053.053-.06.075-.134-.007-.082.023-.24.044-.133.044-.193 0-.067-.03-.127l-.074-.105q.082-.067.082-.171 0-.053-.075-.195l-.075-.179q0-.09.105-.171-.015-.023-.09-.038l-.067.075v-.119q.067 0 .097-.06l.06-.134-.09-.186q.045-.038.068-.142.022-.105.09-.164l-.053-.098q-.023-.074-.082-.104l-.157.045q0-.038.104-.165.112-.126.127-.186 0-.067-.097-.142l-.007-.246-.015-.187q0-.112.023-.18l-.03-.141-.007-.142q0-.38.209-.657.12.015.261-.097.142-.12.224-.135.097 0 .202.127.037-.007.127-.134.09-.105.157-.12.052 0 .142.068.09 0 .164-.127.074-.135.164-.15.075 0 .134.038.023-.045.06-.053l.194.082-.022.075q0 .06.082.105.06.015.18.015l.066-.105-.141-.052q-.06-.03-.083-.105l.068-.015q.067 0 .179.053l.164.044q.052 0 .12-.044v.224l.082.022q.067 0 .171-.127.09-.134.15-.134.067 0 .179.134l.172-.03h.112l.074-.007-.268.142.298.12q.053 0 .112-.038 0 .127.21.18.216.052.298.164.187.09.321.201t.246.291zm-4.764 3.293-.052-.15h.052zm4.562.09-.156-.038q.022-.067.044-.097.03-.038.068-.053.044 0 .044.098zm-.343 1.156-.007.09q0 .06-.03.067l-.052-.157zm-.62.993q-.104 0-.15-.119l.15-.037zm-1.142-6.615q-.03-.03-.015-.067h-.067v.104q.06 0 .082-.037zm.612.12v-.15h-.164q-.06.067.007.112t.157.037zm-.164.343-.007-.082q0-.082-.03-.105v.187zm1.008.187q-.015-.015-.09-.03v.12q.045-.03.075-.076 0-.007.015-.014zm-.5 0-.082.209h.052l.067-.165q-.022-.044-.037-.044zm.53.462v-.156q0-.097-.105-.097l-.045.306q.038.022.09-.015zm0 .21q-.082 0-.12.067h.09zm-.224.097h-.082v.09l.067-.016q.022 0 .022-.015.007-.022-.007-.06zm-.306.156v.083h.067l.03-.03q-.007-.045-.097-.053zm-.24.344v-.142l.008-.15q0-.193-.038-.298-.03-.112-.156-.216-.127-.045-.224-.142-.098-.097-.12-.202 0 .112-.03.12-.015-.09-.082-.135-.06-.052-.15-.06-.074 0-.126.075l-.247-.09q-.082-.037-.164-.149-.045-.022-.09.007-.044.023-.067.082-.06.06-.134.075-.067 0-.194-.12-.112-.126-.15-.141l-.126.179q-.06.127-.165.194l.03.12-.03.134-.022.142.022.097.12-.157q.09-.105.104-.217l.038.06.044.06q-.052.03-.104.09l-.03.097q0 .06.09.201.09.142.09.202 0 .082-.165.127.022-.045.06-.053l.097.053q.044.045.074.127l.023.142-.015.209-.015.156q.105.03.127.232 0 .187.112.231 0-.164.06-.201.067-.045.179-.045h.097q.075 0 .12-.022.052-.03.074-.127l.075.014q.082 0 .194-.156.097-.165.224-.165l-.007.112.022.202.023.187-.015.112h.067v-.03q.022-.135.15-.157.022-.03.037-.097 0-.12-.12-.142l-.03-.127q0-.12.075-.224l.157-.216.104.119q.03.03.12.022zm-2.27-.142q.023-.045-.03-.09l-.074-.06-.052.068q.045.12.157.082zm2.89.142v-.037q-.022-.045-.067-.023-.03.015-.037.06zm-3.024.015h-.09v.09q0 .067.068.067.03-.03.03-.06zm2.748.306q0-.06-.037-.082v.12zm-2.412.037q-.022-.12-.082-.127-.06 0-.12.097-.051.098-.036.18.014.022.022.052.015.03.03.09.015.052.104.052l-.007-.135q0-.074-.03-.141.075-.075.12-.068zm-.492.105h-.053l.038.082zm.679.575q.022-.053-.03-.075l-.09-.045q-.052.038-.06.105l.03.052.098-.007q.045-.015.052-.03zm.239.194-.045-.194.03.209zm-.545.15v-.15h-.067zm1.658-.15-.038.075q-.022.052.007.074zm-2.15.15v-.105q-.03-.038-.046-.038l-.074-.007-.068.082q-.022.038.03.068zm.343.305v-.067q-.045-.03-.068-.03h-.052q-.022.045.022.075zm-.344.023h-.037q-.052.022-.06.097 0 .067.045.09zm2.89.455.03-.067-.053-.172q-.044.06-.044.135 0 .067.067.104zm-2.427-.015h-.09l-.03.24h.083zm2.576.329v-.157q-.037-.015-.052-.015v.172zm-3.01-.276h-.066l-.023.201-.03.157q0 .09.09.172.067-.067.067-.172zm2.741.612.015-.097q0-.127-.104-.336-.03-.075-.06-.172-.03-.105-.045-.164l-.164.022q-.127 0-.224-.075l.007-.09.022-.059q-.074-.022-.15.06-.074.075-.119.09-.112-.023-.186-.165-.067-.15-.157-.172l.037.15q-.127.067-.201.067-.053 0-.06-.075l.022-.142.023-.171q0-.097-.075-.172.067-.067.067-.18 0-.014-.015-.022-.007-.015-.015-.022-.007.007-.03.022-.022.007-.074.068-.052.052-.052.149 0 .067.03.15l.089.141q0 .09-.12.097h-.119q-.067 0-.09.09-.044-.045-.09-.142l-.014-.127-.15.172q.068.067.068.142 0 .037-.112.141-.112.09-.112.172.045.045.164.045l.142-.007v.104q0 .09-.052.09-.112 0-.135.03.165.067.165.194l-.045.164-.038.157.023.097q.067.06.067.12 0 .052-.06.134l-.052.12q0 .067.097.12-.052.051-.097.074t-.022.097q.037.03.067.09.03.052.03.119l-.023.164q-.022.105-.007.157.068-.045.105-.045.045 0 .052.105v.12q0 .126.045.163.075 0 .112.015h.112q.299 0 .553-.12.253-.126.44-.357.09-.06.157-.18l.12-.246q0-.06.022-.12.03-.067.127-.067l-.007-.045v-.037q0-.082.067-.254l.075-.216q0-.067-.045-.135zm-2.09-.03q-.038-.03-.06-.037-.023-.007-.037-.015l.067.186-.06.098q-.037.082-.127.06l-.007.216.022.261q.023.112.105.217 0-.135.03-.187-.067-.045-.097-.105l-.03-.097q0-.06.112-.209.112-.157.112-.261 0-.067-.03-.127zm-.65 1.06.03-.164q0-.142-.112-.127-.06.037-.082.105-.023.06-.023.186zm.806.508-.037-.052-.03.052zm-.888.224-.007-.12q0-.134-.03-.186l-.06.209q0 .06.03.097z"/><path d="M120.99 264.36q0 .045-.037.075h-.075l.03-.045q.022-.037.082-.03zm4.353 5.936q0 .187-.202.38-.201.18-.201.382l-.052-.007h-.03q-.045 0-.068-.03l.075-.06q-.045-.105-.15-.105-.059 0-.119.03l-.134.06q-.067.03-.075.12v.09l.038.036q-.03.007-.06.007h-.045q-.03 0-.09-.014-.052-.023-.09-.09l-.134.12q-.082.052-.141.052-.045 0-.105-.038-.045-.015-.075.007-.022.023-.022.09v.112l-.343-.21q-.105.195-.307.195-.09 0-.306-.052l-.306-.053-.112.007-.172-.171q-.06 0-.09.082l-.044.127.037.037-.037.037q-.09-.201-.343-.306-.254-.112-.516-.112-.082-.045-.194-.231-.09-.194-.186-.194-.068 0-.135.044-.045-.044-.142 0l-.12.045q-.051 0-.081-.104-.142 0-.403-.165-.254-.164-.374-.164l-.12.023q.068-.09.068-.172 0-.082-.18-.254-.178-.18-.156-.336-.172 0-.172.157l.007.112q0 .074.015.112l-.022.097q-.105-.03-.127-.247 0-.209-.12-.268l.172-.172q-.097-.03-.172-.045-.074-.015-.171-.015l-.015-.112q0-.09.037-.224l.037-.209q0-.082-.037-.15-.022-.066-.12-.141.023-.022.038-.112l-.015-.157q-.142-.045-.142-.172l.045-.268q-.023-.053-.037-.075-.127.022-.18.15l-.09.23-.03-.126q0-.082.105-.232.112-.149.112-.216l-.015-.075.098.022q.03-.022.052-.082l.015-.12v-.104q0-.082.022-.141.023-.06.12-.068.044-.037.067-.082.03-.052.03-.15-.023-.074-.105-.074-.067 0-.104.015l-.06.023q.022-.105.216-.277.202-.171.202-.32 0-.09-.037-.165h.06q0 .18.014.299.023.112.157.156.127.023.15-.127.022-.156.134-.179l.015-.082q0-.045-.045-.172l-.045-.127q0-.074.037-.112l-.014.075q0 .105.112.21l.209.171q.104-.067.186-.21.09-.141.12-.305-.007-.038-.082-.075-.068-.037-.09-.097.082-.037.15.037l.134.135.172-.21.037.038q.045-.03.06-.12l-.03-.194q0-.074.104-.104l.038.418q.09.007.112-.12.03-.134.06-.164l.126.007q.112 0 .18-.022.067-.03.074-.112l-.015-.067q-.03-.135.112-.157.142-.03.172-.09l.067.12q.015.014.105.014l.037-.231q.037.022.082-.022l.09-.09v-.037q.052 0 .149.052l.157.06q.067-.038.112-.15.045-.12.097-.156l-.007.134q0 .09.067.134.12.023.172-.097v-.037l.134.127q.038.022.075.022.015 0 .075-.015.022-.127.194-.231.179-.112.209-.15.15-.03.172.113l.037.239q.015-.007.022-.015.045-.038.112-.127.045.104.224.104l.082-.007.038-.022q.044.037.044.097 0 .06-.09.216-.089.135-.089.18t.067.044l.142-.022.03.082q-.007.007-.007.015-.037.03-.112.067-.112.03-.12.105h-.096l-.023-.037q-.03-.038-.09-.098-.104.127-.2.127-.046 0-.143-.052-.074-.06-.179-.09l-.224-.03q-.052 0-.134.008-.075.007-.165.03l-.388.067q-.948.5-1.441.88-.485.382-.485 1.009l-.12-.023q-.112 0-.15.224 0 .202-.036.254.037.112.037.232 0 .142-.075.395-.067.247-.067.344 0 .104.03.187.03.074.134.179-.007.104.023.171l.224.187q.179.12.29.41.12.285.285.285l.112-.023q.097.172.537.344.44.164.553.44.082.023.112-.052.007-.037.022-.075.007 0 .015-.007l.642.187q.493.127.732.269.067-.105.18-.142.111-.038.26-.038h.157l.247-.022q.097-.022.186-.12.24-.119.284-.358l.06-.425q.067.067.127.074.052 0 .171-.164l.142-.18q-.022-.126.097-.17l.165.41q.09.201.09.388 0 .105-.046.254zm-6.966-1.568q-.023.022-.03.037 0 .007-.007.023l-.038-.135zm-.038.231h-.037v-.037h.037zm.896 1.106h-.037v-.112h.037zm3.778-5.668-.052-.09q-.022-.074-.082-.081l-.037.097q.037.045.097.082.045.015.075-.007zm-4.084 2.233h-.112l.075.06.03-.038zm-.15.575q-.044 0-.096.052l-.038.06h.075l.052-.06zm.762.515q-.03-.03-.074-.022v.194q.06-.023.067-.082zm-.612.418v-.075h-.037v.075zm-.112.821h-.06v.112l.038-.037zm6.295.934q-.06-.023-.075-.037-.075.044-.09.082-.022.022-.022.082l.037.082H125l.09-.105q.03-.045.022-.104zm0 .515v-.075q-.023-.022-.112-.037-.015.052.015.09.03.03.097.022zm-2.897.306q-.038 0-.053.015l-.045.06q.023.045.075.022l.023-.045zm-.86.097-.03-.082q-.036-.015-.066-.015v.135q.074 0 .097-.038z"/></g></g></svg>