<svg version="1.0" viewBox="0 0 32 32" xmlns="http://www.w3.org/2000/svg"><g transform="translate(-100 -252)"><rect x="103" y="255" width="26" height="26" ry="2.5" fill="#d1a023"/><path d="M105.5 255a2.495 2.495 0 0 0-2.5 2.5v21c0 1.385 1.115 2.5 2.5 2.5h21c1.385 0 2.5-1.115 2.5-2.5v-21c0-1.385-1.115-2.5-2.5-2.5zm.5 1h20c1.108 0 2 .892 2 2v19c0 1.108-.892 2-2 2h-20c-1.108 0-2-.892-2-2v-19c0-1.108.892-2 2-2z" fill-opacity=".502"/><g fill-opacity=".502"><path d="M115.999 269.002c-3.998 0-5.998 3-5.998 6h-1.749c-.25 0-.25.157-.25.25v1.5c0 .25.138.25.25.25h15.494c.195.006.25-.13.25-.25v-1.5c.021-.146 0-.25-.25-.25h-1.75c0-3-1.999-6-5.997-6zm0 3c2.35 0 2.999 1.762 2.999 3H113c0-1.198.703-3 2.999-3z" fill-rule="evenodd"/><path d="M185.71 251.59a3.652 3.652 0 0 0-.967-.561l-.021 2.232-1.006.73h-1l-.998-.769v-2.232a3.501 3.501 0 0 0-.956.537c-1.377 1.114-1.395 2.948-.04 4.098.284.24.653.414.996.556 0 .81-.003 1.327 0 2.05 1.49.75 2.35 1.76 2.998 2.76v-4.75a3.55 3.55 0 0 0 .954-.553c1.377-1.114 1.395-2.949.04-4.098z" color="#000" style="text-decoration-line:none;text-indent:0;text-transform:none" transform="translate(-62.721 10.012)"/></g><g fill="#fff"><path d="M115.999 268.002c-3.998 0-5.998 3-5.998 6h-1.749c-.25 0-.25.157-.25.25v1.5c0 .25.138.25.25.25h15.494c.195.006.25-.13.25-.25v-1.5c.021-.146 0-.25-.25-.25h-1.75c0-3-1.999-6-5.997-6zm0 3c2.35 0 2.999 1.762 2.999 3H113c0-1.197.703-3 2.999-3z" fill-rule="evenodd"/><path d="M185.71 251.59a3.652 3.652 0 0 0-.967-.561l-.021 2.232-1.006.73h-1l-.998-.769v-2.232a3.501 3.501 0 0 0-.956.537c-1.377 1.114-1.395 2.948-.04 4.098.284.24.653.414.996.556 0 .81-.003 1.327 0 2.05 1.49.75 2.35 1.76 2.998 2.76v-4.75a3.55 3.55 0 0 0 .954-.553c1.377-1.114 1.395-2.949.04-4.098z" color="#000" style="text-decoration-line:none;text-indent:0;text-transform:none" transform="translate(-62.721 9.012)"/></g></g></svg>