<svg version="1.0" viewBox="0 0 32 32" xmlns="http://www.w3.org/2000/svg"><g transform="translate(-100 -252)"><rect x="103" y="255" width="26" height="26" ry="2.5" fill="#3f51b5"/><path d="M105.5 255a2.495 2.495 0 0 0-2.5 2.5v21c0 1.385 1.115 2.5 2.5 2.5h21c1.385 0 2.5-1.115 2.5-2.5v-21c0-1.385-1.115-2.5-2.5-2.5zm.5 1h20c1.108 0 2 .892 2 2v19c0 1.108-.892 2-2 2h-20c-1.108 0-2-.892-2-2v-19c0-1.108.892-2 2-2z" fill-opacity=".502"/><g transform="translate(-9.377 65.877) scale(1.125)" fill="#fafafb"><path d="m106.11 174.33-1.764 10.562 1.55.684 1.992-3.246h7.008l2.106 3.26 1.528-.754-1.753-10.507zm3.11.89h.888c.247 0 .445.199.445.445v1.333h1.333c.246 0 .444.199.444.445v.889a.443.443 0 0 1-.444.444h-1.333v1.333a.443.443 0 0 1-.445.445h-.889a.443.443 0 0 1-.444-.445v-1.333h-1.333a.443.443 0 0 1-.445-.444v-.89c0-.245.198-.444.445-.444h1.333v-1.333c0-.246.198-.444.444-.444zm4.888 0c.493 0 .89.397.89.89a.887.887 0 0 1-.89.888.887.887 0 0 1-.889-.888c0-.493.397-.89.89-.89zm.89 2.667c.492 0 .888.397.888.89s-.396.888-.889.888c-.492 0-.889-.396-.889-.889s.397-.889.89-.889z" filter="url(#filter7554)"/><rect x="106.11" y="173.44" width="3.556" height="1.778" ry=".889" filter="url(#filter7554)"/><rect x="113.22" y="173.44" width="3.556" height="1.778" ry=".889" filter="url(#filter7554)"/><rect x="116.78" y="184.11" width="1.778" height="1.778" ry=".889" filter="url(#filter7554)"/><rect x="104.34" y="184.11" width="1.778" height="1.778" ry=".889" filter="url(#filter7554)"/></g></g></svg>