<svg version="1.0" viewBox="0 0 32 32" xmlns="http://www.w3.org/2000/svg"><g transform="translate(-100 -252)"><rect transform="rotate(90)" x="255" y="-129" width="19" height="19" ry="2" fill="#500302"/><rect x="111" y="256" width="17" height="16" ry="1.5" fill="#cf3b00"/><path d="M115.45 257.98c-.245 0-.444.2-.444.445v9.11c0 .338.361.552.657.39l8.335-4.555a.445.445 0 0 0 0-.78l-7.502-4.1-.833-.455a.442.442 0 0 0-.213-.055z" color="#000" fill="#fff" fill-opacity=".94" style="isolation:auto;mix-blend-mode:normal;text-decoration-color:#000;text-decoration-line:none;text-decoration-style:solid;text-indent:0;text-transform:none;white-space:normal"/><rect transform="rotate(90)" x="262" y="-122" width="19" height="19" ry="2" fill="#793914"/><rect x="104" y="263" width="17" height="16" ry="1.5" fill="#f37329"/><path d="M110 268v6.27a2 2 0 1 0 1 1.73v-5h5v3.27a2 2 0 1 0 1 1.73v-8h-.5z" fill-opacity=".196"/><path d="M110 267v6.27a2 2 0 1 0 1 1.73v-5h5v3.27a2 2 0 1 0 1 1.73v-8h-.5z" fill="#fff" fill-opacity=".94"/></g></svg>