<svg version="1.0" viewBox="0 0 32 32" xmlns="http://www.w3.org/2000/svg"><g transform="translate(-100 -252)"><rect x="103" y="255" width="26" height="26" ry="2.5" fill="#48b9c7"/><path d="M105.5 255a2.495 2.495 0 0 0-2.5 2.5v21c0 1.385 1.115 2.5 2.5 2.5h21c1.385 0 2.5-1.115 2.5-2.5v-21c0-1.385-1.115-2.5-2.5-2.5zm.5 1h20c1.108 0 2 .892 2 2v19c0 1.108-.892 2-2 2h-20c-1.108 0-2-.892-2-2v-19c0-1.108.892-2 2-2z" fill-opacity=".502"/><g fill-opacity=".196"><path d="M115.74 261.01c-2.11.03-4.945.802-4.897 3.28.05 2.587 2.917 1.662 3.15 2.719.035-.045.088-.082.125-.125.197-.213.395-.388.593-.594.312-.352.636-.679.967-1.03 1.106-1.179 1.154-1.25 3.796-3.25-1.035-.621-2.258-.966-3.297-1-.134-.005-.297-.002-.437 0zm-1.903 1.531c.827 0 1.498.671 1.498 1.5a1.498 1.498 0 1 1-2.995 0c0-.828.67-1.5 1.497-1.5zm7.269.662c-1.418 2.233-2.367 3.556-3.37 4.587-.639.658-1.163 1.312-1.622 1.781-.839.89-1.938 1.94-3.15 3.093.063 1.47.81 2.747 3.244 3.218 3.898.756 8.027-1.824 7.611-7.06-.178-2.249-1.405-4.282-2.713-5.62zm.342 3.806a1 1 0 0 1 0 2 1 1 0 0 1 0-2zm-.624 3a1 1 0 0 1 0 2 1 1 0 0 1 0-2zm-4.99 2a1 1 0 0 1 0 1.999 1 1 0 0 1 0-2zm2.994 0a1 1 0 0 1 0 1.999 1 1 0 0 1 0-2z"/><path d="M107.842 274.5c1.552 0 1.394-1.788 2.147-2.286.873-.577 1.639.138 1.792.726.192.743-.117 1.632-1.13 1.885-1.074.268-2.662.276-2.809-.326z"/><path d="M121.88 261.01c-1.8 1.299-4.206 3.302-6.115 5.333-.173.185-.34.363-.504.548-.104.107-.212.195-.315.307-.066.077-.126.163-.19.24-1.873 2.07-3.72 4.68-4.917 6.632 2.978-2.297 4.916-4.165 6.147-5.47.24-.246.529-.566.85-.923 1.204-1.335 2.926-3.438 5.044-6.667z"/></g><g fill="#fff"><path d="M115.74 260.01c-2.11.03-4.945.802-4.897 3.28.05 2.587 2.917 1.662 3.15 2.719.035-.045.088-.082.125-.125.197-.213.395-.388.593-.594.312-.352.636-.679.967-1.03 1.106-1.179 1.154-1.25 3.796-3.25-1.035-.621-2.258-.966-3.297-1-.134-.005-.297-.002-.437 0zm-1.903 1.531c.827 0 1.498.671 1.498 1.5a1.498 1.498 0 1 1-2.995 0c0-.828.67-1.5 1.497-1.5zm7.269.662c-1.418 2.233-2.367 3.556-3.37 4.587-.639.658-1.163 1.312-1.622 1.781-.839.89-1.938 1.94-3.15 3.093.063 1.47.81 2.747 3.244 3.218 3.898.756 8.027-1.824 7.611-7.06-.178-2.249-1.405-4.282-2.713-5.62zm.342 3.806a1 1 0 0 1 0 2 1 1 0 0 1 0-2zm-.624 3a1 1 0 0 1 0 2 1 1 0 0 1 0-2zm-4.99 2a1 1 0 0 1 0 1.999 1 1 0 0 1 0-2zm2.994 0a1 1 0 0 1 0 1.999 1 1 0 0 1 0-2z"/><path d="M107.842 273.5c1.552 0 1.394-1.788 2.147-2.286.873-.577 1.639.138 1.792.726.192.743-.117 1.632-1.13 1.885-1.074.268-2.662.276-2.809-.326z"/><path d="M121.88 260.01c-1.8 1.299-4.206 3.302-6.115 5.333-.173.185-.34.363-.504.548-.104.107-.212.195-.315.307-.066.077-.126.163-.19.24-1.873 2.07-3.72 4.68-4.917 6.632 2.978-2.297 4.916-4.165 6.147-5.47.24-.246.529-.566.85-.923 1.204-1.335 2.926-3.438 5.044-6.667z"/></g></g></svg>