<svg version="1.0" viewBox="0 0 32 32" xmlns="http://www.w3.org/2000/svg"><g transform="translate(-100 -252)"><rect x="488" y="52" width="208" height="208" ry="16.5" fill="#479863"/><rect x="103" y="255" width="26" height="26" ry="2.5" fill="#479863"/><rect x="57" y="261" width="22" height="22" ry="2.5" fill="#479863"/><path d="M105.5 255a2.495 2.495 0 0 0-2.5 2.5v21c0 1.385 1.115 2.5 2.5 2.5h21c1.385 0 2.5-1.115 2.5-2.5v-21c0-1.385-1.115-2.5-2.5-2.5zm.5 1h20c1.108 0 2 .892 2 2v19c0 1.108-.892 2-2 2h-20c-1.108 0-2-.892-2-2v-19c0-1.108.892-2 2-2z" fill-opacity=".502"/><rect x="17" y="269" width="14" height="14" ry="2.5" fill="#479863"/><rect x="230" y="226" width="52" height="52" ry="4.5" fill="#479863"/><rect x="160" y="240" width="40" height="39" ry="3.5" fill="#479863"/><rect x="324" y="168" width="104" height="104" ry="8.5" fill="#479863"/><path d="M59.5 261a2.495 2.495 0 0 0-2.5 2.5v17c0 1.385 1.115 2.5 2.5 2.5h17c1.385 0 2.5-1.115 2.5-2.5v-17c0-1.385-1.115-2.5-2.5-2.5zm.5 1h16c1.108 0 2 .892 2 2v16c0 1.108-.892 2-2 2H60c-1.108 0-2-.892-2-2v-16c0-1.108.892-2 2-2z" fill-opacity=".502"/><path d="M19.5 269a2.495 2.495 0 0 0-2.5 2.5v9c0 1.385 1.115 2.5 2.5 2.5h9c1.385 0 2.5-1.115 2.5-2.5v-9c0-1.385-1.115-2.5-2.5-2.5zm.5 1h8c1.108 0 2 .892 2 2v8c0 1.108-.892 2-2 2h-8c-1.108 0-2-.892-2-2v-8c0-1.108.892-2 2-2z" fill-opacity=".502"/><path d="M234.5 226a4.49 4.49 0 0 0-4.5 4.5v43a4.49 4.49 0 0 0 4.5 4.5h43a4.49 4.49 0 0 0 4.5-4.5v-43a4.49 4.49 0 0 0-4.5-4.5zm.5 1h42c2.216 0 4 1.784 4 4v40c0 2.216-1.784 4-4 4h-42c-2.216 0-4-1.784-4-4v-40c0-2.216 1.784-4 4-4z" fill-opacity=".502"/><path d="M163.5 240a3.492 3.492 0 0 0-3.5 3.5v32c0 1.939 1.561 3.5 3.5 3.5h33c1.939 0 3.5-1.561 3.5-3.5v-32c0-1.939-1.561-3.5-3.5-3.5zm.5 1h32c1.662 0 3 1.338 3 3v29c0 1.662-1.338 3-3 3h-32c-1.662 0-3-1.338-3-3v-29c0-1.662 1.338-3 3-3z" fill-opacity=".502"/><path d="M332.5 168a8.481 8.481 0 0 0-8.5 8.5v87c0 4.709 3.791 8.5 8.5 8.5h87c4.709 0 8.5-3.791 8.5-8.5v-87c0-4.709-3.791-8.5-8.5-8.5zm.5 1h86c4.432 0 8 3.568 8 8v83c0 4.432-3.568 8-8 8h-86c-4.432 0-8-3.568-8-8v-83c0-4.432 3.568-8 8-8z" fill-opacity=".502"/><path d="M504.5 52c-9.141 0-16.5 7.359-16.5 16.5v175c0 9.141 7.359 16.5 16.5 16.5h175c9.141 0 16.5-7.359 16.5-16.5v-175c0-9.141-7.359-16.5-16.5-16.5zm.5 1h174c8.864 0 16 7.136 16 16v170c0 8.864-7.136 16-16 16H505c-8.864 0-16-7.136-16-16V69c0-8.864 7.136-16 16-16z" fill-opacity=".502"/><g fill-opacity=".196" color="#000"><path d="M181.76 194.3a1 1 0 0 0-.488 1.873l.492.273v2.682c-.13.204-.25.387-.44.715-.272.47-.605 1.06-.966 1.707a514.583 514.583 0 0 0-2.203 3.994c-.573 1.047-.551 2.454.3 3.514.674.9 1.738 1.14 2.62 1.14h7.347c.881 0 1.946-.24 2.62-1.14.85-1.059.87-2.463.3-3.51v-.004c-1.163-2.368-2.474-4.217-3.562-6.395v-2.703l.49-.273a1 1 0 0 0-.487-1.873zm2.004 2h2.015v3.107a1 1 0 0 0 .102.44c1.202 2.457 2.574 4.343 3.686 6.617a1 1 0 0 0 .02.04c.239.438.253.882-.1 1.314a1 1 0 0 0-.036.044c-.144.199-.489.336-1.029.336h-7.348c-.54 0-.884-.137-1.029-.336a1 1 0 0 0-.035-.044c-.354-.432-.34-.876-.1-1.315a511.254 511.254 0 0 1 2.192-3.976c.358-.642.69-1.226.953-1.68.263-.454.49-.815.517-.852a1 1 0 0 0 .192-.588z" style="font-feature-settings:normal;font-variant-alternates:normal;font-variant-caps:normal;font-variant-ligatures:normal;font-variant-numeric:normal;font-variant-position:normal;isolation:auto;mix-blend-mode:normal;shape-padding:0;text-decoration-color:#000;text-decoration-line:none;text-decoration-style:solid;text-indent:0;text-orientation:mixed;text-transform:none;white-space:normal" transform="matrix(1.5 0 0 1.5 -97.136 -43.299)"/><path d="m177.334 261.006-3.328 5.999h12l-3.328-5.999z" opacity=".5"/><path d="M181.76 194.3a1 1 0 0 0-.488 1.873l.492.273v2.682c-.13.204-.25.387-.44.715-.272.47-.605 1.06-.966 1.707a514.583 514.583 0 0 0-2.203 3.994c-.573 1.047-.551 2.454.3 3.514.674.9 1.738 1.14 2.62 1.14h7.347c.881 0 1.946-.24 2.62-1.14.85-1.059.87-2.463.3-3.51v-.004c-1.163-2.368-2.474-4.217-3.562-6.395v-2.703l.49-.273a1 1 0 0 0-.487-1.873zm2.004 2h2.015v3.107a1 1 0 0 0 .102.44c1.202 2.457 2.574 4.343 3.686 6.617a1 1 0 0 0 .02.04c.239.438.253.882-.1 1.314a1 1 0 0 0-.036.044c-.144.199-.489.336-1.029.336h-7.348c-.54 0-.884-.137-1.029-.336a1 1 0 0 0-.035-.044c-.354-.432-.34-.876-.1-1.315a511.254 511.254 0 0 1 2.192-3.976c.358-.642.69-1.226.953-1.68.263-.454.49-.815.517-.852a1 1 0 0 0 .192-.588z" style="font-feature-settings:normal;font-variant-alternates:normal;font-variant-caps:normal;font-variant-ligatures:normal;font-variant-numeric:normal;font-variant-position:normal;isolation:auto;mix-blend-mode:normal;shape-padding:0;text-decoration-color:#000;text-decoration-line:none;text-decoration-style:solid;text-indent:0;text-orientation:mixed;text-transform:none;white-space:normal" transform="translate(-68.749 66.75)"/><path d="m114.221 269.95-2.219 3.999h8l-2.219-3.999z" opacity=".5"/><path d="M181.76 194.3a1 1 0 0 0-.488 1.873l.492.273v2.682c-.13.204-.25.387-.44.715-.272.47-.605 1.06-.966 1.707a514.583 514.583 0 0 0-2.203 3.994c-.573 1.047-.551 2.454.3 3.514.674.9 1.738 1.14 2.62 1.14h7.347c.881 0 1.946-.24 2.62-1.14.85-1.059.87-2.463.3-3.51v-.004c-1.163-2.368-2.474-4.217-3.562-6.395v-2.703l.49-.273a1 1 0 0 0-.487-1.873zm2.004 2h2.015v3.107a1 1 0 0 0 .102.44c1.202 2.457 2.574 4.343 3.686 6.617a1 1 0 0 0 .02.04c.239.438.253.882-.1 1.314a1 1 0 0 0-.036.044c-.144.199-.489.336-1.029.336h-7.348c-.54 0-.884-.137-1.029-.336a1 1 0 0 0-.035-.044c-.354-.432-.34-.876-.1-1.315a511.254 511.254 0 0 1 2.192-3.976c.358-.642.69-1.226.953-1.68.263-.454.49-.815.517-.852a1 1 0 0 0 .192-.588z" style="font-feature-settings:normal;font-variant-alternates:normal;font-variant-caps:normal;font-variant-ligatures:normal;font-variant-numeric:normal;font-variant-position:normal;isolation:auto;mix-blend-mode:normal;shape-padding:0;text-decoration-color:#000;text-decoration-line:none;text-decoration-style:solid;text-indent:0;text-orientation:mixed;text-transform:none;white-space:normal" transform="translate(-116.75 70.75)"/><path d="m66.22 273.95-2.219 3.999h8l-2.219-3.999z" opacity=".5"/><path d="M181.76 194.3a1 1 0 0 0-.488 1.873l.492.273v2.682c-.13.204-.25.387-.44.715-.272.47-.605 1.06-.966 1.707a514.583 514.583 0 0 0-2.203 3.994c-.573 1.047-.551 2.454.3 3.514.674.9 1.738 1.14 2.62 1.14h7.347c.881 0 1.946-.24 2.62-1.14.85-1.059.87-2.463.3-3.51v-.004c-1.163-2.368-2.474-4.217-3.562-6.395v-2.703l.49-.273a1 1 0 0 0-.487-1.873zm2.004 2h2.015v3.107a1 1 0 0 0 .102.44c1.202 2.457 2.574 4.343 3.686 6.617a1 1 0 0 0 .02.04c.239.438.253.882-.1 1.314a1 1 0 0 0-.036.044c-.144.199-.489.336-1.029.336h-7.348c-.54 0-.884-.137-1.029-.336a1 1 0 0 0-.035-.044c-.354-.432-.34-.876-.1-1.315a511.254 511.254 0 0 1 2.192-3.976c.358-.642.69-1.226.953-1.68.263-.454.49-.815.517-.852a1 1 0 0 0 .192-.588z" style="font-feature-settings:normal;font-variant-alternates:normal;font-variant-caps:normal;font-variant-ligatures:normal;font-variant-numeric:normal;font-variant-position:normal;isolation:auto;mix-blend-mode:normal;shape-padding:0;text-decoration-color:#000;text-decoration-line:none;text-decoration-style:solid;text-indent:0;text-orientation:mixed;text-transform:none;white-space:normal" transform="matrix(.5 0 0 .5 -68.375 175.88)"/><path d="m23.5 277.005-1 2h3l-1-2z" opacity=".5"/><path d="M181.76 194.3a1 1 0 0 0-.488 1.873l.492.273v2.682c-.13.204-.25.387-.44.715-.272.47-.605 1.06-.966 1.707a514.583 514.583 0 0 0-2.203 3.994c-.573 1.047-.551 2.454.3 3.514.674.9 1.738 1.14 2.62 1.14h7.347c.881 0 1.946-.24 2.62-1.14.85-1.059.87-2.463.3-3.51v-.004c-1.163-2.368-2.474-4.217-3.562-6.395v-2.703l.49-.273a1 1 0 0 0-.487-1.873zm2.004 2h2.015v3.107a1 1 0 0 0 .102.44c1.202 2.457 2.574 4.343 3.686 6.617a1 1 0 0 0 .02.04c.239.438.253.882-.1 1.314a1 1 0 0 0-.036.044c-.144.199-.489.336-1.029.336h-7.348c-.54 0-.884-.137-1.029-.336a1 1 0 0 0-.035-.044c-.354-.432-.34-.876-.1-1.315a511.254 511.254 0 0 1 2.192-3.976c.358-.642.69-1.226.953-1.68.263-.454.49-.815.517-.852a1 1 0 0 0 .192-.588z" style="font-feature-settings:normal;font-variant-alternates:normal;font-variant-caps:normal;font-variant-ligatures:normal;font-variant-numeric:normal;font-variant-position:normal;isolation:auto;mix-blend-mode:normal;shape-padding:0;text-decoration-color:#000;text-decoration-line:none;text-decoration-style:solid;text-indent:0;text-orientation:mixed;text-transform:none;white-space:normal" transform="matrix(1.5 0 0 1.5 -21.124 -50.375)"/><path d="m253.346 253.93-3.328 5.998h12l-3.328-5.998z" opacity=".5"/><path d="M181.76 194.3a1 1 0 0 0-.488 1.873l.492.273v2.682c-.13.204-.25.387-.44.715-.272.47-.605 1.06-.966 1.707a514.583 514.583 0 0 0-2.203 3.994c-.573 1.047-.551 2.454.3 3.514.674.9 1.738 1.14 2.62 1.14h7.347c.881 0 1.946-.24 2.62-1.14.85-1.059.87-2.463.3-3.51v-.004c-1.163-2.368-2.474-4.217-3.562-6.395v-2.703l.49-.273a1 1 0 0 0-.487-1.873zm2.004 2h2.015v3.107a1 1 0 0 0 .102.44c1.202 2.457 2.574 4.343 3.686 6.617a1 1 0 0 0 .02.04c.239.438.253.882-.1 1.314a1 1 0 0 0-.036.044c-.144.199-.489.336-1.029.336h-7.348c-.54 0-.884-.137-1.029-.336a1 1 0 0 0-.035-.044c-.354-.432-.34-.876-.1-1.315a511.254 511.254 0 0 1 2.192-3.976c.358-.642.69-1.226.953-1.68.263-.454.49-.815.517-.852a1 1 0 0 0 .192-.588z" style="font-feature-settings:normal;font-variant-alternates:normal;font-variant-caps:normal;font-variant-ligatures:normal;font-variant-numeric:normal;font-variant-position:normal;isolation:auto;mix-blend-mode:normal;shape-padding:0;text-decoration-color:#000;text-decoration-line:none;text-decoration-style:solid;text-indent:0;text-orientation:mixed;text-transform:none;white-space:normal" transform="matrix(3 0 0 3 -178.25 -385.75)"/><path d="m370.69 222.86-6.656 11.997h24l-6.657-11.997z" opacity=".5"/><path d="M181.76 194.3a1 1 0 0 0-.488 1.873l.492.273v2.682c-.13.204-.25.387-.44.715-.272.47-.605 1.06-.966 1.707a514.583 514.583 0 0 0-2.203 3.994c-.573 1.047-.551 2.454.3 3.514.674.9 1.738 1.14 2.62 1.14h7.347c.881 0 1.946-.24 2.62-1.14.85-1.059.87-2.463.3-3.51v-.004c-1.163-2.368-2.474-4.217-3.562-6.395v-2.703l.49-.273a1 1 0 0 0-.487-1.873zm2.004 2h2.015v3.107a1 1 0 0 0 .102.44c1.202 2.457 2.574 4.343 3.686 6.617a1 1 0 0 0 .02.04c.239.438.253.882-.1 1.314a1 1 0 0 0-.036.044c-.144.199-.489.336-1.029.336h-7.348c-.54 0-.884-.137-1.029-.336a1 1 0 0 0-.035-.044c-.354-.432-.34-.876-.1-1.315a511.254 511.254 0 0 1 2.192-3.976c.358-.642.69-1.226.953-1.68.263-.454.49-.815.517-.852a1 1 0 0 0 .192-.588z" style="font-feature-settings:normal;font-variant-alternates:normal;font-variant-caps:normal;font-variant-ligatures:normal;font-variant-numeric:normal;font-variant-position:normal;isolation:auto;mix-blend-mode:normal;shape-padding:0;text-decoration-color:#000;text-decoration-line:none;text-decoration-style:solid;text-indent:0;text-orientation:mixed;text-transform:none;white-space:normal" transform="matrix(6 0 0 6 -516.5 -1056.5)"/><path d="m581.38 160.72-13.313 23.994h48l-13.313-23.994z" opacity=".5"/></g><g fill="#fff" color="#000"><path d="M181.76 194.3a1 1 0 0 0-.488 1.873l.492.273v2.682c-.13.204-.25.387-.44.715-.272.47-.605 1.06-.966 1.707a514.583 514.583 0 0 0-2.203 3.994c-.573 1.047-.551 2.454.3 3.514.674.9 1.738 1.14 2.62 1.14h7.347c.881 0 1.946-.24 2.62-1.14.85-1.059.87-2.463.3-3.51v-.004c-1.163-2.368-2.474-4.217-3.562-6.395v-2.703l.49-.273a1 1 0 0 0-.487-1.873zm2.004 2h2.015v3.107a1 1 0 0 0 .102.44c1.202 2.457 2.574 4.343 3.686 6.617a1 1 0 0 0 .02.04c.239.438.253.882-.1 1.314a1 1 0 0 0-.036.044c-.144.199-.489.336-1.029.336h-7.348c-.54 0-.884-.137-1.029-.336a1 1 0 0 0-.035-.044c-.354-.432-.34-.876-.1-1.315a511.254 511.254 0 0 1 2.192-3.976c.358-.642.69-1.226.953-1.68.263-.454.49-.815.517-.852a1 1 0 0 0 .192-.588z" style="font-feature-settings:normal;font-variant-alternates:normal;font-variant-caps:normal;font-variant-ligatures:normal;font-variant-numeric:normal;font-variant-position:normal;isolation:auto;mix-blend-mode:normal;shape-padding:0;text-decoration-color:#000;text-decoration-line:none;text-decoration-style:solid;text-indent:0;text-orientation:mixed;text-transform:none;white-space:normal" transform="matrix(1.5 0 0 1.5 -97.136 -44.299)"/><path d="m177.334 260.006-3.328 5.999h12l-3.328-5.999z" opacity=".5"/><path d="M181.76 194.3a1 1 0 0 0-.488 1.873l.492.273v2.682c-.13.204-.25.387-.44.715-.272.47-.605 1.06-.966 1.707a514.583 514.583 0 0 0-2.203 3.994c-.573 1.047-.551 2.454.3 3.514.674.9 1.738 1.14 2.62 1.14h7.347c.881 0 1.946-.24 2.62-1.14.85-1.059.87-2.463.3-3.51v-.004c-1.163-2.368-2.474-4.217-3.562-6.395v-2.703l.49-.273a1 1 0 0 0-.487-1.873zm2.004 2h2.015v3.107a1 1 0 0 0 .102.44c1.202 2.457 2.574 4.343 3.686 6.617a1 1 0 0 0 .02.04c.239.438.253.882-.1 1.314a1 1 0 0 0-.036.044c-.144.199-.489.336-1.029.336h-7.348c-.54 0-.884-.137-1.029-.336a1 1 0 0 0-.035-.044c-.354-.432-.34-.876-.1-1.315a511.254 511.254 0 0 1 2.192-3.976c.358-.642.69-1.226.953-1.68.263-.454.49-.815.517-.852a1 1 0 0 0 .192-.588z" style="font-feature-settings:normal;font-variant-alternates:normal;font-variant-caps:normal;font-variant-ligatures:normal;font-variant-numeric:normal;font-variant-position:normal;isolation:auto;mix-blend-mode:normal;shape-padding:0;text-decoration-color:#000;text-decoration-line:none;text-decoration-style:solid;text-indent:0;text-orientation:mixed;text-transform:none;white-space:normal" transform="translate(-68.749 65.75)"/><path d="m114.221 268.95-2.219 3.999h8l-2.219-3.999z" opacity=".5"/><path d="M181.76 194.3a1 1 0 0 0-.488 1.873l.492.273v2.682c-.13.204-.25.387-.44.715-.272.47-.605 1.06-.966 1.707a514.583 514.583 0 0 0-2.203 3.994c-.573 1.047-.551 2.454.3 3.514.674.9 1.738 1.14 2.62 1.14h7.347c.881 0 1.946-.24 2.62-1.14.85-1.059.87-2.463.3-3.51v-.004c-1.163-2.368-2.474-4.217-3.562-6.395v-2.703l.49-.273a1 1 0 0 0-.487-1.873zm2.004 2h2.015v3.107a1 1 0 0 0 .102.44c1.202 2.457 2.574 4.343 3.686 6.617a1 1 0 0 0 .02.04c.239.438.253.882-.1 1.314a1 1 0 0 0-.036.044c-.144.199-.489.336-1.029.336h-7.348c-.54 0-.884-.137-1.029-.336a1 1 0 0 0-.035-.044c-.354-.432-.34-.876-.1-1.315a511.254 511.254 0 0 1 2.192-3.976c.358-.642.69-1.226.953-1.68.263-.454.49-.815.517-.852a1 1 0 0 0 .192-.588z" style="font-feature-settings:normal;font-variant-alternates:normal;font-variant-caps:normal;font-variant-ligatures:normal;font-variant-numeric:normal;font-variant-position:normal;isolation:auto;mix-blend-mode:normal;shape-padding:0;text-decoration-color:#000;text-decoration-line:none;text-decoration-style:solid;text-indent:0;text-orientation:mixed;text-transform:none;white-space:normal" transform="translate(-116.75 69.75)"/><path d="m66.22 272.95-2.219 3.999h8l-2.219-3.999z" opacity=".5"/><path d="M181.76 194.3a1 1 0 0 0-.488 1.873l.492.273v2.682c-.13.204-.25.387-.44.715-.272.47-.605 1.06-.966 1.707a514.583 514.583 0 0 0-2.203 3.994c-.573 1.047-.551 2.454.3 3.514.674.9 1.738 1.14 2.62 1.14h7.347c.881 0 1.946-.24 2.62-1.14.85-1.059.87-2.463.3-3.51v-.004c-1.163-2.368-2.474-4.217-3.562-6.395v-2.703l.49-.273a1 1 0 0 0-.487-1.873zm2.004 2h2.015v3.107a1 1 0 0 0 .102.44c1.202 2.457 2.574 4.343 3.686 6.617a1 1 0 0 0 .02.04c.239.438.253.882-.1 1.314a1 1 0 0 0-.036.044c-.144.199-.489.336-1.029.336h-7.348c-.54 0-.884-.137-1.029-.336a1 1 0 0 0-.035-.044c-.354-.432-.34-.876-.1-1.315a511.254 511.254 0 0 1 2.192-3.976c.358-.642.69-1.226.953-1.68.263-.454.49-.815.517-.852a1 1 0 0 0 .192-.588z" style="font-feature-settings:normal;font-variant-alternates:normal;font-variant-caps:normal;font-variant-ligatures:normal;font-variant-numeric:normal;font-variant-position:normal;isolation:auto;mix-blend-mode:normal;shape-padding:0;text-decoration-color:#000;text-decoration-line:none;text-decoration-style:solid;text-indent:0;text-orientation:mixed;text-transform:none;white-space:normal" transform="matrix(.5 0 0 .5 -68.375 174.88)"/><path d="m23.5 276.005-1 2h3l-1-2z" opacity=".5"/><path d="M181.76 194.3a1 1 0 0 0-.488 1.873l.492.273v2.682c-.13.204-.25.387-.44.715-.272.47-.605 1.06-.966 1.707a514.583 514.583 0 0 0-2.203 3.994c-.573 1.047-.551 2.454.3 3.514.674.9 1.738 1.14 2.62 1.14h7.347c.881 0 1.946-.24 2.62-1.14.85-1.059.87-2.463.3-3.51v-.004c-1.163-2.368-2.474-4.217-3.562-6.395v-2.703l.49-.273a1 1 0 0 0-.487-1.873zm2.004 2h2.015v3.107a1 1 0 0 0 .102.44c1.202 2.457 2.574 4.343 3.686 6.617a1 1 0 0 0 .02.04c.239.438.253.882-.1 1.314a1 1 0 0 0-.036.044c-.144.199-.489.336-1.029.336h-7.348c-.54 0-.884-.137-1.029-.336a1 1 0 0 0-.035-.044c-.354-.432-.34-.876-.1-1.315a511.254 511.254 0 0 1 2.192-3.976c.358-.642.69-1.226.953-1.68.263-.454.49-.815.517-.852a1 1 0 0 0 .192-.588z" style="font-feature-settings:normal;font-variant-alternates:normal;font-variant-caps:normal;font-variant-ligatures:normal;font-variant-numeric:normal;font-variant-position:normal;isolation:auto;mix-blend-mode:normal;shape-padding:0;text-decoration-color:#000;text-decoration-line:none;text-decoration-style:solid;text-indent:0;text-orientation:mixed;text-transform:none;white-space:normal" transform="matrix(1.5 0 0 1.5 -21.124 -51.375)"/><path d="m253.346 252.93-3.328 5.998h12l-3.328-5.998z" opacity=".5"/><path d="M181.76 194.3a1 1 0 0 0-.488 1.873l.492.273v2.682c-.13.204-.25.387-.44.715-.272.47-.605 1.06-.966 1.707a514.583 514.583 0 0 0-2.203 3.994c-.573 1.047-.551 2.454.3 3.514.674.9 1.738 1.14 2.62 1.14h7.347c.881 0 1.946-.24 2.62-1.14.85-1.059.87-2.463.3-3.51v-.004c-1.163-2.368-2.474-4.217-3.562-6.395v-2.703l.49-.273a1 1 0 0 0-.487-1.873zm2.004 2h2.015v3.107a1 1 0 0 0 .102.44c1.202 2.457 2.574 4.343 3.686 6.617a1 1 0 0 0 .02.04c.239.438.253.882-.1 1.314a1 1 0 0 0-.036.044c-.144.199-.489.336-1.029.336h-7.348c-.54 0-.884-.137-1.029-.336a1 1 0 0 0-.035-.044c-.354-.432-.34-.876-.1-1.315a511.254 511.254 0 0 1 2.192-3.976c.358-.642.69-1.226.953-1.68.263-.454.49-.815.517-.852a1 1 0 0 0 .192-.588z" style="font-feature-settings:normal;font-variant-alternates:normal;font-variant-caps:normal;font-variant-ligatures:normal;font-variant-numeric:normal;font-variant-position:normal;isolation:auto;mix-blend-mode:normal;shape-padding:0;text-decoration-color:#000;text-decoration-line:none;text-decoration-style:solid;text-indent:0;text-orientation:mixed;text-transform:none;white-space:normal" transform="matrix(3 0 0 3 -178.25 -386.75)"/><path d="m370.69 221.86-6.656 11.997h24l-6.657-11.997z" opacity=".5"/><path d="M181.76 194.3a1 1 0 0 0-.488 1.873l.492.273v2.682c-.13.204-.25.387-.44.715-.272.47-.605 1.06-.966 1.707a514.583 514.583 0 0 0-2.203 3.994c-.573 1.047-.551 2.454.3 3.514.674.9 1.738 1.14 2.62 1.14h7.347c.881 0 1.946-.24 2.62-1.14.85-1.059.87-2.463.3-3.51v-.004c-1.163-2.368-2.474-4.217-3.562-6.395v-2.703l.49-.273a1 1 0 0 0-.487-1.873zm2.004 2h2.015v3.107a1 1 0 0 0 .102.44c1.202 2.457 2.574 4.343 3.686 6.617a1 1 0 0 0 .02.04c.239.438.253.882-.1 1.314a1 1 0 0 0-.036.044c-.144.199-.489.336-1.029.336h-7.348c-.54 0-.884-.137-1.029-.336a1 1 0 0 0-.035-.044c-.354-.432-.34-.876-.1-1.315a511.254 511.254 0 0 1 2.192-3.976c.358-.642.69-1.226.953-1.68.263-.454.49-.815.517-.852a1 1 0 0 0 .192-.588z" style="font-feature-settings:normal;font-variant-alternates:normal;font-variant-caps:normal;font-variant-ligatures:normal;font-variant-numeric:normal;font-variant-position:normal;isolation:auto;mix-blend-mode:normal;shape-padding:0;text-decoration-color:#000;text-decoration-line:none;text-decoration-style:solid;text-indent:0;text-orientation:mixed;text-transform:none;white-space:normal" transform="matrix(6 0 0 6 -516.5 -1057.5)"/><path d="m581.38 159.72-13.313 23.994h48l-13.313-23.994z" opacity=".5"/></g></g></svg>