<svg version="1.0" viewBox="0 0 32 32" xmlns="http://www.w3.org/2000/svg"><g transform="translate(-100 -252)"><rect x="103.25" y="255" width="26" height="26" ry="2.5" fill="#cdcdcd"/><path d="M105.5 255a2.495 2.495 0 0 0-2.5 2.5v21c0 1.385 1.115 2.5 2.5 2.5h21c1.385 0 2.5-1.115 2.5-2.5v-21c0-1.385-1.115-2.5-2.5-2.5zm.5 1h20c1.108 0 2 .892 2 2v19c0 1.108-.892 2-2 2h-20c-1.108 0-2-.892-2-2v-19c0-1.108.892-2 2-2z" fill-opacity=".502"/><path d="M112.5 271h1l4-10h1l4 10h1v1H120v-1h1l-.715-2h-4.555l-.73 2h1v1h-3.5zm3.5-3h4l-1.996-5.21z" aria-label="A"/><g fill="none" stroke="#000" stroke-opacity=".251"><path d="M112 271.5h-2.5v-10h2.5"/><path d="M122.5 272v2.5h-10V272"/></g></g></svg>