<svg version="1.0" viewBox="0 0 32 32" xmlns="http://www.w3.org/2000/svg"><g transform="translate(-100 -252)"><rect x="103" y="255" width="26" height="26" ry="2.5" fill="#ededed"/><path d="M105.5 255a2.495 2.495 0 0 0-2.5 2.5v21c0 1.385 1.115 2.5 2.5 2.5h21c1.385 0 2.5-1.115 2.5-2.5v-21c0-1.385-1.115-2.5-2.5-2.5zm.5 1h20c1.108 0 2 .892 2 2v19c0 1.108-.892 2-2 2h-20c-1.108 0-2-.892-2-2v-19c0-1.108.892-2 2-2z" fill-opacity=".502"/><path class="starred" d="m116 260.39-2.119 5.495-5.88.317 4.57 3.713-1.515 5.692 4.944-3.2 4.944 3.2-1.515-5.692 4.571-3.713-5.881-.317z" color="#000" fill="#393634" opacity=".8" style="text-decoration-line:none;text-indent:0;text-transform:none"/></g></svg>