<svg version="1.0" viewBox="0 0 32 32" xmlns="http://www.w3.org/2000/svg"><g transform="translate(-100 -252)"><rect x="103" y="255" width="26" height="26" ry="2.5" fill="#9c27b0"/><path d="M105.5 255a2.495 2.495 0 0 0-2.5 2.5v21c0 1.385 1.115 2.5 2.5 2.5h21c1.385 0 2.5-1.115 2.5-2.5v-21c0-1.385-1.115-2.5-2.5-2.5zm.5 1h20c1.108 0 2 .892 2 2v19c0 1.108-.892 2-2 2h-20c-1.108 0-2-.892-2-2v-19c0-1.108.892-2 2-2z" fill-opacity=".502"/><g fill="#fff"><path d="M116.235 263a4.5 4.5 0 0 1 .762 2.5 4.5 4.5 0 0 1-4.5 4.5 4.5 4.5 0 0 1-2.5-.76v.76c0 1.108.892 2 2 2h10c1.108 0 2-.892 2-2v-5c0-1.108-.892-2-2-2z"/><path d="m120.995 272-2 2-2-2z"/><path d="M112.495 262a3.5 3.5 0 0 0-3.5 3.5 3.5 3.5 0 0 0 3.5 3.5 3.5 3.5 0 0 0 3.5-3.5 3.5 3.5 0 0 0-3.5-3.5zm-.5 1h1v3h-1zm0 4h1v1h-1z"/></g></g></svg>