<svg version="1.0" viewBox="0 0 32 32" xmlns="http://www.w3.org/2000/svg"><g transform="translate(-100 -252)"><rect x="103" y="255" width="26" height="26" ry="2.5" fill="#3f51b5"/><path d="M105.5 255a2.495 2.495 0 0 0-2.5 2.5v21c0 1.385 1.115 2.5 2.5 2.5h21c1.385 0 2.5-1.115 2.5-2.5v-21c0-1.385-1.115-2.5-2.5-2.5zm.5 1h20c1.108 0 2 .892 2 2v19c0 1.108-.892 2-2 2h-20c-1.108 0-2-.892-2-2v-19c0-1.108.892-2 2-2z" fill-opacity=".502"/><path d="M116 260a8 8 0 1 0 0 16 8 8 0 0 0 0-16zm0 1a2 2 0 1 1 0 4 2 2 0 0 1 0-4zm-6 5h12v2h-3v6h-2v-4h-2v4h-2v-6h-3z" color="#000" fill="#fff" fill-opacity=".985"/></g></svg>