<svg version="1.0" viewBox="0 0 32 32" xmlns="http://www.w3.org/2000/svg"><g transform="translate(-100 -252)"><rect x="103" y="255" width="26" height="26" ry="2.5" fill="#ececec"/><path d="M105.5 255a2.495 2.495 0 0 0-2.5 2.5v21c0 1.385 1.115 2.5 2.5 2.5h21c1.385 0 2.5-1.115 2.5-2.5v-21c0-1.385-1.115-2.5-2.5-2.5zm.5 1h20c1.108 0 2 .892 2 2v19c0 1.108-.892 2-2 2h-20c-1.108 0-2-.892-2-2v-19c0-1.108.892-2 2-2z" fill-opacity=".502"/><g fill="#474341"><path d="M111.88 259.58c-1.645 0-3 1.355-3 3v8c0 1.645 1.355 3 3 3h8c1.645 0 3-1.355 3-3v-8c0-1.645-1.355-3-3-3zm0 2h8c.571 0 1 .429 1 1v8c0 .571-.429 1-1 1h-8c-.571 0-1-.429-1-1v-8c0-.571.429-1 1-1z" color="#000" style="font-feature-settings:normal;font-variant-alternates:normal;font-variant-caps:normal;font-variant-east-asian:normal;font-variant-ligatures:normal;font-variant-numeric:normal;font-variant-position:normal;font-variation-settings:normal;inline-size:0;isolation:auto;mix-blend-mode:normal;shape-margin:0;shape-padding:0;text-decoration-color:#000;text-decoration-line:none;text-decoration-style:solid;text-indent:0;text-orientation:mixed;text-transform:none;white-space:normal" transform="translate(.123 1.42)"/><path d="M113.88 262.58v4.576l4.5 2.598 1-1.73-3.5-2.022v-3.422z" color="#000" style="font-feature-settings:normal;font-variant-alternates:normal;font-variant-caps:normal;font-variant-east-asian:normal;font-variant-ligatures:normal;font-variant-numeric:normal;font-variant-position:normal;font-variation-settings:normal;inline-size:0;isolation:auto;mix-blend-mode:normal;shape-margin:0;shape-padding:0;text-decoration-color:#000;text-decoration-line:none;text-decoration-style:solid;text-indent:0;text-orientation:mixed;text-transform:none;white-space:normal" transform="translate(.123 1.42)"/><path d="M113.003 260h6v1h-6v-1z"/><path d="M113.003 275h6v1h-6v-1z"/></g></g></svg>