<svg version="1.0" viewBox="0 0 32 32" xmlns="http://www.w3.org/2000/svg"><g transform="translate(-100 -252)"><rect x="103" y="255" width="26" height="26" ry="2.5" fill="#f15d22"/><path d="M105.5 255a2.495 2.495 0 0 0-2.5 2.5v21c0 1.385 1.115 2.5 2.5 2.5h21c1.385 0 2.5-1.115 2.5-2.5v-21c0-1.385-1.115-2.5-2.5-2.5zm.5 1h20c1.108 0 2 .892 2 2v19c0 1.108-.892 2-2 2h-20c-1.108 0-2-.892-2-2v-19c0-1.108.892-2 2-2z" fill-opacity=".502"/><path d="M113.51 259a2.5 2.5 0 1 0 0 5 2.5 2.5 0 0 0 0-5zm-2 6a1 1 0 0 0-.924.615l-2.5 5c-.553 1.247 1.35 2.04 1.846.77l1.11-2.66-.036.275v7c0 .554.446 1 1 1h.004c.554 0 1-.446 1-1l-.004-4h1l.004 4c0 .554.446 1 1 1s1-.446 1-1l-.004-7-.037-.299 1.117 2.684a1 1 0 0 0 1.43.502l1.53-.082c-.014.065-.04.126-.04.195v4.5a.499.499 0 1 0 1 0l-.004-2.5h1.004l.004 2.5a.5.5 0 1 0 1 0v-3.791l1.143 1.144c.47.491 1.197-.235.707-.707l-1.996-2a.5.5 0 0 0-.354-.146h-1.865l-1.627.021c0-.14-.03-.278-.086-.406l-2.5-5a1 1 0 0 0-.922-.615zm9.996 1.75c-.963 0-1.75.786-1.75 1.75s.787 1.75 1.75 1.75 1.75-.786 1.75-1.75-.786-1.75-1.75-1.75z" fill="#fff"/></g></svg>