<svg version="1.0" viewBox="0 0 32 32" xmlns="http://www.w3.org/2000/svg"><g transform="translate(-100 -252)"><rect x="103" y="255" width="26" height="26" ry="2.5" fill="#479863"/><path d="M105.5 255a2.495 2.495 0 0 0-2.5 2.5v21c0 1.385 1.115 2.5 2.5 2.5h21c1.385 0 2.5-1.115 2.5-2.5v-21c0-1.385-1.115-2.5-2.5-2.5zm.5 1h20c1.108 0 2 .892 2 2v19c0 1.108-.892 2-2 2h-20c-1.108 0-2-.892-2-2v-19c0-1.108.892-2 2-2z" fill-opacity=".502"/><path d="M120 260a3 3 0 0 0-3 3c0 .231.044.44.094.656l-3.22 2a3 3 0 1 0 0 4.688l3.22 2c-.05.216-.094.425-.094.656a3 3 0 1 0 1.125-2.344l-3.219-2c.05-.216.094-.425.094-.656 0-.231-.044-.44-.094-.656l3.219-2A3 3 0 1 0 120 260z" fill="#fff"/></g></svg>