<svg version="1.0" viewBox="0 0 32 32" xmlns="http://www.w3.org/2000/svg"><g transform="translate(-100 -252)"><rect x="103" y="255" width="26" height="26" ry="2.5" fill="#48b9c7"/><path d="M105.5 255a2.495 2.495 0 0 0-2.5 2.5v21c0 1.385 1.115 2.5 2.5 2.5h21c1.385 0 2.5-1.115 2.5-2.5v-21c0-1.385-1.115-2.5-2.5-2.5zm.5 1h20c1.108 0 2 .892 2 2v19c0 1.108-.892 2-2 2h-20c-1.108 0-2-.892-2-2v-19c0-1.108.892-2 2-2z" fill-opacity=".502"/><path d="M116 260a8 8 0 0 1 8 8v1a3 3 0 0 1-5.297 1.93A3.975 3.975 0 0 1 116 272a4 4 0 1 1 4-4v1a1 1 0 0 0 2 0v-1a6 6 0 1 0-6 6h5s1 0 1 1c-.062 1-1 1-1 1h-5a8 8 0 1 1 0-16zm0 6a2 2 0 1 0 0 4 2 2 0 0 0 0-4z" fill="#fff"/></g></svg>