<svg version="1.0" viewBox="0 0 32 32" xmlns="http://www.w3.org/2000/svg"><g transform="translate(-100 648)"><rect x="102" y="-641" width="28" height="22" ry="2" fill="#6f6f6f"/><rect x="103" y="-640" width="26" height="19" ry="1.5" fill="#dedede"/><path fill="#45454f" d="M105-638h22v14h-22z"/><path fill="#48b9c7" d="M105-638h22v14h-22z"/><g fill-opacity=".196"><path d="M604.79 384.57c-1.645 0-3 1.355-3 3v6c0 1.645 1.355 3 3 3h8c1.645 0 3-1.355 3-3v-6c0-1.645-1.355-3-3-3zm0 2h8c.571 0 1 .429 1 1v6c0 .571-.429 1-1 1h-8c-.571 0-1-.429-1-1v-6c0-.571.429-1 1-1z" color="#000" style="font-feature-settings:normal;font-variant-alternates:normal;font-variant-caps:normal;font-variant-ligatures:normal;font-variant-numeric:normal;font-variant-position:normal;isolation:auto;mix-blend-mode:normal;shape-padding:0;text-decoration-color:#000;text-decoration-line:none;text-decoration-style:solid;text-indent:0;text-orientation:mixed;text-transform:none;white-space:normal" transform="translate(-492.79 -1020.6)"/><path d="M112-633.03v4l1.5-1.5 1.5 1.5 2.5-2.5 2.5 2.5v-4z" opacity=".5"/><path d="m116-631.03 4 4h-8z"/></g><g fill="#fff"><path d="M604.79 384.57c-1.645 0-3 1.355-3 3v6c0 1.645 1.355 3 3 3h8c1.645 0 3-1.355 3-3v-6c0-1.645-1.355-3-3-3zm0 2h8c.571 0 1 .429 1 1v6c0 .571-.429 1-1 1h-8c-.571 0-1-.429-1-1v-6c0-.571.429-1 1-1z" color="#000" style="font-feature-settings:normal;font-variant-alternates:normal;font-variant-caps:normal;font-variant-ligatures:normal;font-variant-numeric:normal;font-variant-position:normal;isolation:auto;mix-blend-mode:normal;shape-padding:0;text-decoration-color:#000;text-decoration-line:none;text-decoration-style:solid;text-indent:0;text-orientation:mixed;text-transform:none;white-space:normal" transform="translate(-492.79 -1021.6)"/><path d="M112-634.03v4l1.5-1.5 1.5 1.5 2.5-2.5 2.5 2.5v-4z" opacity=".5"/><path d="m116-632.03 4 4h-8z"/></g></g></svg>