<svg version="1.0" viewBox="0 0 32 32" xmlns="http://www.w3.org/2000/svg"><g transform="translate(-100 -252)"><rect x="103" y="255" width="26" height="26" ry="2.5" fill="#6a7ce0"/><path d="M105.5 255a2.495 2.495 0 0 0-2.5 2.5v21c0 1.385 1.115 2.5 2.5 2.5h21c1.385 0 2.5-1.115 2.5-2.5v-21c0-1.385-1.115-2.5-2.5-2.5zm.5 1h20c1.108 0 2 .892 2 2v19c0 1.108-.892 2-2 2h-20c-1.108 0-2-.892-2-2v-19c0-1.108.892-2 2-2z" fill-opacity=".502"/><g fill="#fff" fill-opacity=".973" color="#000"><path d="M113.14 259.29c-4.406 0-8 3.594-8 8s3.594 8 8 8 8-3.594 8-8-3.594-8-8-8zm0 2c2.23 0 4.16 1.206 5.195 3h-10.39a5.978 5.978 0 0 1 5.195-3zm-5.643 3.97c.046.015.092.03.143.03h11c.05 0 .097-.015.143-.03.226.635.357 1.316.357 2.03 0 .714-.13 1.395-.357 2.03a.456.456 0 0 0-.143-.03h-11a.462.462 0 0 0-.143.03 6.012 6.012 0 0 1-.357-2.03c0-.714.13-1.395.357-2.03zm.448 5.03h10.39c-1.034 1.794-2.965 3-5.195 3s-4.16-1.206-5.195-3z" style="font-feature-settings:normal;font-variant-alternates:normal;font-variant-caps:normal;font-variant-east-asian:normal;font-variant-ligatures:normal;font-variant-numeric:normal;font-variant-position:normal;font-variation-settings:normal;inline-size:0;isolation:auto;mix-blend-mode:normal;shape-margin:0;shape-padding:0;text-decoration-color:#000;text-decoration-line:none;text-decoration-style:solid;text-indent:0;text-orientation:mixed;text-transform:none;white-space:normal" transform="translate(2.863 .713)"/><path d="M112.64 260.29c-.144 0-.27.06-.361.156-.836.31-1.538 1.053-2.053 2.01-.684 1.27-1.086 2.966-1.086 4.834s.402 3.562 1.086 4.832c.516.957 1.218 1.703 2.055 2.012.09.095.216.156.359.156h1a.495.495 0 0 0 .36-.156c.836-.31 1.54-1.055 2.056-2.012.684-1.27 1.084-2.964 1.084-4.832s-.4-3.564-1.084-4.834c-.515-.957-1.218-1.7-2.055-2.01a.493.493 0 0 0-.361-.156h-.5zm-.5 1.375v11.248c-.37-.275-.725-.69-1.035-1.266-.583-1.082-.965-2.635-.965-4.357s.382-3.277.965-4.36c.31-.575.665-.991 1.035-1.265zm2 0c.37.274.725.69 1.035 1.266.583 1.082.965 2.637.965 4.359s-.382 3.275-.965 4.357c-.31.576-.665.992-1.035 1.266z" opacity=".5" style="font-feature-settings:normal;font-variant-alternates:normal;font-variant-caps:normal;font-variant-east-asian:normal;font-variant-ligatures:normal;font-variant-numeric:normal;font-variant-position:normal;font-variation-settings:normal;inline-size:0;isolation:auto;mix-blend-mode:normal;shape-margin:0;shape-padding:0;text-decoration-color:#000;text-decoration-line:none;text-decoration-style:solid;text-indent:0;text-orientation:mixed;text-transform:none;white-space:normal" transform="translate(2.863 .713)"/></g></g></svg>