<svg version="1.0" viewBox="0 0 24 24" xmlns="http://www.w3.org/2000/svg"><g transform="translate(-56 -260)"><rect x="105" y="255" width="22" height="26" ry="2" fill="#560c00"/><rect x="106" y="256" width="20" height="24" ry="1.5" fill="#dedede"/><rect x="105" y="254" width="20" height="24" ry="2" fill="#560c00"/><rect x="106" y="255" width="18" height="22" ry="1.5" fill="#f15d22"/><path d="M107.5 255c-.831 0-1.5.669-1.5 1.5v22c0 .831.669 1.5 1.5 1.5h.5v-25z" fill="#350700"/><rect x="234" y="225" width="44" height="53" ry="3" fill="#560c00"/><rect x="235" y="226" width="42" height="51" ry="2.5" fill="#dedede"/><rect x="234" y="224" width="42" height="49" ry="3" fill="#560c00"/><rect x="235" y="225" width="40" height="47" ry="2.5" fill="#f15d22"/><path d="M237.5 225a2.495 2.495 0 0 0-2.5 2.5v47c0 1.385 1.147 2.796 2.5 2.5h.5v-52z" fill="#350700"/><rect x="332" y="165" width="88" height="107" ry="5" fill="#560c00"/><rect x="333" y="166" width="86" height="105" ry="5" fill="#dedede"/><rect x="332" y="164" width="86" height="100" ry="5" fill="#560c00"/><rect x="333" y="165" width="84" height="98" ry="4.5" fill="#f15d22"/><path d="M337.5 165a4.49 4.49 0 0 0-4.5 4.5v97a4.49 4.49 0 0 0 4.5 4.5h1.5V165z" fill="#350700"/><rect x="504" y="45" width="176" height="215" ry="8" fill="#560c00"/><rect x="505" y="46" width="174" height="213" ry="7.5" fill="#dedede"/><rect x="504" y="44" width="174" height="202" ry="8" fill="#560c00"/><rect x="505" y="45" width="172" height="200" ry="7.5" fill="#f15d22"/><path d="M512.5 45a7.484 7.484 0 0 0-7.5 7.5v199c0 4.155 3.348 7.646 7.5 7.5h3.5V45z" fill="#350700"/><rect x="164" y="240" width="33" height="39" ry="3" fill="#560c00"/><rect x="165" y="241" width="31" height="37" ry="2.5" fill="#dedede"/><rect x="164" y="239" width="31" height="36" ry="3" fill="#560c00"/><rect x="165" y="240" width="29" height="34" ry="2.4" fill="#f15d22"/><path d="M167.4 240c-1.33 0-2.4 1.07-2.4 2.4v33.2c0 1.329 1.07 2.4 2.4 2.4h.6v-38z" fill="#350700"/><rect x="58" y="261" width="20" height="23" ry="1.5" fill="#560c00"/><rect x="59" y="262" width="18" height="21" ry="1" fill="#dedede"/><rect x="58" y="260" width="18" height="21" ry="1.5" fill="#560c00"/><rect x="59" y="261" width="16" height="19" ry="1" fill="#f15d22"/><path d="M60 261c-.554 0-1 .446-1 1v20c0 .554.446 1 1 1h1v-22z" fill="#350700"/><rect x="16" y="269" width="15" height="15" ry="1.5" fill="#560c00"/><rect x="18" y="270" width="12" height="13" ry="1" fill="#dedede"/><rect x="16" y="268" width="13" height="13" ry="1.5" fill="#560c00"/><rect x="18" y="269" width="10" height="11" ry="1" fill="#f15d22"/><path d="M18 269c-.554 0-1 .446-1 1v12c0 .554.446.992 1 1h1v-14z" fill="#350700"/><g fill-opacity=".196"><path d="M21.5 273a1.5 1.5 0 0 0-1.5 1.5v3.5h1v-1h1v1h1v-3.5a1.5 1.5 0 0 0-1.5-1.5zm0 1c.277 0 .5.223.5.5v1.5h-1v-1.5c0-.277.223-.5.5-.5z"/><path d="M24 273v1h2l-2 3v1h3v-1h-2l2-3v-1z"/><path d="M64 268c-1.108 0-2 .892-2 2v4h1v-2h2v2h1v-4c0-1.108-.892-2-2-2zm0 1c.554 0 1 .446 1 1v1h-2v-1c0-.554.446-1 1-1z"/><path d="M70 268v1h2.4l-2.4 4v1h4v-1h-2.4l2.4-4v-1h-1z"/><path d="M67 271h2v1h-2z"/><path d="M249 243c-2.216 0-4 1.784-4 4v8h2v-4h4v4h2v-8c0-2.216-1.784-4-4-4zm0 2c1.108 0 2 .892 2 2v2h-4v-2c0-1.108.892-2 2-2z"/><path d="M259 243v2h5l-5 8v2h8v-2h-5l5-8v-2h-2z"/><path d="M254 249h5v2h-5z"/><path d="M112 264c-1.108 0-2 .892-2 2v4h1v-2h2v2h1v-4c0-1.108-.892-2-2-2zm0 1c.554 0 1 .446 1 1v1h-2v-1c0-.554.446-1 1-1z"/><path d="M118 264v1h2.4l-2.4 4v1h4v-1h-2.4l2.4-4v-1h-1z"/><path d="M115 267h2v1h-2z"/><path d="M362 203c-4.432 0-8 3.568-8 8v16h4v-8h8v8h4v-16c0-4.432-3.568-8-8-8zm0 4c2.216 0 4 1.784 4 4v4h-8v-4c0-2.216 1.784-4 4-4z"/><path d="M382 203v4h10l-10 16v4h16v-4h-10l10-16v-4h-4z"/><path d="M372 215h10v4h-10z"/><path d="M564 122c-8.864 0-16 7.136-16 16v32h8v-16h16v16h8v-32c0-8.864-7.136-16-16-16zm0 8c4.432 0 8 3.568 8 8v8h-16v-8c0-4.432 3.568-8 8-8z"/><path d="M604 122v8h20l-20 32v8h32v-8h-20l20-32v-8h-8z"/><path d="M584 146h20v8h-20z"/><path d="M174 252c-2.216 0-4 1.784-4 4v8h2v-4h4v4h2v-8c0-2.216-1.784-4-4-4zm0 2c1.108 0 2 .892 2 2v2h-4v-2c0-1.108.892-2 2-2z"/><path d="M184 252v2h5l-5 8v2h8v-2h-5l5-8v-2h-2z"/><path d="M179 258h5v2h-5z"/></g><g fill="#ededed"><path d="M21.5 272a1.5 1.5 0 0 0-1.5 1.5v3.5h1v-1h1v1h1v-3.5a1.5 1.5 0 0 0-1.5-1.5zm0 1c.277 0 .5.223.5.5v1.5h-1v-1.5c0-.277.223-.5.5-.5z"/><path d="M24 272v1h2l-2 3v1h3v-1h-2l2-3v-1z"/><path d="M64 267c-1.108 0-2 .892-2 2v4h1v-2h2v2h1v-4c0-1.108-.892-2-2-2zm0 1c.554 0 1 .446 1 1v1h-2v-1c0-.554.446-1 1-1z"/><path d="M70 267v1h2.4l-2.4 4v1h4v-1h-2.4l2.4-4v-1h-1z"/><path d="M67 270h2v1h-2z"/><path d="M249 242c-2.216 0-4 1.784-4 4v8h2v-4h4v4h2v-8c0-2.216-1.784-4-4-4zm0 2c1.108 0 2 .892 2 2v2h-4v-2c0-1.108.892-2 2-2z"/><path d="M259 242v2h5l-5 8v2h8v-2h-5l5-8v-2h-2z"/><path d="M254 248h5v2h-5z"/><path d="M112 263c-1.108 0-2 .892-2 2v4h1v-2h2v2h1v-4c0-1.108-.892-2-2-2zm0 1c.554 0 1 .446 1 1v1h-2v-1c0-.554.446-1 1-1z"/><path d="M118 263v1h2.4l-2.4 4v1h4v-1h-2.4l2.4-4v-1h-1z"/><path d="M115 266h2v1h-2z"/><path d="M362 202c-4.432 0-8 3.568-8 8v16h4v-8h8v8h4v-16c0-4.432-3.568-8-8-8zm0 4c2.216 0 4 1.784 4 4v4h-8v-4c0-2.216 1.784-4 4-4z"/><path d="M382 202v4h10l-10 16v4h16v-4h-10l10-16v-4h-4z"/><path d="M372 214h10v4h-10z"/><path d="M564 121c-8.864 0-16 7.136-16 16v32h8v-16h16v16h8v-32c0-8.864-7.136-16-16-16zm0 8c4.432 0 8 3.568 8 8v8h-16v-8c0-4.432 3.568-8 8-8z"/><path d="M604 121v8h20l-20 32v8h32v-8h-20l20-32v-8h-8z"/><path d="M584 145h20v8h-20z"/><path d="M174 251c-2.216 0-4 1.784-4 4v8h2v-4h4v4h2v-8c0-2.216-1.784-4-4-4zm0 2c1.108 0 2 .892 2 2v2h-4v-2c0-1.108.892-2 2-2z"/><path d="M184 251v2h5l-5 8v2h8v-2h-5l5-8v-2h-2z"/><path d="M179 257h5v2h-5z"/></g></g></svg>