<svg version="1.0" viewBox="0 0 24 24" xmlns="http://www.w3.org/2000/svg"><g transform="translate(-56 -260)"><path d="M60.5 260a2.495 2.495 0 0 0-2.5 2.5v19c0 1.385 1.115 2.5 2.5 2.5h15c1.385 0 2.5-1.115 2.5-2.5v-14l-7.5-7.5z" fill="#6f6f6f"/><path d="M77 268v13c0 1.108-.892 2-2 2H61c-1.108 0-2-.892-2-2v-18c0-1.108.892-2 2-2h9" fill="#ececec"/><path d="M77 269h-6c-1.108 0-2-.892-2-2v-6h1l7 7z" fill="#6f6f6f" fill-opacity=".502"/><path d="M77 268h-5c-1.108 0-2-.892-2-2v-5" fill="#fafafa"/><rect x="61" y="280" width="9" height="1" ry=".456" fill="#474341" fill-opacity=".69"/><rect x="61" y="277" width="14" height="1" ry=".456" fill="#474341" fill-opacity=".69"/><rect x="61" y="274" width="14" height="1" ry=".456" fill="#474341" fill-opacity=".69"/><rect x="61" y="271" width="14" height="1" ry=".456" fill="#474341" fill-opacity=".69"/><rect x="66" y="272" width="13" height="12" ry="2.5" fill="#671d00"/><rect x="67" y="273" width="11" height="10.002" ry="2" fill="#cf3b00"/><path d="M72.5 275.5a4.47 4.5 0 0 0-4 2.505 4.47 4.5 0 0 0 4 2.495 4.47 4.5 0 0 0 4-2.505 4.47 4.5 0 0 0-4-2.495zm0 .5a2 2 0 0 1 2 2 2 2 0 0 1-2 2 2 2 0 0 1-2-2 2 2 0 0 1 2-2zm0 1a1 1 0 0 0-1 1 1 1 0 0 0 1 1 1 1 0 0 0 1-1 1 1 0 0 0-1-1z" fill="#fff"/></g></svg>