<svg version="1.0" viewBox="0 0 24 24" xmlns="http://www.w3.org/2000/svg"><g transform="translate(-56 -260)"><rect x="58" y="261" width="20" height="23" ry="1.5" fill="#560c00"/><rect x="59" y="262" width="18" height="21" ry="1" fill="#dedede"/><rect x="58" y="260" width="18" height="21" ry="1.5" fill="#560c00"/><rect x="59" y="261" width="16" height="19" ry="1" fill="#f15d22"/><path d="M60 261c-.554 0-1 .446-1 1v20c0 .554.446 1 1 1h1v-22z" fill="#350700"/><path d="M64 268c-1.108 0-2 .892-2 2v4h1v-2h2v2h1v-4c0-1.108-.892-2-2-2zm0 1c.554 0 1 .446 1 1v1h-2v-1c0-.554.446-1 1-1z" fill-opacity=".196"/><path d="M70 268v1h2.4l-2.4 4v1h4v-1h-2.4l2.4-4v-1h-1z" fill-opacity=".196"/><path fill-opacity=".196" d="M67 271h2v1h-2z"/><path d="M64 267c-1.108 0-2 .892-2 2v4h1v-2h2v2h1v-4c0-1.108-.892-2-2-2zm0 1c.554 0 1 .446 1 1v1h-2v-1c0-.554.446-1 1-1z" fill="#ededed"/><path d="M70 267v1h2.4l-2.4 4v1h4v-1h-2.4l2.4-4v-1h-1z" fill="#ededed"/><path fill="#ededed" d="M67 270h2v1h-2z"/></g></svg>