<svg version="1.0" viewBox="0 0 24 24" xmlns="http://www.w3.org/2000/svg"><path d="M4.5 0A2.495 2.495 0 0 0 2 2.5v19C2 22.885 3.115 24 4.5 24h15c1.385 0 2.5-1.115 2.5-2.5v-14L14.5 0z" fill="#6f6f6f"/><path d="M21 8v13c0 1.108-.892 2-2 2H5c-1.108 0-2-.892-2-2V3c0-1.108.892-2 2-2h9" fill="#ececec"/><path d="M21 9h-6c-1.108 0-2-.892-2-2V1h1l7 7z" fill="#6f6f6f" fill-opacity=".502"/><path d="M21 8h-5c-1.108 0-2-.892-2-2V1" fill="#fafafa"/><rect x="-36" y="16" width="8" height="1" ry=".5" fill="#474341" fill-opacity=".69"/><rect x="-36" y="18" width="8" height="1" ry=".5" fill="#474341" fill-opacity=".69"/><rect x="-36" y="20" width="5" height="1" ry=".456" fill="#474341" fill-opacity=".69"/><rect x="5" y="20" width="9" height="1" ry=".456" fill="#474341" fill-opacity=".69"/><rect x="5" y="17" width="14" height="1" ry=".456" fill="#474341" fill-opacity=".69"/><rect x="5" y="14" width="14" height="1" ry=".456" fill="#474341" fill-opacity=".69"/><rect x="5" y="11" width="14" height="1" ry=".456" fill="#474341" fill-opacity=".69"/><rect x="53" y="17" width="9" height="1" ry=".456" fill="#474341" fill-opacity=".69"/><rect x="53" y="14" width="14" height="1" ry=".456" fill="#474341" fill-opacity=".69"/><rect x="53" y="11" width="14" height="1" ry=".456" fill="#474341" fill-opacity=".69"/><rect x="53" y="8" width="14" height="1" ry=".456" fill="#474341" fill-opacity=".69"/><g transform="translate(-56 -260)" fill="#474341" fill-opacity=".69"><rect x="243" y="-334.5" width="9" height="1" ry=".456"/><rect x="243" y="-337.5" width="14" height="1" ry=".456"/><rect x="243" y="-340.5" width="14" height="1" ry=".456"/><rect x="243" y="-343.5" width="14" height="1" ry=".456"/><rect x="243" y="-334.5" width="9" height="1" ry=".456"/><rect x="243" y="-337.5" width="14" height="1" ry=".456"/><rect x="243" y="-340.5" width="14" height="1" ry=".456"/><rect x="243" y="-343.5" width="14" height="1" ry=".456"/><rect x="243" y="-334.5" width="9" height="1" ry=".456"/><rect x="243" y="-337.5" width="14" height="1" ry=".456"/><rect x="243" y="-340.5" width="14" height="1" ry=".456"/><rect x="243" y="-343.5" width="14" height="1" ry=".456"/><rect x="243" y="-334.5" width="7.5" height="1" ry=".456"/><rect x="243" y="-337.5" width="12" height="1" ry=".423"/><rect x="243" y="-340.5" width="12" height="1" ry=".375"/><rect x="243" y="-343.5" width="12" height="1" ry=".456"/></g><rect x="58" y="9" width="15" height="15" ry="3.5" fill="#671d00"/><rect x="59" y="10" width="13" height="12" ry="3" fill="#cf3b00"/><rect x="122" y="4" width="20" height="20" ry="3.5" fill="#671d00"/><rect x="123" y="5" width="18" height="16" ry="3" fill="#cf3b00"/><rect x="198" width="26" height="24" ry="5.5" fill="#671d00"/><rect x="199" y="1" width="24" height="20" ry="5" fill="#cf3b00"/><rect x="316" y="-24" width="52" height="47" ry="10.5" fill="#671d00"/><rect x="317" y="-23" width="50" height="42" ry="10" fill="#cf3b00"/><rect x="527" y="-71.987" width="104" height="91.987" ry="20.5" fill="#671d00"/><rect x="528" y="-71" width="102" height="86" ry="20" fill="#cf3b00"/><rect x="10" y="12" width="13" height="12" ry="2.5" fill="#671d00"/><rect x="11" y="13" width="11" height="10.002" ry="2" fill="#cf3b00"/><rect x="-35" y="14" width="11" height="10" ry="1.5" fill="#671d00"/><rect x="-34" y="15" width="9" height="8" ry="1" fill="#cf3b00"/><path d="M16.5 15.501a4.47 4.5 0 0 0-4 2.505 4.47 4.5 0 0 0 4 2.495 4.47 4.5 0 0 0 4-2.505 4.47 4.5 0 0 0-4-2.495zm0 .5a2 2 0 0 1 2 2 2 2 0 0 1-2 2 2 2 0 0 1-2-2 2 2 0 0 1 2-2zm0 1a1 1 0 0 0-1 1 1 1 0 0 0 1 1 1 1 0 0 0 1-1 1 1 0 0 0-1-1z" fill="#fff"/></svg>