<svg version="1.0" viewBox="0 0 24 24" xmlns="http://www.w3.org/2000/svg"><path d="M4.5 0A2.495 2.495 0 0 0 2 2.5v19C2 22.885 3.115 24 4.5 24h15c1.385 0 2.5-1.115 2.5-2.5v-14L14.5 0z" fill="#7f6728"/><path d="M21 8v13c0 1.108-.892 2-2 2H5c-1.108 0-2-.892-2-2V3c0-1.108.892-2 2-2h9" fill="#ffce51"/><path d="M14.868 9.65a.454.454 0 0 0-.644 0l-1.092 1.092 2.121 2.122 1.093-1.093a.454.454 0 0 0 0-.643zm-2.443 1.8-6.75 6.749a.454.454 0 0 0 0 .643l1.447 1.446a.534.534 0 0 0 .707 0l6.717-6.717z" fill="#cda641"/><path d="m5 21 .354-2.475.707-.707 2.121 2.121-.707.707z" fill="#cda641"/><path d="M14.868 8.65a.454.454 0 0 0-.644 0l-1.092 1.092 2.121 2.122 1.093-1.093a.454.454 0 0 0 0-.643zm-2.443 1.8-6.75 6.749a.454.454 0 0 0 0 .643l1.447 1.446a.534.534 0 0 0 .707 0l6.717-6.717z" fill="#fff"/><path d="m5 20 .354-2.475.707-.707 2.121 2.121-.707.707z" fill="#fff"/></svg>