<svg version="1.0" viewBox="0 0 24 24" xmlns="http://www.w3.org/2000/svg"><g transform="translate(-56 -260)"><rect x="57" y="261" width="22" height="22" ry="2" fill="#dedede"/><rect x="58" y="262" width="9" height="9" rx="1" ry="0" fill="#aaa"/><rect x="69" y="262" width="9" height="9" rx="1" fill="#aaa"/><rect x="69" y="273" width="9" height="9" rx="1" fill="#73c48f"/><rect x="58" y="273" width="9" height="9" rx="1" fill="#aaa"/><path d="M63 265v2h2v1h-2v2h-1v-2h-2v-1h2v-2z" fill-opacity=".196"/><path d="m76.5 265.5-2 2 2 2-1 1-2-2-2 2-1-1 2-2-2-2 1-1 2 2 2-2z" fill-opacity=".196"/><path d="M62 275h1v2h-1zm0 5h1v2h-1zm-3-2h7v1h-7z" fill-opacity=".196"/><path d="M71 276h5v2h-5zm0 3h5v2h-5z" fill-opacity=".196"/><path d="M63 264v2h2v1h-2v2h-1v-2h-2v-1h2v-2z" fill="#fff"/><path d="m76.5 264.5-2 2 2 2-1 1-2-2-2 2-1-1 2-2-2-2 1-1 2 2 2-2z" fill="#fff"/><path d="M62 274h1v2h-1zm0 5h1v2h-1zm-3-2h7v1h-7z" fill="#fff"/><path d="M71 275h5v2h-5zm0 3h5v2h-5z" fill="#fbfbfb"/><path d="M59.001 260.998c-1.108 0-2 .892-2 2v18c0 1.108.892 2 2 2h18c1.108 0 2-.892 2-2v-18c0-1.108-.892-2-2-2zm0 1h18c.554 0 1 .446 1 1v18c0 .554-.446 1-1 1h-18c-.554 0-1-.446-1-1v-18c0-.554.446-1 1-1z" fill-opacity=".502"/></g></svg>