<svg version="1.0" viewBox="0 0 24 24" xmlns="http://www.w3.org/2000/svg"><g transform="translate(-56 340)"><rect x="56" y="-338" width="24" height="20" ry="2" fill="#6f6f6f"/><rect x="57" y="-337" width="22" height="18" ry="1.5" fill="#dedede"/><path fill="#45454f" d="M58-336h20v15H58z"/><path fill="#48b9c7" d="M58-336h20v15H58z"/><path d="M59-334v4h1v-3h4v-1h-4zm13 0v1h4v3h1v-4h-1zm-13 9v4h5v-1h-4v-3zm17 0v3h-4v1h5v-4z" fill-opacity=".196"/><path d="M59-335v4h1v-3h4v-1h-4zm13 0v1h4v3h1v-4h-1zm-13 9v4h5v-1h-4v-3zm17 0v3h-4v1h5v-4z" fill="#fff" fill-opacity=".989"/></g></svg>