<svg version="1.0" viewBox="0 0 24 24" xmlns="http://www.w3.org/2000/svg"><g transform="translate(-56 -260)"><rect x="57" y="261" width="22" height="22" ry="8" fill="#f6f6f6"/><rect x="57.5" y="261.5" width="21" height="21" ry="7.5" fill="none" stroke="#000" stroke-linecap="round" stroke-opacity=".502"/><rect x="67" y="263" width="2" height="3" ry="1" fill="#333"/><rect transform="rotate(-90)" x="-273" y="59" width="2" height="3" ry="1" fill="#333"/><rect transform="scale(-1)" x="-69" y="-281" width="2" height="3" ry="1" fill="#333"/><rect transform="rotate(90)" x="271" y="-77" width="2" height="3" ry="1" fill="#333"/><path d="M74.191 268.7a.5.5 0 0 0-.66-.253l-5.938 2.643a1 1 0 0 0-.507 1.32 1 1 0 0 0 1.32.507 1 1 0 0 0 .248-.159l5.284-3.398a.5.5 0 0 0 .253-.66z" fill="#2b2928"/><path d="M70.49 276.36a.5.5 0 0 0 .253-.66l-1.83-4.111a1 1 0 0 0-1.32-.507 1 1 0 0 0-.507 1.32 1 1 0 0 0 .253.343l2.49 3.362a.5.5 0 0 0 .661.253z" fill="#474341"/></g></svg>