<svg version="1.0" viewBox="0 0 24 24" xmlns="http://www.w3.org/2000/svg"><g transform="translate(-56 -260)"><rect x="57" y="261" width="22" height="22" ry="2" fill="#bebebe"/><path d="M68 261v22h9c1.108 0 2-.892 2-2v-18c0-1.108-.892-2-2-2z" fill="#dedede"/><rect x="57.5" y="261.5" width="21" height="21" ry="1.5" fill="none" stroke="#0d0d0d" stroke-linecap="round" stroke-opacity=".5"/><path d="M68 262v20" fill="none" stroke="#000" stroke-opacity=".5"/><path d="M62.5 271c-1 0-1.5.5-1.5 2s.5 2 1.5 2c1.5 0 1.5-.5 1.5-2s-.5-2-1.5-2zm0-1c1.834 0 2.5 1 2.5 3 0 1.5-.5 3-2.5 3s-2.5-1.5-2.5-3c0-2 1-3 2.5-3zm.5-2h1v1h-1zm-2 0h1v1h-1z" fill="#393634" fill-opacity=".8"/><path d="M76.5 274h-5c0 1.5 1 2 2 2 .9 0 1.731-.203 2.5-.5v1c-.815.357-1.697.5-2.5.5-2 0-3-1.5-3-3.5s1-3.5 3-3.5 3 1 3 4zm-1-1c0-1.5-.5-2-2-2s-1.688.942-2 2zm-2.5-6h1l1.5 2h-1l-1-1-1 1h-1z" fill="#393634" fill-opacity=".8"/></g></svg>