<svg version="1.0" viewBox="0 0 24 24" xmlns="http://www.w3.org/2000/svg"><path d="M1.997 3.612v17.891c0 .64.246 1.217.639 1.658l9.361-11.158z" fill="#782e11"/><path d="M4.497.002a2.495 2.495 0 0 0-2.5 2.5v1.11l10 8.39h10v-9.5c0-1.385-1.115-2.5-2.5-2.5z" fill="#7f6728"/><path d="m11.997 12.002-9.36 11.156a2.48 2.48 0 0 0 1.86.844h15c1.385 0 2.5-1.115 2.5-2.5v-9.5z" fill="#353e70"/><path d="M5 1c-1.108 0-2 .892-2 2v1.447L12 12h9V3c0-1.108-.892-2-2-2z" fill="#ffce51"/><path d="M12 12 3.424 22.221c.365.471.931.78 1.576.78h14c1.108 0 2-.893 2-2v-9z" fill="#6a7ce0"/><path d="M3 4.45v16.553c0 .463.164.882.426 1.22L12 12.004z" fill="#f15d22"/><path d="M12 6a6 6 0 0 0-5.988 5.75H6v5.75c0 .277.223.5.5.5H12a6 6 0 0 0 6-6 6 6 0 0 0-6-6zm0 3a3 3 0 0 1 3 3 3 3 0 0 1-3 3 3 3 0 0 1-3-3 3 3 0 0 1 3-3z" fill-opacity=".502"/></svg>