<svg version="1.0" viewBox="0 0 24 24" xmlns="http://www.w3.org/2000/svg"><g transform="translate(-56 40)"><circle cx="68" cy="-28" r="12" fill="#cdcdcd"/><path d="M68-40a12 12 0 0 0-12 12 12 12 0 0 0 12 12 12 12 0 0 0 12-12 12 12 0 0 0-12-12zm0 1a11 11 0 0 1 11 11 11 11 0 0 1-11 11 11 11 0 0 1-11-11 11 11 0 0 1 11-11z" fill-opacity=".5"/><circle cx="68" cy="-28" r="4.5" fill="none" stroke="#000" stroke-linecap="square" stroke-opacity=".5"/><circle cx="68" cy="-28" r="4" fill-opacity=".2"/><circle cx="68" cy="-28" r="2" fill-opacity=".8"/><rect x="67" y="-29" width="13" height="13" ry="6.5" fill="#f15d22"/><path d="M73.5-29c-3.601 0-6.5 2.899-6.5 6.5s2.899 6.5 6.5 6.5 6.5-2.899 6.5-6.5-2.899-6.5-6.5-6.5zm0 1a5.5 5.5 0 0 1 5.5 5.5 5.5 5.5 0 0 1-5.5 5.5 5.5 5.5 0 0 1-5.5-5.5 5.5 5.5 0 0 1 5.5-5.5z" fill-opacity=".5"/><path d="M73.405-19.985a1.041 1.041 0 0 1-1.053-1.03c0-.532.338-.906.918-1.024.581-.119 1.182-.397 1.517-.847.128.423.19.87.19 1.326 0 .866-.702 1.575-1.572 1.575m.587-6.016s.243.87.243 1.576c0 .676-.443 1.224-1.119 1.224-.68 0-1.191-.548-1.191-1.224l.009-.122a4.52 4.52 0 0 0-1.06 2.921 2.625 2.625 0 0 0 2.626 2.625 2.625 2.625 0 0 0 2.625-2.625c0-1.772-.85-3.347-2.133-4.375z" fill="#fff"/></g></svg>