<svg version="1.0" viewBox="0 0 24 24" xmlns="http://www.w3.org/2000/svg"><g transform="translate(-792 640)"><path d="M794-636.39v17.891c0 .64.246 1.217.639 1.658L804-627.999z" fill="#7f3c1f"/><path d="M796.5-640a2.495 2.495 0 0 0-2.5 2.5v1.11l10 8.39h10v-9.5c0-1.385-1.115-2.5-2.5-2.5z" fill="#245c63"/><path d="m804-628-9.36 11.156a2.48 2.48 0 0 0 1.86.844h15c1.385 0 2.5-1.115 2.5-2.5v-9.5z" fill="#396247"/><path d="M797-639c-1.108 0-2 .892-2 2v1.447l9 7.553h9v-9c0-1.108-.892-2-2-2z" fill="#48b9c7"/><path d="m804-628-8.576 10.221c.365.471.931.78 1.576.78h14c1.108 0 2-.893 2-2v-9z" fill="#73c48f"/><path d="M795-635.55v16.553c0 .463.164.882.426 1.22l8.574-10.22z" fill="#ff793e"/><path d="M804-634a6 6 0 0 0-5.988 5.75H798v5.75c0 .277.223.5.5.5h5.5a6 6 0 0 0 6-6 6 6 0 0 0-6-6zm0 3a3 3 0 0 1 3 3 3 3 0 0 1-3 3 3 3 0 0 1-3-3 3 3 0 0 1 3-3z" fill-opacity=".502"/><circle cx="804" cy="-628" r="3" fill="#fff"/></g></svg>