<svg version="1.0" viewBox="0 0 24 24" xmlns="http://www.w3.org/2000/svg"><g transform="translate(-792 40)"><rect x="794" y="-40" width="20" height="24" ry="2.5" fill="#552d5d"/><rect x="795" y="-39" width="18" height="22" ry="2" fill="#aa5abb"/><path d="m802.25-35-.154 1.844a5.5 5.5 0 0 0-1.608.93l-1.676-.79-1.75 3.032 1.522 1.056a5.5 5.5 0 0 0-.084.928 5.5 5.5 0 0 0 .08.932l-1.518 1.052 1.75 3.032 1.672-.788a5.5 5.5 0 0 0 1.612.924L802.25-21h3.5l.154-1.844a5.5 5.5 0 0 0 1.608-.93l1.675.79 1.75-3.032-1.521-1.056A5.5 5.5 0 0 0 809.5-28a5.5 5.5 0 0 0-.08-.932l1.518-1.052-1.75-3.032-1.672.788a5.5 5.5 0 0 0-1.612-.924L805.75-35zm1.75 5a2 2 0 0 1 2 2 2 2 0 0 1-2 2 2 2 0 0 1-2-2 2 2 0 0 1 2-2z" fill="#fafafb"/></g></svg>