<svg version="1.0" viewBox="0 0 24 24" xmlns="http://www.w3.org/2000/svg"><g fill="#306ab8"><path d="M7 12.125h2.25v-1.5l-2.015.007c-.162-.002-.24-.04-.232-.238L7 8.75h2.625v-1.5c-1.4.1-2.721.275-4.125.375V15.5c1.374.163 2.749.587 4.125.75v-1.875C8.794 14.303 7.812 14.071 7 14zm6.024 9.375c-3.639-.676-7.26-1.387-10.899-2.062V4.063C5.75 3.389 9.353 2.677 13 2v19.5"/><path d="M18.636 10.67c.169.126.337.246.5.375.118.094.204.06.296-.044.259-.294.699-.584.962-.873.086-.095.108-.205.108-.331-.003-.779-.002-1.558.002-2.337.001-.24-.145-.462-.382-.46a624.1 624.1 0 0 1-2.37 0c-.163-.001-.353.166-.46.288a15.381 15.381 0 0 0-2.145 3.139c-.092.18-.057.29.08.335.663-.668 1.325-1.29 1.933-1.965.328-.364.795-.512 1.271-.485.715.04.697.011.723.766.02.586.034 1.149-.503 1.527-.005.004-.004.018-.015.065zm.559 4.017c-.337 0-.85.003-1.162 0-.489-.006-1.204-.498-1.24-.525l-.376.51c-.104.128-.067.228.043.332.264.248.526.499.78.758.117.119.258.237.418.237.714 0 1.75.007 2.464 0 .334-.003.379-.154.38-.496 0-.677-.012-1.354.005-2.031.008-.287-.08-.501-.284-.68-.898-.794-2.143-1.528-3.188-2.105-.172-.094-.3-.106-.4.166.066.054.157.115.233.192.656.668 1.44 1.34 2.092 2.01.08.084.234.182.235.32v1.312zm-5.197 1.262c.516.055.757-.334 1.023-.68.685-.89 1.345-1.799 1.816-2.833-.048-.094-.1-.165-.177-.184-.435.441-.864.872-1.288 1.306-.317.326-.63.655-.94.99-.116.125-.24.182-.424.133v-2.845c.308.177.593.343.882.502.202.112.209.106.363-.114-.368-.385-.736-.771-1.106-1.156-.083-.086-.159-.165-.158-.305.005-.797.002-1.594.002-2.428.226.006.446-.093.641.08.161.143.31.3.476.461.181-.178.291-.39.425-.583.07-.1.014-.172-.055-.24-.293-.285-.586-.57-.878-.857-.17-.168-.397-.047-.598-.127V6l6.493-.006c.706 0 1.007.32 1.007 1.052v9.071c0 .844-.283.884-1.094.883h-6.406"/></g></svg>