<svg version="1.0" viewBox="0 0 24 24" xmlns="http://www.w3.org/2000/svg"><g transform="translate(-56 -260)"><rect x="56" y="260" width="24" height="24" ry="12" fill="#1f285a"/><rect x="57" y="261" width="22" height="22" ry="11" fill="#3f51b5"/><path d="M68 261c-1.5 0-2.926.299-4.227.838A8 12 0 0 0 62.05 264h-1.6a10.986 10.986 0 0 0-1.674 2h2.307a8 12 0 0 0-1.053 5h-2.98c-.03.33-.051.662-.051 1s.021.67.05 1h2.983a8 12 0 0 0 1.047 5h-2.303a10.99 10.99 0 0 0 1.674 2h1.598a8 12 0 0 0 1.715 2.158A11.01 11.01 0 0 0 68 283c1.5 0 2.926-.299 4.226-.838A8 12 0 0 0 73.951 280h1.598a10.986 10.986 0 0 0 1.674-2h-2.307a8 12 0 0 0 1.053-5h2.98c.03-.33.051-.662.051-1s-.021-.67-.05-1h-2.983a8 12 0 0 0-1.047-5h2.303a10.987 10.987 0 0 0-1.674-2H73.95a8 12 0 0 0-1.715-2.158A11.01 11.01 0 0 0 68 261zm-1 1.14V264h-2.59a6 10 0 0 1 2.59-1.86zm2 .01a6 10 0 0 1 2.588 1.85H69zM63.209 266H67v5h-4.97a6 10 0 0 1 1.179-5zM69 266h3.793a6 10 0 0 1 1.17 5H69zm-6.963 7H67v5h-3.793a6 10 0 0 1-1.17-5zM69 273h4.97a6 10 0 0 1-1.179 5H69zm-4.588 7H67v1.85a6 10 0 0 1-2.588-1.85zM69 280h2.59a6 10 0 0 1-2.59 1.86z" fill="#94a6ff"/></g></svg>