<svg version="1.0" viewBox="0 0 24 24" xmlns="http://www.w3.org/2000/svg"><g transform="translate(-56 -260)"><rect x="103" y="255" width="26" height="26" ry="2.5" fill="#6f4400"/><rect x="104" y="256" width="24" height="23" ry="2" fill="#de8800"/><path d="M104 265v2a12 12 0 0 1 12 12h2a14 14 0 0 0-14-14zm0 4v2a8 8 0 0 1 8 8h2a10 10 0 0 0-10-10zm0 4v2a4 4 0 0 1 4 4h2a6 6 0 0 0-6-6zm0 4c0 1.108.892 2 2 2a2 2 0 0 0-2-2z" fill="#f5f5f5"/><rect x="160" y="240" width="40" height="39" ry="3.5" fill="#6f4400"/><rect x="161" y="241" width="38" height="35" ry="3" fill="#de8800"/><path d="M161 255v3a18 18 0 0 1 18 18h3a21 21 0 0 0-21-21zm0 6v3a12 12 0 0 1 12 12h3a15 15 0 0 0-15-15zm0 6v3a6 6 0 0 1 6 6h3a9 9 0 0 0-9-9zm0 6c0 1.662 1.338 3 3 3a3 3 0 0 0-3-3z" fill="#f5f5f5"/><rect x="230" y="226" width="52" height="52" ry="4.5" fill="#6f4400"/><rect x="231" y="227" width="50" height="47" ry="4" fill="#de8800"/><path d="M231 246v4a24 24 0 0 1 24 24h4a28 28 0 0 0-28-28zm0 8v4a16 16 0 0 1 16 16h4a20 20 0 0 0-20-20zm0 8v4a8 8 0 0 1 8 8h4a12 12 0 0 0-12-12zm0 8c0 2.216 1.784 4 4 4a4 4 0 0 0-4-4z" fill="#f5f5f5"/><rect x="324" y="168" width="104" height="104" ry="8.5" fill="#6f4400"/><rect x="325" y="169" width="102" height="99" ry="8" fill="#de8800"/><path d="M325 212v8a48 48 0 0 1 48 48h8a56 56 0 0 0-56-56zm0 16v8a32 32 0 0 1 32 32h8a40 40 0 0 0-40-40zm0 16v8a16 16 0 0 1 16 16h8a24 24 0 0 0-24-24zm0 16c0 4.432 3.568 8 8 8a8 8 0 0 0-8-8z" fill="#f5f5f5"/><rect x="488" y="52" width="208" height="208" ry="16.5" fill="#6f4400"/><rect x="489" y="53" width="206" height="202" ry="16" fill="#de8800"/><path d="M489 143v16a96 96 0 0 1 96 96h16a112 112 0 0 0-112-112zm0 32v16a64 64 0 0 1 64 64h16a80 80 0 0 0-80-80zm0 32v16a32 32 0 0 1 32 32h16a48 48 0 0 0-48-48zm0 32c0 8.864 7.136 16 16 16a16 16 0 0 0-16-16z" fill="#f5f5f5"/><rect x="57" y="261" width="22" height="22" ry="2.5" fill="#6f4400"/><rect x="58" y="262" width="20" height="20" ry="2" fill="#de8800"/><path d="M58 268v2a12 12 0 0 1 12 12h2a14 14 0 0 0-14-14zm0 4v2a8 8 0 0 1 8 8h2a10 10 0 0 0-10-10zm0 4v2a4 4 0 0 1 4 4h2a6 6 0 0 0-6-6zm0 4c0 1.108.892 2 2 2a2 2 0 0 0-2-2z" fill="#f5f5f5"/><rect x="17" y="269" width="14" height="14" ry="1.5" fill="#6f4400"/><rect x="18" y="270" width="12" height="12" ry="1" fill="#de8800"/><path d="M18 275v1a6 6 0 0 1 6 6h1a7 7 0 0 0-7-7zm0 2v1a4 4 0 0 1 4 4h1a5 5 0 0 0-5-5zm0 2v1a2 2 0 0 1 2 2h1a3 3 0 0 0-3-3zm0 2c0 .554.446 1 1 1a1 1 0 0 0-1-1z" fill="#f5f5f5"/></g></svg>