<svg version="1.0" viewBox="0 0 24 24" xmlns="http://www.w3.org/2000/svg"><g transform="translate(-56 -260)"><rect x="56" y="262" width="24" height="20" ry="2" fill="#782e11"/><rect x="57" y="263" width="22" height="18" ry="1.5" fill="#f15d22"/><path d="M58.5 263c-.831 0-1.5.669-1.5 1.5v2.5h22v-2.5c0-.831-.669-1.5-1.5-1.5z"/><path d="m60 263-2 4h2l2-4z" fill="#f7f7f7"/><path d="m65 263-2 4h2l2-4z" fill="#f7f7f7"/><path d="m70 263-2 4h2l2-4z" fill="#f7f7f7"/><path d="m75 263-2 4h2l2-4z" fill="#f7f7f7"/><path d="M65.999 267.96a1 1 0 0 0-.996.941H65v.026l-.002.033c0 .023 0 .047.002.07v5a1 1 0 0 0 1.422.905l.002.002.025-.014.004-.002a.942.942 0 0 0 .088-.049l4.912-2.45.01-.005v-.002a1 1 0 0 0 .033-1.752l-.018-.01s-.003 0-.004-.002l-4.991-2.566h-.002a1.01 1.01 0 0 0-.483-.125z" fill="#fff"/><rect x="57" y="276" width="22" height="5" ry="1.5" fill="#dedede"/><rect x="58" y="278" width="14" height="1" ry=".5" fill="#cf3b00"/><rect x="70" y="277" width="3" height="3" ry="1.5" fill="#822500"/><circle cx="71.5" cy="278.5" r=".5" fill="#fff"/></g></svg>