<svg version="1.0" viewBox="0 0 24 24" xmlns="http://www.w3.org/2000/svg"><g transform="translate(-56 -260)"><rect x="56" y="262" width="24" height="20" ry="2" fill="#245c63"/><rect x="57" y="263" width="22" height="18" ry="1.5" fill="#48b9c7"/><rect x="59" y="265" width="18" height="14" ry="1" fill="#f6f6f6"/><path d="M60 266v8l3-3 3 3 5-5 5 5v-8z" fill="#1c8d9b" opacity=".5"/><path d="m68 270 8 8H60z" fill="#1c8d9b"/><rect x="67" y="272" width="13" height="12" ry="2.5" fill="#671d00"/><rect x="68" y="273" width="11" height="10.002" ry="2" fill="#cf3b00"/><path d="M73.5 275.5a4.47 4.5 0 0 0-4 2.505 4.47 4.5 0 0 0 4 2.495 4.47 4.5 0 0 0 4-2.505 4.47 4.5 0 0 0-4-2.495zm0 .5a2 2 0 0 1 2 2 2 2 0 0 1-2 2 2 2 0 0 1-2-2 2 2 0 0 1 2-2zm0 1a1 1 0 0 0-1 1 1 1 0 0 0 1 1 1 1 0 0 0 1-1 1 1 0 0 0-1-1z" fill="#fff"/></g></svg>