<svg version="1.0" viewBox="0 0 24 24" xmlns="http://www.w3.org/2000/svg"><path d="m250 241.92-1.08.088c-9.566.77-17.633 7.618-19.92 9.734v-1.738l-1.143.844v2l.194.584s5.341 16.105 20.855 17.568l1.093.103v-24.172z" clip-rule="evenodd" color="#000" fill="#626b26" fill-rule="evenodd" style="font-feature-settings:normal;font-variant-alternates:normal;font-variant-caps:normal;font-variant-east-asian:normal;font-variant-ligatures:normal;font-variant-numeric:normal;font-variant-position:normal;font-variation-settings:normal;inline-size:0;isolation:auto;mix-blend-mode:normal;shape-margin:0;shape-padding:0;text-decoration-color:#000;text-decoration-line:none;text-decoration-style:solid;text-indent:0;text-orientation:mixed;text-transform:none;white-space:normal" transform="translate(-56 -260)"/><path d="m250 239.92-1.08.088c-11.316.91-20.63 10.402-20.63 10.402l-.433.437.194.584s5.341 16.105 20.855 17.568l1.093.104v-4.983l-.875-.109c-9.545-1.199-13.038-10.872-13.469-12.164.757-1.01 4.993-6.205 13.42-6.846l.924-.07z" clip-rule="evenodd" color="#000" fill="#626b26" fill-rule="evenodd" style="font-feature-settings:normal;font-variant-alternates:normal;font-variant-caps:normal;font-variant-east-asian:normal;font-variant-ligatures:normal;font-variant-numeric:normal;font-variant-position:normal;font-variation-settings:normal;inline-size:0;isolation:auto;mix-blend-mode:normal;shape-margin:0;shape-padding:0;text-decoration-color:#000;text-decoration-line:none;text-decoration-style:solid;text-indent:0;text-orientation:mixed;text-transform:none;white-space:normal" transform="translate(-56 -260)"/><path d="m169.96 243.11-1.441.117c-11.49.925-21.418 8.416-21.418 8.416v2.666l.26.78s5.405 16.31 21.14 17.795l1.46.136v-24.229z" clip-rule="evenodd" color="#000" fill="#626b26" fill-rule="evenodd" style="font-feature-settings:normal;font-variant-alternates:normal;font-variant-caps:normal;font-variant-east-asian:normal;font-variant-ligatures:normal;font-variant-numeric:normal;font-variant-position:normal;font-variation-settings:normal;inline-size:0;isolation:auto;mix-blend-mode:normal;shape-margin:0;shape-padding:0;text-decoration-color:#000;text-decoration-line:none;text-decoration-style:solid;text-indent:0;text-orientation:mixed;text-transform:none;white-space:normal" transform="matrix(.75 0 0 .75 -7.472 -188.917)"/><path d="m169.96 240.44-1.441.117c-11.49.925-20.838 10.5-20.838 10.5l-.58.582.26.78s5.405 16.31 21.14 17.795l1.46.136v-24.229z" clip-rule="evenodd" color="#000" fill="#626b26" fill-rule="evenodd" style="font-feature-settings:normal;font-variant-alternates:normal;font-variant-caps:normal;font-variant-east-asian:normal;font-variant-ligatures:normal;font-variant-numeric:normal;font-variant-position:normal;font-variation-settings:normal;inline-size:0;isolation:auto;mix-blend-mode:normal;shape-margin:0;shape-padding:0;text-decoration-color:#000;text-decoration-line:none;text-decoration-style:solid;text-indent:0;text-orientation:mixed;text-transform:none;white-space:normal" transform="matrix(.75 0 0 .75 -7.472 -188.917)"/><path d="m114 261.92-1.08.087c-5.918.476-10.63 5.348-10.63 5.348l-.434.436.195.585s2.766 8.36 10.855 9.123l1.093.104V265.43z" clip-rule="evenodd" color="#000" fill="#626b26" fill-rule="evenodd" style="font-feature-settings:normal;font-variant-alternates:normal;font-variant-caps:normal;font-variant-east-asian:normal;font-variant-ligatures:normal;font-variant-numeric:normal;font-variant-position:normal;font-variation-settings:normal;inline-size:0;isolation:auto;mix-blend-mode:normal;shape-margin:0;shape-padding:0;text-decoration-color:#000;text-decoration-line:none;text-decoration-style:solid;text-indent:0;text-orientation:mixed;text-transform:none;white-space:normal" transform="translate(-56 -260)"/><path d="m114 262.92-1.08.087c-5.918.476-11.063 4.784-11.063 4.784v1l.194.585s2.767 8.36 10.855 9.123l1.094.104V266.43z" clip-rule="evenodd" color="#000" fill="#626b26" fill-rule="evenodd" style="font-feature-settings:normal;font-variant-alternates:normal;font-variant-caps:normal;font-variant-east-asian:normal;font-variant-ligatures:normal;font-variant-numeric:normal;font-variant-position:normal;font-variation-settings:normal;inline-size:0;isolation:auto;mix-blend-mode:normal;shape-margin:0;shape-padding:0;text-decoration-color:#000;text-decoration-line:none;text-decoration-style:solid;text-indent:0;text-orientation:mixed;text-transform:none;white-space:normal" transform="translate(-56 -260)"/><path d="m24 271.42-1.08.088c-3.22.259-5.629 2.818-5.629 2.818l-.434.438.194.584s1.478 4.49 5.855 4.902l1.094.104v-6.172z" clip-rule="evenodd" color="#000" fill="#626b26" fill-rule="evenodd" style="font-feature-settings:normal;font-variant-alternates:normal;font-variant-caps:normal;font-variant-east-asian:normal;font-variant-ligatures:normal;font-variant-numeric:normal;font-variant-position:normal;font-variation-settings:normal;inline-size:0;isolation:auto;mix-blend-mode:normal;shape-margin:0;shape-padding:0;text-decoration-color:#000;text-decoration-line:none;text-decoration-style:solid;text-indent:0;text-orientation:mixed;text-transform:none;white-space:normal" transform="translate(-56 -260)"/><path d="M9 3v17h13c1.108 0 2-.892 2-2V5c0-1.108-.892-2-2-2z" fill="#626b26"/><path d="m65 264.92-1.08.088c-4.77.384-8.617 4.26-8.617 4.26l-.46.447.214.603s2.34 6.699 8.85 7.313l1.093.103v-9.623z" clip-rule="evenodd" color="#000" fill="#626b26" fill-rule="evenodd" style="font-feature-settings:normal;font-variant-alternates:normal;font-variant-caps:normal;font-variant-east-asian:normal;font-variant-ligatures:normal;font-variant-numeric:normal;font-variant-position:normal;font-variation-settings:normal;inline-size:0;isolation:auto;mix-blend-mode:normal;shape-margin:0;shape-padding:0;text-decoration-color:#000;text-decoration-line:none;text-decoration-style:solid;text-indent:0;text-orientation:mixed;text-transform:none;white-space:normal" transform="translate(-54 -260)"/><path d="M10 4v2c.126-.009.145.004.269 0 4.833-.164 8.02 3.982 8.02 3.982s-3.616 4.395-7.382 4.395c-.347 0-.602-.055-.907-.108v1.18c.26.033.462.07.741.07 3.507 0 6.044-1.79 8.499-3.908.408.326 2.076 1.118 2.418 1.466-2.336 1.953-7.714 3.554-10.798 3.554-.298 0-.58.027-.86 0V19h11.95c.582 0 1.05-.468 1.05-1.05V5.05C23 4.468 22.532 4 21.95 4z" clip-rule="evenodd" fill="#c4d64d" fill-rule="evenodd"/><path d="M10.633 8.3c2.226 0 3.548 1.732 3.548 1.732l-1.81 1.525c-.813-1.354-1.019-1.848-2.371-2.011v3.74c.33.11.61.172.96.17 2.64 0 5.103-3.419 5.103-3.419s-2.319-2.962-5.795-2.854c-.126.004-.145-.012-.268 0v1.181c.226-.023.39-.064.633-.064z" clip-rule="evenodd" fill="#c4d64d" fill-rule="evenodd"/><path d="M7.51 10.54s1.132-1.164 2.49-1V8.359c-2.587.28-4.21 1.981-4.21 1.981s.967 3.346 4.21 3.925v-.985c-1.828-.615-2.49-2.74-2.49-2.74z" clip-rule="evenodd" fill="#c4d64d" fill-rule="evenodd"/><path d="M4.172 10.2S6.162 7.473 10 7.182V6c-4.251.342-8 3.981-8 3.981s2.153 6.098 8 6.65V15.45c-4.29-.54-5.828-5.25-5.828-5.25z" clip-rule="evenodd" fill="#c4d64d" fill-rule="evenodd"/><path d="m364 198.92-1.08.088c-22.112 1.779-41.062 17.95-41.062 17.95v3l.193.587s10.492 31.59 40.855 34.455l1.094.103v-48.172z" clip-rule="evenodd" color="#000" fill="#626b26" fill-rule="evenodd" style="font-feature-settings:normal;font-variant-alternates:normal;font-variant-caps:normal;font-variant-east-asian:normal;font-variant-ligatures:normal;font-variant-numeric:normal;font-variant-position:normal;font-variation-settings:normal;inline-size:0;isolation:auto;mix-blend-mode:normal;shape-margin:0;shape-padding:0;text-decoration-color:#000;text-decoration-line:none;text-decoration-style:solid;text-indent:0;text-orientation:mixed;text-transform:none;white-space:normal" transform="translate(-56 -260)"/><path d="m364 195.92-1.08.088c-22.112 1.779-40.63 20.516-40.63 20.516l-.433.435.194.586s10.492 31.591 40.855 34.455l1.093.104v-48.172z" clip-rule="evenodd" color="#000" fill="#626b26" fill-rule="evenodd" style="font-feature-settings:normal;font-variant-alternates:normal;font-variant-caps:normal;font-variant-east-asian:normal;font-variant-ligatures:normal;font-variant-numeric:normal;font-variant-position:normal;font-variation-settings:normal;inline-size:0;isolation:auto;mix-blend-mode:normal;shape-margin:0;shape-padding:0;text-decoration-color:#000;text-decoration-line:none;text-decoration-style:solid;text-indent:0;text-orientation:mixed;text-transform:none;white-space:normal" transform="translate(-56 -260)"/><path d="m568 111.92-1.08.088c-43.704 3.516-81.062 37.176-81.062 37.176v4l.193.586s20.794 62.565 80.855 68.23l1.094.103z" clip-rule="evenodd" color="#000" fill="#626b26" fill-rule="evenodd" style="font-feature-settings:normal;font-variant-alternates:normal;font-variant-caps:normal;font-variant-east-asian:normal;font-variant-ligatures:normal;font-variant-numeric:normal;font-variant-position:normal;font-variation-settings:normal;inline-size:0;isolation:auto;mix-blend-mode:normal;shape-margin:0;shape-padding:0;text-decoration-color:#000;text-decoration-line:none;text-decoration-style:solid;text-indent:0;text-orientation:mixed;text-transform:none;white-space:normal" transform="translate(-56 -260)"/><path d="m568 107.92-1.08.088c-43.704 3.516-80.63 40.74-80.63 40.74l-.433.435.194.586s20.794 62.565 80.855 68.23l1.093.104z" clip-rule="evenodd" color="#000" fill="#626b26" fill-rule="evenodd" style="font-feature-settings:normal;font-variant-alternates:normal;font-variant-caps:normal;font-variant-east-asian:normal;font-variant-ligatures:normal;font-variant-numeric:normal;font-variant-position:normal;font-variation-settings:normal;inline-size:0;isolation:auto;mix-blend-mode:normal;shape-margin:0;shape-padding:0;text-decoration-color:#000;text-decoration-line:none;text-decoration-style:solid;text-indent:0;text-orientation:mixed;text-transform:none;white-space:normal" transform="translate(-56 -260)"/></svg>