<svg version="1.0" viewBox="0 0 24 24" xmlns="http://www.w3.org/2000/svg"><path d="M9 3v17h13c1.108 0 2-.892 2-2V5c0-1.108-.892-2-2-2z" fill="#626b26"/><path d="m65 264.92-1.08.088c-4.77.384-8.617 4.26-8.617 4.26l-.46.447.214.603s2.34 6.699 8.85 7.313l1.093.103v-9.623z" clip-rule="evenodd" color="#000" fill="#626b26" fill-rule="evenodd" style="font-feature-settings:normal;font-variant-alternates:normal;font-variant-caps:normal;font-variant-east-asian:normal;font-variant-ligatures:normal;font-variant-numeric:normal;font-variant-position:normal;font-variation-settings:normal;inline-size:0;isolation:auto;mix-blend-mode:normal;shape-margin:0;shape-padding:0;text-decoration-color:#000;text-decoration-line:none;text-decoration-style:solid;text-indent:0;text-orientation:mixed;text-transform:none;white-space:normal" transform="translate(-54 -260)"/><path d="M10 4v2c.126-.009.145.004.269 0 4.833-.164 8.02 3.982 8.02 3.982s-3.616 4.395-7.382 4.395c-.347 0-.602-.055-.907-.108v1.18c.26.033.462.07.741.07 3.507 0 6.044-1.79 8.499-3.908.408.326 2.076 1.118 2.418 1.466-2.336 1.953-7.714 3.554-10.798 3.554-.298 0-.58.027-.86 0V19h11.95c.582 0 1.05-.468 1.05-1.05V5.05C23 4.468 22.532 4 21.95 4z" clip-rule="evenodd" fill="#c4d64d" fill-rule="evenodd"/><path d="M10.633 8.3c2.226 0 3.548 1.732 3.548 1.732l-1.81 1.525c-.813-1.354-1.019-1.848-2.371-2.011v3.74c.33.11.61.172.96.17 2.64 0 5.103-3.419 5.103-3.419s-2.319-2.962-5.795-2.854c-.126.004-.145-.012-.268 0v1.181c.226-.023.39-.064.633-.064z" clip-rule="evenodd" fill="#c4d64d" fill-rule="evenodd"/><path d="M7.51 10.54s1.132-1.164 2.49-1V8.359c-2.587.28-4.21 1.981-4.21 1.981s.967 3.346 4.21 3.925v-.985c-1.828-.615-2.49-2.74-2.49-2.74z" clip-rule="evenodd" fill="#c4d64d" fill-rule="evenodd"/><path d="M4.172 10.2S6.162 7.473 10 7.182V6c-4.251.342-8 3.981-8 3.981s2.153 6.098 8 6.65V15.45c-4.29-.54-5.828-5.25-5.828-5.25z" clip-rule="evenodd" fill="#c4d64d" fill-rule="evenodd"/></svg>