<svg version="1.0" viewBox="0 0 24 24" xmlns="http://www.w3.org/2000/svg"><g transform="translate(-56 -260)"><rect x="58" y="261" width="20" height="23" ry="1.5" fill="#245c63"/><rect x="59" y="262" width="18" height="21" ry="1" fill="#dedede"/><g transform="translate(-49 5)" fill="#faa41a"><rect x="125" y="258" width="3" height="5" ry="1"/><rect x="125" y="258" width="2" height="5" ry="0"/></g><g transform="translate(-49 9)" fill="#73c48f"><rect x="125" y="258" width="3" height="5" ry="1"/><rect x="125" y="258" width="2" height="5" ry="0"/></g><g transform="translate(-49 13)" fill="#b84acb"><rect x="125" y="258" width="3" height="5" ry="1"/><rect x="125" y="258" width="2" height="5" ry="0"/></g><g transform="translate(-49 17)" fill="#f15d22"><rect x="125" y="258" width="3" height="5" ry="1"/><rect x="124" y="258" width="3" height="5" ry="0"/></g><rect x="58" y="260" width="18" height="21" ry="1.5" fill="#245c63"/><rect x="59" y="261" width="16" height="19" ry="1" fill="#48b9c7"/><path d="M60 261c-.554 0-1 .446-1 1v20c0 .554.446 1 1 1h1v-22z" fill="#16393e"/><path d="M68 267a4 4 0 0 1 4 4v.5a1.5 1.5 0 0 1-2.648.965A1.987 1.987 0 0 1 68 273a2 2 0 1 1 2-2v.5a.5.5 0 0 0 1 0v-.5a3 3 0 1 0-3 3h2.5s.5 0 .5.5c-.031.5-.5.5-.5.5H68a4 4 0 0 1 0-8zm0 3a1 1 0 1 0 0 2 1 1 0 0 0 0-2z" fill-opacity=".196"/><path d="M68 266a4 4 0 0 1 4 4v.5a1.5 1.5 0 0 1-2.648.965A1.987 1.987 0 0 1 68 272a2 2 0 1 1 2-2v.5a.5.5 0 0 0 1 0v-.5a3 3 0 1 0-3 3h2.5s.5 0 .5.5c-.031.5-.5.5-.5.5H68a4 4 0 0 1 0-8zm0 3a1 1 0 1 0 0 2 1 1 0 0 0 0-2z" fill="#fff"/></g></svg>