<svg version="1.0" viewBox="0 0 24 24" xmlns="http://www.w3.org/2000/svg"><g transform="translate(-56 940)"><rect x="56" y="-938" width="24" height="20" ry="2" fill="#6f6f6f"/><rect x="57" y="-937" width="22" height="18" ry="1.5" fill="#dedede"/><path fill="#45454f" d="M58-936h20v15H58z"/><path fill="#48b9c7" d="M58-936h20v15H58z"/><g fill-opacity=".196"><path d="M63-933c-.554 0-1 .446-1 1v1c0 .554.446 1 1 1h10c.554 0 1-.446 1-1v-1c0-.554-.446-1-1-1zm9.5 1a.5.5 0 1 1 0 1 .5.5 0 0 1 0-1z"/><path d="M63-929c-.554 0-1 .446-1 1v1c0 .554.446 1 1 1h10c.554 0 1-.446 1-1v-1c0-.554-.446-1-1-1zm9.5 1a.5.5 0 1 1 0 1 .5.5 0 0 1 0-1z"/><path d="M63-925c-.554 0-1 .446-1 1v1c0 .554.446 1 1 1h10c.554 0 1-.446 1-1v-1c0-.554-.446-1-1-1zm9.5 1a.5.5 0 1 1 0 1 .5.5 0 0 1 0-1z"/></g><g fill="#fff"><path d="M63-934c-.554 0-1 .446-1 1v1c0 .554.446 1 1 1h10c.554 0 1-.446 1-1v-1c0-.554-.446-1-1-1zm9.5 1a.5.5 0 1 1 0 1 .5.5 0 0 1 0-1z"/><path d="M63-930c-.554 0-1 .446-1 1v1c0 .554.446 1 1 1h10c.554 0 1-.446 1-1v-1c0-.554-.446-1-1-1zm9.5 1a.5.5 0 1 1 0 1 .5.5 0 0 1 0-1z"/><path d="M63-926c-.554 0-1 .446-1 1v1c0 .554.446 1 1 1h10c.554 0 1-.446 1-1v-1c0-.554-.446-1-1-1zm9.5 1a.5.5 0 1 1 0 1 .5.5 0 0 1 0-1z"/></g></g></svg>