<svg version="1.0" viewBox="0 0 24 24" xmlns="http://www.w3.org/2000/svg"><g fill="#acacac"><path d="M3 1h6l4 4h8c1.108 0 2 .892 2 2v14c0 1.108-.892 2-2 2H3c-1.108 0-2-.892-2-2V3c0-1.108.892-2 2-2z"/><path d="M3 1.5h5.797l3.996 4H21c.831 0 1.5.669 1.5 1.5v14c0 .831-.669 1.5-1.5 1.5H3c-.831 0-1.5-.669-1.5-1.5V3c0-.831.669-1.5 1.5-1.5z" stroke="#000" stroke-linecap="round" stroke-opacity=".502"/></g><g transform="translate(-104 -256)"><rect x="110" y="264" width="12" height="5" ry="1.5" fill="#676767" fill-opacity=".502"/><rect x="111" y="265" width="10" height="2" ry="1" fill="#fafafa"/></g></svg>