<svg version="1.0" viewBox="0 0 24 24" xmlns="http://www.w3.org/2000/svg"><g transform="translate(-56 40)"><rect x="56" y="-40" width="24" height="24" ry="12" fill="#245c63"/><rect x="57" y="-39" width="22" height="22" ry="11" fill="#48b9c7"/><path d="M68-34.502a3 3 0 1 1 0 6 3 3 0 0 1 0-6zm0 8c6-.003 6 4.003 6 4.003v1H62v-1s0-4 6-4.003z" color="#000" fill="#fff" style="text-decoration-line:none;text-indent:0;text-transform:none"/><rect x="66" y="-31" width="14" height="15" ry="7" fill="#1f285a"/><rect x="67" y="-30" width="12" height="12" ry="6" fill="#3f51b5"/><g transform="translate(-51)" fill="#fff"><path d="M125-26h-2v7h2z"/><circle cx="124" cy="-28" r="1"/></g></g></svg>