<svg version="1.0" viewBox="0 0 24 24" xmlns="http://www.w3.org/2000/svg" xmlns:xlink="http://www.w3.org/1999/xlink"><g transform="translate(-56 40)"><g id="a"><rect x="101" y="253" width="30" height="31" ry="15" fill="#245c63"/><rect x="102" y="254" width="28" height="28" ry="14" fill="#48b9c7"/><path d="M116 261a3 3 0 1 1 0 6 3 3 0 0 1 0-6zm0 8c6-.003 6 4.003 6 4.003v1h-12v-1s0-4 6-4.003z" color="#000" fill="#fff" style="text-decoration-line:none;text-indent:0;text-transform:none"/><rect x="56" y="260" width="24" height="24" ry="12" fill="#245c63"/><rect x="57" y="261" width="22" height="22" ry="11" fill="#48b9c7"/><path d="M68 265.5a3 3 0 1 1 0 6 3 3 0 0 1 0-6zm0 8c6-.003 6 4.003 6 4.003v1H62v-1s0-4 6-4.003z" color="#000" fill="#fff" style="text-decoration-line:none;text-indent:0;text-transform:none"/><rect x="226" y="222" width="60" height="62" ry="30" fill="#245c63"/><rect x="227" y="223" width="58" height="58" ry="29" fill="#48b9c7"/><path d="M256 237.99a6 6 0 1 1 0 12 6 6 0 0 1 0-12zm0 16c12-.006 12 8.007 12 8.007v2h-24v-2s0-8 12-8.007z" color="#000" fill="#fff" style="text-decoration-line:none;text-indent:0;text-transform:none"/><rect x="316" y="160" width="120" height="123" ry="60" fill="#245c63"/><rect x="317" y="161" width="118" height="118" ry="59" fill="#48b9c7"/><path d="M376 191.99c6.627 0 12 5.373 12 12s-5.373 12-12 12-12-5.373-12-12 5.373-12 12-12zm0 32c23.999-.012 23.999 16.013 23.999 16.013v4h-48v-4s0-16 24.001-16.013z" color="#000" fill="#fff" style="text-decoration-line:none;text-indent:0;text-transform:none"/><rect x="472" y="36" width="240" height="244" ry="119.5" fill="#245c63"/><rect x="473" y="37" width="238" height="238" ry="119" fill="#48b9c7"/><path d="M592 99.973c13.255 0 24 10.746 24 24s-10.745 24-24 24-24-10.746-24-24 10.745-24 24-24zm0 64c47.998-.024 47.998 32.027 47.998 32.027v8h-96v-8s0-32 48.002-32.027z" color="#000" fill="#fff" style="text-decoration-line:none;text-indent:0;text-transform:none"/><rect x="158" y="238" width="44" height="46" ry="22" fill="#245c63"/><rect x="159" y="239" width="42" height="42" ry="21" fill="#48b9c7"/><path d="M180 250.49a4.5 4.5 0 1 1 0 9 4.5 4.5 0 0 1 0-9zm0 11.505c9-.005 9 6.5 9 6.5v1.5h-18v-1.5s0-6.495 9-6.5z" color="#000" fill="#fff" style="text-decoration-line:none;text-indent:0;text-transform:none"/><circle cx="180" cy="255" r="5" fill="#fff"/><rect x="16" y="268" width="16" height="15.998" ry="7.999" fill="#245c63"/><rect x="17" y="269" width="14" height="14" ry="7" fill="#48b9c7"/><path d="M24 277c4 0 4 3.25 4 3.25v.75h-8v-.75s0-3.25 4-3.25z" color="#000" fill="#fff" style="text-decoration-line:none;text-indent:0;text-transform:none"/><circle cx="24" cy="273" r="3" fill="#fff"/></g></g><g transform="translate(-56 40)"><use transform="translate(0 -300)" width="100%" height="100%" xlink:href="#a"/><rect x="593" y="-139" width="119" height="123" ry="59.578" fill="#1f285a"/><rect x="594" y="-138" width="117" height="117" ry="119" fill="#3f51b5"/><rect x="117" y="-31" width="14" height="15" ry="7" fill="#1f285a"/><rect x="118" y="-30" width="12" height="12" ry="6" fill="#3f51b5"/><g fill="#fff"><path d="M125-26h-2v7h2z"/><circle cx="124" cy="-28" r="1"/></g><rect x="181" y="-39" width="21" height="23" ry="10.5" fill="#1f285a"/><rect x="182" y="-38" width="19" height="19" ry="9.5" fill="#3f51b5"/><g transform="translate(68 -4)" fill="#fff"><path d="M125-26h-2v7h2z"/><circle cx="124" cy="-28" r="1"/></g><rect x="258" y="-46" width="28" height="30" ry="14" fill="#1f285a"/><rect x="259" y="-45" width="26" height="26" ry="13" fill="#3f51b5"/><g transform="matrix(1.5 0 0 1.5 86.5 4)" fill="#fff"><path d="M125-26h-2v7h2z"/><circle cx="124" cy="-28.333" r="1"/></g><rect x="380" y="-76" width="56" height="59" ry="28" fill="#1f285a"/><rect x="381" y="-75" width="54" height="54" ry="27" fill="#3f51b5"/><g transform="matrix(3 0 0 3 36 25)" fill="#fff"><path d="M124.67-26h-1.333v7h1.333z"/><circle cx="124" cy="-28.333" r="1"/></g><g transform="matrix(6 0 0 6 -91 65)" fill="#fff"><path d="M124.67-26h-1.333v7h1.333z"/><circle cx="124" cy="-28.333" r="1"/></g><rect x="66" y="-31" width="14" height="15" ry="7" fill="#1f285a"/><rect x="67" y="-30" width="12" height="12" ry="6" fill="#3f51b5"/><g transform="translate(-51)" fill="#fff"><path d="M125-26h-2v7h2z"/><circle cx="124" cy="-28" r="1"/></g><rect x="25" y="-23.5" width="7" height="7.5" ry="3.5" fill="#1f285a"/><rect x="25.5" y="-23" width="6" height="6" ry="3" fill="#3f51b5"/><g transform="matrix(.5 0 0 .5 -33.5 -8)" fill="#fff"><path d="M125-24h-2v6h2z"/><circle cx="124" cy="-27" r="1"/></g></g></svg>