<svg version="1.0" viewBox="0 0 24 24" xmlns="http://www.w3.org/2000/svg"><g transform="translate(-56 -260)"><rect x="56" y="262" width="24" height="20" ry="2" fill="#cdcdcd"/><path d="M58 262c-1.108 0-2 .892-2 2v16c0 1.108.892 2 2 2h20c1.108 0 2-.892 2-2v-16c0-1.108-.892-2-2-2zm.5 1h19c.831 0 1.5.669 1.5 1.5v15c0 .831-.669 1.5-1.5 1.5h-19c-.831 0-1.5-.669-1.5-1.5v-15c0-.831.669-1.5 1.5-1.5z" fill-opacity=".502"/><path fill="#424242" d="M59 265h18v14H59z"/><g fill="#f6f6f6"><path d="M63 266v1a2 2 0 0 0-2 2 2 2 0 0 0 2 2v2h-2v1h2v1h1v-1a2 2 0 0 0 2-2 2 2 0 0 0-2-2v-2h1v-1h-1v-1zm0 2v2a1 1 0 0 1-1-1 1 1 0 0 1 1-1zm1 3a1 1 0 0 1 1 1 1 1 0 0 1-1 1z"/><path d="M67 274h5v1h-5z"/></g></g></svg>