<svg version="1.0" viewBox="0 0 24 24" xmlns="http://www.w3.org/2000/svg"><g transform="translate(-56 340)"><rect x="56" y="-338" width="24" height="20" ry="2" fill="#cdcdcd"/><path d="M58-338c-1.108 0-2 .892-2 2v16c0 1.108.892 2 2 2h20c1.108 0 2-.892 2-2v-16c0-1.108-.892-2-2-2zm.5 1h19c.831 0 1.5.669 1.5 1.5v15c0 .831-.669 1.5-1.5 1.5h-19c-.831 0-1.5-.669-1.5-1.5v-15c0-.831.669-1.5 1.5-1.5z" fill-opacity=".502"/><path fill="#424242" d="M59-335h18v14H59z"/><rect x="59" y="-335" width="18" height="14" ry="0" fill="#ac1800"/><g transform="translate(-46 -597)" fill="#f6f6f6"><path d="M113 271h5v1h-5z"/><rect x="108" y="263" width="1" height="9" ry="0"/><rect x="110" y="263" width="1" height="9" ry="0"/><path d="M107 265h5v1h-5z"/><path d="M107 269h5v1h-5z"/></g></g></svg>