<svg version="1.0" viewBox="0 0 24 24" xmlns="http://www.w3.org/2000/svg"><g transform="translate(-56 -260)"><rect x="57" y="261" width="22" height="22" ry="11" fill="#ffce51"/><path d="M68 261c-6.094 0-11 4.906-11 11s4.906 11 11 11 11-4.906 11-11-4.906-11-11-11zm0 1c5.54 0 10 4.46 10 10s-4.46 10-10 10-10-4.46-10-10 4.46-10 10-10z" fill-opacity=".392"/><rect x="59" y="277" width="18" height="6" ry="3" fill="#fff"/><circle cx="64.25" cy="277" r="3" fill="#fff"/><circle cx="71.5" cy="276.5" r="4.5" fill="#fff"/><path d="M71.5 272a4.5 4.5 0 0 0-4.455 3.908A3 3 0 0 0 64.25 274a3 3 0 0 0-3 3 3 3 0 0 0 .004.104A2.986 2.986 0 0 0 59 280c0 1.662 1.338 3 3 3h12c1.662 0 3-1.338 3-3 0-.96-.456-1.803-1.154-2.352A4.5 4.5 0 0 0 76 276.5a4.5 4.5 0 0 0-4.5-4.5zm0 1c1.939 0 3.5 1.561 3.5 3.5a3.45 3.45 0 0 1-.402 1.6A1.996 1.996 0 0 1 74 282H62c-1.108 0-2-.892-2-2s.892-2 2-2v-.75c0-1.246 1.003-2.25 2.25-2.25s2.25 1.004 2.25 2.25v.75H68v-1.5c0-1.939 1.561-3.5 3.5-3.5z" fill-opacity=".392"/></g></svg>