<svg version="1.0" viewBox="0 0 128 128" xmlns="http://www.w3.org/2000/svg"><g transform="translate(-312 -156)"><rect x="332" y="165" width="88" height="107" ry="5" fill="#560c00"/><rect x="333" y="166" width="86" height="105" ry="5" fill="#dedede"/><rect x="332" y="164" width="86" height="100" ry="5" fill="#560c00"/><rect x="333" y="165" width="84" height="98" ry="4.5" fill="#f15d22"/><path d="M337.5 165a4.49 4.49 0 0 0-4.5 4.5v97a4.49 4.49 0 0 0 4.5 4.5h1.5V165z" fill="#350700"/><path d="M362 203c-4.432 0-8 3.568-8 8v16h4v-8h8v8h4v-16c0-4.432-3.568-8-8-8zm0 4c2.216 0 4 1.784 4 4v4h-8v-4c0-2.216 1.784-4 4-4z" fill-opacity=".196"/><path d="M382 203v4h10l-10 16v4h16v-4h-10l10-16v-4h-4z" fill-opacity=".196"/><path fill-opacity=".196" d="M372 215h10v4h-10z"/><path d="M362 202c-4.432 0-8 3.568-8 8v16h4v-8h8v8h4v-16c0-4.432-3.568-8-8-8zm0 4c2.216 0 4 1.784 4 4v4h-8v-4c0-2.216 1.784-4 4-4z" fill="#ededed"/><path d="M382 202v4h10l-10 16v4h16v-4h-10l10-16v-4h-4z" fill="#ededed"/><path fill="#ededed" d="M372 214h10v4h-10z"/></g></svg>