<svg version="1.0" viewBox="0 0 128 128" xmlns="http://www.w3.org/2000/svg"><g transform="translate(-312 -156)"><path d="M339.5 163a8.481 8.481 0 0 0-8.5 8.5v100c0 4.709 3.791 8.5 8.5 8.5h73c4.709 0 8.5-3.791 8.5-8.5v-76L388.5 163z" fill="#6f6f6f"/><path d="M420 196v72c0 4.432-3.568 8-8 8h-72c-4.432 0-8-3.568-8-8v-96c0-4.432 3.568-8 8-8h48" fill="#ececec"/><path d="M420 200h-25c-4.432 0-8-3.568-8-8v-28h1l32 32z" fill="#6f6f6f" fill-opacity=".502"/><path d="M420 196h-24c-4.432 0-8-3.568-8-8v-24" fill="#fafafa"/><rect x="348" y="254.5" width="36" height="4" ry="1.823" fill="#474341" fill-opacity=".69"/><rect x="348" y="242.5" width="56" height="4" ry="1.823" fill="#474341" fill-opacity=".69"/><rect x="348" y="230.5" width="56" height="4" ry="1.823" fill="#474341" fill-opacity=".69"/><rect x="348" y="218.5" width="56" height="4" ry="1.823" fill="#474341" fill-opacity=".69"/><rect transform="rotate(45)" x="436.27" y="-87.175" width="17" height="12" ry="0" fill="#a27100"/><rect transform="rotate(45)" x="436.27" y="-159.68" width="17" height="84.5" ry="4.5" fill="#a27100"/><path d="M361.65 255.33v12.021h12.021z" fill="#a27100"/><rect transform="rotate(45)" x="436.77" y="-159.18" width="16" height="8" ry="4" fill="#ff8989"/><rect transform="rotate(45)" x="436.77" y="-151.18" width="16" height="12" ry="0" fill="#d4d1ca"/><path fill="#ffce51" d="m410.087 213.256 5.656 5.657-45.254 45.255-5.657-5.657z"/><path fill="#fffa7d" d="m407.258 210.428 2.829 2.828-45.255 45.255-2.829-2.828z"/><path fill="#d1a023" d="m415.743 218.913 2.829 2.829-45.255 45.254-2.828-2.828z"/><path d="M362 255.69v11.314h11.314z" fill="#f5f2e3"/><path d="m362 264.17 2.828 2.828H362z" fill="#3c3c3c"/><rect transform="rotate(45)" x="436.77" y="-155.18" width="16" height="4" ry="0" fill="#ff8989"/></g></svg>