<svg version="1.0" viewBox="0 0 128 128" xmlns="http://www.w3.org/2000/svg"><g transform="translate(-312 -156)"><rect x="324" y="168" width="104" height="107" ry="8" fill="#dedede"/><path d="M331.994 167.998c-4.432 0-8 3.568-8 8v91.006c0 4.432 3.568 8 8 8H420c4.432 0 8-3.568 8-8v-91.006c0-4.432-3.568-8-8-8zm.506 1.006h87c4.155 0 7.5 3.345 7.5 7.5v87c0 4.155-3.345 7.5-7.5 7.5h-87a7.484 7.484 0 0 1-7.5-7.5v-87c0-4.155 3.345-7.5 7.5-7.5z" fill-opacity=".502"/><rect x="331" y="176" width="43" height="43" ry="8" fill-opacity=".5"/><rect x="378" y="176" width="43" height="43" ry="8" fill-opacity=".5"/><rect x="331" y="223" width="43" height="43" ry="8" fill-opacity=".5"/><rect x="378" y="222" width="43" height="44" ry="8" fill-opacity=".5"/><rect x="331" y="175" width="43" height="43" ry="8" fill="#aaa"/><rect x="378" y="175" width="43" height="43" ry="8" fill="#aaa"/><rect x="331" y="222" width="43" height="43" ry="8" fill="#aaa"/><rect x="378" y="222" width="43" height="43" ry="8" fill="#73c48f"/><path d="M355 184v11h11v5h-11v11h-5v-11h-11v-5h11v-11z" fill-opacity=".196"/><path d="m413 187-10.5 10.5L413 208l-3 3-10.5-10.5L389 211l-3-3 10.5-10.5L386 187l3-3 10.5 10.5L410 184z" fill-opacity=".196"/><path d="M349 233h7v6h-7zm0 17h7v6h-7zm-12-8h31v5h-31z" fill-opacity=".196"/><path d="M385 237h29v5h-29zm0 10h29v5h-29z" fill-opacity=".196"/><path d="M355 183v11h11v5h-11v11h-5v-11h-11v-5h11v-11z" fill="#fff"/><path d="m413 186-10.5 10.5L413 207l-3 3-10.5-10.5L389 210l-3-3 10.5-10.5L386 186l3-3 10.5 10.5L410 183z" fill="#fff"/><path d="M349 232h7v6h-7zm0 17h7v6h-7zm-12-8h31v5h-31z" fill="#fff"/><path d="M385 236h29v5h-29zm0 10h29v5h-29z" fill="#fbfbfb"/></g></svg>