<svg version="1.0" viewBox="0 0 128 128" xmlns="http://www.w3.org/2000/svg"><g transform="translate(-312 -156)"><path d="M339.5 163a8.481 8.481 0 0 0-8.5 8.5v100c0 4.709 3.791 8.5 8.5 8.5h73c4.709 0 8.5-3.791 8.5-8.5v-76L388.5 163z" fill="#6f6f6f"/><path d="M420 196v72c0 4.432-3.568 8-8 8h-72c-4.432 0-8-3.568-8-8v-96c0-4.432 3.568-8 8-8h48" fill="#ececec"/><path d="M420 200h-25c-4.432 0-8-3.568-8-8v-28h1l32 32z" fill="#6f6f6f" fill-opacity=".502"/><path d="M420 196h-24c-4.432 0-8-3.568-8-8v-24" fill="#fafafa"/><rect x="348" y="255" width="36" height="4" ry="1.823" fill="#474341" fill-opacity=".69"/><rect x="348" y="243" width="56" height="4" ry="1.823" fill="#474341" fill-opacity=".69"/><rect x="348" y="231" width="56" height="4" ry="1.823" fill="#474341" fill-opacity=".69"/><rect x="348" y="219" width="56" height="4" ry="1.823" fill="#474341" fill-opacity=".69"/><rect x="372" y="236" width="52" height="47" ry="10.5" fill="#671d00"/><rect x="373" y="237" width="50" height="42" ry="10" fill="#cf3b00"/><path d="M398 248a17.878 18 0 0 0-16 10.02 17.878 18 0 0 0 16 9.98 17.878 18 0 0 0 16-10.02 17.878 18 0 0 0-16-9.98zm0 2a8 8 0 0 1 8 8 8 8 0 0 1-8 8 8 8 0 0 1-8-8 8 8 0 0 1 8-8zm0 4a4 4 0 0 0-4 4 4 4 0 0 0 4 4 4 4 0 0 0 4-4 4 4 0 0 0-4-4z" fill="#fff"/></g></svg>