<svg version="1.0" viewBox="0 0 128 128" xmlns="http://www.w3.org/2000/svg"><path d="M27.5 7a8.481 8.481 0 0 0-8.5 8.5v100c0 4.709 3.791 8.5 8.5 8.5h73c4.709 0 8.5-3.791 8.5-8.5v-76L76.5 7z" fill="#6f6f6f"/><path d="M108 40v72c0 4.432-3.568 8-8 8H28c-4.432 0-8-3.568-8-8V16c0-4.432 3.568-8 8-8h48" fill="#ececec"/><path d="M108 44H83c-4.432 0-8-3.568-8-8V8h1l32 32z" fill="#6f6f6f" fill-opacity=".502"/><path d="M108 40H84c-4.432 0-8-3.568-8-8V8" fill="#fafafa"/><rect x="-292" y="120" width="8" height="1" ry=".5" fill="#474341" fill-opacity=".69"/><rect x="-292" y="122" width="8" height="1" ry=".5" fill="#474341" fill-opacity=".69"/><rect x="-292" y="124" width="5" height="1" ry=".456" fill="#474341" fill-opacity=".69"/><rect x="-251" y="124" width="9" height="1" ry=".456" fill="#474341" fill-opacity=".69"/><rect x="-251" y="121" width="14" height="1" ry=".456" fill="#474341" fill-opacity=".69"/><rect x="-251" y="118" width="14" height="1" ry=".456" fill="#474341" fill-opacity=".69"/><rect x="-251" y="115" width="14" height="1" ry=".456" fill="#474341" fill-opacity=".69"/><rect x="-203" y="121" width="9" height="1" ry=".456" fill="#474341" fill-opacity=".69"/><rect x="-203" y="118" width="14" height="1" ry=".456" fill="#474341" fill-opacity=".69"/><rect x="-203" y="115" width="14" height="1" ry=".456" fill="#474341" fill-opacity=".69"/><rect x="-203" y="112" width="14" height="1" ry=".456" fill="#474341" fill-opacity=".69"/><g transform="translate(-312 -156)" fill="#474341" fill-opacity=".69"><rect x="243" y="-334.5" width="9" height="1" ry=".456"/><rect x="243" y="-337.5" width="14" height="1" ry=".456"/><rect x="243" y="-340.5" width="14" height="1" ry=".456"/><rect x="243" y="-343.5" width="14" height="1" ry=".456"/><rect x="243" y="-334.5" width="9" height="1" ry=".456"/><rect x="243" y="-337.5" width="14" height="1" ry=".456"/><rect x="243" y="-340.5" width="14" height="1" ry=".456"/><rect x="243" y="-343.5" width="14" height="1" ry=".456"/><rect x="243" y="-334.5" width="9" height="1" ry=".456"/><rect x="243" y="-337.5" width="14" height="1" ry=".456"/><rect x="243" y="-340.5" width="14" height="1" ry=".456"/><rect x="243" y="-343.5" width="14" height="1" ry=".456"/><rect x="243" y="-334.5" width="7.5" height="1" ry=".456"/><rect x="243" y="-337.5" width="12" height="1" ry=".423"/><rect x="243" y="-340.5" width="12" height="1" ry=".375"/><rect x="243" y="-343.5" width="12" height="1" ry=".456"/></g><rect x="-198" y="113" width="15" height="15" ry="3.5" fill="#671d00"/><rect x="-197" y="114" width="13" height="12" ry="3" fill="#cf3b00"/><rect x="-134" y="108" width="20" height="20" ry="3.5" fill="#671d00"/><rect x="-133" y="109" width="18" height="16" ry="3" fill="#cf3b00"/><rect x="-58" y="104" width="26" height="24" ry="5.5" fill="#671d00"/><rect x="-57" y="105" width="24" height="20" ry="5" fill="#cf3b00"/><rect x="60" y="80" width="52" height="47" ry="10.5" fill="#671d00"/><rect x="61" y="81" width="50" height="42" ry="10" fill="#cf3b00"/><rect x="271" y="32.013" width="104" height="91.987" ry="20.5" fill="#671d00"/><rect x="272" y="33" width="102" height="86" ry="20" fill="#cf3b00"/><rect x="-246" y="116" width="13" height="12" ry="2.5" fill="#671d00"/><rect x="-245" y="117" width="11" height="10.002" ry="2" fill="#cf3b00"/><rect x="-291" y="118" width="11" height="10" ry="1.5" fill="#671d00"/><rect x="-290" y="119" width="9" height="8" ry="1" fill="#cf3b00"/><path d="M86 92a17.878 18 0 0 0-16 10.02A17.878 18 0 0 0 86 112a17.878 18 0 0 0 16-10.02A17.878 18 0 0 0 86 92zm0 2a8 8 0 0 1 8 8 8 8 0 0 1-8 8 8 8 0 0 1-8-8 8 8 0 0 1 8-8zm0 4a4 4 0 0 0-4 4 4 4 0 0 0 4 4 4 4 0 0 0 4-4 4 4 0 0 0-4-4z" fill="#fff"/></svg>