<svg version="1.0" viewBox="0 0 128 128" xmlns="http://www.w3.org/2000/svg"><g transform="translate(-312 -156)"><rect x="324" y="168" width="75" height="77" ry="8" fill="#5f5f5f"/><rect x="324" y="167" width="75" height="75" ry="8" fill="#bebebe"/><rect x="324.5" y="167.5" width="74" height="74" ry="7.5" fill="none" stroke="#000" stroke-linecap="round" stroke-opacity=".5"/><rect x="353" y="198" width="75" height="77" ry="8" fill="#757575"/><path d="M347 199c-2.313 0-4.14 1.063-5.484 2.875-1.344 1.797-2.016 4.484-2.016 7.625 0 3.14.664 5.398 1.992 7.21 1.344 1.798 3.18 2.79 5.508 2.79 2.297 0 4.117-1 5.46-2.813s2.04-4.062 2.04-7.187c0-3.11-.695-5.79-2.04-7.602-1.343-1.828-3.163-2.898-5.46-2.898zm0-3.5c3.75 0 6.695 1.219 8.836 3.656 2.14 2.438 3.164 6.031 3.164 10.344 0 4.297-1.023 7.453-3.164 9.906-2.14 2.438-5.086 3.594-8.836 3.594-3.766 0-6.719-1.156-8.86-3.594-2.124-2.453-3.14-5.609-3.14-9.906 0-4.312 1.016-7.906 3.14-10.344 2.141-2.437 5.094-3.656 8.86-3.656zm2-9.5h5v5h-5zm-9 0h5v5h-5z" fill="#393634" fill-opacity=".8"/><rect x="353" y="197" width="75" height="75" ry="8" fill="#dedede"/><rect x="353.5" y="197.5" width="74" height="74" ry="7.5" fill="none" stroke="#0d0d0d" stroke-linecap="round" stroke-opacity=".5"/><path d="M391 239v2h-20c.188 2.969.914 5.496 2.508 7.059 1.61 1.547 3.633 2.441 6.492 2.441 1.656 0 3.469-.324 5.016-.73 1.562-.407 3.453-.958 4.984-1.77v4c-1.547.656-3.477 1.176-5.102 1.52s-3.226.48-4.898.48c-4.188 0-7.555-1.184-10.008-3.621-2.438-2.438-3.492-5.723-3.492-9.879 0-4.297.992-7.715 3.304-10.23 2.329-2.531 5.508-3.77 9.446-3.77 3.531 0 6.273 1.114 8.32 3.395 2.063 2.266 3.43 5.2 3.43 9.105zm-4-1c-.031-2.36-1.344-4.356-2.64-5.762-1.282-1.406-2.985-2.238-5.11-2.238-2.406 0-4.336.809-5.79 2.168-1.437 1.36-2.241 3.363-2.46 5.832zm-9.75-23h3.5l5.75 9h-3.25l-4.25-6-4.25 6h-3.25z" fill="#393634" fill-opacity=".8"/></g></svg>