<svg version="1.0" viewBox="0 0 128 128" xmlns="http://www.w3.org/2000/svg"><g transform="translate(-312 444)"><rect x="320" y="-416" width="112" height="88" ry="8" fill="#6f6f6f"/><rect x="321" y="-415" width="110" height="83" ry="7.5" fill="#dedede"/><rect x="325" y="-411" width="102" height="69" ry="1" fill="#45454f"/><rect x="325" y="-411" width="102" height="69" ry="1" fill="#48b9c7"/><path d="M330-405v16h4v-12h16v-4h-16zm72 0v4h16v12h4v-16h-4zm-72 43v16h20v-4h-16v-12zm88 0v12h-16v4h20v-16z" fill-opacity=".196"/><path d="M330-406v16h4v-12h16v-4h-16zm72 0v4h16v12h4v-16h-4zm-72 43v16h20v-4h-16v-12zm88 0v12h-16v4h20v-16z" fill="#fff" fill-opacity=".989"/></g></svg>