<svg version="1.0" viewBox="0 0 128 128" xmlns="http://www.w3.org/2000/svg"><g transform="translate(-312 -156)"><rect x="316" y="160" width="120" height="124" ry="60" fill="#7b7b7b"/><rect x="316" y="160" width="120" height="120" ry="60" fill="#f6f6f6"/><rect x="316.5" y="160.5" width="119" height="119" ry="59.5" fill="none" stroke="#000" stroke-linecap="round" stroke-opacity=".502"/><rect transform="rotate(60)" x="378.03" y="-263.63" width="2" height="10" ry="1" fill="#333"/><rect transform="rotate(30)" x="435.13" y="-45.474" width="2" height="10" ry="1" fill="#333"/><rect x="375" y="170" width="4" height="16" ry="2" fill="#333"/><rect transform="rotate(-30)" x="215.13" y="330.53" width="2" height="10" ry="1" fill="#333"/><rect transform="rotate(-60)" x="-3.026" y="387.63" width="2" height="10" ry="1" fill="#333"/><rect transform="rotate(-90)" x="-221" y="326" width="4" height="16" ry="2" fill="#333"/><rect transform="rotate(240)" x="-379.03" y="167.63" width="2" height="10" ry="1" fill="#333"/><rect transform="rotate(210)" x="-436.13" y="-50.526" width="2" height="10" ry="1" fill="#333"/><rect transform="scale(-1)" x="-377" y="-270" width="4" height="16" ry="2" fill="#333"/><rect transform="rotate(150)" x="-216.13" y="-426.53" width="2" height="10" ry="1" fill="#333"/><rect transform="rotate(120)" x="2.026" y="-483.63" width="2" height="10" ry="1" fill="#333"/><rect transform="rotate(90)" x="219" y="-426" width="4" height="16" ry="2" fill="#333"/><path d="M377.63 224.65a4 4 0 0 0 .358-.185l28.975-15.064a2 2 0 0 0 1.014-2.64 2 2 0 0 0-2.641-1.014l-30.539 11.437a4 4 0 0 0-.421.158 4 4 0 0 0-2.028 5.28 4 4 0 0 0 5.281 2.028z" fill-opacity=".502"/><path d="M377.63 223.65a4 4 0 0 0 .358-.185l28.975-15.064a2 2 0 0 0 1.014-2.64 2 2 0 0 0-2.641-1.014l-30.539 11.437a4 4 0 0 0-.421.158 4 4 0 0 0-2.028 5.28 4 4 0 0 0 5.281 2.028z" fill="#2b2928"/><path d="M372.35 222.63a4 4 0 0 0 .376.658l9.586 16.8a2 2 0 0 0 2.64 1.013 2 2 0 0 0 1.014-2.64l-6.057-18.326-.003-.012a4 4 0 0 0-.248-.747 4 4 0 0 0-5.28-2.027 4 4 0 0 0-2.028 5.28z" fill-opacity=".502"/><path d="M372.35 221.63a4 4 0 0 0 .376.658l9.586 16.8a2 2 0 0 0 2.64 1.013 2 2 0 0 0 1.014-2.64l-6.057-18.326-.003-.012a4 4 0 0 0-.248-.747 4 4 0 0 0-5.28-2.027 4 4 0 0 0-2.028 5.28z" fill="#474341"/><circle cx="376" cy="221" r="3" fill-opacity=".502"/><circle cx="376" cy="220" r="3" fill="#f6f6f6"/></g></svg>