<svg version="1.0" viewBox="0 0 128 128" xmlns="http://www.w3.org/2000/svg"><g transform="translate(-312 -156)"><rect x="488" y="52" width="208" height="212" ry="8" fill="#dedede"/><path d="M496.004 52c-4.432 0-8 3.568-8 8v196c0 4.432 3.568 8 8 8h192c4.432 0 8-3.568 8-8V60c0-4.432-3.568-8-8-8zm.5 1h191c4.155 0 7.5 3.345 7.5 7.5v191c0 4.155-3.345 7.5-7.5 7.5h-191a7.484 7.484 0 0 1-7.5-7.5v-191c0-4.155 3.345-7.5 7.5-7.5z" fill-opacity=".502"/><rect x="501" y="65.75" width="86" height="86" ry="7" fill-opacity=".5"/><rect x="597" y="65.75" width="86" height="86" ry="7" fill-opacity=".5"/><rect x="501" y="162.25" width="86" height="86" ry="7" fill-opacity=".5"/><rect x="597" y="159.75" width="86" height="88" ry="7" fill-opacity=".5"/><rect x="501" y="63.75" width="86" height="86" ry="7" fill="#aaa"/><rect x="597" y="63.75" width="86" height="86" ry="7" fill="#aaa"/><rect x="501" y="159.75" width="86" height="86" ry="7" fill="#aaa"/><rect x="597" y="159.75" width="86" height="86" ry="7" fill="#73c48f"/><rect x="324" y="168" width="104" height="107" ry="8" fill="#dedede"/><path d="M331.994 167.998c-4.432 0-8 3.568-8 8v91.006c0 4.432 3.568 8 8 8H420c4.432 0 8-3.568 8-8v-91.006c0-4.432-3.568-8-8-8zm.506 1.006h87c4.155 0 7.5 3.345 7.5 7.5v87c0 4.155-3.345 7.5-7.5 7.5h-87a7.484 7.484 0 0 1-7.5-7.5v-87c0-4.155 3.345-7.5 7.5-7.5z" fill-opacity=".502"/><rect x="331" y="176" width="43" height="43" ry="8" fill-opacity=".5"/><rect x="378" y="176" width="43" height="43" ry="8" fill-opacity=".5"/><rect x="331" y="223" width="43" height="43" ry="8" fill-opacity=".5"/><rect x="378" y="222" width="43" height="44" ry="8" fill-opacity=".5"/><rect x="331" y="175" width="43" height="43" ry="8" fill="#aaa"/><rect x="378" y="175" width="43" height="43" ry="8" fill="#aaa"/><rect x="331" y="222" width="43" height="43" ry="8" fill="#aaa"/><rect x="378" y="222" width="43" height="43" ry="8" fill="#73c48f"/><rect x="230" y="226" width="52" height="54" ry="4" fill="#dedede"/><path d="M234.004 225.998c-2.216 0-4 1.784-4 4v46c0 2.216 1.784 4 4 4h44c2.216 0 4-1.784 4-4v-46c0-2.216-1.784-4-4-4zm0 1h44c1.662 0 3 1.338 3 3v44c0 1.662-1.338 3-3 3h-44c-1.662 0-3-1.338-3-3v-44c0-1.662 1.338-3 3-3z" fill-opacity=".502"/><rect x="234" y="230" width="21" height="21" ry="4" fill-opacity=".5"/><rect x="257" y="230" width="21" height="21" ry="4" fill-opacity=".5"/><rect x="234" y="252" width="21" height="21" ry="4" fill-opacity=".5"/><rect x="257" y="252" width="21" height="21" ry="4" fill-opacity=".5"/><rect x="234" y="230" width="21" height="20" ry="4" fill="#aaa"/><rect x="257" y="230" width="21" height="20" ry="4" fill="#aaa"/><rect x="234" y="252" width="21" height="20" ry="4" fill="#aaa"/><rect x="257" y="252" width="21" height="20" ry="4" fill="#73c48f"/><rect x="103" y="255" width="26" height="27" ry="2" fill="#dedede"/><path d="M105.001 254.998c-1.108 0-2 .892-2 2v23c0 1.108.892 2 2 2h22c1.108 0 2-.892 2-2v-23c0-1.108-.892-2-2-2zm.5 1h21c.831 0 1.5.67 1.5 1.5v21c0 .831-.669 1.5-1.5 1.5h-21c-.831 0-1.5-.669-1.5-1.5v-21c0-.83.669-1.5 1.5-1.5z" fill-opacity=".502"/><rect x="105" y="257" width="10" height="10" ry="2" fill-opacity=".5"/><rect x="117" y="257" width="10" height="10" ry="2" fill-opacity=".5"/><rect x="105" y="269" width="10" height="10" ry="2" fill-opacity=".5"/><rect x="117" y="269" width="10" height="10" ry="2" fill-opacity=".5"/><rect x="105" y="257" width="10" height="9" ry="2" fill="#aaa"/><rect x="117" y="257" width="10" height="9" ry="2" fill="#aaa"/><rect x="105" y="269" width="10" height="9" ry="2" fill="#aaa"/><rect x="117" y="269" width="10" height="9" ry="2" fill="#73c48f"/><rect x="160" y="240" width="40" height="41" ry="4" fill="#dedede"/><path d="M164.004 239.998c-2.216 0-4 1.784-4 4v33c0 2.216 1.784 4 4 4h32c2.216 0 4-1.784 4-4v-33c0-2.216-1.784-4-4-4zm.5 1h31c1.939 0 3.5 1.561 3.5 3.5v30c0 1.94-1.561 3.5-3.5 3.5h-31a3.492 3.492 0 0 1-3.5-3.5v-30c0-1.939 1.561-3.5 3.5-3.5z" fill-opacity=".502"/><rect x="163" y="242" width="16" height="17" ry="3.182" fill-opacity=".5"/><rect x="181" y="242" width="16" height="17" ry="3.182" fill-opacity=".5"/><rect x="163" y="260" width="16" height="17" ry="3.182" fill-opacity=".5"/><rect x="181" y="260" width="16" height="17" ry="3.182" fill-opacity=".5"/><rect x="163" y="242" width="16" height="16" ry="3.182" fill="#aaa"/><rect x="181" y="242" width="16" height="16" ry="3.182" fill="#aaa"/><rect x="163" y="260" width="16" height="16" ry="3.182" fill="#aaa"/><rect x="181" y="260" width="16" height="16" ry="3.182" fill="#73c48f"/><rect x="57" y="261" width="22" height="22" ry="2" fill="#dedede"/><rect x="17" y="269" width="14" height="14" ry="1" fill="#dedede"/><rect x="18" y="270" width="5" height="5" ry="0" fill="#aaa"/><rect x="25" y="277" width="5" height="5" ry="0" fill="#73c48f"/><rect x="18" y="277" width="5" height="5" ry="0" fill="#aaa"/><rect x="25" y="270" width="5" height="5" ry="0" fill="#aaa"/><rect x="58" y="262" width="9" height="9" rx="1" ry="0" fill="#aaa"/><rect x="69" y="262" width="9" height="9" rx="1" fill="#aaa"/><rect x="69" y="273" width="9" height="9" rx="1" fill="#73c48f"/><rect x="58" y="273" width="9" height="9" rx="1" fill="#aaa"/><g fill-opacity=".196"><path d="M548 79v26h26v8h-26v26h-8v-26h-26v-8h26V79z"/><path d="M667 87.5 645.5 109l21.5 21.5-5.5 5.5-21.5-21.5-21.5 21.5-5.5-5.5 21.5-21.5L613 87.5l5.5-5.5 21.5 21.5L661.5 82z"/><path d="M538 182h12v11h-12zm0 35h12v11h-12zm-24-16h60v8h-60z"/><path d="M612 191h56v8h-56zm0 20h56v8h-56z"/><path d="M355 184v11h11v5h-11v11h-5v-11h-11v-5h11v-11z"/><path d="m413 187-10.5 10.5L413 208l-3 3-10.5-10.5L389 211l-3-3 10.5-10.5L386 187l3-3 10.5 10.5L410 184z"/><path d="M349 233h7v6h-7zm0 17h7v6h-7zm-12-8h31v5h-31z"/><path d="M385 237h29v5h-29zm0 10h29v5h-29z"/><path d="M246 235v5h5v3h-5v5h-3v-5h-5v-3h5v-5z"/><path d="m274.5 236.5-5 5 5 5-2 2-5-5-5 5-2-2 5-5-5-5 2-2 5 5 5-5z"/><path d="M243 257h3v3h-3zm0 10h3v3h-3zm-6-5h15v3h-15z"/><path d="M261 259h13v3h-13zm0 6h13v3h-13z"/><path d="M111 260v2h2v1h-2v2h-2v-2h-2v-1h2v-2z"/><path d="m125.5 260.5-2 2 2 2-1.5 1.5-2-2-2 2-1.5-1.5 2-2-2-2 1.5-1.5 2 2 2-2z"/><path d="M109 271h2v2h-2zm0 5h2v2h-2zm-3-2h8v1h-8z"/><path d="M119 272h6v2h-6zm0 3h6v2h-6z"/><path d="M172 246v4h4v2h-4v4h-2v-4h-4v-2h4v-4z"/><path d="m194.5 247-4 4 4 4-1.5 1.5-4-4-4 4-1.5-1.5 4-4-4-4 1.5-1.5 4 4 4-4z"/><path d="M170 264h2v2h-2zm0 8h2v2h-2zm-5-4h12v2h-12z"/><path d="M184 266h10v2h-10zm0 4h10v2h-10z"/><path d="M63 265v2h2v1h-2v2h-1v-2h-2v-1h2v-2z"/><path d="m76.5 265.5-2 2 2 2-1 1-2-2-2 2-1-1 2-2-2-2 1-1 2 2 2-2z"/><path d="M62 275h1v2h-1zm0 5h1v2h-1zm-3-2h7v1h-7z"/><path d="M71 276h5v2h-5zm0 3h5v2h-5z"/></g><path d="M548 78v26h26v8h-26v26h-8v-26h-26v-8h26V78z" fill="#fff"/><path d="M667 86.5 645.5 108l21.5 21.5-5.5 5.5-21.5-21.5-21.5 21.5-5.5-5.5 21.5-21.5L613 86.5l5.5-5.5 21.5 21.5L661.5 81z" fill="#fff"/><path d="M538 181h12v11h-12zm0 35h12v11h-12zm-24-16h60v8h-60z" fill="#fff"/><path d="M612 190h56v8h-56zm0 20h56v8h-56z" fill="#fbfbfb"/><path d="M355 183v11h11v5h-11v11h-5v-11h-11v-5h11v-11z" fill="#fff"/><path d="m413 186-10.5 10.5L413 207l-3 3-10.5-10.5L389 210l-3-3 10.5-10.5L386 186l3-3 10.5 10.5L410 183z" fill="#fff"/><path d="M349 232h7v6h-7zm0 17h7v6h-7zm-12-8h31v5h-31z" fill="#fff"/><path d="M385 236h29v5h-29zm0 10h29v5h-29z" fill="#fbfbfb"/><path d="M246 234v5h5v3h-5v5h-3v-5h-5v-3h5v-5z" fill="#fff"/><path d="m274.5 235.5-5 5 5 5-2 2-5-5-5 5-2-2 5-5-5-5 2-2 5 5 5-5z" fill="#fff"/><path d="M243 256h3v3h-3zm0 10h3v3h-3zm-6-5h15v3h-15z" fill="#fff"/><path d="M261 258h13v3h-13zm0 6h13v3h-13z" fill="#fbfbfb"/><path d="M111 258v2h2v2h-2v2h-2v-2h-2v-2h2v-2z" fill="#fff"/><path d="m125.5 259.5-2 2 2 2-1.5 1.5-2-2-2 2-1.5-1.5 2-2-2-2 1.5-1.5 2 2 2-2z" fill="#fff"/><path d="M109 270h2v2h-2zm0 5h2v2h-2zm-3-2h8v1h-8z" fill="#fff"/><path d="M119 271h6v2h-6zm0 3h6v2h-6z" fill="#fbfbfb"/><path d="M172 245v4h4v2h-4v4h-2v-4h-4v-2h4v-4z" fill="#fff"/><path d="m194.5 246-4 4 4 4-1.5 1.5-4-4-4 4-1.5-1.5 4-4-4-4 1.5-1.5 4 4 4-4z" fill="#fff"/><path d="M170 263h2v2h-2zm0 8h2v2h-2zm-5-4h12v2h-12z" fill="#fff"/><path d="M184 265h10v2h-10zm0 4h10v2h-10z" fill="#fbfbfb"/><path d="M63 264v2h2v1h-2v2h-1v-2h-2v-1h2v-2z" fill="#fff"/><path d="m76.5 264.5-2 2 2 2-1 1-2-2-2 2-1-1 2-2-2-2 1-1 2 2 2-2z" fill="#fff"/><path d="M62 274h1v2h-1zm0 5h1v2h-1zm-3-2h7v1h-7z" fill="#fff"/><path d="M71 275h5v2h-5zm0 3h5v2h-5z" fill="#fbfbfb"/><path d="M20 271v1h-1v1h1v1h1v-1h1v-1h-1v-1z" fill="#fff"/><path d="m25.5 274 .5.5 1.5-1.5 1.5 1.5.5-.5-1.5-1.5 1.5-1.5-.5-.5-1.5 1.5-1.5-1.5-.5.5 1.5 1.5z" fill="#fff"/><path d="M19 279v1h3v-1z" fill="#fff"/><path d="M20 277.5h1v1h-1z" fill="#fff"/><path d="M20 280.5h1v1h-1z" fill="#fff"/><path d="M26 278h3v1h-3z" fill="#fff"/><path d="M26 280h3v1h-3z" fill="#fff"/><path d="M59.001 260.998c-1.108 0-2 .892-2 2v18c0 1.108.892 2 2 2h18c1.108 0 2-.892 2-2v-18c0-1.108-.892-2-2-2zm0 1h18c.554 0 1 .446 1 1v18c0 .554-.446 1-1 1h-18c-.554 0-1-.446-1-1v-18c0-.554.446-1 1-1z" fill-opacity=".502"/><path d="M18.001 268.998c-.554 0-1 .446-1 1v12c0 .554.446 1 1 1h12c.554 0 1-.446 1-1v-12c0-.554-.446-1-1-1zm0 1h12v12h-12z" fill-opacity=".502"/></g></svg>