<svg version="1.0" viewBox="0 0 128 128" xmlns="http://www.w3.org/2000/svg"><g transform="translate(-312 -156)"><rect x="324" y="168" width="104" height="104" ry="8.5" fill="#4f4b49"/><rect x="325" y="169" width="102" height="99" ry="8" fill="#9f9792"/><path d="m370.75 195-.463 5.531a16.5 16.5 0 0 0-4.822 2.79l-5.027-2.368-5.25 9.094 4.564 3.17A16.5 16.5 0 0 0 359.5 216a16.5 16.5 0 0 0 .24 2.795l-4.553 3.158 5.25 9.094 5.016-2.361a16.5 16.5 0 0 0 4.834 2.771l.463 5.543h10.5l.463-5.531a16.5 16.5 0 0 0 4.822-2.79l5.027 2.368 5.25-9.094-4.564-3.17A16.5 16.5 0 0 0 392.5 216a16.5 16.5 0 0 0-.24-2.795l4.552-3.158-5.25-9.094-5.015 2.362a16.5 16.5 0 0 0-4.834-2.772L381.25 195zm5.25 15a6 6 0 0 1 6 6 6 6 0 0 1-6 6 6 6 0 0 1-6-6 6 6 0 0 1 6-6z" fill="#2b2928"/></g></svg>