<svg version="1.0" viewBox="0 0 128 128" xmlns="http://www.w3.org/2000/svg"><g transform="translate(-1048 144)"><g transform="translate(736 -300)"><rect x="331" y="163" width="90" height="117" ry="8.5" fill="#565656"/><rect x="332" y="164" width="88" height="112" ry="8" fill="#acacac"/><circle cx="376" cy="208" r="28" fill="#444"/><path fill="#444" d="M348 208h28v22h-28z"/><path fill="#444" d="M376 208v28h-22v-28z"/><rect x="348" y="208" width="28" height="28" ry="4" fill="#444"/><circle cx="376" cy="208" r="14" fill="#acacac"/></g><rect x="1118" y="-77" width="58" height="61" ry="29" fill="#552d5d"/><circle cx="1147" cy="-48" r="28" fill="#aa5abb"/><path d="m1143.5-62-.309 3.688a11 11 0 0 0-3.214 1.859l-3.352-1.578-3.5 6.062 3.043 2.114A11 11 0 0 0 1136-48a11 11 0 0 0 .16 1.863l-3.035 2.106 3.5 6.062 3.344-1.574a11 11 0 0 0 3.222 1.848L1143.5-34h7l.308-3.687a11 11 0 0 0 3.215-1.86l3.352 1.578 3.5-6.062-3.043-2.113A11 11 0 0 0 1158-48a11 11 0 0 0-.16-1.863l3.035-2.106-3.5-6.062-3.344 1.574a11 11 0 0 0-3.222-1.848L1150.5-62zm3.5 10a4 4 0 0 1 4 4 4 4 0 0 1-4 4 4 4 0 0 1-4-4 4 4 0 0 1 4-4z" fill="#fafafb"/></g></svg>