<svg version="1.0" viewBox="0 0 128 128" xmlns="http://www.w3.org/2000/svg"><g transform="translate(-1048 744)"><g transform="translate(736 -900)"><rect x="331" y="163" width="90" height="117" ry="8.5" fill="#565656"/><rect x="332" y="164" width="88" height="112" ry="8" fill="#acacac"/><circle cx="376" cy="208" r="28" fill="#444"/><path fill="#444" d="M348 208h28v22h-28z"/><path fill="#444" d="M376 208v28h-22v-28z"/><rect x="348" y="208" width="28" height="28" ry="4" fill="#444"/><circle cx="376" cy="208" r="14" fill="#acacac"/></g><rect x="1118" y="-677" width="58" height="61" ry="29" fill="#245c63"/><path d="M1124.8-666.65c-4.226 5.036-6.768 11.536-6.768 18.654v3c0 8.25 3.416 15.67 8.91 20.941l20.09-23.941z" fill="#7f3c1f"/><path d="m1147-648-20.088 23.941A28.9 28.9 0 0 0 1147-616c16.066 0 29-12.934 29-29v-3z" fill="#396247"/><path d="M1175-648a28 28 0 0 1-16.167 25.377 28 28 0 0 1-29.831-3.927L1147-648z" fill="#73c48f"/><path d="M1129-626.55a28 28 0 0 1-9.895-19.009 28 28 0 0 1 6.444-20.438l21.449 17.998z" fill="#ff793e"/><path d="M1125.6-666a28 28 0 0 1 31.026-8.313 28 28 0 0 1 18.423 26.31h-28z" fill="#48b9c7"/><circle cx="1147" cy="-648" r="18" fill="#fff"/></g></svg>