<svg version="1.0" viewBox="0 0 128 128" xmlns="http://www.w3.org/2000/svg"><g transform="translate(-312 144)"><rect x="316" y="-140" width="120" height="123" ry="60" fill="#cdcdcd"/><path d="M376-140c-33.24 0-60 26.76-60 60v3c0 33.24 26.76 60 60 60s60-26.76 60-60v-3c0-33.24-26.76-60-60-60zm0 1c32.686 0 59 26.314 59 59s-26.314 59-59 59-59-26.314-59-59 26.314-59 59-59z" fill-opacity=".5"/><circle cx="376" cy="-80" r="20.5" fill="none" stroke="#000" stroke-linecap="square" stroke-opacity=".5"/><circle cx="376" cy="-80" r="20" fill-opacity=".2"/><circle cx="376" cy="-80" r="8" fill-opacity=".8"/><rect x="374" y="-85" width="66" height="69" ry="33" fill="#f15d22"/><path d="M407-85c-18.282 0-33 14.718-33 33v3c0 18.282 14.718 33 33 33s33-14.718 33-33v-3c0-18.282-14.718-33-33-33zm0 1a32 32 0 0 1 32 32 32 32 0 0 1-32 32 32 32 0 0 1-32-32 32 32 0 0 1 32-32z" fill-opacity=".5"/><path d="M406.46-37.626c-3.338 0-6.02-2.644-6.02-5.888 0-3.038 1.932-5.176 5.251-5.851 3.32-.675 6.751-2.27 8.664-4.838.731 2.419 1.088 4.969 1.088 7.576 0 4.95-4.014 9.001-8.983 9.001M409.817-72s1.387 4.97 1.387 9.002c0 3.863-2.531 6.994-6.394 6.994-3.882 0-6.808-3.131-6.808-6.994l.057-.694c-3.788 4.5-6.057 10.333-6.057 16.69A15.002 15.002 0 0 0 407.004-32a15.002 15.002 0 0 0 15.002-15.002c0-10.127-4.857-19.128-12.19-24.998z" fill="#fff"/></g></svg>