<svg enable-background="new" version="1.0" viewBox="0 0 128 128" xmlns="http://www.w3.org/2000/svg"><defs><filter id="a" x="0" y="0" width="1" height="1" color-interpolation-filters="sRGB"><feBlend in2="BackgroundImage" mode="darken"/></filter></defs><g filter="url(#a)" transform="translate(-312 -156)"><rect x="103" y="255" width="26" height="26" ry="2.5" fill="#5c0b2a"/><rect x="104" y="256" width="24" height="23" ry="2" fill="#ad154f"/><rect x="57" y="261" width="22" height="22" ry="2.5" fill="#5c0b2a"/><rect x="58" y="262" width="20" height="20" ry="2" fill="#ad154f"/><rect x="18" y="269" width="13" height="14" ry="2.5" fill="#5c0b2a"/><rect x="19" y="270" width="11" height="12" ry="2" fill="#ad154f"/><rect x="230" y="226" width="52" height="52" ry="4.5" fill="#5c0b2a"/><rect x="231" y="227" width="50" height="48" ry="4" fill="#ad154f"/><rect x="160" y="240" width="40" height="39" ry="3.5" fill="#5c0b2a"/><rect x="161" y="241" width="38" height="35" ry="3" fill="#ad154f"/><rect x="324" y="168" width="104" height="104" ry="8.5" fill="#5c0b2a"/><rect x="325" y="169" width="102" height="99" ry="8" fill="#ad154f"/><rect x="488" y="52" width="208" height="208" ry="16.5" fill="#5c0b2a"/><rect x="489" y="53" width="206" height="202" ry="16" fill="#ad154f"/><path d="M112 260c-.554 0-1 .446-1 1v1h-2c-.554 0-1 .446-1 1v8c0 .554.446 1 1 1h2v1c0 .554.446 1 1 1s1-.446 1-1v-1h2v1c0 .554.446 1 1 1s1-.446 1-1v-1h2v1c0 .554.446 1 1 1s1-.446 1-1v-1h2c.554 0 1-.446 1-1v-8c0-.554-.446-1-1-1h-2v-1c0-.554-.446-1-1-1s-1 .446-1 1v1h-2v-1c0-.554-.446-1-1-1s-1 .446-1 1v1h-2v-1c0-.554-.446-1-1-1zm-2 4h12v1a2 2 0 0 0-2 2 2 2 0 0 0 2 2v1h-12z" enable-background="new" fill="#fff"/><path d="M174.5 248c-.831 0-1.412.674-1.5 1.5v1.5h-2.5c-.831 0-1.5.669-1.5 1.5v12c0 .831.669 1.5 1.5 1.5h2.5v1.5c0 .831.669 1.5 1.5 1.5s1.584-.673 1.5-1.5V266h3v1.5c0 .831.669 1.5 1.5 1.5s1.5-.669 1.5-1.5V266h3v1.5c0 .831.669 1.5 1.5 1.5s1.5-.669 1.5-1.5V266h2.5c.831 0 1.5-.669 1.5-1.5v-12c0-.831-.669-1.5-1.5-1.5H188v-1.5c0-.831-.669-1.5-1.5-1.5s-1.5.669-1.5 1.5v1.5h-3v-1.5c0-.831-.669-1.5-1.5-1.5s-1.5.669-1.5 1.5v1.5h-3v-1.5c0-.831-.669-1.5-1.5-1.5zm-2.5 6h17v1.5a3 3 0 0 0 0 6v1.5h-17z" enable-background="new" fill="#fff"/><path d="M250.5 240c-.831 0-1.412.674-1.5 1.5v1.5h-2.5c-.831 0-1.5.669-1.5 1.5v12c0 .831.669 1.5 1.5 1.5h2.5v1.5c0 .831.669 1.5 1.5 1.5s1.584-.673 1.5-1.5V258h3v1.5c0 .831.669 1.5 1.5 1.5s1.5-.669 1.5-1.5V258h3v1.5c0 .831.669 1.5 1.5 1.5s1.5-.669 1.5-1.5V258h2.5c.831 0 1.5-.669 1.5-1.5v-12c0-.831-.669-1.5-1.5-1.5H264v-1.5c0-.831-.669-1.5-1.5-1.5s-1.5.669-1.5 1.5v1.5h-3v-1.5c0-.831-.669-1.5-1.5-1.5s-1.5.669-1.5 1.5v1.5h-3v-1.5c0-.831-.669-1.5-1.5-1.5zm-2.5 6h17v1.5a3 3 0 0 0 0 6v1.5h-17z" enable-background="new" fill="#fff"/><path d="M364 197c-1.662 0-2.824 1.347-3 3v3h-5c-1.662 0-3 1.338-3 3v24c0 1.662 1.338 3 3 3h5v3c0 1.662 1.338 3 3 3s3.169-1.347 3-3v-3h6v3c0 1.662 1.338 3 3 3s3-1.338 3-3v-3h6v3c0 1.662 1.338 3 3 3s3-1.338 3-3v-3h5c1.662 0 3-1.338 3-3v-24c0-1.662-1.338-3-3-3h-5v-3c0-1.662-1.338-3-3-3s-3 1.338-3 3v3h-6v-3c0-1.662-1.338-3-3-3s-3 1.338-3 3v3h-6v-3c0-1.662-1.338-3-3-3zm-5 12h34v3a6 6 0 0 0 0 12v3h-34z" enable-background="new" fill="#fff"/><path d="M568 112c-3.324 0-5.648 2.695-6 6v6h-10c-3.324 0-6 2.676-6 6v48c0 3.324 2.676 6 6 6h10v6c0 3.324 2.676 6 6 6s6.337-2.693 6-6v-6h12v6c0 3.324 2.676 6 6 6s6-2.676 6-6v-6h12v6c0 3.324 2.676 6 6 6s6-2.676 6-6v-6h10c3.324 0 6-2.676 6-6v-48c0-3.324-2.676-6-6-6h-10v-6c0-3.324-2.676-6-6-6s-6 2.676-6 6v6h-12v-6c0-3.324-2.676-6-6-6s-6 2.676-6 6v6h-12v-6c0-3.324-2.676-6-6-6zm-10 24h68v6c-6.627 0-12 5.373-12 12s5.373 12 12 12v6h-68z" enable-background="new" fill="#fff"/><path d="M64 265c-.554 0-1 .446-1 1v1h-2c-.554 0-1 .446-1 1v8c0 .554.446 1 1 1h2v1c0 .554.446 1 1 1s1-.446 1-1v-1h2v1c0 .554.446 1 1 1s1-.446 1-1v-1h2v1c0 .554.446 1 1 1s1-.446 1-1v-1h2c.554 0 1-.446 1-1v-8c0-.554-.446-1-1-1h-2v-1c0-.554-.446-1-1-1s-1 .446-1 1v1h-2v-1c0-.554-.446-1-1-1s-1 .446-1 1v1h-2v-1c0-.554-.446-1-1-1zm-2 4h12v1a2 2 0 0 0-2 2 2 2 0 0 0 2 2v1H62z" enable-background="new" fill="#fff"/><path d="M22.5 272c-.277 0-.43.232-.5.5v.5h-1.5c-.277 0-.5.223-.5.5v5c0 .277.223.5.5.5H22v.5a.499.499 0 1 0 1 0v-.5h1v.5c0 .277.223.5.5.5s.55-.227.5-.5v-.5h1v.5a.499.499 0 1 0 1 0v-.5h1.5c.277 0 .5-.223.5-.5v-5c0-.277-.223-.5-.5-.5H27v-.5c0-.277-.223-.5-.5-.5s-.58.235-.5.5v.5h-1v-.5c0-.277-.223-.5-.5-.5s-.447.228-.5.5v.5h-1v-.5c0-.277-.223-.5-.5-.5zm-1.5 2h7v1a1 1 0 0 0 0 2v1h-7z" enable-background="new" fill="#fff"/></g></svg>