<svg enable-background="new" version="1.0" viewBox="0 0 128 128" xmlns="http://www.w3.org/2000/svg"><defs><filter id="a" x="0" y="0" width="1" height="1" color-interpolation-filters="sRGB"><feBlend in2="BackgroundImage" mode="darken"/></filter></defs><g filter="url(#a)" transform="translate(-312 -156)"><rect x="324" y="168" width="104" height="104" ry="8.5" fill="#5c0b2a"/><rect x="325" y="169" width="102" height="99" ry="8" fill="#ad154f"/><path d="M364 197c-1.662 0-2.824 1.347-3 3v3h-5c-1.662 0-3 1.338-3 3v24c0 1.662 1.338 3 3 3h5v3c0 1.662 1.338 3 3 3s3.169-1.347 3-3v-3h6v3c0 1.662 1.338 3 3 3s3-1.338 3-3v-3h6v3c0 1.662 1.338 3 3 3s3-1.338 3-3v-3h5c1.662 0 3-1.338 3-3v-24c0-1.662-1.338-3-3-3h-5v-3c0-1.662-1.338-3-3-3s-3 1.338-3 3v3h-6v-3c0-1.662-1.338-3-3-3s-3 1.338-3 3v3h-6v-3c0-1.662-1.338-3-3-3zm-5 12h34v3a6 6 0 0 0 0 12v3h-34z" enable-background="new" fill="#fff"/></g></svg>