<svg version="1.0" viewBox="0 0 128 128" xmlns="http://www.w3.org/2000/svg"><g fill="#306ab8"><path d="M38 66h11v-9l-9.763.03c-.86-.01-1.28-.208-1.237-1.265l-.015-8.77L51 47v-9c-7.463.531-14.514 1.466-22 2v43c7.328.87 14.661 2.129 22 3v-9c-4.433-.386-8.671-1.124-13-1.5zm32.127 50C50.72 112.396 31.408 108.604 12 105V23c19.332-3.59 38.549-7.39 58-11v104"/><path d="M100.02 59.58c.9.672 1.797 1.313 2.661 2 .634.502 1.094.319 1.583-.237a375.525 375.525 0 0 1 4.186-4.654c.46-.504.576-1.09.574-1.766-.012-4.154-.007-8.309.012-12.463.006-1.281-.774-2.462-2.039-2.457-3.853.015-7.146.009-11 0-.868-.002-1.882.887-2.451 1.539-4.466 5.099-8.325 10.644-11.441 16.74-.492.962-.3 1.55.425 1.786 3.538-3.563 7.07-6.881 10.314-10.479 1.75-1.94 3.542-2.73 6.083-2.587 3.812.218 3.718.06 3.853 4.088.105 3.126.182 6.125-2.68 8.145-.03.02-.024.092-.08.345zm2.977 21.423c-1.792 0-3.837.019-5.5 0-2.607-.03-6.42-2.656-6.615-2.797L88.88 80.92c-.556.686-.36 1.22.23 1.774a140.111 140.111 0 0 1 4.16 4.044c.621.633 1.375 1.266 2.228 1.264 3.806-.005 7.695.04 11.5 0 1.782-.017 2.022-.822 2.024-2.646.004-3.612-.061-7.223.032-10.832.04-1.53-.43-2.671-1.515-3.63-4.79-4.232-9.79-8.147-15.366-11.22-.916-.505-1.599-.57-2.13.885.35.285.838.61 1.243 1.021a3304.87 3304.87 0 0 1 10.46 10.722c.432.445 1.249.97 1.252 1.7.01 2.316 0 4.35 0 7zm-27.022 6.732c2.752.293 4.04-1.78 5.456-3.622 3.655-4.751 7.177-9.597 9.685-15.114-.253-.502-.535-.88-.94-.98-2.323 2.354-4.61 4.648-6.87 6.967a276.025 276.025 0 0 0-5.013 5.275c-.62.671-1.285.975-2.266.71v-15.17c1.647.94 3.166 1.827 4.704 2.678 1.079.595 1.117.564 1.937-.611-1.959-2.05-3.923-4.113-5.898-6.163-.442-.459-.845-.882-.84-1.626.024-4.252.012-8.505.012-12.95 1.2.031 2.379-.497 3.418.426.858.763 1.656 1.602 2.537 2.46.967-.952 1.552-2.085 2.264-3.113.373-.536.079-.914-.293-1.277-1.562-1.522-3.125-3.041-4.679-4.572-.905-.893-2.119-.253-3.192-.676v-7.373l34.628-.034c3.77.003 5.372 1.705 5.372 5.61 0 16.975.002 33.407-.002 50.382 0 4.498-1.506 6.045-5.833 6.042H75.997"/></g></svg>