<svg version="1.0" viewBox="0 0 128 128" xmlns="http://www.w3.org/2000/svg"><g transform="translate(-312 -156)"><rect x="316" y="160" width="120" height="123" ry="60" fill="#1f285a"/><rect x="317" y="161" width="118" height="118" ry="59" fill="#3f51b5"/><path d="M376 161c-.708 0-1.41.028-2.111.053h-.004c-.565.02-1.129.044-1.69.08-.009 0-.018 0-.027.002-.193.012-.384.03-.576.045a58.23 58.23 0 0 0-5.873.725 41.997 41.997 0 0 0-.479.084c-.013.001-.026.004-.039.007-.628.116-1.254.238-1.875.373a58.774 58.774 0 0 0-6.225 1.72c-9.206 5.001-16.95 13.537-22.15 24.411h-8.882l-.008.014c-.383.607-.753 1.22-1.114 1.842l-.02.033-.116.205-.018.031a58.103 58.103 0 0 0-1.027 1.865l-.004.006-.002.004h9.402c-3.141 7.927-4.884 16.63-5.106 25.5H317.05c-.022.666-.05 1.33-.05 2s.028 1.335.05 2h11.027c.231 8.874 1.984 17.576 5.135 25.5h-9.453a57.876 57.876 0 0 0 1.033 1.875c.007.01.012.021.018.032.04.068.078.137.117.205l.02.033c.36.621.73 1.235 1.113 1.842l.004.006a.03.03 0 0 0 .004.008h8.897c5.079 10.7 12.622 19.16 21.607 24.234 0 0 .003 0 .004.002h.002a.202.202 0 0 1 .021.008l.04.011c.96.332 1.934.64 2.917.922l.155.043c.987.28 1.984.537 2.992.768.005 0 .009.003.013.004l.414.094c.635.14 1.273.27 1.915.39h.002c.133.025.267.047.4.07a59.066 59.066 0 0 0 6.174.776c.154.011.307.025.46.035.629.041 1.26.07 1.893.092.674.022 1.346.05 2.026.05.708 0 1.409-.028 2.111-.052h.004a60.8 60.8 0 0 0 1.69-.08l.027-.002c.193-.012.384-.031.576-.045.994-.073 1.98-.17 2.959-.291a58.23 58.23 0 0 0 2.914-.434l.104-.017.375-.067.039-.008a58.805 58.805 0 0 0 1.875-.373 58.774 58.774 0 0 0 6.224-1.718c9.206-5.003 16.951-13.538 22.15-24.412h8.883l.004-.008.004-.006c.382-.607.753-1.221 1.113-1.842l.155-.27c.352-.615.696-1.236 1.027-1.865l.004-.006.002-.004h-9.402c3.141-7.927 4.883-16.629 5.105-25.5h11.005c.022-.665.051-1.33.051-2s-.029-1.335-.05-2H423.92c-.23-8.874-1.983-17.576-5.135-25.5h9.454l-.002-.004-.004-.006c-.331-.63-.675-1.25-1.028-1.865l-.154-.27c-.36-.62-.731-1.235-1.113-1.842l-.004-.006-.004-.008h-8.897c-5.08-10.7-12.622-19.16-21.607-24.234-.002 0-.004 0-.006-.002a.202.202 0 0 1-.021-.008l-.04-.011a57.808 57.808 0 0 0-2.918-.922c-.05-.015-.102-.028-.154-.043a59.687 59.687 0 0 0-2.992-.768c-.005 0-.009-.003-.014-.004-.138-.031-.275-.063-.414-.093a60.018 60.018 0 0 0-1.914-.391h-.002c-.133-.025-.267-.046-.4-.07a59.066 59.066 0 0 0-6.174-.776c-.154-.01-.307-.025-.461-.035-.628-.04-1.26-.07-1.893-.092-.672-.022-1.345-.05-2.024-.05zm2 2.291c5.963 1.72 11.342 10.972 14.654 25.209H378zm-4 .037V188.5h-14.654c3.315-14.223 8.693-23.46 14.654-25.172zm11.906 1.194c10.924 3.296 20.464 11.874 26.67 23.979h-16.078c-2.5-10.524-6.191-18.882-10.592-23.98zm-19.848.025c-4.4 5.09-8.092 13.439-10.594 23.953h-16.066c6.207-12.092 15.743-20.66 26.66-23.953zM337.499 192.5h17.117c-1.587 7.917-2.474 16.62-2.6 25.5h-19.939c.24-8.933 2.097-17.668 5.422-25.5zm20.986 0h15.514V218h-17.965c.104-8.93.944-17.665 2.451-25.5zm19.514 0h15.494c1.517 7.828 2.367 16.563 2.48 25.5h-17.975zm19.377 0h17.08c3.356 7.822 5.242 16.558 5.508 25.5h-20.006c-.12-8.877-1.001-17.58-2.582-25.5zM332.034 222h20.006c.12 8.876 1.001 17.579 2.582 25.5h-17.08c-3.356-7.822-5.242-16.558-5.508-25.5zm23.99 0h17.975v25.5h-15.494c-1.517-7.828-2.367-16.563-2.48-25.5zm21.975 0h17.965c-.104 8.93-.944 17.665-2.451 25.5h-15.514zm21.982 0h19.939c-.239 8.933-2.096 17.668-5.422 25.5h-17.117c1.587-7.917 2.474-16.62 2.6-25.5zm-60.559 29.5H355.5c2.5 10.523 6.191 18.88 10.592 23.979-10.924-3.297-20.464-11.874-26.67-23.98zm19.922 0h14.654v25.209c-5.963-1.72-11.342-10.972-14.654-25.21zm18.654 0h14.654c-3.315 14.223-8.693 23.46-14.654 25.172zm18.535 0h16.066c-6.207 12.092-15.743 20.66-26.66 23.953 4.4-5.09 8.092-13.44 10.594-23.953z" fill="#94a6ff"/></g></svg>