<svg version="1.0" viewBox="0 0 128 128" xmlns="http://www.w3.org/2000/svg"><g transform="translate(-312 -156)"><rect x="320" y="184" width="112" height="90" ry="6" fill="#a27100"/><rect x="320" y="184" width="112" height="88" ry="6" fill="#ffce51"/><path d="M326 272h100c3.324 0 6-2.676 6-6l-56-81-56 81c0 3.324 2.676 6 6 6z" fill="#c29a32"/><path d="M432 190v2l-56 46-56-46v-2z" fill-opacity=".196"/><path d="M326 184h100c3.324 0 6 2.676 6 6l-56 46-56-46c0-3.324 2.676-6 6-6z" fill="#ffee7d"/><rect x="320.5" y="184.5" width="111" height="87" ry="5.5" fill="none" stroke="#303030" stroke-linecap="round" stroke-linejoin="round" stroke-opacity=".392"/></g></svg>