<svg version="1.0" viewBox="0 0 128 128" xmlns="http://www.w3.org/2000/svg"><g transform="translate(-312 -156)"><rect x="324" y="168" width="96" height="88" ry="8.5" fill="#396247"/><rect x="325" y="169" width="94" height="83" ry="8" fill="#73c48f"/><g transform="matrix(4 0 0 4 -628 1560)" fill="#fff"><rect x="243" y="-334.5" width="9" height="1" ry=".456"/><rect x="243" y="-337.5" width="14" height="1" ry=".456"/><rect x="243" y="-340.5" width="14" height="1" ry=".456"/><rect x="243" y="-343.5" width="14" height="1" ry=".456"/></g><rect x="356" y="204" width="72" height="68" ry="8.5" fill="#245c63"/><rect x="357" y="205" width="70" height="63" ry="8" fill="#48b9c7"/><g fill="#fff" transform="matrix(3 0 0 3 178.5 -593.5)"><circle cx="67.167" cy="276.5" r="1.333"/><circle cx="71.167" cy="276.5" r="1.333"/><circle cx="75.167" cy="276.5" r="1.333"/></g></g></svg>