<svg version="1.0" viewBox="0 0 128 128" xmlns="http://www.w3.org/2000/svg"><g transform="translate(-312 -156)"><rect x="320" y="184" width="112" height="88" ry="8" fill="#782e11"/><rect x="321" y="185" width="110" height="83" ry="7" fill="#f15d22"/><path d="M328 185c-3.878 0-7 3.122-7 7v9h110v-9c0-3.878-3.122-7-7-7z"/><g fill="#f7f7f7"><path d="m338 185-8 16h12l8-16z"/><path d="m362 185-8 16h12l8-16z"/><path d="m386 185-8 16h12l8-16z"/><path d="m410 185-8 16h12l8-16z"/></g><path d="M364.1 208.53a2.999 2.999 0 0 0-2.988 2.824h-.006v.076c-.002.034-.002.067-.006.1 0 .07 0 .14.006.21l-.006 25.73a3 3 0 0 0 3 3 3 3 0 0 0 1.265-.287l.006.006.077-.041.012-.006a3 3 0 0 0 .263-.147l23.537-12.814c.01-.004.021-.01.03-.012v-.006a3 3 0 0 0 1.611-2.654 3 3 0 0 0-1.511-2.602l-.053-.03c-.004-.002-.01-.002-.012-.006l-23.772-12.967h-.006a3.029 3.029 0 0 0-1.447-.373z" fill="#fff"/><rect x="321" y="248" width="110" height="20" ry="7" fill="#dedede"/><rect x="327" y="256" width="70" height="4" ry="2" fill="#cf3b00"/><g transform="translate(16)"><circle cx="382" cy="258" r="6" fill="#822500"/><circle cx="382" cy="258" r="4" fill="#fffaf8"/></g></g></svg>