<svg version="1.0" viewBox="0 0 128 128" xmlns="http://www.w3.org/2000/svg"><g transform="translate(-312 -156)"><rect x="320" y="184" width="112" height="88" ry="8" fill="#245c63"/><rect x="321" y="185" width="110" height="83" ry="7.5" fill="#48b9c7"/><rect x="332" y="196" width="88" height="60" ry="4" fill="#f6f6f6"/><path d="M344 200v34l12-12 12 12 20-20 20 20v-34z" fill="#1c8d9b" opacity=".5"/><path d="m376 218 32 34h-64z" fill="#1c8d9b"/><rect x="384" y="229" width="52" height="47" ry="10.5" fill="#671d00"/><rect x="385" y="230" width="50" height="42" ry="10" fill="#cf3b00"/><path d="M400 239v2h-2c-1.108 0-2 .892-2 2v18c0 1.108.892 2 2 2h24c1.108 0 2-.892 2-2v-18c0-1.108-.892-2-2-2h-16v-2zm2 6a2 2 0 1 1 0 4 2 2 0 0 1 0-4zm10 2a6 6 0 1 1 0 12 6 6 0 0 1 0-12z" fill="#fefefe"/><path color="#bebebe" fill="none" d="M426 234.99h-32v32h32z"/></g></svg>