<svg version="1.0" viewBox="0 0 128 128" xmlns="http://www.w3.org/2000/svg"><path d="m250 241.92-1.08.088c-9.566.77-17.633 7.618-19.92 9.734v-1.738l-1.143.844v2l.194.584s5.341 16.105 20.855 17.568l1.093.103v-24.172z" clip-rule="evenodd" color="#000" fill="#626b26" fill-rule="evenodd" style="font-feature-settings:normal;font-variant-alternates:normal;font-variant-caps:normal;font-variant-east-asian:normal;font-variant-ligatures:normal;font-variant-numeric:normal;font-variant-position:normal;font-variation-settings:normal;inline-size:0;isolation:auto;mix-blend-mode:normal;shape-margin:0;shape-padding:0;text-decoration-color:#000;text-decoration-line:none;text-decoration-style:solid;text-indent:0;text-orientation:mixed;text-transform:none;white-space:normal" transform="translate(-312 -156)"/><path d="m250 239.92-1.08.088c-11.316.91-20.63 10.402-20.63 10.402l-.433.437.194.584s5.341 16.105 20.855 17.568l1.093.104v-4.983l-.875-.109c-9.545-1.199-13.038-10.872-13.469-12.164.757-1.01 4.993-6.205 13.42-6.846l.924-.07z" clip-rule="evenodd" color="#000" fill="#626b26" fill-rule="evenodd" style="font-feature-settings:normal;font-variant-alternates:normal;font-variant-caps:normal;font-variant-east-asian:normal;font-variant-ligatures:normal;font-variant-numeric:normal;font-variant-position:normal;font-variation-settings:normal;inline-size:0;isolation:auto;mix-blend-mode:normal;shape-margin:0;shape-padding:0;text-decoration-color:#000;text-decoration-line:none;text-decoration-style:solid;text-indent:0;text-orientation:mixed;text-transform:none;white-space:normal" transform="translate(-312 -156)"/><path d="m169.96 243.11-1.441.117c-11.49.925-21.418 8.416-21.418 8.416v2.666l.26.78s5.405 16.31 21.14 17.795l1.46.136v-24.229z" clip-rule="evenodd" color="#000" fill="#626b26" fill-rule="evenodd" style="font-feature-settings:normal;font-variant-alternates:normal;font-variant-caps:normal;font-variant-east-asian:normal;font-variant-ligatures:normal;font-variant-numeric:normal;font-variant-position:normal;font-variation-settings:normal;inline-size:0;isolation:auto;mix-blend-mode:normal;shape-margin:0;shape-padding:0;text-decoration-color:#000;text-decoration-line:none;text-decoration-style:solid;text-indent:0;text-orientation:mixed;text-transform:none;white-space:normal" transform="matrix(.75 0 0 .75 -263.472 -84.917)"/><path d="m169.96 240.44-1.441.117c-11.49.925-20.838 10.5-20.838 10.5l-.58.582.26.78s5.405 16.31 21.14 17.795l1.46.136v-24.229z" clip-rule="evenodd" color="#000" fill="#626b26" fill-rule="evenodd" style="font-feature-settings:normal;font-variant-alternates:normal;font-variant-caps:normal;font-variant-east-asian:normal;font-variant-ligatures:normal;font-variant-numeric:normal;font-variant-position:normal;font-variation-settings:normal;inline-size:0;isolation:auto;mix-blend-mode:normal;shape-margin:0;shape-padding:0;text-decoration-color:#000;text-decoration-line:none;text-decoration-style:solid;text-indent:0;text-orientation:mixed;text-transform:none;white-space:normal" transform="matrix(.75 0 0 .75 -263.472 -84.917)"/><path d="m114 261.92-1.08.087c-5.918.476-10.63 5.348-10.63 5.348l-.434.436.195.585s2.766 8.36 10.855 9.123l1.093.104V265.43z" clip-rule="evenodd" color="#000" fill="#626b26" fill-rule="evenodd" style="font-feature-settings:normal;font-variant-alternates:normal;font-variant-caps:normal;font-variant-east-asian:normal;font-variant-ligatures:normal;font-variant-numeric:normal;font-variant-position:normal;font-variation-settings:normal;inline-size:0;isolation:auto;mix-blend-mode:normal;shape-margin:0;shape-padding:0;text-decoration-color:#000;text-decoration-line:none;text-decoration-style:solid;text-indent:0;text-orientation:mixed;text-transform:none;white-space:normal" transform="translate(-312 -156)"/><path d="m114 262.92-1.08.087c-5.918.476-11.063 4.784-11.063 4.784v1l.194.585s2.767 8.36 10.855 9.123l1.094.104V266.43z" clip-rule="evenodd" color="#000" fill="#626b26" fill-rule="evenodd" style="font-feature-settings:normal;font-variant-alternates:normal;font-variant-caps:normal;font-variant-east-asian:normal;font-variant-ligatures:normal;font-variant-numeric:normal;font-variant-position:normal;font-variation-settings:normal;inline-size:0;isolation:auto;mix-blend-mode:normal;shape-margin:0;shape-padding:0;text-decoration-color:#000;text-decoration-line:none;text-decoration-style:solid;text-indent:0;text-orientation:mixed;text-transform:none;white-space:normal" transform="translate(-312 -156)"/><path d="m24 271.42-1.08.088c-3.22.259-5.629 2.818-5.629 2.818l-.434.438.194.584s1.478 4.49 5.855 4.902l1.094.104v-6.172z" clip-rule="evenodd" color="#000" fill="#626b26" fill-rule="evenodd" style="font-feature-settings:normal;font-variant-alternates:normal;font-variant-caps:normal;font-variant-east-asian:normal;font-variant-ligatures:normal;font-variant-numeric:normal;font-variant-position:normal;font-variation-settings:normal;inline-size:0;isolation:auto;mix-blend-mode:normal;shape-margin:0;shape-padding:0;text-decoration-color:#000;text-decoration-line:none;text-decoration-style:solid;text-indent:0;text-orientation:mixed;text-transform:none;white-space:normal" transform="translate(-312 -156)"/><path d="m65 264.92-1.08.088c-4.77.384-8.617 4.26-8.617 4.26l-.46.447.214.603s2.34 6.699 8.85 7.313l1.093.103v-9.623z" clip-rule="evenodd" color="#000" fill="#626b26" fill-rule="evenodd" style="font-feature-settings:normal;font-variant-alternates:normal;font-variant-caps:normal;font-variant-east-asian:normal;font-variant-ligatures:normal;font-variant-numeric:normal;font-variant-position:normal;font-variation-settings:normal;inline-size:0;isolation:auto;mix-blend-mode:normal;shape-margin:0;shape-padding:0;text-decoration-color:#000;text-decoration-line:none;text-decoration-style:solid;text-indent:0;text-orientation:mixed;text-transform:none;white-space:normal" transform="translate(-310 -156)"/><path d="m364 198.92-1.08.088c-22.112 1.779-41.062 17.95-41.062 17.95v3l.193.587s10.492 31.59 40.855 34.455l1.094.103v-48.172z" clip-rule="evenodd" color="#000" fill="#626b26" fill-rule="evenodd" style="font-feature-settings:normal;font-variant-alternates:normal;font-variant-caps:normal;font-variant-east-asian:normal;font-variant-ligatures:normal;font-variant-numeric:normal;font-variant-position:normal;font-variation-settings:normal;inline-size:0;isolation:auto;mix-blend-mode:normal;shape-margin:0;shape-padding:0;text-decoration-color:#000;text-decoration-line:none;text-decoration-style:solid;text-indent:0;text-orientation:mixed;text-transform:none;white-space:normal" transform="translate(-312 -156)"/><path d="m364 195.92-1.08.088c-22.112 1.779-40.63 20.516-40.63 20.516l-.433.435.194.586s10.492 31.591 40.855 34.455l1.093.104v-48.172z" clip-rule="evenodd" color="#000" fill="#626b26" fill-rule="evenodd" style="font-feature-settings:normal;font-variant-alternates:normal;font-variant-caps:normal;font-variant-east-asian:normal;font-variant-ligatures:normal;font-variant-numeric:normal;font-variant-position:normal;font-variation-settings:normal;inline-size:0;isolation:auto;mix-blend-mode:normal;shape-margin:0;shape-padding:0;text-decoration-color:#000;text-decoration-line:none;text-decoration-style:solid;text-indent:0;text-orientation:mixed;text-transform:none;white-space:normal" transform="translate(-312 -156)"/><path d="M50 28v85h63c3.878 0 7-3.122 7-7V35c0-3.878-3.122-7-7-7z" fill="#626b26"/><path d="M54.85 52.67c11.309 0 18.019 8.797 18.019 8.797l-9.193 7.744c-4.13-6.876-5.808-9.383-12.678-10.214v19c1.682.557 3.737.874 5.509.864 13.414 0 25.926-17.367 25.926-17.367S70.652 46.446 52.997 46.997c-.64.02-1.374-.06-2 0v6c1.15-.12 2.62-.327 3.852-.327z" clip-rule="evenodd" fill="#c4d64d" fill-rule="evenodd"/><path d="M51 29v12c.64-.047 1.37.018 2 0 24.549-.834 40.742 20.223 40.742 20.223S75.371 83.555 56.238 83.555c-1.76 0-3.69-.283-5.238-.555v6c1.32.16 2.98.356 4.402.356 17.812 0 30.693-9.096 43.164-19.855 2.074 1.654 10.544 5.674 12.281 7.445-11.863 9.921-39.182 18.055-54.848 18.055-1.512 0-3.576.135-5 0v14h62c3.324 0 6-2.676 6-6v-68c0-3.324-2.676-6-6-6z" clip-rule="evenodd" fill="#c4d64d" fill-rule="evenodd"/><path d="M38.99 64.08S44.103 58.166 51 59v-6c-13.137 1.42-20.751 10.065-20.751 10.065S34.529 80.06 51 83v-5c-9.284-3.125-12.01-13.92-12.01-13.92z" clip-rule="evenodd" fill="#c4d64d" fill-rule="evenodd"/><path d="M22.03 62.33S31.506 48.481 50.996 47v-6c-21.592 1.737-40 20.225-40 20.225s10.302 30.974 40 33.775v-6C29.204 86.263 22.03 62.33 22.03 62.33z" clip-rule="evenodd" fill="#c4d64d" fill-rule="evenodd"/><path d="m568 111.92-1.08.088c-43.704 3.516-81.062 37.176-81.062 37.176v4l.193.586s20.794 62.565 80.855 68.23l1.094.103z" clip-rule="evenodd" color="#000" fill="#626b26" fill-rule="evenodd" style="font-feature-settings:normal;font-variant-alternates:normal;font-variant-caps:normal;font-variant-east-asian:normal;font-variant-ligatures:normal;font-variant-numeric:normal;font-variant-position:normal;font-variation-settings:normal;inline-size:0;isolation:auto;mix-blend-mode:normal;shape-margin:0;shape-padding:0;text-decoration-color:#000;text-decoration-line:none;text-decoration-style:solid;text-indent:0;text-orientation:mixed;text-transform:none;white-space:normal" transform="translate(-312 -156)"/><path d="m568 107.92-1.08.088c-43.704 3.516-80.63 40.74-80.63 40.74l-.433.435.194.586s20.794 62.565 80.855 68.23l1.093.104z" clip-rule="evenodd" color="#000" fill="#626b26" fill-rule="evenodd" style="font-feature-settings:normal;font-variant-alternates:normal;font-variant-caps:normal;font-variant-east-asian:normal;font-variant-ligatures:normal;font-variant-numeric:normal;font-variant-position:normal;font-variation-settings:normal;inline-size:0;isolation:auto;mix-blend-mode:normal;shape-margin:0;shape-padding:0;text-decoration-color:#000;text-decoration-line:none;text-decoration-style:solid;text-indent:0;text-orientation:mixed;text-transform:none;white-space:normal" transform="translate(-312 -156)"/></svg>