<svg version="1.0" viewBox="0 0 128 128" xmlns="http://www.w3.org/2000/svg"><g transform="translate(-312 -156)"><rect x="102" y="259" width="28" height="22" ry="1.9" fill="#767676"/><rect x="103" y="260" width="26" height="19" ry="1.5" fill="#ededed"/><rect x="103" y="260" width="26" height="4" ry="1.5" fill="#faa41a"/><rect x="103" y="262" width="26" height="2" ry="0" fill="#faa41a"/><rect x="159" y="247" width="42" height="32" ry="3" fill="#767676"/><rect x="160" y="248" width="40" height="28" ry="2.5" fill="#ededed"/><rect x="160" y="248" width="40" height="6" ry="2.5" fill="#faa41a"/><rect x="160" y="251" width="40" height="5" ry="0" fill="#faa41a"/><rect x="228" y="234" width="56" height="44" ry="4" fill="#767676"/><rect x="229" y="235" width="54" height="40" ry="3.5" fill="#ededed"/><rect x="229" y="235" width="54" height="8" ry="3.5" fill="#faa41a"/><rect x="229" y="239" width="54" height="6" ry="0" fill="#faa41a"/><rect x="56" y="262" width="24" height="20" ry="1.9" fill="#767676"/><rect x="57" y="263" width="22" height="18" ry="1.5" fill="#ededed"/><rect x="57" y="263" width="22" height="3" ry="1.5" fill="#faa41a"/><rect x="57" y="264.5" width="22" height="1.5" ry="0" fill="#faa41a"/><rect x="16" y="269" width="16" height="13" ry="1.9" fill="#767676"/><rect x="17" y="270" width="14" height="11" ry="1.5" fill="#ededed"/><rect x="17" y="270" width="14" height="3" ry="1.478" fill="#faa41a"/><rect x="17" y="271.5" width="14" height="1.5" ry="0" fill="#faa41a"/><circle cx="27" cy="277" r="3" fill="#faa41a"/><circle cx="68" cy="277" r="3" fill-opacity=".196"/><circle cx="68" cy="276" r="3" fill="#faa41a"/><circle cx="119" cy="275" r="3" fill-opacity=".196"/><circle cx="119" cy="274" r="3" fill="#faa41a"/><rect x="320" y="184" width="112" height="88" ry="8" fill="#767676"/><rect x="321" y="185" width="110" height="83" ry="7.5" fill="#ededed"/><rect x="321" y="185" width="110" height="17" ry="7.5" fill="#faa41a"/><rect x="321" y="194" width="110" height="12" ry="0" fill="#faa41a"/><rect x="480" y="84" width="224" height="176" ry="16" fill="#767676"/><rect x="481" y="85" width="222" height="170" ry="16.5" fill="#ededed"/><rect x="481" y="85" width="222" height="35" ry="15.5" fill="#faa41a"/><rect x="481" y="104" width="222" height="24" ry="0" fill="#faa41a"/><path fill-opacity=".235" d="M105 266h4v4h-4z"/><path fill-opacity=".235" d="M111 266h4v4h-4z"/><path fill-opacity=".235" d="M117 266h4v4h-4z"/><path fill-opacity=".235" d="M123 266h4v4h-4z"/><path fill-opacity=".235" d="M105 272h4v4h-4z"/><path fill-opacity=".235" d="M111 272h4v4h-4z"/><path fill-opacity=".235" d="M123 272h4v4h-4z"/><path fill-opacity=".235" d="M60 268h4v4h-4z"/><path fill-opacity=".235" d="M66 268h4v4h-4z"/><path fill-opacity=".235" d="M72 268h4v4h-4z"/><path fill-opacity=".235" d="M60 274h4v4h-4z"/><path fill-opacity=".235" d="M72 274h4v4h-4z"/><path fill-opacity=".235" d="M19 275h4v4h-4z"/><path fill-opacity=".235" d="M164 258h4v4h-4z"/><path fill-opacity=".235" d="M171 258h4v4h-4z"/><path fill-opacity=".235" d="M178 258h4v4h-4z"/><path fill-opacity=".235" d="M185 258h4v4h-4z"/><path fill-opacity=".235" d="M164 264h4v4h-4z"/><path fill-opacity=".235" d="M171 264h4v4h-4z"/><path fill-opacity=".235" d="M178 264h4v4h-4z"/><path fill-opacity=".235" d="M192 258h4v4h-4z"/><path fill-opacity=".235" d="M192 264h4v4h-4z"/><path fill-opacity=".235" d="M164 270h4v4h-4z"/><path fill-opacity=".235" d="M171 270h4v4h-4z"/><path fill-opacity=".235" d="M178 270h4v4h-4z"/><path fill-opacity=".235" d="M185 270h4v4h-4z"/><path fill-opacity=".235" d="M192 270h4v4h-4z"/><circle cx="187" cy="267" r="3" fill-opacity=".196"/><circle cx="187" cy="266" r="3" fill="#faa41a"/><path fill-opacity=".235" d="M235 248h6v6h-6z"/><path fill-opacity=".235" d="M244 248h6v6h-6z"/><path fill-opacity=".235" d="M253 248h6v6h-6z"/><path fill-opacity=".235" d="M262 248h6v6h-6z"/><path fill-opacity=".235" d="M235 257h6v6h-6z"/><path fill-opacity=".235" d="M244 257h6v6h-6z"/><path fill-opacity=".235" d="M253 257h6v6h-6z"/><path fill-opacity=".235" d="M271 248h6v6h-6z"/><path fill-opacity=".235" d="M271 257h6v6h-6z"/><path fill-opacity=".235" d="M235 266h6v6h-6z"/><path fill-opacity=".235" d="M244 266h6v6h-6z"/><path fill-opacity=".235" d="M253 266h6v6h-6z"/><path fill-opacity=".235" d="M262 266h6v6h-6z"/><path fill-opacity=".235" d="M271 266h6v6h-6z"/><circle cx="265" cy="260" r="4" fill-opacity=".196"/><circle cx="265" cy="259" r="4" fill="#faa41a"/><g transform="matrix(2 0 0 2 -136 -283)"><path fill-opacity=".235" d="M235 248h6v6h-6z"/><path fill-opacity=".235" d="M244 248h6v6h-6z"/><path fill-opacity=".235" d="M253 248h6v6h-6z"/><path fill-opacity=".235" d="M262 248h6v6h-6z"/><path fill-opacity=".235" d="M235 257h6v6h-6z"/><path fill-opacity=".235" d="M244 257h6v6h-6z"/><path fill-opacity=".235" d="M253 257h6v6h-6z"/><path fill-opacity=".235" d="M271 248h6v6h-6z"/><path fill-opacity=".235" d="M271 257h6v6h-6z"/><path fill-opacity=".235" d="M235 266h6v6h-6z"/><path fill-opacity=".235" d="M244 266h6v6h-6z"/><path fill-opacity=".235" d="M253 266h6v6h-6z"/><path fill-opacity=".235" d="M262 266h6v6h-6z"/><path fill-opacity=".235" d="M271 266h6v6h-6z"/><circle cx="265" cy="260" r="4" fill-opacity=".196"/><circle cx="265" cy="259.5" r="4" fill="#faa41a"/></g><g transform="matrix(4 0 0 4 -432 -848)"><path fill-opacity=".235" d="M235 248h6v6h-6z"/><path fill-opacity=".235" d="M244 248h6v6h-6z"/><path fill-opacity=".235" d="M253 248h6v6h-6z"/><path fill-opacity=".235" d="M262 248h6v6h-6z"/><path fill-opacity=".235" d="M235 257h6v6h-6z"/><path fill-opacity=".235" d="M244 257h6v6h-6z"/><path fill-opacity=".235" d="M253 257h6v6h-6z"/><path fill-opacity=".235" d="M271 248h6v6h-6z"/><path fill-opacity=".235" d="M271 257h6v6h-6z"/><path fill-opacity=".235" d="M235 265.5h6v6h-6z"/><path fill-opacity=".235" d="M244 265.5h6v6h-6z"/><path fill-opacity=".235" d="M253 265.5h6v6h-6z"/><path fill-opacity=".235" d="M262 265.5h6v6h-6z"/><path fill-opacity=".235" d="M271 265.5h6v6h-6z"/><circle cx="265" cy="260" r="4" fill-opacity=".196"/><circle cx="265" cy="259.5" r="4" fill="#faa41a"/></g></g></svg>