<svg version="1.0" viewBox="0 0 128 128" xmlns="http://www.w3.org/2000/svg"><g transform="translate(-312 -156)"><rect x="332" y="165" width="88" height="107" ry="5" fill="#245c63"/><rect x="333" y="166" width="86" height="105" ry="5" fill="#dedede"/><path d="M416 176v20h8c2.216 0 4-1.784 4-4v-12c0-2.216-1.784-4-4-4h-4z" fill-opacity=".196"/><rect x="416" y="177" width="12" height="20" ry="4" fill="#faa41a"/><rect x="416" y="177" width="8" height="20" ry="0" fill="#faa41a"/><path d="M416 194v20h8c2.216 0 4-1.784 4-4v-12c0-2.216-1.784-4-4-4h-4z" fill-opacity=".196"/><rect x="416" y="195" width="12" height="20" ry="4" fill="#73c48f"/><rect x="416" y="195" width="8" height="20" ry="0" fill="#73c48f"/><path d="M416 212v20h8c2.216 0 4-1.784 4-4v-12c0-2.216-1.784-4-4-4h-4z" fill-opacity=".196"/><rect x="416" y="213" width="12" height="20" ry="4" fill="#b84acb"/><rect x="416" y="213" width="8" height="20" ry="0" fill="#b84acb"/><path d="M416 230v20h8c2.216 0 4-1.784 4-4v-12c0-2.216-1.784-4-4-4h-4z" fill-opacity=".196"/><rect x="416" y="231" width="12" height="20" ry="4" fill="#f15d22"/><rect x="416" y="231" width="8" height="20" ry="0" fill="#f15d22"/><rect x="332" y="164" width="86" height="100" ry="5" fill="#245c63"/><rect x="333" y="165" width="84" height="98" ry="4.5" fill="#48b9c7"/><path d="M337.5 165a4.49 4.49 0 0 0-4.5 4.5v97a4.49 4.49 0 0 0 4.5 4.5h1.5V165z" fill="#16393e"/><path d="M379 191c13.255 0 24 10.745 24 24v3a9 9 0 0 1-15.89 5.79c-2.139 1.971-4.972 3.21-8.11 3.21-6.627 0-12-5.373-12-12s5.373-12 12-12 12 5.373 12 12v3a3 3 0 0 0 6 0v-3c0-9.941-8.059-18-18-18s-18 8.059-18 18 8.059 18 18 18h15s3 0 3 3c-.187 3-3 3-3 3h-15c-13.255 0-24-10.745-24-24s10.745-24 24-24zm0 18a6 6 0 1 0 0 12 6 6 0 0 0 0-12z" fill-opacity=".196"/><path d="M379 190c13.255 0 24 10.745 24 24v3a9 9 0 0 1-15.89 5.79c-2.139 1.971-4.972 3.21-8.11 3.21-6.627 0-12-5.373-12-12s5.373-12 12-12 12 5.373 12 12v3a3 3 0 0 0 6 0v-3c0-9.941-8.059-18-18-18s-18 8.059-18 18 8.059 18 18 18h15s3 0 3 3c-.187 3-3 3-3 3h-15c-13.255 0-24-10.745-24-24s10.745-24 24-24zm0 18a6 6 0 1 0 0 12 6 6 0 0 0 0-12z" fill="#fff"/></g></svg>