<svg version="1.0" viewBox="0 0 128 128" xmlns="http://www.w3.org/2000/svg"><g transform="translate(-312 -156)"><rect x="320" y="184" width="112" height="88" ry="8" fill="#767676"/><rect x="321" y="185" width="110" height="83" ry="7.5" fill="#ededed"/><rect x="321" y="185" width="110" height="17" ry="7.5" fill="#faa41a"/><rect x="321" y="194" width="110" height="12" ry="0" fill="#faa41a"/><g transform="matrix(2 0 0 2 -136 -283)"><path fill-opacity=".235" d="M235 248h6v6h-6z"/><path fill-opacity=".235" d="M244 248h6v6h-6z"/><path fill-opacity=".235" d="M253 248h6v6h-6z"/><path fill-opacity=".235" d="M262 248h6v6h-6z"/><path fill-opacity=".235" d="M235 257h6v6h-6z"/><path fill-opacity=".235" d="M244 257h6v6h-6z"/><path fill-opacity=".235" d="M253 257h6v6h-6z"/><path fill-opacity=".235" d="M271 248h6v6h-6z"/><path fill-opacity=".235" d="M271 257h6v6h-6z"/><path fill-opacity=".235" d="M235 266h6v6h-6z"/><path fill-opacity=".235" d="M244 266h6v6h-6z"/><path fill-opacity=".235" d="M253 266h6v6h-6z"/><path fill-opacity=".235" d="M262 266h6v6h-6z"/><path fill-opacity=".235" d="M271 266h6v6h-6z"/><circle cx="265" cy="260" r="4" fill-opacity=".196"/><circle cx="265" cy="259.5" r="4" fill="#faa41a"/></g></g></svg>