<svg version="1.0" viewBox="0 0 128 128" xmlns="http://www.w3.org/2000/svg"><g transform="translate(-312 -156)"><rect x="324" y="168" width="104" height="104" ry="8" fill="#444"/><rect x="336" y="180" width="80" height="76" ry="4.495" fill="#cdcdcd"/><path d="M383.59 237.51a3.983 3.983 0 0 0 4.408.272 3.987 3.987 0 0 0 1.465-5.46l-6.538-11.316a8 8 0 0 0 .004-.008 8 8 0 0 0-.004-7.995l6.54-11.326c1.107-1.919.454-4.356-1.465-5.464s-4.356-.455-5.464 1.464l-6.543 11.333a8 8 0 0 0-6.92 3.989l-.004.008-13.07-.004a3.986 3.986 0 0 0-3.995 3.999 3.987 3.987 0 0 0 3.999 3.995l13.08.001a8 8 0 0 0 2.918 2.93 8 8 0 0 0 3.997 1.063l6.54 11.326a4 4 0 0 0 1.053 1.194z" fill-opacity=".196"/><g transform="rotate(-150 305.854 653.782) scale(4)" fill="#656565"><circle cx="116" cy="267" r="2"/><rect x="115" y="267" width="2" height="6" ry="1"/><rect transform="rotate(240)" x="-290.23" y="-33.041" width="2" height="6" ry="1"/><rect transform="rotate(120)" x="172.23" y="-233.96" width="2" height="6" ry="1"/></g><g transform="matrix(4 0 0 4 -88 -848)" fill-opacity=".196"><rect x="105" y="262" width="2" height="4" ry=".5"/><rect x="105" y="269" width="2" height="4" ry=".5"/></g><g transform="matrix(4 0 0 4 -88 -852)" fill="#ededed"><rect x="105" y="262" width="2" height="4" ry=".5"/><rect x="105" y="269" width="2" height="4" ry=".5"/></g><path d="M332 168c-4.432 0-8 3.568-8 8v88c0 4.432 3.568 8 8 8h88c4.432 0 8-3.568 8-8v-88c0-4.432-3.568-8-8-8zm0 1h88c3.878 0 7 3.122 7 7v85c0 3.878-3.122 7-7 7h-88c-3.878 0-7-3.122-7-7v-85c0-3.878 3.122-7 7-7z" fill="#fff" fill-opacity=".502"/></g></svg>