<svg version="1.0" viewBox="0 0 128 128" xmlns="http://www.w3.org/2000/svg"><g transform="translate(-312 1044)"><rect x="320" y="-1016" width="112" height="88" ry="8" fill="#6f6f6f"/><rect x="321" y="-1015" width="110" height="83" ry="7.5" fill="#dedede"/><rect x="325" y="-1011" width="102" height="69" ry="1" fill="#45454f"/><rect x="325" y="-1011" width="102" height="69" ry="1" fill="#48b9c7"/><g fill-opacity=".196"><path d="M400-1003c2.216 0 4 1.784 4 4v8c0 2.216-1.784 4-4 4h-48c-2.216 0-4-1.784-4-4v-8c0-2.216 1.784-4 4-4zm-4 4c-2.216 0-4 1.784-4 4s1.784 4 4 4 4-1.784 4-4-1.784-4-4-4z"/><path d="M400-983c2.216 0 4 1.784 4 4v8c0 2.216-1.784 4-4 4h-48c-2.216 0-4-1.784-4-4v-8c0-2.216 1.784-4 4-4zm-4 4c-2.216 0-4 1.784-4 4s1.784 4 4 4 4-1.784 4-4-1.784-4-4-4z"/><path d="M400-963c2.216 0 4 1.784 4 4v8c0 2.216-1.784 4-4 4h-48c-2.216 0-4-1.784-4-4v-8c0-2.216 1.784-4 4-4zm-4 4a4 4 0 0 0-4 4 4 4 0 0 0 4 4 4 4 0 0 0 4-4 4 4 0 0 0-4-4z"/></g><g fill="#fff"><path d="M400-1004c2.216 0 4 1.784 4 4v8c0 2.216-1.784 4-4 4h-48c-2.216 0-4-1.784-4-4v-8c0-2.216 1.784-4 4-4zm-4 4c-2.216 0-4 1.784-4 4s1.784 4 4 4 4-1.784 4-4-1.784-4-4-4z"/><path d="M400-984c2.216 0 4 1.784 4 4v8c0 2.216-1.784 4-4 4h-48c-2.216 0-4-1.784-4-4v-8c0-2.216 1.784-4 4-4zm-4 4c-2.216 0-4 1.784-4 4s1.784 4 4 4 4-1.784 4-4-1.784-4-4-4z"/><path d="M400-964c2.216 0 4 1.784 4 4v8c0 2.216-1.784 4-4 4h-48c-2.216 0-4-1.784-4-4v-8c0-2.216 1.784-4 4-4zm-4 4a4 4 0 0 0-4 4 4 4 0 0 0 4 4 4 4 0 0 0 4-4 4 4 0 0 0-4-4z"/></g></g></svg>