<svg version="1.0" viewBox="0 0 128 128" xmlns="http://www.w3.org/2000/svg"><g transform="translate(-312 -156)"><rect x="324" y="168" width="104" height="104" ry="8.5" fill="#245c63"/><rect x="325" y="169" width="102" height="99" ry="8" fill="#48b9c7"/><path d="M387.99 186.47c1.559-.406 3.163-.443 4.683-.324l-5.44 9.224a3.9 3.9 0 0 0 1.416 5.39l3.497 2.034a3.959 3.959 0 0 0 5.427-1.414l5.44-9.223c.848 1.257 1.6 2.664 2.007 4.213 1.945 7.41-2.526 14.992-9.986 16.935-1.559.405-3.163.443-4.683.323l-3.208 4.459-13.64-.09s6.075-10.31 6.509-10.38c-.85-1.257-1.602-2.664-2.008-4.212-1.945-7.41 2.526-14.992 9.986-16.935z" color="#000" fill="#fff" style="text-decoration-line:none;text-indent:0;text-transform:none"/><path d="M355.91 188.88c-.92.188-1.773.524-2.621.875-.067 2.497.347 5.767-.624 6.625-.955.843-4.148.137-6.616-.125-.524.946-.94 1.94-1.248 3 1.91 1.583 4.556 3.356 4.618 4.625.064 1.285-2.502 3.22-4.243 5 .413 1.031.999 1.974 1.622 2.875 2.43-.506 5.458-1.494 6.49-.75 1.052.757 1.06 4.021 1.374 6.5.996.3 2.047.418 3.12.5 1.124-2.219 2.266-5.28 3.495-5.625 1.261-.355 3.849 1.832 5.991 3.125.874-.607 1.65-1.348 2.372-2.125-1.014-2.29-2.88-5.168-2.372-6.375.51-1.209 3.896-1.879 6.241-2.75.016-.294.125-.577.125-.875 0-.766-.138-1.516-.25-2.25-2.42-.643-5.86-.965-6.49-2.125-.626-1.152.966-4.246 1.747-6.625a14.73 14.73 0 0 0-2.62-1.875c-2.001 1.5-4.332 3.977-5.618 3.75-1.265-.224-2.647-3.278-3.994-5.375-.16.028-.34-.032-.5 0zm2.496 7.5c3.723 0 6.74 3.022 6.74 6.75s-3.017 6.75-6.74 6.75-6.74-3.022-6.74-6.75 3.018-6.75 6.74-6.75z" color="#000" fill="#fff"/><path d="m353.5 222 .031 24c0 2.281 1.841 4 3.994 4h31.97c2.09 0 3.978-1.781 3.978-3.75l-.031-24.25zm17.986 6h4v6h2.5l-4.5 7-4.5-7h2.5zm-3 14h10a1 1 0 0 1 0 2h-10a1 1 0 0 1 0-2z" color="#bebebe" fill="#fff"/></g></svg>