<svg version="1.0" viewBox="0 0 128 128" xmlns="http://www.w3.org/2000/svg"><g transform="translate(-312 -156)"><rect x="331" y="163" width="90" height="117" ry="8.5" fill="#565656"/><rect x="332" y="164" width="88" height="112" ry="8" fill="#acacac"/><circle cx="376" cy="208" r="28" fill="#444"/><path fill="#444" d="M348 208h28v22h-28z"/><path fill="#444" d="M376 208v28h-22v-28z"/><rect x="348" y="208" width="28" height="28" ry="4" fill="#444"/><circle cx="376" cy="208" r="14" fill="#acacac"/></g><g transform="matrix(2 0 0 2 -432 196)"><rect x="251" y="-64.5" width="29" height="30.5" ry="14.5" fill="#245c63"/><circle cx="265.5" cy="-50" r="14" fill="#48b9c7"/></g><g fill="#fff"><path d="M103 80v12h5l-9 14-9-14h5V80z"/><path d="M89 108a2 2 0 1 0 0 4h20a2 2 0 1 0 0-4z"/></g></svg>