<svg version="1.0" viewBox="0 0 128 128" xmlns="http://www.w3.org/2000/svg"><g transform="translate(-312 -156)"><path d="M332 168h34l12 12h46c4.432 0 8 3.568 8 8v74c0 4.432-3.568 8-8 8h-92c-4.432 0-8-3.568-8-8v-86c0-4.432 3.568-8 8-8z" fill="#48b9c7"/><rect x="322" y="183" width="112" height="91" ry="8" fill="#565656"/><rect x="325" y="183" width="106" height="25" ry="8" fill-opacity=".314"/><rect x="323" y="184" width="110" height="86" ry="7.5" fill="#acacac"/><g transform="translate(111 -42)"><rect x="246" y="242" width="42" height="13" ry="1.5" fill="#676767" fill-opacity=".502"/><rect x="247" y="243" width="40" height="8" ry="1" fill="#fafafa"/></g></g></svg>