<svg version="1.0" viewBox="0 0 128 128" xmlns="http://www.w3.org/2000/svg"><g transform="translate(-312 144)"><rect x="316" y="-140" width="120" height="123" ry="60" fill="#245c63"/><rect x="317" y="-139" width="118" height="118" ry="59" fill="#48b9c7"/><path d="M376-108.01c6.627 0 12 5.373 12 12s-5.373 12-12 12-12-5.373-12-12 5.373-12 12-12zm0 32c23.999-.012 23.999 16.013 23.999 16.013v4h-48v-4s0-16 24.001-16.013z" color="#000" fill="#fff" style="text-decoration-line:none;text-indent:0;text-transform:none"/><rect x="380" y="-76" width="56" height="59" ry="28" fill="#1f285a"/><rect x="381" y="-75" width="54" height="54" ry="27" fill="#3f51b5"/><g transform="matrix(3 0 0 3 36 25)" fill="#fff"><path d="M124.67-26h-1.333v7h1.333z"/><circle cx="124" cy="-28.333" r="1"/></g></g></svg>