<svg version="1.0" viewBox="0 0 128 128" xmlns="http://www.w3.org/2000/svg"><g transform="translate(-312 144)"><rect x="320" y="-116" width="112" height="88" ry="8" fill="#424242"/><path d="M328-116c-4.432 0-8 3.568-8 8v72c0 4.432 3.568 8 8 8h96c4.432 0 8-3.568 8-8v-72c0-4.432-3.568-8-8-8zm.5 1h95c4.155 0 7.5 3.345 7.5 7.5v68c0 4.155-3.345 7.5-7.5 7.5h-95a7.484 7.484 0 0 1-7.5-7.5v-68c0-4.155 3.345-7.5 7.5-7.5z" fill="#fff" fill-opacity=".644"/><rect x="328" y="-108" width="96" height="69" ry="1" fill="#bababa"/><g fill="#393634"><path d="M340-103v2a4 4 0 0 0-4 4 4 4 0 0 0 4 4v4h-4v2h4v2h2v-2a4 4 0 0 0 4-4 4 4 0 0 0-4-4v-4h2v-2h-2v-2zm0 4v4a2 2 0 0 1-2-2 2 2 0 0 1 2-2zm2 6a2 2 0 0 1 2 2 2 2 0 0 1-2 2z"/><path d="M348-87h10v2h-10z"/></g></g></svg>