<svg version="1.0" viewBox="0 0 128 128" xmlns="http://www.w3.org/2000/svg"><g transform="translate(-312 444)"><rect x="320" y="-416" width="112" height="88" ry="8" fill="#cdcdcd"/><path d="M328-416c-4.432 0-8 3.568-8 8v72c0 4.432 3.568 8 8 8h96c4.432 0 8-3.568 8-8v-72c0-4.432-3.568-8-8-8zm.5 1h95c4.155 0 7.5 3.345 7.5 7.5v68c0 4.155-3.345 7.5-7.5 7.5h-95a7.484 7.484 0 0 1-7.5-7.5v-68c0-4.155 3.345-7.5 7.5-7.5z" fill="#666"/><rect x="328" y="-408" width="96" height="69" ry="1" fill="#424242"/><rect x="328" y="-408" width="96" height="69" ry="1" fill="#ac1800"/><g transform="matrix(2 0 0 2 122 -929)" fill="#f6f6f6"><path d="M113 271h5v1h-5z"/><rect x="108" y="263" width="1" height="9" ry="0"/><rect x="110" y="263" width="1" height="9" ry="0"/><path d="M107 265h5v1h-5z"/><path d="M107 269h5v1h-5z"/></g></g></svg>