<svg version="1.0" viewBox="0 0 128 128" xmlns="http://www.w3.org/2000/svg"><g transform="translate(-312 -156)"><rect x="324" y="168" width="104" height="104" ry="52" fill="#ffce51"/><path d="M376 168c-28.808 0-52 23.192-52 52s23.192 52 52 52 52-23.192 52-52-23.192-52-52-52zm0 1a51 51 0 0 1 51 51 51 51 0 0 1-51 51 51 51 0 0 1-51-51 51 51 0 0 1 51-51z" fill-opacity=".392"/><rect x="332" y="240" width="96" height="32" ry="16" fill="#fff"/><circle cx="360" cy="240" r="16" fill="#fff"/><circle cx="396" cy="240" r="24" fill="#fff"/><path d="M396 216a24 24 0 0 0-22.43 15.543A16 16 0 0 0 360 224a16 16 0 0 0-16 16 16 16 0 0 0 .02.516A15.948 15.948 0 0 0 332 256c0 8.864 7.136 16 16 16h64c8.864 0 16-7.136 16-16a15.952 15.952 0 0 0-8.104-13.918A24 24 0 0 0 420 240a24 24 0 0 0-24-24zm0 1a22.95 22.95 0 0 1 23 23c0 .786-.052 1.559-.129 2.324 4.516 2.16 7.629 6.752 7.629 12.11v.132A13.405 13.405 0 0 1 413.066 268h-66.133a13.405 13.405 0 0 1-13.434-13.434v-.133c0-6.8 5.008-12.373 11.549-13.287a15 15 0 0 1-.049-1.146 15 15 0 0 1 15-15 15 15 0 0 1 13.766 9.084A22.946 22.946 0 0 1 396 217z" fill-opacity=".392"/></g></svg>