<svg version="1.0" viewBox="0 0 256 256" xmlns="http://www.w3.org/2000/svg"><g transform="translate(-464 272)"><path d="M624-40H496c-8.864 0-16-7.136-16-16v-144c0-8.864 7.136-16 16-16h128l88 88z" fill="#ffce51"/><path d="M496-216c-8.864 0-16 7.136-16 16v144c0 8.864 7.136 16 16 16h128l88-88-88-88zm0 1h127.5l84.5 85-84.5 85H496c-8.31 0-15-6.69-15-15v-140c0-8.31 6.69-15 15-15z" fill-opacity=".5"/><rect x="592" y="-148" width="128" height="132" ry="64" fill="#cf3b00"/><path d="M656-148c-35.456 0-64 28.544-64 64v4c0 35.456 28.544 64 64 64s64-28.544 64-64v-4c0-35.456-28.544-64-64-64zm0 1c34.902 0 63 28.098 63 63s-28.098 63-63 63-63-28.098-63-63 28.098-63 63-63z" fill-opacity=".5"/><path d="M632-114a8 8 0 0 0-8 8 8 8 0 0 0 2.344 5.656L644.688-82l-18.344 18.344A8 8 0 0 0 624-58a8 8 0 0 0 8 8 8 8 0 0 0 5.656-2.343L656-70.687l18.266 18.266A8 8 0 0 0 680.001-50a8 8 0 0 0 8-8 8 8 0 0 0-2.344-5.656L667.313-82l18.266-18.266A8 8 0 0 0 688-106a8 8 0 0 0-8-8 8 8 0 0 0-5.657 2.344L656-93.312l-18.266-18.266a8 8 0 0 0-.08-.08 8 8 0 0 0-5.656-2.342z" fill="#fff"/></g></svg>