<svg version="1.0" viewBox="0 0 256 256" xmlns="http://www.w3.org/2000/svg"><path d="M24 24c-4.432 0-8 3.568-8 8v196c0 4.432 3.568 8 8 8h208c4.432 0 8-3.568 8-8V56c0-4.432-3.568-8-8-8h-92l-24-24z" fill="#48b9c7"/><path d="M24 24c-4.432 0-8 3.568-8 8v196c0 4.432 3.568 8 8 8h208c4.432 0 8-3.568 8-8V56c0-4.432-3.568-8-8-8h-92l-24-24zm0 32h208c3.878 0 7 3.122 7 7v161c0 3.878-3.122 7-7 7H24c-3.878 0-7-3.122-7-7V63c0-3.878 3.122-7 7-7z" fill-opacity=".25"/><path d="M24 55c-4.432 0-8 3.568-8 8v165c0 4.432 3.568 8 8 8h208c4.432 0 8-3.568 8-8V63c0-4.432-3.568-8-8-8zm0 1h208c3.878 0 7 3.122 7 7v161c0 3.878-3.122 7-7 7H24c-3.878 0-7-3.122-7-7V63c0-3.878 3.122-7 7-7z" fill-opacity=".25"/><path d="M592-1498.5c13.255 0 24 10.746 24 24s-10.745 24-24 24-24-10.746-24-24 10.745-24 24-24zm0 64c47.998-.024 47.998 32.027 47.998 32.027v8h-96v-8s0-32 48.002-32.027z" color="#000" fill-opacity=".314" style="text-decoration-line:none;text-indent:0;text-transform:none" transform="translate(-464 1592)"/><path d="M592-1499.5c13.255 0 24 10.746 24 24s-10.745 24-24 24-24-10.746-24-24 10.745-24 24-24zm0 64c47.998-.024 47.998 32.027 47.998 32.027v8h-96v-8s0-32 48.002-32.027z" color="#000" fill="#fafafb" style="text-decoration-line:none;text-indent:0;text-transform:none" transform="translate(-464 1592)"/></svg>