<svg version="1.0" viewBox="0 0 256 256" xmlns="http://www.w3.org/2000/svg"><path d="M24 24c-4.432 0-8 3.568-8 8v196c0 4.432 3.568 8 8 8h208c4.432 0 8-3.568 8-8V56c0-4.432-3.568-8-8-8h-92l-24-24z" fill="#48b9c7"/><path d="M24 24c-4.432 0-8 3.568-8 8v196c0 4.432 3.568 8 8 8h208c4.432 0 8-3.568 8-8V56c0-4.432-3.568-8-8-8h-92l-24-24zm0 32h208c3.878 0 7 3.122 7 7v161c0 3.878-3.122 7-7 7H24c-3.878 0-7-3.122-7-7V63c0-3.878 3.122-7 7-7z" fill-opacity=".25"/><path d="M24 55c-4.432 0-8 3.568-8 8v165c0 4.432 3.568 8 8 8h208c4.432 0 8-3.568 8-8V63c0-4.432-3.568-8-8-8zm0 1h208c3.878 0 7 3.122 7 7v161c0 3.878-3.122 7-7 7H24c-3.878 0-7-3.122-7-7V63c0-3.878 3.122-7 7-7z" fill-opacity=".25"/><path d="M96 85.5c-8.837 0-16 7.163-16 16v88c0 8.837 7.163 16 16 16h64c8.724 0 15.789-6.99 15.969-15.672.084-8.752.04-43.383 0-65.047-.086-3.98-1.625-7.796-4.375-10.687l-23.75-23.75a16 16 0 0 0-11.468-4.843z" fill-opacity=".314"/><path d="M95.99 84.5c-8.837 0-16 7.163-16 16v88c0 8.837 7.163 16 16 16h64c8.724 0 15.789-6.99 15.969-15.672.084-8.752.04-43.383 0-65.047-.086-3.98-1.625-7.796-4.375-10.687l-23.75-23.75a16 16 0 0 0-11.468-4.843z" fill="#fefeff"/></svg>