<svg version="1.0" viewBox="0 0 256 256" xmlns="http://www.w3.org/2000/svg"><path d="M24 24c-4.432 0-8 3.568-8 8v196c0 4.432 3.568 8 8 8h208c4.432 0 8-3.568 8-8V56c0-4.432-3.568-8-8-8h-92l-24-24z" fill="#48b9c7"/><path d="M24 24c-4.432 0-8 3.568-8 8v196c0 4.432 3.568 8 8 8h208c4.432 0 8-3.568 8-8V56c0-4.432-3.568-8-8-8h-92l-24-24zm0 32h208c3.878 0 7 3.122 7 7v161c0 3.878-3.122 7-7 7H24c-3.878 0-7-3.122-7-7V63c0-3.878 3.122-7 7-7z" fill-opacity=".25"/><path d="M24 55c-4.432 0-8 3.568-8 8v165c0 4.432 3.568 8 8 8h208c4.432 0 8-3.568 8-8V63c0-4.432-3.568-8-8-8zm0 1h208c3.878 0 7 3.122 7 7v161c0 3.878-3.122 7-7 7H24c-3.878 0-7-3.122-7-7V63c0-3.878 3.122-7 7-7z" fill-opacity=".25"/><path d="M128 98.1a90.734 90.734 0 0 0-34.063 6.625 89.92 89.92 0 0 0-15.75 8.281A90.799 90.799 0 0 0 64 124.6l52.406 63.453h.016a16 16 0 0 0 11.547 4.923 15.97 15.97 0 0 0 11.562-4.969h.032l52.438-63.406a90.48 90.48 0 0 0-21.922-16.156c-.178-.096-.368-.16-.547-.248-2.812-1.453-5.691-2.722-8.61-3.86-1.098-.424-2.217-.784-3.328-1.171a88.805 88.805 0 0 0-9.969-2.829 92.55 92.55 0 0 0-6.375-1.156c-1.166-.168-2.328-.376-3.5-.496-3.242-.352-6.49-.576-9.75-.576z" fill="#030303" fill-opacity=".318"/><path d="M128 97.18a90.722 90.722 0 0 0-34.062 6.625 89.93 89.93 0 0 0-15.75 8.282A90.855 90.855 0 0 0 64 123.68l52.406 63.453h.016a16 16 0 0 0 11.548 4.922 16 16 0 0 0 11.562-4.969h.032l52.438-63.406a90.476 90.476 0 0 0-21.922-16.156c-.178-.094-.368-.158-.547-.25-2.812-1.453-5.691-2.721-8.61-3.86-1.098-.427-2.217-.787-3.328-1.171a90.271 90.271 0 0 0-6.14-1.89 90.604 90.604 0 0 0-3.829-.938 90.985 90.985 0 0 0-6.375-1.157c-1.166-.172-2.328-.373-3.5-.5-3.242-.348-6.49-.578-9.75-.578z" fill="#88d1db"/><path d="M128 121.18c-17.82 0-35.638 6.787-49.234 20.375l37.64 45.579h.016a16 16 0 0 0 11.548 4.921 16 16 0 0 0 11.562-4.968h.032l37.656-45.547c-13.594-13.578-31.406-20.36-49.218-20.36z" fill="#fff"/></svg>