<svg version="1.0" viewBox="0 0 256 256" xmlns="http://www.w3.org/2000/svg"><path d="M24 24c-4.432 0-8 3.568-8 8v196c0 4.432 3.568 8 8 8h208c4.432 0 8-3.568 8-8V56c0-4.432-3.568-8-8-8h-92l-24-24z" fill="#48b9c7"/><path d="M24 24c-4.432 0-8 3.568-8 8v196c0 4.432 3.568 8 8 8h208c4.432 0 8-3.568 8-8V56c0-4.432-3.568-8-8-8h-92l-24-24zm0 32h208c3.878 0 7 3.122 7 7v161c0 3.878-3.122 7-7 7H24c-3.878 0-7-3.122-7-7V63c0-3.878 3.122-7 7-7z" fill-opacity=".25"/><path d="M24 55c-4.432 0-8 3.568-8 8v165c0 4.432 3.568 8 8 8h208c4.432 0 8-3.568 8-8V63c0-4.432-3.568-8-8-8zm0 1h208c3.878 0 7 3.122 7 7v161c0 3.878-3.122 7-7 7H24c-3.878 0-7-3.122-7-7V63c0-3.878 3.122-7 7-7z" fill-opacity=".25"/><path d="M128 90a32 32 0 0 0-32 32 32 32 0 0 0 9.39 22.61l-15.219 15.218a8.002 8.002 0 0 0-11.25 11.25L64 186v16l16-8 11.469-11.469c14.009 9.737 31.558 13.639 48.75 10.297 8.883-1.726 17.096-5.327 24.282-10.328L176 194l16 8v-16l-14.969-14.969c5.17-6.179 9.257-13.337 11.828-21.25a8 8 0 0 0-7.578-10.578 8 8 0 0 0-7.625 5.625c-1.78 5.478-4.565 10.434-8.016 14.813l-15.03-15.031A32 32 0 0 0 160 122a32 32 0 0 0-32-32zm0 16a16 16 0 0 1 16 16 16 16 0 0 1-4.688 11.313L128 122l-11.313 11.313A16 16 0 0 1 111.999 122a16 16 0 0 1 16-16zm-7.14 47.14a32 32 0 0 0 7.14.86 32 32 0 0 0 7.156-.844l17.766 17.766c-4.791 2.916-10.079 5.082-15.766 6.188-11.931 2.319-24.02-.064-34.078-6.188z" fill="#121212" fill-opacity=".314"/><g fill="#fff"><path d="M64 201v-16l64-64 63.998 63.998v16.003L176 193l-48-48-48 48z"/><path d="M578.66 169.15a1 1 0 0 0-.953.703c-.675 2.076-2.42 3.619-4.563 4.035s-4.337-.359-5.74-2.03a1 1 0 1 0-1.533 1.284 8.002 8.002 0 0 0 13.736-2.67 1 1 0 0 0-.947-1.322z" color="#000" style="font-feature-settings:normal;font-variant-alternates:normal;font-variant-caps:normal;font-variant-ligatures:normal;font-variant-numeric:normal;font-variant-position:normal;isolation:auto;mix-blend-mode:normal;shape-padding:0;text-decoration-color:#000;text-decoration-line:none;text-decoration-style:solid;text-indent:0;text-orientation:mixed;text-transform:none;white-space:normal" transform="matrix(8 0 0 8 -4448 -1215)"/><path d="M128 89a32 32 0 0 0-32 32 32 32 0 0 0 32 32 32 32 0 0 0 32-32 32 32 0 0 0-32-32zm0 16a16 16 0 0 1 16 16 16 16 0 0 1-16 16 16 16 0 0 1-16-16 16 16 0 0 1 16-16z"/></g></svg>