<svg version="1.0" viewBox="0 0 256 256" xmlns="http://www.w3.org/2000/svg"><g transform="translate(-464 572)"><rect x="480" y="-516" width="224" height="176" ry="8" fill="#ffce51"/><path d="M488-516c-4.432 0-8 3.568-8 8v160c0 4.432 3.568 8 8 8h208c4.432 0 8-3.568 8-8v-160c0-4.432-3.568-8-8-8zm0 1h208c3.878 0 7 3.122 7 7v160c0 3.878-3.122 7-7 7H488c-3.878 0-7-3.122-7-7v-160c0-3.878 3.122-7 7-7z" fill-opacity=".502"/><path d="M488-513c-2.77 0-5 2.23-5 5v99c0 2.77 2.23 5 5 5h49v32c0 2.77 2.23 5 5 5h100c2.77 0 5-2.23 5-5v-32h49c2.77 0 5-2.23 5-5v-99c0-2.77-2.23-5-5-5z" fill-opacity=".502"/><path d="M488-515c-3.878 0-7 3.122-7 7v99c0 3.878 3.122 7 7 7h49v-2h-49c-2.77 0-5-2.23-5-5v-99c0-2.77 2.23-5 5-5h208c2.77 0 5 2.23 5 5v99c0 2.77-2.23 5-5 5h-49v2h49c3.878 0 7-3.122 7-7v-99c0-3.878-3.122-7-7-7z" fill="#fff" fill-opacity=".502"/><path d="M537-372v2c0 2.77 2.23 5 5 5h100c2.77 0 5-2.23 5-5v-2c0 2.77-2.23 5-5 5H542c-2.77 0-5-2.23-5-5z" fill="#fff" fill-opacity=".502"/><g stroke-linecap="square" stroke-width="2"><path d="M512-556c-4.432 0-8 3.568-8 8v144h33v32c0 2.77 2.23 5 5 5h100c2.77 0 5-2.23 5-5v-32h33v-144c0-4.432-3.568-8-8-8z" fill="#ededed"/><path d="M512-556c-4.432 0-8 3.568-8 8v144h33v32c0 2.77 2.23 5 5 5h100c2.77 0 5-2.23 5-5v-32h33v-144c0-4.432-3.568-8-8-8zm0 1h160c3.878 0 7 3.122 7 7v142h-33v32c0 2.77-2.23 5-5 5h-98c-2.77 0-5-2.23-5-5v-32h-33v-142c0-3.878 3.122-7 7-7z" fill-opacity=".3"/></g><path d="m628-472-36-44-36 44c.024-.032 14.667 0 20 0v40h32v-40z" color="#000" fill="#393634" opacity=".8"/></g></svg>