<svg version="1.0" viewBox="0 0 256 256" xmlns="http://www.w3.org/2000/svg"><g stroke-linecap="square" stroke-width="2" transform="translate(-464 -28)"><rect x="480" y="84" width="224" height="176" ry="8" fill="#ffce51"/><path d="M488 84c-4.432 0-8 3.568-8 8v160c0 4.432 3.568 8 8 8h208c4.432 0 8-3.568 8-8V92c0-4.432-3.568-8-8-8zm0 1h208c3.878 0 7 3.122 7 7v160c0 3.878-3.122 7-7 7H488c-3.878 0-7-3.122-7-7V92c0-3.878 3.122-7 7-7z" fill-opacity=".502"/><path d="M488 87c-2.77 0-5 2.23-5 5v99c0 2.77 2.23 5 5 5h49v32c0 2.77 2.23 5 5 5h100c2.77 0 5-2.23 5-5v-32h49c2.77 0 5-2.23 5-5V92c0-2.77-2.23-5-5-5z" fill-opacity=".502"/><path d="M488 85c-3.878 0-7 3.122-7 7v99c0 3.878 3.122 7 7 7h49v-2h-49c-2.77 0-5-2.23-5-5V92c0-2.77 2.23-5 5-5h208c2.77 0 5 2.23 5 5v99c0 2.77-2.23 5-5 5h-49v2h49c3.878 0 7-3.122 7-7V92c0-3.878-3.122-7-7-7z" fill="#fff" fill-opacity=".502"/><path d="M537 228v2c0 2.77 2.23 5 5 5h100c2.77 0 5-2.23 5-5v-2c0 2.77-2.23 5-5 5H542c-2.77 0-5-2.23-5-5z" fill="#fff" fill-opacity=".502"/></g></svg>