<svg version="1.0" viewBox="0 0 256 256" xmlns="http://www.w3.org/2000/svg"><path d="M56 16c-8.864 0-16.707 7.164-16 16l16 200c36 20 108 20 144 0l16-200c.707-8.836-7.136-16-16-16z" fill="#898989"/><path d="M56 16c-8.864 0-16.707 7.164-16 16l16 200c36 20 108 20 144 0l16-200c.707-8.836-7.136-16-16-16zm0 1h144c8.31 0 15 6.69 15 15l-16 195c-36 20-106 20-142 0L41 32c0-8.31 6.69-15 15-15z" fill-opacity=".5"/><g stroke-width=".5"><path d="M88 88 68 72l20-28 12 12 28-24 40 16 16 28-32 16 4 32-28 12-12-20-36 8-12-20z" fill="#ededed"/><path d="m100 56 22 22 14 22" fill="none" stroke="#898989" stroke-width="2"/></g><g stroke-width=".5"><path d="m114.228 117.025 12.753-22.211 30.729 15.482-10.024 13.694 28 24-9.694 41.976-25.223 20.094-20.706-29.176-31.011 8.846-16.141-25.835 17.929-14.917-13.412-34.353 17.93-14.917z" fill="#ededed"/><path d="m147.686 123.99-18.376 25.106-19.6 17.2" fill="none" stroke="#898989" stroke-width="2"/></g></svg>