<svg version="1.0" viewBox="0 0 256 256" xmlns="http://www.w3.org/2000/svg"><path d="M56 16c-8.864 0-16.707 7.164-16 16l16 200c36 20 108 20 144 0l16-200c.707-8.836-7.136-16-16-16z" fill="#898989"/><path d="M56 16c-8.864 0-16.707 7.164-16 16l16 200c36 20 108 20 144 0l16-200c.707-8.836-7.136-16-16-16zm0 1h144c8.31 0 15 6.69 15 15l-16 195c-36 20-106 20-142 0L41 32c0-8.31 6.69-15 15-15z" fill-opacity=".5"/><g fill="none" stroke-width="2"><path d="M129 35.54v192" opacity=".35" stroke="#000"/><path d="M127 35.54v192" opacity=".35" stroke="#fff"/></g></svg>