<svg version="1.0" viewBox="0 0 256 256" xmlns="http://www.w3.org/2000/svg"><path d="M24 24c-4.432 0-8 3.568-8 8v196c0 4.432 3.568 8 8 8h208c4.432 0 8-3.568 8-8V56c0-4.432-3.568-8-8-8h-92l-24-24z" fill="#48b9c7"/><path d="M24 24c-4.432 0-8 3.568-8 8v196c0 4.432 3.568 8 8 8h208c4.432 0 8-3.568 8-8V56c0-4.432-3.568-8-8-8h-92l-24-24zm0 32h208c3.878 0 7 3.122 7 7v161c0 3.878-3.122 7-7 7H24c-3.878 0-7-3.122-7-7V63c0-3.878 3.122-7 7-7z" fill-opacity=".25"/><path d="M24 55c-4.432 0-8 3.568-8 8v165c0 4.432 3.568 8 8 8h208c4.432 0 8-3.568 8-8V63c0-4.432-3.568-8-8-8zm0 1h208c3.878 0 7 3.122 7 7v161c0 3.878-3.122 7-7 7H24c-3.878 0-7-3.122-7-7V63c0-3.878 3.122-7 7-7z" fill-opacity=".25"/><path d="m128 94.5-56 47.969h12V198.5l48-.031V158.5h24v39.969l16 .031v-56.031h12zm-28 63.969h16v16h-16z" fill-opacity=".314"/><path d="m128 92.5-56 47.969h12V196.5l48-.031V156.5h24v39.969l16 .031v-56.031h12zm-28 63.969h16v16h-16z" fill="#fff"/></svg>