<svg version="1.0" viewBox="0 0 16 16" xmlns="http://www.w3.org/2000/svg"><g transform="translate(-16 -268)"><rect x="488" y="52" width="208" height="208" ry="16.5" fill="#3f51b5"/><rect x="103" y="255" width="26" height="26" ry="2.5" fill="#3f51b5"/><rect x="57" y="261" width="22" height="22" ry="2.5" fill="#3f51b5"/><path d="M105.5 255a2.495 2.495 0 0 0-2.5 2.5v21c0 1.385 1.115 2.5 2.5 2.5h21c1.385 0 2.5-1.115 2.5-2.5v-21c0-1.385-1.115-2.5-2.5-2.5zm.5 1h20c1.108 0 2 .892 2 2v19c0 1.108-.892 2-2 2h-20c-1.108 0-2-.892-2-2v-19c0-1.108.892-2 2-2z" fill-opacity=".502"/><rect x="17" y="269" width="14" height="14" ry="2.5" fill="#3f51b5"/><rect x="230" y="226" width="52" height="52" ry="4.5" fill="#3f51b5"/><rect x="160" y="240" width="40" height="39" ry="3.5" fill="#3f51b5"/><rect x="324" y="168" width="104" height="104" ry="8.5" fill="#3f51b5"/><path d="M59.5 261a2.495 2.495 0 0 0-2.5 2.5v17c0 1.385 1.115 2.5 2.5 2.5h17c1.385 0 2.5-1.115 2.5-2.5v-17c0-1.385-1.115-2.5-2.5-2.5zm.5 1h16c1.108 0 2 .892 2 2v16c0 1.108-.892 2-2 2H60c-1.108 0-2-.892-2-2v-16c0-1.108.892-2 2-2z" fill-opacity=".502"/><path d="M19.5 269a2.495 2.495 0 0 0-2.5 2.5v9c0 1.385 1.115 2.5 2.5 2.5h9c1.385 0 2.5-1.115 2.5-2.5v-9c0-1.385-1.115-2.5-2.5-2.5zm.5 1h8c1.108 0 2 .892 2 2v8c0 1.108-.892 2-2 2h-8c-1.108 0-2-.892-2-2v-8c0-1.108.892-2 2-2z" fill-opacity=".502"/><path d="M234.5 226a4.49 4.49 0 0 0-4.5 4.5v43a4.49 4.49 0 0 0 4.5 4.5h43a4.49 4.49 0 0 0 4.5-4.5v-43a4.49 4.49 0 0 0-4.5-4.5zm.5 1h42c2.216 0 4 1.784 4 4v40c0 2.216-1.784 4-4 4h-42c-2.216 0-4-1.784-4-4v-40c0-2.216 1.784-4 4-4z" fill-opacity=".502"/><path d="M163.5 240a3.492 3.492 0 0 0-3.5 3.5v32c0 1.939 1.561 3.5 3.5 3.5h33c1.939 0 3.5-1.561 3.5-3.5v-32c0-1.939-1.561-3.5-3.5-3.5zm.5 1h32c1.662 0 3 1.338 3 3v29c0 1.662-1.338 3-3 3h-32c-1.662 0-3-1.338-3-3v-29c0-1.662 1.338-3 3-3z" fill-opacity=".502"/><path d="M332.5 168a8.481 8.481 0 0 0-8.5 8.5v87c0 4.709 3.791 8.5 8.5 8.5h87c4.709 0 8.5-3.791 8.5-8.5v-87c0-4.709-3.791-8.5-8.5-8.5zm.5 1h86c4.432 0 8 3.568 8 8v83c0 4.432-3.568 8-8 8h-86c-4.432 0-8-3.568-8-8v-83c0-4.432 3.568-8 8-8z" fill-opacity=".502"/><path d="M504.5 52c-9.141 0-16.5 7.359-16.5 16.5v175c0 9.141 7.359 16.5 16.5 16.5h175c9.141 0 16.5-7.359 16.5-16.5v-175c0-9.141-7.359-16.5-16.5-16.5zm.5 1h174c8.864 0 16 7.136 16 16v170c0 8.864-7.136 16-16 16H505c-8.864 0-16-7.136-16-16V69c0-8.864 7.136-16 16-16z" fill-opacity=".502"/><g fill-opacity=".196"><g transform="matrix(.5 0 0 .5 -61.5 190.5)"><path d="m163 165-2 17h2l3-5h10l3 5h2l-2-17z" filter="url(#filter7554)"/><rect x="163" y="163" width="6" height="3" ry="1" filter="url(#filter7554)"/><rect x="179" y="181" width="2" height="2" ry="1" filter="url(#filter7554)"/><rect x="161" y="181" width="2" height="2" ry="1" filter="url(#filter7554)"/><rect x="173" y="163" width="6" height="3" ry="1" filter="url(#filter7554)"/><rect x="167" y="167" width="2" height="6" ry="1"/><rect x="165" y="169" width="6" height="2" ry="1"/><rect x="173" y="169" width="4" height="4" ry="1"/></g><g transform="translate(-9.377 66.877) scale(1.125)"><path d="m106.11 174.33-1.764 10.562 1.55.684 1.992-3.246h7.008l2.106 3.26 1.528-.754-1.753-10.507zm3.11.89h.888c.247 0 .445.199.445.445v1.333h1.333c.246 0 .444.199.444.445v.889a.443.443 0 0 1-.444.444h-1.333v1.333a.443.443 0 0 1-.445.445h-.889a.443.443 0 0 1-.444-.445v-1.333h-1.333a.443.443 0 0 1-.445-.444v-.89c0-.245.198-.444.445-.444h1.333v-1.333c0-.246.198-.444.444-.444zm4.888 0c.493 0 .89.397.89.89a.887.887 0 0 1-.89.888.887.887 0 0 1-.889-.888c0-.493.397-.89.89-.89zm.89 2.667c.492 0 .888.397.888.89s-.396.888-.889.888c-.492 0-.889-.396-.889-.889s.397-.889.89-.889z" filter="url(#filter7554)"/><rect x="106.11" y="173.44" width="3.556" height="1.778" ry=".889" filter="url(#filter7554)"/><rect x="113.22" y="173.44" width="3.556" height="1.778" ry=".889" filter="url(#filter7554)"/><rect x="116.78" y="184.11" width="1.778" height="1.778" ry=".889" filter="url(#filter7554)"/><rect x="104.34" y="184.11" width="1.778" height="1.778" ry=".889" filter="url(#filter7554)"/></g><g transform="translate(-57.377 70.877) scale(1.125)"><path d="m106.11 174.33-1.764 10.562 1.55.684 1.992-3.246h7.008l2.106 3.26 1.528-.754-1.753-10.507zm3.11.89h.888c.247 0 .445.199.445.445v1.333h1.333c.246 0 .444.199.444.445v.889a.443.443 0 0 1-.444.444h-1.333v1.333a.443.443 0 0 1-.445.445h-.889a.443.443 0 0 1-.444-.445v-1.333h-1.333a.443.443 0 0 1-.445-.444v-.89c0-.245.198-.444.445-.444h1.333v-1.333c0-.246.198-.444.444-.444zm4.888 0c.493 0 .89.397.89.89a.887.887 0 0 1-.89.888.887.887 0 0 1-.889-.888c0-.493.397-.89.89-.89zm.89 2.667c.492 0 .888.397.888.89s-.396.888-.889.888c-.492 0-.889-.396-.889-.889s.397-.889.89-.889z" filter="url(#filter7554)"/><rect x="106.11" y="173.44" width="3.556" height="1.778" ry=".889" filter="url(#filter7554)"/><rect x="113.22" y="173.44" width="3.556" height="1.778" ry=".889" filter="url(#filter7554)"/><rect x="116.78" y="184.11" width="1.778" height="1.778" ry=".889" filter="url(#filter7554)"/><rect x="104.34" y="184.11" width="1.778" height="1.778" ry=".889" filter="url(#filter7554)"/></g><g transform="matrix(1.5 0 0 1.5 -76.5 1)"><path transform="translate(.333 5) scale(.66667)" d="m247 243-2.977 17.824 2.616 1.154 3.36-5.478h11.827l3.555 5.502 2.578-1.272-2.96-17.73z" filter="url(#filter7554)"/><rect x="165" y="166" width="4" height="2" ry="1" filter="url(#filter7554)"/><rect x="173" y="166" width="4" height="2" ry="1" filter="url(#filter7554)"/><rect x="177" y="178" width="2" height="2" ry="1" filter="url(#filter7554)"/><rect x="163" y="178" width="2" height="2" ry="1" filter="url(#filter7554)"/><circle cx="173.33" cy="169.67" r="1"/><circle cx="175.33" cy="173" r="1"/><g transform="translate(.667)"><rect x="166.33" y="168.67" width="1.333" height="4" ry=".333"/><rect x="165" y="170" width="4" height="1.333" ry=".333"/></g></g><g transform="matrix(1.5 0 0 1.5 -.5 -6.5)"><path transform="translate(.333 5) scale(.66667)" d="m247 243-2.977 17.824 2.616 1.154 3.36-5.478h11.827l3.555 5.502 2.578-1.272-2.96-17.73z" filter="url(#filter7554)"/><rect x="165" y="166" width="4" height="2" ry="1" filter="url(#filter7554)"/><rect x="173" y="166" width="4" height="2" ry="1" filter="url(#filter7554)"/><rect x="177" y="178" width="2" height="2" ry="1" filter="url(#filter7554)"/><rect x="163" y="178" width="2" height="2" ry="1" filter="url(#filter7554)"/><circle cx="173.33" cy="169.67" r="1"/><circle cx="175.33" cy="173" r="1"/><g transform="translate(.667)"><rect x="166.33" y="168.67" width="1.333" height="4" ry=".333"/><rect x="165" y="170" width="4" height="1.333" ry=".333"/></g></g><g transform="matrix(3 0 0 3 -137 -298)"><path transform="translate(.333 5) scale(.66667)" d="m247 243-2.977 17.824 2.616 1.154 3.36-5.478h11.827l3.555 5.502 2.578-1.272-2.96-17.73z" filter="url(#filter7554)"/><rect x="165" y="166" width="4" height="2" ry="1" filter="url(#filter7554)"/><rect x="173" y="166" width="4" height="2" ry="1" filter="url(#filter7554)"/><rect x="177" y="178" width="2" height="2" ry="1" filter="url(#filter7554)"/><rect x="163" y="178" width="2" height="2" ry="1" filter="url(#filter7554)"/><circle cx="173.33" cy="169.67" r="1"/><circle cx="175.33" cy="173" r="1"/><g transform="translate(.667)"><rect x="166.33" y="168.67" width="1.333" height="4" ry=".333"/><rect x="165" y="170" width="4" height="1.333" ry=".333"/></g></g><g transform="matrix(6 0 0 6 -434 -881)"><path transform="translate(.333 5) scale(.66667)" d="m247 243-2.977 17.824 2.616 1.154 3.36-5.478h11.827l3.555 5.502 2.578-1.272-2.96-17.73z" filter="url(#filter7554)"/><rect x="165" y="166" width="4" height="2" ry="1" filter="url(#filter7554)"/><rect x="173" y="166" width="4" height="2" ry="1" filter="url(#filter7554)"/><rect x="177" y="178" width="2" height="2" ry="1" filter="url(#filter7554)"/><rect x="163" y="178" width="2" height="2" ry="1" filter="url(#filter7554)"/><circle cx="173.33" cy="169.67" r="1"/><circle cx="175.33" cy="173" r="1"/><g transform="translate(.667)"><rect x="166.33" y="168.67" width="1.333" height="4" ry=".333"/><rect x="165" y="170" width="4" height="1.333" ry=".333"/></g></g></g><g transform="matrix(.5 0 0 .5 -61.5 189.5)"><path d="m163 165-2 17h2l3-5h10l3 5h2l-2-17z" fill="#fff" filter="url(#filter7554)"/><rect x="163" y="163" width="6" height="3" ry="1" fill="#fff" filter="url(#filter7554)"/><rect x="179" y="181" width="2" height="2" ry="1" fill="#fff" filter="url(#filter7554)"/><rect x="161" y="181" width="2" height="2" ry="1" fill="#fff" filter="url(#filter7554)"/><rect x="173" y="163" width="6" height="3" ry="1" fill="#fff" filter="url(#filter7554)"/><g fill="#3f51b5"><rect x="167" y="167" width="2" height="6" ry="1"/><rect x="165" y="169" width="6" height="2" ry="1"/></g><rect x="173" y="169" width="4" height="4" ry="1" fill="#3f51b5"/></g><g fill="#fafafb"><g transform="translate(-9.377 65.877) scale(1.125)"><path d="m106.11 174.33-1.764 10.562 1.55.684 1.992-3.246h7.008l2.106 3.26 1.528-.754-1.753-10.507zm3.11.89h.888c.247 0 .445.199.445.445v1.333h1.333c.246 0 .444.199.444.445v.889a.443.443 0 0 1-.444.444h-1.333v1.333a.443.443 0 0 1-.445.445h-.889a.443.443 0 0 1-.444-.445v-1.333h-1.333a.443.443 0 0 1-.445-.444v-.89c0-.245.198-.444.445-.444h1.333v-1.333c0-.246.198-.444.444-.444zm4.888 0c.493 0 .89.397.89.89a.887.887 0 0 1-.89.888.887.887 0 0 1-.889-.888c0-.493.397-.89.89-.89zm.89 2.667c.492 0 .888.397.888.89s-.396.888-.889.888c-.492 0-.889-.396-.889-.889s.397-.889.89-.889z" filter="url(#filter7554)"/><rect x="106.11" y="173.44" width="3.556" height="1.778" ry=".889" filter="url(#filter7554)"/><rect x="113.22" y="173.44" width="3.556" height="1.778" ry=".889" filter="url(#filter7554)"/><rect x="116.78" y="184.11" width="1.778" height="1.778" ry=".889" filter="url(#filter7554)"/><rect x="104.34" y="184.11" width="1.778" height="1.778" ry=".889" filter="url(#filter7554)"/></g><g transform="translate(-57.377 69.877) scale(1.125)"><path d="m106.11 174.33-1.764 10.562 1.55.684 1.992-3.246h7.008l2.106 3.26 1.528-.754-1.753-10.507zm3.11.89h.888c.247 0 .445.199.445.445v1.333h1.333c.246 0 .444.199.444.445v.889a.443.443 0 0 1-.444.444h-1.333v1.333a.443.443 0 0 1-.445.445h-.889a.443.443 0 0 1-.444-.445v-1.333h-1.333a.443.443 0 0 1-.445-.444v-.89c0-.245.198-.444.445-.444h1.333v-1.333c0-.246.198-.444.444-.444zm4.888 0c.493 0 .89.397.89.89a.887.887 0 0 1-.89.888.887.887 0 0 1-.889-.888c0-.493.397-.89.89-.89zm.89 2.667c.492 0 .888.397.888.89s-.396.888-.889.888c-.492 0-.889-.396-.889-.889s.397-.889.89-.889z" filter="url(#filter7554)"/><rect x="106.11" y="173.44" width="3.556" height="1.778" ry=".889" filter="url(#filter7554)"/><rect x="113.22" y="173.44" width="3.556" height="1.778" ry=".889" filter="url(#filter7554)"/><rect x="116.78" y="184.11" width="1.778" height="1.778" ry=".889" filter="url(#filter7554)"/><rect x="104.34" y="184.11" width="1.778" height="1.778" ry=".889" filter="url(#filter7554)"/></g></g><g transform="translate(-76.5) scale(1.5)"><path transform="translate(.333 5) scale(.66667)" d="m247 243-2.977 17.824 2.616 1.154 3.36-5.478h11.827l3.555 5.502 2.578-1.272-2.96-17.73z" fill="#fff" filter="url(#filter7554)"/><rect x="165" y="166" width="4" height="2" ry="1" fill="#fff" filter="url(#filter7554)"/><rect x="173" y="166" width="4" height="2" ry="1" fill="#fff" filter="url(#filter7554)"/><rect x="177" y="178" width="2" height="2" ry="1" fill="#fff" filter="url(#filter7554)"/><rect x="163" y="178" width="2" height="2" ry="1" fill="#fff" filter="url(#filter7554)"/><circle cx="173.33" cy="169.67" r="1" fill="#3f51b5"/><circle cx="175.33" cy="173" r="1" fill="#3f51b5"/><g transform="translate(.667)" fill="#3f51b5"><rect x="166.33" y="168.67" width="1.333" height="4" ry=".333"/><rect x="165" y="170" width="4" height="1.333" ry=".333"/></g></g><g transform="matrix(1.5 0 0 1.5 -.5 -7.5)"><path transform="translate(.333 5) scale(.66667)" d="m247 243-2.977 17.824 2.616 1.154 3.36-5.478h11.827l3.555 5.502 2.578-1.272-2.96-17.73z" fill="#fff" filter="url(#filter7554)"/><rect x="165" y="166" width="4" height="2" ry="1" fill="#fff" filter="url(#filter7554)"/><rect x="173" y="166" width="4" height="2" ry="1" fill="#fff" filter="url(#filter7554)"/><rect x="177" y="178" width="2" height="2" ry="1" fill="#fff" filter="url(#filter7554)"/><rect x="163" y="178" width="2" height="2" ry="1" fill="#fff" filter="url(#filter7554)"/><circle cx="173.33" cy="169.67" r="1" fill="#3f51b5"/><circle cx="175.33" cy="173" r="1" fill="#3f51b5"/><g transform="translate(.667)" fill="#3f51b5"><rect x="166.33" y="168.67" width="1.333" height="4" ry=".333"/><rect x="165" y="170" width="4" height="1.333" ry=".333"/></g></g><g transform="matrix(3 0 0 3 -137 -299)"><path transform="translate(.333 5) scale(.66667)" d="m247 243-2.977 17.824 2.616 1.154 3.36-5.478h11.827l3.555 5.502 2.578-1.272-2.96-17.73z" fill="#fff" filter="url(#filter7554)"/><rect x="165" y="166" width="4" height="2" ry="1" fill="#fff" filter="url(#filter7554)"/><rect x="173" y="166" width="4" height="2" ry="1" fill="#fff" filter="url(#filter7554)"/><rect x="177" y="178" width="2" height="2" ry="1" fill="#fff" filter="url(#filter7554)"/><rect x="163" y="178" width="2" height="2" ry="1" fill="#fff" filter="url(#filter7554)"/><circle cx="173.33" cy="169.67" r="1" fill="#3f51b5"/><circle cx="175.33" cy="173" r="1" fill="#3f51b5"/><g transform="translate(.667)" fill="#3f51b5"><rect x="166.33" y="168.67" width="1.333" height="4" ry=".333"/><rect x="165" y="170" width="4" height="1.333" ry=".333"/></g></g><g transform="matrix(6 0 0 6 -434 -882)"><path transform="translate(.333 5) scale(.66667)" d="m247 243-2.977 17.824 2.616 1.154 3.36-5.478h11.827l3.555 5.502 2.578-1.272-2.96-17.73z" fill="#fff" filter="url(#filter7554)"/><rect x="165" y="166" width="4" height="2" ry="1" fill="#fff" filter="url(#filter7554)"/><rect x="173" y="166" width="4" height="2" ry="1" fill="#fff" filter="url(#filter7554)"/><rect x="177" y="178" width="2" height="2" ry="1" fill="#fff" filter="url(#filter7554)"/><rect x="163" y="178" width="2" height="2" ry="1" fill="#fff" filter="url(#filter7554)"/><circle cx="173.33" cy="169.67" r="1" fill="#3f51b5"/><circle cx="175.33" cy="173" r="1" fill="#3f51b5"/><g transform="translate(.667)" fill="#3f51b5"><rect x="166.33" y="168.67" width="1.333" height="4" ry=".333"/><rect x="165" y="170" width="4" height="1.333" ry=".333"/></g></g></g></svg>