<svg version="1.0" viewBox="0 0 16 16" xmlns="http://www.w3.org/2000/svg"><g transform="translate(-16 -268)"><rect x="17" y="269" width="14" height="14" ry="2.5" fill="#48b9c7"/><path d="M19.5 269a2.495 2.495 0 0 0-2.5 2.5v9c0 1.385 1.115 2.5 2.5 2.5h9c1.385 0 2.5-1.115 2.5-2.5v-9c0-1.385-1.115-2.5-2.5-2.5zm.5 1h8c1.108 0 2 .892 2 2v8c0 1.108-.892 2-2 2h-8c-1.108 0-2-.892-2-2v-8c0-1.108.892-2 2-2z" fill-opacity=".502"/><g fill-opacity=".196"><path d="M23.948 273.255c-1.055.015-2.473.401-2.449 1.64.025 1.293 1.459.831 1.576 1.36.017-.023.044-.042.062-.063.099-.107.198-.194.296-.297.157-.176.318-.34.484-.515.553-.59.577-.625 1.898-1.625a3.563 3.563 0 0 0-1.649-.5 5.28 5.28 0 0 0-.218 0zm-.951.765a.75.75 0 1 1-.002 1.499.75.75 0 0 1 .002-1.499zm3.634.331c-.71 1.117-1.183 1.778-1.685 2.294-.32.329-.581.656-.81.89-.42.446-.97.97-1.576 1.547.032.735.405 1.373 1.622 1.61 1.949.377 4.013-.913 3.806-3.531-.09-1.124-.703-2.141-1.357-2.81zm-.129 1.654a.5.5 0 1 1-.002 1 .5.5 0 0 1 .002-1zm0 2a.5.5 0 1 1-.002 1 .5.5 0 0 1 .002-1zm-3 1a.5.5 0 1 1-.002 1 .5.5 0 0 1 .002-1zm2 0a.5.5 0 1 1-.002 1 .5.5 0 0 1 .002-1z"/><path d="M19.999 280c.776 0 .697-.894 1.074-1.143.436-.288.819.069.895.363.097.371-.058.816-.565.942-.536.135-1.33.139-1.404-.162z"/><path d="M27.018 273.255c-.9.65-2.103 1.65-3.057 2.667-.087.092-.17.18-.253.273-.051.054-.105.098-.157.154-.033.038-.063.082-.095.12-.936 1.035-1.86 2.34-2.458 3.316 1.488-1.149 2.458-2.082 3.073-2.735.12-.123.265-.283.425-.462.602-.667 1.463-1.718 2.522-3.333z"/></g><g fill="#fff"><path d="M23.948 272.255c-1.055.015-2.473.401-2.449 1.64.025 1.293 1.459.831 1.576 1.36.017-.023.044-.042.062-.063.099-.107.198-.194.296-.297.157-.176.318-.34.484-.515.553-.59.577-.625 1.898-1.625a3.563 3.563 0 0 0-1.649-.5 5.28 5.28 0 0 0-.218 0zm-.951.765a.75.75 0 1 1-.002 1.499.75.75 0 0 1 .002-1.499zm3.634.331c-.71 1.117-1.183 1.778-1.685 2.294-.32.329-.581.656-.81.89-.42.446-.97.97-1.576 1.547.032.735.405 1.373 1.622 1.61 1.949.377 4.013-.913 3.806-3.531-.09-1.124-.703-2.141-1.357-2.81zm-.129 1.654a.5.5 0 1 1-.002 1 .5.5 0 0 1 .002-1zm0 2a.5.5 0 1 1-.002 1 .5.5 0 0 1 .002-1zm-3 1a.5.5 0 1 1-.002 1 .5.5 0 0 1 .002-1zm2 0a.5.5 0 1 1-.002 1 .5.5 0 0 1 .002-1z"/><path d="M19.999 279c.776 0 .697-.894 1.074-1.143.436-.288.819.069.895.363.097.371-.058.816-.565.942-.536.135-1.33.139-1.404-.162z"/><path d="M27.018 272.255c-.9.65-2.103 1.65-3.057 2.667-.087.092-.17.18-.253.273-.051.054-.105.098-.157.154-.033.038-.063.082-.095.12-.936 1.035-1.86 2.34-2.458 3.316 1.488-1.149 2.458-2.082 3.073-2.735.12-.123.265-.283.425-.462.602-.667 1.463-1.718 2.522-3.333z"/></g></g></svg>