<svg version="1.0" viewBox="0 0 16 16" xmlns="http://www.w3.org/2000/svg"><g transform="translate(-16 -268)"><rect transform="matrix(0 -1 -1 0 0 0)" x="-280" y="-32" width="12" height="12" ry="2" fill="#500302"/><rect x="21" y="269" width="10" height="10" ry="1.5" fill="#a10705"/><path d="M23.319 270.48a.31.31 0 0 0-.31.311v6.377a.31.31 0 0 0 .46.273l5.833-3.188a.312.312 0 0 0 0-.546l-5.25-2.87-.584-.319a.31.31 0 0 0-.149-.038z" color="#000" fill="#fff" fill-opacity=".94" style="isolation:auto;mix-blend-mode:normal;text-decoration-color:#000;text-decoration-line:none;text-decoration-style:solid;text-indent:0;text-transform:none;white-space:normal"/><rect transform="matrix(0 -1 -1 0 0 0)" x="-284" y="-28" width="12" height="12" ry="2" fill="#793914"/><rect x="17" y="273" width="10" height="10" ry="1.5" fill="#f37329"/><path d="M20 276v4.094a1.463 1.463 0 0 0-.5-.094 1.5 1.5 0 1 0 1.5 1.5V278h3v2.094a1.463 1.463 0 0 0-.5-.094 1.5 1.5 0 1 0 1.5 1.5V276h-.5z" fill-opacity=".196"/><path d="M20 275v4.094a1.463 1.463 0 0 0-.5-.094 1.5 1.5 0 1 0 1.5 1.5V277h3v2.094a1.463 1.463 0 0 0-.5-.094 1.5 1.5 0 1 0 1.5 1.5V275h-.5z" fill="#fff" fill-opacity=".94"/></g></svg>