<svg version="1.0" viewBox="0 0 16 16" xmlns="http://www.w3.org/2000/svg"><g transform="translate(-16 -268)"><rect x="17" y="269" width="14" height="14" ry="2.5" fill="#3f51b5"/><path d="M19.5 269a2.495 2.495 0 0 0-2.5 2.5v9c0 1.385 1.115 2.5 2.5 2.5h9c1.385 0 2.5-1.115 2.5-2.5v-9c0-1.385-1.115-2.5-2.5-2.5zm.5 1h8c1.108 0 2 .892 2 2v8c0 1.108-.892 2-2 2h-8c-1.108 0-2-.892-2-2v-8c0-1.108.892-2 2-2z" fill-opacity=".502"/><path d="M24 272c-2.756 0-5 2.244-5 5s2.244 5 5 5 5-2.244 5-5-2.244-5-5-5zm0 1c2.215 0 4 1.785 4 4s-1.785 4-4 4-4-1.785-4-4 1.785-4 4-4z" color="#000" fill-opacity=".502" style="font-feature-settings:normal;font-variant-alternates:normal;font-variant-caps:normal;font-variant-ligatures:normal;font-variant-numeric:normal;font-variant-position:normal;isolation:auto;mix-blend-mode:normal;shape-padding:0;text-decoration-color:#000;text-decoration-line:none;text-decoration-style:solid;text-indent:0;text-orientation:mixed;text-transform:none;white-space:normal"/><rect x="20" y="275" width="8" height="1" ry="0" fill-opacity=".502"/><path fill-opacity=".502" d="M20 278h8v1h-8z"/><path fill-opacity=".502" opacity=".5" d="M22 273h1v8.5h-1z"/><path fill-opacity=".502" opacity=".5" d="M25 273h1v8h-1z"/><circle cx="24" cy="276" r="4.5" fill="none" stroke="#fdfdfd" stroke-linecap="square"/><rect x="20" y="274" width="8" height="1" ry="0" fill="#fff"/><path fill="#fff" d="M20 277h8v1h-8z"/><path fill="#fff" opacity=".5" d="M22 272h1v8.5h-1z"/><path fill="#fff" opacity=".5" d="M25 272h1v8h-1z"/></g></svg>