<svg version="1.0" viewBox="0 0 16 16" xmlns="http://www.w3.org/2000/svg"><g transform="translate(-16 632)"><rect x="20" y="-623" width="8" height="6" ry="1" fill="#424242"/><rect x="21" y="-622" width="6" height="4" ry=".5" fill="#848484"/><rect x="16" y="-631" width="16" height="12" ry=".75" fill="#6f6f6f"/><rect x="17" y="-630" width="14" height="10" ry=".5" fill="#acacac"/><path fill="#464646" d="M18-629h12v7H18z"/><path d="m23.262-628.61-.065.778a2.32 2.32 0 0 0-.678.392l-.707-.333-.738 1.279.641.446a2.32 2.32 0 0 0-.035.391 2.32 2.32 0 0 0 .034.393l-.64.444.738 1.28.705-.333a2.32 2.32 0 0 0 .68.39l.065.78h1.477l.065-.779a2.32 2.32 0 0 0 .678-.392l.707.333.738-1.279-.642-.445a2.32 2.32 0 0 0 .036-.392 2.32 2.32 0 0 0-.034-.393l.64-.444-.738-1.279-.706.332a2.32 2.32 0 0 0-.68-.39l-.064-.779zM24-626.5a.844.844 0 0 1 .844.843.844.844 0 0 1-.844.844.844.844 0 0 1-.843-.844.844.844 0 0 1 .843-.844z" fill="#fff"/></g></svg>