<svg version="1.0" viewBox="0 0 16 16" xmlns="http://www.w3.org/2000/svg"><g transform="translate(-16 -268)"><rect x="17" y="269" width="14" height="14" ry="2.5" fill="#d1a023"/><path d="M19.5 269a2.495 2.495 0 0 0-2.5 2.5v9c0 1.385 1.115 2.5 2.5 2.5h9c1.385 0 2.5-1.115 2.5-2.5v-9c0-1.385-1.115-2.5-2.5-2.5zm.5 1h8c1.108 0 2 .892 2 2v8c0 1.108-.892 2-2 2h-8c-1.108 0-2-.892-2-2v-8c0-1.108.892-2 2-2z" fill-opacity=".502"/><g fill-opacity=".502"><path d="M23.999 277.005c-2 0-2.999 1.5-2.999 3h-.875c-.124 0-.124.079-.124.125v.75c0 .125.069.125.124.125h7.747c.098.003.125-.065.125-.125v-.75c.011-.073 0-.125-.125-.125h-.874c0-1.5-1-3-2.999-3zm0 1.5c1.175 0 1.5.88 1.5 1.5h-3c0-.599.352-1.5 1.5-1.5z" fill-rule="evenodd"/><path d="M185.71 251.59a3.652 3.652 0 0 0-.967-.561l-.021 2.232-1.006.73h-1l-.998-.769v-2.232a3.501 3.501 0 0 0-.956.537c-1.377 1.114-1.395 2.948-.04 4.098.284.24.653.414.996.556 0 .81-.003 1.327 0 2.05 1.49.75 2.35 1.76 2.998 2.76v-4.75a3.55 3.55 0 0 0 .954-.553c1.377-1.114 1.395-2.949.04-4.098z" color="#000" style="text-decoration-line:none;text-indent:0;text-transform:none" transform="matrix(.5 0 0 .5 -65.361 147.51)"/></g><g fill="#fff"><path d="M23.999 276.005c-2 0-2.999 1.5-2.999 3h-.875c-.124 0-.124.079-.124.125v.75c0 .125.069.125.124.125h7.747c.098.003.125-.065.125-.125v-.75c.011-.073 0-.125-.125-.125h-.874c0-1.5-1-3-2.999-3zm0 1.5c1.175 0 1.5.88 1.5 1.5h-3c0-.599.352-1.5 1.5-1.5z" fill-rule="evenodd"/><path d="M185.71 251.59a3.652 3.652 0 0 0-.967-.561l-.021 2.232-1.006.73h-1l-.998-.769v-2.232a3.501 3.501 0 0 0-.956.537c-1.377 1.114-1.395 2.948-.04 4.098.284.24.653.414.996.556 0 .81-.003 1.327 0 2.05 1.49.75 2.35 1.76 2.998 2.76v-4.75a3.55 3.55 0 0 0 .954-.553c1.377-1.114 1.395-2.949.04-4.098z" color="#000" style="text-decoration-line:none;text-indent:0;text-transform:none" transform="matrix(.5 0 0 .5 -65.361 146.51)"/></g></g></svg>