<svg version="1.0" viewBox="0 0 16 16" xmlns="http://www.w3.org/2000/svg"><g transform="translate(-16 -268)"><rect x="17" y="269" width="14" height="14" ry="2.5" fill="#3f51b5"/><path d="M19.5 269a2.495 2.495 0 0 0-2.5 2.5v9c0 1.385 1.115 2.5 2.5 2.5h9c1.385 0 2.5-1.115 2.5-2.5v-9c0-1.385-1.115-2.5-2.5-2.5zm.5 1h8c1.108 0 2 .892 2 2v8c0 1.108-.892 2-2 2h-8c-1.108 0-2-.892-2-2v-8c0-1.108.892-2 2-2z" fill-opacity=".502"/><g transform="matrix(.5 0 0 .5 -61.5 190.5)" fill-opacity=".196"><path d="m163 165-2 17h2l3-5h10l3 5h2l-2-17z" filter="url(#filter7554)"/><rect x="163" y="163" width="6" height="3" ry="1" filter="url(#filter7554)"/><rect x="179" y="181" width="2" height="2" ry="1" filter="url(#filter7554)"/><rect x="161" y="181" width="2" height="2" ry="1" filter="url(#filter7554)"/><rect x="173" y="163" width="6" height="3" ry="1" filter="url(#filter7554)"/><rect x="167" y="167" width="2" height="6" ry="1"/><rect x="165" y="169" width="6" height="2" ry="1"/><rect x="173" y="169" width="4" height="4" ry="1"/></g><g transform="matrix(.5 0 0 .5 -61.5 189.5)"><path d="m163 165-2 17h2l3-5h10l3 5h2l-2-17z" fill="#fff" filter="url(#filter7554)"/><rect x="163" y="163" width="6" height="3" ry="1" fill="#fff" filter="url(#filter7554)"/><rect x="179" y="181" width="2" height="2" ry="1" fill="#fff" filter="url(#filter7554)"/><rect x="161" y="181" width="2" height="2" ry="1" fill="#fff" filter="url(#filter7554)"/><rect x="173" y="163" width="6" height="3" ry="1" fill="#fff" filter="url(#filter7554)"/><g fill="#3f51b5"><rect x="167" y="167" width="2" height="6" ry="1"/><rect x="165" y="169" width="6" height="2" ry="1"/></g><rect x="173" y="169" width="4" height="4" ry="1" fill="#3f51b5"/></g></g></svg>