<svg version="1.0" viewBox="0 0 16 16" xmlns="http://www.w3.org/2000/svg"><g transform="translate(-16 -268)"><rect x="17" y="269" width="14" height="14" ry="2.5" fill="#4f4b49"/><rect x="18" y="270" width="12" height="12" ry="2" fill="#9f9792"/><path d="m23.125 273.5-.077.922a2.75 2.75 0 0 0-.804.465l-.838-.395-.875 1.516.761.528a2.75 2.75 0 0 0-.042.464 2.75 2.75 0 0 0 .04.466l-.759.526.875 1.516.836-.394a2.75 2.75 0 0 0 .806.462l.077.924h1.75l.077-.922a2.75 2.75 0 0 0 .804-.465l.838.395.875-1.516-.761-.528a2.75 2.75 0 0 0 .042-.464 2.75 2.75 0 0 0-.04-.466l.759-.526-.875-1.516-.836.394a2.75 2.75 0 0 0-.806-.462l-.077-.924zM24 276a1 1 0 0 1 1 1 1 1 0 0 1-1 1 1 1 0 0 1-1-1 1 1 0 0 1 1-1z" fill-opacity=".196"/><path d="m23.125 272.5-.077.922a2.75 2.75 0 0 0-.804.465l-.838-.395-.875 1.516.761.528a2.75 2.75 0 0 0-.042.464 2.75 2.75 0 0 0 .04.466l-.759.526.875 1.516.836-.394a2.75 2.75 0 0 0 .806.462l.077.924h1.75l.077-.922a2.75 2.75 0 0 0 .804-.465l.838.395.875-1.516-.761-.528a2.75 2.75 0 0 0 .042-.464 2.75 2.75 0 0 0-.04-.466l.759-.526-.875-1.516-.836.394a2.75 2.75 0 0 0-.806-.462l-.077-.924zM24 275a1 1 0 0 1 1 1 1 1 0 0 1-1 1 1 1 0 0 1-1-1 1 1 0 0 1 1-1z" fill="#fff"/></g></svg>