<svg version="1.0" viewBox="0 0 16 16" xmlns="http://www.w3.org/2000/svg"><g transform="translate(-16 -268)"><rect x="17" y="269" width="14" height="14" ry="2.5" fill="#faa41a"/><path d="M19.5 269a2.495 2.495 0 0 0-2.5 2.5v9c0 1.385 1.115 2.5 2.5 2.5h9c1.385 0 2.5-1.115 2.5-2.5v-9c0-1.385-1.115-2.5-2.5-2.5zm.5 1h8c1.108 0 2 .892 2 2v8c0 1.108-.892 2-2 2h-8c-1.108 0-2-.892-2-2v-8c0-1.108.892-2 2-2z" fill-opacity=".502"/><path d="M21 273c-1 0-1 1-1 1v6c0 1 1 1 1 1h6s1 0 1-1v-6c0-1-1-1-1-1h-1.5zm0 1.002 5-.002v1l-5 .002zm0 2h6V277h-6zM21 278h4v1h-4z" fill-opacity=".196"/><path d="M21 272c-1 0-1 1-1 1v6c0 1 1 1 1 1h6s1 0 1-1v-6c0-1-1-1-1-1h-1.5zm0 1.002 5-.002v1l-5 .002zm0 2h6V276h-6zM21 277h4v1h-4z" fill="#fff"/></g></svg>