<svg version="1.0" viewBox="0 0 16 16" xmlns="http://www.w3.org/2000/svg"><g transform="translate(-16 -268)"><rect x="17" y="269" width="14" height="14" ry="2.5" fill="#cdcdcd"/><path d="M19.5 269a2.495 2.495 0 0 0-2.5 2.5v9c0 1.385 1.115 2.5 2.5 2.5h9c1.385 0 2.5-1.115 2.5-2.5v-9c0-1.385-1.115-2.5-2.5-2.5zm.5 1h8c1.108 0 2 .892 2 2v8c0 1.108-.892 2-2 2h-8c-1.108 0-2-.892-2-2v-8c0-1.108.892-2 2-2z" fill-opacity=".502"/><path d="M21 278h1l3-8h1l3 8h1v1h-3.5v-1h1l-.715-2H24.23l-.73 2h1v1H21zm3.5-3h2l-.996-3.21z" aria-label="A"/><rect x="19" y="270" width="1" height="11" ry="0" fill-opacity=".251"/><path fill-opacity=".251" d="M19 280h11v1H19z"/></g></svg>