<svg version="1.0" viewBox="0 0 16 16" xmlns="http://www.w3.org/2000/svg"><g transform="translate(-16 -268)"><rect x="17" y="269" width="14" height="14" ry="2.5" fill="#7b736e"/><path d="M19.5 269a2.495 2.495 0 0 0-2.5 2.5v9c0 1.385 1.115 2.5 2.5 2.5h9c1.385 0 2.5-1.115 2.5-2.5v-9c0-1.385-1.115-2.5-2.5-2.5zm.5 1h8c1.108 0 2 .892 2 2v8c0 1.108-.892 2-2 2h-8c-1.108 0-2-.892-2-2v-8c0-1.108.892-2 2-2z" fill-opacity=".502"/><g fill-opacity=".196" color="#000"><path d="M147.46 253.04c.39-.101.79-.11 1.17-.08l-1.36 2.305a.975.975 0 0 0 .355 1.348l.874.508a.99.99 0 0 0 1.357-.353l1.36-2.306c.212.314.4.666.501 1.053.487 1.853-.631 3.748-2.496 4.234-.39.101-.79.11-1.17.08l-.803 1.115-3.41-.022s1.52-2.578 1.627-2.595a3.483 3.483 0 0 1-.502-1.053c-.486-1.853.632-3.748 2.497-4.234z" style="text-decoration-line:none;text-indent:0;text-transform:none" transform="matrix(.5 0 0 .5 -47.921 145.54)"/><path d="M21.529 272.22a1.803 1.803 0 0 0-.328.11c-.008.312.044.72-.078.827-.119.106-.518.018-.827-.015a1.815 1.815 0 0 0-.156.375c.24.198.57.42.578.578.008.16-.313.402-.53.625.05.129.124.247.202.36.304-.064.682-.187.811-.094.132.094.133.502.172.812.125.038.256.052.39.063.14-.278.283-.66.437-.704.158-.044.481.23.749.391a1.86 1.86 0 0 0 .296-.266c-.127-.286-.36-.645-.296-.796.063-.152.487-.235.78-.344.002-.037.015-.072.015-.11 0-.095-.017-.19-.03-.28-.303-.081-.733-.121-.812-.266-.078-.144.12-.531.218-.829a1.84 1.84 0 0 0-.327-.234c-.25.188-.542.497-.702.469-.159-.028-.331-.41-.5-.672-.02.003-.042-.004-.062 0zm.312.938a.843.843 0 1 1-.001 1.686.843.843 0 0 1 .001-1.686z"/></g><path d="m19.004 277-.002 4c0 .57.46 1 .998 1h7.992c.523 0 .994-.445.994-.938l.002-4.062H21.5z" color="#bebebe" fill-opacity=".196"/><g fill="#fff" color="#000"><path d="M147.46 253.04c.39-.101.79-.11 1.17-.08l-1.36 2.305a.975.975 0 0 0 .355 1.348l.874.508a.99.99 0 0 0 1.357-.353l1.36-2.306c.212.314.4.666.501 1.053.487 1.853-.631 3.748-2.496 4.234-.39.101-.79.11-1.17.08l-.803 1.115-3.41-.022s1.52-2.578 1.627-2.595a3.483 3.483 0 0 1-.502-1.053c-.486-1.853.632-3.748 2.497-4.234z" style="text-decoration-line:none;text-indent:0;text-transform:none" transform="matrix(.5 0 0 .5 -47.921 144.54)"/><path d="M21.529 271.22a1.803 1.803 0 0 0-.328.11c-.008.312.044.72-.078.827-.119.106-.518.018-.827-.015a1.815 1.815 0 0 0-.156.375c.24.198.57.42.578.578.008.16-.313.402-.53.625.05.129.124.247.202.36.304-.064.682-.187.811-.094.132.094.133.502.172.812.125.038.256.052.39.063.14-.278.283-.66.437-.704.158-.044.481.23.749.391a1.86 1.86 0 0 0 .296-.266c-.127-.286-.36-.645-.296-.796.063-.152.487-.235.78-.344.002-.037.015-.072.015-.11 0-.095-.017-.19-.03-.28-.303-.081-.733-.121-.812-.266-.078-.144.12-.531.218-.829a1.84 1.84 0 0 0-.327-.234c-.25.188-.542.497-.702.469-.159-.028-.331-.41-.5-.672-.02.003-.042-.004-.062 0zm.312.938a.843.843 0 1 1-.001 1.686.843.843 0 0 1 .001-1.686z"/></g><path d="m19.004 276-.002 4c0 .57.46 1 .998 1h7.992c.523 0 .994-.445.994-.938l.002-4.062H21.5z" color="#bebebe" fill="#fff"/></g></svg>