<svg version="1.0" viewBox="0 0 16 16" xmlns="http://www.w3.org/2000/svg"><g transform="translate(-16 -268)"><rect x="17" y="269" width="14" height="14" ry="2.5" fill="#9c27b0"/><path d="M19.5 269a2.495 2.495 0 0 0-2.5 2.5v9c0 1.385 1.115 2.5 2.5 2.5h9c1.385 0 2.5-1.115 2.5-2.5v-9c0-1.385-1.115-2.5-2.5-2.5zm.5 1h8c1.108 0 2 .892 2 2v8c0 1.108-.892 2-2 2h-8c-1.108 0-2-.892-2-2v-8c0-1.108.892-2 2-2z" fill-opacity=".502"/><g transform="matrix(.5 0 0 .5 -33.5 144.86)" fill-opacity=".196" color="#000"><rect x="109" y="256.27" width="6" height="16" rx="2.934" ry="2.986"/><path d="M114.41 256.27c.878.713 1.469 1.792 1.469 3v1h2.125c-.074-1.093 1.248-2 2-2 .68 0 1 .012 1 1v1h1.219c1.228-.6 1.78-1.97 1.78-2.688 0-.735-2.385-1.312-3.687-1.312z"/><path d="M116 261.27v4.313c2.766 2.661 6.125 2.406 6.125 2.406s.353-1.521-1.906-4.031l-2.375-2.688h-1.781c-.022.002-.042-.002-.063 0zm2.975 2.532 1.683 1.737c-1.799.165-2.15-.857-1.683-1.737z"/></g><g transform="matrix(.5 0 0 .5 -33.5 143.86)" fill="#fff" color="#000"><rect x="109" y="256.27" width="6" height="16" rx="2.934" ry="2.986"/><path d="M114.41 256.27c.878.713 1.469 1.792 1.469 3v1h2.125c-.074-1.093 1.248-2 2-2 .68 0 1 .012 1 1v1h1.219c1.228-.6 1.78-1.97 1.78-2.688 0-.735-2.385-1.312-3.687-1.312z"/><path d="M116 261.27v4.313c2.766 2.661 6.125 2.406 6.125 2.406s.353-1.521-1.906-4.031l-2.375-2.688h-1.781c-.022.002-.042-.002-.063 0zm2.975 2.532 1.683 1.737c-1.799.165-2.15-.857-1.683-1.737z"/></g></g></svg>