<svg version="1.0" viewBox="0 0 16 16" xmlns="http://www.w3.org/2000/svg"><g transform="translate(-16 -268)"><rect x="488" y="52" width="208" height="208" ry="16.5" fill="#7b736e"/><rect x="103" y="255" width="26" height="26" ry="2.5" fill="#7b736e"/><rect x="57" y="261" width="22" height="22" ry="2.5" fill="#7b736e"/><path d="M105.5 255a2.495 2.495 0 0 0-2.5 2.5v21c0 1.385 1.115 2.5 2.5 2.5h21c1.385 0 2.5-1.115 2.5-2.5v-21c0-1.385-1.115-2.5-2.5-2.5zm.5 1h20c1.108 0 2 .892 2 2v19c0 1.108-.892 2-2 2h-20c-1.108 0-2-.892-2-2v-19c0-1.108.892-2 2-2z" fill-opacity=".502"/><rect x="17" y="269" width="14" height="14" ry="2.5" fill="#7b736e"/><rect x="230" y="226" width="52" height="52" ry="4.5" fill="#7b736e"/><rect x="160" y="240" width="40" height="39" ry="3.5" fill="#7b736e"/><rect x="324" y="168" width="104" height="104" ry="8.5" fill="#7b736e"/><path d="M59.5 261a2.495 2.495 0 0 0-2.5 2.5v17c0 1.385 1.115 2.5 2.5 2.5h17c1.385 0 2.5-1.115 2.5-2.5v-17c0-1.385-1.115-2.5-2.5-2.5zm.5 1h16c1.108 0 2 .892 2 2v16c0 1.108-.892 2-2 2H60c-1.108 0-2-.892-2-2v-16c0-1.108.892-2 2-2z" fill-opacity=".502"/><path d="M19.5 269a2.495 2.495 0 0 0-2.5 2.5v9c0 1.385 1.115 2.5 2.5 2.5h9c1.385 0 2.5-1.115 2.5-2.5v-9c0-1.385-1.115-2.5-2.5-2.5zm.5 1h8c1.108 0 2 .892 2 2v8c0 1.108-.892 2-2 2h-8c-1.108 0-2-.892-2-2v-8c0-1.108.892-2 2-2z" fill-opacity=".502"/><path d="M234.5 226a4.49 4.49 0 0 0-4.5 4.5v43a4.49 4.49 0 0 0 4.5 4.5h43a4.49 4.49 0 0 0 4.5-4.5v-43a4.49 4.49 0 0 0-4.5-4.5zm.5 1h42c2.216 0 4 1.784 4 4v40c0 2.216-1.784 4-4 4h-42c-2.216 0-4-1.784-4-4v-40c0-2.216 1.784-4 4-4z" fill-opacity=".502"/><path d="M163.5 240a3.492 3.492 0 0 0-3.5 3.5v32c0 1.939 1.561 3.5 3.5 3.5h33c1.939 0 3.5-1.561 3.5-3.5v-32c0-1.939-1.561-3.5-3.5-3.5zm.5 1h32c1.662 0 3 1.338 3 3v29c0 1.662-1.338 3-3 3h-32c-1.662 0-3-1.338-3-3v-29c0-1.662 1.338-3 3-3z" fill-opacity=".502"/><path d="M332.5 168a8.481 8.481 0 0 0-8.5 8.5v87c0 4.709 3.791 8.5 8.5 8.5h87c4.709 0 8.5-3.791 8.5-8.5v-87c0-4.709-3.791-8.5-8.5-8.5zm.5 1h86c4.432 0 8 3.568 8 8v83c0 4.432-3.568 8-8 8h-86c-4.432 0-8-3.568-8-8v-83c0-4.432 3.568-8 8-8z" fill-opacity=".502"/><path d="M504.5 52c-9.141 0-16.5 7.359-16.5 16.5v175c0 9.141 7.359 16.5 16.5 16.5h175c9.141 0 16.5-7.359 16.5-16.5v-175c0-9.141-7.359-16.5-16.5-16.5zm.5 1h174c8.864 0 16 7.136 16 16v170c0 8.864-7.136 16-16 16H505c-8.864 0-16-7.136-16-16V69c0-8.864 7.136-16 16-16z" fill-opacity=".502"/><g fill-opacity=".196"><path d="M119.62 259.12c.39-.101.79-.11 1.17-.08l-1.36 2.305a.975.975 0 0 0 .355 1.348l.874.508a.99.99 0 0 0 1.357-.353l1.36-2.306c.212.314.4.666.501 1.053.487 1.853-.631 3.748-2.496 4.234-.39.101-.79.11-1.17.08l-.803 1.115-3.41-.022s1.52-2.578 1.627-2.595a3.483 3.483 0 0 1-.502-1.053c-.486-1.853.632-3.748 2.497-4.234z" color="#000" style="text-decoration-line:none;text-indent:0;text-transform:none" transform="translate(0 1)"/><path d="M111.6 260.72c-.23.047-.443.131-.655.219-.017.624.087 1.442-.156 1.656-.239.21-1.037.034-1.654-.031a3.63 3.63 0 0 0-.312.75c.477.396 1.139.839 1.154 1.156.016.321-.625.805-1.06 1.25.103.258.25.493.405.719.608-.127 1.365-.374 1.623-.188.263.19.265 1.006.343 1.625.25.075.512.105.78.125.281-.555.567-1.32.874-1.406.315-.089.962.458 1.498.781.218-.151.412-.337.592-.531-.253-.572-.72-1.292-.592-1.594.127-.302.974-.47 1.56-.687.004-.074.031-.145.031-.22 0-.19-.034-.378-.062-.562-.606-.16-1.465-.24-1.623-.53-.157-.289.241-1.062.437-1.657a3.682 3.682 0 0 0-.655-.469c-.5.375-1.083.995-1.405.938-.316-.056-.662-.82-.998-1.344-.04.007-.085-.008-.125 0zm.624 1.875c.93 0 1.685.756 1.685 1.688a1.686 1.686 0 1 1-3.37 0c0-.932.754-1.688 1.685-1.688z" color="#000"/><path d="m111 269 .008 6c0 .57.46 1 .998 1h7.992c.523 0 .996-.445.996-.938l-.01-6.062z" color="#bebebe"/><path d="M71.622 264.12c.39-.101.79-.11 1.17-.08l-1.36 2.305a.975.975 0 0 0 .355 1.348l.874.508a.99.99 0 0 0 1.357-.353l1.36-2.306c.212.314.4.666.501 1.053.487 1.853-.631 3.748-2.496 4.234-.39.101-.79.11-1.17.08l-.803 1.115-3.41-.022s1.52-2.578 1.627-2.595a3.483 3.483 0 0 1-.502-1.053c-.486-1.853.632-3.748 2.497-4.234z" color="#000" style="text-decoration-line:none;text-indent:0;text-transform:none" transform="translate(0 1)"/><path d="M63.602 265.72c-.23.047-.443.131-.655.219-.017.624.087 1.442-.156 1.656-.239.21-1.037.034-1.654-.031a3.63 3.63 0 0 0-.312.75c.477.396 1.139.839 1.154 1.156.016.321-.625.805-1.06 1.25.103.258.25.493.405.719.608-.127 1.365-.374 1.623-.188.263.19.265 1.006.343 1.625.25.075.512.105.78.125.281-.555.567-1.32.874-1.406.315-.089.962.458 1.498.781.218-.151.412-.337.592-.531-.253-.572-.72-1.292-.592-1.594.127-.302.974-.47 1.56-.687.004-.074.031-.145.031-.22 0-.19-.034-.378-.062-.562-.606-.16-1.465-.24-1.623-.53-.157-.289.241-1.062.437-1.657a3.682 3.682 0 0 0-.655-.469c-.5.375-1.083.995-1.405.938-.316-.056-.662-.82-.998-1.344-.04.007-.085-.008-.125 0zm.624 1.875c.93 0 1.685.756 1.685 1.688a1.686 1.686 0 1 1-3.37 0c0-.932.754-1.688 1.685-1.688z" color="#000"/><path d="m63 274 .008 6c0 .57.46 1 .998 1h7.992c.523 0 .996-.445.996-.938l-.01-6.062z" color="#bebebe"/><g color="#000"><path d="M147.46 253.04c.39-.101.79-.11 1.17-.08l-1.36 2.305a.975.975 0 0 0 .355 1.348l.874.508a.99.99 0 0 0 1.357-.353l1.36-2.306c.212.314.4.666.501 1.053.487 1.853-.631 3.748-2.496 4.234-.39.101-.79.11-1.17.08l-.803 1.115-3.41-.022s1.52-2.578 1.627-2.595a3.483 3.483 0 0 1-.502-1.053c-.486-1.853.632-3.748 2.497-4.234z" style="text-decoration-line:none;text-indent:0;text-transform:none" transform="matrix(.5 0 0 .5 -47.921 145.54)"/><path d="M21.529 272.22a1.803 1.803 0 0 0-.328.11c-.008.312.044.72-.078.827-.119.106-.518.018-.827-.015a1.815 1.815 0 0 0-.156.375c.24.198.57.42.578.578.008.16-.313.402-.53.625.05.129.124.247.202.36.304-.064.682-.187.811-.094.132.094.133.502.172.812.125.038.256.052.39.063.14-.278.283-.66.437-.704.158-.044.481.23.749.391a1.86 1.86 0 0 0 .296-.266c-.127-.286-.36-.645-.296-.796.063-.152.487-.235.78-.344.002-.037.015-.072.015-.11 0-.095-.017-.19-.03-.28-.303-.081-.733-.121-.812-.266-.078-.144.12-.531.218-.829a1.84 1.84 0 0 0-.327-.234c-.25.188-.542.497-.702.469-.159-.028-.331-.41-.5-.672-.02.003-.042-.004-.062 0zm.312.938a.843.843 0 1 1-.001 1.686.843.843 0 0 1 .001-1.686z"/></g><path d="m19.004 277-.002 4c0 .57.46 1 .998 1h7.992c.523 0 .994-.445.994-.938l.002-4.062H21.5z" color="#bebebe"/><path d="M262.24 235.24c.78-.203 1.581-.222 2.341-.162l-2.72 4.612a1.95 1.95 0 0 0 .708 2.696l1.75 1.016a1.98 1.98 0 0 0 2.713-.707l2.72-4.611c.424.628.8 1.332 1.003 2.106.973 3.705-1.263 7.496-4.993 8.467-.78.203-1.581.222-2.341.162l-1.605 2.23-6.819-.046s3.037-5.154 3.254-5.19c-.424-.628-.8-1.331-1.004-2.105-.973-3.705 1.263-7.497 4.993-8.468z" color="#000" style="text-decoration-line:none;text-indent:0;text-transform:none" transform="translate(0 1)"/><path d="M246.2 237.44c-.46.094-.887.262-1.31.438-.034 1.248.173 2.883-.313 3.312-.477.422-2.073.069-3.307-.063a7.26 7.26 0 0 0-.624 1.5c.954.792 2.277 1.678 2.309 2.313.031.642-1.251 1.61-2.122 2.5.206.516.5.987.811 1.437 1.215-.252 2.729-.747 3.245-.375.526.38.53 2.011.687 3.25.498.15 1.023.21 1.56.25.562-1.109 1.133-2.64 1.747-2.812.631-.178 1.925.916 2.996 1.562a7.44 7.44 0 0 0 1.186-1.062c-.507-1.145-1.44-2.584-1.186-3.188.254-.604 1.948-.939 3.12-1.375.008-.147.063-.288.063-.437 0-.383-.069-.758-.125-1.125-1.21-.322-2.93-.483-3.245-1.063-.313-.576.483-2.122.873-3.312a7.362 7.362 0 0 0-1.31-.938c-1 .75-2.166 1.99-2.809 1.875-.632-.112-1.323-1.639-1.997-2.687-.08.014-.17-.016-.25 0zm1.248 3.75c1.861 0 3.37 1.511 3.37 3.375s-1.509 3.375-3.37 3.375-3.37-1.511-3.37-3.375 1.509-3.375 3.37-3.375z" color="#000"/><path d="m245 254 .016 12c0 1.14.921 2 1.998 2h15.984c1.045 0 1.988-.89 1.988-1.875L264.97 254z" color="#bebebe"/><path d="M184.93 246.18c.584-.152 1.186-.166 1.756-.121l-2.04 3.458a1.463 1.463 0 0 0 .531 2.022l1.311.762a1.485 1.485 0 0 0 2.036-.53l2.04-3.458c.318.471.6.999.752 1.58.73 2.778-.947 5.622-3.745 6.35-.584.152-1.186.166-1.756.121l-1.203 1.672-5.114-.033s2.278-3.866 2.44-3.892c-.318-.472-.6-1-.753-1.58-.73-2.779.947-5.622 3.745-6.35z" color="#000" style="text-decoration-line:none;text-indent:0;text-transform:none" transform="translate(0 1)"/><path d="M172.9 248.08c-.345.07-.665.196-.983.328-.025.937.13 2.163-.234 2.485-.358.316-1.555.05-2.48-.047a5.446 5.446 0 0 0-.469 1.125c.716.593 1.708 1.258 1.732 1.734.024.482-.938 1.207-1.591 1.875.154.387.374.74.608 1.078.911-.19 2.047-.56 2.434-.281.394.284.397 1.508.515 2.437.374.113.767.157 1.17.188.421-.832.85-1.98 1.31-2.11.474-.133 1.444.688 2.247 1.172a5.52 5.52 0 0 0 .89-.797c-.38-.858-1.08-1.938-.89-2.39.191-.453 1.461-.705 2.34-1.031.007-.11.047-.217.047-.329 0-.287-.051-.568-.093-.843-.908-.242-2.198-.362-2.434-.797-.235-.432.362-1.592.655-2.485a5.522 5.522 0 0 0-.983-.703c-.75.563-1.624 1.492-2.106 1.407-.475-.084-.993-1.23-1.498-2.016-.06.01-.127-.012-.187 0zm.936 2.813a2.53 2.53 0 0 1 0 5.062c-1.396 0-2.527-1.133-2.527-2.531s1.131-2.531 2.527-2.531z" color="#000"/><path d="m172 260 .012 9.5c0 .856.69 1.5 1.498 1.5h11.988c.784 0 1.492-.668 1.492-1.406l-.012-9.594z" color="#bebebe"/><path d="M387.99 186.47c1.559-.406 3.163-.443 4.683-.324l-5.44 9.224a3.9 3.9 0 0 0 1.416 5.39l3.497 2.034a3.959 3.959 0 0 0 5.427-1.414l5.44-9.223c.848 1.257 1.6 2.664 2.007 4.213 1.945 7.41-2.526 14.992-9.986 16.935-1.559.405-3.163.443-4.683.323l-3.208 4.459-13.64-.09s6.075-10.31 6.509-10.38c-.85-1.257-1.602-2.664-2.008-4.212-1.945-7.41 2.526-14.992 9.986-16.935z" color="#000" style="text-decoration-line:none;text-indent:0;text-transform:none" transform="translate(0 1)"/><path d="M355.91 189.88c-.92.188-1.773.524-2.621.875-.067 2.497.347 5.767-.624 6.625-.955.843-4.148.137-6.616-.125-.524.946-.94 1.94-1.248 3 1.91 1.583 4.556 3.356 4.618 4.625.064 1.285-2.502 3.22-4.243 5 .413 1.031.999 1.974 1.622 2.875 2.43-.506 5.458-1.494 6.49-.75 1.052.757 1.06 4.021 1.374 6.5.996.3 2.047.418 3.12.5 1.124-2.219 2.266-5.28 3.495-5.625 1.261-.355 3.849 1.832 5.991 3.125.874-.607 1.65-1.348 2.372-2.125-1.014-2.29-2.88-5.168-2.372-6.375.51-1.209 3.896-1.879 6.241-2.75.016-.294.125-.577.125-.875 0-.766-.138-1.516-.25-2.25-2.42-.643-5.86-.965-6.49-2.125-.626-1.152.966-4.246 1.747-6.625a14.73 14.73 0 0 0-2.62-1.875c-2.001 1.5-4.332 3.977-5.618 3.75-1.265-.224-2.647-3.278-3.994-5.375-.16.028-.34-.032-.5 0zm2.496 7.5c3.723 0 6.74 3.022 6.74 6.75s-3.017 6.75-6.74 6.75-6.74-3.022-6.74-6.75 3.018-6.75 6.74-6.75z" color="#000"/><path d="m353.5 223 .031 24c0 2.281 1.841 4 3.994 4h31.97c2.09 0 3.978-1.781 3.978-3.75l-.031-24.25z" color="#bebebe"/><path d="M615.98 88.947c3.117-.812 6.326-.886 9.365-.647l-10.878 18.447c-2.235 3.79-.982 8.566 2.83 10.782l6.995 4.066a7.918 7.918 0 0 0 10.855-2.827l10.878-18.447c1.698 2.515 3.203 5.329 4.015 8.426 3.89 14.82-5.051 29.984-19.972 33.87-3.117.811-6.325.886-9.365.647l-6.417 8.917-27.278-.18s12.15-20.62 13.016-20.758c-1.698-2.515-3.203-5.33-4.015-8.426-3.89-14.82 5.051-29.985 19.972-33.87z" color="#000" style="text-decoration-line:none;text-indent:0;text-transform:none" transform="translate(0 1)"/><path d="M551.81 94.75c-1.839.377-3.546 1.048-5.242 1.75-.134 4.995.694 11.534-1.249 13.25-1.909 1.686-8.294.274-13.23-.25a29.041 29.041 0 0 0-2.497 6c3.82 3.167 9.11 6.712 9.237 9.25.127 2.57-5.004 6.439-8.488 10 .826 2.062 1.998 3.948 3.245 5.75 4.86-1.012 10.915-2.989 12.981-1.5 2.104 1.515 2.119 8.042 2.746 13 1.994.6 4.094.836 6.241 1 2.248-4.437 4.533-10.558 6.99-11.25 2.522-.71 7.697 3.665 11.982 6.25 1.747-1.213 3.299-2.697 4.743-4.25-2.028-4.579-5.76-10.335-4.743-12.75 1.018-2.417 7.792-3.757 12.482-5.5.032-.588.25-1.154.25-1.75 0-1.531-.276-3.032-.5-4.5-4.841-1.287-11.72-1.93-12.98-4.25-1.253-2.305 1.93-8.492 3.494-13.25A29.455 29.455 0 0 0 572.03 98c-4.001 3-8.662 7.954-11.234 7.5-2.531-.448-5.295-6.557-7.988-10.75-.321.056-.681-.064-.999 0zm4.993 15c7.445 0 13.48 6.044 13.48 13.5s-6.036 13.5-13.48 13.5-13.48-6.044-13.48-13.5 6.035-13.5 13.48-13.5z" color="#000"/><path d="m547 161 .064 48c0 4.563 3.683 8 7.989 8h63.937c4.181 0 7.957-3.562 7.957-7.5l-.065-48.5h-62.906z" color="#bebebe"/></g><g fill="#fff"><path d="M119.62 259.12c.39-.101.79-.11 1.17-.08l-1.36 2.305a.975.975 0 0 0 .355 1.348l.874.508a.99.99 0 0 0 1.357-.353l1.36-2.306c.212.314.4.666.501 1.053.487 1.853-.631 3.748-2.496 4.234-.39.101-.79.11-1.17.08l-.803 1.115-3.41-.022s1.52-2.578 1.627-2.595a3.483 3.483 0 0 1-.502-1.053c-.486-1.853.632-3.748 2.497-4.234z" color="#000" style="text-decoration-line:none;text-indent:0;text-transform:none"/><path d="M111.6 259.72c-.23.047-.443.131-.655.219-.017.624.087 1.442-.156 1.656-.239.21-1.037.034-1.654-.031a3.63 3.63 0 0 0-.312.75c.477.396 1.139.839 1.154 1.156.016.321-.625.805-1.06 1.25.103.258.25.493.405.719.608-.127 1.365-.374 1.623-.188.263.19.265 1.006.343 1.625.25.075.512.105.78.125.281-.555.567-1.32.874-1.406.315-.089.962.458 1.498.781.218-.151.412-.337.592-.531-.253-.572-.72-1.292-.592-1.594.127-.302.974-.47 1.56-.687.004-.074.031-.145.031-.22 0-.19-.034-.378-.062-.562-.606-.16-1.465-.24-1.623-.53-.157-.289.241-1.062.437-1.657a3.682 3.682 0 0 0-.655-.469c-.5.375-1.083.995-1.405.938-.316-.056-.662-.82-.998-1.344-.04.007-.085-.008-.125 0zm.624 1.875c.93 0 1.685.756 1.685 1.688a1.686 1.686 0 1 1-3.37 0c0-.932.754-1.688 1.685-1.688z" color="#000"/><path d="m111 268 .008 6c0 .57.46 1 .998 1h7.992c.523 0 .996-.445.996-.938l-.01-6.062z" color="#bebebe"/><path d="M71.622 264.12c.39-.101.79-.11 1.17-.08l-1.36 2.305a.975.975 0 0 0 .355 1.348l.874.508a.99.99 0 0 0 1.357-.353l1.36-2.306c.212.314.4.666.501 1.053.487 1.853-.631 3.748-2.496 4.234-.39.101-.79.11-1.17.08l-.803 1.115-3.41-.022s1.52-2.578 1.627-2.595a3.483 3.483 0 0 1-.502-1.053c-.486-1.853.632-3.748 2.497-4.234z" color="#000" style="text-decoration-line:none;text-indent:0;text-transform:none"/><path d="M63.602 264.72c-.23.047-.443.131-.655.219-.017.624.087 1.442-.156 1.656-.239.21-1.037.034-1.654-.031a3.63 3.63 0 0 0-.312.75c.477.396 1.139.839 1.154 1.156.016.321-.625.805-1.06 1.25.103.258.25.493.405.719.608-.127 1.365-.374 1.623-.188.263.19.265 1.006.343 1.625.25.075.512.105.78.125.281-.555.567-1.32.874-1.406.315-.089.962.458 1.498.781.218-.151.412-.337.592-.531-.253-.572-.72-1.292-.592-1.594.127-.302.974-.47 1.56-.687.004-.074.031-.145.031-.22 0-.19-.034-.378-.062-.562-.606-.16-1.465-.24-1.623-.53-.157-.289.241-1.062.437-1.657a3.682 3.682 0 0 0-.655-.469c-.5.375-1.083.995-1.405.938-.316-.056-.662-.82-.998-1.344-.04.007-.085-.008-.125 0zm.624 1.875c.93 0 1.685.756 1.685 1.688a1.686 1.686 0 1 1-3.37 0c0-.932.754-1.688 1.685-1.688z" color="#000"/><path d="m63 273 .008 6c0 .57.46 1 .998 1h7.992c.523 0 .996-.445.996-.938l-.01-6.062z" color="#bebebe"/><g color="#000"><path d="M147.46 253.04c.39-.101.79-.11 1.17-.08l-1.36 2.305a.975.975 0 0 0 .355 1.348l.874.508a.99.99 0 0 0 1.357-.353l1.36-2.306c.212.314.4.666.501 1.053.487 1.853-.631 3.748-2.496 4.234-.39.101-.79.11-1.17.08l-.803 1.115-3.41-.022s1.52-2.578 1.627-2.595a3.483 3.483 0 0 1-.502-1.053c-.486-1.853.632-3.748 2.497-4.234z" style="text-decoration-line:none;text-indent:0;text-transform:none" transform="matrix(.5 0 0 .5 -47.921 144.54)"/><path d="M21.529 271.22a1.803 1.803 0 0 0-.328.11c-.008.312.044.72-.078.827-.119.106-.518.018-.827-.015a1.815 1.815 0 0 0-.156.375c.24.198.57.42.578.578.008.16-.313.402-.53.625.05.129.124.247.202.36.304-.064.682-.187.811-.094.132.094.133.502.172.812.125.038.256.052.39.063.14-.278.283-.66.437-.704.158-.044.481.23.749.391a1.86 1.86 0 0 0 .296-.266c-.127-.286-.36-.645-.296-.796.063-.152.487-.235.78-.344.002-.037.015-.072.015-.11 0-.095-.017-.19-.03-.28-.303-.081-.733-.121-.812-.266-.078-.144.12-.531.218-.829a1.84 1.84 0 0 0-.327-.234c-.25.188-.542.497-.702.469-.159-.028-.331-.41-.5-.672-.02.003-.042-.004-.062 0zm.312.938a.843.843 0 1 1-.001 1.686.843.843 0 0 1 .001-1.686z"/></g><path d="m19.004 276-.002 4c0 .57.46 1 .998 1h7.992c.523 0 .994-.445.994-.938l.002-4.062H21.5z" color="#bebebe"/><path d="M262.24 235.24c.78-.203 1.581-.222 2.341-.162l-2.72 4.612a1.95 1.95 0 0 0 .708 2.696l1.75 1.016a1.98 1.98 0 0 0 2.713-.707l2.72-4.611c.424.628.8 1.332 1.003 2.106.973 3.705-1.263 7.496-4.993 8.467-.78.203-1.581.222-2.341.162l-1.605 2.23-6.819-.046s3.037-5.154 3.254-5.19c-.424-.628-.8-1.331-1.004-2.105-.973-3.705 1.263-7.497 4.993-8.468z" color="#000" style="text-decoration-line:none;text-indent:0;text-transform:none"/><path d="M246.2 236.44c-.46.094-.887.262-1.31.438-.034 1.248.173 2.883-.313 3.312-.477.422-2.073.069-3.307-.063a7.26 7.26 0 0 0-.624 1.5c.954.792 2.277 1.678 2.309 2.313.031.642-1.251 1.61-2.122 2.5.206.516.5.987.811 1.437 1.215-.252 2.729-.747 3.245-.375.526.38.53 2.011.687 3.25.498.15 1.023.21 1.56.25.562-1.109 1.133-2.64 1.747-2.812.631-.178 1.925.916 2.996 1.562a7.44 7.44 0 0 0 1.186-1.062c-.507-1.145-1.44-2.584-1.186-3.188.254-.604 1.948-.939 3.12-1.375.008-.147.063-.288.063-.437 0-.383-.069-.758-.125-1.125-1.21-.322-2.93-.483-3.245-1.063-.313-.576.483-2.122.873-3.312a7.362 7.362 0 0 0-1.31-.938c-1 .75-2.166 1.99-2.809 1.875-.632-.112-1.323-1.639-1.997-2.687-.08.014-.17-.016-.25 0zm1.248 3.75c1.861 0 3.37 1.511 3.37 3.375s-1.509 3.375-3.37 3.375-3.37-1.511-3.37-3.375 1.509-3.375 3.37-3.375z" color="#000"/><path d="m245 253 .016 12c0 1.14.921 2 1.998 2h15.984c1.045 0 1.988-.89 1.988-1.875L264.97 253z" color="#bebebe"/><path d="M184.93 246.18c.584-.152 1.186-.166 1.756-.121l-2.04 3.458a1.463 1.463 0 0 0 .531 2.022l1.311.762a1.485 1.485 0 0 0 2.036-.53l2.04-3.458c.318.471.6.999.752 1.58.73 2.778-.947 5.622-3.745 6.35-.584.152-1.186.166-1.756.121l-1.203 1.672-5.114-.033s2.278-3.866 2.44-3.892c-.318-.472-.6-1-.753-1.58-.73-2.779.947-5.622 3.745-6.35z" color="#000" style="text-decoration-line:none;text-indent:0;text-transform:none"/><path d="M172.9 247.08c-.345.07-.665.196-.983.328-.025.937.13 2.163-.234 2.485-.358.316-1.555.05-2.48-.047a5.446 5.446 0 0 0-.469 1.125c.716.593 1.708 1.258 1.732 1.734.024.482-.938 1.207-1.591 1.875.154.387.374.74.608 1.078.911-.19 2.047-.56 2.434-.281.394.284.397 1.508.515 2.437.374.113.767.157 1.17.188.421-.832.85-1.98 1.31-2.11.474-.133 1.444.688 2.247 1.172a5.52 5.52 0 0 0 .89-.797c-.38-.858-1.08-1.938-.89-2.39.191-.453 1.461-.705 2.34-1.031.007-.11.047-.217.047-.329 0-.287-.051-.568-.093-.843-.908-.242-2.198-.362-2.434-.797-.235-.432.362-1.592.655-2.485a5.522 5.522 0 0 0-.983-.703c-.75.563-1.624 1.492-2.106 1.407-.475-.084-.993-1.23-1.498-2.016-.06.01-.127-.012-.187 0zm.936 2.813a2.53 2.53 0 0 1 0 5.062c-1.396 0-2.527-1.133-2.527-2.531s1.131-2.531 2.527-2.531z" color="#000"/><path d="m172 259 .012 9.5c0 .856.69 1.5 1.498 1.5h11.988c.784 0 1.492-.668 1.492-1.406l-.012-9.594z" color="#bebebe"/><path d="M387.99 186.47c1.559-.406 3.163-.443 4.683-.324l-5.44 9.224a3.9 3.9 0 0 0 1.416 5.39l3.497 2.034a3.959 3.959 0 0 0 5.427-1.414l5.44-9.223c.848 1.257 1.6 2.664 2.007 4.213 1.945 7.41-2.526 14.992-9.986 16.935-1.559.405-3.163.443-4.683.323l-3.208 4.459-13.64-.09s6.075-10.31 6.509-10.38c-.85-1.257-1.602-2.664-2.008-4.212-1.945-7.41 2.526-14.992 9.986-16.935z" color="#000" style="text-decoration-line:none;text-indent:0;text-transform:none"/><path d="M355.91 188.88c-.92.188-1.773.524-2.621.875-.067 2.497.347 5.767-.624 6.625-.955.843-4.148.137-6.616-.125-.524.946-.94 1.94-1.248 3 1.91 1.583 4.556 3.356 4.618 4.625.064 1.285-2.502 3.22-4.243 5 .413 1.031.999 1.974 1.622 2.875 2.43-.506 5.458-1.494 6.49-.75 1.052.757 1.06 4.021 1.374 6.5.996.3 2.047.418 3.12.5 1.124-2.219 2.266-5.28 3.495-5.625 1.261-.355 3.849 1.832 5.991 3.125.874-.607 1.65-1.348 2.372-2.125-1.014-2.29-2.88-5.168-2.372-6.375.51-1.209 3.896-1.879 6.241-2.75.016-.294.125-.577.125-.875 0-.766-.138-1.516-.25-2.25-2.42-.643-5.86-.965-6.49-2.125-.626-1.152.966-4.246 1.747-6.625a14.73 14.73 0 0 0-2.62-1.875c-2.001 1.5-4.332 3.977-5.618 3.75-1.265-.224-2.647-3.278-3.994-5.375-.16.028-.34-.032-.5 0zm2.496 7.5c3.723 0 6.74 3.022 6.74 6.75s-3.017 6.75-6.74 6.75-6.74-3.022-6.74-6.75 3.018-6.75 6.74-6.75z" color="#000"/><path d="m353.5 222 .031 24c0 2.281 1.841 4 3.994 4h31.97c2.09 0 3.978-1.781 3.978-3.75l-.031-24.25z" color="#bebebe"/><path d="M615.98 88.947c3.117-.812 6.326-.886 9.365-.647l-10.878 18.447c-2.235 3.79-.982 8.566 2.83 10.782l6.995 4.066a7.918 7.918 0 0 0 10.855-2.827l10.878-18.447c1.698 2.515 3.203 5.329 4.015 8.426 3.89 14.82-5.051 29.984-19.972 33.87-3.117.811-6.325.886-9.365.647l-6.417 8.917-27.278-.18s12.15-20.62 13.016-20.758c-1.698-2.515-3.203-5.33-4.015-8.426-3.89-14.82 5.051-29.985 19.972-33.87z" color="#000" style="text-decoration-line:none;text-indent:0;text-transform:none"/><path d="M551.81 93.75c-1.839.377-3.546 1.048-5.242 1.75-.134 4.995.694 11.534-1.249 13.25-1.909 1.686-8.294.274-13.23-.25a29.041 29.041 0 0 0-2.497 6c3.82 3.167 9.11 6.712 9.237 9.25.127 2.57-5.004 6.439-8.488 10 .826 2.062 1.998 3.948 3.245 5.75 4.86-1.012 10.915-2.989 12.981-1.5 2.104 1.515 2.119 8.042 2.746 13 1.994.6 4.094.836 6.241 1 2.248-4.437 4.533-10.558 6.99-11.25 2.522-.71 7.697 3.665 11.982 6.25 1.747-1.213 3.299-2.697 4.743-4.25-2.028-4.579-5.76-10.335-4.743-12.75 1.018-2.417 7.792-3.757 12.482-5.5.032-.588.25-1.154.25-1.75 0-1.531-.276-3.032-.5-4.5-4.841-1.287-11.72-1.93-12.98-4.25-1.253-2.305 1.93-8.492 3.494-13.25A29.455 29.455 0 0 0 572.03 97c-4.001 3-8.662 7.954-11.234 7.5-2.531-.448-5.295-6.557-7.988-10.75-.321.056-.681-.064-.999 0zm4.993 15c7.445 0 13.48 6.044 13.48 13.5s-6.036 13.5-13.48 13.5-13.48-6.044-13.48-13.5 6.035-13.5 13.48-13.5z" color="#000"/><path d="m547 160 .064 48c0 4.563 3.683 8 7.989 8h63.937c4.181 0 7.957-3.562 7.957-7.5l-.065-48.5h-62.906z" color="#bebebe"/></g></g></svg>