<svg version="1.0" viewBox="0 0 16 16" xmlns="http://www.w3.org/2000/svg"><g transform="translate(-16 -268)"><rect x="488" y="52" width="208" height="208" ry="16.5" fill="#3f51b5"/><rect x="103" y="255" width="26" height="26" ry="2.5" fill="#3f51b5"/><rect x="57" y="261" width="22" height="22" ry="2.5" fill="#3f51b5"/><path d="M105.5 255a2.495 2.495 0 0 0-2.5 2.5v21c0 1.385 1.115 2.5 2.5 2.5h21c1.385 0 2.5-1.115 2.5-2.5v-21c0-1.385-1.115-2.5-2.5-2.5zm.5 1h20c1.108 0 2 .892 2 2v19c0 1.108-.892 2-2 2h-20c-1.108 0-2-.892-2-2v-19c0-1.108.892-2 2-2z" fill-opacity=".502"/><rect x="17" y="269" width="14" height="14" ry="2.5" fill="#3f51b5"/><rect x="230" y="226" width="52" height="52" ry="4.5" fill="#3f51b5"/><rect x="160" y="240" width="40" height="39" ry="3.5" fill="#3f51b5"/><rect x="324" y="168" width="104" height="104" ry="8.5" fill="#3f51b5"/><path d="M59.5 261a2.495 2.495 0 0 0-2.5 2.5v17c0 1.385 1.115 2.5 2.5 2.5h17c1.385 0 2.5-1.115 2.5-2.5v-17c0-1.385-1.115-2.5-2.5-2.5zm.5 1h16c1.108 0 2 .892 2 2v16c0 1.108-.892 2-2 2H60c-1.108 0-2-.892-2-2v-16c0-1.108.892-2 2-2z" fill-opacity=".502"/><path d="M19.5 269a2.495 2.495 0 0 0-2.5 2.5v9c0 1.385 1.115 2.5 2.5 2.5h9c1.385 0 2.5-1.115 2.5-2.5v-9c0-1.385-1.115-2.5-2.5-2.5zm.5 1h8c1.108 0 2 .892 2 2v8c0 1.108-.892 2-2 2h-8c-1.108 0-2-.892-2-2v-8c0-1.108.892-2 2-2z" fill-opacity=".502"/><path d="M234.5 226a4.49 4.49 0 0 0-4.5 4.5v43a4.49 4.49 0 0 0 4.5 4.5h43a4.49 4.49 0 0 0 4.5-4.5v-43a4.49 4.49 0 0 0-4.5-4.5zm.5 1h42c2.216 0 4 1.784 4 4v40c0 2.216-1.784 4-4 4h-42c-2.216 0-4-1.784-4-4v-40c0-2.216 1.784-4 4-4z" fill-opacity=".502"/><path d="M163.5 240a3.492 3.492 0 0 0-3.5 3.5v32c0 1.939 1.561 3.5 3.5 3.5h33c1.939 0 3.5-1.561 3.5-3.5v-32c0-1.939-1.561-3.5-3.5-3.5zm.5 1h32c1.662 0 3 1.338 3 3v29c0 1.662-1.338 3-3 3h-32c-1.662 0-3-1.338-3-3v-29c0-1.662 1.338-3 3-3z" fill-opacity=".502"/><path d="M332.5 168a8.481 8.481 0 0 0-8.5 8.5v87c0 4.709 3.791 8.5 8.5 8.5h87c4.709 0 8.5-3.791 8.5-8.5v-87c0-4.709-3.791-8.5-8.5-8.5zm.5 1h86c4.432 0 8 3.568 8 8v83c0 4.432-3.568 8-8 8h-86c-4.432 0-8-3.568-8-8v-83c0-4.432 3.568-8 8-8z" fill-opacity=".502"/><path d="M504.5 52c-9.141 0-16.5 7.359-16.5 16.5v175c0 9.141 7.359 16.5 16.5 16.5h175c9.141 0 16.5-7.359 16.5-16.5v-175c0-9.141-7.359-16.5-16.5-16.5zm.5 1h174c8.864 0 16 7.136 16 16v170c0 8.864-7.136 16-16 16H505c-8.864 0-16-7.136-16-16V69c0-8.864 7.136-16 16-16z" fill-opacity=".502"/><g transform="translate(0 1)" fill-opacity=".502"><path d="M116 260c-4.406 0-8 3.594-8 8s3.594 8 8 8 8-3.594 8-8-3.594-8-8-8zm0 2c3.326 0 6 2.674 6 6s-2.674 6-6 6-6-2.674-6-6 2.674-6 6-6z" color="#000" style="font-feature-settings:normal;font-variant-alternates:normal;font-variant-caps:normal;font-variant-ligatures:normal;font-variant-numeric:normal;font-variant-position:normal;isolation:auto;mix-blend-mode:normal;shape-padding:0;text-decoration-color:#000;text-decoration-line:none;text-decoration-style:solid;text-indent:0;text-orientation:mixed;text-transform:none;white-space:normal"/><rect x="110" y="265" width="12" height="1" ry=".5"/><rect x="110" y="270" width="12" height="1" ry=".5"/><path d="M115.5 261c-.143 0-.27.06-.361.156-.837.31-1.54 1.053-2.055 2.01-.684 1.27-1.084 2.966-1.084 4.834s.4 3.564 1.084 4.834c.515.957 1.218 1.7 2.055 2.01a.497.497 0 0 0 .361.156h1c.143 0 .27-.06.361-.156.837-.31 1.54-1.053 2.055-2.01.684-1.27 1.084-2.966 1.084-4.834s-.4-3.564-1.084-4.834c-.515-.957-1.218-1.7-2.055-2.01a.497.497 0 0 0-.361-.156h-.5zm-.5 1.375v11.25c-.37-.274-.725-.69-1.035-1.266-.583-1.082-.965-2.637-.965-4.359s.382-3.277.965-4.36c.31-.575.665-.991 1.035-1.265zm2 0c.37.274.725.69 1.035 1.266.583 1.082.965 2.637.965 4.359s-.382 3.277-.965 4.36c-.31.575-.665.991-1.035 1.265z" color="#000" opacity=".5" style="font-feature-settings:normal;font-variant-alternates:normal;font-variant-caps:normal;font-variant-ligatures:normal;font-variant-numeric:normal;font-variant-position:normal;isolation:auto;mix-blend-mode:normal;shape-padding:0;text-decoration-color:#000;text-decoration-line:none;text-decoration-style:solid;text-indent:0;text-orientation:mixed;text-transform:none;white-space:normal"/><path d="M68 264c-4.406 0-8 3.594-8 8s3.594 8 8 8 8-3.594 8-8-3.594-8-8-8zm0 2c3.326 0 6 2.674 6 6s-2.674 6-6 6-6-2.674-6-6 2.674-6 6-6z" color="#000" style="font-feature-settings:normal;font-variant-alternates:normal;font-variant-caps:normal;font-variant-ligatures:normal;font-variant-numeric:normal;font-variant-position:normal;isolation:auto;mix-blend-mode:normal;shape-padding:0;text-decoration-color:#000;text-decoration-line:none;text-decoration-style:solid;text-indent:0;text-orientation:mixed;text-transform:none;white-space:normal"/><rect x="62" y="269" width="12" height="1" ry=".5"/><rect x="62" y="274" width="12" height="1" ry=".5"/><path d="M67.5 265c-.143 0-.27.06-.361.156-.837.31-1.54 1.053-2.055 2.01C64.4 268.436 64 270.132 64 272s.4 3.564 1.084 4.834c.515.957 1.218 1.7 2.055 2.01a.497.497 0 0 0 .361.156h1c.143 0 .27-.06.361-.156.837-.31 1.54-1.053 2.055-2.01C71.6 275.564 72 273.868 72 272s-.4-3.564-1.084-4.834c-.515-.957-1.218-1.7-2.055-2.01A.497.497 0 0 0 68.5 265H68zm-.5 1.375v11.25c-.37-.274-.725-.69-1.035-1.266-.583-1.082-.965-2.637-.965-4.359s.382-3.277.965-4.36c.31-.575.665-.991 1.035-1.265zm2 0c.37.274.725.69 1.035 1.266.583 1.082.965 2.637.965 4.359s-.382 3.277-.965 4.36c-.31.575-.665.991-1.035 1.265z" color="#000" opacity=".5" style="font-feature-settings:normal;font-variant-alternates:normal;font-variant-caps:normal;font-variant-ligatures:normal;font-variant-numeric:normal;font-variant-position:normal;isolation:auto;mix-blend-mode:normal;shape-padding:0;text-decoration-color:#000;text-decoration-line:none;text-decoration-style:solid;text-indent:0;text-orientation:mixed;text-transform:none;white-space:normal"/><path d="M24 271c-2.756 0-5 2.244-5 5s2.244 5 5 5 5-2.244 5-5-2.244-5-5-5zm0 1c2.215 0 4 1.785 4 4s-1.785 4-4 4-4-1.785-4-4 1.785-4 4-4z" color="#000" style="font-feature-settings:normal;font-variant-alternates:normal;font-variant-caps:normal;font-variant-ligatures:normal;font-variant-numeric:normal;font-variant-position:normal;isolation:auto;mix-blend-mode:normal;shape-padding:0;text-decoration-color:#000;text-decoration-line:none;text-decoration-style:solid;text-indent:0;text-orientation:mixed;text-transform:none;white-space:normal"/><rect x="20" y="274" width="8" height="1" ry="0"/><path d="M20 277h8v1h-8z"/><path opacity=".5" d="M22 272h1v8.5h-1z"/><path opacity=".5" d="M25 272h1v8h-1z"/><path d="M180.5 248c-6.34 0-11.5 5.16-11.5 11.5s5.16 11.5 11.5 11.5 11.5-5.16 11.5-11.5-5.16-11.5-11.5-11.5zm0 2c5.259 0 9.5 4.241 9.5 9.5s-4.241 9.5-9.5 9.5-9.5-4.241-9.5-9.5 4.241-9.5 9.5-9.5z" color="#000" style="font-feature-settings:normal;font-variant-alternates:normal;font-variant-caps:normal;font-variant-ligatures:normal;font-variant-numeric:normal;font-variant-position:normal;isolation:auto;mix-blend-mode:normal;shape-padding:0;text-decoration-color:#000;text-decoration-line:none;text-decoration-style:solid;text-indent:0;text-orientation:mixed;text-transform:none;white-space:normal"/><rect x="171" y="254" width="18" height="1" ry="0"/><rect x="171" y="264" width="18" height="1" ry="0"/><rect x="170" y="259" width="20" height="1" ry="0"/><path d="M180.5 249c-.64 0-1.167.42-1.576.996-.409.576-.742 1.35-1.024 2.29-.563 1.876-.9 4.412-.9 7.214s.337 5.338.9 7.215c.282.938.615 1.713 1.024 2.289.408.576.937.996 1.576.996s1.167-.42 1.576-.996c.409-.576.742-1.35 1.024-2.29.563-1.876.9-4.412.9-7.214s-.337-5.338-.9-7.215c-.282-.938-.615-1.713-1.024-2.289-.408-.576-.937-.996-1.576-.996zm0 1c.189 0 .45.138.76.574.309.436.621 1.127.883 1.998.522 1.743.857 4.207.857 6.928s-.335 5.185-.857 6.928c-.262.87-.574 1.562-.883 1.998-.31.436-.571.574-.76.574s-.45-.138-.76-.574c-.309-.436-.621-1.127-.883-1.998-.522-1.743-.857-4.207-.857-6.928s.335-5.185.857-6.928c.262-.871.574-1.562.883-1.998.31-.436.571-.574.76-.574z" color="#000" opacity=".5" style="font-feature-settings:normal;font-variant-alternates:normal;font-variant-caps:normal;font-variant-ligatures:normal;font-variant-numeric:normal;font-variant-position:normal;isolation:auto;mix-blend-mode:normal;shape-padding:0;text-decoration-color:#000;text-decoration-line:none;text-decoration-style:solid;text-indent:0;text-orientation:mixed;text-transform:none;white-space:normal"/><path d="M180.5 249c-2.126 0-4.024 1.235-5.36 3.143-1.335 1.907-2.14 4.501-2.14 7.357s.805 5.45 2.14 7.357c1.336 1.908 3.234 3.143 5.36 3.143s4.024-1.235 5.36-3.143c1.335-1.907 2.14-4.501 2.14-7.357s-.805-5.45-2.14-7.357c-1.336-1.908-3.234-3.143-5.36-3.143zm0 1c1.74 0 3.343 1.003 4.541 2.715 1.198 1.712 1.959 4.118 1.959 6.785s-.76 5.073-1.959 6.785c-1.198 1.712-2.801 2.715-4.541 2.715s-3.343-1.003-4.541-2.715c-1.198-1.712-1.959-4.118-1.959-6.785s.76-5.073 1.959-6.785c1.198-1.712 2.801-2.715 4.541-2.715z" color="#000" opacity=".5" style="font-feature-settings:normal;font-variant-alternates:normal;font-variant-caps:normal;font-variant-ligatures:normal;font-variant-numeric:normal;font-variant-position:normal;isolation:auto;mix-blend-mode:normal;shape-padding:0;text-decoration-color:#000;text-decoration-line:none;text-decoration-style:solid;text-indent:0;text-orientation:mixed;text-transform:none;white-space:normal"/><path d="M256.5 240c-6.34 0-11.5 5.16-11.5 11.5s5.16 11.5 11.5 11.5 11.5-5.16 11.5-11.5-5.16-11.5-11.5-11.5zm0 2c5.259 0 9.5 4.241 9.5 9.5s-4.241 9.5-9.5 9.5-9.5-4.241-9.5-9.5 4.241-9.5 9.5-9.5z" color="#000" style="font-feature-settings:normal;font-variant-alternates:normal;font-variant-caps:normal;font-variant-ligatures:normal;font-variant-numeric:normal;font-variant-position:normal;isolation:auto;mix-blend-mode:normal;shape-padding:0;text-decoration-color:#000;text-decoration-line:none;text-decoration-style:solid;text-indent:0;text-orientation:mixed;text-transform:none;white-space:normal"/><rect x="247" y="246" width="18" height="1" ry="0"/><rect x="247" y="256" width="18" height="1" ry="0"/><rect x="246" y="251" width="20" height="1" ry="0"/><path d="M256.5 241c-.64 0-1.167.42-1.576.996-.409.576-.742 1.35-1.024 2.29-.563 1.876-.9 4.412-.9 7.214s.337 5.338.9 7.215c.282.938.615 1.713 1.024 2.289.408.576.937.996 1.576.996s1.167-.42 1.576-.996c.409-.576.742-1.35 1.024-2.29.563-1.876.9-4.412.9-7.214s-.337-5.338-.9-7.215c-.282-.938-.615-1.713-1.024-2.289-.408-.576-.937-.996-1.576-.996zm0 1c.189 0 .45.138.76.574.309.436.621 1.127.883 1.998.522 1.743.857 4.207.857 6.928s-.335 5.185-.857 6.928c-.262.87-.574 1.562-.883 1.998-.31.436-.571.574-.76.574s-.45-.138-.76-.574c-.309-.436-.621-1.127-.883-1.998-.522-1.743-.857-4.207-.857-6.928s.335-5.185.857-6.928c.262-.871.574-1.562.883-1.998.31-.436.571-.574.76-.574z" color="#000" opacity=".5" style="font-feature-settings:normal;font-variant-alternates:normal;font-variant-caps:normal;font-variant-ligatures:normal;font-variant-numeric:normal;font-variant-position:normal;isolation:auto;mix-blend-mode:normal;shape-padding:0;text-decoration-color:#000;text-decoration-line:none;text-decoration-style:solid;text-indent:0;text-orientation:mixed;text-transform:none;white-space:normal"/><path d="M256.5 241c-2.126 0-4.024 1.235-5.36 3.143-1.335 1.907-2.14 4.501-2.14 7.357s.805 5.45 2.14 7.357c1.336 1.908 3.234 3.143 5.36 3.143s4.024-1.235 5.36-3.143c1.335-1.907 2.14-4.501 2.14-7.357s-.805-5.45-2.14-7.357c-1.336-1.908-3.234-3.143-5.36-3.143zm0 1c1.74 0 3.343 1.003 4.541 2.715 1.198 1.712 1.959 4.118 1.959 6.785s-.76 5.073-1.959 6.785c-1.198 1.712-2.801 2.715-4.541 2.715s-3.343-1.003-4.541-2.715c-1.198-1.712-1.959-4.118-1.959-6.785s.76-5.073 1.959-6.785c1.198-1.712 2.801-2.715 4.541-2.715z" color="#000" opacity=".5" style="font-feature-settings:normal;font-variant-alternates:normal;font-variant-caps:normal;font-variant-ligatures:normal;font-variant-numeric:normal;font-variant-position:normal;isolation:auto;mix-blend-mode:normal;shape-padding:0;text-decoration-color:#000;text-decoration-line:none;text-decoration-style:solid;text-indent:0;text-orientation:mixed;text-transform:none;white-space:normal"/><path d="M376 197c-12.679 0-23 10.321-23 23s10.321 23 23 23 23-10.321 23-23-10.321-23-23-23zm0 4c10.517 0 19 8.483 19 19s-8.483 19-19 19-19-8.483-19-19 8.483-19 19-19z" color="#000" style="font-feature-settings:normal;font-variant-alternates:normal;font-variant-caps:normal;font-variant-ligatures:normal;font-variant-numeric:normal;font-variant-position:normal;isolation:auto;mix-blend-mode:normal;shape-padding:0;text-decoration-color:#000;text-decoration-line:none;text-decoration-style:solid;text-indent:0;text-orientation:mixed;text-transform:none;white-space:normal"/><rect x="357" y="209" width="36" height="2" ry="0"/><rect x="357" y="229" width="36" height="2" ry="0"/><rect x="355" y="219" width="40" height="2" ry="0"/><path d="M376 199c-1.279 0-2.333.842-3.15 1.994s-1.488 2.7-2.051 4.576C369.673 209.324 369 214.396 369 220s.673 10.676 1.799 14.43c.563 1.877 1.233 3.424 2.05 4.577S374.722 241 376 241s2.333-.842 3.15-1.994 1.488-2.7 2.051-4.577c1.126-3.753 1.799-8.825 1.799-14.43s-.673-10.676-1.799-14.43c-.563-1.876-1.233-3.424-2.05-4.576S377.278 199 376 199zm0 2c.378 0 .901.279 1.52 1.15s1.242 2.252 1.765 3.994C380.331 209.63 381 214.558 381 220s-.67 10.37-1.715 13.855c-.523 1.743-1.147 3.123-1.766 3.995S376.378 239 376 239s-.901-.279-1.52-1.15-1.242-2.252-1.765-3.995C371.669 230.37 371 225.441 371 220s.67-10.37 1.715-13.855c.523-1.742 1.147-3.122 1.766-3.994S375.622 201 376 201z" color="#000" opacity=".5" style="font-feature-settings:normal;font-variant-alternates:normal;font-variant-caps:normal;font-variant-ligatures:normal;font-variant-numeric:normal;font-variant-position:normal;isolation:auto;mix-blend-mode:normal;shape-padding:0;text-decoration-color:#000;text-decoration-line:none;text-decoration-style:solid;text-indent:0;text-orientation:mixed;text-transform:none;white-space:normal"/><path d="M376 199c-4.252 0-8.048 2.47-10.719 6.285C362.611 209.1 361 214.288 361 220s1.61 10.9 4.281 14.715C367.951 238.53 371.748 241 376 241s8.048-2.47 10.719-6.285C389.389 230.9 391 225.712 391 220s-1.61-10.9-4.281-14.715C384.049 201.47 380.252 199 376 199zm0 2c3.48 0 6.684 2.008 9.08 5.432 2.397 3.423 3.92 8.234 3.92 13.568s-1.524 10.145-3.92 13.568-5.6 5.431-9.08 5.431-6.684-2.008-9.08-5.431c-2.397-3.424-3.92-8.235-3.92-13.568s1.524-10.145 3.92-13.568c2.396-3.424 5.6-5.432 9.08-5.432z" color="#000" opacity=".5" style="font-feature-settings:normal;font-variant-alternates:normal;font-variant-caps:normal;font-variant-ligatures:normal;font-variant-numeric:normal;font-variant-position:normal;isolation:auto;mix-blend-mode:normal;shape-padding:0;text-decoration-color:#000;text-decoration-line:none;text-decoration-style:solid;text-indent:0;text-orientation:mixed;text-transform:none;white-space:normal"/><path d="M592 110c-25.358 0-46 20.642-46 46s20.642 46 46 46 46-20.642 46-46-20.642-46-46-46zm0 8c21.034 0 38 16.966 38 38s-16.966 38-38 38-38-16.966-38-38 16.966-38 38-38z" color="#000" style="font-feature-settings:normal;font-variant-alternates:normal;font-variant-caps:normal;font-variant-ligatures:normal;font-variant-numeric:normal;font-variant-position:normal;isolation:auto;mix-blend-mode:normal;shape-padding:0;text-decoration-color:#000;text-decoration-line:none;text-decoration-style:solid;text-indent:0;text-orientation:mixed;text-transform:none;white-space:normal"/><rect x="554" y="134" width="72" height="4" ry="0"/><rect x="554" y="174" width="72" height="4" ry="0"/><rect x="550" y="154" width="80" height="4" ry="0"/><path d="M592 114c-2.558 0-4.668 1.682-6.303 3.986-1.634 2.305-2.971 5.401-4.097 9.155-2.252 7.506-3.6 17.652-3.6 28.859s1.348 21.353 3.6 28.859c1.126 3.753 2.463 6.85 4.097 9.154 1.635 2.305 3.745 3.986 6.303 3.986s4.668-1.682 6.303-3.986c1.634-2.305 2.971-5.401 4.097-9.154 2.252-7.507 3.6-17.652 3.6-28.86s-1.348-21.352-3.6-28.858c-1.126-3.754-2.463-6.85-4.097-9.155-1.635-2.304-3.745-3.986-6.303-3.986zm0 4c.756 0 1.802.557 3.04 2.3 1.236 1.744 2.485 4.506 3.53 7.991 2.091 6.97 3.43 16.825 3.43 27.709s-1.339 20.739-3.43 27.709c-1.045 3.485-2.294 6.247-3.53 7.99-1.238 1.744-2.284 2.301-3.04 2.301s-1.802-.557-3.04-2.3c-1.236-1.744-2.485-4.506-3.53-7.991-2.091-6.97-3.43-16.825-3.43-27.709s1.339-20.739 3.43-27.709c1.045-3.485 2.294-6.247 3.53-7.99 1.238-1.744 2.284-2.301 3.04-2.301z" color="#000" opacity=".5" style="font-feature-settings:normal;font-variant-alternates:normal;font-variant-caps:normal;font-variant-ligatures:normal;font-variant-numeric:normal;font-variant-position:normal;isolation:auto;mix-blend-mode:normal;shape-padding:0;text-decoration-color:#000;text-decoration-line:none;text-decoration-style:solid;text-indent:0;text-orientation:mixed;text-transform:none;white-space:normal"/><path d="M592 114c-8.504 0-16.096 4.938-21.438 12.568s-8.563 18.008-8.563 29.432 3.222 21.802 8.563 29.432S583.495 198 592 198s16.096-4.938 21.438-12.568 8.563-18.008 8.563-29.432-3.222-21.802-8.563-29.432S600.505 114 592 114zm0 4c6.96 0 13.367 4.016 18.16 10.863C614.953 135.71 618 145.332 618 156s-3.047 20.29-7.84 27.137C605.367 189.984 598.96 194 592 194s-13.367-4.016-18.16-10.863C569.047 176.29 566 166.668 566 156s3.047-20.29 7.84-27.137C578.633 122.016 585.04 118 592 118z" color="#000" opacity=".5" style="font-feature-settings:normal;font-variant-alternates:normal;font-variant-caps:normal;font-variant-ligatures:normal;font-variant-numeric:normal;font-variant-position:normal;isolation:auto;mix-blend-mode:normal;shape-padding:0;text-decoration-color:#000;text-decoration-line:none;text-decoration-style:solid;text-indent:0;text-orientation:mixed;text-transform:none;white-space:normal"/></g><g transform="translate(-72.25 109.5)" fill="#fff"><circle cx="188.25" cy="158.5" r="7" fill="none" stroke="#fdfdfd" stroke-linecap="square" stroke-width="2"/><rect x="182.25" y="155.5" width="12" height="1" ry=".5"/><rect x="182.25" y="160.5" width="12" height="1" ry=".5"/><path transform="translate(72.25 -109.5)" d="M115.5 261c-.143 0-.27.06-.361.156-.837.31-1.54 1.053-2.055 2.01-.684 1.27-1.084 2.966-1.084 4.834s.4 3.564 1.084 4.834c.515.957 1.218 1.7 2.055 2.01a.497.497 0 0 0 .361.156h1c.143 0 .27-.06.361-.156.837-.31 1.54-1.053 2.055-2.01.684-1.27 1.084-2.966 1.084-4.834s-.4-3.564-1.084-4.834c-.515-.957-1.218-1.7-2.055-2.01a.497.497 0 0 0-.361-.156h-.5zm-.5 1.375v11.25c-.37-.274-.725-.69-1.035-1.266-.583-1.082-.965-2.637-.965-4.359s.382-3.277.965-4.36c.31-.575.665-.991 1.035-1.265zm2 0c.37.274.725.69 1.035 1.266.583 1.082.965 2.637.965 4.359s-.382 3.277-.965 4.36c-.31.575-.665.991-1.035 1.265z" color="#000" fill-opacity=".99" opacity=".5" style="font-feature-settings:normal;font-variant-alternates:normal;font-variant-caps:normal;font-variant-ligatures:normal;font-variant-numeric:normal;font-variant-position:normal;isolation:auto;mix-blend-mode:normal;shape-padding:0;text-decoration-color:#000;text-decoration-line:none;text-decoration-style:solid;text-indent:0;text-orientation:mixed;text-transform:none;white-space:normal"/></g><g transform="translate(-120.25 113.5)" fill="#fff"><circle cx="188.25" cy="158.5" r="7" fill="none" stroke="#fdfdfd" stroke-linecap="square" stroke-width="2"/><rect x="182.25" y="155.5" width="12" height="1" ry=".5"/><rect x="182.25" y="160.5" width="12" height="1" ry=".5"/><path transform="translate(72.25 -109.5)" d="M115.5 261c-.143 0-.27.06-.361.156-.837.31-1.54 1.053-2.055 2.01-.684 1.27-1.084 2.966-1.084 4.834s.4 3.564 1.084 4.834c.515.957 1.218 1.7 2.055 2.01a.497.497 0 0 0 .361.156h1c.143 0 .27-.06.361-.156.837-.31 1.54-1.053 2.055-2.01.684-1.27 1.084-2.966 1.084-4.834s-.4-3.564-1.084-4.834c-.515-.957-1.218-1.7-2.055-2.01a.497.497 0 0 0-.361-.156h-.5zm-.5 1.375v11.25c-.37-.274-.725-.69-1.035-1.266-.583-1.082-.965-2.637-.965-4.359s.382-3.277.965-4.36c.31-.575.665-.991 1.035-1.265zm2 0c.37.274.725.69 1.035 1.266.583 1.082.965 2.637.965 4.359s-.382 3.277-.965 4.36c-.31.575-.665.991-1.035 1.265z" color="#000" fill-opacity=".99" opacity=".5" style="font-feature-settings:normal;font-variant-alternates:normal;font-variant-caps:normal;font-variant-ligatures:normal;font-variant-numeric:normal;font-variant-position:normal;isolation:auto;mix-blend-mode:normal;shape-padding:0;text-decoration-color:#000;text-decoration-line:none;text-decoration-style:solid;text-indent:0;text-orientation:mixed;text-transform:none;white-space:normal"/></g><circle cx="24" cy="276" r="4.5" fill="none" stroke="#fdfdfd" stroke-linecap="square"/><rect x="20" y="274" width="8" height="1" ry="0" fill="#fff"/><path fill="#fff" d="M20 277h8v1h-8z"/><path fill="#fff" opacity=".5" d="M22 272h1v8.5h-1z"/><path fill="#fff" opacity=".5" d="M25 272h1v8h-1z"/><circle cx="180.5" cy="259.5" r="10.5" fill="none" stroke="#fdfdfd" stroke-linecap="square" stroke-width="2"/><rect x="171" y="254" width="18" height="1" ry="0" fill="#fff"/><rect x="171" y="264" width="18" height="1" ry="0" fill="#fff"/><rect x="170" y="259" width="20" height="1" ry="0" fill="#fff"/><ellipse cx="180.5" cy="259.5" rx="3" ry="10" fill="none" opacity=".5" stroke="#fdfdfd" stroke-linecap="square"/><ellipse cx="180.5" cy="259.5" rx="7" ry="10" fill="none" opacity=".5" stroke="#fdfdfd" stroke-linecap="square"/><g transform="translate(76 -8)"><circle cx="180.5" cy="259.5" r="10.5" fill="none" stroke="#fdfdfd" stroke-linecap="square" stroke-width="2"/><rect x="171" y="254" width="18" height="1" ry="0" fill="#fff"/><rect x="171" y="264" width="18" height="1" ry="0" fill="#fff"/><rect x="170" y="259" width="20" height="1" ry="0" fill="#fff"/><ellipse cx="180.5" cy="259.5" rx="3" ry="10" fill="none" opacity=".5" stroke="#fdfdfd" stroke-linecap="square"/><ellipse cx="180.5" cy="259.5" rx="7" ry="10" fill="none" opacity=".5" stroke="#fdfdfd" stroke-linecap="square"/></g><g transform="matrix(2 0 0 2 15 -299)"><circle cx="180.5" cy="259.5" r="10.5" fill="none" stroke="#fdfdfd" stroke-linecap="square" stroke-width="2"/><rect x="171" y="254" width="18" height="1" ry="0" fill="#fff"/><rect x="171" y="264" width="18" height="1" ry="0" fill="#fff"/><rect x="170" y="259" width="20" height="1" ry="0" fill="#fff"/><ellipse cx="180.5" cy="259.5" rx="3" ry="10" fill="none" opacity=".5" stroke="#fdfdfd" stroke-linecap="square"/><ellipse cx="180.5" cy="259.5" rx="7" ry="10" fill="none" opacity=".5" stroke="#fdfdfd" stroke-linecap="square"/></g><g transform="matrix(4 0 0 4 -130 -882)"><circle cx="180.5" cy="259.5" r="10.5" fill="none" stroke="#fdfdfd" stroke-linecap="square" stroke-width="2"/><rect x="171" y="254" width="18" height="1" ry="0" fill="#fff"/><rect x="171" y="264" width="18" height="1" ry="0" fill="#fff"/><rect x="170" y="259" width="20" height="1" ry="0" fill="#fff"/><ellipse cx="180.5" cy="259.5" rx="3" ry="10" fill="none" opacity=".5" stroke="#fdfdfd" stroke-linecap="square"/><ellipse cx="180.5" cy="259.5" rx="7" ry="10" fill="none" opacity=".5" stroke="#fdfdfd" stroke-linecap="square"/></g></g></svg>