<svg version="1.0" viewBox="0 0 16 16" xmlns="http://www.w3.org/2000/svg"><g transform="matrix(.5 0 0 .5 -268.5 33.5)" fill="#fff"><rect transform="matrix(2 0 0 2 505 -603)" x="17" y="269" width="14" height="14" ry="2.5" fill="#7b736e"/><path d="M544-65c-2.77 0-5 2.23-5 5v18c0 2.77 2.23 5 5 5h18c2.77 0 5-2.23 5-5v-18c0-2.77-2.23-5-5-5zm1 2h16c2.216 0 4 1.784 4 4v16c0 2.216-1.784 4-4 4h-16c-2.216 0-4-1.784-4-4v-16c0-2.216 1.784-4 4-4z" fill="#000" fill-opacity=".502"/><path d="M545-43.504v-8c0-.5.52-.5.52-.5H549v3h-2v4.003h6v-2h2v3.497c0 .477-.5.5-.5.5h-9s-.5 0-.5-.5z"/><path d="M551.5-58.004c-.5 0-.5.5-.5.5v8c0 .5.5.5.5.5h9s.5 0 .5-.5v-8c0-.5-.5-.5-.5-.5zm1.5 3h6v3.997h-6z"/></g></svg>