<svg version="1.0" viewBox="0 0 16 16" xmlns="http://www.w3.org/2000/svg"><g transform="translate(-16 -268)"><rect x="17" y="269" width="14" height="14" ry="2.5" fill="#f15d22"/><path d="M19.5 269a2.495 2.495 0 0 0-2.5 2.5v9c0 1.385 1.115 2.5 2.5 2.5h9c1.385 0 2.5-1.115 2.5-2.5v-9c0-1.385-1.115-2.5-2.5-2.5zm.5 1h8c1.108 0 2 .892 2 2v8c0 1.108-.892 2-2 2h-8c-1.108 0-2-.892-2-2v-8c0-1.108.892-2 2-2z" fill-opacity=".502"/><path d="M21 271v2h2v-2zm.5 3a.5.5 0 0 0-.5.5l-.004.879-1.353 1.353c-.491.472.236 1.198.707.707l.646-.646v3.707h2v-3.625l2.004 1V278l-.004 2v.5h2v-.5l.004-.941.777.388c.61.335 1.08-.61.446-.894L27 277.94v-.441c0-.277-.224-.52-.5-.5h-1l-2.504-1.375L23 274.5c0-.277-.223-.5-.5-.5zm3.5 0v2h2v-2z" fill="#fff"/></g></svg>