<svg version="1.0" viewBox="0 0 16 16" xmlns="http://www.w3.org/2000/svg"><g transform="translate(-16 -268)"><rect x="17" y="269" width="14" height="14" ry="2.5" fill="#ededed"/><path d="M19.5 269a2.495 2.495 0 0 0-2.5 2.5v9c0 1.385 1.115 2.5 2.5 2.5h9c1.385 0 2.5-1.115 2.5-2.5v-9c0-1.385-1.115-2.5-2.5-2.5zm.5 1h8c1.108 0 2 .892 2 2v8c0 1.108-.892 2-2 2h-8c-1.108 0-2-.892-2-2v-8c0-1.108.892-2 2-2z" fill-opacity=".502"/><g transform="matrix(.5 0 0 .5 -34.5 142)"><circle cx="114" cy="265" r="5" fill="#f15d22" opacity=".75"/><circle cx="120" cy="268" r="5" fill="#73c48f" opacity=".75"/><circle cx="114" cy="271" r="5" fill="#48b9c7" opacity=".75"/><circle cx="114" cy="265" r="5.5" fill="none" stroke="#743c26" stroke-linecap="square"/><circle cx="120" cy="268" r="5.5" fill="none" stroke="#44634f" stroke-linecap="square"/><circle cx="114" cy="271" r="5.5" fill="none" stroke="#345f64" stroke-linecap="square"/></g></g></svg>