<svg version="1.0" viewBox="0 0 16 16" xmlns="http://www.w3.org/2000/svg"><g transform="translate(-16 -268)"><rect x="17" y="269" width="14" height="14" ry="2.5" fill="#479863"/><path d="M19.5 269a2.495 2.495 0 0 0-2.5 2.5v9c0 1.385 1.115 2.5 2.5 2.5h9c1.385 0 2.5-1.115 2.5-2.5v-9c0-1.385-1.115-2.5-2.5-2.5zm.5 1h8c1.108 0 2 .892 2 2v8c0 1.108-.892 2-2 2h-8c-1.108 0-2-.892-2-2v-8c0-1.108.892-2 2-2z" fill-opacity=".502"/><path d="M26 272a1.5 1.5 0 0 0-1.5 1.5c0 .116.022.22.047.328l-1.61 1a1.5 1.5 0 1 0 0 2.344l1.61 1a1.437 1.437 0 0 0-.047.328 1.5 1.5 0 1 0 .563-1.172l-1.61-1c.025-.108.047-.212.047-.328 0-.116-.022-.22-.047-.328l1.61-1A1.5 1.5 0 1 0 26 272z" fill="#fff"/></g></svg>