<svg version="1.0" viewBox="0 0 16 16" xmlns="http://www.w3.org/2000/svg"><g transform="translate(-16 -268)"><rect x="17" y="269" width="15" height="14" ry="2.5" fill="#3f51b5"/><path d="M19.5 269a2.495 2.495 0 0 0-2.5 2.5v9c0 1.385 1.115 2.5 2.5 2.5h10c1.385 0 2.5-1.115 2.5-2.5v-9c0-1.385-1.115-2.5-2.5-2.5zm.5 1h9c1.108 0 2 .892 2 2v8c0 1.108-.892 2-2 2h-9c-1.108 0-2-.892-2-2v-8c0-1.108.892-2 2-2z" fill-opacity=".502"/><path d="m21.503 273.5 6 5-3 3v-11l3 3-6 5" fill="none" stroke="#fafafa" stroke-linecap="round" stroke-linejoin="round"/></g></svg>