<svg version="1.0" viewBox="0 0 16 16" xmlns="http://www.w3.org/2000/svg"><g transform="translate(-16 -268)"><rect x="17" y="269" width="14" height="14" ry="2.5" fill="#ededed"/><path d="M19.5 269a2.495 2.495 0 0 0-2.5 2.5v9c0 1.385 1.115 2.5 2.5 2.5h9c1.385 0 2.5-1.115 2.5-2.5v-9c0-1.385-1.115-2.5-2.5-2.5zm.5 1h8c1.108 0 2 .892 2 2v8c0 1.108-.892 2-2 2h-8c-1.108 0-2-.892-2-2v-8c0-1.108.892-2 2-2z" fill-opacity=".502"/><path class="starred" d="m24 272.2-1.06 2.748-2.94.158 2.286 1.857-.758 2.845 2.472-1.6 2.472 1.6-.758-2.845L28 275.106l-2.94-.159z" color="#000" fill="#393634" opacity=".8" style="text-decoration-line:none;text-indent:0;text-transform:none"/></g></svg>