<svg version="1.0" viewBox="0 0 16 16" xmlns="http://www.w3.org/2000/svg"><g transform="translate(-16 -268)"><rect x="17" y="269" width="14" height="14" ry="2.5" fill="#cdcdcd"/><path d="M19.5 269a2.495 2.495 0 0 0-2.5 2.5v9c0 1.385 1.115 2.5 2.5 2.5h9c1.385 0 2.5-1.115 2.5-2.5v-9c0-1.385-1.115-2.5-2.5-2.5zm.5 1h8c1.108 0 2 .892 2 2v8c0 1.108-.892 2-2 2h-8c-1.108 0-2-.892-2-2v-8c0-1.108.892-2 2-2z" fill-opacity=".502"/><path d="m23 272-.088 1.054a3.143 3.143 0 0 0-.919.53l-.957-.45-1 1.732.87.604a3.143 3.143 0 0 0-.049.53 3.143 3.143 0 0 0 .046.532l-.867.602 1 1.732.955-.45a3.143 3.143 0 0 0 .92.528L23 280h2l.088-1.054a3.143 3.143 0 0 0 .919-.53l.957.45 1-1.732-.87-.604a3.143 3.143 0 0 0 .049-.53 3.143 3.143 0 0 0-.046-.532l.867-.602-1-1.732-.955.45a3.143 3.143 0 0 0-.92-.528L25 272zm1 2.857A1.143 1.143 0 0 1 25.143 276 1.143 1.143 0 0 1 24 277.143 1.143 1.143 0 0 1 22.857 276 1.143 1.143 0 0 1 24 274.857z" fill="#463e39"/></g></svg>