<svg version="1.0" viewBox="0 0 16 16" xmlns="http://www.w3.org/2000/svg"><g transform="translate(-16 -268)"><rect x="488" y="52" width="208" height="208" ry="16.5" fill="#cdcdcd"/><rect x="103" y="255" width="26" height="26" ry="2.5" fill="#cdcdcd"/><rect x="57" y="261" width="22" height="22" ry="2.5" fill="#cdcdcd"/><path d="M105.5 255a2.495 2.495 0 0 0-2.5 2.5v21c0 1.385 1.115 2.5 2.5 2.5h21c1.385 0 2.5-1.115 2.5-2.5v-21c0-1.385-1.115-2.5-2.5-2.5zm.5 1h20c1.108 0 2 .892 2 2v19c0 1.108-.892 2-2 2h-20c-1.108 0-2-.892-2-2v-19c0-1.108.892-2 2-2z" fill-opacity=".502"/><rect x="17" y="269" width="14" height="14" ry="2.5" fill="#cdcdcd"/><rect x="230" y="226" width="52" height="52" ry="4.5" fill="#cdcdcd"/><rect x="160" y="240" width="40" height="39" ry="3.5" fill="#cdcdcd"/><rect x="324" y="168" width="104" height="104" ry="8.5" fill="#cdcdcd"/><path d="M59.5 261a2.495 2.495 0 0 0-2.5 2.5v17c0 1.385 1.115 2.5 2.5 2.5h17c1.385 0 2.5-1.115 2.5-2.5v-17c0-1.385-1.115-2.5-2.5-2.5zm.5 1h16c1.108 0 2 .892 2 2v16c0 1.108-.892 2-2 2H60c-1.108 0-2-.892-2-2v-16c0-1.108.892-2 2-2z" fill-opacity=".502"/><path d="M19.5 269a2.495 2.495 0 0 0-2.5 2.5v9c0 1.385 1.115 2.5 2.5 2.5h9c1.385 0 2.5-1.115 2.5-2.5v-9c0-1.385-1.115-2.5-2.5-2.5zm.5 1h8c1.108 0 2 .892 2 2v8c0 1.108-.892 2-2 2h-8c-1.108 0-2-.892-2-2v-8c0-1.108.892-2 2-2z" fill-opacity=".502"/><path d="M234.5 226a4.49 4.49 0 0 0-4.5 4.5v43a4.49 4.49 0 0 0 4.5 4.5h43a4.49 4.49 0 0 0 4.5-4.5v-43a4.49 4.49 0 0 0-4.5-4.5zm.5 1h42c2.216 0 4 1.784 4 4v40c0 2.216-1.784 4-4 4h-42c-2.216 0-4-1.784-4-4v-40c0-2.216 1.784-4 4-4z" fill-opacity=".502"/><path d="M163.5 240a3.492 3.492 0 0 0-3.5 3.5v32c0 1.939 1.561 3.5 3.5 3.5h33c1.939 0 3.5-1.561 3.5-3.5v-32c0-1.939-1.561-3.5-3.5-3.5zm.5 1h32c1.662 0 3 1.338 3 3v29c0 1.662-1.338 3-3 3h-32c-1.662 0-3-1.338-3-3v-29c0-1.662 1.338-3 3-3z" fill-opacity=".502"/><path d="M332.5 168a8.481 8.481 0 0 0-8.5 8.5v87c0 4.709 3.791 8.5 8.5 8.5h87c4.709 0 8.5-3.791 8.5-8.5v-87c0-4.709-3.791-8.5-8.5-8.5zm.5 1h86c4.432 0 8 3.568 8 8v83c0 4.432-3.568 8-8 8h-86c-4.432 0-8-3.568-8-8v-83c0-4.432 3.568-8 8-8z" fill-opacity=".502"/><path d="M504.5 52c-9.141 0-16.5 7.359-16.5 16.5v175c0 9.141 7.359 16.5 16.5 16.5h175c9.141 0 16.5-7.359 16.5-16.5v-175c0-9.141-7.359-16.5-16.5-16.5zm.5 1h174c8.864 0 16 7.136 16 16v170c0 8.864-7.136 16-16 16H505c-8.864 0-16-7.136-16-16V69c0-8.864 7.136-16 16-16z" fill-opacity=".502"/><path d="m114 260-.176 2.107a6.286 6.286 0 0 0-1.837 1.063l-1.916-.902-2 3.464 1.74 1.208a6.286 6.286 0 0 0-.097 1.06 6.286 6.286 0 0 0 .092 1.065l-1.735 1.203 2 3.464 1.911-.9a6.286 6.286 0 0 0 1.842 1.056L114 276h4l.176-2.107a6.286 6.286 0 0 0 1.837-1.063l1.915.902 2-3.464-1.738-1.208a6.286 6.286 0 0 0 .096-1.06 6.286 6.286 0 0 0-.092-1.065l1.735-1.203-2-3.464-1.911.9a6.286 6.286 0 0 0-1.842-1.056L118 260zm2 5.714a2.286 2.286 0 0 1 2.286 2.286 2.286 2.286 0 0 1-2.286 2.286 2.286 2.286 0 0 1-2.286-2.286 2.286 2.286 0 0 1 2.286-2.286z" fill="#463e39"/><path d="m66.25 265-.154 1.844a5.5 5.5 0 0 0-1.608.93l-1.676-.79-1.75 3.032 1.522 1.056a5.5 5.5 0 0 0-.084.928 5.5 5.5 0 0 0 .08.932l-1.518 1.052 1.75 3.032 1.672-.788a5.5 5.5 0 0 0 1.612.924L66.25 279h3.5l.154-1.844a5.5 5.5 0 0 0 1.608-.93l1.676.79 1.75-3.032-1.522-1.056A5.5 5.5 0 0 0 73.5 272a5.5 5.5 0 0 0-.08-.932l1.517-1.052-1.75-3.032-1.671.788a5.5 5.5 0 0 0-1.612-.924L69.75 265zm1.75 5a2 2 0 0 1 2 2 2 2 0 0 1-2 2 2 2 0 0 1-2-2 2 2 0 0 1 2-2z" fill="#463e39"/><path d="m23 272-.088 1.054a3.143 3.143 0 0 0-.919.53l-.957-.45-1 1.732.87.604a3.143 3.143 0 0 0-.049.53 3.143 3.143 0 0 0 .046.532l-.867.602 1 1.732.955-.45a3.143 3.143 0 0 0 .92.528L23 280h2l.088-1.054a3.143 3.143 0 0 0 .919-.53l.957.45 1-1.732-.87-.604a3.143 3.143 0 0 0 .049-.53 3.143 3.143 0 0 0-.046-.532l.867-.602-1-1.732-.955.45a3.143 3.143 0 0 0-.92-.528L25 272zm1 2.857A1.143 1.143 0 0 1 25.143 276 1.143 1.143 0 0 1 24 277.143 1.143 1.143 0 0 1 22.857 276 1.143 1.143 0 0 1 24 274.857z" fill="#463e39"/><path d="m177 247-.265 3.16a9.429 9.429 0 0 0-2.755 1.594l-2.873-1.352-3 5.196 2.608 1.812a9.429 9.429 0 0 0-.144 1.59 9.429 9.429 0 0 0 .138 1.597l-2.602 1.805 3 5.196 2.866-1.35a9.429 9.429 0 0 0 2.762 1.585L177 271h6l.264-3.16a9.429 9.429 0 0 0 2.756-1.594l2.873 1.352 3-5.196-2.608-1.812a9.429 9.429 0 0 0 .144-1.59 9.429 9.429 0 0 0-.138-1.597l2.602-1.805-3-5.196-2.866 1.35a9.429 9.429 0 0 0-2.762-1.585L183 247zm3 8.571a3.429 3.429 0 0 1 3.429 3.429 3.429 3.429 0 0 1-3.429 3.429 3.429 3.429 0 0 1-3.429-3.429 3.429 3.429 0 0 1 3.429-3.429z" fill="#463e39"/><path d="m252 236-.353 4.214a12.571 12.571 0 0 0-3.674 2.125l-3.83-1.803-4 6.928 3.477 2.416a12.571 12.571 0 0 0-.192 2.12 12.571 12.571 0 0 0 .184 2.13l-3.47 2.406 4 6.928 3.822-1.799a12.571 12.571 0 0 0 3.683 2.112L252 268h8l.352-4.214a12.571 12.571 0 0 0 3.675-2.125l3.83 1.803 4-6.928-3.478-2.415a12.571 12.571 0 0 0 .192-2.121 12.571 12.571 0 0 0-.183-2.13l3.47-2.406-4-6.928-3.822 1.799a12.571 12.571 0 0 0-3.683-2.112L260 236zm4 11.429a4.571 4.571 0 0 1 4.571 4.571 4.571 4.571 0 0 1-4.571 4.572 4.571 4.571 0 0 1-4.571-4.572 4.571 4.571 0 0 1 4.571-4.57z" fill="#463e39"/><path d="m368.12 188-.694 8.297a24.75 24.75 0 0 0-7.234 4.183l-7.54-3.55-7.876 13.64 6.847 4.756a24.75 24.75 0 0 0-.378 4.174 24.75 24.75 0 0 0 .36 4.193l-6.829 4.737 7.875 13.641 7.524-3.542a24.75 24.75 0 0 0 7.25 4.157l.695 8.315h15.75l.694-8.297a24.75 24.75 0 0 0 7.234-4.184l7.54 3.551 7.876-13.64-6.847-4.756a24.75 24.75 0 0 0 .378-4.175 24.75 24.75 0 0 0-.36-4.192l6.829-4.737-7.875-13.641-7.524 3.542a24.75 24.75 0 0 0-7.25-4.158L383.87 188zm7.875 22.5a9 9 0 0 1 9 9 9 9 0 0 1-9 9 9 9 0 0 1-9-9 9 9 0 0 1 9-9z" fill="#463e39"/><path d="m576.25 93-1.389 16.594a49.5 49.5 0 0 0-14.467 8.367l-15.082-7.101-15.75 27.28 13.693 9.51a49.5 49.5 0 0 0-.756 8.35 49.5 49.5 0 0 0 .721 8.385l-13.658 9.475 15.75 27.28 15.047-7.083a49.5 49.5 0 0 0 14.502 8.314l1.389 16.63h31.5l1.389-16.595a49.5 49.5 0 0 0 14.467-8.367l15.082 7.101 15.75-27.28-13.693-9.51a49.5 49.5 0 0 0 .756-8.35 49.5 49.5 0 0 0-.721-8.385l13.658-9.474-15.75-27.281-15.047 7.083a49.5 49.5 0 0 0-14.502-8.314L607.75 93zM592 138a18 18 0 0 1 18 18 18 18 0 0 1-18 18 18 18 0 0 1-18-18 18 18 0 0 1 18-18z" fill="#463e39"/></g></svg>