<svg version="1.0" viewBox="0 0 16 16" xmlns="http://www.w3.org/2000/svg"><g transform="translate(-16 -268)"><rect x="17" y="269" width="14" height="14" ry="2.5" fill="#3f51b5"/><path d="M19.5 269a2.495 2.495 0 0 0-2.5 2.5v9c0 1.385 1.115 2.5 2.5 2.5h9c1.385 0 2.5-1.115 2.5-2.5v-9c0-1.385-1.115-2.5-2.5-2.5zm.5 1h8c1.108 0 2 .892 2 2v8c0 1.108-.892 2-2 2h-8c-1.108 0-2-.892-2-2v-8c0-1.108.892-2 2-2z" fill-opacity=".502"/><g fill="#fff"><path d="m120.71 270.29-1.422 1.422 3.01 3.01c.959.937 2.365-.5 1.406-1.438z" color="#000" style="text-decoration-line:none;text-indent:0;text-transform:none" transform="matrix(.5 0 0 .5 -33.75 142)"/><path d="M24 272.5a2.75 2.75 0 0 0-2.75 2.75A2.75 2.75 0 0 0 24 278a2.75 2.75 0 0 0 2.75-2.75A2.75 2.75 0 0 0 24 272.5zm0 1a1.75 1.75 0 0 1 1.75 1.75A1.75 1.75 0 0 1 24 277a1.75 1.75 0 0 1-1.75-1.75A1.75 1.75 0 0 1 24 273.5z"/></g></g></svg>