<svg version="1.0" viewBox="0 0 16 16" xmlns="http://www.w3.org/2000/svg"><g transform="translate(-16 -268)"><rect x="17" y="269" width="14" height="14" ry="2.5" fill="#48b9c7"/><path d="M19.5 269a2.495 2.495 0 0 0-2.5 2.5v9c0 1.385 1.115 2.5 2.5 2.5h9c1.385 0 2.5-1.115 2.5-2.5v-9c0-1.385-1.115-2.5-2.5-2.5zm.5 1h8c1.108 0 2 .892 2 2v8c0 1.108-.892 2-2 2h-8c-1.108 0-2-.892-2-2v-8c0-1.108.892-2 2-2z" fill-opacity=".502"/><path d="M24 272a4 4 0 0 1 4 4v.5a1.5 1.5 0 0 1-2.648.965A1.988 1.988 0 0 1 24 278a2 2 0 1 1 2-2v.5a.5.5 0 0 0 1 0v-.5a3 3 0 1 0-3 3h2.5s.5 0 .5.5c-.031.5-.5.5-.5.5H24a4 4 0 0 1 0-8zm0 3a1 1 0 1 0 0 2 1 1 0 0 0 0-2z" fill="#fff"/></g></svg>