<svg version="1.0" viewBox="0 0 16 16" xmlns="http://www.w3.org/2000/svg"><g transform="translate(-16 -268)"><rect x="488" y="52" width="208" height="208" ry="16.5" fill="#7b736e"/><rect x="103" y="255" width="26" height="26" ry="2.5" fill="#7b736e"/><rect x="57" y="261" width="22" height="22" ry="2.5" fill="#7b736e"/><path d="M105.5 255a2.495 2.495 0 0 0-2.5 2.5v21c0 1.385 1.115 2.5 2.5 2.5h21c1.385 0 2.5-1.115 2.5-2.5v-21c0-1.385-1.115-2.5-2.5-2.5zm.5 1h20c1.108 0 2 .892 2 2v19c0 1.108-.892 2-2 2h-20c-1.108 0-2-.892-2-2v-19c0-1.108.892-2 2-2z" fill-opacity=".502"/><rect x="17" y="269" width="14" height="14" ry="2.5" fill="#7b736e"/><rect x="230" y="226" width="52" height="52" ry="4.5" fill="#7b736e"/><rect x="160" y="240" width="40" height="39" ry="3.5" fill="#7b736e"/><rect x="324" y="168" width="104" height="104" ry="8.5" fill="#7b736e"/><path d="M59.5 261a2.495 2.495 0 0 0-2.5 2.5v17c0 1.385 1.115 2.5 2.5 2.5h17c1.385 0 2.5-1.115 2.5-2.5v-17c0-1.385-1.115-2.5-2.5-2.5zm.5 1h16c1.108 0 2 .892 2 2v16c0 1.108-.892 2-2 2H60c-1.108 0-2-.892-2-2v-16c0-1.108.892-2 2-2z" fill-opacity=".502"/><path d="M19.5 269a2.495 2.495 0 0 0-2.5 2.5v9c0 1.385 1.115 2.5 2.5 2.5h9c1.385 0 2.5-1.115 2.5-2.5v-9c0-1.385-1.115-2.5-2.5-2.5zm.5 1h8c1.108 0 2 .892 2 2v8c0 1.108-.892 2-2 2h-8c-1.108 0-2-.892-2-2v-8c0-1.108.892-2 2-2z" fill-opacity=".502"/><path d="M234.5 226a4.49 4.49 0 0 0-4.5 4.5v43a4.49 4.49 0 0 0 4.5 4.5h43a4.49 4.49 0 0 0 4.5-4.5v-43a4.49 4.49 0 0 0-4.5-4.5zm.5 1h42c2.216 0 4 1.784 4 4v40c0 2.216-1.784 4-4 4h-42c-2.216 0-4-1.784-4-4v-40c0-2.216 1.784-4 4-4z" fill-opacity=".502"/><path d="M163.5 240a3.492 3.492 0 0 0-3.5 3.5v32c0 1.939 1.561 3.5 3.5 3.5h33c1.939 0 3.5-1.561 3.5-3.5v-32c0-1.939-1.561-3.5-3.5-3.5zm.5 1h32c1.662 0 3 1.338 3 3v29c0 1.662-1.338 3-3 3h-32c-1.662 0-3-1.338-3-3v-29c0-1.662 1.338-3 3-3z" fill-opacity=".502"/><path d="M332.5 168a8.481 8.481 0 0 0-8.5 8.5v87c0 4.709 3.791 8.5 8.5 8.5h87c4.709 0 8.5-3.791 8.5-8.5v-87c0-4.709-3.791-8.5-8.5-8.5zm.5 1h86c4.432 0 8 3.568 8 8v83c0 4.432-3.568 8-8 8h-86c-4.432 0-8-3.568-8-8v-83c0-4.432 3.568-8 8-8z" fill-opacity=".502"/><path d="M504.5 52c-9.141 0-16.5 7.359-16.5 16.5v175c0 9.141 7.359 16.5 16.5 16.5h175c9.141 0 16.5-7.359 16.5-16.5v-175c0-9.141-7.359-16.5-16.5-16.5zm.5 1h174c8.864 0 16 7.136 16 16v170c0 8.864-7.136 16-16 16H505c-8.864 0-16-7.136-16-16V69c0-8.864 7.136-16 16-16z" fill-opacity=".502"/><g fill="#fff"><path d="M109 274.496v-8c0-.5.52-.5.52-.5H113v3h-2v4.003h6v-2h2v3.497c0 .477-.5.5-.5.5h-9s-.5 0-.5-.5z"/><path d="M114.5 260.996c-.5 0-.5.5-.5.5v8c0 .5.5.5.5.5h9s.5 0 .5-.5v-8c0-.5-.5-.5-.5-.5zm1.5 3h6v3.997h-6z"/></g><g fill="#fff"><path d="M61 278.496v-8c0-.5.52-.5.52-.5H65v3h-2v4.003h6v-2h2v3.497c0 .477-.5.5-.5.5h-9s-.5 0-.5-.5z"/><path d="M66.5 264.996c-.5 0-.5.5-.5.5v8c0 .5.5.5.5.5h9s.5 0 .5-.5v-8c0-.5-.5-.5-.5-.5zm1.5 3h6v3.997h-6z"/></g><g fill="#fff"><path d="M20 279.748v-4c0-.25.26-.25.26-.25H22v1.5h-1v2.001h3v-1h1v1.749c0 .238-.25.25-.25.25h-4.5s-.25 0-.25-.25z"/><path d="M23.25 272.498c-.25 0-.25.25-.25.25v4c0 .25.25.25.25.25h4.5s.25 0 .25-.25v-4c0-.25-.25-.25-.25-.25zm.75 1.5h3v1.998h-3z"/></g><g fill="#fff"><path d="M173 265.496v-8c0-.5.52-.5.52-.5H177v3h-2v4.003h6v-2h2v3.497c0 .477-.5.5-.5.5h-9s-.5 0-.5-.5z"/><path d="M178.5 251.996c-.5 0-.5.5-.5.5v8c0 .5.5.5.5.5h9s.5 0 .5-.5v-8c0-.5-.5-.5-.5-.5zm1.5 3h6v3.997h-6z"/></g><g fill="#fff"><path d="M244.005 262.255v-12.5c0-.75.78-.75.78-.75h5.22v5h-3v6.004h9v-3h3v5.246c0 .715-.75.75-.75.75h-13.5s-.75 0-.75-.75z"/><path d="M252.75 242.005c-.75 0-.75.75-.75.75v11.5c0 .75.75.75.75.75h13.5s.75 0 .75-.75v-11.5c0-.75-.75-.75-.75-.75zm2.25 4h9V252h-9z"/></g><g fill="#fff"><path d="M353.01 239.5v-25c0-1.5 1.559-1.5 1.559-1.5h10.44v10h-6v12.008h18v-6h6V239.5c0 1.43-1.5 1.5-1.5 1.5h-27s-1.5 0-1.5-1.5z"/><path d="M370.5 199c-1.5 0-1.5 1.5-1.5 1.5v23c0 1.5 1.5 1.5 1.5 1.5h27s1.5 0 1.5-1.5v-23c0-1.5-1.5-1.5-1.5-1.5zm4.5 8h18v11.99h-18z"/></g><g fill="#fff"><path d="M546.02 195v-50c0-3 3.117-3 3.117-3h20.883v20h-12v24.015h36v-12h12V195c0 2.86-3 3-3 3h-54s-3 0-3-3z"/><path d="M581 114c-3 0-3 3-3 3v46c0 3 3 3 3 3h54s3 0 3-3v-46c0-3-3-3-3-3zm9 16h36v23.98h-36z"/></g></g></svg>