<svg version="1.0" viewBox="0 0 16 16" xmlns="http://www.w3.org/2000/svg"><g transform="translate(-16 -268)"><rect x="17" y="269" width="14" height="14" ry="2.5" fill="#3f51b5"/><path d="M19.5 269a2.495 2.495 0 0 0-2.5 2.5v9c0 1.385 1.115 2.5 2.5 2.5h9c1.385 0 2.5-1.115 2.5-2.5v-9c0-1.385-1.115-2.5-2.5-2.5zm.5 1h8c1.108 0 2 .892 2 2v8c0 1.108-.892 2-2 2h-8c-1.108 0-2-.892-2-2v-8c0-1.108.892-2 2-2z" fill-opacity=".502"/><path d="M22.316 272.401v7l1.566-1.91 1.034 2.493a.5.5 0 1 0 .923-.383l-1.055-2.548 2.19.005z" fill="none" stroke="#fff"/><path d="M22.816 273.401v5.117l1.145-1.396.755 1.822a.366.366 0 1 0 .676-.28l-.772-1.862 1.6.005z" fill="#151515" fill-rule="evenodd"/></g></svg>