<svg version="1.0" viewBox="0 0 16 16" xmlns="http://www.w3.org/2000/svg"><g transform="translate(-16 -268)"><rect x="17" y="269" width="14" height="14" ry="2.5" fill="#48b9c7"/><path d="M19.5 269a2.495 2.495 0 0 0-2.5 2.5v9c0 1.385 1.115 2.5 2.5 2.5h9c1.385 0 2.5-1.115 2.5-2.5v-9c0-1.385-1.115-2.5-2.5-2.5zm.5 1h8c1.108 0 2 .892 2 2v8c0 1.108-.892 2-2 2h-8c-1.108 0-2-.892-2-2v-8c0-1.108.892-2 2-2z" fill-opacity=".502"/><path d="M21 272c-1 0-1 1-1 1v4.5s0 1 1 1h6s1 0 1-1V273s0-1-1-1zm0 1h6v4h-6zm.5 6.5v.498h5v-.498c0-.5-.5-.5-.5-.5h-4.011s-.49 0-.49.5z" fill="#393634" opacity=".8"/></g></svg>