<svg version="1.0" viewBox="0 0 16 16" xmlns="http://www.w3.org/2000/svg"><g transform="translate(-16 -268)"><rect x="488" y="52" width="208" height="208" ry="16.5" fill="#6a7ce0"/><rect x="103" y="255" width="26" height="26" ry="2.5" fill="#6a7ce0"/><rect x="57" y="261" width="22" height="22" ry="2.5" fill="#6a7ce0"/><rect x="16" y="269" width="16" height="15" ry="2.5" fill="#6a7ce0"/><rect x="230" y="226" width="52" height="52" ry="4.5" fill="#6a7ce0"/><rect x="160" y="240" width="40" height="39" ry="3.5" fill="#6a7ce0"/><rect x="324" y="168" width="104" height="104" ry="8.5" fill="#6a7ce0"/><path d="M105.5 255a2.495 2.495 0 0 0-2.5 2.5v21c0 1.385 1.115 2.5 2.5 2.5h21c1.385 0 2.5-1.115 2.5-2.5v-21c0-1.385-1.115-2.5-2.5-2.5zm.5 1h20c1.108 0 2 .892 2 2v19c0 1.108-.892 2-2 2h-20c-1.108 0-2-.892-2-2v-19c0-1.108.892-2 2-2z" fill-opacity=".502"/><path d="M59.5 261a2.495 2.495 0 0 0-2.5 2.5v17c0 1.385 1.115 2.5 2.5 2.5h17c1.385 0 2.5-1.115 2.5-2.5v-17c0-1.385-1.115-2.5-2.5-2.5zm.5 1h16c1.108 0 2 .892 2 2v16c0 1.108-.892 2-2 2H60c-1.108 0-2-.892-2-2v-16c0-1.108.892-2 2-2z" fill-opacity=".502"/><path d="M18.5 269a2.495 2.495 0 0 0-2.5 2.5v10c0 1.385 1.115 2.5 2.5 2.5h11c1.385 0 2.5-1.115 2.5-2.5v-10c0-1.385-1.115-2.5-2.5-2.5zm.5 1h10c1.108 0 2 .892 2 2v9c0 1.108-.892 2-2 2H19c-1.108 0-2-.892-2-2v-9c0-1.108.892-2 2-2z" fill-opacity=".502"/><path d="M234.5 226a4.49 4.49 0 0 0-4.5 4.5v43a4.49 4.49 0 0 0 4.5 4.5h43a4.49 4.49 0 0 0 4.5-4.5v-43a4.49 4.49 0 0 0-4.5-4.5zm.5 1h42c2.216 0 4 1.784 4 4v40c0 2.216-1.784 4-4 4h-42c-2.216 0-4-1.784-4-4v-40c0-2.216 1.784-4 4-4z" fill-opacity=".502"/><path d="M163.5 240a3.492 3.492 0 0 0-3.5 3.5v32c0 1.939 1.561 3.5 3.5 3.5h33c1.939 0 3.5-1.561 3.5-3.5v-32c0-1.939-1.561-3.5-3.5-3.5zm.5 1h32c1.662 0 3 1.338 3 3v29c0 1.662-1.338 3-3 3h-32c-1.662 0-3-1.338-3-3v-29c0-1.662 1.338-3 3-3z" fill-opacity=".502"/><path d="M332.5 168a8.481 8.481 0 0 0-8.5 8.5v87c0 4.709 3.791 8.5 8.5 8.5h87c4.709 0 8.5-3.791 8.5-8.5v-87c0-4.709-3.791-8.5-8.5-8.5zm.5 1h86c4.432 0 8 3.568 8 8v83c0 4.432-3.568 8-8 8h-86c-4.432 0-8-3.568-8-8v-83c0-4.432 3.568-8 8-8z" fill-opacity=".502"/><path d="M504.5 52c-9.141 0-16.5 7.359-16.5 16.5v175c0 9.141 7.359 16.5 16.5 16.5h175c9.141 0 16.5-7.359 16.5-16.5v-175c0-9.141-7.359-16.5-16.5-16.5zm.5 1h174c8.864 0 16 7.136 16 16v170c0 8.864-7.136 16-16 16H505c-8.864 0-16-7.136-16-16V69c0-8.864 7.136-16 16-16z" fill-opacity=".502"/><g fill="#fff" fill-opacity=".973" color="#000"><path d="M113.14 259.29c-4.406 0-8 3.594-8 8s3.594 8 8 8 8-3.594 8-8-3.594-8-8-8zm0 2c2.23 0 4.16 1.206 5.195 3h-10.39a5.978 5.978 0 0 1 5.195-3zm-5.643 3.97c.046.015.092.03.143.03h11c.05 0 .097-.015.143-.03.226.635.357 1.316.357 2.03 0 .714-.13 1.395-.357 2.03a.456.456 0 0 0-.143-.03h-11a.462.462 0 0 0-.143.03 6.012 6.012 0 0 1-.357-2.03c0-.714.13-1.395.357-2.03zm.448 5.03h10.39c-1.034 1.794-2.965 3-5.195 3s-4.16-1.206-5.195-3z" style="font-feature-settings:normal;font-variant-alternates:normal;font-variant-caps:normal;font-variant-east-asian:normal;font-variant-ligatures:normal;font-variant-numeric:normal;font-variant-position:normal;font-variation-settings:normal;inline-size:0;isolation:auto;mix-blend-mode:normal;shape-margin:0;shape-padding:0;text-decoration-color:#000;text-decoration-line:none;text-decoration-style:solid;text-indent:0;text-orientation:mixed;text-transform:none;white-space:normal" transform="translate(2.863 .713)"/><path d="M112.64 260.29c-.144 0-.27.06-.361.156-.836.31-1.538 1.053-2.053 2.01-.684 1.27-1.086 2.966-1.086 4.834s.402 3.562 1.086 4.832c.516.957 1.218 1.703 2.055 2.012.09.095.216.156.359.156h1a.495.495 0 0 0 .36-.156c.836-.31 1.54-1.055 2.056-2.012.684-1.27 1.084-2.964 1.084-4.832s-.4-3.564-1.084-4.834c-.515-.957-1.218-1.7-2.055-2.01a.493.493 0 0 0-.361-.156h-.5zm-.5 1.375v11.248c-.37-.275-.725-.69-1.035-1.266-.583-1.082-.965-2.635-.965-4.357s.382-3.277.965-4.36c.31-.575.665-.991 1.035-1.265zm2 0c.37.274.725.69 1.035 1.266.583 1.082.965 2.637.965 4.359s-.382 3.275-.965 4.357c-.31.576-.665.992-1.035 1.266z" opacity=".5" style="font-feature-settings:normal;font-variant-alternates:normal;font-variant-caps:normal;font-variant-east-asian:normal;font-variant-ligatures:normal;font-variant-numeric:normal;font-variant-position:normal;font-variation-settings:normal;inline-size:0;isolation:auto;mix-blend-mode:normal;shape-margin:0;shape-padding:0;text-decoration-color:#000;text-decoration-line:none;text-decoration-style:solid;text-indent:0;text-orientation:mixed;text-transform:none;white-space:normal" transform="translate(2.863 .713)"/></g><g fill="#fff" fill-opacity=".973" color="#000"><path d="M113.14 259.29c-4.406 0-8 3.594-8 8s3.594 8 8 8 8-3.594 8-8-3.594-8-8-8zm0 2c2.23 0 4.16 1.206 5.195 3h-10.39a5.978 5.978 0 0 1 5.195-3zm-5.643 3.97c.046.015.092.03.143.03h11c.05 0 .097-.015.143-.03.226.635.357 1.316.357 2.03 0 .714-.13 1.395-.357 2.03a.456.456 0 0 0-.143-.03h-11a.462.462 0 0 0-.143.03 6.012 6.012 0 0 1-.357-2.03c0-.714.13-1.395.357-2.03zm.448 5.03h10.39c-1.034 1.794-2.965 3-5.195 3s-4.16-1.206-5.195-3z" style="font-feature-settings:normal;font-variant-alternates:normal;font-variant-caps:normal;font-variant-east-asian:normal;font-variant-ligatures:normal;font-variant-numeric:normal;font-variant-position:normal;font-variation-settings:normal;inline-size:0;isolation:auto;mix-blend-mode:normal;shape-margin:0;shape-padding:0;text-decoration-color:#000;text-decoration-line:none;text-decoration-style:solid;text-indent:0;text-orientation:mixed;text-transform:none;white-space:normal" transform="translate(66.863 -7.787)"/><path d="M112.64 260.29c-.144 0-.27.06-.361.156-.836.31-1.538 1.053-2.053 2.01-.684 1.27-1.086 2.966-1.086 4.834s.402 3.562 1.086 4.832c.516.957 1.218 1.703 2.055 2.012.09.095.216.156.359.156h1a.495.495 0 0 0 .36-.156c.836-.31 1.54-1.055 2.056-2.012.684-1.27 1.084-2.964 1.084-4.832s-.4-3.564-1.084-4.834c-.515-.957-1.218-1.7-2.055-2.01a.493.493 0 0 0-.361-.156h-.5zm-.5 1.375v11.248c-.37-.275-.725-.69-1.035-1.266-.583-1.082-.965-2.635-.965-4.357s.382-3.277.965-4.36c.31-.575.665-.991 1.035-1.265zm2 0c.37.274.725.69 1.035 1.266.583 1.082.965 2.637.965 4.359s-.382 3.275-.965 4.357c-.31.576-.665.992-1.035 1.266z" opacity=".5" style="font-feature-settings:normal;font-variant-alternates:normal;font-variant-caps:normal;font-variant-east-asian:normal;font-variant-ligatures:normal;font-variant-numeric:normal;font-variant-position:normal;font-variation-settings:normal;inline-size:0;isolation:auto;mix-blend-mode:normal;shape-margin:0;shape-padding:0;text-decoration-color:#000;text-decoration-line:none;text-decoration-style:solid;text-indent:0;text-orientation:mixed;text-transform:none;white-space:normal" transform="translate(66.863 -7.787)"/></g><g fill="#fff" fill-opacity=".973" color="#000"><path d="M256 240c-6.61 0-12 5.39-12 12s5.39 12 12 12 12-5.39 12-12-5.39-12-12-12zm0 3c3.128 0 5.85 1.593 7.46 4h-14.92c1.61-2.407 4.333-4 7.46-4zm-8.479 6h16.958c.33.94.521 1.944.521 3a9.011 9.011 0 0 1-.522 3h-16.957a9.011 9.011 0 0 1-.521-3c0-1.056.19-2.06.522-3zm1.018 8h14.922c-1.61 2.407-4.333 4-7.46 4s-5.851-1.593-7.462-4z" style="font-feature-settings:normal;font-variant-alternates:normal;font-variant-caps:normal;font-variant-east-asian:normal;font-variant-ligatures:normal;font-variant-numeric:normal;font-variant-position:normal;font-variation-settings:normal;inline-size:0;isolation:auto;mix-blend-mode:normal;shape-margin:0;shape-padding:0;text-decoration-color:#000;text-decoration-line:none;text-decoration-style:solid;text-indent:0;text-orientation:mixed;text-transform:none;white-space:normal"/><path d="M112.64 260.29c-.144 0-.27.06-.361.156-.836.31-1.538 1.053-2.053 2.01-.684 1.27-1.086 2.966-1.086 4.834s.402 3.562 1.086 4.832c.516.957 1.218 1.703 2.055 2.012.09.095.216.156.359.156h1a.495.495 0 0 0 .36-.156c.836-.31 1.54-1.055 2.056-2.012.684-1.27 1.084-2.964 1.084-4.832s-.4-3.564-1.084-4.834c-.515-.957-1.218-1.7-2.055-2.01a.493.493 0 0 0-.361-.156h-.5zm-.5 1.375v11.248c-.37-.275-.725-.69-1.035-1.266-.583-1.082-.965-2.635-.965-4.357s.382-3.277.965-4.36c.31-.575.665-.991 1.035-1.265zm2 0c.37.274.725.69 1.035 1.266.583 1.082.965 2.637.965 4.359s-.382 3.275-.965 4.357c-.31.576-.665.992-1.035 1.266z" opacity=".5" style="font-feature-settings:normal;font-variant-alternates:normal;font-variant-caps:normal;font-variant-east-asian:normal;font-variant-ligatures:normal;font-variant-numeric:normal;font-variant-position:normal;font-variation-settings:normal;inline-size:0;isolation:auto;mix-blend-mode:normal;shape-margin:0;shape-padding:0;text-decoration-color:#000;text-decoration-line:none;text-decoration-style:solid;text-indent:0;text-orientation:mixed;text-transform:none;white-space:normal" transform="matrix(1.5 0 0 1.5 86.295 -148.93)"/></g><g fill="#fff" fill-opacity=".973" color="#000"><path transform="translate(-136 -283.999) scale(2.00001)" d="M256 240c-6.61 0-12 5.39-12 12s5.39 12 12 12 12-5.39 12-12-5.39-12-12-12zm0 3c3.128 0 5.85 1.593 7.46 4h-14.92c1.61-2.407 4.333-4 7.46-4zm-8.479 6h16.958c.33.94.521 1.944.521 3a9.011 9.011 0 0 1-.522 3h-16.957a9.011 9.011 0 0 1-.521-3c0-1.056.19-2.06.522-3zm1.018 8h14.922c-1.61 2.407-4.333 4-7.46 4s-5.851-1.593-7.462-4z" style="font-feature-settings:normal;font-variant-alternates:normal;font-variant-caps:normal;font-variant-east-asian:normal;font-variant-ligatures:normal;font-variant-numeric:normal;font-variant-position:normal;font-variation-settings:normal;inline-size:0;isolation:auto;mix-blend-mode:normal;shape-margin:0;shape-padding:0;text-decoration-color:#000;text-decoration-line:none;text-decoration-style:solid;text-indent:0;text-orientation:mixed;text-transform:none;white-space:normal"/><path d="M112.64 260.29c-.144 0-.27.06-.361.156-.836.31-1.538 1.053-2.053 2.01-.684 1.27-1.086 2.966-1.086 4.834s.402 3.562 1.086 4.832c.516.957 1.218 1.703 2.055 2.012.09.095.216.156.359.156h1a.495.495 0 0 0 .36-.156c.836-.31 1.54-1.055 2.056-2.012.684-1.27 1.084-2.964 1.084-4.832s-.4-3.564-1.084-4.834c-.515-.957-1.218-1.7-2.055-2.01a.493.493 0 0 0-.361-.156h-.5zm-.5 1.375v11.248c-.37-.275-.725-.69-1.035-1.266-.583-1.082-.965-2.635-.965-4.357s.382-3.277.965-4.36c.31-.575.665-.991 1.035-1.265zm2 0c.37.274.725.69 1.035 1.266.583 1.082.965 2.637.965 4.359s-.382 3.275-.965 4.357c-.31.576-.665.992-1.035 1.266z" opacity=".5" style="font-feature-settings:normal;font-variant-alternates:normal;font-variant-caps:normal;font-variant-east-asian:normal;font-variant-ligatures:normal;font-variant-numeric:normal;font-variant-position:normal;font-variation-settings:normal;inline-size:0;isolation:auto;mix-blend-mode:normal;shape-margin:0;shape-padding:0;text-decoration-color:#000;text-decoration-line:none;text-decoration-style:solid;text-indent:0;text-orientation:mixed;text-transform:none;white-space:normal" transform="matrix(3 0 0 3 36.59 -581.86)"/></g><g fill="#fff" fill-opacity=".973" color="#000"><path transform="translate(-432 -851.978) scale(4.00002)" d="M256 240c-6.61 0-12 5.39-12 12s5.39 12 12 12 12-5.39 12-12-5.39-12-12-12zm0 3c3.128 0 5.85 1.593 7.46 4h-14.92c1.61-2.407 4.333-4 7.46-4zm-8.479 6h16.958c.33.94.521 1.944.521 3a9.011 9.011 0 0 1-.522 3h-16.957a9.011 9.011 0 0 1-.521-3c0-1.056.19-2.06.522-3zm1.018 8h14.922c-1.61 2.407-4.333 4-7.46 4s-5.851-1.593-7.462-4z" style="font-feature-settings:normal;font-variant-alternates:normal;font-variant-caps:normal;font-variant-east-asian:normal;font-variant-ligatures:normal;font-variant-numeric:normal;font-variant-position:normal;font-variation-settings:normal;inline-size:0;isolation:auto;mix-blend-mode:normal;shape-margin:0;shape-padding:0;text-decoration-color:#000;text-decoration-line:none;text-decoration-style:solid;text-indent:0;text-orientation:mixed;text-transform:none;white-space:normal"/><path d="M112.64 260.29c-.144 0-.27.06-.361.156-.836.31-1.538 1.053-2.053 2.01-.684 1.27-1.086 2.966-1.086 4.834s.402 3.562 1.086 4.832c.516.957 1.218 1.703 2.055 2.012.09.095.216.156.359.156h1a.495.495 0 0 0 .36-.156c.836-.31 1.54-1.055 2.056-2.012.684-1.27 1.084-2.964 1.084-4.832s-.4-3.564-1.084-4.834c-.515-.957-1.218-1.7-2.055-2.01a.493.493 0 0 0-.361-.156h-.5zm-.5 1.375v11.248c-.37-.275-.725-.69-1.035-1.266-.583-1.082-.965-2.635-.965-4.357s.382-3.277.965-4.36c.31-.575.665-.991 1.035-1.265zm2 0c.37.274.725.69 1.035 1.266.583 1.082.965 2.637.965 4.359s-.382 3.275-.965 4.357c-.31.576-.665.992-1.035 1.266z" opacity=".5" style="font-feature-settings:normal;font-variant-alternates:normal;font-variant-caps:normal;font-variant-east-asian:normal;font-variant-ligatures:normal;font-variant-numeric:normal;font-variant-position:normal;font-variation-settings:normal;inline-size:0;isolation:auto;mix-blend-mode:normal;shape-margin:0;shape-padding:0;text-decoration-color:#000;text-decoration-line:none;text-decoration-style:solid;text-indent:0;text-orientation:mixed;text-transform:none;white-space:normal" transform="matrix(6 0 0 6 -86.82 -1447.7)"/></g><g fill="#fff" fill-opacity=".973" color="#000"><path d="M113.14 259.29c-4.406 0-8 3.594-8 8s3.594 8 8 8 8-3.594 8-8-3.594-8-8-8zm0 2c2.23 0 4.16 1.206 5.195 3h-10.39a5.978 5.978 0 0 1 5.195-3zm-5.643 3.97c.046.015.092.03.143.03h11c.05 0 .097-.015.143-.03.226.635.357 1.316.357 2.03 0 .714-.13 1.395-.357 2.03a.456.456 0 0 0-.143-.03h-11a.462.462 0 0 0-.143.03 6.012 6.012 0 0 1-.357-2.03c0-.714.13-1.395.357-2.03zm.448 5.03h10.39c-1.034 1.794-2.965 3-5.195 3s-4.16-1.206-5.195-3z" style="font-feature-settings:normal;font-variant-alternates:normal;font-variant-caps:normal;font-variant-east-asian:normal;font-variant-ligatures:normal;font-variant-numeric:normal;font-variant-position:normal;font-variation-settings:normal;inline-size:0;isolation:auto;mix-blend-mode:normal;shape-margin:0;shape-padding:0;text-decoration-color:#000;text-decoration-line:none;text-decoration-style:solid;text-indent:0;text-orientation:mixed;text-transform:none;white-space:normal" transform="translate(-45.137 4.713)"/><path d="M112.64 260.29c-.144 0-.27.06-.361.156-.836.31-1.538 1.053-2.053 2.01-.684 1.27-1.086 2.966-1.086 4.834s.402 3.562 1.086 4.832c.516.957 1.218 1.703 2.055 2.012.09.095.216.156.359.156h1a.495.495 0 0 0 .36-.156c.836-.31 1.54-1.055 2.056-2.012.684-1.27 1.084-2.964 1.084-4.832s-.4-3.564-1.084-4.834c-.515-.957-1.218-1.7-2.055-2.01a.493.493 0 0 0-.361-.156h-.5zm-.5 1.375v11.248c-.37-.275-.725-.69-1.035-1.266-.583-1.082-.965-2.635-.965-4.357s.382-3.277.965-4.36c.31-.575.665-.991 1.035-1.265zm2 0c.37.274.725.69 1.035 1.266.583 1.082.965 2.637.965 4.359s-.382 3.275-.965 4.357c-.31.576-.665.992-1.035 1.266z" opacity=".5" style="font-feature-settings:normal;font-variant-alternates:normal;font-variant-caps:normal;font-variant-east-asian:normal;font-variant-ligatures:normal;font-variant-numeric:normal;font-variant-position:normal;font-variation-settings:normal;inline-size:0;isolation:auto;mix-blend-mode:normal;shape-margin:0;shape-padding:0;text-decoration-color:#000;text-decoration-line:none;text-decoration-style:solid;text-indent:0;text-orientation:mixed;text-transform:none;white-space:normal" transform="translate(-45.137 4.713)"/></g><g fill="#fff" fill-opacity=".973" color="#000"><path transform="matrix(.5 0 0 .5 -104 150.5)" d="M256 240c-6.61 0-12 5.39-12 12s5.39 12 12 12 12-5.39 12-12-5.39-12-12-12zm0 3c3.128 0 5.85 1.593 7.46 4h-14.92c1.61-2.407 4.333-4 7.46-4zm-8.479 6h16.958c.33.94.521 1.944.521 3a9.011 9.011 0 0 1-.522 3h-16.957a9.011 9.011 0 0 1-.521-3c0-1.056.19-2.06.522-3zm1.018 8h14.922c-1.61 2.407-4.333 4-7.46 4s-5.851-1.593-7.462-4z" style="font-feature-settings:normal;font-variant-alternates:normal;font-variant-caps:normal;font-variant-east-asian:normal;font-variant-ligatures:normal;font-variant-numeric:normal;font-variant-position:normal;font-variation-settings:normal;inline-size:0;isolation:auto;mix-blend-mode:normal;shape-margin:0;shape-padding:0;text-decoration-color:#000;text-decoration-line:none;text-decoration-style:solid;text-indent:0;text-orientation:mixed;text-transform:none;white-space:normal"/><path d="M112.64 260.29c-.144 0-.27.06-.361.156-.836.31-1.538 1.053-2.053 2.01-.684 1.27-1.086 2.966-1.086 4.834s.402 3.562 1.086 4.832c.516.957 1.218 1.703 2.055 2.012.09.095.216.156.359.156h1a.495.495 0 0 0 .36-.156c.836-.31 1.54-1.055 2.056-2.012.684-1.27 1.084-2.964 1.084-4.832s-.4-3.564-1.084-4.834c-.515-.957-1.218-1.7-2.055-2.01a.493.493 0 0 0-.361-.156h-.5zm-.5 1.375v11.248c-.37-.275-.725-.69-1.035-1.266-.583-1.082-.965-2.635-.965-4.357s.382-3.277.965-4.36c.31-.575.665-.991 1.035-1.265zm2 0c.37.274.725.69 1.035 1.266.583 1.082.965 2.637.965 4.359s-.382 3.275-.965 4.357c-.31.576-.665.992-1.035 1.266z" opacity=".5" style="font-feature-settings:normal;font-variant-alternates:normal;font-variant-caps:normal;font-variant-east-asian:normal;font-variant-ligatures:normal;font-variant-numeric:normal;font-variant-position:normal;font-variation-settings:normal;inline-size:0;isolation:auto;mix-blend-mode:normal;shape-margin:0;shape-padding:0;text-decoration-color:#000;text-decoration-line:none;text-decoration-style:solid;text-indent:0;text-orientation:mixed;text-transform:none;white-space:normal" transform="matrix(.75 0 0 .75 -60.853 76.035)"/></g></g></svg>