<svg version="1.0" viewBox="0 0 16 16" xmlns="http://www.w3.org/2000/svg"><g transform="translate(-16 -268)"><rect x="17" y="269" width="14" height="14" ry="2.5" fill="#7b736e"/><path d="M19.5 269a2.495 2.495 0 0 0-2.5 2.5v9c0 1.385 1.115 2.5 2.5 2.5h9c1.385 0 2.5-1.115 2.5-2.5v-9c0-1.385-1.115-2.5-2.5-2.5zm.5 1h8c1.108 0 2 .892 2 2v8c0 1.108-.892 2-2 2h-8c-1.108 0-2-.892-2-2v-8c0-1.108.892-2 2-2z" fill-opacity=".502"/><g fill="#fff"><path d="M20 275c-1 0-1 1-1 1v4c0 .983 1 1 1 1h5v-2h-1.781c-.005.073-.012.148-.016.219h.219v.25h-.25c-.04.353-.18.531-.422.531a1.65 1.65 0 0 1-.266-.031l-.046-.25c.13.02.241.031.312.031.07 0 .105-.1.125-.281h-1.172c.022-.146.032-.312.047-.469h-.344c-.116.337-.262.67-.453.984l-.25-.203c.16-.256.294-.513.406-.781H21v-1.203c-.011-.01-.02-.023-.031-.031l.031-.032v-.89c-.011-.01-.02-.023-.031-.031l.031-.032v-1.78zm.047 1.86h.797v2.39h-.266v-.266h-.265v.391h-.266zm.265.265v1.61h.266v-1.61zM22.047 279c-.01.072-.02.151-.031.219h.89c.007-.074.01-.145.016-.219h-.235l-.109.14c-.048-.052-.104-.092-.156-.14z" opacity=".5"/><path d="M22 272v6h5s1 0 1-1v-4s0-1-1-1zm2.281 1.5h.938l1.093 3.5h-.828l-.218-.828h-1.063l-.219.828h-.797zm.438.594c-.086.37-.17.791-.266 1.14l-.094.313h.75l-.078-.313a50.044 50.044 0 0 1-.297-1.14z"/></g></g></svg>