<svg version="1.0" viewBox="0 0 16 16" xmlns="http://www.w3.org/2000/svg"><g transform="translate(-16 -268)"><rect x="17" y="269" width="14" height="14" ry="2.5" fill="#9c27b0"/><path d="M19.5 269a2.495 2.495 0 0 0-2.5 2.5v9c0 1.385 1.115 2.5 2.5 2.5h9c1.385 0 2.5-1.115 2.5-2.5v-9c0-1.385-1.115-2.5-2.5-2.5zm.5 1h8c1.108 0 2 .892 2 2v8c0 1.108-.892 2-2 2h-8c-1.108 0-2-.892-2-2v-8c0-1.108.892-2 2-2z" fill-opacity=".502"/><g fill="#fff"><path d="M23.619 273.25a2.25 2.25 0 0 1 .38 1.25 2.25 2.25 0 0 1-2.25 2.25 2.25 2.25 0 0 1-1.25-.38v.38c0 .554.447 1 1 1h5c.555 0 1-.446 1-1v-2.5c0-.554-.445-1-1-1z"/><path d="m26 277.75-1 1-1-1z"/><path d="M21.75 272.75A1.75 1.75 0 0 0 20 274.5a1.75 1.75 0 0 0 1.75 1.75 1.75 1.75 0 0 0 1.75-1.75 1.75 1.75 0 0 0-1.75-1.75zm-.25.5h.5v1.5h-.5zm0 2h.5v.5h-.5z"/></g></g></svg>