<svg version="1.0" viewBox="0 0 32 32" xmlns="http://www.w3.org/2000/svg"><g transform="translate(-134 -252)"><rect x="135" y="253" width="30" height="31" ry="15" fill="#ffce51"/><path d="M150 253c-8.31 0-15 6.69-15 15v1c0 8.31 6.69 15 15 15s15-6.69 15-15v-1c0-8.31-6.69-15-15-15zm0 1a14 14 0 0 1 14 14 14 14 0 0 1-14 14 14 14 0 0 1-14-14 14 14 0 0 1 14-14z" fill-opacity=".502"/><path d="M144 262c-1.108 0-2 .892-2 2v8c0 1.108.892 2 2 2h12c1.108 0 2-.892 2-2v-8c0-1.108-.892-2-2-2zm0 2 6 3 6-3v2l-6 3-6-3zm2 3.996 1.25.639-3.25 3.361v-2zm8 0 2 2v2l-3.25-3.361z" fill="#474341"/></g></svg>