<svg version="1.0" viewBox="0 0 32 32" xmlns="http://www.w3.org/2000/svg"><g transform="translate(-134 -252)"><rect x="135" y="253" width="30" height="31" ry="15" fill="#cf3b00"/><path d="M150 253c-8.31 0-15 6.69-15 15v1c0 8.31 6.69 15 15 15s15-6.69 15-15v-1c0-8.31-6.69-15-15-15zm0 1a14 14 0 0 1 14 14 14 14 0 0 1-14 14 14 14 0 0 1-14-14 14 14 0 0 1 14-14z" fill-opacity=".502"/><path d="M146.78 262.5c-2.082 0-3.781 1.675-3.781 3.75 0 1.08.456 2.065 1.187 2.75l5.72 5.5 5.905-5.5a3.765 3.765 0 0 0 1.188-2.75c0-2.075-1.7-3.75-3.781-3.75-1.372 0-2.56.721-3.22 1.813a3.74 3.74 0 0 0-3.218-1.813z" fill="#fff"/></g></svg>