<svg version="1.0" viewBox="0 0 32 32" xmlns="http://www.w3.org/2000/svg"><g transform="translate(-134 -252)"><rect x="135" y="253" width="30" height="31" ry="15" fill="#ededed"/><path d="M150 253c-8.31 0-15 6.69-15 15v1c0 8.31 6.69 15 15 15s15-6.69 15-15v-1c0-8.31-6.69-15-15-15zm0 1a14 14 0 0 1 14 14 14 14 0 0 1-14 14 14 14 0 0 1-14-14 14 14 0 0 1 14-14z" fill-opacity=".502"/><g fill="#474341"><path d="M148.964 260.996c-1 0-1.82.736-1.969 1.694v.306h3.407l4.593 4.594c.003 1.8-.002 3.602 0 5.402a1.998 1.998 0 0 0 1.97-1.996v-5a2 2 0 0 0-.552-1.379l-2.968-2.968c-.377-.387-.94-.653-1.48-.653h-3z"/><path d="M145.964 263.996c-1 0-1.82.736-1.969 1.694v8.613c.15.958.97 1.693 1.97 1.693h6a2 2 0 0 0 2-2v-5a2 2 0 0 0-.552-1.378l-2.968-2.97c-.377-.386-.94-.652-1.48-.652z"/></g></g></svg>