<svg version="1.0" viewBox="0 0 32 32" xmlns="http://www.w3.org/2000/svg"><g transform="translate(-134 -252)"><rect x="135" y="253" width="30" height="31" ry="15" fill="#cf3b00"/><path d="M150 253c-8.31 0-15 6.69-15 15v1c0 8.31 6.69 15 15 15s15-6.69 15-15v-1c0-8.31-6.69-15-15-15zm0 1a14 14 0 0 1 14 14 14 14 0 0 1-14 14 14 14 0 0 1-14-14 14 14 0 0 1 14-14z" fill-opacity=".502"/><path d="M145.5 262.5a1.5 1.5 0 0 0-1.5 1.5 1.5 1.5 0 0 0 .44 1.06l3.439 3.44-3.44 3.44A1.5 1.5 0 0 0 144 273a1.5 1.5 0 0 0 1.5 1.5 1.5 1.5 0 0 0 1.06-.44l3.44-3.439 3.425 3.425a1.5 1.5 0 0 0 1.075.454 1.5 1.5 0 0 0 1.5-1.5 1.5 1.5 0 0 0-.44-1.06l-3.439-3.44 3.425-3.425A1.5 1.5 0 0 0 156 264a1.5 1.5 0 0 0-1.5-1.5 1.5 1.5 0 0 0-1.06.44l-3.44 3.439-3.425-3.425a1.5 1.5 0 0 0-.015-.015 1.5 1.5 0 0 0-1.06-.44z" fill="#fff"/></g></svg>