<svg version="1.0" viewBox="0 0 32 32" xmlns="http://www.w3.org/2000/svg"><g transform="translate(-134 -252)"><rect x="135" y="253" width="30" height="31" ry="15" fill="#3f51b5"/><path d="M150 253c-8.31 0-15 6.69-15 15v1c0 8.31 6.69 15 15 15s15-6.69 15-15v-1c0-8.31-6.69-15-15-15zm0 1a14 14 0 0 1 14 14 14 14 0 0 1-14 14 14 14 0 0 1-14-14 14 14 0 0 1 14-14z" fill-opacity=".502"/><g fill="#fcfcfd"><path d="M152 260.501v6h2.5l-4.5 7-4.5-7h2.5v-6z"/><path d="M145 275.001a1 1 0 0 0 0 2h10a1 1 0 0 0 0-2z"/></g></g></svg>