<svg version="1.0" viewBox="0 0 32 32" xmlns="http://www.w3.org/2000/svg"><g transform="translate(-134 -252)"><rect x="135" y="253" width="30" height="31" ry="15" fill="#73c48f"/><path d="M150 253c-8.31 0-15 6.69-15 15v1c0 8.31 6.69 15 15 15s15-6.69 15-15v-1c0-8.31-6.69-15-15-15zm0 1a14 14 0 0 1 14 14 14 14 0 0 1-14 14 14 14 0 0 1-14-14 14 14 0 0 1 14-14z" fill-opacity=".502"/><path d="M158 268h-2a5.995 5.995 0 0 0-4.406-5.781c-.032-.01-.062-.023-.094-.031-.255-.066-.514-.094-.781-.125-.233-.028-.478-.063-.719-.063a5.99 5.99 0 0 0-1.812.281v.032a5.96 5.96 0 0 0-2.25 1.28l1.187 1.595c.502-.514 1.158-.847 1.875-1.032v-.03c.38-.09.79-.123 1.188-.095.181.013.349.029.53.063 1.868.338 3.282 1.942 3.282 3.906h-2l3 4 3-4zm-3.938 4.406-1.187-1.594c-.502.514-1.158.847-1.875 1.032v.03c-.38.09-.79.123-1.188.095a4.56 4.56 0 0 1-.53-.063c-1.868-.338-3.282-1.942-3.282-3.906h2l-3-4-3 4h2a5.995 5.995 0 0 0 4.406 5.781c.032.009.062.023.094.031.255.066.514.094.781.125.233.028.478.063.719.063a5.99 5.99 0 0 0 1.812-.282v-.03a5.96 5.96 0 0 0 2.25-1.282z" fill="#474341"/></g></svg>