<svg version="1.0" viewBox="0 0 32 32" xmlns="http://www.w3.org/2000/svg"><g transform="translate(-134 -252)"><rect x="135" y="253" width="30" height="31" ry="15" fill="#faa41a"/><path d="M150 253c-8.31 0-15 6.69-15 15v1c0 8.31 6.69 15 15 15s15-6.69 15-15v-1c0-8.31-6.69-15-15-15zm0 1a14 14 0 0 1 14 14 14 14 0 0 1-14 14 14 14 0 0 1-14-14 14 14 0 0 1 14-14z" fill-opacity=".502"/><path d="M150 261c-2.216 0-4 1.822-4 4.063V267c-1.108 0-2 .892-2 2v3.998c0 1.108.892 2 2 2h7.994c1.108 0 2-.892 2-2V269a1.996 1.996 0 0 0-1.994-2v-1.938c0-2.24-1.784-4.062-4-4.062zm0 2c1.108 0 2 .892 2 2v2h-4v-2c0-1.108.892-2 2-2z" color="#000" fill="#474341"/></g></svg>