<svg version="1.0" viewBox="0 0 32 32" xmlns="http://www.w3.org/2000/svg"><g transform="translate(-134 -252)"><rect transform="matrix(0 -1 -1 0 0 0)" x="-284" y="-66" width="16" height="16" rx="8" ry="8" fill="#3f51b5"/><rect transform="matrix(0 -1 -1 0 0 0)" x="-284" y="-24" width="8" height="8" rx="1" ry="1" fill="#888"/><circle cx="102" cy="272" r="12" fill="#3f51b5"/><rect x="192" y="238" width="44" height="46" ry="22" fill="#3f51b5"/><rect x="135" y="253" width="30" height="31" ry="15" fill="#3f51b5"/><path d="M150 253c-8.31 0-15 6.69-15 15v1c0 8.31 6.69 15 15 15s15-6.69 15-15v-1c0-8.31-6.69-15-15-15zm0 1a14 14 0 0 1 14 14 14 14 0 0 1-14 14 14 14 0 0 1-14-14 14 14 0 0 1 14-14z" fill-opacity=".502"/><rect x="260" y="222" width="60" height="62" ry="30" fill="#3f51b5"/><path d="M290 222c-16.62 0-30 13.38-30 30v2c0 16.62 13.38 30 30 30s30-13.38 30-30v-2c0-16.62-13.38-30-30-30zm0 1a29 29 0 0 1 29 29 29 29 0 0 1-29 29 29 29 0 0 1-29-29 29 29 0 0 1 29-29z" fill-opacity=".502"/><rect x="16.5" y="276.5" width="7" height="7" ry=".5" fill="#3f51b5" stroke="#000" stroke-linecap="square" stroke-opacity=".502"/><rect x="50.5" y="268.5" width="15" height="15" ry="7.5" fill="none" stroke="#000" stroke-linecap="square" stroke-opacity=".502"/><rect x="90.5" y="260.5" width="23" height="23" ry="11.478" fill="none" stroke="#000" stroke-linecap="square" stroke-opacity=".502"/><path d="M214 238c-12.188 0-22 9.812-22 22v2c0 12.188 9.812 22 22 22s22-9.812 22-22v-2c0-12.188-9.812-22-22-22zm0 1a21 21 0 0 1 21 21 21 21 0 0 1-21 21 21 21 0 0 1-21-21 21 21 0 0 1 21-21z" fill-opacity=".502"/><g fill="#fcfcfd"><path d="M104 264.001v6h2.5l-4.5 7-4.5-7h2.5v-6z"/><path d="M97 278.001a1 1 0 0 0 0 2h10a1 1 0 0 0 0-2z"/></g><g fill="#fcfcfd"><path d="M152 260.501v6h2.5l-4.5 7-4.5-7h2.5v-6z"/><path d="M145 275.001a1 1 0 0 0 0 2h10a1 1 0 0 0 0-2z"/></g><g transform="matrix(.5 0 0 .5 -8.645 169.31)" fill="#fcfcfd"><path d="M131.29 205.38v6h-2.5l3.855 6h1.286l3.859-6h-2.5v-6z"/><path d="M128.29 219.38a1 1 0 0 0 0 2h10a1 1 0 0 0 0-2z"/><path d="M55.29 215.38v4h-2l4 4 4-4h-2v-4z"/><rect x="53.29" y="223.38" width="8" height="2" ry="1"/></g><g fill="#fcfcfd"><path d="M294.001 237v12h5l-9 14-9-14h5v-12z"/><path d="M280.001 265a2 2 0 0 0 0 4h20a2 2 0 0 0 0-4z"/></g><g fill="#fcfcfd"><path d="M217.001 249.001v9h3.75l-6.75 10.5-6.75-10.5h3.75v-9z"/><path d="M206.501 270.001a1.5 1.5 0 0 0 0 3h15a1.5 1.5 0 0 0 0-3z"/></g></g></svg>