<svg version="1.0" viewBox="0 0 32 32" xmlns="http://www.w3.org/2000/svg"><g transform="translate(-134 -252)"><rect x="135" y="253" width="30" height="31" ry="15" fill="#48b9c7"/><path d="M150 253c-8.31 0-15 6.69-15 15v1c0 8.31 6.69 15 15 15s15-6.69 15-15v-1c0-8.31-6.69-15-15-15zm0 1a14 14 0 0 1 14 14 14 14 0 0 1-14 14 14 14 0 0 1-14-14 14 14 0 0 1 14-14z" fill-opacity=".502"/><g transform="translate(19.185 44.368)"><rect x="124.81" y="218.63" width="12" height="10" ry="2" fill="none" stroke="#fff" stroke-linecap="round" stroke-width="2"/><path d="M126.81 220.63v4l1.5-1.5 1.5 1.5 2.5-2.5 2.5 2.5v-4z" fill="#fff" opacity=".5"/><path d="m130.81 222.63 4 4h-8z" fill="#fff"/></g></g></svg>