<svg version="1.0" viewBox="0 0 32 32" xmlns="http://www.w3.org/2000/svg"><g transform="translate(-134 -252)"><rect x="135" y="253" width="30" height="31" ry="15" fill="#dedede"/><path d="M150 253c-8.31 0-15 6.69-15 15v1c0 8.31 6.69 15 15 15s15-6.69 15-15v-1c0-8.31-6.69-15-15-15zm0 1a14 14 0 0 1 14 14 14 14 0 0 1-14 14 14 14 0 0 1-14-14 14 14 0 0 1 14-14z" fill-opacity=".502"/><path d="M145 262v3h5.879l-6.302 6.302c-.358.276-.543.736-.55 1.198H144v1.5h1.5v-.015c.461-.005.922-.196 1.198-.562L153 267.12v5.87l3 .009v-11h-11z" fill="#474341"/></g></svg>