<svg version="1.0" viewBox="0 0 32 32" xmlns="http://www.w3.org/2000/svg"><g transform="translate(-134 -252)"><rect x="135" y="253" width="30" height="31" ry="15" fill="#73c48f"/><path d="M150 253c-8.31 0-15 6.69-15 15v1c0 8.31 6.69 15 15 15s15-6.69 15-15v-1c0-8.31-6.69-15-15-15zm0 1a14 14 0 0 1 14 14 14 14 0 0 1-14 14 14 14 0 0 1-14-14 14 14 0 0 1 14-14z" fill-opacity=".502"/><g transform="matrix(1.25 0 0 1.25 50 -72)" fill="none"><rect x="72" y="264" width="16" height="16" rx=".144" ry=".151" color="#bebebe"/><path d="m75 273 3 3 7-8" stroke="#fff" stroke-linecap="square" stroke-width="2"/></g></g></svg>