<?xml version="1.0" encoding="UTF-8" standalone="no"?>
<svg
   xmlns:dc="http://purl.org/dc/elements/1.1/"
   xmlns:cc="http://creativecommons.org/ns#"
   xmlns:rdf="http://www.w3.org/1999/02/22-rdf-syntax-ns#"
   xmlns:svg="http://www.w3.org/2000/svg"
   xmlns="http://www.w3.org/2000/svg"
   xmlns:sodipodi="http://sodipodi.sourceforge.net/DTD/sodipodi-0.dtd"
   xmlns:inkscape="http://www.inkscape.org/namespaces/inkscape"
   width="64"
   height="64"
   version="1.1"
   id="svg12"
   sodipodi:docname="user-brown-desktop.svg"
   inkscape:version="0.92.2 (5c3e80d, 2017-08-06)">
  <metadata
     id="metadata18">
    <rdf:RDF>
      <cc:Work
         rdf:about="">
        <dc:format>image/svg+xml</dc:format>
        <dc:type
           rdf:resource="http://purl.org/dc/dcmitype/StillImage" />
      </cc:Work>
    </rdf:RDF>
  </metadata>
  <defs
     id="defs16" />
  <sodipodi:namedview
     pagecolor="#ffffff"
     bordercolor="#666666"
     borderopacity="1"
     objecttolerance="10"
     gridtolerance="10"
     guidetolerance="10"
     inkscape:pageopacity="0"
     inkscape:pageshadow="2"
     inkscape:window-width="640"
     inkscape:window-height="480"
     id="namedview14"
     showgrid="false"
     inkscape:zoom="4.453125"
     inkscape:cx="-16.505263"
     inkscape:cy="32"
     inkscape:current-layer="svg12" />
  <rect
     style="opacity:0.2"
     width="50"
     height="45"
     x="7"
     y="11"
     rx="2.5"
     ry="2.5"
     id="rect2" />
  <path
     style="fill:#ae8e6c"
     d="M 7,14.9 7,52.5 C 7,53.885 8.115,55 9.5,55 l 45,0 c 1.385,0 2.5,-1.115 2.5,-2.5 l 0,-37.6 z"
     id="path4" />
  <path
     style="fill:#3d3226"
     d="M 9.5,10 C 8.115,10 7,11.115 7,12.5 V 15 H 57 V 12.5 C 57,11.115 55.885,10 54.5,10 Z"
     id="path6" />
  <path
     style="fill:#ffffff;opacity:0.1"
     d="M 9.5 10 C 8.115 10 7 11.115 7 12.5 L 7 13.5 C 7 12.115 8.115 11 9.5 11 L 54.5 11 C 55.885 11 57 12.115 57 13.5 L 57 12.5 C 57 11.115 55.885 10 54.5 10 L 9.5 10 z"
     id="path10" />
</svg>
