<?xml version="1.0" encoding="UTF-8" standalone="no"?>
<!-- Created with Inkscape (http://www.inkscape.org/) -->

<svg
   xmlns:dc="http://purl.org/dc/elements/1.1/"
   xmlns:cc="http://creativecommons.org/ns#"
   xmlns:rdf="http://www.w3.org/1999/02/22-rdf-syntax-ns#"
   xmlns:svg="http://www.w3.org/2000/svg"
   xmlns="http://www.w3.org/2000/svg"
   xmlns:xlink="http://www.w3.org/1999/xlink"
   xmlns:sodipodi="http://sodipodi.sourceforge.net/DTD/sodipodi-0.dtd"
   xmlns:inkscape="http://www.inkscape.org/namespaces/inkscape"
   inkscape:export-ydpi="90.000000"
   inkscape:export-xdpi="90.000000"
   width="736"
   height="300"
   id="svg11300"
   sodipodi:version="0.32"
   inkscape:version="0.92.4 (5da689c313, 2019-01-14)"
   sodipodi:docname="emblem-synchronizing.svg"
   inkscape:output_extension="org.inkscape.output.svg.inkscape"
   version="1.0"
   style="display:inline;enable-background:new"
   inkscape:export-filename="/home/sam/Pop-template.png">
  <title
     id="title3004">Pop Icon Theme Template</title>
  <sodipodi:namedview
     stroke="#ef2929"
     fill="#f57900"
     id="base"
     pagecolor="#ffffff"
     bordercolor="#000000"
     borderopacity="0.25490196"
     inkscape:pageopacity="0"
     inkscape:pageshadow="2"
     inkscape:zoom="22.627419"
     inkscape:cx="34.863596"
     inkscape:cy="23.559641"
     inkscape:current-layer="layer6"
     showgrid="false"
     inkscape:grid-bbox="true"
     inkscape:document-units="px"
     inkscape:showpageshadow="false"
     inkscape:window-width="2088"
     inkscape:window-height="1371"
     inkscape:window-x="472"
     inkscape:window-y="32"
     width="400px"
     height="300px"
     inkscape:snap-nodes="true"
     inkscape:snap-bbox="true"
     gridtolerance="10000"
     inkscape:object-nodes="true"
     inkscape:snap-grids="true"
     showguides="true"
     inkscape:guide-bbox="true"
     inkscape:window-maximized="0"
     inkscape:bbox-paths="true"
     inkscape:snap-bbox-midpoints="true"
     inkscape:snap-global="true"
     inkscape:object-paths="true"
     inkscape:snap-intersection-paths="true"
     inkscape:snap-smooth-nodes="true"
     inkscape:lockguides="false"
     inkscape:bbox-nodes="true">
    <inkscape:grid
       spacingy="1"
       spacingx="1"
       id="grid5883"
       type="xygrid"
       enabled="true"
       visible="true"
       empspacing="4"
       snapvisiblegridlinesonly="true"
       originx="0"
       originy="0" />
    <inkscape:grid
       type="xygrid"
       id="grid11592"
       empspacing="2"
       visible="true"
       enabled="true"
       spacingx="0.5"
       spacingy="0.5"
       color="#ff0000"
       opacity="0.1254902"
       empcolor="#ff0000"
       empopacity="0.25098039"
       snapvisiblegridlinesonly="true"
       originx="0"
       originy="0" />
  </sodipodi:namedview>
  <defs
     id="defs3">
    <linearGradient
       inkscape:collect="always"
       id="linearGradient2797">
      <stop
         style="stop-color:#888888;stop-opacity:0.19607843"
         offset="0"
         id="stop2789" />
      <stop
         id="stop2791"
         offset="0.06481481"
         style="stop-color:#7f7f7f;stop-opacity:0.3137255" />
      <stop
         style="stop-color:#7f7f7f;stop-opacity:0.19607843"
         offset="0.92660552"
         id="stop2793" />
      <stop
         style="stop-color:#000000;stop-opacity:0.27450982"
         offset="1"
         id="stop2795" />
    </linearGradient>
    <linearGradient
       inkscape:collect="always"
       id="linearGradient2772">
      <stop
         style="stop-color:#888888;stop-opacity:0.19607843"
         offset="0"
         id="stop2764" />
      <stop
         id="stop2766"
         offset="0.03773585"
         style="stop-color:#7f7f7f;stop-opacity:0.3137255" />
      <stop
         style="stop-color:#7f7f7f;stop-opacity:0.19607843"
         offset="0.94339621"
         id="stop2768" />
      <stop
         style="stop-color:#000000;stop-opacity:0.27450982"
         offset="1"
         id="stop2770" />
    </linearGradient>
    <linearGradient
       inkscape:collect="always"
       id="linearGradient2689">
      <stop
         style="stop-color:#888888;stop-opacity:0.19607843"
         offset="0"
         id="stop2681" />
      <stop
         id="stop2683"
         offset="0.04"
         style="stop-color:#7f7f7f;stop-opacity:0.3137255" />
      <stop
         style="stop-color:#7f7f7f;stop-opacity:0.19607843"
         offset="0.92000002"
         id="stop2685" />
      <stop
         style="stop-color:#000000;stop-opacity:0.27450982"
         offset="1"
         id="stop2687" />
    </linearGradient>
    <linearGradient
       id="linearGradient2649"
       inkscape:collect="always">
      <stop
         id="stop2641"
         offset="0"
         style="stop-color:#888888;stop-opacity:0.19607843" />
      <stop
         style="stop-color:#7f7f7f;stop-opacity:0.3137255"
         offset="0.05263158"
         id="stop2643" />
      <stop
         id="stop2645"
         offset="0.89473683"
         style="stop-color:#7f7f7f;stop-opacity:0.19607843" />
      <stop
         id="stop2647"
         offset="1"
         style="stop-color:#000000;stop-opacity:0.27450982" />
    </linearGradient>
    <linearGradient
       id="linearGradient2591"
       inkscape:collect="always">
      <stop
         id="stop2583"
         offset="0"
         style="stop-color:#000000;stop-opacity:0.98168498" />
      <stop
         style="stop-color:#7f7f7f;stop-opacity:0.19607843"
         offset="0.09417041"
         id="stop2585" />
      <stop
         id="stop2587"
         offset="0.9192825"
         style="stop-color:#7f7f7f;stop-opacity:0.19607843" />
      <stop
         id="stop2589"
         offset="1"
         style="stop-color:#000000;stop-opacity:0.39607844" />
    </linearGradient>
    <linearGradient
       inkscape:collect="always"
       id="linearGradient2312">
      <stop
         style="stop-color:#ffffff;stop-opacity:0.11764706"
         offset="0"
         id="stop2304" />
      <stop
         id="stop2306"
         offset="0.09417041"
         style="stop-color:#7f7f7f;stop-opacity:0.19607843" />
      <stop
         style="stop-color:#7f7f7f;stop-opacity:0.19607843"
         offset="0.9192825"
         id="stop2308" />
      <stop
         style="stop-color:#000000;stop-opacity:0.39607844"
         offset="1"
         id="stop2310" />
    </linearGradient>
    <linearGradient
       id="linearGradient2157"
       inkscape:collect="always">
      <stop
         id="stop2153"
         offset="0"
         style="stop-color:#ffffff;stop-opacity:0.11764706" />
      <stop
         id="stop2155"
         offset="1"
         style="stop-color:#000000;stop-opacity:0.39215687" />
    </linearGradient>
    <linearGradient
       gradientTransform="translate(41,-7)"
       inkscape:collect="always"
       xlink:href="#linearGradient2157"
       id="linearGradient2071-2"
       x1="27"
       y1="270"
       x2="27"
       y2="288"
       gradientUnits="userSpaceOnUse" />
    <linearGradient
       gradientTransform="translate(461.5,-226.5)"
       inkscape:collect="always"
       xlink:href="#linearGradient2312"
       id="linearGradient2071-2-2-6-0-9-3"
       x1="130.5"
       y1="272.5"
       x2="130.5"
       y2="492.5"
       gradientUnits="userSpaceOnUse" />
    <linearGradient
       inkscape:collect="always"
       xlink:href="#linearGradient2591"
       id="linearGradient2571"
       x1="22"
       y1="271"
       x2="22"
       y2="281"
       gradientUnits="userSpaceOnUse" />
    <linearGradient
       gradientTransform="translate(44,-6)"
       inkscape:collect="always"
       xlink:href="#linearGradient2649"
       id="linearGradient2601-3"
       x1="20"
       y1="269"
       x2="20"
       y2="288"
       gradientUnits="userSpaceOnUse" />
    <linearGradient
       gradientTransform="translate(71,-29)"
       inkscape:collect="always"
       xlink:href="#linearGradient2689"
       id="linearGradient2601-3-4"
       x1="38"
       y1="285"
       x2="38"
       y2="310"
       gradientUnits="userSpaceOnUse" />
    <linearGradient
       gradientTransform="translate(178,-68)"
       inkscape:collect="always"
       xlink:href="#linearGradient2772"
       id="linearGradient2601-3-4-2-6"
       x1="66"
       y1="294"
       x2="66"
       y2="347"
       gradientUnits="userSpaceOnUse" />
    <linearGradient
       gradientTransform="translate(287,-75)"
       inkscape:collect="always"
       xlink:href="#linearGradient2797"
       id="linearGradient2601-3-4-2-7"
       x1="57"
       y1="241"
       x2="57"
       y2="350"
       gradientUnits="userSpaceOnUse" />
  </defs>
  <metadata
     id="metadata4">
    <rdf:RDF>
      <cc:Work
         rdf:about="">
        <dc:format>image/svg+xml</dc:format>
        <dc:type
           rdf:resource="http://purl.org/dc/dcmitype/StillImage" />
        <dc:creator>
          <cc:Agent>
            <dc:title>Sam Hewitt</dc:title>
          </cc:Agent>
        </dc:creator>
        <dc:source />
        <cc:license
           rdf:resource="http://creativecommons.org/licenses/by-sa/4.0/" />
        <dc:title>Pop Icon Theme Template</dc:title>
        <dc:subject>
          <rdf:Bag />
        </dc:subject>
        <dc:date />
        <dc:rights>
          <cc:Agent>
            <dc:title />
          </cc:Agent>
        </dc:rights>
        <dc:publisher>
          <cc:Agent>
            <dc:title />
          </cc:Agent>
        </dc:publisher>
        <dc:identifier />
        <dc:relation />
        <dc:language />
        <dc:coverage />
        <dc:description />
        <dc:contributor>
          <cc:Agent>
            <dc:title />
          </cc:Agent>
        </dc:contributor>
      </cc:Work>
      <cc:Work
         rdf:about="">
        <dc:format>image/svg+xml</dc:format>
        <dc:type
           rdf:resource="http://purl.org/dc/dcmitype/StillImage" />
      </cc:Work>
      <cc:License
         rdf:about="http://creativecommons.org/licenses/by-sa/4.0/">
        <cc:permits
           rdf:resource="http://creativecommons.org/ns#Reproduction" />
        <cc:permits
           rdf:resource="http://creativecommons.org/ns#Distribution" />
        <cc:requires
           rdf:resource="http://creativecommons.org/ns#Notice" />
        <cc:requires
           rdf:resource="http://creativecommons.org/ns#Attribution" />
        <cc:permits
           rdf:resource="http://creativecommons.org/ns#DerivativeWorks" />
        <cc:requires
           rdf:resource="http://creativecommons.org/ns#ShareAlike" />
      </cc:License>
    </rdf:RDF>
  </metadata>
  <g
     style="display:inline"
     inkscape:groupmode="layer"
     inkscape:label="Icon"
     id="layer1">
    <g
       style="display:none"
       inkscape:label="Baseplate"
       id="layer7"
       inkscape:groupmode="layer"
       sodipodi:insensitive="true">
      <text
         y="231.826"
         xml:space="preserve"
         x="14.974"
         style="font-style:normal;font-variant:normal;font-weight:normal;font-stretch:normal;line-height:0%;font-family:'DejaVu Sans';-inkscape-font-specification:'DejaVu Sans';display:inline;fill:#000000;fill-opacity:1;stroke:none;enable-background:new"
         inkscape:label="context"
         id="context"><tspan
           style="font-style:normal;font-variant:normal;font-weight:normal;font-stretch:normal;font-size:18px;line-height:1.25;font-family:'Fira Sans';-inkscape-font-specification:'Fira Sans'"
           y="231.826"
           x="14.974"
           sodipodi:role="line"
           id="tspan3933">emblems</tspan></text>
      <text
         y="155.81543"
         xml:space="preserve"
         x="15.657227"
         style="font-style:normal;font-variant:normal;font-weight:bold;font-stretch:normal;line-height:0%;font-family:'DejaVu Sans';-inkscape-font-specification:'DejaVu Sans Bold';text-align:start;writing-mode:lr-tb;text-anchor:start;display:inline;fill:#000000;fill-opacity:1;stroke:none;enable-background:new"
         inkscape:label="icon-name"
         id="icon-name"><tspan
           style="font-style:normal;font-variant:normal;font-weight:bold;font-stretch:normal;font-size:18px;line-height:1.25;font-family:'Roboto Slab';-inkscape-font-specification:'Roboto Slab Bold'"
           y="155.81543"
           x="15.657227"
           sodipodi:role="line"
           id="tspan3937">emblem-synchronizing</tspan></text>
      <rect
         style="display:inline;overflow:visible;visibility:visible;fill:#d3d7cf;fill-opacity:1;fill-rule:nonzero;stroke:none;stroke-width:2;marker:none;enable-background:accumulate"
         id="rect16x16"
         width="16"
         height="16"
         x="-66"
         y="268"
         inkscape:label="16x16"
         transform="scale(-1,1)" />
      <rect
         style="display:inline;overflow:visible;visibility:visible;fill:#d3d7cf;fill-opacity:1;fill-rule:nonzero;stroke:none;stroke-width:2;marker:none;enable-background:accumulate"
         id="rect24x24"
         width="24"
         height="24"
         x="-114"
         y="260"
         inkscape:label="24x24"
         transform="scale(-1,1)" />
      <rect
         style="display:inline;overflow:visible;visibility:visible;fill:#d3d7cf;fill-opacity:1;fill-rule:nonzero;stroke:none;stroke-width:2;marker:none;enable-background:accumulate"
         id="rect32x32"
         width="32"
         height="32"
         x="-166"
         y="252"
         inkscape:label="32x32"
         transform="scale(-1,1)" />
      <rect
         inkscape:label="48x48"
         y="236"
         x="-238"
         height="48"
         width="48"
         id="rect48x48"
         style="display:inline;overflow:visible;visibility:visible;fill:#d3d7cf;fill-opacity:1;fill-rule:nonzero;stroke:none;stroke-width:2;marker:none;enable-background:accumulate"
         transform="scale(-1,1)" />
      <rect
         style="display:inline;overflow:visible;visibility:visible;fill:#d3d7cf;fill-opacity:1;fill-rule:nonzero;stroke:none;stroke-width:0.25;marker:none;enable-background:accumulate"
         id="rect3951"
         width="64"
         height="64"
         x="-322"
         y="220"
         inkscape:label="48x48"
         transform="scale(-1,1)" />
      <text
         xml:space="preserve"
         style="font-style:normal;font-weight:normal;font-size:10.66666698px;line-height:1.25;font-family:sans-serif;letter-spacing:0px;word-spacing:0px;display:inline;fill:#000000;fill-opacity:1;stroke:none;enable-background:new"
         x="257.60513"
         y="294.06894"
         id="text858-79"><tspan
           sodipodi:role="line"
           id="tspan856-7"
           x="257.60513"
           y="294.06894"
           style="font-style:normal;font-variant:normal;font-weight:normal;font-stretch:normal;font-family:'Roboto Slab';-inkscape-font-specification:'Roboto Slab'">64</tspan></text>
      <text
         xml:space="preserve"
         style="font-style:normal;font-weight:normal;font-size:10.66666698px;line-height:1.25;font-family:sans-serif;letter-spacing:0px;word-spacing:0px;display:inline;fill:#000000;fill-opacity:1;stroke:none;enable-background:new"
         x="189.60513"
         y="294.06894"
         id="text858-1"><tspan
           sodipodi:role="line"
           id="tspan856-6"
           x="189.60513"
           y="294.06894"
           style="font-style:normal;font-variant:normal;font-weight:normal;font-stretch:normal;font-family:'Roboto Slab';-inkscape-font-specification:'Roboto Slab'">48</tspan></text>
      <text
         xml:space="preserve"
         style="font-style:normal;font-weight:normal;font-size:10.66666698px;line-height:1.25;font-family:sans-serif;letter-spacing:0px;word-spacing:0px;display:inline;fill:#000000;fill-opacity:1;stroke:none;enable-background:new"
         x="133.60513"
         y="294.06894"
         id="text858-3"><tspan
           sodipodi:role="line"
           id="tspan856-0"
           x="133.60513"
           y="294.06894"
           style="font-style:normal;font-variant:normal;font-weight:normal;font-stretch:normal;font-family:'Roboto Slab';-inkscape-font-specification:'Roboto Slab'">32</tspan></text>
      <text
         xml:space="preserve"
         style="font-style:normal;font-weight:normal;font-size:10.66666698px;line-height:1.25;font-family:sans-serif;letter-spacing:0px;word-spacing:0px;display:inline;fill:#000000;fill-opacity:1;stroke:none;enable-background:new"
         x="89.605133"
         y="294.06894"
         id="text858-2"><tspan
           sodipodi:role="line"
           id="tspan856-1"
           x="89.605133"
           y="294.06894"
           style="font-style:normal;font-variant:normal;font-weight:normal;font-stretch:normal;font-family:'Roboto Slab';-inkscape-font-specification:'Roboto Slab'">24</tspan></text>
      <text
         xml:space="preserve"
         style="font-style:normal;font-weight:normal;font-size:10.66666698px;line-height:1.25;font-family:sans-serif;letter-spacing:0px;word-spacing:0px;display:inline;fill:#000000;fill-opacity:1;stroke:none;enable-background:new"
         x="49.605141"
         y="294.06894"
         id="text858-5"><tspan
           sodipodi:role="line"
           id="tspan856-65"
           x="49.605141"
           y="294.06894"
           style="font-style:normal;font-variant:normal;font-weight:normal;font-stretch:normal;font-family:'Roboto Slab';-inkscape-font-specification:'Roboto Slab'">16</tspan></text>
      <rect
         transform="scale(-1,1)"
         inkscape:label="16x16"
         y="276"
         x="-24"
         height="8"
         width="8"
         id="rect1005"
         style="display:inline;overflow:visible;visibility:visible;fill:#d3d7cf;fill-opacity:1;fill-rule:nonzero;stroke:none;stroke-width:2;marker:none;enable-background:accumulate" />
      <text
         id="text1140"
         y="294.06894"
         x="15.520833"
         style="font-style:normal;font-weight:normal;font-size:10.66666698px;line-height:1.25;font-family:sans-serif;letter-spacing:0px;word-spacing:0px;display:inline;fill:#000000;fill-opacity:1;stroke:none;enable-background:new"
         xml:space="preserve"><tspan
           style="font-style:normal;font-variant:normal;font-weight:normal;font-stretch:normal;font-family:'Roboto Slab';-inkscape-font-specification:'Roboto Slab'"
           y="294.06894"
           x="15.520833"
           sodipodi:role="line"
           id="tspan1142">8</tspan></text>
    </g>
    <g
       inkscape:groupmode="layer"
       id="layer6"
       inkscape:label="Symbols"
       style="display:inline">
      <g
         aria-label="?"
         style="font-style:normal;font-variant:normal;font-weight:normal;font-stretch:normal;font-size:14.08355808px;line-height:1.25;font-family:'Fira Sans';-inkscape-font-specification:'Fira Sans';letter-spacing:0px;word-spacing:0px;display:inline;fill:#ffffff;fill-opacity:1;stroke:none;stroke-width:2.6406672;enable-background:new"
         id="text1492-4"
         transform="translate(41,-6)" />
      <rect
         ry="8"
         rx="8"
         y="-66"
         x="-284"
         height="16"
         width="16"
         id="rect4414"
         style="display:inline;fill:#73c48f;fill-opacity:1;stroke:none;enable-background:new"
         transform="matrix(0,-1,-1,0,0,0)" />
      <rect
         transform="matrix(0,-1,-1,0,0,0)"
         style="display:inline;fill:#888888;fill-opacity:1;stroke:none;enable-background:new"
         id="rect4420"
         width="8"
         height="8"
         x="-284"
         y="-24"
         rx="1"
         ry="1" />
      <circle
         style="opacity:1;vector-effect:none;fill:#73c48f;fill-opacity:1;stroke:none;stroke-width:1;stroke-linecap:square;stroke-miterlimit:4;stroke-dasharray:none;stroke-opacity:1"
         id="path991"
         cx="102"
         cy="272"
         r="12" />
      <rect
         style="display:inline;opacity:1;vector-effect:none;fill:#73c48f;fill-opacity:1;stroke:none;stroke-width:1;stroke-linecap:square;stroke-miterlimit:4;stroke-dasharray:none;stroke-opacity:0.50196078;enable-background:new"
         id="rect1022"
         width="44"
         height="46"
         x="192"
         y="238"
         ry="22" />
      <rect
         ry="15"
         y="253"
         x="135"
         height="31"
         width="30"
         id="rect1019"
         style="opacity:1;vector-effect:none;fill:#73c48f;fill-opacity:1;stroke:none;stroke-width:1;stroke-linecap:square;stroke-miterlimit:4;stroke-dasharray:none;stroke-opacity:0.50196078" />
      <path
         style="opacity:1;vector-effect:none;fill:#000000;fill-opacity:0.50196078;stroke:none;stroke-width:1;stroke-linecap:square;stroke-miterlimit:4;stroke-dasharray:none;stroke-opacity:0.50196078"
         d="m 150,253 c -8.31,0 -15,6.69 -15,15 v 1 c 0,8.31 6.69,15 15,15 8.31,0 15,-6.69 15,-15 v -1 c 0,-8.31 -6.69,-15 -15,-15 z m 0,1 a 14,14 0 0 1 14,14 14,14 0 0 1 -14,14 14,14 0 0 1 -14,-14 14,14 0 0 1 14,-14 z"
         id="rect1015"
         inkscape:connector-curvature="0" />
      <rect
         style="opacity:1;vector-effect:none;fill:#73c48f;fill-opacity:1;stroke:none;stroke-width:1;stroke-linecap:square;stroke-miterlimit:4;stroke-dasharray:none;stroke-opacity:0.50196078"
         id="rect1029"
         width="60"
         height="62"
         x="260"
         y="222"
         ry="30" />
      <path
         style="opacity:1;vector-effect:none;fill:#000000;fill-opacity:0.50196078;stroke:none;stroke-width:1;stroke-linecap:square;stroke-miterlimit:4;stroke-dasharray:none;stroke-opacity:0.50196078"
         d="m 290,222 c -16.62,0 -30,13.38 -30,30 v 2 c 0,16.62 13.38,30 30,30 16.62,0 30,-13.38 30,-30 v -2 c 0,-16.62 -13.38,-30 -30,-30 z m 0,1 a 29,29 0 0 1 29,29 29,29 0 0 1 -29,29 29,29 0 0 1 -29,-29 29,29 0 0 1 29,-29 z"
         id="rect1031"
         inkscape:connector-curvature="0" />
      <rect
         style="opacity:1;vector-effect:none;fill:#73c48f;fill-opacity:1;stroke:#000000;stroke-width:1;stroke-linecap:square;stroke-miterlimit:4;stroke-dasharray:none;stroke-opacity:0.50196078"
         id="rect1007"
         width="7"
         height="7"
         x="16.5"
         y="276.5"
         ry="0.5" />
      <rect
         style="opacity:1;vector-effect:none;fill:none;fill-opacity:1;stroke:#000000;stroke-width:1;stroke-linecap:square;stroke-miterlimit:4;stroke-dasharray:none;stroke-opacity:0.50196078"
         id="rect1009"
         width="15"
         height="15"
         x="50.5"
         y="268.5"
         ry="7.5" />
      <rect
         style="opacity:1;vector-effect:none;fill:none;fill-opacity:1;stroke:#000000;stroke-width:1;stroke-linecap:square;stroke-miterlimit:4;stroke-dasharray:none;stroke-opacity:0.50196078"
         id="rect1011"
         width="23"
         height="23"
         x="90.5"
         y="260.5"
         ry="11.477903" />
      <path
         style="display:inline;opacity:1;vector-effect:none;fill:#000000;fill-opacity:0.50196078;stroke:none;stroke-width:1;stroke-linecap:square;stroke-miterlimit:4;stroke-dasharray:none;stroke-opacity:0.50196078;enable-background:new"
         d="m 214,238 c -12.188,0 -22,9.812 -22,22 v 2 c 0,12.188 9.812,22 22,22 12.188,0 22,-9.812 22,-22 v -2 c 0,-12.188 -9.812,-22 -22,-22 z m 0,1 a 21,21 0 0 1 21,21 21,21 0 0 1 -21,21 21,21 0 0 1 -21,-21 21,21 0 0 1 21,-21 z"
         id="rect1026"
         inkscape:connector-curvature="0" />
      <path
         inkscape:connector-curvature="0"
         id="path8675"
         d="m 109.99997,272.00005 h -2 c 0,-2.76241 -1.86537,-5.08363 -4.40625,-5.78125 -0.0316,-0.009 -0.0621,-0.023 -0.0937,-0.0312 -0.25518,-0.0655 -0.51414,-0.0934 -0.78125,-0.125 -0.23328,-0.0276 -0.47806,-0.0625 -0.71875,-0.0625 -0.6163,6.4e-4 -1.22888,0.0951 -1.8125,0.28125 v 0.0312 c -0.841587,0.26706 -1.613617,0.69432 -2.249992,1.28125 l 1.187494,1.59375 c 0.502,-0.51324 1.158098,-0.84637 1.874998,-1.03125 v -0.0312 c 0.38012,-0.0893 0.78962,-0.12172 1.1875,-0.0937 0.1818,0.0128 0.34929,0.0286 0.53125,0.0625 1.86707,0.33781 3.28125,1.94181 3.28125,3.90625 h -2 l 1.24484,1.65979 1.75516,2.34021 3,-4 z m -3.9375,4.40625 -1.1875,-1.59375 c -0.502,0.51324 -1.1581,0.84637 -1.875,1.03125 v 0.0312 c -0.38012,0.0893 -0.78962,0.12172 -1.1875,0.0937 -0.1818,-0.0128 -0.34929,-0.0286 -0.53125,-0.0625 -1.867068,-0.33781 -3.281243,-1.94181 -3.281243,-3.90625 h 1.999995 l -2.999995,-4 -3,4 h 2 c 0,2.76241 1.86537,5.08363 4.406243,5.78125 0.0322,0.009 0.0613,0.0229 0.0937,0.0312 0.25518,0.0655 0.51414,0.0934 0.78125,0.125 0.23328,0.0276 0.47806,0.0625 0.71875,0.0625 0.6163,-6.4e-4 1.22888,-0.0951 1.8125,-0.28125 v -0.0312 c 0.84159,-0.26706 1.61362,-0.69432 2.25,-1.28125 z"
         style="display:inline;fill:#474341;fill-opacity:1;stroke:none;enable-background:new"
         sodipodi:nodetypes="ccccsccccccccccccccccccccccccccccsccccc" />
      <path
         sodipodi:nodetypes="ccccsccccccccccccccccccccccccccccsccccc"
         style="display:inline;fill:#474341;fill-opacity:1;stroke:none;enable-background:new"
         d="m 157.99997,268.50005 h -2 c 0,-2.76241 -1.86537,-5.08363 -4.40625,-5.78125 -0.0316,-0.009 -0.0621,-0.023 -0.0937,-0.0312 -0.25518,-0.0655 -0.51414,-0.0934 -0.78125,-0.125 -0.23328,-0.0276 -0.47806,-0.0625 -0.71875,-0.0625 -0.6163,6.4e-4 -1.22888,0.0951 -1.8125,0.28125 v 0.0312 c -0.84159,0.26706 -1.61362,0.69432 -2.24999,1.28125 l 1.18749,1.59375 c 0.502,-0.51324 1.1581,-0.84637 1.875,-1.03125 v -0.0312 c 0.38012,-0.0893 0.78962,-0.12172 1.1875,-0.0937 0.1818,0.0128 0.34929,0.0286 0.53125,0.0625 1.86707,0.33781 3.28125,1.94181 3.28125,3.90625 h -2 l 1.24484,1.65979 1.75516,2.34021 3,-4 z m -3.9375,4.40625 -1.1875,-1.59375 c -0.502,0.51324 -1.1581,0.84637 -1.875,1.03125 v 0.0312 c -0.38012,0.0893 -0.78962,0.12172 -1.1875,0.0937 -0.1818,-0.0128 -0.34929,-0.0286 -0.53125,-0.0625 -1.86707,-0.33781 -3.28124,-1.94181 -3.28124,-3.90625 h 1.99999 l -2.99999,-4 -3,4 h 2 c 0,2.76241 1.86537,5.08363 4.40624,5.78125 0.0322,0.009 0.0613,0.0229 0.0937,0.0312 0.25518,0.0655 0.51414,0.0934 0.78125,0.125 0.23328,0.0276 0.47806,0.0625 0.71875,0.0625 0.6163,-6.4e-4 1.22888,-0.0951 1.8125,-0.28125 v -0.0312 c 0.84159,-0.26706 1.61362,-0.69432 2.25,-1.28125 z"
         id="path1008"
         inkscape:connector-curvature="0" />
      <path
         inkscape:connector-curvature="0"
         id="path1010"
         d="m 225.99995,261.00004 h -3 c 0,-4.14361 -2.79805,-7.62544 -6.60937,-8.67187 -0.0474,-0.0135 -0.0932,-0.0345 -0.14055,-0.0468 -0.38277,-0.0983 -0.77121,-0.1401 -1.17188,-0.1875 -0.34992,-0.0414 -0.71709,-0.0937 -1.07812,-0.0937 -0.92445,9.6e-4 -1.84332,0.14265 -2.71875,0.42187 v 0.0468 c -1.26239,0.40059 -2.42043,1.04149 -3.37499,1.92188 l 1.78124,2.39062 c 0.753,-0.76986 1.73715,-1.26955 2.8125,-1.54687 v -0.0468 c 0.57018,-0.13395 1.18443,-0.18258 1.78125,-0.14055 0.2727,0.0192 0.52393,0.0429 0.79687,0.0937 2.80061,0.50671 4.92188,2.91271 4.92188,5.85937 h -3 l 1.86726,2.48969 2.63274,3.51031 4.5,-6 z m -5.90625,6.60938 -1.78125,-2.39063 c -0.753,0.76986 -1.73714,1.26957 -2.8125,1.54688 v 0.0468 c -0.57018,0.13396 -1.18443,0.18258 -1.78125,0.14056 -0.2727,-0.0192 -0.52393,-0.0429 -0.79687,-0.0937 -2.80061,-0.5067 -4.92186,-2.91271 -4.92186,-5.85937 h 2.99998 l -4.49998,-6 -4.5,6 h 3 c 0,4.14362 2.79806,7.62545 6.60936,8.67187 0.0483,0.0135 0.0919,0.0343 0.14055,0.0468 0.38277,0.0983 0.77121,0.1401 1.17188,0.1875 0.34992,0.0414 0.71708,0.0937 1.07812,0.0937 0.92445,-9.6e-4 1.84332,-0.14265 2.71875,-0.42187 v -0.0468 c 1.26239,-0.40059 2.42043,-1.04149 3.375,-1.92187 z"
         style="display:inline;fill:#474341;fill-opacity:1;stroke:none;stroke-width:1.5;enable-background:new"
         sodipodi:nodetypes="ccccsccccccccccccccccccccccccccccsccccc" />
      <path
         inkscape:connector-curvature="0"
         id="path1012"
         d="m 305.99994,253.0001 h -4 c 0,-5.52482 -3.73074,-10.16726 -8.8125,-11.5625 -0.0632,-0.018 -0.1242,-0.046 -0.1874,-0.0624 -0.51036,-0.131 -1.02828,-0.1868 -1.5625,-0.25 -0.46656,-0.0552 -0.95612,-0.125 -1.4375,-0.125 -1.2326,0.001 -2.45776,0.1902 -3.625,0.5625 v 0.0624 c -1.68318,0.53412 -3.22724,1.38864 -4.49998,2.5625 l 2.37498,3.1875 c 1.004,-1.02648 2.3162,-1.69274 3.75,-2.0625 v -0.0624 c 0.76024,-0.1786 1.57924,-0.24344 2.375,-0.1874 0.3636,0.0256 0.69858,0.0572 1.0625,0.125 3.73414,0.67562 6.5625,3.88362 6.5625,7.8125 h -4 l 2.48968,3.31958 3.51032,4.68042 6,-8 z m -7.875,8.8125 -2.375,-3.1875 c -1.004,1.02648 -2.3162,1.69274 -3.75,2.0625 v 0.0624 c -0.76024,0.1786 -1.57924,0.24344 -2.375,0.1874 -0.3636,-0.0256 -0.69858,-0.0572 -1.0625,-0.125 -3.73414,-0.67562 -6.56248,-3.88362 -6.56248,-7.8125 h 3.99998 l -5.99998,-8 -6,8 h 4 c 0,5.52482 3.73074,10.16726 8.81248,11.5625 0.0644,0.018 0.1226,0.0458 0.1874,0.0624 0.51036,0.131 1.02828,0.1868 1.5625,0.25 0.46656,0.0552 0.95612,0.125 1.4375,0.125 1.2326,-10e-4 2.45776,-0.1902 3.625,-0.5625 v -0.0624 c 1.68318,-0.53412 3.22724,-1.38864 4.5,-2.5625 z"
         style="display:inline;fill:#474341;fill-opacity:1;stroke:none;stroke-width:2;enable-background:new"
         sodipodi:nodetypes="ccccsccccccccccccccccccccccccccccsccccc" />
      <path
         sodipodi:nodetypes="ccccsccccccccccccccccccccccccccccsccccc"
         style="display:inline;fill:#474341;fill-opacity:1;stroke:none;stroke-width:0.75;enable-background:new"
         d="m 63.999994,276.00004 h -1.5 c 0,-2.07181 -1.39903,-3.81273 -3.30469,-4.33594 -0.0237,-0.007 -0.0466,-0.0173 -0.0703,-0.0234 -0.19138,-0.0491 -0.3856,-0.07 -0.58593,-0.0937 -0.17496,-0.0207 -0.35855,-0.0469 -0.53907,-0.0469 -0.46222,4.8e-4 -0.92166,0.0713 -1.35937,0.21094 v 0.0234 c -0.63119,0.2003 -1.210213,0.52074 -1.687494,0.96094 l 0.89062,1.19531 c 0.376504,-0.38493 0.868574,-0.63477 1.406244,-0.77344 v -0.0234 c 0.28509,-0.067 0.59222,-0.0913 0.89063,-0.0703 0.13635,0.01 0.26197,0.0215 0.39844,0.0469 1.4003,0.25336 2.46093,1.45636 2.46093,2.92969 h -1.5 l 0.93363,1.24484 1.31637,1.75516 2.25,-3 z m -2.95313,3.30468 -0.89062,-1.19531 c -0.3765,0.38493 -0.86858,0.63478 -1.40625,0.77344 v 0.0234 c -0.28509,0.067 -0.59222,0.0913 -0.89063,0.0703 -0.13635,-0.01 -0.26197,-0.0215 -0.39844,-0.0469 -1.4003,-0.25336 -2.460928,-1.45636 -2.460928,-2.92969 h 1.499998 l -2.249998,-3 -2.25,3 h 1.5 c 0,2.07181 1.399028,3.81273 3.304678,4.33594 0.0242,0.007 0.046,0.0172 0.0703,0.0234 0.19138,0.0491 0.3856,0.07 0.58594,0.0937 0.17496,0.0207 0.35854,0.0469 0.53906,0.0469 0.46222,-4.8e-4 0.92166,-0.0713 1.35937,-0.21094 v -0.0234 c 0.6312,-0.2003 1.21022,-0.52074 1.6875,-0.96094 z"
         id="path1016"
         inkscape:connector-curvature="0" />
      <path
         inkscape:connector-curvature="0"
         id="path1018"
         d="m 22.999997,280.00002 h -0.75 c 0,-1.03591 -0.699515,-1.90637 -1.652345,-2.16797 -0.01185,-0.003 -0.0233,-0.009 -0.03515,-0.0117 -0.09569,-0.0246 -0.1928,-0.035 -0.292965,-0.0469 -0.08748,-0.0104 -0.179275,-0.0235 -0.269535,-0.0235 -0.23111,2.4e-4 -0.46083,0.0357 -0.679685,0.10547 v 0.0117 c -0.315595,0.10015 -0.605107,0.26037 -0.843747,0.48047 l 0.44531,0.59765 c 0.188252,-0.19246 0.434287,-0.31738 0.703122,-0.38672 v -0.0117 c 0.142545,-0.0335 0.29611,-0.0456 0.445315,-0.0351 0.06818,0.005 0.130985,0.0108 0.19922,0.0235 0.70015,0.12668 1.230465,0.72818 1.230465,1.46484 h -0.75 l 0.466815,0.62242 0.658185,0.87758 1.125,-1.5 z m -1.476565,1.65234 -0.44531,-0.59765 c -0.18825,0.19246 -0.43429,0.31738 -0.703125,0.38671 v 0.0117 c -0.142545,0.0335 -0.29611,0.0457 -0.445315,0.0351 -0.06818,-0.005 -0.130985,-0.0107 -0.19922,-0.0234 -0.70015,-0.12669 -1.230464,-0.72819 -1.230464,-1.46485 h 0.749999 l -1.124999,-1.5 -1.125,1.5 h 0.75 c 0,1.0359 0.699514,1.90636 1.652339,2.16797 0.0121,0.003 0.023,0.009 0.03515,0.0117 0.09569,0.0246 0.1928,0.035 0.29297,0.0469 0.08748,0.0104 0.17927,0.0235 0.26953,0.0235 0.23111,-2.4e-4 0.46083,-0.0357 0.679685,-0.10547 v -0.0117 c 0.3156,-0.10015 0.60511,-0.26037 0.84375,-0.48047 z"
         style="display:inline;fill:#474341;fill-opacity:1;stroke:none;stroke-width:0.375;enable-background:new"
         sodipodi:nodetypes="ccccsccccccccccccccccccccccccccccsccccc" />
    </g>
  </g>
</svg>
