<?xml version="1.0" encoding="UTF-8" standalone="no"?>
<svg
   xmlns:dc="http://purl.org/dc/elements/1.1/"
   xmlns:cc="http://creativecommons.org/ns#"
   xmlns:rdf="http://www.w3.org/1999/02/22-rdf-syntax-ns#"
   xmlns:svg="http://www.w3.org/2000/svg"
   xmlns="http://www.w3.org/2000/svg"
   xmlns:xlink="http://www.w3.org/1999/xlink"
   xmlns:sodipodi="http://sodipodi.sourceforge.net/DTD/sodipodi-0.dtd"
   xmlns:inkscape="http://www.inkscape.org/namespaces/inkscape"
   inkscape:export-filename="/home/sam/Pop-template.png"
   style="display:inline;enable-background:new"
   version="1.0"
   inkscape:output_extension="org.inkscape.output.svg.inkscape"
   sodipodi:docname="emblem-system.svg"
   inkscape:version="1.0alpha (989d59584b, 2019-01-13)"
   sodipodi:version="0.32"
   id="svg11300"
   height="300"
   width="736"
   inkscape:export-xdpi="90.000000"
   inkscape:export-ydpi="90.000000">
  <title
     id="title3004">Pop Icon Theme Template</title>
  <sodipodi:namedview
     inkscape:document-rotation="0"
     inkscape:bbox-nodes="true"
     inkscape:lockguides="false"
     inkscape:snap-smooth-nodes="true"
     inkscape:snap-intersection-paths="true"
     inkscape:object-paths="true"
     inkscape:snap-global="true"
     inkscape:snap-bbox-midpoints="true"
     inkscape:bbox-paths="true"
     inkscape:window-maximized="0"
     inkscape:guide-bbox="true"
     showguides="true"
     inkscape:snap-grids="true"
     inkscape:object-nodes="true"
     gridtolerance="10000"
     inkscape:snap-bbox="true"
     inkscape:snap-nodes="true"
     height="300px"
     width="400px"
     inkscape:window-y="32"
     inkscape:window-x="472"
     inkscape:window-height="1371"
     inkscape:window-width="2088"
     inkscape:showpageshadow="false"
     inkscape:document-units="px"
     inkscape:grid-bbox="true"
     showgrid="false"
     inkscape:current-layer="layer6"
     inkscape:cy="270.22837"
     inkscape:cx="45.705759"
     inkscape:zoom="22.627419"
     inkscape:pageshadow="2"
     inkscape:pageopacity="0"
     borderopacity="0.25490196"
     bordercolor="#000000"
     pagecolor="#ffffff"
     id="base"
     fill="#f57900"
     stroke="#ef2929">
    <inkscape:grid
       originy="0"
       originx="0"
       snapvisiblegridlinesonly="true"
       empspacing="4"
       visible="true"
       enabled="true"
       type="xygrid"
       id="grid5883"
       spacingx="1"
       spacingy="1" />
    <inkscape:grid
       originy="0"
       originx="0"
       snapvisiblegridlinesonly="true"
       empopacity="0.25098039"
       empcolor="#ff0000"
       opacity="0.1254902"
       color="#ff0000"
       spacingy="0.5"
       spacingx="0.5"
       enabled="true"
       visible="true"
       empspacing="2"
       id="grid11592"
       type="xygrid" />
  </sodipodi:namedview>
  <defs
     id="defs3">
    <linearGradient
       id="linearGradient2797"
       inkscape:collect="always">
      <stop
         id="stop2789"
         offset="0"
         style="stop-color:#888888;stop-opacity:0.19607843" />
      <stop
         style="stop-color:#7f7f7f;stop-opacity:0.3137255"
         offset="0.06481481"
         id="stop2791" />
      <stop
         id="stop2793"
         offset="0.92660552"
         style="stop-color:#7f7f7f;stop-opacity:0.19607843" />
      <stop
         id="stop2795"
         offset="1"
         style="stop-color:#000000;stop-opacity:0.27450982" />
    </linearGradient>
    <linearGradient
       id="linearGradient2772"
       inkscape:collect="always">
      <stop
         id="stop2764"
         offset="0"
         style="stop-color:#888888;stop-opacity:0.19607843" />
      <stop
         style="stop-color:#7f7f7f;stop-opacity:0.3137255"
         offset="0.03773585"
         id="stop2766" />
      <stop
         id="stop2768"
         offset="0.94339621"
         style="stop-color:#7f7f7f;stop-opacity:0.19607843" />
      <stop
         id="stop2770"
         offset="1"
         style="stop-color:#000000;stop-opacity:0.27450982" />
    </linearGradient>
    <linearGradient
       id="linearGradient2689"
       inkscape:collect="always">
      <stop
         id="stop2681"
         offset="0"
         style="stop-color:#888888;stop-opacity:0.19607843" />
      <stop
         style="stop-color:#7f7f7f;stop-opacity:0.3137255"
         offset="0.04"
         id="stop2683" />
      <stop
         id="stop2685"
         offset="0.92000002"
         style="stop-color:#7f7f7f;stop-opacity:0.19607843" />
      <stop
         id="stop2687"
         offset="1"
         style="stop-color:#000000;stop-opacity:0.27450982" />
    </linearGradient>
    <linearGradient
       inkscape:collect="always"
       id="linearGradient2649">
      <stop
         style="stop-color:#888888;stop-opacity:0.19607843"
         offset="0"
         id="stop2641" />
      <stop
         id="stop2643"
         offset="0.05263158"
         style="stop-color:#7f7f7f;stop-opacity:0.3137255" />
      <stop
         style="stop-color:#7f7f7f;stop-opacity:0.19607843"
         offset="0.89473683"
         id="stop2645" />
      <stop
         style="stop-color:#000000;stop-opacity:0.27450982"
         offset="1"
         id="stop2647" />
    </linearGradient>
    <linearGradient
       inkscape:collect="always"
       id="linearGradient2591">
      <stop
         style="stop-color:#000000;stop-opacity:0.98168498"
         offset="0"
         id="stop2583" />
      <stop
         id="stop2585"
         offset="0.09417041"
         style="stop-color:#7f7f7f;stop-opacity:0.19607843" />
      <stop
         style="stop-color:#7f7f7f;stop-opacity:0.19607843"
         offset="0.9192825"
         id="stop2587" />
      <stop
         style="stop-color:#000000;stop-opacity:0.39607844"
         offset="1"
         id="stop2589" />
    </linearGradient>
    <linearGradient
       id="linearGradient2312"
       inkscape:collect="always">
      <stop
         id="stop2304"
         offset="0"
         style="stop-color:#ffffff;stop-opacity:0.11764706" />
      <stop
         style="stop-color:#7f7f7f;stop-opacity:0.19607843"
         offset="0.09417041"
         id="stop2306" />
      <stop
         id="stop2308"
         offset="0.9192825"
         style="stop-color:#7f7f7f;stop-opacity:0.19607843" />
      <stop
         id="stop2310"
         offset="1"
         style="stop-color:#000000;stop-opacity:0.39607844" />
    </linearGradient>
    <linearGradient
       inkscape:collect="always"
       id="linearGradient2157">
      <stop
         style="stop-color:#ffffff;stop-opacity:0.11764706"
         offset="0"
         id="stop2153" />
      <stop
         style="stop-color:#000000;stop-opacity:0.39215687"
         offset="1"
         id="stop2155" />
    </linearGradient>
    <linearGradient
       gradientUnits="userSpaceOnUse"
       y2="288"
       x2="27"
       y1="270"
       x1="27"
       id="linearGradient2071-2"
       xlink:href="#linearGradient2157"
       inkscape:collect="always"
       gradientTransform="translate(41,-7)" />
    <linearGradient
       gradientUnits="userSpaceOnUse"
       y2="492.5"
       x2="130.5"
       y1="272.5"
       x1="130.5"
       id="linearGradient2071-2-2-6-0-9-3"
       xlink:href="#linearGradient2312"
       inkscape:collect="always"
       gradientTransform="translate(461.5,-226.5)" />
    <linearGradient
       gradientUnits="userSpaceOnUse"
       y2="281"
       x2="22"
       y1="271"
       x1="22"
       id="linearGradient2571"
       xlink:href="#linearGradient2591"
       inkscape:collect="always" />
    <linearGradient
       gradientUnits="userSpaceOnUse"
       y2="288"
       x2="20"
       y1="269"
       x1="20"
       id="linearGradient2601-3"
       xlink:href="#linearGradient2649"
       inkscape:collect="always"
       gradientTransform="translate(44,-6)" />
    <linearGradient
       gradientUnits="userSpaceOnUse"
       y2="310"
       x2="38"
       y1="285"
       x1="38"
       id="linearGradient2601-3-4"
       xlink:href="#linearGradient2689"
       inkscape:collect="always"
       gradientTransform="translate(71,-29)" />
    <linearGradient
       gradientUnits="userSpaceOnUse"
       y2="347"
       x2="66"
       y1="294"
       x1="66"
       id="linearGradient2601-3-4-2-6"
       xlink:href="#linearGradient2772"
       inkscape:collect="always"
       gradientTransform="translate(178,-68)" />
    <linearGradient
       gradientUnits="userSpaceOnUse"
       y2="350"
       x2="57"
       y1="241"
       x1="57"
       id="linearGradient2601-3-4-2-7"
       xlink:href="#linearGradient2797"
       inkscape:collect="always"
       gradientTransform="translate(287,-75)" />
  </defs>
  <metadata
     id="metadata4">
    <rdf:RDF>
      <cc:Work
         rdf:about="">
        <dc:format>image/svg+xml</dc:format>
        <dc:type
           rdf:resource="http://purl.org/dc/dcmitype/StillImage" />
        <dc:creator>
          <cc:Agent>
            <dc:title>Sam Hewitt</dc:title>
          </cc:Agent>
        </dc:creator>
        <dc:source />
        <cc:license
           rdf:resource="http://creativecommons.org/licenses/by-sa/4.0/" />
        <dc:title>Pop Icon Theme Template</dc:title>
        <dc:subject>
          <rdf:Bag />
        </dc:subject>
        <dc:date />
        <dc:rights>
          <cc:Agent>
            <dc:title />
          </cc:Agent>
        </dc:rights>
        <dc:publisher>
          <cc:Agent>
            <dc:title />
          </cc:Agent>
        </dc:publisher>
        <dc:identifier />
        <dc:relation />
        <dc:language />
        <dc:coverage />
        <dc:description />
        <dc:contributor>
          <cc:Agent>
            <dc:title />
          </cc:Agent>
        </dc:contributor>
      </cc:Work>
      <cc:Work
         rdf:about="">
        <dc:format>image/svg+xml</dc:format>
        <dc:type
           rdf:resource="http://purl.org/dc/dcmitype/StillImage" />
      </cc:Work>
      <cc:License
         rdf:about="http://creativecommons.org/licenses/by-sa/4.0/">
        <cc:permits
           rdf:resource="http://creativecommons.org/ns#Reproduction" />
        <cc:permits
           rdf:resource="http://creativecommons.org/ns#Distribution" />
        <cc:requires
           rdf:resource="http://creativecommons.org/ns#Notice" />
        <cc:requires
           rdf:resource="http://creativecommons.org/ns#Attribution" />
        <cc:permits
           rdf:resource="http://creativecommons.org/ns#DerivativeWorks" />
        <cc:requires
           rdf:resource="http://creativecommons.org/ns#ShareAlike" />
      </cc:License>
    </rdf:RDF>
  </metadata>
  <g
     id="layer1"
     inkscape:label="Icon"
     inkscape:groupmode="layer"
     style="display:inline">
    <g
       sodipodi:insensitive="true"
       inkscape:groupmode="layer"
       id="layer7"
       inkscape:label="Baseplate"
       style="display:none">
      <text
         id="context"
         inkscape:label="context"
         style="font-style:normal;font-variant:normal;font-weight:normal;font-stretch:normal;line-height:0%;font-family:'DejaVu Sans';-inkscape-font-specification:'DejaVu Sans';display:inline;fill:#000000;fill-opacity:1;stroke:none;enable-background:new"
         x="14.974"
         xml:space="preserve"
         y="231.826"><tspan
           id="tspan3933"
           sodipodi:role="line"
           x="14.974"
           y="231.826"
           style="font-style:normal;font-variant:normal;font-weight:normal;font-stretch:normal;font-size:18px;line-height:1.25;font-family:'Fira Sans';-inkscape-font-specification:'Fira Sans'">emblems</tspan></text>
      <text
         id="icon-name"
         inkscape:label="icon-name"
         style="font-style:normal;font-variant:normal;font-weight:bold;font-stretch:normal;line-height:0%;font-family:'DejaVu Sans';-inkscape-font-specification:'DejaVu Sans Bold';text-align:start;writing-mode:lr-tb;text-anchor:start;display:inline;fill:#000000;fill-opacity:1;stroke:none;enable-background:new"
         x="15.657227"
         xml:space="preserve"
         y="155.81543"><tspan
           id="tspan3937"
           sodipodi:role="line"
           x="15.657227"
           y="155.81543"
           style="font-style:normal;font-variant:normal;font-weight:bold;font-stretch:normal;font-size:18px;line-height:1.25;font-family:'Roboto Slab';-inkscape-font-specification:'Roboto Slab Bold'">emblem-system</tspan></text>
      <rect
         transform="scale(-1,1)"
         inkscape:label="16x16"
         y="268"
         x="-66"
         height="16"
         width="16"
         id="rect16x16"
         style="display:inline;overflow:visible;visibility:visible;fill:#d3d7cf;fill-opacity:1;fill-rule:nonzero;stroke:none;stroke-width:2;marker:none;enable-background:accumulate" />
      <rect
         transform="scale(-1,1)"
         inkscape:label="24x24"
         y="260"
         x="-114"
         height="24"
         width="24"
         id="rect24x24"
         style="display:inline;overflow:visible;visibility:visible;fill:#d3d7cf;fill-opacity:1;fill-rule:nonzero;stroke:none;stroke-width:2;marker:none;enable-background:accumulate" />
      <rect
         transform="scale(-1,1)"
         inkscape:label="32x32"
         y="252"
         x="-166"
         height="32"
         width="32"
         id="rect32x32"
         style="display:inline;overflow:visible;visibility:visible;fill:#d3d7cf;fill-opacity:1;fill-rule:nonzero;stroke:none;stroke-width:2;marker:none;enable-background:accumulate" />
      <rect
         transform="scale(-1,1)"
         style="display:inline;overflow:visible;visibility:visible;fill:#d3d7cf;fill-opacity:1;fill-rule:nonzero;stroke:none;stroke-width:2;marker:none;enable-background:accumulate"
         id="rect48x48"
         width="48"
         height="48"
         x="-238"
         y="236"
         inkscape:label="48x48" />
      <rect
         transform="scale(-1,1)"
         inkscape:label="48x48"
         y="220"
         x="-322"
         height="64"
         width="64"
         id="rect3951"
         style="display:inline;overflow:visible;visibility:visible;fill:#d3d7cf;fill-opacity:1;fill-rule:nonzero;stroke:none;stroke-width:0.25;marker:none;enable-background:accumulate" />
      <text
         id="text858-79"
         y="294.06894"
         x="257.60513"
         style="font-style:normal;font-weight:normal;font-size:10.66666698px;line-height:1.25;font-family:sans-serif;letter-spacing:0px;word-spacing:0px;display:inline;fill:#000000;fill-opacity:1;stroke:none;enable-background:new"
         xml:space="preserve"><tspan
           style="font-style:normal;font-variant:normal;font-weight:normal;font-stretch:normal;font-family:'Roboto Slab';-inkscape-font-specification:'Roboto Slab'"
           y="294.06894"
           x="257.60513"
           id="tspan856-7"
           sodipodi:role="line">64</tspan></text>
      <text
         id="text858-1"
         y="294.06894"
         x="189.60513"
         style="font-style:normal;font-weight:normal;font-size:10.66666698px;line-height:1.25;font-family:sans-serif;letter-spacing:0px;word-spacing:0px;display:inline;fill:#000000;fill-opacity:1;stroke:none;enable-background:new"
         xml:space="preserve"><tspan
           style="font-style:normal;font-variant:normal;font-weight:normal;font-stretch:normal;font-family:'Roboto Slab';-inkscape-font-specification:'Roboto Slab'"
           y="294.06894"
           x="189.60513"
           id="tspan856-6"
           sodipodi:role="line">48</tspan></text>
      <text
         id="text858-3"
         y="294.06894"
         x="133.60513"
         style="font-style:normal;font-weight:normal;font-size:10.66666698px;line-height:1.25;font-family:sans-serif;letter-spacing:0px;word-spacing:0px;display:inline;fill:#000000;fill-opacity:1;stroke:none;enable-background:new"
         xml:space="preserve"><tspan
           style="font-style:normal;font-variant:normal;font-weight:normal;font-stretch:normal;font-family:'Roboto Slab';-inkscape-font-specification:'Roboto Slab'"
           y="294.06894"
           x="133.60513"
           id="tspan856-0"
           sodipodi:role="line">32</tspan></text>
      <text
         id="text858-2"
         y="294.06894"
         x="89.605133"
         style="font-style:normal;font-weight:normal;font-size:10.66666698px;line-height:1.25;font-family:sans-serif;letter-spacing:0px;word-spacing:0px;display:inline;fill:#000000;fill-opacity:1;stroke:none;enable-background:new"
         xml:space="preserve"><tspan
           style="font-style:normal;font-variant:normal;font-weight:normal;font-stretch:normal;font-family:'Roboto Slab';-inkscape-font-specification:'Roboto Slab'"
           y="294.06894"
           x="89.605133"
           id="tspan856-1"
           sodipodi:role="line">24</tspan></text>
      <text
         id="text858-5"
         y="294.06894"
         x="49.605141"
         style="font-style:normal;font-weight:normal;font-size:10.66666698px;line-height:1.25;font-family:sans-serif;letter-spacing:0px;word-spacing:0px;display:inline;fill:#000000;fill-opacity:1;stroke:none;enable-background:new"
         xml:space="preserve"><tspan
           style="font-style:normal;font-variant:normal;font-weight:normal;font-stretch:normal;font-family:'Roboto Slab';-inkscape-font-specification:'Roboto Slab'"
           y="294.06894"
           x="49.605141"
           id="tspan856-65"
           sodipodi:role="line">16</tspan></text>
      <rect
         style="display:inline;overflow:visible;visibility:visible;fill:#d3d7cf;fill-opacity:1;fill-rule:nonzero;stroke:none;stroke-width:2;marker:none;enable-background:accumulate"
         id="rect1005"
         width="8"
         height="8"
         x="-24"
         y="276"
         inkscape:label="16x16"
         transform="scale(-1,1)" />
      <text
         xml:space="preserve"
         style="font-style:normal;font-weight:normal;font-size:10.66666698px;line-height:1.25;font-family:sans-serif;letter-spacing:0px;word-spacing:0px;display:inline;fill:#000000;fill-opacity:1;stroke:none;enable-background:new"
         x="15.520833"
         y="294.06894"
         id="text1140"><tspan
           id="tspan1142"
           sodipodi:role="line"
           x="15.520833"
           y="294.06894"
           style="font-style:normal;font-variant:normal;font-weight:normal;font-stretch:normal;font-family:'Roboto Slab';-inkscape-font-specification:'Roboto Slab'">8</tspan></text>
    </g>
    <g
       style="display:inline"
       inkscape:label="Symbols"
       id="layer6"
       inkscape:groupmode="layer">
      <g
         transform="translate(41,-6)"
         id="text1492-4"
         style="font-style:normal;font-variant:normal;font-weight:normal;font-stretch:normal;font-size:14.08355808px;line-height:1.25;font-family:'Fira Sans';-inkscape-font-specification:'Fira Sans';letter-spacing:0px;word-spacing:0px;display:inline;fill:#ffffff;fill-opacity:1;stroke:none;stroke-width:2.6406672;enable-background:new"
         aria-label="?" />
      <rect
         transform="matrix(0,-1,-1,0,0,0)"
         style="display:inline;fill:#574f4a;fill-opacity:1;stroke:none;enable-background:new"
         id="rect4414"
         width="16"
         height="16"
         x="-284"
         y="-66"
         rx="8"
         ry="8" />
      <rect
         ry="1"
         rx="1"
         y="-24"
         x="-284"
         height="8"
         width="8"
         id="rect4420"
         style="display:inline;fill:#574f4a;fill-opacity:1;stroke:none;enable-background:new"
         transform="matrix(0,-1,-1,0,0,0)" />
      <circle
         r="12"
         cy="272"
         cx="102"
         id="path991"
         style="opacity:1;vector-effect:none;fill:#888888;fill-opacity:1;stroke:none;stroke-width:1;stroke-linecap:square;stroke-miterlimit:4;stroke-dasharray:none;stroke-opacity:1" />
      <rect
         ry="22"
         y="238"
         x="192"
         height="46"
         width="44"
         id="rect1022"
         style="display:inline;opacity:1;vector-effect:none;fill:#574f4a;fill-opacity:1;stroke:none;stroke-width:1;stroke-linecap:square;stroke-miterlimit:4;stroke-dasharray:none;stroke-opacity:0.50196078;enable-background:new" />
      <rect
         style="opacity:1;vector-effect:none;fill:#574f4a;fill-opacity:1;stroke:none;stroke-width:1;stroke-linecap:square;stroke-miterlimit:4;stroke-dasharray:none;stroke-opacity:0.50196078"
         id="rect1019"
         width="30"
         height="31"
         x="135"
         y="253"
         ry="15" />
      <path
         inkscape:connector-curvature="0"
         id="rect1015"
         d="m 150,253 c -8.31,0 -15,6.69 -15,15 v 1 c 0,8.31 6.69,15 15,15 8.31,0 15,-6.69 15,-15 v -1 c 0,-8.31 -6.69,-15 -15,-15 z m 0,1 a 14,14 0 0 1 14,14 14,14 0 0 1 -14,14 14,14 0 0 1 -14,-14 14,14 0 0 1 14,-14 z"
         style="opacity:1;vector-effect:none;fill:#000000;fill-opacity:0.50196078;stroke:none;stroke-width:1;stroke-linecap:square;stroke-miterlimit:4;stroke-dasharray:none;stroke-opacity:0.50196078" />
      <rect
         ry="30"
         y="222"
         x="260"
         height="62"
         width="60"
         id="rect1029"
         style="opacity:1;vector-effect:none;fill:#574f4a;fill-opacity:1;stroke:none;stroke-width:1;stroke-linecap:square;stroke-miterlimit:4;stroke-dasharray:none;stroke-opacity:0.50196078" />
      <path
         inkscape:connector-curvature="0"
         id="rect1031"
         d="m 290,222 c -16.62,0 -30,13.38 -30,30 v 2 c 0,16.62 13.38,30 30,30 16.62,0 30,-13.38 30,-30 v -2 c 0,-16.62 -13.38,-30 -30,-30 z m 0,1 a 29,29 0 0 1 29,29 29,29 0 0 1 -29,29 29,29 0 0 1 -29,-29 29,29 0 0 1 29,-29 z"
         style="opacity:1;vector-effect:none;fill:#000000;fill-opacity:0.50196078;stroke:none;stroke-width:1;stroke-linecap:square;stroke-miterlimit:4;stroke-dasharray:none;stroke-opacity:0.50196078" />
      <rect
         ry="0.5"
         y="276.5"
         x="16.5"
         height="7"
         width="7"
         id="rect1007"
         style="opacity:1;vector-effect:none;fill:none;fill-opacity:1;stroke:#000000;stroke-width:1;stroke-linecap:square;stroke-miterlimit:4;stroke-dasharray:none;stroke-opacity:0.50196078" />
      <rect
         ry="7.5"
         y="268.5"
         x="50.5"
         height="15"
         width="15"
         id="rect1009"
         style="opacity:1;vector-effect:none;fill:none;fill-opacity:1;stroke:#000000;stroke-width:1;stroke-linecap:square;stroke-miterlimit:4;stroke-dasharray:none;stroke-opacity:0.50196078" />
      <rect
         ry="11.477903"
         y="260.5"
         x="90.5"
         height="23"
         width="23"
         id="rect1011"
         style="opacity:1;vector-effect:none;fill:#574f4a;fill-opacity:1;stroke:#000000;stroke-width:1;stroke-linecap:square;stroke-miterlimit:4;stroke-dasharray:none;stroke-opacity:0.50196078" />
      <path
         inkscape:connector-curvature="0"
         id="rect1026"
         d="m 214,238 c -12.188,0 -22,9.812 -22,22 v 2 c 0,12.188 9.812,22 22,22 12.188,0 22,-9.812 22,-22 v -2 c 0,-12.188 -9.812,-22 -22,-22 z m 0,1 a 21,21 0 0 1 21,21 21,21 0 0 1 -21,21 21,21 0 0 1 -21,-21 21,21 0 0 1 21,-21 z"
         style="display:inline;opacity:1;vector-effect:none;fill:#000000;fill-opacity:0.50196078;stroke:none;stroke-width:1;stroke-linecap:square;stroke-miterlimit:4;stroke-dasharray:none;stroke-opacity:0.50196078;enable-background:new" />
      <path
         inkscape:connector-curvature="0"
         id="path10545"
         d="m 100.25,265 -0.1543,1.84375 a 5.5,5.5 0 0 0 -1.607422,0.92969 l -1.675777,-0.78906 -1.75,3.03124 1.52148,1.05665 a 5.5,5.5 0 0 0 -0.084,0.92773 5.5,5.5 0 0 0 0.0801,0.93164 l -1.51758,1.05274 1.75,3.03124 1.671877,-0.7871 a 5.5,5.5 0 0 0 1.611322,0.92382 L 100.25,279 h 3.5 l 0.1543,-1.84375 a 5.5,5.5 0 0 0 1.60742,-0.92969 l 1.67578,0.78906 1.75,-3.03124 -1.52148,-1.05665 a 5.5,5.5 0 0 0 0.084,-0.92773 5.5,5.5 0 0 0 -0.0801,-0.93164 l 1.51758,-1.05274 -1.75,-3.03124 -1.67188,0.7871 a 5.5,5.5 0 0 0 -1.61132,-0.92382 L 103.75,265 Z m 1.75,5 a 2,2 0 0 1 2,2 2,2 0 0 1 -2,2 2,2 0 0 1 -2.000001,-2 A 2,2 0 0 1 102,270 Z"
         style="display:inline;opacity:1;fill:#ffffff;fill-opacity:1;stroke:none;stroke-opacity:1;enable-background:new" />
      <path
         style="display:inline;opacity:1;fill:#ffffff;fill-opacity:1;stroke:none;stroke-opacity:1;enable-background:new"
         d="m 148.25,261.5 -0.1543,1.84375 a 5.5,5.5 0 0 0 -1.60742,0.92969 l -1.67578,-0.78906 -1.75,3.03124 1.52148,1.05665 a 5.5,5.5 0 0 0 -0.084,0.92773 5.5,5.5 0 0 0 0.0801,0.93164 l -1.51758,1.05274 1.75,3.03124 1.67188,-0.7871 a 5.5,5.5 0 0 0 1.61132,0.92382 L 148.25,275.5 h 3.5 l 0.1543,-1.84375 a 5.5,5.5 0 0 0 1.60742,-0.92969 l 1.67578,0.78906 1.75,-3.03124 -1.52148,-1.05665 a 5.5,5.5 0 0 0 0.084,-0.92773 5.5,5.5 0 0 0 -0.0801,-0.93164 l 1.51758,-1.05274 -1.75,-3.03124 -1.67188,0.7871 a 5.5,5.5 0 0 0 -1.61132,-0.92382 L 151.75,261.5 Z m 1.75,5 a 2,2 0 0 1 2,2 2,2 0 0 1 -2,2 2,2 0 0 1 -2,-2 2,2 0 0 1 2,-2 z"
         id="path992"
         inkscape:connector-curvature="0" />
      <path
         inkscape:connector-curvature="0"
         id="path994"
         d="m 211.375,250.5 -0.23145,2.76562 a 8.25,8.25 0 0 0 -2.41113,1.39454 l -2.51367,-1.18359 -2.625,4.54686 2.28222,1.58497 a 8.25,8.25 0 0 0 -0.126,1.3916 8.25,8.25 0 0 0 0.12015,1.39746 l -2.27637,1.57911 2.625,4.54686 2.50782,-1.18065 a 8.25,8.25 0 0 0 2.41698,1.38573 L 211.375,271.5 h 5.25 l 0.23145,-2.76563 a 8.25,8.25 0 0 0 2.41113,-1.39453 l 2.51367,1.18359 2.625,-4.54686 -2.28222,-1.58498 a 8.25,8.25 0 0 0 0.126,-1.39159 8.25,8.25 0 0 0 -0.12015,-1.39746 l 2.27637,-1.57911 -2.625,-4.54686 -2.50782,1.18065 a 8.25,8.25 0 0 0 -2.41698,-1.38573 L 216.625,250.5 Z M 214,258 a 3,3 0 0 1 3,3 3,3 0 0 1 -3,3 3,3 0 0 1 -3,-3 3,3 0 0 1 3,-3 z"
         style="display:inline;opacity:1;fill:#ffffff;fill-opacity:1;stroke:none;stroke-width:1.5;stroke-opacity:1;enable-background:new" />
      <path
         inkscape:connector-curvature="0"
         id="path996"
         d="m 286.5,239 -0.3086,3.6875 a 11,11 0 0 0 -3.21484,1.85938 l -3.35156,-1.57812 -3.5,6.06248 3.04296,2.1133 a 11,11 0 0 0 -0.168,1.85546 11,11 0 0 0 0.1602,1.86328 l -3.03516,2.10548 3.5,6.06248 3.34376,-1.5742 a 11,11 0 0 0 3.22264,1.84764 L 286.5,267 h 7 l 0.3086,-3.6875 a 11,11 0 0 0 3.21484,-1.85938 l 3.35156,1.57812 3.5,-6.06248 -3.04296,-2.1133 a 11,11 0 0 0 0.168,-1.85546 11,11 0 0 0 -0.1602,-1.86328 l 3.03516,-2.10548 -3.5,-6.06248 -3.34376,1.5742 a 11,11 0 0 0 -3.22264,-1.84764 L 293.5,239 Z m 3.5,10 a 4,4 0 0 1 4,4 4,4 0 0 1 -4,4 4,4 0 0 1 -4,-4 4,4 0 0 1 4,-4 z"
         style="display:inline;opacity:1;fill:#ffffff;fill-opacity:1;stroke:none;stroke-width:2;stroke-opacity:1;enable-background:new" />
      <path
         style="display:inline;opacity:1;fill:#ffffff;fill-opacity:1;stroke:none;stroke-width:0.75;stroke-opacity:1;enable-background:new"
         d="m 56.6875,270.75 -0.115726,1.38281 a 4.125,4.125 0 0 0 -1.205566,0.69727 l -1.256833,-0.59179 -1.3125,2.27342 1.14111,0.79249 a 4.125,4.125 0 0 0 -0.063,0.6958 4.125,4.125 0 0 0 0.06007,0.69873 l -1.138185,0.78956 1.3125,2.27342 1.253908,-0.59032 a 4.125,4.125 0 0 0 1.208491,0.69286 L 56.6875,281.25 h 2.625 l 0.115725,-1.38281 a 4.125,4.125 0 0 0 1.205565,-0.69727 l 1.256835,0.59179 1.3125,-2.27342 -1.14111,-0.79249 a 4.125,4.125 0 0 0 0.063,-0.6958 4.125,4.125 0 0 0 -0.06007,-0.69873 l 1.138185,-0.78956 -1.3125,-2.27342 -1.25391,0.59032 a 4.125,4.125 0 0 0 -1.20849,-0.69286 L 59.3125,270.75 Z M 58,274.5 A 1.5,1.5 0 0 1 59.5,276 1.5,1.5 0 0 1 58,277.5 1.5,1.5 0 0 1 56.499999,276 1.5,1.5 0 0 1 58,274.5 Z"
         id="path998"
         inkscape:connector-curvature="0" />
      <path
         style="display:inline;opacity:1;fill:#ffffff;fill-opacity:1;stroke:none;stroke-width:0.5;stroke-opacity:1;enable-background:new"
         d="m 19.125,276.5 -0.0772,0.92187 a 2.75,2.75 0 0 0 -0.80371,0.46485 l -0.837889,-0.39453 -0.875,1.51562 0.76074,0.52832 a 2.75,2.75 0 0 0 -0.042,0.46387 2.75,2.75 0 0 0 0.04005,0.46582 l -0.75879,0.52637 0.875,1.51562 0.835939,-0.39355 a 2.75,2.75 0 0 0 0.80566,0.46191 L 19.125,283.5 h 1.75 l 0.0772,-0.92188 a 2.75,2.75 0 0 0 0.80371,-0.46484 l 0.83789,0.39453 0.875,-1.51562 -0.76074,-0.52833 a 2.75,2.75 0 0 0 0.042,-0.46386 2.75,2.75 0 0 0 -0.0401,-0.46582 l 0.75879,-0.52637 -0.875,-1.51562 -0.83594,0.39355 a 2.75,2.75 0 0 0 -0.80566,-0.46191 L 20.875,276.5 Z M 20,279 a 1,1 0 0 1 1,1 1,1 0 0 1 -1,1 1,1 0 0 1 -1,-1 1,1 0 0 1 1,-1 z"
         id="path1000"
         inkscape:connector-curvature="0" />
    </g>
  </g>
</svg>
