<svg version="1.0" viewBox="0 0 64 64" xmlns="http://www.w3.org/2000/svg"><g transform="translate(-224 -220)"><rect x="237" y="254" width="38" height="5" ry="2" fill="#565656"/><rect x="238" y="255" width="36" height="2" ry=".967" fill="#acacac"/><rect x="247" y="224" width="18" height="44" ry="9" fill="#909090"/><rect x="248" y="227" width="16" height="40" ry="8" fill="#2e2e2e"/><path d="M242 252c-1.108 0-2 .892-2 2v8c0 8.864 7.136 16 16 16s16-7.136 16-16v-8c0-1.108-.892-2-2-2s-2 .892-2 2v5c0 6.648-5.352 12-12 12s-12-5.352-12-12v-5c0-1.108-.892-2-2-2z" fill="#444"/><rect x="254" y="273" width="4" height="9" ry="2" fill="#444"/><path d="M242 253c-.554 0-1 .446-1 1v5a15 15 0 0 0 15 15 15 15 0 0 0 15-15v-5c0-.554-.446-1-1-1s-1 .446-1 1v5a13 13 0 0 1-13 13 13 13 0 0 1-13-13v-5c0-.554-.446-1-1-1z" fill="#888"/><rect x="255" y="272" width="2" height="7" ry="1" fill="#888"/><path d="M242 253c-.554 0-1 .446-1 1v5a15 15 0 0 0 15 15 15 15 0 0 0 15-15v-5c0-.554-.446-1-1-1s-1 .446-1 1v5a13 13 0 0 1-13 13 13 13 0 0 1-13-13v-5c0-.554-.446-1-1-1z" fill="#888"/></g></svg>