<svg version="1.0" viewBox="0 0 64 64" xmlns="http://www.w3.org/2000/svg"><g transform="translate(-224 -220)"><rect x="230" y="226" width="52" height="52" ry="4" fill="#767676"/><rect x="231" y="227" width="50" height="38" ry="3.5" fill="#ececec"/><circle cx="240" cy="271" r="4" fill="#73c48f"/><circle cx="256" cy="271" r="4" fill="#ff793e"/><circle cx="272" cy="271" r="4" fill="#67d8e6"/><g fill="#474341"><path d="m255.995 239-7 8 7 8zm-5 5c0-.554-.446-1-1-1s-1 .446-1 1v6c0 .554.446 1 1 1s1-.446 1-1z"/><path d="m261.995 240-1.713 1.03c.934 1.555 1.713 4.156 1.713 5.97 0 1.815-.779 4.415-1.713 5.97l1.713 1.03c1.122-1.866 2-4.823 2-7 0-2.177-.878-5.134-2-7z"/><path d="m258.745 241.5-1.715 1.03c.655 1.088.965 3.2.965 4.47 0 1.27-.31 3.382-.965 4.47l1.715 1.03c.84-1.4 1.25-3.867 1.25-5.5s-.41-4.1-1.25-5.5z"/></g><rect x="103" y="255" width="26" height="26" ry="2" fill="#767676"/><rect x="104" y="256" width="24" height="19" ry="1.5" fill="#ececec"/><circle cx="108" cy="278" r="2" fill="#73c48f"/><circle cx="116" cy="278" r="2" fill="#ff793e"/><circle cx="124" cy="278" r="2" fill="#67d8e6"/><g fill="#474341"><path d="m116 258-7 8 7 8zm-5 5c0-.554-.446-1-1-1s-1 .446-1 1v6c0 .554.446 1 1 1s1-.446 1-1z"/><path d="m122 259-1.713 1.03c.934 1.555 1.713 4.156 1.713 5.97 0 1.815-.779 4.415-1.713 5.97L122 273c1.122-1.866 2-4.823 2-7 0-2.177-.878-5.134-2-7z"/><path d="m118.75 260.5-1.715 1.03c.655 1.088.965 3.2.965 4.47 0 1.27-.31 3.382-.965 4.47l1.715 1.03c.84-1.4 1.25-3.867 1.25-5.5s-.41-4.1-1.25-5.5z"/></g><rect x="160" y="240" width="39" height="39" ry="3" fill="#767676"/><rect x="161" y="241" width="37" height="28" ry="2.5" fill="#ececec"/><g fill="#474341"><path d="m178.995 247-7 8 7 8zm-5 5c0-.554-.446-1-1-1s-1 .446-1 1v6c0 .554.446 1 1 1s1-.446 1-1z"/><path d="m184.995 248-1.713 1.03c.934 1.555 1.713 4.156 1.713 5.97 0 1.815-.779 4.415-1.713 5.97l1.713 1.03c1.122-1.866 2-4.823 2-7 0-2.177-.878-5.134-2-7z"/><path d="m181.745 249.5-1.715 1.03c.655 1.088.965 3.2.965 4.47 0 1.27-.31 3.382-.965 4.47l1.715 1.03c.84-1.4 1.25-3.867 1.25-5.5s-.41-4.1-1.25-5.5z"/></g><circle cx="167" cy="274" r="3" fill="#73c48f"/><circle cx="180" cy="274" r="3" fill="#ff793e"/><circle cx="192" cy="274" r="3" fill="#67d8e6"/><rect x="57" y="261" width="22" height="22" ry="2" fill="#767676"/><rect x="58" y="262" width="20" height="20" ry="1.5" fill="#ececec"/><g fill="#474341"><path d="m68 264-7 8 7 8zm-5 5c0-.554-.446-1-1-1s-1 .446-1 1v6c0 .554.446 1 1 1s1-.446 1-1z"/><path d="m74 265-1.713 1.03C73.221 267.584 74 270.185 74 272c0 1.815-.779 4.415-1.713 5.97L74 279c1.122-1.866 2-4.823 2-7 0-2.177-.878-5.134-2-7z"/><path d="m70.75 266.5-1.715 1.03c.655 1.088.965 3.2.965 4.47 0 1.27-.31 3.382-.965 4.47l1.715 1.03c.84-1.4 1.25-3.867 1.25-5.5s-.41-4.1-1.25-5.5z"/></g><rect x="16" y="268" width="16" height="16" ry="2" fill="#767676"/><rect x="17" y="269" width="14" height="14" ry="1.5" fill="#ececec"/><g fill="#474341"><path d="m25 270-7 6 7 6zm-5 3c0-.554-.446-1-1-1s-1 .446-1 1v6c0 .554.446 1 1 1s1-.446 1-1z"/><path d="m28.75 270.5-1.715 1.03c.654 1.088.965 3.2.965 4.47 0 1.27-.31 3.382-.965 4.47l1.715 1.03c.84-1.4 1.25-3.867 1.25-5.5s-.41-4.1-1.25-5.5z"/></g><rect x="324" y="168" width="104" height="104" ry="8" fill="#767676"/><rect x="325" y="169" width="102" height="77" ry="7.5" fill="#ececec"/><circle cx="344" cy="258" r="8" fill="#73c48f"/><circle cx="376" cy="258" r="8" fill="#ff793e"/><circle cx="408" cy="258" r="8" fill="#67d8e6"/><g fill="#474341"><path d="m375.99 193.98-14 16 14 16zm-10 10c0-1.108-.892-2-2-2s-2 .892-2 2v12c0 1.108.892 2 2 2s2-.892 2-2z"/><path d="m387.99 195.98-3.426 2.059c1.869 3.11 3.426 8.312 3.426 11.941 0 3.629-1.557 8.83-3.426 11.941l3.426 2.059c2.243-3.732 4-9.645 4-14s-1.757-10.268-4-14z"/><path d="m381.49 198.98-3.43 2.059c1.309 2.177 1.93 6.4 1.93 8.941 0 2.54-.621 6.764-1.93 8.941l3.43 2.059c1.682-2.8 2.5-7.734 2.5-11s-.818-8.2-2.5-11z"/></g><rect x="488" y="52" width="208" height="208" ry="8" fill="#767676"/><rect x="489" y="53" width="206" height="155" ry="7.5" fill="#ececec"/><circle cx="528" cy="232" r="16" fill="#73c48f"/><circle cx="592" cy="232" r="16" fill="#ff793e"/><circle cx="656" cy="232" r="16" fill="#67d8e6"/><g fill="#474341"><path d="m591.98 103.96-28 32 28 32zm-20 20c0-2.216-1.784-4-4-4s-4 1.784-4 4v24c0 2.216 1.784 4 4 4s4-1.784 4-4z"/><path d="m615.98 107.96-6.852 4.117c3.738 6.222 6.853 16.625 6.852 23.883 0 7.258-3.114 17.66-6.852 23.883l6.852 4.117c4.487-7.465 7.998-19.29 8-28-.002-8.71-3.513-20.535-8-28z"/><path d="m602.98 113.96-6.86 4.117c2.618 4.355 3.86 12.802 3.86 17.883 0 5.081-1.242 13.528-3.86 17.883l6.86 4.117c3.364-5.599 5-15.468 5-22s-1.636-16.401-5-22z"/></g></g></svg>