<svg version="1.0" viewBox="0 0 64 64" xmlns="http://www.w3.org/2000/svg"><g transform="translate(-224 -220)"><rect x="230" y="226" width="52" height="52" ry="4" fill="#767676"/><rect x="231" y="227" width="50" height="38" ry="3.5" fill="#ececec"/><circle cx="240" cy="271" r="4" fill="#73c48f"/><circle cx="256" cy="271" r="4" fill="#ff793e"/><circle cx="272" cy="271" r="4" fill="#67d8e6"/><g fill="#474341"><path d="m255.995 239-7 8 7 8zm-5 5c0-.554-.446-1-1-1s-1 .446-1 1v6c0 .554.446 1 1 1s1-.446 1-1z"/><path d="m261.995 240-1.713 1.03c.934 1.555 1.713 4.156 1.713 5.97 0 1.815-.779 4.415-1.713 5.97l1.713 1.03c1.122-1.866 2-4.823 2-7 0-2.177-.878-5.134-2-7z"/><path d="m258.745 241.5-1.715 1.03c.655 1.088.965 3.2.965 4.47 0 1.27-.31 3.382-.965 4.47l1.715 1.03c.84-1.4 1.25-3.867 1.25-5.5s-.41-4.1-1.25-5.5z"/></g></g></svg>