<svg version="1.0" viewBox="0 0 64 64" xmlns="http://www.w3.org/2000/svg"><g transform="translate(-224 -220)"><path d="M256 221a29.937 29.937 0 0 0-15 4h-6.5a4.49 4.49 0 0 0-4.5 4.5v6.5c-2.54 4.409-4 9.526-4 15v2c0 5.474 1.46 10.591 4 15v6a4.49 4.49 0 0 0 4.5 4.5h5.658c4.593 2.851 10.016 4.5 15.842 4.5s11.25-1.649 15.842-4.5h5.658a4.49 4.49 0 0 0 4.5-4.5v-6c2.541-4.409 4-9.526 4-15v-2a29.933 29.933 0 0 0-4-15v-6.5a4.49 4.49 0 0 0-4.5-4.5H271a29.94 29.94 0 0 0-15-4z" fill="#565656"/><path d="M256 222a28.939 28.939 0 0 0-14.734 4H235c-2.216 0-4 1.784-4 4v6.266c-2.54 4.313-4 9.346-4 14.734s1.46 10.42 4 14.734v6.265c0 2.216 1.784 4 4 4h6.266c4.314 2.54 9.347 4 14.734 4s10.421-1.46 14.734-4H277c2.216 0 4-1.784 4-4v-6.265c2.54-4.314 4-9.347 4-14.734s-1.46-10.421-4-14.734V230c0-2.216-1.784-4-4-4h-6.266c-4.314-2.54-9.347-4-14.734-4z" fill="#acacac"/><circle cx="256" cy="251" r="25" fill="#333"/><circle cx="256" cy="251" r="21" fill="#faa41a"/><rect x="247" y="240" width="18" height="20" ry="9" fill="#845914"/><circle cx="256" cy="251" r="8" fill="#333"/><circle cx="277" cy="230" r="1" fill="#565656"/><circle cx="235" cy="230" r="1" fill="#565656"/><circle cx="235" cy="272" r="1" fill="#565656"/><circle cx="277" cy="272" r="1" fill="#565656"/></g></svg>