<svg enable-background="new" version="1.0" viewBox="0 0 64 64" xmlns="http://www.w3.org/2000/svg"><defs><filter id="a" x="0" y="0" width="1" height="1" color-interpolation-filters="sRGB"><feBlend in2="BackgroundImage" mode="darken"/></filter></defs><g transform="translate(-224 -220)"><rect x="230" y="226" width="52" height="52" ry="4" enable-background="new" fill="#767676"/><rect x="231" y="227" width="50" height="38" ry="3.5" enable-background="new" fill="#ececec"/><circle cx="240" cy="271" r="4" fill="#73c48f"/><circle cx="256" cy="271" r="4" fill="#ff793e"/><circle cx="272" cy="271" r="4" fill="#67d8e6"/><g transform="translate(-17 652)" fill="#474341" filter="url(#a)"><path d="M272.07-410.95a.995.995 0 0 0-.57.201l-3.5 2.75h-2c-.554 0-1 .446-1 1v4c0 .554.446 1 1 1h2l3.5 2.75c.5.393 1.5.25 1.5-.75v-10c0-.687-.472-.97-.93-.951z"/><path d="m274-407.38 2-.625c1 2 1 4 0 6l-2-.625c1-2 1-2.75 0-4.75z"/><path d="m277-409.06 2-.938c2 3 2 7 0 10l-2-.937c2-3 2-5.125 0-8.125z"/></g></g></svg>