<svg version="1.0" viewBox="0 0 64 64" xmlns="http://www.w3.org/2000/svg"><g transform="translate(-224 -220)"><path d="M251 221c-.554 0-1 .446-1 1v2h-12c-2.216 0-4 1.784-4 4v48c0 2.216 1.784 4 4 4h36c2.216 0 4-1.784 4-4v-48c0-2.216-1.784-4-4-4h-13v-2c0-.554-.446-1-1-1z" fill="#565656"/><rect x="235" y="228" width="42" height="21" ry="3.5" fill="#7f540d"/><rect x="251" y="222" width="9" height="6" ry="1" fill="#7e7e7e"/><rect x="235" y="225" width="42" height="21" ry="3.5" fill="#faa41a"/><rect x="235" y="250" width="42" height="27" ry="3.5" fill="#7e7e7e"/></g></svg>