<svg version="1.0" viewBox="0 0 64 64" xmlns="http://www.w3.org/2000/svg"><g transform="translate(-224 -220)"><rect x="60" y="260" width="17" height="24" rx="0" ry="8.5" fill="#9099cb"/><rect x="61" y="261" width="15" height="22" rx="0" ry="7.5" fill="#213397"/><path d="m65.5 269.5 6 5-3 3v-11l3 3-6 5" fill="none" stroke="#fff" stroke-linecap="round" stroke-linejoin="round"/><rect x="165" y="238" width="30" height="44" ry="15" fill="#9099cb"/><rect transform="matrix(0 -1 -1 0 0 0)" x="-279" y="-194" width="40" height="28" ry="14" fill="#213397"/><rect x="106" y="253" width="21" height="30" ry="10.5" fill="#9099cb"/><rect transform="matrix(0 -1 -1 0 0 0)" x="-281" y="-126" width="27" height="19" rx="0" ry="9.389" fill="#213397"/><path d="m173.01 253 14 13-7 7v-27l7 7-14 13" fill="none" stroke="#fff" stroke-linecap="round" stroke-linejoin="round" stroke-width="2"/><path d="m112 263.5 9 9-4.5 4.25v-17.5l4.5 4.25-9 8" fill="none" stroke="#fff" stroke-linecap="round" stroke-linejoin="round"/><rect x="17" y="268" width="15" height="16" ry="4.5" fill="#9099cb"/><rect x="18" y="269" width="13" height="14" ry="4" fill="#213397"/><path d="m21.5 273.5 6 5-3 3v-11l3 3-6 5" fill="none" stroke="#fff" stroke-linecap="round" stroke-linejoin="round"/><rect x="235" y="222" width="42" height="60" ry="21" fill="#9099cb"/><rect x="236" y="223" width="40" height="56" ry="20" fill="#213397"/><path d="m247 243.5 18 18-9 8.5v-35l9 8.5-18 16" fill="none" stroke="#fff" stroke-linecap="round" stroke-linejoin="round" stroke-width="2"/><rect x="334" y="160" width="84" height="120" ry="42" fill="#9099cb"/><rect x="335" y="161" width="82" height="115" ry="41" fill="#213397"/><path d="m358.01 202 36 36-18 17v-70l18 17-36 32" fill="none" stroke="#fff" stroke-linecap="round" stroke-linejoin="round" stroke-width="4"/><rect x="508" y="36" width="168" height="240" ry="84" fill="#9099cb"/><rect x="509" y="37" width="166" height="234" ry="82" fill="#213397"/><path d="m556.02 118 72 72-36 34V84l36 34-72 64" fill="none" stroke="#fff" stroke-linecap="round" stroke-linejoin="round" stroke-width="8"/></g></svg>