<svg version="1.0" viewBox="0 0 64 64" xmlns="http://www.w3.org/2000/svg"><g transform="translate(-224 -220)"><rect x="226" y="222" width="60" height="62" ry="30" fill="#e6e6e6"/><g transform="matrix(2 0 0 2 24 -284)"><circle cx="116" cy="268" r="9" fill="#ac1800"/><circle transform="scale(1 -1)" cx="116" cy="-268" r="8" fill="#cf3b00"/><g fill="#fff"><path d="M118.738 265.17a4 4 0 0 0-5.656 0l2.828 2.828z" opacity=".2"/><path d="M118.738 265.17a4 4 0 0 1 0 5.656l-2.828-2.828z" opacity=".4"/><path d="M113.082 270.826a4 4 0 0 1 0-5.656l2.828 2.828z" opacity=".4"/><path d="M113.082 270.826a4 4 0 0 0 5.656 0l-2.828-2.828z" opacity=".6"/></g></g><path d="M256 222c-16.62 0-30 13.38-30 30v2c0 16.62 13.38 30 30 30s30-13.38 30-30v-2c0-16.62-13.38-30-30-30zm0 1c16.066 0 29 12.934 29 29s-12.934 29-29 29-29-12.934-29-29 12.934-29 29-29z" fill-opacity=".502"/></g></svg>