<svg version="1.0" viewBox="0 0 64 64" xmlns="http://www.w3.org/2000/svg"><g transform="translate(-224 -220)"><rect x="228" y="234" width="56" height="44" ry="4.5" fill="#6f6f6f"/><rect x="247" y="226" width="18" height="12.5" ry="4" fill="#6f6f6f"/><rect x="229" y="235" width="54" height="40" ry="4" fill="#424242"/><rect x="248" y="227" width="16" height="11.5" ry="3.5" fill="#acacac"/><rect x="243" y="242" width="26" height="26" ry="13" fill="#dcdcdc"/><rect x="245" y="244" width="22" height="22" ry="10.993" fill="#48b9c7"/><circle cx="256" cy="255" r="8" fill="#fff" fill-opacity=".251"/><path d="M261.66 249.34a8 8 0 0 1 2.07 7.727 8 8 0 0 1-5.656 5.657 8 8 0 0 1-7.728-2.07l5.657-5.657z" fill="#fff" fill-opacity=".251"/><path d="M250.34 249.34a8 8 0 0 0-2.07 7.727 8 8 0 0 0 5.656 5.657 8 8 0 0 0 7.728-2.07l-5.657-5.657z" fill="#fff" fill-opacity=".251"/><rect x="249" y="228" width="14" height="6" ry="3" fill="#ffce51"/><path d="M233 235c-2.216 0-4 1.784-4 4v1h54v-1c0-2.216-1.784-4-4-4zm-4 35v1c0 2.216 1.784 4 4 4h46c2.216 0 4-1.784 4-4v-1z" fill="#ececec"/></g></svg>