<svg version="1.0" viewBox="0 0 64 64" xmlns="http://www.w3.org/2000/svg"><g transform="translate(-224 980)"><rect x="230" y="-966" width="52" height="37" ry="4" fill="#bfbfbf"/><rect x="233" y="-963" width="46" height="29" ry="1" fill="#222"/><path d="M234-966c-2.216 0-4 1.784-4 4v29c0 2.216 1.784 4 4 4h44c2.216 0 4-1.784 4-4v-29c0-2.216-1.784-4-4-4zm0 1h44c1.662 0 3 1.338 3 3v27c0 1.662-1.338 3-3 3h-44c-1.662 0-3-1.338-3-3v-27c0-1.662 1.338-3 3-3z" fill-opacity=".5"/><rect x="228" y="-930" width="56" height="8" ry="2" fill="#bfbfbf"/><path d="M230-930c-1.108 0-2 .892-2 2v4c0 1.108.892 2 2 2h52c1.108 0 2-.892 2-2v-4c0-1.108-.892-2-2-2zm0 1h52c.554 0 1 .446 1 1v2c0 .554-.446 1-1 1h-52c-.554 0-1-.446-1-1v-2c0-.554.446-1 1-1z" fill-opacity=".5"/></g></svg>