<svg version="1.0" viewBox="0 0 64 64" xmlns="http://www.w3.org/2000/svg"><g transform="translate(-224 220)"><rect x="233" y="-217" width="46" height="60" ry="4.5" fill="#565656"/><rect x="234" y="-216" width="44" height="56" ry="4" fill="#acacac"/></g><g fill="#444"><path d="M32 20a6 6 0 0 0-6 6 6 6 0 0 0 6 6 6 6 0 0 0 6-6 6 6 0 0 0-6-6zm0 2a4 4 0 0 1 4 4 4 4 0 0 1-4 4 4 4 0 0 1-4-4 4 4 0 0 1 4-4z"/><path d="M28 36h8v2h-8z"/><path d="M28 40h8v2h-8z"/><path d="m42 12.352 5.657 5.657L42 23.666l-5.657-5.657z"/><path d="m27.947 16.292-5.657 5.657-1.414-1.415 5.657-5.657z"/><path d="m25.119 13.463-5.657 5.657-1.414-1.414 5.656-5.657z"/></g></svg>