<svg version="1.0" viewBox="0 0 64 64" xmlns="http://www.w3.org/2000/svg"><g transform="translate(-224 -220)"><rect x="228" y="234" width="14" height="47" ry="6.5" fill="#4f4b49"/><rect x="270" y="235" width="14" height="46" ry="7" fill="#4f4b49"/><rect x="228" y="234" width="56" height="31" ry="6.5" fill="#4f4b49"/><rect x="229" y="235" width="12" height="43" ry="5.5" fill="#9f9792"/><rect x="271" y="235" width="12" height="43" ry="6" fill="#9f9792"/><rect x="229" y="235" width="54" height="27" ry="6" fill="#9f9792"/><rect x="250" y="245" width="9" height="6" ry="2.5" fill="#4f4b49"/><rect x="235" y="239" width="6" height="17" ry="0" fill="#4f4b49"/><path fill="#4f4b49" d="M230 244h16v7h-16z"/><g transform="matrix(1.5 0 0 1.5 .5 -136)" fill="#fff"><rect x="157" y="250.67" width="2.667" height="9.333" ry="0"/><rect transform="rotate(90)" x="254" y="-163" width="2.667" height="9.333" ry="0"/></g><g transform="translate(-3)"><rect x="267" y="245" width="5" height="6" ry="2.5" fill="#4a537f"/><circle cx="269.5" cy="247.5" r="1.5" fill="#94a6ff"/><rect x="279" y="245" width="5" height="6" ry="2.5" fill="#7f3c1f"/><circle cx="281.5" cy="247.5" r="1.5" fill="#ff793e"/><rect x="273" y="239" width="5" height="6" ry="2.5" fill="#7f6728"/><circle transform="rotate(90)" cx="241.5" cy="-275.5" r="1.5" fill="#ffce51"/><rect x="273" y="251" width="5" height="6" ry="2.5" fill="#396247"/><circle transform="rotate(90)" cx="253.5" cy="-275.5" r="1.5" fill="#73c48f"/></g><rect x="251" y="246" width="7" height="3" ry="1.5" fill="#fff"/></g></svg>