<svg version="1.0" viewBox="0 0 64 64" xmlns="http://www.w3.org/2000/svg"><g transform="translate(-224 -220)"><rect x="228" y="234" width="56" height="44" ry="4" fill="#7b736e"/><path d="M232 234c-2.216 0-4 1.784-4 4v36c0 2.216 1.784 4 4 4h48c2.216 0 4-1.784 4-4v-36c0-2.216-1.784-4-4-4zm0 1h48c1.662 0 3 1.338 3 3v34c0 1.662-1.338 3-3 3h-48c-1.662 0-3-1.338-3-3v-34c0-1.662 1.338-3 3-3z" fill-opacity=".5"/><rect x="233" y="241" width="6" height="6" ry="1.5" fill-opacity=".5"/><rect x="273" y="241" width="6" height="6" ry="1.5" fill-opacity=".5"/><rect x="233" y="240" width="6" height="6" ry="1.5" fill="#ededed"/><rect x="249" y="241" width="6" height="6" ry="1.5" fill-opacity=".5"/><rect x="273" y="240" width="6" height="6" ry="1.5" fill="#ededed"/><rect x="241" y="241" width="6" height="6" ry="1.5" fill-opacity=".5"/><rect x="249" y="240" width="6" height="6" ry="1.5" fill="#ededed"/><rect x="265" y="241" width="6" height="6" ry="1.5" fill-opacity=".5"/><rect x="241" y="240" width="6" height="6" ry="1.5" fill="#ededed"/><rect x="257" y="241" width="6" height="6" ry="1.5" fill-opacity=".5"/><rect x="265" y="240" width="6" height="6" ry="1.5" fill="#ededed"/><rect x="233" y="249" width="6" height="6" ry="1.5" fill-opacity=".5"/><rect x="257" y="240" width="6" height="6" ry="1.5" fill="#ededed"/><rect x="273" y="249" width="6" height="6" ry="1.5" fill-opacity=".5"/><rect x="233" y="248" width="6" height="6" ry="1.5" fill="#ededed"/><rect x="249" y="249" width="6" height="6" ry="1.5" fill-opacity=".5"/><rect x="273" y="248" width="6" height="6" ry="1.5" fill="#ededed"/><rect x="241" y="249" width="6" height="6" ry="1.5" fill-opacity=".5"/><rect x="249" y="248" width="6" height="6" ry="1.5" fill="#ededed"/><rect x="265" y="249" width="6" height="6" ry="1.5" fill-opacity=".5"/><rect x="241" y="248" width="6" height="6" ry="1.5" fill="#ededed"/><rect x="257" y="249" width="6" height="6" ry="1.5" fill-opacity=".5"/><rect x="265" y="248" width="6" height="6" ry="1.5" fill="#ededed"/><rect x="233" y="257" width="6" height="6" ry="1.5" fill-opacity=".5"/><rect x="257" y="248" width="6" height="6" ry="1.5" fill="#ededed"/><rect x="273" y="257" width="6" height="6" ry="1.5" fill-opacity=".5"/><rect x="233" y="256" width="6" height="6" ry="1.5" fill="#ededed"/><rect x="249" y="257" width="6" height="6" ry="1.5" fill-opacity=".5"/><rect x="273" y="256" width="6" height="6" ry="1.5" fill="#ededed"/><rect x="241" y="257" width="6" height="6" ry="1.5" fill-opacity=".5"/><rect x="249" y="256" width="6" height="6" ry="1.5" fill="#ededed"/><rect x="265" y="257" width="6" height="6" ry="1.5" fill-opacity=".5"/><rect x="241" y="256" width="6" height="6" ry="1.5" fill="#ededed"/><rect x="257" y="257" width="6" height="6" ry="1.5" fill-opacity=".5"/><rect x="265" y="256" width="6" height="6" ry="1.5" fill="#ededed"/><rect x="242" y="265" width="28" height="6" ry="1.5" fill-opacity=".5"/><rect x="257" y="256" width="6" height="6" ry="1.5" fill="#ededed"/><rect x="242" y="264" width="28" height="6" ry="1.5" fill="#ededed"/></g></svg>