<svg version="1.0" viewBox="0 0 64 64" xmlns="http://www.w3.org/2000/svg"><g transform="translate(-224 -220)"><rect x="239" y="222" width="34" height="60" ry="17" fill="#98989d"/><path d="M256 222c-9.418 0-17 7.582-17 17v26c0 9.418 7.582 17 17 17s17-7.582 17-17v-26c0-9.418-7.582-17-17-17zm0 1c8.864 0 16 7.136 16 16v23c0 8.864-7.136 16-16 16s-16-7.136-16-16v-23c0-8.864 7.136-16 16-16z" fill-opacity=".5"/><path d="M256 222v60c9.418 0 17-7.582 17-17v-26c0-9.418-7.582-17-17-17z" fill="#fff" fill-opacity=".2"/><rect x="253" y="228" width="6" height="18" ry="3" fill="#fff" fill-opacity=".4"/><rect x="254" y="230" width="4" height="15" ry="2" fill="#343434"/></g></svg>