<svg version="1.0" viewBox="0 0 64 64" xmlns="http://www.w3.org/2000/svg"><g transform="translate(-224 -220)"><rect x="228" y="234" width="56" height="44" ry="4" fill="#aaa"/><path d="M228 262v12c0 2.216 1.784 4 4 4h48c2.216 0 4-1.784 4-4v-12h-52z" fill="#dedede"/><path d="M256 262v16" fill="none" opacity=".5" stroke="#000" stroke-width="2"/><path d="M232 234c-2.216 0-4 1.784-4 4v36c0 2.216 1.784 4 4 4h48c2.216 0 4-1.784 4-4v-36c0-2.216-1.784-4-4-4zm0 1h48c1.662 0 3 1.338 3 3v34c0 1.662-1.338 3-3 3h-48c-1.662 0-3-1.338-3-3v-34c0-1.662 1.338-3 3-3z" fill-opacity=".502"/></g></svg>