<svg version="1.0" viewBox="0 0 64 64" xmlns="http://www.w3.org/2000/svg"><g transform="translate(-224 -220)"><rect x="234" y="224" width="44" height="56" ry="4" fill="#98989d"/><path d="M238 224c-2.216 0-4 1.784-4 4v6h44v-6c0-2.216-1.784-4-4-4z" fill="#bcbcc0"/><path d="M238 224c-2.216 0-4 1.784-4 4v48c0 2.216 1.784 4 4 4h36c2.216 0 4-1.784 4-4v-48c0-2.216-1.784-4-4-4zm0 1h36c1.662 0 3 1.338 3 3v46c0 1.662-1.338 3-3 3h-36c-1.662 0-3-1.338-3-3v-46c0-1.662 1.338-3 3-3z" fill-opacity=".5"/><circle cx="239.5" cy="229.5" r="2.5" fill="#ffca40"/><path d="M243.5 244.5c16.271-12.605 24.548 7.463 12 9-15.329 1.878-9.5 20-1 12s16 4 16 4" fill="none" stroke="#000" stroke-width="4"/></g></svg>