<svg version="1.0" viewBox="0 0 64 64" xmlns="http://www.w3.org/2000/svg"><path d="M10 6c-2.216 0-4 1.784-4 4v40l8 8h44V10c0-2.216-1.784-4-4-4z" fill="#4d4d4d"/><path d="M17 38v20h28V38zm8 2h8v15h-8z" fill="#ececec"/><path d="M12 6v24c0 4 4 4 4 4h32s4 0 4-4V6z" fill="#333"/><path opacity=".2" d="M45 38h7v17h-7z"/><path opacity=".2" d="M25 40h8v15h-8z"/><path fill-opacity=".502" d="M17 55h28v3H17z"/><path d="M10 6c-2.216 0-4 1.784-4 4v40l8 8h44V10c0-2.216-1.784-4-4-4zm0 1h44c1.662 0 3 1.338 3 3v45H15l-8-8V10c0-1.662 1.338-3 3-3z" fill="#fff" fill-opacity=".502"/></svg>