<svg version="1.0" viewBox="0 0 64 64" xmlns="http://www.w3.org/2000/svg"><g transform="translate(-224 -220)"><rect x="226" y="222" width="60" height="62" ry="30" fill="#cdcdcd"/><path d="M256 222c-16.62 0-30 13.38-30 30v2c0 16.62 13.38 30 30 30s30-13.38 30-30v-2c0-16.62-13.38-30-30-30zm0 1a29 29 0 0 1 29 29 29 29 0 0 1-29 29 29 29 0 0 1-29-29 29 29 0 0 1 29-29z" fill-opacity=".5"/><circle cx="256" cy="252" r="10.5" fill="none" stroke="#000" stroke-linecap="square" stroke-opacity=".5"/><circle cx="256" cy="252" r="10" fill-opacity=".2"/><circle cx="256" cy="252" r="4" fill-opacity=".8"/></g></svg>