<svg version="1.0" viewBox="0 0 64 64" xmlns="http://www.w3.org/2000/svg"><g transform="translate(-224 -220)"><rect x="234" y="224" width="44" height="56" ry="4" fill="#545454"/><path d="M238 224c-2.216 0-4 1.784-4 4v48c0 2.216 1.784 4 4 4h36c2.216 0 4-1.784 4-4v-48c0-2.216-1.784-4-4-4zm0 1h36c1.662 0 3 1.338 3 3v46c0 1.662-1.338 3-3 3h-36c-1.662 0-3-1.338-3-3v-46c0-1.662 1.338-3 3-3z" fill="#fff" fill-opacity=".5"/><rect x="239" y="229" width="34" height="23" ry="1" fill="#222"/><rect x="243" y="254" width="8" height="9" ry="4" fill="#222"/><path d="M247 254c-2.216 0-4 1.784-4 4v1c0 2.216 1.784 4 4 4s4-1.784 4-4v-1c0-2.216-1.784-4-4-4zm0 2c1.662 0 3 1.338 3 3s-1.338 3-3 3-3-1.338-3-3 1.338-3 3-3z" fill="#fff" fill-opacity=".502"/><rect x="261" y="254" width="8" height="9" ry="4" fill="#222"/><path d="M265 254c-2.216 0-4 1.784-4 4v1c0 2.216 1.784 4 4 4s4-1.784 4-4v-1c0-2.216-1.784-4-4-4zm0 2c1.662 0 3 1.338 3 3s-1.338 3-3 3-3-1.338-3-3 1.338-3 3-3z" fill="#fff" fill-opacity=".502"/><rect x="261" y="266" width="8" height="9" ry="4" fill="#222"/><path d="M265 266c-2.216 0-4 1.784-4 4v1c0 2.216 1.784 4 4 4s4-1.784 4-4v-1c0-2.216-1.784-4-4-4zm0 2c1.662 0 3 1.338 3 3s-1.338 3-3 3-3-1.338-3-3 1.338-3 3-3z" fill="#fff" fill-opacity=".502"/><rect x="243" y="266" width="8" height="9" ry="4" fill="#222"/><path d="M247 266c-2.216 0-4 1.784-4 4v1c0 2.216 1.784 4 4 4s4-1.784 4-4v-1c0-2.216-1.784-4-4-4zm0 2c1.662 0 3 1.338 3 3s-1.338 3-3 3-3-1.338-3-3 1.338-3 3-3z" fill="#fff" fill-opacity=".502"/><path d="M252.03 235.18a1 1 0 0 0-.996.941h-.002v.026l-.002.033c0 .023 0 .047.002.07l-.002 8.576a1 1 0 0 0 1 1 1 1 0 0 0 .422-.095l.002.002.025-.014.004-.002a1 1 0 0 0 .088-.049l7.846-4.271.01-.004v-.002a1 1 0 0 0 .033-1.752l-.018-.01-.004-.002-7.923-4.322h-.002a1.01 1.01 0 0 0-.483-.125z" fill="#ededed" fill-opacity=".8"/></g></svg>