<svg version="1.0" viewBox="0 0 64 64" xmlns="http://www.w3.org/2000/svg"><g transform="translate(-224 680)"><rect x="254" y="-655" width="32" height="12" ry="2" fill="#479863"/><rect x="268" y="-655" width="12" height="22" ry="6" fill="#479863"/><rect x="226" y="-667" width="36" height="38" ry="18" fill="#479863"/><circle cx="244" cy="-649" r="8" fill="#a2f3be"/><path d="M244-667c-9.972 0-18 8.028-18 18v2c0 9.972 8.028 18 18 18a17.947 17.947 0 0 0 17.541-14H268v4c0 3.324 2.676 6 6 6s6-2.676 6-6v-4h4c1.108 0 2-.892 2-2v-8c0-1.108-.892-2-2-2h-23.039c-2.463-7-9.098-12-16.961-12zm0 1a16.96 16.96 0 0 1 16.256 12H284c.554 0 1 .446 1 1v6c0 .554-.446 1-1 1h-5v5c0 2.77-2.23 5-5 5s-5-2.23-5-5v-5h-8.277A16.95 16.95 0 0 1 244-632c-9.418 0-17-7.582-17-17s7.582-17 17-17z" fill-opacity=".502"/></g></svg>