<svg version="1.0" viewBox="0 0 64 64" xmlns="http://www.w3.org/2000/svg"><g stroke-linecap="square" stroke-width="2" transform="translate(-224 -220)"><rect x="230" y="262" width="52" height="16" ry="4" fill="#444"/><rect transform="rotate(45)" x="357.56" y="14.86" width="4" height="12" ry="2"/><rect transform="rotate(45)" x="363.75" y="8.672" width="4" height="12" ry="2"/><rect transform="rotate(45)" x="369.94" y="2.485" width="4" height="12" ry="2"/><path d="M234 262c-2.216 0-4 1.784-4 4v8c0 2.216 1.784 4 4 4h44c2.216 0 4-1.784 4-4v-8c0-2.216-1.784-4-4-4zm0 1h44c1.662 0 3 1.338 3 3v7c0 1.662-1.338 3-3 3h-44c-1.662 0-3-1.338-3-3v-7c0-1.662 1.338-3 3-3z" fill="#fff" fill-opacity=".5"/><circle cx="268" cy="270" r="2" fill="#73c48f"/><circle cx="273" cy="270" r="2" fill="#f15d22"/><circle cx="278" cy="270" r="2" fill="#faa41a"/><g transform="translate(0 -16)"><rect x="230" y="262" width="52" height="16" ry="4" fill="#444"/><rect transform="rotate(45)" x="357.56" y="14.86" width="4" height="12" ry="2"/><rect transform="rotate(45)" x="363.75" y="8.672" width="4" height="12" ry="2"/><rect transform="rotate(45)" x="369.94" y="2.485" width="4" height="12" ry="2"/><path d="M234 262c-2.216 0-4 1.784-4 4v8c0 2.216 1.784 4 4 4h44c2.216 0 4-1.784 4-4v-8c0-2.216-1.784-4-4-4zm0 1h44c1.662 0 3 1.338 3 3v7c0 1.662-1.338 3-3 3h-44c-1.662 0-3-1.338-3-3v-7c0-1.662 1.338-3 3-3z" fill="#fff" fill-opacity=".5"/><circle cx="268" cy="270" r="2" fill="#73c48f"/><circle cx="273" cy="270" r="2" fill="#f15d22"/><circle cx="278" cy="270" r="2" fill="#faa41a"/></g><g transform="translate(0 -32)"><rect x="230" y="262" width="52" height="16" ry="4" fill="#444"/><rect transform="rotate(45)" x="357.56" y="14.86" width="4" height="12" ry="2"/><rect transform="rotate(45)" x="363.75" y="8.672" width="4" height="12" ry="2"/><rect transform="rotate(45)" x="369.94" y="2.485" width="4" height="12" ry="2"/><path d="M234 262c-2.216 0-4 1.784-4 4v8c0 2.216 1.784 4 4 4h44c2.216 0 4-1.784 4-4v-8c0-2.216-1.784-4-4-4zm0 1h44c1.662 0 3 1.338 3 3v7c0 1.662-1.338 3-3 3h-44c-1.662 0-3-1.338-3-3v-7c0-1.662 1.338-3 3-3z" fill="#fff" fill-opacity=".5"/><circle cx="268" cy="270" r="2" fill="#73c48f"/><circle cx="273" cy="270" r="2" fill="#f15d22"/><circle cx="278" cy="270" r="2" fill="#faa41a"/></g></g></svg>