<svg version="1.0" viewBox="0 0 64 64" xmlns="http://www.w3.org/2000/svg"><path d="M8 12c-2.216 0-4 1.784-4 4v36c0 2.216 1.784 4 4 4h8l4 4h24l4-4h8c2.216 0 4-1.784 4-4V16c0-2.216-1.784-4-4-4z" fill="#dedede"/><path d="M8 12c-2.216 0-4 1.784-4 4v36c0 2.216 1.784 4 4 4h8l4 4h24l4-4h8c2.216 0 4-1.784 4-4V16c0-2.216-1.784-4-4-4zm0 1h48c1.662 0 3 1.338 3 3v34c0 1.662-1.338 3-3 3h-8l-4 4H20l-4-4H8c-1.662 0-3-1.338-3-3V16c0-1.662 1.338-3 3-3z" fill-opacity=".5"/><path d="M9 17v32h8l4 4h22l4-4h8V17z" fill="#4d4d4d"/><g fill="#d1a023"><path d="M33 17h3v10h-3z"/><path d="M28 17h3v10h-3z"/><path d="M38 17h3v10h-3z"/><path d="M43 17h3v10h-3z"/><path d="M23 17h3v10h-3z"/><path d="M18 17h3v10h-3z"/><path d="M48 17h3v10h-3z"/><path d="M13 17h3v10h-3z"/></g></svg>