<svg version="1.0" viewBox="0 0 64 64" xmlns="http://www.w3.org/2000/svg"><g transform="translate(-224 1580)"><rect x="230" y="-1574" width="52" height="52" ry="4" fill="#cf3b00"/><path d="M234-1574c-2.216 0-4 1.784-4 4v44c0 2.216 1.784 4 4 4h44c2.216 0 4-1.784 4-4v-44c0-2.216-1.784-4-4-4zm0 1h44c1.662 0 3 1.338 3 3v42c0 1.662-1.338 3-3 3h-44c-1.662 0-3-1.338-3-3v-42c0-1.662 1.338-3 3-3z" fill-opacity=".502"/><path d="M234-1573c-.748 0-1.421.281-1.945.73-.025.087-.055.174-.055.27v6c0 .554.446 1 1 1h10c.554 0 1-.446 1-1v-6c0-.554-.446-1-1-1zm0 2h8c.554 0 1 .446 1 1v3c0 .554-.446 1-1 1h-8c-.554 0-1-.446-1-1v-3c0-.554.446-1 1-1z" fill="#fff" fill-opacity=".5"/><path d="M245-1573c-.554 0-1 .446-1 1v6c0 .554.446 1 1 1h10c.554 0 1-.446 1-1v-6c0-.554-.446-1-1-1zm1 2h8c.554 0 1 .446 1 1v3c0 .554-.446 1-1 1h-8c-.554 0-1-.446-1-1v-3c0-.554.446-1 1-1z" fill="#fff" fill-opacity=".5"/><path d="M257-1573c-.554 0-1 .446-1 1v6c0 .554.446 1 1 1h10c.554 0 1-.446 1-1v-6c0-.554-.446-1-1-1zm1 2h8c.554 0 1 .446 1 1v3c0 .554-.446 1-1 1h-8c-.554 0-1-.446-1-1v-3c0-.554.446-1 1-1z" fill="#fff" fill-opacity=".5"/><path d="M269-1573c-.554 0-1 .446-1 1v6c0 .554.446 1 1 1h10c.554 0 1-.446 1-1v-6c0-.096-.03-.182-.055-.27A2.976 2.976 0 0 0 278-1573zm1 2h8c.554 0 1 .446 1 1v3c0 .554-.446 1-1 1h-8c-.554 0-1-.446-1-1v-3c0-.554.446-1 1-1z" fill="#fff" fill-opacity=".5"/><path d="M239-1565c-.554 0-1 .446-1 1v6c0 .554.446 1 1 1h10c.554 0 1-.446 1-1v-6c0-.554-.446-1-1-1zm1 2h8c.554 0 1 .446 1 1v3c0 .554-.446 1-1 1h-8c-.554 0-1-.446-1-1v-3c0-.554.446-1 1-1z" fill="#fff" fill-opacity=".5"/><path d="M251-1565c-.554 0-1 .446-1 1v6c0 .554.446 1 1 1h10c.554 0 1-.446 1-1v-6c0-.554-.446-1-1-1zm1 2h8c.554 0 1 .446 1 1v3c0 .554-.446 1-1 1h-8c-.554 0-1-.446-1-1v-3c0-.554.446-1 1-1z" fill="#fff" fill-opacity=".5"/><path d="M263-1565c-.554 0-1 .446-1 1v6c0 .554.446 1 1 1h10c.554 0 1-.446 1-1v-6c0-.554-.446-1-1-1zm1 2h8c.554 0 1 .446 1 1v3c0 .554-.446 1-1 1h-8c-.554 0-1-.446-1-1v-3c0-.554.446-1 1-1z" fill="#fff" fill-opacity=".5"/><g fill="#fff" fill-opacity=".5"><path d="M233-1557c-.554 0-1 .446-1 1v6c0 .554.446 1 1 1h10c.554 0 1-.446 1-1v-6c0-.554-.446-1-1-1zm1 2h8c.554 0 1 .446 1 1v3c0 .554-.446 1-1 1h-8c-.554 0-1-.446-1-1v-3c0-.554.446-1 1-1z"/><path d="M245-1557c-.554 0-1 .446-1 1v6c0 .554.446 1 1 1h10c.554 0 1-.446 1-1v-6c0-.554-.446-1-1-1zm1 2h8c.554 0 1 .446 1 1v3c0 .554-.446 1-1 1h-8c-.554 0-1-.446-1-1v-3c0-.554.446-1 1-1z"/><path d="M257-1557c-.554 0-1 .446-1 1v6c0 .554.446 1 1 1h10c.554 0 1-.446 1-1v-6c0-.554-.446-1-1-1zm1 2h8c.554 0 1 .446 1 1v3c0 .554-.446 1-1 1h-8c-.554 0-1-.446-1-1v-3c0-.554.446-1 1-1z"/><path d="M269-1557c-.554 0-1 .446-1 1v6c0 .554.446 1 1 1h10c.554 0 1-.446 1-1v-6c0-.554-.446-1-1-1zm1 2h8c.554 0 1 .446 1 1v3c0 .554-.446 1-1 1h-8c-.554 0-1-.446-1-1v-3c0-.554.446-1 1-1z"/><path d="M239-1549c-.554 0-1 .446-1 1v6c0 .554.446 1 1 1h10c.554 0 1-.446 1-1v-6c0-.554-.446-1-1-1zm1 2h8c.554 0 1 .446 1 1v3c0 .554-.446 1-1 1h-8c-.554 0-1-.446-1-1v-3c0-.554.446-1 1-1z"/><path d="M251-1549c-.554 0-1 .446-1 1v6c0 .554.446 1 1 1h10c.554 0 1-.446 1-1v-6c0-.554-.446-1-1-1zm1 2h8c.554 0 1 .446 1 1v3c0 .554-.446 1-1 1h-8c-.554 0-1-.446-1-1v-3c0-.554.446-1 1-1z"/><path d="M263-1549c-.554 0-1 .446-1 1v6c0 .554.446 1 1 1h10c.554 0 1-.446 1-1v-6c0-.554-.446-1-1-1zm1 2h8c.554 0 1 .446 1 1v3c0 .554-.446 1-1 1h-8c-.554 0-1-.446-1-1v-3c0-.554.446-1 1-1z"/></g><g fill="#fff" fill-opacity=".5"><path d="M233-1541c-.554 0-1 .446-1 1v6c0 .554.446 1 1 1h10c.554 0 1-.446 1-1v-6c0-.554-.446-1-1-1zm1 2h8c.554 0 1 .446 1 1v3c0 .554-.446 1-1 1h-8c-.554 0-1-.446-1-1v-3c0-.554.446-1 1-1z"/><path d="M245-1541c-.554 0-1 .446-1 1v6c0 .554.446 1 1 1h10c.554 0 1-.446 1-1v-6c0-.554-.446-1-1-1zm1 2h8c.554 0 1 .446 1 1v3c0 .554-.446 1-1 1h-8c-.554 0-1-.446-1-1v-3c0-.554.446-1 1-1z"/><path d="M257-1541c-.554 0-1 .446-1 1v6c0 .554.446 1 1 1h10c.554 0 1-.446 1-1v-6c0-.554-.446-1-1-1zm1 2h8c.554 0 1 .446 1 1v3c0 .554-.446 1-1 1h-8c-.554 0-1-.446-1-1v-3c0-.554.446-1 1-1z"/><path d="M269-1541c-.554 0-1 .446-1 1v6c0 .554.446 1 1 1h10c.554 0 1-.446 1-1v-6c0-.554-.446-1-1-1zm1 2h8c.554 0 1 .446 1 1v3c0 .554-.446 1-1 1h-8c-.554 0-1-.446-1-1v-3c0-.554.446-1 1-1z"/><path d="M239-1533c-.554 0-1 .446-1 1v6c0 .554.446 1 1 1h10c.554 0 1-.446 1-1v-6c0-.554-.446-1-1-1zm1 2h8c.554 0 1 .446 1 1v3c0 .554-.446 1-1 1h-8c-.554 0-1-.446-1-1v-3c0-.554.446-1 1-1z"/><path d="M251-1533c-.554 0-1 .446-1 1v6c0 .554.446 1 1 1h10c.554 0 1-.446 1-1v-6c0-.554-.446-1-1-1zm1 2h8c.554 0 1 .446 1 1v3c0 .554-.446 1-1 1h-8c-.554 0-1-.446-1-1v-3c0-.554.446-1 1-1z"/><path d="M263-1533c-.554 0-1 .446-1 1v6c0 .554.446 1 1 1h10c.554 0 1-.446 1-1v-6c0-.554-.446-1-1-1zm1 2h8c.554 0 1 .446 1 1v3c0 .554-.446 1-1 1h-8c-.554 0-1-.446-1-1v-3c0-.554.446-1 1-1z"/></g><path d="M275-1565c-.554 0-1 .446-1 1v6c0 .554.446 1 1 1h5c.554 0 1-.446 1-1v-6c0-.554-.446-1-1-1zm1 2h3c.554 0 1 .446 1 1v3c0 .554-.446 1-1 1h-3c-.554 0-1-.446-1-1v-3c0-.554.446-1 1-1z" fill="#fff" fill-opacity=".5"/><path d="M232-1565c-.554 0-1 .446-1 1v6c0 .554.446 1 1 1h5c.554 0 1-.446 1-1v-6c0-.554-.446-1-1-1zm1 2h3c.554 0 1 .446 1 1v3c0 .554-.446 1-1 1h-3c-.554 0-1-.446-1-1v-3c0-.554.446-1 1-1z" fill="#fff" fill-opacity=".5"/><path d="M232-1549c-.554 0-1 .446-1 1v6c0 .554.446 1 1 1h5c.554 0 1-.446 1-1v-6c0-.554-.446-1-1-1zm1 2h3c.554 0 1 .446 1 1v3c0 .554-.446 1-1 1h-3c-.554 0-1-.446-1-1v-3c0-.554.446-1 1-1z" fill="#fff" fill-opacity=".5"/><path d="M275-1549c-.554 0-1 .446-1 1v6c0 .554.446 1 1 1h5c.554 0 1-.446 1-1v-6c0-.554-.446-1-1-1zm1 2h3c.554 0 1 .446 1 1v3c0 .554-.446 1-1 1h-3c-.554 0-1-.446-1-1v-3c0-.554.446-1 1-1z" fill="#fff" fill-opacity=".5"/><path d="M275-1533c-.554 0-1 .446-1 1v6c0 .554.446 1 1 1h3c1.662 0 3-1.338 3-3v-4c0-.554-.446-1-1-1zm1 2h3c.554 0 1 .446 1 1v3c0 .554-.446 1-1 1h-3c-.554 0-1-.446-1-1v-3c0-.554.446-1 1-1z" fill="#fff" fill-opacity=".5"/><path d="M232-1533c-.554 0-1 .446-1 1v4c0 1.662 1.338 3 3 3h3c.554 0 1-.446 1-1v-6c0-.554-.446-1-1-1zm1 2h3c.554 0 1 .446 1 1v3c0 .554-.446 1-1 1h-3c-.554 0-1-.446-1-1v-3c0-.554.446-1 1-1z" fill="#fff" fill-opacity=".5"/></g></svg>