<svg version="1.0" viewBox="0 0 64 64" xmlns="http://www.w3.org/2000/svg"><g transform="translate(-224 -220)"><rect x="234" y="224" width="44" height="56" ry="4" fill="#545454"/><rect x="240" y="230" width="32" height="42" ry="0" fill="#222"/><path d="M259.5 241c-.831 0-1.5.669-1.5 1.5v3.5l2.282 2.282a10.5 10.5 0 0 1-5.991 6.009L252 252h-3.5c-.831 0-1.5.669-1.5 1.5v4c0 .831.669 1.5 1.5 1.5h2c8.284 0 14.5-6.216 14.5-14.5v-2c0-.831-.669-1.5-1.5-1.5z" fill="#ededed" fill-opacity=".8" filter="url(#filter7554)"/><path d="M238 224c-2.216 0-4 1.784-4 4v48c0 2.216 1.784 4 4 4h36c2.216 0 4-1.784 4-4v-48c0-2.216-1.784-4-4-4zm0 1h36c1.662 0 3 1.338 3 3v46c0 1.662-1.338 3-3 3h-36c-1.662 0-3-1.338-3-3v-46c0-1.662 1.338-3 3-3z" fill="#fff" fill-opacity=".502"/></g></svg>