<svg version="1.0" viewBox="0 0 64 64" xmlns="http://www.w3.org/2000/svg"><g stroke-linecap="square" transform="translate(-224 -220)"><rect x="238" y="224" width="36" height="14" ry="2" fill="#dedede"/><path d="M240 224c-1.108 0-2 .892-2 2v16a1.99 1.99 0 0 0 1 1.725V226c0-.554.446-1 1-1h32c.554 0 1 .446 1 1v17.725a1.99 1.99 0 0 0 1-1.725v-16c0-1.108-.892-2-2-2z" fill="#010101" fill-opacity=".5"/><rect x="230" y="238" width="52" height="26" ry="4" fill="#474341"/><path d="M234 238c-2.216 0-4 1.784-4 4v18c0 2.216 1.784 4 4 4h44c2.216 0 4-1.784 4-4v-18c0-2.216-1.784-4-4-4zm0 1h44c1.662 0 3 1.338 3 3v16c0 1.662-1.338 3-3 3h-44c-1.662 0-3-1.338-3-3v-16c0-1.662 1.338-3 3-3z" fill="#fff" fill-opacity=".5"/><rect x="238" y="252" width="36" height="28" ry="2" fill="#dedede"/><circle cx="237" cy="245" r="2" fill="#73c48f"/><path d="M239 252.28a1.99 1.99 0 0 0-1 1.725v24c0 1.108.892 2 2 2h32c1.108 0 2-.892 2-2v-24a1.99 1.99 0 0 0-1-1.725v23.725c0 .554-.446 1-1 1h-32c-.554 0-1-.446-1-1z" fill="#010101" fill-opacity=".5"/></g></svg>