<svg version="1.0" viewBox="0 0 64 64" xmlns="http://www.w3.org/2000/svg"><g stroke-linecap="square" stroke-width="2" transform="translate(-224 -220)"><rect x="234" y="224" width="44" height="56" ry="4" fill="#444"/><rect x="238" y="228" width="36" height="45" ry="0" fill="#ededed"/><path d="M238 224c-2.216 0-4 1.784-4 4v48c0 2.216 1.784 4 4 4h36c2.216 0 4-1.784 4-4v-48c0-2.216-1.784-4-4-4zm0 1h36c1.662 0 3 1.338 3 3v46c0 1.662-1.338 3-3 3h-36c-1.662 0-3-1.338-3-3v-46c0-1.662 1.338-3 3-3z" fill="#fff" fill-opacity=".5"/><rect x="226" y="250" width="60" height="4" ry="2" fill="#f15d22"/></g></svg>