<svg version="1.0" viewBox="0 0 32 32" xmlns="http://www.w3.org/2000/svg"><g transform="translate(-100 -252)"><rect x="105" y="254" width="22" height="28" ry="2" fill="#adadad"/><path d="M107 254c-1.108 0-2 .892-2 2v24c0 1.108.892 2 2 2h18c1.108 0 2-.892 2-2v-24c0-1.108-.892-2-2-2zm0 1h18c.554 0 1 .446 1 1v7c0 .554-.446 1-1 1h-18c-.554 0-1-.446-1-1v-7c0-.554.446-1 1-1z" fill-opacity=".502"/><g transform="translate(92 -3)"><path d="M24 268a8 8 0 0 0-3.853 1H18.5c-.831 0-1.5.669-1.5 1.5v1.629A8 8 0 0 0 16 276a8 8 0 0 0 1 3.853v1.647c0 .831.669 1.5 1.5 1.5h1.629A8 8 0 0 0 24 284a8 8 0 0 0 3.853-1H29.5c.831 0 1.5-.669 1.5-1.5v-1.629A8 8 0 0 0 32 276a8 8 0 0 0-1-3.853V270.5c0-.831-.669-1.5-1.5-1.5h-1.629A8 8 0 0 0 24 268z" fill="#565656"/><circle cx="24" cy="276" r="7" fill="#acacac"/><rect x="18" y="270" width="12" height="12" ry="1" fill="#acacac"/><circle cx="24" cy="276" r="6" fill="#333"/><circle cx="24" cy="276" r="5" fill="#faa41a"/><circle cx="24" cy="276" r="2" fill="#333"/></g></g></svg>