<svg version="1.0" viewBox="0 0 32 32" xmlns="http://www.w3.org/2000/svg"><g transform="translate(-100 -252)"><rect x="103" y="267" width="26" height="5" ry="2" fill="#565656"/><rect x="104" y="268" width="24" height="2" ry=".857" fill="#acacac"/><path d="M108 264c-1.108 0-2 .892-2 2v6c0 5.54 4.46 10 10 10s10-4.46 10-10v-6c0-1.108-.892-2-2-2s-2 .892-2 2v5c0 3.324-2.676 6-6 6s-6-2.676-6-6v-5c0-1.108-.892-2-2-2z" fill="#444"/><path d="M108 265c-.554 0-1 .446-1 1v5c0 4.986 4.014 9 9 9s9-4.014 9-9v-5c0-.554-.446-1-1-1s-1 .446-1 1v5c0 3.878-3.122 7-7 7s-7-3.122-7-7v-5c0-.554-.446-1-1-1z" fill="#838383"/><rect x="111" y="254" width="10" height="22" ry="5" fill="#909090"/><rect x="112" y="256" width="8" height="19" ry="4" fill="#2e2e2e"/><rect x="114" y="280" width="4" height="4" ry="2" fill="#444"/><rect x="115" y="278" width="2" height="4" ry="1" fill="#838383"/></g></svg>