<svg version="1.0" viewBox="0 0 32 32" xmlns="http://www.w3.org/2000/svg"><g transform="translate(-100 -252)"><rect x="103" y="255" width="26" height="26" ry="2" fill="#767676"/><rect x="104" y="256" width="24" height="19" ry="1.5" fill="#ececec"/><circle cx="108" cy="278" r="2" fill="#73c48f"/><circle cx="116" cy="278" r="2" fill="#ff793e"/><circle cx="124" cy="278" r="2" fill="#67d8e6"/><g fill="#474341"><path d="m116 258-7 8 7 8zm-5 5c0-.554-.446-1-1-1s-1 .446-1 1v6c0 .554.446 1 1 1s1-.446 1-1z"/><path d="m122 259-1.713 1.03c.934 1.555 1.713 4.156 1.713 5.97 0 1.815-.779 4.415-1.713 5.97L122 273c1.122-1.866 2-4.823 2-7 0-2.177-.878-5.134-2-7z"/><path d="m118.75 260.5-1.715 1.03c.655 1.088.965 3.2.965 4.47 0 1.27-.31 3.382-.965 4.47l1.715 1.03c.84-1.4 1.25-3.867 1.25-5.5s-.41-4.1-1.25-5.5z"/></g></g></svg>