<svg version="1.0" viewBox="0 0 32 32" xmlns="http://www.w3.org/2000/svg"><g transform="translate(-100 -252)"><path d="M251 221c-.554 0-1 .446-1 1v2h-12c-2.216 0-4 1.784-4 4v48c0 2.216 1.784 4 4 4h36c2.216 0 4-1.784 4-4v-48c0-2.216-1.784-4-4-4h-13v-2c0-.554-.446-1-1-1z" fill="#565656"/><rect x="235" y="228" width="42" height="21" ry="3.5" fill="#7f540d"/><rect x="251" y="222" width="9" height="6" ry="1" fill="#7e7e7e"/><rect x="235" y="225" width="42" height="21" ry="3.5" fill="#faa41a"/><rect x="235" y="250" width="42" height="27" ry="3.5" fill="#7e7e7e"/><rect x="175" y="236" width="10" height="4" ry="1" fill="#565656"/><rect x="164" y="239" width="32" height="42" ry="3.5" fill="#565656"/><rect x="176" y="237" width="8" height="5" ry=".992" fill="#7e7e7e"/><rect x="165" y="248" width="30" height="10" ry="3.5" fill="#7f540d"/><rect x="165" y="240" width="30" height="15" ry="3.5" fill="#faa41a"/><rect x="165" y="259" width="30" height="19" ry="3.5" fill="#7e7e7e"/><rect x="105" y="254" width="22" height="28" ry="2" fill="#565656"/><rect x="106" y="261" width="20" height="6" ry="1.5" fill="#7f540d"/><rect x="112" y="252" width="9" height="3" ry="1" fill="#565656"/><rect x="113" y="253" width="7" height="3.5" ry="1" fill="#7e7e7e"/><rect x="106" y="255" width="20" height="10" ry="1.5" fill="#faa41a"/><rect x="106" y="268" width="20" height="12" ry="1.5" fill="#7e7e7e"/><rect x="59" y="262" width="18" height="22" ry="1.5" fill="#565656"/><rect x="64" y="260" width="8" height="4" ry="1.5" fill="#565656"/><rect x="60" y="272" width="16" height="11" ry="1.5" fill="#7e7e7e"/><rect x="65" y="261" width="6" height="5.5" ry="1.5" fill="#7e7e7e"/><rect x="60" y="263" width="16" height="8" ry="1.5" fill="#faa41a"/><rect x="18" y="270" width="12" height="14" ry="2" fill="#565656"/><rect x="21" y="268" width="6" height="4" ry="1.5" fill="#565656"/><rect x="22" y="269" width="4" height="4" ry="1.5" fill="#7e7e7e"/><rect x="19" y="271" width="10" height="5" ry="1.5" fill="#faa41a"/><rect x="19" y="277" width="10" height="6" ry="1.5" fill="#7e7e7e"/><path d="M366 158c-1.108 0-2 .892-2 2v4h-24c-4.432 0-8 3.568-8 8v96c0 4.432 3.568 8 8 8h72c4.432 0 8-3.568 8-8v-96c0-4.432-3.568-8-8-8h-26v-4c0-1.108-.892-2-2-2z" fill="#565656"/><rect x="333" y="196" width="86" height="17" ry="6" fill="#7f540d"/><rect x="365" y="159" width="20" height="9" ry="2" fill="#7e7e7e"/><rect x="333" y="165" width="86" height="43" ry="7" fill="#faa41a"/><rect x="333" y="214" width="86" height="58" ry="7" fill="#7e7e7e"/><path d="M572 32c-2.216 0-4 1.784-4 4v8h-48c-8.864 0-16 7.136-16 16v192c0 8.864 7.136 16 16 16h144c8.864 0 16-7.136 16-16V60c0-8.864-7.136-16-16-16h-52v-8c0-2.216-1.784-4-4-4z" fill="#565656"/><rect x="505" y="103" width="174" height="34" ry="14" fill="#7f540d"/><rect x="570" y="34" width="40" height="25" ry="4" fill="#7e7e7e"/><rect x="505" y="45" width="174" height="87" ry="15.5" fill="#faa41a"/><rect x="505" y="138" width="174" height="125" ry="14" fill="#7e7e7e"/></g></svg>