<svg version="1.0" viewBox="0 0 32 32" xmlns="http://www.w3.org/2000/svg"><g transform="translate(-100 -252)"><rect x="101" y="253" width="30" height="31" ry="15" fill="#e6e6e6"/><circle cx="116" cy="268" r="9" fill="#ac1800"/><circle transform="scale(1 -1)" cx="116" cy="-268" r="7" fill="#cf3b00"/><g fill="#fff"><path d="M118.828 265.17a4 4 0 0 0-5.656 0l2.828 2.828z" opacity=".2"/><path d="M118.828 265.17a4 4 0 0 1 0 5.656L116 267.998z" opacity=".4"/><path d="M113.172 270.826a4 4 0 0 1 0-5.656l2.828 2.828z" opacity=".4"/><path d="M113.172 270.826a4 4 0 0 0 5.656 0L116 267.998z" opacity=".6"/></g><path d="M116 253c-8.31 0-15 6.69-15 15v1c0 8.31 6.69 15 15 15s15-6.69 15-15v-1c0-8.31-6.69-15-15-15zm-.5 1h1c7.479 0 13.5 6.244 13.5 14s-6.021 14-13.5 14h-1c-7.479 0-13.5-6.244-13.5-14s6.021-14 13.5-14z" fill-opacity=".502"/></g></svg>