<svg version="1.0" viewBox="0 0 32 32" xmlns="http://www.w3.org/2000/svg"><g transform="translate(-100 -252)"><rect x="102" y="259" width="28" height="23" ry="2" fill="#6f6f6f"/><rect x="111" y="255" width="10" height="6.5" ry="2" fill="#6f6f6f"/><rect x="112" y="256" width="8" height="8" ry="1.5" fill="#acacac"/><rect x="113" y="257" width="6" height="2" ry="1" fill="#ffce51"/><path d="M104.5 260c-.831 0-1.5.669-1.5 1.5v1.5h26v-1.5c0-.831-.669-1.5-1.5-1.5zm-1.5 17v1.5c0 .831.669 1.5 1.5 1.5h23c.831 0 1.5-.669 1.5-1.5V277z" fill="#ececec"/><rect x="103" y="263" width="26" height="14" ry="0" fill="#424242"/><circle cx="116" cy="270" r="6" fill="#ececec"/><circle cx="116" cy="270" r="4" fill="#48b9c7"/><circle cx="116" cy="270" r="3" fill="#fff" fill-opacity=".251"/><path d="M118.12 267.88a3 3 0 0 1 .776 2.898 3 3 0 0 1-2.12 2.121 3 3 0 0 1-2.899-.776L116 270z" fill="#fff" fill-opacity=".251"/><path d="M118.12 272.12a3 3 0 0 1-4.243 0 3 3 0 0 1 0-4.243L116 270z" fill="#fff" fill-opacity=".251"/></g></svg>