<svg version="1.0" viewBox="0 0 32 32" xmlns="http://www.w3.org/2000/svg"><g transform="translate(-100 948)"><rect x="103" y="-941" width="26" height="19" ry="2" fill="#bfbfbf"/><path fill="#222" d="M106-938h20v12h-20z"/><path d="M105-941c-1.108 0-2 .892-2 2v15c0 1.108.892 2 2 2h22c1.108 0 2-.892 2-2v-15c0-1.108-.892-2-2-2zm0 1h22c.554 0 1 .446 1 1v14c0 .554-.446 1-1 1h-22c-.554 0-1-.446-1-1v-14c0-.554.446-1 1-1z" fill-opacity=".502"/><rect x="102" y="-923" width="28" height="4" ry="1" fill="#bfbfbf"/><path d="M103-923c-.554 0-1 .446-1 1v2c0 .554.446 1 1 1h26c.554 0 1-.446 1-1v-2c0-.554-.446-1-1-1zm.5 1h25c.277 0 .5.223.5.5v1c0 .277-.223.5-.5.5h-25a.499.499 0 0 1-.5-.5v-1c0-.277.223-.5.5-.5z" fill-opacity=".502"/></g></svg>