<svg version="1.0" viewBox="0 0 32 32" xmlns="http://www.w3.org/2000/svg"><g transform="translate(-100 188)"><rect x="104" y="-187" width="24" height="31" ry="2.5" fill="#565656" fill-opacity=".963"/><rect x="105" y="-186" width="22" height="28" ry="2" fill="#acacac"/></g><g fill="#444" transform="translate(-100 648)"><path d="M115-642h2v12.5h-2z"/><circle cx="116" cy="-629" r="2"/><path d="M113-640h6l-3-4z"/><path d="M111-634h10v2h-10z"/><path d="M110-637h2v4h-2z"/><path d="M120-637h2v4h-2z"/><rect x="119" y="-639" width="4" height="4" ry="1"/><rect x="109" y="-639" width="4" height="4" ry="2"/><rect x="110" y="-634" width="2" height="2" ry="1"/><rect x="120" y="-634" width="2" height="2" ry="1"/></g></svg>