<svg version="1.0" viewBox="0 0 32 32" xmlns="http://www.w3.org/2000/svg"><g transform="translate(-100 188)"><rect x="104" y="-187" width="24" height="31" ry="2.5" fill="#565656" fill-opacity=".963"/><rect x="105" y="-186" width="22" height="28" ry="2" fill="#acacac"/></g><g fill="#444"><path d="M16 10a3 3 0 0 0-3 3 3 3 0 0 0 3 3 3 3 0 0 0 3-3 3 3 0 0 0-3-3zm0 1a2 2 0 0 1 2 2 2 2 0 0 1-2 2 2 2 0 0 1-2-2 2 2 0 0 1 2-2z"/><path d="M14 18h4v1h-4z"/><path d="M14 20h4v1h-4z"/><path d="m21 6.176 2.829 2.829L21 11.833l-2.828-2.828z"/><path d="m13.974 8.146-2.829 2.828-.707-.707 2.828-2.828z"/><path d="M12.56 6.732 9.73 9.56l-.706-.707 2.828-2.828z"/></g></svg>