<svg version="1.0" viewBox="0 0 32 32" xmlns="http://www.w3.org/2000/svg"><g transform="translate(-100 -252)"><path d="M106 259c-2.216 0-4 1.784-4 4v15c0 2.216 1.784 4 4 4s4-1.784 4-4v-4h12v4c0 2.216 1.784 4 4 4s4-1.784 4-4v-15c0-2.216-1.784-4-4-4z" fill="#4f4b49"/><rect x="103" y="260" width="6" height="20" ry="3" fill="#9f9792"/><rect x="123" y="260" width="6" height="20" ry="3" fill="#9f9792"/><rect x="103" y="260" width="26" height="12" ry="3" fill="#9f9792"/><path fill="#4f4b49" d="M107 261h4v8h-4z"/><path fill="#4f4b49" d="M105 263h8v4h-8z"/><path d="M108 262v2h-2v2h2v2h2v-2h2v-2h-2v-2z" fill="#ebebeb"/><path d="M123.5 261.5a1 1 0 0 0-1 1 1 1 0 0 0 1 1 1 1 0 0 0 1-1 1 1 0 0 0-1-1z" fill="#ffce51" stroke="#7f6728" stroke-linecap="round"/><path d="M120.5 264.5a1 1 0 0 0-1 1 1 1 0 0 0 1 1 1 1 0 0 0 1-1 1 1 0 0 0-1-1z" fill="#94a6ff" stroke="#4a537f" stroke-linecap="round"/><path d="M126.5 264.5a1 1 0 0 0-1 1 1 1 0 0 0 1 1 1 1 0 0 0 1-1 1 1 0 0 0-1-1z" fill="#ff793e" stroke="#7f3c1f" stroke-linecap="round"/><path d="M123.5 267.5a1 1 0 0 0-1 1 1 1 0 0 0 1 1 1 1 0 0 0 1-1 1 1 0 0 0-1-1z" fill="#73c48f" stroke="#396247" stroke-linecap="round"/><rect x="120" y="265" width="1" height="1" ry="0" fill="#94a6ff"/><path fill="#ffce51" d="M123 262h1v1h-1z"/><path fill="#ff793e" d="M126 265h1v1h-1z"/><path fill="#73c48f" d="M123 268h1v1h-1z"/></g></svg>