<svg version="1.0" viewBox="0 0 32 32" xmlns="http://www.w3.org/2000/svg"><g transform="translate(-100 -252)"><rect x="107" y="253" width="18" height="30" ry="8.5" fill="#98989d"/><path d="M115.5 253a8.481 8.481 0 0 0-8.5 8.5v13c0 4.709 3.791 8.5 8.5 8.5h1c4.709 0 8.5-3.791 8.5-8.5v-13c0-4.709-3.791-8.5-8.5-8.5zm.5 1c4.432 0 8 3.568 8 8v11c0 4.432-3.568 8-8 8s-8-3.568-8-8v-11c0-4.432 3.568-8 8-8z" fill-opacity=".5"/><path d="M116 253v30h.5c4.709 0 8.5-3.791 8.5-8.5v-13c0-4.709-3.791-8.5-8.5-8.5z" fill="#fff" fill-opacity=".2"/><rect x="114" y="255" width="4" height="11" ry="2" fill="#fff" fill-opacity=".4"/><rect x="115" y="257" width="2" height="8" ry="1" fill="#343434"/></g></svg>