<svg version="1.0" viewBox="0 0 32 32" xmlns="http://www.w3.org/2000/svg"><g transform="translate(-100 -252)"><rect x="105" y="254" width="22" height="28" ry="2" fill="#98989d"/><path d="M107 254c-1.108 0-2 .892-2 2v3h22v-3c0-1.108-.892-2-2-2z" fill="#bcbcc0"/><circle cx="108" cy="257" r="1" fill="#ffca40"/><path d="M109.75 264.25c8.136-6.302 12.274 3.731 6 4.5-7.664.939-4.75 10-.5 6s8 2 8 2" fill="none" stroke="#000" stroke-width="2"/><path d="M107 254c-1.108 0-2 .892-2 2v24c0 1.108.892 2 2 2h18c1.108 0 2-.892 2-2v-24c0-1.108-.892-2-2-2zm0 1h18c.554 0 1 .446 1 1v23c0 .554-.446 1-1 1h-18c-.554 0-1-.446-1-1v-23c0-.554.446-1 1-1z" fill-opacity=".5"/></g></svg>