<svg version="1.0" viewBox="0 0 32 32" xmlns="http://www.w3.org/2000/svg"><g stroke-linecap="square" stroke-opacity=".5" transform="translate(-100 -252)"><rect x="102" y="259" width="28" height="22" ry="3" fill="#7b736e"/><path d="M105 259c-1.662 0-3 1.338-3 3v16c0 1.662 1.338 3 3 3h22c1.662 0 3-1.338 3-3v-16c0-1.662-1.338-3-3-3zm0 1h22c1.108 0 2 .892 2 2v15c0 1.108-.892 2-2 2h-22c-1.108 0-2-.892-2-2v-15c0-1.108.892-2 2-2z" fill-opacity=".5"/><rect x="105" y="262" width="4" height="4" ry="1" fill-opacity=".5"/><rect x="105" y="268" width="4" height="4" ry="1" fill-opacity=".5"/><rect x="105" y="261" width="4" height="4" ry="1" fill="#ededed"/><rect x="108" y="274" width="16" height="4" ry="1" fill-opacity=".5"/><rect x="105" y="267" width="4" height="4" ry="1" fill="#ededed"/><rect x="111" y="262" width="4" height="4" ry="1" fill-opacity=".5"/><rect x="108" y="273" width="16" height="4" ry="1" fill="#ededed"/><rect x="111" y="268" width="4" height="4" ry="1" fill-opacity=".5"/><rect x="111" y="261" width="4" height="4" ry="1" fill="#ededed"/><rect x="117" y="262" width="4" height="4" ry="1" fill-opacity=".5"/><rect x="111" y="267" width="4" height="4" ry="1" fill="#ededed"/><rect x="117" y="268" width="4" height="4" ry="1" fill-opacity=".5"/><rect x="117" y="261" width="4" height="4" ry="1" fill="#ededed"/><rect x="123" y="262" width="4" height="4" ry="1" fill-opacity=".5"/><rect x="117" y="267" width="4" height="4" ry="1" fill="#ededed"/><rect x="123" y="268" width="4" height="4" ry="1" fill-opacity=".5"/><rect x="123" y="261" width="4" height="4" ry="1" fill="#ededed"/><rect x="123" y="267" width="4" height="4" ry="1" fill="#ededed"/></g></svg>