<svg version="1.0" viewBox="0 0 32 32" xmlns="http://www.w3.org/2000/svg"><path d="M5 3c-1.108 0-2 .892-2 2v20.062L6.938 29H29V5c0-1.108-.892-2-2-2z" fill="#4d4d4d"/><path d="M8 19v10h14.5V19zm4.5 1h4v7h-4z" fill="#ececec"/><path d="M6 3v12c0 2 2 2 2 2h16s2 0 2-2V3z" fill="#333"/><path opacity=".2" d="M22.5 19H26v8h-3.5z"/><path opacity=".2" d="M12.5 20h4v7h-4z"/><path d="M8 28h14.5" fill="none" stroke="#000" stroke-opacity=".502" stroke-width="2"/><path d="M5 3c-1.108 0-2 .892-2 2v20.062L6.938 29H29V5c0-1.108-.892-2-2-2zm0 1h22c.554 0 1 .446 1 1v22H7l-3-3V5c0-.554.446-1 1-1z" fill="#fff" fill-opacity=".502"/></svg>