<svg version="1.0" viewBox="0 0 32 32" xmlns="http://www.w3.org/2000/svg"><g transform="translate(-100 -252)"><path d="M163 240c-1.662 0-3 1.338-3 3v32l4 4h36v-36c0-1.662-1.338-3-3-3z" fill="#4d4d4d"/><path d="M172 265h21s1 0 1 1v10h-22z" opacity=".1"/><path d="M169 265c-1 0-1 1-1 1v13h20v-13c0-1-1-1-1-1zm3 1h6v10h-6z" fill="#ececec"/><path d="M164 240v19c0 2 2 2 2 2h28s2 0 2-2v-19z" fill="#333"/><path d="M105 255c-1.108 0-2 .892-2 2v20.062l3.938 3.938h22.061v-24c0-1.108-.891-2-2-2z" fill="#4d4d4d"/><path d="M108 271v10h14.5v-10zm4.5 1h4v7h-4z" fill="#ececec"/><path d="M106 255v12c0 2 2 2 2 2h16s2 0 2-2v-12z" fill="#333"/><path d="M31 270c0-1-1-1-1-1H18s-1 0-1 1v11.031L18.968 283H31z" fill="#4d4d4d"/><path d="M20 278v5h7v-5zm2 1h2v3h-2z" fill="#ececec"/><path d="M19 269v5s0 1 1 1h8s1 0 1-1v-5z" fill="#333"/><path opacity=".2" d="M122.5 271h3.5v8h-3.5z"/><path opacity=".2" d="M27 278h2v5h-2z"/><path opacity=".2" d="M112.5 272h4v7h-4z"/><path d="M20 282.5h-1l-1.5-1.5v-11.1a.4.4 0 0 1 .4-.4h12.2a.4.4 0 0 1 .4.4v12.6H27" fill="none" stroke="#fff" stroke-opacity=".392"/><path d="M20 282.5h7" fill="none" stroke="#000" stroke-opacity=".235"/><path d="M78 281.5h-1.86l-3.64-3.642V255.9c0-.776.669-1.4 1.5-1.4h24c.831 0 1.5.624 1.5 1.4v25.6H92" fill="none" stroke="#dfdfdf" stroke-opacity=".314"/><path d="M108 280h14.5" fill="none" stroke="#000" stroke-opacity=".502" stroke-width="2"/><path d="M105 255c-1.108 0-2 .892-2 2v20.062l3.938 3.938h22.061v-24c0-1.108-.891-2-2-2zm0 1h22c.554 0 1 .446 1 1v22h-21l-3-3v-19c0-.554.446-1 1-1z" fill="#fff" fill-opacity=".502"/><path d="M175 331.5h-3.809l-3.691-3.691v-33.91c0-.775.669-1.4 1.5-1.4h36c.831 0 1.5.625 1.5 1.4v37.6H195" fill="none" stroke="#dfdfdf" stroke-opacity=".314"/><path d="M57 279v-16c0-1.108.892-2 2-2h18c1.108 0 2 .892 2 2v20H61" fill="#4d4d4d"/><rect x="63" y="276" width="14" height="7" ry="0" fill-opacity=".392"/><path d="M63 276v7h10v-7zm2 1h3v5h-3z" fill="#ededed"/><path d="M60 261v9c0 .554.446 1 1 1h14c.554 0 1-.446 1-1v-9z" fill-opacity=".392"/><rect x="63" y="282" width="10" height="1" ry="0" fill-opacity=".392"/><path d="M59 261c-1.108 0-2 .892-2 2v16l4 4h18v-20c0-1.108-.892-2-2-2zm0 1h18c.554 0 1 .446 1 1v19H61.5l-3.5-3.5V263c0-.554.446-1 1-1z" fill="#fff" fill-opacity=".502"/><rect x="168" y="276" width="20" height="3" ry="0" fill-opacity=".502"/><path d="M163 240c-1.662 0-3 1.338-3 3v32l4 4h36v-36c0-1.662-1.338-3-3-3zm0 1h34c1.108 0 2 .892 2 2v33h-34l-4-4v-29c0-1.108.892-2 2-2z" fill="#fff" fill-opacity=".502"/><path d="M234 226c-2.216 0-4 1.784-4 4v40l8 8h44v-48c0-2.216-1.784-4-4-4z" fill="#4d4d4d"/><path d="M241 258v20h28v-20zm8 2h8v15h-8z" fill="#ececec"/><path d="M236 226v24c0 4 4 4 4 4h32s4 0 4-4v-24z" fill="#333"/><path opacity=".2" d="M269 258h7v17h-7z"/><path opacity=".2" d="M249 260h8v15h-8z"/><path fill-opacity=".502" d="M241 275h28v3h-28z"/><path d="M234 226c-2.216 0-4 1.784-4 4v40l8 8h44v-48c0-2.216-1.784-4-4-4zm0 1h44c1.662 0 3 1.338 3 3v45h-42l-8-8v-37c0-1.662 1.338-3 3-3z" fill="#fff" fill-opacity=".502"/><path d="M332 168c-4.432 0-8 3.568-8 8v80l16 16h88v-96c0-4.432-3.568-8-8-8z" fill="#4d4d4d"/><path opacity=".2" d="M362 232h54v36h-54z"/><path d="M346 232v40h55.999v-40zm15.999 4h16v32h-16z" fill="#ececec"/><path d="M336 168v48c0 8 8 8 8 8h64s8 0 8-8v-48z" fill="#333"/><path fill-opacity=".502" d="M346 268h56v4h-56z"/><path d="M332 168c-4.432 0-8 3.568-8 8v80l16 16h88v-96c0-4.432-3.568-8-8-8zm0 1h88c3.878 0 7 3.122 7 7v92h-86l-16-16v-76c0-3.878 3.122-7 7-7z" fill="#fff" fill-opacity=".502"/><path d="M504 52c-8.864 0-16 7.136-16 16v160l32 32h176V68c0-8.864-7.136-16-16-16z" fill="#4d4d4d"/><path opacity=".2" d="M564 180h108v72H564z"/><path d="M532 180v79.999h112V180zm31.998 8.001h32v64h-32z" fill="#ececec"/><path d="M512 52v96c0 16.001 16 16 16 16h128s16 .001 16-16V52z" fill="#333"/><path fill-opacity=".502" d="M532 252h112v8H532z"/><path d="M504 52c-8.864 0-16 7.136-16 16v160l32 32h176V68c0-8.864-7.136-16-16-16zm0 2h176c7.756 0 14 6.244 14 14v184H522l-32-32V68c0-7.756 6.244-14 14-14z" fill="#fff" fill-opacity=".502"/></g></svg>