<svg version="1.0" viewBox="0 0 32 32" xmlns="http://www.w3.org/2000/svg"><g transform="translate(-100 -252)"><path d="M116 253c-8.31 0-15 6.69-15 15v1c0 8.31 6.69 15 15 15s15-6.69 15-15v-1c0-8.31-6.69-15-15-15z" fill="#cdcdcd"/><path d="M116 253c-8.31 0-15 6.69-15 15v1c0 8.31 6.69 15 15 15s15-6.69 15-15v-1c0-8.31-6.69-15-15-15zm0 1a14 14 0 0 1 14 14 14 14 0 0 1-14 14 14 14 0 0 1-14-14 14 14 0 0 1 14-14z" fill-opacity=".5"/><circle cx="116" cy="268" r="5.5" fill="none" stroke="#000" stroke-linecap="square" stroke-opacity=".5"/><circle cx="116" cy="268" r="5" fill-opacity=".2"/><circle cx="116" cy="268" r="2" fill-opacity=".8"/></g></svg>