<svg version="1.0" viewBox="0 0 32 32" xmlns="http://www.w3.org/2000/svg"><g transform="translate(-100 -252)"><rect x="105" y="254" width="22" height="28" ry="2" fill="#545454"/><rect x="107" y="256" width="18" height="12" ry="0" fill="#222"/><rect x="110" y="269" width="4" height="4" ry="1.994" fill="#222"/><rect x="118" y="269" width="4" height="4" ry="2" fill="#222"/><rect x="110" y="275" width="4" height="4" ry="2" fill="#222"/><rect x="118" y="275" width="4" height="4" ry="2" fill="#222"/><path d="M113.77 258.01a.75.75 0 0 0-.747.706h-.002v.019l-.001.025v6.485a.75.75 0 0 0 .75.75.75.75 0 0 0 .316-.072l.001.001.02-.01.002-.002a.75.75 0 0 0 .066-.037l5.885-3.204a.084.084 0 0 0 .007-.003v-.002a.75.75 0 0 0 .025-1.314l-.014-.007s-.002 0-.003-.002l-5.943-3.241a.757.757 0 0 0-.362-.094z" fill="#ededed" fill-opacity=".8"/><path d="M111.99 269a1.99 1.99 0 0 0-1.994 1.994v.012A1.99 1.99 0 0 0 111.99 273h.012a1.99 1.99 0 0 0 1.994-1.994v-.012a1.99 1.99 0 0 0-1.994-1.994zm.006 1a1 1 0 0 1 1 1 1 1 0 0 1-1 1 1 1 0 0 1-1-1 1 1 0 0 1 1-1z" fill="#fff" fill-opacity=".502"/><path d="M120 269c-1.108 0-2 .892-2 2s.892 2 2 2 2-.892 2-2-.892-2-2-2zm0 1a1 1 0 0 1 1 1 1 1 0 0 1-1 1 1 1 0 0 1-1-1 1 1 0 0 1 1-1z" fill="#fff" fill-opacity=".502"/><path d="M112 275c-1.108 0-2 .892-2 2s.892 2 2 2 2-.892 2-2-.892-2-2-2zm0 1a1 1 0 0 1 1 1 1 1 0 0 1-1 1 1 1 0 0 1-1-1 1 1 0 0 1 1-1z" fill="#fff" fill-opacity=".502"/><path d="M120 275c-1.108 0-2 .892-2 2s.892 2 2 2 2-.892 2-2-.892-2-2-2zm0 1a1 1 0 0 1 1 1 1 1 0 0 1-1 1 1 1 0 0 1-1-1 1 1 0 0 1 1-1z" fill="#fff" fill-opacity=".502"/><path d="M107 254c-1.108 0-2 .892-2 2v24c0 1.108.892 2 2 2h18c1.108 0 2-.892 2-2v-24c0-1.108-.892-2-2-2zm0 1h18c.554 0 1 .446 1 1v23c0 .554-.446 1-1 1h-18c-.554 0-1-.446-1-1v-23c0-.554.446-1 1-1z" fill="#fff" fill-opacity=".502"/></g></svg>