<svg version="1.0" viewBox="0 0 32 32" xmlns="http://www.w3.org/2000/svg"><g transform="translate(-100 648)"><rect x="115" y="-634" width="16" height="6" ry="1" fill="#479863"/><rect x="122" y="-634" width="6" height="11" ry="3" fill="#479863"/><circle cx="110" cy="-631" r="5" fill="#c9c9c9"/><rect x="101" y="-640" width="18" height="19" ry="9" fill="#479863"/><path d="M110-640a8.98 8.98 0 0 0-9 9v1c0 4.986 4.014 9 9 9a8.975 8.975 0 0 0 8.771-7H122v2c0 1.662 1.338 3 3 3s3-1.338 3-3v-2h2c.554 0 1-.446 1-1v-4c0-.554-.446-1-1-1h-11.52c-1.232-3.5-4.55-6-8.48-6zm0 1a7.974 7.974 0 0 1 7.74 6H129c.554 0 1 .446 1 1v1c0 .554-.446 1-1 1h-2v3c0 1.108-.892 2-2 2s-2-.892-2-2v-3h-5.068c-.49 3.956-3.84 7-7.932 7-4.432 0-8-3.568-8-8s3.568-8 8-8z" fill-opacity=".5"/><circle cx="110" cy="-631" r="4" fill="#a2f3be"/></g></svg>