<svg version="1.0" viewBox="0 0 32 32" xmlns="http://www.w3.org/2000/svg"><g stroke-linecap="square" transform="translate(-100 -252)"><rect x="103" y="273" width="26" height="8" ry="2" fill="#444"/><rect transform="rotate(45)" x="270.71" y="116.32" width="2" height="6" ry="1"/><rect transform="rotate(45)" x="273.45" y="113.58" width="2" height="6" ry="1"/><rect transform="rotate(45)" x="276.19" y="110.84" width="2" height="6" ry="1"/><circle cx="120" cy="276" r="1" fill="#73c48f"/><circle cx="123" cy="276" r="1" fill="#f15d22"/><circle cx="126" cy="276" r="1" fill="#faa41a"/><path d="M105 273c-1.108 0-2 .892-2 2v4c0 1.108.892 2 2 2h22c1.108 0 2-.892 2-2v-4c0-1.108-.892-2-2-2zm0 1h22c.554 0 1 .446 1 1v3c0 .554-.446 1-1 1h-22c-.554 0-1-.446-1-1v-3c0-.554.446-1 1-1z" fill="#f8f8f8" fill-opacity=".5"/><g transform="translate(0 -7)"><rect x="103" y="273" width="26" height="8" ry="2" fill="#444"/><rect transform="rotate(45)" x="270.71" y="116.32" width="2" height="6" ry="1"/><rect transform="rotate(45)" x="273.45" y="113.58" width="2" height="6" ry="1"/><rect transform="rotate(45)" x="276.19" y="110.84" width="2" height="6" ry="1"/><circle cx="120" cy="276" r="1" fill="#73c48f"/><circle cx="123" cy="276" r="1" fill="#f15d22"/><circle cx="126" cy="276" r="1" fill="#faa41a"/><path d="M105 273c-1.108 0-2 .892-2 2v4c0 1.108.892 2 2 2h22c1.108 0 2-.892 2-2v-4c0-1.108-.892-2-2-2zm0 1h22c.554 0 1 .446 1 1v3c0 .554-.446 1-1 1h-22c-.554 0-1-.446-1-1v-3c0-.554.446-1 1-1z" fill="#f8f8f8" fill-opacity=".5"/></g><g transform="translate(0 -14)"><rect x="103" y="273" width="26" height="8" ry="2" fill="#444"/><rect transform="rotate(45)" x="270.71" y="116.32" width="2" height="6" ry="1"/><rect transform="rotate(45)" x="273.45" y="113.58" width="2" height="6" ry="1"/><rect transform="rotate(45)" x="276.19" y="110.84" width="2" height="6" ry="1"/><circle cx="120" cy="276" r="1" fill="#73c48f"/><circle cx="123" cy="276" r="1" fill="#f15d22"/><circle cx="126" cy="276" r="1" fill="#faa41a"/><path d="M105 273c-1.108 0-2 .892-2 2v4c0 1.108.892 2 2 2h22c1.108 0 2-.892 2-2v-4c0-1.108-.892-2-2-2zm0 1h22c.554 0 1 .446 1 1v3c0 .554-.446 1-1 1h-22c-.554 0-1-.446-1-1v-3c0-.554.446-1 1-1z" fill="#f8f8f8" fill-opacity=".5"/></g></g></svg>