<svg version="1.0" viewBox="0 0 32 32" xmlns="http://www.w3.org/2000/svg"><path d="M4 6c-1.108 0-2 .892-2 2v18c0 1.108.892 2 2 2h4l2 2h12l2-2h4c1.108 0 2-.892 2-2V8c0-1.108-.892-2-2-2z" fill="#dedede"/><path d="M6 10h20v14h-4l-2 2h-8l-2-2H6z" fill="#4d4d4d"/><path fill="#d1a023" d="M15 10h2v6h-2z"/><path fill="#d1a023" d="M12 10h2v6h-2z"/><path fill="#d1a023" d="M18 10h2v6h-2z"/><path fill="#d1a023" d="M21 10h2v6h-2z"/><path fill="#d1a023" d="M9 10h2v6H9z"/><path d="M4 6c-1.108 0-2 .892-2 2v18c0 1.108.892 2 2 2h4l2 2h12l2-2h4c1.108 0 2-.892 2-2V8c0-1.108-.892-2-2-2zm0 1h24c.554 0 1 .446 1 1v17c0 .554-.446 1-1 1h-4l-2 2H10l-2-2H4c-.554 0-1-.446-1-1V8c0-.554.446-1 1-1z" fill-opacity=".5"/></svg>