<svg version="1.0" viewBox="0 0 32 32" xmlns="http://www.w3.org/2000/svg"><g transform="translate(-100 1548)"><rect x="103" y="-1545" width="26" height="26" ry="2" fill="#cf3b00"/><path d="M105-1545c-1.108 0-2 .892-2 2v22c0 1.108.892 2 2 2h22c1.108 0 2-.892 2-2v-22c0-1.108-.892-2-2-2zm0 1h22c.554 0 1 .446 1 1v21c0 .554-.446 1-1 1h-22c-.554 0-1-.446-1-1v-21c0-.554.446-1 1-1z" fill-opacity=".5"/><g fill="#fff" fill-opacity=".5"><path d="M105-1544c-.554 0-1 .446-1 1v6c0 .554.446 1 1 1h10c.554 0 1-.446 1-1v-6c0-.554-.446-1-1-1zm1 2h8c.554 0 1 .446 1 1v3c0 .554-.446 1-1 1h-8c-.554 0-1-.446-1-1v-3c0-.554.446-1 1-1z"/><path d="M117-1544c-.554 0-1 .446-1 1v6c0 .554.446 1 1 1h10c.554 0 1-.446 1-1v-6c0-.554-.446-1-1-1zm1 2h8c.554 0 1 .446 1 1v3c0 .554-.446 1-1 1h-8c-.554 0-1-.446-1-1v-3c0-.554.446-1 1-1z"/><path d="M111-1536c-.554 0-1 .446-1 1v6c0 .554.446 1 1 1h10c.554 0 1-.446 1-1v-6c0-.554-.446-1-1-1zm1 2h8c.554 0 1 .446 1 1v3c0 .554-.446 1-1 1h-8c-.554 0-1-.446-1-1v-3c0-.554.446-1 1-1z"/><path d="M105-1528c-.554 0-1 .446-1 1v5c0 .554.446 1 1 1h1c-.554 0-1-.446-1-1v-3c0-.554.446-1 1-1h8c.554 0 1 .446 1 1v3c0 .554-.446 1-1 1h2v-6c0-.554-.446-1-1-1z"/><path d="M117-1528c-.554 0-1 .446-1 1v6h2c-.554 0-1-.446-1-1v-3c0-.554.446-1 1-1h8c.554 0 1 .446 1 1v3c0 .554-.446 1-1 1h1c.554 0 1-.446 1-1v-5c0-.554-.446-1-1-1z"/><path d="M123-1536c-.554 0-1 .446-1 1v6c0 .554.446 1 1 1h4c.554 0 1-.446 1-1v-6c0-.554-.446-1-1-1zm1 2h2c.554 0 1 .446 1 1v3c0 .554-.446 1-1 1h-2c-.554 0-1-.446-1-1v-3c0-.554.446-1 1-1z"/><path d="M105-1536c-.554 0-1 .446-1 1v6c0 .554.446 1 1 1h4c.554 0 1-.446 1-1v-6c0-.554-.446-1-1-1zm1 2h2c.554 0 1 .446 1 1v3c0 .554-.446 1-1 1h-2c-.554 0-1-.446-1-1v-3c0-.554.446-1 1-1z"/></g></g></svg>