<svg version="1.0" viewBox="0 0 32 32" xmlns="http://www.w3.org/2000/svg" xmlns:xlink="http://www.w3.org/1999/xlink"><g transform="translate(-100 1548)"><g id="a"><path d="M58.5 264c-.831 0-1.5.669-1.5 1.5v12c0 .831.669 1.5 1.5 1.5H62l2 2h8l2-2h3.5c.831 0 1.5-.669 1.5-1.5v-12c0-.831-.669-1.5-1.5-1.5h-18z" fill="#dedede"/><path d="M60 267h16v9h-3.242l-2 2h-5.516l-2-2H60z" color="#000" fill="#4d4d4d" style="isolation:auto;mix-blend-mode:normal;text-decoration-color:#000;text-decoration-line:none;text-decoration-style:solid;text-indent:0;text-transform:none;white-space:normal"/><path d="M104 258c-1.108 0-2 .892-2 2v18c0 1.108.892 2 2 2h4l2 2h12l2-2h4c1.108 0 2-.892 2-2v-18c0-1.108-.892-2-2-2z" fill="#dedede"/><path d="M106 262h20v14h-4l-2 2h-8l-2-2h-4z" fill="#4d4d4d"/><path d="M18 270c-.554 0-1 .446-1 1v9c0 .554.446 1 1 1h2l1 1h6l1-1h2c.554 0 1-.446 1-1v-9c0-.554-.446-1-1-1z" fill="#dedede"/><path d="M19 272h10v7h-2l-1 1h-4l-1-1h-2z" fill="#4d4d4d"/><path d="M162 247c-1.662 0-3 1.338-3 3v24c0 1.662 1.338 3 3 3h6l4 4h16l4-4h6c1.662 0 3-1.338 3-3v-24c0-1.662-1.338-3-3-3z" fill="#dedede"/><path d="M163 251v20h7.484l4 4h11.031l4-4H197v-20z" color="#000" fill="#4d4d4d" style="isolation:auto;mix-blend-mode:normal;text-decoration-color:#000;text-decoration-line:none;text-decoration-style:solid;text-indent:0;text-transform:none;white-space:normal"/><path d="M58.5 278.5c-.554 0-1-.446-1-1v-12c0-.554.446-1 1-1h19c.554 0 1 .446 1 1v12c0 .554-.446 1-1 1h-3.703l-2 2H64.21l-2-2z" fill="none" stroke="#000" stroke-opacity=".5"/><path d="M18 280.5a.499.499 0 0 1-.5-.5v-9c0-.277.223-.5.5-.5h12c.277 0 .5.223.5.5v9c0 .277-.223.5-.5.5h-2.207l-1 1h-5.59l-1-1z" fill="none" stroke="#000" stroke-opacity=".5"/><path fill="#d1a023" d="M67 267h2v4h-2z"/><path fill="#d1a023" d="M115 262h2v6h-2z"/><path fill="#d1a023" d="M112 262h2v6h-2z"/><path fill="#d1a023" d="M118 262h2v6h-2z"/><path fill="#d1a023" d="M181 251h2v6h-2z"/><path fill="#d1a023" d="M177 251h2v6h-2z"/><path fill="#d1a023" d="M185 251h2v6h-2z"/><path fill="#d1a023" d="M189 251h2v6h-2z"/><path fill="#d1a023" d="M173 251h2v6h-2z"/><path fill="#d1a023" d="M70 267h2v4h-2z"/><path fill="#d1a023" d="M64 267h2v4h-2z"/><path fill="#d1a023" d="M23 272h2v4h-2z"/><path fill="#d1a023" d="M26 272h2v4h-2z"/><path fill="#d1a023" d="M20 272h2v4h-2z"/><path fill="#d1a023" d="M121 262h2v6h-2z"/><path fill="#d1a023" d="M109 262h2v6h-2z"/><path d="M104 258c-1.108 0-2 .892-2 2v18c0 1.108.892 2 2 2h4l2 2h12l2-2h4c1.108 0 2-.892 2-2v-18c0-1.108-.892-2-2-2zm0 1h24c.554 0 1 .446 1 1v17c0 .554-.446 1-1 1h-4l-2 2h-12l-2-2h-4c-.554 0-1-.446-1-1v-17c0-.554.446-1 1-1z" fill-opacity=".5"/><path d="M162 247c-1.662 0-3 1.338-3 3v24c0 1.662 1.338 3 3 3h6l4 4h16l4-4h6c1.662 0 3-1.338 3-3v-24c0-1.662-1.338-3-3-3zm0 1h36c1.108 0 2 .892 2 2v22c0 1.108-.892 2-2 2h-6l-4 4h-16l-4-4h-6c-1.108 0-2-.892-2-2v-22c0-1.108.892-2 2-2z" fill-opacity=".5"/><path fill="#d1a023" d="M169 251h2v6h-2z"/><path fill="#d1a023" d="M193 251h2v6h-2z"/><path fill="#d1a023" d="M165 251h2v6h-2z"/><path d="M232 232c-2.216 0-4 1.784-4 4v36c0 2.216 1.784 4 4 4h8l4 4h24l4-4h8c2.216 0 4-1.784 4-4v-36c0-2.216-1.784-4-4-4z" fill="#dedede"/><path fill="#d1a023" d="M73 267h2v4h-2z"/><path fill="#d1a023" d="M61 267h2v4h-2z"/><path d="M232 232c-2.216 0-4 1.784-4 4v36c0 2.216 1.784 4 4 4h8l4 4h24l4-4h8c2.216 0 4-1.784 4-4v-36c0-2.216-1.784-4-4-4zm0 1h48c1.662 0 3 1.338 3 3v34c0 1.662-1.338 3-3 3h-8l-4 4h-24l-4-4h-8c-1.662 0-3-1.338-3-3v-34c0-1.662 1.338-3 3-3z" fill-opacity=".5"/><path d="M233 237v32h8l4 4h22l4-4h8v-32z" fill="#4d4d4d"/><path fill="#d1a023" d="M257 237h3v10h-3z"/><path fill="#d1a023" d="M252 237h3v10h-3z"/><path fill="#d1a023" d="M262 237h3v10h-3z"/><path fill="#d1a023" d="M267 237h3v10h-3z"/><path fill="#d1a023" d="M247 237h3v10h-3z"/><path fill="#d1a023" d="M242 237h3v10h-3z"/><path fill="#d1a023" d="M272 237h3v10h-3z"/><path fill="#d1a023" d="M237 237h3v10h-3z"/><path d="M328 180c-4.432 0-8 3.568-8 8v72c0 4.432 3.568 8 8 8h16l8 8h48l8-8h16c4.432 0 8-3.568 8-8v-72c0-4.432-3.568-8-8-8z" fill="#dedede"/><path d="M233 237v32h8l4 4h22l4-4h8v-32z" fill="#4d4d4d" transform="matrix(2 0 0 2 -136 -284)"/><path fill="#d1a023" d="M257 237h3v10h-3z" transform="matrix(2 0 0 2 -136 -284)"/><path fill="#d1a023" d="M252 237h3v10h-3z" transform="matrix(2 0 0 2 -136 -284)"/><path fill="#d1a023" d="M262 237h3v10h-3z" transform="matrix(2 0 0 2 -136 -284)"/><path fill="#d1a023" d="M267 237h3v10h-3z" transform="matrix(2 0 0 2 -136 -284)"/><path fill="#d1a023" d="M247 237h3v10h-3z" transform="matrix(2 0 0 2 -136 -284)"/><path fill="#d1a023" d="M242 237h3v10h-3z" transform="matrix(2 0 0 2 -136 -284)"/><path fill="#d1a023" d="M272 237h3v10h-3z" transform="matrix(2 0 0 2 -136 -284)"/><path fill="#d1a023" d="M237 237h3v10h-3z" transform="matrix(2 0 0 2 -136 -284)"/><path d="M328 180c-4.432 0-8 3.568-8 8v72c0 4.432 3.568 8 8 8h16l8 8h48l8-8h16c4.432 0 8-3.568 8-8v-72c0-4.432-3.568-8-8-8zm0 1h96c3.878 0 7 3.122 7 7v69c0 3.878-3.122 7-7 7h-16l-8 8h-48l-8-8h-16c-3.878 0-7-3.122-7-7v-69c0-3.878 3.122-7 7-7z" fill-opacity=".5"/><path d="M496 76c-8.864 0-16 7.136-16 16v144c0 8.864 7.136 16 16 16h32l16 16h96l16-16h32c8.864 0 16-7.136 16-16V92c0-8.864-7.136-16-16-16z" fill="#dedede"/><path d="M233 237v32h8l4 4h22l4-4h8v-32z" fill="#4d4d4d" transform="matrix(4 0 0 4 -432 -852)"/><path fill="#d1a023" d="M257 237h3v10h-3z" transform="matrix(4 0 0 4 -432 -852)"/><path fill="#d1a023" d="M252 237h3v10h-3z" transform="matrix(4 0 0 4 -432 -852)"/><path fill="#d1a023" d="M262 237h3v10h-3z" transform="matrix(4 0 0 4 -432 -852)"/><path fill="#d1a023" d="M267 237h3v10h-3z" transform="matrix(4 0 0 4 -432 -852)"/><path fill="#d1a023" d="M247 237h3v10h-3z" transform="matrix(4 0 0 4 -432 -852)"/><path fill="#d1a023" d="M242 237h3v10h-3z" transform="matrix(4 0 0 4 -432 -852)"/><path fill="#d1a023" d="M272 237h3v10h-3z" transform="matrix(4 0 0 4 -432 -852)"/><path fill="#d1a023" d="M237 237h3v10h-3z" transform="matrix(4 0 0 4 -432 -852)"/><path d="M496 76c-8.864 0-16 7.136-16 16v144c0 8.864 7.136 16 16 16h32l16 16h96l16-16h32c8.864 0 16-7.136 16-16V92c0-8.864-7.136-16-16-16zm0 1h192c8.31 0 15 6.69 15 15v140c0 8.31-6.69 15-15 15h-32l-16 16h-96l-16-16h-32c-8.31 0-15-6.69-15-15V92c0-8.31 6.69-15 15-15z" fill-opacity=".5"/></g></g><g transform="translate(-100 1548)"><use transform="translate(0 -300)" width="100%" height="100%" xlink:href="#a"/><g transform="translate(82 -300)"><circle cx="110" cy="272" r="12" fill="#cf3b00"/><rect x="98.5" y="260.5" width="23" height="23" ry="11.478" fill="none" stroke="#000" stroke-linecap="square" stroke-opacity=".502"/><path d="M105.5 266a1.5 1.5 0 0 0-1.5 1.5 1.5 1.5 0 0 0 .44 1.06l3.439 3.44-3.44 3.44a1.5 1.5 0 0 0-.439 1.06 1.5 1.5 0 0 0 1.5 1.5 1.5 1.5 0 0 0 1.06-.44l3.44-3.439 3.425 3.425a1.5 1.5 0 0 0 1.075.454 1.5 1.5 0 0 0 1.5-1.5 1.5 1.5 0 0 0-.44-1.06l-3.439-3.44 3.425-3.425A1.5 1.5 0 0 0 116 267.5a1.5 1.5 0 0 0-1.5-1.5 1.5 1.5 0 0 0-1.06.44l-3.44 3.439-3.425-3.425a1.5 1.5 0 0 0-.015-.015 1.5 1.5 0 0 0-1.06-.44z" fill="#fff"/></g><g transform="translate(115 -300)"><rect x="143" y="253" width="30" height="31" ry="15" fill="#cf3b00"/><path d="M158 253c-8.31 0-15 6.69-15 15v1c0 8.31 6.69 15 15 15s15-6.69 15-15v-1c0-8.31-6.69-15-15-15zm0 1a14 14 0 0 1 14 14 14 14 0 0 1-14 14 14 14 0 0 1-14-14 14 14 0 0 1 14-14z" fill-opacity=".502"/><path d="M153.5 262.5a1.5 1.5 0 0 0-1.5 1.5 1.5 1.5 0 0 0 .44 1.06l3.439 3.44-3.44 3.44A1.5 1.5 0 0 0 152 273a1.5 1.5 0 0 0 1.5 1.5 1.5 1.5 0 0 0 1.06-.44l3.44-3.439 3.425 3.425a1.5 1.5 0 0 0 1.075.454 1.5 1.5 0 0 0 1.5-1.5 1.5 1.5 0 0 0-.44-1.06l-3.439-3.44 3.425-3.425A1.5 1.5 0 0 0 164 264a1.5 1.5 0 0 0-1.5-1.5 1.5 1.5 0 0 0-1.06.44l-3.44 3.439-3.425-3.425a1.5 1.5 0 0 0-.015-.015 1.5 1.5 0 0 0-1.06-.44z" fill="#fff"/></g><g transform="translate(112 -300)"><rect x="268" y="222" width="60" height="62" ry="30" fill="#cf3b00"/><path d="M298 222c-16.62 0-30 13.38-30 30v2c0 16.62 13.38 30 30 30s30-13.38 30-30v-2c0-16.62-13.38-30-30-30zm0 1a29 29 0 0 1 29 29 29 29 0 0 1-29 29 29 29 0 0 1-29-29 29 29 0 0 1 29-29z" fill-opacity=".502"/><path d="M289 241a3 3 0 0 0-3 3 3 3 0 0 0 .879 2.121l6.879 6.879-6.88 6.879A3 3 0 0 0 286 262a3 3 0 0 0 3 3 3 3 0 0 0 2.121-.879l6.879-6.879 6.85 6.85A3 3 0 0 0 307 265a3 3 0 0 0 3-3 3 3 0 0 0-.879-2.121L302.242 253l6.85-6.85A3 3 0 0 0 310 244a3 3 0 0 0-3-3 3 3 0 0 0-2.121.879L298 248.758l-6.85-6.85a3 3 0 0 0-.03-.03A3 3 0 0 0 289 241z" fill="#fff"/></g><g transform="translate(0 -300)"><rect transform="matrix(0 -1 -1 0 0 0)" x="-284" y="-80" width="16" height="16" rx="8" ry="8" fill="#cf3b00"/><rect x="64.5" y="268.5" width="15" height="15" ry="7.5" fill="none" stroke="#000" stroke-linecap="square" stroke-opacity=".502"/><path d="M69 272a1 1 0 0 0-1 1 1 1 0 0 0 .293.707L70.586 276l-2.293 2.293A1 1 0 0 0 68 279a1 1 0 0 0 1 1 1 1 0 0 0 .707-.293L72 277.414l2.283 2.283A1 1 0 0 0 75 280a1 1 0 0 0 1-1 1 1 0 0 0-.293-.707L73.414 276l2.283-2.283A1 1 0 0 0 76 273a1 1 0 0 0-1-1 1 1 0 0 0-.707.293L72 274.586l-2.283-2.283a1 1 0 0 0-.01-.01A1 1 0 0 0 69 272z" fill="#fafafb"/></g><rect transform="matrix(0 -1 -1 0 0 0)" x="16" y="-32" width="8" height="8" rx="1" ry="1" fill="#cf3b00"/><rect x="24.5" y="-23.5" width="7" height="7" ry=".5" fill="none" stroke="#000" stroke-linecap="square" stroke-opacity=".502"/><path d="M25.75-23a.75.75 0 0 0-.75.75.75.75 0 0 0 .22.53L26.94-20l-1.72 1.72a.75.75 0 0 0-.22.53.75.75 0 0 0 .75.75.75.75 0 0 0 .53-.22L28-18.94l1.712 1.713a.75.75 0 0 0 .538.227.75.75 0 0 0 .75-.75.75.75 0 0 0-.22-.53L29.06-20l1.713-1.712A.75.75 0 0 0 31-22.25a.75.75 0 0 0-.75-.75.75.75 0 0 0-.53.22L28-21.06l-1.712-1.713a.75.75 0 0 0-.008-.007.75.75 0 0 0-.53-.22z" fill="#fafafb"/><g transform="translate(52 -300)"><rect transform="matrix(0 -1 -1 0 0 0)" x="-284" y="-80" width="16" height="16" rx="8" ry="8" fill="#cf3b00"/><rect x="64.5" y="268.5" width="15" height="15" ry="7.5" fill="none" stroke="#000" stroke-linecap="square" stroke-opacity=".502"/><path d="M69 272a1 1 0 0 0-1 1 1 1 0 0 0 .293.707L70.586 276l-2.293 2.293A1 1 0 0 0 68 279a1 1 0 0 0 1 1 1 1 0 0 0 .707-.293L72 277.414l2.283 2.283A1 1 0 0 0 75 280a1 1 0 0 0 1-1 1 1 0 0 0-.293-.707L73.414 276l2.283-2.283A1 1 0 0 0 76 273a1 1 0 0 0-1-1 1 1 0 0 0-.707.293L72 274.586l-2.283-2.283a1 1 0 0 0-.01-.01A1 1 0 0 0 69 272z" fill="#fafafb"/></g><g transform="matrix(2 0 0 2 64 -584)"><rect x="268" y="222" width="60" height="62" ry="30" fill="#cf3b00"/><path d="M298 222c-16.62 0-30 13.38-30 30v2c0 16.62 13.38 30 30 30s30-13.38 30-30v-2c0-16.62-13.38-30-30-30zm0 1a29 29 0 0 1 29 29 29 29 0 0 1-29 29 29 29 0 0 1-29-29 29 29 0 0 1 29-29z" fill-opacity=".502"/><path d="M289 241a3 3 0 0 0-3 3 3 3 0 0 0 .879 2.121l6.879 6.879-6.88 6.879A3 3 0 0 0 286 262a3 3 0 0 0 3 3 3 3 0 0 0 2.121-.879l6.879-6.879 6.85 6.85A3 3 0 0 0 307 265a3 3 0 0 0 3-3 3 3 0 0 0-.879-2.121L302.242 253l6.85-6.85A3 3 0 0 0 310 244a3 3 0 0 0-3-3 3 3 0 0 0-2.121.879L298 248.758l-6.85-6.85a3 3 0 0 0-.03-.03A3 3 0 0 0 289 241z" fill="#fff"/></g></g><g transform="translate(-100 648)"><rect x="115" y="266" width="16" height="6" ry="1" fill="#479863"/><rect x="122" y="266" width="6" height="11" ry="3" fill="#479863"/><circle cx="110" cy="269" r="5" fill="#c9c9c9"/><rect x="101" y="260" width="18" height="19" ry="9" fill="#479863"/><path d="M110 260a8.98 8.98 0 0 0-9 9v1c0 4.986 4.014 9 9 9a8.975 8.975 0 0 0 8.771-7H122v2c0 1.662 1.338 3 3 3s3-1.338 3-3v-2h2c.554 0 1-.446 1-1v-4c0-.554-.446-1-1-1h-11.52c-1.232-3.5-4.55-6-8.48-6zm0 1a7.974 7.974 0 0 1 7.74 6H129c.554 0 1 .446 1 1v1c0 .554-.446 1-1 1h-2v3c0 1.108-.892 2-2 2s-2-.892-2-2v-3h-5.068c-.49 3.956-3.84 7-7.932 7-4.432 0-8-3.568-8-8s3.568-8 8-8z" fill-opacity=".5"/><circle cx="110" cy="269" r="4" fill="#a2f3be"/><rect x="179" y="255" width="23" height="10" ry="2" fill="#479863"/><rect x="189" y="255.5" width="9" height="16.5" ry="4.5" fill="#479863"/><rect x="158" y="247" width="27" height="28" ry="13.5" fill="#479863"/><path d="M171.5 247a13.47 13.47 0 0 0-13.5 13.5v1a13.47 13.47 0 0 0 13.5 13.5 13.457 13.457 0 0 0 13.029-10h4.47v2.5c0 2.493 2.008 4.5 4.5 4.5s4.5-2.007 4.5-4.5V265h2c1.109 0 2-.892 2-2v-6c0-1.108-.891-2-2-2h-16.171c-2.1-4.72-6.813-8-12.328-8zm-.5 1h1c5.242 0 9.667 3.333 11.309 8H200c.554 0 1 .446 1 1v4c0 .554-.446 1-1 1h-3v3.5c0 1.939-1.561 3.5-3.5 3.5s-3.5-1.561-3.5-3.5V262h-6.178A11.963 11.963 0 0 1 172 272h-1c-6.648 0-12-5.352-12-12s5.352-12 12-12z" fill-opacity=".5"/><circle cx="171.5" cy="260" r="6" fill="#a2f3be"/><rect x="254" y="245" width="32" height="12" ry="2" fill="#479863"/><rect x="268" y="245" width="12" height="22" ry="6" fill="#479863"/><rect x="226" y="233" width="36" height="38" ry="18" fill="#479863"/><circle cx="244" cy="251" r="8" fill="#a2f3be"/><path d="M244 233c-9.972 0-18 8.028-18 18v2c0 9.972 8.028 18 18 18a17.947 17.947 0 0 0 17.541-14H268v4c0 3.324 2.676 6 6 6s6-2.676 6-6v-4h4c1.108 0 2-.892 2-2v-8c0-1.108-.892-2-2-2h-23.039c-2.463-7-9.098-12-16.961-12zm0 1a16.96 16.96 0 0 1 16.256 12H284c.554 0 1 .446 1 1v6c0 .554-.446 1-1 1h-5v5c0 2.77-2.23 5-5 5s-5-2.23-5-5v-5h-8.277A16.95 16.95 0 0 1 244 268c-9.418 0-17-7.582-17-17s7.582-17 17-17z" fill-opacity=".502"/><rect x="372" y="206" width="64" height="24" ry="4" fill="#479863"/><rect x="400" y="206" width="24" height="44" ry="12" fill="#479863"/><rect x="316" y="182" width="72" height="76" ry="36" fill="#479863"/><circle cx="352" cy="218" r="16" fill="#a2f3be"/><path d="M352 182c-19.944 0-36 16.056-36 36v4c0 19.944 16.056 36 36 36 17.191 0 31.485-11.933 35.105-28H400v8c0 6.648 5.352 12 12 12s12-5.352 12-12v-8h8c2.216 0 4-1.784 4-4v-16c0-2.216-1.784-4-4-4h-46.043A35.915 35.915 0 0 0 352 182zm0 1a34.917 34.917 0 0 1 33.24 24H432c1.662 0 3 1.338 3 3v13c0 1.662-1.338 3-3 3h-9v9c0 6.094-4.906 11-11 11s-11-4.906-11-11v-9h-14.697A34.917 34.917 0 0 1 352 254c-19.39 0-35-15.61-35-35v-1c0-19.39 15.61-35 35-35z" fill-opacity=".502"/><rect x="584" y="128" width="128" height="48" ry="8" fill="#479863"/><rect x="640" y="128" width="48" height="88" ry="24" fill="#479863"/><rect x="472" y="80" width="144" height="152" ry="72" fill="#479863"/><circle cx="544" cy="152" r="32" fill="#a2f3be"/><path d="M544 80c-39.888 0-72 32.112-72 72v8c0 39.888 32.112 72 72 72 34.383 0 62.968-23.867 70.209-56H640v16c0 13.296 10.704 24 24 24s24-10.704 24-24v-16h16c4.432 0 8-3.568 8-8v-32c0-4.432-3.568-8-8-8h-92.084C602.072 99.986 575.462 80 544 80zm0 1c31.273 0 57.68 20.027 67.197 48H704c3.878 0 7 3.122 7 7v28c0 3.878-3.122 7-7 7h-17v17c0 12.742-10.258 23-23 23s-23-10.258-23-23v-17h-27.588c-6.85 32.08-35.229 56-69.412 56-39.334 0-71-31.666-71-71v-4c0-39.334 31.666-71 71-71z" fill-opacity=".502"/><rect x="23" y="275" width="8" height="3" ry="1" fill="#479863"/><rect x="26" y="275" width="3" height="6" ry="1.5" fill="#479863"/><rect x="16" y="272" width="9" height="9" ry="4.5" fill="#479863"/><circle cx="20.5" cy="276.5" r="2" fill="#a2f3be"/><path d="M20.5 272c-2.493 0-4.5 2.007-4.5 4.5s2.007 4.5 4.5 4.5a4.475 4.475 0 0 0 4.225-3H26v1.5c0 .831.669 1.5 1.5 1.5s1.5-.669 1.5-1.5V278h1c.554 0 1-.446 1-1v-1c0-.554-.446-1-1-1h-5.275a4.475 4.475 0 0 0-4.225-3zm0 1a3.482 3.482 0 0 1 3.451 3h5.56c.271 0 .489.218.489.488v.024c0 .27-.218.488-.488.488H28v2.5a.499.499 0 1 1-1 0V277h-3.049a3.482 3.482 0 0 1-3.451 3c-1.939 0-3.5-1.561-3.5-3.5s1.561-3.5 3.5-3.5z" fill-opacity=".502"/><rect x="67" y="269" width="13" height="5" ry="1.5" fill="#479863"/><rect x="72" y="270" width="5" height="8" ry="2.5" fill="#479863"/><rect x="57" y="265" width="13" height="13" ry="6.75" fill="#479863"/><circle cx="63.5" cy="271.5" r="2" fill="#a2f3be"/><path d="M63.5 265c-3.601 0-6.5 2.899-6.5 6.5s2.899 6.5 6.5 6.5a6.484 6.484 0 0 0 6.004-4H72v1.5c0 1.385 1.115 2.5 2.5 2.5s2.5-1.115 2.5-2.5V274h1.5c.831 0 1.5-.669 1.5-1.5v-2c0-.831-.669-1.5-1.5-1.5h-8.996a6.484 6.484 0 0 0-6.004-4zm0 1a5.484 5.484 0 0 1 5.29 4H78c.554 0 1 .446 1 1v1c0 .554-.446 1-1 1h-2v2.5c0 .831-.669 1.5-1.5 1.5s-1.5-.669-1.5-1.5V273h-4.21a5.484 5.484 0 0 1-5.29 4c-3.047 0-5.5-2.453-5.5-5.5s2.453-5.5 5.5-5.5z" fill-opacity=".502"/></g><g transform="translate(-100 1548)"><rect x="247" y="-1268" width="18" height="48" ry="4" fill="#565656"/><path d="m227.65-1275 28.352 29.441L284.354-1275v-2h-56.703z" color="#000" fill="#565656" style="font-feature-settings:normal;font-variant-alternates:normal;font-variant-caps:normal;font-variant-east-asian:normal;font-variant-ligatures:normal;font-variant-numeric:normal;font-variant-position:normal;font-variation-settings:normal;inline-size:0;isolation:auto;mix-blend-mode:normal;shape-margin:0;shape-padding:0;text-decoration-color:#000;text-decoration-line:none;text-decoration-style:solid;text-indent:0;text-orientation:mixed;text-transform:none;white-space:normal"/><rect x="248" y="-1276" width="16" height="53" ry="4" fill="#acacac"/><path d="m230-1276 26 27 26-27zm11 4h30l-15 15.5z" fill="#acacac"/><rect x="111" y="-1246" width="10" height="28" ry="2" fill="#565656"/><path d="m100.65-1246 15.352 15.941L131.354-1246v-1h-30.703z" color="#000" fill="#565656" style="font-feature-settings:normal;font-variant-alternates:normal;font-variant-caps:normal;font-variant-east-asian:normal;font-variant-ligatures:normal;font-variant-numeric:normal;font-variant-position:normal;font-variation-settings:normal;inline-size:0;isolation:auto;mix-blend-mode:normal;shape-margin:0;shape-padding:0;text-decoration-color:#000;text-decoration-line:none;text-decoration-style:solid;text-indent:0;text-orientation:mixed;text-transform:none;white-space:normal"/><rect x="112" y="-1246" width="8" height="26" ry="2" fill="#acacac"/><path d="m103-1246 13 13.5 13-13.5zm5.5 2h15l-7.5 7.75z" fill="#acacac"/><rect x="173" y="-1260" width="14" height="41" ry="3" fill="#565656"/><path d="m158.15-1259 21.852 22.691L201.854-1259v-2h-43.703z" color="#000" fill="#565656" style="font-feature-settings:normal;font-variant-alternates:normal;font-variant-caps:normal;font-variant-east-asian:normal;font-variant-ligatures:normal;font-variant-numeric:normal;font-variant-position:normal;font-variation-settings:normal;inline-size:0;isolation:auto;mix-blend-mode:normal;shape-margin:0;shape-padding:0;text-decoration-color:#000;text-decoration-line:none;text-decoration-style:solid;text-indent:0;text-orientation:mixed;text-transform:none;white-space:normal"/><rect x="174" y="-1260" width="12" height="38" ry="3" fill="#acacac"/><path d="m160.5-1260 19.5 20.25 19.5-20.25zm8.25 3h22.5L180-1245.375z" fill="#acacac"/><rect x="21" y="-1230" width="6" height="14" ry="1" fill="#565656"/><path d="M16-1231v1l8 8.191 8-8.191v-1zm6.61 3h2.78l-1.39 1.438z" color="#000" fill="#565656" style="font-feature-settings:normal;font-variant-alternates:normal;font-variant-caps:normal;font-variant-east-asian:normal;font-variant-ligatures:normal;font-variant-numeric:normal;font-variant-position:normal;font-variation-settings:normal;inline-size:0;isolation:auto;mix-blend-mode:normal;shape-margin:0;shape-padding:0;text-decoration-color:#000;text-decoration-line:none;text-decoration-style:solid;text-indent:0;text-orientation:mixed;text-transform:none;white-space:normal"/><rect x="22" y="-1230" width="4" height="13" ry="1" fill="#acacac"/><path d="m17.5-1230 6.5 6.75 6.5-6.75zm2.75 1h7.5l-3.75 3.875z" fill="#acacac"/><rect x="64" y="-1238" width="8" height="21" ry="1.5" fill="#565656"/><path d="M55.898-1239 68-1226.434 80.102-1239z" color="#000" fill="#565656" style="font-feature-settings:normal;font-variant-alternates:normal;font-variant-caps:normal;font-variant-east-asian:normal;font-variant-ligatures:normal;font-variant-numeric:normal;font-variant-position:normal;font-variation-settings:normal;inline-size:0;isolation:auto;mix-blend-mode:normal;shape-margin:0;shape-padding:0;text-decoration-color:#000;text-decoration-line:none;text-decoration-style:solid;text-indent:0;text-orientation:mixed;text-transform:none;white-space:normal"/><rect x="65" y="-1238" width="6" height="20" ry="1.5" fill="#acacac"/><path d="m58.25-1238 9.75 10.125L77.75-1238zm4.125 1.5h11.25L68-1230.687z" fill="#acacac"/><rect x="359" y="-1333" width="34" height="110" ry="8" fill="#565656"/><path d="M321.65-1334v3l54.352 56.441L430.354-1331v-3z" color="#000" fill="#565656" style="font-feature-settings:normal;font-variant-alternates:normal;font-variant-caps:normal;font-variant-east-asian:normal;font-variant-ligatures:normal;font-variant-numeric:normal;font-variant-position:normal;font-variation-settings:normal;inline-size:0;isolation:auto;mix-blend-mode:normal;shape-margin:0;shape-padding:0;text-decoration-color:#000;text-decoration-line:none;text-decoration-style:solid;text-indent:0;text-orientation:mixed;text-transform:none;white-space:normal"/><rect x="360" y="-1333" width="32" height="106" ry="8" fill="#acacac"/><path d="m324-1333 52 54 52-54zm22 8h60l-30 31z" fill="#acacac"/><rect x="559" y="-1450" width="66" height="217" ry="16" fill="#565656"/><path d="M485.65-1451v4L592-1336.56 698.35-1447v-4z" color="#000" fill="#565656" style="font-feature-settings:normal;font-variant-alternates:normal;font-variant-caps:normal;font-variant-east-asian:normal;font-variant-ligatures:normal;font-variant-numeric:normal;font-variant-position:normal;font-variation-settings:normal;inline-size:0;isolation:auto;mix-blend-mode:normal;shape-margin:0;shape-padding:0;text-decoration-color:#000;text-decoration-line:none;text-decoration-style:solid;text-indent:0;text-orientation:mixed;text-transform:none;white-space:normal"/><rect x="560" y="-1450" width="64" height="212" ry="16" fill="#acacac"/><path d="m488-1450 104 108 104-108zm44 16h120l-60 62z" fill="#acacac"/></g><g transform="translate(-100 -252)"><rect x="230" y="226" width="52" height="52" ry="4" fill="#cf3b00"/><path d="M234 226c-2.216 0-4 1.784-4 4v44c0 2.216 1.784 4 4 4h44c2.216 0 4-1.784 4-4v-44c0-2.216-1.784-4-4-4zm0 1h44c1.662 0 3 1.338 3 3v42c0 1.662-1.338 3-3 3h-44c-1.662 0-3-1.338-3-3v-42c0-1.662 1.338-3 3-3z" fill-opacity=".502"/><rect x="103" y="255" width="26" height="26" ry="2" fill="#cf3b00"/><path d="M105 255c-1.108 0-2 .892-2 2v22c0 1.108.892 2 2 2h22c1.108 0 2-.892 2-2v-22c0-1.108-.892-2-2-2zm0 1h22c.554 0 1 .446 1 1v21c0 .554-.446 1-1 1h-22c-.554 0-1-.446-1-1v-21c0-.554.446-1 1-1z" fill-opacity=".5"/><g fill="#fff" fill-opacity=".5"><path d="M105 256c-.554 0-1 .446-1 1v6c0 .554.446 1 1 1h10c.554 0 1-.446 1-1v-6c0-.554-.446-1-1-1zm1 2h8c.554 0 1 .446 1 1v3c0 .554-.446 1-1 1h-8c-.554 0-1-.446-1-1v-3c0-.554.446-1 1-1z"/><path d="M117 256c-.554 0-1 .446-1 1v6c0 .554.446 1 1 1h10c.554 0 1-.446 1-1v-6c0-.554-.446-1-1-1zm1 2h8c.554 0 1 .446 1 1v3c0 .554-.446 1-1 1h-8c-.554 0-1-.446-1-1v-3c0-.554.446-1 1-1z"/><path d="M111 264c-.554 0-1 .446-1 1v6c0 .554.446 1 1 1h10c.554 0 1-.446 1-1v-6c0-.554-.446-1-1-1zm1 2h8c.554 0 1 .446 1 1v3c0 .554-.446 1-1 1h-8c-.554 0-1-.446-1-1v-3c0-.554.446-1 1-1z"/><path d="M105 272c-.554 0-1 .446-1 1v5c0 .554.446 1 1 1h1c-.554 0-1-.446-1-1v-3c0-.554.446-1 1-1h8c.554 0 1 .446 1 1v3c0 .554-.446 1-1 1h2v-6c0-.554-.446-1-1-1z"/><path d="M117 272c-.554 0-1 .446-1 1v6h2c-.554 0-1-.446-1-1v-3c0-.554.446-1 1-1h8c.554 0 1 .446 1 1v3c0 .554-.446 1-1 1h1c.554 0 1-.446 1-1v-5c0-.554-.446-1-1-1z"/><path d="M123 264c-.554 0-1 .446-1 1v6c0 .554.446 1 1 1h4c.554 0 1-.446 1-1v-6c0-.554-.446-1-1-1zm1 2h2c.554 0 1 .446 1 1v3c0 .554-.446 1-1 1h-2c-.554 0-1-.446-1-1v-3c0-.554.446-1 1-1z"/><path d="M105 264c-.554 0-1 .446-1 1v6c0 .554.446 1 1 1h4c.554 0 1-.446 1-1v-6c0-.554-.446-1-1-1zm1 2h2c.554 0 1 .446 1 1v3c0 .554-.446 1-1 1h-2c-.554 0-1-.446-1-1v-3c0-.554.446-1 1-1z"/></g><rect x="17" y="269" width="14" height="14" ry="2" fill="#cf3b00"/><rect x="57" y="261" width="22" height="22" ry="2" fill="#cf3b00"/><path d="M19 269c-1.108 0-2 .892-2 2v10c0 1.108.892 2 2 2h10c1.108 0 2-.892 2-2v-10c0-1.108-.892-2-2-2zm0 1h10c.554 0 1 .446 1 1v10c0 .554-.446 1-1 1H19c-.554 0-1-.446-1-1v-10c0-.554.446-1 1-1z" fill-opacity=".5"/><path d="M59 261c-1.108 0-2 .892-2 2v18c0 1.108.892 2 2 2h18c1.108 0 2-.892 2-2v-18c0-1.108-.892-2-2-2zm0 1h18c.554 0 1 .446 1 1v18c0 .554-.446 1-1 1H59c-.554 0-1-.446-1-1v-18c0-.554.446-1 1-1z" fill-opacity=".5"/><path d="M19 270c-.554 0-1 .446-1 1v4c0 .554.446 1 1 1h4c.554 0 1-.446 1-1v-4c0-.554-.446-1-1-1zm0 1h4v4h-4z" fill="#fff" fill-opacity=".5"/><path d="M25 270c-.554 0-1 .446-1 1v4c0 .554.446 1 1 1h4c.554 0 1-.446 1-1v-4c0-.554-.446-1-1-1zm0 1h4v4h-4z" fill="#fff" fill-opacity=".5"/><path d="M22 276c-.554 0-1 .446-1 1v4c0 .554.446 1 1 1h4c.554 0 1-.446 1-1v-4c0-.554-.446-1-1-1zm0 1h4v4h-4z" fill="#fff" fill-opacity=".5"/><path d="M19 276c-.554 0-1 .446-1 1v4c0 .554.446 1 1 1h1c.554 0 1-.446 1-1v-4c0-.554-.446-1-1-1zm0 1h1v4h-1z" fill="#fff" fill-opacity=".5"/><path d="M28 276c-.554 0-1 .446-1 1v4c0 .554.446 1 1 1h1c.554 0 1-.446 1-1v-4c0-.554-.446-1-1-1zm0 1h1v4h-1z" fill="#fff" fill-opacity=".5"/><path d="M61 262c-.554 0-1 .446-1 1v2c0 .554.446 1 1 1h6c.554 0 1-.446 1-1v-2c0-.554-.446-1-1-1zm0 1h6v2h-6z" fill="#fff" fill-opacity=".5"/><path d="M69 262c-.554 0-1 .446-1 1v2c0 .554.446 1 1 1h6c.554 0 1-.446 1-1v-2c0-.554-.446-1-1-1zm0 1h6v2h-6z" fill="#fff" fill-opacity=".5"/><path d="M65 266c-.554 0-1 .446-1 1v2c0 .554.446 1 1 1h6c.554 0 1-.446 1-1v-2c0-.554-.446-1-1-1zm0 1h6v2h-6z" fill="#fff" fill-opacity=".5"/><path d="M59 266c-.554 0-1 .446-1 1v2c0 .554.446 1 1 1h4c.554 0 1-.446 1-1v-2c0-.554-.446-1-1-1zm0 1h4v2h-4z" fill="#fff" fill-opacity=".5"/><path d="M73 266c-.554 0-1 .446-1 1v2c0 .554.446 1 1 1h4c.554 0 1-.446 1-1v-2c0-.554-.446-1-1-1zm0 1h4v2h-4z" fill="#fff" fill-opacity=".5"/><path d="M61 270c-.554 0-1 .446-1 1v2c0 .554.446 1 1 1h6c.554 0 1-.446 1-1v-2c0-.554-.446-1-1-1zm0 1h6v2h-6z" fill="#fff" fill-opacity=".5"/><path d="M69 270c-.554 0-1 .446-1 1v2c0 .554.446 1 1 1h6c.554 0 1-.446 1-1v-2c0-.554-.446-1-1-1zm0 1h6v2h-6z" fill="#fff" fill-opacity=".5"/><path d="M65 274c-.554 0-1 .446-1 1v2c0 .554.446 1 1 1h6c.554 0 1-.446 1-1v-2c0-.554-.446-1-1-1zm0 1h6v2h-6z" fill="#fff" fill-opacity=".5"/><path d="M59 274c-.554 0-1 .446-1 1v2c0 .554.446 1 1 1h4c.554 0 1-.446 1-1v-2c0-.554-.446-1-1-1zm0 1h4v2h-4z" fill="#fff" fill-opacity=".5"/><path d="M73 274c-.554 0-1 .446-1 1v2c0 .554.446 1 1 1h4c.554 0 1-.446 1-1v-2c0-.554-.446-1-1-1zm0 1h4v2h-4z" fill="#fff" fill-opacity=".5"/><path d="M61 278c-.554 0-1 .446-1 1v2c0 .554.446 1 1 1h6c.554 0 1-.446 1-1v-2c0-.554-.446-1-1-1zm0 1h6v2h-6z" fill="#fff" fill-opacity=".5"/><path d="M69 278c-.554 0-1 .446-1 1v2c0 .554.446 1 1 1h6c.554 0 1-.446 1-1v-2c0-.554-.446-1-1-1zm0 1h6v2h-6z" fill="#fff" fill-opacity=".5"/><path d="M234 227c-.748 0-1.421.281-1.945.73-.025.088-.055.174-.055.27v6c0 .554.446 1 1 1h10c.554 0 1-.446 1-1v-6c0-.554-.446-1-1-1zm0 2h8c.554 0 1 .446 1 1v3c0 .554-.446 1-1 1h-8c-.554 0-1-.446-1-1v-3c0-.554.446-1 1-1z" fill="#fff" fill-opacity=".5"/><path d="M245 227c-.554 0-1 .446-1 1v6c0 .554.446 1 1 1h10c.554 0 1-.446 1-1v-6c0-.554-.446-1-1-1zm1 2h8c.554 0 1 .446 1 1v3c0 .554-.446 1-1 1h-8c-.554 0-1-.446-1-1v-3c0-.554.446-1 1-1z" fill="#fff" fill-opacity=".5"/><path d="M257 227c-.554 0-1 .446-1 1v6c0 .554.446 1 1 1h10c.554 0 1-.446 1-1v-6c0-.554-.446-1-1-1zm1 2h8c.554 0 1 .446 1 1v3c0 .554-.446 1-1 1h-8c-.554 0-1-.446-1-1v-3c0-.554.446-1 1-1z" fill="#fff" fill-opacity=".5"/><path d="M269 227c-.554 0-1 .446-1 1v6c0 .554.446 1 1 1h10c.554 0 1-.446 1-1v-6c0-.096-.03-.182-.055-.27A2.976 2.976 0 0 0 278 227zm1 2h8c.554 0 1 .446 1 1v3c0 .554-.446 1-1 1h-8c-.554 0-1-.446-1-1v-3c0-.554.446-1 1-1z" fill="#fff" fill-opacity=".5"/><path d="M239 235c-.554 0-1 .446-1 1v6c0 .554.446 1 1 1h10c.554 0 1-.446 1-1v-6c0-.554-.446-1-1-1zm1 2h8c.554 0 1 .446 1 1v3c0 .554-.446 1-1 1h-8c-.554 0-1-.446-1-1v-3c0-.554.446-1 1-1z" fill="#fff" fill-opacity=".5"/><path d="M251 235c-.554 0-1 .446-1 1v6c0 .554.446 1 1 1h10c.554 0 1-.446 1-1v-6c0-.554-.446-1-1-1zm1 2h8c.554 0 1 .446 1 1v3c0 .554-.446 1-1 1h-8c-.554 0-1-.446-1-1v-3c0-.554.446-1 1-1z" fill="#fff" fill-opacity=".5"/><path d="M263 235c-.554 0-1 .446-1 1v6c0 .554.446 1 1 1h10c.554 0 1-.446 1-1v-6c0-.554-.446-1-1-1zm1 2h8c.554 0 1 .446 1 1v3c0 .554-.446 1-1 1h-8c-.554 0-1-.446-1-1v-3c0-.554.446-1 1-1z" fill="#fff" fill-opacity=".5"/><g fill="#fff" fill-opacity=".5"><path d="M233 243c-.554 0-1 .446-1 1v6c0 .554.446 1 1 1h10c.554 0 1-.446 1-1v-6c0-.554-.446-1-1-1zm1 2h8c.554 0 1 .446 1 1v3c0 .554-.446 1-1 1h-8c-.554 0-1-.446-1-1v-3c0-.554.446-1 1-1z"/><path d="M245 243c-.554 0-1 .446-1 1v6c0 .554.446 1 1 1h10c.554 0 1-.446 1-1v-6c0-.554-.446-1-1-1zm1 2h8c.554 0 1 .446 1 1v3c0 .554-.446 1-1 1h-8c-.554 0-1-.446-1-1v-3c0-.554.446-1 1-1z"/><path d="M257 243c-.554 0-1 .446-1 1v6c0 .554.446 1 1 1h10c.554 0 1-.446 1-1v-6c0-.554-.446-1-1-1zm1 2h8c.554 0 1 .446 1 1v3c0 .554-.446 1-1 1h-8c-.554 0-1-.446-1-1v-3c0-.554.446-1 1-1z"/><path d="M269 243c-.554 0-1 .446-1 1v6c0 .554.446 1 1 1h10c.554 0 1-.446 1-1v-6c0-.554-.446-1-1-1zm1 2h8c.554 0 1 .446 1 1v3c0 .554-.446 1-1 1h-8c-.554 0-1-.446-1-1v-3c0-.554.446-1 1-1z"/><path d="M239 251c-.554 0-1 .446-1 1v6c0 .554.446 1 1 1h10c.554 0 1-.446 1-1v-6c0-.554-.446-1-1-1zm1 2h8c.554 0 1 .446 1 1v3c0 .554-.446 1-1 1h-8c-.554 0-1-.446-1-1v-3c0-.554.446-1 1-1z"/><path d="M251 251c-.554 0-1 .446-1 1v6c0 .554.446 1 1 1h10c.554 0 1-.446 1-1v-6c0-.554-.446-1-1-1zm1 2h8c.554 0 1 .446 1 1v3c0 .554-.446 1-1 1h-8c-.554 0-1-.446-1-1v-3c0-.554.446-1 1-1z"/><path d="M263 251c-.554 0-1 .446-1 1v6c0 .554.446 1 1 1h10c.554 0 1-.446 1-1v-6c0-.554-.446-1-1-1zm1 2h8c.554 0 1 .446 1 1v3c0 .554-.446 1-1 1h-8c-.554 0-1-.446-1-1v-3c0-.554.446-1 1-1z"/></g><g fill="#fff" fill-opacity=".5"><path d="M233 259c-.554 0-1 .446-1 1v6c0 .554.446 1 1 1h10c.554 0 1-.446 1-1v-6c0-.554-.446-1-1-1zm1 2h8c.554 0 1 .446 1 1v3c0 .554-.446 1-1 1h-8c-.554 0-1-.446-1-1v-3c0-.554.446-1 1-1z"/><path d="M245 259c-.554 0-1 .446-1 1v6c0 .554.446 1 1 1h10c.554 0 1-.446 1-1v-6c0-.554-.446-1-1-1zm1 2h8c.554 0 1 .446 1 1v3c0 .554-.446 1-1 1h-8c-.554 0-1-.446-1-1v-3c0-.554.446-1 1-1z"/><path d="M257 259c-.554 0-1 .446-1 1v6c0 .554.446 1 1 1h10c.554 0 1-.446 1-1v-6c0-.554-.446-1-1-1zm1 2h8c.554 0 1 .446 1 1v3c0 .554-.446 1-1 1h-8c-.554 0-1-.446-1-1v-3c0-.554.446-1 1-1z"/><path d="M269 259c-.554 0-1 .446-1 1v6c0 .554.446 1 1 1h10c.554 0 1-.446 1-1v-6c0-.554-.446-1-1-1zm1 2h8c.554 0 1 .446 1 1v3c0 .554-.446 1-1 1h-8c-.554 0-1-.446-1-1v-3c0-.554.446-1 1-1z"/><path d="M239 267c-.554 0-1 .446-1 1v6c0 .554.446 1 1 1h10c.554 0 1-.446 1-1v-6c0-.554-.446-1-1-1zm1 2h8c.554 0 1 .446 1 1v3c0 .554-.446 1-1 1h-8c-.554 0-1-.446-1-1v-3c0-.554.446-1 1-1z"/><path d="M251 267c-.554 0-1 .446-1 1v6c0 .554.446 1 1 1h10c.554 0 1-.446 1-1v-6c0-.554-.446-1-1-1zm1 2h8c.554 0 1 .446 1 1v3c0 .554-.446 1-1 1h-8c-.554 0-1-.446-1-1v-3c0-.554.446-1 1-1z"/><path d="M263 267c-.554 0-1 .446-1 1v6c0 .554.446 1 1 1h10c.554 0 1-.446 1-1v-6c0-.554-.446-1-1-1zm1 2h8c.554 0 1 .446 1 1v3c0 .554-.446 1-1 1h-8c-.554 0-1-.446-1-1v-3c0-.554.446-1 1-1z"/></g><path d="M275 235c-.554 0-1 .446-1 1v6c0 .554.446 1 1 1h5c.554 0 1-.446 1-1v-6c0-.554-.446-1-1-1zm1 2h3c.554 0 1 .446 1 1v3c0 .554-.446 1-1 1h-3c-.554 0-1-.446-1-1v-3c0-.554.446-1 1-1z" fill="#fff" fill-opacity=".5"/><path d="M232 235c-.554 0-1 .446-1 1v6c0 .554.446 1 1 1h5c.554 0 1-.446 1-1v-6c0-.554-.446-1-1-1zm1 2h3c.554 0 1 .446 1 1v3c0 .554-.446 1-1 1h-3c-.554 0-1-.446-1-1v-3c0-.554.446-1 1-1z" fill="#fff" fill-opacity=".5"/><path d="M232 251c-.554 0-1 .446-1 1v6c0 .554.446 1 1 1h5c.554 0 1-.446 1-1v-6c0-.554-.446-1-1-1zm1 2h3c.554 0 1 .446 1 1v3c0 .554-.446 1-1 1h-3c-.554 0-1-.446-1-1v-3c0-.554.446-1 1-1z" fill="#fff" fill-opacity=".5"/><path d="M275 251c-.554 0-1 .446-1 1v6c0 .554.446 1 1 1h5c.554 0 1-.446 1-1v-6c0-.554-.446-1-1-1zm1 2h3c.554 0 1 .446 1 1v3c0 .554-.446 1-1 1h-3c-.554 0-1-.446-1-1v-3c0-.554.446-1 1-1z" fill="#fff" fill-opacity=".5"/><path d="M275 267c-.554 0-1 .446-1 1v6c0 .554.446 1 1 1h3c1.662 0 3-1.338 3-3v-4c0-.554-.446-1-1-1zm1 2h3c.554 0 1 .446 1 1v3c0 .554-.446 1-1 1h-3c-.554 0-1-.446-1-1v-3c0-.554.446-1 1-1z" fill="#fff" fill-opacity=".5"/><path d="M232 267c-.554 0-1 .446-1 1v4c0 1.662 1.338 3 3 3h3c.554 0 1-.446 1-1v-6c0-.554-.446-1-1-1zm1 2h3c.554 0 1 .446 1 1v3c0 .554-.446 1-1 1h-3c-.554 0-1-.446-1-1v-3c0-.554.446-1 1-1z" fill="#fff" fill-opacity=".5"/><rect x="324" y="168" width="104" height="104" ry="8" fill="#cf3b00"/><path d="M332 168c-4.432 0-8 3.568-8 8v88c0 4.432 3.568 8 8 8h88c4.432 0 8-3.568 8-8v-88c0-4.432-3.568-8-8-8zm0 1h88c3.878 0 7 3.122 7 7v85c0 3.878-3.122 7-7 7h-88c-3.878 0-7-3.122-7-7v-85c0-3.878 3.122-7 7-7z" fill-opacity=".5"/><g fill="#fff" fill-opacity=".5"><path d="M330 170c-1.108 0-2 .892-2 2v12c0 1.108.892 2 2 2h20c1.108 0 2-.892 2-2v-12c0-1.108-.892-2-2-2zm0 3h20c.554 0 1 .446 1 1v10c0 .554-.446 1-1 1h-20c-.554 0-1-.446-1-1v-10c0-.554.446-1 1-1z"/><path d="M354 170c-1.108 0-2 .892-2 2v12c0 1.108.892 2 2 2h20c1.108 0 2-.892 2-2v-12c0-1.108-.892-2-2-2zm0 3h20c.554 0 1 .446 1 1v10c0 .554-.446 1-1 1h-20c-.554 0-1-.446-1-1v-10c0-.554.446-1 1-1z"/><path d="M378 170c-1.108 0-2 .892-2 2v12c0 1.108.892 2 2 2h20c1.108 0 2-.892 2-2v-12c0-1.108-.892-2-2-2zm0 3h20c.554 0 1 .446 1 1v10c0 .554-.446 1-1 1h-20c-.554 0-1-.446-1-1v-10c0-.554.446-1 1-1z"/><path d="M402 170c-1.108 0-2 .892-2 2v12c0 1.108.892 2 2 2h20c1.108 0 2-.892 2-2v-12c0-1.108-.892-2-2-2zm0 3h20c.554 0 1 .446 1 1v10c0 .554-.446 1-1 1h-20c-.554 0-1-.446-1-1v-10c0-.554.446-1 1-1z"/><path d="M342 186c-1.108 0-2 .892-2 2v12c0 1.108.892 2 2 2h20c1.108 0 2-.892 2-2v-12c0-1.108-.892-2-2-2zm0 3h20c.554 0 1 .446 1 1v10c0 .554-.446 1-1 1h-20c-.554 0-1-.446-1-1v-10c0-.554.446-1 1-1z"/><path d="M366 186c-1.108 0-2 .892-2 2v12c0 1.108.892 2 2 2h20c1.108 0 2-.892 2-2v-12c0-1.108-.892-2-2-2zm0 3h20c.554 0 1 .446 1 1v10c0 .554-.446 1-1 1h-20c-.554 0-1-.446-1-1v-10c0-.554.446-1 1-1z"/><path d="M390 186c-1.108 0-2 .892-2 2v12c0 1.108.892 2 2 2h20c1.108 0 2-.892 2-2v-12c0-1.108-.892-2-2-2zm0 3h20c.554 0 1 .446 1 1v10c0 .554-.446 1-1 1h-20c-.554 0-1-.446-1-1v-10c0-.554.446-1 1-1z"/><path d="M330 202c-1.108 0-2 .892-2 2v12c0 1.108.892 2 2 2h20c1.108 0 2-.892 2-2v-12c0-1.108-.892-2-2-2zm0 3h20c.554 0 1 .446 1 1v10c0 .554-.446 1-1 1h-20c-.554 0-1-.446-1-1v-10c0-.554.446-1 1-1z"/><path d="M354 202c-1.108 0-2 .892-2 2v12c0 1.108.892 2 2 2h20c1.108 0 2-.892 2-2v-12c0-1.108-.892-2-2-2zm0 3h20c.554 0 1 .446 1 1v10c0 .554-.446 1-1 1h-20c-.554 0-1-.446-1-1v-10c0-.554.446-1 1-1z"/><path d="M378 202c-1.108 0-2 .892-2 2v12c0 1.108.892 2 2 2h20c1.108 0 2-.892 2-2v-12c0-1.108-.892-2-2-2zm0 3h20c.554 0 1 .446 1 1v10c0 .554-.446 1-1 1h-20c-.554 0-1-.446-1-1v-10c0-.554.446-1 1-1z"/><path d="M402 202c-1.108 0-2 .892-2 2v12c0 1.108.892 2 2 2h20c1.108 0 2-.892 2-2v-12c0-1.108-.892-2-2-2zm0 3h20c.554 0 1 .446 1 1v10c0 .554-.446 1-1 1h-20c-.554 0-1-.446-1-1v-10c0-.554.446-1 1-1z"/><path d="M342 218c-1.108 0-2 .892-2 2v12c0 1.108.892 2 2 2h20c1.108 0 2-.892 2-2v-12c0-1.108-.892-2-2-2zm0 3h20c.554 0 1 .446 1 1v10c0 .554-.446 1-1 1h-20c-.554 0-1-.446-1-1v-10c0-.554.446-1 1-1z"/><path d="M366 218c-1.108 0-2 .892-2 2v12c0 1.108.892 2 2 2h20c1.108 0 2-.892 2-2v-12c0-1.108-.892-2-2-2zm0 3h20c.554 0 1 .446 1 1v10c0 .554-.446 1-1 1h-20c-.554 0-1-.446-1-1v-10c0-.554.446-1 1-1z"/><path d="M390 218c-1.108 0-2 .892-2 2v12c0 1.108.892 2 2 2h20c1.108 0 2-.892 2-2v-12c0-1.108-.892-2-2-2zm0 3h20c.554 0 1 .446 1 1v10c0 .554-.446 1-1 1h-20c-.554 0-1-.446-1-1v-10c0-.554.446-1 1-1z"/><path d="M330 234c-1.108 0-2 .892-2 2v12c0 1.108.892 2 2 2h20c1.108 0 2-.892 2-2v-12c0-1.108-.892-2-2-2zm0 3h20c.554 0 1 .446 1 1v10c0 .554-.446 1-1 1h-20c-.554 0-1-.446-1-1v-10c0-.554.446-1 1-1z"/><path d="M354 234c-1.108 0-2 .892-2 2v12c0 1.108.892 2 2 2h20c1.108 0 2-.892 2-2v-12c0-1.108-.892-2-2-2zm0 3h20c.554 0 1 .446 1 1v10c0 .554-.446 1-1 1h-20c-.554 0-1-.446-1-1v-10c0-.554.446-1 1-1z"/><path d="M378 234c-1.108 0-2 .892-2 2v12c0 1.108.892 2 2 2h20c1.108 0 2-.892 2-2v-12c0-1.108-.892-2-2-2zm0 3h20c.554 0 1 .446 1 1v10c0 .554-.446 1-1 1h-20c-.554 0-1-.446-1-1v-10c0-.554.446-1 1-1z"/><path d="M402 234c-1.108 0-2 .892-2 2v12c0 1.108.892 2 2 2h20c1.108 0 2-.892 2-2v-12c0-1.108-.892-2-2-2zm0 3h20c.554 0 1 .446 1 1v10c0 .554-.446 1-1 1h-20c-.554 0-1-.446-1-1v-10c0-.554.446-1 1-1z"/><path d="M342 250c-1.108 0-2 .892-2 2v12c0 1.108.892 2 2 2h20c1.108 0 2-.892 2-2v-12c0-1.108-.892-2-2-2zm0 3h20c.554 0 1 .446 1 1v10c0 .554-.446 1-1 1h-20c-.554 0-1-.446-1-1v-10c0-.554.446-1 1-1z"/><path d="M366 250c-1.108 0-2 .892-2 2v12c0 1.108.892 2 2 2h20c1.108 0 2-.892 2-2v-12c0-1.108-.892-2-2-2zm0 3h20c.554 0 1 .446 1 1v10c0 .554-.446 1-1 1h-20c-.554 0-1-.446-1-1v-10c0-.554.446-1 1-1z"/><path d="M390 250c-1.108 0-2 .892-2 2v12c0 1.108.892 2 2 2h20c1.108 0 2-.892 2-2v-12c0-1.108-.892-2-2-2zm0 3h20c.554 0 1 .446 1 1v10c0 .554-.446 1-1 1h-20c-.554 0-1-.446-1-1v-10c0-.554.446-1 1-1z"/><path d="M327 186c-1.108 0-2 .892-2 2v12c0 1.108.892 2 2 2h11c1.108 0 2-.892 2-2v-12c0-1.108-.892-2-2-2zm0 3h11c.554 0 1 .446 1 1v10c0 .554-.446 1-1 1h-11c-.554 0-1-.446-1-1v-10c0-.554.446-1 1-1z"/><path d="M414 186c-1.108 0-2 .892-2 2v12c0 1.108.892 2 2 2h11c1.108 0 2-.892 2-2v-12c0-1.108-.892-2-2-2zm0 3h11c.554 0 1 .446 1 1v10c0 .554-.446 1-1 1h-11c-.554 0-1-.446-1-1v-10c0-.554.446-1 1-1z"/><path d="M414 218c-1.108 0-2 .892-2 2v12c0 1.108.892 2 2 2h11c1.108 0 2-.892 2-2v-12c0-1.108-.892-2-2-2zm0 3h11c.554 0 1 .446 1 1v10c0 .554-.446 1-1 1h-11c-.554 0-1-.446-1-1v-10c0-.554.446-1 1-1z"/><path d="M327 218c-1.108 0-2 .892-2 2v12c0 1.108.892 2 2 2h11c1.108 0 2-.892 2-2v-12c0-1.108-.892-2-2-2zm0 3h11c.554 0 1 .446 1 1v10c0 .554-.446 1-1 1h-11c-.554 0-1-.446-1-1v-10c0-.554.446-1 1-1z"/><path d="M327 250c-1.108 0-2 .892-2 2v9c0 1.963.8 3.731 2.094 5H338c1.108 0 2-.892 2-2v-12c0-1.108-.892-2-2-2zm0 3h11c.554 0 1 .446 1 1v10c0 .554-.446 1-1 1h-11c-.554 0-1-.446-1-1v-10c0-.554.446-1 1-1z"/><path d="M414 250c-1.108 0-2 .892-2 2v12c0 1.108.892 2 2 2h10.906a6.977 6.977 0 0 0 2.094-5v-9c0-1.108-.892-2-2-2zm0 3h11c.554 0 1 .446 1 1v10c0 .554-.446 1-1 1h-11c-.554 0-1-.446-1-1v-10c0-.554.446-1 1-1z"/></g><rect x="488" y="52" width="208" height="208" ry="16" fill="#cf3b00"/><path d="M500 56c-2.216 0-4 1.784-4 4v24c0 2.216 1.784 4 4 4h40c2.216 0 4-1.784 4-4V60c0-2.216-1.784-4-4-4zm0 6h40c1.108 0 2 .892 2 2v20c0 1.108-.892 2-2 2h-40c-1.108 0-2-.892-2-2V64c0-1.108.892-2 2-2z" fill="#fff" fill-opacity=".5"/><path d="M548 56c-2.216 0-4 1.784-4 4v24c0 2.216 1.784 4 4 4h40c2.216 0 4-1.784 4-4V60c0-2.216-1.784-4-4-4zm0 6h40c1.108 0 2 .892 2 2v20c0 1.108-.892 2-2 2h-40c-1.108 0-2-.892-2-2V64c0-1.108.892-2 2-2z" fill="#fff" fill-opacity=".5"/><path d="M596 56c-2.216 0-4 1.784-4 4v24c0 2.216 1.784 4 4 4h40c2.216 0 4-1.784 4-4V60c0-2.216-1.784-4-4-4zm0 6h40c1.108 0 2 .892 2 2v20c0 1.108-.892 2-2 2h-40c-1.108 0-2-.892-2-2V64c0-1.108.892-2 2-2z" fill="#fff" fill-opacity=".5"/><path d="M644 56c-2.216 0-4 1.784-4 4v24c0 2.216 1.784 4 4 4h40c2.216 0 4-1.784 4-4V60c0-2.216-1.784-4-4-4zm0 6h40c1.108 0 2 .892 2 2v20c0 1.108-.892 2-2 2h-40c-1.108 0-2-.892-2-2V64c0-1.108.892-2 2-2z" fill="#fff" fill-opacity=".5"/><path d="M524 88c-2.216 0-4 1.784-4 4v24c0 2.216 1.784 4 4 4h40c2.216 0 4-1.784 4-4V92c0-2.216-1.784-4-4-4zm0 6h40c1.108 0 2 .892 2 2v20c0 1.108-.892 2-2 2h-40c-1.108 0-2-.892-2-2V96c0-1.108.892-2 2-2z" fill="#fff" fill-opacity=".5"/><path d="M572 88c-2.216 0-4 1.784-4 4v24c0 2.216 1.784 4 4 4h40c2.216 0 4-1.784 4-4V92c0-2.216-1.784-4-4-4zm0 6h40c1.108 0 2 .892 2 2v20c0 1.108-.892 2-2 2h-40c-1.108 0-2-.892-2-2V96c0-1.108.892-2 2-2z" fill="#fff" fill-opacity=".5"/><path d="M620 88c-2.216 0-4 1.784-4 4v24c0 2.216 1.784 4 4 4h40c2.216 0 4-1.784 4-4V92c0-2.216-1.784-4-4-4zm0 6h40c1.108 0 2 .892 2 2v20c0 1.108-.892 2-2 2h-40c-1.108 0-2-.892-2-2V96c0-1.108.892-2 2-2z" fill="#fff" fill-opacity=".5"/><g fill="#fff" fill-opacity=".5"><path d="M500 120c-2.216 0-4 1.784-4 4v24c0 2.216 1.784 4 4 4h40c2.216 0 4-1.784 4-4v-24c0-2.216-1.784-4-4-4zm0 6h40c1.108 0 2 .892 2 2v20c0 1.108-.892 2-2 2h-40c-1.108 0-2-.892-2-2v-20c0-1.108.892-2 2-2z"/><path d="M548 120c-2.216 0-4 1.784-4 4v24c0 2.216 1.784 4 4 4h40c2.216 0 4-1.784 4-4v-24c0-2.216-1.784-4-4-4zm0 6h40c1.108 0 2 .892 2 2v20c0 1.108-.892 2-2 2h-40c-1.108 0-2-.892-2-2v-20c0-1.108.892-2 2-2z"/><path d="M596 120c-2.216 0-4 1.784-4 4v24c0 2.216 1.784 4 4 4h40c2.216 0 4-1.784 4-4v-24c0-2.216-1.784-4-4-4zm0 6h40c1.108 0 2 .892 2 2v20c0 1.108-.892 2-2 2h-40c-1.108 0-2-.892-2-2v-20c0-1.108.892-2 2-2z"/><path d="M644 120c-2.216 0-4 1.784-4 4v24c0 2.216 1.784 4 4 4h40c2.216 0 4-1.784 4-4v-24c0-2.216-1.784-4-4-4zm0 6h40c1.108 0 2 .892 2 2v20c0 1.108-.892 2-2 2h-40c-1.108 0-2-.892-2-2v-20c0-1.108.892-2 2-2z"/><path d="M524 152c-2.216 0-4 1.784-4 4v24c0 2.216 1.784 4 4 4h40c2.216 0 4-1.784 4-4v-24c0-2.216-1.784-4-4-4zm0 6h40c1.108 0 2 .892 2 2v20c0 1.108-.892 2-2 2h-40c-1.108 0-2-.892-2-2v-20c0-1.108.892-2 2-2z"/><path d="M572 152c-2.216 0-4 1.784-4 4v24c0 2.216 1.784 4 4 4h40c2.216 0 4-1.784 4-4v-24c0-2.216-1.784-4-4-4zm0 6h40c1.108 0 2 .892 2 2v20c0 1.108-.892 2-2 2h-40c-1.108 0-2-.892-2-2v-20c0-1.108.892-2 2-2z"/><path d="M620 152c-2.216 0-4 1.784-4 4v24c0 2.216 1.784 4 4 4h40c2.216 0 4-1.784 4-4v-24c0-2.216-1.784-4-4-4zm0 6h40c1.108 0 2 .892 2 2v20c0 1.108-.892 2-2 2h-40c-1.108 0-2-.892-2-2v-20c0-1.108.892-2 2-2z"/></g><g fill="#fff" fill-opacity=".5"><path d="M500 184c-2.216 0-4 1.784-4 4v24c0 2.216 1.784 4 4 4h40c2.216 0 4-1.784 4-4v-24c0-2.216-1.784-4-4-4zm0 6h40c1.108 0 2 .892 2 2v20c0 1.108-.892 2-2 2h-40c-1.108 0-2-.892-2-2v-20c0-1.108.892-2 2-2z"/><path d="M548 184c-2.216 0-4 1.784-4 4v24c0 2.216 1.784 4 4 4h40c2.216 0 4-1.784 4-4v-24c0-2.216-1.784-4-4-4zm0 6h40c1.108 0 2 .892 2 2v20c0 1.108-.892 2-2 2h-40c-1.108 0-2-.892-2-2v-20c0-1.108.892-2 2-2z"/><path d="M596 184c-2.216 0-4 1.784-4 4v24c0 2.216 1.784 4 4 4h40c2.216 0 4-1.784 4-4v-24c0-2.216-1.784-4-4-4zm0 6h40c1.108 0 2 .892 2 2v20c0 1.108-.892 2-2 2h-40c-1.108 0-2-.892-2-2v-20c0-1.108.892-2 2-2z"/><path d="M644 184c-2.216 0-4 1.784-4 4v24c0 2.216 1.784 4 4 4h40c2.216 0 4-1.784 4-4v-24c0-2.216-1.784-4-4-4zm0 6h40c1.108 0 2 .892 2 2v20c0 1.108-.892 2-2 2h-40c-1.108 0-2-.892-2-2v-20c0-1.108.892-2 2-2z"/><path d="M524 216c-2.216 0-4 1.784-4 4v24c0 2.216 1.784 4 4 4h40c2.216 0 4-1.784 4-4v-24c0-2.216-1.784-4-4-4zm0 6h40c1.108 0 2 .892 2 2v20c0 1.108-.892 2-2 2h-40c-1.108 0-2-.892-2-2v-20c0-1.108.892-2 2-2z"/><path d="M572 216c-2.216 0-4 1.784-4 4v24c0 2.216 1.784 4 4 4h40c2.216 0 4-1.784 4-4v-24c0-2.216-1.784-4-4-4zm0 6h40c1.108 0 2 .892 2 2v20c0 1.108-.892 2-2 2h-40c-1.108 0-2-.892-2-2v-20c0-1.108.892-2 2-2z"/><path d="M620 216c-2.216 0-4 1.784-4 4v24c0 2.216 1.784 4 4 4h40c2.216 0 4-1.784 4-4v-24c0-2.216-1.784-4-4-4zm0 6h40c1.108 0 2 .892 2 2v20c0 1.108-.892 2-2 2h-40c-1.108 0-2-.892-2-2v-20c0-1.108.892-2 2-2z"/></g><path d="M494 88c-2.216 0-4 1.784-4 4v24c0 2.216 1.784 4 4 4h22c2.216 0 4-1.784 4-4V92c0-2.216-1.784-4-4-4zm0 6h22c1.108 0 2 .892 2 2v20c0 1.108-.892 2-2 2h-22c-1.108 0-2-.892-2-2V96c0-1.108.892-2 2-2z" fill="#fff" fill-opacity=".5"/><path d="M668 88c-2.216 0-4 1.784-4 4v24c0 2.216 1.784 4 4 4h22c2.216 0 4-1.784 4-4V92c0-2.216-1.784-4-4-4zm0 6h22c1.108 0 2 .892 2 2v20c0 1.108-.892 2-2 2h-22c-1.108 0-2-.892-2-2V96c0-1.108.892-2 2-2z" fill="#fff" fill-opacity=".5"/><path d="M668 152c-2.216 0-4 1.784-4 4v24c0 2.216 1.784 4 4 4h22c2.216 0 4-1.784 4-4v-24c0-2.216-1.784-4-4-4zm0 6h22c1.108 0 2 .892 2 2v20c0 1.108-.892 2-2 2h-22c-1.108 0-2-.892-2-2v-20c0-1.108.892-2 2-2z" fill="#fff" fill-opacity=".5"/><path d="M494 152c-2.216 0-4 1.784-4 4v24c0 2.216 1.784 4 4 4h22c2.216 0 4-1.784 4-4v-24c0-2.216-1.784-4-4-4zm0 6h22c1.108 0 2 .892 2 2v20c0 1.108-.892 2-2 2h-22c-1.108 0-2-.892-2-2v-20c0-1.108.892-2 2-2z" fill="#fff" fill-opacity=".5"/><path d="M504 52c-8.864 0-16 7.136-16 16v176c0 8.864 7.136 16 16 16h176c8.864 0 16-7.136 16-16V68c0-8.864-7.136-16-16-16zm0 1h176c8.31 0 15 6.69 15 15v172c0 8.31-6.69 15-15 15H504c-8.31 0-15-6.69-15-15V68c0-8.31 6.69-15 15-15z" fill-opacity=".5"/><path d="M494 216c-2.216 0-4 1.784-4 4v24c0 2.216 1.784 4 4 4h22c2.216 0 4-1.784 4-4v-24c0-2.216-1.784-4-4-4zm0 6h22c1.108 0 2 .892 2 2v20c0 1.108-.892 2-2 2h-22c-1.108 0-2-.892-2-2v-20c0-1.108.892-2 2-2z" fill="#fff" fill-opacity=".5"/><path d="M668 216c-2.216 0-4 1.784-4 4v24c0 2.216 1.784 4 4 4h22c2.216 0 4-1.784 4-4v-24c0-2.216-1.784-4-4-4zm0 6h22c1.108 0 2 .892 2 2v20c0 1.108-.892 2-2 2h-22c-1.108 0-2-.892-2-2v-20c0-1.108.892-2 2-2z" fill="#fff" fill-opacity=".5"/><rect x="160" y="240" width="40" height="39" ry="3" fill="#cf3b00"/><path d="M163 240c-1.662 0-3 1.338-3 3v33c0 1.662 1.338 3 3 3h34c1.662 0 3-1.338 3-3v-33c0-1.662-1.338-3-3-3zm0 1h34c1.108 0 2 .892 2 2v31c0 1.108-.892 2-2 2h-34c-1.108 0-2-.892-2-2v-31c0-1.108.892-2 2-2z" fill-opacity=".5"/><path d="M163 241c-.554 0-1 .446-1 1v7c0 .554.446 1 1 1h10c.554 0 1-.446 1-1v-7c0-.554-.446-1-1-1zm1 2h8c.554 0 1 .446 1 1v4c0 .554-.446 1-1 1h-8c-.554 0-1-.446-1-1v-4c0-.554.446-1 1-1z" fill="#fff" fill-opacity=".5"/><path d="M175 241c-.554 0-1 .446-1 1v7c0 .554.446 1 1 1h10c.554 0 1-.446 1-1v-7c0-.554-.446-1-1-1zm1 2h8c.554 0 1 .446 1 1v4c0 .554-.446 1-1 1h-8c-.554 0-1-.446-1-1v-4c0-.554.446-1 1-1z" fill="#fff" fill-opacity=".5"/><path d="M187 241c-.554 0-1 .446-1 1v7c0 .554.446 1 1 1h10c.554 0 1-.446 1-1v-7c0-.554-.446-1-1-1zm1 2h8c.554 0 1 .446 1 1v4c0 .554-.446 1-1 1h-8c-.554 0-1-.446-1-1v-4c0-.554.446-1 1-1z" fill="#fff" fill-opacity=".5"/><path d="M169 250c-.554 0-1 .446-1 1v7c0 .554.446 1 1 1h10c.554 0 1-.446 1-1v-7c0-.554-.446-1-1-1zm1 2h8c.554 0 1 .446 1 1v4c0 .554-.446 1-1 1h-8c-.554 0-1-.446-1-1v-4c0-.554.446-1 1-1z" fill="#fff" fill-opacity=".5"/><path d="M181 250c-.554 0-1 .446-1 1v7c0 .554.446 1 1 1h10c.554 0 1-.446 1-1v-7c0-.554-.446-1-1-1zm1 2h8c.554 0 1 .446 1 1v4c0 .554-.446 1-1 1h-8c-.554 0-1-.446-1-1v-4c0-.554.446-1 1-1z" fill="#fff" fill-opacity=".5"/><path d="M163 259c-.554 0-1 .446-1 1v6c0 .554.446 1 1 1h10c.554 0 1-.446 1-1v-6c0-.554-.446-1-1-1zm1 2h8c.554 0 1 .446 1 1v3c0 .554-.446 1-1 1h-8c-.554 0-1-.446-1-1v-3c0-.554.446-1 1-1z" fill="#fff" fill-opacity=".5"/><path d="M175 259c-.554 0-1 .446-1 1v6c0 .554.446 1 1 1h10c.554 0 1-.446 1-1v-6c0-.554-.446-1-1-1zm1 2h8c.554 0 1 .446 1 1v3c0 .554-.446 1-1 1h-8c-.554 0-1-.446-1-1v-3c0-.554.446-1 1-1z" fill="#fff" fill-opacity=".5"/><path d="M187 259c-.554 0-1 .446-1 1v6c0 .554.446 1 1 1h10c.554 0 1-.446 1-1v-6c0-.554-.446-1-1-1zm1 2h8c.554 0 1 .446 1 1v3c0 .554-.446 1-1 1h-8c-.554 0-1-.446-1-1v-3c0-.554.446-1 1-1z" fill="#fff" fill-opacity=".5"/><path d="M169 267c-.554 0-1 .446-1 1v7c0 .554.446 1 1 1h10c.554 0 1-.446 1-1v-7c0-.554-.446-1-1-1zm1 2h8c.554 0 1 .446 1 1v4c0 .554-.446 1-1 1h-8c-.554 0-1-.446-1-1v-4c0-.554.446-1 1-1z" fill="#fff" fill-opacity=".5"/><path d="M181 267c-.554 0-1 .446-1 1v7c0 .554.446 1 1 1h10c.554 0 1-.446 1-1v-7c0-.554-.446-1-1-1zm1 2h8c.554 0 1 .446 1 1v4c0 .554-.446 1-1 1h-8c-.554 0-1-.446-1-1v-4c0-.554.446-1 1-1z" fill="#fff" fill-opacity=".5"/><path d="M193 250c-.554 0-1 .446-1 1v7c0 .554.446 1 1 1h5c.554 0 1-.446 1-1v-7c0-.554-.446-1-1-1zm1 2h3c.554 0 1 .446 1 1v4c0 .554-.446 1-1 1h-3c-.554 0-1-.446-1-1v-4c0-.554.446-1 1-1z" fill="#fff" fill-opacity=".5"/><path d="M193 267c-.554 0-1 .446-1 1v7c0 .554.446 1 1 1h5c.554 0 1-.446 1-1v-7c0-.554-.446-1-1-1zm1 2h3c.554 0 1 .446 1 1v4c0 .554-.446 1-1 1h-3c-.554 0-1-.446-1-1v-4c0-.554.446-1 1-1z" fill="#fff" fill-opacity=".5"/><path d="M162 267c-.554 0-1 .446-1 1v7c0 .554.446 1 1 1h5c.554 0 1-.446 1-1v-7c0-.554-.446-1-1-1zm1 2h3c.554 0 1 .446 1 1v4c0 .554-.446 1-1 1h-3c-.554 0-1-.446-1-1v-4c0-.554.446-1 1-1z" fill="#fff" fill-opacity=".5"/><path d="M162 250c-.554 0-1 .446-1 1v7c0 .554.446 1 1 1h5c.554 0 1-.446 1-1v-7c0-.554-.446-1-1-1zm1 2h3c.554 0 1 .446 1 1v4c0 .554-.446 1-1 1h-3c-.554 0-1-.446-1-1v-4c0-.554.446-1 1-1z" fill="#fff" fill-opacity=".5"/></g></svg>