<svg version="1.0" viewBox="0 0 32 32" xmlns="http://www.w3.org/2000/svg"><g stroke-linecap="square" transform="translate(-100 -252)"><g stroke-width="2"><rect x="230" y="262" width="52" height="16" ry="4" fill="#444"/><rect transform="rotate(45)" x="357.56" y="14.86" width="4" height="12" ry="2"/><rect transform="rotate(45)" x="363.75" y="8.672" width="4" height="12" ry="2"/><rect transform="rotate(45)" x="369.94" y="2.485" width="4" height="12" ry="2"/><path d="M234 262c-2.216 0-4 1.784-4 4v8c0 2.216 1.784 4 4 4h44c2.216 0 4-1.784 4-4v-8c0-2.216-1.784-4-4-4zm0 1h44c1.662 0 3 1.338 3 3v7c0 1.662-1.338 3-3 3h-44c-1.662 0-3-1.338-3-3v-7c0-1.662 1.338-3 3-3z" fill="#fff" fill-opacity=".5"/><circle cx="268" cy="270" r="2" fill="#73c48f"/><circle cx="273" cy="270" r="2" fill="#f15d22"/><circle cx="278" cy="270" r="2" fill="#faa41a"/></g><rect x="160" y="267" width="40" height="12" ry="3" fill="#444"/><rect transform="rotate(45)" x="308.21" y="70.453" width="3" height="9" ry="1.5"/><rect transform="rotate(45)" x="313.34" y="65.327" width="3" height="9" ry="1.5"/><rect transform="rotate(45)" x="318.47" y="60.2" width="3" height="9" ry="1.5"/><circle cx="187.5" cy="272.5" r="1.5" fill="#73c48f"/><circle cx="191.5" cy="272.5" r="1.5" fill="#f15d22"/><circle cx="195.5" cy="272.5" r="1.5" fill="#faa41a"/><rect x="16" y="278" width="16" height="5" ry="1" fill="#444"/><rect transform="rotate(45)" x="210.92" y="183.76" width="1" height="3" ry=".5"/><rect transform="rotate(45)" x="212.52" y="182.17" width="1" height="3" ry=".5"/><rect transform="rotate(45)" x="214.11" y="180.58" width="1" height="3" ry=".5"/><circle cx="25.5" cy="280.5" r=".5" fill="#73c48f"/><circle cx="27.5" cy="280.5" r=".5" fill="#f15d22"/><circle cx="29.5" cy="280.5" r=".5" fill="#faa41a"/><rect x="25" y="280" width="1" height="1" ry="0" fill="#73c48f"/><path fill="#f15d22" d="M27 280h1v1h-1z"/><path fill="#faa41a" d="M29 280h1v1h-1z"/><path d="M163 267c-1.662 0-3 1.338-3 3v6c0 1.662 1.338 3 3 3h34c1.662 0 3-1.338 3-3v-6c0-1.662-1.338-3-3-3zm0 1h34c1.108 0 2 .892 2 2v4c0 1.108-.892 2-2 2h-34c-1.108 0-2-.892-2-2v-4c0-1.108.892-2 2-2z" fill="#f8f8f8" fill-opacity=".5"/><rect x="103" y="273" width="26" height="8" ry="2" fill="#444"/><rect transform="rotate(45)" x="270.71" y="116.32" width="2" height="6" ry="1"/><rect transform="rotate(45)" x="273.45" y="113.58" width="2" height="6" ry="1"/><rect transform="rotate(45)" x="276.19" y="110.84" width="2" height="6" ry="1"/><circle cx="120" cy="276" r="1" fill="#73c48f"/><circle cx="123" cy="276" r="1" fill="#f15d22"/><circle cx="126" cy="276" r="1" fill="#faa41a"/><path d="M105 273c-1.108 0-2 .892-2 2v4c0 1.108.892 2 2 2h22c1.108 0 2-.892 2-2v-4c0-1.108-.892-2-2-2zm0 1h22c.554 0 1 .446 1 1v3c0 .554-.446 1-1 1h-22c-.554 0-1-.446-1-1v-3c0-.554.446-1 1-1z" fill="#f8f8f8" fill-opacity=".5"/><path d="M17 278c-.554 0-1 .446-1 1v3c0 .554.446 1 1 1h14c.554 0 1-.446 1-1v-3c0-.554-.446-1-1-1zm0 1h14v3H17z" fill="#fff" fill-opacity=".5"/><rect x="56" y="276" width="24" height="7" ry="1.5" fill="#444"/><rect transform="rotate(45)" x="240.2" y="152.08" width="1.5" height="4.5" ry=".75"/><rect transform="rotate(45)" x="242.76" y="149.51" width="1.5" height="4.5" ry=".75"/><rect transform="rotate(45)" x="245.32" y="146.95" width="1.5" height="4.5" ry=".75"/><rect x="73" y="279" width="1" height="1" ry="0" fill="#73c48f"/><path fill="#f15d22" d="M75 279h1v1h-1z"/><path fill="#faa41a" d="M77 279h1v1h-1z"/><path d="M57.5 276c-.831 0-1.5.669-1.5 1.5v4c0 .831.669 1.5 1.5 1.5h21c.831 0 1.5-.669 1.5-1.5v-4c0-.831-.669-1.5-1.5-1.5zm0 1h21c.277 0 .5.223.5.5v4c0 .277-.223.5-.5.5h-21a.499.499 0 0 1-.5-.5v-4c0-.277.223-.5.5-.5z" fill="#fff" fill-opacity=".5"/><g stroke-width="4"><rect x="324" y="240" width="104" height="32" ry="8" fill="#444"/><rect transform="rotate(45)" x="418.14" y="-74.932" width="8" height="24" ry="4"/><rect transform="rotate(45)" x="430.52" y="-87.307" width="8" height="24" ry="4"/><rect transform="rotate(45)" x="442.89" y="-99.681" width="8" height="24" ry="4"/><circle cx="400" cy="256" r="4" fill="#73c48f"/><circle cx="410" cy="256" r="4" fill="#f15d22"/><circle cx="420" cy="256" r="4" fill="#faa41a"/><path d="M332 240c-4.432 0-8 3.568-8 8v16c0 4.432 3.568 8 8 8h88c4.432 0 8-3.568 8-8v-16c0-4.432-3.568-8-8-8zm0 1h88c3.878 0 7 3.122 7 7v13c0 3.878-3.122 7-7 7h-88c-3.878 0-7-3.122-7-7v-13c0-3.878 3.122-7 7-7z" fill="#f8f8f8" fill-opacity=".5"/></g><g stroke-width="8"><rect x="488" y="196" width="208" height="64" ry="16" fill="#444"/><rect transform="rotate(45)" x="522.33" y="-237.55" width="16" height="48" ry="8"/><rect transform="rotate(45)" x="547.08" y="-262.3" width="16" height="48" ry="8"/><rect transform="rotate(45)" x="571.83" y="-287.04" width="16" height="48" ry="8"/><circle cx="640" cy="228" r="8" fill="#73c48f"/><circle cx="660" cy="228" r="8" fill="#f15d22"/><circle cx="680" cy="228" r="8" fill="#faa41a"/><path d="M504 196c-8.864 0-16 7.136-16 16v32c0 8.864 7.136 16 16 16h176c8.864 0 16-7.136 16-16v-32c0-8.864-7.136-16-16-16zm0 1h176c8.31 0 15 6.69 15 15v28c0 8.31-6.69 15-15 15H504c-8.31 0-15-6.69-15-15v-28c0-8.31 6.69-15 15-15z" fill="#f8f8f8" fill-opacity=".5"/></g><rect x="16" y="273" width="16" height="5" ry="1" fill="#444"/><rect transform="rotate(45)" x="207.39" y="180.23" width="1" height="3" ry=".5"/><rect transform="rotate(45)" x="208.98" y="178.64" width="1" height="3" ry=".5"/><rect transform="rotate(45)" x="210.57" y="177.04" width="1" height="3" ry=".5"/><circle cx="25.5" cy="275.5" r=".5" fill="#73c48f"/><circle cx="27.5" cy="275.5" r=".5" fill="#f15d22"/><circle cx="29.5" cy="275.5" r=".5" fill="#faa41a"/><rect x="25" y="275" width="1" height="1" ry="0" fill="#73c48f"/><path fill="#f15d22" d="M27 275h1v1h-1z"/><path fill="#faa41a" d="M29 275h1v1h-1z"/><path d="M17 273c-.554 0-1 .446-1 1v3c0 .554.446 1 1 1h14c.554 0 1-.446 1-1v-3c0-.554-.446-1-1-1zm0 1h14v3H17z" fill="#fff" fill-opacity=".5"/><g transform="translate(0 -5)"><rect x="16" y="273" width="16" height="5" ry="1" fill="#444"/><rect transform="rotate(45)" x="207.39" y="180.23" width="1" height="3" ry=".5"/><rect transform="rotate(45)" x="208.98" y="178.64" width="1" height="3" ry=".5"/><rect transform="rotate(45)" x="210.57" y="177.04" width="1" height="3" ry=".5"/><circle cx="25.5" cy="275.5" r=".5" fill="#73c48f"/><circle cx="27.5" cy="275.5" r=".5" fill="#f15d22"/><circle cx="29.5" cy="275.5" r=".5" fill="#faa41a"/><rect x="25" y="275" width="1" height="1" ry="0" fill="#73c48f"/><path fill="#f15d22" d="M27 275h1v1h-1z"/><path fill="#faa41a" d="M29 275h1v1h-1z"/><path d="M17 273c-.554 0-1 .446-1 1v3c0 .554.446 1 1 1h14c.554 0 1-.446 1-1v-3c0-.554-.446-1-1-1zm0 1h14v3H17z" fill="#fff" fill-opacity=".5"/></g><g transform="translate(0 -7)"><rect x="56" y="276" width="24" height="7" ry="1.5" fill="#444"/><rect transform="rotate(45)" x="240.2" y="152.08" width="1.5" height="4.5" ry=".75"/><rect transform="rotate(45)" x="242.76" y="149.51" width="1.5" height="4.5" ry=".75"/><rect transform="rotate(45)" x="245.32" y="146.95" width="1.5" height="4.5" ry=".75"/><rect x="73" y="279" width="1" height="1" ry="0" fill="#73c48f"/><path fill="#f15d22" d="M75 279h1v1h-1z"/><path fill="#faa41a" d="M77 279h1v1h-1z"/><path d="M57.5 276c-.831 0-1.5.669-1.5 1.5v4c0 .831.669 1.5 1.5 1.5h21c.831 0 1.5-.669 1.5-1.5v-4c0-.831-.669-1.5-1.5-1.5zm0 1h21c.277 0 .5.223.5.5v4c0 .277-.223.5-.5.5h-21a.499.499 0 0 1-.5-.5v-4c0-.277.223-.5.5-.5z" fill="#fff" fill-opacity=".5"/></g><g transform="translate(0 -14)"><rect x="56" y="276" width="24" height="7" ry="1.5" fill="#444"/><rect transform="rotate(45)" x="240.2" y="152.08" width="1.5" height="4.5" ry=".75"/><rect transform="rotate(45)" x="242.76" y="149.51" width="1.5" height="4.5" ry=".75"/><rect transform="rotate(45)" x="245.32" y="146.95" width="1.5" height="4.5" ry=".75"/><rect x="73" y="279" width="1" height="1" ry="0" fill="#73c48f"/><path fill="#f15d22" d="M75 279h1v1h-1z"/><path fill="#faa41a" d="M77 279h1v1h-1z"/><path d="M57.5 276c-.831 0-1.5.669-1.5 1.5v4c0 .831.669 1.5 1.5 1.5h21c.831 0 1.5-.669 1.5-1.5v-4c0-.831-.669-1.5-1.5-1.5zm0 1h21c.277 0 .5.223.5.5v4c0 .277-.223.5-.5.5h-21a.499.499 0 0 1-.5-.5v-4c0-.277.223-.5.5-.5z" fill="#fff" fill-opacity=".5"/></g><g transform="translate(0 -7)"><rect x="103" y="273" width="26" height="8" ry="2" fill="#444"/><rect transform="rotate(45)" x="270.71" y="116.32" width="2" height="6" ry="1"/><rect transform="rotate(45)" x="273.45" y="113.58" width="2" height="6" ry="1"/><rect transform="rotate(45)" x="276.19" y="110.84" width="2" height="6" ry="1"/><circle cx="120" cy="276" r="1" fill="#73c48f"/><circle cx="123" cy="276" r="1" fill="#f15d22"/><circle cx="126" cy="276" r="1" fill="#faa41a"/><path d="M105 273c-1.108 0-2 .892-2 2v4c0 1.108.892 2 2 2h22c1.108 0 2-.892 2-2v-4c0-1.108-.892-2-2-2zm0 1h22c.554 0 1 .446 1 1v3c0 .554-.446 1-1 1h-22c-.554 0-1-.446-1-1v-3c0-.554.446-1 1-1z" fill="#f8f8f8" fill-opacity=".5"/></g><g transform="translate(0 -14)"><rect x="103" y="273" width="26" height="8" ry="2" fill="#444"/><rect transform="rotate(45)" x="270.71" y="116.32" width="2" height="6" ry="1"/><rect transform="rotate(45)" x="273.45" y="113.58" width="2" height="6" ry="1"/><rect transform="rotate(45)" x="276.19" y="110.84" width="2" height="6" ry="1"/><circle cx="120" cy="276" r="1" fill="#73c48f"/><circle cx="123" cy="276" r="1" fill="#f15d22"/><circle cx="126" cy="276" r="1" fill="#faa41a"/><path d="M105 273c-1.108 0-2 .892-2 2v4c0 1.108.892 2 2 2h22c1.108 0 2-.892 2-2v-4c0-1.108-.892-2-2-2zm0 1h22c.554 0 1 .446 1 1v3c0 .554-.446 1-1 1h-22c-.554 0-1-.446-1-1v-3c0-.554.446-1 1-1z" fill="#f8f8f8" fill-opacity=".5"/></g><g transform="translate(0 -11)" stroke-width="1.5"><rect x="160" y="267" width="40" height="12" ry="3" fill="#444"/><rect transform="rotate(45)" x="308.21" y="70.453" width="3" height="9" ry="1.5"/><rect transform="rotate(45)" x="313.34" y="65.327" width="3" height="9" ry="1.5"/><rect transform="rotate(45)" x="318.47" y="60.2" width="3" height="9" ry="1.5"/><circle cx="187.5" cy="272.5" r="1.5" fill="#73c48f"/><circle cx="191.5" cy="272.5" r="1.5" fill="#f15d22"/><circle cx="195.5" cy="272.5" r="1.5" fill="#faa41a"/><path d="M163 267c-1.662 0-3 1.338-3 3v6c0 1.662 1.338 3 3 3h34c1.662 0 3-1.338 3-3v-6c0-1.662-1.338-3-3-3zm0 1h34c1.108 0 2 .892 2 2v4c0 1.108-.892 2-2 2h-34c-1.108 0-2-.892-2-2v-4c0-1.108.892-2 2-2z" fill="#f8f8f8" fill-opacity=".5"/></g><g transform="translate(0 -22)" stroke-width="1.5"><rect x="160" y="267" width="40" height="12" ry="3" fill="#444"/><rect transform="rotate(45)" x="308.21" y="70.453" width="3" height="9" ry="1.5"/><rect transform="rotate(45)" x="313.34" y="65.327" width="3" height="9" ry="1.5"/><rect transform="rotate(45)" x="318.47" y="60.2" width="3" height="9" ry="1.5"/><circle cx="187.5" cy="272.5" r="1.5" fill="#73c48f"/><circle cx="191.5" cy="272.5" r="1.5" fill="#f15d22"/><circle cx="195.5" cy="272.5" r="1.5" fill="#faa41a"/><path d="M163 267c-1.662 0-3 1.338-3 3v6c0 1.662 1.338 3 3 3h34c1.662 0 3-1.338 3-3v-6c0-1.662-1.338-3-3-3zm0 1h34c1.108 0 2 .892 2 2v4c0 1.108-.892 2-2 2h-34c-1.108 0-2-.892-2-2v-4c0-1.108.892-2 2-2z" fill="#f8f8f8" fill-opacity=".5"/></g><g transform="translate(0 -16)" stroke-width="2"><rect x="230" y="262" width="52" height="16" ry="4" fill="#444"/><rect transform="rotate(45)" x="357.56" y="14.86" width="4" height="12" ry="2"/><rect transform="rotate(45)" x="363.75" y="8.672" width="4" height="12" ry="2"/><rect transform="rotate(45)" x="369.94" y="2.485" width="4" height="12" ry="2"/><path d="M234 262c-2.216 0-4 1.784-4 4v8c0 2.216 1.784 4 4 4h44c2.216 0 4-1.784 4-4v-8c0-2.216-1.784-4-4-4zm0 1h44c1.662 0 3 1.338 3 3v7c0 1.662-1.338 3-3 3h-44c-1.662 0-3-1.338-3-3v-7c0-1.662 1.338-3 3-3z" fill="#fff" fill-opacity=".5"/><circle cx="268" cy="270" r="2" fill="#73c48f"/><circle cx="273" cy="270" r="2" fill="#f15d22"/><circle cx="278" cy="270" r="2" fill="#faa41a"/></g><g transform="translate(0 -32)" stroke-width="2"><rect x="230" y="262" width="52" height="16" ry="4" fill="#444"/><rect transform="rotate(45)" x="357.56" y="14.86" width="4" height="12" ry="2"/><rect transform="rotate(45)" x="363.75" y="8.672" width="4" height="12" ry="2"/><rect transform="rotate(45)" x="369.94" y="2.485" width="4" height="12" ry="2"/><path d="M234 262c-2.216 0-4 1.784-4 4v8c0 2.216 1.784 4 4 4h44c2.216 0 4-1.784 4-4v-8c0-2.216-1.784-4-4-4zm0 1h44c1.662 0 3 1.338 3 3v7c0 1.662-1.338 3-3 3h-44c-1.662 0-3-1.338-3-3v-7c0-1.662 1.338-3 3-3z" fill="#fff" fill-opacity=".5"/><circle cx="268" cy="270" r="2" fill="#73c48f"/><circle cx="273" cy="270" r="2" fill="#f15d22"/><circle cx="278" cy="270" r="2" fill="#faa41a"/></g><g transform="translate(0 -31)" stroke-width="4"><rect x="324" y="240" width="104" height="32" ry="8" fill="#444"/><rect transform="rotate(45)" x="418.14" y="-74.932" width="8" height="24" ry="4"/><rect transform="rotate(45)" x="430.52" y="-87.307" width="8" height="24" ry="4"/><rect transform="rotate(45)" x="442.89" y="-99.681" width="8" height="24" ry="4"/><circle cx="400" cy="256" r="4" fill="#73c48f"/><circle cx="410" cy="256" r="4" fill="#f15d22"/><circle cx="420" cy="256" r="4" fill="#faa41a"/><path d="M332 240c-4.432 0-8 3.568-8 8v16c0 4.432 3.568 8 8 8h88c4.432 0 8-3.568 8-8v-16c0-4.432-3.568-8-8-8zm0 1h88c3.878 0 7 3.122 7 7v13c0 3.878-3.122 7-7 7h-88c-3.878 0-7-3.122-7-7v-13c0-3.878 3.122-7 7-7z" fill="#f8f8f8" fill-opacity=".5"/></g><g transform="translate(0 -62)" stroke-width="4"><rect x="324" y="240" width="104" height="32" ry="8" fill="#444"/><rect transform="rotate(45)" x="418.14" y="-74.932" width="8" height="24" ry="4"/><rect transform="rotate(45)" x="430.52" y="-87.307" width="8" height="24" ry="4"/><rect transform="rotate(45)" x="442.89" y="-99.681" width="8" height="24" ry="4"/><circle cx="400" cy="256" r="4" fill="#73c48f"/><circle cx="410" cy="256" r="4" fill="#f15d22"/><circle cx="420" cy="256" r="4" fill="#faa41a"/><path d="M332 240c-4.432 0-8 3.568-8 8v16c0 4.432 3.568 8 8 8h88c4.432 0 8-3.568 8-8v-16c0-4.432-3.568-8-8-8zm0 1h88c3.878 0 7 3.122 7 7v13c0 3.878-3.122 7-7 7h-88c-3.878 0-7-3.122-7-7v-13c0-3.878 3.122-7 7-7z" fill="#f8f8f8" fill-opacity=".5"/></g><g transform="translate(0 -63)" stroke-width="8"><rect x="488" y="196" width="208" height="64" ry="16" fill="#444"/><rect transform="rotate(45)" x="522.33" y="-237.55" width="16" height="48" ry="8"/><rect transform="rotate(45)" x="547.08" y="-262.3" width="16" height="48" ry="8"/><rect transform="rotate(45)" x="571.83" y="-287.04" width="16" height="48" ry="8"/><circle cx="640" cy="228" r="8" fill="#73c48f"/><circle cx="660" cy="228" r="8" fill="#f15d22"/><circle cx="680" cy="228" r="8" fill="#faa41a"/><path d="M504 196c-8.864 0-16 7.136-16 16v32c0 8.864 7.136 16 16 16h176c8.864 0 16-7.136 16-16v-32c0-8.864-7.136-16-16-16zm0 1h176c8.31 0 15 6.69 15 15v28c0 8.31-6.69 15-15 15H504c-8.31 0-15-6.69-15-15v-28c0-8.31 6.69-15 15-15z" fill="#f8f8f8" fill-opacity=".5"/></g><g transform="translate(0 -126)" stroke-width="8"><rect x="488" y="196" width="208" height="64" ry="16" fill="#444"/><rect transform="rotate(45)" x="522.33" y="-237.55" width="16" height="48" ry="8"/><rect transform="rotate(45)" x="547.08" y="-262.3" width="16" height="48" ry="8"/><rect transform="rotate(45)" x="571.83" y="-287.04" width="16" height="48" ry="8"/><circle cx="640" cy="228" r="8" fill="#73c48f"/><circle cx="660" cy="228" r="8" fill="#f15d22"/><circle cx="680" cy="228" r="8" fill="#faa41a"/><path d="M504 196c-8.864 0-16 7.136-16 16v32c0 8.864 7.136 16 16 16h176c8.864 0 16-7.136 16-16v-32c0-8.864-7.136-16-16-16zm0 1h176c8.31 0 15 6.69 15 15v28c0 8.31-6.69 15-15 15H504c-8.31 0-15-6.69-15-15v-28c0-8.31 6.69-15 15-15z" fill="#f8f8f8" fill-opacity=".5"/></g></g></svg>