<svg version="1.0" viewBox="0 0 32 32" xmlns="http://www.w3.org/2000/svg"><g transform="translate(-100 -252)"><rect x="105" y="254" width="22" height="28" ry="2" fill="#545454"/><rect x="108" y="257" width="16" height="20" ry="0" fill="#222"/><path d="M118 261c-.554 0-1 .446-1 1v2l1.522 1.522a7 7 0 0 1-3.995 4.005L113 268h-2c-.554 0-1 .446-1 1v3c0 .554.446 1 1 1h1a10 10 0 0 0 10-10v-1c0-.554-.446-1-1-1z" fill="#ededed" fill-opacity=".8" filter="url(#filter7554)"/><rect x="164" y="239" width="32" height="42" ry="3" fill="#545454"/><rect x="168" y="243" width="24" height="32" ry="0" fill="#222"/><path d="M183.5 249c-.831 0-1.5.669-1.5 1.5v3.5l2.282 2.282a10.5 10.5 0 0 1-5.991 6.009L176 260h-3.5c-.831 0-1.5.669-1.5 1.5v4c0 .831.669 1.5 1.5 1.5h2c8.284 0 14.5-6.216 14.5-14.5v-2c0-.831-.669-1.5-1.5-1.5z" fill="#ededed" fill-opacity=".8" filter="url(#filter7554)"/><rect x="234" y="224" width="44" height="56" ry="4" fill="#545454"/><rect x="240" y="230" width="32" height="42" ry="0" fill="#222"/><rect x="332" y="164" width="88" height="112" ry="8" fill="#545454"/><rect x="344" y="176" width="64" height="85" ry="0" fill="#222"/><rect x="504" y="44" width="176" height="224" ry="16" fill="#545454"/><rect x="528" y="68" width="128" height="172" ry="0" fill="#222"/><path d="M259.5 241c-.831 0-1.5.669-1.5 1.5v3.5l2.282 2.282a10.5 10.5 0 0 1-5.991 6.009L252 252h-3.5c-.831 0-1.5.669-1.5 1.5v4c0 .831.669 1.5 1.5 1.5h2c8.284 0 14.5-6.216 14.5-14.5v-2c0-.831-.669-1.5-1.5-1.5z" fill="#ededed" fill-opacity=".8" filter="url(#filter7554)"/><path d="M383 198c-1.662 0-3 1.338-3 3v7l4.564 4.564a21.003 21.003 0 0 1-11.982 12.018L368 220h-7c-1.662 0-3 1.338-3 3v8c0 1.662 1.338 3 3 3h4c16.57 0 29-12.43 29-29v-4c0-1.662-1.338-3-3-3z" fill="#ededed" fill-opacity=".8" filter="url(#filter7554)"/><path d="M606 112c-3.324 0-6 2.676-6 6v14l9.129 9.129a42 42 0 0 1-23.965 24.035L576 156h-14c-3.324 0-6 2.676-6 6v16c0 3.324 2.676 6 6 6h8c33.137 0 58-24.863 58-58v-8c0-3.324-2.676-6-6-6z" fill="#ededed" fill-opacity=".8" filter="url(#filter7554)"/><rect x="59" y="260" width="18" height="24" ry="2" fill="#545454"/><rect x="62" y="263" width="12" height="18" ry="0" fill="#222"/><rect x="18" y="268" width="12" height="16" ry="2" fill="#545454"/><rect x="21" y="271" width="6" height="10" ry="0" fill="#222"/><path d="M70 266c-.554 0-1 .446-1 1v2l1.522 1.522a7 7 0 0 1-3.995 4.005L65 273h-2c-.554 0-1 .446-1 1v3c0 .554.446 1 1 1h1a10 10 0 0 0 10-10v-1c0-.554-.446-1-1-1z" fill="#ededed" fill-opacity=".8" filter="url(#filter7554)"/><path d="M25 273c-.277 0-.5.223-.5.5v1l.76.76a3.5 3.5 0 0 1-1.996 2.004l-.764-.764h-1c-.277 0-.5.223-.5.5v1.5c0 .277.223.5.5.5h.5a5 5 0 0 0 5-5v-.5c0-.277-.223-.5-.5-.5z" fill="#ededed" fill-opacity=".8" filter="url(#filter7554)"/><path d="M107 254c-1.108 0-2 .892-2 2v24c0 1.108.892 2 2 2h18c1.108 0 2-.892 2-2v-24c0-1.108-.892-2-2-2zm0 1h18c.554 0 1 .446 1 1v23c0 .554-.446 1-1 1h-18c-.554 0-1-.446-1-1v-23c0-.554.446-1 1-1z" fill="#fff" fill-opacity=".502"/><path d="M167 239c-1.662 0-3 1.338-3 3v36c0 1.662 1.338 3 3 3h26c1.662 0 3-1.338 3-3v-36c0-1.662-1.338-3-3-3zm0 1h26c1.108 0 2 .892 2 2v34c0 1.108-.892 2-2 2h-26c-1.108 0-2-.892-2-2v-34c0-1.108.892-2 2-2z" fill="#fff" fill-opacity=".502"/><path d="M238 224c-2.216 0-4 1.784-4 4v48c0 2.216 1.784 4 4 4h36c2.216 0 4-1.784 4-4v-48c0-2.216-1.784-4-4-4zm0 1h36c1.662 0 3 1.338 3 3v46c0 1.662-1.338 3-3 3h-36c-1.662 0-3-1.338-3-3v-46c0-1.662 1.338-3 3-3z" fill="#fff" fill-opacity=".502"/><path d="M340 164c-4.432 0-8 3.568-8 8v96c0 4.432 3.568 8 8 8h72c4.432 0 8-3.568 8-8v-96c0-4.432-3.568-8-8-8zm0 1h72c3.878 0 7 3.122 7 7v93c0 3.878-3.122 7-7 7h-72c-3.878 0-7-3.122-7-7v-93c0-3.878 3.122-7 7-7z" fill="#fff" fill-opacity=".502"/><path d="M520 44c-8.864 0-16 7.136-16 16v192c0 8.864 7.136 16 16 16h144c8.864 0 16-7.136 16-16V60c0-8.864-7.136-16-16-16zm0 1h144c8.31 0 15 6.69 15 15v188c0 8.31-6.69 15-15 15H520c-8.31 0-15-6.69-15-15V60c0-8.31 6.69-15 15-15z" fill="#fff" fill-opacity=".502"/><path d="M61 260c-1.108 0-2 .892-2 2v20c0 1.108.892 2 2 2h14c1.108 0 2-.892 2-2v-20c0-1.108-.892-2-2-2zm0 1h14c.554 0 1 .446 1 1v20c0 .554-.446 1-1 1H61c-.554 0-1-.446-1-1v-20c0-.554.446-1 1-1z" fill="#fff" fill-opacity=".502"/><path d="M20 268c-1.108 0-2 .892-2 2v12c0 1.108.892 2 2 2h8c1.108 0 2-.892 2-2v-12c0-1.108-.892-2-2-2zm0 1h8c.554 0 1 .446 1 1v12c0 .554-.446 1-1 1h-8c-.554 0-1-.446-1-1v-12c0-.554.446-1 1-1z" fill="#fff" fill-opacity=".502"/></g></svg>