<svg version="1.0" viewBox="0 0 32 32" xmlns="http://www.w3.org/2000/svg"><g transform="translate(-100 -252)"><rect x="105" y="254" width="22" height="28" ry="2" fill="#545454"/><rect x="108" y="257" width="16" height="20" ry="0" fill="#222"/><path d="M118 261c-.554 0-1 .446-1 1v2l1.522 1.522a7 7 0 0 1-3.995 4.005L113 268h-2c-.554 0-1 .446-1 1v3c0 .554.446 1 1 1h1a10 10 0 0 0 10-10v-1c0-.554-.446-1-1-1z" fill="#ededed" fill-opacity=".8" filter="url(#filter7554)"/><path d="M107 254c-1.108 0-2 .892-2 2v24c0 1.108.892 2 2 2h18c1.108 0 2-.892 2-2v-24c0-1.108-.892-2-2-2zm0 1h18c.554 0 1 .446 1 1v23c0 .554-.446 1-1 1h-18c-.554 0-1-.446-1-1v-23c0-.554.446-1 1-1z" fill="#fff" fill-opacity=".502"/></g></svg>