<svg version="1.0" viewBox="0 0 32 32" xmlns="http://www.w3.org/2000/svg"><g stroke-linecap="square" transform="translate(-100 -252)"><rect x="107" y="254" width="18" height="7" ry="1" fill="#dedede"/><path d="M108 254c-.554 0-1 .446-1 1v7.5c0 .554.446 1 1 1V255h16v8.5c.554 0 1-.446 1-1V255c0-.554-.446-1-1-1z" fill-opacity=".5"/><rect x="103" y="261" width="26" height="13" ry="2" fill="#474341"/><path d="M105 261c-1.108 0-2 .892-2 2v9c0 1.108.892 2 2 2h22c1.108 0 2-.892 2-2v-9c0-1.108-.892-2-2-2zm0 1h22c.554 0 1 .446 1 1v8c0 .554-.446 1-1 1h-22c-.554 0-1-.446-1-1v-8c0-.554.446-1 1-1z" fill="#fff" fill-opacity=".5"/><rect x="107" y="268" width="18" height="14" ry="1" fill="#dedede"/><circle cx="106.5" cy="265" r="1" fill="#73c48f"/><path d="M108 268c-.554 0-1 .446-1 1v12c0 .554.446 1 1 1h16c.554 0 1-.446 1-1v-12c0-.554-.446-1-1-1v12h-16z" fill-opacity=".5"/></g></svg>