<svg version="1.0" viewBox="0 0 32 32" xmlns="http://www.w3.org/2000/svg"><g transform="translate(-100 1548)"><rect x="107" y="-1546" width="18" height="7" ry="1" fill="#dedede"/><path d="M108-1546c-.554 0-1 .446-1 1v7.5c0 .554.446 1 1 1v-8.5h16v8.5c.554 0 1-.446 1-1v-7.5c0-.554-.446-1-1-1z" fill-opacity=".5"/><rect x="103" y="-1539" width="26" height="13" ry="2" fill="#474341"/><path d="M105-1539c-1.108 0-2 .892-2 2v9c0 1.108.892 2 2 2h22c1.108 0 2-.892 2-2v-9c0-1.108-.892-2-2-2zm0 1h22c.554 0 1 .446 1 1v8c0 .554-.446 1-1 1h-22c-.554 0-1-.446-1-1v-8c0-.554.446-1 1-1z" fill="#fff" fill-opacity=".5"/><rect x="107" y="-1532" width="18" height="14" ry="1" fill="#dedede"/><circle cx="106.5" cy="-1535" r="1" fill="#73c48f"/><path d="M108-1532c-.554 0-1 .446-1 1v12c0 .554.446 1 1 1h16c.554 0 1-.446 1-1v-12c0-.554-.446-1-1-1v12h-16z" fill-opacity=".5"/><path d="M108-1527v1a6 6 0 0 1 6 6h1a7 7 0 0 0-7-7zm0 2v1a4 4 0 0 1 4 4h1a5 5 0 0 0-5-5zm0 2v1a2 2 0 0 1 2 2h1a3 3 0 0 0-3-3zm0 2v1h1a1 1 0 0 0-1-1z" opacity=".7"/></g></svg>