<svg version="1.0" viewBox="0 0 64 64" xmlns="http://www.w3.org/2000/svg"><g transform="translate(-224 -220)"><rect x="230" y="226" width="52" height="52" ry="4.5" fill="#3f51b5"/><path d="M234.5 226a4.49 4.49 0 0 0-4.5 4.5v43a4.49 4.49 0 0 0 4.5 4.5h43a4.49 4.49 0 0 0 4.5-4.5v-43a4.49 4.49 0 0 0-4.5-4.5zm.5 1h42c2.216 0 4 1.784 4 4v40c0 2.216-1.784 4-4 4h-42c-2.216 0-4-1.784-4-4v-40c0-2.216 1.784-4 4-4z" fill-opacity=".502"/><g transform="matrix(1.5 0 0 1.5 -.5 -6.5)" fill-opacity=".196"><path transform="translate(.333 5) scale(.66667)" d="m247 243-2.977 17.824 2.616 1.154 3.36-5.478h11.827l3.555 5.502 2.578-1.272-2.96-17.73z" filter="url(#filter7554)"/><rect x="165" y="166" width="4" height="2" ry="1" filter="url(#filter7554)"/><rect x="173" y="166" width="4" height="2" ry="1" filter="url(#filter7554)"/><rect x="177" y="178" width="2" height="2" ry="1" filter="url(#filter7554)"/><rect x="163" y="178" width="2" height="2" ry="1" filter="url(#filter7554)"/><circle cx="173.33" cy="169.67" r="1"/><circle cx="175.33" cy="173" r="1"/><g transform="translate(.667)"><rect x="166.33" y="168.67" width="1.333" height="4" ry=".333"/><rect x="165" y="170" width="4" height="1.333" ry=".333"/></g></g><g transform="matrix(1.5 0 0 1.5 -.5 -7.5)"><path transform="translate(.333 5) scale(.66667)" d="m247 243-2.977 17.824 2.616 1.154 3.36-5.478h11.827l3.555 5.502 2.578-1.272-2.96-17.73z" fill="#fff" filter="url(#filter7554)"/><rect x="165" y="166" width="4" height="2" ry="1" fill="#fff" filter="url(#filter7554)"/><rect x="173" y="166" width="4" height="2" ry="1" fill="#fff" filter="url(#filter7554)"/><rect x="177" y="178" width="2" height="2" ry="1" fill="#fff" filter="url(#filter7554)"/><rect x="163" y="178" width="2" height="2" ry="1" fill="#fff" filter="url(#filter7554)"/><circle cx="173.33" cy="169.67" r="1" fill="#3f51b5"/><circle cx="175.33" cy="173" r="1" fill="#3f51b5"/><g transform="translate(.667)" fill="#3f51b5"><rect x="166.33" y="168.67" width="1.333" height="4" ry=".333"/><rect x="165" y="170" width="4" height="1.333" ry=".333"/></g></g></g></svg>