<svg version="1.0" viewBox="0 0 64 64" xmlns="http://www.w3.org/2000/svg"><g transform="translate(-224 -220)"><rect x="230.5" y="225.75" width="52" height="52" ry="4.5" fill="#cdcdcd"/><path d="M234.5 226a4.49 4.49 0 0 0-4.5 4.5v43a4.49 4.49 0 0 0 4.5 4.5h43a4.49 4.49 0 0 0 4.5-4.5v-43a4.49 4.49 0 0 0-4.5-4.5zm.5 1h42c2.216 0 4 1.784 4 4v40c0 2.216-1.784 4-4 4h-42c-2.216 0-4-1.784-4-4v-40c0-2.216 1.784-4 4-4z" fill-opacity=".502"/><path d="M248 258h2l8-20h2l8 20h2v2h-7v-2h2l-1.43-4h-9.11l-1.46 4h2v2h-7zm7-6h8l-3.992-10.422z" aria-label="A"/><g fill="none" stroke="#000" stroke-opacity=".251"><path d="M247 259.5h-2.5v-21h2.5"/><path d="M269.5 261v2.5h-21V261"/></g></g></svg>