<svg version="1.0" viewBox="0 0 64 64" xmlns="http://www.w3.org/2000/svg"><g transform="translate(-224 680)"><rect x="241" y="-640" width="30" height="18" ry="2" fill="#424242"/><rect x="242" y="-640" width="28" height="15" ry="2" fill="#848484"/><rect x="228" y="-672" width="56" height="40" ry="3" fill="#6f6f6f"/><rect x="229" y="-671" width="54" height="36" ry="2" fill="#acacac"/><rect x="231" y="-669" width="50" height="28" ry=".5" fill="#424242"/><rect x="250" y="-639" width="12" height="2" ry=".5" fill="#424242"/><path d="m253.38-665.5-.231 2.766a8.25 8.25 0 0 0-2.412 1.394l-2.513-1.184-2.625 4.547 2.282 1.585a8.25 8.25 0 0 0-.126 1.392 8.25 8.25 0 0 0 .12 1.397l-2.276 1.58 2.625 4.546 2.508-1.18a8.25 8.25 0 0 0 2.417 1.386l.231 2.771h5.25l.231-2.766a8.25 8.25 0 0 0 2.412-1.394l2.513 1.184 2.625-4.547-2.282-1.585a8.25 8.25 0 0 0 .126-1.392 8.25 8.25 0 0 0-.12-1.397l2.276-1.58-2.625-4.547-2.508 1.181a8.25 8.25 0 0 0-2.417-1.386l-.231-2.771zm2.625 7.5a3 3 0 0 1 3 3 3 3 0 0 1-3 3 3 3 0 0 1-3-3 3 3 0 0 1 3-3z" fill="#fff"/></g></svg>