<svg version="1.0" viewBox="0 0 64 64" xmlns="http://www.w3.org/2000/svg"><g transform="translate(-224 -220)"><rect transform="rotate(90)" x="226" y="-282" width="38" height="38" ry="4" fill="#500302"/><rect x="245" y="227" width="36" height="34" ry="3.5" fill="#cf3b00"/><path d="M254.91 231.96a.888.888 0 0 0-.888.89v18.22a.887.887 0 0 0 1.314.78l16.67-9.11a.89.89 0 0 0 0-1.56l-15.004-8.2-1.666-.91a.885.885 0 0 0-.426-.11z" color="#000" fill="#fff" fill-opacity=".94" style="isolation:auto;mix-blend-mode:normal;text-decoration-color:#000;text-decoration-line:none;text-decoration-style:solid;text-indent:0;text-transform:none;white-space:normal"/><rect transform="rotate(90)" x="240" y="-268" width="38" height="38" ry="4" fill="#793914"/><rect x="231" y="241" width="36" height="34" ry="3.5" fill="#f37329"/><path d="M244 251v12.539a4 4 0 0 0-2-.54 4 4 0 1 0 4 4v-10h10v6.54a4 4 0 0 0-2-.54 4 4 0 1 0 4 4v-16h-1z" fill-opacity=".196"/><path d="M244 250v12.539a4 4 0 0 0-2-.54 4 4 0 1 0 4 4v-10h10v6.54a4 4 0 0 0-2-.54 4 4 0 1 0 4 4v-16h-1z" fill="#fff" fill-opacity=".94"/></g></svg>