<svg version="1.0" viewBox="0 0 64 64" xmlns="http://www.w3.org/2000/svg"><g transform="translate(-224 -220)"><rect x="230" y="226" width="52" height="52" ry="4.5" fill="#9c27b0"/><path d="M234.5 226a4.49 4.49 0 0 0-4.5 4.5v43a4.49 4.49 0 0 0 4.5 4.5h43a4.49 4.49 0 0 0 4.5-4.5v-43a4.49 4.49 0 0 0-4.5-4.5zm.5 1h42c2.216 0 4 1.784 4 4v40c0 2.216-1.784 4-4 4h-42c-2.216 0-4-1.784-4-4v-40c0-2.216 1.784-4 4-4z" fill-opacity=".502"/><g transform="matrix(1.5 0 0 1.5 81.5 -143.41)" fill-opacity=".196" color="#000"><rect x="109" y="256.27" width="6" height="16" rx="2.934" ry="2.986"/><path d="M114.2 256.27c.878.713 1.469 1.792 1.469 3v1h2.125c-.074-1.093 1.249-2 2-2 .68 0 1 .012 1 1v1h1.219c1.228-.6 1.78-1.97 1.78-2.688 0-.735-2.385-1.312-3.687-1.312z"/><path d="M115.67 260.94v4.313c2.766 2.661 6.125 2.406 6.125 2.406s.353-1.521-1.906-4.031l-2.375-2.688h-1.781c-.022.002-.042-.002-.063 0zm2.975 2.532 1.683 1.737c-1.799.165-2.15-.857-1.683-1.737z"/></g><g transform="matrix(1.5 0 0 1.5 81.5 -144.41)" fill="#fff" color="#000"><rect x="109" y="256.27" width="6" height="16" rx="2.934" ry="2.986"/><path d="M114.2 256.27c.878.713 1.469 1.792 1.469 3v1h2.125c-.074-1.093 1.249-2 2-2 .68 0 1 .012 1 1v1h1.219c1.228-.6 1.78-1.97 1.78-2.688 0-.735-2.385-1.312-3.687-1.312z"/><path d="M115.67 260.94v4.313c2.766 2.661 6.125 2.406 6.125 2.406s.353-1.521-1.906-4.031l-2.375-2.688h-1.781c-.022.002-.042-.002-.063 0zm2.975 2.532 1.683 1.737c-1.799.165-2.15-.857-1.683-1.737z"/></g></g></svg>