<svg version="1.0" viewBox="0 0 64 64" xmlns="http://www.w3.org/2000/svg"><g transform="translate(-224 -220)"><rect x="230.5" y="225.75" width="52" height="52" ry="4.5" fill="#faa41a"/><path d="M234.5 226a4.49 4.49 0 0 0-4.5 4.5v43a4.49 4.49 0 0 0 4.5 4.5h43a4.49 4.49 0 0 0 4.5-4.5v-43a4.49 4.49 0 0 0-4.5-4.5zm.5 1h42c2.216 0 4 1.784 4 4v40c0 2.216-1.784 4-4 4h-42c-2.216 0-4-1.784-4-4v-40c0-2.216 1.784-4 4-4z" fill-opacity=".502"/><path d="M246.5 238.75c-4 0-4 4-4 4v20c0 4 4 4 4 4h20s4 0 4-4v-20c0-4-4-4-4-4h-4zm0 4.008h16v2h-16zm0 6h18v2h-18zm0 6h12v2h-12zm0 6h18v2h-18z" fill-opacity=".196"/><path d="M246.5 237.75c-4 0-4 4-4 4v20c0 4 4 4 4 4h20s4 0 4-4v-20c0-4-4-4-4-4h-4zm0 4.008h16v2h-16zm0 6h18v2h-18zm0 6h12v2h-12zm0 6h18v2h-18z" fill="#fff"/></g></svg>