<svg version="1.0" viewBox="0 0 64 64" xmlns="http://www.w3.org/2000/svg"><g transform="translate(-224 -220)"><rect x="230" y="226" width="52" height="52" ry="4.5" fill="#48b9c7"/><path d="M234.5 226a4.49 4.49 0 0 0-4.5 4.5v43a4.49 4.49 0 0 0 4.5 4.5h43a4.49 4.49 0 0 0 4.5-4.5v-43a4.49 4.49 0 0 0-4.5-4.5zm.5 1h42c2.216 0 4 1.784 4 4v40c0 2.216-1.784 4-4 4h-42c-2.216 0-4-1.784-4-4v-40c0-2.216 1.784-4 4-4z" fill-opacity=".502"/><g fill-opacity=".196"><path d="M256.013 239.006c-3.956.056-9.273 1.504-9.183 6.152.093 4.848 5.47 3.114 5.907 5.096.066-.084.166-.154.234-.234.37-.4.741-.727 1.111-1.113.586-.661 1.193-1.273 1.813-1.933 2.075-2.21 2.165-2.344 7.118-6.093-1.94-1.164-4.234-1.81-6.182-1.875-.25-.009-.555-.003-.819 0zm-3.568 2.87c1.55 0 2.807 1.26 2.807 2.813s-1.257 2.812-2.807 2.812-2.808-1.259-2.808-2.812 1.257-2.812 2.808-2.812zm13.629 1.241c-2.66 4.188-4.438 6.668-6.318 8.602-1.199 1.233-2.181 2.46-3.042 3.34-1.573 1.668-3.633 3.638-5.907 5.799.119 2.754 1.52 5.15 6.083 6.034 7.309 1.417 15.05-3.42 14.27-13.24-.334-4.215-2.634-8.027-5.086-10.535zm.642 7.137c1.029 0 1.871.84 1.871 1.875a1.876 1.876 0 0 1-1.871 1.875 1.876 1.876 0 0 1-1.872-1.875c0-1.035.843-1.875 1.872-1.875zm-1.17 5.624c1.029 0 1.872.84 1.872 1.875a1.876 1.876 0 0 1-1.872 1.875 1.876 1.876 0 0 1-1.872-1.875c0-1.035.843-1.875 1.872-1.875zm-9.358 3.75c1.029 0 1.872.839 1.872 1.874a1.876 1.876 0 0 1-1.872 1.875 1.876 1.876 0 0 1-1.872-1.875c0-1.035.843-1.874 1.872-1.874zm5.615 0a1.875 1.875 0 0 1 0 3.749 1.877 1.877 0 0 1-1.872-1.875c0-1.035.843-1.874 1.872-1.874z"/><path d="M241.204 264.299c2.91 0 2.613-3.352 4.026-4.285 1.637-1.082 3.072.258 3.359 1.361.361 1.392-.22 3.06-2.12 3.534-2.012.503-4.99.518-5.265-.61z"/><path d="M267.525 239.006c-3.374 2.435-7.887 6.191-11.465 10-.325.346-.64.68-.946 1.026-.194.203-.397.368-.591.577-.122.144-.236.305-.355.449-3.512 3.882-6.974 8.776-9.22 12.436 5.583-4.307 9.218-7.809 11.525-10.257.451-.46.993-1.061 1.596-1.73 2.257-2.503 5.485-6.446 9.456-12.5z"/></g><g fill="#fff"><path d="M256.013 238.006c-3.956.056-9.273 1.504-9.183 6.152.093 4.848 5.47 3.114 5.907 5.096.066-.084.166-.154.234-.234.37-.4.741-.727 1.111-1.113.586-.661 1.193-1.273 1.813-1.933 2.075-2.21 2.165-2.344 7.118-6.093-1.94-1.164-4.234-1.81-6.182-1.875-.25-.009-.555-.003-.819 0zm-3.568 2.87c1.55 0 2.807 1.26 2.807 2.813s-1.257 2.812-2.807 2.812-2.808-1.259-2.808-2.812 1.257-2.812 2.808-2.812zm13.629 1.241c-2.66 4.188-4.438 6.668-6.318 8.602-1.199 1.233-2.181 2.46-3.042 3.34-1.573 1.668-3.633 3.638-5.907 5.799.119 2.754 1.52 5.15 6.083 6.034 7.309 1.417 15.05-3.42 14.27-13.24-.334-4.215-2.634-8.027-5.086-10.535zm.642 7.137c1.029 0 1.871.84 1.871 1.875a1.876 1.876 0 0 1-1.871 1.875 1.876 1.876 0 0 1-1.872-1.875c0-1.035.843-1.875 1.872-1.875zm-1.17 5.624c1.029 0 1.872.84 1.872 1.875a1.876 1.876 0 0 1-1.872 1.875 1.876 1.876 0 0 1-1.872-1.875c0-1.035.843-1.875 1.872-1.875zm-9.358 3.75c1.029 0 1.872.839 1.872 1.874a1.876 1.876 0 0 1-1.872 1.875 1.876 1.876 0 0 1-1.872-1.875c0-1.035.843-1.874 1.872-1.874zm5.615 0a1.875 1.875 0 0 1 0 3.749 1.877 1.877 0 0 1-1.872-1.875c0-1.035.843-1.874 1.872-1.874z"/><path d="M241.204 263.299c2.91 0 2.613-3.352 4.026-4.285 1.637-1.082 3.072.258 3.359 1.361.361 1.392-.22 3.06-2.12 3.534-2.012.503-4.99.518-5.265-.61z"/><path d="M267.525 238.006c-3.374 2.435-7.887 6.191-11.465 10-.325.346-.64.68-.946 1.026-.194.203-.397.368-.591.577-.122.144-.236.305-.355.449-3.512 3.882-6.974 8.776-9.22 12.436 5.583-4.307 9.218-7.809 11.525-10.257.451-.46.993-1.061 1.596-1.73 2.257-2.503 5.485-6.446 9.456-12.5z"/></g></g></svg>