<svg version="1.0" viewBox="0 0 64 64" xmlns="http://www.w3.org/2000/svg"><g transform="translate(-224 -220)"><rect x="230" y="226" width="52" height="52" ry="4.5" fill="#2e7153"/><path d="M234.5 226a4.49 4.49 0 0 0-4.5 4.5v43a4.49 4.49 0 0 0 4.5 4.5h43a4.49 4.49 0 0 0 4.5-4.5v-43a4.49 4.49 0 0 0-4.5-4.5zm.5 1h42c2.216 0 4 1.784 4 4v40c0 2.216-1.784 4-4 4h-42c-2.216 0-4-1.784-4-4v-40c0-2.216 1.784-4 4-4z" fill-opacity=".502"/><g fill="#fff" stroke-width="1.563" aria-label="ABC"><path d="m242.98 251.26-.058.023q-.047-.011 0-.151l.058-.164.058.129zm4.503 0q0 .07-.011.117 0 .035-.012.07l-.047-.245zm2.8 6.615-.198.198q-.07.094-.093.222-.024-.023-.059-.268 0-.21-.128-.234l-.117.035q-.175.152-.233.397l-.175.047q-.175 0-.315-.245l-.233-.455q.035-.175-.105-.455-.129-.28-.129-.444-.256-.07-.315-.49 0-.408-.303-.525 0-.35-.245-.7l-.478-.688q-.105.035-.21-.012-.094-.046-.21-.175-.152.059-.339.059-.175 0-.408-.059l-.397-.058q-.21 0-.408.117l-.035-.117q-.035-.07-.058-.093-.42.105-.595.63l-.164.91q-.14-.175-.21-.432l.047.082q.082.035.117-.012l.07-.117q0-.14-.14-.361-.129-.222-.129-.304 0-.14.245-.245 0-.105-.046-.151-.129 0-.222.07l-.21.268q.082.14.082.327 0 .105-.012.163-.012.058-.082.28l-.081.432q0 .268.28.478l-.245.782q-.07.28-.35.56-.082-.175-.21-.199-.035.012-.082.035t-.152.105q-.105.07-.233.094-.105 0-.222-.129l-.128.187h-.105v-.093q-.093.07-.198.081-.105 0-.187-.256l-.105-.315.187-.082q-.035-.082-.187-.21-.14-.14-.14-.257 0-.07.047-.163l.093-.222q.035-.058.245-.151.058.046.187.093.14-.105.14-.233 0-.105-.117-.28-.105-.187-.105-.292l.035-.128.128-.572q.07-.513.397-.56l-.187-.245q-.07-.105-.07-.222 0-.07.07-.21l-.221-.233q-.094-.128-.094-.257 0-.093.024-.128.256 0 .49-.245l.28-.292v-.186q.081 0 .128.011l.198.047q.094 0 .152-.105l.058-.187.012-.163q0-.163-.105-.408l-.21-.537.303.047q.035-.07 0-.14l-.105-.164q.035-.081.059-.116l.28-.164-.21-.21q-.105-.105-.21-.07l.046-.303q0-.21.024-.327h.116q0 .105-.046.164.058.058.175.081.116 0 .268-.093l.21-.105q.035-.058.035-.082l.023-.151-.105-.047-.163.105q-.105.105-.21.047l.047-.315.046-.327q0-.152-.046-.245.023-.023.128-.023.058 0 .117.14l-.082.14q-.035.047.023.093.152-.07.21-.14.07-.082.07-.175 0-.082-.082-.257l-.081-.291q0-.082.011-.129.024-.058.117-.151l-.012-.164q0-.081-.093-.128l-.093.035-.093.023.408-.676q.175-.269.467-.269 0-.175.116-.186l.199.058q.14.035.245.012.21.28.466.28.117 0 .21-.047.035.047-.012.128l-.081.105q.163.012.245.129.081.116.081.315l-.011.233-.012.233-.105.339q0 .081.047.14.14.035.233.14l.245.396-.047.315q0 .234.082.63l.105.444q-.023.058.012.175.035.105.128.116.082-.035.105-.058l.047-.047q-.07.129-.07.292 0 .14.082.397l.081.35q0 .186-.093.315.128.081.198.536.047.42.175.444.094 0 .234-.129h.058l.023.14q0 .152-.093.304-.093.14-.222.233.047.035.082.047t.058.023q.14 0 .21-.023.187 0 .35.291.164.292.245.315.094 0 .234-.256 0 .198.303.373.257.14.257.432-.105 0-.269-.21t-.256-.234q-.105 0-.257.187 0 .105.117.233l.116.164q0 .07-.128.14h-.105q0-.21-.082-.28h-.105l-.035.151q0 .117.059.222l.163.152.058-.059q.128.047.152.175l-.058.152-.047.152q0 .093.14.163.198-.035.163-.292.047.304.128.525.082.222.292.537l-.047.023q.199.105.35.549.164.42.42.525 0 .198.129.49.14.303.163.478zm-8.318-3.232q-.082.059-.14.059l.117-.14q.046.023.023.081zm-.233.584h-.047v-.187h.047zm.093.35h-.233l.046-.21.14.07q.07.035.047.14zm-.233 1.201-.07.105-.07.082q-.094 0-.117-.105 0-.082.07-.14.175 0 .187.058zm2.508 0-.035.21q-.012.082-.082.164-.035-.035-.035-.094 0-.175.152-.28zm-2.555.42-.012.094q-.035.046-.058.046h-.07v-.14zm2.812-10.71q-.105.035-.117.152l.047.082h.046l.047-.117q.047-.082-.023-.117zm.735.292v-.058h-.094v.058zm.046 2.263v-.396q-.128-.012-.198.198-.047.198-.233.198l-.047.222q.058.07.105.07l.093-.163q.082-.14.175-.164zm-1.015.432q-.023-.093-.093-.152-.07-.058-.14-.035v.327q.082-.047.128-.047.105 0 .105-.093zm2.8 1.003-.046-.35q-.234-.116-.304-.548l-.046-.455q-.152.058-.152.163 0 .082.093.234.094.14.094.221 0 .059-.07.152l.151.432q.047.151.28.151zm-2.263-.466v-.07h-.082v.07zm-.303.653q-.035-.082-.117-.093-.082.046-.105.093l-.035.198q.07.105.233.105l.047-.116zm2.648.245v-.105q-.035-.058-.117-.012-.046.035-.011.117zm-.665 2.03q.07-.233.07-.432 0-.361-.338-1.143-.339-.793-.35-.887-.047-.058-.082-.361 0-.292-.222-.292-.105.128-.198.303-.047.094-.047.199 0 .07.012.105h.187q.116.035.116.291-.046.07-.175.094l-.221-.012-.082.082-.012.081q.059.035.14 0l.105-.046q.07.046.082.093.023.14-.14.14-.14 0-.21.07l-.047.117q.012.035.035.07.024.023.105.081.082.059.117.14 0 .082-.117.117-.116.035-.175.07.012.058.117.093.093.012.128.07-.105 0-.175.105-.058.094-.128.129-.035.291.222.478.256 0 .466.012t.409.058q.21.047.408.175zm-1.762-1.167v-.046l-.058-.047zm-1.061.21q-.094 0-.187.129-.082.128-.117.291.024.035.035.07.024.035.035.105t.117.07l.047-.361zm.28 1.762q.035-.082-.059-.117-.093-.035-.105-.046t-.023-.024q-.105 0-.105.082 0 .07.128.198l.094-.023zm-.537.397v-.35h-.093q-.082.011-.094.163v.187zm-.42.256q-.023-.023-.058-.233 0-.175-.129-.187-.116.082-.116.199 0 .07.046.151l.094.129q.128 0 .163-.059zm1.517.245v-.081zm-.747.35v-.618h-.093v.618zm-.817.479v-.245q-.093-.035-.128.035l-.012.21zm.467.781q-.047-.116-.047-.338 0-.245-.046-.338 0 .07-.012.116-.012.047-.07.21l-.082.28q0 .082.023.117l.129-.012zm-1.167.63-.081-.105-.047.024.105.105z"/><path d="M257.94 246.39q-.058.035-.117.035-.035 0-.105-.023-.058-.047-.151-.117-.094-.082-.164-.152h.164q0 .094.163.164.163.035.21.093zm.233 5.028-.128.024v-.129q.035.012.058.035zm.619-3.71q-.035-.07-.059-.081l-.07-.059-.116.024q-.105 0-.245-.175-.047-.07-.129-.129-.023-.011-.058-.046-.082 0-.175.093l.175.42q.035.093.058.292.047-.105.175-.164l.42-.047-.058.21-.292.082.105.117q.035.035.035.117l-.035.116-.093-.035q-.035-.023-.117-.023l-.14.14.175.14q.129.07.129.21-.199.07-.467.315l-.548.513-.059.234.164.023-.537.408-.117-.221q-.046-.082-.175-.024l-.14.187h-.105q.07-.128-.093-.163l-.198-.07-.047.163.035.163.117.199q.047.046.093.046l.093.012.105-.163h.14q.035.198-.151.42-.187.221-.187.315 0 .081.047.175l.233.245q.21-.129.21-.42l.035-.327h.233q.024.058.035.21.024.14.024.315 0 .373.186.618l-.035.269q0 .14.14.21l.094-.117.046-.21-.011-.233q0-.222.221-.222l.105.012.105.046.105.082q-.14.035-.221.163-.059.14-.059.339v.186l.047.245q.21.059.21.199 0 .093-.128.256l-.129.187.105.012.234-.035v-.059h.058v.409q-.035-.094-.14-.094-.07 0-.105.094l.082.233q-.187 0-.222.257 0 .21-.07.303-.07-.105-.07-.222l.035-.221.047-.257q0-.21-.28-.21l-.234.222q-.058.07-.058.21l.14.081q.117.035.152.105l-.245.444q-.105.175-.105.338 0 .163.128.292 0 .081-.082.198l-.151.175q-.035-.058-.035-.128l.035-.187.046-.222q0-.14-.186-.186-.035.035-.164.326-.081.245-.315.21 0 .199-.07.444l-.163.513-.058-.152q-.035-.116-.128-.163-.047.023-.059.163 0 .117-.105.152l-.093-.082q-.047-.035-.093.024-.105.058-.164.245-.058.186-.175.198l-.14-.035q-.046.175-.42.21-.35 0-.385.268-.046-.023-.058-.093l.047-.233q0-.094-.152-.105-.105-.035-.257.105-.14.14-.221.163l-.059-.478-.105-.035q-.081 0-.245.081l-.198.07q-.117 0-.117-.245l-.07-.081-.058-.035-.105.116q.023.024.023.059.012.035.024.046l-.129.082q.035-.175-.175-.315-.198-.14-.233-.245-.175.047-.187.198l.024.129.023.151q0 .117-.152.187-.128-.035-.163-.362 0-.338-.315-.28-.023.152-.082.245-.058.094-.186.047l.023-.128-.047-.222-.035-.268.035-.175q.035-.07.21-.164l-.012-.163.012-.187q0-.186-.151-.268h-.187l.07-.198q.035-.082.117-.094l-.059-.396q-.011-.187-.046-.327-.024-.14-.082-.245.105 0 .175-.082.082-.093.116-.21-.011-.128.035-.373.07-.21.07-.303 0-.105-.046-.199l-.117-.163q.128-.105.128-.268 0-.082-.116-.304l-.117-.28q0-.14.163-.268-.023-.035-.14-.058l-.105.116v-.186q.105 0 .152-.094l.093-.21-.14-.291q.07-.059.105-.222.035-.163.14-.257l-.081-.151q-.035-.117-.129-.164l-.245.07q0-.058.164-.256.175-.199.198-.292 0-.105-.152-.222l-.011-.385-.024-.291q0-.175.035-.28l-.046-.222-.012-.222q0-.595.327-1.026.186.023.408-.152.222-.187.35-.21.152 0 .315.198.058-.011.198-.21.14-.163.245-.186.082 0 .222.105.14 0 .257-.199.116-.21.256-.233.117 0 .21.058.035-.07.094-.081l.303.128-.035.117q0 .093.128.163.094.023.28.023l.105-.163-.221-.082q-.094-.047-.129-.163l.105-.023q.105 0 .28.081l.257.07q.082 0 .187-.07v.35l.128.035q.105 0 .268-.198.14-.21.234-.21.105 0 .28.21l.268-.047h.175l.117-.012-.42.222.466.187q.082 0 .175-.058 0 .198.327.28.338.081.467.256.291.14.501.315t.385.455zm-7.444 5.145-.081-.233h.081zm7.129.14-.245-.058q.035-.105.07-.152.046-.058.105-.081.07 0 .07.151zm-.537 1.809-.012.14q0 .093-.046.105l-.082-.245zm-.968 1.551q-.164 0-.234-.186l.234-.059zm-1.785-10.337q-.047-.046-.024-.105h-.105v.164q.094 0 .129-.059zm.956.187v-.233h-.256q-.094.105.011.175t.245.058zm-.256.537-.012-.129q0-.128-.047-.163v.292zm1.575.291q-.024-.023-.14-.046v.186q.07-.046.116-.116 0-.012.024-.024zm-.782 0-.128.327h.081l.105-.257q-.035-.07-.058-.07zm.828.724v-.245q0-.152-.163-.152l-.07.478q.058.035.14-.023zm0 .326q-.128 0-.186.105h.14zm-.35.152h-.128v.14l.105-.023q.035 0 .035-.024.012-.035-.012-.093zm-.478.245v.128h.105l.047-.046q-.012-.07-.152-.082zm-.373.537v-.222l.011-.233q0-.304-.058-.467-.047-.175-.245-.338-.198-.07-.35-.222t-.187-.315q0 .175-.046.187-.024-.14-.129-.21-.093-.082-.233-.094-.117 0-.198.117l-.385-.14q-.129-.058-.257-.233-.07-.035-.14.011-.07.035-.105.129-.093.093-.21.116-.105 0-.303-.186-.175-.199-.234-.222l-.198.28q-.093.198-.257.303l.047.187-.047.21-.035.222.035.151.187-.245q.14-.163.163-.338l.059.093.07.094q-.082.046-.164.14l-.046.151q0 .094.14.315.14.222.14.315 0 .129-.257.199.035-.07.093-.082l.152.082q.07.07.117.198l.035.222-.024.326-.023.245q.163.047.198.362 0 .292.175.362 0-.257.094-.315.105-.07.28-.07h.151q.117 0 .187-.035.082-.047.117-.199l.116.024q.129 0 .304-.245.151-.257.35-.257l-.012.175.035.315.035.292-.023.175h.105v-.047q.035-.21.233-.245.035-.047.058-.152 0-.186-.186-.221l-.047-.199q0-.186.117-.35l.245-.338.163.187q.047.046.187.035zm-3.547-.222q.035-.07-.047-.14l-.116-.093-.082.105q.07.186.245.128zm4.515.222v-.059q-.035-.07-.105-.035-.047.024-.058.094zm-4.725.023h-.14v.14q0 .105.105.105.047-.047.047-.093zm4.293.478q0-.093-.058-.128v.187zm-3.768.059q-.035-.187-.128-.199-.094 0-.187.152-.082.152-.058.28.023.035.035.082.023.046.046.14.024.081.164.081l-.012-.21q0-.116-.047-.221.117-.117.187-.105zm-.77.163h-.082l.059.128zm1.062.898q.035-.081-.047-.116l-.14-.07q-.082.058-.093.163l.046.082.152-.012q.07-.023.082-.047zm.373.304-.07-.304.047.327zm-.852.233v-.233h-.105zm2.59-.233-.058.116q-.035.082.012.117zm-3.36.233v-.163q-.046-.059-.07-.059l-.116-.011-.105.128q-.035.058.046.105zm.537.478v-.105q-.07-.046-.105-.046h-.082q-.035.07.035.116zm-.537.035h-.058q-.082.035-.093.152 0 .105.07.14zm4.515.712.047-.105-.082-.268q-.07.093-.07.21 0 .105.105.163zm-3.791-.023h-.14l-.047.373h.128zm4.025.513v-.245q-.059-.023-.082-.023v.268zm-4.702-.432h-.105l-.035.315-.047.245q0 .14.14.269.105-.105.105-.269zm4.282.957.023-.152q0-.198-.163-.525-.047-.116-.094-.268-.046-.163-.07-.257l-.256.035q-.199 0-.35-.116l.011-.14.035-.094q-.116-.035-.233.094-.117.116-.187.14-.175-.035-.291-.257-.105-.233-.245-.268l.058.233q-.198.105-.315.105-.082 0-.093-.117l.035-.221.035-.269q0-.151-.117-.268.105-.105.105-.28 0-.023-.023-.035-.012-.023-.024-.035-.011.012-.046.035-.035.012-.117.105-.082.082-.082.233 0 .105.047.234l.14.221q0 .14-.187.152h-.186q-.105 0-.14.14-.07-.07-.14-.222l-.024-.198-.233.268q.105.105.105.222 0 .058-.175.222-.175.14-.175.268.07.07.257.07l.221-.012v.164q0 .14-.081.14-.175 0-.21.046.256.105.256.304l-.07.256-.058.245.035.152q.105.093.105.187 0 .081-.093.21l-.082.186q0 .105.152.187-.082.082-.152.117-.07.035-.035.151.058.047.105.14.047.082.047.187l-.035.257q-.035.163-.012.245.105-.07.163-.07.07 0 .082.163v.187q0 .198.07.256.117 0 .175.024h.175q.467 0 .863-.187.397-.198.689-.56.14-.093.245-.28l.186-.385q0-.093.035-.187.047-.105.199-.105l-.012-.07v-.058q0-.128.105-.397l.117-.338q0-.105-.07-.21zm-3.267-.047q-.058-.046-.093-.058-.035-.012-.059-.023l.105.291-.093.152q-.058.128-.198.093l-.012.339.035.408q.035.175.163.338 0-.21.047-.291-.105-.07-.152-.164l-.046-.151q0-.094.175-.327.175-.245.175-.408 0-.105-.047-.199zm-1.015 1.657.047-.257q0-.221-.175-.198-.094.058-.129.163-.035.094-.035.292zm1.26.793-.058-.081-.047.081zm-1.388.35-.012-.186q0-.21-.047-.292l-.093.327q0 .093.047.151z"/><path d="M263.79 246.31q0 .07-.058.117h-.117l.047-.07q.035-.059.128-.047zm6.802 9.275q0 .292-.315.595-.315.28-.315.595l-.082-.012h-.047q-.07 0-.105-.046l.117-.094q-.07-.163-.233-.163-.094 0-.187.047l-.21.093q-.105.047-.117.187v.14l.059.058q-.047.012-.094.012h-.07q-.046 0-.14-.024-.081-.035-.14-.14l-.21.187q-.128.082-.221.082-.07 0-.164-.059-.07-.023-.116.012-.035.035-.035.14v.175l-.537-.327q-.163.304-.478.304-.14 0-.479-.082l-.478-.082-.175.012-.268-.268q-.094 0-.14.128l-.07.198.058.059-.058.058q-.14-.315-.537-.478-.397-.175-.805-.175-.128-.07-.303-.362-.14-.303-.292-.303-.105 0-.21.07-.07-.07-.222 0l-.186.07q-.082 0-.129-.164-.221 0-.63-.256-.396-.257-.583-.257l-.187.035q.105-.14.105-.268 0-.129-.28-.397-.28-.28-.245-.525-.268 0-.268.245l.012.175q0 .117.023.175l-.035.152q-.163-.047-.198-.385 0-.327-.187-.42l.268-.269q-.151-.046-.268-.07t-.268-.023l-.024-.175q0-.14.059-.35l.058-.327q0-.128-.058-.233-.035-.105-.187-.222.035-.035.058-.175l-.023-.245q-.222-.07-.222-.268l.07-.42q-.035-.082-.058-.117-.198.035-.28.234l-.14.361-.047-.198q0-.128.164-.362.175-.233.175-.338l-.024-.117.152.035q.047-.035.082-.128l.023-.187v-.163q0-.128.035-.222.035-.093.187-.105.07-.058.105-.128.046-.082.046-.233-.035-.117-.163-.117-.105 0-.163.023l-.094.035q.035-.163.339-.431.315-.269.315-.502 0-.14-.058-.257h.093q0 .28.023.467.035.175.245.245.198.035.233-.198.035-.245.21-.28l.024-.129q0-.07-.07-.268l-.07-.198q0-.117.058-.175l-.023.116q0 .164.175.327l.326.268q.164-.105.292-.326.14-.222.187-.479-.012-.058-.129-.116-.105-.059-.14-.152.129-.058.234.058l.21.21.268-.326.058.058q.07-.047.094-.187l-.024-.151-.023-.152q0-.117.163-.163l.059.653q.14.012.175-.187.046-.21.093-.256l.198.011q.175 0 .28-.035.105-.046.117-.175l-.023-.105q-.047-.21.175-.245.221-.046.268-.14l.105.187q.023.023.163.023l.059-.361q.058.035.128-.035l.14-.14v-.059q.082 0 .233.082l.245.093q.105-.058.175-.233.07-.187.152-.245l-.012.21q0 .14.105.21.187.035.269-.152v-.058l.21.198q.058.035.116.035.024 0 .117-.023.035-.198.303-.362.28-.175.327-.233.233-.047.268.175l.059.373q.023-.011.035-.023.07-.058.175-.198.07.163.35.163l.128-.012.058-.035q.07.059.07.152t-.14.338q-.14.21-.14.28t.105.07l.222-.035.047.129q-.012.011-.012.023-.058.047-.175.105-.175.047-.187.163h-.151q-.024-.035-.035-.058-.047-.058-.14-.152-.164.199-.315.199-.07 0-.222-.082-.117-.093-.28-.14l-.35-.047q-.082 0-.21.012-.117.012-.257.047l-.606.105q-1.482.781-2.252 1.376-.758.595-.758 1.575l-.187-.035q-.175 0-.233.35 0 .315-.059.397.059.175.059.362 0 .221-.117.618-.105.385-.105.537 0 .163.047.291.046.117.21.28-.012.164.035.269l.35.291q.28.187.455.642.186.443.443.443l.175-.035q.152.269.84.537.688.257.863.688.129.035.175-.081.012-.059.035-.117.012 0 .024-.012l1.003.292q.77.198 1.143.42.105-.163.28-.222.175-.058.408-.058h.245l.385-.035q.152-.035.292-.187.373-.186.443-.56l.094-.665q.105.105.198.117.082 0 .268-.257l.222-.28q-.035-.198.152-.268l.256.642q.14.315.14.606 0 .164-.07.397zm-10.885-2.45q-.035.035-.047.058 0 .012-.012.035l-.058-.21zm-.059.362h-.058v-.059h.058zm1.4 1.726h-.058v-.175h.058zm5.904-8.855-.082-.14q-.035-.116-.128-.128l-.059.152q.059.07.152.128.07.023.117-.012zm-6.382 3.489h-.175l.117.093.046-.058zm-.233.898q-.07 0-.152.082l-.058.093h.116l.082-.093zm1.19.805q-.047-.047-.117-.035v.303q.093-.035.105-.128zm-.957.653v-.116h-.058v.116zm-.175 1.284h-.093v.175l.058-.059zm9.835 1.458q-.093-.035-.117-.058-.116.07-.14.128-.035.035-.035.128l.059.129h.058l.14-.164q.047-.07.035-.163zm0 .805v-.117q-.035-.035-.175-.058-.023.082.023.14.047.047.152.035zm-4.527.478q-.058 0-.081.024l-.07.093q.035.07.116.035l.035-.07zm-1.341.152-.047-.128q-.058-.024-.105-.024v.21q.117 0 .152-.058z"/></g></g></svg>