<svg version="1.0" viewBox="0 0 64 64" xmlns="http://www.w3.org/2000/svg"><g transform="translate(-224 -220)"><rect x="230.5" y="225.75" width="52" height="52" ry="4.5" fill="#d1a023"/><path d="M234.5 226a4.49 4.49 0 0 0-4.5 4.5v43a4.49 4.49 0 0 0 4.5 4.5h43a4.49 4.49 0 0 0 4.5-4.5v-43a4.49 4.49 0 0 0-4.5-4.5zm.5 1h42c2.216 0 4 1.784 4 4v40c0 2.216-1.784 4-4 4h-42c-2.216 0-4-1.784-4-4v-40c0-2.216 1.784-4 4-4z" fill-opacity=".502"/><g fill-opacity=".502"><path d="M260.005 247v5.598a10.27 10.27 0 0 1 5 3.744V247z"/><path d="M260.005 240.49c-1.84.769-3 2.317-3 4.008 0 2.485 2.462 4.5 5.5 4.5s5.5-1.515 5.5-4c-.002-1.69-1.16-3.736-3-4.504v4.504l-1.5 1h-2l-1.5-1z"/><path d="M256.505 253a9.5 9 0 0 0-9.5 9h-2.5c-.277 0-.5.223-.5.5v2c0 .277.223.5.5.5h24c.277 0 .5-.223.5-.5v-2c0-.277-.223-.5-.5-.5h-2.5a9.5 9 0 0 0-9.5-9zm0 2.5a6.5 6.5 0 0 1 6.5 6.5h-13a6.5 6.5 0 0 1 6.5-6.5z"/></g><g fill="#fff"><path d="M260.005 246v5.598a10.27 10.27 0 0 1 5 3.744V246z"/><path d="M260.005 239.49c-1.84.769-3 2.317-3 4.008 0 2.485 2.462 4.5 5.5 4.5s5.5-1.515 5.5-4c-.002-1.69-1.16-3.736-3-4.504v4.504l-1.5 1h-2l-1.5-1z"/><path d="M256.505 252a9.5 9 0 0 0-9.5 9h-2.5c-.277 0-.5.223-.5.5v2c0 .277.223.5.5.5h24c.277 0 .5-.223.5-.5v-2c0-.277-.223-.5-.5-.5h-2.5a9.5 9 0 0 0-9.5-9zm0 2.5a6.5 6.5 0 0 1 6.5 6.5h-13a6.5 6.5 0 0 1 6.5-6.5z"/></g></g></svg>