<svg version="1.0" viewBox="0 0 64 64" xmlns="http://www.w3.org/2000/svg"><g transform="translate(-224 -220)"><rect x="230" y="226" width="52" height="52" ry="4.5" fill="#7b736e"/><path d="M234.5 226a4.49 4.49 0 0 0-4.5 4.5v43a4.49 4.49 0 0 0 4.5 4.5h43a4.49 4.49 0 0 0 4.5-4.5v-43a4.49 4.49 0 0 0-4.5-4.5zm.5 1h42c2.216 0 4 1.784 4 4v40c0 2.216-1.784 4-4 4h-42c-2.216 0-4-1.784-4-4v-40c0-2.216 1.784-4 4-4z" fill-opacity=".502"/><g fill="#fff"><path d="M244.005 262.255v-12.5c0-.75.78-.75.78-.75h5.22v5h-3v6.004h9v-3h3v5.246c0 .715-.75.75-.75.75h-13.5s-.75 0-.75-.75z"/><path d="M252.75 242.005c-.75 0-.75.75-.75.75v11.5c0 .75.75.75.75.75h13.5s.75 0 .75-.75v-11.5c0-.75-.75-.75-.75-.75zm2.25 4h9V252h-9z"/></g></g></svg>