<svg version="1.0" viewBox="0 0 64 64" xmlns="http://www.w3.org/2000/svg"><g transform="translate(-224 -220)"><rect x="230" y="226" width="52" height="52" ry="4.5" fill="#479863"/><path d="M234.5 226a4.49 4.49 0 0 0-4.5 4.5v43a4.49 4.49 0 0 0 4.5 4.5h43a4.49 4.49 0 0 0 4.5-4.5v-43a4.49 4.49 0 0 0-4.5-4.5zm.5 1h42c2.216 0 4 1.784 4 4v40c0 2.216-1.784 4-4 4h-42c-2.216 0-4-1.784-4-4v-40c0-2.216 1.784-4 4-4z" fill-opacity=".502"/><path d="M262 240a4.5 4.5 0 0 0-4.5 4.5c0 .347.066.66.14.984l-4.828 3A4.5 4.5 0 1 0 250 256.5a4.484 4.484 0 0 0 2.813-.984l4.828 3c-.075.324-.14.637-.14.984a4.5 4.5 0 1 0 4.5-4.5 4.484 4.484 0 0 0-2.813.984l-4.829-3c.075-.324.141-.637.141-.984s-.066-.66-.14-.984l4.828-3A4.48 4.48 0 0 0 262 249a4.5 4.5 0 1 0 0-9z" fill="#fff"/></g></svg>