<svg version="1.0" viewBox="0 0 64 64" xmlns="http://www.w3.org/2000/svg"><g transform="translate(-224 -220)"><rect x="230" y="226" width="52" height="52" ry="4.5" fill="#ededed"/><path d="M234.5 226a4.49 4.49 0 0 0-4.5 4.5v43a4.49 4.49 0 0 0 4.5 4.5h43a4.49 4.49 0 0 0 4.5-4.5v-43a4.49 4.49 0 0 0-4.5-4.5zm.5 1h42c2.216 0 4 1.784 4 4v40c0 2.216-1.784 4-4 4h-42c-2.216 0-4-1.784-4-4v-40c0-2.216 1.784-4 4-4z" fill-opacity=".502"/><path class="starred" d="m256 240.59-3.178 8.242-8.822.476 6.857 5.57-2.273 8.537 7.416-4.8 7.416 4.8-2.273-8.537 6.857-5.57-8.822-.476z" color="#000" fill="#393634" opacity=".8" style="text-decoration-line:none;text-indent:0;text-transform:none"/></g></svg>