<svg version="1.0" viewBox="0 0 64 64" xmlns="http://www.w3.org/2000/svg"><g transform="translate(-224 -220)"><rect x="230" y="226" width="52" height="52" ry="4.5" fill="#3f51b5"/><path d="M234.5 226a4.49 4.49 0 0 0-4.5 4.5v43a4.49 4.49 0 0 0 4.5 4.5h43a4.49 4.49 0 0 0 4.5-4.5v-43a4.49 4.49 0 0 0-4.5-4.5zm.5 1h42c2.216 0 4 1.784 4 4v40c0 2.216-1.784 4-4 4h-42c-2.216 0-4-1.784-4-4v-40c0-2.216 1.784-4 4-4z" fill-opacity=".502"/><path d="M252 244.504v14l3.133-3.82 2.066 4.986a1 1 0 1 0 1.848-.766l-2.111-5.095 4.379.01z" fill="none" stroke="#fff" stroke-width="2"/><path d="M252 244.504v14l3.133-3.82 2.066 4.986a1 1 0 1 0 1.848-.766l-2.111-5.095 4.379.01z" fill="#151515" fill-rule="evenodd"/></g></svg>