<svg version="1.0" viewBox="0 0 64 64" xmlns="http://www.w3.org/2000/svg"><g transform="translate(-224 -220)"><rect x="230" y="226" width="52" height="52" ry="4.5" fill="#48b9c7"/><path d="M234.5 226a4.49 4.49 0 0 0-4.5 4.5v43a4.49 4.49 0 0 0 4.5 4.5h43a4.49 4.49 0 0 0 4.5-4.5v-43a4.49 4.49 0 0 0-4.5-4.5zm.5 1h42c2.216 0 4 1.784 4 4v40c0 2.216-1.784 4-4 4h-42c-2.216 0-4-1.784-4-4v-40c0-2.216 1.784-4 4-4z" fill-opacity=".502"/><path d="M256 240c6.627 0 12 5.373 12 12v1.5a4.5 4.5 0 0 1-7.945 2.894c-1.07.987-2.486 1.606-4.055 1.606a6 6 0 1 1 6-6v1.5a1.5 1.5 0 0 0 3 0V252a9 9 0 1 0-9 9h7.5s1.5 0 1.5 1.5c-.094 1.5-1.5 1.5-1.5 1.5H256c-6.627 0-12-5.373-12-12s5.373-12 12-12zm0 9a3 3 0 1 0 0 6 3 3 0 0 0 0-6z" fill="#fff"/></g></svg>