<svg version="1.0" viewBox="0 0 64 64" xmlns="http://www.w3.org/2000/svg"><g transform="translate(-224 -220)"><rect x="488" y="52" width="208" height="208" ry="16.5" fill="#f15d22"/><rect x="103" y="255" width="26" height="26" ry="2.5" fill="#f15d22"/><rect x="57" y="261" width="22" height="22" ry="2.5" fill="#f15d22"/><path d="M105.5 255a2.495 2.495 0 0 0-2.5 2.5v21c0 1.385 1.115 2.5 2.5 2.5h21c1.385 0 2.5-1.115 2.5-2.5v-21c0-1.385-1.115-2.5-2.5-2.5zm.5 1h20c1.108 0 2 .892 2 2v19c0 1.108-.892 2-2 2h-20c-1.108 0-2-.892-2-2v-19c0-1.108.892-2 2-2z" fill-opacity=".502"/><rect x="17" y="269" width="14" height="14" ry="2.5" fill="#f15d22"/><rect x="230" y="226" width="52" height="52" ry="4.5" fill="#f15d22"/><rect x="160" y="240" width="40" height="39" ry="3.5" fill="#f15d22"/><rect x="324" y="168" width="104" height="104" ry="8.5" fill="#f15d22"/><path d="M59.5 261a2.495 2.495 0 0 0-2.5 2.5v17c0 1.385 1.115 2.5 2.5 2.5h17c1.385 0 2.5-1.115 2.5-2.5v-17c0-1.385-1.115-2.5-2.5-2.5zm.5 1h16c1.108 0 2 .892 2 2v16c0 1.108-.892 2-2 2H60c-1.108 0-2-.892-2-2v-16c0-1.108.892-2 2-2z" fill-opacity=".502"/><path d="M19.5 269a2.495 2.495 0 0 0-2.5 2.5v9c0 1.385 1.115 2.5 2.5 2.5h9c1.385 0 2.5-1.115 2.5-2.5v-9c0-1.385-1.115-2.5-2.5-2.5zm.5 1h8c1.108 0 2 .892 2 2v8c0 1.108-.892 2-2 2h-8c-1.108 0-2-.892-2-2v-8c0-1.108.892-2 2-2z" fill-opacity=".502"/><path d="M234.5 226a4.49 4.49 0 0 0-4.5 4.5v43a4.49 4.49 0 0 0 4.5 4.5h43a4.49 4.49 0 0 0 4.5-4.5v-43a4.49 4.49 0 0 0-4.5-4.5zm.5 1h42c2.216 0 4 1.784 4 4v40c0 2.216-1.784 4-4 4h-42c-2.216 0-4-1.784-4-4v-40c0-2.216 1.784-4 4-4z" fill-opacity=".502"/><path d="M163.5 240a3.492 3.492 0 0 0-3.5 3.5v32c0 1.939 1.561 3.5 3.5 3.5h33c1.939 0 3.5-1.561 3.5-3.5v-32c0-1.939-1.561-3.5-3.5-3.5zm.5 1h32c1.662 0 3 1.338 3 3v29c0 1.662-1.338 3-3 3h-32c-1.662 0-3-1.338-3-3v-29c0-1.662 1.338-3 3-3z" fill-opacity=".502"/><path d="M332.5 168a8.481 8.481 0 0 0-8.5 8.5v87c0 4.709 3.791 8.5 8.5 8.5h87c4.709 0 8.5-3.791 8.5-8.5v-87c0-4.709-3.791-8.5-8.5-8.5zm.5 1h86c4.432 0 8 3.568 8 8v83c0 4.432-3.568 8-8 8h-86c-4.432 0-8-3.568-8-8v-83c0-4.432 3.568-8 8-8z" fill-opacity=".502"/><path d="M504.5 52c-9.141 0-16.5 7.359-16.5 16.5v175c0 9.141 7.359 16.5 16.5 16.5h175c9.141 0 16.5-7.359 16.5-16.5v-175c0-9.141-7.359-16.5-16.5-16.5zm.5 1h174c8.864 0 16 7.136 16 16v170c0 8.864-7.136 16-16 16H505c-8.864 0-16-7.136-16-16V69c0-8.864 7.136-16 16-16z" fill-opacity=".502"/><path d="M177.5 249a2.5 2.5 0 1 0 0 5 2.5 2.5 0 0 0 0-5zm-2 6a1 1 0 0 0-.924.615l-2.5 5c-.553 1.247 1.35 2.04 1.846.77l1.11-2.66-.036.275v9c0 .554.446 1 1 1H176c.554 0 1-.446 1-1l-.004-5h1l.004 5c0 .554.446 1 1 1s1-.446 1-1l-.004-9-.037-.299 1.117 2.684a1 1 0 0 0 1.43.502l1.53.918c-.014.065-.04.126-.04.195v5.5a.499.499 0 1 0 1 0V266H186v2.5a.499.499 0 1 0 1 0v-4.791l1.143 1.144c.47.491 1.197-.235.707-.707l-1.996-2a.5.5 0 0 0-.354-.146h-1.865l-1.627-.979c0-.14-.03-.278-.086-.406l-2.5-5a1 1 0 0 0-.922-.615zm9.996 2.75c-.963 0-1.75.786-1.75 1.75s.787 1.75 1.75 1.75 1.75-.786 1.75-1.75-.786-1.75-1.75-1.75z" fill="#fff"/><path d="M21 271v2h2v-2zm.5 3a.5.5 0 0 0-.5.5l-.004.879-1.353 1.353c-.491.472.236 1.198.707.707l.646-.646v3.707h2v-3.625l2.004 1V278l-.004 2v.5h2v-.5l.004-.941.777.388c.61.335 1.08-.61.446-.894L27 277.94v-.441c0-.277-.224-.52-.5-.5h-1l-2.504-1.375L23 274.5c0-.277-.223-.5-.5-.5zm3.5 0v2h2v-2z" fill="#fff"/><path d="M65 265c-.554 0-1 .446-1 1v1c0 .554.446 1 1 1h1c.554 0 1-.446 1-1v-1c0-.554-.446-1-1-1zm-.472 4-.528.383-1.947 3.894c-.335.61.61 1.08.894.446L64 271.617l.38-1.125L64 274v5h1v-4h1v4h1v-5l-.528-3.512.528 1.13 1.053 2.105a.5.5 0 0 0 .224.224l1.723.862V279h2v-3.293l.646.646c.472.491 1.198-.235.707-.707L72 274.293V274h-1.383l-1.744-.873L67 269.383l-.693-.383zM70 271v2h2v-2z" fill="#fff"/><path d="M113.51 259a2.5 2.5 0 1 0 0 5 2.5 2.5 0 0 0 0-5zm-2 6a1 1 0 0 0-.924.615l-2.5 5c-.553 1.247 1.35 2.04 1.846.77l1.11-2.66-.036.275v7c0 .554.446 1 1 1h.004c.554 0 1-.446 1-1l-.004-4h1l.004 4c0 .554.446 1 1 1s1-.446 1-1l-.004-7-.037-.299 1.117 2.684a1 1 0 0 0 1.43.502l1.53-.082c-.014.065-.04.126-.04.195v4.5a.499.499 0 1 0 1 0l-.004-2.5h1.004l.004 2.5a.5.5 0 1 0 1 0v-3.791l1.143 1.144c.47.491 1.197-.235.707-.707l-1.996-2a.5.5 0 0 0-.354-.146h-1.865l-1.627.021c0-.14-.03-.278-.086-.406l-2.5-5a1 1 0 0 0-.922-.615zm9.996 1.75c-.963 0-1.75.786-1.75 1.75s.787 1.75 1.75 1.75 1.75-.786 1.75-1.75-.786-1.75-1.75-1.75z" fill="#fff"/><path d="M252.5 242a2.5 2.5 0 1 0 0 5 2.5 2.5 0 0 0 0-5zm-2 6a1 1 0 0 0-.924.615l-2.5 5c-.553 1.247 1.35 2.04 1.846.77l1.11-2.66-.036.275v9c0 .554.446 1 1 1H251c.554 0 1-.446 1-1l-.004-5h1l.004 5c0 .554.446 1 1 1s1-.446 1-1l-.004-9-.037-.299 1.117 2.684a1 1 0 0 0 1.43.502l1.53.918c-.014.065-.04.126-.04.195v5.5a.499.499 0 1 0 1 0V259H261v2.5a.499.499 0 1 0 1 0v-4.791l1.143 1.144c.47.491 1.197-.235.707-.707l-1.996-2a.5.5 0 0 0-.354-.146h-1.865l-1.627-.979c0-.14-.03-.278-.086-.406l-2.5-5a1 1 0 0 0-.922-.615zm9.996 2.75c-.963 0-1.75.786-1.75 1.75s.787 1.75 1.75 1.75 1.75-.786 1.75-1.75-.786-1.75-1.75-1.75z" fill="#fff"/><path d="M370.01 200a5 5 0 1 0 0 10 5 5 0 0 0 0-10zm-4 12a2 2 0 0 0-1.848 1.23l-5 10c-1.105 2.494 2.699 4.08 3.692 1.54l2.219-5.32-.07.55v18c0 1.108.891 2 2 2h.007c1.108 0 2-.892 2-2l-.008-10h2l.008 10c.001 1.108.892 2 2 2s2-.892 2-2l-.008-18-.074-.598 2.234 5.368a2 2 0 0 0 2.86 1.004l3.058 1.835c-.026.13-.078.253-.078.391v11c0 .554.446 1 1 1s1-.446 1-1v-5h2.008v5c0 .554.446 1 1 1s1-.446 1-1v-9.582l2.285 2.29c.943.98 2.396-.472 1.414-1.415l-3.992-4a1 1 0 0 0-.707-.293h-3.73l-3.255-1.957c0-.28-.058-.557-.171-.812l-5-10a2 2 0 0 0-1.844-1.23zm19.992 5.5c-1.927 0-3.5 1.573-3.5 3.5s1.573 3.5 3.5 3.5 3.5-1.573 3.5-3.5-1.573-3.5-3.5-3.5z" fill="#fff"/><path d="M580.02 116c-5.523 0-10 4.477-10 10s4.477 10 10 10 10-4.477 10-10-4.477-10-10-10zm-8 24a4 4 0 0 0-3.695 2.46l-10 20c-2.211 4.987 5.397 8.16 7.382 3.08l4.438-10.642-.14 1.102v36c0 2.216 1.783 4 4 4h.015c2.216 0 4-1.784 4-4l-.016-20h4l.016 20c.002 2.216 1.784 4 4 4s4-1.784 4-4l-.016-36-.148-1.196 4.469 10.734a4 4 0 0 0 5.718 2.008l6.117 3.672c-.053.26-.156.504-.156.781v22c0 1.108.892 2 2 2s2-.892 2-2v-10h4.016v10c0 1.108.892 2 2 2s2-.892 2-2v-19.164l4.57 4.579c1.885 1.963 4.791-.944 2.828-2.829l-7.984-8a2 2 0 0 0-1.414-.586h-7.461l-6.508-3.914c0-.56-.117-1.113-.344-1.625l-10-20a4 4 0 0 0-3.687-2.46zm39.984 11c-3.854 0-7 3.146-7 7s3.146 7 7 7 7-3.146 7-7-3.146-7-7-7z" fill="#fff"/></g></svg>