<svg version="1.0" viewBox="0 0 64 64" xmlns="http://www.w3.org/2000/svg"><g transform="translate(-224 -220)"><rect x="230" y="226" width="52" height="52" ry="4.5" fill="#ededed"/><path d="M234.5 226a4.49 4.49 0 0 0-4.5 4.5v43a4.49 4.49 0 0 0 4.5 4.5h43a4.49 4.49 0 0 0 4.5-4.5v-43a4.49 4.49 0 0 0-4.5-4.5zm.5 1h42c2.216 0 4 1.784 4 4v40c0 2.216-1.784 4-4 4h-42c-2.216 0-4-1.784-4-4v-40c0-2.216 1.784-4 4-4z" fill-opacity=".502"/><g transform="matrix(2 0 0 2 22 -284)"><circle cx="114" cy="265" r="5" fill="#f15d22" opacity=".75"/><circle cx="120" cy="268" r="5" fill="#73c48f" opacity=".75"/><circle cx="114" cy="271" r="5" fill="#48b9c7" opacity=".75"/><circle cx="114" cy="265" r="5.5" fill="none" stroke="#743c26" stroke-linecap="square"/><circle cx="120" cy="268" r="5.5" fill="none" stroke="#44634f" stroke-linecap="square"/><circle cx="114" cy="271" r="5.5" fill="none" stroke="#345f64" stroke-linecap="square"/></g></g></svg>