<svg version="1.0" viewBox="0 0 64 64" xmlns="http://www.w3.org/2000/svg"><g transform="translate(-224 -220)"><rect x="230" y="226" width="52" height="52" ry="4.5" fill="#9c27b0"/><path d="M234.5 226a4.49 4.49 0 0 0-4.5 4.5v43a4.49 4.49 0 0 0 4.5 4.5h43a4.49 4.49 0 0 0 4.5-4.5v-43a4.49 4.49 0 0 0-4.5-4.5zm.5 1h42c2.216 0 4 1.784 4 4v40c0 2.216-1.784 4-4 4h-42c-2.216 0-4-1.784-4-4v-40c0-2.216 1.784-4 4-4z" fill-opacity=".502"/><g fill="#fff"><path d="M255.603 244.5a6.75 6.75 0 0 1 1.143 3.75 6.75 6.75 0 0 1-6.75 6.75 6.75 6.75 0 0 1-3.75-1.14V255c0 1.662 1.338 3 3 3h15c1.662 0 3-1.338 3-3v-7.5c0-1.662-1.338-3-3-3z"/><path d="m262.743 258-3 3-3-3z"/><path d="M249.993 243a5.25 5.25 0 0 0-5.25 5.25 5.25 5.25 0 0 0 5.25 5.25 5.25 5.25 0 0 0 5.25-5.25 5.25 5.25 0 0 0-5.25-5.25zm-.75 1.5h1.5v4.5h-1.5zm0 6h1.5v1.5h-1.5z"/></g></g></svg>