<svg version="1.0" viewBox="0 0 64 64" xmlns="http://www.w3.org/2000/svg"><g transform="translate(-224 -220)"><rect x="230" y="226" width="52" height="52" ry="4.5" fill="#f15d22"/><path d="M234.5 226a4.49 4.49 0 0 0-4.5 4.5v43a4.49 4.49 0 0 0 4.5 4.5h43a4.49 4.49 0 0 0 4.5-4.5v-43a4.49 4.49 0 0 0-4.5-4.5zm.5 1h42c2.216 0 4 1.784 4 4v40c0 2.216-1.784 4-4 4h-42c-2.216 0-4-1.784-4-4v-40c0-2.216 1.784-4 4-4z" fill-opacity=".502"/><path d="M252.5 242a2.5 2.5 0 1 0 0 5 2.5 2.5 0 0 0 0-5zm-2 6a1 1 0 0 0-.924.615l-2.5 5c-.553 1.247 1.35 2.04 1.846.77l1.11-2.66-.036.275v9c0 .554.446 1 1 1H251c.554 0 1-.446 1-1l-.004-5h1l.004 5c0 .554.446 1 1 1s1-.446 1-1l-.004-9-.037-.299 1.117 2.684a1 1 0 0 0 1.43.502l1.53.918c-.014.065-.04.126-.04.195v5.5a.499.499 0 1 0 1 0V259H261v2.5a.499.499 0 1 0 1 0v-4.791l1.143 1.144c.47.491 1.197-.235.707-.707l-1.996-2a.5.5 0 0 0-.354-.146h-1.865l-1.627-.979c0-.14-.03-.278-.086-.406l-2.5-5a1 1 0 0 0-.922-.615zm9.996 2.75c-.963 0-1.75.786-1.75 1.75s.787 1.75 1.75 1.75 1.75-.786 1.75-1.75-.786-1.75-1.75-1.75z" fill="#fff"/></g></svg>