<svg version="1.0" viewBox="0 0 64 64" xmlns="http://www.w3.org/2000/svg"><g transform="translate(-224 -220)"><rect x="230" y="226" width="52" height="52" ry="4.5" fill="#48b9c7"/><path d="M234.5 226a4.49 4.49 0 0 0-4.5 4.5v43a4.49 4.49 0 0 0 4.5 4.5h43a4.49 4.49 0 0 0 4.5-4.5v-43a4.49 4.49 0 0 0-4.5-4.5zm.5 1h42c2.216 0 4 1.784 4 4v40c0 2.216-1.784 4-4 4h-42c-2.216 0-4-1.784-4-4v-40c0-2.216 1.784-4 4-4z" fill-opacity=".502"/><path d="M247 240c-3 0-3 3-3 3v13.5s0 3 3 3h18s3 0 3-3V243s0-3-3-3zm0 3h18v12h-18zm1.5 19.5v1.495h15V262.5c0-1.5-1.5-1.5-1.5-1.5h-12.033s-1.468 0-1.468 1.5z" fill="#393634" opacity=".8"/></g></svg>