<svg version="1.0" viewBox="0 0 64 64" xmlns="http://www.w3.org/2000/svg"><g transform="translate(-224 -220)"><rect x="230" y="226" width="52" height="52" ry="4.5" fill="#cdcdcd"/><path d="M234.5 226a4.49 4.49 0 0 0-4.5 4.5v43a4.49 4.49 0 0 0 4.5 4.5h43a4.49 4.49 0 0 0 4.5-4.5v-43a4.49 4.49 0 0 0-4.5-4.5zm.5 1h42c2.216 0 4 1.784 4 4v40c0 2.216-1.784 4-4 4h-42c-2.216 0-4-1.784-4-4v-40c0-2.216 1.784-4 4-4z" fill-opacity=".502"/><path d="m252 236-.353 4.214a12.571 12.571 0 0 0-3.674 2.125l-3.83-1.803-4 6.928 3.477 2.416a12.571 12.571 0 0 0-.192 2.12 12.571 12.571 0 0 0 .184 2.13l-3.47 2.406 4 6.928 3.822-1.799a12.571 12.571 0 0 0 3.683 2.112L252 268h8l.352-4.214a12.571 12.571 0 0 0 3.675-2.125l3.83 1.803 4-6.928-3.478-2.415a12.571 12.571 0 0 0 .192-2.121 12.571 12.571 0 0 0-.183-2.13l3.47-2.406-4-6.928-3.822 1.799a12.571 12.571 0 0 0-3.683-2.112L260 236zm4 11.429a4.571 4.571 0 0 1 4.571 4.571 4.571 4.571 0 0 1-4.571 4.572 4.571 4.571 0 0 1-4.571-4.572 4.571 4.571 0 0 1 4.571-4.57z" fill="#463e39"/></g></svg>