<svg version="1.0" viewBox="0 0 64 64" xmlns="http://www.w3.org/2000/svg"><g transform="translate(-224 -220)"><rect x="230" y="226" width="52" height="52" ry="4.5" fill="#3f51b5"/><path d="M234.5 226a4.49 4.49 0 0 0-4.5 4.5v43a4.49 4.49 0 0 0 4.5 4.5h43a4.49 4.49 0 0 0 4.5-4.5v-43a4.49 4.49 0 0 0-4.5-4.5zm.5 1h42c2.216 0 4 1.784 4 4v40c0 2.216-1.784 4-4 4h-42c-2.216 0-4-1.784-4-4v-40c0-2.216 1.784-4 4-4z" fill-opacity=".502"/><path d="M256 240c-6.627 0-12 5.373-12 12s5.373 12 12 12 12-5.373 12-12-5.373-12-12-12zm0 1.5a3 3 0 1 1 0 6 3 3 0 0 1 0-6zm-9 7.5h18v3h-5v9h-3v-6h-2v6h-3v-9h-5z" color="#000" fill="#fff" fill-opacity=".985"/></g></svg>