<svg version="1.0" viewBox="0 0 64 64" xmlns="http://www.w3.org/2000/svg"><g transform="translate(-224 680)"><rect x="228" y="-666" width="56" height="44" ry="4" fill="#6f6f6f"/><rect x="229" y="-665" width="54" height="40" ry="3.5" fill="#dedede"/><rect x="231" y="-663" width="50" height="34" ry="1" fill="#45454f"/><rect x="231" y="-663" width="50" height="34" ry="1" fill="#48b9c7"/><g fill-opacity=".196"><path d="M604.79 384.57c-1.645 0-3 1.355-3 3v6c0 1.645 1.355 3 3 3h8c1.645 0 3-1.355 3-3v-6c0-1.645-1.355-3-3-3zm0 2h8c.571 0 1 .429 1 1v6c0 .571-.429 1-1 1h-8c-.571 0-1-.429-1-1v-6c0-.571.429-1 1-1z" color="#000" style="font-feature-settings:normal;font-variant-alternates:normal;font-variant-caps:normal;font-variant-ligatures:normal;font-variant-numeric:normal;font-variant-position:normal;isolation:auto;mix-blend-mode:normal;shape-padding:0;text-decoration-color:#000;text-decoration-line:none;text-decoration-style:solid;text-indent:0;text-orientation:mixed;text-transform:none;white-space:normal" transform="matrix(2 0 0 2 -961.58 -1426.1)"/><path d="M248-650.96v8l3-3 3 3 5-5 5 5v-8z" opacity=".5"/><path d="m256-646.96 8 8h-16z"/></g><g fill="#fff"><path d="M604.79 384.57c-1.645 0-3 1.355-3 3v6c0 1.645 1.355 3 3 3h8c1.645 0 3-1.355 3-3v-6c0-1.645-1.355-3-3-3zm0 2h8c.571 0 1 .429 1 1v6c0 .571-.429 1-1 1h-8c-.571 0-1-.429-1-1v-6c0-.571.429-1 1-1z" color="#000" style="font-feature-settings:normal;font-variant-alternates:normal;font-variant-caps:normal;font-variant-ligatures:normal;font-variant-numeric:normal;font-variant-position:normal;isolation:auto;mix-blend-mode:normal;shape-padding:0;text-decoration-color:#000;text-decoration-line:none;text-decoration-style:solid;text-indent:0;text-orientation:mixed;text-transform:none;white-space:normal" transform="matrix(2 0 0 2 -961.58 -1427.1)"/><path d="M248-651.96v8l3-3 3 3 5-5 5 5v-8z" opacity=".5"/><path d="m256-647.96 8 8h-16z"/></g></g></svg>