<svg version="1.0" viewBox="0 0 64 64" xmlns="http://www.w3.org/2000/svg"><g transform="translate(-224 -220)"><rect x="230" y="226" width="52" height="52" ry="4.5" fill="#3f51b5"/><path d="M234.5 226a4.49 4.49 0 0 0-4.5 4.5v43a4.49 4.49 0 0 0 4.5 4.5h43a4.49 4.49 0 0 0 4.5-4.5v-43a4.49 4.49 0 0 0-4.5-4.5zm.5 1h42c2.216 0 4 1.784 4 4v40c0 2.216-1.784 4-4 4h-42c-2.216 0-4-1.784-4-4v-40c0-2.216 1.784-4 4-4z" fill-opacity=".502"/><g fill="#fff"><path d="m120.71 270.29-1.422 1.422 3.01 3.01c.959.937 2.365-.5 1.406-1.438z" color="#000" style="text-decoration-line:none;text-indent:0;text-transform:none" transform="matrix(1.5 0 0 1.5 80.75 -150.5)"/><path d="M254 241a8.25 8.25 0 0 0-8.25 8.25 8.25 8.25 0 0 0 8.25 8.25 8.25 8.25 0 0 0 8.25-8.25A8.25 8.25 0 0 0 254 241zm0 3a5.25 5.25 0 0 1 5.25 5.25 5.25 5.25 0 0 1-5.25 5.25 5.25 5.25 0 0 1-5.25-5.25A5.25 5.25 0 0 1 254 244z"/></g></g></svg>