<svg version="1.0" viewBox="0 0 64 64" xmlns="http://www.w3.org/2000/svg"><g transform="translate(-224 -220)"><rect x="230" y="226" width="52" height="52" ry="4.5" fill="#7b736e"/><path d="M234.5 226a4.49 4.49 0 0 0-4.5 4.5v43a4.49 4.49 0 0 0 4.5 4.5h43a4.49 4.49 0 0 0 4.5-4.5v-43a4.49 4.49 0 0 0-4.5-4.5zm.5 1h42c2.216 0 4 1.784 4 4v40c0 2.216-1.784 4-4 4h-42c-2.216 0-4-1.784-4-4v-40c0-2.216 1.784-4 4-4z" fill-opacity=".502"/><g fill="#fff"><path d="M247.004 246.995c-3 0-3 3-3 3v11c0 2.948 3 3 3 3h14v-6h-4.344c-.015.218-.036.444-.047.656h.657v.75h-.75c-.121 1.06-.539 1.594-1.266 1.594a4.95 4.95 0 0 1-.797-.094l-.14-.75c.394.06.725.094.937.094.212 0 .314-.298.375-.844h-3.516c.065-.438.095-.936.14-1.406h-1.03a15.313 15.313 0 0 1-1.36 2.953l-.75-.61c.479-.769.882-1.54 1.219-2.343h-.328v-3.61c-.034-.027-.06-.067-.094-.093l.094-.094v-2.672c-.034-.027-.06-.067-.094-.093l.094-.094v-4.344zm.14 4.578h2.391v7.172h-.797v-.797h-.796v1.172h-.797zm.797.797v4.828h.797v-4.828zm5.204 5.625c-.03.215-.062.454-.094.656h2.672c.02-.222.028-.435.046-.656h-.703l-.328.422c-.144-.158-.31-.278-.469-.422z" opacity=".5"/><path d="M250.994 240.005v17h14s3 0 3-3v-11s0-3-3-3z"/></g><path d="m257.84 243.5-3.281 10.5h2.39l.506-2h3.479l.515 2h2.485l-3.281-10.5zm1.313 1.781h.046l1.217 4.719h-2.455z" fill="#7b736e"/></g></svg>