<svg version="1.0" viewBox="0 0 48 48" xmlns="http://www.w3.org/2000/svg"><g transform="translate(-156 -236)"><rect x="160" y="240" width="40" height="39" ry="3.5" fill="#48b9c7"/><path d="M163.5 240a3.492 3.492 0 0 0-3.5 3.5v32c0 1.939 1.561 3.5 3.5 3.5h33c1.939 0 3.5-1.561 3.5-3.5v-32c0-1.939-1.561-3.5-3.5-3.5zm.5 1h32c1.662 0 3 1.338 3 3v29c0 1.662-1.338 3-3 3h-32c-1.662 0-3-1.338-3-3v-29c0-1.662 1.338-3 3-3z" fill-opacity=".502"/><g fill-opacity=".196"><path d="M179.61 249.009c-3.165.044-7.418 1.203-7.346 4.921.075 3.88 4.376 2.492 4.726 4.077.053-.067.132-.123.187-.187.296-.32.593-.582.889-.89.469-.53.954-1.019 1.45-1.547 1.66-1.767 1.732-1.875 5.694-4.874-1.552-.932-3.387-1.449-4.945-1.5-.2-.007-.444-.003-.655 0zm-2.854 2.296c1.24 0 2.246 1.008 2.246 2.25s-1.006 2.25-2.246 2.25-2.246-1.007-2.246-2.25 1.005-2.25 2.246-2.25zm10.903.993c-2.128 3.35-3.55 5.334-5.055 6.881-.958.987-1.744 1.968-2.433 2.672-1.258 1.335-2.906 2.91-4.725 4.64.095 2.203 1.216 4.119 4.866 4.827 5.847 1.134 12.04-2.737 11.417-10.592-.268-3.372-2.108-6.422-4.07-8.428zm.514 5.71a1.5 1.5 0 0 1 0 2.999 1.5 1.5 0 0 1 0-3zm-.936 4.499a1.5 1.5 0 0 1 0 3 1.5 1.5 0 0 1 0-3zm-7.487 3a1.5 1.5 0 0 1 0 2.999 1.5 1.5 0 0 1 0-3zm4.492 0a1.5 1.5 0 0 1 0 2.999 1.5 1.5 0 0 1 0-3z"/><path d="M167.763 269.243c2.328 0 2.09-2.681 3.22-3.428 1.31-.865 2.459.207 2.688 1.09.289 1.113-.175 2.446-1.695 2.826-1.61.403-3.993.415-4.213-.488z"/><path d="M188.82 249.009c-2.7 1.948-6.31 4.953-9.172 8-.26.277-.511.544-.757.82-.155.163-.317.295-.473.462-.098.115-.188.245-.283.36-2.81 3.105-5.58 7.02-7.376 9.948 4.466-3.446 7.374-6.247 9.22-8.205.36-.369.794-.85 1.276-1.385 1.806-2.002 4.388-5.156 7.565-10z"/></g><g fill="#fff"><path d="M179.61 248.009c-3.165.044-7.418 1.203-7.346 4.921.075 3.88 4.376 2.492 4.726 4.077.053-.067.132-.123.187-.187.296-.32.593-.582.889-.89.469-.53.954-1.019 1.45-1.547 1.66-1.767 1.732-1.875 5.694-4.874-1.552-.932-3.387-1.449-4.945-1.5-.2-.007-.444-.003-.655 0zm-2.854 2.296c1.24 0 2.246 1.008 2.246 2.25s-1.006 2.25-2.246 2.25-2.246-1.007-2.246-2.25 1.005-2.25 2.246-2.25zm10.903.993c-2.128 3.35-3.55 5.334-5.055 6.881-.958.987-1.744 1.968-2.433 2.672-1.258 1.335-2.906 2.91-4.725 4.64.095 2.203 1.216 4.119 4.866 4.827 5.847 1.134 12.04-2.737 11.417-10.592-.268-3.372-2.108-6.422-4.07-8.428zm.514 5.71a1.5 1.5 0 0 1 0 2.999 1.5 1.5 0 0 1 0-3zm-.936 4.499a1.5 1.5 0 0 1 0 3 1.5 1.5 0 0 1 0-3zm-7.487 3a1.5 1.5 0 0 1 0 2.999 1.5 1.5 0 0 1 0-3zm4.492 0a1.5 1.5 0 0 1 0 2.999 1.5 1.5 0 0 1 0-3z"/><path d="M167.763 268.243c2.328 0 2.09-2.681 3.22-3.428 1.31-.865 2.459.207 2.688 1.09.289 1.113-.175 2.446-1.695 2.826-1.61.403-3.993.415-4.213-.488z"/><path d="M188.82 248.009c-2.7 1.948-6.31 4.953-9.172 8-.26.277-.511.544-.757.82-.155.163-.317.295-.473.462-.098.115-.188.245-.283.36-2.81 3.105-5.58 7.02-7.376 9.948 4.466-3.446 7.374-6.247 9.22-8.205.36-.369.794-.85 1.276-1.385 1.806-2.002 4.388-5.156 7.565-10z"/></g></g></svg>