<svg version="1.0" viewBox="0 0 48 48" xmlns="http://www.w3.org/2000/svg"><g transform="translate(-156 -236)"><rect transform="rotate(90)" x="240" y="-200" width="28" height="28" ry="3" fill="#500302"/><rect x="173" y="241" width="26" height="24" ry="2.5" fill="#cf3b00"/><path d="M180.6 246.98c-.544-.01-.637.647-.592 1.12.004 4.437-.007 8.874.005 13.31.048.53.654.742 1 .413 3.685-2.271 9.046-4.527 12.726-6.808.402-.314.248-1.045-.2-1.197-3.686-2.262-9.034-4.537-12.722-6.791a.534.534 0 0 0-.217-.047z" color="#000" fill="#fff" fill-opacity=".94" style="isolation:auto;mix-blend-mode:normal;text-decoration-color:#000;text-decoration-line:none;text-decoration-style:solid;text-indent:0;text-transform:none;white-space:normal"/><rect transform="rotate(90)" x="251" y="-188" width="28" height="28" ry="3" fill="#793914"/><rect x="161" y="252" width="26" height="24" ry="2.5" fill="#f37329"/><path d="M171 259v8.188a2.927 2.927 0 0 0-1-.188 3 3 0 1 0 3 3v-7h6v4.188a2.927 2.927 0 0 0-1-.188 3 3 0 1 0 3 3v-11h-1z" fill-opacity=".196"/><path d="M171 258v8.188a2.927 2.927 0 0 0-1-.188 3 3 0 1 0 3 3v-7h6v4.188a2.927 2.927 0 0 0-1-.188 3 3 0 1 0 3 3v-11h-1z" fill="#fff" fill-opacity=".94"/></g></svg>