<svg version="1.0" viewBox="0 0 48 48" xmlns="http://www.w3.org/2000/svg"><g transform="translate(-156 -236)"><rect x="160" y="240" width="40" height="39" ry="3.5" fill="#2e7153"/><path d="M163.5 240a3.492 3.492 0 0 0-3.5 3.5v32c0 1.939 1.561 3.5 3.5 3.5h33c1.939 0 3.5-1.561 3.5-3.5v-32c0-1.939-1.561-3.5-3.5-3.5zm.5 1h32c1.662 0 3 1.338 3 3v29c0 1.662-1.338 3-3 3h-32c-1.662 0-3-1.338-3-3v-29c0-1.662 1.338-3 3-3z" fill-opacity=".502"/><g fill="#fff" stroke-width="1.25" aria-label="ABC"><path d="m169.58 258.91-.047.019q-.037-.01 0-.122l.047-.13.047.102zm3.603 0q0 .056-.01.093 0 .028-.008.056l-.038-.196zm2.24 5.292-.159.159q-.056.074-.075.177-.018-.019-.046-.215 0-.168-.103-.186l-.093.028q-.14.121-.187.317l-.14.037q-.14 0-.252-.196l-.187-.364q.028-.14-.084-.364-.102-.224-.102-.354-.206-.056-.252-.392 0-.327-.243-.42 0-.28-.196-.56l-.383-.551q-.084.028-.168-.009-.074-.037-.168-.14-.121.047-.27.047-.14 0-.327-.047l-.317-.047q-.168 0-.327.094l-.028-.094q-.028-.056-.047-.074-.336.084-.476.504l-.13.728q-.112-.14-.168-.346l.037.066q.065.028.093-.01l.056-.093q0-.112-.112-.29-.102-.176-.102-.242 0-.112.196-.196 0-.084-.038-.121-.102 0-.177.056l-.168.215q.065.112.065.26 0 .085-.009.132-.009.046-.065.224l-.065.345q0 .215.224.383l-.196.625q-.056.224-.28.448-.066-.14-.168-.159-.028.01-.066.028-.037.019-.121.084-.084.056-.187.075-.084 0-.177-.103l-.103.15h-.084v-.075q-.074.056-.158.065-.084 0-.15-.205l-.084-.252.15-.065q-.028-.066-.15-.168-.112-.112-.112-.206 0-.056.038-.13l.074-.178q.028-.046.196-.121.047.037.15.075.112-.084.112-.187 0-.084-.094-.224-.084-.15-.084-.233l.028-.103.103-.457q.056-.411.317-.448l-.149-.196q-.056-.084-.056-.178 0-.056.056-.168l-.177-.186q-.075-.103-.075-.206 0-.074.019-.102.205 0 .392-.196l.224-.234v-.149q.065 0 .102.009l.16.037q.074 0 .12-.084l.047-.15.01-.13q0-.13-.085-.326l-.168-.43.243.038q.028-.056 0-.112l-.084-.131q.028-.065.046-.093l.224-.131-.168-.168q-.084-.084-.168-.056l.038-.243q0-.168.018-.261h.094q0 .084-.038.13.047.047.14.066.094 0 .215-.075l.168-.084q.028-.047.028-.065l.019-.121-.084-.038-.13.084q-.085.084-.169.038l.037-.252.038-.262q0-.121-.038-.196.02-.018.103-.018.047 0 .093.112l-.065.112q-.028.037.019.074.121-.056.168-.112.056-.065.056-.14 0-.065-.065-.205l-.066-.233q0-.066.01-.103.018-.047.093-.121l-.01-.131q0-.065-.074-.103l-.075.028-.075.019.327-.541q.14-.215.373-.215 0-.14.094-.15l.158.047q.112.028.196.01.168.223.374.223.093 0 .168-.037.028.037-.01.103l-.065.084q.131.009.196.102.066.094.066.252l-.01.187-.008.187-.084.27q0 .066.037.112.112.028.187.112l.196.318-.038.252q0 .186.066.504l.084.354q-.019.047.009.14.028.084.102.094.066-.028.084-.047l.038-.037q-.056.102-.056.233 0 .112.065.317l.065.28q0 .15-.074.252.102.066.158.43.038.336.14.354.075 0 .187-.102h.047l.018.112q0 .121-.074.242-.075.112-.178.187.038.028.066.037.028.01.046.019.112 0 .168-.019.15 0 .28.234.13.233.196.252.075 0 .187-.206 0 .159.243.299.205.112.205.345-.084 0-.215-.168-.13-.168-.205-.186-.084 0-.205.149 0 .084.093.187l.093.13q0 .056-.102.112h-.084q0-.168-.066-.224h-.084l-.028.122q0 .093.047.177l.13.121.047-.046q.103.037.122.14l-.047.12-.037.122q0 .075.112.13.158-.027.13-.232.038.242.103.42.065.177.233.429l-.037.019q.159.084.28.438.13.336.336.42 0 .159.103.392.112.243.13.383zm-6.655-2.585q-.065.046-.112.046l.093-.112q.038.02.019.066zm-.187.466h-.037v-.149h.037zm.075.28h-.187l.038-.168.112.056q.056.028.037.112zm-.187.962-.056.084-.056.065q-.074 0-.093-.084 0-.065.056-.112.14 0 .15.047zm2.007 0-.028.168q-.009.065-.065.13-.028-.028-.028-.074 0-.14.121-.224zm-2.044.336-.009.074q-.028.038-.047.038h-.056v-.112zm2.25-8.568q-.085.028-.094.121l.037.065h.038l.037-.093q.037-.065-.019-.093zm.587.233v-.047h-.074v.047zm.038 1.81v-.317q-.103-.009-.159.16-.037.158-.187.158l-.037.177q.047.056.084.056l.075-.13q.065-.113.14-.131zm-.812.346q-.019-.075-.075-.121-.056-.047-.112-.028v.261q.065-.037.103-.037.084 0 .084-.075zm2.24.803-.038-.28q-.186-.094-.242-.439l-.038-.364q-.12.047-.12.13 0 .066.074.187.074.112.074.178 0 .046-.056.121l.122.345q.037.122.224.122zm-1.811-.374v-.056h-.065v.056zm-.243.523q-.028-.065-.093-.075-.065.038-.084.075l-.028.159q.056.084.187.084l.037-.094zm2.119.196v-.084q-.028-.047-.093-.009-.038.028-.01.093zm-.532 1.624q.056-.187.056-.345 0-.29-.27-.915-.271-.635-.28-.71-.038-.046-.066-.289 0-.233-.177-.233-.084.103-.159.243-.037.074-.037.158 0 .056.009.084h.15q.092.028.092.234-.037.056-.14.074l-.177-.009-.065.066-.01.065q.047.028.113 0l.084-.037q.056.037.065.074.019.112-.112.112-.112 0-.168.056l-.037.094q.009.028.028.056.018.018.084.065.065.047.093.112 0 .065-.093.093t-.14.056q.009.047.093.075.075.009.103.056-.084 0-.14.084-.047.075-.103.103-.028.233.177.382.206 0 .374.01t.326.046q.168.037.327.14zm-1.41-.933v-.038l-.046-.037zm-.849.168q-.074 0-.149.102-.065.103-.093.234.018.028.028.056.018.028.028.084.009.056.093.056l.037-.29zm.224 1.409q.028-.065-.046-.093t-.084-.038l-.019-.018q-.084 0-.084.065 0 .056.103.159l.074-.019zm-.429.317v-.28h-.075q-.065.01-.074.131v.15zm-.336.206q-.019-.019-.047-.187 0-.14-.102-.15-.094.066-.094.16 0 .055.038.12l.074.103q.103 0 .131-.046zm1.213.196v-.066zm-.597.28v-.495h-.075v.495zm-.653.382v-.196q-.075-.028-.103.028l-.009.168zm.373.626q-.037-.094-.037-.271 0-.196-.038-.27 0 .055-.009.093t-.056.168l-.065.224q0 .065.019.093l.102-.009zm-.933.504-.066-.084-.037.018.084.084z"/><path d="M181.55 255.01q-.047.028-.093.028-.028 0-.084-.019l-.122-.093q-.074-.065-.13-.121h.13q0 .074.131.13.13.028.168.075zm.187 4.023-.103.018v-.102q.028.009.047.028zm.494-2.968q-.028-.056-.046-.066l-.056-.046-.094.018q-.084 0-.196-.14-.037-.056-.102-.102-.019-.01-.047-.038-.065 0-.14.075l.14.336q.028.075.047.233.037-.084.14-.13l.336-.037-.047.168-.233.065.084.093q.028.028.028.093l-.028.094-.075-.028q-.028-.019-.093-.019l-.112.112.14.112q.102.056.102.168-.158.056-.373.252l-.439.41-.046.187.13.019-.43.327-.092-.178q-.038-.065-.14-.018l-.112.149h-.084q.056-.103-.075-.13l-.159-.057-.037.131.028.13.093.16q.038.037.075.037l.075.009.084-.131h.112q.028.159-.122.336-.149.177-.149.252 0 .065.037.14l.187.196q.168-.103.168-.336l.028-.261h.187q.018.046.028.168.018.112.018.252 0 .298.15.494l-.028.215q0 .112.112.168l.074-.093.038-.168-.01-.187q0-.177.178-.177l.084.009.084.037.084.065q-.112.028-.177.13-.047.113-.047.272v.149l.037.196q.168.047.168.159 0 .074-.102.205l-.103.15.084.008.187-.028v-.046h.046v.326q-.028-.074-.112-.074-.056 0-.084.074l.066.187q-.15 0-.178.205 0 .168-.056.243-.056-.084-.056-.177l.028-.178.038-.205q0-.168-.224-.168l-.187.177q-.047.056-.047.168l.112.066q.094.028.122.084l-.196.354q-.084.14-.084.27t.102.234q0 .065-.065.159l-.121.14q-.028-.047-.028-.103l.028-.15.037-.176q0-.112-.15-.15-.027.028-.13.262-.065.196-.252.168 0 .158-.056.354l-.13.41-.047-.12q-.028-.094-.103-.131-.037.019-.047.13 0 .094-.084.122l-.075-.065q-.037-.028-.074.018-.084.047-.13.196-.048.15-.14.159l-.113-.028q-.037.14-.336.168-.28 0-.308.215-.037-.02-.047-.075l.038-.187q0-.074-.122-.084-.084-.028-.205.084-.112.112-.177.13l-.047-.382-.084-.028q-.065 0-.196.066l-.159.056q-.093 0-.093-.196l-.056-.066-.047-.028-.084.094q.019.018.019.046.009.028.019.038l-.103.065q.028-.14-.14-.252-.159-.112-.187-.196-.14.037-.149.158l.019.103.018.121q0 .094-.12.15-.104-.028-.132-.29 0-.27-.252-.224-.018.122-.065.196-.047.075-.15.038l.02-.103-.038-.177-.028-.215.028-.14q.028-.056.168-.13l-.009-.131.01-.15q0-.149-.122-.214h-.15l.057-.159q.028-.065.093-.075l-.047-.317q-.009-.15-.037-.261-.019-.112-.065-.196.084 0 .14-.066.065-.074.093-.168-.01-.102.028-.298.056-.168.056-.243 0-.084-.037-.159l-.094-.13q.103-.084.103-.215 0-.065-.093-.243l-.094-.224q0-.112.131-.214-.019-.028-.112-.047l-.084.093v-.148q.084 0 .121-.074l.075-.168-.112-.234q.056-.046.084-.177.028-.13.112-.205l-.065-.122q-.028-.093-.103-.13l-.196.056q0-.047.13-.206.14-.158.16-.233 0-.084-.122-.177l-.009-.308-.019-.234q0-.14.028-.224l-.037-.177-.009-.177q0-.476.261-.822.15.019.327-.121.177-.15.28-.168.121 0 .252.159.047-.01.159-.168.112-.131.196-.15.065 0 .177.084.112 0 .205-.158.094-.168.206-.187.093 0 .168.047.028-.056.074-.066l.243.103-.028.093q0 .075.103.131.074.019.224.019l.084-.13-.178-.066q-.074-.038-.102-.13l.084-.02q.084 0 .224.066l.205.056q.065 0 .15-.056v.28l.102.028q.084 0 .215-.159.112-.168.186-.168.084 0 .224.168l.215-.037h.14l.093-.01-.336.178.374.15q.065 0 .14-.047 0 .158.261.224.27.065.373.205.234.112.402.252t.308.364zm-5.954 4.116-.066-.187h.066zm5.702.112-.196-.047q.028-.084.056-.121.038-.047.084-.066.056 0 .056.122zm-.429 1.446-.009.112q0 .075-.037.084l-.066-.196zm-.775 1.242q-.13 0-.186-.15l.186-.046zm-1.428-8.27q-.037-.037-.018-.084h-.084v.131q.074 0 .102-.047zm.766.15v-.187h-.206q-.074.084.01.14.083.056.195.047zm-.206.43-.009-.104q0-.102-.037-.13v.233zm1.26.232q-.018-.018-.112-.037v.15q.056-.038.094-.094 0-.009.018-.019zm-.625 0-.103.262h.066l.084-.206q-.028-.056-.047-.056zm.663.58v-.197q0-.121-.131-.121l-.056.382q.047.028.112-.018zm0 .26q-.103 0-.15.084h.112zm-.28.122h-.103v.112l.084-.019q.028 0 .028-.019.009-.028-.009-.074zm-.383.196v.102h.084l.037-.037q-.009-.056-.121-.065zm-.299.43v-.178l.01-.187q0-.243-.047-.373-.038-.14-.196-.27-.159-.057-.28-.178-.122-.122-.15-.252 0 .14-.037.15-.019-.113-.103-.169-.074-.065-.186-.075-.094 0-.159.094l-.308-.112q-.103-.047-.205-.187-.056-.028-.112.009-.056.028-.084.103-.075.074-.168.093-.084 0-.243-.15-.14-.158-.187-.177l-.158.224q-.075.159-.206.243l.038.15-.038.167-.028.178.028.121.15-.196q.112-.13.13-.27l.047.074.056.075q-.065.037-.13.112l-.038.121q0 .075.112.252t.112.252q0 .103-.205.159.028-.056.074-.066l.122.066q.056.056.093.158l.028.178-.019.261-.018.196q.13.037.158.29 0 .233.14.289 0-.206.075-.252.084-.056.224-.056h.121q.094 0 .15-.028.065-.038.093-.159l.093.019q.103 0 .243-.196.121-.206.28-.206l-.009.14.028.252.028.234-.019.14h.084v-.038q.028-.168.187-.196.028-.037.047-.12 0-.15-.15-.178l-.037-.159q0-.15.093-.28l.196-.27.131.149q.037.037.15.028zm-2.837-.178q.028-.056-.037-.112l-.094-.075-.065.084q.056.15.196.103zm3.612.177v-.047q-.028-.056-.084-.028-.037.02-.047.075zm-3.78.019h-.112v.112q0 .084.084.084.037-.038.037-.075zm3.435.382q0-.074-.047-.102v.15zm-3.015.047q-.028-.15-.103-.159-.074 0-.149.122-.065.121-.047.224.019.028.028.065.019.037.038.112.018.065.13.065l-.009-.168q0-.093-.037-.177.093-.093.15-.084zm-.616.13h-.065l.046.103zm.85.72q.027-.066-.038-.094l-.112-.056q-.065.047-.075.13l.038.066.121-.009q.056-.019.065-.037zm.298.242-.056-.243.037.262zm-.681.187v-.187h-.084zm2.072-.187-.047.093q-.028.066.009.094zm-2.688.187v-.13q-.038-.048-.056-.048l-.094-.009-.084.103q-.028.047.038.084zm.429.382v-.084q-.056-.037-.084-.037h-.065q-.028.056.028.093zm-.43.028h-.046q-.065.028-.075.122 0 .084.056.112zm3.613.57.037-.084-.065-.215q-.056.075-.056.168 0 .084.084.13zm-3.034-.019h-.112l-.037.299h.103zm3.22.41v-.195q-.046-.019-.065-.019v.215zm-3.76-.345h-.085l-.028.252-.037.196q0 .112.112.215.084-.084.084-.215zm3.424.766.02-.122q0-.158-.132-.42-.037-.093-.074-.214-.038-.13-.056-.206l-.206.028q-.158 0-.28-.093l.01-.112.027-.075q-.093-.028-.186.075-.094.093-.15.112-.14-.028-.233-.205-.084-.187-.196-.215l.047.187q-.159.084-.252.084-.066 0-.075-.094l.028-.177.028-.215q0-.12-.093-.214.084-.084.084-.224 0-.019-.019-.028-.009-.019-.019-.028-.009.009-.037.028-.028.009-.093.084-.066.065-.066.187 0 .084.038.186l.112.177q0 .112-.15.122h-.149q-.084 0-.112.112-.056-.056-.112-.178l-.019-.158-.186.214q.084.084.084.178 0 .047-.14.177-.14.112-.14.215.056.056.205.056l.177-.01v.132q0 .112-.065.112-.14 0-.168.037.205.084.205.242l-.056.206-.046.196.028.121q.084.075.084.15 0 .065-.075.167l-.065.15q0 .084.121.15-.065.064-.121.092-.056.028-.028.122.046.037.084.112.037.065.037.15l-.028.204q-.028.131-.009.196.084-.056.13-.056.057 0 .066.131v.15q0 .158.056.205.093 0 .14.018h.14q.373 0 .69-.149.318-.159.551-.448.112-.075.196-.224l.15-.308q0-.075.028-.15.037-.083.158-.083l-.009-.056v-.047q0-.103.084-.317l.094-.27q0-.085-.056-.169zm-2.613-.038q-.047-.037-.075-.046-.028-.01-.046-.019l.084.233-.075.122q-.047.102-.159.074l-.009.271.028.327q.028.14.131.27 0-.168.037-.233-.084-.056-.121-.13l-.037-.122q0-.075.14-.261.14-.196.14-.327 0-.084-.038-.159zm-.812 1.326.037-.206q0-.177-.14-.158-.074.046-.102.13-.028.075-.028.234zm1.008.634-.047-.065-.037.065zm-1.11.28-.01-.149q0-.168-.037-.233l-.075.261q0 .075.038.121z"/><path d="M186.24 254.95q0 .056-.047.093h-.093l.037-.056q.028-.046.103-.037zm5.441 7.42q0 .233-.252.476-.252.224-.252.476l-.065-.009h-.037q-.056 0-.084-.037l.093-.075q-.056-.13-.187-.13-.074 0-.149.037l-.168.074q-.084.038-.093.15v.112l.046.046q-.037.01-.074.01h-.056q-.038 0-.112-.02-.066-.027-.112-.111l-.168.149q-.103.065-.178.065-.056 0-.13-.046-.056-.02-.094.009-.028.028-.028.112v.14l-.429-.262q-.13.243-.383.243-.112 0-.382-.065l-.383-.066-.14.01-.215-.215q-.074 0-.112.102l-.056.159.047.047-.047.046q-.112-.252-.429-.382-.317-.14-.644-.14-.103-.056-.243-.29-.112-.242-.233-.242-.084 0-.168.056-.056-.056-.177 0l-.15.056q-.065 0-.102-.13-.178 0-.504-.206-.318-.206-.467-.206l-.15.028q.085-.112.085-.214t-.224-.318q-.224-.224-.196-.42-.215 0-.215.196l.01.14q0 .094.018.14l-.028.122q-.13-.038-.159-.308 0-.262-.15-.336l.215-.215q-.12-.037-.214-.056-.094-.019-.215-.019l-.019-.14q0-.112.047-.28l.047-.261q0-.103-.047-.187-.028-.084-.15-.177.029-.028.047-.14l-.018-.196q-.178-.056-.178-.215l.056-.336q-.028-.065-.046-.093-.159.028-.224.187l-.112.29-.038-.16q0-.102.131-.289.14-.187.14-.27l-.019-.094.122.028q.037-.028.065-.103l.019-.149v-.13q0-.103.028-.178t.15-.084q.055-.047.083-.103.037-.065.037-.186-.028-.094-.13-.094-.084 0-.131.02l-.075.027q.028-.13.271-.345.252-.215.252-.401 0-.112-.047-.206h.075q0 .224.019.374.028.14.196.196.158.028.186-.16.028-.195.168-.223l.02-.103q0-.056-.057-.214l-.056-.16q0-.092.047-.14l-.019.094q0 .13.14.262l.261.214q.131-.084.234-.261.112-.177.15-.383-.01-.047-.104-.093-.084-.047-.112-.121.103-.047.187.046l.168.168.215-.261.046.047q.056-.038.075-.15l-.037-.242q0-.094.13-.131l.047.523q.112.009.14-.15.037-.168.075-.205l.158.009q.14 0 .224-.028.084-.037.094-.14l-.019-.084q-.037-.168.14-.196.177-.037.215-.112l.084.15q.018.018.13.018l.047-.29q.047.029.103-.027l.112-.112v-.047q.065 0 .186.065l.196.075q.084-.047.14-.187.056-.15.122-.196l-.01.168q0 .112.085.168.15.028.214-.121v-.047l.168.159q.047.028.094.028.018 0 .093-.019.028-.158.243-.29.224-.14.261-.186.187-.037.215.14l.046.299q.02-.01.028-.019.056-.047.14-.159.056.131.28.131l.103-.009.047-.028q.056.047.056.122 0 .074-.112.27-.112.168-.112.224t.084.056l.177-.028.037.103q-.009.009-.009.019-.046.037-.14.084-.14.037-.149.13h-.121q-.019-.028-.028-.047-.038-.046-.112-.12-.13.158-.252.158-.056 0-.178-.065-.093-.075-.224-.112l-.28-.038q-.065 0-.168.01-.093.008-.205.037l-.485.084q-1.186.625-1.802 1.1-.606.477-.606 1.26l-.15-.027q-.14 0-.186.28 0 .252-.047.317.047.14.047.29 0 .177-.094.494-.084.308-.084.43 0 .13.038.233.037.093.168.224-.01.13.028.214l.28.234q.224.15.364.513.15.355.354.355l.14-.028q.122.214.672.43.551.204.691.55.103.028.14-.065.01-.047.028-.094.01 0 .019-.009l.802.234q.616.158.915.336.084-.131.224-.178.14-.046.327-.046h.196l.308-.028q.121-.028.233-.15.299-.15.355-.448l.075-.532q.084.084.158.093.065 0 .215-.205l.177-.224q-.028-.159.122-.215l.205.514q.112.252.112.485 0 .13-.056.317zm-8.708-1.96q-.028.028-.037.047 0 .009-.009.028l-.047-.168zm-.046.29h-.047v-.047h.047zm1.12 1.38H184v-.14h.047zm4.722-7.083-.065-.112q-.028-.094-.103-.103l-.046.121q.046.056.121.103.056.019.093-.009zm-5.105 2.79h-.14l.093.075.038-.047zm-.187.719q-.056 0-.121.065l-.047.075h.094l.065-.075zm.952.644q-.037-.037-.093-.028v.243q.075-.028.084-.103zm-.765.523v-.094h-.047v.094zm-.14 1.026h-.075v.14l.047-.046zm7.868 1.167q-.075-.028-.093-.047-.094.056-.112.103-.028.028-.028.103l.046.102h.047l.112-.13q.037-.056.028-.131zm0 .644v-.093q-.028-.028-.14-.047-.019.065.019.112.037.037.121.028zm-3.621.383q-.047 0-.066.018l-.056.075q.028.056.094.028l.028-.056zm-1.074.121-.037-.103q-.047-.018-.084-.018v.168q.093 0 .121-.047z"/></g></g></svg>