<svg version="1.0" viewBox="0 0 48 48" xmlns="http://www.w3.org/2000/svg"><g transform="translate(-156 -236)"><rect x="160" y="240.5" width="40" height="39" ry="3.5" fill="#cdcdcd"/><path d="M163.5 240a3.492 3.492 0 0 0-3.5 3.5v32c0 1.939 1.561 3.5 3.5 3.5h33c1.939 0 3.5-1.561 3.5-3.5v-32c0-1.939-1.561-3.5-3.5-3.5zm.5 1h32c1.662 0 3 1.338 3 3v29c0 1.662-1.338 3-3 3h-32c-1.662 0-3-1.338-3-3v-29c0-1.662 1.338-3 3-3z" fill-opacity=".502"/><path d="M171 267h2l8-20h2l8 20h2v2h-7v-2h2l-1.43-4h-9.11l-1.46 4h2v2h-7zm7-6h8l-3.992-10.422z" aria-label="A"/><path d="M170 268.5h-2.5v-21h2.5" fill="none" stroke="#000" stroke-opacity=".251"/><path d="M192.5 270v2.5h-21V270" fill="none" stroke="#000" stroke-opacity=".251"/></g></svg>