<svg version="1.0" viewBox="0 0 48 48" xmlns="http://www.w3.org/2000/svg"><g transform="translate(-156 -236)"><rect x="160" y="240" width="40" height="39" ry="3.5" fill="#d1a023"/><path d="M163.5 240a3.492 3.492 0 0 0-3.5 3.5v32c0 1.939 1.561 3.5 3.5 3.5h33c1.939 0 3.5-1.561 3.5-3.5v-32c0-1.939-1.561-3.5-3.5-3.5zm.5 1h32c1.662 0 3 1.338 3 3v29c0 1.662-1.338 3-3 3h-32c-1.662 0-3-1.338-3-3v-29c0-1.662 1.338-3 3-3z" fill-opacity=".502"/><g fill-opacity=".502"><path d="M184 254v5.598a10.27 10.27 0 0 1 5 3.744V254z"/><path d="M184 247.49c-1.84.769-3 2.317-3 4.008 0 2.485 2.462 4.5 5.5 4.5s5.5-1.515 5.5-4c-.002-1.69-1.16-3.736-3-4.504v4.504l-1.5 1h-2l-1.5-1z"/><path d="M180.5 260a9.5 9 0 0 0-9.5 9h-2.5c-.277 0-.5.223-.5.5v2c0 .277.223.5.5.5h24c.277 0 .5-.223.5-.5v-2c0-.277-.223-.5-.5-.5H190a9.5 9 0 0 0-9.5-9zm0 2.5a6.5 6.5 0 0 1 6.5 6.5h-13a6.5 6.5 0 0 1 6.5-6.5z"/></g><g fill="#fff"><path d="M184 253v5.598a10.27 10.27 0 0 1 5 3.744V253z"/><path d="M184 246.49c-1.84.769-3 2.317-3 4.008 0 2.485 2.462 4.5 5.5 4.5s5.5-1.515 5.5-4c-.002-1.69-1.16-3.736-3-4.504v4.504l-1.5 1h-2l-1.5-1z"/><path d="M180.5 259a9.5 9 0 0 0-9.5 9h-2.5c-.277 0-.5.223-.5.5v2c0 .277.223.5.5.5h24c.277 0 .5-.223.5-.5v-2c0-.277-.223-.5-.5-.5H190a9.5 9 0 0 0-9.5-9zm0 2.5a6.5 6.5 0 0 1 6.5 6.5h-13a6.5 6.5 0 0 1 6.5-6.5z"/></g></g></svg>