<svg version="1.0" viewBox="0 0 48 48" xmlns="http://www.w3.org/2000/svg"><g transform="translate(-156 -236)"><rect x="160" y="240" width="40" height="39" ry="3.5" fill="#faa41a"/><path d="M163.5 240a3.492 3.492 0 0 0-3.5 3.5v32c0 1.939 1.561 3.5 3.5 3.5h33c1.939 0 3.5-1.561 3.5-3.5v-32c0-1.939-1.561-3.5-3.5-3.5zm.5 1h32c1.662 0 3 1.338 3 3v29c0 1.662-1.338 3-3 3h-32c-1.662 0-3-1.338-3-3v-29c0-1.662 1.338-3 3-3z" fill-opacity=".502"/><path d="M173 250c-3 0-3 3-3 3v15c0 3 3 3 3 3h15s3 0 3-3v-15c0-3-3-3-3-3h-3zm0 3.006h12V255h-12zm0 3.994h14v2l-14 .006zm0 5.006h9V264h-9zm0 3.994h14v2.006h-14z" fill-opacity=".196"/><path d="M173 249c-3 0-3 3-3 3v15c0 3 3 3 3 3h15s3 0 3-3v-15c0-3-3-3-3-3h-3zm0 3.006h12V254h-12zm0 3.994h14v2l-14 .006zm0 5.006h9V263h-9zm0 3.994h14v2.006h-14z" fill="#fff"/></g></svg>