<svg version="1.0" viewBox="0 0 48 48" xmlns="http://www.w3.org/2000/svg"><g transform="translate(-156 -236)"><rect x="160" y="240" width="40" height="39" ry="3.5" fill="#3f51b5"/><path d="M163.5 240a3.492 3.492 0 0 0-3.5 3.5v32c0 1.939 1.561 3.5 3.5 3.5h33c1.939 0 3.5-1.561 3.5-3.5v-32c0-1.939-1.561-3.5-3.5-3.5zm.5 1h32c1.662 0 3 1.338 3 3v29c0 1.662-1.338 3-3 3h-32c-1.662 0-3-1.338-3-3v-29c0-1.662 1.338-3 3-3z" fill-opacity=".502"/><path d="M180.5 249c-6.34 0-11.5 5.16-11.5 11.5s5.16 11.5 11.5 11.5 11.5-5.16 11.5-11.5-5.16-11.5-11.5-11.5zm0 2c5.259 0 9.5 4.241 9.5 9.5s-4.241 9.5-9.5 9.5-9.5-4.241-9.5-9.5 4.241-9.5 9.5-9.5z" color="#000" fill-opacity=".502" style="font-feature-settings:normal;font-variant-alternates:normal;font-variant-caps:normal;font-variant-ligatures:normal;font-variant-numeric:normal;font-variant-position:normal;isolation:auto;mix-blend-mode:normal;shape-padding:0;text-decoration-color:#000;text-decoration-line:none;text-decoration-style:solid;text-indent:0;text-orientation:mixed;text-transform:none;white-space:normal"/><rect x="171" y="255" width="18" height="1" ry="0" fill-opacity=".502"/><rect x="171" y="265" width="18" height="1" ry="0" fill-opacity=".502"/><rect x="170" y="260" width="20" height="1" ry="0" fill-opacity=".502"/><path d="M180.5 250c-.64 0-1.167.42-1.576.996-.409.576-.742 1.35-1.024 2.29-.563 1.876-.9 4.412-.9 7.214s.337 5.338.9 7.215c.282.938.615 1.713 1.024 2.289.408.576.937.996 1.576.996s1.167-.42 1.576-.996c.409-.576.742-1.35 1.024-2.29.563-1.876.9-4.412.9-7.214s-.337-5.338-.9-7.215c-.282-.938-.615-1.713-1.024-2.289-.408-.576-.937-.996-1.576-.996zm0 1c.189 0 .45.138.76.574.309.436.621 1.127.883 1.998.522 1.743.857 4.207.857 6.928s-.335 5.185-.857 6.928c-.262.87-.574 1.562-.883 1.998-.31.436-.571.574-.76.574s-.45-.138-.76-.574c-.309-.436-.621-1.127-.883-1.998-.522-1.743-.857-4.207-.857-6.928s.335-5.185.857-6.928c.262-.871.574-1.562.883-1.998.31-.436.571-.574.76-.574z" color="#000" fill-opacity=".502" opacity=".5" style="font-feature-settings:normal;font-variant-alternates:normal;font-variant-caps:normal;font-variant-ligatures:normal;font-variant-numeric:normal;font-variant-position:normal;isolation:auto;mix-blend-mode:normal;shape-padding:0;text-decoration-color:#000;text-decoration-line:none;text-decoration-style:solid;text-indent:0;text-orientation:mixed;text-transform:none;white-space:normal"/><path d="M180.5 250c-2.126 0-4.024 1.235-5.36 3.143-1.335 1.907-2.14 4.501-2.14 7.357s.805 5.45 2.14 7.357c1.336 1.908 3.234 3.143 5.36 3.143s4.024-1.235 5.36-3.143c1.335-1.907 2.14-4.501 2.14-7.357s-.805-5.45-2.14-7.357c-1.336-1.908-3.234-3.143-5.36-3.143zm0 1c1.74 0 3.343 1.003 4.541 2.715 1.198 1.712 1.959 4.118 1.959 6.785s-.76 5.073-1.959 6.785c-1.198 1.712-2.801 2.715-4.541 2.715s-3.343-1.003-4.541-2.715c-1.198-1.712-1.959-4.118-1.959-6.785s.76-5.073 1.959-6.785c1.198-1.712 2.801-2.715 4.541-2.715z" color="#000" fill-opacity=".502" opacity=".5" style="font-feature-settings:normal;font-variant-alternates:normal;font-variant-caps:normal;font-variant-ligatures:normal;font-variant-numeric:normal;font-variant-position:normal;isolation:auto;mix-blend-mode:normal;shape-padding:0;text-decoration-color:#000;text-decoration-line:none;text-decoration-style:solid;text-indent:0;text-orientation:mixed;text-transform:none;white-space:normal"/><circle cx="180.5" cy="259.5" r="10.5" fill="none" stroke="#fdfdfd" stroke-linecap="square" stroke-width="2"/><rect x="171" y="254" width="18" height="1" ry="0" fill="#fff"/><rect x="171" y="264" width="18" height="1" ry="0" fill="#fff"/><rect x="170" y="259" width="20" height="1" ry="0" fill="#fff"/><ellipse cx="180.5" cy="259.5" rx="3" ry="10" fill="none" opacity=".5" stroke="#fdfdfd" stroke-linecap="square"/><ellipse cx="180.5" cy="259.5" rx="7" ry="10" fill="none" opacity=".5" stroke="#fdfdfd" stroke-linecap="square"/></g></svg>