<svg version="1.0" viewBox="0 0 48 48" xmlns="http://www.w3.org/2000/svg"><g transform="translate(-156 -236)"><rect x="488" y="52" width="208" height="208" ry="16.5" fill="#48b9c7"/><rect x="103" y="255" width="26" height="26" ry="2.5" fill="#48b9c7"/><rect x="57" y="261" width="22" height="22" ry="2.5" fill="#48b9c7"/><path d="M105.5 255a2.495 2.495 0 0 0-2.5 2.5v21c0 1.385 1.115 2.5 2.5 2.5h21c1.385 0 2.5-1.115 2.5-2.5v-21c0-1.385-1.115-2.5-2.5-2.5zm.5 1h20c1.108 0 2 .892 2 2v19c0 1.108-.892 2-2 2h-20c-1.108 0-2-.892-2-2v-19c0-1.108.892-2 2-2z" fill-opacity=".502"/><rect x="17" y="269" width="14" height="14" ry="2.5" fill="#48b9c7"/><rect x="230" y="226" width="52" height="52" ry="4.5" fill="#48b9c7"/><rect x="160" y="240" width="40" height="39" ry="3.5" fill="#48b9c7"/><rect x="324" y="168" width="104" height="104" ry="8.5" fill="#48b9c7"/><path d="M59.5 261a2.495 2.495 0 0 0-2.5 2.5v17c0 1.385 1.115 2.5 2.5 2.5h17c1.385 0 2.5-1.115 2.5-2.5v-17c0-1.385-1.115-2.5-2.5-2.5zm.5 1h16c1.108 0 2 .892 2 2v16c0 1.108-.892 2-2 2H60c-1.108 0-2-.892-2-2v-16c0-1.108.892-2 2-2z" fill-opacity=".502"/><path d="M19.5 269a2.495 2.495 0 0 0-2.5 2.5v9c0 1.385 1.115 2.5 2.5 2.5h9c1.385 0 2.5-1.115 2.5-2.5v-9c0-1.385-1.115-2.5-2.5-2.5zm.5 1h8c1.108 0 2 .892 2 2v8c0 1.108-.892 2-2 2h-8c-1.108 0-2-.892-2-2v-8c0-1.108.892-2 2-2z" fill-opacity=".502"/><path d="M234.5 226a4.49 4.49 0 0 0-4.5 4.5v43a4.49 4.49 0 0 0 4.5 4.5h43a4.49 4.49 0 0 0 4.5-4.5v-43a4.49 4.49 0 0 0-4.5-4.5zm.5 1h42c2.216 0 4 1.784 4 4v40c0 2.216-1.784 4-4 4h-42c-2.216 0-4-1.784-4-4v-40c0-2.216 1.784-4 4-4z" fill-opacity=".502"/><path d="M163.5 240a3.492 3.492 0 0 0-3.5 3.5v32c0 1.939 1.561 3.5 3.5 3.5h33c1.939 0 3.5-1.561 3.5-3.5v-32c0-1.939-1.561-3.5-3.5-3.5zm.5 1h32c1.662 0 3 1.338 3 3v29c0 1.662-1.338 3-3 3h-32c-1.662 0-3-1.338-3-3v-29c0-1.662 1.338-3 3-3z" fill-opacity=".502"/><path d="M332.5 168a8.481 8.481 0 0 0-8.5 8.5v87c0 4.709 3.791 8.5 8.5 8.5h87c4.709 0 8.5-3.791 8.5-8.5v-87c0-4.709-3.791-8.5-8.5-8.5zm.5 1h86c4.432 0 8 3.568 8 8v83c0 4.432-3.568 8-8 8h-86c-4.432 0-8-3.568-8-8v-83c0-4.432 3.568-8 8-8z" fill-opacity=".502"/><path d="M504.5 52c-9.141 0-16.5 7.359-16.5 16.5v175c0 9.141 7.359 16.5 16.5 16.5h175c9.141 0 16.5-7.359 16.5-16.5v-175c0-9.141-7.359-16.5-16.5-16.5zm.5 1h174c8.864 0 16 7.136 16 16v170c0 8.864-7.136 16-16 16H505c-8.864 0-16-7.136-16-16V69c0-8.864 7.136-16 16-16z" fill-opacity=".502"/><g fill-opacity=".196"><path d="M115.74 261.01c-2.11.03-4.945.802-4.897 3.28.05 2.587 2.917 1.662 3.15 2.719.035-.045.088-.082.125-.125.197-.213.395-.388.593-.594.312-.352.636-.679.967-1.03 1.106-1.179 1.154-1.25 3.796-3.25-1.035-.621-2.258-.966-3.297-1-.134-.005-.297-.002-.437 0zm-1.903 1.531c.827 0 1.498.671 1.498 1.5a1.498 1.498 0 1 1-2.995 0c0-.828.67-1.5 1.497-1.5zm7.269.662c-1.418 2.233-2.367 3.556-3.37 4.587-.639.658-1.163 1.312-1.622 1.781-.839.89-1.938 1.94-3.15 3.093.063 1.47.81 2.747 3.244 3.218 3.898.756 8.027-1.824 7.611-7.06-.178-2.249-1.405-4.282-2.713-5.62zm.342 3.806a1 1 0 0 1 0 2 1 1 0 0 1 0-2zm-.624 3a1 1 0 0 1 0 2 1 1 0 0 1 0-2zm-4.99 2a1 1 0 0 1 0 1.999 1 1 0 0 1 0-2zm2.994 0a1 1 0 0 1 0 1.999 1 1 0 0 1 0-2z"/><path d="M107.842 274.5c1.552 0 1.394-1.788 2.147-2.286.873-.577 1.639.138 1.792.726.192.743-.117 1.632-1.13 1.885-1.074.268-2.662.276-2.809-.326z"/><path d="M121.88 261.01c-1.8 1.299-4.206 3.302-6.115 5.333-.173.185-.34.363-.504.548-.104.107-.212.195-.315.307-.066.077-.126.163-.19.24-1.873 2.07-3.72 4.68-4.917 6.632 2.978-2.297 4.916-4.165 6.147-5.47.24-.246.529-.566.85-.923 1.204-1.335 2.926-3.438 5.044-6.667z"/><path d="M67.74 265.01c-2.11.03-4.945.802-4.897 3.28.05 2.587 2.917 1.662 3.15 2.719.035-.045.088-.082.125-.125.197-.213.395-.388.593-.594.312-.352.636-.679.967-1.03 1.106-1.179 1.154-1.25 3.796-3.25-1.035-.621-2.258-.966-3.297-1-.134-.005-.296-.002-.437 0zm-1.903 1.531c.827 0 1.498.671 1.498 1.5a1.498 1.498 0 1 1-2.995 0c0-.828.67-1.5 1.497-1.5zm7.269.662c-1.418 2.233-2.367 3.556-3.37 4.587-.639.658-1.163 1.312-1.622 1.781-.839.89-1.938 1.94-3.15 3.093.063 1.47.81 2.747 3.244 3.218 3.898.756 8.027-1.824 7.611-7.06-.178-2.249-1.405-4.282-2.713-5.62zm.342 3.806a1 1 0 0 1 0 2 1 1 0 0 1 0-2zm-.624 3a1 1 0 0 1 0 2 1 1 0 0 1 0-2zm-4.99 2a1 1 0 0 1 0 1.999 1 1 0 0 1 0-2zm2.994 0a1 1 0 0 1 0 1.999 1 1 0 0 1 0-2z"/><path d="M59.842 278.5c1.552 0 1.394-1.788 2.147-2.286.873-.577 1.639.138 1.792.726.192.743-.117 1.632-1.13 1.885-1.074.268-2.662.276-2.809-.326z"/><path d="M73.88 265.01c-1.8 1.299-4.206 3.302-6.115 5.333-.173.185-.34.363-.504.548-.104.107-.212.195-.315.307-.066.077-.126.163-.19.24-1.873 2.07-3.72 4.68-4.917 6.632 2.978-2.297 4.916-4.165 6.147-5.47.24-.246.529-.566.85-.923 1.204-1.335 2.926-3.438 5.044-6.667z"/><path d="M23.948 273.255c-1.055.015-2.473.401-2.449 1.64.025 1.293 1.459.831 1.576 1.36.017-.023.044-.042.062-.063.099-.107.198-.194.296-.297.157-.176.318-.34.484-.515.553-.59.577-.625 1.898-1.625a3.563 3.563 0 0 0-1.649-.5 5.28 5.28 0 0 0-.218 0zm-.951.765a.75.75 0 1 1-.002 1.499.75.75 0 0 1 .002-1.499zm3.634.331c-.71 1.117-1.183 1.778-1.685 2.294-.32.329-.581.656-.81.89-.42.446-.97.97-1.576 1.547.032.735.405 1.373 1.622 1.61 1.949.377 4.013-.913 3.806-3.531-.09-1.124-.703-2.141-1.357-2.81zm-.129 1.654a.5.5 0 1 1-.002 1 .5.5 0 0 1 .002-1zm0 2a.5.5 0 1 1-.002 1 .5.5 0 0 1 .002-1zm-3 1a.5.5 0 1 1-.002 1 .5.5 0 0 1 .002-1zm2 0a.5.5 0 1 1-.002 1 .5.5 0 0 1 .002-1z"/><path d="M19.999 280c.776 0 .697-.894 1.074-1.143.436-.288.819.069.895.363.097.371-.058.816-.565.942-.536.135-1.33.139-1.404-.162z"/><path d="M27.018 273.255c-.9.65-2.103 1.65-3.057 2.667-.087.092-.17.18-.253.273-.051.054-.105.098-.157.154-.033.038-.063.082-.095.12-.936 1.035-1.86 2.34-2.458 3.316 1.488-1.149 2.458-2.082 3.073-2.735.12-.123.265-.283.425-.462.602-.667 1.463-1.718 2.522-3.333z"/><path d="M179.61 249.009c-3.165.044-7.418 1.203-7.346 4.921.075 3.88 4.376 2.492 4.726 4.077.053-.067.132-.123.187-.187.296-.32.593-.582.889-.89.469-.53.954-1.019 1.45-1.547 1.66-1.767 1.732-1.875 5.694-4.874-1.552-.932-3.387-1.449-4.945-1.5-.2-.007-.444-.003-.655 0zm-2.854 2.296c1.24 0 2.246 1.008 2.246 2.25s-1.006 2.25-2.246 2.25-2.246-1.007-2.246-2.25 1.005-2.25 2.246-2.25zm10.903.993c-2.128 3.35-3.55 5.334-5.055 6.881-.958.987-1.744 1.968-2.433 2.672-1.258 1.335-2.906 2.91-4.725 4.64.095 2.203 1.216 4.119 4.866 4.827 5.847 1.134 12.04-2.737 11.417-10.592-.268-3.372-2.108-6.422-4.07-8.428zm.514 5.71a1.5 1.5 0 0 1 0 2.999 1.5 1.5 0 0 1 0-3zm-.936 4.499a1.5 1.5 0 0 1 0 3 1.5 1.5 0 0 1 0-3zm-7.487 3a1.5 1.5 0 0 1 0 2.999 1.5 1.5 0 0 1 0-3zm4.492 0a1.5 1.5 0 0 1 0 2.999 1.5 1.5 0 0 1 0-3z"/><path d="M167.763 269.243c2.328 0 2.09-2.681 3.22-3.428 1.31-.865 2.459.207 2.688 1.09.289 1.113-.175 2.446-1.695 2.826-1.61.403-3.993.415-4.213-.488z"/><path d="M188.82 249.009c-2.7 1.948-6.31 4.953-9.172 8-.26.277-.511.544-.757.82-.155.163-.317.295-.473.462-.098.115-.188.245-.283.36-2.81 3.105-5.58 7.02-7.376 9.948 4.466-3.446 7.374-6.247 9.22-8.205.36-.369.794-.85 1.276-1.385 1.806-2.002 4.388-5.156 7.565-10z"/><path d="M256.013 239.006c-3.956.056-9.273 1.504-9.183 6.152.093 4.848 5.47 3.114 5.907 5.096.066-.084.166-.154.234-.234.37-.4.741-.727 1.111-1.113.586-.661 1.193-1.273 1.813-1.933 2.075-2.21 2.165-2.344 7.118-6.093-1.94-1.164-4.234-1.81-6.182-1.875-.25-.009-.555-.003-.819 0zm-3.568 2.87c1.55 0 2.807 1.26 2.807 2.813s-1.257 2.812-2.807 2.812-2.808-1.259-2.808-2.812 1.257-2.812 2.808-2.812zm13.629 1.241c-2.66 4.188-4.438 6.668-6.318 8.602-1.199 1.233-2.181 2.46-3.042 3.34-1.573 1.668-3.633 3.638-5.907 5.799.119 2.754 1.52 5.15 6.083 6.034 7.309 1.417 15.05-3.42 14.27-13.24-.334-4.215-2.634-8.027-5.086-10.535zm.642 7.137c1.029 0 1.871.84 1.871 1.875a1.876 1.876 0 0 1-1.871 1.875 1.876 1.876 0 0 1-1.872-1.875c0-1.035.843-1.875 1.872-1.875zm-1.17 5.624c1.029 0 1.872.84 1.872 1.875a1.876 1.876 0 0 1-1.872 1.875 1.876 1.876 0 0 1-1.872-1.875c0-1.035.843-1.875 1.872-1.875zm-9.358 3.75c1.029 0 1.872.839 1.872 1.874a1.876 1.876 0 0 1-1.872 1.875 1.876 1.876 0 0 1-1.872-1.875c0-1.035.843-1.874 1.872-1.874zm5.615 0a1.875 1.875 0 0 1 0 3.749 1.877 1.877 0 0 1-1.872-1.875c0-1.035.843-1.874 1.872-1.874z"/><path d="M241.204 264.299c2.91 0 2.613-3.352 4.026-4.285 1.637-1.082 3.072.258 3.359 1.361.361 1.392-.22 3.06-2.12 3.534-2.012.503-4.99.518-5.265-.61z"/><path d="M267.525 239.006c-3.374 2.435-7.887 6.191-11.465 10-.325.346-.64.68-.946 1.026-.194.203-.397.368-.591.577-.122.144-.236.305-.355.449-3.512 3.882-6.974 8.776-9.22 12.436 5.583-4.307 9.218-7.809 11.525-10.257.451-.46.993-1.061 1.596-1.73 2.257-2.503 5.485-6.446 9.456-12.5z"/><path d="M375.72 198.02c-6.33.089-14.835 2.407-14.692 9.842.15 7.758 8.752 4.984 9.451 8.155.106-.135.265-.246.375-.375.592-.64 1.185-1.163 1.778-1.78.937-1.059 1.908-2.038 2.9-3.094 3.32-3.534 3.463-3.75 11.389-9.748-3.104-1.863-6.774-2.897-9.891-3-.4-.015-.888-.006-1.31 0zm-5.708 4.593c2.48 0 4.492 2.014 4.492 4.5s-2.012 4.498-4.492 4.498c-2.481 0-4.492-2.014-4.492-4.499s2.01-4.499 4.492-4.499zm21.806 1.985c-4.255 6.7-7.1 10.668-10.11 13.762-1.917 1.973-3.488 3.935-4.865 5.343-2.517 2.67-5.813 5.823-9.452 9.28.19 4.406 2.433 8.239 9.733 9.654 11.694 2.268 24.08-5.472 22.833-21.184-.535-6.744-4.215-12.843-8.14-16.855zm1.027 11.419a3.002 3.002 0 0 1 2.995 3 3.002 3.002 0 0 1-2.995 2.999 3.002 3.002 0 0 1-2.994-3c0-1.656 1.348-3 2.994-3zm-1.872 8.998a3.002 3.002 0 0 1 2.995 3c0 1.656-1.348 3-2.995 3a3.002 3.002 0 0 1-2.994-3c0-1.657 1.348-3 2.994-3zm-14.972 6a3.002 3.002 0 0 1 2.994 2.999c0 1.656-1.348 3-2.994 3a3.002 3.002 0 0 1-2.995-3c0-1.657 1.348-3 2.995-3zm8.984 0a3.002 3.002 0 0 1 2.994 2.999c0 1.656-1.348 3-2.994 3s-2.995-1.344-2.995-3c0-1.657 1.348-3 2.995-3z"/><path d="M352.026 238.488c4.656.002 4.18-5.363 6.442-6.856 2.62-1.73 4.915.414 5.374 2.179.578 2.227-.35 4.894-3.39 5.654-3.22.805-7.985.829-8.426-.977z"/><path d="M394.14 198.02c-5.399 3.896-12.619 9.905-18.345 16-.52.554-1.022 1.088-1.513 1.642-.31.323-.635.587-.945.923-.196.23-.378.488-.568.718-5.619 6.21-11.159 14.042-14.75 19.898 8.931-6.892 14.747-12.495 18.438-16.411.721-.738 1.588-1.7 2.553-2.77 3.611-4.003 8.776-10.312 15.13-20z"/><path d="M591.44 112.04c-12.659.178-29.67 4.813-29.384 19.684.299 15.517 17.504 9.968 18.903 16.31.211-.27.53-.493.748-.75 1.185-1.28 2.371-2.326 3.556-3.562 1.875-2.115 3.818-4.074 5.802-6.186 6.64-7.069 6.925-7.5 22.776-19.497-6.207-3.726-13.547-5.794-19.782-5.999-.799-.03-1.776-.012-2.62 0zm-11.417 9.186c4.962 0 8.984 4.029 8.984 8.999s-4.022 8.998-8.984 8.998c-4.961 0-8.984-4.029-8.984-8.998s4.023-8.999 8.984-8.999zm43.612 3.97c-8.51 13.4-14.2 21.335-20.217 27.525-3.836 3.945-6.979 7.87-9.732 10.685-5.034 5.342-11.627 11.645-18.903 18.56.38 8.812 4.865 16.478 19.464 19.309 23.389 4.535 48.161-10.945 45.668-42.368-1.07-13.488-8.432-25.688-16.28-33.712zm2.055 22.838c3.293 0 5.99 2.686 5.99 5.999 0 3.313-2.697 5.999-5.99 5.999s-5.989-2.686-5.989-6c0-3.312 2.696-5.998 5.99-5.998zm-3.743 17.997c3.293 0 5.989 2.686 5.989 5.999 0 3.313-2.696 5.999-5.99 5.999-3.292 0-5.988-2.686-5.988-6 0-3.312 2.696-5.998 5.989-5.998zm-29.945 11.997c3.292 0 5.989 2.686 5.989 6 0 3.312-2.697 5.998-5.99 5.998-3.292 0-5.989-2.686-5.989-5.999 0-3.313 2.697-5.999 5.99-5.999zm17.967 0c3.293 0 5.99 2.686 5.99 6 0 3.312-2.697 5.998-5.99 5.998s-5.989-2.686-5.989-5.999c0-3.313 2.696-5.999 5.99-5.999z"/><path d="M544.052 192.976c9.312.004 8.362-10.725 12.883-13.712 5.24-3.462 9.832.828 10.748 4.357 1.157 4.455-.7 9.788-6.78 11.308-6.44 1.61-15.97 1.658-16.851-1.953z"/><path d="M628.28 112.04c-10.798 7.793-25.238 19.81-36.69 32.001-1.039 1.107-2.043 2.174-3.025 3.282-.621.647-1.27 1.175-1.892 1.846-.391.46-.755.977-1.134 1.436-11.239 12.422-22.318 28.085-29.503 39.797 17.864-13.785 29.496-24.99 36.879-32.822 1.442-1.475 3.175-3.398 5.106-5.539 7.221-8.007 17.55-20.625 30.259-40.001z"/></g><g fill="#fff"><path d="M115.74 260.01c-2.11.03-4.945.802-4.897 3.28.05 2.587 2.917 1.662 3.15 2.719.035-.045.088-.082.125-.125.197-.213.395-.388.593-.594.312-.352.636-.679.967-1.03 1.106-1.179 1.154-1.25 3.796-3.25-1.035-.621-2.258-.966-3.297-1-.134-.005-.297-.002-.437 0zm-1.903 1.531c.827 0 1.498.671 1.498 1.5a1.498 1.498 0 1 1-2.995 0c0-.828.67-1.5 1.497-1.5zm7.269.662c-1.418 2.233-2.367 3.556-3.37 4.587-.639.658-1.163 1.312-1.622 1.781-.839.89-1.938 1.94-3.15 3.093.063 1.47.81 2.747 3.244 3.218 3.898.756 8.027-1.824 7.611-7.06-.178-2.249-1.405-4.282-2.713-5.62zm.342 3.806a1 1 0 0 1 0 2 1 1 0 0 1 0-2zm-.624 3a1 1 0 0 1 0 2 1 1 0 0 1 0-2zm-4.99 2a1 1 0 0 1 0 1.999 1 1 0 0 1 0-2zm2.994 0a1 1 0 0 1 0 1.999 1 1 0 0 1 0-2z"/><path d="M107.842 273.5c1.552 0 1.394-1.788 2.147-2.286.873-.577 1.639.138 1.792.726.192.743-.117 1.632-1.13 1.885-1.074.268-2.662.276-2.809-.326z"/><path d="M121.88 260.01c-1.8 1.299-4.206 3.302-6.115 5.333-.173.185-.34.363-.504.548-.104.107-.212.195-.315.307-.066.077-.126.163-.19.24-1.873 2.07-3.72 4.68-4.917 6.632 2.978-2.297 4.916-4.165 6.147-5.47.24-.246.529-.566.85-.923 1.204-1.335 2.926-3.438 5.044-6.667z"/><path d="M67.74 264.01c-2.11.03-4.945.802-4.897 3.28.05 2.587 2.917 1.662 3.15 2.719.035-.045.088-.082.125-.125.197-.213.395-.388.593-.594.312-.352.636-.679.967-1.03 1.106-1.179 1.154-1.25 3.796-3.25-1.035-.621-2.258-.966-3.297-1-.134-.005-.296-.002-.437 0zm-1.903 1.531c.827 0 1.498.671 1.498 1.5a1.498 1.498 0 1 1-2.995 0c0-.828.67-1.5 1.497-1.5zm7.269.662c-1.418 2.233-2.367 3.556-3.37 4.587-.639.658-1.163 1.312-1.622 1.781-.839.89-1.938 1.94-3.15 3.093.063 1.47.81 2.747 3.244 3.218 3.898.756 8.027-1.824 7.611-7.06-.178-2.249-1.405-4.282-2.713-5.62zm.342 3.806a1 1 0 0 1 0 2 1 1 0 0 1 0-2zm-.624 3a1 1 0 0 1 0 2 1 1 0 0 1 0-2zm-4.99 2a1 1 0 0 1 0 1.999 1 1 0 0 1 0-2zm2.994 0a1 1 0 0 1 0 1.999 1 1 0 0 1 0-2z"/><path d="M59.842 277.5c1.552 0 1.394-1.788 2.147-2.286.873-.577 1.639.138 1.792.726.192.743-.117 1.632-1.13 1.885-1.074.268-2.662.276-2.809-.326z"/><path d="M73.88 264.01c-1.8 1.299-4.206 3.302-6.115 5.333-.173.185-.34.363-.504.548-.104.107-.212.195-.315.307-.066.077-.126.163-.19.24-1.873 2.07-3.72 4.68-4.917 6.632 2.978-2.297 4.916-4.165 6.147-5.47.24-.246.529-.566.85-.923 1.204-1.335 2.926-3.438 5.044-6.667z"/><path d="M23.948 272.255c-1.055.015-2.473.401-2.449 1.64.025 1.293 1.459.831 1.576 1.36.017-.023.044-.042.062-.063.099-.107.198-.194.296-.297.157-.176.318-.34.484-.515.553-.59.577-.625 1.898-1.625a3.563 3.563 0 0 0-1.649-.5 5.28 5.28 0 0 0-.218 0zm-.951.765a.75.75 0 1 1-.002 1.499.75.75 0 0 1 .002-1.499zm3.634.331c-.71 1.117-1.183 1.778-1.685 2.294-.32.329-.581.656-.81.89-.42.446-.97.97-1.576 1.547.032.735.405 1.373 1.622 1.61 1.949.377 4.013-.913 3.806-3.531-.09-1.124-.703-2.141-1.357-2.81zm-.129 1.654a.5.5 0 1 1-.002 1 .5.5 0 0 1 .002-1zm0 2a.5.5 0 1 1-.002 1 .5.5 0 0 1 .002-1zm-3 1a.5.5 0 1 1-.002 1 .5.5 0 0 1 .002-1zm2 0a.5.5 0 1 1-.002 1 .5.5 0 0 1 .002-1z"/><path d="M19.999 279c.776 0 .697-.894 1.074-1.143.436-.288.819.069.895.363.097.371-.058.816-.565.942-.536.135-1.33.139-1.404-.162z"/><path d="M27.018 272.255c-.9.65-2.103 1.65-3.057 2.667-.087.092-.17.18-.253.273-.051.054-.105.098-.157.154-.033.038-.063.082-.095.12-.936 1.035-1.86 2.34-2.458 3.316 1.488-1.149 2.458-2.082 3.073-2.735.12-.123.265-.283.425-.462.602-.667 1.463-1.718 2.522-3.333z"/><path d="M179.61 248.009c-3.165.044-7.418 1.203-7.346 4.921.075 3.88 4.376 2.492 4.726 4.077.053-.067.132-.123.187-.187.296-.32.593-.582.889-.89.469-.53.954-1.019 1.45-1.547 1.66-1.767 1.732-1.875 5.694-4.874-1.552-.932-3.387-1.449-4.945-1.5-.2-.007-.444-.003-.655 0zm-2.854 2.296c1.24 0 2.246 1.008 2.246 2.25s-1.006 2.25-2.246 2.25-2.246-1.007-2.246-2.25 1.005-2.25 2.246-2.25zm10.903.993c-2.128 3.35-3.55 5.334-5.055 6.881-.958.987-1.744 1.968-2.433 2.672-1.258 1.335-2.906 2.91-4.725 4.64.095 2.203 1.216 4.119 4.866 4.827 5.847 1.134 12.04-2.737 11.417-10.592-.268-3.372-2.108-6.422-4.07-8.428zm.514 5.71a1.5 1.5 0 0 1 0 2.999 1.5 1.5 0 0 1 0-3zm-.936 4.499a1.5 1.5 0 0 1 0 3 1.5 1.5 0 0 1 0-3zm-7.487 3a1.5 1.5 0 0 1 0 2.999 1.5 1.5 0 0 1 0-3zm4.492 0a1.5 1.5 0 0 1 0 2.999 1.5 1.5 0 0 1 0-3z"/><path d="M167.763 268.243c2.328 0 2.09-2.681 3.22-3.428 1.31-.865 2.459.207 2.688 1.09.289 1.113-.175 2.446-1.695 2.826-1.61.403-3.993.415-4.213-.488z"/><path d="M188.82 248.009c-2.7 1.948-6.31 4.953-9.172 8-.26.277-.511.544-.757.82-.155.163-.317.295-.473.462-.098.115-.188.245-.283.36-2.81 3.105-5.58 7.02-7.376 9.948 4.466-3.446 7.374-6.247 9.22-8.205.36-.369.794-.85 1.276-1.385 1.806-2.002 4.388-5.156 7.565-10z"/><path d="M256.013 238.006c-3.956.056-9.273 1.504-9.183 6.152.093 4.848 5.47 3.114 5.907 5.096.066-.084.166-.154.234-.234.37-.4.741-.727 1.111-1.113.586-.661 1.193-1.273 1.813-1.933 2.075-2.21 2.165-2.344 7.118-6.093-1.94-1.164-4.234-1.81-6.182-1.875-.25-.009-.555-.003-.819 0zm-3.568 2.87c1.55 0 2.807 1.26 2.807 2.813s-1.257 2.812-2.807 2.812-2.808-1.259-2.808-2.812 1.257-2.812 2.808-2.812zm13.629 1.241c-2.66 4.188-4.438 6.668-6.318 8.602-1.199 1.233-2.181 2.46-3.042 3.34-1.573 1.668-3.633 3.638-5.907 5.799.119 2.754 1.52 5.15 6.083 6.034 7.309 1.417 15.05-3.42 14.27-13.24-.334-4.215-2.634-8.027-5.086-10.535zm.642 7.137c1.029 0 1.871.84 1.871 1.875a1.876 1.876 0 0 1-1.871 1.875 1.876 1.876 0 0 1-1.872-1.875c0-1.035.843-1.875 1.872-1.875zm-1.17 5.624c1.029 0 1.872.84 1.872 1.875a1.876 1.876 0 0 1-1.872 1.875 1.876 1.876 0 0 1-1.872-1.875c0-1.035.843-1.875 1.872-1.875zm-9.358 3.75c1.029 0 1.872.839 1.872 1.874a1.876 1.876 0 0 1-1.872 1.875 1.876 1.876 0 0 1-1.872-1.875c0-1.035.843-1.874 1.872-1.874zm5.615 0a1.875 1.875 0 0 1 0 3.749 1.877 1.877 0 0 1-1.872-1.875c0-1.035.843-1.874 1.872-1.874z"/><path d="M241.204 263.299c2.91 0 2.613-3.352 4.026-4.285 1.637-1.082 3.072.258 3.359 1.361.361 1.392-.22 3.06-2.12 3.534-2.012.503-4.99.518-5.265-.61z"/><path d="M267.525 238.006c-3.374 2.435-7.887 6.191-11.465 10-.325.346-.64.68-.946 1.026-.194.203-.397.368-.591.577-.122.144-.236.305-.355.449-3.512 3.882-6.974 8.776-9.22 12.436 5.583-4.307 9.218-7.809 11.525-10.257.451-.46.993-1.061 1.596-1.73 2.257-2.503 5.485-6.446 9.456-12.5z"/><path d="M375.72 197.02c-6.33.089-14.835 2.407-14.692 9.842.15 7.758 8.752 4.984 9.451 8.155.106-.135.265-.246.375-.375.592-.64 1.185-1.163 1.778-1.78.937-1.059 1.908-2.038 2.9-3.094 3.32-3.534 3.463-3.75 11.389-9.748-3.104-1.863-6.774-2.897-9.891-3-.4-.015-.888-.006-1.31 0zm-5.708 4.593c2.48 0 4.492 2.014 4.492 4.5s-2.012 4.498-4.492 4.498c-2.481 0-4.492-2.014-4.492-4.499s2.01-4.499 4.492-4.499zm21.806 1.985c-4.255 6.7-7.1 10.668-10.11 13.762-1.917 1.973-3.488 3.935-4.865 5.343-2.517 2.67-5.813 5.823-9.452 9.28.19 4.406 2.433 8.239 9.733 9.654 11.694 2.268 24.08-5.472 22.833-21.184-.535-6.744-4.215-12.843-8.14-16.855zm1.027 11.419a3.002 3.002 0 0 1 2.995 3 3.002 3.002 0 0 1-2.995 2.999 3.002 3.002 0 0 1-2.994-3c0-1.656 1.348-3 2.994-3zm-1.872 8.998a3.002 3.002 0 0 1 2.995 3c0 1.656-1.348 3-2.995 3a3.002 3.002 0 0 1-2.994-3c0-1.657 1.348-3 2.994-3zm-14.972 6a3.002 3.002 0 0 1 2.994 2.999c0 1.656-1.348 3-2.994 3a3.002 3.002 0 0 1-2.995-3c0-1.657 1.348-3 2.995-3zm8.984 0a3.002 3.002 0 0 1 2.994 2.999c0 1.656-1.348 3-2.994 3s-2.995-1.344-2.995-3c0-1.657 1.348-3 2.995-3z"/><path d="M352.026 237.488c4.656.002 4.18-5.363 6.442-6.856 2.62-1.73 4.915.414 5.374 2.179.578 2.227-.35 4.894-3.39 5.654-3.22.805-7.985.829-8.426-.977z"/><path d="M394.14 197.02c-5.399 3.896-12.619 9.905-18.345 16-.52.554-1.022 1.088-1.513 1.642-.31.323-.635.587-.945.923-.196.23-.378.488-.568.718-5.619 6.21-11.159 14.042-14.75 19.898 8.931-6.892 14.747-12.495 18.438-16.411.721-.738 1.588-1.7 2.553-2.77 3.611-4.003 8.776-10.312 15.13-20z"/><path d="M591.44 111.04c-12.659.178-29.67 4.813-29.384 19.684.299 15.517 17.504 9.968 18.903 16.31.211-.27.53-.493.748-.75 1.185-1.28 2.371-2.326 3.556-3.562 1.875-2.115 3.818-4.074 5.802-6.186 6.64-7.069 6.925-7.5 22.776-19.497-6.207-3.726-13.547-5.794-19.782-5.999-.799-.03-1.776-.012-2.62 0zm-11.417 9.186c4.962 0 8.984 4.029 8.984 8.999s-4.022 8.998-8.984 8.998c-4.961 0-8.984-4.029-8.984-8.998s4.023-8.999 8.984-8.999zm43.612 3.97c-8.51 13.4-14.2 21.335-20.217 27.525-3.836 3.945-6.979 7.87-9.732 10.685-5.034 5.342-11.627 11.645-18.903 18.56.38 8.812 4.865 16.478 19.464 19.309 23.389 4.535 48.161-10.945 45.668-42.368-1.07-13.488-8.432-25.688-16.28-33.712zm2.055 22.838c3.293 0 5.99 2.686 5.99 5.999 0 3.313-2.697 5.999-5.99 5.999s-5.989-2.686-5.989-6c0-3.312 2.696-5.998 5.99-5.998zm-3.743 17.997c3.293 0 5.989 2.686 5.989 5.999 0 3.313-2.696 5.999-5.99 5.999-3.292 0-5.988-2.686-5.988-6 0-3.312 2.696-5.998 5.989-5.998zm-29.945 11.997c3.292 0 5.989 2.686 5.989 6 0 3.312-2.697 5.998-5.99 5.998-3.292 0-5.989-2.686-5.989-5.999 0-3.313 2.697-5.999 5.99-5.999zm17.967 0c3.293 0 5.99 2.686 5.99 6 0 3.312-2.697 5.998-5.99 5.998s-5.989-2.686-5.989-5.999c0-3.313 2.696-5.999 5.99-5.999z"/><path d="M544.052 191.976c9.312.004 8.362-10.725 12.883-13.712 5.24-3.462 9.832.828 10.748 4.357 1.157 4.455-.7 9.788-6.78 11.308-6.44 1.61-15.97 1.658-16.851-1.953z"/><path d="M628.28 111.04c-10.798 7.793-25.238 19.81-36.69 32.001-1.039 1.107-2.043 2.174-3.025 3.282-.621.647-1.27 1.175-1.892 1.846-.391.46-.755.977-1.134 1.436-11.239 12.422-22.318 28.085-29.503 39.797 17.864-13.785 29.496-24.99 36.879-32.822 1.442-1.475 3.175-3.398 5.106-5.539 7.221-8.007 17.55-20.625 30.259-40.001z"/></g></g></svg>