<svg version="1.0" viewBox="0 0 48 48" xmlns="http://www.w3.org/2000/svg"><g transform="translate(-156 -236)"><rect x="160" y="240" width="40" height="39" ry="3.5" fill="#3f51b5"/><path d="M163.5 240a3.492 3.492 0 0 0-3.5 3.5v32c0 1.939 1.561 3.5 3.5 3.5h33c1.939 0 3.5-1.561 3.5-3.5v-32c0-1.939-1.561-3.5-3.5-3.5zm.5 1h32c1.662 0 3 1.338 3 3v29c0 1.662-1.338 3-3 3h-32c-1.662 0-3-1.338-3-3v-29c0-1.662 1.338-3 3-3z" fill-opacity=".502"/><g transform="matrix(1.5 0 0 1.5 -76.5 1)" fill-opacity=".196"><path transform="translate(.333 5) scale(.66667)" d="m247 243-2.977 17.824 2.616 1.154 3.36-5.478h11.827l3.555 5.502 2.578-1.272-2.96-17.73z" filter="url(#filter7554)"/><rect x="165" y="166" width="4" height="2" ry="1" filter="url(#filter7554)"/><rect x="173" y="166" width="4" height="2" ry="1" filter="url(#filter7554)"/><rect x="177" y="178" width="2" height="2" ry="1" filter="url(#filter7554)"/><rect x="163" y="178" width="2" height="2" ry="1" filter="url(#filter7554)"/><circle cx="173.33" cy="169.67" r="1"/><circle cx="175.33" cy="173" r="1"/><g transform="translate(.667)"><rect x="166.33" y="168.67" width="1.333" height="4" ry=".333"/><rect x="165" y="170" width="4" height="1.333" ry=".333"/></g></g><g transform="translate(-76.5) scale(1.5)"><path transform="translate(.333 5) scale(.66667)" d="m247 243-2.977 17.824 2.616 1.154 3.36-5.478h11.827l3.555 5.502 2.578-1.272-2.96-17.73z" fill="#fff" filter="url(#filter7554)"/><rect x="165" y="166" width="4" height="2" ry="1" fill="#fff" filter="url(#filter7554)"/><rect x="173" y="166" width="4" height="2" ry="1" fill="#fff" filter="url(#filter7554)"/><rect x="177" y="178" width="2" height="2" ry="1" fill="#fff" filter="url(#filter7554)"/><rect x="163" y="178" width="2" height="2" ry="1" fill="#fff" filter="url(#filter7554)"/><circle cx="173.33" cy="169.67" r="1" fill="#3f51b5"/><circle cx="175.33" cy="173" r="1" fill="#3f51b5"/><g transform="translate(.667)" fill="#3f51b5"><rect x="166.33" y="168.67" width="1.333" height="4" ry=".333"/><rect x="165" y="170" width="4" height="1.333" ry=".333"/></g></g></g></svg>