<svg version="1.0" viewBox="0 0 48 48" xmlns="http://www.w3.org/2000/svg"><g transform="translate(-156 -236)"><rect x="160" y="240" width="40" height="39" ry="3.5" fill="#9c27b0"/><path d="M163.5 240a3.492 3.492 0 0 0-3.5 3.5v32c0 1.939 1.561 3.5 3.5 3.5h33c1.939 0 3.5-1.561 3.5-3.5v-32c0-1.939-1.561-3.5-3.5-3.5zm.5 1h32c1.662 0 3 1.338 3 3v29c0 1.662-1.338 3-3 3h-32c-1.662 0-3-1.338-3-3v-29c0-1.662 1.338-3 3-3z" fill-opacity=".502"/><g transform="translate(64 -3.774)" fill-opacity=".196" color="#000"><rect x="109" y="256.27" width="6" height="16" rx="2.934" ry="2.986"/><path d="M114.41 256.27c.878.713 1.469 1.792 1.469 3v1h2.125c-.074-1.093 1.248-2 2-2 .68 0 1 .012 1 1v1h1.219c1.228-.6 1.78-1.97 1.78-2.688 0-.735-2.385-1.312-3.687-1.312z"/><path d="M116 261.27v4.313c2.766 2.661 6.125 2.406 6.125 2.406s.353-1.521-1.906-4.031l-2.375-2.688h-1.781c-.022.002-.042-.002-.063 0zm2.975 2.532 1.683 1.737c-1.799.165-2.15-.857-1.683-1.737z"/></g><g transform="translate(64 -4.774)" fill="#fff" color="#000"><rect x="109" y="256.27" width="6" height="16" rx="2.934" ry="2.986"/><path d="M114.41 256.27c.878.713 1.469 1.792 1.469 3v1h2.125c-.074-1.093 1.248-2 2-2 .68 0 1 .012 1 1v1h1.219c1.228-.6 1.78-1.97 1.78-2.688 0-.735-2.385-1.312-3.687-1.312z"/><path d="M116 261.27v4.313c2.766 2.661 6.125 2.406 6.125 2.406s.353-1.521-1.906-4.031l-2.375-2.688h-1.781c-.022.002-.042-.002-.063 0zm2.975 2.532 1.683 1.737c-1.799.165-2.15-.857-1.683-1.737z"/></g></g></svg>