<svg version="1.0" viewBox="0 0 48 48" xmlns="http://www.w3.org/2000/svg"><g transform="translate(-156 -236)"><rect x="160" y="240" width="40" height="39" ry="3.5" fill="#4f4b49"/><rect x="161" y="241" width="38" height="35" ry="3" fill="#9f9792"/><path d="m177.375 249.007-.231 2.766a8.25 8.25 0 0 0-2.412 1.394l-2.513-1.183-2.625 4.546 2.282 1.585a8.25 8.25 0 0 0-.126 1.392 8.25 8.25 0 0 0 .12 1.397l-2.276 1.58 2.625 4.546 2.508-1.18a8.25 8.25 0 0 0 2.417 1.385l.231 2.772h5.25l.231-2.766a8.25 8.25 0 0 0 2.412-1.394l2.513 1.183 2.625-4.547-2.282-1.584a8.25 8.25 0 0 0 .126-1.392 8.25 8.25 0 0 0-.12-1.398l2.276-1.579-2.625-4.546-2.508 1.18a8.25 8.25 0 0 0-2.417-1.385l-.231-2.772zm2.625 7.5a3 3 0 0 1 3 3 3 3 0 0 1-3 3 3 3 0 0 1-3-3 3 3 0 0 1 3-3z" fill-opacity=".196"/><path d="m177.375 248.007-.231 2.766a8.25 8.25 0 0 0-2.412 1.394l-2.513-1.183-2.625 4.546 2.282 1.585a8.25 8.25 0 0 0-.126 1.392 8.25 8.25 0 0 0 .12 1.397l-2.276 1.58 2.625 4.546 2.508-1.18a8.25 8.25 0 0 0 2.417 1.385l.231 2.772h5.25l.231-2.766a8.25 8.25 0 0 0 2.412-1.394l2.513 1.183 2.625-4.547-2.282-1.584a8.25 8.25 0 0 0 .126-1.392 8.25 8.25 0 0 0-.12-1.398l2.276-1.579-2.625-4.546-2.508 1.18a8.25 8.25 0 0 0-2.417-1.385l-.231-2.772zm2.625 7.5a3 3 0 0 1 3 3 3 3 0 0 1-3 3 3 3 0 0 1-3-3 3 3 0 0 1 3-3z" fill="#fff"/></g></svg>