<svg version="1.0" viewBox="0 0 48 48" xmlns="http://www.w3.org/2000/svg"><g transform="translate(-156 664)"><rect x="159" y="-653" width="42" height="32" ry="3" fill="#6f6f6f"/><rect x="160" y="-652" width="40" height="28" ry="2.5" fill="#dedede"/><path fill="#45454f" d="M162-650h36v22h-36z"/><rect x="162" y="-650" width="36" height="22" ry="0" fill="#48b9c7"/><g fill-opacity=".196"><path d="M604.46 384.57c-1.645 0-3 1.355-3 3v6c0 1.645 1.355 3 3 3h8.667c1.644 0 3-1.355 3-3v-6c0-1.645-1.356-3-3-3zm0 2h8.667c.571 0 1 .429 1 1v6c0 .571-.429 1-1 1h-8.667c-.571 0-1-.429-1-1v-6c0-.571.429-1 1-1z" color="#000" style="font-feature-settings:normal;font-variant-alternates:normal;font-variant-caps:normal;font-variant-ligatures:normal;font-variant-numeric:normal;font-variant-position:normal;isolation:auto;mix-blend-mode:normal;shape-padding:0;text-decoration-color:#000;text-decoration-line:none;text-decoration-style:solid;text-indent:0;text-orientation:mixed;text-transform:none;white-space:normal" transform="matrix(1.5 0 0 1.5 -733.18 -1223.9)"/><path d="M173-643.04v7l2.5-3 2.75 3 4.25-5 4.5 5v-7z" opacity=".5"/><path d="m180.005-641.045 7 8h-14z"/></g><g fill="#fff"><path d="M604.46 384.57c-1.645 0-3 1.355-3 3v6c0 1.645 1.355 3 3 3h8.667c1.644 0 3-1.355 3-3v-6c0-1.645-1.356-3-3-3zm0 2h8.667c.571 0 1 .429 1 1v6c0 .571-.429 1-1 1h-8.667c-.571 0-1-.429-1-1v-6c0-.571.429-1 1-1z" color="#000" style="font-feature-settings:normal;font-variant-alternates:normal;font-variant-caps:normal;font-variant-ligatures:normal;font-variant-numeric:normal;font-variant-position:normal;isolation:auto;mix-blend-mode:normal;shape-padding:0;text-decoration-color:#000;text-decoration-line:none;text-decoration-style:solid;text-indent:0;text-orientation:mixed;text-transform:none;white-space:normal" transform="matrix(1.5 0 0 1.5 -733.18 -1224.9)"/><path d="M173-644.04v7l2.5-3 2.75 3 4.25-5 4.5 5v-7z" opacity=".5"/><path d="m180.005-642.045 7 8h-14z"/></g></g></svg>