<svg version="1.0" viewBox="0 0 48 48" xmlns="http://www.w3.org/2000/svg"><g transform="translate(-156 -236)"><rect x="160" y="240" width="40" height="39" ry="3.5" fill="#9c27b0"/><path d="M163.5 240a3.492 3.492 0 0 0-3.5 3.5v32c0 1.939 1.561 3.5 3.5 3.5h33c1.939 0 3.5-1.561 3.5-3.5v-32c0-1.939-1.561-3.5-3.5-3.5zm.5 1h32c1.662 0 3 1.338 3 3v29c0 1.662-1.338 3-3 3h-32c-1.662 0-3-1.338-3-3v-29c0-1.662 1.338-3 3-3z" fill-opacity=".502"/><g fill="#fff"><path d="M179.602 252a6.75 6.75 0 0 1 1.143 3.75 6.75 6.75 0 0 1-6.75 6.75 6.75 6.75 0 0 1-3.75-1.14v1.14c0 1.662 1.338 3 3 3h15c1.662 0 3-1.338 3-3V255c0-1.662-1.338-3-3-3z"/><path d="m186.743 265.5-3 3-3-3z"/><path d="M173.993 250.5a5.25 5.25 0 0 0-5.25 5.25 5.25 5.25 0 0 0 5.25 5.25 5.25 5.25 0 0 0 5.25-5.25 5.25 5.25 0 0 0-5.25-5.25zm-.75 1.5h1.5v4.5h-1.5zm0 6h1.5v1.5h-1.5z"/></g></g></svg>