<svg version="1.0" viewBox="0 0 48 48" xmlns="http://www.w3.org/2000/svg"><g transform="translate(-156 -236)"><rect x="160" y="240" width="40" height="39" ry="3.5" fill="#cdcdcd"/><path d="M163.5 240a3.492 3.492 0 0 0-3.5 3.5v32c0 1.939 1.561 3.5 3.5 3.5h33c1.939 0 3.5-1.561 3.5-3.5v-32c0-1.939-1.561-3.5-3.5-3.5zm.5 1h32c1.662 0 3 1.338 3 3v29c0 1.662-1.338 3-3 3h-32c-1.662 0-3-1.338-3-3v-29c0-1.662 1.338-3 3-3z" fill-opacity=".502"/><path d="m177 247-.265 3.16a9.429 9.429 0 0 0-2.755 1.594l-2.873-1.352-3 5.196 2.608 1.812a9.429 9.429 0 0 0-.144 1.59 9.429 9.429 0 0 0 .138 1.597l-2.602 1.805 3 5.196 2.866-1.35a9.429 9.429 0 0 0 2.762 1.585L177 271h6l.264-3.16a9.429 9.429 0 0 0 2.756-1.594l2.873 1.352 3-5.196-2.608-1.812a9.429 9.429 0 0 0 .144-1.59 9.429 9.429 0 0 0-.138-1.597l2.602-1.805-3-5.196-2.866 1.35a9.429 9.429 0 0 0-2.762-1.585L183 247zm3 8.571a3.429 3.429 0 0 1 3.429 3.429 3.429 3.429 0 0 1-3.429 3.429 3.429 3.429 0 0 1-3.429-3.429 3.429 3.429 0 0 1 3.429-3.429z" fill="#463e39"/></g></svg>