<svg version="1.0" viewBox="0 0 48 48" xmlns="http://www.w3.org/2000/svg"><g transform="translate(-156 -236)"><rect x="160" y="240" width="40" height="39" ry="3.5" fill="#48b9c7"/><path d="M163.5 240a3.492 3.492 0 0 0-3.5 3.5v32c0 1.939 1.561 3.5 3.5 3.5h33c1.939 0 3.5-1.561 3.5-3.5v-32c0-1.939-1.561-3.5-3.5-3.5zm.5 1h32c1.662 0 3 1.338 3 3v29c0 1.662-1.338 3-3 3h-32c-1.662 0-3-1.338-3-3v-29c0-1.662 1.338-3 3-3z" fill-opacity=".502"/><path d="M171 247.5c-3 0-3 3-3 3V264s0 3 3 3h18s3 0 3-3v-13.5s0-3-3-3zm0 3h18v12h-18zm1.5 19.5v1.495h15V270c0-1.5-1.5-1.5-1.5-1.5h-12.033s-1.468 0-1.468 1.5z" fill="#393634" opacity=".8"/></g></svg>