<svg version="1.0" viewBox="0 0 48 48" xmlns="http://www.w3.org/2000/svg"><g transform="translate(-156 -236)"><rect x="160" y="240" width="40" height="39" ry="3.5" fill="#479863"/><path d="M163.5 240a3.492 3.492 0 0 0-3.5 3.5v32c0 1.939 1.561 3.5 3.5 3.5h33c1.939 0 3.5-1.561 3.5-3.5v-32c0-1.939-1.561-3.5-3.5-3.5zm.5 1h32c1.662 0 3 1.338 3 3v29c0 1.662-1.338 3-3 3h-32c-1.662 0-3-1.338-3-3v-29c0-1.662 1.338-3 3-3z" fill-opacity=".502"/><path d="M184 251.5a3 3 0 0 0-3 3c0 .231.044.44.094.656l-3.22 2a3 3 0 1 0 0 4.688l3.22 2c-.05.216-.094.425-.094.656a3 3 0 1 0 1.125-2.344l-3.219-2c.05-.216.094-.425.094-.656 0-.231-.044-.44-.094-.656l3.219-2A3 3 0 1 0 184 251.5z" fill="#fff"/></g></svg>