<svg version="1.0" viewBox="0 0 48 48" xmlns="http://www.w3.org/2000/svg"><g transform="translate(-156 -236)"><rect x="160" y="240" width="40" height="39" ry="3.5" fill="#ededed"/><path d="M163.5 240a3.492 3.492 0 0 0-3.5 3.5v32c0 1.939 1.561 3.5 3.5 3.5h33c1.939 0 3.5-1.561 3.5-3.5v-32c0-1.939-1.561-3.5-3.5-3.5zm.5 1h32c1.662 0 3 1.338 3 3v29c0 1.662-1.338 3-3 3h-32c-1.662 0-3-1.338-3-3v-29c0-1.662 1.338-3 3-3z" fill-opacity=".502"/><g transform="translate(63 -8.5)"><circle cx="114" cy="265" r="5" fill="#f15d22" opacity=".75"/><circle cx="120" cy="268" r="5" fill="#73c48f" opacity=".75"/><circle cx="114" cy="271" r="5" fill="#48b9c7" opacity=".75"/><circle cx="114" cy="265" r="5.5" fill="none" stroke="#743c26" stroke-linecap="square"/><circle cx="120" cy="268" r="5.5" fill="none" stroke="#44634f" stroke-linecap="square"/><circle cx="114" cy="271" r="5.5" fill="none" stroke="#345f64" stroke-linecap="square"/></g></g></svg>