<svg version="1.0" viewBox="0 0 48 48" xmlns="http://www.w3.org/2000/svg"><g transform="translate(-156 -236)"><rect x="160" y="240" width="40" height="39" ry="3.5" fill="#7b736e"/><path d="M163.5 240a3.492 3.492 0 0 0-3.5 3.5v32c0 1.939 1.561 3.5 3.5 3.5h33c1.939 0 3.5-1.561 3.5-3.5v-32c0-1.939-1.561-3.5-3.5-3.5zm.5 1h32c1.662 0 3 1.338 3 3v29c0 1.662-1.338 3-3 3h-32c-1.662 0-3-1.338-3-3v-29c0-1.662 1.338-3 3-3z" fill-opacity=".502"/><g fill="#fff"><path d="M173 265.496v-8c0-.5.52-.5.52-.5H177v3h-2v4.003h6v-2h2v3.497c0 .477-.5.5-.5.5h-9s-.5 0-.5-.5z"/><path d="M178.5 251.996c-.5 0-.5.5-.5.5v8c0 .5.5.5.5.5h9s.5 0 .5-.5v-8c0-.5-.5-.5-.5-.5zm1.5 3h6v3.997h-6z"/></g></g></svg>