<svg version="1.0" viewBox="0 0 48 48" xmlns="http://www.w3.org/2000/svg"><g transform="translate(-156 -236)"><rect x="160" y="240" width="40" height="39" ry="3.5" fill="#f15d22"/><path d="M163.5 240a3.492 3.492 0 0 0-3.5 3.5v32c0 1.939 1.561 3.5 3.5 3.5h33c1.939 0 3.5-1.561 3.5-3.5v-32c0-1.939-1.561-3.5-3.5-3.5zm.5 1h32c1.662 0 3 1.338 3 3v29c0 1.662-1.338 3-3 3h-32c-1.662 0-3-1.338-3-3v-29c0-1.662 1.338-3 3-3z" fill-opacity=".502"/><path d="M177.5 249a2.5 2.5 0 1 0 0 5 2.5 2.5 0 0 0 0-5zm-2 6a1 1 0 0 0-.924.615l-2.5 5c-.553 1.247 1.35 2.04 1.846.77l1.11-2.66-.036.275v9c0 .554.446 1 1 1H176c.554 0 1-.446 1-1l-.004-5h1l.004 5c0 .554.446 1 1 1s1-.446 1-1l-.004-9-.037-.299 1.117 2.684a1 1 0 0 0 1.43.502l1.53.918c-.014.065-.04.126-.04.195v5.5a.499.499 0 1 0 1 0V266H186v2.5a.499.499 0 1 0 1 0v-4.791l1.143 1.144c.47.491 1.197-.235.707-.707l-1.996-2a.5.5 0 0 0-.354-.146h-1.865l-1.627-.979c0-.14-.03-.278-.086-.406l-2.5-5a1 1 0 0 0-.922-.615zm9.996 2.75c-.963 0-1.75.786-1.75 1.75s.787 1.75 1.75 1.75 1.75-.786 1.75-1.75-.786-1.75-1.75-1.75z" fill="#fff"/></g></svg>