<svg version="1.0" viewBox="0 0 48 48" xmlns="http://www.w3.org/2000/svg"><g transform="translate(-156 -236)"><rect x="160" y="240" width="40" height="39" ry="3.5" fill="#3f51b5"/><path d="M163.5 240a3.492 3.492 0 0 0-3.5 3.5v32c0 1.939 1.561 3.5 3.5 3.5h33c1.939 0 3.5-1.561 3.5-3.5v-32c0-1.939-1.561-3.5-3.5-3.5zm.5 1h32c1.662 0 3 1.338 3 3v29c0 1.662-1.338 3-3 3h-32c-1.662 0-3-1.338-3-3v-29c0-1.662 1.338-3 3-3z" fill-opacity=".502"/><g fill="#fff"><path d="m120.71 270.29-1.422 1.422 3.01 3.01c.959.937 2.365-.5 1.406-1.438z" color="#000" style="text-decoration-line:none;text-indent:0;text-transform:none" transform="matrix(1.5 0 0 1.5 4.478 -142.52)"/><path d="M177.728 248.98a8.25 8.25 0 0 0-8.25 8.25 8.25 8.25 0 0 0 8.25 8.25 8.25 8.25 0 0 0 8.25-8.25 8.25 8.25 0 0 0-8.25-8.25zm0 3a5.25 5.25 0 0 1 5.25 5.25 5.25 5.25 0 0 1-5.25 5.25 5.25 5.25 0 0 1-5.25-5.25 5.25 5.25 0 0 1 5.25-5.25z"/></g></g></svg>