<svg version="1.0" viewBox="0 0 48 48" xmlns="http://www.w3.org/2000/svg"><path d="M7.5 4A3.492 3.492 0 0 0 4 7.5v32C4 41.439 5.561 43 7.5 43h33c1.939 0 3.5-1.561 3.5-3.5v-32C44 5.561 42.439 4 40.5 4z" fill="#7b736e"/><path d="M7.5 4A3.492 3.492 0 0 0 4 7.5v32C4 41.439 5.561 43 7.5 43h33c1.939 0 3.5-1.561 3.5-3.5v-32C44 5.561 42.439 4 40.5 4zM8 5h32c1.662 0 3 1.338 3 3v29c0 1.662-1.338 3-3 3H8c-1.662 0-3-1.338-3-3V8c0-1.662 1.338-3 3-3z" fill-opacity=".502"/><g fill="#fff"><path d="M15.004 17.995c-3 0-3 3-3 3v11c0 2.948 3 3 3 3h14v-6H24.66c-.015.218-.036.444-.047.656h.657v.75h-.75c-.121 1.06-.539 1.594-1.266 1.594a4.95 4.95 0 0 1-.797-.094l-.14-.75c.394.06.725.094.937.094.212 0 .314-.298.375-.844h-3.516c.065-.438.095-.936.14-1.406h-1.03a15.313 15.313 0 0 1-1.36 2.953l-.75-.61c.479-.769.882-1.54 1.22-2.343h-.33v-3.61c-.033-.027-.059-.067-.093-.093l.094-.094v-2.672c-.034-.027-.06-.067-.094-.093l.094-.094v-4.344zm.14 4.578h2.391v7.172h-.797v-.797h-.796v1.172h-.797zm.797.797v4.828h.797V23.37zm5.204 5.625c-.03.215-.062.454-.094.656h2.672c.02-.222.028-.435.046-.656h-.703l-.328.422c-.144-.158-.31-.278-.469-.422z" opacity=".5"/><path d="M18.994 11.005v17h14s3 0 3-3v-11s0-3-3-3z"/></g><path d="M25.84 14.5 22.559 25h2.39l.506-2h3.479l.515 2h2.485l-3.281-10.5zm1.313 1.781h.046L28.416 21h-2.455z" fill="#7b736e"/></svg>