<svg version="1.0" viewBox="0 0 48 48" xmlns="http://www.w3.org/2000/svg"><g transform="translate(-156 -236)"><rect x="160" y="240" width="40" height="39" ry="3.5" fill="#48b9c7"/><path d="M163.5 240a3.492 3.492 0 0 0-3.5 3.5v32c0 1.939 1.561 3.5 3.5 3.5h33c1.939 0 3.5-1.561 3.5-3.5v-32c0-1.939-1.561-3.5-3.5-3.5zm.5 1h32c1.662 0 3 1.338 3 3v29c0 1.662-1.338 3-3 3h-32c-1.662 0-3-1.338-3-3v-29c0-1.662 1.338-3 3-3z" fill-opacity=".502"/><path d="M180 247c6.627 0 12 5.373 12 12v1.5a4.5 4.5 0 0 1-7.945 2.894c-1.07.987-2.486 1.606-4.055 1.606a6 6 0 1 1 6-6v1.5a1.5 1.5 0 0 0 3 0V259a9 9 0 1 0-9 9h7.5s1.5 0 1.5 1.5c-.094 1.5-1.5 1.5-1.5 1.5H180c-6.627 0-12-5.373-12-12s5.373-12 12-12zm0 9a3 3 0 1 0 0 6 3 3 0 0 0 0-6z" fill="#fff"/></g></svg>