<svg version="1.0" viewBox="0 0 48 48" xmlns="http://www.w3.org/2000/svg"><g transform="translate(-156 -236)"><rect x="160" y="240" width="40" height="39" ry="3.5" fill="#4f4b49"/><rect x="161" y="241" width="38" height="35" ry="3" fill="#d1cdcb"/><rect x="169" y="249" width="22" height="18" ry="2" fill="#2b2928"/><rect x="171" y="252" width="3" height="3" ry=".5" fill="#fdfdfd"/><rect x="176" y="252" width="3" height="3" ry=".5" fill="#fdfdfd"/><rect x="181" y="252" width="3" height="3" ry=".5" fill="#fdfdfd"/><rect x="186" y="252" width="3" height="3" ry=".5" fill="#fdfdfd"/><rect x="171" y="257" width="3" height="3" ry=".5" fill="#fdfdfd"/><rect x="176" y="257" width="3" height="3" ry=".5" fill="#fdfdfd"/><rect x="181" y="257" width="3" height="3" ry=".5" fill="#fdfdfd"/><rect x="186" y="257" width="3" height="3" ry=".5" fill="#fdfdfd"/><rect x="173" y="262" width="14" height="3" ry=".5" fill="#fdfdfd"/></g></svg>