<svg version="1.0" viewBox="0 0 48 48" xmlns="http://www.w3.org/2000/svg"><g transform="translate(-156 -236)"><rect x="160" y="240" width="40" height="39" ry="3.5" fill="#3f51b5"/><path d="M163.5 240a3.492 3.492 0 0 0-3.5 3.5v32c0 1.939 1.561 3.5 3.5 3.5h33c1.939 0 3.5-1.561 3.5-3.5v-32c0-1.939-1.561-3.5-3.5-3.5zm.5 1h32c1.662 0 3 1.338 3 3v29c0 1.662-1.338 3-3 3h-32c-1.662 0-3-1.338-3-3v-29c0-1.662 1.338-3 3-3z" fill-opacity=".502"/><path d="M180 252a8 8 0 1 0 0 16 8 8 0 0 0 0-16zm0 1a2 2 0 1 1 0 4 2 2 0 0 1 0-4zm-6 5h12v2h-3v6h-2v-4h-2v4h-2v-6h-3z" color="#000" fill="#fff" fill-opacity=".985"/></g></svg>