<svg version="1.0" viewBox="0 0 48 48" xmlns="http://www.w3.org/2000/svg"><g transform="translate(-156 -236)"><rect x="160" y="240" width="40" height="39" ry="3.5" fill="#3f51b5"/><path d="M163.5 240a3.492 3.492 0 0 0-3.5 3.5v32c0 1.939 1.561 3.5 3.5 3.5h33c1.939 0 3.5-1.561 3.5-3.5v-32c0-1.939-1.561-3.5-3.5-3.5zm.5 1h32c1.662 0 3 1.338 3 3v29c0 1.662-1.338 3-3 3h-32c-1.662 0-3-1.338-3-3v-29c0-1.662 1.338-3 3-3z" fill-opacity=".502"/><path d="M177 252.004v14l3.133-3.82 2.066 4.986a1 1 0 1 0 1.848-.766l-2.111-5.095 4.378.01z" fill="none" stroke="#fff" stroke-width="2"/><path d="M177 252.004v14l3.133-3.82 2.066 4.986a1 1 0 1 0 1.848-.766l-2.111-5.095 4.378.01z" fill="#151515" fill-rule="evenodd"/></g></svg>