<svg version="1.0" viewBox="0 0 24 24" xmlns="http://www.w3.org/2000/svg"><g transform="translate(-56 -260)"><rect transform="matrix(0 -1 -1 0 0 0)" x="-280" y="-32" width="12" height="12" ry="2" fill="#500302"/><rect transform="rotate(90)" x="255" y="-129" width="19" height="19" ry="2" fill="#500302"/><rect transform="rotate(90)" x="261" y="-79" width="14" height="14" ry="2" fill="#500302"/><rect x="66" y="262" width="12" height="12" ry="1.5" fill="#cf3b00"/><path d="M68.408 263.48a.4.4 0 0 0-.4.4v8.2a.4.4 0 0 0 .592.35l7.5-4.1a.4.4 0 0 0 0-.701l-6.75-3.69-.75-.41a.4.4 0 0 0-.192-.05z" color="#000" fill="#fff" fill-opacity=".94" style="isolation:auto;mix-blend-mode:normal;text-decoration-color:#000;text-decoration-line:none;text-decoration-style:solid;text-indent:0;text-transform:none;white-space:normal"/><rect x="111" y="256" width="17" height="16" ry="1.5" fill="#cf3b00"/><path d="M115.45 257.98c-.245 0-.444.2-.444.445v9.11c0 .338.361.552.657.39l8.335-4.555a.445.445 0 0 0 0-.78l-7.502-4.1-.833-.455a.442.442 0 0 0-.213-.055z" color="#000" fill="#fff" fill-opacity=".94" style="isolation:auto;mix-blend-mode:normal;text-decoration-color:#000;text-decoration-line:none;text-decoration-style:solid;text-indent:0;text-transform:none;white-space:normal"/><rect transform="matrix(0 -1 -1 0 0 0)" x="-283" y="-71" width="14" height="14" ry="2" fill="#793914"/><rect transform="rotate(90)" x="240" y="-200" width="28" height="28" ry="3" fill="#500302"/><rect x="173" y="241" width="26" height="24" ry="2.5" fill="#cf3b00"/><path d="M180.6 246.98c-.544-.01-.637.647-.592 1.12.004 4.437-.007 8.874.005 13.31.048.53.654.742 1 .413 3.685-2.271 9.046-4.527 12.726-6.808.402-.314.248-1.045-.2-1.197-3.686-2.262-9.034-4.537-12.722-6.791a.534.534 0 0 0-.217-.047z" color="#000" fill="#fff" fill-opacity=".94" style="isolation:auto;mix-blend-mode:normal;text-decoration-color:#000;text-decoration-line:none;text-decoration-style:solid;text-indent:0;text-transform:none;white-space:normal"/><rect transform="rotate(90)" x="251" y="-188" width="28" height="28" ry="3" fill="#793914"/><rect x="161" y="252" width="26" height="24" ry="2.5" fill="#f37329"/><rect transform="rotate(90)" x="262" y="-122" width="19" height="19" ry="2" fill="#793914"/><rect x="21" y="269" width="10" height="10" ry="1.5" fill="#a10705"/><path d="M23.319 270.48a.31.31 0 0 0-.31.311v6.377a.31.31 0 0 0 .46.273l5.833-3.188a.312.312 0 0 0 0-.546l-5.25-2.87-.584-.319a.31.31 0 0 0-.149-.038z" color="#000" fill="#fff" fill-opacity=".94" style="isolation:auto;mix-blend-mode:normal;text-decoration-color:#000;text-decoration-line:none;text-decoration-style:solid;text-indent:0;text-transform:none;white-space:normal"/><rect x="58" y="270" width="12" height="12" ry="1.5" fill="#f37329"/><rect x="104" y="263" width="17" height="16" ry="1.5" fill="#f37329"/><rect transform="matrix(0 -1 -1 0 0 0)" x="-284" y="-28" width="12" height="12" ry="2" fill="#793914"/><rect x="17" y="273" width="10" height="10" ry="1.5" fill="#f37329"/><rect transform="rotate(90)" x="226" y="-282" width="38" height="38" ry="4" fill="#500302"/><rect x="245" y="227" width="36" height="34" ry="3.5" fill="#cf3b00"/><path d="M254.91 231.96a.888.888 0 0 0-.888.89v18.22a.887.887 0 0 0 1.314.78l16.67-9.11a.89.89 0 0 0 0-1.56l-15.004-8.2-1.666-.91a.885.885 0 0 0-.426-.11z" color="#000" fill="#fff" fill-opacity=".94" style="isolation:auto;mix-blend-mode:normal;text-decoration-color:#000;text-decoration-line:none;text-decoration-style:solid;text-indent:0;text-transform:none;white-space:normal"/><rect transform="rotate(90)" x="240" y="-268" width="38" height="38" ry="4" fill="#793914"/><rect x="231" y="241" width="36" height="34" ry="3.5" fill="#f37329"/><rect transform="rotate(90)" x="168" y="-428" width="76" height="76" ry="8" fill="#500302"/><rect x="353" y="169" width="74" height="71" ry="7.5" fill="#cf3b00"/><path d="M373.81 179.93c-.981 0-1.776.796-1.776 1.78v36.438c0 1.352 1.445 2.21 2.628 1.56L408 201.488c1.23-.675 1.23-2.445 0-3.12l-30.006-16.398-3.332-1.821a1.77 1.77 0 0 0-.853-.22z" color="#000" fill="#fff" fill-opacity=".94" style="isolation:auto;mix-blend-mode:normal;text-decoration-color:#000;text-decoration-line:none;text-decoration-style:solid;text-indent:0;text-transform:none;white-space:normal"/><rect transform="rotate(90)" x="196" y="-400" width="76" height="76" ry="8" fill="#793914"/><rect x="325" y="197" width="74" height="71" ry="7.5" fill="#f37329"/><rect transform="rotate(90)" x="52" y="-696" width="152" height="152" ry="16" fill="#500302"/><rect x="545" y="53" width="150" height="146" ry="15.5" fill="#cf3b00"/><path d="M587.62 75.854a3.553 3.553 0 0 0-3.552 3.559v72.879c0 2.703 2.89 4.419 5.257 3.12L656 118.971c2.46-1.35 2.46-4.89 0-6.239l-60.01-32.797-6.665-3.641a3.539 3.539 0 0 0-1.705-.439z" color="#000" fill="#fff" fill-opacity=".94" style="isolation:auto;mix-blend-mode:normal;text-decoration-color:#000;text-decoration-line:none;text-decoration-style:solid;text-indent:0;text-transform:none;white-space:normal"/><rect transform="rotate(90)" x="108" y="-640" width="152" height="152" ry="16" fill="#793914"/><rect x="489" y="109" width="150" height="146" ry="15.5" fill="#f37329"/><g fill-opacity=".196"><path d="M171 259v8.188a2.927 2.927 0 0 0-1-.188 3 3 0 1 0 3 3v-7h6v4.188a2.927 2.927 0 0 0-1-.188 3 3 0 1 0 3 3v-11h-1z"/><path d="M62 274v4.094a1.463 1.463 0 0 0-.5-.094 1.5 1.5 0 1 0 1.5 1.5V276h3v2.094a1.463 1.463 0 0 0-.5-.094 1.5 1.5 0 1 0 1.5 1.5V274h-.5z"/><path d="M110 268v6.27a2 2 0 1 0 1 1.73v-5h5v3.27a2 2 0 1 0 1 1.73v-8h-.5z"/><path d="M20 276v4.094a1.463 1.463 0 0 0-.5-.094 1.5 1.5 0 1 0 1.5 1.5V278h3v2.094a1.463 1.463 0 0 0-.5-.094 1.5 1.5 0 1 0 1.5 1.5V276h-.5z"/><path d="M244 251v12.539a4 4 0 0 0-2-.54 4 4 0 1 0 4 4v-10h10v6.54a4 4 0 0 0-2-.54 4 4 0 1 0 4 4v-16h-1z"/><path d="M352 217v25.078a8 8 0 0 0-4-1.078 8 8 0 1 0 8 8v-20h20v13.078a8 8 0 0 0-4-1.078 8 8 0 1 0 8 8v-32h-2z"/><path d="M544 149v50.156a16 16 0 0 0-8-2.156c-8.837 0-16 7.163-16 16s7.163 16 16 16 16-7.164 16-16v-40h40v26.156a16 16 0 0 0-8-2.156c-8.837 0-16 7.163-16 16s7.163 16 16 16 16-7.164 16-16v-64h-4z"/></g><g fill="#fff" fill-opacity=".94"><path d="M171 258v8.188a2.927 2.927 0 0 0-1-.188 3 3 0 1 0 3 3v-7h6v4.188a2.927 2.927 0 0 0-1-.188 3 3 0 1 0 3 3v-11h-1z"/><path d="M62 273v4.094a1.463 1.463 0 0 0-.5-.094 1.5 1.5 0 1 0 1.5 1.5V275h3v2.094a1.463 1.463 0 0 0-.5-.094 1.5 1.5 0 1 0 1.5 1.5V273h-.5z"/><path d="M110 267v6.27a2 2 0 1 0 1 1.73v-5h5v3.27a2 2 0 1 0 1 1.73v-8h-.5z"/><path d="M20 275v4.094a1.463 1.463 0 0 0-.5-.094 1.5 1.5 0 1 0 1.5 1.5V277h3v2.094a1.463 1.463 0 0 0-.5-.094 1.5 1.5 0 1 0 1.5 1.5V275h-.5z"/><path d="M244 250v12.539a4 4 0 0 0-2-.54 4 4 0 1 0 4 4v-10h10v6.54a4 4 0 0 0-2-.54 4 4 0 1 0 4 4v-16h-1z"/><path d="M352 216v25.078a8 8 0 0 0-4-1.078 8 8 0 1 0 8 8v-20h20v13.078a8 8 0 0 0-4-1.078 8 8 0 1 0 8 8v-32h-2z"/><path d="M544 148v50.156a16 16 0 0 0-8-2.156c-8.837 0-16 7.163-16 16s7.163 16 16 16 16-7.164 16-16v-40h40v26.156a16 16 0 0 0-8-2.156c-8.837 0-16 7.163-16 16s7.163 16 16 16 16-7.164 16-16v-64h-4z"/></g></g></svg>