<svg version="1.0" viewBox="0 0 24 24" xmlns="http://www.w3.org/2000/svg"><g transform="translate(-56 640)"><rect x="62" y="-625" width="12" height="7" ry="1" fill="#424242"/><rect x="63" y="-625" width="10" height="6" ry=".5" fill="#848484"/><rect x="56" y="-638" width="24" height="17" ry="1.5" fill="#6f6f6f"/><rect x="57" y="-637" width="22" height="15" ry="1" fill="#acacac"/><rect x="58" y="-636" width="20" height="11" ry=".5" fill="#464646"/><rect x="65" y="-624" width="6" height="1" ry=".375" fill="#424242"/><path d="m66.688-635.75-.116 1.383a4.125 4.125 0 0 0-1.205.697l-1.257-.592-1.313 2.274 1.141.792a4.125 4.125 0 0 0-.063.696 4.125 4.125 0 0 0 .06.699l-1.138.79 1.313 2.273 1.254-.59a4.125 4.125 0 0 0 1.208.692l.116 1.386h2.625l.116-1.383a4.125 4.125 0 0 0 1.205-.697l1.257.592 1.313-2.274-1.141-.792a4.125 4.125 0 0 0 .063-.696 4.125 4.125 0 0 0-.06-.699l1.138-.79-1.313-2.273-1.254.59a4.125 4.125 0 0 0-1.208-.692l-.116-1.386zm1.313 3.75a1.5 1.5 0 0 1 1.5 1.5A1.5 1.5 0 0 1 68-629a1.5 1.5 0 0 1-1.5-1.5A1.5 1.5 0 0 1 68-632z" fill="#fff"/></g></svg>