<svg version="1.0" viewBox="0 0 24 24" xmlns="http://www.w3.org/2000/svg"><g transform="translate(-56 -260)"><rect transform="rotate(90)" x="261" y="-79" width="14" height="14" ry="2" fill="#500302"/><rect x="66" y="262" width="12" height="12" ry="1.5" fill="#cf3b00"/><path d="M68.408 263.48a.4.4 0 0 0-.4.4v8.2a.4.4 0 0 0 .592.35l7.5-4.1a.4.4 0 0 0 0-.701l-6.75-3.69-.75-.41a.4.4 0 0 0-.192-.05z" color="#000" fill="#fff" fill-opacity=".94" style="isolation:auto;mix-blend-mode:normal;text-decoration-color:#000;text-decoration-line:none;text-decoration-style:solid;text-indent:0;text-transform:none;white-space:normal"/><rect transform="matrix(0 -1 -1 0 0 0)" x="-283" y="-71" width="14" height="14" ry="2" fill="#793914"/><rect x="58" y="270" width="12" height="12" ry="1.5" fill="#f37329"/><path d="M62 274v4.094a1.463 1.463 0 0 0-.5-.094 1.5 1.5 0 1 0 1.5 1.5V276h3v2.094a1.463 1.463 0 0 0-.5-.094 1.5 1.5 0 1 0 1.5 1.5V274h-.5z" fill-opacity=".196"/><path d="M62 273v4.094a1.463 1.463 0 0 0-.5-.094 1.5 1.5 0 1 0 1.5 1.5V275h3v2.094a1.463 1.463 0 0 0-.5-.094 1.5 1.5 0 1 0 1.5 1.5V273h-.5z" fill="#fff" fill-opacity=".94"/></g></svg>