<svg version="1.0" viewBox="0 0 24 24" xmlns="http://www.w3.org/2000/svg"><g transform="translate(-56 -260)"><rect x="57.5" y="261" width="22" height="22" ry="2.5" fill="#cdcdcd"/><path d="M59.5 261a2.495 2.495 0 0 0-2.5 2.5v17c0 1.385 1.115 2.5 2.5 2.5h17c1.385 0 2.5-1.115 2.5-2.5v-17c0-1.385-1.115-2.5-2.5-2.5zm.5 1h16c1.108 0 2 .892 2 2v16c0 1.108-.892 2-2 2H60c-1.108 0-2-.892-2-2v-16c0-1.108.892-2 2-2z" fill-opacity=".502"/><path d="M63.5 276h1l4-10h1l4 10h1v1H71v-1h1l-.715-2H66.73l-.73 2h1v1h-3.5zm3.5-3h4l-1.996-5.21z" aria-label="A"/><path fill-opacity=".251" d="M63 277h12v1H63z"/><path fill-opacity=".251" d="M62 266h1v11h-1z"/></g></svg>