<svg version="1.0" viewBox="0 0 24 24" xmlns="http://www.w3.org/2000/svg"><g transform="translate(-56 -260)"><rect x="57" y="261" width="22" height="22" ry="2.5" fill="#4f4b49"/><rect x="58" y="262" width="20" height="20" ry="2" fill="#9f9792"/><path d="m66.25 266-.154 1.844a5.5 5.5 0 0 0-1.608.93l-1.676-.79-1.75 3.032 1.522 1.056a5.5 5.5 0 0 0-.084.928 5.5 5.5 0 0 0 .08.932l-1.518 1.052 1.75 3.032 1.672-.788a5.5 5.5 0 0 0 1.612.924L66.25 280h3.5l.154-1.844a5.5 5.5 0 0 0 1.608-.93l1.676.79 1.75-3.032-1.522-1.056A5.5 5.5 0 0 0 73.5 273a5.5 5.5 0 0 0-.08-.932l1.517-1.052-1.75-3.032-1.671.788a5.5 5.5 0 0 0-1.612-.924L69.75 266zm1.75 5a2 2 0 0 1 2 2 2 2 0 0 1-2 2 2 2 0 0 1-2-2 2 2 0 0 1 2-2z" fill-opacity=".196"/><path d="m66.25 265-.154 1.844a5.5 5.5 0 0 0-1.608.93l-1.676-.79-1.75 3.032 1.522 1.056a5.5 5.5 0 0 0-.084.928 5.5 5.5 0 0 0 .08.932l-1.518 1.052 1.75 3.032 1.672-.788a5.5 5.5 0 0 0 1.612.924L66.25 279h3.5l.154-1.844a5.5 5.5 0 0 0 1.608-.93l1.676.79 1.75-3.032-1.522-1.056A5.5 5.5 0 0 0 73.5 272a5.5 5.5 0 0 0-.08-.932l1.517-1.052-1.75-3.032-1.671.788a5.5 5.5 0 0 0-1.612-.924L69.75 265zm1.75 5a2 2 0 0 1 2 2 2 2 0 0 1-2 2 2 2 0 0 1-2-2 2 2 0 0 1 2-2z" fill="#fff"/></g></svg>