<svg version="1.0" viewBox="0 0 24 24" xmlns="http://www.w3.org/2000/svg"><g transform="translate(-56 -260)"><rect x="57" y="261" width="22" height="22" ry="2.5" fill="#2e7153"/><path d="M59.5 261a2.495 2.495 0 0 0-2.5 2.5v17c0 1.385 1.115 2.5 2.5 2.5h17c1.385 0 2.5-1.115 2.5-2.5v-17c0-1.385-1.115-2.5-2.5-2.5zm.5 1h16c1.108 0 2 .892 2 2v16c0 1.108-.892 2-2 2H60c-1.108 0-2-.892-2-2v-16c0-1.108.892-2 2-2z" fill-opacity=".502"/><g fill="#fff" aria-label="ABC"><path d="m59.667 271.53-.037.015q-.03-.007 0-.097l.037-.105.037.082zm2.882 0q0 .045-.007.075 0 .022-.008.044l-.03-.156zm1.792 4.234-.127.127q-.045.06-.06.141-.014-.014-.037-.171 0-.135-.082-.15l-.075.023q-.112.097-.149.254l-.112.03q-.112 0-.202-.157l-.149-.291q.022-.112-.067-.292-.082-.179-.082-.283-.165-.045-.202-.314 0-.261-.194-.336 0-.224-.157-.448l-.306-.44q-.067.022-.134-.008-.06-.03-.135-.112-.097.038-.216.038-.112 0-.262-.038l-.253-.037q-.135 0-.262.075l-.022-.075q-.023-.045-.038-.06-.268.068-.38.404l-.105.582q-.09-.112-.134-.276l.03.052q.052.022.074-.007l.045-.075q0-.09-.09-.231-.082-.142-.082-.194 0-.09.157-.157 0-.067-.03-.097-.082 0-.142.045l-.134.171q.052.09.052.21 0 .067-.007.104-.008.037-.052.18l-.053.275q0 .172.18.307l-.157.5q-.045.179-.224.358-.053-.112-.135-.127-.022.007-.052.023-.03.015-.097.067-.067.045-.15.06-.067 0-.141-.082l-.082.119h-.068v-.06q-.06.045-.127.053-.067 0-.119-.165l-.067-.201.12-.053q-.023-.052-.12-.134-.09-.09-.09-.164 0-.045.03-.105l.06-.142q.022-.037.157-.097.037.03.119.06.09-.067.09-.15 0-.067-.075-.179-.067-.12-.067-.186l.022-.082.082-.366q.045-.329.254-.359l-.12-.156q-.044-.068-.044-.142 0-.045.045-.135l-.142-.149q-.06-.082-.06-.164 0-.06.015-.082.164 0 .314-.157l.179-.187v-.12q.052 0 .082.008l.127.03q.06 0 .097-.068l.037-.12.008-.104q0-.104-.067-.261l-.135-.343.194.03q.023-.045 0-.09l-.067-.105q.023-.052.037-.074l.18-.105-.135-.134q-.067-.067-.134-.045l.03-.194q0-.135.015-.21h.074q0 .068-.03.105.038.038.112.053.075 0 .172-.06l.135-.067q.022-.038.022-.053l.015-.097-.067-.03-.105.068q-.067.067-.134.03l.03-.202.03-.21q0-.096-.03-.156.015-.015.082-.015.037 0 .074.09l-.052.09q-.022.03.015.059.097-.045.135-.09.044-.052.044-.112 0-.052-.052-.164l-.052-.187q0-.052.007-.082.015-.037.075-.097l-.008-.104q0-.053-.06-.082l-.059.022-.06.015.262-.433q.112-.172.298-.172 0-.112.075-.12l.127.038q.09.022.157.007.134.18.298.18.075 0 .135-.03.022.03-.008.081l-.052.068q.104.007.157.082.052.074.052.201l-.007.15-.008.149-.067.216q0 .053.03.09.09.022.149.09l.157.254-.03.201q0 .15.052.403l.067.284q-.015.037.008.112.022.067.082.075.052-.023.067-.038l.03-.03q-.045.083-.045.187 0 .09.053.254l.052.224q0 .12-.06.202.082.052.127.343.03.269.112.284.06 0 .15-.082h.037l.015.09q0 .096-.06.194-.06.09-.142.149.03.022.052.03.023.007.038.015.09 0 .134-.015.12 0 .224.186t.157.202q.06 0 .15-.164 0 .127.193.239.165.09.165.276-.068 0-.172-.134t-.164-.15q-.068 0-.165.12 0 .067.075.149l.075.105q0 .044-.082.09h-.068q0-.135-.052-.18h-.067l-.023.097q0 .075.038.142l.104.097.038-.037q.082.03.097.112l-.038.097-.03.097q0 .06.09.104.127-.022.105-.186.03.194.082.336.052.142.186.343l-.03.015q.127.067.225.351.104.269.268.336 0 .127.082.314.09.194.105.306zm-5.324-2.069q-.052.038-.09.038l.075-.09q.03.015.015.052zm-.149.374h-.03v-.12h.03zm.06.224h-.15l.03-.135.09.045q.045.022.03.09zm-.15.769-.044.067-.045.052q-.06 0-.075-.067 0-.052.045-.09.112 0 .12.038zm1.606 0-.023.134q-.007.052-.052.105-.022-.023-.022-.06 0-.112.097-.18zm-1.635.268-.008.06q-.022.03-.037.03h-.045v-.09zm1.8-6.854q-.068.022-.076.097l.03.053h.03l.03-.075q.03-.053-.015-.075zm.47.187v-.038h-.06v.038zm.03 1.448v-.254q-.083-.007-.128.127-.03.127-.149.127l-.03.142q.038.045.067.045l.06-.105q.052-.09.112-.104zm-.65.277q-.015-.06-.06-.098-.045-.037-.09-.022v.21q.053-.03.083-.03.067 0 .067-.06zm1.792.642-.03-.224q-.15-.075-.194-.351l-.03-.291q-.097.037-.097.104 0 .052.06.15.06.089.06.141 0 .038-.046.097l.098.277q.03.097.179.097zm-1.449-.299v-.045h-.052v.045zm-.194.418q-.022-.052-.075-.06-.052.03-.067.06l-.022.127q.045.067.15.067l.029-.074zm1.695.157v-.067q-.022-.038-.075-.007-.03.022-.007.074zm-.426 1.3q.045-.15.045-.277 0-.232-.216-.732-.217-.508-.224-.567-.03-.038-.053-.232 0-.186-.141-.186-.068.082-.127.194-.03.06-.03.127 0 .044.007.067h.12q.074.022.074.186-.03.045-.112.06l-.141-.007-.053.052-.007.053q.037.022.09 0l.067-.03q.044.03.052.06.015.09-.09.09-.09 0-.134.044l-.03.075q.007.022.022.044.015.015.068.053.052.037.074.09 0 .052-.074.074t-.112.045q.007.037.074.06.06.007.082.044-.067 0-.112.068-.037.06-.082.082-.022.186.142.306.164 0 .299.007t.261.037q.134.03.261.112zm-1.127-.748v-.03l-.037-.03zm-.68.135q-.06 0-.119.082-.052.082-.075.187.015.022.023.044.015.023.022.068.008.044.075.044l.03-.231zm.18 1.127q.022-.052-.038-.074t-.067-.03L60.07 273q-.067 0-.067.052 0 .045.082.127l.06-.015zm-.344.254v-.224h-.06q-.052.007-.06.105v.12zm-.269.164q-.015-.014-.037-.149 0-.112-.082-.12-.075.053-.075.128 0 .044.03.097l.06.082q.082 0 .104-.037zm.971.157v-.052zm-.478.224v-.395h-.06v.395zm-.523.306v-.156q-.06-.023-.082.022l-.007.134zm.3.5q-.03-.074-.03-.216 0-.157-.03-.216 0 .044-.008.074t-.045.135l-.052.179q0 .052.015.075l.082-.007zm-.748.404-.052-.067-.03.015.068.067z"/><path d="M69.241 268.41q-.037.022-.075.022-.022 0-.067-.014-.037-.03-.097-.075-.06-.053-.104-.097h.104q0 .06.105.104.104.023.134.06zm.15 3.218-.083.015v-.082q.023.007.038.022zm.395-2.374q-.022-.045-.037-.053l-.045-.037-.075.015q-.067 0-.157-.112-.03-.045-.082-.082-.015-.007-.037-.03-.052 0-.112.06l.112.269q.022.06.037.186.03-.067.112-.104l.27-.03-.038.134-.187.052.067.075q.023.023.023.075l-.023.075-.06-.023q-.022-.015-.074-.015l-.09.09.112.09q.082.044.082.134-.126.045-.298.201l-.351.329-.037.15.104.014-.343.262-.075-.142q-.03-.053-.112-.015l-.09.12h-.067q.045-.083-.06-.105l-.127-.045-.03.104.023.105.075.127q.03.03.06.03l.06.007.066-.105h.09q.022.127-.097.27-.12.14-.12.2 0 .053.03.113l.15.156q.134-.082.134-.268l.022-.21h.15q.015.038.022.135.015.09.015.202 0 .239.12.395l-.023.172q0 .09.09.134l.06-.074.03-.135-.008-.149q0-.141.142-.141l.067.007.067.03.067.052q-.09.022-.142.104-.037.09-.037.217v.12l.03.156q.134.037.134.127 0 .06-.082.164l-.082.12.067.007.15-.023v-.037h.037v.261q-.022-.06-.09-.06-.044 0-.067.06l.052.15q-.119 0-.141.164 0 .134-.045.194-.045-.067-.045-.142l.022-.142.03-.164q0-.134-.179-.134l-.15.142q-.037.044-.037.134l.09.052q.075.023.097.068l-.157.283q-.067.112-.067.217t.082.186q0 .053-.052.127l-.097.112q-.023-.037-.023-.082l.023-.12.03-.141q0-.09-.12-.12-.022.023-.104.21-.053.156-.202.134 0 .127-.045.284l-.104.328-.038-.097q-.022-.075-.082-.104-.03.014-.037.104 0 .075-.067.097l-.06-.052q-.03-.022-.06.015-.067.037-.104.157-.038.12-.112.127l-.09-.023q-.03.112-.269.135-.224 0-.246.171-.03-.015-.037-.06l.03-.149q0-.06-.098-.067-.067-.022-.164.067-.09.09-.142.105l-.037-.306-.067-.023q-.052 0-.157.053l-.127.044q-.075 0-.075-.156l-.044-.053-.038-.022-.067.075q.015.014.015.037.008.022.015.03l-.082.052q.022-.112-.112-.202-.127-.09-.15-.156-.112.03-.119.127l.015.082.015.097q0 .074-.097.12-.082-.023-.105-.232 0-.217-.201-.18-.015.098-.053.157-.037.06-.12.03l.016-.082-.03-.142-.022-.171.022-.112q.022-.045.134-.105l-.007-.104.007-.12q0-.12-.097-.172h-.12l.046-.127q.022-.052.074-.06l-.037-.253q-.008-.12-.03-.21-.015-.089-.052-.156.067 0 .112-.052.052-.06.075-.135-.008-.082.022-.239.045-.134.045-.194 0-.067-.03-.127l-.075-.104q.082-.067.082-.172 0-.052-.074-.194l-.075-.18q0-.089.105-.171-.015-.022-.09-.037l-.067.074v-.119q.067 0 .097-.06l.06-.134-.09-.186q.045-.038.067-.142.023-.105.09-.164l-.053-.098q-.022-.074-.082-.104l-.156.045q0-.038.104-.165.112-.126.127-.186 0-.067-.097-.142l-.008-.246-.015-.187q0-.112.023-.18l-.03-.141-.008-.142q0-.38.21-.657.119.015.26-.097.143-.12.225-.135.097 0 .201.127.038-.007.127-.134.09-.105.157-.12.052 0 .142.068.09 0 .164-.127.075-.135.165-.15.074 0 .134.038.022-.045.06-.053l.194.082-.023.075q0 .06.083.105.06.015.179.015l.067-.105-.142-.052q-.06-.03-.082-.105l.067-.015q.067 0 .18.053l.164.044q.052 0 .12-.044v.224l.081.022q.067 0 .172-.127.09-.134.15-.134.067 0 .179.134l.171-.03h.112l.075-.007-.269.142.299.12q.052 0 .112-.038 0 .127.209.18.216.052.299.164.186.09.32.201t.247.291zm-4.764 3.293-.052-.15h.052zm4.562.09-.156-.038q.022-.067.044-.097.03-.038.068-.053.044 0 .044.098zm-.343 1.156-.008.09q0 .06-.03.067l-.052-.157zm-.62.993q-.104 0-.15-.119l.15-.037zm-1.142-6.615q-.03-.03-.015-.067h-.067v.104q.06 0 .082-.037zm.612.12v-.15h-.164q-.06.067.007.112.068.045.157.037zm-.164.343-.008-.082q0-.082-.03-.105v.187zm1.008.187q-.015-.015-.09-.03v.12q.045-.03.075-.076 0-.007.015-.014zm-.5 0-.083.209h.053l.067-.165q-.022-.044-.037-.044zm.53.462v-.156q0-.097-.105-.097l-.045.306q.038.022.09-.015zm0 .21q-.082 0-.12.067h.09zm-.224.097h-.082v.09l.067-.016q.022 0 .022-.015.008-.022-.007-.06zm-.306.156v.083h.067l.03-.03q-.008-.045-.097-.053zm-.24.344v-.142l.008-.15q0-.193-.037-.298-.03-.112-.157-.216-.127-.045-.224-.142-.097-.097-.12-.202 0 .112-.03.12-.014-.09-.081-.135-.06-.052-.15-.06-.074 0-.127.075l-.246-.09q-.082-.037-.164-.149-.045-.022-.09.007-.045.023-.067.082-.06.06-.135.075-.067 0-.194-.12-.112-.126-.149-.141l-.127.179q-.06.127-.164.194l.03.12-.03.134-.023.142.023.097.12-.157q.089-.105.104-.217l.037.06.045.06q-.052.03-.105.09l-.03.097q0 .06.09.201.09.142.09.202 0 .082-.165.127.023-.045.06-.053l.097.053q.045.045.075.127l.022.142-.015.209-.015.156q.105.03.127.232 0 .187.112.231 0-.164.06-.201.067-.045.18-.045h.096q.075 0 .12-.022.052-.03.075-.127l.074.014q.082 0 .194-.156.097-.165.224-.165l-.007.112.022.202.023.187-.015.112h.067v-.03q.022-.135.15-.157.022-.03.037-.097 0-.12-.12-.142l-.03-.127q0-.12.075-.224l.157-.216.104.119q.03.03.12.022zm-2.27-.142q.023-.045-.03-.09l-.074-.06-.052.068q.045.12.157.082zm2.89.142v-.037q-.022-.045-.067-.023-.03.015-.037.06zm-3.024.015h-.09v.09q0 .067.068.067.03-.03.03-.06zm2.748.306q0-.06-.037-.082v.12zm-2.412.037q-.022-.12-.082-.127-.06 0-.12.097-.052.098-.037.18.015.022.023.052.015.03.03.09.015.052.104.052l-.007-.135q0-.074-.03-.141.075-.075.12-.068zm-.492.105h-.053l.038.082zm.679.575q.022-.053-.03-.075l-.09-.045q-.052.038-.06.105l.03.052.098-.007q.045-.015.052-.03zm.239.194-.045-.194.03.209zm-.545.15v-.15h-.067zm1.657-.15-.037.075q-.022.052.008.074zm-2.15.15v-.105q-.03-.038-.045-.038l-.074-.007-.068.082q-.022.038.03.068zm.344.305v-.067q-.045-.03-.068-.03h-.052q-.022.045.022.075zm-.344.023h-.037q-.053.022-.06.097 0 .067.045.09zm2.89.455.03-.067-.053-.172q-.045.06-.045.135 0 .067.068.104zm-2.427-.015h-.09l-.03.24h.083zm2.576.329v-.157q-.037-.015-.052-.015v.172zm-3.01-.276h-.066l-.023.201-.03.157q0 .09.09.172.067-.067.067-.172zm2.741.612.015-.097q0-.127-.104-.336-.03-.075-.06-.172-.03-.105-.045-.164l-.164.022q-.127 0-.224-.075l.007-.09.023-.059q-.075-.022-.15.06-.074.075-.12.09-.111-.023-.186-.165-.067-.15-.157-.172l.038.15q-.127.067-.202.067-.052 0-.06-.075l.023-.142.022-.171q0-.097-.074-.172.067-.067.067-.18 0-.014-.015-.022-.008-.015-.015-.022l-.03.022q-.022.007-.075.068-.052.052-.052.149 0 .067.03.15l.09.141q0 .09-.12.097h-.12q-.067 0-.089.09-.045-.045-.09-.142l-.015-.127-.149.172q.067.067.067.142 0 .037-.112.141-.112.09-.112.172.045.045.165.045l.141-.007v.104q0 .09-.052.09-.112 0-.134.03.164.067.164.194l-.045.164-.037.157.022.097q.068.06.068.12 0 .052-.06.134l-.052.12q0 .067.097.12-.053.051-.097.074t-.023.097q.037.03.067.09.03.052.03.119l-.022.164q-.023.105-.008.157.068-.045.105-.045.045 0 .052.105v.12q0 .126.045.163.075 0 .112.015h.112q.299 0 .552-.12.254-.126.441-.357.09-.06.157-.18l.12-.246q0-.06.022-.12.03-.067.127-.067l-.008-.045v-.037q0-.082.067-.254l.075-.216q0-.067-.045-.135zm-2.09-.03q-.038-.03-.06-.037-.023-.007-.038-.015l.068.186-.06.098q-.037.082-.127.06l-.008.216.023.261q.022.112.104.217 0-.135.03-.187-.067-.045-.097-.105l-.03-.097q0-.06.112-.209.112-.157.112-.261 0-.067-.03-.127zm-.65 1.06.03-.164q0-.142-.112-.127-.06.037-.082.105-.023.06-.023.186zm.806.508-.037-.052-.03.052zm-.888.224-.008-.12q0-.134-.03-.186l-.06.209q0 .06.03.097z"/><path d="M72.988 268.36q0 .045-.037.075h-.075l.03-.045q.022-.037.082-.03zm4.353 5.936q0 .187-.201.38-.202.18-.202.382l-.052-.007h-.03q-.045 0-.067-.03l.074-.06q-.045-.105-.15-.105-.059 0-.119.03l-.134.06q-.067.03-.075.12v.09l.038.036q-.03.007-.06.007h-.045q-.03 0-.09-.014-.052-.023-.089-.09l-.134.12q-.083.052-.142.052-.045 0-.105-.038-.045-.015-.075.007-.022.023-.022.09v.112l-.343-.21q-.105.195-.307.195-.09 0-.306-.052l-.306-.053-.112.007-.171-.171q-.06 0-.09.082l-.045.127.037.037-.037.037q-.09-.201-.343-.306-.254-.112-.516-.112-.082-.045-.194-.231-.09-.194-.186-.194-.068 0-.135.044-.045-.044-.142 0l-.12.045q-.051 0-.081-.104-.142 0-.403-.165-.254-.164-.374-.164l-.12.023q.068-.09.068-.172 0-.082-.18-.254-.178-.18-.156-.336-.172 0-.172.157l.008.112q0 .074.015.112l-.023.097q-.104-.03-.127-.247 0-.209-.12-.268l.173-.172q-.097-.03-.172-.045-.075-.015-.172-.015l-.015-.112q0-.09.038-.224l.037-.209q0-.082-.037-.15-.023-.066-.12-.141.022-.022.037-.112l-.015-.157q-.141-.045-.141-.172l.044-.268q-.022-.053-.037-.075-.127.022-.18.15l-.089.23-.03-.126q0-.082.105-.232.112-.149.112-.216l-.015-.075.097.022q.03-.022.052-.082l.015-.12v-.104q0-.082.023-.141.022-.06.12-.068.044-.037.066-.082.03-.052.03-.15-.022-.074-.104-.074-.068 0-.105.015l-.06.023q.023-.105.217-.277.202-.171.202-.32 0-.09-.038-.165h.06q0 .18.015.299.022.112.157.156.127.023.149-.127.022-.156.134-.179l.015-.082q0-.045-.044-.172l-.045-.127q0-.074.037-.112l-.015.075q0 .105.112.21l.21.171q.104-.067.186-.21.09-.141.12-.305-.008-.038-.083-.075-.067-.037-.09-.097.083-.037.15.037l.134.135.172-.21.037.038q.045-.03.06-.12l-.03-.194q0-.074.105-.104l.037.418q.09.007.112-.12.03-.134.06-.164l.127.007q.112 0 .179-.022.067-.03.075-.112l-.015-.067q-.03-.135.112-.157.142-.03.171-.09l.068.12q.015.014.104.014l.038-.231q.037.022.082-.022l.09-.09v-.037q.052 0 .149.052l.156.06q.068-.038.112-.15.045-.12.097-.156l-.007.134q0 .09.067.134.12.023.172-.097v-.037l.134.127q.038.022.075.022.015 0 .075-.015.022-.127.194-.231.179-.112.209-.15.15-.03.172.113l.037.239q.015-.007.022-.015.045-.038.112-.127.045.104.224.104l.082-.007.038-.022q.045.037.045.097 0 .06-.09.216-.09.135-.09.18t.068.044l.141-.022.03.082q-.007.007-.007.015-.038.03-.112.067-.112.03-.12.105h-.097q-.015-.023-.022-.037-.03-.038-.09-.098-.104.127-.201.127-.045 0-.142-.052-.075-.06-.18-.09l-.223-.03q-.053 0-.135.008-.075.007-.164.03l-.388.067q-.949.5-1.441.88-.486.382-.486 1.009l-.12-.023q-.111 0-.149.224 0 .202-.037.254.037.112.037.232 0 .142-.074.395-.067.247-.067.344 0 .104.03.187.03.074.134.179-.008.104.022.171l.224.187q.18.12.291.41.12.285.284.285l.112-.023q.097.172.538.344.44.164.552.44.082.023.112-.052.008-.037.023-.075.007 0 .015-.007l.642.187q.493.127.731.269.068-.105.18-.142.112-.038.261-.038h.157l.246-.022q.097-.022.187-.12.239-.119.284-.358l.06-.425q.067.067.126.074.053 0 .172-.164l.142-.18q-.023-.126.097-.17l.164.41q.09.201.09.388 0 .105-.045.254zm-6.966-1.568q-.023.022-.03.037 0 .007-.008.023l-.037-.135zm-.038.231H70.3v-.037h.037zm.896 1.106h-.037v-.112h.037zm3.778-5.668-.052-.09q-.022-.074-.082-.081l-.037.097q.037.045.097.082.045.015.074-.007zm-4.084 2.233h-.112l.075.06.03-.038zm-.15.575q-.044 0-.096.052l-.038.06h.075l.052-.06zm.762.515q-.03-.03-.074-.022v.194q.06-.023.067-.082zm-.612.418v-.075h-.037v.075zm-.112.821h-.06v.112l.038-.037zm6.295.934q-.06-.023-.075-.037-.075.044-.09.082-.022.022-.022.082l.037.082h.038l.09-.105q.029-.045.022-.104zm0 .515v-.075q-.023-.022-.112-.037-.015.052.014.09.03.03.098.022zm-2.898.306q-.037 0-.052.015l-.045.06q.023.045.075.022l.022-.045zm-.858.097-.03-.082q-.037-.015-.067-.015v.135q.074 0 .097-.038z"/></g></g></svg>