<svg version="1.0" viewBox="0 0 24 24" xmlns="http://www.w3.org/2000/svg"><g transform="translate(-56 -260)"><rect x="57" y="261" width="22" height="22" ry="2.5" fill="#3f51b5"/><path d="M59.5 261a2.495 2.495 0 0 0-2.5 2.5v17c0 1.385 1.115 2.5 2.5 2.5h17c1.385 0 2.5-1.115 2.5-2.5v-17c0-1.385-1.115-2.5-2.5-2.5zm.5 1h16c1.108 0 2 .892 2 2v16c0 1.108-.892 2-2 2H60c-1.108 0-2-.892-2-2v-16c0-1.108.892-2 2-2z" fill-opacity=".502"/><path d="M68 265c-4.406 0-8 3.594-8 8s3.594 8 8 8 8-3.594 8-8-3.594-8-8-8zm0 2c3.326 0 6 2.674 6 6s-2.674 6-6 6-6-2.674-6-6 2.674-6 6-6z" color="#000" fill-opacity=".502" style="font-feature-settings:normal;font-variant-alternates:normal;font-variant-caps:normal;font-variant-ligatures:normal;font-variant-numeric:normal;font-variant-position:normal;isolation:auto;mix-blend-mode:normal;shape-padding:0;text-decoration-color:#000;text-decoration-line:none;text-decoration-style:solid;text-indent:0;text-orientation:mixed;text-transform:none;white-space:normal"/><rect x="62" y="270" width="12" height="1" ry=".5" fill-opacity=".502"/><rect x="62" y="275" width="12" height="1" ry=".5" fill-opacity=".502"/><path d="M67.5 266c-.143 0-.27.06-.361.156-.837.31-1.54 1.053-2.055 2.01C64.4 269.436 64 271.132 64 273s.4 3.564 1.084 4.834c.515.957 1.218 1.7 2.055 2.01a.497.497 0 0 0 .361.156h1c.143 0 .27-.06.361-.156.837-.31 1.54-1.053 2.055-2.01C71.6 276.564 72 274.868 72 273s-.4-3.564-1.084-4.834c-.515-.957-1.218-1.7-2.055-2.01A.497.497 0 0 0 68.5 266H68zm-.5 1.375v11.25c-.37-.274-.725-.69-1.035-1.266-.583-1.082-.965-2.637-.965-4.359s.382-3.277.965-4.36c.31-.575.665-.991 1.035-1.265zm2 0c.37.274.725.69 1.035 1.266.583 1.082.965 2.637.965 4.359s-.382 3.277-.965 4.36c-.31.575-.665.991-1.035 1.265z" color="#000" fill-opacity=".502" opacity=".5" style="font-feature-settings:normal;font-variant-alternates:normal;font-variant-caps:normal;font-variant-ligatures:normal;font-variant-numeric:normal;font-variant-position:normal;isolation:auto;mix-blend-mode:normal;shape-padding:0;text-decoration-color:#000;text-decoration-line:none;text-decoration-style:solid;text-indent:0;text-orientation:mixed;text-transform:none;white-space:normal"/><g transform="translate(-120.25 113.5)" fill="#fff"><circle cx="188.25" cy="158.5" r="7" fill="none" stroke="#fdfdfd" stroke-linecap="square" stroke-width="2"/><rect x="182.25" y="155.5" width="12" height="1" ry=".5"/><rect x="182.25" y="160.5" width="12" height="1" ry=".5"/><path transform="translate(72.25 -109.5)" d="M115.5 261c-.143 0-.27.06-.361.156-.837.31-1.54 1.053-2.055 2.01-.684 1.27-1.084 2.966-1.084 4.834s.4 3.564 1.084 4.834c.515.957 1.218 1.7 2.055 2.01a.497.497 0 0 0 .361.156h1c.143 0 .27-.06.361-.156.837-.31 1.54-1.053 2.055-2.01.684-1.27 1.084-2.966 1.084-4.834s-.4-3.564-1.084-4.834c-.515-.957-1.218-1.7-2.055-2.01a.497.497 0 0 0-.361-.156h-.5zm-.5 1.375v11.25c-.37-.274-.725-.69-1.035-1.266-.583-1.082-.965-2.637-.965-4.359s.382-3.277.965-4.36c.31-.575.665-.991 1.035-1.265zm2 0c.37.274.725.69 1.035 1.266.583 1.082.965 2.637.965 4.359s-.382 3.277-.965 4.36c-.31.575-.665.991-1.035 1.265z" color="#000" fill-opacity=".99" opacity=".5" style="font-feature-settings:normal;font-variant-alternates:normal;font-variant-caps:normal;font-variant-ligatures:normal;font-variant-numeric:normal;font-variant-position:normal;isolation:auto;mix-blend-mode:normal;shape-padding:0;text-decoration-color:#000;text-decoration-line:none;text-decoration-style:solid;text-indent:0;text-orientation:mixed;text-transform:none;white-space:normal"/></g></g></svg>