<svg version="1.0" viewBox="0 0 24 24" xmlns="http://www.w3.org/2000/svg"><g transform="translate(-56 -260)"><rect x="57" y="261" width="22" height="22" ry="2.5" fill="#faa41a"/><path d="M59.5 261a2.495 2.495 0 0 0-2.5 2.5v17c0 1.385 1.115 2.5 2.5 2.5h17c1.385 0 2.5-1.115 2.5-2.5v-17c0-1.385-1.115-2.5-2.5-2.5zm.5 1h16c1.108 0 2 .892 2 2v16c0 1.108-.892 2-2 2H60c-1.108 0-2-.892-2-2v-16c0-1.108.892-2 2-2z" fill-opacity=".502"/><path d="M63 266c-2 0-2 2-2 2v10c0 2 2 2 2 2h10s2 0 2-2v-10c0-2-2-2-2-2h-2zm0 2.004h8v1h-8zm0 3h9v1h-9zm0 3h6v1h-6zm0 3h9v1h-9z" fill-opacity=".196"/><path d="M63 265c-2 0-2 2-2 2v10c0 2 2 2 2 2h10s2 0 2-2v-10c0-2-2-2-2-2h-2zm0 2.004h8v1h-8zm0 3h9v1h-9zm0 3h6v1h-6zm0 3h9v1h-9z" fill="#fff"/></g></svg>