<svg version="1.0" viewBox="0 0 24 24" xmlns="http://www.w3.org/2000/svg"><g transform="translate(-56 -260)"><rect x="488" y="52" width="208" height="208" ry="16.5" fill="#faa41a"/><rect x="103" y="255" width="26" height="26" ry="2.5" fill="#faa41a"/><rect x="57" y="261" width="22" height="22" ry="2.5" fill="#faa41a"/><path d="M105.5 255a2.495 2.495 0 0 0-2.5 2.5v21c0 1.385 1.115 2.5 2.5 2.5h21c1.385 0 2.5-1.115 2.5-2.5v-21c0-1.385-1.115-2.5-2.5-2.5zm.5 1h20c1.108 0 2 .892 2 2v19c0 1.108-.892 2-2 2h-20c-1.108 0-2-.892-2-2v-19c0-1.108.892-2 2-2z" fill-opacity=".502"/><rect x="17" y="269" width="14" height="14" ry="2.5" fill="#faa41a"/><rect x="230.5" y="225.75" width="52" height="52" ry="4.5" fill="#faa41a"/><rect x="160" y="240" width="40" height="39" ry="3.5" fill="#faa41a"/><rect x="324" y="168" width="104" height="104" ry="8.5" fill="#faa41a"/><path d="M59.5 261a2.495 2.495 0 0 0-2.5 2.5v17c0 1.385 1.115 2.5 2.5 2.5h17c1.385 0 2.5-1.115 2.5-2.5v-17c0-1.385-1.115-2.5-2.5-2.5zm.5 1h16c1.108 0 2 .892 2 2v16c0 1.108-.892 2-2 2H60c-1.108 0-2-.892-2-2v-16c0-1.108.892-2 2-2z" fill-opacity=".502"/><path d="M19.5 269a2.495 2.495 0 0 0-2.5 2.5v9c0 1.385 1.115 2.5 2.5 2.5h9c1.385 0 2.5-1.115 2.5-2.5v-9c0-1.385-1.115-2.5-2.5-2.5zm.5 1h8c1.108 0 2 .892 2 2v8c0 1.108-.892 2-2 2h-8c-1.108 0-2-.892-2-2v-8c0-1.108.892-2 2-2z" fill-opacity=".502"/><path d="M234.5 226a4.49 4.49 0 0 0-4.5 4.5v43a4.49 4.49 0 0 0 4.5 4.5h43a4.49 4.49 0 0 0 4.5-4.5v-43a4.49 4.49 0 0 0-4.5-4.5zm.5 1h42c2.216 0 4 1.784 4 4v40c0 2.216-1.784 4-4 4h-42c-2.216 0-4-1.784-4-4v-40c0-2.216 1.784-4 4-4z" fill-opacity=".502"/><path d="M163.5 240a3.492 3.492 0 0 0-3.5 3.5v32c0 1.939 1.561 3.5 3.5 3.5h33c1.939 0 3.5-1.561 3.5-3.5v-32c0-1.939-1.561-3.5-3.5-3.5zm.5 1h32c1.662 0 3 1.338 3 3v29c0 1.662-1.338 3-3 3h-32c-1.662 0-3-1.338-3-3v-29c0-1.662 1.338-3 3-3z" fill-opacity=".502"/><path d="M332.5 168a8.481 8.481 0 0 0-8.5 8.5v87c0 4.709 3.791 8.5 8.5 8.5h87c4.709 0 8.5-3.791 8.5-8.5v-87c0-4.709-3.791-8.5-8.5-8.5zm.5 1h86c4.432 0 8 3.568 8 8v83c0 4.432-3.568 8-8 8h-86c-4.432 0-8-3.568-8-8v-83c0-4.432 3.568-8 8-8z" fill-opacity=".502"/><path d="M504.5 52c-9.141 0-16.5 7.359-16.5 16.5v175c0 9.141 7.359 16.5 16.5 16.5h175c9.141 0 16.5-7.359 16.5-16.5v-175c0-9.141-7.359-16.5-16.5-16.5zm.5 1h174c8.864 0 16 7.136 16 16v170c0 8.864-7.136 16-16 16H505c-8.864 0-16-7.136-16-16V69c0-8.864 7.136-16 16-16z" fill-opacity=".502"/><g fill-opacity=".196"><path d="M111 262c-2 0-2 2-2 2v10c0 2 2 2 2 2h10s2 0 2-2v-10c0-2-2-2-2-2h-2zm0 2.004h8v1h-8zm0 3h9v1h-9zm0 3h6v1h-6zm0 3h9v1h-9z"/><path d="M63 266c-2 0-2 2-2 2v10c0 2 2 2 2 2h10s2 0 2-2v-10c0-2-2-2-2-2h-2zm0 2.004h8v1h-8zm0 3h9v1h-9zm0 3h6v1h-6zm0 3h9v1h-9z"/><path d="M21 273c-1 0-1 1-1 1v6c0 1 1 1 1 1h6s1 0 1-1v-6c0-1-1-1-1-1h-1.5zm0 1.002 5-.002v1l-5 .002zm0 2h6V277h-6zM21 278h4v1h-4z"/><path d="M173 250c-3 0-3 3-3 3v15c0 3 3 3 3 3h15s3 0 3-3v-15c0-3-3-3-3-3h-3zm0 3.006h12V255h-12zm0 3.994h14v2l-14 .006zm0 5.006h9V264h-9zm0 3.994h14v2.006h-14z"/><path d="M246.5 238.75c-4 0-4 4-4 4v20c0 4 4 4 4 4h20s4 0 4-4v-20c0-4-4-4-4-4h-4zm0 4.008h16v2h-16zm0 6h18v2h-18zm0 6h12v2h-12zm0 6h18v2h-18z"/><path d="M356 193c-8 0-8 8-8 8v40c0 8 8 8 8 8h40s8 0 8-8v-40c0-8-8-8-8-8h-8zm0 8.016h32v4h-32zm0 12h36v4h-36zm0 12h24v4h-24zm0 12h36v4h-36z"/><path d="M552 101c-16 0-16 16-16 16v80c0 16 16 16 16 16h80s16 0 16-16v-80c0-16-16-16-16-16h-16zm0 16.031h64v8h-64zm0 24h72v8h-72zm0 24h48v8h-48zm0 24h72v8h-72z"/></g><g fill="#fff"><path d="M111 261c-2 0-2 2-2 2v10c0 2 2 2 2 2h10s2 0 2-2v-10c0-2-2-2-2-2h-2zm0 2.004h8v1h-8zm0 3h9v1h-9zm0 3h6v1h-6zm0 3h9v1h-9z"/><path d="M63 265c-2 0-2 2-2 2v10c0 2 2 2 2 2h10s2 0 2-2v-10c0-2-2-2-2-2h-2zm0 2.004h8v1h-8zm0 3h9v1h-9zm0 3h6v1h-6zm0 3h9v1h-9z"/><path d="M21 272c-1 0-1 1-1 1v6c0 1 1 1 1 1h6s1 0 1-1v-6c0-1-1-1-1-1h-1.5zm0 1.002 5-.002v1l-5 .002zm0 2h6V276h-6zM21 277h4v1h-4z"/><path d="M173 249c-3 0-3 3-3 3v15c0 3 3 3 3 3h15s3 0 3-3v-15c0-3-3-3-3-3h-3zm0 3.006h12V254h-12zm0 3.994h14v2l-14 .006zm0 5.006h9V263h-9zm0 3.994h14v2.006h-14z"/><path d="M246.5 237.75c-4 0-4 4-4 4v20c0 4 4 4 4 4h20s4 0 4-4v-20c0-4-4-4-4-4h-4zm0 4.008h16v2h-16zm0 6h18v2h-18zm0 6h12v2h-12zm0 6h18v2h-18z"/><path d="M356 192c-8 0-8 8-8 8v40c0 8 8 8 8 8h40s8 0 8-8v-40c0-8-8-8-8-8h-8zm0 8.016h32v4h-32zm0 12h36v4h-36zm0 12h24v4h-24zm0 12h36v4h-36z"/><path d="M552 100c-16 0-16 16-16 16v80c0 16 16 16 16 16h80s16 0 16-16v-80c0-16-16-16-16-16h-16zm0 16.031h64v8h-64zm0 24h72v8h-72zm0 24h48v8h-48zm0 24h72v8h-72z"/></g></g></svg>