<svg version="1.0" viewBox="0 0 24 24" xmlns="http://www.w3.org/2000/svg"><g transform="translate(-56 -260)"><rect x="57" y="261" width="22" height="22" ry="2.5" fill="#7b736e"/><path d="M59.5 261a2.495 2.495 0 0 0-2.5 2.5v17c0 1.385 1.115 2.5 2.5 2.5h17c1.385 0 2.5-1.115 2.5-2.5v-17c0-1.385-1.115-2.5-2.5-2.5zm.5 1h16c1.108 0 2 .892 2 2v16c0 1.108-.892 2-2 2H60c-1.108 0-2-.892-2-2v-16c0-1.108.892-2 2-2z" fill-opacity=".502"/><path d="M71.622 265.12c.39-.101.79-.11 1.17-.08l-1.36 2.305a.975.975 0 0 0 .355 1.348l.874.508a.99.99 0 0 0 1.357-.353l1.36-2.306c.212.314.4.666.501 1.053.487 1.853-.631 3.748-2.496 4.234-.39.101-.79.11-1.17.08l-.803 1.115-3.41-.022s1.52-2.578 1.627-2.595a3.483 3.483 0 0 1-.502-1.053c-.486-1.853.632-3.748 2.497-4.234z" color="#000" fill-opacity=".196" style="text-decoration-line:none;text-indent:0;text-transform:none"/><path d="M63.602 265.72c-.23.047-.443.131-.655.219-.017.624.087 1.442-.156 1.656-.239.21-1.037.034-1.654-.031a3.63 3.63 0 0 0-.312.75c.477.396 1.139.839 1.154 1.156.016.321-.625.805-1.06 1.25.103.258.25.493.405.719.608-.127 1.365-.374 1.623-.188.263.19.265 1.006.343 1.625.25.075.512.105.78.125.281-.555.567-1.32.874-1.406.315-.089.962.458 1.498.781.218-.151.412-.337.592-.531-.253-.572-.72-1.292-.592-1.594.127-.302.974-.47 1.56-.687.004-.074.031-.145.031-.22 0-.19-.034-.378-.062-.562-.606-.16-1.465-.24-1.623-.53-.157-.289.241-1.062.437-1.657a3.682 3.682 0 0 0-.655-.469c-.5.375-1.083.995-1.405.938-.316-.056-.662-.82-.998-1.344-.04.007-.085-.008-.125 0zm.624 1.875c.93 0 1.685.756 1.685 1.688a1.686 1.686 0 1 1-3.37 0c0-.932.754-1.688 1.685-1.688z" color="#000" fill-opacity=".196"/><path d="m63 274 .008 6c0 .57.46 1 .998 1h7.992c.523 0 .996-.445.996-.938l-.01-6.062z" color="#bebebe" fill-opacity=".196"/><path d="M71.622 264.12c.39-.101.79-.11 1.17-.08l-1.36 2.305a.975.975 0 0 0 .355 1.348l.874.508a.99.99 0 0 0 1.357-.353l1.36-2.306c.212.314.4.666.501 1.053.487 1.853-.631 3.748-2.496 4.234-.39.101-.79.11-1.17.08l-.803 1.115-3.41-.022s1.52-2.578 1.627-2.595a3.483 3.483 0 0 1-.502-1.053c-.486-1.853.632-3.748 2.497-4.234z" color="#000" fill="#fff" style="text-decoration-line:none;text-indent:0;text-transform:none"/><path d="M63.602 264.72c-.23.047-.443.131-.655.219-.017.624.087 1.442-.156 1.656-.239.21-1.037.034-1.654-.031a3.63 3.63 0 0 0-.312.75c.477.396 1.139.839 1.154 1.156.016.321-.625.805-1.06 1.25.103.258.25.493.405.719.608-.127 1.365-.374 1.623-.188.263.19.265 1.006.343 1.625.25.075.512.105.78.125.281-.555.567-1.32.874-1.406.315-.089.962.458 1.498.781.218-.151.412-.337.592-.531-.253-.572-.72-1.292-.592-1.594.127-.302.974-.47 1.56-.687.004-.074.031-.145.031-.22 0-.19-.034-.378-.062-.562-.606-.16-1.465-.24-1.623-.53-.157-.289.241-1.062.437-1.657a3.682 3.682 0 0 0-.655-.469c-.5.375-1.083.995-1.405.938-.316-.056-.662-.82-.998-1.344-.04.007-.085-.008-.125 0zm.624 1.875c.93 0 1.685.756 1.685 1.688a1.686 1.686 0 1 1-3.37 0c0-.932.754-1.688 1.685-1.688z" color="#000" fill="#fff"/><path d="m63 273 .008 6c0 .57.46 1 .998 1h7.992c.523 0 .996-.445.996-.938l-.01-6.062z" color="#bebebe" fill="#fff"/></g></svg>