<svg version="1.0" viewBox="0 0 24 24" xmlns="http://www.w3.org/2000/svg"><g transform="translate(-56 -260)"><rect x="488" y="52" width="208" height="208" ry="16.5" fill="#3f51b5"/><rect x="103" y="255" width="26" height="26" ry="2.5" fill="#3f51b5"/><rect x="57" y="261" width="22" height="22" ry="2.5" fill="#3f51b5"/><path d="M105.5 255a2.495 2.495 0 0 0-2.5 2.5v21c0 1.385 1.115 2.5 2.5 2.5h21c1.385 0 2.5-1.115 2.5-2.5v-21c0-1.385-1.115-2.5-2.5-2.5zm.5 1h20c1.108 0 2 .892 2 2v19c0 1.108-.892 2-2 2h-20c-1.108 0-2-.892-2-2v-19c0-1.108.892-2 2-2z" fill-opacity=".502"/><rect x="17" y="269" width="14" height="14" ry="2.5" fill="#3f51b5"/><rect x="230" y="226" width="52" height="52" ry="4.5" fill="#3f51b5"/><rect x="160" y="240" width="40" height="39" ry="3.5" fill="#3f51b5"/><rect x="324" y="168" width="104" height="104" ry="8.5" fill="#3f51b5"/><path d="M59.5 261a2.495 2.495 0 0 0-2.5 2.5v17c0 1.385 1.115 2.5 2.5 2.5h17c1.385 0 2.5-1.115 2.5-2.5v-17c0-1.385-1.115-2.5-2.5-2.5zm.5 1h16c1.108 0 2 .892 2 2v16c0 1.108-.892 2-2 2H60c-1.108 0-2-.892-2-2v-16c0-1.108.892-2 2-2z" fill-opacity=".502"/><path d="M19.5 269a2.495 2.495 0 0 0-2.5 2.5v9c0 1.385 1.115 2.5 2.5 2.5h9c1.385 0 2.5-1.115 2.5-2.5v-9c0-1.385-1.115-2.5-2.5-2.5zm.5 1h8c1.108 0 2 .892 2 2v8c0 1.108-.892 2-2 2h-8c-1.108 0-2-.892-2-2v-8c0-1.108.892-2 2-2z" fill-opacity=".502"/><path d="M234.5 226a4.49 4.49 0 0 0-4.5 4.5v43a4.49 4.49 0 0 0 4.5 4.5h43a4.49 4.49 0 0 0 4.5-4.5v-43a4.49 4.49 0 0 0-4.5-4.5zm.5 1h42c2.216 0 4 1.784 4 4v40c0 2.216-1.784 4-4 4h-42c-2.216 0-4-1.784-4-4v-40c0-2.216 1.784-4 4-4z" fill-opacity=".502"/><path d="M163.5 240a3.492 3.492 0 0 0-3.5 3.5v32c0 1.939 1.561 3.5 3.5 3.5h33c1.939 0 3.5-1.561 3.5-3.5v-32c0-1.939-1.561-3.5-3.5-3.5zm.5 1h32c1.662 0 3 1.338 3 3v29c0 1.662-1.338 3-3 3h-32c-1.662 0-3-1.338-3-3v-29c0-1.662 1.338-3 3-3z" fill-opacity=".502"/><path d="M332.5 168a8.481 8.481 0 0 0-8.5 8.5v87c0 4.709 3.791 8.5 8.5 8.5h87c4.709 0 8.5-3.791 8.5-8.5v-87c0-4.709-3.791-8.5-8.5-8.5zm.5 1h86c4.432 0 8 3.568 8 8v83c0 4.432-3.568 8-8 8h-86c-4.432 0-8-3.568-8-8v-83c0-4.432 3.568-8 8-8z" fill-opacity=".502"/><path d="M504.5 52c-9.141 0-16.5 7.359-16.5 16.5v175c0 9.141 7.359 16.5 16.5 16.5h175c9.141 0 16.5-7.359 16.5-16.5v-175c0-9.141-7.359-16.5-16.5-16.5zm.5 1h174c8.864 0 16 7.136 16 16v170c0 8.864-7.136 16-16 16H505c-8.864 0-16-7.136-16-16V69c0-8.864 7.136-16 16-16z" fill-opacity=".502"/><path d="M111 260.504v14l3.133-3.82 2.066 4.986a1 1 0 1 0 1.848-.766l-2.111-5.095 4.379.01z" fill="none" stroke="#fff" stroke-width="2"/><path d="M111 260.504v14l3.133-3.82 2.066 4.986a1 1 0 1 0 1.848-.766l-2.111-5.095 4.379.01z" fill="#151515" fill-rule="evenodd"/><path d="M66.5 268.5v7l1.566-1.911 1.033 2.493a.5.5 0 1 0 .924-.383l-1.056-2.548 2.19.005z" fill="none" stroke="#fff"/><path d="M67 269.5v5.116l1.145-1.396.755 1.822a.366.366 0 1 0 .675-.28l-.771-1.862 1.6.005z" fill="#151515" fill-rule="evenodd"/><path d="M177 252.004v14l3.133-3.82 2.066 4.986a1 1 0 1 0 1.848-.766l-2.111-5.095 4.378.01z" fill="none" stroke="#fff" stroke-width="2"/><path d="M177 252.004v14l3.133-3.82 2.066 4.986a1 1 0 1 0 1.848-.766l-2.111-5.095 4.378.01z" fill="#151515" fill-rule="evenodd"/><path d="M252 244.504v14l3.133-3.82 2.066 4.986a1 1 0 1 0 1.848-.766l-2.111-5.095 4.379.01z" fill="none" stroke="#fff" stroke-width="2"/><path d="M252 244.504v14l3.133-3.82 2.066 4.986a1 1 0 1 0 1.848-.766l-2.111-5.095 4.379.01z" fill="#151515" fill-rule="evenodd"/><path d="M365.27 205.62v28l6.266-7.64 4.132 9.972a2 2 0 1 0 3.696-1.531l-4.223-10.192 8.758.02z" fill="none" stroke="#fff" stroke-width="4"/><path d="M365.27 205.62v28l6.266-7.64 4.132 9.972a2 2 0 1 0 3.696-1.531l-4.223-10.192 8.758.02z" fill="#151515" fill-rule="evenodd"/><path d="M570.53 127.23v56l12.531-15.281 8.266 19.945a4 4 0 1 0 7.39-3.063l-8.445-20.382 17.516.04z" fill="none" stroke="#fff" stroke-width="8"/><path d="M570.53 127.23v56l12.531-15.281 8.266 19.945a4 4 0 1 0 7.39-3.063l-8.445-20.382 17.516.04z" fill="#151515" fill-rule="evenodd"/><path d="M22.316 272.401v7l1.566-1.91 1.034 2.493a.5.5 0 1 0 .923-.383l-1.055-2.548 2.19.005z" fill="none" stroke="#fff"/><path d="M22.816 273.401v5.117l1.145-1.396.755 1.822a.366.366 0 1 0 .676-.28l-.772-1.862 1.6.005z" fill="#151515" fill-rule="evenodd"/></g></svg>