<svg version="1.0" viewBox="0 0 24 24" xmlns="http://www.w3.org/2000/svg"><g transform="translate(-56 -260)"><rect x="488" y="52" width="208" height="208" ry="16.5" fill="#ededed"/><rect x="103" y="255" width="26" height="26" ry="2.5" fill="#ededed"/><rect x="57" y="261" width="22" height="22" ry="2.5" fill="#ededed"/><path d="M105.5 255a2.495 2.495 0 0 0-2.5 2.5v21c0 1.385 1.115 2.5 2.5 2.5h21c1.385 0 2.5-1.115 2.5-2.5v-21c0-1.385-1.115-2.5-2.5-2.5zm.5 1h20c1.108 0 2 .892 2 2v19c0 1.108-.892 2-2 2h-20c-1.108 0-2-.892-2-2v-19c0-1.108.892-2 2-2z" fill-opacity=".502"/><rect x="17" y="269" width="14" height="14" ry="2.5" fill="#ededed"/><rect x="230" y="226" width="52" height="52" ry="4.5" fill="#ededed"/><rect x="160" y="240" width="40" height="39" ry="3.5" fill="#ededed"/><rect x="324" y="168" width="104" height="104" ry="8.5" fill="#ededed"/><path d="M59.5 261a2.495 2.495 0 0 0-2.5 2.5v17c0 1.385 1.115 2.5 2.5 2.5h17c1.385 0 2.5-1.115 2.5-2.5v-17c0-1.385-1.115-2.5-2.5-2.5zm.5 1h16c1.108 0 2 .892 2 2v16c0 1.108-.892 2-2 2H60c-1.108 0-2-.892-2-2v-16c0-1.108.892-2 2-2z" fill-opacity=".502"/><path d="M19.5 269a2.495 2.495 0 0 0-2.5 2.5v9c0 1.385 1.115 2.5 2.5 2.5h9c1.385 0 2.5-1.115 2.5-2.5v-9c0-1.385-1.115-2.5-2.5-2.5zm.5 1h8c1.108 0 2 .892 2 2v8c0 1.108-.892 2-2 2h-8c-1.108 0-2-.892-2-2v-8c0-1.108.892-2 2-2z" fill-opacity=".502"/><path d="M234.5 226a4.49 4.49 0 0 0-4.5 4.5v43a4.49 4.49 0 0 0 4.5 4.5h43a4.49 4.49 0 0 0 4.5-4.5v-43a4.49 4.49 0 0 0-4.5-4.5zm.5 1h42c2.216 0 4 1.784 4 4v40c0 2.216-1.784 4-4 4h-42c-2.216 0-4-1.784-4-4v-40c0-2.216 1.784-4 4-4z" fill-opacity=".502"/><path d="M163.5 240a3.492 3.492 0 0 0-3.5 3.5v32c0 1.939 1.561 3.5 3.5 3.5h33c1.939 0 3.5-1.561 3.5-3.5v-32c0-1.939-1.561-3.5-3.5-3.5zm.5 1h32c1.662 0 3 1.338 3 3v29c0 1.662-1.338 3-3 3h-32c-1.662 0-3-1.338-3-3v-29c0-1.662 1.338-3 3-3z" fill-opacity=".502"/><path d="M332.5 168a8.481 8.481 0 0 0-8.5 8.5v87c0 4.709 3.791 8.5 8.5 8.5h87c4.709 0 8.5-3.791 8.5-8.5v-87c0-4.709-3.791-8.5-8.5-8.5zm.5 1h86c4.432 0 8 3.568 8 8v83c0 4.432-3.568 8-8 8h-86c-4.432 0-8-3.568-8-8v-83c0-4.432 3.568-8 8-8z" fill-opacity=".502"/><path d="M504.5 52c-9.141 0-16.5 7.359-16.5 16.5v175c0 9.141 7.359 16.5 16.5 16.5h175c9.141 0 16.5-7.359 16.5-16.5v-175c0-9.141-7.359-16.5-16.5-16.5zm.5 1h174c8.864 0 16 7.136 16 16v170c0 8.864-7.136 16-16 16H505c-8.864 0-16-7.136-16-16V69c0-8.864 7.136-16 16-16z" fill-opacity=".502"/><path class="starred" d="m116 260.39-2.119 5.495-5.88.317 4.57 3.713-1.515 5.692 4.944-3.2 4.944 3.2-1.515-5.692 4.571-3.713-5.881-.317z" color="#000" fill="#393634" opacity=".8" style="text-decoration-line:none;text-indent:0;text-transform:none"/><path class="starred" d="m68 264.39-2.119 5.495-5.88.317 4.57 3.713-1.515 5.692 4.944-3.2 4.944 3.2-1.516-5.692L76 270.202l-5.881-.317z" color="#000" fill="#393634" opacity=".8" style="text-decoration-line:none;text-indent:0;text-transform:none"/><path class="starred" d="m24 272.2-1.06 2.748-2.94.158 2.286 1.857-.758 2.845 2.472-1.6 2.472 1.6-.758-2.845L28 275.106l-2.94-.159z" color="#000" fill="#393634" opacity=".8" style="text-decoration-line:none;text-indent:0;text-transform:none"/><path class="starred" d="m180 248.09-3.178 8.242-8.822.476 6.857 5.57-2.273 8.537 7.416-4.8 7.416 4.8-2.273-8.537 6.857-5.57-8.822-.476z" color="#000" fill="#393634" opacity=".8" style="text-decoration-line:none;text-indent:0;text-transform:none"/><path class="starred" d="m256 240.59-3.178 8.242-8.822.476 6.857 5.57-2.273 8.537 7.416-4.8 7.416 4.8-2.273-8.537 6.857-5.57-8.822-.476z" color="#000" fill="#393634" opacity=".8" style="text-decoration-line:none;text-indent:0;text-transform:none"/><path class="starred" d="m376 197.18-6.356 16.485-17.644.951 13.714 11.14-4.548 17.074 14.833-9.6 14.831 9.6-4.545-17.074 13.714-11.14-17.644-.951z" color="#000" fill="#393634" opacity=".8" style="text-decoration-line:none;text-indent:0;text-transform:none"/><path class="starred" d="m592 110.35-12.712 32.97-35.287 1.902 27.429 22.28-9.095 34.147 29.666-19.2 29.662 19.2-9.091-34.147L640 145.222l-35.287-1.902z" color="#000" fill="#393634" opacity=".8" style="text-decoration-line:none;text-indent:0;text-transform:none"/></g></svg>