<svg version="1.0" viewBox="0 0 24 24" xmlns="http://www.w3.org/2000/svg"><g transform="translate(-56 -260)"><rect x="57" y="261" width="22" height="22" ry="2.5" fill="#7b736e"/><path d="M59.5 261a2.495 2.495 0 0 0-2.5 2.5v17c0 1.385 1.115 2.5 2.5 2.5h17c1.385 0 2.5-1.115 2.5-2.5v-17c0-1.385-1.115-2.5-2.5-2.5zm.5 1h16c1.108 0 2 .892 2 2v16c0 1.108-.892 2-2 2H60c-1.108 0-2-.892-2-2v-16c0-1.108.892-2 2-2z" fill-opacity=".502"/><g fill="#fff"><path d="M61 278.496v-8c0-.5.52-.5.52-.5H65v3h-2v4.003h6v-2h2v3.497c0 .477-.5.5-.5.5h-9s-.5 0-.5-.5z"/><path d="M66.5 264.996c-.5 0-.5.5-.5.5v8c0 .5.5.5.5.5h9s.5 0 .5-.5v-8c0-.5-.5-.5-.5-.5zm1.5 3h6v3.997h-6z"/></g></g></svg>