<svg version="1.0" viewBox="0 0 24 24" xmlns="http://www.w3.org/2000/svg"><g transform="translate(-56 -260)"><rect x="57" y="261" width="22" height="22" ry="2.5" fill="#ededed"/><path d="M59.5 261a2.495 2.495 0 0 0-2.5 2.5v17c0 1.385 1.115 2.5 2.5 2.5h17c1.385 0 2.5-1.115 2.5-2.5v-17c0-1.385-1.115-2.5-2.5-2.5zm.5 1h16c1.108 0 2 .892 2 2v16c0 1.108-.892 2-2 2H60c-1.108 0-2-.892-2-2v-16c0-1.108.892-2 2-2z" fill-opacity=".502"/><g transform="translate(-49 4)"><circle cx="114" cy="265" r="5" fill="#f15d22" opacity=".75"/><circle cx="120" cy="268" r="5" fill="#73c48f" opacity=".75"/><circle cx="114" cy="271" r="5" fill="#48b9c7" opacity=".75"/><circle cx="114" cy="265" r="5.5" fill="none" stroke="#743c26" stroke-linecap="square"/><circle cx="120" cy="268" r="5.5" fill="none" stroke="#44634f" stroke-linecap="square"/><circle cx="114" cy="271" r="5.5" fill="none" stroke="#345f64" stroke-linecap="square"/></g></g></svg>