<svg version="1.0" viewBox="0 0 24 24" xmlns="http://www.w3.org/2000/svg"><g transform="translate(-56 -260)"><rect x="488" y="52" width="208" height="208" ry="16.5" fill="#48b9c7"/><rect x="103" y="255" width="26" height="26" ry="2.5" fill="#48b9c7"/><rect x="57" y="261" width="22" height="22" ry="2.5" fill="#48b9c7"/><path d="M105.5 255a2.495 2.495 0 0 0-2.5 2.5v21c0 1.385 1.115 2.5 2.5 2.5h21c1.385 0 2.5-1.115 2.5-2.5v-21c0-1.385-1.115-2.5-2.5-2.5zm.5 1h20c1.108 0 2 .892 2 2v19c0 1.108-.892 2-2 2h-20c-1.108 0-2-.892-2-2v-19c0-1.108.892-2 2-2z" fill-opacity=".502"/><rect x="17" y="269" width="14" height="14" ry="2.5" fill="#48b9c7"/><rect x="230" y="226" width="52" height="52" ry="4.5" fill="#48b9c7"/><rect x="160" y="240" width="40" height="39" ry="3.5" fill="#48b9c7"/><rect x="324" y="168" width="104" height="104" ry="8.5" fill="#48b9c7"/><path d="M59.5 261a2.495 2.495 0 0 0-2.5 2.5v17c0 1.385 1.115 2.5 2.5 2.5h17c1.385 0 2.5-1.115 2.5-2.5v-17c0-1.385-1.115-2.5-2.5-2.5zm.5 1h16c1.108 0 2 .892 2 2v16c0 1.108-.892 2-2 2H60c-1.108 0-2-.892-2-2v-16c0-1.108.892-2 2-2z" fill-opacity=".502"/><path d="M19.5 269a2.495 2.495 0 0 0-2.5 2.5v9c0 1.385 1.115 2.5 2.5 2.5h9c1.385 0 2.5-1.115 2.5-2.5v-9c0-1.385-1.115-2.5-2.5-2.5zm.5 1h8c1.108 0 2 .892 2 2v8c0 1.108-.892 2-2 2h-8c-1.108 0-2-.892-2-2v-8c0-1.108.892-2 2-2z" fill-opacity=".502"/><path d="M234.5 226a4.49 4.49 0 0 0-4.5 4.5v43a4.49 4.49 0 0 0 4.5 4.5h43a4.49 4.49 0 0 0 4.5-4.5v-43a4.49 4.49 0 0 0-4.5-4.5zm.5 1h42c2.216 0 4 1.784 4 4v40c0 2.216-1.784 4-4 4h-42c-2.216 0-4-1.784-4-4v-40c0-2.216 1.784-4 4-4z" fill-opacity=".502"/><path d="M163.5 240a3.492 3.492 0 0 0-3.5 3.5v32c0 1.939 1.561 3.5 3.5 3.5h33c1.939 0 3.5-1.561 3.5-3.5v-32c0-1.939-1.561-3.5-3.5-3.5zm.5 1h32c1.662 0 3 1.338 3 3v29c0 1.662-1.338 3-3 3h-32c-1.662 0-3-1.338-3-3v-29c0-1.662 1.338-3 3-3z" fill-opacity=".502"/><path d="M332.5 168a8.481 8.481 0 0 0-8.5 8.5v87c0 4.709 3.791 8.5 8.5 8.5h87c4.709 0 8.5-3.791 8.5-8.5v-87c0-4.709-3.791-8.5-8.5-8.5zm.5 1h86c4.432 0 8 3.568 8 8v83c0 4.432-3.568 8-8 8h-86c-4.432 0-8-3.568-8-8v-83c0-4.432 3.568-8 8-8z" fill-opacity=".502"/><path d="M504.5 52c-9.141 0-16.5 7.359-16.5 16.5v175c0 9.141 7.359 16.5 16.5 16.5h175c9.141 0 16.5-7.359 16.5-16.5v-175c0-9.141-7.359-16.5-16.5-16.5zm.5 1h174c8.864 0 16 7.136 16 16v170c0 8.864-7.136 16-16 16H505c-8.864 0-16-7.136-16-16V69c0-8.864 7.136-16 16-16z" fill-opacity=".502"/><path d="M24 272a4 4 0 0 1 4 4v.5a1.5 1.5 0 0 1-2.648.965A1.988 1.988 0 0 1 24 278a2 2 0 1 1 2-2v.5a.5.5 0 0 0 1 0v-.5a3 3 0 1 0-3 3h2.5s.5 0 .5.5c-.031.5-.5.5-.5.5H24a4 4 0 0 1 0-8zm0 3a1 1 0 1 0 0 2 1 1 0 0 0 0-2z" fill="#fff"/><path d="M68 264a8 8 0 0 1 8 8v1a3 3 0 0 1-5.297 1.93A3.975 3.975 0 0 1 68 276a4 4 0 1 1 4-4v1a1 1 0 0 0 2 0v-1a6 6 0 1 0-6 6h5s1 0 1 1c-.062 1-1 1-1 1h-5a8 8 0 1 1 0-16zm0 6a2 2 0 1 0 0 4 2 2 0 0 0 0-4z" fill="#fff"/><path d="M116 260a8 8 0 0 1 8 8v1a3 3 0 0 1-5.297 1.93A3.975 3.975 0 0 1 116 272a4 4 0 1 1 4-4v1a1 1 0 0 0 2 0v-1a6 6 0 1 0-6 6h5s1 0 1 1c-.062 1-1 1-1 1h-5a8 8 0 1 1 0-16zm0 6a2 2 0 1 0 0 4 2 2 0 0 0 0-4z" fill="#fff"/><path d="M180 247c6.627 0 12 5.373 12 12v1.5a4.5 4.5 0 0 1-7.945 2.894c-1.07.987-2.486 1.606-4.055 1.606a6 6 0 1 1 6-6v1.5a1.5 1.5 0 0 0 3 0V259a9 9 0 1 0-9 9h7.5s1.5 0 1.5 1.5c-.094 1.5-1.5 1.5-1.5 1.5H180c-6.627 0-12-5.373-12-12s5.373-12 12-12zm0 9a3 3 0 1 0 0 6 3 3 0 0 0 0-6z" fill="#fff"/><path d="M256 240c6.627 0 12 5.373 12 12v1.5a4.5 4.5 0 0 1-7.945 2.894c-1.07.987-2.486 1.606-4.055 1.606a6 6 0 1 1 6-6v1.5a1.5 1.5 0 0 0 3 0V252a9 9 0 1 0-9 9h7.5s1.5 0 1.5 1.5c-.094 1.5-1.5 1.5-1.5 1.5H256c-6.627 0-12-5.373-12-12s5.373-12 12-12zm0 9a3 3 0 1 0 0 6 3 3 0 0 0 0-6z" fill="#fff"/><path d="M376 196c13.255 0 24 10.745 24 24v3a9 9 0 0 1-15.89 5.789c-2.14 1.972-4.973 3.211-8.11 3.211-6.627 0-12-5.372-12-12 0-6.627 5.373-12 12-12s12 5.373 12 12v3a3 3 0 0 0 6 0v-3c0-9.941-8.059-18-18-18s-18 8.059-18 18 8.059 18 18 18h15s3 0 3 3c-.187 3-3 3-3 3h-15c-13.255 0-24-10.745-24-24s10.745-24 24-24zm0 18a6 6 0 1 0 0 12 6 6 0 0 0 0-12z" fill="#fff"/><path d="M592 108c26.51 0 48 21.49 48 48v6c0 9.941-8.059 18-18 18a18.013 18.013 0 0 1-13.781-6.422C603.942 177.523 598.277 180 592 180c-13.255 0-24-10.745-24-24s10.745-24 24-24 24 10.745 24 24v6a6 6 0 0 0 12 0v-6c0-19.882-16.118-36-36-36s-36 16.118-36 36 16.118 36 36 36h30s6 0 6 6c-.374 6-6 6-6 6h-30c-26.51 0-48-21.49-48-48s21.49-48 48-48zm0 36c-6.628 0-12 5.373-12 12s5.372 12 12 12 12-5.373 12-12-5.372-12-12-12z" fill="#fff"/></g></svg>