<svg version="1.0" viewBox="0 0 24 24" xmlns="http://www.w3.org/2000/svg"><g transform="translate(-56 -260)"><rect x="57" y="261" width="22" height="22" ry="2.5" fill="#48b9c7"/><path d="M59.5 261a2.495 2.495 0 0 0-2.5 2.5v17c0 1.385 1.115 2.5 2.5 2.5h17c1.385 0 2.5-1.115 2.5-2.5v-17c0-1.385-1.115-2.5-2.5-2.5zm.5 1h16c1.108 0 2 .892 2 2v16c0 1.108-.892 2-2 2H60c-1.108 0-2-.892-2-2v-16c0-1.108.892-2 2-2z" fill-opacity=".502"/><path d="M62 264c-2 0-2 2-2 2v9s0 2 2 2h12s2 0 2-2v-9s0-2-2-2zm0 2h12v8H62zm1 13v.997h10V279c0-1-1-1-1-1h-8.022S63 278 63 279z" fill="#393634" opacity=".8"/></g></svg>