<svg version="1.0" viewBox="0 0 24 24" xmlns="http://www.w3.org/2000/svg"><g transform="translate(-56 -260)"><rect x="57" y="261" width="22" height="22" ry="2.5" fill="#7b736e"/><path d="M59.5 261a2.495 2.495 0 0 0-2.5 2.5v17c0 1.385 1.115 2.5 2.5 2.5h17c1.385 0 2.5-1.115 2.5-2.5v-17c0-1.385-1.115-2.5-2.5-2.5zm.5 1h16c1.108 0 2 .892 2 2v16c0 1.108-.892 2-2 2H60c-1.108 0-2-.892-2-2v-16c0-1.108.892-2 2-2z" fill-opacity=".502"/><g fill="#fff"><path d="M62.003 269c-2 0-2 2-2 2v7c0 1.965 2 2 2 2h9v-4H68.44c-.01.145-.024.296-.03.438h.437v.5h-.5c-.081.707-.36 1.062-.844 1.062a3.3 3.3 0 0 1-.531-.062l-.094-.5c.263.04.484.062.625.062.141 0 .21-.199.25-.562H65.41c.044-.292.063-.625.094-.938h-.688a10.208 10.208 0 0 1-.906 1.969l-.5-.406c.32-.513.588-1.027.813-1.563h-.219v-2.406c-.022-.019-.04-.045-.063-.063l.063-.062v-1.781c-.023-.019-.04-.045-.063-.063l.063-.062V269zm.094 2.719h1.593v4.781h-.53v-.531h-.532v.781h-.531zm.53.531v3.219h.532v-3.219zm3.47 3.75c-.02.143-.042.303-.063.438h1.781c.015-.149.02-.29.032-.438h-.47l-.218.281c-.096-.105-.207-.185-.312-.28z" opacity=".5"/><path d="M65.003 264v11h9s2 0 2-2v-7s0-2-2-2zm4.563 2h1.874l2.188 7h-1.656l-.438-1.656H69.41L68.972 273h-1.594zm.874 1.188c-.171.74-.337 1.583-.53 2.28l-.188.626h1.5l-.156-.625a94.113 94.113 0 0 1-.594-2.281z"/></g></g></svg>