<svg version="1.0" viewBox="0 0 24 24" xmlns="http://www.w3.org/2000/svg"><g transform="translate(-56 -260)"><rect x="57" y="261" width="22" height="22" ry="2.5" fill="#4f4b49"/><rect x="58" y="262" width="20" height="20" ry="2" fill="#d1cdcb"/><rect x="62" y="267" width="13" height="10" ry=".5" fill="#fdfdfd"/><path d="M63 266s-2 0-2 2v8c0 2 2 2 2 2h11s2 0 2-2v-8c0-2-2-2-2-2zm.25 2h1.5a.25.25 0 0 1 .25.25v1.5a.25.25 0 0 1-.25.25h-1.5a.25.25 0 0 1-.25-.25v-1.5a.25.25 0 0 1 .25-.25zm3 0h1.5a.25.25 0 0 1 .25.25v1.5a.25.25 0 0 1-.25.25h-1.5a.25.25 0 0 1-.25-.25v-1.5a.25.25 0 0 1 .25-.25zm3 0h1.5a.25.25 0 0 1 .25.25v1.5a.25.25 0 0 1-.25.25h-1.5a.25.25 0 0 1-.25-.25v-1.5a.25.25 0 0 1 .25-.25zm3 0h1.5a.25.25 0 0 1 .25.25v1.5a.25.25 0 0 1-.25.25h-1.5a.25.25 0 0 1-.25-.25v-1.5a.25.25 0 0 1 .25-.25zm-9 3h1.5a.25.25 0 0 1 .25.25v1.5a.25.25 0 0 1-.25.25h-1.5a.25.25 0 0 1-.25-.25v-1.5a.25.25 0 0 1 .25-.25zm3 0h1.5a.25.25 0 0 1 .25.25v1.5a.25.25 0 0 1-.25.25h-1.5a.25.25 0 0 1-.25-.25v-1.5a.25.25 0 0 1 .25-.25zm3 0h1.5a.25.25 0 0 1 .25.25v1.5a.25.25 0 0 1-.25.25h-1.5a.25.25 0 0 1-.25-.25v-1.5a.25.25 0 0 1 .25-.25zm3 0h1.5a.25.25 0 0 1 .25.25v1.5a.25.25 0 0 1-.25.25h-1.5a.25.25 0 0 1-.25-.25v-1.5a.25.25 0 0 1 .25-.25zm-7 3h6.5a.25.25 0 0 1 .25.25v1.5a.25.25 0 0 1-.25.25h-6.5a.25.25 0 0 1-.25-.25v-1.5a.25.25 0 0 1 .25-.25z" fill="#2b2928" filter="url(#filter7554)"/></g></svg>