<svg version="1.0" viewBox="0 0 24 24" xmlns="http://www.w3.org/2000/svg"><g transform="translate(-56 640)"><rect x="56" y="-638" width="24" height="20" ry="2" fill="#6f6f6f"/><rect x="57" y="-637" width="22" height="18" ry="1.5" fill="#dedede"/><path fill="#45454f" d="M58-636h20v15H58z"/><path fill="#48b9c7" d="M58-636h20v15H58z"/><g fill-opacity=".196"><path d="M604.79 384.57c-1.645 0-3 1.355-3 3v6c0 1.645 1.355 3 3 3h8c1.645 0 3-1.355 3-3v-6c0-1.645-1.355-3-3-3zm0 2h8c.571 0 1 .429 1 1v6c0 .571-.429 1-1 1h-8c-.571 0-1-.429-1-1v-6c0-.571.429-1 1-1z" color="#000" style="font-feature-settings:normal;font-variant-alternates:normal;font-variant-caps:normal;font-variant-ligatures:normal;font-variant-numeric:normal;font-variant-position:normal;isolation:auto;mix-blend-mode:normal;shape-padding:0;text-decoration-color:#000;text-decoration-line:none;text-decoration-style:solid;text-indent:0;text-orientation:mixed;text-transform:none;white-space:normal" transform="translate(-540.79 -1018.6)"/><path d="M64-631.03v4l1.5-1.5 1.5 1.5 2.5-2.5 2.5 2.5v-4z" opacity=".5"/><path d="m68-629.03 4 4h-8z"/></g><g fill="#fff"><path d="M604.79 384.57c-1.645 0-3 1.355-3 3v6c0 1.645 1.355 3 3 3h8c1.645 0 3-1.355 3-3v-6c0-1.645-1.355-3-3-3zm0 2h8c.571 0 1 .429 1 1v6c0 .571-.429 1-1 1h-8c-.571 0-1-.429-1-1v-6c0-.571.429-1 1-1z" color="#000" style="font-feature-settings:normal;font-variant-alternates:normal;font-variant-caps:normal;font-variant-ligatures:normal;font-variant-numeric:normal;font-variant-position:normal;isolation:auto;mix-blend-mode:normal;shape-padding:0;text-decoration-color:#000;text-decoration-line:none;text-decoration-style:solid;text-indent:0;text-orientation:mixed;text-transform:none;white-space:normal" transform="translate(-540.79 -1019.6)"/><path d="M64-632.03v4l1.5-1.5 1.5 1.5 2.5-2.5 2.5 2.5v-4z" opacity=".5"/><path d="m68-630.03 4 4h-8z"/></g></g></svg>