<svg version="1.0" viewBox="0 0 24 24" xmlns="http://www.w3.org/2000/svg"><g transform="translate(-56 -260)"><rect x="57" y="261" width="22" height="22" ry="2.5" fill="#ededed"/><path d="M59.5 261a2.495 2.495 0 0 0-2.5 2.5v17c0 1.385 1.115 2.5 2.5 2.5h17c1.385 0 2.5-1.115 2.5-2.5v-17c0-1.385-1.115-2.5-2.5-2.5zm.5 1h16c1.108 0 2 .892 2 2v16c0 1.108-.892 2-2 2H60c-1.108 0-2-.892-2-2v-16c0-1.108.892-2 2-2z" fill-opacity=".502"/><path class="starred" d="m68 264.39-2.119 5.495-5.88.317 4.57 3.713-1.515 5.692 4.944-3.2 4.944 3.2-1.516-5.692L76 270.202l-5.881-.317z" color="#000" fill="#393634" opacity=".8" style="text-decoration-line:none;text-indent:0;text-transform:none"/></g></svg>