<svg version="1.0" viewBox="0 0 24 24" xmlns="http://www.w3.org/2000/svg"><g transform="translate(-56 -260)"><rect x="488" y="52" width="208" height="208" ry="16.5" fill="#479863"/><rect x="103" y="255" width="26" height="26" ry="2.5" fill="#479863"/><rect x="57" y="261" width="22" height="22" ry="2.5" fill="#479863"/><path d="M105.5 255a2.495 2.495 0 0 0-2.5 2.5v21c0 1.385 1.115 2.5 2.5 2.5h21c1.385 0 2.5-1.115 2.5-2.5v-21c0-1.385-1.115-2.5-2.5-2.5zm.5 1h20c1.108 0 2 .892 2 2v19c0 1.108-.892 2-2 2h-20c-1.108 0-2-.892-2-2v-19c0-1.108.892-2 2-2z" fill-opacity=".502"/><rect x="17" y="269" width="14" height="14" ry="2.5" fill="#479863"/><rect x="230" y="226" width="52" height="52" ry="4.5" fill="#479863"/><rect x="160" y="240" width="40" height="39" ry="3.5" fill="#479863"/><rect x="324" y="168" width="104" height="104" ry="8.5" fill="#479863"/><path d="M59.5 261a2.495 2.495 0 0 0-2.5 2.5v17c0 1.385 1.115 2.5 2.5 2.5h17c1.385 0 2.5-1.115 2.5-2.5v-17c0-1.385-1.115-2.5-2.5-2.5zm.5 1h16c1.108 0 2 .892 2 2v16c0 1.108-.892 2-2 2H60c-1.108 0-2-.892-2-2v-16c0-1.108.892-2 2-2z" fill-opacity=".502"/><path d="M19.5 269a2.495 2.495 0 0 0-2.5 2.5v9c0 1.385 1.115 2.5 2.5 2.5h9c1.385 0 2.5-1.115 2.5-2.5v-9c0-1.385-1.115-2.5-2.5-2.5zm.5 1h8c1.108 0 2 .892 2 2v8c0 1.108-.892 2-2 2h-8c-1.108 0-2-.892-2-2v-8c0-1.108.892-2 2-2z" fill-opacity=".502"/><path d="M234.5 226a4.49 4.49 0 0 0-4.5 4.5v43a4.49 4.49 0 0 0 4.5 4.5h43a4.49 4.49 0 0 0 4.5-4.5v-43a4.49 4.49 0 0 0-4.5-4.5zm.5 1h42c2.216 0 4 1.784 4 4v40c0 2.216-1.784 4-4 4h-42c-2.216 0-4-1.784-4-4v-40c0-2.216 1.784-4 4-4z" fill-opacity=".502"/><path d="M163.5 240a3.492 3.492 0 0 0-3.5 3.5v32c0 1.939 1.561 3.5 3.5 3.5h33c1.939 0 3.5-1.561 3.5-3.5v-32c0-1.939-1.561-3.5-3.5-3.5zm.5 1h32c1.662 0 3 1.338 3 3v29c0 1.662-1.338 3-3 3h-32c-1.662 0-3-1.338-3-3v-29c0-1.662 1.338-3 3-3z" fill-opacity=".502"/><path d="M332.5 168a8.481 8.481 0 0 0-8.5 8.5v87c0 4.709 3.791 8.5 8.5 8.5h87c4.709 0 8.5-3.791 8.5-8.5v-87c0-4.709-3.791-8.5-8.5-8.5zm.5 1h86c4.432 0 8 3.568 8 8v83c0 4.432-3.568 8-8 8h-86c-4.432 0-8-3.568-8-8v-83c0-4.432 3.568-8 8-8z" fill-opacity=".502"/><path d="M504.5 52c-9.141 0-16.5 7.359-16.5 16.5v175c0 9.141 7.359 16.5 16.5 16.5h175c9.141 0 16.5-7.359 16.5-16.5v-175c0-9.141-7.359-16.5-16.5-16.5zm.5 1h174c8.864 0 16 7.136 16 16v170c0 8.864-7.136 16-16 16H505c-8.864 0-16-7.136-16-16V69c0-8.864 7.136-16 16-16z" fill-opacity=".502"/><path d="M120 260a3 3 0 0 0-3 3c0 .231.044.44.094.656l-3.22 2a3 3 0 1 0 0 4.688l3.22 2c-.05.216-.094.425-.094.656a3 3 0 1 0 1.125-2.344l-3.219-2c.05-.216.094-.425.094-.656 0-.231-.044-.44-.094-.656l3.219-2A3 3 0 1 0 120 260z" fill="#fff"/><path d="M72 264a3 3 0 0 0-3 3c0 .231.044.44.094.656l-3.22 2a3 3 0 1 0 0 4.688l3.22 2c-.05.216-.094.425-.094.656a3 3 0 1 0 1.125-2.344l-3.219-2c.05-.216.094-.425.094-.656 0-.231-.044-.44-.094-.656l3.219-2A3 3 0 1 0 72 264z" fill="#fff"/><path d="M26 272a1.5 1.5 0 0 0-1.5 1.5c0 .116.022.22.047.328l-1.61 1a1.5 1.5 0 1 0 0 2.344l1.61 1a1.437 1.437 0 0 0-.047.328 1.5 1.5 0 1 0 .563-1.172l-1.61-1c.025-.108.047-.212.047-.328 0-.116-.022-.22-.047-.328l1.61-1A1.5 1.5 0 1 0 26 272z" fill="#fff"/><path d="M184 251.5a3 3 0 0 0-3 3c0 .231.044.44.094.656l-3.22 2a3 3 0 1 0 0 4.688l3.22 2c-.05.216-.094.425-.094.656a3 3 0 1 0 1.125-2.344l-3.219-2c.05-.216.094-.425.094-.656 0-.231-.044-.44-.094-.656l3.219-2A3 3 0 1 0 184 251.5z" fill="#fff"/><path d="M262 240a4.5 4.5 0 0 0-4.5 4.5c0 .347.066.66.14.984l-4.828 3A4.5 4.5 0 1 0 250 256.5a4.484 4.484 0 0 0 2.813-.984l4.828 3c-.075.324-.14.637-.14.984a4.5 4.5 0 1 0 4.5-4.5 4.484 4.484 0 0 0-2.813.984l-4.829-3c.075-.324.141-.637.141-.984s-.066-.66-.14-.984l4.828-3A4.48 4.48 0 0 0 262 249a4.5 4.5 0 1 0 0-9z" fill="#fff"/><path d="M388 196a9 9 0 0 0-9 9c0 .694.133 1.32.281 1.969l-9.656 6A8.967 8.967 0 0 0 364 211a9 9 0 0 0 0 18 8.967 8.967 0 0 0 5.625-1.969l9.656 6c-.148.649-.28 1.275-.28 1.969a9 9 0 1 0 9-9 8.967 8.967 0 0 0-5.626 1.969l-9.656-6c.148-.649.281-1.275.281-1.969 0-.694-.133-1.32-.281-1.969l9.656-6A8.967 8.967 0 0 0 388 214a9 9 0 0 0 0-18z" fill="#fff"/><path d="M616 108c-9.941 0-18 8.059-18 18 0 1.388.265 2.64.562 3.938l-19.312 12A17.933 17.933 0 0 0 568 138c-9.94 0-18 8.059-18 18s8.06 18 18 18c4.254 0 8.17-1.47 11.25-3.938l19.312 12c-.297 1.298-.562 2.55-.562 3.938 0 9.941 8.059 18 18 18s18-8.059 18-18-8.059-18-18-18c-4.254 0-8.17 1.47-11.25 3.938l-19.312-12c.297-1.298.562-2.55.562-3.938 0-1.388-.265-2.64-.562-3.938l19.312-12A17.934 17.934 0 0 0 616 144c9.941 0 18-8.059 18-18s-8.059-18-18-18z" fill="#fff"/></g></svg>