<svg version="1.0" viewBox="0 0 24 24" xmlns="http://www.w3.org/2000/svg"><g transform="translate(-56 -260)"><rect x="57" y="261" width="22" height="22" ry="2.5" fill="#f15d22"/><path d="M59.5 261a2.495 2.495 0 0 0-2.5 2.5v17c0 1.385 1.115 2.5 2.5 2.5h17c1.385 0 2.5-1.115 2.5-2.5v-17c0-1.385-1.115-2.5-2.5-2.5zm.5 1h16c1.108 0 2 .892 2 2v16c0 1.108-.892 2-2 2H60c-1.108 0-2-.892-2-2v-16c0-1.108.892-2 2-2z" fill-opacity=".502"/><path d="M65 265c-.554 0-1 .446-1 1v1c0 .554.446 1 1 1h1c.554 0 1-.446 1-1v-1c0-.554-.446-1-1-1zm-.472 4-.528.383-1.947 3.894c-.335.61.61 1.08.894.446L64 271.617l.38-1.125L64 274v5h1v-4h1v4h1v-5l-.528-3.512.528 1.13 1.053 2.105a.5.5 0 0 0 .224.224l1.723.862V279h2v-3.293l.646.646c.472.491 1.198-.235.707-.707L72 274.293V274h-1.383l-1.744-.873L67 269.383l-.693-.383zM70 271v2h2v-2z" fill="#fff"/></g></svg>