<svg version="1.0" viewBox="0 0 24 24" xmlns="http://www.w3.org/2000/svg"><g transform="translate(-56 -260)"><rect x="57" y="261" width="22" height="22" ry="2.5" fill="#48b9c7"/><path d="M59.5 261a2.495 2.495 0 0 0-2.5 2.5v17c0 1.385 1.115 2.5 2.5 2.5h17c1.385 0 2.5-1.115 2.5-2.5v-17c0-1.385-1.115-2.5-2.5-2.5zm.5 1h16c1.108 0 2 .892 2 2v16c0 1.108-.892 2-2 2H60c-1.108 0-2-.892-2-2v-16c0-1.108.892-2 2-2z" fill-opacity=".502"/><path d="M68 264a8 8 0 0 1 8 8v1a3 3 0 0 1-5.297 1.93A3.975 3.975 0 0 1 68 276a4 4 0 1 1 4-4v1a1 1 0 0 0 2 0v-1a6 6 0 1 0-6 6h5s1 0 1 1c-.062 1-1 1-1 1h-5a8 8 0 1 1 0-16zm0 6a2 2 0 1 0 0 4 2 2 0 0 0 0-4z" fill="#fff"/></g></svg>