<svg version="1.0" viewBox="0 0 24 24" xmlns="http://www.w3.org/2000/svg"><g transform="translate(-56 -260)"><rect x="57" y="261" width="22" height="22" ry="2.5" fill="#9c27b0"/><path d="M59.5 261a2.495 2.495 0 0 0-2.5 2.5v17c0 1.385 1.115 2.5 2.5 2.5h17c1.385 0 2.5-1.115 2.5-2.5v-17c0-1.385-1.115-2.5-2.5-2.5zm.5 1h16c1.108 0 2 .892 2 2v16c0 1.108-.892 2-2 2H60c-1.108 0-2-.892-2-2v-16c0-1.108.892-2 2-2z" fill-opacity=".502"/><g fill="#fff"><path d="M68.235 267a4.5 4.5 0 0 1 .762 2.5 4.5 4.5 0 0 1-4.5 4.5 4.5 4.5 0 0 1-2.5-.76v.76c0 1.108.892 2 2 2h10c1.108 0 2-.892 2-2v-5c0-1.108-.892-2-2-2z"/><path d="m72.995 276-2 2-2-2z"/><path d="M64.495 266a3.5 3.5 0 0 0-3.5 3.5 3.5 3.5 0 0 0 3.5 3.5 3.5 3.5 0 0 0 3.5-3.5 3.5 3.5 0 0 0-3.5-3.5zm-.5 1h1v3h-1zm0 4h1v1h-1z"/></g></g></svg>