<svg version="1.0" viewBox="0 0 16 16" xmlns="http://www.w3.org/2000/svg"><g transform="translate(-50 -268)"><rect transform="matrix(0 -1 -1 0 0 0)" x="-284" y="-66" width="16" height="16" rx="8" ry="8" fill="#dedede"/><rect transform="matrix(0 -1 -1 0 0 0)" x="-284" y="-24" width="8" height="8" rx="1" ry="1" fill="#888"/><circle cx="102" cy="272" r="12" fill="#dedede"/><rect x="192" y="238" width="44" height="46" ry="22" fill="#dedede"/><rect x="135" y="253" width="30" height="31" ry="15" fill="#dedede"/><path d="M150 253c-8.31 0-15 6.69-15 15v1c0 8.31 6.69 15 15 15s15-6.69 15-15v-1c0-8.31-6.69-15-15-15zm0 1a14 14 0 0 1 14 14 14 14 0 0 1-14 14 14 14 0 0 1-14-14 14 14 0 0 1 14-14z" fill-opacity=".502"/><rect x="260" y="222" width="60" height="62" ry="30" fill="#dedede"/><path d="M290 222c-16.62 0-30 13.38-30 30v2c0 16.62 13.38 30 30 30s30-13.38 30-30v-2c0-16.62-13.38-30-30-30zm0 1a29 29 0 0 1 29 29 29 29 0 0 1-29 29 29 29 0 0 1-29-29 29 29 0 0 1 29-29z" fill-opacity=".502"/><rect x="16.5" y="276.5" width="7" height="7" ry=".5" fill="#dedede" stroke="#000" stroke-linecap="square" stroke-opacity=".502"/><rect x="50.5" y="268.5" width="15" height="15" ry="7.5" fill="none" stroke="#000" stroke-linecap="square" stroke-opacity=".502"/><rect x="90.5" y="260.5" width="23" height="23" ry="11.478" fill="none" stroke="#000" stroke-linecap="square" stroke-opacity=".502"/><path d="M214 238c-12.188 0-22 9.812-22 22v2c0 12.188 9.812 22 22 22s22-9.812 22-22v-2c0-12.188-9.812-22-22-22zm0 1a21 21 0 0 1 21 21 21 21 0 0 1-21 21 21 21 0 0 1-21-21 21 21 0 0 1 21-21z" fill-opacity=".502"/><path d="M97 266v3h5.879l-6.302 6.302c-.357.276-.543.736-.55 1.198H96v1.5h1.5v-.015c.461-.005.922-.196 1.198-.562L105 271.12v5.87l3 .009v-11H97z" fill="#474341"/><path d="M145 262v3h5.879l-6.302 6.302c-.358.276-.543.736-.55 1.198H144v1.5h1.5v-.015c.461-.005.922-.196 1.198-.562L153 267.12v5.87l3 .009v-11h-11z" fill="#474341"/><path d="M206 252v5h9l-9.134 8.953c-.537.414-.815 1.105-.826 1.797H205V270h2.25v-.022c.692-.007 1.383-.294 1.797-.844 3.901-3.901 5.052-5.233 8.953-9.134v9h5v-17h-17z" fill="#474341"/><path d="M280 241v6h11.758l-12.604 12.604c-.715.553-1.087 1.473-1.102 2.397H278v3h3v-.03c.922-.01 1.843-.392 2.396-1.125L296 251.242v11.74l6 .018v-22h-22z" fill="#474341"/><path d="M55 272v2h3.586l-4.201 4.201c-.239.185-.362.491-.367.799H54v1h1v-.01c.308-.003.614-.13.799-.375l4.2-4.201V279l2 .006L62 272h-7z" fill="#474341"/><path d="M18.5 278v1h1.793l-2.1 2.1a.513.513 0 0 0-.184.4H18v.5h.5v-.005a.503.503 0 0 0 .4-.187l2.1-2.101v1.793l1 .003V278h-3.5z" fill="#474341"/></g></svg>