<svg version="1.0" viewBox="0 0 16 16" xmlns="http://www.w3.org/2000/svg"><g transform="translate(-50 -268)"><rect transform="matrix(0 -1 -1 0 0 0)" x="-284" y="-66" width="16" height="16" rx="8" ry="8" fill="#faa41a"/><rect x="50.5" y="268.5" width="15" height="15" ry="7.5" fill="none" stroke="#000" stroke-linecap="square" stroke-opacity=".502"/><path d="M58.001 273c-1.108 0-2 .91-2 2.031V276c-.554 0-1 .446-1 1v1.999c0 .554.446 1 1 1h3.997c.554 0 1-.446 1-1V277a.998.998 0 0 0-.997-1v-.969c0-1.12-.892-2.031-2-2.031zm0 1c.554 0 1 .446 1 1v1h-2v-1c0-.554.446-1 1-1z" color="#000" fill="#474341"/></g></svg>