<svg version="1.0" viewBox="0 0 16 16" xmlns="http://www.w3.org/2000/svg"><g transform="translate(-50 -268)"><rect transform="matrix(0 -1 -1 0 0 0)" x="-284" y="-66" width="16" height="16" rx="8" ry="8" fill="#3f51b5"/><rect x="50.5" y="268.5" width="15" height="15" ry="7.5" fill="none" stroke="#000" stroke-linecap="square" stroke-opacity=".502"/><path d="M60 272a1.5 1.5 0 0 0-1.5 1.5c0 .116.022.22.047.328l-1.61 1a1.5 1.5 0 1 0 0 2.344l1.61 1a1.44 1.44 0 0 0-.047.328 1.5 1.5 0 1 0 .563-1.172l-1.61-1A1.44 1.44 0 0 0 57.5 276c0-.116-.022-.22-.047-.328l1.61-1A1.5 1.5 0 1 0 60 272z" fill="#fff"/></g></svg>