<svg version="1.0" viewBox="0 0 16 16" xmlns="http://www.w3.org/2000/svg"><g transform="translate(-50 -268)"><rect transform="matrix(0 -1 -1 0 0 0)" x="-284" y="-66" width="16" height="16" rx="8" ry="8" fill="#73c48f"/><rect x="50.5" y="268.5" width="15" height="15" ry="7.5" fill="none" stroke="#000" stroke-linecap="square" stroke-opacity=".502"/><path d="M64 276h-1.5a4.496 4.496 0 0 0-3.305-4.336c-.023-.007-.046-.017-.07-.023-.191-.05-.386-.07-.586-.094-.175-.02-.358-.047-.539-.047-.462 0-.922.071-1.36.211v.023c-.63.2-1.21.521-1.687.961l.89 1.196c.377-.385.87-.635 1.407-.774v-.023a3.01 3.01 0 0 1 .89-.07c.137.01.263.021.399.046a2.976 2.976 0 0 1 2.46 2.93h-1.5l2.25 3 2.25-3zm-2.953 3.305-.89-1.196c-.377.385-.87.635-1.407.774v.023a3.014 3.014 0 0 1-.89.07 3.514 3.514 0 0 1-.399-.046 2.976 2.976 0 0 1-2.46-2.93h1.5l-2.25-3-2.25 3h1.5a4.496 4.496 0 0 0 3.304 4.336c.024.007.046.017.07.023.191.05.386.07.586.094.175.02.359.047.54.047.461 0 .92-.071 1.359-.211v-.024a4.47 4.47 0 0 0 1.687-.96z" fill="#474341"/></g></svg>