<svg version="1.0" viewBox="0 0 16 16" xmlns="http://www.w3.org/2000/svg"><g transform="translate(-50 -268)"><rect transform="matrix(0 -1 -1 0 0 0)" x="-284" y="-66" width="16" height="16" rx="8" ry="8" fill="#cf3b00"/><rect x="50.5" y="268.5" width="15" height="15" ry="7.5" fill="none" stroke="#000" stroke-linecap="square" stroke-opacity=".502"/><path d="M55 272a1 1 0 0 0-1 1 1 1 0 0 0 .293.707L56.586 276l-2.293 2.293A1 1 0 0 0 54 279a1 1 0 0 0 1 1 1 1 0 0 0 .707-.293L58 277.414l2.283 2.283A1 1 0 0 0 61 280a1 1 0 0 0 1-1 1 1 0 0 0-.293-.707L59.414 276l2.283-2.283A1 1 0 0 0 62 273a1 1 0 0 0-1-1 1 1 0 0 0-.707.293L58 274.586l-2.283-2.283a1 1 0 0 0-.01-.01A1 1 0 0 0 55 272z" fill="#fafafb"/></g></svg>