<svg version="1.0" viewBox="0 0 16 16" xmlns="http://www.w3.org/2000/svg"><g transform="translate(-50 -268)"><rect transform="matrix(0 -1 -1 0 0 0)" x="-284" y="-66" width="16" height="16" rx="8" ry="8" fill="#574f4a"/><rect x="50.5" y="268.5" width="15" height="15" ry="7.5" fill="none" stroke="#000" stroke-linecap="square" stroke-opacity=".502"/><path d="m56.688 270.75-.116 1.383a4.125 4.125 0 0 0-1.205.697l-1.257-.592-1.313 2.274 1.141.792a4.125 4.125 0 0 0-.063.696 4.125 4.125 0 0 0 .06.699l-1.138.79 1.313 2.273 1.254-.59a4.125 4.125 0 0 0 1.208.692l.116 1.386h2.625l.116-1.383a4.125 4.125 0 0 0 1.205-.697l1.257.592 1.313-2.274-1.142-.792a4.125 4.125 0 0 0 .063-.696 4.125 4.125 0 0 0-.06-.699l1.139-.79-1.313-2.273-1.254.59a4.125 4.125 0 0 0-1.208-.692l-.116-1.386zm1.313 3.75a1.5 1.5 0 0 1 1.5 1.5 1.5 1.5 0 0 1-1.5 1.5 1.5 1.5 0 0 1-1.5-1.5 1.5 1.5 0 0 1 1.5-1.5z" fill="#fff"/></g></svg>