<svg version="1.0" viewBox="0 0 16 16" xmlns="http://www.w3.org/2000/svg"><g transform="translate(-50 -268)"><rect transform="matrix(0 -1 -1 0 0 0)" x="-284" y="-66" width="16" height="16" rx="8" ry="8" fill="#3f51b5"/><rect transform="matrix(0 -1 -1 0 0 0)" x="-284" y="-24" width="8" height="8" rx="1" ry="1" fill="#888"/><circle cx="102" cy="272" r="12" fill="#3f51b5"/><rect x="192" y="238" width="44" height="46" ry="22" fill="#3f51b5"/><rect x="135" y="253" width="30" height="31" ry="15" fill="#3f51b5"/><path d="M150 253c-8.31 0-15 6.69-15 15v1c0 8.31 6.69 15 15 15s15-6.69 15-15v-1c0-8.31-6.69-15-15-15zm0 1a14 14 0 0 1 14 14 14 14 0 0 1-14 14 14 14 0 0 1-14-14 14 14 0 0 1 14-14z" fill-opacity=".502"/><rect x="260" y="222" width="60" height="62" ry="30" fill="#3f51b5"/><path d="M290 222c-16.62 0-30 13.38-30 30v2c0 16.62 13.38 30 30 30s30-13.38 30-30v-2c0-16.62-13.38-30-30-30zm0 1a29 29 0 0 1 29 29 29 29 0 0 1-29 29 29 29 0 0 1-29-29 29 29 0 0 1 29-29z" fill-opacity=".502"/><rect x="16.5" y="276.5" width="7" height="7" ry=".5" fill="#3f51b5" stroke="#000" stroke-linecap="square" stroke-opacity=".502"/><rect x="50.5" y="268.5" width="15" height="15" ry="7.5" fill="none" stroke="#000" stroke-linecap="square" stroke-opacity=".502"/><rect x="90.5" y="260.5" width="23" height="23" ry="11.478" fill="none" stroke="#000" stroke-linecap="square" stroke-opacity=".502"/><path d="M214 238c-12.188 0-22 9.812-22 22v2c0 12.188 9.812 22 22 22s22-9.812 22-22v-2c0-12.188-9.812-22-22-22zm0 1a21 21 0 0 1 21 21 21 21 0 0 1-21 21 21 21 0 0 1-21-21 21 21 0 0 1 21-21z" fill-opacity=".502"/><path d="M154 260.5a3 3 0 0 0-3 3c0 .231.044.44.094.656l-3.22 2a3 3 0 1 0 0 4.688l3.22 2c-.05.216-.094.425-.094.656a3 3 0 1 0 1.125-2.344l-3.219-2c.05-.216.094-.425.094-.656s-.044-.44-.094-.656l3.219-2A3 3 0 1 0 154 260.5z" fill="#fff"/><path d="M106 264a3 3 0 0 0-3 3c0 .231.044.44.094.656l-3.219 2a3 3 0 1 0 0 4.688l3.219 2c-.05.216-.094.425-.094.656a3 3 0 1 0 1.125-2.344l-3.219-2c.05-.216.094-.425.094-.656s-.044-.44-.094-.656l3.22-2A3 3 0 1 0 106 264z" fill="#fff"/><path d="M220 249a4.5 4.5 0 0 0-4.5 4.5c0 .347.066.66.14.984l-4.828 3a4.5 4.5 0 1 0 0 7.031l4.829 3c-.075.325-.14.638-.14.985a4.5 4.5 0 1 0 4.5-4.5 4.484 4.484 0 0 0-2.813.984l-4.828-3c.074-.324.14-.637.14-.984s-.066-.66-.14-.984l4.828-3c.77.617 1.749.984 2.812.984a4.5 4.5 0 1 0 0-9z" fill="#fff"/><path d="M298 237a6 6 0 0 0-6 6c0 .463.088.88.187 1.313l-6.437 4A5.978 5.978 0 0 0 282 247a6 6 0 0 0 0 12c1.418 0 2.723-.49 3.75-1.313l6.438 4c-.1.433-.188.85-.188 1.313a6 6 0 1 0 6-6c-1.418 0-2.723.49-3.75 1.313l-6.437-4c.099-.433.187-.85.187-1.313s-.088-.88-.187-1.313l6.437-4A5.978 5.978 0 0 0 298 249a6 6 0 0 0 0-12z" fill="#fff"/><path d="M60 272a1.5 1.5 0 0 0-1.5 1.5c0 .116.022.22.047.328l-1.61 1a1.5 1.5 0 1 0 0 2.344l1.61 1a1.44 1.44 0 0 0-.047.328 1.5 1.5 0 1 0 .563-1.172l-1.61-1A1.44 1.44 0 0 0 57.5 276c0-.116-.022-.22-.047-.328l1.61-1A1.5 1.5 0 1 0 60 272z" fill="#fff"/><path d="M21 278a.75.75 0 0 0-.75.75c0 .058.011.11.023.164l-.804.5a.75.75 0 1 0 0 1.172l.804.5a.72.72 0 0 0-.023.164.75.75 0 1 0 .281-.586l-.804-.5a.72.72 0 0 0 .023-.164.72.72 0 0 0-.023-.164l.804-.5A.75.75 0 1 0 21 278z" fill="#fff"/></g></svg>