<svg version="1.0" viewBox="0 0 16 16" xmlns="http://www.w3.org/2000/svg"><g transform="translate(-50 -268)"><rect transform="matrix(0 -1 -1 0 0 0)" x="-284" y="-66" width="16" height="16" rx="8" ry="8" fill="#cf3b00"/><rect x="50.5" y="268.5" width="15" height="15" ry="7.5" fill="none" stroke="#000" stroke-linecap="square" stroke-opacity=".502"/><path d="M56.391 273c-1.04 0-1.89.838-1.89 1.875 0 .54.227 1.032.593 1.375l2.86 2.75 2.953-2.75c.366-.343.593-.835.593-1.375 0-1.038-.85-1.875-1.89-1.875-.686 0-1.28.36-1.61.906a1.87 1.87 0 0 0-1.609-.906z" fill="#fff"/></g></svg>