<svg version="1.0" viewBox="0 0 16 16" xmlns="http://www.w3.org/2000/svg"><g transform="translate(-50 -268)"><rect transform="matrix(0 -1 -1 0 0 0)" x="-284" y="-66" width="16" height="16" rx="8" ry="8" fill="#ffce51"/><rect x="50.5" y="268.5" width="15" height="15" ry="7.5" fill="none" stroke="#000" stroke-linecap="square" stroke-opacity=".502"/><path d="M55 273c-.554 0-1 .446-1 1v4c0 .554.446 1 1 1h6c.554 0 1-.446 1-1v-4c0-.554-.446-1-1-1zm0 1 3 1.5 3-1.5v1l-3 1.5-3-1.5zm1 1.998.625.32-1.625 1.68v-1zm4 0 1 1v1l-1.625-1.68z" fill="#474341"/></g></svg>