<svg version="1.0" viewBox="0 0 64 64" xmlns="http://www.w3.org/2000/svg"><g transform="translate(-224 4580)"><path d="M237.5-4577a4.49 4.49 0 0 0-4.5 4.5v51a4.49 4.49 0 0 0 4.5 4.5h37a4.49 4.49 0 0 0 4.5-4.5v-39l-16.5-16.5z" fill="#6f6f6f"/><path d="M278-4560v36c0 2.216-1.784 4-4 4h-36c-2.216 0-4-1.784-4-4v-48c0-2.216 1.784-4 4-4h24" fill="#ececec"/><path d="M278-4557h-13c-2.216 0-4-1.784-4-4v-15h1l16 16z" fill="#6f6f6f" fill-opacity=".502"/><path d="M278-4560h-12c-2.216 0-4-1.784-4-4v-12" fill="#fafafa"/><ellipse cx="256" cy="-4537.5" rx="15" ry="7.5" fill="#777bb3"/></g></svg>