<svg version="1.0" viewBox="0 0 64 64" xmlns="http://www.w3.org/2000/svg"><path d="M13.5 3A4.49 4.49 0 0 0 9 7.5v51a4.49 4.49 0 0 0 4.5 4.5h37a4.49 4.49 0 0 0 4.5-4.5v-39L38.5 3z" fill="#671d00"/><path d="M54 20v36c0 2.216-1.784 4-4 4H14c-2.216 0-4-1.784-4-4V8c0-2.216 1.784-4 4-4h24" fill="#cf3b00"/><path d="M54 23H41c-2.216 0-4-1.784-4-4V4h1l16 16z" fill="#671d00" fill-opacity=".502"/><path d="M54 20H42c-2.216 0-4-1.784-4-4V4" fill="#f15d22"/><g fill="#f6f6f6"><path d="M26 44a4 4 0 0 0-4-4h-4v12h2v-4h2a4 4 0 0 0 4-4zm-2 0a2 2 0 0 1-2 2h-2v-4h2a2 2 0 0 1 2 2z"/><path d="M28 40v12h4c2.216 0 4-1.784 4-4v-4c0-2.216-1.784-4-4-4h-2zm2 2h2c1.108 0 2 .892 2 2v4c0 1.108-.892 2-2 2h-2z"/><path d="M38 40v12h2v-5h4v-2h-4v-3h6v-2h-7z"/></g></svg>