<svg version="1.0" viewBox="0 0 64 64" xmlns="http://www.w3.org/2000/svg"><path d="M13.5 3A4.49 4.49 0 0 0 9 7.5v51a4.49 4.49 0 0 0 4.5 4.5h37a4.49 4.49 0 0 0 4.5-4.5v-39L38.5 3z" fill="#6f6f6f"/><path d="M54 20v36c0 2.216-1.784 4-4 4H14c-2.216 0-4-1.784-4-4V8c0-2.216 1.784-4 4-4h24" fill="#ececec"/><path d="M54 23H41c-2.216 0-4-1.784-4-4V4h1l16 16z" fill="#6f6f6f" fill-opacity=".502"/><path d="M54 20H42c-2.216 0-4-1.784-4-4V4" fill="#fafafa"/><path d="M250.5-6949c-.831 0-1.412.674-1.5 1.5v1.5h-2.5c-.831 0-1.5.669-1.5 1.5v12c0 .831.669 1.5 1.5 1.5h2.5v1.5c0 .831.669 1.5 1.5 1.5s1.584-.673 1.5-1.5v-1.5h3v1.5c0 .831.669 1.5 1.5 1.5s1.5-.669 1.5-1.5v-1.5h3v1.5c0 .831.669 1.5 1.5 1.5s1.5-.669 1.5-1.5v-1.5h2.5c.831 0 1.5-.669 1.5-1.5v-12c0-.831-.669-1.5-1.5-1.5H264v-1.5c0-.831-.669-1.5-1.5-1.5s-1.5.669-1.5 1.5v1.5h-3v-1.5c0-.831-.669-1.5-1.5-1.5s-1.5.669-1.5 1.5v1.5h-3v-1.5c0-.831-.669-1.5-1.5-1.5zm-2.5 6h17v1.5a3 3 0 0 0 0 6v1.5h-17z" fill="#474341" fill-opacity=".69" filter="url(#filter1113)" transform="translate(-224 6980)"/></svg>