<svg version="1.0" viewBox="0 0 64 64" xmlns="http://www.w3.org/2000/svg"><path d="M13.5 3A4.49 4.49 0 0 0 9 7.5v51a4.49 4.49 0 0 0 4.5 4.5h37a4.49 4.49 0 0 0 4.5-4.5v-39L38.5 3z" fill="#6f6f6f"/><path d="M54 20v36c0 2.216-1.784 4-4 4H14c-2.216 0-4-1.784-4-4V8c0-2.216 1.784-4 4-4h24" fill="#ececec"/><path d="M54 23H41c-2.216 0-4-1.784-4-4V4h1l16 16z" fill="#6f6f6f" fill-opacity=".502"/><path d="M54 20H42c-2.216 0-4-1.784-4-4V4" fill="#fafafa"/><path d="m28.5 27.5-.309 3.687a11 11 0 0 0-3.214 1.86l-3.352-1.578-3.5 6.062 3.043 2.114A11 11 0 0 0 21 41.5a11 11 0 0 0 .16 1.863l-3.035 2.106 3.5 6.062 3.344-1.574a11 11 0 0 0 3.222 1.848L28.5 55.5h7l.309-3.688a11 11 0 0 0 3.214-1.859l3.352 1.578 3.5-6.062-3.043-2.114A11 11 0 0 0 43 41.5a11 11 0 0 0-.16-1.863l3.035-2.106-3.5-6.062-3.344 1.574a11 11 0 0 0-3.222-1.848L35.5 27.5zm3.5 10a4 4 0 0 1 4 4 4 4 0 0 1-4 4 4 4 0 0 1-4-4 4 4 0 0 1 4-4z" fill="#474341" fill-opacity=".69"/></svg>