<svg version="1.0" viewBox="0 0 64 64" xmlns="http://www.w3.org/2000/svg"><g transform="translate(-224 2480)"><rect x="234" y="-2475" width="44" height="53" ry="3" fill="#425c0b"/><rect x="235" y="-2474" width="42" height="51" ry="2.5" fill="#dedede"/><rect x="234" y="-2476" width="42" height="49" ry="3" fill="#425c0b"/><rect x="235" y="-2475" width="40" height="47" ry="2.5" fill="#85b916"/><path d="M237.5-2475a2.495 2.495 0 0 0-2.5 2.5v47c0 1.385 1.147 2.796 2.5 2.5h.5v-52z" fill="#293907"/><path d="m257-2445.7-6.165-6.165 6.165-6.164 2.055 2.055-4.11 4.109 2.055 2.055 6.164-6.164-5.37-5.37a1.123 1.123 0 0 0-1.588 0l-8.686 8.685a1.124 1.124 0 0 0 0 1.589l8.686 8.685c.439.439 1.15.439 1.588 0l8.686-8.685a1.124 1.124 0 0 0 0-1.589l-1.26-1.26z" fill="#fff"/></g></svg>