<svg version="1.0" viewBox="0 0 64 64" xmlns="http://www.w3.org/2000/svg"><g transform="translate(-224 -220)"><path d="M252.5 226a4.49 4.49 0 0 0-4.5 4.5v3.5h-14c-2.216 0-4 1.784-4 4v17h8.5c.831 0 1.5.669 1.5 1.5 0 1.939-1.561 3.5-3.5 3.5H230v17c0 2.216 1.784 4 4 4h15v-5.5c0-1.939 1.561-3.5 3.5-3.5s3.5 1.561 3.5 3.5v5.5h15c2.216 0 4-1.784 4-4v-14h3.5a4.49 4.49 0 0 0 4.5-4.5v-2a4.49 4.49 0 0 0-4.5-4.5H275v-14c0-2.216-1.784-4-4-4h-14v-3.5a4.49 4.49 0 0 0-4.5-4.5z" fill="#285f3b"/><path d="M234.5 235a3.492 3.492 0 0 0-3.5 3.5V252h5.5c2.493 0 4.5 2.007 4.5 4.5s-2.007 4.5-4.5 4.5H231v13.5c0 1.939 1.561 3.5 3.5 3.5H248v-4.75c0-2.493 2.007-4.5 4.5-4.5s4.5 2.007 4.5 4.5V278h13.5c1.939 0 3.5-1.561 3.5-3.5v-36c0-1.939-1.561-3.5-3.5-3.5z" fill="#73c48f"/><rect x="249" y="227" width="7" height="14" ry="3.5" fill="#73c48f"/><rect x="265" y="253" width="17" height="7" ry="3.5" fill="#73c48f"/></g></svg>