<svg version="1.0" viewBox="0 0 64 64" xmlns="http://www.w3.org/2000/svg"><g transform="translate(-224 -220)"><rect x="234" y="224" width="44" height="59" ry="4" fill="#7b7b7b"/><rect x="235" y="225" width="42" height="54" ry="3.5" fill="#f6f6f6"/><g fill="#393634" fill-opacity=".51"><path d="m241.5 232 .5-1h-3v3h1.5c.373 0 .5 0 .5.5 0 .6 0 1.5-.5 1.5-1 0-1.5-.5-1.5-.5v1s.5.5 1.5.5c1.5 0 1.5-1.528 1.5-2.5 0-1 0-1.5-1.5-1.5h-.5v-1z"/><path d="M245 231a2 3 0 0 0-2 3 2 3 0 0 0 2 3 2 3 0 0 0 2-3 2 3 0 0 0-2-3zm0 1a1 2 0 0 1 1 2 1 2 0 0 1-1 2 1 2 0 0 1-1-2 1 2 0 0 1 1-2z"/><path d="M253.5 231c-1.5 0-1.5 0-1.5 3s0 3 1.5 3 1.5 0 1.5-2 0-2-1.5-2h-.5c0-.5 0-1 .5-1h1l.5-1zm0 3c.276 0 .5.448.5 1s-.224 1-.5 1-.5-.448-.5-1v-1h.5z"/><path d="m259 231-.5 1H257v1h1v1h-1v3h-1v-6z"/><path d="M265 231h3v1l-2 5-1-.5 2-4.5h-2z"/><path d="M240 243c0 4 0 4 1 4v-2h1v4h-1v-1c-2 0-2 0-2-5z"/><path d="M244.5 249c1.5 0 1.5 0 1.5-3s0-3-1.5-3-1.5 0-1.5 2 0 2 1.5 2h.5c0 .5 0 1-.5 1h-1l-.5 1zm0-3c-.276 0-.5-.448-.5-1s.224-1 .5-1 .5.448.5 1v1h-.5z"/><path d="M253.5 243c-1.5 0-1.5 0-1.5 3s0 3 1.5 3 1.5 0 1.5-2 0-2-1.5-2h-.5c0-.5 0-1 .5-1h1l.5-1zm0 3c.276 0 .5.448.5 1s-.224 1-.5 1-.5-.448-.5-1v-1h.5z"/><path d="M271 231a2 3 0 0 0-2 3 2 3 0 0 0 2 3 2 3 0 0 0 2-3 2 3 0 0 0-2-3zm0 1a1 2 0 0 1 1 2 1 2 0 0 1-1 2 1 2 0 0 1-1-2 1 2 0 0 1 1-2z"/><path d="M256 249v-1h2v-1h-1v-1h1v-2h-1.5l-.5-1h3v6z"/><path d="m272 243-.5 1H270v1h1v1h-1v3h-1v-6z"/><path d="M266.5 243c-1.5 0-1.5 0-1.5 3s0 3 1.5 3 1.5 0 1.5-2 0-2-1.5-2h-.5c0-.5 0-1 .5-1h1l.5-1zm0 3c.276 0 .5.448.5 1s-.224 1-.5 1-.5-.448-.5-1v-1h.5z"/><path d="M240.5 255c-1.5 0-1.5 0-1.5 3s0 3 1.5 3 1.5 0 1.5-2 0-2-1.5-2h-.5c0-.5 0-1 .5-1h1l.5-1zm0 3c.276 0 .5.448.5 1s-.224 1-.5 1-.5-.448-.5-1v-1h.5z"/><path d="m246 255-.5 1H244v1h1v1h-1v2h1.5l.5 1h-3v-6z"/><path d="M256 261v-1h2v-1h-1v-1h1v-2h-1.5l-.5-1h3v6z"/><path d="m268 260-.5 1H265v-3h1.5c.373 0 .5 0 .5-.5 0-.6 0-1.5-.5-1.5-1 0-1.5.5-1.5.5v-1s.5-.5 1.5-.5c1.5 0 1.5 1.528 1.5 2.5 0 1 0 1.5-1.5 1.5h-.5v1z"/><path d="M252 255h3v1l-2 5-1-.5 2-4.5h-2z"/><path d="M271 255a2 3 0 0 0-2 3 2 3 0 0 0 2 3 2 3 0 0 0 2-3 2 3 0 0 0-2-3zm0 1a1 2 0 0 1 1 2 1 2 0 0 1-1 2 1 2 0 0 1-1-2 1 2 0 0 1 1-2z"/><path d="M240 267c0 4 0 4 1 4v-2h1v4h-1v-1c-2 0-2 0-2-5z"/><path d="M244.5 273c1.5 0 1.5 0 1.5-3s0-3-1.5-3-1.5 0-1.5 2 0 2 1.5 2h.5c0 .5 0 1-.5 1h-1l-.5 1zm0-3c-.276 0-.5-.448-.5-1s.224-1 .5-1 .5.448.5 1v1h-.5z"/><path d="M253.5 267c-1.5 0-1.5 0-1.5 3s0 3 1.5 3 1.5 0 1.5-2 0-2-1.5-2h-.5c0-.5 0-1 .5-1h1l.5-1zm0 3c.276 0 .5.448.5 1s-.224 1-.5 1-.5-.448-.5-1v-1h.5z"/><path d="M266.5 267c-1.5 0-1.5 0-1.5 3s0 3 1.5 3 1.5 0 1.5-2 0-2-1.5-2h-.5c0-.5 0-1 .5-1h1l.5-1zm0 3c.276 0 .5.448.5 1s-.224 1-.5 1-.5-.448-.5-1v-1h.5z"/><path d="m272 267-.5 1H270v1h1v1h-1v2h1.5l.5 1h-3v-6z"/><path d="m257 267-.5 1h.5v4h-1v1h3v-1h-1v-5z"/></g></g></svg>