<svg version="1.0" viewBox="0 0 64 64" xmlns="http://www.w3.org/2000/svg"><path d="M13.5 3A4.49 4.49 0 0 0 9 7.5v51a4.49 4.49 0 0 0 4.5 4.5h37a4.49 4.49 0 0 0 4.5-4.5v-39L38.5 3z" fill="#396247"/><path d="M54 20v36c0 2.216-1.784 4-4 4H14c-2.216 0-4-1.784-4-4V8c0-2.216 1.784-4 4-4h24" fill="#73c48f"/><path d="M54 23H41c-2.216 0-4-1.784-4-4V4h1l16 16z" fill="#396247" fill-opacity=".502"/><path d="M54 20H42c-2.216 0-4-1.784-4-4V4" fill="#8adba6"/><g fill="#f6f6f6"><path d="m116-1532.6-7 1v10.75l7 4.25 7-4.25v-10.75zm0 2 5 .75v8l-5 3-5-3v-8z" color="#000" style="font-feature-settings:normal;font-variant-alternates:normal;font-variant-caps:normal;font-variant-ligatures:normal;font-variant-numeric:normal;font-variant-position:normal;isolation:auto;mix-blend-mode:normal;shape-padding:0;text-decoration-color:#000;text-decoration-line:none;text-decoration-style:solid;text-indent:0;text-orientation:mixed;text-transform:none;white-space:normal" transform="matrix(2 0 0 2 -200 3091.2)"/><path d="m32 32-8 1.5v12l8 5 8-5v-12z"/></g></svg>