<svg version="1.0" viewBox="0 0 64 64" xmlns="http://www.w3.org/2000/svg"><g transform="translate(-224 -220)"><rect x="228" y="234" width="56" height="44" ry="4.5" fill="#ffcc85"/><rect x="228" y="234" width="14" height="44" ry="4.5" fill="#faa41a"/><path d="M261 245a3 3 0 0 0-3 3v9.281a4.39 4.39 0 0 0-1.5-.281 4.5 4.5 0 1 0 4.5 4.5V251h9v6.281a4.39 4.39 0 0 0-1.5-.281 4.5 4.5 0 1 0 4.5 4.5V248a3 3 0 0 0-3-3z" fill-opacity=".196"/><path d="M261 244a3 3 0 0 0-3 3v9.281a4.39 4.39 0 0 0-1.5-.281 4.5 4.5 0 1 0 4.5 4.5V250h9v6.281a4.39 4.39 0 0 0-1.5-.281 4.5 4.5 0 1 0 4.5 4.5V247a3 3 0 0 0-3-3z" fill="#fff"/><path fill="#faa41a" d="M237 234h5v44h-5z"/><path d="M232.5 234a4.49 4.49 0 0 0-4.5 4.5v35a4.49 4.49 0 0 0 4.5 4.5h47a4.49 4.49 0 0 0 4.5-4.5v-35a4.49 4.49 0 0 0-4.5-4.5zm.5 1h46c2.216 0 4 1.784 4 4v32c0 2.216-1.784 4-4 4h-46c-2.216 0-4-1.784-4-4v-32c0-2.216 1.784-4 4-4z" fill-opacity=".502"/></g></svg>