<svg version="1.0" viewBox="0 0 64 64" xmlns="http://www.w3.org/2000/svg"><path d="M13.5 3A4.49 4.49 0 0 0 9 7.5v51a4.49 4.49 0 0 0 4.5 4.5h37a4.49 4.49 0 0 0 4.5-4.5v-39L38.5 3z" fill="#6f6f6f"/><path d="M54 20v36c0 2.216-1.784 4-4 4H14c-2.216 0-4-1.784-4-4V8c0-2.216 1.784-4 4-4h24" fill="#ececec"/><path d="M54 23H41c-2.216 0-4-1.784-4-4V4h1l16 16z" fill="#6f6f6f" fill-opacity=".502"/><path d="M54 20H42c-2.216 0-4-1.784-4-4V4" fill="#fafafa"/><path d="M21 50h2l8-20h2l8 20h2v2h-7v-2h2l-1.43-4h-9.11L26 50h2v2h-7zm7-6h8l-3.992-10.422z"/><path d="M20 51.5h-2.5v-21H20" fill="none" stroke="#000" stroke-opacity=".251"/><path d="M42.5 53v2.5h-21V53" fill="none" stroke="#000" stroke-opacity=".251"/></svg>