<svg version="1.0" viewBox="0 0 64 64" xmlns="http://www.w3.org/2000/svg"><g transform="translate(-224 -220)"><rect x="228" y="234" width="56" height="44" ry="4" fill="#245c63"/><rect x="229" y="235" width="54" height="40" ry="3.5" fill="#48b9c7"/><rect x="234" y="240" width="44" height="30" ry="2" fill="#f6f6f6"/><path d="M242 249v16h28v-16zm14 2a6 6 0 0 1 6 6 6 6 0 0 1-6 6 6 6 0 0 1-6-6 6 6 0 0 1 6-6z" fill="#1c8d9b" fill-opacity=".502"/><path d="m254 243-4 4h-6c-1.108 0-2 .892-2 2h28c0-1.108-.892-2-2-2h-6l-4-4zm-12 22c0 1.108.892 2 2 2h24c1.108 0 2-.892 2-2z" fill="#1c8d9b"/></g><style>.st0{fill:#261300}.st1{fill:#ff7c00}</style></svg>