<svg version="1.0" viewBox="0 0 64 64" xmlns="http://www.w3.org/2000/svg"><path d="M13.5 3A4.49 4.49 0 0 0 9 7.5v51a4.49 4.49 0 0 0 4.5 4.5h37a4.49 4.49 0 0 0 4.5-4.5v-39L38.5 3z" fill="#6f6f6f"/><path d="M54 20v36c0 2.216-1.784 4-4 4H14c-2.216 0-4-1.784-4-4V8c0-2.216 1.784-4 4-4h24" fill="#ececec"/><path d="M54 23H41c-2.216 0-4-1.784-4-4V4h1l16 16z" fill="#6f6f6f" fill-opacity=".502"/><path d="M54 20H42c-2.216 0-4-1.784-4-4V4" fill="#fafafa"/><path d="M10 32v4a24 24 0 0 1 24 24h4a28 28 0 0 0-28-28zm0 8v4a16 16 0 0 1 16 16h4a20 20 0 0 0-20-20zm0 8v4a8 8 0 0 1 8 8h4a12 12 0 0 0-12-12zm0 8c0 2.216 1.784 4 4 4a4 4 0 0 0-4-4z" fill="#b0b0b0"/></svg>