<svg version="1.0" viewBox="0 0 64 64" xmlns="http://www.w3.org/2000/svg"><path d="M13.5 3A4.49 4.49 0 0 0 9 7.5v51a4.49 4.49 0 0 0 4.5 4.5h37a4.49 4.49 0 0 0 4.5-4.5v-39L38.5 3z" fill="#6f6f6f"/><path d="M54 20v36c0 2.216-1.784 4-4 4H14c-2.216 0-4-1.784-4-4V8c0-2.216 1.784-4 4-4h24" fill="#ececec"/><path d="M54 23H41c-2.216 0-4-1.784-4-4V4h1l16 16z" fill="#6f6f6f" fill-opacity=".502"/><path d="M54 20H42c-2.216 0-4-1.784-4-4V4" fill="#fafafa"/><path d="m256-5748-.688.323-9.428 4.523-.884.415v13.662l.884.416 9.428 4.338.688.323.687-.323 9.43-4.43.883-.416v-13.661l-.884-.415-9.429-4.431zm0 3.323 8 3.677v10l-8 3.677v-9.97l-.688-.322L248-5741z" color="#000" fill="#888" style="text-decoration-line:none;text-indent:0;text-transform:none" transform="translate(-224 5780)"/><path d="m32 42.7 8-3.708v10l-8 3.677z" fill="#888" opacity=".5"/><path d="m256-5748-.688.323-9.428 4.523-.884.415v13.662l.884.416 9.428 4.338.688.323.687-.323 9.43-4.43.883-.416v-13.661l-.884-.415-9.429-4.431zm0 3.323 8 3.677v10l-8 3.677v-9.97l-.688-.322L248-5741z" color="#000" fill="#888" style="text-decoration-line:none;text-indent:0;text-transform:none" transform="translate(-224 5780)"/></svg>