<svg version="1.0" viewBox="0 0 64 64" xmlns="http://www.w3.org/2000/svg"><g transform="translate(-224 3380)"><rect x="230" y="-3374" width="54" height="52" ry="4" fill="#a19282"/><rect x="231" y="-3373" width="52" height="35" ry="3.5" fill="#d7c3ad"/><path d="M245-3329.5h24m10-8-10 8 10 6m-44-14 10 8-10 6" fill="none" stroke="#000" stroke-opacity=".251"/><g fill="#635749"><path d="M252-3350h2v-4h4v4h2v-8a4 4 0 0 0-4-4 4 4 0 0 0-4 4zm2-6v-2a2 2 0 0 1 2-2 2 2 0 0 1 2 2v2z"/><path d="M262-3350h2v-4h2l2 4h2l-1.852-4.629A4 4 0 0 0 270-3358a4 4 0 0 0-4-4h-4v4zm2-6v-4h2a2 2 0 0 1 2 2 2 2 0 0 1-2 2z"/><path d="M245-3362v2h2v10h2v-10h2v-2z"/></g></g></svg>