<svg version="1.0" viewBox="0 0 64 64" xmlns="http://www.w3.org/2000/svg"><g transform="translate(-224 1880)"><rect x="230" y="-1874" width="54" height="52" ry="4" fill="#a19282"/><rect x="231" y="-1873" width="52" height="35" ry="3.5" fill="#d7c3ad"/><path d="M245-1829.5h24m10-8-10 8 10 6m-44-14 10 8-10 6" fill="none" stroke="#000" stroke-opacity=".251"/><g fill="#635749"><path d="M260-1858a4 4 0 0 0-4-4h-4v12h2v-4h2a4 4 0 0 0 4-4zm-2 0a2 2 0 0 1-2 2h-2v-4h2a2 2 0 0 1 2 2z"/><path d="M242-1850h2v-4h2l2 4h2l-1.852-4.629A4 4 0 0 0 250-1858a4 4 0 0 0-4-4h-4v4zm2-6v-4h2a2 2 0 0 1 2 2 2 2 0 0 1-2 2z"/><path d="M262-1850v-12h2l3 8 3-8h2v12h-2v-7l-2 7h-2l-2-7v7z"/></g></g></svg>