<svg version="1.0" viewBox="0 0 64 64" xmlns="http://www.w3.org/2000/svg"><defs><linearGradient id="a" x1="60" x2="68" y1="268" y2="268" gradientTransform="matrix(.5 0 0 .5 212 -5897)" gradientUnits="userSpaceOnUse"><stop stop-color="#949390" offset="0"/><stop stop-color="#d5d3cf" offset=".083"/><stop stop-color="#949390" offset=".167"/><stop stop-color="#949390" offset=".833"/><stop stop-color="#d5d3cf" offset=".917"/><stop stop-color="#949390" offset="1"/></linearGradient></defs><g transform="translate(-224 2780)"><rect x="230" y="-2774" width="54" height="52" ry="4" fill="#a19282"/><rect x="231" y="-2773" width="52" height="35" ry="3.5" fill="#d7c3ad"/><path d="M245-2729.5h24m10-8-10 8 10 6m-44-14 10 8-10 6" fill="none" stroke="#000" stroke-opacity=".251"/><g transform="translate(0 3000)"><path fill-opacity=".251" d="M242-5773h2v35h-2z"/><path fill="#fff" fill-opacity=".251" d="M244-5773h2v35h-2z"/><rect x="242" y="-5773" width="2" height="2" ry="0" fill-opacity=".502"/><path fill-opacity=".502" d="M242-5769h2v2h-2z"/><path fill-opacity=".502" d="M242-5765h2v2h-2z"/><path fill-opacity=".502" d="M242-5761h2v2h-2z"/><path fill-opacity=".502" d="M242-5757h2v2h-2z"/><path fill-opacity=".502" d="M242-5753h2v2h-2z"/><path fill-opacity=".502" d="M242-5749h2v2h-2z"/><rect x="242" y="-5771" width="2" height="2" ry="0" fill="#fdfdfd" fill-opacity=".502"/><path fill="#fdfdfd" fill-opacity=".502" d="M242-5767h2v2h-2z"/><path fill="#fdfdfd" fill-opacity=".502" d="M242-5763h2v2h-2z"/><path fill="#fdfdfd" fill-opacity=".502" d="M242-5759h2v2h-2z"/><path fill="#fdfdfd" fill-opacity=".502" d="M242-5755h2v2h-2z"/><path fill="#fdfdfd" fill-opacity=".502" d="M242-5751h2v2h-2z"/><rect x="244" y="-5773" width="2" height="2" ry="0" fill="#f4f4f4" fill-opacity=".502"/><path fill="#f4f4f4" fill-opacity=".502" d="M244-5769h2v2h-2z"/><path fill="#f4f4f4" fill-opacity=".502" d="M244-5765h2v2h-2z"/><path fill="#f4f4f4" fill-opacity=".502" d="M244-5761h2v2h-2z"/><path fill="#f4f4f4" fill-opacity=".502" d="M244-5757h2v2h-2z"/><path fill="#f4f4f4" fill-opacity=".502" d="M244-5753h2v2h-2z"/><path fill="#f4f4f4" fill-opacity=".502" d="M244-5749h2v2h-2z"/><rect x="244" y="-5771" width="2" height="2" ry="0" fill="#131313" fill-opacity=".502"/><path fill="#131313" fill-opacity=".502" d="M244-5767h2v2h-2z"/><path fill="#131313" fill-opacity=".502" d="M244-5763h2v2h-2z"/><path fill="#131313" fill-opacity=".502" d="M244-5759h2v2h-2z"/><path fill="#131313" fill-opacity=".502" d="M244-5755h2v2h-2z"/><path fill="#131313" fill-opacity=".502" d="M244-5751h2v2h-2z"/><rect x="242" y="-5745" width="2" height="2" ry="0" fill-opacity=".502"/><path fill-opacity=".502" d="M242-5741h2v2h-2z"/><rect x="242" y="-5747" width="2" height="2" ry="0" fill="#fdfdfd" fill-opacity=".502"/><path fill="#fdfdfd" fill-opacity=".502" d="M242-5743h2v2h-2z"/><path fill="#fdfdfd" fill-opacity=".502" d="M242-5739h2v1h-2z"/><rect x="244" y="-5745" width="2" height="2" ry="0" fill="#f4f4f4" fill-opacity=".502"/><path fill="#f4f4f4" fill-opacity=".502" d="M244-5741h2v2h-2z"/><rect x="244" y="-5747" width="2" height="2" ry="0" fill="#131313" fill-opacity=".502"/><path fill="#131313" fill-opacity=".502" d="M244-5743h2v2h-2z"/><path fill="#131313" fill-opacity=".502" d="M244-5739h2v1h-2z"/><path d="M243-5768c-.554 0-1 .446-1 1v8c0 .554.446 1 1 1h2c.554 0 1-.446 1-1v-8c0-.554-.446-1-1-1zm0 7h2v2h-2z" fill="url(#a)"/><rect x="240" y="-5772" width="8" height="9" rx="2" ry="2" fill="#3d3846"/><rect x="240" y="-5773" width="8" height="9" rx="2" ry="2" fill="#5e5c64"/><path d="M243-5770c-.554 0-1 .446-1 1v9c0 .554.446 1 1 1h2c.554 0 1-.446 1-1v-9c0-.554-.446-1-1-1zm0 8h2v2h-2z" fill="#fff"/><rect transform="scale(1 -1)" x="243" y="5767" width="2" height="5" rx="1" ry="1" fill="#68676b" style="paint-order:normal"/><rect transform="scale(1 -1)" x="243" y="5768" width="2" height="4" rx="1" ry="1" fill="#949390" style="paint-order:normal"/></g><g fill="#635749"><path d="M260-2749h2v-4h4v4h2v-8a4 4 0 0 0-4-4 4 4 0 0 0-4 4zm2-6v-2a2 2 0 0 1 2-2 2 2 0 0 1 2 2v2z"/><path d="M269-2749h2v-4h2l2 4h2l-1.852-4.629A4 4 0 0 0 277-2757a4 4 0 0 0-4-4h-4v4zm2-6v-4h2a2 2 0 0 1 2 2 2 2 0 0 1-2 2z"/><path d="m259-2761-6 12h-2l6-12z"/><path d="m251-2761 6 12h2l-6-12z"/></g></g></svg>