<svg version="1.0" viewBox="0 0 64 64" xmlns="http://www.w3.org/2000/svg"><g transform="translate(-224 2180)"><rect x="230" y="-2174" width="54" height="52" ry="4" fill="#a19282"/><rect x="231" y="-2173" width="52" height="35" ry="3.5" fill="#d7c3ad"/><path d="M245-2129.5h24m10-8-10 8 10 6m-44-14 10 8-10 6" fill="none" stroke="#000" stroke-opacity=".251"/><g fill="#635749"><path d="M243-2150h2v-4h4v4h2v-8a4 4 0 0 0-4-4 4 4 0 0 0-4 4zm2-6v-2a2 2 0 0 1 2-2 2 2 0 0 1 2 2v2z"/><path d="M261-2158a4 4 0 0 0-4-4h-4v12h2v-4h2a4 4 0 0 0 4-4zm-2 0a2 2 0 0 1-2 2h-2v-4h2a2 2 0 0 1 2 2z"/><path d="M263-2162v12h2v-6l.164-.164L269-2150h2l-4.61-7.39L271-2162h-2.219l-3.781 3.781V-2162z"/></g></g></svg>