<svg version="1.0" viewBox="0 0 64 64" xmlns="http://www.w3.org/2000/svg"><defs><linearGradient id="a" x1="60" x2="68" y1="268" y2="268" gradientTransform="matrix(.5 0 0 .5 212 -6197)" gradientUnits="userSpaceOnUse"><stop stop-color="#949390" offset="0"/><stop stop-color="#d5d3cf" offset=".083"/><stop stop-color="#949390" offset=".167"/><stop stop-color="#949390" offset=".833"/><stop stop-color="#d5d3cf" offset=".917"/><stop stop-color="#949390" offset="1"/></linearGradient></defs><g transform="translate(-224 3080)"><rect x="230" y="-3074" width="54" height="52" ry="4" fill="#a19282"/><rect x="231" y="-3073" width="52" height="35" ry="3.5" fill="#d7c3ad"/><path d="M245-3029.5h24m10-8-10 8 10 6m-44-14 10 8-10 6" fill="none" stroke="#000" stroke-opacity=".251"/><g transform="translate(0 3000)"><path fill-opacity=".251" d="M242-6073h2v35h-2z"/><path fill="#fff" fill-opacity=".251" d="M244-6073h2v35h-2z"/><rect x="242" y="-6073" width="2" height="2" ry="0" fill-opacity=".502"/><path fill-opacity=".502" d="M242-6069h2v2h-2z"/><path fill-opacity=".502" d="M242-6065h2v2h-2z"/><path fill-opacity=".502" d="M242-6061h2v2h-2z"/><path fill-opacity=".502" d="M242-6057h2v2h-2z"/><path fill-opacity=".502" d="M242-6053h2v2h-2z"/><path fill-opacity=".502" d="M242-6049h2v2h-2z"/><rect x="242" y="-6071" width="2" height="2" ry="0" fill="#fdfdfd" fill-opacity=".502"/><path fill="#fdfdfd" fill-opacity=".502" d="M242-6067h2v2h-2z"/><path fill="#fdfdfd" fill-opacity=".502" d="M242-6063h2v2h-2z"/><path fill="#fdfdfd" fill-opacity=".502" d="M242-6059h2v2h-2z"/><path fill="#fdfdfd" fill-opacity=".502" d="M242-6055h2v2h-2z"/><path fill="#fdfdfd" fill-opacity=".502" d="M242-6051h2v2h-2z"/><rect x="244" y="-6073" width="2" height="2" ry="0" fill="#f4f4f4" fill-opacity=".502"/><path fill="#f4f4f4" fill-opacity=".502" d="M244-6069h2v2h-2z"/><path fill="#f4f4f4" fill-opacity=".502" d="M244-6065h2v2h-2z"/><path fill="#f4f4f4" fill-opacity=".502" d="M244-6061h2v2h-2z"/><path fill="#f4f4f4" fill-opacity=".502" d="M244-6057h2v2h-2z"/><path fill="#f4f4f4" fill-opacity=".502" d="M244-6053h2v2h-2z"/><path fill="#f4f4f4" fill-opacity=".502" d="M244-6049h2v2h-2z"/><rect x="244" y="-6071" width="2" height="2" ry="0" fill="#131313" fill-opacity=".502"/><path fill="#131313" fill-opacity=".502" d="M244-6067h2v2h-2z"/><path fill="#131313" fill-opacity=".502" d="M244-6063h2v2h-2z"/><path fill="#131313" fill-opacity=".502" d="M244-6059h2v2h-2z"/><path fill="#131313" fill-opacity=".502" d="M244-6055h2v2h-2z"/><path fill="#131313" fill-opacity=".502" d="M244-6051h2v2h-2z"/><rect x="242" y="-6045" width="2" height="2" ry="0" fill-opacity=".502"/><path fill-opacity=".502" d="M242-6041h2v2h-2z"/><rect x="242" y="-6047" width="2" height="2" ry="0" fill="#fdfdfd" fill-opacity=".502"/><path fill="#fdfdfd" fill-opacity=".502" d="M242-6043h2v2h-2z"/><path fill="#fdfdfd" fill-opacity=".502" d="M242-6039h2v1h-2z"/><rect x="244" y="-6045" width="2" height="2" ry="0" fill="#f4f4f4" fill-opacity=".502"/><path fill="#f4f4f4" fill-opacity=".502" d="M244-6041h2v2h-2z"/><rect x="244" y="-6047" width="2" height="2" ry="0" fill="#131313" fill-opacity=".502"/><path fill="#131313" fill-opacity=".502" d="M244-6043h2v2h-2z"/><path fill="#131313" fill-opacity=".502" d="M244-6039h2v1h-2z"/><path d="M243-6068c-.554 0-1 .446-1 1v8c0 .554.446 1 1 1h2c.554 0 1-.446 1-1v-8c0-.554-.446-1-1-1zm0 7h2v2h-2z" fill="url(#a)"/><rect x="240" y="-6072" width="8" height="9" rx="2" ry="2" fill="#3d3846"/><rect x="240" y="-6073" width="8" height="9" rx="2" ry="2" fill="#5e5c64"/><path d="M243-6070c-.554 0-1 .446-1 1v9c0 .554.446 1 1 1h2c.554 0 1-.446 1-1v-9c0-.554-.446-1-1-1zm0 8h2v2h-2z" fill="#fff"/><rect transform="scale(1 -1)" x="243" y="6067" width="2" height="5" rx="1" ry="1" fill="#68676b" style="paint-order:normal"/><rect transform="scale(1 -1)" x="243" y="6068" width="2" height="4" rx="1" ry="1" fill="#949390" style="paint-order:normal"/></g><g fill="#635749"><path d="m263-3062-6 12h-2l6-12z"/><path d="m255-3062 6 12h2l-6-12z"/><path d="M265-3060h6l-6 8v2h8v-2h-6l6-8v-2h-8z"/></g></g></svg>