<svg version="1.0" viewBox="0 0 64 64" xmlns="http://www.w3.org/2000/svg"><path d="M13.5 3A4.49 4.49 0 0 0 9 7.5v51a4.49 4.49 0 0 0 4.5 4.5h37a4.49 4.49 0 0 0 4.5-4.5v-39L38.5 3z" fill="#6f6f6f"/><path d="M54 20v36c0 2.216-1.784 4-4 4H14c-2.216 0-4-1.784-4-4V8c0-2.216 1.784-4 4-4h24" fill="#ececec"/><path d="M54 23H41c-2.216 0-4-1.784-4-4V4h1l16 16z" fill="#6f6f6f" fill-opacity=".502"/><path d="M54 20H42c-2.216 0-4-1.784-4-4V4" fill="#fafafa"/><path d="M24 8a2 2 0 0 0-2 2v6.188A2.925 2.925 0 0 0 21 16a3 3 0 1 0 3 3v-7h6v4.188A2.925 2.925 0 0 0 29 16a3 3 0 1 0 3 3v-9a2 2 0 0 0-2-2z" fill="#474341" fill-opacity=".69"/><path fill="#474341" fill-opacity=".69" d="M25 32h22v4H25z"/><path fill="#474341" fill-opacity=".69" d="M25 40h22v4H25z"/><path fill="#474341" fill-opacity=".69" d="M25 48h22v4H25z"/><path fill="#474341" fill-opacity=".69" d="M17 32h4v4h-4z"/><path fill="#474341" fill-opacity=".69" d="M17 40h4v4h-4z"/><path fill="#474341" fill-opacity=".69" d="M17 48h4v4h-4z"/></svg>