<svg version="1.0" viewBox="0 0 64 64" xmlns="http://www.w3.org/2000/svg" xmlns:xlink="http://www.w3.org/1999/xlink"><defs><linearGradient id="b" x1="500" x2="-.097" y1="579.11" y2="1079.2" gradientTransform="translate(.097 -578.99) scale(.9998)" gradientUnits="userSpaceOnUse" xlink:href="#a"/><linearGradient id="a" x1="500" x2="-.097" y1="579.11" y2="1079.2" gradientTransform="translate(.097 -578.99) scale(.9998)" gradientUnits="userSpaceOnUse"><stop stop-color="#E44857" offset=".003"/><stop stop-color="#C711E1" offset=".469"/><stop stop-color="#7F52FF" offset="1"/></linearGradient></defs><path d="M13.5 3A4.49 4.49 0 0 0 9 7.5v51a4.49 4.49 0 0 0 4.5 4.5h37a4.49 4.49 0 0 0 4.5-4.5v-39L38.5 3z" fill="#6f6f6f"/><path d="M54 20v36c0 2.216-1.784 4-4 4H14c-2.216 0-4-1.784-4-4V8c0-2.216 1.784-4 4-4h24" fill="#ececec"/><path d="M54 23H41c-2.216 0-4-1.784-4-4V4h1l16 16z" fill="#6f6f6f" fill-opacity=".502"/><path d="M54 20H42c-2.216 0-4-1.784-4-4V4" fill="#fafafa"/><path transform="matrix(.042 0 0 .042 22 31)" fill="url(#b)" style="fill:url(#a)" d="M0 500V0h500L250 250l250 250z"/></svg>