<svg version="1.0" viewBox="0 0 64 64" xmlns="http://www.w3.org/2000/svg"><path d="M13.5 3A4.49 4.49 0 0 0 9 7.5v51a4.49 4.49 0 0 0 4.5 4.5h37a4.49 4.49 0 0 0 4.5-4.5v-39L38.5 3z" fill="#6f6f6f"/><path d="M54 20v36c0 2.216-1.784 4-4 4H14c-2.216 0-4-1.784-4-4V8c0-2.216 1.784-4 4-4h24" fill="#ececec"/><path d="M54 23H41c-2.216 0-4-1.784-4-4V4h1l16 16z" fill="#6f6f6f" fill-opacity=".502"/><path d="M54 20H42c-2.216 0-4-1.784-4-4V4" fill="#fafafa"/><g clip-rule="evenodd" fill="#dd4f37" fill-rule="evenodd"><path d="M27.8 49.75s-1.221.71.872.95c2.536.29 3.831.249 6.625-.28 0 0 .736.46 1.762.86-6.265 2.684-14.179-.156-9.258-1.53z"/><path d="M27.035 46.246s-1.371 1.015.723 1.232c2.71.28 4.848.302 8.55-.41 0 0 .512.519 1.316.802-7.573 2.216-16.008.175-10.59-1.624z"/><path d="M33.488 40.302c1.544 1.778-.405 3.377-.405 3.377s3.92-2.023 2.12-4.558c-1.682-2.362-2.971-3.536 4.008-7.583 0 0-10.955 2.735-5.723 8.764z"/><path d="M41.774 52.34s.904.747-.997 1.323c-3.615 1.095-15.05 1.426-18.226.044-1.14-.497 1-1.185 1.673-1.331.702-.152 1.103-.124 1.103-.124-1.27-.894-8.207 1.756-3.523 2.516 12.772 2.07 23.282-.933 19.97-2.427z"/><path d="M28.389 42.616s-5.816 1.382-2.06 1.884c1.587.212 4.748.163 7.694-.084 2.407-.202 4.823-.634 4.823-.634s-.848.364-1.462.783c-5.907 1.553-17.316.83-14.031-.758 2.777-1.344 5.036-1.191 5.036-1.191z"/><path d="M38.822 48.447c6.004-3.12 3.228-6.117 1.29-5.713-.474.099-.686.184-.686.184s.176-.276.512-.395c3.834-1.347 6.782 3.974-1.236 6.082 0 0 .092-.084.12-.158z"/><path d="M35.203 25.002s3.324 3.326-3.154 8.44c-5.196 4.103-1.185 6.442-.002 9.116-3.033-2.736-5.258-5.145-3.766-7.387 2.192-3.29 8.263-4.886 6.922-10.169z"/><path d="M28.979 56.902c5.762.368 14.613-.205 14.822-2.932 0 0-.403 1.034-4.762 1.854-4.919.926-10.987.818-14.584.224 0 0 .737.61 4.524.854z"/></g></svg>