<svg version="1.0" viewBox="0 0 64 64" xmlns="http://www.w3.org/2000/svg"><path d="M13.5 3A4.49 4.49 0 0 0 9 7.5v51a4.49 4.49 0 0 0 4.5 4.5h37a4.49 4.49 0 0 0 4.5-4.5v-39L38.5 3z" fill="#6f6f6f"/><path d="M54 20v36c0 2.216-1.784 4-4 4H14c-2.216 0-4-1.784-4-4V8c0-2.216 1.784-4 4-4h24" fill="#ececec"/><path d="M54 23H41c-2.216 0-4-1.784-4-4V4h1l16 16z" fill="#6f6f6f" fill-opacity=".502"/><path d="M54 20H42c-2.216 0-4-1.784-4-4V4" fill="#fafafa"/><path d="m19.659 26.99 2.247 25.202 10.083 2.799 10.11-2.803 2.25-25.198zm4.594 5.151h15.483l-.074.83-.14 1.566-.063.695H27.631l.283 3.165h11.264l-.075.83-.727 8.138-.046.522-6.326 1.753-.014.004-6.332-1.758-.433-4.853h3.103l.22 2.465 3.442.93.003-.002 3.448-.93.358-4.009H25.087l-.76-8.518-.074-.829z" fill="#e44d26"/><path d="m19.659 26.99 2.247 25.202 10.083 2.799.015-.004V49.64l-.014.004-6.332-1.757-.433-4.854h3.103l.22 2.465 3.442.93.003-.001.01-.003v-4.936h-6.916l-.76-8.518-.074-.829h7.75V26.99H19.66zm7.972 8.242.283 3.165h4.09v-3.165h-.01z" opacity=".1"/></svg>