<svg version="1.0" viewBox="0 0 64 64" xmlns="http://www.w3.org/2000/svg"><path d="M13.5 3A4.49 4.49 0 0 0 9 7.5v51a4.49 4.49 0 0 0 4.5 4.5h37a4.49 4.49 0 0 0 4.5-4.5v-39L38.5 3z" fill="#6f6f6f"/><path d="M54 20v36c0 2.216-1.784 4-4 4H14c-2.216 0-4-1.784-4-4V8c0-2.216 1.784-4 4-4h24" fill="#ececec"/><path d="M54 23H41c-2.216 0-4-1.784-4-4V4h1l16 16z" fill="#6f6f6f" fill-opacity=".502"/><path d="M54 20H42c-2.216 0-4-1.784-4-4V4" fill="#fafafa"/><path d="M246-3944c-1.09 0-2 .91-2 2v12c0 1.09.91 2 2 2h20c1.09 0 2-.91 2-2v-12c0-1.09-.91-2-2-2zm0 2h20v12h-20zm2 2v8h2v-4.375l2 3.125 2-3.125v4.375h2v-8h-2l-2 3.125-2-3.125zm12 0v4h-2l3 4 3-4h-2v-4z" color="#000" fill="#455a64" style="isolation:auto;mix-blend-mode:normal;text-decoration-color:#000;text-decoration-line:none;text-decoration-style:solid;text-indent:0;text-transform:none;white-space:normal" transform="translate(-224 3980)"/></svg>