<svg version="1.0" viewBox="0 0 64 64" xmlns="http://www.w3.org/2000/svg"><path d="M13.5 3A4.49 4.49 0 0 0 9 7.5v51a4.49 4.49 0 0 0 4.5 4.5h37a4.49 4.49 0 0 0 4.5-4.5v-39L38.5 3z" fill="#6f6f6f"/><path d="M54 20v36c0 2.216-1.784 4-4 4H14c-2.216 0-4-1.784-4-4V8c0-2.216 1.784-4 4-4h24" fill="#ececec"/><path d="M54 23H41c-2.216 0-4-1.784-4-4V4h1l16 16z" fill="#6f6f6f" fill-opacity=".502"/><path d="M54 20H42c-2.216 0-4-1.784-4-4V4" fill="#fafafa"/><g transform="matrix(2 0 0 2 -192 13416)"><path fill="#64b5f6" d="M106-6687h12v9h-12z"/><circle cx="107.5" cy="-6690.5" r="2.5" fill="#1e88e5"/><circle cx="116.5" cy="-6690.5" r="2.5" fill="#1e88e5"/><circle cx="112" cy="-6687" r="6" fill="#64b5f6"/><path fill="#fff" d="M111-6685h1v2h-1z"/><path fill="#f2f2f2" d="M112-6685h1v2h-1z"/><path d="M111-6686a1 1 0 1 0 0 2c.51 0 .993-.444.993-.444h.014s.484.443.993.444a1 1 0 1 0 0-2z" fill="#1e88e5"/><ellipse cx="112" cy="-6685.5" rx="1.125" ry=".75" fill="#3e2723"/><g transform="translate(77 -6260.2) scale(.0625)"><circle cx="512" cy="-6844" r="32" fill="#fefefe"/><circle transform="scale(-1 1)" cx="-505.14" cy="-6850.9" r="11.429" fill="#333"/></g><g transform="translate(83 -6260.2) scale(.0625)"><circle cx="512" cy="-6844" r="32" fill="#fefefe"/><circle transform="scale(-1 1)" cx="-505.14" cy="-6850.9" r="11.429" fill="#333"/></g></g></svg>