<svg version="1.0" viewBox="0 0 64 64" xmlns="http://www.w3.org/2000/svg"><path d="M13.5 3A4.49 4.49 0 0 0 9 7.5v51a4.49 4.49 0 0 0 4.5 4.5h37a4.49 4.49 0 0 0 4.5-4.5v-39L38.5 3z" fill="#6f6f6f"/><path d="M54 20v36c0 2.216-1.784 4-4 4H14c-2.216 0-4-1.784-4-4V8c0-2.216 1.784-4 4-4h24" fill="#ececec"/><path d="M54 23H41c-2.216 0-4-1.784-4-4V4h1l16 16z" fill="#6f6f6f" fill-opacity=".502"/><path d="M54 20H42c-2.216 0-4-1.784-4-4V4" fill="#fafafa"/><g fill="#1976d2"><path d="M32 30c-.116 0-.23.05-.293.152l-.625 1.012-.293.028-.809-.867c-.163-.176-.498-.108-.582.118l-.414 1.105-.285.086-.96-.691c-.196-.14-.505-.02-.544.226l-.191 1.168-.262.14-1.078-.492c-.219-.1-.501.088-.492.328l.043 1.188-.227.188-1.156-.274c-.234-.054-.473.184-.418.418l.274 1.156-.188.227-1.187-.042c-.24-.02-.428.273-.328.492l.492 1.078-.14.262-1.169.192c-.237.038-.366.348-.226.543l.691.961-.086.285-1.11.414c-.224.084-.288.418-.113.582l.868.805-.032.297-1.007.625c-.205.126-.205.464 0 .59l1.007.62.032.298-.868.808c-.175.164-.111.494.114.578l1.109.414.086.285-.691.961c-.14.196-.01.509.226.547l1.168.188.14.262-.491 1.078c-.1.22.089.502.328.492l1.187-.042.188.227-.274 1.156c-.055.234.184.473.418.418l1.156-.273.227.188-.043 1.183c-.01.24.273.428.492.328l1.078-.488.262.136.191 1.168c.039.238.348.367.543.227l.961-.692.285.086.414 1.11c.084.224.415.29.579.113l.808-.867.297.032.625 1.008c.126.203.464.204.59 0l.621-1.008.297-.032.808.867c.164.176.495.11.579-.114l.414-1.109.285-.086.96.692c.196.14.505.02.544-.227l.191-1.168.262-.136 1.078.488c.219.1.5-.086.492-.328l-.043-1.183.227-.188 1.156.273c.234.054.473-.184.418-.418l-.274-1.156.188-.227 1.187.042c.24.02.429-.273.328-.492l-.492-1.078.14-.262 1.169-.188c.238-.038.367-.351.226-.547l-.691-.96.086-.286 1.11-.414c.225-.084.289-.414.113-.578l-.868-.808.032-.297 1.007-.621c.205-.126.205-.464 0-.59l-1.007-.625-.032-.297.868-.805c.176-.164.112-.498-.114-.582l-1.109-.414-.086-.285.691-.961c.141-.194.012-.504-.226-.543l-1.168-.192-.14-.262.491-1.078c.101-.22-.086-.501-.328-.492l-1.187.042-.188-.227.274-1.156c.055-.234-.184-.473-.418-.418l-1.152.274-.23-.188.042-1.188c.01-.24-.273-.428-.492-.328l-1.078.492-.262-.14-.187-1.168c-.039-.237-.352-.367-.547-.226l-.961.691-.285-.086-.414-1.105c-.084-.226-.415-.292-.578-.118l-.81.867-.292-.028-.625-1.012A.344.344 0 0 0 32 30zm0 3.996a8 8 0 0 1 8 8 8 8 0 0 1-8 8 8 8 0 0 1-8-8 8 8 0 0 1 8-8z"/><path d="M24 36v2h2v8h-2v2h8v-2h-2v-4c2 0 2 6 4 6h4c2 0 2-6 2-6h-2s0 4-2 4c-.943 0-2-4-2-4h1c1.662 0 3-1.338 3-3s-1.338-3-3-3h-3zm6 2h4c.554 0 1 .446 1 1s-.446 1-1 1h-4z"/></g></svg>