<svg version="1.0" viewBox="0 0 64 64" xmlns="http://www.w3.org/2000/svg"><path d="M13.5 3A4.49 4.49 0 0 0 9 7.5v51a4.49 4.49 0 0 0 4.5 4.5h37a4.49 4.49 0 0 0 4.5-4.5v-39L38.5 3z" fill="#6f6f6f"/><path d="M54 20v36c0 2.216-1.784 4-4 4H14c-2.216 0-4-1.784-4-4V8c0-2.216 1.784-4 4-4h24" fill="#ececec"/><path d="M54 23H41c-2.216 0-4-1.784-4-4V4h1l16 16z" fill="#6f6f6f" fill-opacity=".502"/><path d="M54 20H42c-2.216 0-4-1.784-4-4V4" fill="#fafafa"/><path d="M43.37 45.4q-.13 2.843-1.534 5.032-1.403 2.17-3.946 3.367-2.525 1.197-5.78 1.197-5.368 0-8.454-3.498Q20.57 48 20.57 41.622v-1.347q0-4.002 1.384-6.995 1.403-3.011 4.021-4.639 2.619-1.645 6.06-1.645 4.957 0 7.968 2.618 3.012 2.6 3.423 7.182H36.88q-.075-2.487-1.253-3.572-1.179-1.085-3.592-1.085-2.45 0-3.59 1.833-1.142 1.833-1.198 5.855v1.926q0 4.358 1.085 6.229 1.103 1.87 3.778 1.87 2.263 0 3.46-1.066t1.272-3.386z" fill="#3f51b5"/></svg>