<svg version="1.0" viewBox="0 0 64 64" xmlns="http://www.w3.org/2000/svg"><g transform="translate(-224 80)"><path d="M237.5-77a4.49 4.49 0 0 0-4.5 4.5v51a4.49 4.49 0 0 0 4.5 4.5h37a4.49 4.49 0 0 0 4.5-4.5v-39L262.5-77z" fill="#6f6f6f"/><path d="M278-60v36c0 2.216-1.784 4-4 4h-36c-2.216 0-4-1.784-4-4v-48c0-2.216 1.784-4 4-4h24" fill="#ececec"/><path d="M278-57h-13c-2.216 0-4-1.784-4-4v-15h1l16 16z" fill="#6f6f6f" fill-opacity=".502"/><path d="M278-60h-12c-2.216 0-4-1.784-4-4v-12" fill="#fafafa"/><path d="m256-48-13-13v4l9 9-9 9v4z" fill="#6f6f6f" fill-opacity=".784"/><rect x="252" y="-38" width="22" height="3" ry="1.5" fill="#6f6f6f" fill-opacity=".784"/></g></svg>