<svg version="1.0" viewBox="0 0 64 64" xmlns="http://www.w3.org/2000/svg"><path d="M13.5 3A4.49 4.49 0 0 0 9 7.5v51a4.49 4.49 0 0 0 4.5 4.5h37a4.49 4.49 0 0 0 4.5-4.5v-39L38.5 3z" fill="#6f6f6f"/><path d="M54 20v36c0 2.216-1.784 4-4 4H14c-2.216 0-4-1.784-4-4V8c0-2.216 1.784-4 4-4h24" fill="#ececec"/><path d="M54 23H41c-2.216 0-4-1.784-4-4V4h1l16 16z" fill="#6f6f6f" fill-opacity=".502"/><path d="M54 20H42c-2.216 0-4-1.784-4-4V4" fill="#fafafa"/><path d="m19.39 30 6.544 12-6.544 12h4l6.544-12-6.544-12zm6.666 0 6.545 12-6.545 12h4l4.545-8.333L39.145 54h4L38.2 44.932l-.873-1.599L36.601 42l-6.545-12zm11.03 8 1.455 2.667h6.06V38zm2.908 5.333L41.45 46h3.151v-2.667z" fill="#5f5088" fill-rule="evenodd"/></svg>