<svg version="1.0" viewBox="0 0 64 64" xmlns="http://www.w3.org/2000/svg"><path d="M13.5 3A4.49 4.49 0 0 0 9 7.5v51a4.49 4.49 0 0 0 4.5 4.5h37a4.49 4.49 0 0 0 4.5-4.5v-39L38.5 3z" fill="#6f6f6f"/><path d="M54 20v36c0 2.216-1.784 4-4 4H14c-2.216 0-4-1.784-4-4V8c0-2.216 1.784-4 4-4h24" fill="#ececec"/><path d="M54 23H41c-2.216 0-4-1.784-4-4V4h1l16 16z" fill="#6f6f6f" fill-opacity=".502"/><path d="M54 20H42c-2.216 0-4-1.784-4-4V4" fill="#fafafa"/><path d="M36.35 45.5s1.151.347 1.82.686c.232.118.633.351.923.659.284.301.422.607.422.607l4.192 6.518h-9.781l-1.891-4.942s-.702-1.207-1.134-1.557c-.36-.291-.514-.395-.87-.395h-1.743l.001 6.89h-8.001l.002-22h12.86c1.5 0 9.111.737 9.111 6.382 0 5.646-5.911 7.149-5.911 7.149zm-8.06-9.53v5.998h3.17s2.406 0 2.589-2.935c.192-3.063-2.59-3.06-2.59-3.06z" fill="#3f51b5" fill-rule="evenodd"/></svg>