<svg version="1.0" viewBox="0 0 64 64" xmlns="http://www.w3.org/2000/svg"><path d="M13.5 3A4.49 4.49 0 0 0 9 7.5v51a4.49 4.49 0 0 0 4.5 4.5h37a4.49 4.49 0 0 0 4.5-4.5v-39L38.5 3z" fill="#6f6f6f"/><path d="M54 20v36c0 2.216-1.784 4-4 4H14c-2.216 0-4-1.784-4-4V8c0-2.216 1.784-4 4-4h24" fill="#ececec"/><path d="M54 23H41c-2.216 0-4-1.784-4-4V4h1l16 16z" fill="#6f6f6f" fill-opacity=".502"/><path d="M54 20H42c-2.216 0-4-1.784-4-4V4" fill="#fafafa"/><g transform="translate(-344.89 853.08)"><g color="#000"><path d="M375.68-825.05c-2.682 0-4.775 1.542-4.775 3.458v1.51h-1.575c-1.916 0-3.495 2.159-3.458 4.84l.033 2.384c.037 2.681 1.575 4.775 3.49 4.775h13.51v-13.509c0-1.916-2.16-3.458-4.842-3.458z" fill="#3776ab"/><path d="M378.06-803.05c2.682 0 4.841-1.542 4.841-3.458v-1.51h1.51c1.915 0 3.42-2.159 3.457-4.84l.033-2.384c.037-2.681-1.64-4.775-3.557-4.775h-1.443v3s.033 3-3 3h-6s-3 0-3 3v4.509c0 1.916 2.094 3.458 4.776 3.458z" fill="#ffd343"/></g><circle cx="373.9" cy="-822.05" r="1" fill="#fff"/><circle cx="379.9" cy="-806.05" r="1" fill="#fff"/><g color="#000"><path d="M375.68-825.05c-2.682 0-4.775 1.542-4.775 3.458v1.51h-1.575c-1.916 0-3.495 2.159-3.458 4.84l.033 2.384c.037 2.681 1.575 4.775 3.49 4.775h13.51v-13.509c0-1.916-2.16-3.458-4.842-3.458z" fill="#3776ab"/><path d="M378.06-803.05c2.682 0 4.841-1.542 4.841-3.458v-1.51h1.51c1.915 0 3.42-2.159 3.457-4.84l.033-2.384c.037-2.681-1.64-4.775-3.557-4.775h-1.443v3s.033 3-3 3h-6s-3 0-3 3v4.509c0 1.916 2.094 3.458 4.776 3.458z" fill="#ffd343"/></g><circle cx="373.9" cy="-822.05" r="1" fill="#fff"/><circle cx="379.9" cy="-806.05" r="1" fill="#fff"/></g></svg>