<svg version="1.0" viewBox="0 0 64 64" xmlns="http://www.w3.org/2000/svg"><g transform="translate(-224 -220)"><rect x="228" y="234" width="56" height="44" ry="4" fill="#782e11"/><rect x="229" y="235" width="54" height="40" ry="3.5" fill="#f15d22"/><path d="M232.5 235a3.492 3.492 0 0 0-3.5 3.5v4.5h54v-4.5c0-1.939-1.561-3.5-3.5-3.5z"/><g fill="#f7f7f7"><path d="m237 235-4 8h6l4-8z"/><path d="m249 235-4 8h6l4-8z"/><path d="m261 235-4 8h6l4-8z"/><path d="m273 235-4 8h6l4-8z"/></g><g transform="matrix(1.5 0 0 1.5 83.29 -111.95)" fill="#fff"><path d="m120.47 249.3 3.333-2v7.333l-3.333-2z" filter="url(#filter7554)"/><rect x="109.81" y="246.64" width="10.667" height="8" ry="2" filter="url(#filter7554)"/><path d="M119.142 240.636a3.333 3.333 0 0 0-3.334 3.333 3.333 3.333 0 0 0 3.334 3.334 3.333 3.333 0 0 0 3.333-3.334 3.333 3.333 0 0 0-3.333-3.333zm0 2a1.333 1.333 0 0 1 1.333 1.333 1.333 1.333 0 0 1-1.333 1.334 1.333 1.333 0 0 1-1.334-1.334 1.333 1.333 0 0 1 1.334-1.333z"/><path d="M111.14 240.64a3.333 3.333 0 0 0-3.333 3.333 3.333 3.333 0 0 0 3.333 3.334 3.333 3.333 0 0 0 3.333-3.334 3.333 3.333 0 0 0-3.333-3.333zm0 2a1.333 1.333 0 0 1 1.333 1.333 1.333 1.333 0 0 1-1.333 1.334 1.333 1.333 0 0 1-1.333-1.334 1.333 1.333 0 0 1 1.333-1.333z"/></g></g></svg>