<svg version="1.0" viewBox="0 0 64 64" xmlns="http://www.w3.org/2000/svg"><g transform="translate(-224 380)"><path d="M237.5-377a4.49 4.49 0 0 0-4.5 4.5v51a4.49 4.49 0 0 0 4.5 4.5h37a4.49 4.49 0 0 0 4.5-4.5v-39L262.5-377z" fill="#671d00"/><path d="M278-360v36c0 2.216-1.784 4-4 4h-36c-2.216 0-4-1.784-4-4v-48c0-2.216 1.784-4 4-4h24" fill="#cf3b00"/><path d="M278-357h-13c-2.216 0-4-1.784-4-4v-15h1l16 16z" fill="#671d00" fill-opacity=".502"/><path d="M278-360h-12c-2.216 0-4-1.784-4-4v-12" fill="#f15d22"/><path d="M238-348a8 8 0 0 1 8-8 8 8 0 0 1 8 8 8 8 0 0 1-8 8v-8z" fill="#fffffe"/><rect x="258" y="-354" width="16" height="12" ry="0" fill="#fff"/><rect x="238" y="-338" width="36" height="4" ry="0" fill="#fff"/><rect x="238" y="-330" width="22" height="4" ry="0" fill="#fff"/></g></svg>