<svg version="1.0" viewBox="0 0 64 64" xmlns="http://www.w3.org/2000/svg"><path d="M13.5 3A4.49 4.49 0 0 0 9 7.5v51a4.49 4.49 0 0 0 4.5 4.5h37a4.49 4.49 0 0 0 4.5-4.5v-39L38.5 3z" fill="#7f6728"/><path d="M54 20v36c0 2.216-1.784 4-4 4H14c-2.216 0-4-1.784-4-4V8c0-2.216 1.784-4 4-4h24" fill="#ffce51"/><path d="M54 23H41c-2.216 0-4-1.784-4-4V4h1l16 16z" fill="#7f6728" fill-opacity=".502"/><path d="M54 20H42c-2.216 0-4-1.784-4-4V4" fill="#fffa7d"/><g fill="#fff" transform="translate(-224 680)"><circle cx="249" cy="-638" r="8"/><path d="M258-650h12v8h-12z"/><path d="M270-638v12h-12z"/></g></svg>