<svg version="1.0" viewBox="0 0 64 64" xmlns="http://www.w3.org/2000/svg"><path d="M13.5 3A4.49 4.49 0 0 0 9 7.5v51a4.49 4.49 0 0 0 4.5 4.5h37a4.49 4.49 0 0 0 4.5-4.5v-39L38.5 3z" fill="#234c31"/><path d="M54 20v36c0 2.216-1.784 4-4 4H14c-2.216 0-4-1.784-4-4V8c0-2.216 1.784-4 4-4h24" fill="#479863"/><path d="M54 23H41c-2.216 0-4-1.784-4-4V4h1l16 16z" fill="#234c31" fill-opacity=".502"/><path d="M54 20H42c-2.216 0-4-1.784-4-4V4" fill="#73c48f"/><path d="M14 28v28h36V28zm4 4h8v4h-8zm12 0h16v4H30zm-12 8h8v4h-8zm12 0h16v4H30zm-12 8h8v4h-8zm12 0h16v4H30z" fill="#fff"/></svg>