<svg version="1.0" viewBox="0 0 64 64" xmlns="http://www.w3.org/2000/svg"><path d="M13.5 3A4.49 4.49 0 0 0 9 7.5v51a4.49 4.49 0 0 0 4.5 4.5h37a4.49 4.49 0 0 0 4.5-4.5v-39L38.5 3z" fill="#245c63"/><path d="M54 20v36c0 2.216-1.784 4-4 4H14c-2.216 0-4-1.784-4-4V8c0-2.216 1.784-4 4-4h24" fill="#48b9c7"/><path d="M54 23H41c-2.216 0-4-1.784-4-4V4h1l16 16z" fill="#245c63" fill-opacity=".502"/><path d="M54 20H42c-2.216 0-4-1.784-4-4V4" fill="#67d8e6"/><path d="M256-1850a6 6 0 1 1 0 12 6 6 0 0 1 0-12zm0 16c12 0 12 8.007 12 8.007v2h-24v-2s0-8 12-8.007z" color="#000" fill="#f6f7f8" style="text-decoration-line:none;text-indent:0;text-transform:none" transform="translate(-224 1880)"/></svg>