<svg version="1.0" viewBox="0 0 64 64" xmlns="http://www.w3.org/2000/svg"><path d="M13.5 3A4.49 4.49 0 0 0 9 7.5v51a4.49 4.49 0 0 0 4.5 4.5h37a4.49 4.49 0 0 0 4.5-4.5v-39L38.5 3z" fill="#6f4400"/><path d="M54 20v36c0 2.216-1.784 4-4 4H14c-2.216 0-4-1.784-4-4V8c0-2.216 1.784-4 4-4h24" fill="#de8800"/><path d="M54 23H41c-2.216 0-4-1.784-4-4V4h1l16 16z" fill="#6f4400" fill-opacity=".502"/><path d="M54 20H42c-2.216 0-4-1.784-4-4V4" fill="#faa41a"/><g fill="#fff" fill-opacity=".978" transform="translate(-224 980)"><rect x="239" y="-952" width="34" height="7" ry="2.25"/><rect x="239" y="-942" width="34" height="7" ry="2.25"/><rect x="239" y="-932" width="34" height="7" ry="2.25"/></g></svg>