<svg version="1.0" viewBox="0 0 64 64" xmlns="http://www.w3.org/2000/svg"><g transform="translate(-224 -220)"><path d="M237.5 223a4.49 4.49 0 0 0-4.5 4.5v51a4.49 4.49 0 0 0 4.5 4.5h37a4.49 4.49 0 0 0 4.5-4.5v-39L262.5 223z" fill="#1f285a"/><path d="M278 240v36c0 2.216-1.784 4-4 4h-36c-2.216 0-4-1.784-4-4v-48c0-2.216 1.784-4 4-4h24" fill="#3f51b5"/><path d="M278 243h-13c-2.216 0-4-1.784-4-4v-15h1l16 16z" fill="#1f285a" fill-opacity=".502"/><path d="M278 240h-12c-2.216 0-4-1.784-4-4v-12" fill="#6a7ce0"/><rect x="238" y="245" width="36" height="4" ry="0" fill="#fff"/><rect x="238" y="253" width="36" height="4" ry="0" fill="#fff"/><rect x="238" y="261" width="36" height="4" ry="0" fill="#fff"/><rect x="238" y="269" width="22" height="4" ry="0" fill="#fff"/></g></svg>