<svg version="1.0" viewBox="0 0 48 48" xmlns="http://www.w3.org/2000/svg"><g transform="translate(-156 -236)"><rect x="237" y="254" width="38" height="5" ry="2" fill="#565656"/><rect x="238" y="255" width="36" height="2" ry=".967" fill="#acacac"/><rect x="247" y="224" width="18" height="44" ry="9" fill="#909090"/><rect x="248" y="227" width="16" height="40" ry="8" fill="#2e2e2e"/><path d="M242 252c-1.108 0-2 .892-2 2v8c0 8.864 7.136 16 16 16s16-7.136 16-16v-8c0-1.108-.892-2-2-2s-2 .892-2 2v5c0 6.648-5.352 12-12 12s-12-5.352-12-12v-5c0-1.108-.892-2-2-2z" fill="#444"/><rect x="254" y="273" width="4" height="9" ry="2" fill="#444"/><path d="M242 253c-.554 0-1 .446-1 1v5a15 15 0 0 0 15 15 15 15 0 0 0 15-15v-5c0-.554-.446-1-1-1s-1 .446-1 1v5a13 13 0 0 1-13 13 13 13 0 0 1-13-13v-5c0-.554-.446-1-1-1z" fill="#888"/><rect x="255" y="272" width="2" height="7" ry="1" fill="#888"/><rect x="339" y="229" width="74" height="7" ry="2.5" fill="#565656"/><rect x="340" y="230" width="72" height="4" ry="2" fill="#acacac"/><path d="M348 223c-1.645 0-3 1.355-3 3v14c0 17.109 13.891 31 31 31s31-13.891 31-31v-14a3.015 3.015 0 0 0-3.602-2.94A3.02 3.02 0 0 0 401 226v10c0 13.819-11.181 25-25 25s-25-11.181-25-25v-10c0-1.645-1.355-3-3-3z" color="#000" fill="#444" style="font-feature-settings:normal;font-variant-alternates:normal;font-variant-caps:normal;font-variant-ligatures:normal;font-variant-numeric:normal;font-variant-position:normal;isolation:auto;mix-blend-mode:normal;shape-padding:0;text-decoration-color:#000;text-decoration-line:none;text-decoration-style:solid;text-indent:0;text-orientation:mixed;text-transform:none;white-space:normal"/><rect x="373" y="262" width="6" height="18" ry="3" fill="#444"/><rect x="358" y="164" width="36" height="92" ry="18" fill="#909090"/><path d="M348 224c-1.108 0-2 .892-2 2v10a30 30 0 0 0 30 30 30 30 0 0 0 30-30v-10c0-1.108-.892-2-2-2s-2 .892-2 2v10a26 26 0 0 1-26 26 26 26 0 0 1-26-26v-10c0-1.108-.892-2-2-2z" fill="#888"/><rect x="374" y="262" width="4" height="14" ry="2" fill="#888"/><rect x="359" y="168" width="34" height="87" ry="17" fill="#2e2e2e"/><rect x="520" y="175" width="146" height="13" ry="5" fill="#565656"/><rect x="521" y="176" width="144" height="8" ry="4" fill="#acacac"/><rect x="557" y="44" width="72" height="184" ry="36" fill="#909090"/><rect x="558" y="51" width="70" height="176" ry="35" fill="#2e2e2e"/><path d="M537 166a5.01 5.01 0 0 0-5 5v25c0 33.678 27.322 61 61 61s61-27.322 61-61v-25c0-2.753-2.247-5-5-5s-5 2.247-5 5v20c0 28.178-22.822 51-51 51s-51-22.822-51-51v-20c0-2.753-2.247-5-5-5z" color="#000" fill="#444" style="font-feature-settings:normal;font-variant-alternates:normal;font-variant-caps:normal;font-variant-ligatures:normal;font-variant-numeric:normal;font-variant-position:normal;isolation:auto;mix-blend-mode:normal;shape-padding:0;text-decoration-color:#000;text-decoration-line:none;text-decoration-style:solid;text-indent:0;text-orientation:mixed;text-transform:none;white-space:normal"/><path d="M537 167c-2.216 0-4 1.784-4 4v20a60 60 0 0 0 60 60 60 60 0 0 0 60-60v-20c0-2.216-1.784-4-4-4s-4 1.784-4 4v20a52 52 0 0 1-52 52 52 52 0 0 1-52-52v-20c0-2.216-1.784-4-4-4z" fill="#888"/><rect x="587" y="250" width="12" height="26" ry="6" fill="#444"/><rect x="588" y="246" width="10" height="25" ry="5" fill="#888"/><rect x="165" y="261" width="30" height="5" ry="2" fill="#565656"/><rect x="166" y="262" width="28" height="2" ry="1" fill="#acacac"/><path d="M170 258c-1.108 0-2 .892-2 2v7c0 6.648 5.352 12 12 12s12-5.352 12-12v-7c0-1.108-.892-2-2-2s-2 .892-2 2v5c0 4.432-3.568 8-8 8s-8-3.568-8-8v-5c0-1.108-.892-2-2-2z" fill="#444"/><path d="M170 259c-.554 0-1 .446-1 1v5c0 6.094 4.906 11 11 11s11-4.906 11-11v-5c0-.554-.446-1-1-1s-1 .446-1 1v5c0 4.986-4.014 9-9 9s-9-4.014-9-9v-5c0-.554-.446-1-1-1z" fill="#838383"/><rect x="173" y="239" width="14" height="33" ry="6.75" fill="#909090"/><rect x="174" y="242" width="12" height="29" ry="6" fill="#2e2e2e"/><path d="M242 253c-.554 0-1 .446-1 1v5a15 15 0 0 0 15 15 15 15 0 0 0 15-15v-5c0-.554-.446-1-1-1s-1 .446-1 1v5a13 13 0 0 1-13 13 13 13 0 0 1-13-13v-5c0-.554-.446-1-1-1z" fill="#888"/><rect x="178" y="276" width="4" height="6" ry="2" fill="#444"/><rect x="179" y="274" width="2" height="5" ry="1" fill="#838383"/><rect x="103" y="267" width="26" height="5" ry="2" fill="#565656"/><rect x="104" y="268" width="24" height="2" ry=".857" fill="#acacac"/><path d="M108 264c-1.108 0-2 .892-2 2v6c0 5.54 4.46 10 10 10s10-4.46 10-10v-6c0-1.108-.892-2-2-2s-2 .892-2 2v5c0 3.324-2.676 6-6 6s-6-2.676-6-6v-5c0-1.108-.892-2-2-2z" fill="#444"/><path d="M108 265c-.554 0-1 .446-1 1v5c0 4.986 4.014 9 9 9s9-4.014 9-9v-5c0-.554-.446-1-1-1s-1 .446-1 1v5c0 3.878-3.122 7-7 7s-7-3.122-7-7v-5c0-.554-.446-1-1-1z" fill="#838383"/><rect x="111" y="254" width="10" height="22" ry="5" fill="#909090"/><rect x="112" y="256" width="8" height="19" ry="4" fill="#2e2e2e"/><rect x="114" y="280" width="4" height="4" ry="2" fill="#444"/><rect x="115" y="278" width="2" height="4" ry="1" fill="#838383"/><path d="M60 269c-1.108 0-2 .892-2 2v1c0 5.54 4.46 10 10 10s10-4.46 10-10v-1c0-1.108-.892-2-2-2s-2 .892-2 2v1c0 3.324-2.676 6-6 6s-6-2.676-6-6v-1c0-1.108-.892-2-2-2z" fill="#444"/><rect x="66" y="280" width="4" height="4" ry="2" fill="#444"/><path d="M60 270c-.554 0-1 .446-1 1v1c0 4.986 4.014 9 9 9s9-4.014 9-9v-1c0-.554-.446-1-1-1s-1 .446-1 1v1c0 3.878-3.122 7-7 7s-7-3.122-7-7v-1c0-.554-.446-1-1-1z" fill="#838383"/><rect x="63" y="260" width="10" height="17" ry="5" fill="#909090"/><rect x="64" y="261" width="8" height="15" ry="4" fill="#2e2e2e"/><rect x="67" y="279" width="2" height="4" ry="1" fill="#838383"/><path d="M18.5 273c-.831 0-1.5.669-1.5 1.5v1.5c0 3.878 3.122 7 7 7s7-3.122 7-7v-1.5c0-.831-.669-1.5-1.5-1.5s-1.5.669-1.5 1.5v1.5c0 2.216-1.784 4-4 4s-4-1.784-4-4v-1.5c0-.831-.669-1.5-1.5-1.5z" fill="#3c3c3c"/><rect x="22" y="280" width="4" height="4" ry="1" fill="#3c3c3c"/><path d="M18.5 274c-.277 0-.5.223-.5.5v1.5c0 3.324 2.676 6 6 6s6-2.676 6-6v-1.5a.499.499 0 1 0-1 0v1.5c0 2.77-2.23 5-5 5s-5-2.23-5-5v-1.5c0-.277-.223-.5-.5-.5z" fill="#838383"/><rect x="21" y="268" width="6" height="11" ry="3" fill="#909090"/><rect x="22" y="269" width="4" height="9" ry="2" fill="#2e2e2e"/><rect x="23" y="281" width="2" height="2" ry="1" fill="#838383"/></g></svg>