<svg version="1.0" viewBox="0 0 48 48" xmlns="http://www.w3.org/2000/svg"><g transform="translate(-156 -236)"><rect x="165" y="261" width="30" height="5" ry="2" fill="#565656"/><rect x="166" y="262" width="28" height="2" ry="1" fill="#acacac"/><path d="M170 258c-1.108 0-2 .892-2 2v7c0 6.648 5.352 12 12 12s12-5.352 12-12v-7c0-1.108-.892-2-2-2s-2 .892-2 2v5c0 4.432-3.568 8-8 8s-8-3.568-8-8v-5c0-1.108-.892-2-2-2z" fill="#444"/><path d="M170 259c-.554 0-1 .446-1 1v5c0 6.094 4.906 11 11 11s11-4.906 11-11v-5c0-.554-.446-1-1-1s-1 .446-1 1v5c0 4.986-4.014 9-9 9s-9-4.014-9-9v-5c0-.554-.446-1-1-1z" fill="#838383"/><rect x="173" y="239" width="14" height="33" ry="6.75" fill="#909090"/><rect x="174" y="242" width="12" height="29" ry="6" fill="#2e2e2e"/><rect x="178" y="276" width="4" height="6" ry="2" fill="#444"/><rect x="179" y="274" width="2" height="5" ry="1" fill="#838383"/></g></svg>