<svg version="1.0" viewBox="0 0 48 48" xmlns="http://www.w3.org/2000/svg"><g transform="translate(-156 -236)"><path d="M180 236c-4.15 0-8.03 1.093-11.385 3H162.5a3.492 3.492 0 0 0-3.5 3.5v7.094c-1.282 2.87-2 6.05-2 9.406v2c0 3.356.718 6.537 2 9.406v8.094c0 1.939 1.56 3.5 3.5 3.5h8.094c2.87 1.281 6.05 2 9.406 2s6.536-.719 9.406-2h8.094c1.939 0 3.5-1.561 3.5-3.5v-8.094c1.281-2.87 2-6.05 2-9.406v-2c0-3.356-.719-6.537-2-9.406V242.5c0-1.939-1.561-3.5-3.5-3.5h-6.115A22.952 22.952 0 0 0 180 236z" fill="#565656"/><path d="M180 237a21.951 21.951 0 0 0-11.117 3H163c-1.662 0-3 1.338-3 3v6.805a22 22 0 0 0-2 9.195c0 3.287.718 6.4 2 9.195V276c0 1.662 1.338 3 3 3h7.805c2.796 1.282 5.908 2 9.195 2s6.4-.718 9.196-2H197c1.662 0 3-1.338 3-3v-7.805c1.282-2.796 2-5.908 2-9.195s-.718-6.4-2-9.195V243c0-1.662-1.338-3-3-3h-5.883A21.95 21.95 0 0 0 180 237z" fill="#acacac"/><rect x="160" y="240" width="40" height="39" ry="19.5" fill="#333"/><rect x="163" y="243" width="34" height="33" ry="16.5" fill="#faa41a"/><rect x="173" y="250" width="14" height="17" ry="7" fill="#845914"/><ellipse cx="180" cy="259.5" rx="6" ry="6.5" fill="#333"/><circle cx="163" cy="243" r="1" fill="#565656"/><circle cx="197" cy="243" r="1" fill="#565656"/><circle cx="197" cy="276" r="1" fill="#565656"/><circle cx="163" cy="276" r="1" fill="#565656"/></g></svg>