<svg version="1.0" viewBox="0 0 48 48" xmlns="http://www.w3.org/2000/svg"><g transform="translate(-156 -236)"><rect x="160" y="240" width="39" height="39" ry="3" fill="#767676"/><rect x="161" y="241" width="37" height="28" ry="2.5" fill="#ececec"/><g fill="#474341"><path d="m178.995 247-7 8 7 8zm-5 5c0-.554-.446-1-1-1s-1 .446-1 1v6c0 .554.446 1 1 1s1-.446 1-1z"/><path d="m184.995 248-1.713 1.03c.934 1.555 1.713 4.156 1.713 5.97 0 1.815-.779 4.415-1.713 5.97l1.713 1.03c1.122-1.866 2-4.823 2-7 0-2.177-.878-5.134-2-7z"/><path d="m181.745 249.5-1.715 1.03c.655 1.088.965 3.2.965 4.47 0 1.27-.31 3.382-.965 4.47l1.715 1.03c.84-1.4 1.25-3.867 1.25-5.5s-.41-4.1-1.25-5.5z"/></g><circle cx="167" cy="274" r="3" fill="#73c48f"/><circle cx="180" cy="274" r="3" fill="#ff793e"/><circle cx="192" cy="274" r="3" fill="#67d8e6"/></g></svg>