<svg version="1.0" viewBox="0 0 48 48" xmlns="http://www.w3.org/2000/svg"><g transform="translate(-156 -236)"><rect x="158" y="238" width="44" height="46" ry="22" fill="#e6e6e6"/><circle cx="180" cy="260" r="11" fill="#ac1800"/><circle transform="scale(1 -1)" cx="180" cy="-260" r="9" fill="#cf3b00"/><g fill="#fff"><path d="M184.241 255.757a6 6 0 0 0-8.485 0l4.242 4.242z" opacity=".2"/><path d="M184.241 255.757a6 6 0 0 1 0 8.485l-4.243-4.243z" opacity=".4"/><path d="M175.756 264.242a6 6 0 0 1 0-8.485l4.242 4.242z" opacity=".4"/><path d="M175.756 264.242a6 6 0 0 0 8.485 0l-4.243-4.243z" opacity=".6"/></g><rect x="101" y="253" width="30" height="31" ry="15" fill="#e6e6e6"/><circle transform="scale(1 -1)" cx="72" cy="-273.33" r="1.333" opacity=".2"/><rect transform="matrix(0 -1 -1 0 0 0)" x="-283" y="-79" width="22" height="22" rx="11" ry="11" fill="#e6e6e6"/><circle cx="68" cy="272" r="7" fill="#ac1800"/><circle transform="scale(1 -1)" cx="68" cy="-272" r="5" fill="#cf3b00"/><g fill="#fff"><path d="M70.126 269.88a3 3 0 0 0-4.242 0l2.121 2.12z" opacity=".2"/><path d="M70.126 269.88a3 3 0 0 1 0 4.242l-2.121-2.121z" opacity=".4"/><path d="M65.884 274.122a3 3 0 0 1 0-4.242l2.121 2.12z" opacity=".4"/><path d="M65.884 274.122a3 3 0 0 0 4.242 0l-2.121-2.121z" opacity=".6"/></g><circle cx="116" cy="268" r="9" fill="#ac1800"/><circle transform="scale(1 -1)" cx="116" cy="-268" r="7" fill="#cf3b00"/><g fill="#fff"><path d="M118.828 265.17a4 4 0 0 0-5.656 0l2.828 2.828z" opacity=".2"/><path d="M118.828 265.17a4 4 0 0 1 0 5.656L116 267.998z" opacity=".4"/><path d="M113.172 270.826a4 4 0 0 1 0-5.656l2.828 2.828z" opacity=".4"/><path d="M113.172 270.826a4 4 0 0 0 5.656 0L116 267.998z" opacity=".6"/></g><circle transform="scale(1 -1)" cx="28" cy="-277.33" r="1.333" opacity=".2"/><rect transform="matrix(0 -1 -1 0 0 0)" x="-284" y="-32" width="16" height="16" rx="8" ry="8" fill="#e6e6e6"/><circle cx="24" cy="276" r="5" fill="#ac1800"/><circle transform="scale(1 -1)" cx="24" cy="-276" r="4" fill="#cf3b00"/><g fill="#fff"><path d="M25.414 274.59a2 2 0 0 0-2.828 0L24 276.004z" opacity=".2"/><path d="M25.414 274.59a2 2 0 0 1 0 2.828L24 276.004z" opacity=".4"/><path d="M22.586 277.418a2 2 0 0 1 0-2.828L24 276.004z" opacity=".4"/><path d="M22.586 277.418a2 2 0 0 0 2.828 0L24 276.004z" opacity=".6"/></g><path d="M24 268a8 8 0 0 0-8 8 8 8 0 0 0 8 8 8 8 0 0 0 8-8 8 8 0 0 0-8-8zm0 1c3.878 0 7 3.122 7 7s-3.122 7-7 7-7-3.122-7-7 3.122-7 7-7z" fill-opacity=".5"/><path d="M68 261a11 11 0 0 0-11 11 11 11 0 0 0 11 11 11 11 0 0 0 11-11 11 11 0 0 0-11-11zm0 1a10 10 0 0 1 10 10 10 10 0 0 1-10 10 10 10 0 0 1-10-10 10 10 0 0 1 10-10z" fill-opacity=".5"/><path d="M116 253c-8.31 0-15 6.69-15 15v1c0 8.31 6.69 15 15 15s15-6.69 15-15v-1c0-8.31-6.69-15-15-15zm-.5 1h1c7.479 0 13.5 6.244 13.5 14s-6.021 14-13.5 14h-1c-7.479 0-13.5-6.244-13.5-14s6.021-14 13.5-14z" fill-opacity=".502"/><path d="M180 238c-12.188 0-22 9.812-22 22v2c0 12.188 9.812 22 22 22s22-9.812 22-22v-2c0-12.188-9.812-22-22-22zm0 1c11.634 0 21 9.366 21 21s-9.366 21-21 21-21-9.366-21-21 9.366-21 21-21z" fill-opacity=".502"/><rect x="226" y="222" width="60" height="62" ry="30" fill="#e6e6e6"/><g transform="matrix(2 0 0 2 24 -284)"><circle cx="116" cy="268" r="9" fill="#ac1800"/><circle transform="scale(1 -1)" cx="116" cy="-268" r="8" fill="#cf3b00"/><g fill="#fff"><path d="M118.738 265.17a4 4 0 0 0-5.656 0l2.828 2.828z" opacity=".2"/><path d="M118.738 265.17a4 4 0 0 1 0 5.656l-2.828-2.828z" opacity=".4"/><path d="M113.082 270.826a4 4 0 0 1 0-5.656l2.828 2.828z" opacity=".4"/><path d="M113.082 270.826a4 4 0 0 0 5.656 0l-2.828-2.828z" opacity=".6"/></g></g><path d="M256 222c-16.62 0-30 13.38-30 30v2c0 16.62 13.38 30 30 30s30-13.38 30-30v-2c0-16.62-13.38-30-30-30zm0 1c16.066 0 29 12.934 29 29s-12.934 29-29 29-29-12.934-29-29 12.934-29 29-29z" fill-opacity=".502"/><rect x="316" y="160" width="120" height="123" ry="60" fill="#e6e6e6"/><g transform="matrix(4 0 0 4 -88 -852)"><circle cx="116" cy="268" r="9" fill="#ac1800"/><circle transform="scale(1 -1)" cx="116" cy="-268" r="8" fill="#cf3b00"/><g fill="#fff"><path d="M118.738 265.17a4 4 0 0 0-5.656 0l2.828 2.828z" opacity=".2"/><path d="M118.738 265.17a4 4 0 0 1 0 5.656l-2.828-2.828z" opacity=".4"/><path d="M113.082 270.826a4 4 0 0 1 0-5.656l2.828 2.828z" opacity=".4"/><path d="M113.082 270.826a4 4 0 0 0 5.656 0l-2.828-2.828z" opacity=".6"/></g></g><path d="M376 160c-33.24 0-60 26.76-60 60v3c0 33.24 26.76 60 60 60s60-26.76 60-60v-3c0-33.24-26.76-60-60-60zm0 1c32.686 0 59 26.314 59 59s-26.314 59-59 59-59-26.314-59-59 26.314-59 59-59z" fill-opacity=".502"/><rect x="472" y="36" width="240" height="244" ry="120" fill="#e6e6e6"/><g transform="matrix(8 0 0 8 -336 -1988)"><circle cx="116" cy="268" r="9" fill="#ac1800"/><circle transform="scale(1 -1)" cx="116" cy="-268" r="8" fill="#cf3b00"/><g fill="#fff"><path d="M118.738 265.17a4 4 0 0 0-5.656 0l2.828 2.828z" opacity=".2"/><path d="M118.738 265.17a4 4 0 0 1 0 5.656l-2.828-2.828z" opacity=".4"/><path d="M113.082 270.826a4 4 0 0 1 0-5.656l2.828 2.828z" opacity=".4"/><path d="M113.082 270.826a4 4 0 0 0 5.656 0l-2.828-2.828z" opacity=".6"/></g></g><path d="M592 36c-66.48 0-120 53.52-120 120v4c0 66.48 53.52 120 120 120s120-53.52 120-120v-4c0-66.48-53.52-120-120-120zm0 1c65.926 0 119 53.074 119 119s-53.074 119-119 119-119-53.074-119-119S526.074 37 592 37z" fill-opacity=".502"/></g></svg>