<svg version="1.0" viewBox="0 0 48 48" xmlns="http://www.w3.org/2000/svg"><g transform="translate(-156 -236)"><rect x="159" y="247" width="42" height="32" ry="3" fill="#6f6f6f"/><rect x="173" y="240" width="14" height="10" ry="3" fill="#6f6f6f"/><rect x="174" y="241" width="12" height="9.5" ry="2.5" fill="#acacac"/><path d="M162.5 248a2.495 2.495 0 0 0-2.5 2.5v.5h40v-.5c0-1.385-1.115-2.5-2.5-2.5zm-2.5 25v.5c0 1.385 1.115 2.5 2.5 2.5h35c1.385 0 2.5-1.115 2.5-2.5v-.5z" fill="#ececec"/><rect x="175" y="242" width="10" height="4" ry="2" fill="#ffce51"/><path fill="#424242" d="M160 251h40v22h-40z"/><circle cx="180" cy="262" r="9" fill="#dcdcdc"/><circle cx="180" cy="262" r="7" fill="#48b9c7"/><circle cx="180" cy="262" r="5" fill="#fff" fill-opacity=".251"/><path d="M183.54 258.46a5 5 0 0 1 1.294 4.83 5 5 0 0 1-3.535 3.535 5 5 0 0 1-4.83-1.294l3.535-3.535z" fill="#fff" fill-opacity=".251"/><path d="M176.46 258.46a5 5 0 0 0-1.294 4.83 5 5 0 0 0 3.535 3.535 5 5 0 0 0 4.83-1.294l-3.535-3.535z" fill="#fff" fill-opacity=".251"/></g></svg>