<svg version="1.0" viewBox="0 0 48 48" xmlns="http://www.w3.org/2000/svg"><g transform="translate(-156 -236)"><rect x="158" y="238" width="44" height="46" ry="22" fill="#e6e6e6"/><circle cx="180" cy="260" r="11" fill="#ac1800"/><circle transform="scale(1 -1)" cx="180" cy="-260" r="9" fill="#cf3b00"/><g fill="#fff"><path d="M184.241 255.757a6 6 0 0 0-8.485 0l4.242 4.242z" opacity=".2"/><path d="M184.241 255.757a6 6 0 0 1 0 8.485l-4.243-4.243z" opacity=".4"/><path d="M175.756 264.242a6 6 0 0 1 0-8.485l4.242 4.242z" opacity=".4"/><path d="M175.756 264.242a6 6 0 0 0 8.485 0l-4.243-4.243z" opacity=".6"/></g><path d="M180 238c-12.188 0-22 9.812-22 22v2c0 12.188 9.812 22 22 22s22-9.812 22-22v-2c0-12.188-9.812-22-22-22zm0 1c11.634 0 21 9.366 21 21s-9.366 21-21 21-21-9.366-21-21 9.366-21 21-21z" fill-opacity=".502"/></g></svg>