<svg version="1.0" viewBox="0 0 48 48" xmlns="http://www.w3.org/2000/svg"><g transform="translate(-156 964)"><rect x="160" y="-953" width="40" height="27" ry="3" fill="#bfbfbf"/><path fill="#222" d="M163-950h34v19h-34z"/><path d="M163-953c-1.662 0-3 1.338-3 3v21c0 1.662 1.338 3 3 3h34c1.662 0 3-1.338 3-3v-21c0-1.662-1.338-3-3-3zm0 1h34c1.108 0 2 .892 2 2v19c0 1.108-.892 2-2 2h-34c-1.108 0-2-.892-2-2v-19c0-1.108.892-2 2-2z" fill-opacity=".502"/><rect x="159" y="-927" width="42" height="6" ry="1.5" fill="#bfbfbf"/><path d="M160.5-927c-.831 0-1.5.669-1.5 1.5v3c0 .831.669 1.5 1.5 1.5h39c.831 0 1.5-.669 1.5-1.5v-3c0-.831-.669-1.5-1.5-1.5zm0 1h39c.277 0 .5.223.5.5v2c0 .277-.223.5-.5.5h-39a.499.499 0 0 1-.5-.5v-2c0-.277.223-.5.5-.5z" fill-opacity=".502"/></g></svg>