<svg version="1.0" viewBox="0 0 48 48" xmlns="http://www.w3.org/2000/svg"><g transform="translate(-156 204)"><rect x="163" y="-202" width="34" height="46" ry="3.5" fill="#565656"/><rect x="164" y="-201" width="32" height="42" ry="3" fill="#acacac"/></g><path fill="#444" d="M20 27h8v2h-8z"/><path fill="#444" d="M20 31h8v2h-8z"/><path fill="#444" d="m31.504 9.257 4.242 4.243-4.242 4.243L27.26 13.5z"/><g fill="#444"><path d="m20.96 12.221-4.242 4.243-1.061-1.06L19.9 11.16z"/><path d="m18.839 10.1-4.243 4.242-1.06-1.06 4.242-4.243z"/></g><path d="M24 15a5 5 0 0 0-5 5 5 5 0 0 0 5 5 5 5 0 0 0 5-5 5 5 0 0 0-5-5zm0 2a3 3 0 0 1 3 3 3 3 0 0 1-3 3 3 3 0 0 1-3-3 3 3 0 0 1 3-3z" fill="#444"/></svg>