<svg version="1.0" viewBox="0 0 48 48" xmlns="http://www.w3.org/2000/svg"><g transform="translate(-156 204)"><rect x="163" y="-202" width="34" height="46" ry="3.5" fill="#565656"/><rect x="164" y="-201" width="32" height="42" ry="3" fill="#acacac"/></g><g transform="translate(-92 651)" fill="#444"><path d="M115-642h2v18h-2z"/><circle cx="116" cy="-623" r="2"/><path d="M113-640h6l-3-4z"/><path d="M109-630h14v2h-14z"/><path d="M108-634h2v5h-2z"/><path d="M122-634h2v5h-2z"/><rect x="121" y="-637" width="4" height="4" ry="1"/><rect x="107" y="-637" width="4" height="4" ry="2"/><rect x="108" y="-630" width="2" height="2" ry="1"/><rect x="122" y="-630" width="2" height="2" ry="1"/></g></svg>