<svg version="1.0" viewBox="0 0 48 48" xmlns="http://www.w3.org/2000/svg"><g transform="translate(-156 -236)"><rect x="159" y="247" width="9" height="32" ry="4.5" fill="#4f4b49"/><rect x="192" y="247" width="9" height="32" ry="4.5" fill="#4f4b49"/><rect x="159" y="247" width="42" height="22" ry="4.5" fill="#4f4b49"/><rect x="160" y="248" width="7" height="28" ry="3.5" fill="#9f9792"/><rect x="193" y="248" width="7" height="28" ry="3.5" fill="#9f9792"/><rect x="160" y="248" width="40" height="18" ry="3.5" fill="#9f9792"/><rect x="185" y="254" width="4" height="5" ry="2" fill="#4a537f"/><rect x="165" y="250" width="5" height="12" ry="0" fill="#4f4b49"/><path fill="#4f4b49" d="M162 253h11v6h-11z"/><rect x="166" y="251" width="3" height="9" ry="0" fill="#fff"/><rect transform="rotate(90)" x="254" y="-172" width="3" height="9" ry="0" fill="#fff"/><circle cx="187" cy="256" r="1" fill="#94a6ff"/><rect x="193" y="254" width="4" height="5" ry="2" fill="#7f3c1f"/><circle cx="195" cy="256" r="1" fill="#ff793e"/><rect x="189" y="250" width="4" height="5" ry="2" fill="#7f6728"/><circle transform="rotate(90)" cx="252" cy="-191" r="1" fill="#ffce51"/><rect x="189" y="258" width="4" height="5" ry="2" fill="#396247"/><circle transform="rotate(90)" cx="260" cy="-191" r="1" fill="#73c48f"/><rect x="177" y="254" width="6" height="5" ry="2" fill="#4f4b49"/><rect x="178" y="255" width="4" height="2" ry="1" fill="#fff"/></g></svg>