<svg version="1.0" viewBox="0 0 48 48" xmlns="http://www.w3.org/2000/svg"><g transform="translate(-156 -236)"><rect x="159" y="247" width="42" height="32" ry="4" fill="#7b736e"/><rect x="164" y="254" width="5" height="5" ry="1" fill-opacity=".5"/><path d="M163 247c-2.216 0-4 1.784-4 4v24c0 2.216 1.784 4 4 4h34c2.216 0 4-1.784 4-4v-24c0-2.216-1.784-4-4-4zm0 1h34c1.662 0 3 1.338 3 3v22c0 1.662-1.338 3-3 3h-34c-1.662 0-3-1.338-3-3v-22c0-1.662 1.338-3 3-3z" fill-opacity=".5"/><rect x="192" y="254" width="5" height="5" ry="1" fill-opacity=".5"/><rect x="164" y="253" width="5" height="5" ry="1" fill="#ededed"/><rect x="185" y="254" width="5" height="5" ry="1" fill-opacity=".5"/><rect x="192" y="253" width="5" height="5" ry="1" fill="#ededed"/><rect x="178" y="254" width="5" height="5" ry="1" fill-opacity=".5"/><rect x="185" y="253" width="5" height="5" ry="1" fill="#ededed"/><rect x="171" y="254" width="5" height="5" ry="1" fill-opacity=".5"/><rect x="178" y="253" width="5" height="5" ry="1" fill="#ededed"/><rect x="164" y="261" width="5" height="5" ry="1" fill-opacity=".5"/><rect x="171" y="253" width="5" height="5" ry="1" fill="#ededed"/><rect x="192" y="261" width="5" height="5" ry="1" fill-opacity=".5"/><rect x="164" y="260" width="5" height="5" ry="1" fill="#ededed"/><rect x="185" y="261" width="5" height="5" ry="1" fill-opacity=".5"/><rect x="192" y="260" width="5" height="5" ry="1" fill="#ededed"/><rect x="178" y="261" width="5" height="5" ry="1" fill-opacity=".5"/><rect x="185" y="260" width="5" height="5" ry="1" fill="#ededed"/><rect x="171" y="261" width="5" height="5" ry="1" fill-opacity=".5"/><rect x="178" y="260" width="5" height="5" ry="1" fill="#ededed"/><rect x="170" y="268" width="21" height="5" ry="1" fill-opacity=".5"/><rect x="171" y="260" width="5" height="5" ry="1" fill="#ededed"/><rect x="170" y="267" width="21" height="5" ry="1" fill="#ededed"/></g></svg>