<svg version="1.0" viewBox="0 0 48 48" xmlns="http://www.w3.org/2000/svg"><g transform="translate(-156 -236)"><rect x="164" y="239" width="33" height="42" ry="3" fill="#98989d"/><path d="M167 239c-1.662 0-3 1.338-3 3v5h33v-5c0-1.662-1.338-3-3-3z" fill="#bcbcc0"/><circle cx="168" cy="243" r="1.875" fill="#ffca40"/><path d="M171.12 254.38c12.203-9.454 18.411 5.597 9 6.75-11.497 1.409-7.125 15-.75 9s12 3 12 3" fill="none" stroke="#000" stroke-width="3"/><path d="M167 239c-1.662 0-3 1.338-3 3v36c0 1.662 1.338 3 3 3h27c1.662 0 3-1.338 3-3v-36c0-1.662-1.338-3-3-3zm0 1h27c1.108 0 2 .892 2 2v34c0 1.108-.892 2-2 2h-27c-1.108 0-2-.892-2-2v-34c0-1.108.892-2 2-2z" fill-opacity=".5"/></g></svg>