<svg version="1.0" viewBox="0 0 48 48" xmlns="http://www.w3.org/2000/svg"><g transform="translate(-156 -236)"><g fill="#9f9792"><rect x="16" y="274" width="6" height="10" ry="3"/><rect x="26" y="273" width="6" height="11" ry="3"/><rect x="16" y="269" width="16" height="10" ry="3"/></g><rect x="20" y="271" width="2" height="6" ry="0" fill="#fff"/><rect transform="matrix(0 1 1 0 0 0)" x="273" y="18" width="2" height="6" ry="0" fill="#fff"/><g transform="matrix(1.5 0 0 1.5 32 -142)" fill="#9f9792"><rect x="16" y="272.67" width="4.667" height="10.667" ry="2.333"/><rect x="27.333" y="272.67" width="4.667" height="10.667" ry="2.333"/><rect x="16" y="269.33" width="16" height="8.667" ry="3"/></g><path fill="#4f4b49" d="M61 264h4v8h-4z"/><path fill="#4f4b49" d="M59 266h8v4h-8z"/><path d="M62 265v2h-2v2h2v2h2v-2h2v-2h-2v-2z" fill="#ebebeb"/><g transform="translate(63.5 -9)" fill="#4f4b49"><rect x="95.5" y="256" width="9" height="32" ry="4.5"/><rect x="128.5" y="256" width="9" height="32" ry="4.5"/><rect x="95.5" y="256" width="42" height="22" ry="4.5"/></g><g transform="translate(57 -12)" fill="#9f9792"><rect x="103" y="260" width="7" height="28" ry="3.5"/><rect x="136" y="260" width="7" height="28" ry="3.5"/><rect x="103" y="260" width="40" height="18" ry="3.5"/></g><rect x="185" y="254" width="4" height="5" ry="2" fill="#4a537f"/><rect x="165" y="250" width="5" height="12" ry="0" fill="#4f4b49"/><path fill="#4f4b49" d="M162 253h11v6h-11z"/><g transform="translate(9)" fill="#fff"><rect x="157" y="251" width="3" height="9" ry="0"/><rect transform="rotate(90)" x="254" y="-163" width="3" height="9" ry="0"/></g><circle cx="187" cy="256" r="1" fill="#94a6ff"/><rect x="193" y="254" width="4" height="5" ry="2" fill="#7f3c1f"/><circle cx="195" cy="256" r="1" fill="#ff793e"/><rect x="189" y="250" width="4" height="5" ry="2" fill="#7f6728"/><circle transform="rotate(90)" cx="252" cy="-191" r="1" fill="#ffce51"/><rect x="189" y="258" width="4" height="5" ry="2" fill="#396247"/><circle transform="rotate(90)" cx="260" cy="-191" r="1" fill="#73c48f"/><path d="M19 269.5a2.495 2.495 0 0 0-2.5 2.5v9c0 1.385 1.115 2.5 2.5 2.5s2.5-1.115 2.5-2.5v-2.5h5v2.5c0 1.385 1.115 2.5 2.5 2.5s2.5-1.115 2.5-2.5v-9c0-1.385-1.115-2.5-2.5-2.5z" fill="none" stroke="#000" stroke-linecap="square" stroke-opacity=".5"/><path d="M60.5 262.502c-2.215 0-4 1.784-4 4v13c0 1.662 1.339 3 3 3 1.663 0 3-1.338 3-3v-5h11v5c0 1.662 1.339 3 3 3 1.663 0 3-1.338 3-3v-13c0-2.216-1.783-4-4-4z" stroke-linecap="square" fill="none" stroke="#000" stroke-opacity=".5"/><path d="M106 259c-2.216 0-4 1.784-4 4v15c0 2.216 1.784 4 4 4s4-1.784 4-4v-4h12v4c0 2.216 1.784 4 4 4s4-1.784 4-4v-15c0-2.216-1.784-4-4-4z" fill="#4f4b49"/><g fill="#9f9792"><rect x="103" y="260" width="6" height="20" ry="3"/><rect x="123" y="260" width="6" height="20" ry="3"/><rect x="103" y="260" width="26" height="12" ry="3"/></g><path fill="#4f4b49" d="M107 261h4v8h-4z"/><path fill="#4f4b49" d="M105 263h8v4h-8z"/><path d="M108 262v2h-2v2h2v2h2v-2h2v-2h-2v-2z" fill="#ebebeb"/><rect x="177" y="254" width="6" height="5" ry="2" fill="#4f4b49"/><rect x="178" y="255" width="4" height="2" ry="1" fill="#fff"/><g transform="matrix(1.5 0 0 1.5 84.75 -150)" fill="#4f4b49"><rect x="95.5" y="256" width="9.333" height="31.333" ry="4.333"/><rect x="123.5" y="256.67" width="9.333" height="30.667" ry="4.667"/><rect x="95.5" y="256" width="37.333" height="20.667" ry="4.333"/></g><g transform="matrix(1.5 0 0 1.5 74.5 -155)" fill="#9f9792"><rect x="103" y="260" width="8" height="28.667" ry="3.667"/><rect x="131" y="260" width="8" height="28.667" ry="4"/><rect x="103" y="260" width="36" height="18" ry="4"/></g><rect x="250" y="245" width="9" height="6" ry="2.5" fill="#4f4b49"/><rect x="235" y="239" width="6" height="17" ry="0" fill="#4f4b49"/><path fill="#4f4b49" d="M230 244h16v7h-16z"/><g transform="translate(-3)"><g transform="matrix(1.5 0 0 1.5 3.5 -136)" fill="#fff"><rect x="157" y="250.67" width="2.667" height="9.333" ry="0"/><rect transform="rotate(90)" x="254" y="-163" width="2.667" height="9.333" ry="0"/></g><rect x="267" y="245" width="5" height="6" ry="2.5" fill="#4a537f"/><circle cx="269.5" cy="247.5" r="1.5" fill="#94a6ff"/><rect x="279" y="245" width="5" height="6" ry="2.5" fill="#7f3c1f"/><circle cx="281.5" cy="247.5" r="1.5" fill="#ff793e"/><rect x="273" y="239" width="5" height="6" ry="2.5" fill="#7f6728"/><circle transform="rotate(90)" cx="241.5" cy="-275.5" r="1.5" fill="#ffce51"/><rect x="273" y="251" width="5" height="6" ry="2.5" fill="#396247"/><circle transform="rotate(90)" cx="253.5" cy="-275.5" r="1.5" fill="#73c48f"/><rect x="254" y="246" width="7" height="3" ry="1.5" fill="#fff"/></g><g transform="matrix(3 0 0 3 33.5 -584)" fill="#4f4b49"><rect x="95.5" y="256" width="9" height="30.667" ry="4.333"/><rect x="123.83" y="256" width="9" height="31" ry="4.5"/><rect x="95.5" y="256" width="37.333" height="20" ry="4.333"/></g><g transform="matrix(3 0 0 3 13 -594)" fill="#9f9792"><rect x="102.67" y="259.67" width="8.333" height="29" ry="4.167"/><rect x="131" y="260" width="8.333" height="29" ry="4.167"/><rect x="102.67" y="259.67" width="36.667" height="18.333" ry="4.167"/></g><g fill="#4f4b49"><rect x="335" y="195" width="10" height="31" ry="0"/><path d="M325 205h30v11h-30z"/></g><g transform="matrix(3 0 0 3 -135 -556)" fill="#fff"><rect x="157" y="250.67" width="2.667" height="9.333" ry="0"/><rect transform="rotate(90)" x="254" y="-163" width="2.667" height="9.333" ry="0"/></g><g transform="matrix(2 0 0 2 -142 -284)"><rect x="267" y="245" width="5" height="5.5" ry="2.5" fill="#4a537f"/><circle cx="269.5" cy="247.5" r="2" fill="#94a6ff"/><rect x="279" y="245" width="5" height="5.5" ry="2.5" fill="#7f3c1f"/><circle cx="281.5" cy="247.5" r="2" fill="#ff793e"/><rect x="273" y="239" width="5" height="5.5" ry="2.5" fill="#7f6728"/><circle transform="rotate(90)" cx="241.5" cy="-275.5" r="2" fill="#ffce51"/><rect x="273" y="251" width="5" height="5.5" ry="2.5" fill="#396247"/><circle transform="rotate(90)" cx="253.5" cy="-275.5" r="2" fill="#73c48f"/></g><rect x="365" y="207" width="16" height="9" ry="4" fill="#4f4b49"/><rect x="366" y="208" width="14" height="6" ry="3" fill="#fff"/><g transform="matrix(6 0 0 6 -93 -1452)" fill="#4f4b49"><rect x="95.5" y="256" width="9" height="30.667" ry="4.333"/><rect x="123.83" y="256" width="9" height="31" ry="4.5"/><rect x="95.5" y="256" width="37.333" height="20" ry="4.333"/></g><g transform="matrix(6 0 0 6 -134 -1472)" fill="#9f9792"><rect x="102.67" y="259.67" width="8.333" height="29" ry="4.167"/><rect x="131" y="260" width="8.333" height="29" ry="4.167"/><rect x="102.67" y="259.67" width="36.667" height="18.333" ry="4.167"/></g><g transform="matrix(2 0 0 2 -160 -284)"><g fill="#4f4b49"><rect x="335" y="195" width="10" height="31" ry="0"/><path d="M325 205h30v11h-30z"/></g><g transform="matrix(3 0 0 3 -135 -556)" fill="#fff"><rect x="157" y="250.67" width="2.667" height="9.333" ry="0"/><rect transform="rotate(90)" x="254" y="-163" width="2.667" height="9.333" ry="0"/></g><g transform="matrix(2 0 0 2 -142 -284)"><rect x="267" y="245" width="5" height="5.5" ry="2.5" fill="#4a537f"/><circle cx="269.5" cy="247.5" r="2" fill="#94a6ff"/><rect x="279" y="245" width="5" height="5.5" ry="2.5" fill="#7f3c1f"/><circle cx="281.5" cy="247.5" r="2" fill="#ff793e"/><rect x="273" y="239" width="5" height="5.5" ry="2.5" fill="#7f6728"/><circle transform="rotate(90)" cx="241.5" cy="-275.5" r="2" fill="#ffce51"/><rect x="273" y="251" width="5" height="5.5" ry="2.5" fill="#396247"/><circle transform="rotate(90)" cx="253.5" cy="-275.5" r="2" fill="#73c48f"/></g><rect x="365" y="207" width="16" height="9" ry="4" fill="#4f4b49"/><rect x="366" y="208" width="14" height="6" ry="3" fill="#fff"/></g><path d="M123.5 261.5a1 1 0 0 0-1 1 1 1 0 0 0 1 1 1 1 0 0 0 1-1 1 1 0 0 0-1-1z" fill="#ffce51" stroke="#7f6728" stroke-linecap="round"/><path d="M120.5 264.5a1 1 0 0 0-1 1 1 1 0 0 0 1 1 1 1 0 0 0 1-1 1 1 0 0 0-1-1z" fill="#94a6ff" stroke="#4a537f" stroke-linecap="round"/><path d="M126.5 264.5a1 1 0 0 0-1 1 1 1 0 0 0 1 1 1 1 0 0 0 1-1 1 1 0 0 0-1-1z" fill="#ff793e" stroke="#7f3c1f" stroke-linecap="round"/><path d="M123.5 267.5a1 1 0 0 0-1 1 1 1 0 0 0 1 1 1 1 0 0 0 1-1 1 1 0 0 0-1-1z" fill="#73c48f" stroke="#396247" stroke-linecap="round"/><rect x="120" y="265" width="1" height="1" ry="0" fill="#94a6ff"/><path fill="#ffce51" d="M123 262h1v1h-1z"/><path fill="#ff793e" d="M126 265h1v1h-1z"/><path fill="#73c48f" d="M123 268h1v1h-1z"/><g transform="translate(-50 3)"><path d="M123.5 261.5a1 1 0 0 0-1 1 1 1 0 0 0 1 1 1 1 0 0 0 1-1 1 1 0 0 0-1-1z" fill="#ffce51" stroke="#7f6728" stroke-linecap="round"/><path d="M120.5 264.5a1 1 0 0 0-1 1 1 1 0 0 0 1 1 1 1 0 0 0 1-1 1 1 0 0 0-1-1z" fill="#94a6ff" stroke="#4a537f" stroke-linecap="round"/><path d="M126.5 264.5a1 1 0 0 0-1 1 1 1 0 0 0 1 1 1 1 0 0 0 1-1 1 1 0 0 0-1-1z" fill="#ff793e" stroke="#7f3c1f" stroke-linecap="round"/><path d="M123.5 267.5a1 1 0 0 0-1 1 1 1 0 0 0 1 1 1 1 0 0 0 1-1 1 1 0 0 0-1-1z" fill="#73c48f" stroke="#396247" stroke-linecap="round"/><rect x="120" y="265" width="1" height="1" ry="0" fill="#94a6ff"/><path fill="#ffce51" d="M123 262h1v1h-1z"/><path fill="#ff793e" d="M126 265h1v1h-1z"/><path fill="#73c48f" d="M123 268h1v1h-1z"/></g><g transform="translate(-96 9)"><path d="M123.5 261.5a1 1 0 0 0-1 1 1 1 0 0 0 1 1 1 1 0 0 0 1-1 1 1 0 0 0-1-1z" fill="#ffce51" stroke="#7f6728" stroke-linecap="round"/><path d="M121.5 264.5a1 1 0 0 0-1 1 1 1 0 0 0 1 1 1 1 0 0 0 1-1 1 1 0 0 0-1-1z" fill="#94a6ff" stroke="#4a537f" stroke-linecap="round"/><path d="M125.5 264.5a1 1 0 0 0-1 1 1 1 0 0 0 1 1 1 1 0 0 0 1-1 1 1 0 0 0-1-1z" fill="#ff793e" stroke="#7f3c1f" stroke-linecap="round"/><path d="M123.5 267a1 1 0 0 0-1 1 1 1 0 0 0 1 1 1 1 0 0 0 1-1 1 1 0 0 0-1-1z" fill="#73c48f" stroke="#396247" stroke-linecap="round"/><rect x="121" y="265" width="1" height="1" ry="0" fill="#94a6ff"/><path fill="#ffce51" d="M123 262h1v1h-1z"/><path fill="#ff793e" d="M125 265h1v1h-1z"/><path fill="#73c48f" d="M123 267.5h1v1h-1z"/></g></g></svg>