<svg version="1.0" viewBox="0 0 48 48" xmlns="http://www.w3.org/2000/svg"><g transform="translate(-156 -236)"><rect x="167" y="238" width="26" height="44" ry="13" fill="#98989d"/><path d="M180 238c-7.202 0-13 5.798-13 13v18c0 7.202 5.798 13 13 13s13-5.798 13-13v-18c0-7.202-5.798-13-13-13zm0 1c6.648 0 12 5.352 12 12v16c0 6.648-5.352 12-12 12s-12-5.352-12-12v-16c0-6.648 5.352-12 12-12z" fill-opacity=".5"/><path d="M180 238v44c7.202 0 13-5.798 13-13v-18c0-7.202-5.798-13-13-13z" fill="#fff" fill-opacity=".2"/><rect x="177" y="242" width="6" height="17" ry="3" fill="#fff" fill-opacity=".4"/><rect x="178" y="244" width="4" height="14" ry="2" fill="#343434"/></g></svg>