<svg version="1.0" viewBox="0 0 48 48" xmlns="http://www.w3.org/2000/svg"><g transform="translate(-156 -236)"><rect x="159" y="247" width="42" height="33" ry="3" fill="#aaa"/><path d="M159 268v9c0 1.662 1.338 3 3 3h36c1.662 0 3-1.338 3-3v-9h-39z" fill="#dedede"/><path d="M180 268v12" fill="none" opacity=".5" stroke="#000" stroke-width="2"/><path d="M162 247c-1.662 0-3 1.338-3 3v27c0 1.662 1.338 3 3 3h36c1.662 0 3-1.338 3-3v-27c0-1.662-1.338-3-3-3zm0 1h36c1.108 0 2 .892 2 2v25c0 1.108-.892 2-2 2h-36c-1.108 0-2-.892-2-2v-25c0-1.108.892-2 2-2z" fill-opacity=".502"/></g></svg>