<svg version="1.0" viewBox="0 0 48 48" xmlns="http://www.w3.org/2000/svg"><g transform="translate(-156 -236)"><path d="M180 238c-12.188 0-22 9.812-22 22v2c0 12.188 9.812 22 22 22s22-9.812 22-22v-2c0-12.188-9.812-22-22-22z" fill="#cdcdcd"/><path d="M180 238c-12.188 0-22 9.812-22 22v2c0 12.188 9.812 22 22 22s22-9.812 22-22v-2c0-12.188-9.812-22-22-22zm0 1a21 21 0 0 1 21 21 21 21 0 0 1-21 21 21 21 0 0 1-21-21 21 21 0 0 1 21-21z" fill-opacity=".5"/><circle cx="180" cy="260" r="8.5" fill="none" stroke="#000" stroke-linecap="square" stroke-opacity=".5"/><circle cx="180" cy="260" r="8" fill-opacity=".2"/><circle cx="180" cy="260" r="3" fill-opacity=".8"/></g></svg>