<svg version="1.0" viewBox="0 0 48 48" xmlns="http://www.w3.org/2000/svg"><g transform="translate(-156 -236)"><path d="M163 240c-1.662 0-3 1.338-3 3v32l4 4h36v-36c0-1.662-1.338-3-3-3z" fill="#4d4d4d"/><path d="M172 265h21s1 0 1 1v10h-22z" opacity=".1"/><path d="M169 265c-1 0-1 1-1 1v13h20v-13c0-1-1-1-1-1zm3 1h6v10h-6z" fill="#ececec"/><path d="M164 240v19c0 2 2 2 2 2h28s2 0 2-2v-19z" fill="#333"/><rect x="168" y="276" width="20" height="3" ry="0" fill-opacity=".502"/><path d="M163 240c-1.662 0-3 1.338-3 3v32l4 4h36v-36c0-1.662-1.338-3-3-3zm0 1h34c1.108 0 2 .892 2 2v33h-34l-4-4v-29c0-1.108.892-2 2-2z" fill="#fff" fill-opacity=".502"/></g></svg>