<svg version="1.0" viewBox="0 0 48 48" xmlns="http://www.w3.org/2000/svg"><g transform="translate(-156 -236)"><rect x="164" y="239" width="32" height="42" ry="3" fill="#545454"/><rect x="167" y="242" width="26" height="17" ry="0" fill="#222"/><rect x="171" y="261" width="5" height="6" ry="2.5" fill="#222"/><rect x="184" y="261" width="5" height="6" ry="2.5" fill="#222"/><path d="M173.5 261a2.495 2.495 0 0 0-2.5 2.5v1c0 1.385 1.115 2.5 2.5 2.5s2.5-1.115 2.5-2.5v-1c0-1.385-1.115-2.5-2.5-2.5zm0 2c.831 0 1.5.669 1.5 1.5s-.669 1.5-1.5 1.5-1.5-.669-1.5-1.5.669-1.5 1.5-1.5z" fill="#fff" fill-opacity=".5"/><rect x="184" y="270" width="5" height="6" ry="2.5" fill="#222"/><path d="M186.5 261a2.495 2.495 0 0 0-2.5 2.5v1c0 1.385 1.115 2.5 2.5 2.5s2.5-1.115 2.5-2.5v-1c0-1.385-1.115-2.5-2.5-2.5zm0 2c.831 0 1.5.669 1.5 1.5s-.669 1.5-1.5 1.5-1.5-.669-1.5-1.5.669-1.5 1.5-1.5z" fill="#fff" fill-opacity=".5"/><rect x="171" y="270" width="5" height="6" ry="2.5" fill="#222"/><path d="M186.5 270a2.495 2.495 0 0 0-2.5 2.5v1c0 1.385 1.115 2.5 2.5 2.5s2.5-1.115 2.5-2.5v-1c0-1.385-1.115-2.5-2.5-2.5zm0 2c.831 0 1.5.669 1.5 1.5s-.669 1.5-1.5 1.5-1.5-.669-1.5-1.5.669-1.5 1.5-1.5z" fill="#fff" fill-opacity=".5"/><path d="M173.5 270a2.495 2.495 0 0 0-2.5 2.5v1c0 1.385 1.115 2.5 2.5 2.5s2.5-1.115 2.5-2.5v-1c0-1.385-1.115-2.5-2.5-2.5zm0 2c.831 0 1.5.669 1.5 1.5s-.669 1.5-1.5 1.5-1.5-.669-1.5-1.5.669-1.5 1.5-1.5z" fill="#fff" fill-opacity=".5"/><path d="M176.03 245.18a1 1 0 0 0-.996.941h-.002v.026l-.002.033c0 .023 0 .047.002.07l-.002 8.576a1 1 0 0 0 1 1 1 1 0 0 0 .422-.095l.002.002.025-.014.004-.002a1 1 0 0 0 .088-.049l7.846-4.271.01-.004v-.002a1 1 0 0 0 .033-1.752l-.018-.01-.004-.002-7.923-4.322h-.002a1.01 1.01 0 0 0-.483-.125z" fill="#ededed" fill-opacity=".8"/><path d="M167 239c-1.662 0-3 1.338-3 3v36c0 1.662 1.338 3 3 3h26c1.662 0 3-1.338 3-3v-36c0-1.662-1.338-3-3-3zm0 1h26c1.108 0 2 .892 2 2v34c0 1.108-.892 2-2 2h-26c-1.108 0-2-.892-2-2v-34c0-1.108.892-2 2-2z" fill="#fff" fill-opacity=".502"/></g></svg>