<svg version="1.0" viewBox="0 0 48 48" xmlns="http://www.w3.org/2000/svg"><g transform="translate(-156 664)"><rect x="179" y="-645" width="23" height="10" ry="2" fill="#479863"/><rect x="189" y="-644.5" width="9" height="16.5" ry="4.5" fill="#479863"/><rect x="158" y="-653" width="27" height="28" ry="13.5" fill="#479863"/><path d="M171.5-653a13.47 13.47 0 0 0-13.5 13.5v1a13.47 13.47 0 0 0 13.5 13.5 13.457 13.457 0 0 0 13.029-10h4.47v2.5c0 2.493 2.008 4.5 4.5 4.5s4.5-2.007 4.5-4.5v-2.5h2c1.109 0 2-.892 2-2v-6c0-1.108-.891-2-2-2h-16.171c-2.1-4.72-6.813-8-12.328-8zm-.5 1h1c5.242 0 9.667 3.333 11.309 8H200c.554 0 1 .446 1 1v4c0 .554-.446 1-1 1h-3v3.5c0 1.939-1.561 3.5-3.5 3.5s-3.5-1.561-3.5-3.5v-3.5h-6.178A11.963 11.963 0 0 1 172-628h-1c-6.648 0-12-5.352-12-12s5.352-12 12-12z" fill-opacity=".5"/><circle cx="171.5" cy="-640" r="6" fill="#a2f3be"/></g></svg>