<svg version="1.0" viewBox="0 0 48 48" xmlns="http://www.w3.org/2000/svg"><g stroke-linecap="square" stroke-width="1.5" transform="translate(-156 -236)"><rect x="160" y="267" width="40" height="12" ry="3" fill="#444"/><rect transform="rotate(45)" x="308.21" y="70.453" width="3" height="9" ry="1.5"/><rect transform="rotate(45)" x="313.34" y="65.327" width="3" height="9" ry="1.5"/><rect transform="rotate(45)" x="318.47" y="60.2" width="3" height="9" ry="1.5"/><circle cx="187.5" cy="272.5" r="1.5" fill="#73c48f"/><circle cx="191.5" cy="272.5" r="1.5" fill="#f15d22"/><circle cx="195.5" cy="272.5" r="1.5" fill="#faa41a"/><path d="M163 267c-1.662 0-3 1.338-3 3v6c0 1.662 1.338 3 3 3h34c1.662 0 3-1.338 3-3v-6c0-1.662-1.338-3-3-3zm0 1h34c1.108 0 2 .892 2 2v4c0 1.108-.892 2-2 2h-34c-1.108 0-2-.892-2-2v-4c0-1.108.892-2 2-2z" fill="#f8f8f8" fill-opacity=".5"/><g transform="translate(0 -11)"><rect x="160" y="267" width="40" height="12" ry="3" fill="#444"/><rect transform="rotate(45)" x="308.21" y="70.453" width="3" height="9" ry="1.5"/><rect transform="rotate(45)" x="313.34" y="65.327" width="3" height="9" ry="1.5"/><rect transform="rotate(45)" x="318.47" y="60.2" width="3" height="9" ry="1.5"/><circle cx="187.5" cy="272.5" r="1.5" fill="#73c48f"/><circle cx="191.5" cy="272.5" r="1.5" fill="#f15d22"/><circle cx="195.5" cy="272.5" r="1.5" fill="#faa41a"/><path d="M163 267c-1.662 0-3 1.338-3 3v6c0 1.662 1.338 3 3 3h34c1.662 0 3-1.338 3-3v-6c0-1.662-1.338-3-3-3zm0 1h34c1.108 0 2 .892 2 2v4c0 1.108-.892 2-2 2h-34c-1.108 0-2-.892-2-2v-4c0-1.108.892-2 2-2z" fill="#f8f8f8" fill-opacity=".5"/></g><g transform="translate(0 -22)"><rect x="160" y="267" width="40" height="12" ry="3" fill="#444"/><rect transform="rotate(45)" x="308.21" y="70.453" width="3" height="9" ry="1.5"/><rect transform="rotate(45)" x="313.34" y="65.327" width="3" height="9" ry="1.5"/><rect transform="rotate(45)" x="318.47" y="60.2" width="3" height="9" ry="1.5"/><circle cx="187.5" cy="272.5" r="1.5" fill="#73c48f"/><circle cx="191.5" cy="272.5" r="1.5" fill="#f15d22"/><circle cx="195.5" cy="272.5" r="1.5" fill="#faa41a"/><path d="M163 267c-1.662 0-3 1.338-3 3v6c0 1.662 1.338 3 3 3h34c1.662 0 3-1.338 3-3v-6c0-1.662-1.338-3-3-3zm0 1h34c1.108 0 2 .892 2 2v4c0 1.108-.892 2-2 2h-34c-1.108 0-2-.892-2-2v-4c0-1.108.892-2 2-2z" fill="#f8f8f8" fill-opacity=".5"/></g></g></svg>