<svg version="1.0" viewBox="0 0 48 48" xmlns="http://www.w3.org/2000/svg"><g transform="translate(-156 1564)"><rect x="160" y="-1560" width="40" height="39" ry="3" fill="#cf3b00"/><path d="M163-1560c-1.662 0-3 1.338-3 3v33c0 1.662 1.338 3 3 3h34c1.662 0 3-1.338 3-3v-33c0-1.662-1.338-3-3-3zm0 1h34c1.108 0 2 .892 2 2v31c0 1.108-.892 2-2 2h-34c-1.108 0-2-.892-2-2v-31c0-1.108.892-2 2-2z" fill-opacity=".5"/><path d="M163-1559c-.554 0-1 .446-1 1v7c0 .554.446 1 1 1h10c.554 0 1-.446 1-1v-7c0-.554-.446-1-1-1zm1 2h8c.554 0 1 .446 1 1v4c0 .554-.446 1-1 1h-8c-.554 0-1-.446-1-1v-4c0-.554.446-1 1-1z" fill="#fff" fill-opacity=".5"/><path d="M175-1559c-.554 0-1 .446-1 1v7c0 .554.446 1 1 1h10c.554 0 1-.446 1-1v-7c0-.554-.446-1-1-1zm1 2h8c.554 0 1 .446 1 1v4c0 .554-.446 1-1 1h-8c-.554 0-1-.446-1-1v-4c0-.554.446-1 1-1z" fill="#fff" fill-opacity=".5"/><path d="M187-1559c-.554 0-1 .446-1 1v7c0 .554.446 1 1 1h10c.554 0 1-.446 1-1v-7c0-.554-.446-1-1-1zm1 2h8c.554 0 1 .446 1 1v4c0 .554-.446 1-1 1h-8c-.554 0-1-.446-1-1v-4c0-.554.446-1 1-1z" fill="#fff" fill-opacity=".5"/><path d="M169-1550c-.554 0-1 .446-1 1v7c0 .554.446 1 1 1h10c.554 0 1-.446 1-1v-7c0-.554-.446-1-1-1zm1 2h8c.554 0 1 .446 1 1v4c0 .554-.446 1-1 1h-8c-.554 0-1-.446-1-1v-4c0-.554.446-1 1-1z" fill="#fff" fill-opacity=".5"/><path d="M181-1550c-.554 0-1 .446-1 1v7c0 .554.446 1 1 1h10c.554 0 1-.446 1-1v-7c0-.554-.446-1-1-1zm1 2h8c.554 0 1 .446 1 1v4c0 .554-.446 1-1 1h-8c-.554 0-1-.446-1-1v-4c0-.554.446-1 1-1z" fill="#fff" fill-opacity=".5"/><path d="M163-1541c-.554 0-1 .446-1 1v6c0 .554.446 1 1 1h10c.554 0 1-.446 1-1v-6c0-.554-.446-1-1-1zm1 2h8c.554 0 1 .446 1 1v3c0 .554-.446 1-1 1h-8c-.554 0-1-.446-1-1v-3c0-.554.446-1 1-1z" fill="#fff" fill-opacity=".5"/><path d="M175-1541c-.554 0-1 .446-1 1v6c0 .554.446 1 1 1h10c.554 0 1-.446 1-1v-6c0-.554-.446-1-1-1zm1 2h8c.554 0 1 .446 1 1v3c0 .554-.446 1-1 1h-8c-.554 0-1-.446-1-1v-3c0-.554.446-1 1-1z" fill="#fff" fill-opacity=".5"/><path d="M187-1541c-.554 0-1 .446-1 1v6c0 .554.446 1 1 1h10c.554 0 1-.446 1-1v-6c0-.554-.446-1-1-1zm1 2h8c.554 0 1 .446 1 1v3c0 .554-.446 1-1 1h-8c-.554 0-1-.446-1-1v-3c0-.554.446-1 1-1z" fill="#fff" fill-opacity=".5"/><path d="M169-1533c-.554 0-1 .446-1 1v7c0 .554.446 1 1 1h10c.554 0 1-.446 1-1v-7c0-.554-.446-1-1-1zm1 2h8c.554 0 1 .446 1 1v4c0 .554-.446 1-1 1h-8c-.554 0-1-.446-1-1v-4c0-.554.446-1 1-1z" fill="#fff" fill-opacity=".5"/><path d="M181-1533c-.554 0-1 .446-1 1v7c0 .554.446 1 1 1h10c.554 0 1-.446 1-1v-7c0-.554-.446-1-1-1zm1 2h8c.554 0 1 .446 1 1v4c0 .554-.446 1-1 1h-8c-.554 0-1-.446-1-1v-4c0-.554.446-1 1-1z" fill="#fff" fill-opacity=".5"/><path d="M193-1550c-.554 0-1 .446-1 1v7c0 .554.446 1 1 1h5c.554 0 1-.446 1-1v-7c0-.554-.446-1-1-1zm1 2h3c.554 0 1 .446 1 1v4c0 .554-.446 1-1 1h-3c-.554 0-1-.446-1-1v-4c0-.554.446-1 1-1z" fill="#fff" fill-opacity=".5"/><path d="M193-1533c-.554 0-1 .446-1 1v7c0 .554.446 1 1 1h5c.554 0 1-.446 1-1v-7c0-.554-.446-1-1-1zm1 2h3c.554 0 1 .446 1 1v4c0 .554-.446 1-1 1h-3c-.554 0-1-.446-1-1v-4c0-.554.446-1 1-1z" fill="#fff" fill-opacity=".5"/><path d="M162-1533c-.554 0-1 .446-1 1v7c0 .554.446 1 1 1h5c.554 0 1-.446 1-1v-7c0-.554-.446-1-1-1zm1 2h3c.554 0 1 .446 1 1v4c0 .554-.446 1-1 1h-3c-.554 0-1-.446-1-1v-4c0-.554.446-1 1-1z" fill="#fff" fill-opacity=".5"/><path d="M162-1550c-.554 0-1 .446-1 1v7c0 .554.446 1 1 1h5c.554 0 1-.446 1-1v-7c0-.554-.446-1-1-1zm1 2h3c.554 0 1 .446 1 1v4c0 .554-.446 1-1 1h-3c-.554 0-1-.446-1-1v-4c0-.554.446-1 1-1z" fill="#fff" fill-opacity=".5"/></g></svg>