<svg version="1.0" viewBox="0 0 48 48" xmlns="http://www.w3.org/2000/svg"><path d="M6 11c-1.662 0-3 1.338-3 3v24c0 1.662 1.338 3 3 3h6l4 4h16l4-4h6c1.662 0 3-1.338 3-3V14c0-1.662-1.338-3-3-3z" fill="#dedede"/><path d="M163 251v20h7.484l4 4h11.031l4-4H197v-20z" color="#000" fill="#4d4d4d" style="isolation:auto;mix-blend-mode:normal;text-decoration-color:#000;text-decoration-line:none;text-decoration-style:solid;text-indent:0;text-transform:none;white-space:normal" transform="translate(-156 -236)"/><path fill="#d1a023" d="M25 15h2v6h-2z"/><path fill="#d1a023" d="M21 15h2v6h-2z"/><path fill="#d1a023" d="M29 15h2v6h-2z"/><path fill="#d1a023" d="M33 15h2v6h-2z"/><path fill="#d1a023" d="M17 15h2v6h-2z"/><path d="M6 11c-1.662 0-3 1.338-3 3v24c0 1.662 1.338 3 3 3h6l4 4h16l4-4h6c1.662 0 3-1.338 3-3V14c0-1.662-1.338-3-3-3zm0 1h36c1.108 0 2 .892 2 2v22c0 1.108-.892 2-2 2h-6l-4 4H16l-4-4H6c-1.108 0-2-.892-2-2V14c0-1.108.892-2 2-2z" fill-opacity=".5"/><path fill="#d1a023" d="M13 15h2v6h-2z"/><path fill="#d1a023" d="M37 15h2v6h-2z"/><path fill="#d1a023" d="M9 15h2v6H9z"/></svg>