<svg version="1.0" viewBox="0 0 48 48" xmlns="http://www.w3.org/2000/svg"><g transform="translate(-156 -236)"><rect x="164" y="239" width="32" height="42" ry="3" fill="#545454"/><rect x="168" y="243" width="24" height="32" ry="0" fill="#222"/><path d="M183.5 249c-.831 0-1.5.669-1.5 1.5v3.5l2.282 2.282a10.5 10.5 0 0 1-5.991 6.009L176 260h-3.5c-.831 0-1.5.669-1.5 1.5v4c0 .831.669 1.5 1.5 1.5h2c8.284 0 14.5-6.216 14.5-14.5v-2c0-.831-.669-1.5-1.5-1.5z" fill="#ededed" fill-opacity=".8" filter="url(#filter7554)"/><path d="M167 239c-1.662 0-3 1.338-3 3v36c0 1.662 1.338 3 3 3h26c1.662 0 3-1.338 3-3v-36c0-1.662-1.338-3-3-3zm0 1h26c1.108 0 2 .892 2 2v34c0 1.108-.892 2-2 2h-26c-1.108 0-2-.892-2-2v-34c0-1.108.892-2 2-2z" fill="#fff" fill-opacity=".502"/></g></svg>