<svg version="1.0" viewBox="0 0 48 48" xmlns="http://www.w3.org/2000/svg"><g transform="translate(-156 1564)"><rect x="167" y="-1561" width="27" height="10" ry="1.5" fill="#dedede"/><path d="M168.5-1561c-.831 0-1.5.669-1.5 1.5v13.5c0 .654.418 1.202 1 1.408v-14.908c0-.277.223-.5.5-.5h24c.277 0 .5.223.5.5v14.908c.582-.206 1-.754 1-1.408v-13.5c0-.831-.669-1.5-1.5-1.5z" fill="#010101" fill-opacity=".5"/><rect x="160" y="-1551" width="40" height="20" ry="3" fill="#474341"/><path d="M163-1551c-1.662 0-3 1.338-3 3v14c0 1.662 1.338 3 3 3h34c1.662 0 3-1.338 3-3v-14c0-1.662-1.338-3-3-3zm0 1h34c1.108 0 2 .892 2 2v12c0 1.108-.892 2-2 2h-34c-1.108 0-2-.892-2-2v-12c0-1.108.892-2 2-2z" fill="#fff" fill-opacity=".5"/><rect x="167" y="-1540" width="27" height="21" ry="1.5" fill="#dedede"/><circle cx="166.25" cy="-1545.5" r="1.5" fill="#73c48f"/><path d="M168-1539.9c-.582.206-1 .754-1 1.408v18c0 .831.669 1.5 1.5 1.5h24c.831 0 1.5-.669 1.5-1.5v-18c0-.654-.418-1.202-1-1.408v17.408c0 .277-.223.5-.5.5h-24a.499.499 0 0 1-.5-.5z" fill="#010101" fill-opacity=".5"/><path d="M168-1536v2a12 12 0 0 1 12 12h2a14 14 0 0 0-14-14zm0 4v2a8 8 0 0 1 8 8h2a10 10 0 0 0-10-10zm0 4v2a4 4 0 0 1 4 4h2a6 6 0 0 0-6-6zm0 4v1.5c0 .277.223.5.5.5h1.5a2 2 0 0 0-2-2z" opacity=".7"/></g></svg>