<svg version="1.0" viewBox="0 0 48 48" xmlns="http://www.w3.org/2000/svg"><g stroke-linecap="square" stroke-width="1.5" transform="translate(-156 -236)"><rect x="164" y="239" width="33" height="42" ry="3" fill="#444"/><rect x="168" y="243" width="25" height="32" ry="0" fill="#ededed"/><path d="M167 239c-1.662 0-3 1.338-3 3v36c0 1.662 1.338 3 3 3h27c1.662 0 3-1.338 3-3v-36c0-1.662-1.338-3-3-3zm0 1h27c1.108 0 2 .892 2 2v34c0 1.108-.892 2-2 2h-27c-1.108 0-2-.892-2-2v-34c0-1.108.892-2 2-2z" fill="#fff" fill-opacity=".5"/><rect x="158" y="258" width="45" height="3" ry="1.5" fill="#f15d22"/></g></svg>