<?xml version="1.0" encoding="UTF-8" standalone="no"?>
<!-- Created with Inkscape (http://www.inkscape.org/) -->

<svg
   xmlns:dc="http://purl.org/dc/elements/1.1/"
   xmlns:cc="http://creativecommons.org/ns#"
   xmlns:rdf="http://www.w3.org/1999/02/22-rdf-syntax-ns#"
   xmlns:svg="http://www.w3.org/2000/svg"
   xmlns="http://www.w3.org/2000/svg"
   xmlns:sodipodi="http://sodipodi.sourceforge.net/DTD/sodipodi-0.dtd"
   xmlns:inkscape="http://www.inkscape.org/namespaces/inkscape"
   inkscape:export-ydpi="90.000000"
   inkscape:export-xdpi="90.000000"
   width="736"
   height="544"
   id="svg11300"
   sodipodi:version="0.32"
   inkscape:version="0.92.3 (2405546, 2018-03-11)"
   sodipodi:docname="applications-games.svg"
   inkscape:output_extension="org.inkscape.output.svg.inkscape"
   version="1.0"
   style="display:inline;enable-background:new"
   inkscape:export-filename="/home/sam/Pop-template.png">
  <title
     id="title3004">Pop Icon Theme</title>
  <sodipodi:namedview
     stroke="#ef2929"
     fill="#f57900"
     id="base"
     pagecolor="#ffffff"
     bordercolor="#666666"
     borderopacity="0.25490196"
     inkscape:pageopacity="0"
     inkscape:pageshadow="2"
     inkscape:zoom="1"
     inkscape:cx="80.571311"
     inkscape:cy="135.2177"
     inkscape:current-layer="g4303"
     showgrid="false"
     inkscape:grid-bbox="true"
     inkscape:document-units="px"
     inkscape:showpageshadow="false"
     inkscape:window-width="1851"
     inkscape:window-height="1371"
     inkscape:window-x="0"
     inkscape:window-y="32"
     width="400px"
     height="300px"
     inkscape:snap-nodes="true"
     inkscape:snap-bbox="true"
     gridtolerance="10000"
     inkscape:object-nodes="true"
     inkscape:snap-grids="true"
     showguides="true"
     inkscape:guide-bbox="true"
     inkscape:window-maximized="0"
     inkscape:bbox-nodes="true"
     inkscape:snap-bbox-edge-midpoints="true"
     inkscape:snap-intersection-paths="false"
     inkscape:object-paths="true"
     inkscape:snap-smooth-nodes="false"
     inkscape:snap-midpoints="true"
     inkscape:snap-global="true">
    <inkscape:grid
       spacingy="1"
       spacingx="1"
       id="grid5883"
       type="xygrid"
       enabled="true"
       visible="true"
       empspacing="4"
       snapvisiblegridlinesonly="true"
       originx="0"
       originy="0" />
    <inkscape:grid
       type="xygrid"
       id="grid11592"
       empspacing="2"
       visible="true"
       enabled="false"
       spacingx="0.5"
       spacingy="0.5"
       color="#ff0000"
       opacity="0.1254902"
       empcolor="#ff0000"
       empopacity="0.25098039"
       snapvisiblegridlinesonly="true"
       originx="0"
       originy="0" />
  </sodipodi:namedview>
  <defs
     id="defs3">
    <clipPath
       clipPathUnits="userSpaceOnUse"
       id="clipPath4327">
      <path
         sodipodi:nodetypes="ccssccccc"
         inkscape:connector-curvature="0"
         id="path4329"
         d="m 143,255 0.13393,5.9448 c 0.13393,0.94481 0.9155,2.65508 2.10245,4.00442 C 146.88326,266.82147 149.29903,268 152,268 l 16,0 6,8 c 3,4 6.38128,0.70711 6,-2 l -1,-19 z"
         style="fill:#828b8f;fill-opacity:1" />
    </clipPath>
    <filter
       inkscape:collect="always"
       style="color-interpolation-filters:sRGB"
       id="filter4429"
       x="-0.0216149"
       width="1.0432298"
       y="-0.026976757"
       height="1.0539535">
      <feGaussianBlur
         inkscape:collect="always"
         stdDeviation="4.0347814"
         id="feGaussianBlur4431" />
    </filter>
    <filter
       inkscape:collect="always"
       style="color-interpolation-filters:sRGB"
       id="filter4347"
       x="-0.039000006"
       width="1.078"
       y="-0.12999994"
       height="1.2599999">
      <feGaussianBlur
         inkscape:collect="always"
         stdDeviation="5.2000035"
         id="feGaussianBlur4349" />
    </filter>
  </defs>
  <metadata
     id="metadata4">
    <rdf:RDF>
      <cc:Work
         rdf:about="">
        <dc:format>image/svg+xml</dc:format>
        <dc:type
           rdf:resource="http://purl.org/dc/dcmitype/StillImage" />
        <dc:creator>
          <cc:Agent>
            <dc:title>Sam Hewitt</dc:title>
          </cc:Agent>
        </dc:creator>
        <dc:source />
        <cc:license
           rdf:resource="http://creativecommons.org/licenses/by-sa/4.0/" />
        <dc:title>Pop Icon Theme</dc:title>
        <dc:subject>
          <rdf:Bag />
        </dc:subject>
        <dc:date />
        <dc:rights>
          <cc:Agent>
            <dc:title />
          </cc:Agent>
        </dc:rights>
        <dc:publisher>
          <cc:Agent>
            <dc:title />
          </cc:Agent>
        </dc:publisher>
        <dc:identifier />
        <dc:relation />
        <dc:language />
        <dc:coverage />
        <dc:description />
        <dc:contributor>
          <cc:Agent>
            <dc:title />
          </cc:Agent>
        </dc:contributor>
      </cc:Work>
      <cc:Work
         rdf:about="">
        <dc:format>image/svg+xml</dc:format>
        <dc:type
           rdf:resource="http://purl.org/dc/dcmitype/StillImage" />
      </cc:Work>
      <cc:License
         rdf:about="http://creativecommons.org/licenses/by-sa/4.0/">
        <cc:permits
           rdf:resource="http://creativecommons.org/ns#Reproduction" />
        <cc:permits
           rdf:resource="http://creativecommons.org/ns#Distribution" />
        <cc:requires
           rdf:resource="http://creativecommons.org/ns#Notice" />
        <cc:requires
           rdf:resource="http://creativecommons.org/ns#Attribution" />
        <cc:permits
           rdf:resource="http://creativecommons.org/ns#DerivativeWorks" />
        <cc:requires
           rdf:resource="http://creativecommons.org/ns#ShareAlike" />
      </cc:License>
    </rdf:RDF>
  </metadata>
  <g
     style="display:inline"
     inkscape:groupmode="layer"
     inkscape:label="Icon"
     id="layer1"
     transform="translate(0,244)">
    <g
       style="display:none"
       inkscape:label="Baseplate"
       id="layer7"
       inkscape:groupmode="layer">
      <text
         y="332.48523"
         xml:space="preserve"
         x="15.006836"
         style="font-style:normal;font-variant:normal;font-weight:normal;font-stretch:normal;line-height:0%;font-family:'DejaVu Sans';-inkscape-font-specification:'DejaVu Sans';display:inline;fill:#000000;fill-opacity:1;stroke:none;enable-background:new"
         inkscape:label="context"
         id="context"><tspan
           style="font-style:normal;font-variant:normal;font-weight:normal;font-stretch:normal;font-size:18px;line-height:1.25;font-family:'DejaVu Sans';-inkscape-font-specification:'DejaVu Sans'"
           y="332.48523"
           x="15.006836"
           sodipodi:role="line"
           id="tspan3933">categories</tspan></text>
      <text
         y="332.48523"
         xml:space="preserve"
         x="142.48828"
         style="font-style:normal;font-variant:normal;font-weight:bold;font-stretch:normal;line-height:0%;font-family:'DejaVu Sans';-inkscape-font-specification:'DejaVu Sans Bold';text-align:start;writing-mode:lr-tb;text-anchor:start;display:inline;fill:#000000;fill-opacity:1;stroke:none;enable-background:new"
         inkscape:label="icon-name"
         id="icon-name"><tspan
           style="font-style:normal;font-variant:normal;font-weight:bold;font-stretch:normal;font-size:18px;line-height:1.25;font-family:'DejaVu Sans';-inkscape-font-specification:'DejaVu Sans Bold'"
           y="332.48523"
           x="142.48828"
           sodipodi:role="line"
           id="tspan3937">applications-games</tspan></text>
      <rect
         style="display:inline;overflow:visible;visibility:visible;fill:#e9e9e9;fill-opacity:1;fill-rule:nonzero;stroke:none;stroke-width:2;marker:none;enable-background:accumulate"
         id="rect16x16"
         width="16"
         height="16"
         x="-32"
         y="268"
         inkscape:label="16x16"
         transform="scale(-1,1)" />
      <rect
         style="display:inline;overflow:visible;visibility:visible;fill:#e9e9e9;fill-opacity:1;fill-rule:nonzero;stroke:none;stroke-width:2;marker:none;enable-background:accumulate"
         id="rect24x24"
         width="24"
         height="24"
         x="-76"
         y="260"
         inkscape:label="24x24"
         transform="scale(-1,1)" />
      <rect
         style="display:inline;overflow:visible;visibility:visible;fill:#e9e9e9;fill-opacity:1;fill-rule:nonzero;stroke:none;stroke-width:2;marker:none;enable-background:accumulate"
         id="rect32x32"
         width="32"
         height="32"
         x="-128"
         y="252"
         inkscape:label="32x32"
         transform="scale(-1,1)" />
      <rect
         inkscape:label="48x48"
         y="236"
         x="-192"
         height="48"
         width="48"
         id="rect48x48"
         style="display:inline;overflow:visible;visibility:visible;fill:#e9e9e9;fill-opacity:1;fill-rule:nonzero;stroke:none;stroke-width:2;marker:none;enable-background:accumulate"
         transform="scale(-1,1)" />
      <rect
         style="display:inline;overflow:visible;visibility:visible;fill:#e9e9e9;fill-opacity:1;fill-rule:nonzero;stroke:none;stroke-width:2;marker:none;enable-background:accumulate"
         id="rect3951"
         width="512"
         height="512"
         x="-720"
         y="-228"
         inkscape:label="48x48"
         transform="scale(-1,1)" />
    </g>
    <g
       inkscape:groupmode="layer"
       id="layer6"
       inkscape:label="Symbols"
       style="display:inline">
      <path
         inkscape:connector-curvature="0"
         id="path4433"
         d="m 352.52608,-150.95624 c -55.7004,0 -97.60912,44.92424 -100.53664,100.5476 l -11.178,212.2512 c -7.04864,41.50352 33.20992,67.7124 67.03536,22.34512 l 59.77288,-89.65392 c 2.39648,0.1696 4.81063,0.257488 7.25152,0.2848 l 178.73904,0 67.0244,89.3696 c 33.51408,44.68544 71.2948,7.89696 67.03544,-22.3452 L 676.492,-50.40824 c 0,-55.70056 -44.83616,-100.54768 -100.53664,-100.54768 l -223.42928,0 z"
         style="opacity:0.1;fill:#000000;fill-opacity:1;stroke:#000000;stroke-width:8;stroke-miterlimit:4;stroke-dasharray:none;stroke-opacity:1;filter:url(#filter4429)"
         sodipodi:nodetypes="cccccsccccscc" />
      <path
         style="opacity:0.2;fill:#000000;fill-opacity:1;filter:url(#filter4429)"
         d="m 352.52608,-150.95624 c -55.7004,0 -97.60912,44.92424 -100.53664,100.5476 l -11.178,212.2512 c -7.04864,41.50352 33.20992,67.7124 67.03536,22.34512 l 59.77288,-89.65392 c 2.39648,0.1696 4.81063,0.257488 7.25152,0.2848 h 178.73904 l 67.0244,89.3696 c 33.51408,44.68544 71.2948,7.89696 67.03544,-22.3452 L 676.492,-50.40824 c 0,-55.70056 -44.83616,-100.54768 -100.53664,-100.54768 H 352.52608 Z"
         id="path4598"
         inkscape:connector-curvature="0"
         sodipodi:nodetypes="cccccsccccscc" />
      <path
         sodipodi:nodetypes="ccssccccc"
         inkscape:connector-curvature="0"
         id="path4541"
         d="m 274.32768,-53.73584 1.49624,66.41144 c 1.49616,10.55488 10.22736,29.66088 23.4872,44.73488 C 317.70904,78.326 344.69648,92 374.87,92 H 552 l 68.64,88.86272 c 33.51408,44.68544 71.28752,7.89936 67.02816,-22.34272 L 676.49672,-53.73584 Z"
         style="fill:#3f51b5;fill-opacity:1" />
      <path
         sodipodi:nodetypes="cccccc"
         inkscape:connector-curvature="0"
         id="path4332"
         d="m 26,273 6,0 -0.0293,8.14258 c 0.25174,1.48228 -1.186469,2.4191 -2.394531,0.79883 L 26,277 Z"
         style="fill:#3f51b5;fill-opacity:1" />
      <rect
         ry="4"
         y="271"
         x="16"
         height="8"
         width="16"
         id="rect4318"
         style="fill:#3f51b5;fill-opacity:1;fill-rule:evenodd;stroke:none;stroke-width:1px;stroke-linecap:butt;stroke-linejoin:miter;stroke-opacity:1" />
      <path
         style="fill:#3f51b5;fill-opacity:1"
         d="m 151,255 0.13393,5.9448 c 0.13393,0.94481 0.9155,2.65508 2.10245,4.00442 C 154.88326,266.82147 157.29903,268 160,268 l 16,0 6,8 c 3,4 6.38128,0.70711 6,-2 l -1,-19 z"
         id="path4206"
         inkscape:connector-curvature="0"
         sodipodi:nodetypes="ccssccccc" />
      <path
         style="fill:#3f51b5;fill-opacity:1"
         d="m 158,246 20,0 c 4.986,0 9,4.014 9,9 0,2.28503 -0.84305,4.36591 -2.23636,5.94984 C 183.11671,262.82209 180.70097,264 178,264 l -16,0 -8,12 c -3.02787,4.06103 -6.63096,1.71517 -6,-2 l 1,-19 c 0.26206,-4.9791 4.014,-9 9,-9 z"
         id="rect4196"
         inkscape:connector-curvature="0"
         sodipodi:nodetypes="ssssscccss" />
      <path
         sodipodi:nodetypes="sscccccss"
         inkscape:connector-curvature="0"
         id="path4545"
         d="M 352.57272,-156 576,-156 c 55.7004,0 100.49672,46.56368 100.49672,102.26416 C 674.6036,4.67304 626.50968,43.33472 575.95448,44 L 397.21272,44 307.84184,180.86272 C 274.0164,226.23 233.76496,200.02352 240.8136,158.52 L 251.98504,-53.73584 C 254.91256,-109.3592 296.87232,-156 352.57272,-156 Z"
         style="fill:#3f51b5;fill-opacity:1" />
      <g
         id="g4333"
         transform="translate(0,8)"
         style="opacity:0.2;fill:#000000;filter:url(#filter4347)">
        <rect
           ry="0"
           y="-100.00008"
           x="335.99994"
           height="95.999969"
           width="31.999994"
           id="rect4335"
           style="fill:#000000;fill-opacity:1" />
        <rect
           transform="matrix(0,1,-1,0,0,0)"
           style="fill:#000000;fill-opacity:1"
           id="rect4337"
           width="31.999952"
           height="96.000046"
           x="-68.000031"
           y="-399.99988"
           ry="0" />
        <circle
           r="16"
           cy="-52.000179"
           cx="543.99988"
           id="circle4339"
           style="fill:#000000;fill-opacity:1" />
        <circle
           style="fill:#000000;fill-opacity:1"
           id="circle4341"
           cx="575.99994"
           cy="-84.000061"
           r="16" />
        <circle
           r="16"
           cy="-52.000179"
           cx="608"
           id="circle4343"
           style="fill:#000000;fill-opacity:1" />
        <circle
           style="fill:#000000;fill-opacity:1"
           id="circle4345"
           cx="575.99994"
           cy="-19.999964"
           r="16" />
      </g>
      <g
         id="g4325">
        <rect
           style="fill:#e8f5e9;fill-opacity:1"
           id="rect4563"
           width="31.999994"
           height="95.999969"
           x="335.99994"
           y="-100.00008"
           ry="0" />
        <rect
           ry="0"
           y="-399.99988"
           x="-68.000031"
           height="96.000046"
           width="31.999952"
           id="rect4565"
           style="fill:#e8f5e9;fill-opacity:1"
           transform="matrix(0,1,-1,0,0,0)" />
        <circle
           style="fill:#48b9c7;fill-opacity:1"
           id="circle4567"
           cx="543.99988"
           cy="-52.000179"
           r="16" />
        <circle
           r="16"
           cy="-84.000061"
           cx="575.99994"
           id="circle4382"
           style="fill:#ffce51;fill-opacity:1" />
        <circle
           style="fill:#f15d22;fill-opacity:1"
           id="circle4384"
           cx="608"
           cy="-52.000179"
           r="16" />
        <circle
           r="16"
           cy="-19.999964"
           cx="575.99994"
           id="circle4386"
           style="fill:#73c48f;fill-opacity:1" />
      </g>
      <path
         sodipodi:nodetypes="ccssccccc"
         inkscape:connector-curvature="0"
         id="path4218"
         d="m 99.298613,262.24671 0.100191,4.44724 c 0.100192,0.7068 0.684876,1.98623 1.572816,2.99566 1.23202,1.40061 3.03923,2.28225 5.05979,2.28225 l 11.96942,0 4.48854,5.98472 c 2.24426,2.99235 4.77376,0.52898 4.48853,-1.49618 l -0.74809,-14.21369 z"
         style="fill:#3f51b5;fill-opacity:1" />
      <path
         sodipodi:nodetypes="ssssscccss"
         inkscape:connector-curvature="0"
         id="path4220"
         d="m 104.53523,256.00005 14.96178,0 c 3.72997,0 6.7328,2.51669 6.7328,6.24666 0,1.7094 -0.63067,3.26609 -1.67299,4.45101 -1.23205,1.40061 -3.03924,2.28179 -5.05981,2.28179 l -11.96942,0 -5.98471,8.97707 c -2.265116,3.03801 -4.960548,1.28309 -4.488534,-1.49618 l 0.748089,-13.72755 c 0.202965,-3.72444 3.002825,-6.7328 6.732795,-6.7328 z"
         style="fill:#3f51b5;fill-opacity:1" />
      <path
         style="fill:#3f51b5;fill-opacity:1"
         d="m 22,517 -6,0 0.0293,8.14258 c -0.25174,1.48228 1.186469,2.4191 2.394531,0.79883 L 22,521 Z"
         transform="translate(0,-244)"
         id="path4292"
         inkscape:connector-curvature="0"
         sodipodi:nodetypes="cccccc" />
      <rect
         style="fill:#3f51b5;fill-opacity:1;fill-rule:evenodd;stroke:none;stroke-width:1px;stroke-linecap:butt;stroke-linejoin:miter;stroke-opacity:1"
         id="rect4316"
         width="16"
         height="8"
         x="16"
         y="269"
         ry="4" />
      <rect
         ry="0"
         y="271"
         x="19"
         height="3.9711609"
         width="2.0016136"
         id="rect4304"
         style="fill:#e8f5e9;fill-opacity:1" />
      <rect
         transform="matrix(0,1,1,0,0,0)"
         style="fill:#e8f5e9;fill-opacity:1"
         id="rect4306"
         width="1.9711609"
         height="4.0016136"
         x="272"
         y="18"
         ry="0" />
      <path
         style="fill:#ffce51;fill-opacity:1;stroke:#e3e8df;stroke-opacity:1;stroke-width:0.3;stroke-miterlimit:4;stroke-dasharray:none"
         d="m 28.023438,514.80469 a 0.75,0.75 0 0 0 -0.75,0.75 0.75,0.75 0 0 0 0.75,0.75 0.75,0.75 0 0 0 0.75,-0.75 0.75,0.75 0 0 0 -0.75,-0.75 z"
         transform="translate(0,-244)"
         id="path924" />
      <path
         style="fill:#f15d22;fill-opacity:1;stroke:#e3e8df;stroke-opacity:1;stroke-width:0.3;stroke-miterlimit:4;stroke-dasharray:none"
         d="m 29.460938,516.21094 a 0.75,0.75 0 0 0 -0.75,0.75 0.75,0.75 0 0 0 0.75,0.75 0.75,0.75 0 0 0 0.75,-0.75 0.75,0.75 0 0 0 -0.75,-0.75 z"
         transform="translate(0,-244)"
         id="path922" />
      <path
         style="fill:#48b9c7;fill-opacity:1;stroke:#e3e8df;stroke-opacity:1;stroke-width:0.3;stroke-miterlimit:4;stroke-dasharray:none"
         d="m 26.5,516.24219 a 0.75,0.75 0 0 0 -0.75,0.75 0.75,0.75 0 0 0 0.75,0.75 0.75,0.75 0 0 0 0.75,-0.75 0.75,0.75 0 0 0 -0.75,-0.75 z"
         transform="translate(0,-244)"
         id="path920" />
      <path
         style="fill:#73c48f;fill-opacity:1;stroke:#e3e8df;stroke-opacity:1;stroke-width:0.3;stroke-miterlimit:4;stroke-dasharray:none"
         d="m 28.023438,517.71875 a 0.75,0.75 0 0 0 -0.75,0.75 0.75,0.75 0 0 0 0.75,0.75 0.75,0.75 0 0 0 0.75,-0.75 0.75,0.75 0 0 0 -0.75,-0.75 z"
         transform="translate(0,-244)"
         id="circle4308" />
      <path
         style="color:#000000;font-style:normal;font-variant:normal;font-weight:normal;font-stretch:normal;font-size:medium;line-height:normal;font-family:sans-serif;text-indent:0;text-align:start;text-decoration:none;text-decoration-line:none;text-decoration-style:solid;text-decoration-color:#000000;letter-spacing:normal;word-spacing:normal;text-transform:none;direction:ltr;block-progression:tb;writing-mode:lr-tb;baseline-shift:baseline;text-anchor:start;white-space:normal;clip-rule:nonzero;display:inline;overflow:visible;visibility:visible;opacity:1;isolation:auto;mix-blend-mode:normal;color-interpolation:sRGB;color-interpolation-filters:linearRGB;solid-color:#000000;solid-opacity:1;fill:#3f51b5;fill-opacity:1;fill-rule:nonzero;stroke:none;stroke-width:2;stroke-linecap:butt;stroke-linejoin:miter;stroke-miterlimit:4;stroke-dasharray:none;stroke-dashoffset:0;stroke-opacity:1;color-rendering:auto;image-rendering:auto;shape-rendering:auto;text-rendering:auto;enable-background:accumulate"
         d="m 75,269.00391 c 0,-0.004 -10,-0.004 -10,-0.004 l -8,6 -1,2 13.492188,0 1.623046,2.97852 0.002,0 c 0.17355,0.31817 0.343759,0.7325 0.677734,1.16015 0.333975,0.42765 0.974087,0.86133 1.699219,0.86133 1.371866,0 2.636494,-1.1215 2.496093,-2.5957 z"
         id="path4708"
         inkscape:connector-curvature="0"
         sodipodi:nodetypes="cccccccsscc" />
      <path
         style="color:#000000;font-style:normal;font-variant:normal;font-weight:normal;font-stretch:normal;font-size:medium;line-height:normal;font-family:sans-serif;text-indent:0;text-align:start;text-decoration:none;text-decoration-line:none;text-decoration-style:solid;text-decoration-color:#000000;letter-spacing:normal;word-spacing:normal;text-transform:none;direction:ltr;block-progression:tb;writing-mode:lr-tb;baseline-shift:baseline;text-anchor:start;white-space:normal;clip-rule:nonzero;display:inline;overflow:visible;visibility:visible;opacity:1;isolation:auto;mix-blend-mode:normal;color-interpolation:sRGB;color-interpolation-filters:linearRGB;solid-color:#000000;solid-opacity:1;fill:#3f51b5;fill-opacity:1;fill-rule:nonzero;stroke:none;stroke-width:2;stroke-linecap:butt;stroke-linejoin:miter;stroke-miterlimit:4;stroke-dasharray:none;stroke-dashoffset:0;stroke-opacity:1;color-rendering:auto;image-rendering:auto;shape-rendering:auto;text-rendering:auto;enable-background:accumulate"
         d="m 59,263 c -3.309706,0 -5.693634,2.72847 -5.996094,5.9043 l -1,10.5 C 51.863511,280.8785 53.128133,282 54.5,282 c 0.689808,0 1.325201,-0.31956 1.738281,-0.76562 C 57.211817,279.30752 58.13469,277.67372 59.59375,275 L 69,275 c 3.306703,0 6,-2.6933 6,-6 0,-3.3067 -2.693297,-6 -6,-6 z"
         id="rect4243"
         inkscape:connector-curvature="0"
         sodipodi:nodetypes="ssssccssss" />
      <path
         inkscape:connector-curvature="0"
         id="path4744"
         d="m 58,267 0,2 -2,0 0,2 2,0 0,2 2,0 0,-2 2,0 0,-2 -2,0 0,-2 -2,0 z"
         style="display:inline;opacity:0.2;fill:#000000;fill-opacity:1;enable-background:new" />
      <path
         style="display:inline;fill:#ebebeb;fill-opacity:1;enable-background:new"
         d="m 58,266 0,2 -2,0 0,2 2,0 0,2 2,0 0,-2 2,0 0,-2 -2,0 0,-2 -2,0 z"
         id="rect4694"
         inkscape:connector-curvature="0" />
      <path
         inkscape:connector-curvature="0"
         id="path4746"
         d="m 69,267 a 1,1 0 0 0 -1,1 1,1 0 0 0 1,1 1,1 0 0 0 1,-1 1,1 0 0 0 -1,-1 z m -2,2 a 1,1 0 0 0 -1,1 1,1 0 0 0 1,1 1,1 0 0 0 1,-1 1,1 0 0 0 -1,-1 z m 4,0 a 1,1 0 0 0 -1,1 1,1 0 0 0 1,1 1,1 0 0 0 1,-1 1,1 0 0 0 -1,-1 z m -2,2 a 1,1 0 0 0 -1,1 1,1 0 0 0 1,1 1,1 0 0 0 1,-1 1,1 0 0 0 -1,-1 z"
         style="display:inline;opacity:0.2;fill:#000000;fill-opacity:1;stroke:none;stroke-width:8;stroke-linecap:round;stroke-linejoin:miter;stroke-miterlimit:4;stroke-dasharray:none;stroke-opacity:1;enable-background:new" />
      <path
         style="display:inline;opacity:1;fill:#ffce51;fill-opacity:1;stroke:none;stroke-width:8;stroke-linecap:round;stroke-linejoin:miter;stroke-miterlimit:4;stroke-dasharray:none;stroke-opacity:1;enable-background:new"
         d="m 69,266 a 1,1 0 0 0 -1,1 1,1 0 0 0 1,1 1,1 0 0 0 1,-1 1,1 0 0 0 -1,-1 z"
         id="path916" />
      <path
         style="display:inline;opacity:1;fill:#48b9c7;fill-opacity:1;stroke:none;stroke-width:8;stroke-linecap:round;stroke-linejoin:miter;stroke-miterlimit:4;stroke-dasharray:none;stroke-opacity:1;enable-background:new"
         d="m 67,268 a 1,1 0 0 0 -1,1 1,1 0 0 0 1,1 1,1 0 0 0 1,-1 1,1 0 0 0 -1,-1 z"
         id="path914" />
      <path
         style="display:inline;opacity:1;fill:#f15d22;fill-opacity:1;stroke:none;stroke-width:8;stroke-linecap:round;stroke-linejoin:miter;stroke-miterlimit:4;stroke-dasharray:none;stroke-opacity:1;enable-background:new"
         d="m 71,268 a 1,1 0 0 0 -1,1 1,1 0 0 0 1,1 1,1 0 0 0 1,-1 1,1 0 0 0 -1,-1 z"
         id="path912" />
      <path
         style="display:inline;opacity:1;fill:#73c48f;fill-opacity:1;stroke:none;stroke-width:8;stroke-linecap:round;stroke-linejoin:miter;stroke-miterlimit:4;stroke-dasharray:none;stroke-opacity:1;enable-background:new"
         d="m 69,270 a 1,1 0 0 0 -1,1 1,1 0 0 0 1,1 1,1 0 0 0 1,-1 1,1 0 0 0 -1,-1 z"
         id="path4728" />
      <path
         style="display:inline;opacity:0.2;fill:#000000;fill-opacity:1;enable-background:new"
         d="m 104,261 0,2 -2,0 0,2 2,0 0,2 2,0 0,-2 2,0 0,-2 -2,0 0,-2 -2,0 z"
         id="path4291"
         inkscape:connector-curvature="0" />
      <path
         inkscape:connector-curvature="0"
         id="path4293"
         d="m 104,260 0,2 -2,0 0,2 2,0 0,2 2,0 0,-2 2,0 0,-2 -2,0 0,-2 -2,0 z"
         style="display:inline;fill:#ebebeb;fill-opacity:1;enable-background:new" />
      <path
         style="display:inline;opacity:0.2;fill:#000000;fill-opacity:1;stroke:none;stroke-width:8;stroke-linecap:round;stroke-linejoin:miter;stroke-miterlimit:4;stroke-dasharray:none;stroke-opacity:1;enable-background:new"
         d="m 119,261 a 1,1 0 0 0 -1,1 1,1 0 0 0 1,1 1,1 0 0 0 1,-1 1,1 0 0 0 -1,-1 z m -2,2 a 1,1 0 0 0 -1,1 1,1 0 0 0 1,1 1,1 0 0 0 1,-1 1,1 0 0 0 -1,-1 z m 4,0 a 1,1 0 0 0 -1,1 1,1 0 0 0 1,1 1,1 0 0 0 1,-1 1,1 0 0 0 -1,-1 z m -2,2 a 1,1 0 0 0 -1,1 1,1 0 0 0 1,1 1,1 0 0 0 1,-1 1,1 0 0 0 -1,-1 z"
         id="path4295"
         inkscape:connector-curvature="0" />
      <path
         style="display:inline;opacity:1;fill:#ffce51;fill-opacity:1;stroke:none;stroke-width:8;stroke-linecap:round;stroke-linejoin:miter;stroke-miterlimit:4;stroke-dasharray:none;stroke-opacity:1;enable-background:new"
         d="m 119,260 a 1,1 0 0 0 -1,1 1,1 0 0 0 1,1 1,1 0 0 0 1,-1 1,1 0 0 0 -1,-1 z"
         id="path907" />
      <path
         style="display:inline;opacity:1;fill:#48b9c7;fill-opacity:1;stroke:none;stroke-width:8;stroke-linecap:round;stroke-linejoin:miter;stroke-miterlimit:4;stroke-dasharray:none;stroke-opacity:1;enable-background:new"
         d="m 117,262 a 1,1 0 0 0 -1,1 1,1 0 0 0 1,1 1,1 0 0 0 1,-1 1,1 0 0 0 -1,-1 z"
         id="path905" />
      <path
         style="display:inline;opacity:1;fill:#f15d22;fill-opacity:1;stroke:none;stroke-width:8;stroke-linecap:round;stroke-linejoin:miter;stroke-miterlimit:4;stroke-dasharray:none;stroke-opacity:1;enable-background:new"
         d="m 121,262 a 1,1 0 0 0 -1,1 1,1 0 0 0 1,1 1,1 0 0 0 1,-1 1,1 0 0 0 -1,-1 z"
         id="path903" />
      <path
         style="display:inline;opacity:1;fill:#73c48f;fill-opacity:1;stroke:none;stroke-width:8;stroke-linecap:round;stroke-linejoin:miter;stroke-miterlimit:4;stroke-dasharray:none;stroke-opacity:1;enable-background:new"
         d="m 119,264 a 1,1 0 0 0 -1,1 1,1 0 0 0 1,1 1,1 0 0 0 1,-1 1,1 0 0 0 -1,-1 z"
         id="path4297" />
      <g
         id="g4311"
         transform="translate(0,1)"
         style="fill:#000000;opacity:0.2">
        <rect
           style="fill:#000000;fill-opacity:1"
           id="rect4313"
           width="3"
           height="9"
           x="157"
           y="251"
           ry="0" />
        <rect
           ry="0"
           y="-163"
           x="254"
           height="9"
           width="3"
           id="rect4315"
           style="fill:#000000;fill-opacity:1"
           transform="matrix(0,1,-1,0,0,0)" />
        <circle
           style="fill:#000000;fill-opacity:1"
           id="circle4317"
           cx="174.5"
           cy="255.5"
           r="1.5" />
        <circle
           r="1.5"
           cy="255.5"
           cx="180.5"
           id="circle4319"
           style="fill:#000000;fill-opacity:1" />
        <circle
           r="1.5"
           cy="-177.5"
           cx="252.5"
           id="circle4321"
           style="fill:#000000;fill-opacity:1"
           transform="matrix(0,1,-1,0,0,0)" />
        <circle
           style="fill:#000000;fill-opacity:1"
           id="circle4323"
           cx="258.5"
           cy="-177.5"
           r="1.5"
           transform="matrix(0,1,-1,0,0,0)" />
      </g>
      <g
         id="g4303">
        <rect
           ry="0"
           y="251"
           x="157"
           height="9"
           width="3"
           id="rect4218"
           style="fill:#e8f5e9;fill-opacity:1" />
        <rect
           transform="matrix(0,1,-1,0,0,0)"
           style="fill:#e8f5e9;fill-opacity:1"
           id="rect4224"
           width="3"
           height="9"
           x="254"
           y="-163"
           ry="0" />
        <circle
           r="1.5"
           cy="255.5"
           cx="174.5"
           id="path4238"
           style="fill:#48b9c7;fill-opacity:1" />
        <circle
           style="fill:#f15d22;fill-opacity:1"
           id="circle4240"
           cx="180.5"
           cy="255.5"
           r="1.5" />
        <circle
           transform="matrix(0,1,-1,0,0,0)"
           style="fill:#ffce51;fill-opacity:1"
           id="circle4276"
           cx="252.5"
           cy="-177.5"
           r="1.5" />
        <circle
           transform="matrix(0,1,-1,0,0,0)"
           r="1.5"
           cy="-177.5"
           cx="258.5"
           id="circle4278"
           style="fill:#73c48f;fill-opacity:1" />
      </g>
    </g>
  </g>
</svg>
