<svg version="1.0" viewBox="0 0 128 128" xmlns="http://www.w3.org/2000/svg"><g transform="translate(-312 -156)"><rect x="324" y="168" width="104" height="104" ry="8.5" fill="#3f51b5"/><path d="M332.5 168a8.481 8.481 0 0 0-8.5 8.5v87c0 4.709 3.791 8.5 8.5 8.5h87c4.709 0 8.5-3.791 8.5-8.5v-87c0-4.709-3.791-8.5-8.5-8.5zm.5 1h86c4.432 0 8 3.568 8 8v83c0 4.432-3.568 8-8 8h-86c-4.432 0-8-3.568-8-8v-83c0-4.432 3.568-8 8-8z" fill-opacity=".502"/><g transform="matrix(3 0 0 3 -137 -298)" fill-opacity=".196"><path transform="translate(.333 5) scale(.66667)" d="m247 243-2.977 17.824 2.616 1.154 3.36-5.478h11.827l3.555 5.502 2.578-1.272-2.96-17.73z" filter="url(#filter7554)"/><rect x="165" y="166" width="4" height="2" ry="1" filter="url(#filter7554)"/><rect x="173" y="166" width="4" height="2" ry="1" filter="url(#filter7554)"/><rect x="177" y="178" width="2" height="2" ry="1" filter="url(#filter7554)"/><rect x="163" y="178" width="2" height="2" ry="1" filter="url(#filter7554)"/><circle cx="173.33" cy="169.67" r="1"/><circle cx="175.33" cy="173" r="1"/><g transform="translate(.667)"><rect x="166.33" y="168.67" width="1.333" height="4" ry=".333"/><rect x="165" y="170" width="4" height="1.333" ry=".333"/></g></g><g transform="matrix(3 0 0 3 -137 -299)"><path transform="translate(.333 5) scale(.66667)" d="m247 243-2.977 17.824 2.616 1.154 3.36-5.478h11.827l3.555 5.502 2.578-1.272-2.96-17.73z" fill="#fff" filter="url(#filter7554)"/><rect x="165" y="166" width="4" height="2" ry="1" fill="#fff" filter="url(#filter7554)"/><rect x="173" y="166" width="4" height="2" ry="1" fill="#fff" filter="url(#filter7554)"/><rect x="177" y="178" width="2" height="2" ry="1" fill="#fff" filter="url(#filter7554)"/><rect x="163" y="178" width="2" height="2" ry="1" fill="#fff" filter="url(#filter7554)"/><circle cx="173.33" cy="169.67" r="1" fill="#3f51b5"/><circle cx="175.33" cy="173" r="1" fill="#3f51b5"/><g transform="translate(.667)" fill="#3f51b5"><rect x="166.33" y="168.67" width="1.333" height="4" ry=".333"/><rect x="165" y="170" width="4" height="1.333" ry=".333"/></g></g></g></svg>