<svg version="1.0" viewBox="0 0 128 128" xmlns="http://www.w3.org/2000/svg"><g transform="translate(-312 -156)"><rect x="324" y="168" width="104" height="104" ry="8.5" fill="#48b9c7"/><path d="M332.5 168a8.481 8.481 0 0 0-8.5 8.5v87c0 4.709 3.791 8.5 8.5 8.5h87c4.709 0 8.5-3.791 8.5-8.5v-87c0-4.709-3.791-8.5-8.5-8.5zm.5 1h86c4.432 0 8 3.568 8 8v83c0 4.432-3.568 8-8 8h-86c-4.432 0-8-3.568-8-8v-83c0-4.432 3.568-8 8-8z" fill-opacity=".502"/><g fill-opacity=".196"><path d="M375.72 198.02c-6.33.089-14.835 2.407-14.692 9.842.15 7.758 8.752 4.984 9.451 8.155.106-.135.265-.246.375-.375.592-.64 1.185-1.163 1.778-1.78.937-1.059 1.908-2.038 2.9-3.094 3.32-3.534 3.463-3.75 11.389-9.748-3.104-1.863-6.774-2.897-9.891-3-.4-.015-.888-.006-1.31 0zm-5.708 4.593c2.48 0 4.492 2.014 4.492 4.5s-2.012 4.498-4.492 4.498c-2.481 0-4.492-2.014-4.492-4.499s2.01-4.499 4.492-4.499zm21.806 1.985c-4.255 6.7-7.1 10.668-10.11 13.762-1.917 1.973-3.488 3.935-4.865 5.343-2.517 2.67-5.813 5.823-9.452 9.28.19 4.406 2.433 8.239 9.733 9.654 11.694 2.268 24.08-5.472 22.833-21.184-.535-6.744-4.215-12.843-8.14-16.855zm1.027 11.419a3.002 3.002 0 0 1 2.995 3 3.002 3.002 0 0 1-2.995 2.999 3.002 3.002 0 0 1-2.994-3c0-1.656 1.348-3 2.994-3zm-1.872 8.998a3.002 3.002 0 0 1 2.995 3c0 1.656-1.348 3-2.995 3a3.002 3.002 0 0 1-2.994-3c0-1.657 1.348-3 2.994-3zm-14.972 6a3.002 3.002 0 0 1 2.994 2.999c0 1.656-1.348 3-2.994 3a3.002 3.002 0 0 1-2.995-3c0-1.657 1.348-3 2.995-3zm8.984 0a3.002 3.002 0 0 1 2.994 2.999c0 1.656-1.348 3-2.994 3s-2.995-1.344-2.995-3c0-1.657 1.348-3 2.995-3z"/><path d="M352.026 238.488c4.656.002 4.18-5.363 6.442-6.856 2.62-1.73 4.915.414 5.374 2.179.578 2.227-.35 4.894-3.39 5.654-3.22.805-7.985.829-8.426-.977z"/><path d="M394.14 198.02c-5.399 3.896-12.619 9.905-18.345 16-.52.554-1.022 1.088-1.513 1.642-.31.323-.635.587-.945.923-.196.23-.378.488-.568.718-5.619 6.21-11.159 14.042-14.75 19.898 8.931-6.892 14.747-12.495 18.438-16.411.721-.738 1.588-1.7 2.553-2.77 3.611-4.003 8.776-10.312 15.13-20z"/></g><g fill="#fff"><path d="M375.72 197.02c-6.33.089-14.835 2.407-14.692 9.842.15 7.758 8.752 4.984 9.451 8.155.106-.135.265-.246.375-.375.592-.64 1.185-1.163 1.778-1.78.937-1.059 1.908-2.038 2.9-3.094 3.32-3.534 3.463-3.75 11.389-9.748-3.104-1.863-6.774-2.897-9.891-3-.4-.015-.888-.006-1.31 0zm-5.708 4.593c2.48 0 4.492 2.014 4.492 4.5s-2.012 4.498-4.492 4.498c-2.481 0-4.492-2.014-4.492-4.499s2.01-4.499 4.492-4.499zm21.806 1.985c-4.255 6.7-7.1 10.668-10.11 13.762-1.917 1.973-3.488 3.935-4.865 5.343-2.517 2.67-5.813 5.823-9.452 9.28.19 4.406 2.433 8.239 9.733 9.654 11.694 2.268 24.08-5.472 22.833-21.184-.535-6.744-4.215-12.843-8.14-16.855zm1.027 11.419a3.002 3.002 0 0 1 2.995 3 3.002 3.002 0 0 1-2.995 2.999 3.002 3.002 0 0 1-2.994-3c0-1.656 1.348-3 2.994-3zm-1.872 8.998a3.002 3.002 0 0 1 2.995 3c0 1.656-1.348 3-2.995 3a3.002 3.002 0 0 1-2.994-3c0-1.657 1.348-3 2.994-3zm-14.972 6a3.002 3.002 0 0 1 2.994 2.999c0 1.656-1.348 3-2.994 3a3.002 3.002 0 0 1-2.995-3c0-1.657 1.348-3 2.995-3zm8.984 0a3.002 3.002 0 0 1 2.994 2.999c0 1.656-1.348 3-2.994 3s-2.995-1.344-2.995-3c0-1.657 1.348-3 2.995-3z"/><path d="M352.026 237.488c4.656.002 4.18-5.363 6.442-6.856 2.62-1.73 4.915.414 5.374 2.179.578 2.227-.35 4.894-3.39 5.654-3.22.805-7.985.829-8.426-.977z"/><path d="M394.14 197.02c-5.399 3.896-12.619 9.905-18.345 16-.52.554-1.022 1.088-1.513 1.642-.31.323-.635.587-.945.923-.196.23-.378.488-.568.718-5.619 6.21-11.159 14.042-14.75 19.898 8.931-6.892 14.747-12.495 18.438-16.411.721-.738 1.588-1.7 2.553-2.77 3.611-4.003 8.776-10.312 15.13-20z"/></g></g></svg>