<svg version="1.0" viewBox="0 0 128 128" xmlns="http://www.w3.org/2000/svg"><g transform="translate(-312 -156)"><rect x="324" y="168" width="104" height="104" ry="8.5" fill="#2e7153"/><path d="M332.5 168a8.481 8.481 0 0 0-8.5 8.5v87c0 4.709 3.791 8.5 8.5 8.5h87c4.709 0 8.5-3.791 8.5-8.5v-87c0-4.709-3.791-8.5-8.5-8.5zm.5 1h86c4.432 0 8 3.568 8 8v83c0 4.432-3.568 8-8 8h-86c-4.432 0-8-3.568-8-8v-83c0-4.432 3.568-8 8-8z" fill-opacity=".502"/><g fill="#fff" stroke-width="3.125" aria-label="ABC"><path d="m349.96 218.53-.117.047q-.093-.024 0-.304l.117-.326.117.256zm9.007 0q0 .14-.024.233 0 .07-.023.14l-.093-.49zm5.6 13.23-.397.397q-.14.186-.187.443-.046-.047-.116-.537 0-.42-.257-.466l-.233.07q-.35.303-.467.793l-.35.093q-.35 0-.63-.49l-.467-.91q.07-.35-.21-.91-.256-.56-.256-.886-.514-.14-.63-.98 0-.817-.607-1.05 0-.7-.49-1.4l-.957-1.377q-.21.07-.42-.023-.186-.094-.42-.35-.303.116-.676.116-.35 0-.817-.116l-.793-.117q-.42 0-.817.233l-.07-.233q-.07-.14-.117-.187-.84.21-1.19 1.26l-.326 1.82q-.28-.35-.42-.863l.093.163q.163.07.233-.023l.14-.233q0-.28-.28-.724-.256-.443-.256-.606 0-.28.49-.49 0-.21-.094-.304-.256 0-.443.14l-.42.537q.163.28.163.653 0 .21-.023.327-.023.117-.163.56l-.164.863q0 .537.56.957l-.49 1.563q-.14.56-.7 1.12-.163-.35-.42-.396-.07.023-.163.07-.093.046-.303.21-.21.14-.467.186-.21 0-.443-.256l-.257.373h-.21v-.187q-.187.14-.397.164-.21 0-.373-.514l-.21-.63.373-.163q-.07-.163-.373-.42-.28-.28-.28-.513 0-.14.093-.327l.187-.443q.07-.117.49-.304.117.094.373.187.28-.21.28-.467 0-.21-.233-.56-.21-.373-.21-.583l.07-.257.257-1.143q.14-1.027.793-1.12l-.373-.49q-.14-.21-.14-.443 0-.14.14-.42l-.444-.467q-.186-.257-.186-.513 0-.187.046-.257.514 0 .98-.49l.56-.583v-.374q.164 0 .257.024l.397.093q.186 0 .303-.21l.117-.373.023-.327q0-.327-.21-.817l-.42-1.073.607.093q.07-.14 0-.28l-.21-.326q.07-.164.116-.234l.56-.326-.42-.42q-.21-.21-.42-.14l.094-.607q0-.42.046-.653h.234q0 .21-.094.326.117.117.35.164.234 0 .537-.187l.42-.21q.07-.117.07-.163l.047-.304-.21-.093-.327.21q-.21.21-.42.093l.093-.63.094-.653q0-.303-.094-.49.047-.047.257-.047.117 0 .233.28l-.163.28q-.07.094.047.187.303-.14.42-.28.14-.163.14-.35 0-.163-.164-.513l-.163-.584q0-.163.023-.256.047-.117.234-.304l-.024-.326q0-.164-.186-.257l-.187.07-.187.047.817-1.354q.35-.536.933-.536 0-.35.234-.374l.396.117q.28.07.49.023.42.56.934.56.233 0 .42-.093.07.093-.024.257l-.163.21q.327.023.49.256.163.234.163.63l-.023.467-.023.467-.21.676q0 .164.093.28.28.07.467.28l.49.794-.093.63q0 .466.163 1.26l.21.886q-.047.117.023.35.07.21.257.234.163-.07.21-.117l.093-.093q-.14.256-.14.583 0 .28.163.793l.164.7q0 .374-.187.63.257.164.397 1.074.093.84.35.886.186 0 .466-.256h.117l.047.28q0 .303-.187.606-.187.28-.443.467.093.07.163.093.07.024.117.047.28 0 .42-.047.373 0 .7.584.326.583.49.63.186 0 .466-.514 0 .397.607.747.513.28.513.863-.21 0-.536-.42-.327-.42-.514-.466-.21 0-.513.373 0 .21.233.467l.234.326q0 .14-.257.28h-.21q0-.42-.163-.56h-.21l-.07.304q0 .233.116.443l.327.303.117-.116q.256.093.303.35l-.117.303-.093.303q0 .187.28.327.397-.07.327-.583.093.606.257 1.05.163.443.583 1.073l-.093.047q.396.21.7 1.096.326.84.84 1.05 0 .397.256.98.28.607.327.957zm-16.637-6.463q-.164.116-.28.116l.233-.28q.093.047.047.164zm-.467 1.166h-.093v-.373h.093zm.187.7h-.467l.093-.42.28.14q.14.07.094.28zm-.467 2.404-.14.21-.14.163q-.187 0-.233-.21 0-.163.14-.28.35 0 .373.117zm5.017 0-.07.42q-.024.163-.164.326-.07-.07-.07-.186 0-.35.304-.56zm-5.11.84-.024.186q-.07.094-.116.094h-.14v-.28zm5.623-21.42q-.21.07-.233.303l.093.163h.093l.094-.233q.093-.163-.047-.233zm1.47.583v-.117h-.187v.117zm.093 4.527v-.794q-.256-.023-.396.397-.094.397-.467.397l-.093.443q.116.14.21.14l.186-.327q.164-.28.35-.326zm-2.03.863q-.046-.187-.186-.303-.14-.117-.28-.07v.653q.163-.093.256-.093.21 0 .21-.187zm5.6 2.007-.093-.7q-.467-.234-.607-1.097l-.093-.91q-.303.117-.303.327 0 .163.186.466.187.28.187.444 0 .116-.14.303l.303.863q.094.304.56.304zm-4.526-.934v-.14h-.164v.14zm-.607 1.307q-.07-.163-.233-.187-.164.094-.21.187l-.07.397q.14.21.466.21l.094-.234zm5.297.49v-.21q-.07-.117-.234-.023-.093.07-.023.233zm-1.33 4.06q.14-.467.14-.863 0-.724-.677-2.287-.677-1.587-.7-1.773-.093-.117-.163-.724 0-.583-.444-.583-.21.257-.396.607-.094.186-.094.396 0 .14.024.21h.373q.233.07.233.584-.093.14-.35.186l-.443-.023-.163.164-.024.163q.117.07.28 0l.21-.093q.14.093.164.186.046.28-.28.28-.28 0-.42.14l-.094.234q.024.07.07.14.047.046.21.163.164.117.234.28 0 .163-.234.233-.233.07-.35.14.024.117.234.187.186.023.256.14-.21 0-.35.21-.116.187-.256.257-.07.583.443.956.513 0 .933.024t.817.116q.42.093.817.35zm-3.524-2.333v-.093l-.116-.094zm-2.123.42q-.187 0-.373.257-.164.256-.234.583.047.07.07.14.047.07.07.21t.234.14l.093-.723zm.56 3.523q.07-.163-.117-.233-.186-.07-.21-.093l-.046-.047q-.21 0-.21.163 0 .14.256.397l.187-.047zm-1.073.793v-.7h-.187q-.163.024-.187.327v.373zm-.84.514q-.047-.047-.117-.467 0-.35-.257-.373-.233.163-.233.396 0 .14.093.304l.187.256q.257 0 .327-.116zm3.033.49v-.164zm-1.493.7v-1.237h-.187v1.237zm-1.634.956v-.49q-.186-.07-.256.07l-.023.42zm.934 1.564q-.093-.234-.093-.677 0-.49-.094-.677 0 .14-.023.234-.023.093-.14.42l-.163.56q0 .163.046.233l.257-.023zm-2.333 1.26-.164-.21-.093.046.21.21z"/><path d="M379.88 208.78q-.117.07-.233.07-.07 0-.21-.047-.117-.093-.304-.233-.186-.163-.326-.303h.326q0 .186.327.326.327.07.42.187zm.467 10.057-.257.047v-.257q.07.023.117.07zm1.236-7.42q-.07-.14-.116-.163l-.14-.117-.234.047q-.21 0-.49-.35-.093-.14-.256-.257-.047-.023-.117-.093-.163 0-.35.186l.35.84q.07.187.117.584.093-.21.35-.327l.84-.093-.117.42-.583.163.21.233q.07.07.07.234l-.07.233-.187-.07q-.07-.047-.233-.047l-.28.28.35.28q.256.14.256.42-.396.14-.933.63l-1.097 1.027-.116.467.326.046-1.073.817-.233-.443q-.094-.164-.35-.047l-.28.373h-.21q.14-.256-.187-.326l-.397-.14-.093.326.07.327.233.397q.094.093.187.093l.187.023.21-.326h.28q.07.396-.304.84-.373.443-.373.63 0 .163.093.35l.467.49q.42-.257.42-.84l.07-.654h.467q.046.117.07.42.046.28.046.63 0 .747.374 1.237l-.07.537q0 .28.28.42l.186-.234.094-.42-.024-.466q0-.444.444-.444l.21.024.21.093.21.163q-.28.07-.444.327-.116.28-.116.677v.373l.093.49q.42.117.42.397 0 .186-.257.513l-.256.373.21.024.466-.07v-.117h.117v.817q-.07-.187-.28-.187-.14 0-.21.187l.163.466q-.373 0-.443.514 0 .42-.14.606-.14-.21-.14-.443l.07-.443.093-.514q0-.42-.56-.42l-.466.444q-.117.14-.117.42l.28.163q.233.07.303.21l-.49.887q-.21.35-.21.676t.257.584q0 .163-.163.396l-.304.35q-.07-.116-.07-.256l.07-.374.094-.443q0-.28-.374-.373-.07.07-.326.653-.164.49-.63.42 0 .397-.14.887l-.327 1.026-.117-.303q-.07-.233-.256-.327-.094.047-.117.327 0 .233-.21.303l-.187-.163q-.093-.07-.186.047-.21.116-.327.49-.117.373-.35.396l-.28-.07q-.093.35-.84.42-.7 0-.77.537-.093-.047-.117-.187l.094-.466q0-.187-.304-.21-.21-.07-.513.21-.28.28-.443.326l-.117-.956-.21-.07q-.163 0-.49.163l-.397.14q-.233 0-.233-.49l-.14-.163-.117-.07-.21.233q.047.047.047.117.023.07.047.093l-.257.163q.07-.35-.35-.63-.397-.28-.467-.49-.35.094-.373.397l.047.257.046.303q0 .233-.303.373-.257-.07-.327-.723 0-.677-.63-.56-.046.303-.163.49t-.373.093l.046-.256-.093-.444-.07-.536.07-.35q.07-.14.42-.327l-.023-.327.023-.373q0-.373-.303-.537h-.374l.14-.396q.07-.164.234-.187l-.117-.793q-.023-.374-.093-.654-.047-.28-.164-.49.21 0 .35-.163.164-.187.234-.42-.024-.257.07-.747.14-.42.14-.606 0-.21-.094-.397l-.233-.327q.257-.21.257-.536 0-.164-.234-.607l-.233-.56q0-.28.327-.537-.047-.07-.28-.116l-.21.233v-.373q.21 0 .303-.187l.187-.42-.28-.583q.14-.117.21-.444.07-.326.28-.513l-.164-.303q-.07-.234-.256-.327l-.49.14q0-.117.326-.513.35-.397.397-.584 0-.21-.303-.443l-.024-.77-.046-.583q0-.35.07-.56l-.094-.444-.023-.443q0-1.19.654-2.053.373.046.816-.304.444-.373.7-.42.304 0 .63.397.117-.023.397-.42.28-.327.49-.373.163 0 .443.21.28 0 .514-.397.233-.42.513-.467.233 0 .42.117.07-.14.187-.163l.606.256-.07.234q0 .186.257.326.187.047.56.047l.21-.327-.443-.163q-.187-.093-.257-.327l.21-.046q.21 0 .56.163l.513.14q.164 0 .374-.14v.7l.256.07q.21 0 .537-.397.28-.42.467-.42.21 0 .56.42l.536-.093h.35l.234-.023-.84.443.933.374q.163 0 .35-.117 0 .397.653.56.677.163.933.513.584.28 1.004.63t.77.91zm-14.887 10.29-.163-.467h.163zm14.257.28-.49-.117q.07-.21.14-.303.094-.117.21-.163.14 0 .14.303zm-1.073 3.617-.023.28q0 .186-.094.21l-.163-.49zm-1.937 3.103q-.326 0-.466-.373l.466-.117zm-3.57-20.673q-.093-.093-.046-.21h-.21v.327q.186 0 .256-.117zm1.914.373v-.466h-.514q-.186.21.024.35.21.14.49.116zm-.514 1.074-.023-.257q0-.257-.093-.327v.584zm3.15.583q-.046-.047-.28-.093v.373q.14-.093.234-.233 0-.024.046-.047zm-1.563 0-.257.653h.164l.21-.513q-.07-.14-.117-.14zm1.657 1.447v-.49q0-.304-.327-.304l-.14.957q.117.07.28-.047zm0 .653q-.257 0-.374.21h.28zm-.7.303h-.257v.28l.21-.046q.07 0 .07-.047.023-.07-.023-.187zm-.957.49v.257h.21l.093-.093q-.023-.14-.303-.164zm-.747 1.074v-.444l.024-.466q0-.607-.117-.934-.093-.35-.49-.676-.397-.14-.7-.444-.303-.303-.373-.63 0 .35-.094.374-.046-.28-.256-.42-.187-.164-.467-.187-.233 0-.397.233l-.77-.28q-.256-.116-.513-.466-.14-.07-.28.023-.14.07-.21.257-.187.186-.42.233-.21 0-.607-.373-.35-.397-.466-.444l-.397.56q-.187.397-.513.607l.093.373-.093.42-.07.444.07.303.373-.49q.28-.327.327-.677l.116.187.14.187q-.163.093-.326.28l-.094.303q0 .187.28.63t.28.63q0 .257-.513.397.07-.14.187-.164l.303.164q.14.14.233.396l.07.444-.046.653-.047.49q.327.093.397.723 0 .584.35.724 0-.514.186-.63.21-.14.56-.14h.304q.233 0 .373-.07.163-.094.233-.397l.234.047q.256 0 .606-.49.304-.514.7-.514l-.023.35.07.63.07.584-.047.35h.21v-.094q.07-.42.467-.49.07-.093.117-.303 0-.373-.374-.443l-.093-.397q0-.373.233-.7l.49-.677.327.374q.093.093.373.07zm-7.093-.444q.07-.14-.093-.28l-.234-.186-.163.21q.14.373.49.256zm9.03.444v-.117q-.07-.14-.21-.07-.093.047-.117.187zm-9.45.046h-.28v.28q0 .21.21.21.093-.093.093-.186zm8.587.957q0-.187-.117-.257v.374zm-7.537.117q-.07-.374-.257-.397-.186 0-.373.303-.163.304-.117.56.047.07.07.164.047.093.094.28.046.163.326.163l-.023-.42q0-.233-.093-.443.233-.234.373-.21zm-1.54.326h-.163l.116.257zm2.123 1.797q.07-.163-.093-.233l-.28-.14q-.163.116-.187.326l.094.164.303-.024q.14-.046.163-.093zm.747.607-.14-.607.093.653zm-1.703.466v-.466h-.21zm5.18-.466-.117.233q-.07.163.023.233zm-6.72.466v-.326q-.094-.117-.14-.117l-.234-.023-.21.256q-.07.117.094.21zm1.073.957v-.21q-.14-.093-.21-.093h-.163q-.07.14.07.233zm-1.073.07h-.117q-.163.07-.187.303 0 .21.14.28zm9.03 1.423.093-.21-.163-.536q-.14.186-.14.42 0 .21.21.326zm-7.584-.046h-.28l-.093.746h.257zm8.05 1.026v-.49q-.116-.046-.163-.046v.536zm-9.403-.863h-.21l-.07.63-.093.49q0 .28.28.537.21-.21.21-.537zm8.563 1.913.047-.303q0-.397-.326-1.05-.094-.233-.187-.537-.093-.326-.14-.513l-.513.07q-.397 0-.7-.233l.023-.28.07-.187q-.234-.07-.467.187-.233.233-.373.28-.35-.07-.584-.514-.21-.466-.49-.536l.117.466q-.397.21-.63.21-.163 0-.187-.233l.07-.443.07-.537q0-.303-.233-.537.21-.21.21-.56 0-.046-.047-.07-.023-.046-.046-.07-.024.024-.094.07-.07.024-.233.21-.163.164-.163.467 0 .21.093.467l.28.443q0 .28-.373.303h-.374q-.21 0-.28.28-.14-.14-.28-.443l-.046-.397-.467.537q.21.21.21.443 0 .117-.35.444-.35.28-.35.536.14.14.513.14l.444-.023v.327q0 .28-.164.28-.35 0-.42.093.514.21.514.607l-.14.513-.117.49.07.303q.21.187.21.374 0 .163-.187.42l-.163.373q0 .21.303.373-.163.164-.303.234t-.07.303q.117.093.21.28.093.163.093.373l-.07.514q-.07.326-.023.49.21-.14.327-.14.14 0 .163.326v.374q0 .396.14.513.233 0 .35.047h.35q.933 0 1.727-.374.793-.396 1.376-1.12.28-.186.49-.56l.374-.77q0-.186.07-.373.093-.21.396-.21l-.023-.14v-.117q0-.256.21-.793l.233-.677q0-.21-.14-.42zm-6.533-.093q-.116-.093-.186-.117-.07-.023-.117-.046l.21.583-.187.303q-.116.257-.396.187l-.024.677.07.816q.07.35.327.677 0-.42.093-.583-.21-.14-.303-.327l-.093-.303q0-.187.35-.654.35-.49.35-.816 0-.21-.094-.397zm-2.03 3.313.093-.513q0-.443-.35-.397-.186.117-.256.327-.07.187-.07.583zm2.52 1.587-.116-.163-.094.163zm-2.777.7-.023-.373q0-.42-.093-.584l-.187.654q0 .186.093.303z"/><path d="M391.59 208.61q0 .14-.117.233h-.233l.093-.14q.07-.116.257-.093zm13.603 18.55q0 .583-.63 1.19-.63.56-.63 1.19l-.163-.023h-.094q-.14 0-.21-.094l.234-.186q-.14-.327-.467-.327-.187 0-.373.093l-.42.187q-.21.093-.234.373v.28l.117.117q-.093.023-.187.023h-.14q-.093 0-.28-.046-.163-.07-.28-.28l-.42.373q-.256.163-.443.163-.14 0-.327-.116-.14-.047-.233.023-.07.07-.07.28v.35l-1.073-.653q-.327.606-.957.606-.28 0-.957-.163l-.956-.163-.35.023-.537-.537q-.187 0-.28.257l-.14.397.117.116-.117.117q-.28-.63-1.073-.957-.794-.35-1.61-.35-.257-.14-.607-.723-.28-.607-.583-.607-.21 0-.42.14-.14-.14-.444 0l-.373.14q-.163 0-.257-.326-.443 0-1.26-.514-.793-.513-1.166-.513l-.374.07q.21-.28.21-.537t-.56-.793q-.56-.56-.49-1.05-.536 0-.536.49l.023.35q0 .233.047.35l-.07.303q-.327-.093-.397-.77 0-.653-.373-.84l.536-.536q-.303-.094-.536-.14t-.537-.047l-.047-.35q0-.28.117-.7l.117-.653q0-.257-.117-.467-.07-.21-.373-.443.07-.07.116-.35l-.046-.49q-.444-.14-.444-.537l.14-.84q-.07-.163-.116-.233-.397.07-.56.466l-.28.724-.094-.397q0-.257.327-.723.35-.467.35-.677l-.047-.233.304.07q.093-.07.163-.257l.047-.373v-.327q0-.257.07-.443.07-.187.373-.21.14-.117.21-.257.093-.163.093-.467-.07-.233-.326-.233-.21 0-.327.047l-.187.07q.07-.327.677-.864.63-.536.63-1.003 0-.28-.117-.513h.187q0 .56.047.933.07.35.49.49.396.07.466-.397.07-.49.42-.56l.047-.256q0-.14-.14-.537l-.14-.397q0-.233.117-.35l-.047.234q0 .326.35.653l.653.537q.327-.21.584-.654.28-.443.373-.956-.023-.117-.257-.234-.21-.116-.28-.303.257-.117.467.117l.42.42.537-.654.116.117q.14-.093.187-.373l-.047-.304-.046-.303q0-.233.326-.327l.117 1.307q.28.023.35-.373.093-.42.187-.514l.396.024q.35 0 .56-.07.21-.094.234-.35l-.047-.21q-.093-.42.35-.49.443-.094.536-.28l.21.373q.047.047.327.047l.117-.724q.116.07.256-.07l.28-.28v-.116q.164 0 .467.163l.49.187q.21-.117.35-.467.14-.373.303-.49l-.023.42q0 .28.21.42.374.07.537-.303v-.117l.42.397q.117.07.233.07.047 0 .234-.047.07-.397.606-.723.56-.35.654-.467.466-.093.536.35l.117.747q.047-.024.07-.047.14-.117.35-.397.14.327.7.327l.257-.023.116-.07q.14.116.14.303t-.28.677q-.28.42-.28.56t.21.14l.444-.07.093.256q-.023.024-.023.047-.117.093-.35.21-.35.093-.374.327h-.303q-.047-.07-.07-.117-.093-.117-.28-.303-.327.396-.63.396-.14 0-.443-.163-.234-.187-.56-.28l-.7-.093q-.164 0-.42.023-.234.023-.514.093l-1.213.21q-2.963 1.564-4.503 2.754-1.517 1.19-1.517 3.15l-.373-.07q-.35 0-.467.7 0 .63-.117.793.117.35.117.723 0 .444-.233 1.237-.21.77-.21 1.073 0 .327.093.584.093.233.42.56-.023.326.07.536l.7.584q.56.373.91 1.283.373.887.887.887l.35-.07q.303.536 1.68 1.073 1.376.513 1.726 1.377.257.07.35-.164.024-.116.07-.233.024 0 .047-.023l2.007.583q1.54.397 2.286.84.21-.327.56-.443.35-.117.817-.117h.49l.77-.07q.303-.07.583-.373.747-.374.887-1.12l.187-1.33q.21.21.396.233.164 0 .537-.513l.443-.56q-.07-.397.304-.537l.513 1.283q.28.63.28 1.214 0 .326-.14.793zm-21.77-4.9q-.07.07-.093.117 0 .023-.024.07l-.116-.42zm-.117.723h-.116v-.116h.116zm2.8 3.454h-.116v-.35h.116zm11.807-17.71-.163-.28q-.07-.234-.257-.257l-.116.303q.116.14.303.257.14.047.233-.023zm-12.763 6.976h-.35l.234.187.093-.117zm-.466 1.797q-.14 0-.304.163l-.116.187h.233l.163-.187zm2.38 1.61q-.094-.093-.234-.07v.607q.187-.07.21-.257zm-1.914 1.307v-.234h-.116v.234zm-.35 2.566h-.186v.35l.116-.116zm19.67 2.917q-.186-.07-.233-.117-.233.14-.28.257-.07.07-.07.257l.117.256h.116l.28-.326q.094-.14.07-.327zm0 1.61v-.233q-.07-.07-.35-.117-.046.163.047.28.093.093.303.07zm-9.053.957q-.117 0-.163.046l-.14.187q.07.14.233.07l.07-.14zm-2.683.303-.094-.257q-.116-.046-.21-.046v.42q.234 0 .304-.117z"/></g></g></svg>