<svg version="1.0" viewBox="0 0 128 128" xmlns="http://www.w3.org/2000/svg"><g transform="translate(-312 744)"><rect x="350" y="-664" width="60" height="36" ry="4" fill="#424242"/><rect x="351" y="-664" width="58" height="32" ry="4" fill="#848484"/><rect x="324" y="-728.01" width="112" height="80" ry="6" fill="#6f6f6f"/><rect x="325" y="-727" width="110" height="75" ry="5.5" fill="#acacac"/><rect x="329" y="-723" width="102" height="62" ry="1" fill="#424242"/><rect x="368" y="-659" width="24" height="4" ry="1" fill="#424242"/><path d="m374.75-712-.463 5.531a16.5 16.5 0 0 0-4.822 2.79l-5.028-2.368-5.25 9.094 4.565 3.17A16.5 16.5 0 0 0 363.5-691a16.5 16.5 0 0 0 .24 2.795l-4.553 3.158 5.25 9.094 5.016-2.362a16.5 16.5 0 0 0 4.834 2.772l.463 5.543h10.5l.463-5.531a16.5 16.5 0 0 0 4.822-2.79l5.028 2.368 5.25-9.094-4.565-3.17A16.5 16.5 0 0 0 396.5-691a16.5 16.5 0 0 0-.24-2.795l4.553-3.158-5.25-9.094-5.016 2.361a16.5 16.5 0 0 0-4.834-2.771L385.25-712zm5.25 15a6 6 0 0 1 6 6 6 6 0 0 1-6 6 6 6 0 0 1-6-6 6 6 0 0 1 6-6z" fill="#fff"/></g></svg>