<svg version="1.0" viewBox="0 0 128 128" xmlns="http://www.w3.org/2000/svg"><g transform="translate(-312 -156)"><rect x="324" y="168" width="104" height="104" ry="8.5" fill="#3f51b5"/><path d="M332.5 168a8.481 8.481 0 0 0-8.5 8.5v87c0 4.709 3.791 8.5 8.5 8.5h87c4.709 0 8.5-3.791 8.5-8.5v-87c0-4.709-3.791-8.5-8.5-8.5zm.5 1h86c4.432 0 8 3.568 8 8v83c0 4.432-3.568 8-8 8h-86c-4.432 0-8-3.568-8-8v-83c0-4.432 3.568-8 8-8z" fill-opacity=".502"/><path d="M376 198c-12.679 0-23 10.321-23 23s10.321 23 23 23 23-10.321 23-23-10.321-23-23-23zm0 4c10.517 0 19 8.483 19 19s-8.483 19-19 19-19-8.483-19-19 8.483-19 19-19z" color="#000" fill-opacity=".502" style="font-feature-settings:normal;font-variant-alternates:normal;font-variant-caps:normal;font-variant-ligatures:normal;font-variant-numeric:normal;font-variant-position:normal;isolation:auto;mix-blend-mode:normal;shape-padding:0;text-decoration-color:#000;text-decoration-line:none;text-decoration-style:solid;text-indent:0;text-orientation:mixed;text-transform:none;white-space:normal"/><rect x="357" y="210" width="36" height="2" ry="0" fill-opacity=".502"/><rect x="357" y="230" width="36" height="2" ry="0" fill-opacity=".502"/><rect x="355" y="220" width="40" height="2" ry="0" fill-opacity=".502"/><path d="M376 200c-1.279 0-2.333.842-3.15 1.994s-1.488 2.7-2.051 4.576C369.673 210.324 369 215.396 369 221s.673 10.676 1.799 14.43c.563 1.877 1.233 3.424 2.05 4.577S374.722 242 376 242s2.333-.842 3.15-1.994 1.488-2.7 2.051-4.577c1.126-3.753 1.799-8.825 1.799-14.43s-.673-10.676-1.799-14.43c-.563-1.876-1.233-3.424-2.05-4.576S377.278 200 376 200zm0 2c.378 0 .901.279 1.52 1.15s1.242 2.252 1.765 3.994C380.331 210.63 381 215.558 381 221s-.67 10.37-1.715 13.855c-.523 1.743-1.147 3.123-1.766 3.995S376.378 240 376 240s-.901-.279-1.52-1.15-1.242-2.252-1.765-3.995C371.669 231.37 371 226.441 371 221s.67-10.37 1.715-13.855c.523-1.742 1.147-3.122 1.766-3.994S375.622 202 376 202z" color="#000" fill-opacity=".502" opacity=".5" style="font-feature-settings:normal;font-variant-alternates:normal;font-variant-caps:normal;font-variant-ligatures:normal;font-variant-numeric:normal;font-variant-position:normal;isolation:auto;mix-blend-mode:normal;shape-padding:0;text-decoration-color:#000;text-decoration-line:none;text-decoration-style:solid;text-indent:0;text-orientation:mixed;text-transform:none;white-space:normal"/><path d="M376 200c-4.252 0-8.048 2.47-10.719 6.285C362.611 210.1 361 215.288 361 221s1.61 10.9 4.281 14.715C367.951 239.53 371.748 242 376 242s8.048-2.47 10.719-6.285C389.389 231.9 391 226.712 391 221s-1.61-10.9-4.281-14.715C384.049 202.47 380.252 200 376 200zm0 2c3.48 0 6.684 2.008 9.08 5.432 2.397 3.423 3.92 8.234 3.92 13.568s-1.524 10.145-3.92 13.568-5.6 5.431-9.08 5.431-6.684-2.008-9.08-5.431c-2.397-3.424-3.92-8.235-3.92-13.568s1.524-10.145 3.92-13.568c2.396-3.424 5.6-5.432 9.08-5.432z" color="#000" fill-opacity=".502" opacity=".5" style="font-feature-settings:normal;font-variant-alternates:normal;font-variant-caps:normal;font-variant-ligatures:normal;font-variant-numeric:normal;font-variant-position:normal;isolation:auto;mix-blend-mode:normal;shape-padding:0;text-decoration-color:#000;text-decoration-line:none;text-decoration-style:solid;text-indent:0;text-orientation:mixed;text-transform:none;white-space:normal"/><g transform="matrix(2 0 0 2 15 -299)"><circle cx="180.5" cy="259.5" r="10.5" fill="none" stroke="#fdfdfd" stroke-linecap="square" stroke-width="2"/><rect x="171" y="254" width="18" height="1" ry="0" fill="#fff"/><rect x="171" y="264" width="18" height="1" ry="0" fill="#fff"/><rect x="170" y="259" width="20" height="1" ry="0" fill="#fff"/><ellipse cx="180.5" cy="259.5" rx="3" ry="10" fill="none" opacity=".5" stroke="#fdfdfd" stroke-linecap="square"/><ellipse cx="180.5" cy="259.5" rx="7" ry="10" fill="none" opacity=".5" stroke="#fdfdfd" stroke-linecap="square"/></g></g></svg>