<svg version="1.0" viewBox="0 0 128 128" xmlns="http://www.w3.org/2000/svg"><g transform="translate(-312 -156)"><rect x="324" y="168" width="104" height="104" ry="8.5" fill="#cdcdcd"/><path d="M332.5 168a8.481 8.481 0 0 0-8.5 8.5v87c0 4.709 3.791 8.5 8.5 8.5h87c4.709 0 8.5-3.791 8.5-8.5v-87c0-4.709-3.791-8.5-8.5-8.5zm.5 1h86c4.432 0 8 3.568 8 8v83c0 4.432-3.568 8-8 8h-86c-4.432 0-8-3.568-8-8v-83c0-4.432 3.568-8 8-8z" fill-opacity=".502"/><path d="M360 233h4l16-40h4l16 40h4v4h-14v-4h4l-2.86-8h-18.218L370 233h4v4h-14zm14-12h16l-7.984-20.844z" aria-label="A"/><g fill="none" stroke="#000" stroke-opacity=".251"><path d="M359 236.4h-9.5v-43h9.5"/><path d="M403.5 238v6.5h-43V238"/></g></g></svg>