<svg version="1.0" viewBox="0 0 128 128" xmlns="http://www.w3.org/2000/svg"><g transform="translate(-312 -156)"><rect x="324" y="168" width="104" height="104" ry="8.5" fill="#d1a023"/><path d="M332.5 168a8.481 8.481 0 0 0-8.5 8.5v87c0 4.709 3.791 8.5 8.5 8.5h87c4.709 0 8.5-3.791 8.5-8.5v-87c0-4.709-3.791-8.5-8.5-8.5zm.5 1h86c4.432 0 8 3.568 8 8v83c0 4.432-3.568 8-8 8h-86c-4.432 0-8-3.568-8-8v-83c0-4.432 3.568-8 8-8z" fill-opacity=".502"/><g fill-opacity=".502"><path d="M383 209.51v11.195a20.539 20.539 0 0 1 10 7.489V209.51z"/><path d="M383 196.49c-3.682 1.537-6 4.634-6 8.016 0 4.97 4.925 9 11 9s11-3.03 11-8c-.004-3.38-2.321-7.472-6-9.008v9.008l-3 2h-4l-3-2z"/><path d="M376 221.51a19 18 0 0 0-19 18h-5c-.554 0-1 .446-1 1v4c0 .554.446 1 1 1h48c.554 0 1-.446 1-1v-4c0-.554-.446-1-1-1h-5a19 18 0 0 0-19-18zm0 5a13 13 0 0 1 13 13h-26a13 13 0 0 1 13-13z"/></g><g fill="#fff"><path d="M383 208.51v11.195a20.539 20.539 0 0 1 10 7.489V208.51z"/><path d="M383 195.49c-3.682 1.537-6 4.634-6 8.016 0 4.97 4.925 9 11 9s11-3.03 11-8c-.004-3.38-2.321-7.472-6-9.008v9.008l-3 2h-4l-3-2z"/><path d="M376 220.51a19 18 0 0 0-19 18h-5c-.554 0-1 .446-1 1v4c0 .554.446 1 1 1h48c.554 0 1-.446 1-1v-4c0-.554-.446-1-1-1h-5a19 18 0 0 0-19-18zm0 5a13 13 0 0 1 13 13h-26a13 13 0 0 1 13-13z"/></g></g></svg>