<svg version="1.0" viewBox="0 0 128 128" xmlns="http://www.w3.org/2000/svg"><g transform="translate(-312 -156)"><rect x="324" y="168" width="104" height="104" ry="8.5" fill="#faa41a"/><path d="M332.5 168a8.481 8.481 0 0 0-8.5 8.5v87c0 4.709 3.791 8.5 8.5 8.5h87c4.709 0 8.5-3.791 8.5-8.5v-87c0-4.709-3.791-8.5-8.5-8.5zm.5 1h86c4.432 0 8 3.568 8 8v83c0 4.432-3.568 8-8 8h-86c-4.432 0-8-3.568-8-8v-83c0-4.432 3.568-8 8-8z" fill-opacity=".502"/><path d="M356 193c-8 0-8 8-8 8v40c0 8 8 8 8 8h40s8 0 8-8v-40c0-8-8-8-8-8h-8zm0 8.016h32v4h-32zm0 12h36v4h-36zm0 12h24v4h-24zm0 12h36v4h-36z" fill-opacity=".196"/><path d="M356 192c-8 0-8 8-8 8v40c0 8 8 8 8 8h40s8 0 8-8v-40c0-8-8-8-8-8h-8zm0 8.016h32v4h-32zm0 12h36v4h-36zm0 12h24v4h-24zm0 12h36v4h-36z" fill="#fff"/></g></svg>