<svg version="1.0" viewBox="0 0 128 128" xmlns="http://www.w3.org/2000/svg"><g transform="translate(-312 -156)"><rect transform="rotate(90)" x="168" y="-428" width="76" height="76" ry="8" fill="#500302"/><rect x="353" y="169" width="74" height="71" ry="7.5" fill="#cf3b00"/><path d="M373.81 179.93c-.981 0-1.776.796-1.776 1.78v36.438c0 1.352 1.445 2.21 2.628 1.56L408 201.488c1.23-.675 1.23-2.445 0-3.12l-30.006-16.398-3.332-1.821a1.77 1.77 0 0 0-.853-.22z" color="#000" fill="#fff" fill-opacity=".94" style="isolation:auto;mix-blend-mode:normal;text-decoration-color:#000;text-decoration-line:none;text-decoration-style:solid;text-indent:0;text-transform:none;white-space:normal"/><rect transform="rotate(90)" x="196" y="-400" width="76" height="76" ry="8" fill="#793914"/><rect x="325" y="197" width="74" height="71" ry="7.5" fill="#f37329"/><path d="M352 217v25.078a8 8 0 0 0-4-1.078 8 8 0 1 0 8 8v-20h20v13.078a8 8 0 0 0-4-1.078 8 8 0 1 0 8 8v-32h-2z" fill-opacity=".196"/><path d="M352 216v25.078a8 8 0 0 0-4-1.078 8 8 0 1 0 8 8v-20h20v13.078a8 8 0 0 0-4-1.078 8 8 0 1 0 8 8v-32h-2z" fill="#fff" fill-opacity=".94"/></g></svg>