<svg version="1.0" viewBox="0 0 128 128" xmlns="http://www.w3.org/2000/svg"><g transform="translate(-312 -156)"><rect x="488" y="52" width="208" height="208" ry="16.5" fill="#d1a023"/><rect x="103" y="255" width="26" height="26" ry="2.5" fill="#d1a023"/><rect x="57" y="261" width="22" height="22" ry="2.5" fill="#d1a023"/><path d="M105.5 255a2.495 2.495 0 0 0-2.5 2.5v21c0 1.385 1.115 2.5 2.5 2.5h21c1.385 0 2.5-1.115 2.5-2.5v-21c0-1.385-1.115-2.5-2.5-2.5zm.5 1h20c1.108 0 2 .892 2 2v19c0 1.108-.892 2-2 2h-20c-1.108 0-2-.892-2-2v-19c0-1.108.892-2 2-2z" fill-opacity=".502"/><rect x="17" y="269" width="14" height="14" ry="2.5" fill="#d1a023"/><rect x="230.5" y="225.75" width="52" height="52" ry="4.5" fill="#d1a023"/><rect x="160" y="240" width="40" height="39" ry="3.5" fill="#d1a023"/><rect x="324" y="168" width="104" height="104" ry="8.5" fill="#d1a023"/><path d="M59.5 261a2.495 2.495 0 0 0-2.5 2.5v17c0 1.385 1.115 2.5 2.5 2.5h17c1.385 0 2.5-1.115 2.5-2.5v-17c0-1.385-1.115-2.5-2.5-2.5zm.5 1h16c1.108 0 2 .892 2 2v16c0 1.108-.892 2-2 2H60c-1.108 0-2-.892-2-2v-16c0-1.108.892-2 2-2z" fill-opacity=".502"/><path d="M19.5 269a2.495 2.495 0 0 0-2.5 2.5v9c0 1.385 1.115 2.5 2.5 2.5h9c1.385 0 2.5-1.115 2.5-2.5v-9c0-1.385-1.115-2.5-2.5-2.5zm.5 1h8c1.108 0 2 .892 2 2v8c0 1.108-.892 2-2 2h-8c-1.108 0-2-.892-2-2v-8c0-1.108.892-2 2-2z" fill-opacity=".502"/><path d="M234.5 226a4.49 4.49 0 0 0-4.5 4.5v43a4.49 4.49 0 0 0 4.5 4.5h43a4.49 4.49 0 0 0 4.5-4.5v-43a4.49 4.49 0 0 0-4.5-4.5zm.5 1h42c2.216 0 4 1.784 4 4v40c0 2.216-1.784 4-4 4h-42c-2.216 0-4-1.784-4-4v-40c0-2.216 1.784-4 4-4z" fill-opacity=".502"/><path d="M163.5 240a3.492 3.492 0 0 0-3.5 3.5v32c0 1.939 1.561 3.5 3.5 3.5h33c1.939 0 3.5-1.561 3.5-3.5v-32c0-1.939-1.561-3.5-3.5-3.5zm.5 1h32c1.662 0 3 1.338 3 3v29c0 1.662-1.338 3-3 3h-32c-1.662 0-3-1.338-3-3v-29c0-1.662 1.338-3 3-3z" fill-opacity=".502"/><path d="M332.5 168a8.481 8.481 0 0 0-8.5 8.5v87c0 4.709 3.791 8.5 8.5 8.5h87c4.709 0 8.5-3.791 8.5-8.5v-87c0-4.709-3.791-8.5-8.5-8.5zm.5 1h86c4.432 0 8 3.568 8 8v83c0 4.432-3.568 8-8 8h-86c-4.432 0-8-3.568-8-8v-83c0-4.432 3.568-8 8-8z" fill-opacity=".502"/><path d="M504.5 52c-9.141 0-16.5 7.359-16.5 16.5v175c0 9.141 7.359 16.5 16.5 16.5h175c9.141 0 16.5-7.359 16.5-16.5v-175c0-9.141-7.359-16.5-16.5-16.5zm.5 1h174c8.864 0 16 7.136 16 16v170c0 8.864-7.136 16-16 16H505c-8.864 0-16-7.136-16-16V69c0-8.864 7.136-16 16-16z" fill-opacity=".502"/><g fill-opacity=".502"><path d="M115.999 269.002c-3.998 0-5.998 3-5.998 6h-1.749c-.25 0-.25.157-.25.25v1.5c0 .25.138.25.25.25h15.494c.195.006.25-.13.25-.25v-1.5c.021-.146 0-.25-.25-.25h-1.75c0-3-1.999-6-5.997-6zm0 3c2.35 0 2.999 1.762 2.999 3H113c0-1.197.703-3 2.999-3z" fill-rule="evenodd"/><path d="M185.71 251.59a3.652 3.652 0 0 0-.967-.561l-.021 2.232-1.006.73h-1l-.998-.769v-2.232a3.501 3.501 0 0 0-.956.537c-1.377 1.114-1.395 2.948-.04 4.098.284.24.653.414.996.556 0 .81-.003 1.327 0 2.05 1.49.75 2.35 1.76 2.998 2.76v-4.75a3.55 3.55 0 0 0 .954-.553c1.377-1.114 1.395-2.949.04-4.098z" color="#000" style="text-decoration-line:none;text-indent:0;text-transform:none" transform="translate(-62.721 10.012)"/><path d="M68 273.002c-3.998 0-5.998 3-5.998 6h-1.749c-.25 0-.25.157-.25.25v1.5c0 .25.138.25.25.25h15.494c.195.006.25-.13.25-.25v-1.5c.021-.146 0-.25-.25-.25h-1.75c0-3-1.999-6-5.997-6zm0 3c2.35 0 2.999 1.762 2.999 3H65c0-1.198.703-3 2.999-3z" fill-rule="evenodd"/><path d="M185.71 251.59a3.652 3.652 0 0 0-.967-.561l-.021 2.232-1.006.73h-1l-.998-.769v-2.232a3.501 3.501 0 0 0-.956.537c-1.377 1.114-1.395 2.948-.04 4.098.284.24.653.414.996.556 0 .81-.003 1.327 0 2.05 1.49.75 2.35 1.76 2.998 2.76v-4.75a3.55 3.55 0 0 0 .954-.553c1.377-1.114 1.395-2.949.04-4.098z" color="#000" style="text-decoration-line:none;text-indent:0;text-transform:none" transform="translate(-110.72 14.012)"/><path d="M23.999 277.005c-2 0-2.999 1.5-2.999 3h-.875c-.124 0-.124.079-.124.125v.75c0 .125.069.125.124.125h7.747c.098.003.125-.065.125-.125v-.75c.011-.073 0-.125-.125-.125h-.874c0-1.5-1-3-2.999-3zm0 1.5c1.175 0 1.5.88 1.5 1.5h-3c0-.599.352-1.5 1.5-1.5z" fill-rule="evenodd"/><path d="M185.71 251.59a3.652 3.652 0 0 0-.967-.561l-.021 2.232-1.006.73h-1l-.998-.769v-2.232a3.501 3.501 0 0 0-.956.537c-1.377 1.114-1.395 2.948-.04 4.098.284.24.653.414.996.556 0 .81-.003 1.327 0 2.05 1.49.75 2.35 1.76 2.998 2.76v-4.75a3.55 3.55 0 0 0 .954-.553c1.377-1.114 1.395-2.949.04-4.098z" color="#000" style="text-decoration-line:none;text-indent:0;text-transform:none" transform="matrix(.5 0 0 .5 -65.361 147.51)"/><path d="M184 254v5.598a10.27 10.27 0 0 1 5 3.744V254z"/><path d="M184 247.49c-1.84.769-3 2.317-3 4.008 0 2.485 2.462 4.5 5.5 4.5s5.5-1.515 5.5-4c-.002-1.69-1.16-3.736-3-4.504v4.504l-1.5 1h-2l-1.5-1z"/><path d="M180.5 260a9.5 9 0 0 0-9.5 9h-2.5c-.277 0-.5.223-.5.5v2c0 .277.223.5.5.5h24c.277 0 .5-.223.5-.5v-2c0-.277-.223-.5-.5-.5H190a9.5 9 0 0 0-9.5-9zm0 2.5a6.5 6.5 0 0 1 6.5 6.5h-13a6.5 6.5 0 0 1 6.5-6.5z"/><path d="M260.005 247v5.598a10.27 10.27 0 0 1 5 3.744V247z"/><path d="M260.005 240.49c-1.84.769-3 2.317-3 4.008 0 2.485 2.462 4.5 5.5 4.5s5.5-1.515 5.5-4c-.002-1.69-1.16-3.736-3-4.504v4.504l-1.5 1h-2l-1.5-1z"/><path d="M256.505 253a9.5 9 0 0 0-9.5 9h-2.5c-.277 0-.5.223-.5.5v2c0 .277.223.5.5.5h24c.277 0 .5-.223.5-.5v-2c0-.277-.223-.5-.5-.5h-2.5a9.5 9 0 0 0-9.5-9zm0 2.5a6.5 6.5 0 0 1 6.5 6.5h-13a6.5 6.5 0 0 1 6.5-6.5z"/><path d="M383 209.51v11.195a20.539 20.539 0 0 1 10 7.489V209.51z"/><path d="M383 196.49c-3.682 1.537-6 4.634-6 8.016 0 4.97 4.925 9 11 9s11-3.03 11-8c-.004-3.38-2.321-7.472-6-9.008v9.008l-3 2h-4l-3-2z"/><path d="M376 221.51a19 18 0 0 0-19 18h-5c-.554 0-1 .446-1 1v4c0 .554.446 1 1 1h48c.554 0 1-.446 1-1v-4c0-.554-.446-1-1-1h-5a19 18 0 0 0-19-18zm0 5a13 13 0 0 1 13 13h-26a13 13 0 0 1 13-13z"/><path d="M606 134.02v22.39c8.202 2.86 15.15 8.146 20 14.977V134.02z"/><path d="M606 107.98c-7.364 3.075-12 9.267-12 16.031 0 9.941 9.85 18 22 18s22-6.059 22-16c-.008-6.758-4.642-14.943-12-18.015v18.015l-6 4h-8l-6-4z"/><path d="M592 158.02a38 36 0 0 0-38 36h-10c-1.108 0-2 .892-2 2v8c0 1.108.892 2 2 2h96c1.108 0 2-.892 2-2v-8c0-1.108-.892-2-2-2h-10a38 36 0 0 0-38-36zm0 10a26 26 0 0 1 26 26h-52a26 26 0 0 1 26-26z"/></g><g fill="#fff"><path d="M115.999 268.002c-3.998 0-5.998 3-5.998 6h-1.749c-.25 0-.25.157-.25.25v1.5c0 .25.138.25.25.25h15.494c.195.006.25-.13.25-.25v-1.5c.021-.146 0-.25-.25-.25h-1.75c0-3-1.999-6-5.997-6zm0 3c2.35 0 2.999 1.762 2.999 3H113c0-1.197.703-3 2.999-3z" fill-rule="evenodd"/><path d="M185.71 251.59a3.652 3.652 0 0 0-.967-.561l-.021 2.232-1.006.73h-1l-.998-.769v-2.232a3.501 3.501 0 0 0-.956.537c-1.377 1.114-1.395 2.948-.04 4.098.284.24.653.414.996.556 0 .81-.003 1.327 0 2.05 1.49.75 2.35 1.76 2.998 2.76v-4.75a3.55 3.55 0 0 0 .954-.553c1.377-1.114 1.395-2.949.04-4.098z" color="#000" style="text-decoration-line:none;text-indent:0;text-transform:none" transform="translate(-62.721 9.012)"/><path d="M68 272.002c-3.998 0-5.998 3-5.998 6h-1.749c-.25 0-.25.157-.25.25v1.5c0 .25.138.25.25.25h15.494c.195.006.25-.13.25-.25v-1.5c.021-.146 0-.25-.25-.25h-1.75c0-3-1.999-6-5.997-6zm0 3c2.35 0 2.999 1.762 2.999 3H65c0-1.198.703-3 2.999-3z" fill-rule="evenodd"/><path d="M185.71 251.59a3.652 3.652 0 0 0-.967-.561l-.021 2.232-1.006.73h-1l-.998-.769v-2.232a3.501 3.501 0 0 0-.956.537c-1.377 1.114-1.395 2.948-.04 4.098.284.24.653.414.996.556 0 .81-.003 1.327 0 2.05 1.49.75 2.35 1.76 2.998 2.76v-4.75a3.55 3.55 0 0 0 .954-.553c1.377-1.114 1.395-2.949.04-4.098z" color="#000" style="text-decoration-line:none;text-indent:0;text-transform:none" transform="translate(-110.72 13.012)"/><path d="M23.999 276.005c-2 0-2.999 1.5-2.999 3h-.875c-.124 0-.124.079-.124.125v.75c0 .125.069.125.124.125h7.747c.098.003.125-.065.125-.125v-.75c.011-.073 0-.125-.125-.125h-.874c0-1.5-1-3-2.999-3zm0 1.5c1.175 0 1.5.88 1.5 1.5h-3c0-.599.352-1.5 1.5-1.5z" fill-rule="evenodd"/><path d="M185.71 251.59a3.652 3.652 0 0 0-.967-.561l-.021 2.232-1.006.73h-1l-.998-.769v-2.232a3.501 3.501 0 0 0-.956.537c-1.377 1.114-1.395 2.948-.04 4.098.284.24.653.414.996.556 0 .81-.003 1.327 0 2.05 1.49.75 2.35 1.76 2.998 2.76v-4.75a3.55 3.55 0 0 0 .954-.553c1.377-1.114 1.395-2.949.04-4.098z" color="#000" style="text-decoration-line:none;text-indent:0;text-transform:none" transform="matrix(.5 0 0 .5 -65.361 146.51)"/><path d="M184 253v5.598a10.27 10.27 0 0 1 5 3.744V253z"/><path d="M184 246.49c-1.84.769-3 2.317-3 4.008 0 2.485 2.462 4.5 5.5 4.5s5.5-1.515 5.5-4c-.002-1.69-1.16-3.736-3-4.504v4.504l-1.5 1h-2l-1.5-1z"/><path d="M180.5 259a9.5 9 0 0 0-9.5 9h-2.5c-.277 0-.5.223-.5.5v2c0 .277.223.5.5.5h24c.277 0 .5-.223.5-.5v-2c0-.277-.223-.5-.5-.5H190a9.5 9 0 0 0-9.5-9zm0 2.5a6.5 6.5 0 0 1 6.5 6.5h-13a6.5 6.5 0 0 1 6.5-6.5z"/><path d="M260.005 246v5.598a10.27 10.27 0 0 1 5 3.744V246z"/><path d="M260.005 239.49c-1.84.769-3 2.317-3 4.008 0 2.485 2.462 4.5 5.5 4.5s5.5-1.515 5.5-4c-.002-1.69-1.16-3.736-3-4.504v4.504l-1.5 1h-2l-1.5-1z"/><path d="M256.505 252a9.5 9 0 0 0-9.5 9h-2.5c-.277 0-.5.223-.5.5v2c0 .277.223.5.5.5h24c.277 0 .5-.223.5-.5v-2c0-.277-.223-.5-.5-.5h-2.5a9.5 9 0 0 0-9.5-9zm0 2.5a6.5 6.5 0 0 1 6.5 6.5h-13a6.5 6.5 0 0 1 6.5-6.5z"/><path d="M383 208.51v11.195a20.539 20.539 0 0 1 10 7.489V208.51z"/><path d="M383 195.49c-3.682 1.537-6 4.634-6 8.016 0 4.97 4.925 9 11 9s11-3.03 11-8c-.004-3.38-2.321-7.472-6-9.008v9.008l-3 2h-4l-3-2z"/><path d="M376 220.51a19 18 0 0 0-19 18h-5c-.554 0-1 .446-1 1v4c0 .554.446 1 1 1h48c.554 0 1-.446 1-1v-4c0-.554-.446-1-1-1h-5a19 18 0 0 0-19-18zm0 5a13 13 0 0 1 13 13h-26a13 13 0 0 1 13-13z"/><path d="M606 133.02v22.39c8.202 2.86 15.15 8.146 20 14.977V133.02z"/><path d="M606 106.98c-7.364 3.075-12 9.267-12 16.031 0 9.941 9.85 18 22 18s22-6.059 22-16c-.008-6.758-4.642-14.943-12-18.015v18.015l-6 4h-8l-6-4z"/><path d="M592 157.02a38 36 0 0 0-38 36h-10c-1.108 0-2 .892-2 2v8c0 1.108.892 2 2 2h96c1.108 0 2-.892 2-2v-8c0-1.108-.892-2-2-2h-10a38 36 0 0 0-38-36zm0 10a26 26 0 0 1 26 26h-52a26 26 0 0 1 26-26z"/></g></g></svg>