<svg version="1.0" viewBox="0 0 128 128" xmlns="http://www.w3.org/2000/svg"><g transform="translate(-312 -156)"><rect x="324" y="168" width="104" height="104" ry="8.5" fill="#9c27b0"/><path d="M332.5 168a8.481 8.481 0 0 0-8.5 8.5v87c0 4.709 3.791 8.5 8.5 8.5h87c4.709 0 8.5-3.791 8.5-8.5v-87c0-4.709-3.791-8.5-8.5-8.5zm.5 1h86c4.432 0 8 3.568 8 8v83c0 4.432-3.568 8-8 8h-86c-4.432 0-8-3.568-8-8v-83c0-4.432 3.568-8 8-8z" fill-opacity=".502"/><g transform="matrix(3 0 0 3 26.813 -571.82)" fill-opacity=".196" color="#000"><rect x="109" y="256.27" width="6" height="16" rx="2.934" ry="2.986"/><path d="M114.2 256.27c.878.713 1.469 1.792 1.469 3v1h2.125c-.074-1.093 1.249-2 2-2 .68 0 1 .012 1 1v1h1.219c1.228-.6 1.78-1.97 1.78-2.688 0-.735-2.385-1.312-3.687-1.312z"/><path d="M115.67 260.94v4.313c2.766 2.661 6.125 2.406 6.125 2.406s.353-1.521-1.906-4.031l-2.375-2.688h-1.781c-.022.002-.042-.002-.063 0zm2.975 2.532 1.683 1.737c-1.799.165-2.15-.857-1.683-1.737z"/></g><g transform="matrix(3 0 0 3 26.813 -572.82)" fill="#fff" color="#000"><rect x="109" y="256.27" width="6" height="16" rx="2.934" ry="2.986"/><path d="M114.2 256.27c.878.713 1.469 1.792 1.469 3v1h2.125c-.074-1.093 1.249-2 2-2 .68 0 1 .012 1 1v1h1.219c1.228-.6 1.78-1.97 1.78-2.688 0-.735-2.385-1.312-3.687-1.312z"/><path d="M115.67 260.94v4.313c2.766 2.661 6.125 2.406 6.125 2.406s.353-1.521-1.906-4.031l-2.375-2.688h-1.781c-.022.002-.042-.002-.063 0zm2.975 2.532 1.683 1.737c-1.799.165-2.15-.857-1.683-1.737z"/></g></g></svg>