<svg version="1.0" viewBox="0 0 128 128" xmlns="http://www.w3.org/2000/svg"><g transform="translate(-312 -156)"><rect x="324" y="168" width="104" height="104" ry="8.5" fill="#3f51b5"/><path d="M332.5 168a8.481 8.481 0 0 0-8.5 8.5v87c0 4.709 3.791 8.5 8.5 8.5h87c4.709 0 8.5-3.791 8.5-8.5v-87c0-4.709-3.791-8.5-8.5-8.5zm.5 1h86c4.432 0 8 3.568 8 8v83c0 4.432-3.568 8-8 8h-86c-4.432 0-8-3.568-8-8v-83c0-4.432 3.568-8 8-8z" fill-opacity=".502"/><path d="M365.27 205.62v28l6.266-7.64 4.132 9.972a2 2 0 1 0 3.696-1.531l-4.223-10.192 8.758.02z" fill="none" stroke="#fff" stroke-width="4"/><path d="M365.27 205.62v28l6.266-7.64 4.132 9.972a2 2 0 1 0 3.696-1.531l-4.223-10.192 8.758.02z" fill="#151515" fill-rule="evenodd"/></g></svg>