<svg version="1.0" viewBox="0 0 128 128" xmlns="http://www.w3.org/2000/svg"><g transform="translate(-312 -156)"><rect x="324" y="168" width="104" height="104" ry="8.5" fill="#479863"/><path d="M332.5 168a8.481 8.481 0 0 0-8.5 8.5v87c0 4.709 3.791 8.5 8.5 8.5h87c4.709 0 8.5-3.791 8.5-8.5v-87c0-4.709-3.791-8.5-8.5-8.5zm.5 1h86c4.432 0 8 3.568 8 8v83c0 4.432-3.568 8-8 8h-86c-4.432 0-8-3.568-8-8v-83c0-4.432 3.568-8 8-8z" fill-opacity=".502"/><path d="M388 196a9 9 0 0 0-9 9c0 .694.133 1.32.281 1.969l-9.656 6A8.967 8.967 0 0 0 364 211a9 9 0 0 0 0 18 8.967 8.967 0 0 0 5.625-1.969l9.656 6c-.148.649-.28 1.275-.28 1.969a9 9 0 1 0 9-9 8.967 8.967 0 0 0-5.626 1.969l-9.656-6c.148-.649.281-1.275.281-1.969 0-.694-.133-1.32-.281-1.969l9.656-6A8.967 8.967 0 0 0 388 214a9 9 0 0 0 0-18z" fill="#fff"/></g></svg>