<svg version="1.0" viewBox="0 0 128 128" xmlns="http://www.w3.org/2000/svg"><g transform="translate(-312 -156)"><rect x="324" y="168" width="104" height="104" ry="8.5" fill="#48b9c7"/><path d="M332.5 168a8.481 8.481 0 0 0-8.5 8.5v87c0 4.709 3.791 8.5 8.5 8.5h87c4.709 0 8.5-3.791 8.5-8.5v-87c0-4.709-3.791-8.5-8.5-8.5zm.5 1h86c4.432 0 8 3.568 8 8v83c0 4.432-3.568 8-8 8h-86c-4.432 0-8-3.568-8-8v-83c0-4.432 3.568-8 8-8z" fill-opacity=".502"/><path d="M376 196c13.255 0 24 10.745 24 24v3a9 9 0 0 1-15.89 5.789c-2.14 1.972-4.973 3.211-8.11 3.211-6.627 0-12-5.372-12-12 0-6.627 5.373-12 12-12s12 5.373 12 12v3a3 3 0 0 0 6 0v-3c0-9.941-8.059-18-18-18s-18 8.059-18 18 8.059 18 18 18h15s3 0 3 3c-.187 3-3 3-3 3h-15c-13.255 0-24-10.745-24-24s10.745-24 24-24zm0 18a6 6 0 1 0 0 12 6 6 0 0 0 0-12z" fill="#fff"/></g></svg>