<svg version="1.0" viewBox="0 0 128 128" xmlns="http://www.w3.org/2000/svg"><g transform="translate(-312 -156)"><rect x="324" y="168" width="104" height="104" ry="8.5" fill="#f15d22"/><path d="M332.5 168a8.481 8.481 0 0 0-8.5 8.5v87c0 4.709 3.791 8.5 8.5 8.5h87c4.709 0 8.5-3.791 8.5-8.5v-87c0-4.709-3.791-8.5-8.5-8.5zm.5 1h86c4.432 0 8 3.568 8 8v83c0 4.432-3.568 8-8 8h-86c-4.432 0-8-3.568-8-8v-83c0-4.432 3.568-8 8-8z" fill-opacity=".502"/><path d="M370.01 200a5 5 0 1 0 0 10 5 5 0 0 0 0-10zm-4 12a2 2 0 0 0-1.848 1.23l-5 10c-1.105 2.494 2.699 4.08 3.692 1.54l2.219-5.32-.07.55v18c0 1.108.891 2 2 2h.007c1.108 0 2-.892 2-2l-.008-10h2l.008 10c.001 1.108.892 2 2 2s2-.892 2-2l-.008-18-.074-.598 2.234 5.368a2 2 0 0 0 2.86 1.004l3.058 1.835c-.026.13-.078.253-.078.391v11c0 .554.446 1 1 1s1-.446 1-1v-5h2.008v5c0 .554.446 1 1 1s1-.446 1-1v-9.582l2.285 2.29c.943.98 2.396-.472 1.414-1.415l-3.992-4a1 1 0 0 0-.707-.293h-3.73l-3.255-1.957c0-.28-.058-.557-.171-.812l-5-10a2 2 0 0 0-1.844-1.23zm19.992 5.5c-1.927 0-3.5 1.573-3.5 3.5s1.573 3.5 3.5 3.5 3.5-1.573 3.5-3.5-1.573-3.5-3.5-3.5z" fill="#fff"/></g></svg>