<svg version="1.0" viewBox="0 0 128 128" xmlns="http://www.w3.org/2000/svg"><g transform="translate(-312 -156)"><rect x="324" y="168" width="104" height="104" ry="8.5" fill="#9c27b0"/><path d="M332.5 168a8.481 8.481 0 0 0-8.5 8.5v87c0 4.709 3.791 8.5 8.5 8.5h87c4.709 0 8.5-3.791 8.5-8.5v-87c0-4.709-3.791-8.5-8.5-8.5zm.5 1h86c4.432 0 8 3.568 8 8v83c0 4.432-3.568 8-8 8h-86c-4.432 0-8-3.568-8-8v-83c0-4.432 3.568-8 8-8z" fill-opacity=".502"/><g fill="#fff"><path d="M375.205 205a13.5 13.5 0 0 1 2.285 7.5 13.5 13.5 0 0 1-13.5 13.5 13.5 13.5 0 0 1-7.5-2.28V226c0 3.324 2.676 6 6 6h30c3.324 0 6-2.676 6-6v-15c0-3.324-2.676-6-6-6z"/><path d="m389.485 232-6 6-6-6z"/><path d="M363.985 202a10.5 10.5 0 0 0-10.5 10.5 10.5 10.5 0 0 0 10.5 10.5 10.5 10.5 0 0 0 10.5-10.5 10.5 10.5 0 0 0-10.5-10.5zm-1.5 3h3v9h-3zm0 12h3v3h-3z"/></g></g></svg>