<svg version="1.0" viewBox="0 0 128 128" xmlns="http://www.w3.org/2000/svg"><g transform="translate(-312 -156)"><rect x="324" y="168" width="104" height="104" ry="8.5" fill="#7b736e"/><path d="M332.5 168a8.481 8.481 0 0 0-8.5 8.5v87c0 4.709 3.791 8.5 8.5 8.5h87c4.709 0 8.5-3.791 8.5-8.5v-87c0-4.709-3.791-8.5-8.5-8.5zm.5 1h86c4.432 0 8 3.568 8 8v83c0 4.432-3.568 8-8 8h-86c-4.432 0-8-3.568-8-8v-83c0-4.432 3.568-8 8-8z" fill-opacity=".502"/><g fill="#fff"><path d="M358.008 209.99c-6 0-6 6-6 6v22c0 5.896 6 6 6 6h28v-12h-8.687c-.03.435-.073.888-.094 1.312h1.312v1.5h-1.5c-.242 2.122-1.077 3.188-2.531 3.188-.364 0-.927-.066-1.594-.188l-.28-1.5c.787.121 1.45.188 1.874.188.424 0 .629-.597.75-1.688h-7.031c.13-.876.188-1.873.28-2.812h-2.062c-.696 2.021-1.575 4.016-2.718 5.906l-1.5-1.218a33.04 33.04 0 0 0 2.437-4.688h-.656v-7.219c-.067-.055-.12-.135-.188-.187l.188-.188v-5.343c-.068-.056-.12-.135-.188-.188l.188-.187v-8.688zm.281 9.156h4.782v14.344h-1.594v-1.594h-1.594v2.344h-1.594zm1.594 1.594v9.656h1.594v-9.656zm10.406 11.25c-.058.43-.124.909-.187 1.313h5.343c.043-.446.058-.871.094-1.313h-1.406l-.657.844c-.288-.317-.621-.556-.937-.844z" opacity=".5"/><path d="M365.988 196.01v33.999h28s6 0 6-6v-22s0-6-6-6z"/></g><path d="m379.68 203-6.562 21h4.78l1.013-4h6.957l1.03 4h4.97l-6.563-21zm2.625 3.562h.094l2.433 9.438h-4.91z" fill="#7b736e"/></g></svg>