<svg version="1.0" viewBox="0 0 128 128" xmlns="http://www.w3.org/2000/svg"><g transform="translate(-312 -156)"><rect x="324" y="168" width="104" height="104" ry="8.5" fill="#7b736e"/><path d="M332.5 168a8.481 8.481 0 0 0-8.5 8.5v87c0 4.709 3.791 8.5 8.5 8.5h87c4.709 0 8.5-3.791 8.5-8.5v-87c0-4.709-3.791-8.5-8.5-8.5zm.5 1h86c4.432 0 8 3.568 8 8v83c0 4.432-3.568 8-8 8h-86c-4.432 0-8-3.568-8-8v-83c0-4.432 3.568-8 8-8z" fill-opacity=".502"/><g fill="#fff"><path d="M353.01 239.5v-25c0-1.5 1.559-1.5 1.559-1.5h10.44v10h-6v12.008h18v-6h6V239.5c0 1.43-1.5 1.5-1.5 1.5h-27s-1.5 0-1.5-1.5z"/><path d="M370.5 199c-1.5 0-1.5 1.5-1.5 1.5v23c0 1.5 1.5 1.5 1.5 1.5h27s1.5 0 1.5-1.5v-23c0-1.5-1.5-1.5-1.5-1.5zm4.5 8h18v11.99h-18z"/></g></g></svg>