<svg version="1.0" viewBox="0 0 128 128" xmlns="http://www.w3.org/2000/svg"><g transform="translate(-312 -156)"><rect x="324" y="168" width="104" height="104" ry="8.5" fill="#cdcdcd"/><path d="M332.5 168a8.481 8.481 0 0 0-8.5 8.5v87c0 4.709 3.791 8.5 8.5 8.5h87c4.709 0 8.5-3.791 8.5-8.5v-87c0-4.709-3.791-8.5-8.5-8.5zm.5 1h86c4.432 0 8 3.568 8 8v83c0 4.432-3.568 8-8 8h-86c-4.432 0-8-3.568-8-8v-83c0-4.432 3.568-8 8-8z" fill-opacity=".502"/><path d="m368.12 188-.694 8.297a24.75 24.75 0 0 0-7.234 4.183l-7.54-3.55-7.876 13.64 6.847 4.756a24.75 24.75 0 0 0-.378 4.174 24.75 24.75 0 0 0 .36 4.193l-6.829 4.737 7.875 13.641 7.524-3.542a24.75 24.75 0 0 0 7.25 4.157l.695 8.315h15.75l.694-8.297a24.75 24.75 0 0 0 7.234-4.184l7.54 3.551 7.876-13.64-6.847-4.756a24.75 24.75 0 0 0 .378-4.175 24.75 24.75 0 0 0-.36-4.192l6.829-4.737-7.875-13.641-7.524 3.542a24.75 24.75 0 0 0-7.25-4.158L383.87 188zm7.875 22.5a9 9 0 0 1 9 9 9 9 0 0 1-9 9 9 9 0 0 1-9-9 9 9 0 0 1 9-9z" fill="#463e39"/></g></svg>