<?xml version="1.0" encoding="UTF-8" standalone="no"?>
<svg
   xmlns:dc="http://purl.org/dc/elements/1.1/"
   xmlns:cc="http://creativecommons.org/ns#"
   xmlns:rdf="http://www.w3.org/1999/02/22-rdf-syntax-ns#"
   xmlns:svg="http://www.w3.org/2000/svg"
   xmlns="http://www.w3.org/2000/svg"
   xmlns:sodipodi="http://sodipodi.sourceforge.net/DTD/sodipodi-0.dtd"
   xmlns:inkscape="http://www.inkscape.org/namespaces/inkscape"
   width="32"
   height="32"
   version="1.1"
   id="svg12"
   sodipodi:docname="user-violet-desktop.svg"
   inkscape:version="0.92.2 (5c3e80d, 2017-08-06)">
  <metadata
     id="metadata18">
    <rdf:RDF>
      <cc:Work
         rdf:about="">
        <dc:format>image/svg+xml</dc:format>
        <dc:type
           rdf:resource="http://purl.org/dc/dcmitype/StillImage" />
      </cc:Work>
    </rdf:RDF>
  </metadata>
  <defs
     id="defs16" />
  <sodipodi:namedview
     pagecolor="#ffffff"
     bordercolor="#666666"
     borderopacity="1"
     objecttolerance="10"
     gridtolerance="10"
     guidetolerance="10"
     inkscape:pageopacity="0"
     inkscape:pageshadow="2"
     inkscape:window-width="640"
     inkscape:window-height="480"
     id="namedview14"
     showgrid="false"
     inkscape:zoom="8.90625"
     inkscape:cx="-8.2526316"
     inkscape:cy="16"
     inkscape:current-layer="svg12" />
  <rect
     style="opacity:0.2"
     width="25"
     height="22"
     x="3"
     y="6"
     rx="1.25"
     ry="1.25"
     id="rect2" />
  <path
     style="fill:#a674de"
     d="M 3,7.9 3,25.75 C 3,26.4425 3.5575,27 4.25,27 l 22.5,0 C 27.4425,27 28,26.4425 28,25.75 L 28,7.9 Z"
     id="path4" />
  <path
     style="fill:#3a284d"
     d="M 4.25 5 C 3.5575 5 3 5.5575 3 6.25 L 3 8 L 28 8 L 28 6.25 C 28 5.5575 27.442 5 26.75 5 L 4.25 5 z"
     id="path6" />
  <path
     style="opacity:0.1;fill:#ffffff"
     d="M 4.25 5 C 3.5575 5 3 5.5575 3 6.25 L 3 7.25 C 3 6.5575 3.5575 6 4.25 6 L 26.75 6 C 27.442 6 28 6.5575 28 7.25 L 28 6.25 C 28 5.5575 27.442 5 26.75 5 L 4.25 5 z"
     id="path10" />
</svg>
