<svg version="1.0" viewBox="0 0 32 32" xmlns="http://www.w3.org/2000/svg"><g stroke-linecap="square" transform="translate(-100 348)"><path d="M120-319h-16c-1.108 0-2-.892-2-2v-18c0-1.108.892-2 2-2h16l11 11z" fill="#ffce51"/><path d="M104-341c-1.108 0-2 .892-2 2v18c0 1.108.892 2 2 2h16l11-11-11-11zm0 1h15.5l9.5 9.5-9.5 9.5H104c-.554 0-1-.446-1-1v-17c0-.554.446-1 1-1z" fill-opacity=".5"/><rect x="116" y="-333" width="16" height="17" ry="8" fill="#479863"/><path d="M124-333c-4.432 0-8 3.568-8 8v1c0 4.432 3.568 8 8 8s8-3.568 8-8v-1c0-4.432-3.568-8-8-8zm0 1c3.878 0 7 3.122 7 7s-3.122 7-7 7-7-3.122-7-7 3.122-7 7-7z" fill-opacity=".5"/><path fill="#fff" d="M123-330h2v10h-2z"/><path fill="#fff" d="M119-326h10v2h-10z"/></g></svg>