<svg version="1.0" viewBox="0 0 32 32" xmlns="http://www.w3.org/2000/svg"><g transform="translate(-100 -252)"><rect x="114" y="254" width="4" height="16" ry="2" fill="#f15d22"/><path d="M116 254c-1.108 0-2 .892-2 2v12a1.99 1.99 0 0 0 1.05 1.752c-.021-.082-.05-.163-.05-.252V256c0-.554.446-1 1-1s1 .446 1 1v13.5c0 .09-.029.17-.05.252A1.989 1.989 0 0 0 118 268v-12c0-1.108-.892-2-2-2z" fill-opacity=".502"/><path d="M107 264c-1.108 0-2 .892-2 2v7h22v-7c0-1.108-.892-2-2-2z" fill="#f15d22"/><path d="M105 273v8h22v-8z" fill="#ffce51"/><path d="M107 264c-1.108 0-2 .892-2 2v7h1v-7c0-.554.446-1 1-1h18c.554 0 1 .446 1 1v7h1v-7c0-1.108-.892-2-2-2z" fill-opacity=".502"/><path d="M105 273v8h22v-8h-1v6h-20v-6z" fill-opacity=".502"/><path fill-opacity=".502" d="M114 273h1v8h-1z"/><path fill-opacity=".502" d="M117 273h1v8h-1z"/><path fill-opacity=".502" d="M120 273h1v8h-1z"/><path fill-opacity=".502" d="M123 273h1v8h-1z"/><path fill-opacity=".502" d="M111 273h1v8h-1z"/><path fill-opacity=".502" d="M108 273h1v8h-1z"/></g></svg>