<svg version="1.0" viewBox="0 0 32 32" xmlns="http://www.w3.org/2000/svg"><g transform="translate(-100 48)"><rect transform="matrix(0 -1 -1 0 0 0)" x="18" y="-127" width="27" height="22" ry="2" fill="#50443f"/><rect transform="matrix(0 -1 -1 0 0 0)" x="20" y="-126" width="24" height="20" ry="1.5" fill="#a1887f"/><path fill="#fff" d="M108-42h16v20h-16z"/><rect x="112" y="-48" width="8" height="8" ry="3.939" fill="#666"/><rect x="112" y="-44" width="8" height="4" ry="0" fill="#666"/><path fill="#ccc" d="M110-42h12v2h-12z"/><rect x="110" y="-43" width="12" height="2" ry=".956" fill="#ccc"/><circle cx="116" cy="-44" r="3" fill="#ccc"/><path fill="#ccc" d="M113-44h6v2.5h-6z"/><circle cx="116" cy="-44.5" r="1.5" fill="#fff"/><rect x="110" y="-27" width="8" height="1" ry=".456" fill="#474341" fill-opacity=".69"/><rect x="110" y="-30" width="12.1" height="1" ry=".456" fill="#474341" fill-opacity=".69"/><rect x="110" y="-33" width="12.1" height="1" ry=".456" fill="#474341" fill-opacity=".69"/><rect x="110" y="-36" width="12.1" height="1" ry=".456" fill="#474341" fill-opacity=".69"/></g></svg>