<svg version="1.0" viewBox="0 0 32 32" xmlns="http://www.w3.org/2000/svg"><g transform="translate(-100 648)"><rect x="103" y="-645" width="26" height="26" ry="2" fill="#767676"/><rect x="104" y="-644" width="24" height="23" ry="1" fill="#ededed"/><rect x="104" y="-644" width="24" height="4" ry="1" fill="#faa41a"/><rect x="104" y="-642" width="24" height="2" ry="0" fill="#faa41a"/><g aria-label="19"><path d="m109.01-625.87 1.992-.133v-8h-2v-1l4-1v10l2.008.133-.008.867h-6z"/><path d="M119.09-626.64c.573 0 1.035-.218 1.388-.654.352-.44.518-1.099.518-1.975v-.161c-.24.308-.516.543-.849.705-.332.156-.69.235-1.072.235-.998 0-1.782-.326-2.35-.977-.567-.656-.729-1.56-.729-2.71 0-1.082.216-1.987.891-2.717.68-.734 1.54-1.101 2.578-1.101 1.091 0 1.977.377 2.658 1.13.68.75.873 1.805.873 3.165v2.32c0 1.386-.232 2.463-.99 3.232-.755.768-1.726 1.153-2.916 1.153-.372 0-.756-.04-1.153-.118a5.014 5.014 0 0 1-.94-.27v-1.005l.096-.607c.328.122.646.215.954.274.309.054.656.08 1.043.08zm.345-3.422c.357 0 .668-.066.933-.198.269-.137.472-.318.628-.544v-1.145c0-.783-.127-1.378-.4-1.784-.275-.407-.647-.61-1.117-.61-.43 0-.783.213-1.057.639-.27.42-.426 1.112-.426 1.709 0 .646.142.979.382 1.36.244.382.597.573 1.057.573z"/></g><rect x="116" y="-633" width="16" height="17" ry="8" fill="#479863"/><path d="M124-633c-4.432 0-8 3.568-8 8v1c0 4.432 3.568 8 8 8s8-3.568 8-8v-1c0-4.432-3.568-8-8-8zm0 1c3.878 0 7 3.122 7 7s-3.122 7-7 7-7-3.122-7-7 3.122-7 7-7z" fill-opacity=".5"/><path fill="#fff" d="M123-630h2v10h-2z"/><path fill="#fff" d="M119-626h10v2h-10z"/></g></svg>