<svg version="1.0" viewBox="0 0 32 32" xmlns="http://www.w3.org/2000/svg"><g transform="translate(-100 -252)"><rect x="101" y="254" width="30" height="30" ry="15" fill="#213397"/><rect x="101" y="253" width="30" height="30" ry="15" fill="#3f51b5"/><rect x="101.5" y="253.5" width="29" height="29" ry="14.5" fill="none" stroke="#fff" stroke-linecap="round" stroke-linejoin="round" stroke-opacity=".392"/><path d="m114 274.01 2-.008v2.992l-2 .008zm2-2.008h-2c0-2.5.71-3.666 2.221-5.06 1.11-1.023 2.343-1.943 2.388-3.322.055-1.731-1.92-2.533-3.301-2.59-1.59-.067-3.003.804-4.182 1.613v-2.214a8.532 8.532 0 0 1 4.594-1.332c2.635 0 5.35 1.967 5.28 4.405-.06 2.077-1.556 3.207-3 4.5-1.356 1.215-2.007 2.57-2 4z" fill="#fff"/></g></svg>