<svg version="1.0" viewBox="0 0 32 32" xmlns="http://www.w3.org/2000/svg"><g transform="translate(-100 -252)"><rect x="115" y="256" width="15" height="13" ry="2" fill="#4860c8"/><rect x="115" y="258" width="15" height="13" ry="2" fill="#213397"/><rect x="115" y="257" width="15" height="13" ry="2" fill="#3f51b5"/><rect x="102" y="263" width="15" height="13" ry="2" fill="#4ea9b4"/><rect x="102" y="265" width="15" height="13" ry="2" fill="#1c8d9b"/><rect x="102" y="264" width="15" height="13" ry="2" fill="#48b9c7"/><path d="m102 282 4-4-4-3z" fill="#1c8d9b"/><path d="m102 281 4-4-4-3z" fill="#48b9c7"/><path d="m130 275-4-4 4-3z" fill="#213397"/><path d="m130 274-4-4 4-3z" fill="#3f51b5"/><g fill="#fff" stroke-width=".814" aria-label="Q?"><path d="M106.5 267.003c-1.742 0-2.515 1.545-2.5 3 .02 1.84.966 2.93 2.5 3 1.733.08 2.5-1.5 2.5-3 0-1.837-1-3-2.5-3zm1.5 6.5 1.155 1.5H108l-1-1h-.5c-1.5 0-3.527-2.032-3.5-4 .03-2.172 1.5-4 3.5-4 2.294 0 3.5 2 3.5 4 0 1.78-.817 2.773-2 3.5z"/><path d="M112 273.01h.998v1H112zm.998-1h-1c0-1.5.379-1.892 1-2.5.483-.474 1-.927 1-1.5 0-1-.886-1-1.5-1-1.5 0-1.982.695-2.5 1v-1c.601-.413 1-1 2.5-1 1.312 0 2.5 1 2.5 2 0 .887-.91 1.908-1.5 2.5-.5.5-.5.709-.5 1.5z"/></g><path d="M126 265h1v1h-1zm0-5h1v2.775l-.085 1.225h-.826l-.089-1.225z" fill="#fff" aria-label="A!"/><path d="m122 260-1 3h2zm-.5-1h1l3 7h-1l-1-2h-3l-1 2h-1z" fill="#fff"/></g></svg>