<svg version="1.0" viewBox="0 0 32 32" xmlns="http://www.w3.org/2000/svg"><g transform="translate(-100 -252)"><rect x="102" y="259" width="28" height="23" ry="2" fill="#a27100"/><rect x="102" y="259" width="28" height="22" ry="2" fill="#ffce51"/><path d="M104 281h24c1.108 0 2-.892 2-2l-14-19-14 19c0 1.108.892 2 2 2z" fill="#c29a32"/><path d="M130 261v1l-14 11-14-11v-1z" fill-opacity=".314"/><path d="M104 259h24c1.108 0 2 .892 2 2l-14 11-14-11c0-1.108.892-2 2-2z" fill="#ffee7d"/><rect x="102.5" y="259.5" width="27" height="21" ry="1.5" fill="none" stroke="#303030" stroke-linecap="round" stroke-linejoin="round" stroke-opacity=".392"/><path d="M127 284h-6l-4-4v-6l4-4h5.75l4.25 4v5.75z" fill-opacity=".392"/><path d="M127 283h-6l-4-4v-6l4-4.5h6l4 4.5v5.75z" fill="#cf3b00"/><path d="M123.5 270c-.331 0-.503.272-.503.603.006 1.294.003 2.6.003 3.897h-1v-2.997h-.003c0-.332-.166-.503-.497-.503s-.5.169-.5.5c.007.894.003 1.8.003 2.698v2.997l-1.059-1.53c-.496-.718-1.804-.113-1.19.93.763 1.295 3.047 5.099 4.845 5.099 1.668 0 4.403.021 4.4-2.694v-7c0-.33-.168-.5-.5-.5s-.5.17-.5.5l.004.052L127 275.5h-1c-.001-1.19-.003-3.688 0-4.5 0-.33-.169-.5-.5-.5s-.5.17-.5.5a.47.47 0 0 0 .003.053L125 274.5h-1l.003-4H124c0-.332-.169-.5-.5-.5z" fill="#fff"/></g></svg>