<svg version="1.0" viewBox="0 0 32 32" xmlns="http://www.w3.org/2000/svg"><g transform="translate(-100 -252)"><rect x="102" y="259" width="28" height="23" ry="2" fill="#a27100"/><rect x="102" y="259" width="28" height="22" ry="2" fill="#ffce51"/><path d="M104 281h24c1.108 0 2-.892 2-2l-14-19-14 19c0 1.108.892 2 2 2z" fill="#c29a32"/><path d="M130 261v1l-14 11-14-11v-1z" fill-opacity=".314"/><path d="M104 259h24c1.108 0 2 .892 2 2l-14 11-14-11c0-1.108.892-2 2-2z" fill="#ffee7d"/><rect x="102.5" y="259.5" width="27" height="21" ry="1.5" fill="none" stroke="#303030" stroke-linecap="round" stroke-linejoin="round" stroke-opacity=".392"/><circle cx="124.5" cy="276.5" r="7.5" fill-opacity=".314"/><circle cx="124.5" cy="275.5" r="7.5" fill="#de8800"/><path d="M124 280h2v2h-2zm0-11h2v5.75l-.5 3.25h-1l-.5-3.25z" fill="#fff"/><rect x="117.5" y="268.5" width="14" height="14" ry="7" fill="none" stroke="#111" stroke-opacity=".392"/></g></svg>