<svg version="1.0" viewBox="0 0 32 32" xmlns="http://www.w3.org/2000/svg"><path d="M3.5 7 16 1l12.5 6c.905.435 1.5 1 1.5 2v19c0 1.108-.892 2-2 2H4c-1.108 0-2-.892-2-2V9c0-1 .577-1.557 1.5-2z" fill="#a27100"/><g transform="translate(-100 -252)"><rect x="106" y="255" width="20" height="22" ry="2" fill="#dedede"/><rect x="106.5" y="255.5" width="19" height="21" ry="1.5" fill="none" stroke="#000" stroke-linecap="round" stroke-opacity=".392"/></g><path d="M2 10v17c0 1.108.892 2 2 2h24c1.108 0 2-.892 2-2V10L16 21z" fill="#ffce51"/><path d="M9.93 16.232 1.996 27c0 1.108.892 2 2 2h24c1.108 0 2-.892 2-2l-7.933-10.768L15.996 21z" fill="#c29a32"/><path d="M28 7.5c.831 0 1.5.669 1.5 1.5v18c0 .831-.669 1.5-1.5 1.5H4c-.831 0-1.5-.669-1.5-1.5V9c0-.831.669-1.5 1.5-1.5" fill="none" stroke="#303030" stroke-linecap="round" stroke-linejoin="round" stroke-opacity=".392"/><g fill="#393634" opacity=".8"><path d="m-112.63 83.739-6.469 4.5 6.469 4.5v-2.5h2c.19 0 .376.02.559.053.36-.407.864-.7 1.423-.836l.13-.432a2.514 2.514 0 0 1 1.654-1.668c-.845-.713-1.96-1.117-3.266-1.117h-2.5zm4.5 7.5a.52.52 0 0 0-.152.027c.224.243.4.516.521.813a.496.496 0 0 0 .131-.34c0-.288-.212-.5-.5-.5z" color="#bebebe" style="text-decoration-line:none;text-indent:0;text-transform:none" transform="translate(126.63 -79.24)"/><path d="M-106.13 88.239c-.679 0-1.245.454-1.43 1.072.915.219 1.64.945 1.858 1.86a1.496 1.496 0 0 0-.428-2.932zm-2 2a1.5 1.5 0 1 0 0 3 1.5 1.5 0 0 0 0-3zm2.436 2.033a2.536 2.536 0 0 1-.748 1.262c.486.178.878.418 1.158.705h1.654v-.5s-.028-1.294-2.064-1.467zm-2.436 1.967c-2.5 0-2.5 1.5-2.5 1.5v.5h5v-.5s0-1.5-2.5-1.5z" color="#000" style="text-decoration-line:none;text-indent:0;text-transform:none" transform="translate(126.63 -79.24)"/></g></svg>