<svg version="1.0" viewBox="0 0 32 32" xmlns="http://www.w3.org/2000/svg"><g transform="translate(-100 -252)"><rect x="102" y="259" width="28" height="23" ry="2" fill="#a27100"/><rect x="102" y="259" width="28" height="22" ry="2" fill="#ffce51"/><path d="M104 281h24c1.108 0 2-.892 2-2l-14-19-14 19c0 1.108.892 2 2 2z" fill="#c29a32"/><path d="M130 261v1l-14 11-14-11v-1z" fill-opacity=".314"/><path d="M104 259h24c1.108 0 2 .892 2 2l-14 11-14-11c0-1.108.892-2 2-2z" fill="#ffee7d"/><rect x="102.5" y="259.5" width="27" height="21" ry="1.5" fill="none" stroke="#303030" stroke-linecap="round" stroke-linejoin="round" stroke-opacity=".392"/><path d="M127 284h-6l-4-4v-6l4-4h5.75l4.25 4v5.75z" fill-opacity=".392"/><path d="M127 283h-6l-4-4v-6l4-4.5h6l4 4.5v5.75z" fill="#1c6d38"/><path d="m127.24 273.26-4.243 4.243-2.12-2.122" fill="none" stroke="#fff" stroke-linecap="round" stroke-linejoin="round" stroke-width="2"/></g></svg>