<svg version="1.0" viewBox="0 0 32 32" xmlns="http://www.w3.org/2000/svg"><g transform="translate(-100 -252)"><rect x="102" y="259" width="28" height="23" ry="2" fill="#a27100"/><rect x="102" y="259" width="28" height="22" ry="2" fill="#ffce51"/><path d="M104 281h24c1.108 0 2-.892 2-2l-14-19-14 19c0 1.108.892 2 2 2z" fill="#c29a32"/><path d="M130 261v1l-14 11-14-11v-1z" fill-opacity=".314"/><path d="M104 259h24c1.108 0 2 .892 2 2l-14 11-14-11c0-1.108.892-2 2-2z" fill="#ffee7d"/><rect x="102.5" y="259.5" width="27" height="21" ry="1.5" fill="none" stroke="#303030" stroke-linecap="round" stroke-linejoin="round" stroke-opacity=".392"/><path d="M125 280v-4h2l-4.5-4-4.5 4h2v4z" fill="#faa41a"/><path d="M130 276v4h2l-4.5 4-4.5-4h2v-4z" fill="#73c48f"/><path d="M124.5 279.5v-4h1.188l-3.188-2.832-3.188 2.832h1.188v4z" fill="none" stroke="#000" stroke-opacity=".392"/><path d="M129.5 276.5v4h1.188l-3.188 2.832-3.188-2.832h1.188v-4z" fill="none" stroke="#000" stroke-opacity=".392"/></g></svg>