<svg version="1.0" viewBox="0 0 32 32" xmlns="http://www.w3.org/2000/svg"><path d="M9.79 1 1.003 9.787v13.426L9.79 32h12.426l8.787-8.787V9.787L22.216 1z" fill="#cf3b00"/><path d="M9.79 1 1.003 9.787v13.426L9.79 32h12.426l8.787-8.787V9.787L22.216 1zm.414 1h11.598l8.201 8.201V21.8l-8.2 8.2h-11.6l-8.201-8.2V10.2z" fill-opacity=".502"/><path d="M110 262h2c.552 0 1.076.2 1.438.563l2.562 2.554 2.563-2.554c.361-.362.885-.563 1.437-.563h2v2c0 .552-.2 1.076-.563 1.438l-2.562 2.554 2.563 2.57c.361.362.565.886.562 1.438v2h-2c-.552 0-1.076-.2-1.438-.563l-2.562-2.57-2.563 2.57c-.361.362-.885.563-1.437.563h-2v-2c0-.552.2-1.076.563-1.438l2.562-2.57-2.563-2.554c-.361-.362-.562-.886-.562-1.438z" color="#000" fill="#fff" style="text-decoration-line:none;text-indent:0;text-transform:none" transform="translate(-100 -252)"/></svg>