<svg version="1.0" viewBox="0 0 32 32" xmlns="http://www.w3.org/2000/svg"><g transform="translate(-100 48)"><rect x="101" y="-47" width="30" height="31" ry="15" fill="#7b736e"/><path d="M116-47c-8.31 0-15 6.69-15 15v1c0 8.31 6.69 15 15 15s15-6.69 15-15v-1c0-8.31-6.69-15-15-15zm0 1c7.756 0 14 6.244 14 14s-6.244 14-14 14-14-6.244-14-14 6.244-14 14-14z" fill="#fff" fill-opacity=".502"/><path d="m121.02-35.006 4 3-4 3v-2h-4v-2h4z" color="#bebebe" fill="#fff"/><path d="M120.21-35.837a1 1 0 0 0-.357-.766 1 1 0 0 0-.116-.084 5.997 5.997 0 0 0-5.322-1.091 6.008 6.008 0 0 0-4.398 5.81 6.006 6.006 0 0 0 4.453 5.768 6 6 0 0 0 5.279-1.117 1 1 0 0 0 .461-.84 1 1 0 0 0-1-1 1 1 0 0 0-.656.244 3.985 3.985 0 0 1-3.569.781 3.991 3.991 0 0 1-2.968-3.846 3.992 3.992 0 0 1 2.931-3.875 3.987 3.987 0 0 1 3.611.772l.008.008a1 1 0 0 0 .002 0 1 1 0 0 0 .641.236 1 1 0 0 0 1-1z" color="#000" fill="#fff" style="isolation:auto;mix-blend-mode:normal;text-decoration-color:#000;text-decoration-line:none;text-decoration-style:solid;text-indent:0;text-transform:none;white-space:normal"/></g></svg>