<svg version="1.0" viewBox="0 0 32 32" xmlns="http://www.w3.org/2000/svg" xmlns:xlink="http://www.w3.org/1999/xlink"><g transform="translate(-100 348)"><g id="a"><rect x="109" y="272" width="15" height="9" ry="1" fill="#424242"/><rect x="110" y="272" width="13" height="7" ry="1" fill="#848484"/><rect x="102" y="255" width="28" height="21" ry="1.5" fill="#6f6f6f"/><rect x="103" y="256" width="26" height="18" ry="1" fill="#acacac"/><rect x="105" y="258" width="22" height="13" ry=".5" fill="#464646"/><rect x="241" y="260" width="30" height="18" ry="2" fill="#424242"/><rect x="242" y="260" width="28" height="15" ry="2" fill="#848484"/><rect x="228" y="228" width="56" height="40" ry="3" fill="#6f6f6f"/><rect x="229" y="229" width="54" height="36" ry="2" fill="#acacac"/><rect x="231" y="231" width="50" height="28" ry=".5" fill="#424242"/><rect x="113" y="272" width="6" height="1" ry=".5" fill="#424242"/><rect x="250" y="261" width="12" height="2" ry=".5" fill="#424242"/><rect x="169" y="265" width="22" height="14" ry="1.5" fill="#424242"/><rect x="170" y="266" width="20" height="10" ry="1.5" fill="#848484"/><rect x="159" y="241" width="42" height="30" ry="2.25" fill="#6f6f6f"/><rect x="160" y="242" width="40" height="26" ry="1.5" fill="#acacac"/><rect x="162" y="244" width="36" height="20" ry=".75" fill="#464646"/><rect x="175" y="265" width="10" height="2" ry=".75" fill="#424242"/><rect x="62" y="275" width="12" height="7" ry="1" fill="#424242"/><rect x="63" y="275" width="10" height="6" ry=".5" fill="#848484"/><rect x="56" y="262" width="24" height="17" ry="1.5" fill="#6f6f6f"/><rect x="57" y="263" width="22" height="15" ry="1" fill="#acacac"/><rect x="58" y="264" width="20" height="11" ry=".5" fill="#464646"/><rect x="65" y="276" width="6" height="1" ry=".375" fill="#424242"/><rect x="20" y="277" width="8" height="6" ry="1" fill="#424242"/><rect x="21" y="278" width="6" height="4" ry=".5" fill="#848484"/><rect x="16" y="269" width="16" height="12" ry=".75" fill="#6f6f6f"/><rect x="17" y="270" width="14" height="10" ry=".5" fill="#acacac"/><path fill="#464646" d="M18 271h12v7H18z"/><rect x="350" y="236" width="60" height="36" ry="4" fill="#424242"/><rect x="351" y="236" width="58" height="32" ry="4" fill="#848484"/><rect x="324" y="171.99" width="112" height="80" ry="6" fill="#6f6f6f"/><rect x="325" y="173" width="110" height="75" ry="5.5" fill="#acacac"/><rect x="329" y="177" width="102" height="62" ry="1" fill="#424242"/><rect x="368" y="241" width="24" height="4" ry="1" fill="#424242"/><rect x="540" y="188" width="120" height="72" ry="8" fill="#424242"/><rect x="541" y="200.5" width="118" height="54.5" ry="8" fill="#848484"/><rect x="488" y="59.985" width="224" height="160" ry="12" fill="#6f6f6f"/><rect x="489" y="61" width="222" height="154" ry="11.5" fill="#acacac"/><rect x="495" y="67" width="210" height="132" ry="2" fill="#424242"/><rect x="576" y="202" width="48" height="8" ry="2" fill="#424242"/></g></g><g transform="translate(-100 348)"><use transform="translate(0 -300)" width="100%" height="100%" xlink:href="#a"/><rect transform="matrix(0 -1 -1 0 0 0)" x="25" y="-78" width="11" height="20" ry=".5" fill="#cf3b00"/><path d="M65-34v3h1v-3zm5 0v3h1v-3zm-6 5v1h8v-1h-7zm8 1v1h1v-1zm-8 0h-1v1h1z" fill="#fff"/><rect transform="matrix(0 -1 -1 0 0 0)" x="29" y="-127" width="13" height="22" ry=".5" fill="#cf3b00"/><path d="M111-41v4h2v-4zm8 0v4h2v-4zm-8 7v2h10v-2h-8zm10 2v2h2v-2zm-10 0h-2v2h2z" fill="#fff"/><rect transform="matrix(0 -1 -1 0 0 0)" x="36" y="-198" width="20" height="36" ry=".5" fill="#cf3b00"/><path d="M174-53v6h2v-6zm10 0v6h2v-6zm-12 10v2h16v-2h-14zm16 2v2h2v-2zm-16 0h-2v2h2z" fill="#fff"/><rect transform="matrix(0 -1 -1 0 0 0)" x="41" y="-281" width="28" height="50" ry=".5" fill="#cf3b00"/><path d="M246-66v8h3v-8zm17 0v8h3v-8zm-18 15v3h22v-3h-17zm22 3v3h3v-3zm-22 0h-3v3h3z" fill="#fff"/><rect transform="matrix(0 -1 -1 0 0 0)" x="61" y="-431" width="62" height="102" ry="1" fill="#cf3b00"/><rect transform="matrix(0 -1 -1 0 0 0)" x="101" y="-705" width="132" height="210" ry="2" fill="#cf3b00"/><path d="M360-113v16h6v-16zm34 0v16h6v-16zm-36 30v6h44v-6h-34zm44 6v6h6v-6zm-44 0h-6v6h6z" fill="#fff"/><path d="M560-209v32h12v-32zm68 0v32h12v-32zm-72 60v12h88v-12h-68zm88 12v12h12v-12zm-88 0h-12v12h12z" fill="#fff"/><path fill="#cf3b00" d="M18-29h12v7H18z"/><path d="M21-28v2h1v-2zm5 0v2h1v-2zm-5 3v1h6v-1h-5zm6 1v1h1v-1zm-6 0h-1v1h1z" fill="#fff"/></g><g transform="translate(-100 348)"><use transform="translate(0 -600)" width="100%" height="100%" xlink:href="#a"/><path d="M116-341a2.75 2.75 0 0 0-2.75 2.75c0 1.14.683 2.112 1.67 2.529L113.25-330h5.5l-1.67-5.721a2.735 2.735 0 0 0 1.67-2.529A2.75 2.75 0 0 0 116-341z" color="#000" fill="#888"/><path d="M68-335a2 2 0 0 0-.786 3.84L66-327h4l-1.214-4.16A2 2 0 0 0 68-335z" color="#000" fill="#888"/><path d="M24-329a1.75 1.75 0 0 0-.688 3.36L22.25-322h3.5l-1.063-3.64A1.75 1.75 0 0 0 24-329z" color="#000" fill="#888"/><path d="M180-354a4 4 0 0 0-4 4 3.98 3.98 0 0 0 2.429 3.679L176-338h8l-2.429-8.322A3.978 3.978 0 0 0 184-350a4 4 0 0 0-4-4z" color="#000" fill="#888"/><path d="M256.5-366a5.5 5.5 0 0 0-5.5 5.5 5.47 5.47 0 0 0 3.34 5.058L251-344h11l-3.34-11.442A5.47 5.47 0 0 0 262-360.5a5.5 5.5 0 0 0-5.5-5.5z" color="#000" fill="#888"/><path d="M380-414c-6.075 0-11 4.925-11 11a10.94 10.94 0 0 0 6.679 10.116L369-370h22l-6.679-22.884A10.94 10.94 0 0 0 391-403c0-6.075-4.925-11-11-11z" color="#000" fill="#888"/><path d="M600-510.5c-12.15 0-22 9.85-22 22 0 9.113 5.461 16.893 13.357 20.232L578-422.5h44l-13.357-45.768A21.88 21.88 0 0 0 622-488.5c0-12.15-9.85-22-22-22z" color="#000" fill="#888"/></g><g transform="translate(-100 348)"><use transform="translate(0 -900)" width="100%" height="100%" xlink:href="#a"/><path d="m178.25-653-.154 1.844a5.5 5.5 0 0 0-1.608.93l-1.676-.79-1.75 3.032 1.522 1.056a5.5 5.5 0 0 0-.084.928 5.5 5.5 0 0 0 .08.932l-1.518 1.052 1.75 3.032 1.672-.788a5.5 5.5 0 0 0 1.612.924l.154 1.848h3.5l.154-1.844a5.5 5.5 0 0 0 1.608-.93l1.675.79 1.75-3.032-1.521-1.056a5.5 5.5 0 0 0 .084-.928 5.5 5.5 0 0 0-.08-.932l1.518-1.052-1.75-3.032-1.672.788a5.5 5.5 0 0 0-1.612-.924L181.75-653zm1.75 5a2 2 0 0 1 2 2 2 2 0 0 1-2 2 2 2 0 0 1-2-2 2 2 0 0 1 2-2z" fill="#fff"/><path d="m114.69-640.75-.116 1.383a4.125 4.125 0 0 0-1.205.697l-1.257-.592-1.313 2.274 1.141.792a4.125 4.125 0 0 0-.063.696 4.125 4.125 0 0 0 .06.699l-1.138.79 1.313 2.273 1.254-.59a4.125 4.125 0 0 0 1.208.692l.116 1.386h2.625l.116-1.383a4.125 4.125 0 0 0 1.205-.697l1.257.592 1.313-2.274-1.141-.792a4.125 4.125 0 0 0 .063-.696 4.125 4.125 0 0 0-.06-.699l1.138-.79-1.313-2.273-1.254.59a4.125 4.125 0 0 0-1.208-.692l-.116-1.386zm1.313 3.75a1.5 1.5 0 0 1 1.5 1.5 1.5 1.5 0 0 1-1.5 1.5 1.5 1.5 0 0 1-1.5-1.5 1.5 1.5 0 0 1 1.5-1.5z" fill="#fff"/><path d="m66.688-635.75-.116 1.383a4.125 4.125 0 0 0-1.205.697l-1.257-.592-1.313 2.274 1.141.792a4.125 4.125 0 0 0-.063.696 4.125 4.125 0 0 0 .06.699l-1.138.79 1.313 2.273 1.254-.59a4.125 4.125 0 0 0 1.208.692l.116 1.386h2.625l.116-1.383a4.125 4.125 0 0 0 1.205-.697l1.257.592 1.313-2.274-1.141-.792a4.125 4.125 0 0 0 .063-.696 4.125 4.125 0 0 0-.06-.699l1.138-.79-1.313-2.273-1.254.59a4.125 4.125 0 0 0-1.208-.692l-.116-1.386zm1.313 3.75a1.5 1.5 0 0 1 1.5 1.5A1.5 1.5 0 0 1 68-629a1.5 1.5 0 0 1-1.5-1.5A1.5 1.5 0 0 1 68-632z" fill="#fff"/><path d="m23.262-628.61-.065.778a2.32 2.32 0 0 0-.678.392l-.707-.333-.738 1.279.641.446a2.32 2.32 0 0 0-.035.391 2.32 2.32 0 0 0 .034.393l-.64.444.738 1.28.705-.333a2.32 2.32 0 0 0 .68.39l.065.78h1.477l.065-.779a2.32 2.32 0 0 0 .678-.392l.707.333.738-1.279-.642-.445a2.32 2.32 0 0 0 .036-.392 2.32 2.32 0 0 0-.034-.393l.64-.444-.738-1.279-.706.332a2.32 2.32 0 0 0-.68-.39l-.064-.779zM24-626.5a.844.844 0 0 1 .844.843.844.844 0 0 1-.844.844.844.844 0 0 1-.843-.844.844.844 0 0 1 .843-.844z" fill="#fff"/><path d="m178.25-653-.154 1.844a5.5 5.5 0 0 0-1.608.93l-1.676-.79-1.75 3.032 1.522 1.056a5.5 5.5 0 0 0-.084.928 5.5 5.5 0 0 0 .08.932l-1.518 1.052 1.75 3.032 1.672-.788a5.5 5.5 0 0 0 1.612.924l.154 1.848h3.5l.154-1.844a5.5 5.5 0 0 0 1.608-.93l1.675.79 1.75-3.032-1.521-1.056a5.5 5.5 0 0 0 .084-.928 5.5 5.5 0 0 0-.08-.932l1.518-1.052-1.75-3.032-1.672.788a5.5 5.5 0 0 0-1.612-.924L181.75-653zm1.75 5a2 2 0 0 1 2 2 2 2 0 0 1-2 2 2 2 0 0 1-2-2 2 2 0 0 1 2-2z" fill="#fff"/><path d="m253.38-665.5-.231 2.766a8.25 8.25 0 0 0-2.412 1.394l-2.513-1.184-2.625 4.547 2.282 1.585a8.25 8.25 0 0 0-.126 1.392 8.25 8.25 0 0 0 .12 1.397l-2.276 1.58 2.625 4.546 2.508-1.18a8.25 8.25 0 0 0 2.417 1.386l.231 2.771h5.25l.231-2.766a8.25 8.25 0 0 0 2.412-1.394l2.513 1.184 2.625-4.547-2.282-1.585a8.25 8.25 0 0 0 .126-1.392 8.25 8.25 0 0 0-.12-1.397l2.276-1.58-2.625-4.547-2.508 1.181a8.25 8.25 0 0 0-2.417-1.386l-.231-2.771zm2.625 7.5a3 3 0 0 1 3 3 3 3 0 0 1-3 3 3 3 0 0 1-3-3 3 3 0 0 1 3-3z" fill="#fff"/><path d="m374.75-712-.463 5.531a16.5 16.5 0 0 0-4.822 2.79l-5.028-2.368-5.25 9.094 4.565 3.17A16.5 16.5 0 0 0 363.5-691a16.5 16.5 0 0 0 .24 2.795l-4.553 3.158 5.25 9.094 5.016-2.362a16.5 16.5 0 0 0 4.834 2.772l.463 5.543h10.5l.463-5.531a16.5 16.5 0 0 0 4.822-2.79l5.028 2.368 5.25-9.094-4.565-3.17A16.5 16.5 0 0 0 396.5-691a16.5 16.5 0 0 0-.24-2.795l4.553-3.158-5.25-9.094-5.016 2.361a16.5 16.5 0 0 0-4.834-2.771L385.25-712zm5.25 15a6 6 0 0 1 6 6 6 6 0 0 1-6 6 6 6 0 0 1-6-6 6 6 0 0 1 6-6z" fill="#fff"/><path d="m589.5-810-.926 11.062a33 33 0 0 0-9.644 5.578l-10.055-4.734-10.5 18.187 9.129 6.34a33 33 0 0 0-.504 5.566 33 33 0 0 0 .48 5.59l-9.105 6.316 10.5 18.187 10.03-4.722a33 33 0 0 0 9.669 5.543l.926 11.086h21l.925-11.062a33 33 0 0 0 9.645-5.578l10.055 4.734 10.5-18.187-9.129-6.34A33 33 0 0 0 633-768a33 33 0 0 0-.48-5.59l9.105-6.317-10.5-18.187-10.031 4.723a33 33 0 0 0-9.668-5.543L610.5-810zm10.5 30a12 12 0 0 1 12 12 12 12 0 0 1-12 12 12 12 0 0 1-12-12 12 12 0 0 1 12-12z" fill="#fff"/></g><g transform="translate(-100 348)"><rect x="230" y="-966" width="52" height="37" ry="4" fill="#bfbfbf"/><rect x="103" y="-941" width="26" height="19" ry="2" fill="#bfbfbf"/><rect x="17" y="-931" width="14" height="11" ry="2" fill="#bfbfbf"/><rect x="160" y="-953" width="40" height="27" ry="3" fill="#bfbfbf"/><rect x="57" y="-937" width="22" height="17" ry="2" fill="#bfbfbf"/><rect x="324" y="-1016" width="104" height="73" ry="8" fill="#bfbfbf"/><rect x="19" y="-929" width="10" height="7" ry="0" fill="#222"/><path fill="#222" d="M60-934h16v11H60z"/><path fill="#222" d="M106-938h20v12h-20z"/><path fill="#222" d="M163-950h34v19h-34z"/><rect x="233" y="-963" width="46" height="29" ry="1" fill="#222"/><rect x="329" y="-1011" width="94" height="60" ry="1.5" fill="#222"/><rect x="488" y="-1116" width="208" height="145" ry="8" fill="#bfbfbf"/><rect x="494" y="-1110" width="196" height="129" ry="2" fill="#222"/><path d="M234-966c-2.216 0-4 1.784-4 4v29c0 2.216 1.784 4 4 4h44c2.216 0 4-1.784 4-4v-29c0-2.216-1.784-4-4-4zm0 1h44c1.662 0 3 1.338 3 3v27c0 1.662-1.338 3-3 3h-44c-1.662 0-3-1.338-3-3v-27c0-1.662 1.338-3 3-3z" fill-opacity=".5"/><rect x="228" y="-930" width="56" height="8" ry="2" fill="#bfbfbf"/><path d="M230-930c-1.108 0-2 .892-2 2v4c0 1.108.892 2 2 2h52c1.108 0 2-.892 2-2v-4c0-1.108-.892-2-2-2zm0 1h52c.554 0 1 .446 1 1v2c0 .554-.446 1-1 1h-52c-.554 0-1-.446-1-1v-2c0-.554.446-1 1-1z" fill-opacity=".5"/><path d="M19-931c-1.108 0-2 .892-2 2v7c0 1.108.892 2 2 2h10c1.108 0 2-.892 2-2v-7c0-1.108-.892-2-2-2zm0 1h10c.554 0 1 .446 1 1v7c0 .554-.446 1-1 1H19c-.554 0-1-.446-1-1v-7c0-.554.446-1 1-1z" fill-opacity=".5"/><rect x="16" y="-921" width="16" height="4" ry="1" fill="#bfbfbf"/><path d="M17-921c-.554 0-1 .446-1 1v2c0 .554.446 1 1 1h14c.554 0 1-.446 1-1v-2c0-.554-.446-1-1-1zm0 1h14v2H17z" fill-opacity=".502"/><path d="M59-937c-1.108 0-2 .892-2 2v13c0 1.108.892 2 2 2h18c1.108 0 2-.892 2-2v-13c0-1.108-.892-2-2-2zm0 1h18c.554 0 1 .446 1 1v13c0 .554-.446 1-1 1H59c-.554 0-1-.446-1-1v-13c0-.554.446-1 1-1z" fill-opacity=".502"/><rect x="56" y="-921" width="24" height="4" ry="1" fill="#bfbfbf"/><path d="M57-921c-.554 0-1 .446-1 1v2c0 .554.446 1 1 1h22c.554 0 1-.446 1-1v-2c0-.554-.446-1-1-1zm0 1h22v2H57z" fill-opacity=".502"/><path d="M105-941c-1.108 0-2 .892-2 2v15c0 1.108.892 2 2 2h22c1.108 0 2-.892 2-2v-15c0-1.108-.892-2-2-2zm0 1h22c.554 0 1 .446 1 1v14c0 .554-.446 1-1 1h-22c-.554 0-1-.446-1-1v-14c0-.554.446-1 1-1z" fill-opacity=".502"/><path d="M163-953c-1.662 0-3 1.338-3 3v21c0 1.662 1.338 3 3 3h34c1.662 0 3-1.338 3-3v-21c0-1.662-1.338-3-3-3zm0 1h34c1.108 0 2 .892 2 2v19c0 1.108-.892 2-2 2h-34c-1.108 0-2-.892-2-2v-19c0-1.108.892-2 2-2z" fill-opacity=".502"/><path d="M332-1016c-4.432 0-8 3.568-8 8v57c0 4.432 3.568 8 8 8h88c4.432 0 8-3.568 8-8v-57c0-4.432-3.568-8-8-8zm0 1h88c3.878 0 7 3.122 7 7v54c0 3.878-3.122 7-7 7h-88c-3.878 0-7-3.122-7-7v-54c0-3.878 3.122-7 7-7z" fill-opacity=".502"/><rect x="320" y="-944" width="112" height="16" ry="4" fill="#bfbfbf"/><path d="M324-944c-2.216 0-4 1.784-4 4v8c0 2.216 1.784 4 4 4h104c2.216 0 4-1.784 4-4v-8c0-2.216-1.784-4-4-4zm0 1h104c1.662 0 3 1.338 3 3v5c0 1.662-1.338 3-3 3H324c-1.662 0-3-1.338-3-3v-5c0-1.662 1.338-3 3-3z" fill-opacity=".502"/><path d="M496-1116c-4.432 0-8 3.568-8 8v129c0 4.432 3.568 8 8 8h192c4.432 0 8-3.568 8-8v-129c0-4.432-3.568-8-8-8zm0 1h192c3.878 0 7 3.122 7 7v125c0 3.878-3.122 7-7 7H496c-3.878 0-7-3.122-7-7v-125c0-3.878 3.122-7 7-7z" fill-opacity=".502"/><rect x="480" y="-972" width="224" height="32" ry="8" fill="#bfbfbf"/><path d="M488-972c-4.432 0-8 3.568-8 8v16c0 4.432 3.568 8 8 8h208c4.432 0 8-3.568 8-8v-16c0-4.432-3.568-8-8-8zm0 1h208c3.878 0 7 3.122 7 7v12c0 3.878-3.122 7-7 7H488c-3.878 0-7-3.122-7-7v-12c0-3.878 3.122-7 7-7z" fill-opacity=".502"/><rect x="102" y="-923" width="28" height="4" ry="1" fill="#bfbfbf"/><path d="M103-923c-.554 0-1 .446-1 1v2c0 .554.446 1 1 1h26c.554 0 1-.446 1-1v-2c0-.554-.446-1-1-1zm.5 1h25c.277 0 .5.223.5.5v1c0 .277-.223.5-.5.5h-25a.499.499 0 0 1-.5-.5v-1c0-.277.223-.5.5-.5z" fill-opacity=".502"/><rect x="159" y="-927" width="42" height="6" ry="1.5" fill="#bfbfbf"/><path d="M160.5-927c-.831 0-1.5.669-1.5 1.5v3c0 .831.669 1.5 1.5 1.5h39c.831 0 1.5-.669 1.5-1.5v-3c0-.831-.669-1.5-1.5-1.5zm0 1h39c.277 0 .5.223.5.5v2c0 .277-.223.5-.5.5h-39a.499.499 0 0 1-.5-.5v-2c0-.277.223-.5.5-.5z" fill-opacity=".502"/></g></svg>