<svg version="1.0" viewBox="0 0 32 32" xmlns="http://www.w3.org/2000/svg"><g transform="translate(-100 948)"><rect x="101" y="-947" width="30" height="31" ry="15" fill="#7b736e"/><path d="M116-947c-8.31 0-15 6.69-15 15v1c0 8.31 6.69 15 15 15s15-6.69 15-15v-1c0-8.31-6.69-15-15-15zm0 1c7.756 0 14 6.244 14 14s-6.244 14-14 14-14-6.244-14-14 6.244-14 14-14z" fill="#fff" fill-opacity=".502"/><path d="M116.65-938.99c-2.763.101-5.309 1.805-6.313 4.563-1.322 3.632.524 7.677 4.157 9 2.758 1.003 5.74.144 7.594-1.907a6.478 6.478 0 0 1-4.22-.062c-3.373-1.228-5.102-4.97-3.874-8.344.514-1.413 1.474-2.508 2.656-3.25z" color="#bebebe" fill="#fff"/><path d="M116.5-937c-.5 0-.5.5-.5.5v6s0 .5.5.5h5s.5 0 .5-.5v-6s0-.5-.5-.5zm2.5 1a2 2 0 1 1 0 4h-2v-2a2 2 0 0 1 2-2zm0 1a1 1 0 1 0 0 2 1 1 0 0 0 0-2z" fill="#fff" filter="url(#filter7554)"/></g></svg>