<svg version="1.0" viewBox="0 0 32 32" xmlns="http://www.w3.org/2000/svg"><g transform="translate(-100 -252)"><rect x="103" y="255" width="26" height="27" ry="2" fill="#7b736e"/><path d="M105 255c-1.108 0-2 .892-2 2v23c0 1.108.892 2 2 2h22c1.108 0 2-.892 2-2v-23c0-1.108-.892-2-2-2zm0 1h22c.554 0 1 .446 1 1v22c0 .554-.446 1-1 1h-22c-.554 0-1-.446-1-1v-22c0-.554.446-1 1-1z" fill="#fff" fill-opacity=".502"/><path d="M114 260.01h4v5.992l6 .008v4l-6-.008v6.008h-4v-6.008l-6 .008v-4l6-.008z" color="#bebebe" fill="#fff" fill-opacity=".902"/></g></svg>