<svg version="1.0" viewBox="0 0 24 24" xmlns="http://www.w3.org/2000/svg"><g transform="translate(-56 40)"><path d="M70.5-20h-12c-.831 0-1.5-.669-1.5-1.5v-13c0-.831.669-1.5 1.5-1.5h12l8 8z" fill="#ffce51"/><path d="M58.5-36c-.831 0-1.5.669-1.5 1.5v13c0 .831.669 1.5 1.5 1.5h12l8-8-8-8zm0 1H70l7 7-7 7H58.5a.499.499 0 0 1-.5-.5v-13c0-.277.223-.5.5-.5z" fill-opacity=".5"/><rect x="68" y="-28" width="12" height="12" ry="6" fill="#cf3b00"/><path d="M74-28c-3.324 0-6 2.676-6 6s2.676 6 6 6 6-2.676 6-6-2.676-6-6-6zm0 1c2.77 0 5 2.23 5 5s-2.23 5-5 5-5-2.23-5-5 2.23-5 5-5z" fill-opacity=".5"/><path d="M71.75-25a.75.75 0 0 0-.75.75.75.75 0 0 0 .22.53L72.94-22l-1.72 1.72a.75.75 0 0 0-.22.53.75.75 0 0 0 .75.75.75.75 0 0 0 .53-.22L74-20.94l1.712 1.713a.75.75 0 0 0 .538.227.75.75 0 0 0 .75-.75.75.75 0 0 0-.22-.53L75.06-22l1.713-1.712A.75.75 0 0 0 77-24.25a.75.75 0 0 0-.75-.75.75.75 0 0 0-.53.22L74-23.06l-1.712-1.713a.75.75 0 0 0-.007-.008.75.75 0 0 0-.53-.219z" fill="#fff"/></g></svg>