<svg version="1.0" viewBox="0 0 24 24" xmlns="http://www.w3.org/2000/svg"><g transform="translate(-52 -260)"><circle cx="64" cy="273" r="11" opacity=".2"/><circle cx="64" cy="272" r="11" fill="#4c5263"/><path d="M64 261a11 11 0 0 0-11 11 11 11 0 0 0 .021.586A11 11 0 0 1 64 262a11 11 0 0 1 10.979 10.414A11 11 0 0 0 75 272a11 11 0 0 0-11-11Z" fill="#fff" opacity=".2"/><path d="M59.369 261.02c-1.29 5.263-5.001 11.739-7.338 15.868 4.109.981 8.147.93 12.349 1.336-.062-.795-.9-9.19-1.044-10.857-1.442-2.613-2.612-3.965-3.967-6.347zm4.959 6.744c1.5 3.408 1.303 6.515.918 10.336 1.577.01 3.714-.252 6.505-1.628-2.294-5.238-7.423-8.708-7.423-8.708zm3.768 2.38c1.187.795 2.317 1.52 3.174 2.38 1.16 1.164 1.44 1.921 1.274 3.552 1.555-.781 2.52-2.334 3.112-3.424-2.563-1.484-4.83-1.754-7.56-2.507z" fill-rule="evenodd" opacity=".2"/><path d="M74.741 274.26c-1.604 2.164-4.568 3.321-8.099 3.834-3.683.535-7.955.376-11.766.05.183.273.383.538.59.793 3.668.291 7.49 1.426 11.062.907 2.98-.433 5.893-2.327 7.74-3.96.202-.525.368-1.106.473-1.624z" color="#000" fill="#fff" fill-rule="evenodd" style="isolation:auto;mix-blend-mode:normal;text-decoration-color:#000;text-decoration-line:none;text-decoration-style:solid;text-indent:0;text-transform:none;white-space:normal"/><circle cx="64" cy="271.99" r="11" fill="none"/><path d="M66.748 278.83c-3.733.527-7.537.396-11.283.11 2.411 3.074 6.601 4.624 10.472 3.877 3.736-.642 7.01-3.378 8.329-6.927-2.218 1.574-4.84 2.529-7.518 2.94z" fill="#5294e2"/><path d="M59.369 260.02c-1.29 5.263-5.001 11.739-7.338 15.868 4.109.981 8.147.93 12.349 1.336-.062-.795-.9-9.19-1.044-10.857-1.442-2.613-2.612-3.965-3.967-6.347zm4.959 6.744c1.5 3.408 1.303 6.515.918 10.336 1.577.01 3.714-.252 6.505-1.628-2.294-5.238-7.423-8.708-7.423-8.708zm3.768 2.38c1.187.795 2.317 1.52 3.174 2.38 1.16 1.164 1.44 1.921 1.274 3.552 1.555-.781 2.52-2.334 3.112-3.424-2.563-1.484-4.83-1.754-7.56-2.507z" fill="#fff" fill-rule="evenodd"/></g></svg>