<svg enable-background="new" version="1.0" viewBox="0 0 24 24" xmlns="http://www.w3.org/2000/svg"><defs><filter id="a" x="-.024" y="-.024" width="1.048" height="1.048" color-interpolation-filters="sRGB"><feGaussianBlur stdDeviation="4.48"/></filter></defs><g transform="translate(-52 -260)"><rect transform="matrix(0 -1 -1 0 0 0)" x="-256" y="-688" width="448" height="448" rx="36" ry="36" filter="url(#a)" opacity=".1"/><rect transform="matrix(0 -1 -1 0 0 0)" x="-256" y="-688" width="448" height="448" rx="36" ry="36" filter="url(#a)" opacity=".2"/><rect transform="matrix(0 -1 -1 0 0 0)" x="-283" y="-74" width="20" height="20" rx="2" ry="2" opacity=".2"/><rect transform="matrix(0 -1 -1 0 0 0)" x="-281" y="-188" width="40" height="40" rx="3" ry="3" opacity=".2"/><rect transform="matrix(0 -1 -1 0 0 0)" x="-283" y="-126" width="28" height="28" rx="3" ry="3" opacity=".2"/><rect transform="matrix(0 -1 -1 0 0 0)" x="-282" y="-74" width="20" height="20" rx="2" ry="2" fill="#c70036"/><rect transform="matrix(0 -1 -1 0 0 0)" x="-280" y="-188" width="40" height="40" rx="3" ry="3" fill="#c70036"/><rect transform="matrix(0 -1 -1 0 0 0)" x="-282" y="-126" width="28" height="28" rx="3" ry="3" fill="#c70036"/><rect transform="matrix(0 -1 -1 0 0 0)" x="-284" y="-32" width="16" height="16" rx="2" ry="2" enable-background="new" fill="#c70036"/><rect transform="matrix(0 -1 -1 0 0 0)" x="-252" y="-688" width="448" height="448" rx="36" ry="36" fill="#c70036"/><path d="M276-196c-19.944 0-36 16.056-36 36v2c0-19.944 16.056-36 36-36h376c19.944 0 36 16.056 36 36v-2c0-19.944-16.056-36-36-36z" fill="#fff" opacity=".2"/><path d="M56 262c-1.108 0-2 .892-2 2v1c0-1.108.892-2 2-2h16c1.108 0 2 .892 2 2v-1c0-1.108-.892-2-2-2z" fill="#fff" opacity=".2"/><path d="M151 240c-1.662 0-3 1.338-3 3v1c0-1.662 1.338-3 3-3h34c1.662 0 3 1.338 3 3v-1c0-1.662-1.338-3-3-3z" fill="#fff" opacity=".2"/><path d="M101 254c-1.662 0-3 1.338-3 3v1c0-1.662 1.338-3 3-3h22c1.662 0 3 1.338 3 3v-1c0-1.662-1.338-3-3-3z" fill="#fff" opacity=".2"/></g><path d="M16.317 10.99c.014.378-.11.561-.223.886l-.202.1c-.165.322.017.204-.102.46-.258.23-.783.717-.95.762-.123-.002.083-.145.11-.2-.346.237-.278.356-.806.5l-.015-.035c-1.303.613-3.112-.601-3.089-2.258-.013.105-.039.079-.068.121-.067-.852.394-1.708 1.171-2.058.76-.377 1.652-.222 2.196.286-.299-.392-.894-.808-1.6-.77-.69.012-1.338.451-1.553.928-.354.223-.396.86-.55.976-.208 1.526.39 2.186 1.403 2.961.159.107.044.124.066.206a2.745 2.745 0 0 1-.897-.686c.134.196.279.387.466.537-.317-.107-.74-.768-.864-.795.547.979 2.217 1.716 3.092 1.35-.405.015-.919.008-1.374-.16-.191-.098-.45-.301-.404-.34 1.194.446 2.427.338 3.46-.49.263-.205.55-.553.633-.558-.125.188.021.09-.075.257.262-.423-.114-.172.27-.73l.143.196c-.053-.351.435-.777.385-1.331.113-.17.125.182.006.572.165-.432.044-.502.086-.859.046.12.106.248.137.374-.108-.418.11-.704.164-.947-.053-.023-.166.185-.192-.309.004-.214.06-.112.082-.165-.042-.024-.153-.189-.22-.504.048-.075.13.192.196.203-.042-.25-.116-.442-.119-.635-.194-.405-.068.054-.225-.173-.207-.644.17-.15.196-.442.313.453.49 1.155.573 1.446a5.915 5.915 0 0 0-.287-1.03c.095.04-.153-.73.124-.22-.296-1.086-1.263-2.101-2.154-2.577.109.1.246.225.197.244-.443-.263-.365-.284-.429-.395-.36-.147-.384.012-.622 0-.68-.36-.812-.323-1.438-.548l.029.133c-.45-.15-.525.056-1.012 0-.03-.023.156-.084.31-.106-.436.058-.416-.086-.842.016.105-.074.216-.123.328-.185-.355.022-.848.207-.696.038-.58.259-1.608.622-2.186 1.163l-.018-.121c-.265.317-1.154.948-1.225 1.36l-.07.016c-.138.234-.227.498-.336.737-.18.307-.264.119-.239.167-.354.718-.53 1.321-.682 1.816.108.162.002.974.044 1.625-.178 3.212 2.254 6.33 4.913 7.05.39.14.969.135 1.461.149-.581-.166-.656-.088-1.223-.286-.408-.192-.498-.412-.787-.663l.114.202c-.567-.2-.33-.248-.792-.394l.123-.16c-.184-.014-.488-.31-.57-.474l-.202.008c-.242-.298-.37-.514-.361-.68l-.065.115c-.074-.126-.89-1.119-.467-.888-.078-.071-.183-.116-.296-.323l.086-.098c-.203-.262-.375-.598-.362-.71.109.146.184.174.259.2-.515-1.277-.544-.071-.933-1.3l.082-.006c-.063-.096-.101-.199-.152-.3l.036-.358c-.37-.427-.104-1.82-.05-2.584.037-.31.309-.642.516-1.16l-.126-.022C7.865 8.697 9 7.43 9.526 7.494c.255-.32-.05-.001-.1-.082.56-.579.735-.409 1.113-.513.407-.242-.35.094-.157-.092.704-.18.499-.41 1.417-.5.097.055-.224.085-.305.156.586-.287 1.856-.221 2.68.16.957.447 2.033 1.769 2.075 3.012l.048.013c-.024.494.076 1.066-.098 1.591l.118-.248" fill="#fff"/></svg>