<svg version="1.0" viewBox="0 0 24 24" xmlns="http://www.w3.org/2000/svg"><g transform="translate(-52 -260)"><circle cx="64" cy="273" r="11" opacity=".2"/><circle cx="64" cy="272" r="11" fill="#0079c1"/><path d="M64 261a11 11 0 0 0-11 11 11 11 0 0 0 .021.586A11 11 0 0 1 64 262a11 11 0 0 1 10.979 10.414A11 11 0 0 0 75 272a11 11 0 0 0-11-11Z" fill="#fff" opacity=".2"/><path d="m63.482 263.96-1.447.356a.137.137 0 0 0-.106.13l.64 2.94.024.013a4.87 4.87 0 0 1 6.356 3.89l2.975-.653a.133.133 0 0 0 .072-.155l-.344-1.446a.137.137 0 0 0-.13-.107h-2.384a5.23 5.23 0 0 0-.735-1.055l.77-2.182a.142.142 0 0 0-.059-.166l-1.268-.77a.135.135 0 0 0-.166.023l-1.601 1.6a5.265 5.265 0 0 0-1.447-.248l-.996-2.099a.133.133 0 0 0-.154-.071zm-4.672 2.123a.156.156 0 0 0-.083.047l-1.055 1.043c-.044.045-.044.112-.012.166l1.233 2.04a5.217 5.217 0 0 0-.522 1.174l-2.264.474a.132.132 0 0 0-.107.13v1.494c0 .063.046.116.107.13l2.193.534c.117.485.294.942.534 1.364l-1.269 1.945c-.035.054-.022.12.024.166l1.043 1.055a.136.136 0 0 0 .166.024l2.04-2.253v-.024a4.862 4.862 0 0 1-1.566-3.581c0-1.57.745-2.952 1.898-3.842l-2.265-2.063a.155.155 0 0 0-.095-.024zm10.08 6.983a4.876 4.876 0 0 1-4.756 3.819 4.812 4.812 0 0 1-1.743-.332l-.012.012-.77 2.952a.121.121 0 0 0 .095.13l1.446.392a.139.139 0 0 0 .154-.071l1.139-2.075c.427.007.856-.043 1.28-.143l1.542 1.732a.13.13 0 0 0 .166.023l1.292-.747a.132.132 0 0 0 .06-.154l-.629-2.17a5.27 5.27 0 0 0 .913-1.15l2.312.13c.065.004.126-.032.143-.095l.39-1.434a.14.14 0 0 0-.07-.154l-2.953-.664z" fill="#fff"/></g></svg>