<svg version="1.0" viewBox="0 0 24 24" xmlns="http://www.w3.org/2000/svg"><g transform="translate(-52 -260)"><circle cx="64" cy="273" r="11" opacity=".2"/><circle cx="64" cy="272" r="11" fill="#87a556"/><path d="M64 261a11 11 0 0 0-11 11 11 11 0 0 0 .021.586A11 11 0 0 1 64 262a11 11 0 0 1 10.979 10.414A11 11 0 0 0 75 272a11 11 0 0 0-11-11Z" fill="#fff" opacity=".2"/><path d="m65.671 264.7 3.885 2.296-3.89 2.296.005-4.592zM64 265.88a6.1 6.1 0 0 1 .838.061v.851a5.273 5.273 0 0 0-5.738 3.23l-.72-.426A6.125 6.125 0 0 1 64 265.88zm0 2.08c.285 0 .564.034.833.09v.864a3.223 3.223 0 0 0-.833-.108c-1.459 0-2.677.97-3.06 2.3l-.746-.442A4.046 4.046 0 0 1 64 267.96zm4.904.386a6.087 6.087 0 0 1 1.211 3.65 6.09 6.09 0 0 1-1.25 3.698l-.724-.43a5.25 5.25 0 0 0 1.132-3.268 5.26 5.26 0 0 0-1.093-3.22zm-1.81 1.072a4.008 4.008 0 0 1-.038 5.208l-.743-.438a3.16 3.16 0 0 0 .877-2.192c0-.83-.314-1.582-.829-2.148zm-10.173.282 3.884 2.296-3.889 2.296.005-4.592zm4.019 3.186a3.174 3.174 0 0 0 3.06 2.296c.288 0 .567-.039.833-.109v.868a3.96 3.96 0 0 1-.833.092 4.045 4.045 0 0 1-3.807-2.709l.747-.438zm-1.84 1.085a5.273 5.273 0 0 0 5.729 3.233v.847c-.271.038-.548.06-.83.06a6.125 6.125 0 0 1-5.62-3.715l.72-.425zm6.566.803 3.885 2.292-3.89 2.296.005-4.588z" fill="#fff"/></g></svg>