<svg version="1.0" viewBox="0 0 24 24" xmlns="http://www.w3.org/2000/svg"><path d="M11.5 2a.75.75 0 0 0-.75.75.75.75 0 0 0 .75.75.75.75 0 0 0 .75-.75.75.75 0 0 0-.75-.75zm2 1.25a.875.875 0 0 0-.875.875A.875.875 0 0 0 13.5 5a.875.875 0 0 0 .875-.875.875.875 0 0 0-.875-.875zm-2 1.25a1 1 0 0 0-1 1 1 1 0 0 0 1 1 1 1 0 0 0 1-1 1 1 0 0 0-1-1zm2.498 2.25a1.126 1.126 0 0 0 0 2.25H14a1.126 1.126 0 0 0-.002-2.25zm-3.25.75a1.25 1.25 0 0 0 .002 2.5h.002a1.251 1.251 0 0 0-.004-2.5zm-3.07 2.996A7 7 0 0 0 5 16a7 7 0 0 0 7 7 7 7 0 0 0 7-7 7 7 0 0 0-2.678-5.496A7 7 0 0 1 12 12a7 7 0 0 1-4.322-1.504z" opacity=".2"/><path d="M11.5 1a.75.75 0 0 0-.75.75.75.75 0 0 0 .75.75.75.75 0 0 0 .75-.75.75.75 0 0 0-.75-.75zm2 1.25a.875.875 0 0 0-.875.875A.875.875 0 0 0 13.5 4a.875.875 0 0 0 .875-.875.875.875 0 0 0-.875-.875zm-2 1.25a1 1 0 0 0-1 1 1 1 0 0 0 1 1 1 1 0 0 0 1-1 1 1 0 0 0-1-1zm2.498 2.25a1.126 1.126 0 0 0 0 2.25H14a1.126 1.126 0 0 0-.002-2.25zm-3.25.75A1.25 1.25 0 0 0 10.75 9h.002a1.251 1.251 0 0 0-.004-2.5z" fill="#03a9f4"/><path d="M7.678 9.5A7 7 0 0 0 5 15.004a7 7 0 0 0 7 7 7 7 0 0 0 7-7 7 7 0 0 0-2.677-5.496A7 7 0 0 1 12 11.004 7 7 0 0 1 7.678 9.5z" fill="#0d47a1"/><path d="M11.5 1a.75.75 0 0 0-.75.75.75.75 0 0 0 .191.5A.75.75 0 0 1 11.5 2a.75.75 0 0 1 .559.25.75.75 0 0 0 .191-.5.75.75 0 0 0-.75-.75zm0 2.5a1 1 0 0 0-1 1 1 1 0 0 0 .135.5 1 1 0 0 1 .865-.5 1 1 0 0 1 .865.5 1 1 0 0 0 .135-.5 1 1 0 0 0-1-1zm2.498 2.25c-.62 0-1.126.506-1.125 1.127 0 .182.053.348.13.5a1.12 1.12 0 0 1 .995-.627c.438 0 .808.258.994.623a1.1 1.1 0 0 0 .131-.5c0-.62-.504-1.123-1.125-1.123zm-3.25.75A1.25 1.25 0 0 0 9.5 7.752c0 .178.042.345.11.498.193-.44.628-.75 1.138-.75.511 0 .948.31 1.143.75.068-.154.11-.322.11-.502A1.254 1.254 0 0 0 10.748 6.5zm-3.07 2.996A7 7 0 0 0 5 15a7 7 0 0 0 .025.508 7 7 0 0 1 2.653-5.012A7 7 0 0 0 12 12a7 7 0 0 0 4.322-1.496 7 7 0 0 1 2.655 5.037A7 7 0 0 0 19 15a7 7 0 0 0-2.678-5.496A7 7 0 0 1 12 11a7 7 0 0 1-4.322-1.504z" fill="#fff" opacity=".2"/></svg>