<svg version="1.0" viewBox="0 0 24 24" xmlns="http://www.w3.org/2000/svg"><g transform="translate(-52 -260)"><rect transform="matrix(0 -1 -1 0 0 0)" x="-283" y="-74" width="20" height="20" rx="2" ry="2" opacity=".2"/><rect transform="matrix(0 -1 -1 0 0 0)" x="-282" y="-74" width="20" height="20" rx="2" ry="2" fill="#f2f2f2"/><path d="M56 262c-1.108 0-2 .892-2 2v1c0-1.108.892-2 2-2h16c1.108 0 2 .892 2 2v-1c0-1.108-.892-2-2-2z" fill="#fff" opacity=".2"/><path d="M64.028 265.5c-1.896 0-4.702.912-4.702 3.18 0 2.177 2.695 2.93 4.43 2.93 1.806 0 3.488.446 3.488 1.849 0 1.367-1.593 2.002-3.453 2.002-2.113 0-3.14-1.407-3.14-2.127 0-.253-.392-.524-.843-.524-.452 0-.719.236-.719.523v2.281c.018.522.257 1.047.88 1.047.67 0 .864-.092.864-.76 1.032.527 2.102.76 3.25.76 2.873 0 4.839-1.408 4.828-3.188-.018-2.878-3.472-3.216-5.134-3.216-1.716-.018-2.679-.835-2.679-1.59 0-.81.833-1.967 2.874-1.967 2.296 0 2.852 1.233 2.93 1.646.09.325.411.495.809.495.416 0 .698-.21.698-.516v-2.127c0-.27-.418-.628-.865-.628-.38 0-.77.142-.789.502-.379-.288-1.641-.572-2.727-.572z"/><path d="M56 275v4h18v-1H57v-3z"/></g></svg>