<svg enable-background="new" version="1.0" viewBox="0 0 24 24" xmlns="http://www.w3.org/2000/svg"><defs><filter id="a" x="-.024" y="-.024" width="1.048" height="1.048" color-interpolation-filters="sRGB"><feGaussianBlur stdDeviation="4.8"/></filter></defs><g transform="translate(-52 -260)"><circle cx="464" cy="32" r="240" filter="url(#a)" opacity=".1"/><circle cx="464" cy="32" r="240" filter="url(#a)" opacity=".2"/><circle cx="64" cy="273" r="11" opacity=".2"/><circle cx="168" cy="261" r="22" opacity=".2"/><circle cx="24" cy="276" r="8" fill="#0087ed"/><circle cx="64" cy="272" r="11" fill="#0087ed"/><path d="M64 261a11 11 0 0 0-11 11 11 11 0 0 0 .021.586A11 11 0 0 1 64 262a11 11 0 0 1 10.979 10.414A11 11 0 0 0 75 272a11 11 0 0 0-11-11Z" fill="#fff" opacity=".2"/><circle cx="168" cy="260" r="22" fill="#0087ed"/><path d="M168 238a22 22 0 0 0-22 22 22 22 0 0 0 .021.586A22 22 0 0 1 168 239a22 22 0 0 1 21.979 21.414A22 22 0 0 0 190 260a22 22 0 0 0-22-22z" fill="#fff" opacity=".2"/><circle cx="464" cy="28" r="240" fill="#0087ed"/><path d="M464-212A240 240 0 0 0 224 28a240 240 0 0 0 .041 1.172A240 240 0 0 1 464-210 240 240 0 0 1 703.959 28.828 240 240 0 0 0 704 28a240 240 0 0 0-240-240Z" fill="#fff" opacity=".2"/><circle cx="112" cy="269" r="15" enable-background="new" opacity=".2"/><circle cx="112" cy="268" r="15" enable-background="new" fill="#0087ed"/><path d="M112 253a15 15 0 0 0-15 15 15 15 0 0 0 .02.544A15 15 0 0 1 112 253.938a15 15 0 0 1 14.98 14.456A15 15 0 0 0 127 268a15 15 0 0 0-15-15z" enable-background="new" fill="#fff" opacity=".2"/></g><path d="M11.375 4.906c-.322.194-.733.468-1.232.822-.492.347-1.016.798-1.572 1.354-.483.483-.821.958-1.015 1.426a2.85 2.85 0 0 0-.193 1.401c.056.46.214.907.471 1.342.266.443.613.878 1.04 1.305l3.528 3.529 1.124-1.124-3.287-3.287c-.765-.766-1.192-1.434-1.28-2.006-.09-.572.152-1.144.724-1.716.121-.121.25-.242.387-.363l.387-.338c.129-.097.241-.186.338-.266a1.57 1.57 0 0 1 .254-.157l7.23 7.23 1.124-1.124zm-.35 3.571L9.901 9.601l5.306 5.305a1.565 1.565 0 0 1-.157.254c-.08.097-.17.21-.266.339-.105.12-.218.25-.339.386s-.241.266-.362.387c-.572.572-1.144.814-1.716.725-.572-.088-1.24-.515-2.006-1.28l-3.287-3.288-1.124 1.124 3.528 3.529a6.86 6.86 0 0 0 1.306 1.04c.435.257.882.414 1.341.47.46.057.927-.008 1.402-.193.467-.193.942-.532 1.426-1.015a12.257 12.257 0 0 0 1.353-1.571c.355-.5.629-.91.822-1.233z" fill="#fff"/></svg>