<svg enable-background="new" version="1.0" viewBox="0 0 24 24" xmlns="http://www.w3.org/2000/svg"><defs><filter id="b" x="-.024" y="-.024" width="1.048" height="1.048" color-interpolation-filters="sRGB"><feGaussianBlur stdDeviation="2.72"/></filter><filter id="a" x="-.023" y="-.025" width="1.045" height="1.051" color-interpolation-filters="sRGB"><feGaussianBlur stdDeviation="4.24"/></filter></defs><path d="M240-176v96h32c8.836 0 15.999 7.164 16 16V96s0 128 128 128h272V-33.5c0-79.154-63.346-142.5-142.5-142.5H272z" color="#000" enable-background="accumulate" filter="url(#a)" opacity=".1" transform="translate(-52 -260)"/><path d="M240-176v96h32c8.836 0 15.999 7.164 16 16V96s0 128 128 128h272V-33.5c0-79.154-63.346-142.5-142.5-142.5H272z" color="#000" enable-background="accumulate" filter="url(#a)" opacity=".2" transform="translate(-52 -260)"/><path d="M53 264v7h3v5c0 4.566 3.635 7 8 7h11v-11.14c0-4.365-3.593-7.86-7.93-7.86H57z" color="#000" enable-background="accumulate" opacity=".2" style="isolation:auto;mix-blend-mode:normal;text-decoration-color:#000;text-decoration-line:none;text-decoration-style:solid;text-indent:0;text-transform:none;white-space:normal" transform="translate(-52 -260)"/><path d="M53 263v7h3v5c0 4.566 3.635 7 8 7h11v-11.14c0-4.365-3.593-7.86-7.93-7.86H57z" color="#000" enable-background="accumulate" fill="#fff" style="isolation:auto;mix-blend-mode:normal;text-decoration-color:#000;text-decoration-line:none;text-decoration-style:solid;text-indent:0;text-transform:none;white-space:normal" transform="translate(-52 -260)"/><path d="M352-112V96c0 35.456 28.544 64 64 64h48.25v-32H416c-17.728 0-32-14.272-32-32v-208zm136 32c-30.928 0-56 25.072-56 56V80h32V-24c0-13.255 10.745-24 24-24s24 10.745 24 24V80h32V-24c0-13.255 10.745-24 24-24s24 10.745 24 24V80h32V-24c0-30.928-25.072-56-56-56-15.713 0-29.83 6.577-40 17-10.17-10.423-24.287-17-40-17z" color="#000" enable-background="accumulate" filter="url(#b)" opacity=".2" transform="translate(-52 -260)"/><path d="M3 5v3h1.5C5.286 8 6 8.714 6 9.5V15c0 3.308 2.692 5 6 5h9v-9.14C21 7.551 18.378 5 15.07 5H5z" color="#000" enable-background="accumulate" fill="#4caf50"/><path d="M12 18h4s3 0 3-3v-1h-1v1c0 2-2 2-2 2h-4z" color="#000" enable-background="accumulate" opacity=".2"/><path d="M8 7v8s0 3 3 3h2v-1h-2c-2 0-2-2-2-2V7zm6 1c-1.108 0-2 .892-2 2v4h1v-4c0-.554.446-1 1-1s1 .446 1 1v4h1v-4c0-.554.446-1 1-1s1 .446 1 1v4h1v-4a1.996 1.996 0 0 0-3.5-1.314A1.987 1.987 0 0 0 14 8z" color="#000" enable-background="accumulate" fill="#fff"/><path d="M3 5v3h1.5C5.286 8 6 8.714 6 9.5v4.57C6 17.378 9.122 20 12.43 20H21v-9.14C21 7.55 18.378 5 15.07 5H5z" color="#000" enable-background="accumulate" fill="none"/></svg>