<svg enable-background="new" version="1.0" viewBox="0 0 24 24" xmlns="http://www.w3.org/2000/svg"><defs><filter id="a" x="-.027" y="-.022" width="1.053" height="1.044" color-interpolation-filters="sRGB"><feGaussianBlur stdDeviation="4.08"/></filter></defs><g color="#000"><path d="M272-16h112v-64h128v-112H272zm256-176v448h112v-448zM400-64v320h112V-64zM272 0v256h112V0z" enable-background="new" filter="url(#a)" opacity=".1" transform="translate(-52 -260)"/><path d="M272-16h112v-64h128v-112H272zm256-176v448h112v-448zM400-64v320h112V-64zM272 0v256h112V0z" enable-background="new" filter="url(#a)" opacity=".2" transform="translate(-52 -260)"/><path d="M4 12h5V8h6V3H4zm12-9v20h5V3zm-6 6v14h5V9zm-6 4v10h5V13z" enable-background="new" opacity=".2"/><path d="M4 11h5V7h6V2H4zm12-9v20h5V2zm-6 6v14h5V8zm-6 4v10h5V12z" enable-background="new" fill="#00e676"/><path d="M4 2v1h11V2zm12 0v1h5V2zm-6 6v1h5V8zm-6 4v1h5v-1z" enable-background="new" fill="#fff" opacity=".2"/></g></svg>