<svg version="1.0" viewBox="0 0 24 24" xmlns="http://www.w3.org/2000/svg"><path d="M53 264v7h3v5c0 4.566 3.635 7 8 7h11v-11.14c0-4.365-3.593-7.86-7.93-7.86H57z" color="#000" opacity=".2" style="isolation:auto;mix-blend-mode:normal;text-decoration-color:#000;text-decoration-line:none;text-decoration-style:solid;text-indent:0;text-transform:none;white-space:normal" transform="translate(-52 -260)"/><path d="M53 263v7h3v5c0 4.566 3.635 7 8 7h11v-11.14c0-4.365-3.593-7.86-7.93-7.86H57z" color="#000" fill="#fff" style="isolation:auto;mix-blend-mode:normal;text-decoration-color:#000;text-decoration-line:none;text-decoration-style:solid;text-indent:0;text-transform:none;white-space:normal" transform="translate(-52 -260)"/><path d="M3 5v3h1.5C5.286 8 6 8.714 6 9.5V15c0 3.308 2.692 5 6 5h9v-9.14C21 7.551 18.378 5 15.07 5H5z" color="#000" fill="#4caf50"/><path d="M12 18h4s3 0 3-3v-1h-1v1c0 2-2 2-2 2h-4z" color="#000" opacity=".2"/><path d="M8 7v8s0 3 3 3h2v-1h-2c-2 0-2-2-2-2V7zm6 1c-1.108 0-2 .892-2 2v4h1v-4c0-.554.446-1 1-1s1 .446 1 1v4h1v-4c0-.554.446-1 1-1s1 .446 1 1v4h1v-4a1.996 1.996 0 0 0-3.5-1.314A1.987 1.987 0 0 0 14 8z" color="#000" fill="#fff"/><path d="M3 5v3h1.5C5.286 8 6 8.714 6 9.5v4.57C6 17.378 9.122 20 12.43 20H21v-9.14C21 7.55 18.378 5 15.07 5H5z" color="#000" fill="none"/></svg>