<svg enable-background="new" version="1.0" viewBox="0 0 24 24" xmlns="http://www.w3.org/2000/svg"><defs><filter id="a" x="-.024" y="-.024" width="1.048" height="1.048" color-interpolation-filters="sRGB"><feGaussianBlur stdDeviation="4.48"/></filter><filter id="e" x="-.06" y="-.06" width="1.12" height="1.12" color-interpolation-filters="sRGB"><feGaussianBlur stdDeviation="5.6"/></filter><filter id="b" x="-.06" y="-.06" width="1.12" height="1.12" color-interpolation-filters="sRGB"><feGaussianBlur stdDeviation="5.6"/></filter><filter id="d" x="-.06" y="-.06" width="1.12" height="1.12" color-interpolation-filters="sRGB"><feGaussianBlur stdDeviation="8"/></filter><clipPath id="c"/></defs><path d="M527.98-192A160 160 0 0 0 370.77-61.2 160 160 0 0 0 239.99 95.98v135.53A24.436 24.436 0 0 0 264.48 256h135.53a160 160 0 0 0 157.21-130.8A160 160 0 0 0 688-31.98v-135.53A24.44 24.44 0 0 0 663.51-192h-66.934z" filter="url(#a)" opacity=".1" transform="translate(-52 -260)"/><path d="M527.98-192A160 160 0 0 0 370.77-61.2 160 160 0 0 0 239.99 95.98v135.53A24.436 24.436 0 0 0 264.48 256h135.53a160 160 0 0 0 157.21-130.8A160 160 0 0 0 688-31.98v-135.53A24.44 24.44 0 0 0 663.51-192h-66.934z" filter="url(#a)" opacity=".2" transform="translate(-52 -260)"/><path d="M15 3a7 7 0 0 0-7 7 7 7 0 0 0 7 7 7 7 0 0 0 7-7V4c0-.554-.446-1-1-1h-3z" opacity=".2"/><path d="M9 9a7 7 0 0 0-7 7v6c0 .554.446 1 1 1h6a7 7 0 0 0 7-7 7 7 0 0 0-7-7z" opacity=".2"/><path d="M528 84c62.048 0 112-49.952 112-112v-112H528c-62.048 0-112 49.952-112 112S465.952 84 528 84z" filter="url(#b)" opacity=".2" transform="translate(-52 -260)"/><path d="M15 2a7 7 0 0 0-7 7 7 7 0 0 0 7 7 7 7 0 0 0 7-7V3c0-.554-.446-1-1-1h-3z" fill="#666"/><path d="M15 15c2.77 0 5-2.23 5-5V5h-5c-2.77 0-5 2.23-5 5s2.23 5 5 5z" opacity=".2"/><path d="M15 14c2.77 0 5-2.23 5-5V4h-5c-2.77 0-5 2.23-5 5s2.23 5 5 5z" fill="#ececec"/><path d="M9 8a7 7 0 0 0-7 7v6c0 .554.446 1 1 1h6a7 7 0 0 0 7-7 7 7 0 0 0-7-7z" fill="gray"/><path d="M15 2a7 7 0 0 0-7 7 7 7 0 0 0 .023.459A7 7 0 0 1 15 3h6c.554 0 1 .446 1 1V3c0-.554-.446-1-1-1h-3z" fill="#fff" opacity=".2"/><path d="M9 11c-2.77 0-5 2.23-5 5v5h5c2.77 0 5-2.23 5-5s-2.23-5-5-5z" opacity=".2"/><path d="M9 8a7 7 0 0 0-7 7v1a7 7 0 0 1 7-7 7 7 0 0 1 6.977 6.541A7 7 0 0 0 16 15a7 7 0 0 0-7-7z" fill="#fff" opacity=".2"/><path d="M400.02-62C311.655-62.007 240.01 9.619 240 97.98v135.53c0 13.568 10.927 24.844 24.49 24.49h135.53c88.365-.01 159.99-71.651 159.98-160.02C559.99 9.628 488.368-61.99 400.02-62z" clip-path="url(#c)" filter="url(#d)" opacity=".5" transform="translate(-52 -260)"/><path d="M9 10c-2.77 0-5 2.23-5 5v5h5c2.77 0 5-2.23 5-5s-2.23-5-5-5z" fill="#fff"/><path d="M400-12c-62.048 0-112 49.952-112 112v112h112c62.048 0 112-49.952 112-112S462.048-12 400-12z" filter="url(#e)" opacity=".2" transform="translate(-52 -260)"/></svg>