<svg version="1.0" viewBox="0 0 24 24" xmlns="http://www.w3.org/2000/svg"><g transform="translate(-52 -260)"><rect transform="matrix(0 -1 -1 0 0 0)" x="-283" y="-74" width="20" height="20" rx="2" ry="2" opacity=".2"/><rect transform="matrix(0 -1 -1 0 0 0)" x="-282" y="-74" width="20" height="20" rx="2" ry="2" fill="#1794d1"/><path d="M56 262c-1.108 0-2 .892-2 2v1c0-1.108.892-2 2-2h16c1.108 0 2 .892 2 2v-1c0-1.108-.892-2-2-2z" fill="#fff" opacity=".2"/><path d="M63.998 265c-.623 1.528-.999 2.527-1.693 4.01.426.45.948.975 1.796 1.568-.912-.375-1.534-.751-1.998-1.142-.888 1.853-2.28 4.492-5.102 9.564 2.218-1.28 3.938-2.07 5.541-2.372a4.06 4.06 0 0 1-.105-.95l.003-.071c.036-1.422.775-2.515 1.651-2.44.876.073 1.557 1.287 1.522 2.708a3.978 3.978 0 0 1-.09.764c1.586.31 3.287 1.097 5.476 2.361-.432-.795-.817-1.51-1.185-2.193-.58-.449-1.184-1.034-2.417-1.666.848.22 1.455.474 1.927.758-3.74-6.964-4.043-7.889-5.325-10.9z" fill="#fff" fill-rule="evenodd"/></g></svg>