<svg version="1.0" viewBox="0 0 24 24" xmlns="http://www.w3.org/2000/svg"><g transform="translate(-52 -260)"><circle cx="64" cy="273" r="11" opacity=".2"/><circle cx="64" cy="272" r="11" fill="#04a"/><path d="M64 261a11 11 0 0 0-11 11 11 11 0 0 0 .021.586A11 11 0 0 1 64 262a11 11 0 0 1 10.979 10.414A11 11 0 0 0 75 272a11 11 0 0 0-11-11Z" fill="#fff" opacity=".2"/><g fill="#fff"><path d="M67.598 265.124c-.034.02-.047.038-.04.025-.372.631-.375 1.457-.544 2.199a.274.274 0 0 1 0 .04c-.084.815-.35 1.643-.135 2.424a.274.274 0 0 1 .018.044c.04.053.091.1.122.107.022.004.055-.006.132-.06.083-.057.136-.164.16-.316a.274.274 0 0 1 .034-.03.274.274 0 0 1 .006-.047c.339-1.333.58-2.736.49-4.107a.274.274 0 0 1 0-.013c-.011-.064-.03-.101-.091-.174a.623.623 0 0 0-.077-.084c-.01-.007-.002-.009-.04-.007a.274.274 0 0 1-.036 0z"/><path d="M70.638 265.77c-.574.277-.87.952-1.266 1.494a.257.257 0 0 1-.029.078c-.5.885-1.135 1.762-1.202 2.785.003.162.095.254.191.275.09.02.256-.04.323-.14.006-.015.002-.03.01-.042a.257.257 0 0 1 .007-.01c.905-1.244 1.59-2.72 2.151-4.153a.257.257 0 0 1 .001-.004c.04-.095.041-.132.007-.202-.01-.021-.112-.089-.167-.082a.257.257 0 0 1-.026 0z"/><path d="M61.758 266.183c-.091.017-.228.1-.326.138-.346.13-.536.427-.619.773-.084.354-.056.748 0 1.151s.136.818.224 1.135c.075.274.128.407.154.498v.07c0 .029-.014.027-.034.05-.011.007.01.035 0 .035a.147.147 0 0 1-.086.034c-.061.004-.109-.018-.172-.034-.043-.01-.099-.044-.086-.034-.02-.012-.056-.014-.069-.035 0 .008.012.008 0-.017-.014-.026-.03-.091-.051-.137-.05-.105-.088-.225-.155-.379-.134-.305-.306-.68-.498-1.03-.193-.354-.42-.674-.67-.895-.126-.11-.281-.22-.43-.257a.697.697 0 0 0-.464.068 1.402 1.402 0 0 0-.688.929c-.085.37-.045.796.017 1.168.063.371.16.677.224.928.027.106.06.205.069.258 0 .053-.022.19-.035.24a7.148 7.148 0 0 1-.223.602s-3 7.966 3.437 7.408c.053-.003.174-.034.224-.034a20.093 20.093 0 0 0 3.523-1.066c.209-.1.483-.2.79-.343a37.782 37.782 0 0 0 2.132-1.066c.743-.408 1.432-.843 1.96-1.306.527-.464.912-.972.841-1.478-.112-.816-.653-1.423-1.375-1.891-.723-.47-1.626-.795-2.526-1.031-.9-.237-1.773-.43-2.44-.533-.334-.052-.647-.067-.843-.103-.058-.01-.089-.025-.12-.035-.017-.002-.019-.007-.035-.017-.02-.012-.056-.013-.068-.034-.011-.02 0-.046 0-.069v-.533a10.825 10.825 0 0 0-.12-1.46c-.087-.51-.22-.995-.5-1.324a.975.975 0 0 0-.687-.344.938.938 0 0 0-.275 0z"/></g></g></svg>