<svg version="1.0" viewBox="0 0 24 24" xmlns="http://www.w3.org/2000/svg"><g transform="translate(-52 -260)"><circle cx="64" cy="273" r="11" opacity=".2"/><circle cx="64" cy="272" r="11" fill="#0068c8"/><path d="M64 261a11 11 0 0 0-11 11 11 11 0 0 0 .021.586A11 11 0 0 1 64 262a11 11 0 0 1 10.979 10.414A11 11 0 0 0 75 272a11 11 0 0 0-11-11Z" fill="#fff" opacity=".2"/><path d="M63.885 261a11 11 0 0 0-.822.043c.271-.023.545-.04.822-.043zm-1.438.117a11 11 0 0 0-.45.069c.148-.028.3-.047.45-.069zm-1.115.219a11 11 0 0 0-.398.102c.131-.038.265-.069.398-.102zm-1.088.332a11 11 0 0 0-.32.117c.106-.042.213-.078.32-.117zm-1.029.434a11 11 0 0 0-.28.134c.092-.047.187-.09.28-.134zm-.924.503a11 11 0 0 0-.316.194c.103-.068.21-.13.316-.194zm-.842.569a11 11 0 0 0-.357.267c.116-.093.238-.178.357-.267zm13.598.379c.104.087.2.183.301.273a11 11 0 0 0-.3-.273zm-14.436.31a11 11 0 0 0-.326.297c.105-.103.218-.198.326-.297zm15.225.418c.102.103.194.214.291.32a11 11 0 0 0-.29-.32zm-15.973.33a11 11 0 0 0-.314.348c.1-.12.21-.232.314-.348zm10.611.026c-.306-.011-1.986.484-2.478 1.107-1.484.108-7.468 4.188-10.982 6.668a11 11 0 0 0 .064.783c1.599-.616 3.457-1.26 4.21-1.256.148.001.257.025.306.082.29.341-.942 1.993-2.213 3.862-.33.484-.662.978-.98 1.459a11 11 0 0 0 .32.556c1.747-2.187 3.944-4.927 4.553-5.02a.144.144 0 0 1 .084.01c.108.133-1.898 3.33-3.692 6.268a11 11 0 0 0 .635.682c.872-1.198 1.817-2.518 2.732-3.781 1.91-2.636 3.598-5.1 4.422-5.121a.389.389 0 0 1 .077.004c2.536.015 5.015 6.376 6.32 10.365a11 11 0 0 0 .545-.377c-.627-4.46-2.095-11.807-5.155-13.852.329-.219.356-1.342.356-1.342zm6.086.457c.083.102.156.21.235.314a11 11 0 0 0-.235-.314zm-17.473.472a11 11 0 0 0-.175.237c.055-.082.118-.157.175-.237zm18.12.418c.061.095.116.195.175.291a11 11 0 0 0-.176-.29zm.548.94c.052.099.096.202.145.303a11 11 0 0 0-.145-.303zm.455.994c.044.11.081.223.121.334a11 11 0 0 0-.12-.334zm.346 1.008c.04.134.071.271.105.408a11 11 0 0 0-.105-.408zm.252 1.066c.028.15.049.304.07.457a11 11 0 0 0-.07-.457zm.144 1.06c.027.312.047.626.047.944a11 11 0 0 0-.047-.943zm.047.954c0 .417-.03.827-.076 1.232a11 11 0 0 0 .076-1.232zm-21.875 1.574a11 11 0 0 0 .077.465 11.009 11.009 0 0 1-.077-.465zm21.732.096c-.038.25-.081.499-.136.744a11 11 0 0 0 .136-.744zm-21.514 1.012a11 11 0 0 0 .11.41 10.94 10.94 0 0 1-.11-.41zm21.232.29c-.055.196-.116.39-.181.58a11 11 0 0 0 .181-.58zm-20.895.805a11 11 0 0 0 .123.324 10.915 10.915 0 0 1-.123-.324zm20.506.344c-.086.213-.186.419-.285.625a11 11 0 0 0 .285-.625zm-20.076.668a11 11 0 0 0 .155.31c-.054-.102-.104-.206-.155-.31zm19.584.39c-.16.3-.337.588-.523.87a11 11 0 0 0 .523-.87zm-.7 1.133c-.208.294-.427.579-.661.85a11 11 0 0 0 .66-.85zm-17.667.438a11 11 0 0 0 .13.162 10.773 10.773 0 0 1-.13-.162zm16.793.64c-.2.22-.404.433-.62.635a11 11 0 0 0 .62-.635zm-15.42.817a11 11 0 0 0 .278.246c-.096-.08-.185-.164-.278-.246zm14.494.086c-.207.18-.42.353-.64.517a11 11 0 0 0 .64-.517zm-13.543.672a11 11 0 0 0 .16.117c-.054-.037-.106-.08-.16-.117zm.94.597a11 11 0 0 0 .156.092c-.053-.029-.104-.062-.156-.092zm8.37 1.022c-.02.006-.041.01-.062.015a11 11 0 0 0 .063-.015zm-1.03.232-.108.02a11 11 0 0 0 .108-.02z" fill="#fff"/></g></svg>