<svg version="1.0" viewBox="0 0 24 24" xmlns="http://www.w3.org/2000/svg"><g transform="translate(-52 -260)"><circle cx="64" cy="273" r="11" opacity=".2"/><circle cx="64" cy="272" r="11" fill="#0087ed"/><path d="M64 261a11 11 0 0 0-11 11 11 11 0 0 0 .021.586A11 11 0 0 1 64 262a11 11 0 0 1 10.979 10.414A11 11 0 0 0 75 272a11 11 0 0 0-11-11Z" fill="#fff" opacity=".2"/><path d="M63.375 264.906c-.322.194-.733.468-1.232.822-.492.347-1.016.798-1.572 1.354-.483.483-.821.958-1.015 1.426a2.85 2.85 0 0 0-.193 1.401c.056.46.214.907.471 1.342.266.443.613.878 1.04 1.305l3.528 3.529 1.124-1.124-3.287-3.287c-.765-.766-1.192-1.434-1.28-2.006-.09-.572.152-1.144.724-1.716.121-.121.25-.242.387-.363l.387-.338c.129-.097.241-.186.338-.266a1.57 1.57 0 0 1 .254-.157l7.23 7.23 1.124-1.124zm-.35 3.571-1.124 1.124 5.306 5.305a1.565 1.565 0 0 1-.157.254c-.08.097-.17.21-.266.339-.105.12-.218.25-.339.386s-.241.266-.362.387c-.572.572-1.144.814-1.716.725-.572-.088-1.24-.515-2.006-1.28l-3.287-3.288-1.124 1.124 3.528 3.529a6.86 6.86 0 0 0 1.306 1.04c.435.257.882.414 1.341.47.46.057.927-.008 1.402-.193.467-.193.942-.532 1.426-1.015a12.257 12.257 0 0 0 1.353-1.571c.355-.5.629-.91.822-1.233z" fill="#fff"/></g></svg>