<svg version="1.0" viewBox="0 0 24 24" xmlns="http://www.w3.org/2000/svg"><path d="M12 3C6.872 3 2.256 12.744 1.744 16.846 1.104 21.96 8.924 23 12 23s10.896-1.04 10.256-6.154C21.743 12.743 17.128 3 12 3z" fill-rule="evenodd" opacity=".2"/><path d="M12 2C6.872 2 2.256 11.744 1.744 15.846 1.104 20.96 8.924 22 12 22s10.896-1.04 10.256-6.154C21.743 11.743 17.128 2 12 2z" fill="#7986cb" fill-rule="evenodd"/><path d="M13.449 18.17c1.331-3.327 1.591-7.63.64-10.604-.25-.781-.363-.6-.807 1.287-.671 2.847-2.222 6.271-3.667 8.096-.4.504-.696 1.008-.659 1.119.127.381 1.71.834 2.953.844l1.239.01zm4.63-5.316c0-1.67-.643-3.237-1.763-4.304-.501-.478-.71-.596-.613-.35.65 1.67 1.249 4.019 1.443 5.652l.232 1.952.35-.803c.236-.54.35-1.241.35-2.147zm-10.745.727c1.389-1.034 2.816-2.461 3.704-3.702 1.288-1.802 1.921-3.264 1.413-3.264-.098 0-.73.412-1.403.916S9.072 8.835 8.154 9.31c-1.647.85-1.672.873-1.953 1.822-.406 1.368-.36 3.13.08 3.13.078 0 .551-.306 1.053-.68z" fill="#fff"/><path d="M12 2C6.872 2 2.257 11.743 1.744 15.846a4.348 4.348 0 0 0-.002 1.04c.002-.014 0-.026.002-.04C2.257 12.743 6.872 3 12 3s9.743 9.743 10.256 13.846c.002.014 0 .025.002.04a4.36 4.36 0 0 0-.002-1.04C21.743 11.743 17.128 2 12 2z" fill="#fff" fill-rule="evenodd" opacity=".2"/></svg>