<svg enable-background="new" version="1.0" viewBox="0 0 24 24" xmlns="http://www.w3.org/2000/svg"><defs><filter id="a" x="-.024" y="-.024" width="1.048" height="1.048" color-interpolation-filters="sRGB"><feGaussianBlur stdDeviation="4.8"/></filter></defs><g transform="translate(-52 -260)"><circle cx="464" cy="32" r="240" filter="url(#a)" opacity=".1"/><circle cx="464" cy="32" r="240" filter="url(#a)" opacity=".2"/><circle cx="64" cy="273" r="11" opacity=".2"/><circle cx="168" cy="261" r="22" opacity=".2"/><circle cx="24" cy="276" r="8" fill="#3d91e7"/><circle cx="64" cy="272" r="11" fill="#3d91e7"/><path d="M64 261a11 11 0 0 0-11 11 11 11 0 0 0 .021.586A11 11 0 0 1 64 262a11 11 0 0 1 10.979 10.414A11 11 0 0 0 75 272a11 11 0 0 0-11-11Z" fill="#fff" opacity=".2"/><circle cx="168" cy="260" r="22" fill="#3d91e7"/><path d="M168 238a22 22 0 0 0-22 22 22 22 0 0 0 .021.586A22 22 0 0 1 168 239a22 22 0 0 1 21.979 21.414A22 22 0 0 0 190 260a22 22 0 0 0-22-22z" fill="#fff" opacity=".2"/><circle cx="464" cy="28" r="240" fill="#3d91e7"/><path d="M464-212A240 240 0 0 0 224 28a240 240 0 0 0 .041 1.172A240 240 0 0 1 464-210 240 240 0 0 1 703.959 28.828 240 240 0 0 0 704 28a240 240 0 0 0-240-240Z" fill="#fff" opacity=".2"/><circle cx="112" cy="269" r="15" enable-background="new" opacity=".2"/><circle cx="112" cy="268" r="15" enable-background="new" fill="#3d91e7"/><path d="M112 253a15 15 0 0 0-15 15 15 15 0 0 0 .02.544A15 15 0 0 1 112 253.938a15 15 0 0 1 14.98 14.456A15 15 0 0 0 127 268a15 15 0 0 0-15-15z" enable-background="new" fill="#fff" opacity=".2"/></g><path d="M12 3a9 9 0 1 0 0 18 9 9 0 0 0 0-18zm0 .75a8.254 8.254 0 0 1 7.942 6.008 14.314 14.314 0 0 1-3.497 4.56c-.7.607-1.465 1.148-2.31 1.529-.845.38-1.774.596-2.7.543a4.67 4.67 0 0 1-1.99-.57 15.011 15.011 0 0 0 4.26-3.436c.782-.916 1.467-1.957 1.73-3.132a4.252 4.252 0 0 0 .031-1.792 3.312 3.312 0 0 0-.808-1.59 3.244 3.244 0 0 0-1.5-.89 3.94 3.94 0 0 0-1.749-.062c-1.157.212-2.19.884-3.02 1.72-1.46 1.472-2.363 3.549-2.198 5.616a5.909 5.909 0 0 0 1.023 2.9c.133.19.278.37.434.542-.865.302-1.76.518-2.668.64A8.25 8.25 0 0 1 12 3.75zm.053 1.667a2.72 2.72 0 0 1 1.626.526c.417.315.726.763.901 1.255a3.45 3.45 0 0 1 .16 1.546c-.12 1.038-.643 1.99-1.275 2.822-1.12 1.473-2.61 2.651-4.266 3.476-.17.085-.342.165-.515.242a4.262 4.262 0 0 1-.904-1.106c-.492-.871-.655-1.906-.56-2.902.096-.996.438-1.955.897-2.844.532-1.03 1.258-2.007 2.273-2.567a3.461 3.461 0 0 1 1.663-.448zm8.123 5.479a8.25 8.25 0 0 1-14.535 6.361 14.854 14.854 0 0 0 2.722-.905c.383.292.806.53 1.256.703 1.294.496 2.764.425 4.074-.029s2.472-1.268 3.485-2.214a14.999 14.999 0 0 0 2.998-3.916z" fill="#fff"/></svg>