<svg version="1.0" viewBox="0 0 24 24" xmlns="http://www.w3.org/2000/svg"><path d="M12 2C5.928 2 1.004 6.922 1 12.994v9.299C1 23.238 1.761 24 2.707 24h9.299C18.079 23.997 23 19.074 23 13c0-6.076-4.925-11-11-11z" opacity=".2"/><path d="M12 1C5.928 1 1.004 5.922 1 11.994v9.299C1 22.238 1.761 23 2.707 23h9.299C18.079 22.997 23 18.074 23 12c0-6.076-4.925-11-11-11z" fill="#294172"/><path d="M15.256 3.05a5.275 5.275 0 0 0-5.275 5.275v2.795H7.198a5.265 5.265 0 0 0-5.275 5.263 5.275 5.275 0 1 0 10.549 0v-2.807h2.784c2.913 0 5.274-2.338 5.274-5.251a5.274 5.274 0 0 0-5.274-5.275zM9.981 16.388a2.784 2.784 0 0 1-2.783 2.78 2.794 2.794 0 0 1-2.796-2.784c0-1.538 1.258-2.808 2.796-2.808h2.391c.217 0 .393.176.393.393v2.419zm5.275-5.268h-2.391a.393.393 0 0 1-.393-.393V8.32a2.784 2.784 0 0 1 2.784-2.78 2.794 2.794 0 0 1 2.795 2.785 2.804 2.804 0 0 1-2.795 2.795z" fill="#5484c6"/><path d="M9.981 11.12V8.324a5.275 5.275 0 0 1 5.275-5.274c.442 0 .756.05 1.165.156.596.157 1.083.646 1.084 1.214 0 .688-.5 1.188-1.245 1.188-.356 0-.484-.068-1.005-.068a2.784 2.784 0 0 0-2.784 2.78v2.407c0 .217.176.393.393.393h1.83a1.227 1.227 0 1 1 0 2.456H12.47v2.807a5.274 5.274 0 0 1-5.274 5.274 4.19 4.19 0 0 1-1.165-.157c-.596-.156-1.084-.645-1.084-1.214 0-.687.499-1.187 1.245-1.187.355 0 .484.068 1.004.068a2.784 2.784 0 0 0 2.784-2.78v-2.419a.393.393 0 0 0-.393-.392H7.759a1.225 1.225 0 0 1-1.232-1.228 1.23 1.23 0 0 1 1.245-1.228h2.209z" fill="#fff"/></svg>