<svg version="1.0" viewBox="0 0 24 24" xmlns="http://www.w3.org/2000/svg"><g transform="translate(-52 -260)"><circle cx="64" cy="273" r="11" opacity=".2"/><circle cx="64" cy="272" r="11" fill="#8bc34a"/><path d="M64 261a11 11 0 0 0-11 11 11 11 0 0 0 .021.586A11 11 0 0 1 64 262a11 11 0 0 1 10.979 10.414A11 11 0 0 0 75 272a11 11 0 0 0-11-11Z" fill="#fff" opacity=".2"/><path d="M64 263a9 9 0 1 0 0 18 9 9 0 0 0 0-18zm.043 1.246A7.756 7.756 0 0 1 71.8 272a7.756 7.756 0 0 1-13.565 5.135c.584-.453 1.562-.343 2.765-.206.577.066 1.234.14 1.913.156 1.895.011 3.935-.335 5.194-.885.814-.357 1.335-.592 1.661-.888.117-.097.18-.258.242-.425l.043-.112a4.82 4.82 0 0 0 .162-.584c.016-.07.023-.144-.026-.182l-.176.033c-.552.331-1.932.962-3.225.988-1.602.033-4.831-1.613-5.168-1.787l-.033-.04c-.081-.192-.564-1.34-.667-1.58 2.325 1.53 4.252 2.377 5.729 2.509 1.642.146 2.923-.75 3.47-1.134.107-.073.189-.13.222-.143l.037-.06c-.091-.576-.952-3.37-1.601-4.04-.18-.184-.323-.363-.613-.534-2.349-1.368-7.924-2.193-8.185-2.23l-.043.013-.017.036-.023 1.286a33.124 33.124 0 0 0-1.634-.49c1.109-1.372 2.808-2.59 5.781-2.59zm2.049 4.104h.119a2.394 2.394 0 0 1 2.304 2.47 2.372 2.372 0 0 1-.756 1.657 2.368 2.368 0 0 1-1.71.643 2.4 2.4 0 0 1-2.304-2.47 2.364 2.364 0 0 1 .759-1.66c.436-.409.994-.63 1.588-.64zm-.063.703a1.644 1.644 0 0 0-1.028.444 1.652 1.652 0 0 0-.527 1.157 1.67 1.67 0 0 0 1.604 1.724 1.656 1.656 0 0 0 1.72-1.604 1.667 1.667 0 0 0-1.77-1.72zm.437.832c.408 0 .736.222.736.494 0 .271-.328.494-.736.494-.409 0-.739-.223-.739-.494 0-.272.33-.494.74-.494z" fill="#fff" fill-rule="evenodd"/></g></svg>