<svg version="1.0" viewBox="0 0 24 24" xmlns="http://www.w3.org/2000/svg"><g transform="translate(-52 -260)"><circle cx="64" cy="273" r="11" opacity=".2"/><circle cx="64" cy="272" r="11" fill="#e95420"/><path d="M64 261a11 11 0 0 0-11 11 11 11 0 0 0 .021.586A11 11 0 0 1 64 262a11 11 0 0 1 10.979 10.414A11 11 0 0 0 75 272a11 11 0 0 0-11-11Z" fill="#fff" opacity=".2"/><path d="M57.2 270.67a1.335 1.335 0 1 0 0 2.67 1.335 1.335 0 0 0 0-2.67zm9.533 6.068a1.335 1.335 0 1 0 1.334 2.312 1.335 1.335 0 0 0-1.335-2.312zm-6.633-4.733c0-1.32.656-2.485 1.658-3.19l-.976-1.636a5.81 5.81 0 0 0-2.398 3.372c.421.344.69.867.69 1.454s-.269 1.11-.69 1.454a5.81 5.81 0 0 0 2.398 3.372l.976-1.636a3.893 3.893 0 0 1-1.658-3.19zm3.9-3.9a3.9 3.9 0 0 1 3.884 3.554l1.903-.028a5.782 5.782 0 0 0-1.724-3.762 1.87 1.87 0 0 1-1.6-.13 1.87 1.87 0 0 1-.914-1.323 5.8 5.8 0 0 0-4.12.39l.928 1.662a3.884 3.884 0 0 1 1.643-.363zm0 7.8c-.587 0-1.144-.13-1.643-.363l-.928 1.662a5.777 5.777 0 0 0 4.12.39 1.87 1.87 0 0 1 .914-1.324 1.87 1.87 0 0 1 1.6-.13 5.782 5.782 0 0 0 1.723-3.761l-1.902-.028A3.9 3.9 0 0 1 64 275.905zm2.732-8.633a1.335 1.335 0 1 0 1.335-2.311 1.335 1.335 0 0 0-1.335 2.31z" fill="#fff"/></g></svg>