<svg version="1.0" viewBox="0 0 24 24" xmlns="http://www.w3.org/2000/svg"><path d="M3 1h18c1.108 0 2 .892 2 2v18c0 1.108-.892 2-2 2H3c-1.108 0-2-.892-2-2V3c0-1.108.892-2 2-2z" fill="#1c8d9b"/><path d="M3 1.5h18c.831 0 1.5.669 1.5 1.5v18c0 .831-.669 1.5-1.5 1.5H3c-.831 0-1.5-.669-1.5-1.5V3c0-.831.669-1.5 1.5-1.5z" fill="#1c8d9b" stroke="#000" stroke-linecap="round" stroke-opacity=".392"/><g fill-opacity=".314"><path d="M5 10v8h14v-8zm7 1a3 3 0 0 1 3 3 3 3 0 0 1-3 3 3 3 0 0 1-3-3 3 3 0 0 1 3-3z"/><path d="M11 7 9 9H6c-.554 0-1 .446-1 1h14c0-.554-.446-1-1-1h-3l-2-2zM5 18c0 .554.446 1 1 1h12c.554 0 1-.446 1-1z"/></g><g fill="#fff"><path d="M5 9v8h14V9zm7 1a3 3 0 0 1 3 3 3 3 0 0 1-3 3 3 3 0 0 1-3-3 3 3 0 0 1 3-3z"/><path d="M11 6 9 8H6c-.554 0-1 .446-1 1h14c0-.554-.446-1-1-1h-3l-2-2zM5 17c0 .554.446 1 1 1h12c.554 0 1-.446 1-1z"/></g></svg>