<svg version="1.0" viewBox="0 0 24 24" xmlns="http://www.w3.org/2000/svg"><path d="M3 1h18c1.108 0 2 .892 2 2v18c0 1.108-.892 2-2 2H3c-1.108 0-2-.892-2-2V3c0-1.108.892-2 2-2z" fill="#3f51b5"/><path d="M3 1.5h18c.831 0 1.5.669 1.5 1.5v18c0 .831-.669 1.5-1.5 1.5H3c-.831 0-1.5-.669-1.5-1.5V3c0-.831.669-1.5 1.5-1.5z" fill="none" stroke="#fff" stroke-linecap="round" stroke-opacity=".392"/><g fill="#fff"><path d="M14 4v6h2.5L12 17l-4.5-7H10V4z"/><path d="M7 18a1 1 0 0 0 0 2h10a1 1 0 0 0 0-2z"/><path d="M14 4v6h2.5L12 17l-4.5-7H10V4z"/><path d="M7 18a1 1 0 0 0 0 2h10a1 1 0 0 0 0-2z"/></g></svg>