<svg version="1.0" viewBox="0 0 24 24" xmlns="http://www.w3.org/2000/svg"><path d="M3 1h18c1.108 0 2 .892 2 2v18c0 1.108-.892 2-2 2H3c-1.108 0-2-.892-2-2V3c0-1.108.892-2 2-2z" fill="#3f51b5"/><path d="M3 1.5h18c.831 0 1.5.669 1.5 1.5v18c0 .831-.669 1.5-1.5 1.5H3c-.831 0-1.5-.669-1.5-1.5V3c0-.831.669-1.5 1.5-1.5z" fill="none" stroke="#fff" stroke-linecap="round" stroke-opacity=".392"/><path d="M7.999 4a2 2 0 0 0-2 2v11a2 2 0 0 0 2 2h8c1.09 0 1.974-.874 1.996-1.959.01-1.094.005-5.423 0-8.13a1.998 1.998 0 0 0-.547-1.337L14.48 4.605A2 2 0 0 0 13.046 4z" fill="#fefefe"/></svg>