<svg version="1.0" viewBox="0 0 24 24" xmlns="http://www.w3.org/2000/svg"><path d="M3 1h18c1.108 0 2 .892 2 2v18c0 1.108-.892 2-2 2H3c-1.108 0-2-.892-2-2V3c0-1.108.892-2 2-2z" fill="#48b9c7"/><path d="M3 1.5h18c.831 0 1.5.669 1.5 1.5v18c0 .831-.669 1.5-1.5 1.5H3c-.831 0-1.5-.669-1.5-1.5V3c0-.831.669-1.5 1.5-1.5z" fill="none" stroke="#000" stroke-linecap="round" stroke-opacity=".392"/><path d="M68-1355a3 3 0 1 1 0 6 3 3 0 0 1 0-6zm0 8c6 0 6 4.003 6 4.003v1H62v-1s0-4 6-4.003z" color="#000" fill="#33302f" style="text-decoration-line:none;text-indent:0;text-transform:none" transform="translate(-56 1360)"/><path d="M68-1355a3 3 0 1 1 0 6 3 3 0 0 1 0-6zm0 8c6 0 6 4.003 6 4.003v1H62v-1s0-4 6-4.003z" color="#000" fill="#33302f" style="text-decoration-line:none;text-indent:0;text-transform:none" transform="translate(-56 1360)"/></svg>