<svg version="1.0" viewBox="0 0 24 24" xmlns="http://www.w3.org/2000/svg"><path d="M3 1h18c1.108 0 2 .892 2 2v18c0 1.108-.892 2-2 2H3c-1.108 0-2-.892-2-2V3c0-1.108.892-2 2-2z" fill="#faa41a"/><path d="M3 1.5h18c.831 0 1.5.669 1.5 1.5v18c0 .831-.669 1.5-1.5 1.5H3c-.831 0-1.5-.669-1.5-1.5V3c0-.831.669-1.5 1.5-1.5z" fill="none" stroke="#000" stroke-linecap="round" stroke-opacity=".392"/><path d="M10 5a2 2 0 0 0-2 2v6.188A2.927 2.927 0 0 0 7 13a3 3 0 1 0 3 3V9h6v4.188A2.927 2.927 0 0 0 15 13a3 3 0 1 0 3 3V7a2 2 0 0 0-2-2z" fill="#33302f"/></svg>