<svg version="1.0" viewBox="0 0 24 24" xmlns="http://www.w3.org/2000/svg"><path d="M3 1h18c1.108 0 2 .892 2 2v18c0 1.108-.892 2-2 2H3c-1.108 0-2-.892-2-2V3c0-1.108.892-2 2-2z" fill="#48b9c7"/><path d="M3 1.5h18c.831 0 1.5.669 1.5 1.5v18c0 .831-.669 1.5-1.5 1.5H3c-.831 0-1.5-.669-1.5-1.5V3c0-.831.669-1.5 1.5-1.5z" fill="none" stroke="#000" stroke-linecap="round" stroke-opacity=".392"/><path d="M12.004 6.1c-2.895 0-5.79 1.105-8 3.312l6.547 7.932h.006a2 2 0 0 0 2.889-.006h.004l6.554-7.926a11.283 11.283 0 0 0-8-3.312z" fill="#33302f"/></svg>