<svg version="1.0" viewBox="0 0 24 24" xmlns="http://www.w3.org/2000/svg" xmlns:xlink="http://www.w3.org/1999/xlink"><g transform="translate(-56 40)"><g fill="#48b9c7"><path d="M59 261h6l4 4h8c1.108 0 2 .892 2 2v14c0 1.108-.892 2-2 2H59c-1.108 0-2-.892-2-2v-18c0-1.108.892-2 2-2z"/><path d="M19 269h3l2 2h5c1.108 0 2 .892 2 2v8c0 1.108-.892 2-2 2H19c-1.108 0-2-.892-2-2v-10c0-1.108.892-2 2-2z"/><path d="M488 52c-4.432 0-8 3.568-8 8v196c0 4.432 3.568 8 8 8h208c4.432 0 8-3.568 8-8V84c0-4.432-3.568-8-8-8h-92l-24-24z"/><path d="M332 168h34l12 12h46c4.432 0 8 3.568 8 8v78c0 4.432-3.568 8-8 8h-92c-4.432 0-8-3.568-8-8v-90c0-4.432 3.568-8 8-8z"/><path d="M234 226h18l5 5h23c2.216 0 4 1.784 4 4v41c0 2.216-1.784 4-4 4h-46c-2.216 0-4-1.784-4-4v-46c0-2.216 1.784-4 4-4z"/><path d="M164 240h12l4 4h16c2.216 0 4 1.784 4 4v29c0 2.216-1.784 4-4 4h-32c-2.216 0-4-1.784-4-4v-33c0-2.216 1.784-4 4-4z"/><path d="M105 255h8l3 3h11c1.108 0 2 .892 2 2v20c0 1.108-.892 2-2 2h-22c-1.108 0-2-.892-2-2v-23c0-1.108.892-2 2-2z"/></g><g id="a"><path d="M59 261.5h5.797l3.996 4H77c.831 0 1.5.669 1.5 1.5v14c0 .831-.669 1.5-1.5 1.5H59c-.831 0-1.5-.669-1.5-1.5v-18c0-.831.669-1.5 1.5-1.5z" fill="none" stroke="#000" stroke-linecap="round" stroke-opacity=".502"/><path d="M19 269.5h2.793l2 2H29c.831 0 1.5.669 1.5 1.5v8c0 .831-.669 1.5-1.5 1.5H19c-.831 0-1.5-.669-1.5-1.5v-10c0-.831.669-1.5 1.5-1.5z" fill="none" stroke="#000" stroke-linecap="round" stroke-opacity=".502"/><path d="M105 259c-1.108 0-2 .892-2 2v19c0 1.108.892 2 2 2h22c1.108 0 2-.892 2-2v-19c0-1.108-.892-2-2-2zm0 1h22c.554 0 1 .446 1 1v18c0 .554-.446 1-1 1h-22c-.554 0-1-.446-1-1v-18c0-.554.446-1 1-1z" fill-opacity=".25"/><path d="M488 52c-4.432 0-8 3.568-8 8v196c0 4.432 3.568 8 8 8h208c4.432 0 8-3.568 8-8V84c0-4.432-3.568-8-8-8h-92l-24-24zm0 32h208c3.878 0 7 3.122 7 7v161c0 3.878-3.122 7-7 7H488c-3.878 0-7-3.122-7-7V91c0-3.878 3.122-7 7-7z" fill-opacity=".25"/><path d="M488 83c-4.432 0-8 3.568-8 8v165c0 4.432 3.568 8 8 8h208c4.432 0 8-3.568 8-8V91c0-4.432-3.568-8-8-8zm0 1h208c3.878 0 7 3.122 7 7v161c0 3.878-3.122 7-7 7H488c-3.878 0-7-3.122-7-7V91c0-3.878 3.122-7 7-7z" fill-opacity=".25"/><path d="M332 168c-4.432 0-8 3.568-8 8v90c0 4.432 3.568 8 8 8h92c4.432 0 8-3.568 8-8v-78c0-4.432-3.568-8-8-8h-46l-12-12zm0 16h92c3.878 0 7 3.122 7 7v72c0 3.878-3.122 7-7 7h-92c-3.878 0-7-3.122-7-7v-72c0-3.878 3.122-7 7-7z" fill-opacity=".25"/><path d="M332 183c-4.432 0-8 3.568-8 8v75c0 4.432 3.568 8 8 8h92c4.432 0 8-3.568 8-8v-75c0-4.432-3.568-8-8-8zm0 1h92c3.878 0 7 3.122 7 7v72c0 3.878-3.122 7-7 7h-92c-3.878 0-7-3.122-7-7v-72c0-3.878 3.122-7 7-7z" fill-opacity=".25"/><path d="M234 226c-2.216 0-4 1.784-4 4v46c0 2.216 1.784 4 4 4h46c2.216 0 4-1.784 4-4v-41c0-2.216-1.784-4-4-4h-23l-5-5zm0 8h46c1.662 0 3 1.338 3 3v37c0 1.662-1.338 3-3 3h-46c-1.662 0-3-1.338-3-3v-37c0-1.662 1.338-3 3-3z" fill-opacity=".25"/><path d="M234 233c-2.216 0-4 1.784-4 4v39c0 2.216 1.784 4 4 4h46c2.216 0 4-1.784 4-4v-39c0-2.216-1.784-4-4-4zm0 1h46c1.662 0 3 1.338 3 3v37c0 1.662-1.338 3-3 3h-46c-1.662 0-3-1.338-3-3v-37c0-1.662 1.338-3 3-3z" fill-opacity=".25"/><path d="M164 240c-2.216 0-4 1.784-4 4v33c0 2.216 1.784 4 4 4h32c2.216 0 4-1.784 4-4v-29c0-2.216-1.784-4-4-4h-16l-4-4zm0 7h32c1.662 0 3 1.338 3 3v25c0 1.662-1.338 3-3 3h-32c-1.662 0-3-1.338-3-3v-25c0-1.662 1.338-3 3-3z" fill-opacity=".25"/><path d="M164 246c-2.216 0-4 1.784-4 4v27c0 2.216 1.784 4 4 4h32c2.216 0 4-1.784 4-4v-27c0-2.216-1.784-4-4-4zm0 1h32c1.662 0 3 1.338 3 3v25c0 1.662-1.338 3-3 3h-32c-1.662 0-3-1.338-3-3v-25c0-1.662 1.338-3 3-3z" fill-opacity=".25"/><path d="M105 255c-1.108 0-2 .892-2 2v23c0 1.108.892 2 2 2h22c1.108 0 2-.892 2-2v-20c0-1.108-.892-2-2-2h-11l-3-3zm0 5h22c.554 0 1 .446 1 1v18c0 .554-.446 1-1 1h-22c-.554 0-1-.446-1-1v-18c0-.554.446-1 1-1z" fill-opacity=".25"/><path d="M105 259c-1.108 0-2 .892-2 2v19c0 1.108.892 2 2 2h22c1.108 0 2-.892 2-2v-19c0-1.108-.892-2-2-2zm0 1h22c.554 0 1 .446 1 1v18c0 .554-.446 1-1 1h-22c-.554 0-1-.446-1-1v-18c0-.554.446-1 1-1z" fill-opacity=".25"/></g></g><g transform="translate(-56 -260)"><g fill="#565656"><path d="M59 261h6l4 4h8c1.108 0 2 .892 2 2v14c0 1.108-.892 2-2 2H59c-1.108 0-2-.892-2-2v-18c0-1.108.892-2 2-2z"/><path d="M19 269h3l2 2h5c1.108 0 2 .892 2 2v8c0 1.108-.892 2-2 2H19c-1.108 0-2-.892-2-2v-10c0-1.108.892-2 2-2z"/><path d="M488 52c-4.432 0-8 3.568-8 8v196c0 4.432 3.568 8 8 8h208c4.432 0 8-3.568 8-8V84c0-4.432-3.568-8-8-8h-92l-24-24z"/><path d="M332 168h34l12 12h46c4.432 0 8 3.568 8 8v78c0 4.432-3.568 8-8 8h-92c-4.432 0-8-3.568-8-8v-90c0-4.432 3.568-8 8-8z"/><path d="M234 226h18l5 5h23c2.216 0 4 1.784 4 4v41c0 2.216-1.784 4-4 4h-46c-2.216 0-4-1.784-4-4v-46c0-2.216 1.784-4 4-4z"/><path d="M164 240h12l4 4h16c2.216 0 4 1.784 4 4v29c0 2.216-1.784 4-4 4h-32c-2.216 0-4-1.784-4-4v-33c0-2.216 1.784-4 4-4z"/><path d="M105 255h8l3 3h11c1.108 0 2 .892 2 2v20c0 1.108-.892 2-2 2h-22c-1.108 0-2-.892-2-2v-23c0-1.108.892-2 2-2z"/></g><use width="100%" height="100%" xlink:href="#a"/></g><g transform="translate(-56 -560)"><g fill="#6a7ce0"><path d="M59 261h6l4 4h8c1.108 0 2 .892 2 2v14c0 1.108-.892 2-2 2H59c-1.108 0-2-.892-2-2v-18c0-1.108.892-2 2-2z"/><path d="M19 269h3l2 2h5c1.108 0 2 .892 2 2v8c0 1.108-.892 2-2 2H19c-1.108 0-2-.892-2-2v-10c0-1.108.892-2 2-2z"/><path d="M488 52c-4.432 0-8 3.568-8 8v196c0 4.432 3.568 8 8 8h208c4.432 0 8-3.568 8-8V84c0-4.432-3.568-8-8-8h-92l-24-24z"/><path d="M332 168h34l12 12h46c4.432 0 8 3.568 8 8v78c0 4.432-3.568 8-8 8h-92c-4.432 0-8-3.568-8-8v-90c0-4.432 3.568-8 8-8z"/><path d="M234 226h18l5 5h23c2.216 0 4 1.784 4 4v41c0 2.216-1.784 4-4 4h-46c-2.216 0-4-1.784-4-4v-46c0-2.216 1.784-4 4-4z"/><path d="M164 240h12l4 4h16c2.216 0 4 1.784 4 4v29c0 2.216-1.784 4-4 4h-32c-2.216 0-4-1.784-4-4v-33c0-2.216 1.784-4 4-4z"/><path d="M105 255h8l3 3h11c1.108 0 2 .892 2 2v20c0 1.108-.892 2-2 2h-22c-1.108 0-2-.892-2-2v-23c0-1.108.892-2 2-2z"/></g><use width="100%" height="100%" xlink:href="#a"/></g><g transform="translate(-56 -860)"><g fill="#7b736e"><path d="M59 261h6l4 4h8c1.108 0 2 .892 2 2v14c0 1.108-.892 2-2 2H59c-1.108 0-2-.892-2-2v-18c0-1.108.892-2 2-2z"/><path d="M19 269h3l2 2h5c1.108 0 2 .892 2 2v8c0 1.108-.892 2-2 2H19c-1.108 0-2-.892-2-2v-10c0-1.108.892-2 2-2z"/><path d="M488 52c-4.432 0-8 3.568-8 8v196c0 4.432 3.568 8 8 8h208c4.432 0 8-3.568 8-8V84c0-4.432-3.568-8-8-8h-92l-24-24z"/><path d="M332 168h34l12 12h46c4.432 0 8 3.568 8 8v78c0 4.432-3.568 8-8 8h-92c-4.432 0-8-3.568-8-8v-90c0-4.432 3.568-8 8-8z"/><path d="M234 226h18l5 5h23c2.216 0 4 1.784 4 4v41c0 2.216-1.784 4-4 4h-46c-2.216 0-4-1.784-4-4v-46c0-2.216 1.784-4 4-4z"/><path d="M164 240h12l4 4h16c2.216 0 4 1.784 4 4v29c0 2.216-1.784 4-4 4h-32c-2.216 0-4-1.784-4-4v-33c0-2.216 1.784-4 4-4z"/><path d="M105 255h8l3 3h11c1.108 0 2 .892 2 2v20c0 1.108-.892 2-2 2h-22c-1.108 0-2-.892-2-2v-23c0-1.108.892-2 2-2z"/></g><use width="100%" height="100%" xlink:href="#a"/></g><g transform="translate(-56 -1160)"><g fill="#73c48f"><path d="M59 261h6l4 4h8c1.108 0 2 .892 2 2v14c0 1.108-.892 2-2 2H59c-1.108 0-2-.892-2-2v-18c0-1.108.892-2 2-2z"/><path d="M19 269h3l2 2h5c1.108 0 2 .892 2 2v8c0 1.108-.892 2-2 2H19c-1.108 0-2-.892-2-2v-10c0-1.108.892-2 2-2z"/><path d="M488 52c-4.432 0-8 3.568-8 8v196c0 4.432 3.568 8 8 8h208c4.432 0 8-3.568 8-8V84c0-4.432-3.568-8-8-8h-92l-24-24z"/><path d="M332 168h34l12 12h46c4.432 0 8 3.568 8 8v78c0 4.432-3.568 8-8 8h-92c-4.432 0-8-3.568-8-8v-90c0-4.432 3.568-8 8-8z"/><path d="M234 226h18l5 5h23c2.216 0 4 1.784 4 4v41c0 2.216-1.784 4-4 4h-46c-2.216 0-4-1.784-4-4v-46c0-2.216 1.784-4 4-4z"/><path d="M164 240h12l4 4h16c2.216 0 4 1.784 4 4v29c0 2.216-1.784 4-4 4h-32c-2.216 0-4-1.784-4-4v-33c0-2.216 1.784-4 4-4z"/><path d="M105 255h8l3 3h11c1.108 0 2 .892 2 2v20c0 1.108-.892 2-2 2h-22c-1.108 0-2-.892-2-2v-23c0-1.108.892-2 2-2z"/></g><use width="100%" height="100%" xlink:href="#a"/></g><g transform="translate(-56 -1460)"><g fill="#acacac"><path d="M59 261h6l4 4h8c1.108 0 2 .892 2 2v14c0 1.108-.892 2-2 2H59c-1.108 0-2-.892-2-2v-18c0-1.108.892-2 2-2z"/><path d="M19 269h3l2 2h5c1.108 0 2 .892 2 2v8c0 1.108-.892 2-2 2H19c-1.108 0-2-.892-2-2v-10c0-1.108.892-2 2-2z"/><path d="M488 52c-4.432 0-8 3.568-8 8v196c0 4.432 3.568 8 8 8h208c4.432 0 8-3.568 8-8V84c0-4.432-3.568-8-8-8h-92l-24-24z"/><path d="M332 168h34l12 12h46c4.432 0 8 3.568 8 8v78c0 4.432-3.568 8-8 8h-92c-4.432 0-8-3.568-8-8v-90c0-4.432 3.568-8 8-8z"/><path d="M234 226h18l5 5h23c2.216 0 4 1.784 4 4v41c0 2.216-1.784 4-4 4h-46c-2.216 0-4-1.784-4-4v-46c0-2.216 1.784-4 4-4z"/><path d="M164 240h12l4 4h16c2.216 0 4 1.784 4 4v29c0 2.216-1.784 4-4 4h-32c-2.216 0-4-1.784-4-4v-33c0-2.216 1.784-4 4-4z"/><path d="M105 255h8l3 3h11c1.108 0 2 .892 2 2v20c0 1.108-.892 2-2 2h-22c-1.108 0-2-.892-2-2v-23c0-1.108.892-2 2-2z"/></g><use width="100%" height="100%" xlink:href="#a"/></g><g transform="translate(-56 -1760)"><g fill="#f297f1"><path d="M59 261h6l4 4h8c1.108 0 2 .892 2 2v14c0 1.108-.892 2-2 2H59c-1.108 0-2-.892-2-2v-18c0-1.108.892-2 2-2z"/><path d="M19 269h3l2 2h5c1.108 0 2 .892 2 2v8c0 1.108-.892 2-2 2H19c-1.108 0-2-.892-2-2v-10c0-1.108.892-2 2-2z"/><path d="M488 52c-4.432 0-8 3.568-8 8v196c0 4.432 3.568 8 8 8h208c4.432 0 8-3.568 8-8V84c0-4.432-3.568-8-8-8h-92l-24-24z"/><path d="M332 168h34l12 12h46c4.432 0 8 3.568 8 8v78c0 4.432-3.568 8-8 8h-92c-4.432 0-8-3.568-8-8v-90c0-4.432 3.568-8 8-8z"/><path d="M234 226h18l5 5h23c2.216 0 4 1.784 4 4v41c0 2.216-1.784 4-4 4h-46c-2.216 0-4-1.784-4-4v-46c0-2.216 1.784-4 4-4z"/><path d="M164 240h12l4 4h16c2.216 0 4 1.784 4 4v29c0 2.216-1.784 4-4 4h-32c-2.216 0-4-1.784-4-4v-33c0-2.216 1.784-4 4-4z"/><path d="M105 255h8l3 3h11c1.108 0 2 .892 2 2v20c0 1.108-.892 2-2 2h-22c-1.108 0-2-.892-2-2v-23c0-1.108.892-2 2-2z"/></g><use width="100%" height="100%" xlink:href="#a"/></g><g transform="translate(-56 -2060)"><g fill="#faa41a"><path d="M59 261h6l4 4h8c1.108 0 2 .892 2 2v14c0 1.108-.892 2-2 2H59c-1.108 0-2-.892-2-2v-18c0-1.108.892-2 2-2z"/><path d="M19 269h3l2 2h5c1.108 0 2 .892 2 2v8c0 1.108-.892 2-2 2H19c-1.108 0-2-.892-2-2v-10c0-1.108.892-2 2-2z"/><path d="M488 52c-4.432 0-8 3.568-8 8v196c0 4.432 3.568 8 8 8h208c4.432 0 8-3.568 8-8V84c0-4.432-3.568-8-8-8h-92l-24-24z"/><path d="M332 168h34l12 12h46c4.432 0 8 3.568 8 8v78c0 4.432-3.568 8-8 8h-92c-4.432 0-8-3.568-8-8v-90c0-4.432 3.568-8 8-8z"/><path d="M234 226h18l5 5h23c2.216 0 4 1.784 4 4v41c0 2.216-1.784 4-4 4h-46c-2.216 0-4-1.784-4-4v-46c0-2.216 1.784-4 4-4z"/><path d="M164 240h12l4 4h16c2.216 0 4 1.784 4 4v29c0 2.216-1.784 4-4 4h-32c-2.216 0-4-1.784-4-4v-33c0-2.216 1.784-4 4-4z"/><path d="M105 255h8l3 3h11c1.108 0 2 .892 2 2v20c0 1.108-.892 2-2 2h-22c-1.108 0-2-.892-2-2v-23c0-1.108.892-2 2-2z"/></g><use width="100%" height="100%" xlink:href="#a"/></g><g transform="translate(-56 -2360)"><g fill="#f15d22"><path d="M59 261h6l4 4h8c1.108 0 2 .892 2 2v14c0 1.108-.892 2-2 2H59c-1.108 0-2-.892-2-2v-18c0-1.108.892-2 2-2z"/><path d="M19 269h3l2 2h5c1.108 0 2 .892 2 2v8c0 1.108-.892 2-2 2H19c-1.108 0-2-.892-2-2v-10c0-1.108.892-2 2-2z"/><path d="M488 52c-4.432 0-8 3.568-8 8v196c0 4.432 3.568 8 8 8h208c4.432 0 8-3.568 8-8V84c0-4.432-3.568-8-8-8h-92l-24-24z"/><path d="M332 168h34l12 12h46c4.432 0 8 3.568 8 8v78c0 4.432-3.568 8-8 8h-92c-4.432 0-8-3.568-8-8v-90c0-4.432 3.568-8 8-8z"/><path d="M234 226h18l5 5h23c2.216 0 4 1.784 4 4v41c0 2.216-1.784 4-4 4h-46c-2.216 0-4-1.784-4-4v-46c0-2.216 1.784-4 4-4z"/><path d="M164 240h12l4 4h16c2.216 0 4 1.784 4 4v29c0 2.216-1.784 4-4 4h-32c-2.216 0-4-1.784-4-4v-33c0-2.216 1.784-4 4-4z"/><path d="M105 255h8l3 3h11c1.108 0 2 .892 2 2v20c0 1.108-.892 2-2 2h-22c-1.108 0-2-.892-2-2v-23c0-1.108.892-2 2-2z"/></g><use width="100%" height="100%" xlink:href="#a"/></g><g transform="translate(-56 -2660)"><g fill="#b84acb"><path d="M59 261h6l4 4h8c1.108 0 2 .892 2 2v14c0 1.108-.892 2-2 2H59c-1.108 0-2-.892-2-2v-18c0-1.108.892-2 2-2z"/><path d="M19 269h3l2 2h5c1.108 0 2 .892 2 2v8c0 1.108-.892 2-2 2H19c-1.108 0-2-.892-2-2v-10c0-1.108.892-2 2-2z"/><path d="M488 52c-4.432 0-8 3.568-8 8v196c0 4.432 3.568 8 8 8h208c4.432 0 8-3.568 8-8V84c0-4.432-3.568-8-8-8h-92l-24-24z"/><path d="M332 168h34l12 12h46c4.432 0 8 3.568 8 8v78c0 4.432-3.568 8-8 8h-92c-4.432 0-8-3.568-8-8v-90c0-4.432 3.568-8 8-8z"/><path d="M234 226h18l5 5h23c2.216 0 4 1.784 4 4v41c0 2.216-1.784 4-4 4h-46c-2.216 0-4-1.784-4-4v-46c0-2.216 1.784-4 4-4z"/><path d="M164 240h12l4 4h16c2.216 0 4 1.784 4 4v29c0 2.216-1.784 4-4 4h-32c-2.216 0-4-1.784-4-4v-33c0-2.216 1.784-4 4-4z"/><path d="M105 255h8l3 3h11c1.108 0 2 .892 2 2v20c0 1.108-.892 2-2 2h-22c-1.108 0-2-.892-2-2v-23c0-1.108.892-2 2-2z"/></g><use width="100%" height="100%" xlink:href="#a"/></g><g transform="translate(-56 -2960)"><g fill="#ffce51"><path d="M59 261h6l4 4h8c1.108 0 2 .892 2 2v14c0 1.108-.892 2-2 2H59c-1.108 0-2-.892-2-2v-18c0-1.108.892-2 2-2z"/><path d="M19 269h3l2 2h5c1.108 0 2 .892 2 2v8c0 1.108-.892 2-2 2H19c-1.108 0-2-.892-2-2v-10c0-1.108.892-2 2-2z"/><path d="M488 52c-4.432 0-8 3.568-8 8v196c0 4.432 3.568 8 8 8h208c4.432 0 8-3.568 8-8V84c0-4.432-3.568-8-8-8h-92l-24-24z"/><path d="M332 168h34l12 12h46c4.432 0 8 3.568 8 8v78c0 4.432-3.568 8-8 8h-92c-4.432 0-8-3.568-8-8v-90c0-4.432 3.568-8 8-8z"/><path d="M234 226h18l5 5h23c2.216 0 4 1.784 4 4v41c0 2.216-1.784 4-4 4h-46c-2.216 0-4-1.784-4-4v-46c0-2.216 1.784-4 4-4z"/><path d="M164 240h12l4 4h16c2.216 0 4 1.784 4 4v29c0 2.216-1.784 4-4 4h-32c-2.216 0-4-1.784-4-4v-33c0-2.216 1.784-4 4-4z"/><path d="M105 255h8l3 3h11c1.108 0 2 .892 2 2v20c0 1.108-.892 2-2 2h-22c-1.108 0-2-.892-2-2v-23c0-1.108.892-2 2-2z"/></g><use width="100%" height="100%" xlink:href="#a"/></g></svg>