<svg version="1.0" viewBox="0 0 24 24" xmlns="http://www.w3.org/2000/svg"><g transform="translate(-56 2960)"><path d="M59-2959h18c1.108 0 2 .892 2 2v18c0 1.108-.892 2-2 2H59c-1.108 0-2-.892-2-2v-18c0-1.108.892-2 2-2z" fill="#ffce51"/><path d="M59-2958.5h18c.831 0 1.5.669 1.5 1.5v18c0 .831-.669 1.5-1.5 1.5H59c-.831 0-1.5-.669-1.5-1.5v-18c0-.831.669-1.5 1.5-1.5z" fill="#ffce51" stroke="#000" stroke-linecap="round" stroke-opacity=".392"/><rect x="62" y="-2954" width="12" height="12" ry="2" fill="none" stroke="#33302f" stroke-linecap="round" stroke-width="2"/><path d="M67-2952v4l4 2.31" fill="none" stroke="#33302f" stroke-width="2"/><rect x="65" y="-2956" width="6" height="1" ry="0" fill="#33302f"/><rect x="65" y="-2941" width="6" height="1" ry="0" fill="#33302f"/></g></svg>