<svg version="1.0" viewBox="0 0 24 24" xmlns="http://www.w3.org/2000/svg"><g transform="translate(-56 640)"><rect x="56" y="-635" width="24" height="18" ry="2" fill="#ffce51"/><path d="M58-635c-1.108 0-2 .892-2 2v14c0 1.108.892 2 2 2h20c1.108 0 2-.892 2-2v-14c0-1.108-.892-2-2-2zm0 1h20c.554 0 1 .446 1 1v14c0 .554-.446 1-1 1H58c-.554 0-1-.446-1-1v-14c0-.554.446-1 1-1z" fill-opacity=".51"/><path d="M59-633c-.554 0-1 .446-1 1v7c0 .554.446 1 1 1h4v2c0 .554.446 1 1 1h8c.554 0 1-.446 1-1v-2h4c.554 0 1-.446 1-1v-7c0-.554-.446-1-1-1z" fill-opacity=".51"/><path d="M58-634c-.554 0-1 .446-1 1v9c0 .554.446 1 1 1h5v-1h-4c-.554 0-1-.446-1-1v-7c0-.554.446-1 1-1h18c.554 0 1 .446 1 1v7c0 .554-.446 1-1 1h-4v1h5c.554 0 1-.446 1-1v-9c0-.554-.446-1-1-1z" fill="#fff" fill-opacity=".51"/><path d="M63-622v1c0 .554.446 1 1 1h8c.554 0 1-.446 1-1v-1c0 .554-.446 1-1 1h-8c-.554 0-1-.446-1-1z" fill="#fff" fill-opacity=".51"/><g stroke-linecap="square" stroke-width="2"><path d="M60-639c-.554 0-1 .446-1 1v14h4v2c0 .554.446 1 1 1h8c.554 0 1-.446 1-1v-2h4v-14c0-.554-.446-1-1-1z" fill="#ededed"/><path d="M60-639c-.554 0-1 .446-1 1v14h4v2c0 .554.446 1 1 1h8c.554 0 1-.446 1-1v-2h4v-14c0-.554-.446-1-1-1zm0 1h16v13h-4v3h-8v-3h-4v-3z" fill-opacity=".3"/></g><path d="M63-637v5l7 .5-7 .5v5l11-5.5z" fill="#393634" opacity=".8"/></g></svg>