<svg version="1.0" viewBox="0 0 24 24" xmlns="http://www.w3.org/2000/svg"><path d="M3.5 0h17c.831 0 1.5.669 1.5 1.5L20 22c-5 2.5-11 2.5-16 0L2 1.5C1.92.673 2.669 0 3.5 0z" fill="#898989"/><path d="M3.5 0C2.669 0 1.92.673 2 1.5L4 22c5 2.5 11 2.5 16 0l2-20.5c0-.831-.669-1.5-1.5-1.5zm0 1h17c.277 0 .5.223.5.5L19 21c-5 2.5-9 2.5-14 0L3 1.5c0-.277.223-.5.5-.5z" fill-opacity=".5"/><path d="m9.993 16.487-3.105.78-1.273-4.109 2.102-.286-.27-4.602 4.618-2.77 3.997.527-.83 4.394 3.488 2.023-.925 3.694-2.898-.319-1.927 4.188-2.898-.32z" fill="#ededed"/><path d="m7.717 12.872 3.853-.525 3.249.272" fill="none" stroke="#898989" stroke-width=".5"/><path d="M14.898 15.819 12 15.499" fill="none" stroke="#898989" stroke-width=".5"/></svg>