<svg version="1.0" viewBox="0 0 24 24" xmlns="http://www.w3.org/2000/svg"><path d="M3.5 0h17c.831 0 1.5.669 1.5 1.5L20 22c-5 2.5-11 2.5-16 0L2 1.5C1.92.673 2.669 0 3.5 0z" fill="#898989"/><path d="M3.5 0C2.669 0 1.92.673 2 1.5L4 22c5 2.5 11 2.5 16 0l2-20.5c0-.831-.669-1.5-1.5-1.5zm0 1h17c.277 0 .5.223.5.5L19 21c-5 2.5-9 2.5-14 0L3 1.5c0-.277.223-.5.5-.5z" fill-opacity=".5"/><g fill="none"><path d="M12.5 3.002v18" opacity=".35" stroke="#000"/><path d="M11.499 3.002v18" opacity=".35" stroke="#fff"/></g></svg>