<svg version="1.0" viewBox="0 0 16 16" xmlns="http://www.w3.org/2000/svg"><g transform="translate(-16 332)"><rect x="17" y="-331" width="14" height="14" ry="1.9" fill="#767676"/><rect x="18" y="-330" width="12" height="12" ry="1" fill="#ededed"/><rect x="18" y="-330" width="12" height="3" ry="1" fill="#faa41a"/><rect x="18" y="-328.5" width="12" height="1.5" ry="0" fill="#faa41a"/><g aria-label="19"><path d="M20-321h1v-4h-1v-1h2v5h1v1h-3z"/><path d="M25.5-326c-.831 0-1.5.669-1.5 1.5v1c0 .831.669 1.5 1.5 1.5.177 0 .343-.036.5-.092v.592c0 .277-.223.5-.5.5H24v1h2c.554 0 1-.446 1-1v-3.5c0-.831-.669-1.5-1.5-1.5zm0 1c.277 0 .5.223.5.5v1a.499.499 0 1 1-1 0v-1c0-.277.223-.5.5-.5z"/></g><rect x="24" y="-324" width="8" height="8" ry="4" fill="#cf3b00"/><path d="M28-324c-2.216 0-4 1.784-4 4s1.784 4 4 4 4-1.784 4-4-1.784-4-4-4zm0 1c1.662 0 3 1.338 3 3s-1.338 3-3 3-3-1.338-3-3 1.338-3 3-3z" fill-opacity=".5"/><path d="M26.5-322a.5.5 0 0 0-.5.5.5.5 0 0 0 .146.354L27.293-320l-1.147 1.147a.5.5 0 0 0-.146.353.5.5 0 0 0 .5.5.5.5 0 0 0 .354-.146L28-319.293l1.142 1.142a.5.5 0 0 0 .358.151.5.5 0 0 0 .5-.5.5.5 0 0 0-.146-.353L28.707-320l1.142-1.142A.5.5 0 0 0 30-321.5a.5.5 0 0 0-.5-.5.5.5 0 0 0-.354.146L28-320.707l-1.142-1.142a.5.5 0 0 0-.005-.005.5.5 0 0 0-.353-.146z" fill="#fff"/></g></svg>