<svg version="1.0" viewBox="0 0 16 16" xmlns="http://www.w3.org/2000/svg"><g transform="translate(-16 -268)"><rect x="17" y="269" width="14" height="14" ry="1.9" fill="#767676"/><rect x="18" y="270" width="12" height="12" ry="1" fill="#ededed"/><rect x="18" y="270" width="12" height="3" ry="1" fill="#faa41a"/><rect x="18" y="271.5" width="12" height="1.5" ry="0" fill="#faa41a"/><g aria-label="19"><path d="M20 279h1v-4h-1v-1h2v5h1v1h-3z"/><path d="M25.5 274c-.831 0-1.5.669-1.5 1.5v1c0 .831.669 1.5 1.5 1.5.177 0 .343-.036.5-.092v.592c0 .277-.223.5-.5.5H24v1h2c.554 0 1-.446 1-1v-3.5c0-.831-.669-1.5-1.5-1.5zm0 1c.277 0 .5.223.5.5v1a.499.499 0 1 1-1 0v-1c0-.277.223-.5.5-.5z"/></g></g></svg>