<svg version="1.0" viewBox="0 0 16 16" xmlns="http://www.w3.org/2000/svg"><g stroke-linecap="square" stroke-width="2" transform="translate(-16 -268)"><path d="M24 268c-2.77 0-5 2.23-5 5v6c0 2.77 2.23 5 5 5s5-2.23 5-5v-6c0-2.77-2.23-5-5-5zm0 4c.554 0 1 .446 1 1v6c0 .554-.446 1-1 1s-1-.446-1-1v-6c0-.554.446-1 1-1z" fill="#6f6f6f"/><path d="M24 269c-2.216 0-4 1.784-4 4v7c0 2.216 1.784 4 4 4s4-1.784 4-4v-7c0-2.216-1.784-4-4-4zm0 2c1.108 0 2 .892 2 2v7c0 1.108-.892 2-2 2s-2-.892-2-2v-7c0-1.108.892-2 2-2z" fill="#dedede"/><rect x="18" y="276" width="12" height="8" ry="1" fill="#ffce51"/><path d="M19 276c-.554 0-1 .446-1 1v1h12v-1c0-.554-.446-1-1-1zm-1 6v1c0 .554.446 1 1 1h10c.554 0 1-.446 1-1v-1z" fill-opacity=".118"/><path d="M19 276c-.554 0-1 .446-1 1v6c0 .554.446 1 1 1h10c.554 0 1-.446 1-1v-6c0-.554-.446-1-1-1zm0 1h10v6H19z" fill-opacity=".502"/></g></svg>