<svg version="1.0" viewBox="0 0 16 16" xmlns="http://www.w3.org/2000/svg"><g transform="translate(-16 -268)"><rect transform="rotate(-45)" x="-184.43" y="205.89" width="12.483" height="12.483" ry="2" fill="#6a7ce0"/><path d="M24 268c-.511 0-1.022.196-1.414.588l-5.998 5.998a1.995 1.995 0 0 0 0 2.828l5.998 5.998a1.995 1.995 0 0 0 2.828 0l5.998-5.998a1.995 1.995 0 0 0 0-2.828l-5.998-5.998A1.994 1.994 0 0 0 24 268zm0 1a1 1 0 0 1 .709.295l5.996 5.996a1 1 0 0 1 0 1.418l-5.996 5.996a1 1 0 0 1-1.418 0l-5.996-5.996a1 1 0 0 1 0-1.418l5.996-5.996A1 1 0 0 1 24 269z" fill-opacity=".502"/><path d="M24 272a2 2 0 1 1 0 4v1h-1v-2h1a1 1 0 1 0-1-1h-1a2 2 0 0 1 2-2zm-.5 5.75a.75.75 0 1 1 0 1.5.75.75 0 0 1 0-1.5z" fill="#fff"/></g></svg>