<svg version="1.0" viewBox="0 0 16 16" xmlns="http://www.w3.org/2000/svg"><g transform="translate(-16 -268)"><rect transform="rotate(-45)" x="-117.26" y="261.75" width="19.554" height="19.554" ry="2" fill="#faa41a"/><rect transform="rotate(-45)" x="-71.424" y="295.94" width="30.418" height="29.658" ry="3" fill="#faa41a"/><rect transform="rotate(-45)" x="-16.725" y="339.66" width="39.108" height="39.108" ry="4" fill="#faa41a"/><rect transform="rotate(-45)" x="71.201" y="382.33" width="78.215" height="78.215" ry="8" fill="#faa41a"/><rect transform="rotate(-45)" x="230.08" y="450.7" width="156.43" height="156.43" ry="16" fill="#faa41a"/><rect transform="rotate(-45)" x="-153.32" y="231.35" width="18.14" height="18.14" ry="2" fill="#faa41a"/><rect transform="rotate(-45)" x="-184.43" y="205.89" width="12.483" height="12.483" ry="2" fill="#faa41a"/><path d="M68 260c-.511 0-1.022.196-1.414.588l-9.998 9.998a1.995 1.995 0 0 0 0 2.828l9.998 9.998a1.995 1.995 0 0 0 2.828 0l9.998-9.998a1.995 1.995 0 0 0 0-2.828l-9.998-9.998A1.994 1.994 0 0 0 68 260zm0 1c.256 0 .511.097.707.293l10 10a.998.998 0 0 1 0 1.414l-10 10a.998.998 0 0 1-1.414 0l-10-10a.998.998 0 0 1 0-1.414l10-10A.996.996 0 0 1 68 261z" fill-opacity=".502"/><path d="M24 268c-.511 0-1.022.196-1.414.588l-5.998 5.998a1.995 1.995 0 0 0 0 2.828l5.998 5.998a1.995 1.995 0 0 0 2.828 0l5.998-5.998a1.995 1.995 0 0 0 0-2.828l-5.998-5.998A1.994 1.994 0 0 0 24 268zm0 1a1 1 0 0 1 .709.295l5.996 5.996a1 1 0 0 1 0 1.418l-5.996 5.996a1 1 0 0 1-1.418 0l-5.996-5.996a1 1 0 0 1 0-1.418l5.996-5.996A1 1 0 0 1 24 269z" fill-opacity=".502"/><path d="M116 255c-.511 0-1.022.196-1.414.588l-10.998 10.998a1.995 1.995 0 0 0 0 2.828l10.998 10.998a1.995 1.995 0 0 0 2.828 0l10.998-10.998a1.995 1.995 0 0 0 0-2.828l-10.998-10.998A1.994 1.994 0 0 0 116 255zm0 1c.256 0 .511.097.707.293l10.5 10.5a.998.998 0 0 1 0 1.414l-10.5 10.5a.998.998 0 0 1-1.414 0l-10.5-10.5a.998.998 0 0 1 0-1.414l10.5-10.5A.996.996 0 0 1 116 256z" fill-opacity=".502"/><path d="M180.27 239.5c-.767 0-1.535.293-2.123.88l-17.266 17.267a2.995 2.995 0 0 0 0 4.244l16.729 16.729a2.995 2.995 0 0 0 4.244 0l17.266-17.266a2.995 2.995 0 0 0 0-4.244l-16.729-16.73a2.99 2.99 0 0 0-2.121-.88zm-.031 1c.511 0 1.022.196 1.414.588l15.76 15.76a1.995 1.995 0 0 1 0 2.828l-16.236 16.236a1.995 1.995 0 0 1-2.828 0l-15.76-15.76a1.995 1.995 0 0 1 0-2.828l16.236-16.236a1.994 1.994 0 0 1 1.414-.588z" fill-opacity=".502"/><path d="M256 226a3.987 3.987 0 0 0-2.828 1.176l-21.996 21.996a3.99 3.99 0 0 0 0 5.656l21.996 21.996a3.99 3.99 0 0 0 5.656 0l21.996-21.996a3.99 3.99 0 0 0 0-5.656l-21.996-21.996A3.987 3.987 0 0 0 256 226zm0 1a2.99 2.99 0 0 1 2.121.88l20.498 20.499a2.993 2.993 0 0 1 0 4.242l-20.498 20.498a2.993 2.993 0 0 1-4.242 0l-20.498-20.498a2.993 2.993 0 0 1 0-4.242l20.498-20.498A2.99 2.99 0 0 1 256 227z" fill-opacity=".502"/><path d="M376 168a7.97 7.97 0 0 0-5.656 2.35l-43.994 43.994a7.98 7.98 0 0 0 0 11.312l43.994 43.994a7.98 7.98 0 0 0 11.312 0l43.994-43.994a7.98 7.98 0 0 0 0-11.312l-43.994-43.994A7.973 7.973 0 0 0 376 168zm0 1a6.98 6.98 0 0 1 4.95 2.057l41.993 41.994a6.983 6.983 0 0 1 0 9.898l-41.994 41.994a6.983 6.983 0 0 1-9.898 0l-41.994-41.994a6.983 6.983 0 0 1 0-9.898l41.994-41.994A6.977 6.977 0 0 1 376 169z" fill-opacity=".502"/><path d="M592 52a15.95 15.95 0 0 0-11.314 4.701l-87.984 87.984a15.967 15.967 0 0 0 0 22.63l87.984 87.983a15.967 15.967 0 0 0 22.629 0l87.984-87.984a15.967 15.967 0 0 0 0-22.629l-87.984-87.984A15.951 15.951 0 0 0 592.001 52zm0 1c3.834 0 7.67 1.468 10.607 4.406l85.486 85.486a14.97 14.97 0 0 1 0 21.215l-85.486 85.486a14.97 14.97 0 0 1-21.215 0l-85.486-85.486a14.97 14.97 0 0 1 0-21.215l85.486-85.486A14.953 14.953 0 0 1 591.999 53z" fill-opacity=".502"/><path d="M182 248v16h-4v-16zm0 20v4h-4v-4z" fill="#fff"/><path d="M69 266v8h-2v-8zm0 10v2h-2v-2z" fill="#fff"/><path d="M117 259.995v11h-2v-11zm0 14v2h-2v-2z" fill="#fff"/><path d="M25 272v4h-2v-4zm0 6v2h-2v-2z" fill="#fff"/><path d="M258 234.99v22h-4v-22zm0 28v4h-4v-4z" fill="#fff"/><path d="M380 186.98v44h-8v-44zm0 56v8h-8v-8z" fill="#fff"/><path d="M600 89.96v88h-16v-88zm0 112v16h-16v-16z" fill="#fff"/></g></svg>