<svg version="1.0" viewBox="0 0 16 16" xmlns="http://www.w3.org/2000/svg"><g transform="translate(-16 -268)"><rect x="16" y="268" width="16" height="16" ry="8" fill="#73c48f"/><path d="M24 268c-4.432 0-8 3.568-8 8s3.568 8 8 8 8-3.568 8-8-3.568-8-8-8zm0 1c3.878 0 7 3.122 7 7s-3.122 7-7 7-7-3.122-7-7 3.122-7 7-7z" fill-opacity=".502"/><path d="M24 274a1.5 1.5 0 0 0-.59 2.88L22.5 280h3l-.91-3.12A1.5 1.5 0 0 0 24 274z" color="#000" fill-opacity=".196"/><path d="M24 273a1.5 1.5 0 0 0-.59 2.88L22.5 279h3l-.91-3.12A1.5 1.5 0 0 0 24 273z" color="#000" fill="#fff"/></g></svg>