<svg version="1.0" viewBox="0 0 16 16" xmlns="http://www.w3.org/2000/svg"><g transform="translate(-16 1232)"><rect x="19" y="-1232" width="10" height="4" ry=".5" fill="#dedede"/><path d="M19.5-1232c-.277 0-.5.223-.5.5v5c0 .277.223.5.5.5h.5v-5h8v5h.5c.277 0 .5-.223.5-.5v-5c0-.277-.223-.5-.5-.5z" fill-opacity=".5"/><rect x="16" y="-1228" width="16" height="8" ry="1" fill="#474341"/><path d="M17-1228c-.554 0-1 .446-1 1v6c0 .554.446 1 1 1h14c.554 0 1-.446 1-1v-6c0-.554-.446-1-1-1zm0 1h14v6H17z" fill="#fff" fill-opacity=".5"/><rect x="19" y="-1224" width="10" height="8" ry=".5" fill="#dedede"/><rect x="18" y="-1226" width="1" height="1" ry="0" fill="#73c48f"/><path d="M19.5-1224c-.277 0-.5.223-.5.5v7c0 .277.223.5.5.5h9c.277 0 .5-.223.5-.5v-7c0-.277-.223-.5-.5-.5H28v7h-8v-7z" fill-opacity=".5"/><rect x="23" y="-1225" width="9" height="9" ry="4.5" fill="#3f51b5"/><path d="M27.5-1225c-2.493 0-4.5 2.007-4.5 4.5s2.007 4.5 4.5 4.5 4.5-2.007 4.5-4.5-2.007-4.5-4.5-4.5zm0 1c1.939 0 3.5 1.561 3.5 3.5s-1.561 3.5-3.5 3.5-3.5-1.561-3.5-3.5 1.561-3.5 3.5-3.5z" fill-opacity=".5"/><path d="M27.5-1223a4.47 4.5 0 0 0-4 2.505 4.47 4.5 0 0 0 4 2.495 4.47 4.5 0 0 0 4-2.505 4.47 4.5 0 0 0-4-2.495zm0 .5a2 2 0 0 1 2 2 2 2 0 0 1-2 2 2 2 0 0 1-2-2 2 2 0 0 1 2-2zm0 1a1 1 0 0 0-1 1 1 1 0 0 0 1 1 1 1 0 0 0 1-1 1 1 0 0 0-1-1z" fill="#fff"/></g></svg>