<svg version="1.0" viewBox="0 0 16 16" xmlns="http://www.w3.org/2000/svg"><g transform="translate(-796 -268)"><path d="M799 269h3l2 2h5c1.108 0 2 .892 2 2v8c0 1.108-.892 2-2 2h-10c-1.108 0-2-.892-2-2v-10c0-1.108.892-2 2-2z" fill="#1c8d9b"/><rect x="798" y="275" width="12" height="7" ry="2" fill-opacity=".314"/><rect x="798" y="276" width="12" height="7" ry="2" fill="#48b9c7"/><path d="M799 269.5h2.793l2 2H809c.831 0 1.5.669 1.5 1.5v8c0 .831-.669 1.5-1.5 1.5h-10c-.831 0-1.5-.669-1.5-1.5v-10c0-.831.669-1.5 1.5-1.5z" fill="none" stroke="#000" stroke-linecap="round" stroke-opacity=".392"/></g></svg>