<svg version="1.0" viewBox="0 0 16 16" xmlns="http://www.w3.org/2000/svg"><g transform="translate(-16 1232)"><rect x="16" y="-1231" width="16" height="14" ry="4" fill="#245c63"/><rect x="18" y="-1229" width="12" height="10" ry="2" fill="#fbfefe" stroke="#48b9c7" stroke-linecap="round" stroke-width="2"/><path d="M21-1228a1 1 0 0 0-1 1 1 1 0 0 0 .293.707l2.293 2.293-2.293 2.293A1 1 0 0 0 20-1221a1 1 0 0 0 1 1 1 1 0 0 0 .707-.293l2.293-2.293 2.283 2.283A1 1 0 0 0 27-1220a1 1 0 0 0 1-1 1 1 0 0 0-.293-.707L25.414-1224l2.283-2.283A1 1 0 0 0 28-1227a1 1 0 0 0-1-1 1 1 0 0 0-.707.293L24-1225.414l-2.283-2.283a1 1 0 0 0-.01-.01A1 1 0 0 0 21-1228z" fill="#f15d22"/></g><style>.st0{fill:#261300}.st1{fill:#ff7c00}</style></svg>