<svg version="1.0" viewBox="0 0 16 16" xmlns="http://www.w3.org/2000/svg"><g transform="translate(-16 932)"><rect x="16" y="-931" width="16" height="14" ry="4" fill="#245c63"/><rect x="18" y="-929" width="12" height="10" ry="2" fill="#fbfefe" stroke="#48b9c7" stroke-linecap="round" stroke-width="2"/><path d="M24-927a3.5 3.5 0 0 0-3.5 3.5A3.5 3.5 0 0 0 24-920a3.5 3.5 0 0 0 3.5-3.5A3.5 3.5 0 0 0 24-927zm0 1a2.5 2.5 0 0 1 2.5 2.5A2.5 2.5 0 0 1 24-921a2.5 2.5 0 0 1-2.5-2.5A2.5 2.5 0 0 1 24-926z" fill="#1c8d9b"/><path d="M25.203-924.91a.252.252 0 0 0-.125.078L24-923.754l-.828-.828c-.079-.128-.284-.153-.39-.047-.107.107-.082.312.046.39l1 1a.26.26 0 0 0 .344 0l1.25-1.25c.146-.148-.013-.455-.219-.421z" color="#bebebe" fill="#1c8d9b"/></g><style>.st0{fill:#261300}.st1{fill:#ff7c00}</style></svg>