<svg version="1.0" viewBox="0 0 16 16" xmlns="http://www.w3.org/2000/svg"><g transform="translate(-16 32)"><path d="M18-30c-.554 0-1 .446-1 1v9c0 .554.446 1 1 1h2l1 1h6l1-1h2c.554 0 1-.446 1-1v-9c0-.554-.446-1-1-1z" fill="#dedede"/><path d="M19-28h10v7h-2l-1 1h-4l-1-1h-2z" fill="#4d4d4d"/><path d="M18-19.5a.499.499 0 0 1-.5-.5v-9c0-.277.223-.5.5-.5h12c.277 0 .5.223.5.5v9c0 .277-.223.5-.5.5h-2.207l-1 1h-5.59l-1-1z" fill="none" stroke="#000" stroke-opacity=".5"/><path fill="#d1a023" d="M23-28h2v4h-2z"/><path fill="#d1a023" d="M26-28h2v4h-2z"/><path fill="#d1a023" d="M20-28h2v4h-2z"/><rect transform="matrix(0 -1 -1 0 0 0)" x="16" y="-32" width="8" height="8" rx="1" ry="1" fill="#cf3b00"/><rect x="24.5" y="-23.5" width="7" height="7" ry=".5" fill="none" stroke="#000" stroke-linecap="square" stroke-opacity=".502"/><path d="M25.75-23a.75.75 0 0 0-.75.75.75.75 0 0 0 .22.53L26.94-20l-1.72 1.72a.75.75 0 0 0-.22.53.75.75 0 0 0 .75.75.75.75 0 0 0 .53-.22L28-18.94l1.712 1.713a.75.75 0 0 0 .538.227.75.75 0 0 0 .75-.75.75.75 0 0 0-.22-.53L29.06-20l1.713-1.712A.75.75 0 0 0 31-22.25a.75.75 0 0 0-.75-.75.75.75 0 0 0-.53.22L28-21.06l-1.712-1.713a.75.75 0 0 0-.008-.007.75.75 0 0 0-.53-.22z" fill="#fafafb"/></g></svg>