<svg version="1.0" viewBox="0 0 16 16" xmlns="http://www.w3.org/2000/svg"><g transform="translate(-16 32)"><rect x="19" y="-32" width="10" height="4" ry=".5" fill="#dedede"/><path d="M19.5-32c-.277 0-.5.223-.5.5v5c0 .277.223.5.5.5h.5v-5h8v5h.5c.277 0 .5-.223.5-.5v-5c0-.277-.223-.5-.5-.5z" fill-opacity=".5"/><rect x="16" y="-28" width="16" height="8" ry="1" fill="#474341"/><path d="M17-28c-.554 0-1 .446-1 1v6c0 .554.446 1 1 1h14c.554 0 1-.446 1-1v-6c0-.554-.446-1-1-1zm0 1h14v6H17z" fill="#fff" fill-opacity=".5"/><rect x="19" y="-24" width="10" height="8" ry=".5" fill="#dedede"/><rect x="18" y="-26" width="1" height="1" ry="0" fill="#73c48f"/><path d="M19.5-24c-.277 0-.5.223-.5.5v7c0 .277.223.5.5.5h9c.277 0 .5-.223.5-.5v-7c0-.277-.223-.5-.5-.5H28v7h-8v-7z" fill-opacity=".5"/><rect x="24" y="-24" width="8" height="8" ry="4" fill="#cf3b00"/><path d="M28-24c-2.216 0-4 1.784-4 4s1.784 4 4 4 4-1.784 4-4-1.784-4-4-4zm0 1c1.662 0 3 1.338 3 3s-1.338 3-3 3-3-1.338-3-3 1.338-3 3-3z" fill-opacity=".5"/><path d="M26.5-22a.5.5 0 0 0-.5.5.5.5 0 0 0 .146.354L27.293-20l-1.147 1.147A.5.5 0 0 0 26-18.5a.5.5 0 0 0 .5.5.5.5 0 0 0 .354-.146L28-19.293l1.142 1.142A.5.5 0 0 0 29.5-18a.5.5 0 0 0 .5-.5.5.5 0 0 0-.146-.354L28.707-20l1.142-1.142A.5.5 0 0 0 30-21.5a.5.5 0 0 0-.5-.5.5.5 0 0 0-.354.146L28-20.707l-1.142-1.142a.5.5 0 0 0-.005-.005A.5.5 0 0 0 26.5-22z" fill="#fff"/></g></svg>