<svg version="1.0" viewBox="0 0 32 32" xmlns="http://www.w3.org/2000/svg"><g stroke-linecap="square" stroke-width="2" transform="translate(-100 -252)"><path d="M116 253c-4.432 0-8 3.568-8 8v13c0 4.432 3.568 8 8 8s8-3.568 8-8v-13c0-4.432-3.568-8-8-8zm0 5c2.216 0 4 1.784 4 4v11.5c0 2.216-1.784 4-4 4s-4-1.784-4-4V262c0-2.216 1.784-4 4-4z" fill="#6f6f6f"/><path d="M116 254c-3.878 0-7 3.122-7 7v14c0 3.878 3.122 7 7 7s7-3.122 7-7v-14c0-3.878-3.122-7-7-7zm0 2c2.77 0 5 2.23 5 5v14c0 2.77-2.23 5-5 5s-5-2.23-5-5v-14c0-2.77 2.23-5 5-5z" fill="#dedede"/><rect x="105" y="266" width="22" height="16" ry="2" fill="#ffce51"/><path d="M107 266c-1.108 0-2 .892-2 2v1h22v-1c0-1.108-.892-2-2-2zm-2 13v1c0 1.108.892 2 2 2h18c1.108 0 2-.892 2-2v-1z" fill-opacity=".118"/><path d="M107 266c-1.108 0-2 .892-2 2v12c0 1.108.892 2 2 2h18c1.108 0 2-.892 2-2v-12c0-1.108-.892-2-2-2zm0 1h18c.554 0 1 .446 1 1v11c0 .554-.446 1-1 1h-18c-.554 0-1-.446-1-1v-11c0-.554.446-1 1-1z" fill-opacity=".502"/></g></svg>