<svg version="1.0" viewBox="0 0 32 32" xmlns="http://www.w3.org/2000/svg"><g transform="translate(-100 48)"><rect x="109" y="-28" width="15" height="9" ry="1" fill="#424242"/><rect x="110" y="-28" width="13" height="7" ry="1" fill="#848484"/><rect x="102" y="-45" width="28" height="21" ry="1.5" fill="#6f6f6f"/><rect x="103" y="-44" width="26" height="18" ry="1" fill="#acacac"/><rect x="105" y="-42" width="22" height="13" ry=".5" fill="#464646"/><rect x="113" y="-28" width="6" height="1" ry=".5" fill="#424242"/><rect transform="matrix(0 -1 -1 0 0 0)" x="29" y="-127" width="13" height="22" ry=".5" fill="#cf3b00"/><path d="M111-41v4h2v-4zm8 0v4h2v-4zm-8 7v2h10v-2h-8zm10 2v2h2v-2zm-10 0h-2v2h2z" fill="#fff"/></g></svg>