<svg version="1.0" viewBox="0 0 32 32" xmlns="http://www.w3.org/2000/svg"><g transform="translate(-100 -252)"><rect x="101" y="253" width="30" height="31" ry="15" fill="#73c48f"/><path d="M116 253c-8.31 0-15 6.69-15 15v1c0 8.31 6.69 15 15 15s15-6.69 15-15v-1c0-8.31-6.69-15-15-15zm0 1c7.756 0 14 6.244 14 14s-6.244 14-14 14-14-6.244-14-14 6.244-14 14-14z" fill-opacity=".502"/><path d="M116 263a3 3 0 0 0-3 3c0 1.243.745 2.304 1.821 2.759L113 275h6l-1.821-6.241A2.984 2.984 0 0 0 119 266a3 3 0 0 0-3-3z" color="#000" fill-opacity=".196"/><path d="M116 262a3 3 0 0 0-3 3c0 1.243.745 2.304 1.821 2.759L113 274h6l-1.821-6.241A2.984 2.984 0 0 0 119 265a3 3 0 0 0-3-3z" color="#000" fill="#fff"/></g></svg>