<svg version="1.0" viewBox="0 0 32 32" xmlns="http://www.w3.org/2000/svg"><g transform="translate(-100 -252)"><rect x="101" y="253" width="30" height="31" ry="15" fill="#73c48f"/><path d="M116 253c-8.31 0-15 6.69-15 15v1c0 8.31 6.69 15 15 15s15-6.69 15-15v-1c0-8.31-6.69-15-15-15zm0 1c7.756 0 14 6.244 14 14s-6.244 14-14 14-14-6.244-14-14 6.244-14 14-14z" fill-opacity=".502"/><rect x="158" y="238" width="44" height="46" ry="22" fill="#73c48f"/><path d="M180 238c-12.188 0-22 9.812-22 22v2c0 12.188 9.812 22 22 22s22-9.812 22-22v-2c0-12.188-9.812-22-22-22zm0 1c11.634 0 21 9.366 21 21s-9.366 21-21 21-21-9.366-21-21 9.366-21 21-21z" fill-opacity=".502"/><rect x="226" y="222" width="60" height="62" ry="30" fill="#73c48f"/><path d="M256 222c-16.62 0-30 13.38-30 30v2c0 16.62 13.38 30 30 30s30-13.38 30-30v-2c0-16.62-13.38-30-30-30zm0 1c16.066 0 29 12.934 29 29s-12.934 29-29 29-29-12.934-29-29 12.934-29 29-29z" fill-opacity=".502"/><rect x="316" y="160" width="120" height="123" ry="60" fill="#73c48f"/><path d="M376 160c-33.24 0-60 26.76-60 60v3c0 33.24 26.76 60 60 60s60-26.76 60-60v-3c0-33.24-26.76-60-60-60zm0 1c32.686 0 59 26.314 59 59s-26.314 59-59 59-59-26.314-59-59 26.314-59 59-59z" fill-opacity=".502"/><rect x="472" y="36" width="240" height="244" ry="120" fill="#73c48f"/><path d="M592 36c-66.48 0-120 53.52-120 120v4c0 66.48 53.52 120 120 120s120-53.52 120-120v-4c0-66.48-53.52-120-120-120zm0 1c65.926 0 119 53.074 119 119s-53.074 119-119 119-119-53.074-119-119S526.074 37 592 37z" fill-opacity=".502"/><rect x="56" y="260" width="24" height="24" ry="12" fill="#73c48f"/><path d="M68 260c-6.648 0-12 5.352-12 12s5.352 12 12 12 12-5.352 12-12-5.352-12-12-12zm0 1c6.094 0 11 4.906 11 11s-4.906 11-11 11-11-4.906-11-11 4.906-11 11-11z" fill-opacity=".502"/><rect x="16" y="268" width="16" height="16" ry="8" fill="#73c48f"/><path d="M24 268c-4.432 0-8 3.568-8 8s3.568 8 8 8 8-3.568 8-8-3.568-8-8-8zm0 1c3.878 0 7 3.122 7 7s-3.122 7-7 7-7-3.122-7-7 3.122-7 7-7z" fill-opacity=".502"/><g fill-opacity=".196" color="#000"><path d="M116 263a3 3 0 0 0-3 3c0 1.243.745 2.304 1.821 2.759L113 275h6l-1.821-6.241A2.984 2.984 0 0 0 119 266a3 3 0 0 0-3-3z"/><path d="M68 267a3 3 0 0 0-3 3c0 1.243.745 2.304 1.821 2.759L65 279h6l-1.821-6.241A2.984 2.984 0 0 0 71 270a3 3 0 0 0-3-3z"/><path d="M24 274a1.5 1.5 0 0 0-.59 2.88L22.5 280h3l-.91-3.12A1.5 1.5 0 0 0 24 274z"/><path d="M180 252a4.5 4.5 0 0 0-4.5 4.5 4.476 4.476 0 0 0 2.732 4.138L175.5 270h9l-2.732-9.362a4.476 4.476 0 0 0 2.732-4.138 4.5 4.5 0 0 0-4.5-4.5z"/><path d="M256 240a6 6 0 0 0-6 6 5.968 5.968 0 0 0 3.643 5.518L250 264h12l-3.643-12.482A5.968 5.968 0 0 0 262 246a6 6 0 0 0-6-6z"/><path d="M376 196c-6.627 0-12 5.373-12 12 0 4.97 2.979 9.214 7.286 11.036L364 244h24l-7.286-24.964A11.935 11.935 0 0 0 388 208c0-6.627-5.373-12-12-12z"/><path d="M592 107c-13.255 0-24 10.745-24 24 0 9.941 5.957 18.428 14.571 22.071L568 203h48l-14.571-49.929C610.043 149.428 616 140.941 616 131c0-13.255-10.745-24-24-24z"/></g><g fill="#fff" color="#000"><path d="M116 262a3 3 0 0 0-3 3c0 1.243.745 2.304 1.821 2.759L113 274h6l-1.821-6.241A2.984 2.984 0 0 0 119 265a3 3 0 0 0-3-3z"/><path d="M68 266a3 3 0 0 0-3 3c0 1.243.745 2.304 1.821 2.759L65 278h6l-1.821-6.241A2.984 2.984 0 0 0 71 269a3 3 0 0 0-3-3z"/><path d="M24 273a1.5 1.5 0 0 0-.59 2.88L22.5 279h3l-.91-3.12A1.5 1.5 0 0 0 24 273z"/><path d="M180 251a4.5 4.5 0 0 0-4.5 4.5 4.476 4.476 0 0 0 2.732 4.138L175.5 269h9l-2.732-9.362a4.476 4.476 0 0 0 2.732-4.138 4.5 4.5 0 0 0-4.5-4.5z"/><path d="M256 239a6 6 0 0 0-6 6 5.968 5.968 0 0 0 3.643 5.518L250 263h12l-3.643-12.482A5.968 5.968 0 0 0 262 245a6 6 0 0 0-6-6z"/><path d="M376 195c-6.627 0-12 5.373-12 12 0 4.97 2.979 9.214 7.286 11.036L364 243h24l-7.286-24.964A11.935 11.935 0 0 0 388 207c0-6.627-5.373-12-12-12z"/><path d="M592 106c-13.255 0-24 10.745-24 24 0 9.941 5.957 18.428 14.571 22.071L568 202h48l-14.571-49.929C610.043 148.428 616 139.941 616 130c0-13.255-10.745-24-24-24z"/></g></g></svg>