<svg version="1.0" viewBox="0 0 32 32" xmlns="http://www.w3.org/2000/svg"><g transform="translate(-100 -252)"><rect transform="rotate(-45)" x="-117.26" y="261.75" width="19.554" height="19.554" ry="2" fill="#6a7ce0"/><path d="M116 255c-.511 0-1.022.196-1.414.588l-10.998 10.998a1.995 1.995 0 0 0 0 2.828l10.998 10.998a1.995 1.995 0 0 0 2.828 0l10.998-10.998a1.995 1.995 0 0 0 0-2.828l-10.998-10.998A1.994 1.994 0 0 0 116 255zm0 1c.256 0 .511.097.707.293l10.5 10.5a.998.998 0 0 1 0 1.414l-10.5 10.5a.998.998 0 0 1-1.414 0l-10.5-10.5a.998.998 0 0 1 0-1.414l10.5-10.5A.996.996 0 0 1 116 256z" fill-opacity=".502"/><path d="M117 274h-2v-2h2zm2.07-6.75-.9.92c-.72.73-1.17 1.33-1.17 2.83h-2v-.5c0-1.1.45-2.1 1.17-2.83l1.24-1.26c.37-.36.59-.86.59-1.41 0-1.1-.9-2-2-2s-2 .9-2 2h-2c0-2.21 1.79-4 4-4s4 1.79 4 4c0 .88-.36 1.68-.93 2.25z" fill="#fff"/></g></svg>