<svg version="1.0" viewBox="0 0 32 32" xmlns="http://www.w3.org/2000/svg"><g transform="translate(-100 1248)"><rect x="107" y="-1246" width="18" height="7" ry="1" fill="#dedede"/><path d="M108-1246c-.554 0-1 .446-1 1v7.5c0 .554.446 1 1 1v-8.5h16v8.5c.554 0 1-.446 1-1v-7.5c0-.554-.446-1-1-1z" fill-opacity=".5"/><rect x="103" y="-1239" width="26" height="13" ry="2" fill="#474341"/><path d="M105-1239c-1.108 0-2 .892-2 2v9c0 1.108.892 2 2 2h22c1.108 0 2-.892 2-2v-9c0-1.108-.892-2-2-2zm0 1h22c.554 0 1 .446 1 1v8c0 .554-.446 1-1 1h-22c-.554 0-1-.446-1-1v-8c0-.554.446-1 1-1z" fill="#fff" fill-opacity=".5"/><rect x="107" y="-1232" width="18" height="14" ry="1" fill="#dedede"/><circle cx="106.5" cy="-1235" r="1" fill="#73c48f"/><path d="M108-1232c-.554 0-1 .446-1 1v12c0 .554.446 1 1 1h16c.554 0 1-.446 1-1v-12c0-.554-.446-1-1-1v12h-16z" fill-opacity=".5"/><rect x="116" y="-1233" width="16" height="17" ry="8" fill="#3f51b5"/><path d="M124-1233c-4.432 0-8 3.568-8 8v1c0 4.432 3.568 8 8 8s8-3.568 8-8v-1c0-4.432-3.568-8-8-8zm0 1c3.878 0 7 3.122 7 7s-3.122 7-7 7-7-3.122-7-7 3.122-7 7-7z" fill-opacity=".5"/><path d="M124-1227.5a4.47 4.5 0 0 0-4 2.505 4.47 4.5 0 0 0 4 2.495 4.47 4.5 0 0 0 4-2.505 4.47 4.5 0 0 0-4-2.495zm0 .5a2 2 0 0 1 2 2 2 2 0 0 1-2 2 2 2 0 0 1-2-2 2 2 0 0 1 2-2zm0 1a1 1 0 0 0-1 1 1 1 0 0 0 1 1 1 1 0 0 0 1-1 1 1 0 0 0-1-1z" fill="#fff"/></g></svg>