<svg version="1.0" viewBox="0 0 32 32" xmlns="http://www.w3.org/2000/svg"><g transform="translate(-100 1248)"><rect x="102" y="-1241" width="28" height="22" ry="2" fill="#245c63"/><rect x="103" y="-1240" width="26" height="19" ry="1.5" fill="#48b9c7"/><rect x="105" y="-1238" width="22" height="15" ry="1" fill="#f6f6f6"/><path d="M113-1234.5a1 1 0 0 0-1 1 1 1 0 0 0 .293.707l2.293 2.293-2.293 2.293a1 1 0 0 0-.293.707 1 1 0 0 0 1 1 1 1 0 0 0 .707-.293l2.293-2.293 2.283 2.283a1 1 0 0 0 .717.303 1 1 0 0 0 1-1 1 1 0 0 0-.293-.707l-2.293-2.293 2.283-2.283a1 1 0 0 0 .303-.717 1 1 0 0 0-1-1 1 1 0 0 0-.707.293l-2.293 2.293-2.283-2.283a1 1 0 0 0-.01-.01 1 1 0 0 0-.707-.293z" fill="#f15d22"/></g><style>.st0{fill:#261300}.st1{fill:#ff7c00}</style></svg>