<svg version="1.0" viewBox="0 0 32 32" xmlns="http://www.w3.org/2000/svg"><g transform="translate(-100 948)"><rect x="102" y="-941" width="28" height="22" ry="2" fill="#245c63"/><rect x="103" y="-940" width="26" height="19" ry="1.5" fill="#48b9c7"/><rect x="105" y="-938" width="22" height="15" ry="1" fill="#f6f6f6"/><path d="M116-934a3.5 3.5 0 0 0-3.5 3.5 3.5 3.5 0 0 0 3.5 3.5 3.5 3.5 0 0 0 3.5-3.5 3.5 3.5 0 0 0-3.5-3.5zm0 1a2.5 2.5 0 0 1 2.5 2.5 2.5 2.5 0 0 1-2.5 2.5 2.5 2.5 0 0 1-2.5-2.5 2.5 2.5 0 0 1 2.5-2.5z" fill="#1c8d9b"/><path d="M117.2-931.91a.252.252 0 0 0-.125.078l-1.078 1.078-.828-.828c-.079-.128-.284-.153-.39-.047-.107.107-.082.312.046.39l1 1a.26.26 0 0 0 .344 0l1.25-1.25c.146-.148-.013-.455-.219-.421z" color="#bebebe" fill="#1c8d9b"/></g><style>.st0{fill:#261300}.st1{fill:#ff7c00}</style></svg>