<svg version="1.0" viewBox="0 0 32 32" xmlns="http://www.w3.org/2000/svg"><path d="M4 6c-1.108 0-2 .892-2 2v18c0 1.108.892 2 2 2h4l2 2h12l2-2h4c1.108 0 2-.892 2-2V8c0-1.108-.892-2-2-2z" fill="#dedede"/><path d="M6 10h20v14h-4l-2 2h-8l-2-2H6z" fill="#4d4d4d"/><path fill="#d1a023" d="M15 10h2v6h-2z"/><path fill="#d1a023" d="M12 10h2v6h-2z"/><path fill="#d1a023" d="M18 10h2v6h-2z"/><path fill="#d1a023" d="M21 10h2v6h-2z"/><path fill="#d1a023" d="M9 10h2v6H9z"/><path d="M4 6c-1.108 0-2 .892-2 2v18c0 1.108.892 2 2 2h4l2 2h12l2-2h4c1.108 0 2-.892 2-2V8c0-1.108-.892-2-2-2zm0 1h24c.554 0 1 .446 1 1v17c0 .554-.446 1-1 1h-4l-2 2H10l-2-2H4c-.554 0-1-.446-1-1V8c0-.554.446-1 1-1z" fill-opacity=".5"/><g transform="translate(-48 -252)"><rect transform="matrix(0 -1 -1 0 0 0)" x="-284" y="-80" width="16" height="16" rx="8" ry="8" fill="#cf3b00"/><rect x="64.5" y="268.5" width="15" height="15" ry="7.5" fill="none" stroke="#000" stroke-linecap="square" stroke-opacity=".502"/><path d="M69 272a1 1 0 0 0-1 1 1 1 0 0 0 .293.707L70.586 276l-2.293 2.293A1 1 0 0 0 68 279a1 1 0 0 0 1 1 1 1 0 0 0 .707-.293L72 277.414l2.283 2.283A1 1 0 0 0 75 280a1 1 0 0 0 1-1 1 1 0 0 0-.293-.707L73.414 276l2.283-2.283A1 1 0 0 0 76 273a1 1 0 0 0-1-1 1 1 0 0 0-.707.293L72 274.586l-2.283-2.283a1 1 0 0 0-.01-.01A1 1 0 0 0 69 272z" fill="#fafafb"/></g></svg>