<svg version="1.0" viewBox="0 0 32 32" xmlns="http://www.w3.org/2000/svg"><g transform="translate(-100 648)"><rect x="107" y="-646" width="18" height="7" ry="1" fill="#dedede"/><path d="M108-646c-.554 0-1 .446-1 1v7.5c0 .554.446 1 1 1v-8.5h16v8.5c.554 0 1-.446 1-1v-7.5c0-.554-.446-1-1-1z" fill-opacity=".5"/><rect x="103" y="-639" width="26" height="13" ry="2" fill="#474341"/><path d="M105-639c-1.108 0-2 .892-2 2v9c0 1.108.892 2 2 2h22c1.108 0 2-.892 2-2v-9c0-1.108-.892-2-2-2zm0 1h22c.554 0 1 .446 1 1v8c0 .554-.446 1-1 1h-22c-.554 0-1-.446-1-1v-8c0-.554.446-1 1-1z" fill="#fff" fill-opacity=".5"/><rect x="107" y="-632" width="18" height="14" ry="1" fill="#dedede"/><circle cx="106.5" cy="-635" r="1" fill="#73c48f"/><path d="M108-632c-.554 0-1 .446-1 1v12c0 .554.446 1 1 1h16c.554 0 1-.446 1-1v-12c0-.554-.446-1-1-1v12h-16z" fill-opacity=".5"/><rect x="116" y="-633" width="16" height="17" ry="8" fill="#48b9c7"/><path d="M124-633c-4.432 0-8 3.568-8 8v1c0 4.432 3.568 8 8 8s8-3.568 8-8v-1c0-4.432-3.568-8-8-8zm0 1c3.878 0 7 3.122 7 7s-3.122 7-7 7-7-3.122-7-7 3.122-7 7-7z" fill-opacity=".5"/><path d="M125-620v-6h-2v6zm0-8v-2h-2v2z" fill="#fff"/></g></svg>