<svg version="1.0" viewBox="0 0 32 32" xmlns="http://www.w3.org/2000/svg"><g transform="translate(-100 348)"><rect transform="matrix(0 -1 -1 0 0 0)" x="318" y="-127" width="27" height="22" ry="2" fill="#50443f"/><rect transform="matrix(0 -1 -1 0 0 0)" x="320" y="-126" width="24" height="20" ry="1.5" fill="#a1887f"/><path fill="#fff" d="M108-342h16v20h-16z"/><rect x="112" y="-348" width="8" height="8" ry="3.939" fill="#666"/><rect x="112" y="-344" width="8" height="4" ry="0" fill="#666"/><path fill="#ccc" d="M110-342h12v2h-12z"/><rect x="110" y="-343" width="12" height="2" ry=".956" fill="#ccc"/><circle cx="116" cy="-344" r="3" fill="#ccc"/><path fill="#ccc" d="M113-344h6v2.5h-6z"/><circle cx="116" cy="-344.5" r="1.5" fill="#fff"/><rect x="115" y="-337" width="2" height="8" ry=".456" fill="#f15d22"/><rect x="115" y="-327" width="2" height="2" ry=".456" fill="#f15d22"/></g></svg>