<svg version="1.0" viewBox="0 0 48 48" xmlns="http://www.w3.org/2000/svg"><g stroke-linecap="square" transform="translate(-156 364)"><path d="M186-321h-24c-1.662 0-3-1.338-3-3v-26c0-1.662 1.338-3 3-3h24l16 16z" fill="#ffce51"/><path d="M162-353c-1.662 0-3 1.338-3 3v26c0 1.662 1.338 3 3 3h24l16-16-16-16zm0 1h23.5l14 14-14 14H162c-1.108 0-2-.892-2-2v-24c0-1.108.892-2 2-2z" fill-opacity=".5"/><rect x="180" y="-342" width="24" height="26" ry="12" fill="#479863"/><path d="M192-342c-6.648 0-12 5.352-12 12v2c0 6.648 5.352 12 12 12s12-5.352 12-12v-2c0-6.648-5.352-12-12-12zm0 1c6.094 0 11 4.906 11 11s-4.906 11-11 11-11-4.906-11-11 4.906-11 11-11z" fill-opacity=".5"/><path fill="#fff" d="M191-338h2v16h-2z"/><path fill="#fff" d="M184-331h16v2h-16z"/></g></svg>