<svg version="1.0" viewBox="0 0 48 48" xmlns="http://www.w3.org/2000/svg"><g transform="translate(-156 -236)"><rect x="177" y="239" width="6" height="24" ry="3" fill="#f15d22"/><path d="M180 239c-1.662 0-3 1.338-3 3v18a2.983 2.983 0 0 0 2.596 2.959A1.995 1.995 0 0 1 178 261v-19c0-1.108.892-2 2-2s2 .892 2 2v19c0 .97-.683 1.773-1.596 1.959A2.983 2.983 0 0 0 183 260v-18c0-1.662-1.338-3-3-3z" fill-opacity=".502"/><path d="M167 254c-1.662 0-3 1.338-3 3v9h32v-9c0-1.662-1.338-3-3-3z" fill="#f15d22"/><path d="M164 266v13h32v-13z" fill="#ffce51"/><path d="M167 254c-1.662 0-3 1.338-3 3v9h1v-9c0-1.108.892-2 2-2h26c1.108 0 2 .892 2 2v9h1v-9c0-1.662-1.338-3-3-3z" fill-opacity=".502"/><path d="M164 266v13h32v-13h-1v10h-30v-10z" fill-opacity=".502"/><path fill-opacity=".502" d="M172 266h1v13h-1z"/><path fill-opacity=".502" d="M177 266h1v13h-1z"/><path fill-opacity=".502" d="M182 266h1v13h-1z"/><path fill-opacity=".502" d="M187 266h1v13h-1z"/><path fill-opacity=".502" d="M167 266h1v13h-1z"/><path fill-opacity=".502" d="M192 266h1v13h-1z"/></g></svg>