<svg version="1.0" viewBox="0 0 48 48" xmlns="http://www.w3.org/2000/svg"><g transform="translate(-156 64)"><rect transform="matrix(0 -1 -1 0 0 0)" x="19" y="-196" width="40" height="32" ry="3" fill="#50443f"/><rect transform="matrix(0 -1 -1 0 0 0)" x="22" y="-195" width="36" height="30" ry="2.5" fill="#a1887f"/><path fill="#fff" d="M167-56h26v32h-26z"/><rect x="176" y="-63" width="8" height="9" ry="4" fill="#666"/><rect x="176" y="-58" width="8" height="4" ry="0" fill="#666"/><path fill="#ccc" d="M173-56h14v2h-14z"/><rect x="173" y="-57" width="14" height="2" ry="1" fill="#ccc"/><circle cx="180" cy="-59" r="3" fill="#ccc"/><path fill="#ccc" d="M177-59h6v2.5h-6z"/><circle cx="180" cy="-59.5" r="1.5" fill="#fff"/><rect x="170" y="-30" width="12" height="2" ry=".912" fill="#474341" fill-opacity=".69"/><rect x="170" y="-36" width="20" height="2" ry=".845" fill="#474341" fill-opacity=".69"/><rect x="170" y="-42" width="20" height="2" ry=".75" fill="#474341" fill-opacity=".69"/><rect x="170" y="-48" width="20" height="2" ry=".912" fill="#474341" fill-opacity=".69"/></g></svg>