<svg version="1.0" viewBox="0 0 48 48" xmlns="http://www.w3.org/2000/svg"><g transform="translate(-156 -236)"><rect x="178" y="246" width="22" height="19" ry="3" fill="#213397"/><rect x="178" y="242" width="22" height="19" ry="3" fill="#4860c8"/><rect x="178.1" y="244.85" width="22" height="19" ry="3" fill="#3f51b5"/><rect x="160" y="252" width="22" height="19" ry="3" fill="#4ea9b4"/><rect x="160" y="256" width="22" height="19" ry="3" fill="#1c8d9b"/><rect x="160" y="254" width="22" height="19" ry="3" fill="#48b9c7"/><path d="m160 280 5-5-5-3z" fill="#1c8d9b"/><path d="m160 278 5-5-5-3z" fill="#48b9c7"/><path d="m200 270-5-5 5-3z" fill="#213397"/><path d="m200 268-5-5 5-3z" fill="#3f51b5"/><g fill="#fff" stroke-width="1.196" aria-label="Q?"><path d="M167.71 258.97c-2.16.243-2.968 2.012-2.984 3.806 0 1.171.268 2.097.804 2.778.54.681 1.059.951 1.972.951 2.5 0 3.164-1.942 3.18-3.729-.053-1.961-1.066-3.779-2.972-3.806zm3.292 10.035h-1.5l-1-1.5h-1c-1.308 0-2.147-.344-2.931-1.216-.781-.876-1.172-2.047-1.172-3.513.102-2.733 1.792-4.795 4.311-4.828 2.854.188 4.274 2.418 4.298 4.828-.024 2.115-.947 3.235-2.506 4.229z"/><path d="M175 266h1v1h-1zm1-1h-1c0-1.5.33-2.263 1.105-3.02.594-.581 1.351-1.253 1.395-1.98.047-.777-.5-1-1.5-1-.86 0-1.349.113-2 .5v-1c.765-.506 1.18-.494 2-.5 1.606-.01 2.391.691 2.5 2 .092 1.103-.711 1.81-1.454 2.54-.73.643-1.046.96-1.046 2.46z"/></g><g fill="#fff" stroke-width="1.196" aria-label="A!"><path d="m188.505 251.002-1.5 4.5h3zm-1-1h2l3.5 9h-1.5l-1-2.5h-4l-1 2.5h-1.5z"/><path d="M194.005 257.002h1.5v2h-1.5zm0-7h1.5v4l-.5 2h-1.01l.01-2z"/></g></g></svg>