<svg version="1.0" viewBox="0 0 48 48" xmlns="http://www.w3.org/2000/svg"><g transform="translate(-156 364)"><path d="m161-352.5 19-9 19 9c.505.24 2 1.284 2 3.5v26c0 2.216-1.784 4-4 4h-34c-2.216 0-4-1.784-4-4v-26c0-2.216 1.5-3.235 2-3.5z" fill="#a27100"/><rect x="165" y="-359" width="30" height="33" ry="4" fill="#dedede"/><rect x="165.5" y="-358.5" width="29" height="32" ry="3.5" fill="none" stroke="#000" stroke-linecap="round" stroke-opacity=".392"/><path d="M159-347v22c0 2.216 1.784 4 4 4h34c2.216 0 4-1.784 4-4v-22l-21 15z" fill="#ffce51"/><path d="m170-339.14-11 14.143c0 2.216 1.784 4 4 4h34c2.216 0 4-1.784 4-4l-11-14.143-10 7.143z" fill="#c29a32"/><path d="M197.01-352.5a3.482 3.482 0 0 1 3.49 3.49v24.02a3.482 3.482 0 0 1-3.49 3.49h-34.02a3.482 3.482 0 0 1-3.49-3.49v-24.02a3.482 3.482 0 0 1 3.49-3.49" fill="none" stroke="#303030" stroke-linecap="round" stroke-linejoin="round" stroke-opacity=".392"/><path d="m180.03-354.5 6.469 4.5-6.469 4.5v-2.5h-2c-1.365 0-2.572.873-2.938 2-.437 1.347 1.438 4 1.438 4s-4-1.5-4-4.75c0-3.123 2-5.25 5-5.25h2.5z" color="#bebebe" fill="#393634" fill-opacity=".784" style="text-decoration-line:none;text-indent:0;text-transform:none"/></g></svg>