<svg version="1.0" viewBox="0 0 48 48" xmlns="http://www.w3.org/2000/svg"><g transform="translate(-156 -236)"><rect x="159" y="247" width="42" height="34" ry="4" fill="#a27100"/><rect x="159" y="247" width="42" height="32" ry="4" fill="#ffce51"/><path d="M163 279h34c2.216 0 4-1.784 4-4l-21-27-21 27c0 2.216 1.784 4 4 4z" fill="#c29a32"/><path d="M201 251v2l-21 15-21-15v-2z" fill-opacity=".196"/><path d="M163 247h34c2.216 0 4 1.784 4 4l-21 15-21-15c0-2.216 1.784-4 4-4z" fill="#ffee7d"/><rect x="159.5" y="247.5" width="41" height="31" ry="3.49" fill="none" stroke="#303030" stroke-linecap="round" stroke-linejoin="round" stroke-opacity=".392"/><path d="M190 276v-8h4l-9-8-9 8h4v8z" fill="#faa41a"/><path d="M200 268v8h4l-9 8-9-8h4v-8z" fill="#73c48f"/><path d="M189.5 275.5v-8h3.184L185 260.672l-7.684 6.828h3.184v8z" fill="none" stroke="#000" stroke-opacity=".392"/><path d="M199.5 268.5v8h3.184L195 283.332l-7.684-6.832h3.184v-8z" fill="none" stroke="#000" stroke-opacity=".392"/></g></svg>