<svg version="1.0" viewBox="0 0 48 48" xmlns="http://www.w3.org/2000/svg"><path d="m5 11.5 19-9 19 9c.505.24 2 1.284 2 3.5v26c0 2.216-1.784 4-4 4H7c-2.216 0-4-1.784-4-4V15c0-2.216 1.5-3.235 2-3.5z" fill="#a27100"/><g transform="translate(-156 -236)"><rect x="165" y="241" width="30" height="33" ry="4" fill="#dedede"/><rect x="165.5" y="241.5" width="29" height="32" ry="3.5" fill="none" stroke="#000" stroke-linecap="round" stroke-opacity=".392"/></g><path d="M3 17v22c0 2.216 1.784 4 4 4h34c2.216 0 4-1.784 4-4V17L24 32z" fill="#ffce51"/><path d="M14 24.857 3 39c0 2.216 1.784 4 4 4h34c2.216 0 4-1.784 4-4L34 24.857 24 32z" fill="#c29a32"/><path d="M41.01 11.5a3.482 3.482 0 0 1 3.49 3.49v24.02a3.482 3.482 0 0 1-3.49 3.49H6.99a3.482 3.482 0 0 1-3.49-3.49V14.99a3.482 3.482 0 0 1 3.49-3.49" fill="none" stroke="#303030" stroke-linecap="round" stroke-linejoin="round" stroke-opacity=".392"/><g fill="#393634" opacity=".8"><path d="m-112.63 83.739-6.469 4.5 6.469 4.5v-2.5h2c.19 0 .376.02.559.053.36-.407.864-.7 1.423-.836l.13-.432a2.514 2.514 0 0 1 1.654-1.668c-.845-.713-1.96-1.117-3.266-1.117h-2.5zm4.5 7.5a.52.52 0 0 0-.152.027c.224.243.4.516.521.813a.496.496 0 0 0 .131-.34c0-.288-.212-.5-.5-.5z" color="#bebebe" style="text-decoration-line:none;text-indent:0;text-transform:none" transform="translate(134.63 -74.24)"/><path d="M-106.13 88.239c-.679 0-1.245.454-1.43 1.072.915.219 1.64.945 1.858 1.86a1.496 1.496 0 0 0-.428-2.932zm-2 2a1.5 1.5 0 1 0 0 3 1.5 1.5 0 0 0 0-3zm2.436 2.033a2.536 2.536 0 0 1-.748 1.262c.486.178.878.418 1.158.705h1.654v-.5s-.028-1.294-2.064-1.467zm-2.436 1.967c-2.5 0-2.5 1.5-2.5 1.5v.5h5v-.5s0-1.5-2.5-1.5z" color="#000" style="text-decoration-line:none;text-indent:0;text-transform:none" transform="translate(134.63 -74.24)"/></g></svg>