<svg version="1.0" viewBox="0 0 48 48" xmlns="http://www.w3.org/2000/svg"><g transform="translate(-156 -236)"><rect x="228" y="236" width="56" height="44" ry="4" fill="#a27100"/><rect x="228" y="234" width="56" height="44" ry="4" fill="#ffce51"/><path d="M232 278h48c2.216 0 4-1.784 4-4l-28-39-28 39c0 2.216 1.784 4 4 4z" fill="#c29a32"/><path d="M284 238v2l-28 22-28-22v-2z" fill-opacity=".196"/><path d="M232 234h48c2.216 0 4 1.784 4 4l-28 22-28-22c0-2.216 1.784-4 4-4z" fill="#ffee7d"/><rect x="228.5" y="234.5" width="55" height="43" ry="3.49" fill="none" stroke="#303030" stroke-linecap="round" stroke-linejoin="round" stroke-opacity=".392"/><rect x="159" y="247" width="42" height="34" ry="4" fill="#a27100"/><rect x="159" y="247" width="42" height="32" ry="4" fill="#ffce51"/><path d="M163 279h34c2.216 0 4-1.784 4-4l-21-27-21 27c0 2.216 1.784 4 4 4z" fill="#c29a32"/><path d="M201 251v2l-21 15-21-15v-2z" fill-opacity=".196"/><path d="M163 247h34c2.216 0 4 1.784 4 4l-21 15-21-15c0-2.216 1.784-4 4-4z" fill="#ffee7d"/><rect x="159.5" y="247.5" width="41" height="31" ry="3.49" fill="none" stroke="#303030" stroke-linecap="round" stroke-linejoin="round" stroke-opacity=".392"/><rect x="102" y="259" width="28" height="23" ry="2" fill="#a27100"/><rect x="102" y="259" width="28" height="22" ry="2" fill="#ffce51"/><path d="M104 281h24c1.108 0 2-.892 2-2l-14-19-14 19c0 1.108.892 2 2 2z" fill="#c29a32"/><path d="M130 261v1l-14 11-14-11v-1z" fill-opacity=".314"/><path d="M104 259h24c1.108 0 2 .892 2 2l-14 11-14-11c0-1.108.892-2 2-2z" fill="#ffee7d"/><rect x="102.5" y="259.5" width="27" height="21" ry="1.5" fill="none" stroke="#303030" stroke-linecap="round" stroke-linejoin="round" stroke-opacity=".392"/><rect x="320" y="184" width="112" height="90" ry="6" fill="#a27100"/><rect x="320" y="184" width="112" height="88" ry="6" fill="#ffce51"/><rect x="480" y="84" width="224" height="178" ry="6" fill="#a27100"/><rect x="480" y="84" width="224" height="176" ry="6" fill="#ffce51"/><path d="M326 272h100c3.324 0 6-2.676 6-6l-56-81-56 81c0 3.324 2.676 6 6 6z" fill="#c29a32"/><path d="M432 190v2l-56 46-56-46v-2z" fill-opacity=".196"/><path d="M326 184h100c3.324 0 6 2.676 6 6l-56 46-56-46c0-3.324 2.676-6 6-6z" fill="#ffee7d"/><path d="M486 260h212c3.324 0 6-2.676 6-6L592 85 480 254c0 3.324 2.676 6 6 6z" fill="#c29a32"/><path d="M704 90v2l-112 98-112-98v-2z" fill-opacity=".196"/><path d="M486 84h212c3.324 0 6 2.676 6 6l-112 98-112-98c0-3.324 2.676-6 6-6z" fill="#ffee7d"/><rect x="320.5" y="184.5" width="111" height="87" ry="5.5" fill="none" stroke="#303030" stroke-linecap="round" stroke-linejoin="round" stroke-opacity=".392"/><rect x="480.5" y="84.5" width="223" height="175" ry="5.5" fill="none" stroke="#303030" stroke-linecap="round" stroke-linejoin="round" stroke-opacity=".392"/><path d="M699.5 276h-23L660 259.5v-23l16.5-16.5h23l16.5 16.5v23z" fill-opacity=".392"/><path d="M699.5 274h-23L660 257.5v-23l16.5-16.5h23l16.5 16.5v23z" fill="#cf3b00"/><path d="M686.99 227a2 2 0 0 0-2 2 2 2 0 0 0 .01.174V242h-2v-10h-.01a2 2 0 0 0-2-2 2 2 0 0 0-2 2 2 2 0 0 0 .01.174V251l-3.533-5.108c-1.655-2.393-6.018-.375-3.967 3.108 2.543 4.317 9.5 17 15.5 17 5.565 0 14.027-.001 14.02-9.059l-.02-23.94h-.01a2 2 0 0 0-2-2 2 2 0 0 0-2 2 2 2 0 0 0 .01.173V244h-2v-14h-.01a2 2 0 0 0-2-2 2 2 0 0 0-2 2 2 2 0 0 0 .01.174V242h-2v-13h-.01a2 2 0 0 0-2-2z" fill="#fff"/><path d="M422.5 282h-23L383 265.5v-23l16.5-16.5h23l16.5 16.5v23z" fill-opacity=".392"/><path d="M422.5 280h-23L383 263.5v-23l16.5-16.5h23l16.5 16.5v23z" fill="#cf3b00"/><path d="M409.99 233a2 2 0 0 0-2 2 2 2 0 0 0 .01.174V248h-2v-10h-.01a2 2 0 0 0-2-2 2 2 0 0 0-2 2 2 2 0 0 0 .01.174V257l-3.533-5.108c-1.656-2.393-6.018-.375-3.967 3.108 2.543 4.317 9.5 17 15.5 17 5.565 0 14.027-.001 14.02-9.059l-.02-23.94h-.01a2 2 0 0 0-2-2 2 2 0 0 0-2 2 2 2 0 0 0 .01.173V250h-2v-14h-.01a2 2 0 0 0-2-2 2 2 0 0 0-2 2 2 2 0 0 0 .01.174V248h-2v-13h-.01a2 2 0 0 0-2-2z" fill="#fff"/><path d="M279 283h-12l-8-8v-12l8-8h11.5l8.5 8v11.5z" fill-opacity=".392"/><path d="M279 282h-12l-8-8v-12l8-8h12l8 8v11.5z" fill="#cf3b00"/><path d="M271.995 258.5a1 1 0 0 0-1 1 1 1 0 0 0 .005.087V266h-1v-5h-.005a1 1 0 0 0-1-1 1 1 0 0 0-1 1 1 1 0 0 0 .005.087v9.413l-1.767-2.554c-.827-1.196-3.008-.187-1.983 1.554 1.271 2.159 4.75 8.5 7.75 8.5 2.782 0 7.013 0 7.01-4.53L279 261.5h-.005a1 1 0 0 0-1-1 1 1 0 0 0-1 1 1 1 0 0 0 .005.087V267h-1v-7h-.005a1 1 0 0 0-1-1 1 1 0 0 0-1 1 1 1 0 0 0 .005.087V266h-1v-6.5h-.005a1 1 0 0 0-1-1z" fill="#fff"/><path d="M195 284h-12l-8-8v-12l8-8h11.5l8.5 8v11.5z" fill-opacity=".392"/><path d="M195 283h-12l-8-8v-12l8-8h12l8 8v11.5z" fill="#cf3b00"/><path d="M187.995 259.5a1 1 0 0 0-1 1 1 1 0 0 0 .005.087V267h-1v-5h-.005a1 1 0 0 0-1-1 1 1 0 0 0-1 1 1 1 0 0 0 .005.087v9.413l-1.767-2.554c-.827-1.196-3.008-.187-1.983 1.554 1.271 2.159 4.75 8.5 7.75 8.5 2.782 0 7.013 0 7.01-4.53L195 262.5h-.005a1 1 0 0 0-1-1 1 1 0 0 0-1 1 1 1 0 0 0 .005.087V268h-1v-7h-.005a1 1 0 0 0-1-1 1 1 0 0 0-1 1 1 1 0 0 0 .005.087V267h-1v-6.5h-.005a1 1 0 0 0-1-1z" fill="#fff"/><path d="M127 284h-6l-4-4v-6l4-4h5.75l4.25 4v5.75z" fill-opacity=".392"/><path d="M127 283h-6l-4-4v-6l4-4.5h6l4 4.5v5.75z" fill="#cf3b00"/><path d="M123.5 270c-.331 0-.503.272-.503.603.006 1.294.003 2.6.003 3.897h-1v-2.997h-.003c0-.332-.166-.503-.497-.503s-.5.169-.5.5c.007.894.003 1.8.003 2.698v2.997l-1.059-1.53c-.496-.718-1.804-.113-1.19.93.763 1.295 3.047 5.099 4.845 5.099 1.668 0 4.403.021 4.4-2.694v-7c0-.33-.168-.5-.5-.5s-.5.17-.5.5l.004.052L127 275.5h-1c-.001-1.19-.003-3.688 0-4.5 0-.33-.169-.5-.5-.5s-.5.17-.5.5a.47.47 0 0 0 .003.053L125 274.5h-1l.003-4H124c0-.332-.169-.5-.5-.5z" fill="#fff"/><path d="M27 283h-6l-4-4v-6l4-4h6l4 4v6z" fill="#cf3b00"/><path d="M26.786 282.5h-5.572l-3.714-3.714v-5.572l3.714-3.714h5.572l3.714 3.714v5.572z" fill="none" stroke="#e8e8e8" stroke-opacity=".392"/><path d="M23.5 270.5c-.331 0-.503.272-.503.603.006 1.294.003 2.6.003 3.897h-1v-2.997h-.003c0-.332-.166-.503-.497-.503-.331 0-.5.169-.5.5.007.894.003 1.8.003 2.698v2.997l-1.06-1.53c-.495-.718-1.803-.113-1.188.93.762 1.295 2.947 3.905 4.745 3.905 1.668 0 4.5 0 4.5-2v-6.5c0-.331-.169-.5-.5-.5-.331 0-.5.169-.5.5 0 .017.001.035.003.052L27 276h-1c-.001-1.19-.003-3.688 0-4.5 0-.331-.169-.5-.5-.5-.331 0-.5.169-.5.5 0 .017.001.035.003.052L25 275h-1l.003-4H24c0-.331-.169-.5-.5-.5z" fill="#fff"/><path d="M72 282h-8l-6-6v-8l6-6h8l6 6v8z" fill="#cf3b00"/><path d="M67.5 266.5c-.331 0-.503.272-.503.603.006 1.294.003 2.6.003 3.897h-1v-2.997h-.003c0-.332-.166-.503-.497-.503-.331 0-.5.169-.5.5.007.894.003 1.8.003 2.698v2.997l-1.06-1.53c-.495-.718-1.803-.113-1.188.93.762 1.295 3.046 5.099 4.844 5.099 1.669 0 4.403.021 4.401-2.694v-7c0-.331-.169-.5-.5-.5-.331 0-.5.169-.5.5 0 .017.001.035.003.052L71 272h-1c-.001-1.19-.003-3.688 0-4.5 0-.331-.169-.5-.5-.5-.331 0-.5.169-.5.5 0 .017.001.035.003.052L69 271h-1l.003-4H68c0-.331-.169-.5-.5-.5z" fill="#fff"/><path d="M71.8 281.5h-7.6l-5.7-5.7v-7.6l5.7-5.7h7.6l5.7 5.7v7.6z" fill="none" stroke="#f9f9f9" stroke-linecap="round" stroke-opacity=".392"/></g></svg>