<svg version="1.0" viewBox="0 0 48 48" xmlns="http://www.w3.org/2000/svg"><g transform="translate(-156 -236)"><path d="m161 247.5 19-9 19 9c.505.24 2 1.284 2 3.5v26c0 2.216-1.784 4-4 4h-34c-2.216 0-4-1.784-4-4v-26c0-2.216 1.5-3.235 2-3.5z" fill="#a27100"/><rect x="165" y="241" width="30" height="33" ry="4" fill="#dedede"/><rect x="165.5" y="241.5" width="29" height="32" ry="3.5" fill="none" stroke="#000" stroke-linecap="round" stroke-opacity=".392"/><path d="M159 253v22c0 2.216 1.784 4 4 4h34c2.216 0 4-1.784 4-4v-22l-21 15z" fill="#ffce51"/><path d="m170 260.86-11 14.143c0 2.216 1.784 4 4 4h34c2.216 0 4-1.784 4-4l-11-14.143-10 7.143z" fill="#c29a32"/><path d="M197.01 247.5a3.482 3.482 0 0 1 3.49 3.49v24.02a3.482 3.482 0 0 1-3.49 3.49h-34.02a3.482 3.482 0 0 1-3.49-3.49v-24.02a3.482 3.482 0 0 1 3.49-3.49" fill="none" stroke="#303030" stroke-linecap="round" stroke-linejoin="round" stroke-opacity=".392"/><path d="m170 253.51 6 6 14-14" fill="none" stroke="#393634" stroke-linecap="round" stroke-linejoin="round" stroke-width="4"/></g></svg>