<svg version="1.0" viewBox="0 0 48 48" xmlns="http://www.w3.org/2000/svg"><g transform="translate(-156 -236)"><path d="M68 277v-8h3l-6.5-6-6.5 5v1h3v8z" fill="#c26c00"/><path d="M68 276v-8h3l-6.5-6-6.5 6h3v8z" fill="#de8800"/><path d="M75 269v7h3v1l-6.5 6-6.5-6v-1h3v-7z" fill="#1c6d38"/><path d="M75 268v8h3l-6.5 6-6.5-6h3v-8z" fill="#479863"/><path d="M24 278v-4h2l-4.5-4-4.5 4h2v4z" fill="#de8800"/><path d="M29 274v4h2l-4.5 4-4.5-4h2v-4z" fill="#479863"/><path d="M23.5 277.5v-4h1.188l-3.188-2.832-3.188 2.832H19.5v4z" fill="none" stroke="#fff" stroke-opacity=".392"/><path d="M28.5 274.5v4h1.188l-3.188 2.832-3.188-2.832H24.5v-4z" fill="none" stroke="#fff" stroke-opacity=".392"/><path d="M67.5 275.5v-8h2.223l-5.223-4.82-5.223 4.82H61.5v8z" fill="none" stroke="#fff" stroke-opacity=".392"/><path d="M74.5 268.5v8h2.223l-5.223 4.82-5.223-4.82H68.5v-8z" fill="none" stroke="#fff" stroke-opacity=".392"/><rect x="228" y="236" width="56" height="44" ry="4" fill="#a27100"/><rect x="228" y="234" width="56" height="44" ry="4" fill="#ffce51"/><path d="M232 278h48c2.216 0 4-1.784 4-4l-28-39-28 39c0 2.216 1.784 4 4 4z" fill="#c29a32"/><path d="M284 238v2l-28 22-28-22v-2z" fill-opacity=".196"/><path d="M232 234h48c2.216 0 4 1.784 4 4l-28 22-28-22c0-2.216 1.784-4 4-4z" fill="#ffee7d"/><rect x="228.5" y="234.5" width="55" height="43" ry="3.49" fill="none" stroke="#303030" stroke-linecap="round" stroke-linejoin="round" stroke-opacity=".392"/><rect x="159" y="247" width="42" height="34" ry="4" fill="#a27100"/><rect x="159" y="247" width="42" height="32" ry="4" fill="#ffce51"/><path d="M163 279h34c2.216 0 4-1.784 4-4l-21-27-21 27c0 2.216 1.784 4 4 4z" fill="#c29a32"/><path d="M201 251v2l-21 15-21-15v-2z" fill-opacity=".196"/><path d="M163 247h34c2.216 0 4 1.784 4 4l-21 15-21-15c0-2.216 1.784-4 4-4z" fill="#ffee7d"/><rect x="159.5" y="247.5" width="41" height="31" ry="3.49" fill="none" stroke="#303030" stroke-linecap="round" stroke-linejoin="round" stroke-opacity=".392"/><rect x="102" y="259" width="28" height="23" ry="2" fill="#a27100"/><rect x="102" y="259" width="28" height="22" ry="2" fill="#ffce51"/><path d="M104 281h24c1.108 0 2-.892 2-2l-14-19-14 19c0 1.108.892 2 2 2z" fill="#c29a32"/><path d="M130 261v1l-14 11-14-11v-1z" fill-opacity=".314"/><path d="M104 259h24c1.108 0 2 .892 2 2l-14 11-14-11c0-1.108.892-2 2-2z" fill="#ffee7d"/><rect x="102.5" y="259.5" width="27" height="21" ry="1.5" fill="none" stroke="#303030" stroke-linecap="round" stroke-linejoin="round" stroke-opacity=".392"/><rect x="320" y="184" width="112" height="90" ry="6" fill="#a27100"/><rect x="320" y="184" width="112" height="88" ry="6" fill="#ffce51"/><rect x="480" y="84" width="224" height="178" ry="6" fill="#a27100"/><rect x="480" y="84" width="224" height="176" ry="6" fill="#ffce51"/><path d="M326 272h100c3.324 0 6-2.676 6-6l-56-81-56 81c0 3.324 2.676 6 6 6z" fill="#c29a32"/><path d="M432 190v2l-56 46-56-46v-2z" fill-opacity=".196"/><path d="M326 184h100c3.324 0 6 2.676 6 6l-56 46-56-46c0-3.324 2.676-6 6-6z" fill="#ffee7d"/><path d="M486 260h212c3.324 0 6-2.676 6-6L592 85 480 254c0 3.324 2.676 6 6 6z" fill="#c29a32"/><path d="M704 90v2l-112 98-112-98v-2z" fill-opacity=".196"/><path d="M486 84h212c3.324 0 6 2.676 6 6l-112 98-112-98c0-3.324 2.676-6 6-6z" fill="#ffee7d"/><rect x="320.5" y="184.5" width="111" height="87" ry="5.5" fill="none" stroke="#303030" stroke-linecap="round" stroke-linejoin="round" stroke-opacity=".392"/><rect x="480.5" y="84.5" width="223" height="175" ry="5.5" fill="none" stroke="#303030" stroke-linecap="round" stroke-linejoin="round" stroke-opacity=".392"/><path d="M125 280v-4h2l-4.5-4-4.5 4h2v4z" fill="#faa41a"/><path d="M130 276v4h2l-4.5 4-4.5-4h2v-4z" fill="#73c48f"/><path d="M124.5 279.5v-4h1.188l-3.188-2.832-3.188 2.832h1.188v4z" fill="none" stroke="#000" stroke-opacity=".392"/><path d="M129.5 276.5v4h1.188l-3.188 2.832-3.188-2.832h1.188v-4z" fill="none" stroke="#000" stroke-opacity=".392"/><path d="M190 276v-8h4l-9-8-9 8h4v8z" fill="#faa41a"/><path d="M200 268v8h4l-9 8-9-8h4v-8z" fill="#73c48f"/><path d="M189.5 275.5v-8h3.184L185 260.672l-7.684 6.828h3.184v8z" fill="none" stroke="#000" stroke-opacity=".392"/><path d="M199.5 268.5v8h3.184L195 283.332l-7.684-6.832h3.184v-8z" fill="none" stroke="#000" stroke-opacity=".392"/><path d="m266.999 272-.01-12.003L273 260l-13.5-12-13.5 12h6v12z" fill="#faa41a"/><path d="M281.999 260v12l5.99-.003L274.5 284 261 272h6v-12z" fill="#73c48f"/><path d="M266.498 271.49v-12h5.184l-12.184-10.832-12.184 10.832h5.184v12z" fill="none" stroke="#000" stroke-opacity=".392" stroke-width=".999"/><path d="M281.498 260.51v12h5.184l-12.184 10.832-12.184-10.832h5.184v-12z" fill="none" stroke="#000" stroke-opacity=".392" stroke-width=".999"/><path d="M412 268v-16h8l-18-16-18 16h8v16z" fill="#faa41a"/><path d="M432 252v16h8l-18 16-18-16h8v-16z" fill="#73c48f"/><path d="M411 267v-16h6.414L402 237.336 386.586 251H393v16z" fill="none" stroke="#000" stroke-opacity=".392" stroke-width="2"/><path d="M431 253v16h6.367L422 282.664 406.633 269H413v-16z" fill="none" stroke="#000" stroke-opacity=".392" stroke-width="2"/><path d="M664 248v-32h16l-36-32-36 32h16v32z" fill="#faa41a"/><path d="M704 216v32h16l-36 32-36-32h16v-32z" fill="#73c48f"/><path d="M663 247.04v-32h14.371L644 185.38l-33.371 29.66H625v32z" fill="none" stroke="#000" stroke-opacity=".392" stroke-width="2"/><path d="M703 216.96v32h14.371L684 278.62l-33.371-29.66H665v-32z" fill="none" stroke="#000" stroke-opacity=".392" stroke-width="2"/></g></svg>