<svg version="1.0" viewBox="0 0 48 48" xmlns="http://www.w3.org/2000/svg"><g transform="translate(-156 -236)"><rect x="159" y="247" width="42" height="34" ry="4" fill="#a27100"/><rect x="159" y="247" width="42" height="32" ry="4" fill="#ffce51"/><path d="M163 279h34c2.216 0 4-1.784 4-4l-21-27-21 27c0 2.216 1.784 4 4 4z" fill="#c29a32"/><path d="M201 251v2l-21 15-21-15v-2z" fill-opacity=".196"/><path d="M163 247h34c2.216 0 4 1.784 4 4l-21 15-21-15c0-2.216 1.784-4 4-4z" fill="#ffee7d"/><rect x="159.5" y="247.5" width="41" height="31" ry="3.49" fill="none" stroke="#303030" stroke-linecap="round" stroke-linejoin="round" stroke-opacity=".392"/><path d="M195 284h-12l-8-8v-12l8-8h11.5l8.5 8v11.5z" fill-opacity=".392"/><path d="M195 283h-12l-8-8v-12l8-8h12l8 8v11.5z" fill="#cf3b00"/><path d="M187.995 259.5a1 1 0 0 0-1 1 1 1 0 0 0 .005.087V267h-1v-5h-.005a1 1 0 0 0-1-1 1 1 0 0 0-1 1 1 1 0 0 0 .005.087v9.413l-1.767-2.554c-.827-1.196-3.008-.187-1.983 1.554 1.271 2.159 4.75 8.5 7.75 8.5 2.782 0 7.013 0 7.01-4.53L195 262.5h-.005a1 1 0 0 0-1-1 1 1 0 0 0-1 1 1 1 0 0 0 .005.087V268h-1v-7h-.005a1 1 0 0 0-1-1 1 1 0 0 0-1 1 1 1 0 0 0 .005.087V267h-1v-6.5h-.005a1 1 0 0 0-1-1z" fill="#fff"/></g></svg>