<svg version="1.0" viewBox="0 0 48 48" xmlns="http://www.w3.org/2000/svg"><path d="M14.89 2 2.002 14.897v19.206L14.89 47h18.225l12.888-12.897V14.897L33.115 2z" fill="#cf3b00"/><path d="M14.89 2 2.001 14.896v19.207L14.89 46.999h18.225l12.887-12.896V14.896L33.115 2zm.412 1H32.7l12.301 12.301v17.398L32.701 45h-17.4l-12.3-12.301V15.301z" fill-opacity=".502"/><path d="M170 250h3.333c.92 0 1.793.334 2.396.937l4.27 4.258 4.272-4.258c.603-.603 1.475-.937 2.396-.937H190v3.333c0 .92-.334 1.793-.938 2.396l-4.27 4.258 4.27 4.284c.604.603.942 1.475.938 2.396V270h-3.333c-.921 0-1.793-.334-2.396-.938L180 264.78l-4.27 4.283c-.604.604-1.476.938-2.397.938H170v-3.333c0-.92.334-1.793.938-2.396l4.27-4.284-4.27-4.258c-.604-.603-.938-1.475-.938-2.396z" color="#000" fill="#fff" style="text-decoration-line:none;text-indent:0;text-transform:none" transform="translate(-156 -236)"/></svg>