<svg version="1.0" viewBox="0 0 48 48" xmlns="http://www.w3.org/2000/svg"><g transform="translate(-156 364)"><rect x="169" y="-335" width="22" height="14" ry="1.5" fill="#424242"/><rect x="170" y="-334" width="20" height="10" ry="1.5" fill="#848484"/><rect x="159" y="-359" width="42" height="30" ry="2.25" fill="#6f6f6f"/><rect x="160" y="-358" width="40" height="26" ry="1.5" fill="#acacac"/><rect x="162" y="-356" width="36" height="20" ry=".75" fill="#464646"/><rect x="175" y="-335" width="10" height="2" ry=".75" fill="#424242"/><path d="M180-354a4 4 0 0 0-4 4 3.98 3.98 0 0 0 2.429 3.679L176-338h8l-2.429-8.322A3.978 3.978 0 0 0 184-350a4 4 0 0 0-4-4z" color="#000" fill="#fff"/></g></svg>