<svg version="1.0" viewBox="0 0 48 48" xmlns="http://www.w3.org/2000/svg"><g transform="translate(-156 64)"><rect x="158" y="-62" width="44" height="46" ry="22" fill="#7b736e"/><path d="M180-62c-12.188 0-22 9.812-22 22v2c0 12.188 9.812 22 22 22s22-9.812 22-22v-2c0-12.188-9.812-22-22-22zm0 1c11.634 0 21 9.366 21 21s-9.366 21-21 21-21-9.366-21-21 9.366-21 21-21z" fill="#fff" fill-opacity=".502"/><path d="m189-46 8 6-8 6v-4h-8v-4h8z" color="#bebebe" fill="#fff"/><path d="M187.39-47.662a2 2 0 0 0-.715-1.531 2 2 0 0 0-.23-.168c-2.94-2.329-6.876-3.228-10.645-2.184a12.015 12.015 0 0 0-8.797 11.621 12.012 12.012 0 0 0 8.906 11.535c3.75 1 7.647.083 10.559-2.234a2 2 0 0 0 .922-1.68 2 2 0 0 0-2-2 2 2 0 0 0-1.313.488 7.969 7.969 0 0 1-7.136 1.563 7.982 7.982 0 0 1-5.938-7.692 7.983 7.983 0 0 1 5.863-7.75 7.975 7.975 0 0 1 7.223 1.543c.006.004.01.01.016.016a2 2 0 0 0 .004 0 2 2 0 0 0 1.281.473 2 2 0 0 0 2-2z" color="#000" fill="#fff" style="isolation:auto;mix-blend-mode:normal;text-decoration-color:#000;text-decoration-line:none;text-decoration-style:solid;text-indent:0;text-transform:none;white-space:normal"/></g></svg>