<svg version="1.0" viewBox="0 0 48 48" xmlns="http://www.w3.org/2000/svg"><g transform="translate(-156 964)"><rect x="158" y="-962" width="44" height="46" ry="22" fill="#7b736e"/><path d="M180-962c-12.188 0-22 9.812-22 22v2c0 12.188 9.812 22 22 22s22-9.812 22-22v-2c0-12.188-9.812-22-22-22zm0 1c11.634 0 21 9.366 21 21s-9.366 21-21 21-21-9.366-21-21 9.366-21 21-21z" fill="#fff" fill-opacity=".502"/><path d="M180.98-950.49c-4.144.152-7.963 2.707-9.469 6.844-1.983 5.45.785 11.517 6.235 13.5 4.136 1.505 8.61.217 11.39-2.86-1.991.643-4.209.678-6.328-.093-5.06-1.842-7.654-7.456-5.812-12.516.771-2.12 2.212-3.763 3.984-4.875z" color="#bebebe" fill="#fff"/><path d="M182-949c-1 0-1 1-1 1v12s0 1 1 1h10s1 0 1-1v-12s0-1-1-1zm5 2a4 4 0 0 1 0 8h-4v-4a4 4 0 0 1 4-4zm0 2a2 2 0 1 0 0 4 2 2 0 0 0 0-4z" fill="#fff" filter="url(#filter7554)"/></g></svg>