<svg version="1.0" viewBox="0 0 48 48" xmlns="http://www.w3.org/2000/svg"><g transform="translate(-156 -236)"><rect x="158" y="238" width="44" height="46" ry="22" fill="#7b736e"/><path d="M180 238c-12.188 0-22 9.812-22 22v2c0 12.188 9.812 22 22 22s22-9.812 22-22v-2c0-12.188-9.812-22-22-22zm0 1c11.634 0 21 9.366 21 21s-9.366 21-21 21-21-9.366-21-21 9.366-21 21-21z" fill="#fff" fill-opacity=".502"/><path d="M180 248a2 2 0 0 0-2 2 2 2 0 0 0 2 2 8 8 0 0 1 8 8h-4l6 8 6-8h-4a12 12 0 0 0-12-12zm-10 4-6 8h4a12 12 0 0 0 12 12 2 2 0 0 0 2-2 2 2 0 0 0-2-2 8 8 0 0 1-8-8h4z" fill="#fff" fill-opacity=".902"/></g></svg>