<svg version="1.0" viewBox="0 0 48 48" xmlns="http://www.w3.org/2000/svg"><g transform="translate(-156 -236)"><rect x="158" y="239" width="44" height="44" ry="22" fill="#213397"/><rect x="158" y="238" width="44" height="44" ry="22" fill="#3f51b5"/><rect x="158.5" y="238.5" width="43" height="43" ry="21.5" fill="none" stroke="#fff" stroke-linecap="round" stroke-linejoin="round" stroke-opacity=".392"/><path d="M177 272h4.5v5.5h-4.496zm4.5-3H177c0-4.5.577-8.01 3.367-10.688 1.357-1.303 2.858-2.694 3.81-4.186.426-.67.872-1.404.823-2.126-.206-3.022-2.488-4.548-5-4.5-2.984.058-5.794 1.488-8 3v-4.164c2.709-1.614 5.093-2.35 8-2.336 4.955.022 9.094 3.467 9 8-.08 3.888-2.729 5.765-5.289 8.306C181.5 262.5 181.5 265.5 181.5 269z" fill="#fff"/></g></svg>