<svg version="1.0" viewBox="0 0 48 48" xmlns="http://www.w3.org/2000/svg"><g transform="translate(-156 364)"><rect x="158" y="-362" width="44" height="46" ry="22" fill="#7b736e"/><path d="M180-362c-12.188 0-22 9.812-22 22v2c0 12.188 9.812 22 22 22s22-9.812 22-22v-2c0-12.188-9.812-22-22-22zm0 1c11.634 0 21 9.366 21 21s-9.366 21-21 21-21-9.366-21-21 9.366-21 21-21z" fill="#fff" fill-opacity=".502"/><path d="M180-352.97a2 2 0 0 0-2 2 2 2 0 0 0 0 .008v9.984a2 2 0 0 0 0 .008 2 2 0 0 0 2 2 2 2 0 0 0 2-2 2 2 0 0 0 0-.008v-9.984a2 2 0 0 0 0-.008 2 2 0 0 0-2-2z" color="#bebebe" fill="#fff"/><path d="M172.32-347.42a2 2 0 0 0-1.531.715 2 2 0 0 0-.168.23c-2.329 2.94-3.228 6.876-2.184 10.645a12.015 12.015 0 0 0 11.621 8.797 12.012 12.012 0 0 0 11.535-8.906c1-3.75.083-7.647-2.234-10.559a2 2 0 0 0-1.68-.922 2 2 0 0 0-2 2 2 2 0 0 0 .488 1.313 7.969 7.969 0 0 1 1.563 7.136 7.982 7.982 0 0 1-7.692 5.938 7.983 7.983 0 0 1-7.75-5.863 7.975 7.975 0 0 1 1.543-7.223c.004-.006.01-.01.016-.016a2 2 0 0 0 0-.004 2 2 0 0 0 .473-1.281 2 2 0 0 0-2-2z" color="#000" fill="#fff" style="isolation:auto;mix-blend-mode:normal;text-decoration-color:#000;text-decoration-line:none;text-decoration-style:solid;text-indent:0;text-transform:none;white-space:normal"/></g></svg>