<svg version="1.0" viewBox="0 0 48 48" xmlns="http://www.w3.org/2000/svg"><g transform="translate(-156 -236)"><rect x="160" y="240" width="40" height="41" ry="3" fill="#7b736e"/><path d="M163 240c-1.662 0-3 1.338-3 3v35c0 1.662 1.338 3 3 3h34c1.662 0 3-1.338 3-3v-35c0-1.662-1.338-3-3-3zm0 1h34c1.108 0 2 .892 2 2v33c0 1.108-.892 2-2 2h-34c-1.108 0-2-.892-2-2v-33c0-1.108.892-2 2-2z" fill="#fff" fill-opacity=".502"/><path d="M177 248.01h6v8.989l9 .012v6l-9-.012v9.011h-6v-9.011l-9 .012v-6l9-.012z" color="#bebebe" fill="#fff" fill-opacity=".902"/></g></svg>