<svg version="1.0" viewBox="0 0 48 48" xmlns="http://www.w3.org/2000/svg"><g transform="translate(-156 64)"><rect x="160" y="-60" width="40" height="41" ry="3" fill="#7b736e"/><path d="M163-60c-1.662 0-3 1.338-3 3v35c0 1.662 1.338 3 3 3h34c1.662 0 3-1.338 3-3v-35c0-1.662-1.338-3-3-3zm0 1h34c1.108 0 2 .892 2 2v33c0 1.108-.892 2-2 2h-34c-1.108 0-2-.892-2-2v-33c0-1.108.892-2 2-2z" fill="#fff" fill-opacity=".502"/><path d="M192-42.988v6h-24v-6z" color="#bebebe" fill="#fff" fill-opacity=".902"/></g></svg>