<svg version="1.0" viewBox="0 0 64 64" xmlns="http://www.w3.org/2000/svg"><g transform="translate(-224 380)"><path d="M264-322h-32c-2.216 0-4-1.784-4-4v-36c0-2.216 1.784-4 4-4h32l22 22z" fill="#ffce51"/><path d="M232-366c-2.216 0-4 1.784-4 4v36c0 2.216 1.784 4 4 4h32l22-22-22-22zm0 1h31.5l20 20-20 20H232c-1.662 0-3-1.338-3-3v-34c0-1.662 1.338-3 3-3z" fill-opacity=".5"/><rect x="256" y="-350" width="32" height="34" ry="16" fill="#479863"/><path d="M272-350c-8.864 0-16 7.136-16 16v2c0 8.864 7.136 16 16 16s16-7.136 16-16v-2c0-8.864-7.136-16-16-16zm0 1c8.31 0 15 6.69 15 15s-6.69 15-15 15-15-6.69-15-15 6.69-15 15-15z" fill-opacity=".5"/><path d="M273.41-343.9a2 2 0 0 0-2.828 0 2 2 0 0 0-.586 1.414V-336h-6.485a2 2 0 0 0-1.415.585 2 2 0 0 0 0 2.829 2 2 0 0 0 1.415.585h6.485v6.458a2 2 0 0 0 .586 1.442 2 2 0 0 0 2.828 0 2 2 0 0 0 .586-1.414v-6.486h6.457a2 2 0 0 0 1.442-.585 2 2 0 0 0 0-2.829 2 2 0 0 0-1.414-.585h-6.485v-6.458a2 2 0 0 0 0-.028 2 2 0 0 0-.586-1.414z" fill="#fff"/><path fill="#fff" d="M270-345h4v22h-4z"/><path fill="#fff" d="M261-336h22v4h-22z"/></g></svg>