<svg version="1.0" viewBox="0 0 64 64" xmlns="http://www.w3.org/2000/svg"><g transform="translate(-224 -220)"><rect x="252" y="224" width="8" height="32" ry="4" fill="#f15d22"/><rect x="252" y="224" width="8" height="32" ry="4" fill="#f15d22"/><path d="M256 224c-2.216 0-4 1.784-4 4v24a3.97 3.97 0 0 0 1 2.625V228a2.994 2.994 0 0 1 3-3c1.662 0 3 1.338 3 3v26.625a3.97 3.97 0 0 0 1-2.625v-24c0-2.216-1.784-4-4-4z" fill-opacity=".502"/><path d="M238 245c-2.216 0-4 1.784-4 4v12h44v-12c0-2.216-1.784-4-4-4z" fill="#f15d22"/><path d="M234 261v17h44v-17z" fill="#ffce51"/><path d="M238 245c-2.216 0-4 1.784-4 4v12h1v-11.5c0-1.939 1.561-3.5 3.5-3.5h35c1.939 0 3.5 1.561 3.5 3.5V261h1v-12c0-2.216-1.784-4-4-4z" fill-opacity=".502"/><path d="M234 261v17h44v-17zm1 1h42v11h-42z" fill-opacity=".502"/><path d="M238 245c-2.216 0-4 1.784-4 4v12h44v-12c0-2.216-1.784-4-4-4z" fill="#f15d22"/><path d="M234 261v17h44v-17z" fill="#ffce51"/><path d="M238 245c-2.216 0-4 1.784-4 4v12h1v-12c0-1.662 1.338-3 3-3h36c1.662 0 3 1.338 3 3v12h1v-12c0-2.216-1.784-4-4-4z" fill-opacity=".502"/><path d="M234 261v17h44v-17h-1v14h-42v-14z" fill-opacity=".502"/><path fill-opacity=".502" d="M245 261h1v17h-1z"/><path fill-opacity=".502" d="M252 261h1v17h-1z"/><path fill-opacity=".502" d="M259 261h1v17h-1z"/><path fill-opacity=".502" d="M238 261h1v17h-1z"/><path fill-opacity=".502" d="M266 261h1v17h-1z"/><path fill-opacity=".502" d="M273 261h1v17h-1z"/></g></svg>