<svg version="1.0" viewBox="0 0 64 64" xmlns="http://www.w3.org/2000/svg"><g transform="translate(-224 80)"><rect transform="matrix(0 -1 -1 0 0 0)" x="20" y="-278" width="54" height="44" ry="4" fill="#50443f"/><rect transform="matrix(0 -1 -1 0 0 0)" x="23" y="-277" width="50" height="42" ry="3.5" fill="#a1887f"/><path fill="#fff" d="M238-70h36v44h-36z"/><rect x="251" y="-78" width="10" height="13" ry="5" fill="#666"/><rect x="252" y="-77" width="8" height="12" ry="4" fill="#ccc"/><path fill="#ccc" d="M247-69h18v4h-18z"/><rect x="247" y="-71" width="18" height="4" ry="2" fill="#ccc"/><circle cx="256" cy="-73" r="2" fill="#fff"/><rect x="242" y="-40" width="18" height="2" ry=".912" fill="#474341" fill-opacity=".69"/><rect x="242" y="-46" width="28" height="2" ry=".912" fill="#474341" fill-opacity=".69"/><rect x="242" y="-52" width="28" height="2" ry=".912" fill="#474341" fill-opacity=".69"/><rect x="242" y="-58" width="28" height="2" ry=".912" fill="#474341" fill-opacity=".69"/></g></svg>