<svg version="1.0" viewBox="0 0 64 64" xmlns="http://www.w3.org/2000/svg"><g transform="translate(-224 680)"><rect x="230" y="-674" width="52" height="52" ry="4" fill="#767676"/><rect x="231" y="-673" width="50" height="48" ry="3" fill="#ededed"/><rect x="231" y="-673" width="50" height="8" ry="3" fill="#faa41a"/><rect x="231" y="-669" width="50" height="6" ry="0" fill="#faa41a"/><g aria-label="19"><path d="m242.02-634.74 3.984-.266v-16h-4v-2l8-2v20l4.016.266-.016 1.734h-12z"/><path d="M262.18-636.28c1.146 0 2.07-.436 2.776-1.307.705-.881 1.037-2.198 1.037-3.95v-.324c-.48.617-1.032 1.087-1.698 1.41-.666.313-1.38.47-2.144.47-1.998 0-3.564-.651-4.7-1.953-1.136-1.312-1.458-3.119-1.458-5.42 0-2.163.43-3.975 1.781-5.433 1.361-1.469 3.08-2.203 5.155-2.203 2.183 0 3.956.753 5.316 2.261 1.361 1.498 1.748 3.608 1.748 6.33v4.64c0 2.772-.465 4.926-1.983 6.463-1.507 1.537-3.45 2.306-5.83 2.306-.744 0-1.513-.079-2.306-.235a10.027 10.027 0 0 1-1.881-.54v-2.012l.192-1.213a11.81 11.81 0 0 0 1.91.548c.616.108 1.312.162 2.085.162zm.69-6.844c.715 0 1.337-.132 1.865-.396a3.331 3.331 0 0 0 1.258-1.087v-2.291c0-1.567-.254-2.756-.802-3.569-.549-.813-1.293-1.219-2.233-1.219-.861 0-1.566.426-2.115 1.278-.538.842-.85 2.223-.85 3.418 0 1.292.283 1.957.762 2.72.49.765 1.195 1.146 2.115 1.146z"/></g><rect x="256" y="-650" width="32" height="34" ry="16" fill="#479863"/><path d="M272-650c-8.864 0-16 7.136-16 16v2c0 8.864 7.136 16 16 16s16-7.136 16-16v-2c0-8.864-7.136-16-16-16zm0 1c8.31 0 15 6.69 15 15s-6.69 15-15 15-15-6.69-15-15 6.69-15 15-15z" fill-opacity=".5"/><path d="M273.41-643.9a2 2 0 0 0-2.828 0 2 2 0 0 0-.586 1.414V-636h-6.485a2 2 0 0 0-1.415.585 2 2 0 0 0 0 2.829 2 2 0 0 0 1.415.585h6.485v6.458a2 2 0 0 0 .586 1.442 2 2 0 0 0 2.828 0 2 2 0 0 0 .586-1.414v-6.486h6.457a2 2 0 0 0 1.442-.585 2 2 0 0 0 0-2.829 2 2 0 0 0-1.414-.585h-6.485v-6.458a2 2 0 0 0 0-.029 2 2 0 0 0-.586-1.413z" fill="#fff"/><path fill="#fff" d="M270-645h4v22h-4z"/><path fill="#fff" d="M261-636h22v4h-22z"/></g></svg>