<svg version="1.0" viewBox="0 0 64 64" xmlns="http://www.w3.org/2000/svg"><g transform="translate(-224 -220)"><rect x="234" y="224" width="44" height="58" ry="4" fill="#1f285a"/><rect x="234" y="224" width="44" height="56" ry="4" fill="#3f51b5"/><rect x="234.5" y="224.5" width="43" height="55" ry="3.5" fill="none" stroke="#000" stroke-linecap="round" stroke-linejoin="round" stroke-opacity=".314"/><path d="M253 267h5v7h-5zm5-4h-5c0-5.5 1-10 3.771-12.868 1.626-1.683 3.556-3.35 4.739-5.207.53-.832 1.051-2.027.99-2.925-.256-3.76-3.375-5.06-6.5-5-3.711.072-7.256 2.119-10 4v-6c3.37-2.008 6.384-3.016 10-3 6.163.026 12.117 4.362 12 10-.1 4.836-3.868 7.467-7.069 10.611-2.431 2.389-2.93 5.889-2.93 10.39z" fill="#fff"/></g></svg>