<svg version="1.0" viewBox="0 0 64 64" xmlns="http://www.w3.org/2000/svg"><g transform="translate(-224 -220)"><rect transform="scale(-1 1)" x="-284" y="228" width="30" height="24" ry="3" fill="#4860c8"/><rect transform="scale(-1 1)" x="-284" y="232" width="30" height="24" ry="3" fill="#213397"/><rect transform="scale(-1 1)" x="-284" y="230" width="30" height="24" ry="3" fill="#3f51b5"/><rect x="228" y="244" width="30" height="24" ry="3" fill="#4ea9b4"/><rect x="228" y="248" width="30" height="24" ry="3" fill="#1c8d9b"/><rect x="228" y="246" width="30" height="24" ry="3" fill="#48b9c7"/><path d="m228 278 6-6-6-3.5z" fill="#1c8d9b"/><path d="m228 276 6-6-6-3.5z" fill="#48b9c7"/><path d="m284 261-6-6 6-3.5z" fill="#213397"/><path d="m284 259-6-6 6-3.5z" fill="#3f51b5"/><g fill="#fff" stroke-width="1.431" aria-label="Q?"><path d="M237.006 252.007c-3.462.144-5.028 2.73-5 5.5.033 3.22 1.887 6.117 5 6 3.531-.131 5.027-3.152 5-6-.031-3.277-1.797-5.632-5-5.5zm3 13 3 3h-2.49l-2.51-2.5h-1c-4.674 0-7.001-4.044-7-8 .001-4.393 3.083-7.614 7-7.5 4.728.139 7.027 3.484 7 7.5-.021 3.17-1.298 6.27-4 7.5z"/><path d="M249.351 262.71h2.073v2.576h-2.073zm2.012-1.492h-1.95v-1.562q0-1.024.286-1.684.285-.66 1.204-1.532l.919-.903q.582-.537.837-1.014.266-.477.266-.974 0-.903-.674-1.46-.664-.559-1.766-.559-.807 0-1.726.355-.908.355-1.898 1.035v-1.907q.96-.578 1.94-.862.99-.284 2.041-.284 1.878 0 3.012.984 1.143.984 1.143 2.597 0 .77-.368 1.47-.367.69-1.286 1.563l-.898.872q-.48.477-.684.75-.194.265-.276.518-.061.213-.092.518-.03.304-.03.832z"/></g><g fill="#fff" stroke-width="1.431" aria-label="A!"><path d="m266.994 236.007-3 8h6zm-1-2h2l6.5 16h-2l-1.5-4h-8l-1.5 4h-2z"/><path d="M277.995 248.004h2v2h-2zm0-14h2v7l-.5 5h-1l-.5-5z"/></g></g></svg>