<svg version="1.0" viewBox="0 0 64 64" xmlns="http://www.w3.org/2000/svg"><g transform="translate(-224 -220)"><path d="m230 234.5 26-12.5 26 12.5c.5.24 2 1.284 2 3.5v38c0 2.216-1.784 4-4 4h-48c-2.216 0-4-1.784-4-4v-38c0-2.216 1.5-3.26 2-3.5z" fill="#a27100"/><rect x="234" y="226" width="44" height="48" ry="4" fill="#dedede"/><rect x="234.5" y="226.5" width="43" height="47" ry="3.5" fill="none" stroke="#000" stroke-linecap="round" stroke-opacity=".392"/><path d="M228 240v34c0 2.216 1.784 4 4 4h48c2.216 0 4-1.784 4-4v-34l-28 22z" fill="#ffce51"/><path d="m243.61 252.26-15.607 21.738c0 2.216 1.784 4 4 4h48c2.216 0 4-1.784 4-4l-15.607-21.738-12.393 9.738z" fill="#c29a32"/><path d="M280.01 234.5a3.482 3.482 0 0 1 3.49 3.49v36.02a3.482 3.482 0 0 1-3.49 3.49h-48.02a3.482 3.482 0 0 1-3.49-3.49v-36.02a3.482 3.482 0 0 1 3.49-3.49" fill="none" stroke="#303030" stroke-linecap="round" stroke-linejoin="round" stroke-opacity=".392"/><path d="m268 233.77-16.5 16.5-7.5-7.5" fill="none" stroke="#393634" stroke-linecap="round" stroke-linejoin="round" stroke-width="6"/></g></svg>