<svg version="1.0" viewBox="0 0 64 64" xmlns="http://www.w3.org/2000/svg"><g transform="translate(-224 -220)"><rect x="228" y="236" width="56" height="44" ry="4" fill="#a27100"/><rect x="228" y="234" width="56" height="44" ry="4" fill="#ffce51"/><path d="M232 278h48c2.216 0 4-1.784 4-4l-28-39-28 39c0 2.216 1.784 4 4 4z" fill="#c29a32"/><path d="M284 238v2l-28 22-28-22v-2z" fill-opacity=".196"/><path d="M232 234h48c2.216 0 4 1.784 4 4l-28 22-28-22c0-2.216 1.784-4 4-4z" fill="#ffee7d"/><rect x="228.5" y="234.5" width="55" height="43" ry="3.49" fill="none" stroke="#303030" stroke-linecap="round" stroke-linejoin="round" stroke-opacity=".392"/><path d="M279 283h-12l-8-8v-12l8-8h11.5l8.5 8v11.5z" fill-opacity=".392"/><path d="M279 282h-12l-8-8v-12l8-8h12l8 8v11.5z" fill="#1c6d38"/><path d="m282 263-11 11-5-5" fill="none" stroke="#fff" stroke-linecap="round" stroke-linejoin="round" stroke-width="4"/></g></svg>