<svg version="1.0" viewBox="0 0 64 64" xmlns="http://www.w3.org/2000/svg"><g transform="translate(-224 -220)"><rect x="228" y="236" width="56" height="44" ry="4" fill="#a27100"/><rect x="228" y="234" width="56" height="44" ry="4" fill="#ffce51"/><path d="M232 278h48c2.216 0 4-1.784 4-4l-28-39-28 39c0 2.216 1.784 4 4 4z" fill="#c29a32"/><path d="M284 238v2l-28 22-28-22v-2z" fill-opacity=".196"/><path d="M232 234h48c2.216 0 4 1.784 4 4l-28 22-28-22c0-2.216 1.784-4 4-4z" fill="#ffee7d"/><rect x="228.5" y="234.5" width="55" height="43" ry="3.49" fill="none" stroke="#303030" stroke-linecap="round" stroke-linejoin="round" stroke-opacity=".392"/><path d="m267 272-.009-12.003 6.01.003-13.5-12-13.5 12h6v12z" fill="#faa41a"/><path d="M282 260v12l5.99-.003L274.5 284 261 272h6v-12z" fill="#73c48f"/><path d="M266.5 271.5v-12h5.184L259.5 248.668 247.316 259.5h5.183v12z" fill="none" stroke="#000" stroke-opacity=".392"/><path d="M281.5 260.5v12h5.184L274.5 283.332 262.316 272.5h5.183v-12z" fill="none" stroke="#000" stroke-opacity=".392"/></g></svg>