<svg version="1.0" viewBox="0 0 64 64" xmlns="http://www.w3.org/2000/svg"><path d="M19.57 2 1.996 19.574v26.852L19.57 64h24.852l17.574-17.574V19.574L44.422 2z" fill="#cf3b00"/><path d="M19.57 2 1.996 19.574v26.852L19.57 64h24.852l17.574-17.574V19.574L44.422 2zm.512 1h24.023l16.988 16.988v24.023L44.105 60.999H20.082L3.094 44.011V19.988z" fill-opacity=".502"/><path d="M244 240h4c1.105 0 2.151.401 2.875 1.125l5.125 5.11 5.125-5.11c.724-.724 1.77-1.125 2.875-1.125h4v4c0 1.105-.401 2.151-1.125 2.875l-5.125 5.11 5.125 5.14c.724.724 1.13 1.77 1.125 2.875v4h-4c-1.105 0-2.151-.401-2.875-1.125l-5.125-5.14-5.125 5.14c-.724.724-1.77 1.125-2.875 1.125h-4v-4c0-1.105.401-2.151 1.125-2.875l5.125-5.14-5.125-5.11c-.724-.724-1.125-1.77-1.125-2.875z" color="#000" fill="#fff" style="text-decoration-line:none;text-indent:0;text-transform:none" transform="translate(-224 -220)"/></svg>