<svg version="1.0" viewBox="0 0 64 64" xmlns="http://www.w3.org/2000/svg"><path d="M19.57 2 1.996 19.574v26.852L19.57 64h24.852l17.574-17.574V19.574L44.422 2z" fill="#cf3b00"/><path d="M19.57 2 1.996 19.574v26.852L19.57 64h24.852l17.574-17.574V19.574L44.422 2zm.512 1h24.023l16.988 16.988v24.023L44.105 60.999H20.082L3.094 44.011V19.988z" fill-opacity=".502"/><path d="M21 273h1c.276 0 .538.1.719.281l1.28 1.278 1.282-1.278A1.02 1.02 0 0 1 26 273h1v1c0 .276-.1.538-.281.719l-1.282 1.277 1.282 1.285c.18.181.282.443.28.719v1h-1c-.275 0-.537-.1-.718-.281L24 277.434l-1.281 1.285A1.015 1.015 0 0 1 22 279h-1v-1c0-.276.1-.538.281-.719l1.281-1.285-1.28-1.277A1.015 1.015 0 0 1 21 274z" color="#000" fill="#fff" style="text-decoration-line:none;text-indent:0;text-transform:none" transform="translate(-224 -220)"/><path d="M63 267h1.667c.46 0 .896.167 1.198.469L68 269.598l2.135-2.13c.302-.3.738-.468 1.198-.468H73v1.667c0 .46-.167.896-.469 1.198l-2.135 2.128 2.135 2.142c.302.302.471.738.469 1.198V277h-1.667c-.46 0-.896-.167-1.198-.469L68 274.39l-2.135 2.142c-.302.302-.738.469-1.198.469H63v-1.667c0-.46.167-.896.469-1.198l2.135-2.141-2.135-2.13c-.302-.301-.469-.737-.469-1.197z" color="#000" fill="#fff" style="text-decoration-line:none;text-indent:0;text-transform:none" transform="translate(-224 -220)"/><path d="M110 262h2c.552 0 1.076.2 1.438.563l2.562 2.554 2.563-2.554c.361-.362.885-.563 1.437-.563h2v2c0 .552-.2 1.076-.563 1.438l-2.562 2.554 2.563 2.57c.361.362.565.886.562 1.438v2h-2c-.552 0-1.076-.2-1.438-.563l-2.562-2.57-2.563 2.57c-.361.362-.885.563-1.437.563h-2v-2c0-.552.2-1.076.563-1.438l2.562-2.57-2.563-2.554c-.361-.362-.562-.886-.562-1.438z" color="#000" fill="#fff" style="text-decoration-line:none;text-indent:0;text-transform:none" transform="translate(-224 -220)"/><path d="M170 250h3.333c.92 0 1.793.334 2.396.937l4.27 4.258 4.272-4.258c.603-.603 1.475-.937 2.396-.937H190v3.333c0 .92-.334 1.793-.938 2.396l-4.27 4.258 4.27 4.284c.604.603.942 1.475.938 2.396V270h-3.333c-.921 0-1.793-.334-2.396-.938L180 264.78l-4.27 4.283c-.604.604-1.476.938-2.397.938H170v-3.333c0-.92.334-1.793.938-2.396l4.27-4.284-4.27-4.258c-.604-.603-.938-1.475-.938-2.396z" color="#000" fill="#fff" style="text-decoration-line:none;text-indent:0;text-transform:none" transform="translate(-224 -220)"/><path d="M244 240h4c1.105 0 2.151.401 2.875 1.125l5.125 5.11 5.125-5.11c.724-.724 1.77-1.125 2.875-1.125h4v4c0 1.105-.401 2.151-1.125 2.875l-5.125 5.11 5.125 5.14c.724.724 1.13 1.77 1.125 2.875v4h-4c-1.105 0-2.151-.401-2.875-1.125l-5.125-5.14-5.125 5.14c-.724.724-1.77 1.125-2.875 1.125h-4v-4c0-1.105.401-2.151 1.125-2.875l5.125-5.14-5.125-5.11c-.724-.724-1.125-1.77-1.125-2.875z" color="#000" fill="#fff" style="text-decoration-line:none;text-indent:0;text-transform:none" transform="translate(-224 -220)"/><path d="M352 196h8c2.21 0 4.302.802 5.75 2.25L376 208.469l10.25-10.219c1.448-1.448 3.54-2.25 5.75-2.25h8v8c0 2.21-.802 4.302-2.25 5.75l-10.25 10.219 10.25 10.281c1.448 1.448 2.261 3.54 2.25 5.75v8h-8c-2.21 0-4.302-.802-5.75-2.25L376 231.469l-10.25 10.281c-1.448 1.448-3.54 2.25-5.75 2.25h-8v-8c0-2.21.802-4.302 2.25-5.75l10.25-10.281-10.25-10.219c-1.448-1.448-2.25-3.54-2.25-5.75z" color="#000" fill="#fff" style="text-decoration-line:none;text-indent:0;text-transform:none" transform="translate(-224 -220)"/><path d="M544 108h16c4.418 0 8.605 1.605 11.5 4.5l20.5 20.437 20.5-20.437c2.895-2.895 7.082-4.5 11.5-4.5h16v16c0 4.418-1.605 8.605-4.5 11.5L615 155.937l20.5 20.563c2.895 2.896 4.522 7.082 4.5 11.5v16h-16c-4.418 0-8.605-1.605-11.5-4.5L592 178.937 571.5 199.5c-2.895 2.896-7.082 4.5-11.5 4.5h-16v-16c0-4.418 1.605-8.604 4.5-11.5l20.5-20.563-20.5-20.437c-2.895-2.896-4.5-7.082-4.5-11.5z" color="#000" fill="#fff" style="text-decoration-line:none;text-indent:0;text-transform:none" transform="translate(-224 -220)"/></svg>