<svg version="1.0" viewBox="0 0 64 64" xmlns="http://www.w3.org/2000/svg" xmlns:xlink="http://www.w3.org/1999/xlink"><g fill="#fff" fill-opacity=".902" transform="translate(-224 380)"><g id="a" stroke-linecap="square"><rect x="101" y="253" width="30" height="31" ry="15" fill="#7b736e" fill-opacity="1" stroke-width="2"/><path d="M116 253c-8.31 0-15 6.69-15 15v1c0 8.31 6.69 15 15 15s15-6.69 15-15v-1c0-8.31-6.69-15-15-15zm0 1c7.756 0 14 6.244 14 14s-6.244 14-14 14-14-6.244-14-14 6.244-14 14-14z" fill-opacity=".502" stroke-width="2"/><rect x="316" y="160" width="120" height="123" ry="60" fill="#7b736e" fill-opacity="1" stroke-width="8"/><rect x="226" y="222" width="60" height="62" ry="30" fill="#7b736e" fill-opacity="1" stroke-width="4"/><path d="M256 222c-16.62 0-30 13.38-30 30v2c0 16.62 13.38 30 30 30s30-13.38 30-30v-2c0-16.62-13.38-30-30-30zm0 1c16.066 0 29 12.934 29 29s-12.934 29-29 29-29-12.934-29-29 12.934-29 29-29z" fill-opacity=".502" stroke-width="4"/><rect x="472" y="36" width="240" height="244" ry="120" fill="#7b736e" fill-opacity="1" stroke-width="16"/><path d="M592 36c-66.48 0-120 53.52-120 120v4c0 66.48 53.52 120 120 120s120-53.52 120-120v-4c0-66.48-53.52-120-120-120zm0 1c65.926 0 119 53.074 119 119s-53.074 119-119 119-119-53.074-119-119S526.074 37 592 37z" fill-opacity=".502" stroke-width="16"/><path d="M376 160c-33.24 0-60 26.76-60 60v3c0 33.24 26.76 60 60 60s60-26.76 60-60v-3c0-33.24-26.76-60-60-60zm0 1c32.686 0 59 26.314 59 59s-26.314 59-59 59-59-26.314-59-59 26.314-59 59-59z" fill-opacity=".502" stroke-width="8"/><rect x="158" y="238" width="44" height="46" ry="22" fill="#7b736e" fill-opacity="1" stroke-width="2"/><path d="M180 238c-12.188 0-22 9.812-22 22v2c0 12.188 9.812 22 22 22s22-9.812 22-22v-2c0-12.188-9.812-22-22-22zm0 1c11.634 0 21 9.366 21 21s-9.366 21-21 21-21-9.366-21-21 9.366-21 21-21z" fill-opacity=".502" stroke-width="2"/><rect x="56" y="260" width="24" height="24" ry="12" fill="#7b736e" fill-opacity="1" stroke-width="2"/><path d="M68 260c-6.648 0-12 5.352-12 12s5.352 12 12 12 12-5.352 12-12-5.352-12-12-12zm0 1c6.094 0 11 4.906 11 11s-4.906 11-11 11-11-4.906-11-11 4.906-11 11-11z" fill-opacity=".502" stroke-width="2"/><rect x="16" y="268" width="16" height="16" ry="8" fill="#7b736e" fill-opacity="1" stroke-width="2"/><path d="M24 268c-4.432 0-8 3.568-8 8s3.568 8 8 8 8-3.568 8-8-3.568-8-8-8zm0 1c3.878 0 7 3.122 7 7s-3.122 7-7 7-7-3.122-7-7 3.122-7 7-7z" fill-opacity=".502" stroke-width="2"/></g><path d="M68 266a1 1 0 0 0-1 1 1 1 0 0 0 1 1 4 4 0 0 1 4 4h-2l3 4 3-4h-2a6 6 0 0 0-6-6zm-5 2-3 4h2a6 6 0 0 0 6 6 1 1 0 0 0 1-1 1 1 0 0 0-1-1 4 4 0 0 1-4-4h2z"/><path d="M116 262a1 1 0 0 0-1 1 1 1 0 0 0 1 1 4 4 0 0 1 4 4h-2l3 4 3-4h-2a6 6 0 0 0-6-6zm-5 2-3 4h2a6 6 0 0 0 6 6 1 1 0 0 0 1-1 1 1 0 0 0-1-1 4 4 0 0 1-4-4h2z"/><path d="M180 248a2 2 0 0 0-2 2 2 2 0 0 0 2 2 8 8 0 0 1 8 8h-4l6 8 6-8h-4a12 12 0 0 0-12-12zm-10 4-6 8h4a12 12 0 0 0 12 12 2 2 0 0 0 2-2 2 2 0 0 0-2-2 8 8 0 0 1-8-8h4z"/><path d="M256 234a3 3 0 0 0-3 3 3 3 0 0 0 3 3 12 12 0 0 1 12 12h-6l9 12 9-12h-6a18 18 0 0 0-18-18zm-15 6-9 12h6a18 18 0 0 0 18 18 3 3 0 0 0 3-3 3 3 0 0 0-3-3 12 12 0 0 1-12-12h6z"/><path d="M376 184a6 6 0 0 0-6 6 6 6 0 0 0 6 6 24 24 0 0 1 24 24h-12l18 24 18-24h-12a36 36 0 0 0-36-36zm-30 12-18 24h12a36 36 0 0 0 36 36 6 6 0 0 0 6-6 6 6 0 0 0-6-6 24 24 0 0 1-24-24h12z"/><path d="M592 84a12 12 0 0 0-12 12 12 12 0 0 0 12 12 48 48 0 0 1 48 48h-24l36 48 36-48h-24a72 72 0 0 0-72-72zm-60 24-36 48h24a72 72 0 0 0 72 72 12 12 0 0 0 12-12 12 12 0 0 0-12-12 48 48 0 0 1-48-48h24z"/><path d="M23 271a1 1 0 0 0 0 2 4 4 0 0 1 4 4h-2l3 4 3-4h-2a6 6 0 0 0-6-6zm-3 0-3 4h2a6 6 0 0 0 6 6 1 1 0 0 0 0-2 4 4 0 0 1-4-4h2z"/></g><g fill="#fff" transform="translate(-224 380)"><use id="b" transform="translate(0 -300)" width="100%" height="100%" xlink:href="#a"/><path d="m121.02-35.006 4 3-4 3v-2h-4v-2h4z" color="#bebebe"/><path d="M120.21-35.837a1 1 0 0 0-.357-.766 1 1 0 0 0-.116-.084 5.997 5.997 0 0 0-5.322-1.091 6.008 6.008 0 0 0-4.398 5.81 6.006 6.006 0 0 0 4.453 5.768 6 6 0 0 0 5.279-1.117 1 1 0 0 0 .461-.84 1 1 0 0 0-1-1 1 1 0 0 0-.656.244 3.985 3.985 0 0 1-3.569.781 3.991 3.991 0 0 1-2.968-3.846 3.992 3.992 0 0 1 2.931-3.875 3.987 3.987 0 0 1 3.611.772l.008.008a1 1 0 0 0 .002 0 1 1 0 0 0 .641.236 1 1 0 0 0 1-1z" color="#000" style="isolation:auto;mix-blend-mode:normal;text-decoration-color:#000;text-decoration-line:none;text-decoration-style:solid;text-indent:0;text-transform:none;white-space:normal"/><path d="m73.001-31.008 4 3-4 3v-2h-4v-2h4z" color="#bebebe"/><path d="M120.21-35.837a1 1 0 0 0-.357-.766 1 1 0 0 0-.116-.084 5.997 5.997 0 0 0-5.322-1.091 6.008 6.008 0 0 0-4.398 5.81 6.006 6.006 0 0 0 4.453 5.768 6 6 0 0 0 5.279-1.117 1 1 0 0 0 .461-.84 1 1 0 0 0-1-1 1 1 0 0 0-.656.244 3.985 3.985 0 0 1-3.569.781 3.991 3.991 0 0 1-2.968-3.846 3.992 3.992 0 0 1 2.931-3.875 3.987 3.987 0 0 1 3.611.772l.008.008a1 1 0 0 0 .002 0 1 1 0 0 0 .641.236 1 1 0 0 0 1-1z" color="#000" style="isolation:auto;mix-blend-mode:normal;text-decoration-color:#000;text-decoration-line:none;text-decoration-style:solid;text-indent:0;text-transform:none;white-space:normal" transform="translate(-48.019 3.998)"/><path d="m28.001-27 4 3-4 3v-2h-4v-2h4z" color="#bebebe"/><path d="M120.21-35.837a1 1 0 0 0-.357-.766 1 1 0 0 0-.116-.084 5.997 5.997 0 0 0-5.322-1.091 6.008 6.008 0 0 0-4.398 5.81 6.006 6.006 0 0 0 4.453 5.768 6 6 0 0 0 5.279-1.117 1 1 0 0 0 .461-.84 1 1 0 0 0-1-1 1 1 0 0 0-.656.244 3.985 3.985 0 0 1-3.569.781 3.991 3.991 0 0 1-2.968-3.846 3.992 3.992 0 0 1 2.931-3.875 3.987 3.987 0 0 1 3.611.772l.008.008a1 1 0 0 0 .002 0 1 1 0 0 0 .641.236 1 1 0 0 0 1-1z" color="#000" style="isolation:auto;mix-blend-mode:normal;text-decoration-color:#000;text-decoration-line:none;text-decoration-style:solid;text-indent:0;text-transform:none;white-space:normal" transform="translate(-92.019 7.994)"/><path d="m189.001-46 8 6-8 6v-4h-8v-4h8z" color="#bebebe"/><path d="M120.21-35.837a1 1 0 0 0-.357-.766 1 1 0 0 0-.116-.084 5.997 5.997 0 0 0-5.322-1.091 6.008 6.008 0 0 0-4.398 5.81 6.006 6.006 0 0 0 4.453 5.768 6 6 0 0 0 5.279-1.117 1 1 0 0 0 .461-.84 1 1 0 0 0-1-1 1 1 0 0 0-.656.244 3.985 3.985 0 0 1-3.569.781 3.991 3.991 0 0 1-2.968-3.846 3.992 3.992 0 0 1 2.931-3.875 3.987 3.987 0 0 1 3.611.772l.008.008a1 1 0 0 0 .002 0 1 1 0 0 0 .641.236 1 1 0 0 0 1-1z" color="#000" style="isolation:auto;mix-blend-mode:normal;text-decoration-color:#000;text-decoration-line:none;text-decoration-style:solid;text-indent:0;text-transform:none;white-space:normal" transform="matrix(2 0 0 2 -53.039 24.012)"/><path d="m270.002-57 12 9-12 9v-6h-12v-6h12z" color="#bebebe"/><path d="M120.21-35.837a1 1 0 0 0-.357-.766 1 1 0 0 0-.116-.084 5.997 5.997 0 0 0-5.322-1.091 6.008 6.008 0 0 0-4.398 5.81 6.006 6.006 0 0 0 4.453 5.768 6 6 0 0 0 5.279-1.117 1 1 0 0 0 .461-.84 1 1 0 0 0-1-1 1 1 0 0 0-.656.244 3.985 3.985 0 0 1-3.569.781 3.991 3.991 0 0 1-2.968-3.846 3.992 3.992 0 0 1 2.931-3.875 3.987 3.987 0 0 1 3.611.772l.008.008a1 1 0 0 0 .002 0 1 1 0 0 0 .641.236 1 1 0 0 0 1-1z" color="#000" style="isolation:auto;mix-blend-mode:normal;text-decoration-color:#000;text-decoration-line:none;text-decoration-style:solid;text-indent:0;text-transform:none;white-space:normal" transform="matrix(3 0 0 3 -93.058 48.018)"/><path d="m397-92.999 18 13.5-18 13.5v-9h-18v-9h18z" color="#bebebe"/><path d="M120.21-35.837a1 1 0 0 0-.357-.766 1 1 0 0 0-.116-.084 5.997 5.997 0 0 0-5.322-1.091 6.008 6.008 0 0 0-4.398 5.81 6.006 6.006 0 0 0 4.453 5.768 6 6 0 0 0 5.279-1.117 1 1 0 0 0 .461-.84 1 1 0 0 0-1-1 1 1 0 0 0-.656.244 3.985 3.985 0 0 1-3.569.781 3.991 3.991 0 0 1-2.968-3.846 3.992 3.992 0 0 1 2.931-3.875 3.987 3.987 0 0 1 3.611.772l.008.008a1 1 0 0 0 .002 0 1 1 0 0 0 .641.236 1 1 0 0 0 1-1z" color="#000" style="isolation:auto;mix-blend-mode:normal;text-decoration-color:#000;text-decoration-line:none;text-decoration-style:solid;text-indent:0;text-transform:none;white-space:normal" transform="matrix(4.5 0 0 4.5 -147.59 64.528)"/><path d="m631.01-170.994 36 27-36 27v-18h-36v-18h36z" color="#bebebe"/><path d="M120.21-35.837a1 1 0 0 0-.357-.766 1 1 0 0 0-.116-.084 5.997 5.997 0 0 0-5.322-1.091 6.008 6.008 0 0 0-4.398 5.81 6.006 6.006 0 0 0 4.453 5.768 6 6 0 0 0 5.279-1.117 1 1 0 0 0 .461-.84 1 1 0 0 0-1-1 1 1 0 0 0-.656.244 3.985 3.985 0 0 1-3.569.781 3.991 3.991 0 0 1-2.968-3.846 3.992 3.992 0 0 1 2.931-3.875 3.987 3.987 0 0 1 3.611.772l.008.008a1 1 0 0 0 .002 0 1 1 0 0 0 .641.236 1 1 0 0 0 1-1z" color="#000" style="isolation:auto;mix-blend-mode:normal;text-decoration-color:#000;text-decoration-line:none;text-decoration-style:solid;text-indent:0;text-transform:none;white-space:normal" transform="matrix(9 0 0 9 -458.17 144.06)"/></g><g fill="#fff" transform="translate(-224 380)"><use id="c" transform="translate(0 -300)" width="100%" height="100%" xlink:href="#b"/><path d="M116-338.001a1 1 0 0 0-1 1 1 1 0 0 0 0 .004v4.992a1 1 0 0 0 0 .004 1 1 0 0 0 1 1 1 1 0 0 0 1-1 1 1 0 0 0 0-.004v-4.992a1 1 0 0 0 0-.004 1 1 0 0 0-1-1z" color="#bebebe"/><path d="M111.16-335.19a1 1 0 0 0-.766.357 1 1 0 0 0-.084.116 5.997 5.997 0 0 0-1.091 5.322 6.008 6.008 0 0 0 5.81 4.398 6.006 6.006 0 0 0 5.768-4.453 5.999 5.999 0 0 0-1.117-5.279 1 1 0 0 0-.84-.461 1 1 0 0 0-1 1 1 1 0 0 0 .244.656 3.985 3.985 0 0 1 .781 3.569 3.991 3.991 0 0 1-3.846 2.968 3.992 3.992 0 0 1-3.875-2.931 3.987 3.987 0 0 1 .772-3.611l.008-.008a1 1 0 0 0 0-.002 1 1 0 0 0 .236-.641 1 1 0 0 0-1-1z" color="#000" style="isolation:auto;mix-blend-mode:normal;text-decoration-color:#000;text-decoration-line:none;text-decoration-style:solid;text-indent:0;text-transform:none;white-space:normal" transform="translate(1 -.031)"/><path d="M68-335.005a1 1 0 0 0-1 1 1 1 0 0 0 0 .004v4.992a1 1 0 0 0 0 .004 1 1 0 0 0 1 1 1 1 0 0 0 1-1 1 1 0 0 0 0-.004v-4.992a1 1 0 0 0 0-.004 1 1 0 0 0-1-1z" color="#bebebe"/><path d="M111.16-335.19a1 1 0 0 0-.766.357 1 1 0 0 0-.084.116 5.997 5.997 0 0 0-1.091 5.322 6.008 6.008 0 0 0 5.81 4.398 6.006 6.006 0 0 0 5.768-4.453 5.999 5.999 0 0 0-1.117-5.279 1 1 0 0 0-.84-.461 1 1 0 0 0-1 1 1 1 0 0 0 .244.656 3.985 3.985 0 0 1 .781 3.569 3.991 3.991 0 0 1-3.846 2.968 3.992 3.992 0 0 1-3.875-2.931 3.987 3.987 0 0 1 .772-3.611l.008-.008a1 1 0 0 0 0-.002 1 1 0 0 0 .236-.641 1 1 0 0 0-1-1z" color="#000" style="isolation:auto;mix-blend-mode:normal;text-decoration-color:#000;text-decoration-line:none;text-decoration-style:solid;text-indent:0;text-transform:none;white-space:normal" transform="translate(-47 2.965)"/><path d="M24-329.995a1 1 0 0 0-1 1 1 1 0 0 0 0 .004V-324a1 1 0 0 0 0 .004 1 1 0 0 0 1 1 1 1 0 0 0 1-1 1 1 0 0 0 0-.004v-4.992a1 1 0 0 0 0-.004 1 1 0 0 0-1-1z" color="#bebebe"/><path d="M111.16-335.19a1 1 0 0 0-.766.357 1 1 0 0 0-.084.116 5.997 5.997 0 0 0-1.091 5.322 6.008 6.008 0 0 0 5.81 4.398 6.006 6.006 0 0 0 5.768-4.453 5.999 5.999 0 0 0-1.117-5.279 1 1 0 0 0-.84-.461 1 1 0 0 0-1 1 1 1 0 0 0 .244.656 3.985 3.985 0 0 1 .781 3.569 3.991 3.991 0 0 1-3.846 2.968 3.992 3.992 0 0 1-3.875-2.931 3.987 3.987 0 0 1 .772-3.611l.008-.008a1 1 0 0 0 0-.002 1 1 0 0 0 .236-.641 1 1 0 0 0-1-1z" color="#000" style="isolation:auto;mix-blend-mode:normal;text-decoration-color:#000;text-decoration-line:none;text-decoration-style:solid;text-indent:0;text-transform:none;white-space:normal" transform="translate(-91 6.965)"/><path d="M180-352.97a2 2 0 0 0-2 2 2 2 0 0 0 0 .008v9.984a2 2 0 0 0 0 .008 2 2 0 0 0 2 2 2 2 0 0 0 2-2 2 2 0 0 0 0-.008v-9.984a2 2 0 0 0 0-.008 2 2 0 0 0-2-2z" color="#bebebe"/><path d="M111.16-335.19a1 1 0 0 0-.766.357 1 1 0 0 0-.084.116 5.997 5.997 0 0 0-1.091 5.322 6.008 6.008 0 0 0 5.81 4.398 6.006 6.006 0 0 0 5.768-4.453 5.999 5.999 0 0 0-1.117-5.279 1 1 0 0 0-.84-.461 1 1 0 0 0-1 1 1 1 0 0 0 .244.656 3.985 3.985 0 0 1 .781 3.569 3.991 3.991 0 0 1-3.846 2.968 3.992 3.992 0 0 1-3.875-2.931 3.987 3.987 0 0 1 .772-3.611l.008-.008a1 1 0 0 0 0-.002 1 1 0 0 0 .236-.641 1 1 0 0 0-1-1z" color="#000" style="isolation:auto;mix-blend-mode:normal;text-decoration-color:#000;text-decoration-line:none;text-decoration-style:solid;text-indent:0;text-transform:none;white-space:normal" transform="matrix(2 0 0 2 -50 322.97)"/><path d="M256-368a3 3 0 0 0-3 3 3 3 0 0 0 0 .012v14.977a3 3 0 0 0 0 .012 3 3 0 0 0 3 3 3 3 0 0 0 3-3 3 3 0 0 0 0-.012v-14.977a3 3 0 0 0 0-.012 3 3 0 0 0-3-3z" color="#bebebe"/><path d="M111.16-335.19a1 1 0 0 0-.766.357 1 1 0 0 0-.084.116 5.997 5.997 0 0 0-1.091 5.322 6.008 6.008 0 0 0 5.81 4.398 6.006 6.006 0 0 0 5.768-4.453 5.999 5.999 0 0 0-1.117-5.279 1 1 0 0 0-.84-.461 1 1 0 0 0-1 1 1 1 0 0 0 .244.656 3.985 3.985 0 0 1 .781 3.569 3.991 3.991 0 0 1-3.846 2.968 3.992 3.992 0 0 1-3.875-2.931 3.987 3.987 0 0 1 .772-3.611l.008-.008a1 1 0 0 0 0-.002 1 1 0 0 0 .236-.641 1 1 0 0 0-1-1z" color="#000" style="isolation:auto;mix-blend-mode:normal;text-decoration-color:#000;text-decoration-line:none;text-decoration-style:solid;text-indent:0;text-transform:none;white-space:normal" transform="matrix(3 0 0 3 -89 645.91)"/><path d="M376-408.965c-2.485 0-5 1.997-5 4.482v22.501c0 2.485 2.515 4.518 5 4.518s5-2.033 5-4.518v-22.501c0-2.485-2.515-4.482-5-4.482z" color="#bebebe"/><path d="M111.16-335.19a1 1 0 0 0-.766.357 1 1 0 0 0-.084.116 5.997 5.997 0 0 0-1.091 5.322 6.008 6.008 0 0 0 5.81 4.398 6.006 6.006 0 0 0 5.768-4.453 5.999 5.999 0 0 0-1.117-5.279 1 1 0 0 0-.84-.461 1 1 0 0 0-1 1 1 1 0 0 0 .244.656 3.985 3.985 0 0 1 .781 3.569 3.991 3.991 0 0 1-3.846 2.968 3.992 3.992 0 0 1-3.875-2.931 3.987 3.987 0 0 1 .772-3.611l.008-.008a1 1 0 0 0 0-.002 1 1 0 0 0 .236-.641 1 1 0 0 0-1-1z" color="#000" style="isolation:auto;mix-blend-mode:normal;text-decoration-color:#000;text-decoration-line:none;text-decoration-style:solid;text-indent:0;text-transform:none;white-space:normal" transform="matrix(4.5 0 0 4.5 -141.5 1111.9)"/><path d="M592-502.03c-4.97 0-10 3.993-10 8.964v45.002c0 4.97 5.03 9.036 10 9.036s10-4.066 10-9.036v-45.002c0-4.97-5.03-8.964-10-8.964z" color="#bebebe"/><path d="M111.16-335.19a1 1 0 0 0-.766.357 1 1 0 0 0-.084.116 5.997 5.997 0 0 0-1.091 5.322 6.008 6.008 0 0 0 5.81 4.398 6.006 6.006 0 0 0 5.768-4.453 5.999 5.999 0 0 0-1.117-5.279 1 1 0 0 0-.84-.461 1 1 0 0 0-1 1 1 1 0 0 0 .244.656 3.985 3.985 0 0 1 .781 3.569 3.991 3.991 0 0 1-3.846 2.968 3.992 3.992 0 0 1-3.875-2.931 3.987 3.987 0 0 1 .772-3.611l.008-.008a1 1 0 0 0 0-.002 1 1 0 0 0 .236-.641 1 1 0 0 0-1-1z" color="#000" style="isolation:auto;mix-blend-mode:normal;text-decoration-color:#000;text-decoration-line:none;text-decoration-style:solid;text-indent:0;text-transform:none;white-space:normal" transform="matrix(9 0 0 9 -443 2539.7)"/></g><g fill="#fff" transform="translate(-224 380)"><use id="d" transform="translate(0 -300)" width="100%" height="100%" xlink:href="#c"/><path d="M116.65-638.99c-2.763.101-5.309 1.805-6.313 4.563-1.322 3.632.524 7.677 4.157 9 2.758 1.003 5.74.144 7.594-1.907a6.478 6.478 0 0 1-4.22-.062c-3.373-1.228-5.102-4.97-3.874-8.344.514-1.413 1.474-2.508 2.656-3.25z" color="#bebebe"/><path d="M68.651-634.99c-2.763.101-5.309 1.805-6.313 4.563-1.322 3.632.524 7.677 4.157 9 2.758 1.003 5.74.144 7.593-1.907a6.478 6.478 0 0 1-4.218-.062c-3.374-1.228-5.103-4.97-3.875-8.344.514-1.413 1.474-2.508 2.656-3.25z" color="#bebebe"/><path d="M23.981-629.24a5.142 5.142 0 0 0-4.665 3.426c-.978 2.728.386 5.765 3.071 6.758 2.039.754 4.243.11 5.613-1.431a4.716 4.716 0 0 1-3.118-.047c-2.493-.922-3.772-3.732-2.864-6.266a4.799 4.799 0 0 1 1.963-2.44z" color="#bebebe"/><path d="M180.98-650.49c-4.144.152-7.963 2.707-9.469 6.844-1.983 5.45.785 11.517 6.235 13.5 4.136 1.505 8.61.217 11.39-2.86-1.991.643-4.209.678-6.328-.093-5.06-1.842-7.654-7.456-5.812-12.516.771-2.12 2.212-3.763 3.984-4.875z" color="#bebebe"/><path d="M257.47-663.73c-6.216.228-11.945 4.06-14.203 10.266-2.975 8.174 1.178 17.275 9.352 20.25 6.205 2.259 12.915.326 17.086-4.29-2.988.965-6.314 1.017-9.493-.14-7.59-2.762-11.48-11.183-8.718-18.773 1.157-3.178 3.317-5.643 5.976-7.312z" color="#bebebe"/><path d="M378.93-711.46c-12.432.456-23.889 8.12-28.406 20.531-5.95 16.348 2.355 34.55 18.703 40.5 12.411 4.517 25.831.652 34.172-8.578-5.975 1.929-12.627 2.032-18.984-.281-15.18-5.525-22.963-22.367-17.438-37.547 2.314-6.357 6.635-11.288 11.953-14.625z" color="#bebebe"/><path d="M597.86-806.92c-24.865.913-47.778 16.241-56.812 41.063-11.9 32.696 4.71 69.1 37.406 81 24.821 9.034 51.661 1.305 68.344-17.156-11.95 3.857-25.255 4.065-37.969-.562-30.36-11.05-45.925-44.734-34.875-75.094 4.627-12.714 13.27-22.575 23.906-29.25z" color="#bebebe"/></g><g transform="translate(-224 380)"><use transform="translate(0 -300)" width="100%" height="100%" xlink:href="#d"/><path d="M116.65-938.99c-2.763.101-5.309 1.805-6.313 4.563-1.322 3.632.524 7.677 4.157 9 2.758 1.003 5.74.144 7.594-1.907a6.478 6.478 0 0 1-4.22-.062c-3.373-1.228-5.102-4.97-3.874-8.344.514-1.413 1.474-2.508 2.656-3.25z" color="#bebebe" fill="#fff"/><path d="M68.651-934.99c-2.763.101-5.309 1.805-6.313 4.563-1.322 3.632.524 7.677 4.157 9 2.758 1.003 5.74.144 7.593-1.907a6.478 6.478 0 0 1-4.218-.062c-3.374-1.228-5.103-4.97-3.875-8.344.514-1.413 1.474-2.508 2.656-3.25z" color="#bebebe" fill="#fff"/><path d="M23.981-929.24a5.142 5.142 0 0 0-4.665 3.426c-.978 2.728.386 5.765 3.071 6.758 2.039.754 4.243.11 5.613-1.431a4.716 4.716 0 0 1-3.118-.047c-2.493-.922-3.772-3.732-2.864-6.266a4.799 4.799 0 0 1 1.963-2.44z" color="#bebebe" fill="#fff"/><path d="M180.98-950.49c-4.144.152-7.963 2.707-9.469 6.844-1.983 5.45.785 11.517 6.235 13.5 4.136 1.505 8.61.217 11.39-2.86-1.991.643-4.209.678-6.328-.093-5.06-1.842-7.654-7.456-5.812-12.516.771-2.12 2.212-3.763 3.984-4.875z" color="#bebebe" fill="#fff"/><path d="M257.47-963.73c-6.216.228-11.945 4.06-14.203 10.266-2.975 8.174 1.178 17.275 9.352 20.25 6.205 2.259 12.915.326 17.086-4.29-2.988.965-6.314 1.017-9.493-.14-7.59-2.762-11.48-11.183-8.718-18.773 1.157-3.178 3.317-5.643 5.976-7.312z" color="#bebebe" fill="#fff"/><path d="M378.93-1011.5c-12.432.457-23.889 8.12-28.406 20.531-5.95 16.348 2.355 34.55 18.703 40.5 12.411 4.517 25.831.652 34.172-8.578-5.975 1.929-12.627 2.032-18.984-.281-15.18-5.525-22.963-22.367-17.438-37.547 2.314-6.357 6.635-11.288 11.953-14.625z" color="#bebebe" fill="#fff"/><path d="M597.86-1106.9c-24.865.913-47.778 16.241-56.812 41.063-11.9 32.696 4.71 69.1 37.406 81 24.821 9.034 51.661 1.305 68.344-17.156-11.95 3.857-25.255 4.065-37.969-.562-30.36-11.05-45.925-44.734-34.875-75.094 4.627-12.714 13.27-22.575 23.906-29.25z" color="#bebebe" fill="#fff"/><path d="M182-949c-1 0-1 1-1 1v12s0 1 1 1h10s1 0 1-1v-12s0-1-1-1zm5 2a4 4 0 0 1 0 8h-4v-4a4 4 0 0 1 4-4zm0 2a2 2 0 1 0 0 4 2 2 0 0 0 0-4z" fill="#fff" filter="url(#filter7554)"/><path d="M257-957c-1 0-1 1-1 1v12s0 1 1 1h10s1 0 1-1v-12s0-1-1-1zm5 2a4 4 0 0 1 0 8h-4v-4a4 4 0 0 1 4-4zm0 2a2 2 0 1 0 0 4 2 2 0 0 0 0-4z" fill="#fff" filter="url(#filter7554)"/><path d="M376-997c-2 0-2 2-2 2v24s0 2 2 2h20s2 0 2-2v-24s0-2-2-2zm10 4a8 8 0 1 1 0 16h-8v-8a8 8 0 0 1 8-8zm0 4a4 4 0 1 0 0 8 4 4 0 0 0 0-8z" fill="#fff" filter="url(#filter7554)"/><path d="M591-1079c-4 0-4 4-4 4v48s0 4 4 4h40s4 0 4-4v-48s0-4-4-4zm20 8c8.837 0 16 7.163 16 16s-7.163 16-16 16h-16v-16c0-8.837 7.163-16 16-16zm0 8a8 8 0 1 0 0 16 8 8 0 0 0 0-16z" fill="#fff" filter="url(#filter7554)"/><path d="M116.5-937c-.5 0-.5.5-.5.5v6s0 .5.5.5h5s.5 0 .5-.5v-6s0-.5-.5-.5zm2.5 1a2 2 0 1 1 0 4h-2v-2a2 2 0 0 1 2-2zm0 1a1 1 0 1 0 0 2 1 1 0 0 0 0-2z" fill="#fff" filter="url(#filter7554)"/><path d="M68.5-933c-.5 0-.5.5-.5.5v6s0 .5.5.5h5s.5 0 .5-.5v-6s0-.5-.5-.5zm2.5 1a2 2 0 1 1 0 4h-2v-2a2 2 0 0 1 2-2zm0 1a1 1 0 1 0 0 2 1 1 0 0 0 0-2z" fill="#fff" filter="url(#filter7554)"/><path d="M24.5-929c-.5 0-.5.5-.5.5v6s0 .5.5.5h5s.5 0 .5-.5v-6s0-.5-.5-.5zm2.5 1a2 2 0 1 1 0 4h-2v-2a2 2 0 0 1 2-2zm0 1a1 1 0 1 0 0 2 1 1 0 0 0 0-2z" fill="#fff" filter="url(#filter7554)"/></g></svg>