<svg version="1.0" viewBox="0 0 64 64" xmlns="http://www.w3.org/2000/svg"><g transform="translate(-224 380)"><rect x="226" y="-378" width="60" height="62" ry="30" fill="#7b736e"/><path d="M256-378c-16.62 0-30 13.38-30 30v2c0 16.62 13.38 30 30 30s30-13.38 30-30v-2c0-16.62-13.38-30-30-30zm0 1c16.066 0 29 12.934 29 29s-12.934 29-29 29-29-12.934-29-29 12.934-29 29-29z" fill="#fff" fill-opacity=".502"/><path d="M256-368a3 3 0 0 0-3 3 3 3 0 0 0 0 .012v14.977a3 3 0 0 0 0 .012 3 3 0 0 0 3 3 3 3 0 0 0 3-3 3 3 0 0 0 0-.012v-14.977a3 3 0 0 0 0-.012 3 3 0 0 0-3-3z" color="#bebebe" fill="#fff"/><path d="M244.48-359.67a3 3 0 0 0-2.297 1.072 3 3 0 0 0-.252.346c-3.492 4.41-4.84 10.313-3.275 15.967 2.163 7.815 9.323 13.234 17.432 13.195 8.108-.039 15.213-5.524 17.303-13.359 1.5-5.625.123-11.47-3.352-15.838a3 3 0 0 0-2.52-1.383 3 3 0 0 0-3 3 3 3 0 0 0 .733 1.969 11.953 11.953 0 0 1 2.344 10.705 11.973 11.973 0 0 1-11.537 8.906 11.975 11.975 0 0 1-11.625-8.795 11.962 11.962 0 0 1 2.314-10.834c.006-.009.015-.015.024-.024a3 3 0 0 0 0-.006 3 3 0 0 0 .71-1.922 3 3 0 0 0-3-3z" color="#000" fill="#fff" style="isolation:auto;mix-blend-mode:normal;text-decoration-color:#000;text-decoration-line:none;text-decoration-style:solid;text-indent:0;text-transform:none;white-space:normal"/></g></svg>