<svg version="1.0" viewBox="0 0 64 64" xmlns="http://www.w3.org/2000/svg"><g transform="translate(-224 80)"><rect x="226" y="-78" width="60" height="62" ry="30" fill="#7b736e"/><path d="M256-78c-16.62 0-30 13.38-30 30v2c0 16.62 13.38 30 30 30s30-13.38 30-30v-2c0-16.62-13.38-30-30-30zm0 1c16.066 0 29 12.934 29 29s-12.934 29-29 29-29-12.934-29-29 12.934-29 29-29z" fill="#fff" fill-opacity=".502"/><path d="m270-57 12 9-12 9v-6h-12v-6h12z" color="#bebebe" fill="#fff"/><path d="M267.58-59.493a3 3 0 0 0-1.072-2.297 3 3 0 0 0-.346-.252c-4.41-3.492-10.313-4.84-15.967-3.275-7.815 2.163-13.234 9.323-13.195 17.432.039 8.108 5.524 15.213 13.359 17.303 5.625 1.5 11.47.123 15.838-3.352a3 3 0 0 0 1.383-2.52 3 3 0 0 0-3-3 3 3 0 0 0-1.969.733 11.953 11.953 0 0 1-10.705 2.344A11.973 11.973 0 0 1 243-47.914a11.975 11.975 0 0 1 8.795-11.625 11.962 11.962 0 0 1 10.834 2.314c.009.006.015.015.024.024a3 3 0 0 0 .006 0 3 3 0 0 0 1.922.71 3 3 0 0 0 3-3z" color="#000" fill="#fff" style="isolation:auto;mix-blend-mode:normal;text-decoration-color:#000;text-decoration-line:none;text-decoration-style:solid;text-indent:0;text-transform:none;white-space:normal"/></g></svg>