<svg version="1.0" viewBox="0 0 64 64" xmlns="http://www.w3.org/2000/svg"><g transform="translate(-224 380)"><rect x="241" y="-340" width="30" height="18" ry="2" fill="#424242"/><rect x="242" y="-340" width="28" height="15" ry="2" fill="#848484"/><rect x="228" y="-372" width="56" height="40" ry="3" fill="#6f6f6f"/><rect x="229" y="-371" width="54" height="36" ry="2" fill="#acacac"/><rect x="231" y="-369" width="50" height="28" ry=".5" fill="#424242"/><rect x="250" y="-339" width="12" height="2" ry=".5" fill="#424242"/><path d="M256.5-366a5.5 5.5 0 0 0-5.5 5.5 5.47 5.47 0 0 0 3.34 5.058L251-344h11l-3.34-11.442A5.47 5.47 0 0 0 262-360.5a5.5 5.5 0 0 0-5.5-5.5z" color="#000" fill="#fff"/></g></svg>