<svg version="1.0" viewBox="0 0 64 64" xmlns="http://www.w3.org/2000/svg"><g transform="translate(-224 980)"><rect x="226" y="-978" width="60" height="62" ry="30" fill="#7b736e"/><path d="M256-978c-16.62 0-30 13.38-30 30v2c0 16.62 13.38 30 30 30s30-13.38 30-30v-2c0-16.62-13.38-30-30-30zm0 1c16.066 0 29 12.934 29 29s-12.934 29-29 29-29-12.934-29-29 12.934-29 29-29z" fill="#fff" fill-opacity=".502"/><path d="M257.47-963.73c-6.216.228-11.945 4.06-14.203 10.266-2.975 8.174 1.178 17.275 9.352 20.25 6.205 2.259 12.915.326 17.086-4.29-2.988.965-6.314 1.017-9.493-.14-7.59-2.762-11.48-11.183-8.718-18.773 1.157-3.178 3.317-5.643 5.976-7.312z" color="#bebebe" fill="#fff"/><path d="M257-957c-1 0-1 1-1 1v12s0 1 1 1h10s1 0 1-1v-12s0-1-1-1zm5 2a4 4 0 0 1 0 8h-4v-4a4 4 0 0 1 4-4zm0 2a2 2 0 1 0 0 4 2 2 0 0 0 0-4z" fill="#fff" filter="url(#filter7554)"/></g></svg>