<svg version="1.0" viewBox="0 0 64 64" xmlns="http://www.w3.org/2000/svg"><g transform="translate(-224 -220)"><rect x="226" y="222" width="60" height="62" ry="30" fill="#73c48f"/><path d="M256 222c-16.62 0-30 13.38-30 30v2c0 16.62 13.38 30 30 30s30-13.38 30-30v-2c0-16.62-13.38-30-30-30zm0 1c16.066 0 29 12.934 29 29s-12.934 29-29 29-29-12.934-29-29 12.934-29 29-29z" fill-opacity=".502"/><path d="M256 235a3 3 0 0 0-3 3 3 3 0 0 0 3 3 12 12 0 0 1 12 12h-6l9 12 9-12h-6a18 18 0 0 0-18-18zm-15 6-9 12h6a18 18 0 0 0 18 18 3 3 0 0 0 3-3 3 3 0 0 0-3-3 12 12 0 0 1-12-12h6z" fill-opacity=".196"/><path d="M256 234a3 3 0 0 0-3 3 3 3 0 0 0 3 3 12 12 0 0 1 12 12h-6l9 12 9-12h-6a18 18 0 0 0-18-18zm-15 6-9 12h6a18 18 0 0 0 18 18 3 3 0 0 0 3-3 3 3 0 0 0-3-3 12 12 0 0 1-12-12h6z" fill="#fff"/></g></svg>