<svg version="1.0" viewBox="0 0 64 64" xmlns="http://www.w3.org/2000/svg"><g transform="translate(-224 -220)"><rect x="230" y="226" width="52" height="54" ry="4" fill="#7b736e"/><path d="M234 226c-2.216 0-4 1.784-4 4v46c0 2.216 1.784 4 4 4h44c2.216 0 4-1.784 4-4v-46c0-2.216-1.784-4-4-4zm0 1h44c1.662 0 3 1.338 3 3v44c0 1.662-1.338 3-3 3h-44c-1.662 0-3-1.338-3-3v-44c0-1.662 1.338-3 3-3z" fill="#fff" fill-opacity=".502"/><path d="M253 240.01h6v8.989l9 .012v6l-9-.012v9.011h-6v-9.011l-9 .012v-6l9-.012z" color="#bebebe" fill="#fff" fill-opacity=".902"/></g></svg>