<svg version="1.0" viewBox="0 0 64 64" xmlns="http://www.w3.org/2000/svg"><g transform="translate(-224 80)"><rect x="230" y="-74" width="52" height="54" ry="4" fill="#7b736e"/><path d="M234-74c-2.216 0-4 1.784-4 4v46c0 2.216 1.784 4 4 4h44c2.216 0 4-1.784 4-4v-46c0-2.216-1.784-4-4-4zm0 1h44c1.662 0 3 1.338 3 3v44c0 1.662-1.338 3-3 3h-44c-1.662 0-3-1.338-3-3v-44c0-1.662 1.338-3 3-3z" fill="#fff" fill-opacity=".502"/><path d="M268-50.988v6h-24v-6z" color="#bebebe" fill="#fff" fill-opacity=".902"/></g></svg>