<svg version="1.0" viewBox="0 0 8 8" xmlns="http://www.w3.org/2000/svg"><g transform="translate(-16 -276)"><rect transform="matrix(0 -1 -1 0 0 0)" x="-284" y="-24" width="8" height="8" rx="1" ry="1" fill="#888"/><rect x="16.5" y="276.5" width="7" height="7" ry=".5" fill="#73c48f" stroke="#000" stroke-linecap="square" stroke-opacity=".502"/><path d="M23 280h-.75a2.25 2.25 0 0 0-1.652-2.168c-.012-.003-.024-.009-.035-.012-.096-.024-.193-.035-.293-.047-.088-.01-.18-.023-.27-.023-.231 0-.46.036-.68.105v.012c-.315.1-.605.26-.843.48l.445.598a1.49 1.49 0 0 1 .703-.387v-.011c.143-.034.296-.046.445-.035A1.488 1.488 0 0 1 21.5 280h-.75l1.125 1.5L23 280zm-1.477 1.652-.445-.597a1.49 1.49 0 0 1-.703.386v.012a1.503 1.503 0 0 1-.445.035A1.488 1.488 0 0 1 18.5 280h.75l-1.125-1.5L17 280h.75c0 1.036.7 1.906 1.652 2.168.012.003.023.009.035.012.096.024.193.035.293.047.088.01.18.023.27.023.231 0 .46-.036.68-.105v-.012c.315-.1.605-.26.843-.48z" fill="#474341"/></g></svg>