<svg version="1.0" viewBox="0 0 8 8" xmlns="http://www.w3.org/2000/svg"><g transform="translate(-16 -276)"><rect transform="matrix(0 -1 -1 0 0 0)" x="-284" y="-24" width="8" height="8" rx="1" ry="1" fill="#574f4a"/><rect x="16.5" y="276.5" width="7" height="7" ry=".5" fill="none" stroke="#000" stroke-linecap="square" stroke-opacity=".502"/><path d="m19.125 276.5-.077.922a2.75 2.75 0 0 0-.804.465l-.838-.395-.875 1.516.76.528a2.75 2.75 0 0 0-.041.464 2.75 2.75 0 0 0 .04.466l-.759.526.875 1.516.836-.394a2.75 2.75 0 0 0 .806.462l.077.924h1.75l.077-.922a2.75 2.75 0 0 0 .804-.465l.838.395.875-1.516-.76-.528a2.75 2.75 0 0 0 .041-.464 2.75 2.75 0 0 0-.04-.466l.759-.526-.875-1.516-.836.394a2.75 2.75 0 0 0-.806-.462l-.077-.924zM20 279a1 1 0 0 1 1 1 1 1 0 0 1-1 1 1 1 0 0 1-1-1 1 1 0 0 1 1-1z" fill="#fff"/></g></svg>