<svg version="1.0" viewBox="0 0 8 8" xmlns="http://www.w3.org/2000/svg"><g transform="translate(-16 -276)"><rect transform="matrix(0 -1 -1 0 0 0)" x="-284" y="-24" width="8" height="8" rx="1" ry="1" fill="#cf3b00"/><rect x="16.5" y="276.5" width="7" height="7" ry=".5" fill="none" stroke="#000" stroke-linecap="square" stroke-opacity=".502"/><path d="M18.827 277.81c-.759 0-1.378.61-1.378 1.367 0 .393.166.752.433 1.002l2.084 2.005 2.153-2.005a1.37 1.37 0 0 0 .433-1.002c0-.756-.62-1.367-1.379-1.367-.5 0-.933.263-1.173.66a1.364 1.364 0 0 0-1.173-.66z" fill="#fff"/></g></svg>