<svg version="1.0" viewBox="0 0 8 8" xmlns="http://www.w3.org/2000/svg"><g transform="translate(-16 -276)"><rect transform="matrix(0 -1 -1 0 0 0)" x="-284" y="-66" width="16" height="16" rx="8" ry="8" fill="#574f4a"/><rect transform="matrix(0 -1 -1 0 0 0)" x="-284" y="-24" width="8" height="8" rx="1" ry="1" fill="#574f4a"/><circle cx="102" cy="272" r="12" fill="#888"/><rect x="192" y="238" width="44" height="46" ry="22" fill="#574f4a"/><rect x="135" y="253" width="30" height="31" ry="15" fill="#574f4a"/><path d="M150 253c-8.31 0-15 6.69-15 15v1c0 8.31 6.69 15 15 15s15-6.69 15-15v-1c0-8.31-6.69-15-15-15zm0 1a14 14 0 0 1 14 14 14 14 0 0 1-14 14 14 14 0 0 1-14-14 14 14 0 0 1 14-14z" fill-opacity=".502"/><rect x="260" y="222" width="60" height="62" ry="30" fill="#574f4a"/><path d="M290 222c-16.62 0-30 13.38-30 30v2c0 16.62 13.38 30 30 30s30-13.38 30-30v-2c0-16.62-13.38-30-30-30zm0 1a29 29 0 0 1 29 29 29 29 0 0 1-29 29 29 29 0 0 1-29-29 29 29 0 0 1 29-29z" fill-opacity=".502"/><rect x="16.5" y="276.5" width="7" height="7" ry=".5" fill="none" stroke="#000" stroke-linecap="square" stroke-opacity=".502"/><rect x="50.5" y="268.5" width="15" height="15" ry="7.5" fill="none" stroke="#000" stroke-linecap="square" stroke-opacity=".502"/><rect x="90.5" y="260.5" width="23" height="23" ry="11.478" fill="#574f4a" stroke="#000" stroke-linecap="square" stroke-opacity=".502"/><path d="M214 238c-12.188 0-22 9.812-22 22v2c0 12.188 9.812 22 22 22s22-9.812 22-22v-2c0-12.188-9.812-22-22-22zm0 1a21 21 0 0 1 21 21 21 21 0 0 1-21 21 21 21 0 0 1-21-21 21 21 0 0 1 21-21z" fill-opacity=".502"/><path d="m100.25 265-.154 1.844a5.5 5.5 0 0 0-1.608.93l-1.676-.79-1.75 3.032 1.522 1.056a5.5 5.5 0 0 0-.084.928 5.5 5.5 0 0 0 .08.932l-1.517 1.052 1.75 3.032 1.671-.788a5.5 5.5 0 0 0 1.612.924l.154 1.848h3.5l.154-1.844a5.5 5.5 0 0 0 1.608-.93l1.676.79 1.75-3.032-1.522-1.056a5.5 5.5 0 0 0 .084-.928 5.5 5.5 0 0 0-.08-.932l1.517-1.052-1.75-3.032-1.671.788a5.5 5.5 0 0 0-1.612-.924L103.75 265zm1.75 5a2 2 0 0 1 2 2 2 2 0 0 1-2 2 2 2 0 0 1-2-2 2 2 0 0 1 2-2z" fill="#fff"/><path d="m148.25 261.5-.154 1.844a5.5 5.5 0 0 0-1.608.93l-1.676-.79-1.75 3.032 1.522 1.056a5.5 5.5 0 0 0-.084.928 5.5 5.5 0 0 0 .08.932l-1.518 1.052 1.75 3.032 1.672-.788a5.5 5.5 0 0 0 1.612.924l.154 1.848h3.5l.154-1.844a5.5 5.5 0 0 0 1.608-.93l1.675.79 1.75-3.032-1.521-1.056a5.5 5.5 0 0 0 .084-.928 5.5 5.5 0 0 0-.08-.932l1.518-1.052-1.75-3.032-1.672.788a5.5 5.5 0 0 0-1.612-.924l-.154-1.848zm1.75 5a2 2 0 0 1 2 2 2 2 0 0 1-2 2 2 2 0 0 1-2-2 2 2 0 0 1 2-2z" fill="#fff"/><path d="m211.38 250.5-.231 2.766a8.25 8.25 0 0 0-2.412 1.394l-2.513-1.183-2.625 4.546 2.282 1.585a8.25 8.25 0 0 0-.126 1.392 8.25 8.25 0 0 0 .12 1.397l-2.276 1.58 2.625 4.546 2.507-1.18a8.25 8.25 0 0 0 2.417 1.386l.232 2.771h5.25l.231-2.766a8.25 8.25 0 0 0 2.411-1.394l2.514 1.184 2.625-4.547-2.282-1.585a8.25 8.25 0 0 0 .126-1.392 8.25 8.25 0 0 0-.12-1.397l2.276-1.58-2.625-4.546-2.508 1.18a8.25 8.25 0 0 0-2.417-1.386l-.231-2.771zm2.625 7.5a3 3 0 0 1 3 3 3 3 0 0 1-3 3 3 3 0 0 1-3-3 3 3 0 0 1 3-3z" fill="#fff"/><path d="m286.5 239-.309 3.688a11 11 0 0 0-3.214 1.859l-3.352-1.578-3.5 6.062 3.043 2.114A11 11 0 0 0 279 253a11 11 0 0 0 .16 1.863l-3.035 2.106 3.5 6.062 3.344-1.574a11 11 0 0 0 3.222 1.848L286.5 267h7l.309-3.687a11 11 0 0 0 3.214-1.86l3.352 1.578 3.5-6.062-3.043-2.114A11 11 0 0 0 301 253a11 11 0 0 0-.16-1.863l3.035-2.106-3.5-6.062-3.344 1.574a11 11 0 0 0-3.222-1.848L293.5 239zm3.5 10a4 4 0 0 1 4 4 4 4 0 0 1-4 4 4 4 0 0 1-4-4 4 4 0 0 1 4-4z" fill="#fff"/><path d="m56.688 270.75-.116 1.383a4.125 4.125 0 0 0-1.205.697l-1.257-.592-1.313 2.274 1.141.792a4.125 4.125 0 0 0-.063.696 4.125 4.125 0 0 0 .06.699l-1.138.79 1.313 2.273 1.254-.59a4.125 4.125 0 0 0 1.208.692l.116 1.386h2.625l.116-1.383a4.125 4.125 0 0 0 1.205-.697l1.257.592 1.313-2.274-1.142-.792a4.125 4.125 0 0 0 .063-.696 4.125 4.125 0 0 0-.06-.699l1.139-.79-1.313-2.273-1.254.59a4.125 4.125 0 0 0-1.208-.692l-.116-1.386zm1.313 3.75a1.5 1.5 0 0 1 1.5 1.5 1.5 1.5 0 0 1-1.5 1.5 1.5 1.5 0 0 1-1.5-1.5 1.5 1.5 0 0 1 1.5-1.5z" fill="#fff"/><path d="m19.125 276.5-.077.922a2.75 2.75 0 0 0-.804.465l-.838-.395-.875 1.516.76.528a2.75 2.75 0 0 0-.041.464 2.75 2.75 0 0 0 .04.466l-.759.526.875 1.516.836-.394a2.75 2.75 0 0 0 .806.462l.077.924h1.75l.077-.922a2.75 2.75 0 0 0 .804-.465l.838.395.875-1.516-.76-.528a2.75 2.75 0 0 0 .041-.464 2.75 2.75 0 0 0-.04-.466l.759-.526-.875-1.516-.836.394a2.75 2.75 0 0 0-.806-.462l-.077-.924zM20 279a1 1 0 0 1 1 1 1 1 0 0 1-1 1 1 1 0 0 1-1-1 1 1 0 0 1 1-1z" fill="#fff"/></g></svg>