<svg version="1.0" viewBox="0 0 8 8" xmlns="http://www.w3.org/2000/svg"><g transform="translate(-16 -276)"><rect transform="matrix(0 -1 -1 0 0 0)" x="-284" y="-66" width="16" height="16" rx="8" ry="8" fill="#cf3b00"/><rect transform="matrix(0 -1 -1 0 0 0)" x="-284" y="-24" width="8" height="8" rx="1" ry="1" fill="#cf3b00"/><circle cx="102" cy="272" r="12" fill="#cf3b00"/><rect x="192" y="238" width="44" height="46" ry="22" fill="#cf3b00"/><rect x="135" y="253" width="30" height="31" ry="15" fill="#cf3b00"/><path d="M150 253c-8.31 0-15 6.69-15 15v1c0 8.31 6.69 15 15 15s15-6.69 15-15v-1c0-8.31-6.69-15-15-15zm0 1a14 14 0 0 1 14 14 14 14 0 0 1-14 14 14 14 0 0 1-14-14 14 14 0 0 1 14-14z" fill-opacity=".502"/><rect x="260" y="222" width="60" height="62" ry="30" fill="#cf3b00"/><path d="M290 222c-16.62 0-30 13.38-30 30v2c0 16.62 13.38 30 30 30s30-13.38 30-30v-2c0-16.62-13.38-30-30-30zm0 1a29 29 0 0 1 29 29 29 29 0 0 1-29 29 29 29 0 0 1-29-29 29 29 0 0 1 29-29z" fill-opacity=".502"/><rect x="16.5" y="276.5" width="7" height="7" ry=".5" fill="none" stroke="#000" stroke-linecap="square" stroke-opacity=".502"/><rect x="50.5" y="268.5" width="15" height="15" ry="7.5" fill="none" stroke="#000" stroke-linecap="square" stroke-opacity=".502"/><rect x="90.5" y="260.5" width="23" height="23" ry="11.478" fill="none" stroke="#000" stroke-linecap="square" stroke-opacity=".502"/><path d="M214 238c-12.188 0-22 9.812-22 22v2c0 12.188 9.812 22 22 22s22-9.812 22-22v-2c0-12.188-9.812-22-22-22zm0 1a21 21 0 0 1 21 21 21 21 0 0 1-21 21 21 21 0 0 1-21-21 21 21 0 0 1 21-21z" fill-opacity=".502"/><path d="M146.78 262.5c-2.082 0-3.781 1.675-3.781 3.75 0 1.08.456 2.065 1.187 2.75l5.72 5.5 5.905-5.5a3.765 3.765 0 0 0 1.188-2.75c0-2.075-1.7-3.75-3.781-3.75-1.372 0-2.56.721-3.22 1.813a3.74 3.74 0 0 0-3.218-1.813z" fill="#fff"/><path d="M98.781 266c-2.082 0-3.781 1.675-3.781 3.75 0 1.08.456 2.065 1.187 2.75l5.72 5.5 5.905-5.5a3.765 3.765 0 0 0 1.188-2.75c0-2.075-1.7-3.75-3.781-3.75-1.372 0-2.56.721-3.22 1.813A3.74 3.74 0 0 0 98.782 266z" fill="#fff"/><path d="M56.391 273c-1.04 0-1.89.838-1.89 1.875 0 .54.227 1.032.593 1.375l2.86 2.75 2.953-2.75c.366-.343.593-.835.593-1.375 0-1.038-.85-1.875-1.89-1.875-.686 0-1.28.36-1.61.906a1.87 1.87 0 0 0-1.609-.906z" fill="#fff"/><path d="M18.827 277.81c-.759 0-1.378.61-1.378 1.367 0 .393.166.752.433 1.002l2.084 2.005 2.153-2.005a1.37 1.37 0 0 0 .433-1.002c0-.756-.62-1.367-1.379-1.367-.5 0-.933.263-1.173.66a1.364 1.364 0 0 0-1.173-.66z" fill="#fff"/><path d="M209.17 252c-3.123 0-5.672 2.513-5.672 5.625a5.65 5.65 0 0 0 1.781 4.125l8.578 8.25 8.86-8.25a5.647 5.647 0 0 0 1.781-4.125c0-3.112-2.55-5.625-5.672-5.625a5.611 5.611 0 0 0-4.828 2.719A5.612 5.612 0 0 0 209.17 252z" fill="#fff"/><path d="M283.56 241c-4.164 0-7.563 3.35-7.563 7.5 0 2.16.912 4.13 2.375 5.5l11.438 11 11.812-11a7.53 7.53 0 0 0 2.375-5.5c0-4.15-3.398-7.5-7.562-7.5a7.482 7.482 0 0 0-6.438 3.625A7.482 7.482 0 0 0 283.56 241z" fill="#fff"/></g></svg>