<svg version="1.0" viewBox="0 0 8 8" xmlns="http://www.w3.org/2000/svg"><g transform="translate(-16 -276)"><rect transform="matrix(0 -1 -1 0 0 0)" x="-284" y="-66" width="16" height="16" rx="8" ry="8" fill="#73c48f"/><rect transform="matrix(0 -1 -1 0 0 0)" x="-284" y="-24" width="8" height="8" rx="1" ry="1" fill="#888"/><circle cx="102" cy="272" r="12" fill="#73c48f"/><rect x="192" y="238" width="44" height="46" ry="22" fill="#73c48f"/><rect x="135" y="253" width="30" height="31" ry="15" fill="#73c48f"/><path d="M150 253c-8.31 0-15 6.69-15 15v1c0 8.31 6.69 15 15 15s15-6.69 15-15v-1c0-8.31-6.69-15-15-15zm0 1a14 14 0 0 1 14 14 14 14 0 0 1-14 14 14 14 0 0 1-14-14 14 14 0 0 1 14-14z" fill-opacity=".502"/><rect x="260" y="222" width="60" height="62" ry="30" fill="#73c48f"/><path d="M290 222c-16.62 0-30 13.38-30 30v2c0 16.62 13.38 30 30 30s30-13.38 30-30v-2c0-16.62-13.38-30-30-30zm0 1a29 29 0 0 1 29 29 29 29 0 0 1-29 29 29 29 0 0 1-29-29 29 29 0 0 1 29-29z" fill-opacity=".502"/><rect x="16.5" y="276.5" width="7" height="7" ry=".5" fill="#73c48f" stroke="#000" stroke-linecap="square" stroke-opacity=".502"/><rect x="50.5" y="268.5" width="15" height="15" ry="7.5" fill="none" stroke="#000" stroke-linecap="square" stroke-opacity=".502"/><rect x="90.5" y="260.5" width="23" height="23" ry="11.478" fill="none" stroke="#000" stroke-linecap="square" stroke-opacity=".502"/><path d="M214 238c-12.188 0-22 9.812-22 22v2c0 12.188 9.812 22 22 22s22-9.812 22-22v-2c0-12.188-9.812-22-22-22zm0 1a21 21 0 0 1 21 21 21 21 0 0 1-21 21 21 21 0 0 1-21-21 21 21 0 0 1 21-21z" fill-opacity=".502"/><path d="M110 272h-2a5.995 5.995 0 0 0-4.406-5.781c-.032-.01-.062-.023-.094-.031-.255-.066-.514-.094-.781-.125-.233-.028-.478-.063-.719-.063a5.99 5.99 0 0 0-1.812.281v.032a5.96 5.96 0 0 0-2.25 1.28l1.187 1.595c.502-.514 1.158-.847 1.875-1.032v-.03c.38-.09.79-.123 1.188-.095.181.013.349.029.53.063 1.868.338 3.282 1.942 3.282 3.906h-2l3 4 3-4zm-3.938 4.406-1.187-1.594c-.502.514-1.158.847-1.875 1.032v.03c-.38.09-.79.123-1.188.095a4.56 4.56 0 0 1-.53-.063C99.413 275.568 98 273.964 98 272h2l-3-4-3 4h2a5.995 5.995 0 0 0 4.406 5.781c.032.009.062.023.094.031.255.066.514.094.781.125.233.028.478.063.719.063a5.99 5.99 0 0 0 1.812-.282v-.03a5.96 5.96 0 0 0 2.25-1.282z" fill="#474341"/><path d="M158 268h-2a5.995 5.995 0 0 0-4.406-5.781c-.032-.01-.062-.023-.094-.031-.255-.066-.514-.094-.781-.125-.233-.028-.478-.063-.719-.063a5.99 5.99 0 0 0-1.812.281v.032a5.96 5.96 0 0 0-2.25 1.28l1.187 1.595c.502-.514 1.158-.847 1.875-1.032v-.03c.38-.09.79-.123 1.188-.095.181.013.349.029.53.063 1.868.338 3.282 1.942 3.282 3.906h-2l3 4 3-4zm-3.938 4.406-1.187-1.594c-.502.514-1.158.847-1.875 1.032v.03c-.38.09-.79.123-1.188.095a4.56 4.56 0 0 1-.53-.063c-1.868-.338-3.282-1.942-3.282-3.906h2l-3-4-3 4h2a5.995 5.995 0 0 0 4.406 5.781c.032.009.062.023.094.031.255.066.514.094.781.125.233.028.478.063.719.063a5.99 5.99 0 0 0 1.812-.282v-.03a5.96 5.96 0 0 0 2.25-1.282z" fill="#474341"/><path d="M226 261h-3c0-4.144-2.798-7.625-6.61-8.672-.047-.013-.093-.034-.14-.047-.383-.098-.771-.14-1.172-.187-.35-.042-.717-.094-1.078-.094a8.986 8.986 0 0 0-2.719.422v.047c-1.262.4-2.42 1.041-3.375 1.922l1.781 2.39c.753-.77 1.738-1.27 2.813-1.547v-.046a6.027 6.027 0 0 1 1.781-.141c.273.02.524.043.797.094 2.8.506 4.922 2.912 4.922 5.86h-3l4.5 6 4.5-6zm-5.906 6.61-1.781-2.391c-.753.77-1.738 1.27-2.813 1.547v.046a6.027 6.027 0 0 1-1.781.141 6.85 6.85 0 0 1-.797-.094c-2.8-.506-4.922-2.912-4.922-5.859h3l-4.5-6-4.5 6h3c0 4.144 2.798 7.625 6.61 8.672.048.013.091.034.14.047.383.098.771.14 1.172.187.35.042.717.094 1.078.094a8.986 8.986 0 0 0 2.719-.422v-.047c1.262-.4 2.42-1.041 3.375-1.922z" fill="#474341"/><path d="M306 253h-4c0-5.525-3.73-10.167-8.813-11.562-.063-.018-.124-.046-.187-.062-.51-.131-1.028-.187-1.562-.25-.467-.056-.957-.125-1.438-.125-1.233 0-2.458.19-3.625.562v.063c-1.683.534-3.227 1.388-4.5 2.562l2.375 3.188c1.004-1.027 2.316-1.693 3.75-2.063v-.062a8.037 8.037 0 0 1 2.375-.188c.364.026.699.057 1.063.125 3.734.676 6.562 3.884 6.562 7.813h-4l6 8 6-8zm-7.875 8.813-2.375-3.188c-1.004 1.026-2.316 1.693-3.75 2.063v.062c-.76.179-1.58.243-2.375.187a9.119 9.119 0 0 1-1.063-.125C284.829 260.137 282 256.93 282 253h4l-6-8-6 8h4c0 5.525 3.73 10.167 8.813 11.562.064.018.122.046.187.062.51.131 1.028.187 1.562.25.467.055.957.125 1.438.125a11.971 11.971 0 0 0 3.625-.562v-.063c1.683-.534 3.227-1.388 4.5-2.562z" fill="#474341"/><path d="M64 276h-1.5a4.496 4.496 0 0 0-3.305-4.336c-.023-.007-.046-.017-.07-.023-.191-.05-.386-.07-.586-.094-.175-.02-.358-.047-.539-.047-.462 0-.922.071-1.36.211v.023c-.63.2-1.21.521-1.687.961l.89 1.196c.377-.385.87-.635 1.407-.774v-.023a3.01 3.01 0 0 1 .89-.07c.137.01.263.021.399.046a2.976 2.976 0 0 1 2.46 2.93h-1.5l2.25 3 2.25-3zm-2.953 3.305-.89-1.196c-.377.385-.87.635-1.407.774v.023a3.014 3.014 0 0 1-.89.07 3.514 3.514 0 0 1-.399-.046 2.976 2.976 0 0 1-2.46-2.93h1.5l-2.25-3-2.25 3h1.5a4.496 4.496 0 0 0 3.304 4.336c.024.007.046.017.07.023.191.05.386.07.586.094.175.02.359.047.54.047.461 0 .92-.071 1.359-.211v-.024a4.47 4.47 0 0 0 1.687-.96z" fill="#474341"/><path d="M23 280h-.75a2.25 2.25 0 0 0-1.652-2.168c-.012-.003-.024-.009-.035-.012-.096-.024-.193-.035-.293-.047-.088-.01-.18-.023-.27-.023-.231 0-.46.036-.68.105v.012c-.315.1-.605.26-.843.48l.445.598a1.49 1.49 0 0 1 .703-.387v-.011c.143-.034.296-.046.445-.035A1.488 1.488 0 0 1 21.5 280h-.75l1.125 1.5L23 280zm-1.477 1.652-.445-.597a1.49 1.49 0 0 1-.703.386v.012a1.503 1.503 0 0 1-.445.035A1.488 1.488 0 0 1 18.5 280h.75l-1.125-1.5L17 280h.75c0 1.036.7 1.906 1.652 2.168.012.003.023.009.035.012.096.024.193.035.293.047.088.01.18.023.27.023.231 0 .46-.036.68-.105v-.012c.315-.1.605-.26.843-.48z" fill="#474341"/></g></svg>