<svg version="1.0" viewBox="0 0 8 8" xmlns="http://www.w3.org/2000/svg"><g transform="translate(-16 -276)"><rect transform="matrix(0 -1 -1 0 0 0)" x="-284" y="-24" width="8" height="8" rx="1" ry="1" fill="#888"/><rect x="16.5" y="276.5" width="7" height="7" ry=".5" fill="#faa41a" stroke="#000" stroke-linecap="square" stroke-opacity=".502"/><path d="M20 277c-1.108 0-2 .41-2 1.531V279c-.554 0-1 .446-1 1v1c0 .554.446 1 1 1h3.997c.554 0 1-.446 1-1v-1a.998.998 0 0 0-.997-1v-.469c0-1.12-.892-1.531-2-1.531zm0 1c.554 0 1-.054 1 .5v.5h-2v-.5c0-.554.446-.5 1-.5z" color="#000" fill="#474341"/></g></svg>