<svg version="1.0" viewBox="0 0 8 8" xmlns="http://www.w3.org/2000/svg"><g transform="translate(-16 -276)"><rect transform="matrix(0 -1 -1 0 0 0)" x="-284" y="-24" width="8" height="8" rx="1" ry="1" fill="#cf3b00"/><rect x="16.5" y="276.5" width="7" height="7" ry=".5" fill="none" stroke="#000" stroke-linecap="square" stroke-opacity=".502"/><path d="M17.75 277a.75.75 0 0 0-.75.75.75.75 0 0 0 .22.53l1.72 1.72-1.72 1.72a.75.75 0 0 0-.22.53.75.75 0 0 0 .75.75.75.75 0 0 0 .53-.22l1.72-1.72 1.712 1.713a.75.75 0 0 0 .538.227.75.75 0 0 0 .75-.75.75.75 0 0 0-.22-.53L21.06 280l1.713-1.712a.75.75 0 0 0 .227-.538.75.75 0 0 0-.75-.75.75.75 0 0 0-.53.22L20 278.94l-1.712-1.713a.75.75 0 0 0-.008-.007.75.75 0 0 0-.53-.22z" fill="#fafafb"/></g></svg>