<svg version="1.0" viewBox="0 0 8 8" xmlns="http://www.w3.org/2000/svg"><g transform="translate(-16 -276)"><rect transform="matrix(0 -1 -1 0 0 0)" x="-284" y="-24" width="8" height="8" rx="1" ry="1" fill="#888"/><rect x="16.5" y="276.5" width="7" height="7" ry=".5" fill="#3f51b5" stroke="#000" stroke-linecap="square" stroke-opacity=".502"/><path d="M21 278a.75.75 0 0 0-.75.75c0 .058.011.11.023.164l-.804.5a.75.75 0 1 0 0 1.172l.804.5a.72.72 0 0 0-.023.164.75.75 0 1 0 .281-.586l-.804-.5a.72.72 0 0 0 .023-.164.72.72 0 0 0-.023-.164l.804-.5A.75.75 0 1 0 21 278z" fill="#fff"/></g></svg>