<svg version="1.0" viewBox="0 0 24 24" xmlns="http://www.w3.org/2000/svg"><g stroke-linecap="square" transform="translate(-56 340)"><path d="M70.5-320h-12c-.831 0-1.5-.669-1.5-1.5v-13c0-.831.669-1.5 1.5-1.5h12l8 8z" fill="#ffce51"/><path d="M58.5-336c-.831 0-1.5.669-1.5 1.5v13c0 .831.669 1.5 1.5 1.5h12l8-8-8-8zm0 1H70l7 7-7 7H58.5a.499.499 0 0 1-.5-.5v-13c0-.277.223-.5.5-.5z" fill-opacity=".5"/><rect x="68" y="-328" width="12" height="12" ry="6" fill="#479863"/><rect x="73" y="-326" width="2" height="8" ry="0" fill="#fff"/><path fill="#fff" d="M70-323h8v2h-8z"/><path d="M74-328c-3.324 0-6 2.676-6 6s2.676 6 6 6 6-2.676 6-6-2.676-6-6-6zm0 1c2.77 0 5 2.23 5 5s-2.23 5-5 5-5-2.23-5-5 2.23-5 5-5z" fill-opacity=".5"/></g></svg>