<svg version="1.0" viewBox="0 0 24 24" xmlns="http://www.w3.org/2000/svg"><g transform="translate(-56 -260)"><rect x="66" y="260" width="4" height="17" ry="2" fill="#f15d22"/><path d="M68 260c-1.108 0-2 .892-2 2v13c0 1.108.892 2 2 2s2-.892 2-2v-13c0-1.108-.892-2-2-2zm0 1c.554 0 1 .446 1 1v12c0 .554-.446 1-1 1s-1-.446-1-1v-12c0-.554.446-1 1-1z" fill-opacity=".502"/><path d="M60 279v5h16v-5z" fill="#ffce51"/><path d="M62 270c-1.108 0-2 .892-2 2v7h16v-7c0-1.108-.892-2-2-2z" fill="#f15d22"/><path d="M62 270c-1.108 0-2 .892-2 2v7h1v-7c0-.554.446-1 1-1h12c.554 0 1 .446 1 1v7h1v-7c0-1.108-.892-2-2-2z" fill-opacity=".502"/><path d="M60 279v5h16v-5h-1v4H61v-4z" fill-opacity=".502"/><path fill-opacity=".502" d="M63 279h1v5h-1z"/><path fill-opacity=".502" d="M66 279h1v5h-1z"/><path fill-opacity=".502" d="M69 279h1v5h-1z"/><path fill-opacity=".502" d="M72 279h1v5h-1z"/></g></svg>