<svg version="1.0" viewBox="0 0 24 24" xmlns="http://www.w3.org/2000/svg"><g transform="translate(-56 40)"><rect x="58" y="-38" width="20" height="22" ry="2.5" fill="#50443f"/><rect transform="matrix(0 -1 -1 0 0 0)" x="17" y="-77" width="20" height="18" rx="1.5" ry="1.5" fill="#a1887f"/><path fill="#fff" d="M61-35h14v16H61z"/><rect x="65" y="-40" width="6" height="6" ry="2.967" fill="#666"/><rect x="65" y="-37" width="6" height="3" ry="0" fill="#666"/><path d="M68-39s-2 0-2 2v1h-1c-.554 0-1.065.45-1 1v1h8v-1c0-.554-.446-1-1-1h-1v-1c0-2-2-2-2-2z" fill="#ccc"/><circle cx="68" cy="-37" r="1" fill="#fff"/><rect x="63" y="-23" width="7" height="1" ry=".456" fill="#474341" fill-opacity=".69"/><rect x="63" y="-26" width="10" height="1" ry=".456" fill="#474341" fill-opacity=".69"/><rect x="63" y="-29" width="10" height="1" ry=".456" fill="#474341" fill-opacity=".69"/><rect x="63" y="-32" width="10" height="1" ry=".456" fill="#474341" fill-opacity=".69"/></g></svg>