<svg version="1.0" viewBox="0 0 24 24" xmlns="http://www.w3.org/2000/svg"><g transform="translate(-56 -260)"><rect x="57" y="261" width="22" height="22" ry="2" fill="#dedede"/><rect x="57.5" y="261.5" width="21" height="21" ry="1.5" fill="#3f51b5" stroke="#1f285a" stroke-linecap="round" stroke-linejoin="round"/><path d="M67 276h2v1.984h-2zm2-1h-1.992v-1.203c0-.526.073-.958.219-1.297.145-.339.453-.732.921-1.18l.704-.695c.296-.276.51-.536.64-.781.136-.245.337-.589.337-.844 0-.706-.829-1-1.329-1-.411 0-1.523.13-1.992.312a7.263 7.263 0 0 0-1.453.797v-1.968c.49-.297.984-.519 1.484-.665a5.606 5.606 0 0 1 1.563-.218c.958 0 1.726.252 2.304.758.584.505 1.094 1.156 1.094 1.984 0 1-.526 1.904-.984 2.352l-.688.671a5.66 5.66 0 0 0-.523.579 1.41 1.41 0 0 0-.211.398c-.031.11-.055.242-.07.398s-.024.37-.024.641z" fill="#fff" aria-label="?"/></g></svg>