<svg version="1.0" viewBox="0 0 24 24" xmlns="http://www.w3.org/2000/svg"><g transform="translate(-56 -260)"><rect x="67" y="262" width="12" height="10" ry="1.5" fill="#4860c8"/><rect x="67" y="264" width="12" height="10" ry="1.5" fill="#213397"/><rect x="67" y="263" width="12" height="10" ry="1.5" fill="#3f51b5"/><rect x="57" y="269" width="12" height="10" ry="1.5" fill="#4ea9b4"/><rect x="57" y="271" width="12" height="10" ry="1.5" fill="#1c8d9b"/><rect x="57" y="270" width="12" height="10" ry="1.5" fill="#48b9c7"/><path d="M62.504 272.01c-2 0-2.515 1.044-2.5 2.5.019 1.839.966 2.429 2.5 2.5 1.733.08 2.515-1.051 2.5-2.5-.02-1.837-.966-2.5-2.5-2.5zm1.5 5.5 1 1.5-.477-.005-.523.005-1-1h-.5c-2.297 0-3.527-1.533-3.5-3.5.03-2.172 1.5-3.5 3.5-3.5 2.294 0 3.607 1.54 3.5 3.5-.097 1.778-.817 2.273-2 3z" fill="#fff" aria-label="Q?"/><path d="m73.5 265-1 3h2zm-.5-1h1l3 7h-1l-1-2h-3l-1 2h-1z" fill="#fff"/></g></svg>