<svg version="1.0" viewBox="0 0 24 24" xmlns="http://www.w3.org/2000/svg"><g transform="translate(-56 40)"><rect x="57" y="-31" width="22" height="14" ry="2" fill="#a27100"/><rect x="57" y="-32" width="22" height="14" ry="2" fill="#ffce51"/><rect x="57.5" y="-31.5" width="21" height="13" ry="1.5" fill="none" stroke="#303030" stroke-linecap="round" stroke-opacity=".392"/><rect x="60" y="-39" width="16" height="17" ry="2" fill="#dedede"/><rect x="60.5" y="-38.5" width="15" height="16" ry="1.5" fill="none" stroke="#000" stroke-linecap="round" stroke-opacity=".392"/><g fill="#393634" opacity=".8"><path d="m-112.63 83.739-6.469 4.5 6.469 4.5v-2.5h2c.19 0 .376.02.559.053.36-.407.864-.7 1.423-.836l.13-.432a2.514 2.514 0 0 1 1.654-1.668c-.845-.713-1.96-1.117-3.266-1.117h-2.5zm4.5 7.5a.52.52 0 0 0-.152.027c.224.243.4.516.521.813a.496.496 0 0 0 .131-.34c0-.288-.212-.5-.5-.5z" color="#bebebe" style="text-decoration-line:none;text-indent:0;text-transform:none" transform="matrix(.75 0 0 .75 151.48 -98.679)"/><path d="M-106.13 88.239c-.679 0-1.245.454-1.43 1.072.915.219 1.64.945 1.858 1.86a1.496 1.496 0 0 0-.428-2.932zm-2 2a1.5 1.5 0 1 0 0 3 1.5 1.5 0 0 0 0-3zm2.436 2.033a2.536 2.536 0 0 1-.748 1.262c.486.178.878.418 1.158.705h1.654v-.5s-.028-1.294-2.064-1.467zm-2.436 1.967c-2.5 0-2.5 1.5-2.5 1.5v.5h5v-.5s0-1.5-2.5-1.5z" color="#000" style="text-decoration-line:none;text-indent:0;text-transform:none" transform="matrix(.75 0 0 .75 151.48 -98.679)"/></g></g></svg>