<svg version="1.0" viewBox="0 0 24 24" xmlns="http://www.w3.org/2000/svg"><g transform="translate(-56 -260)"><rect x="228" y="236" width="56" height="44" ry="4" fill="#a27100"/><rect x="228" y="234" width="56" height="44" ry="4" fill="#ffce51"/><path d="M232 278h48c2.216 0 4-1.784 4-4l-28-39-28 39c0 2.216 1.784 4 4 4z" fill="#c29a32"/><path d="M284 238v2l-28 22-28-22v-2z" fill-opacity=".196"/><path d="M232 234h48c2.216 0 4 1.784 4 4l-28 22-28-22c0-2.216 1.784-4 4-4z" fill="#ffee7d"/><rect x="228.5" y="234.5" width="55" height="43" ry="3.49" fill="none" stroke="#303030" stroke-linecap="round" stroke-linejoin="round" stroke-opacity=".392"/><rect x="159" y="247" width="42" height="34" ry="4" fill="#a27100"/><rect x="159" y="247" width="42" height="32" ry="4" fill="#ffce51"/><path d="M163 279h34c2.216 0 4-1.784 4-4l-21-27-21 27c0 2.216 1.784 4 4 4z" fill="#c29a32"/><path d="M201 251v2l-21 15-21-15v-2z" fill-opacity=".196"/><path d="M163 247h34c2.216 0 4 1.784 4 4l-21 15-21-15c0-2.216 1.784-4 4-4z" fill="#ffee7d"/><rect x="159.5" y="247.5" width="41" height="31" ry="3.49" fill="none" stroke="#303030" stroke-linecap="round" stroke-linejoin="round" stroke-opacity=".392"/><rect x="102" y="259" width="28" height="23" ry="2" fill="#a27100"/><rect x="102" y="259" width="28" height="22" ry="2" fill="#ffce51"/><path d="M104 281h24c1.108 0 2-.892 2-2l-14-19-14 19c0 1.108.892 2 2 2z" fill="#c29a32"/><path d="M130 261v1l-14 11-14-11v-1z" fill-opacity=".314"/><path d="M104 259h24c1.108 0 2 .892 2 2l-14 11-14-11c0-1.108.892-2 2-2z" fill="#ffee7d"/><rect x="102.5" y="259.5" width="27" height="21" ry="1.5" fill="none" stroke="#303030" stroke-linecap="round" stroke-linejoin="round" stroke-opacity=".392"/><rect x="320" y="184" width="112" height="90" ry="6" fill="#a27100"/><rect x="320" y="184" width="112" height="88" ry="6" fill="#ffce51"/><rect x="480" y="84" width="224" height="178" ry="6" fill="#a27100"/><rect x="480" y="84" width="224" height="176" ry="6" fill="#ffce51"/><path d="M326 272h100c3.324 0 6-2.676 6-6l-56-81-56 81c0 3.324 2.676 6 6 6z" fill="#c29a32"/><path d="M432 190v2l-56 46-56-46v-2z" fill-opacity=".196"/><path d="M326 184h100c3.324 0 6 2.676 6 6l-56 46-56-46c0-3.324 2.676-6 6-6z" fill="#ffee7d"/><path d="M486 260h212c3.324 0 6-2.676 6-6L592 85 480 254c0 3.324 2.676 6 6 6z" fill="#c29a32"/><path d="M704 90v2l-112 98-112-98v-2z" fill-opacity=".196"/><path d="M486 84h212c3.324 0 6 2.676 6 6l-112 98-112-98c0-3.324 2.676-6 6-6z" fill="#ffee7d"/><rect x="320.5" y="184.5" width="111" height="87" ry="5.5" fill="none" stroke="#303030" stroke-linecap="round" stroke-linejoin="round" stroke-opacity=".392"/><rect x="480.5" y="84.5" width="223" height="175" ry="5.5" fill="none" stroke="#303030" stroke-linecap="round" stroke-linejoin="round" stroke-opacity=".392"/><circle cx="688" cy="248" r="30" fill-opacity=".314"/><circle cx="688" cy="246" r="30" fill="#de8800"/><path d="M685 262h6v8h-6zm0-40h6v21l-1 12h-4l-1-12z" fill="#fff" aria-label="!"/><g transform="translate(-279 5)"><circle cx="688" cy="248" r="30" fill-opacity=".314"/><circle cx="688" cy="246" r="30" fill="#de8800"/><path d="M685 262h6v8h-6zm0-40h6v21l-1 12h-4l-1-12z" fill="#fff" aria-label="!"/></g><g transform="matrix(.5 0 0 .5 -72 145)"><circle cx="688" cy="248" r="30" fill-opacity=".314"/><circle cx="688" cy="246" r="30" fill="#de8800"/><path d="M685 262h6v8h-6zm0-40h6v21l-1 12h-4l-1-12z" fill="#fff" aria-label="!"/></g><g transform="matrix(.25 0 0 .25 23.5 214)"><circle cx="688" cy="250" r="30" fill-opacity=".314"/><circle cx="688" cy="246" r="30" fill="#de8800"/><path d="M686 264h8v8h-8zm0-44h8v23l-2 13h-4l-2-13z" fill="#fff" aria-label="!"/></g><g transform="matrix(.25 0 0 .25 -47.5 214)"><circle cx="688" cy="250" r="30" fill-opacity=".314"/><circle cx="688" cy="246" r="30" fill="#de8800"/><path d="M686 264h8v8h-8zm0-44h8v23l-2 13h-4l-2-13z" fill="#fff" aria-label="!"/><rect x="660" y="218" width="56" height="56" ry="28" fill="none" stroke="#111" stroke-opacity=".392" stroke-width="4"/><rect x="944" y="218" width="56" height="56" ry="28" fill="none" stroke="#111" stroke-opacity=".392" stroke-width="4"/><rect x="1220" y="158" width="116" height="116" ry="58" fill="none" stroke="#111" stroke-opacity=".392" stroke-width="4"/><rect x="1708" y="30" width="236" height="236" ry="118" fill="none" stroke="#111" stroke-opacity=".392" stroke-width="4"/><rect x="2824" y="10" width="236" height="236" ry="118" fill="none" stroke="#111" stroke-opacity=".392" stroke-width="4"/></g><circle cx="24" cy="276" r="8" fill="#de8800"/><path d="M23 280h2v2h-2zm0-10h2v5.5l-.5 2.5h-1l-.5-2.5z" fill="#fff" aria-label="!"/><rect x="16.5" y="268.5" width="15" height="15" ry="7.5" fill="none" stroke="#000" stroke-opacity=".392"/><circle cx="68" cy="273" r="10" fill="#c26c00"/><circle cx="68" cy="272" r="10" fill="#de8800"/><path d="M67 276h2v2h-2zm0-10h2v5.5l-.5 2.5h-1l-.5-2.5z" fill="#fff" aria-label="!"/><rect x="58.5" y="262.5" width="19" height="19" ry="9.5" fill="none" stroke="#000" stroke-opacity=".392"/></g></svg>