<svg version="1.0" viewBox="0 0 24 24" xmlns="http://www.w3.org/2000/svg"><path d="M12 17V9h3L8.5 3 2 8v1h3v8z" fill="#c26c00"/><path d="M12 16V8h3L8.5 2 2 8h3v8z" fill="#de8800"/><path d="M19 9v7h3v1l-6.5 6L9 17v-1h3V9z" fill="#1c6d38"/><path d="M19 8v8h3l-6.5 6L9 16h3V8z" fill="#479863"/><path d="M11.5 15.5v-8h2.223L8.5 2.68 3.277 7.5H5.5v8z" fill="none" stroke="#fff" stroke-opacity=".392"/><path d="M18.5 8.5v8h2.223L15.5 21.32l-5.223-4.82H12.5v-8z" fill="none" stroke="#fff" stroke-opacity=".392"/></svg>