<svg version="1.0" viewBox="0 0 24 24" xmlns="http://www.w3.org/2000/svg"><path d="M16 22H8l-6-6V8l6-6h8l6 6v8z" fill="#cf3b00"/><path d="M11.5 6.5c-.331 0-.503.272-.503.603.006 1.294.003 2.6.003 3.897h-1V8.003h-.003c0-.332-.166-.503-.497-.503-.331 0-.5.169-.5.5.007.894.003 1.8.003 2.698v2.997l-1.06-1.53c-.495-.718-1.803-.113-1.188.93.762 1.295 3.046 5.099 4.845 5.099 1.667 0 4.402.021 4.4-2.694v-7c0-.331-.169-.5-.5-.5-.331 0-.5.169-.5.5 0 .017.001.035.003.052L15 12h-1c-.001-1.19-.003-3.688 0-4.5 0-.331-.169-.5-.5-.5-.331 0-.5.169-.5.5 0 .017.001.035.003.052L13 11h-1l.003-4H12c0-.331-.169-.5-.5-.5z" fill="#fff"/><path d="M15.8 21.5H8.2l-5.7-5.7V8.2l5.7-5.7h7.6l5.7 5.7v7.6z" fill="none" stroke="#f9f9f9" stroke-linecap="round" stroke-opacity=".392"/></svg>