<svg version="1.0" viewBox="0 0 24 24" xmlns="http://www.w3.org/2000/svg"><g transform="translate(-56 -260)"><rect x="57" y="263" width="22" height="20" ry="2" fill="#a27100"/><rect x="57" y="262" width="22" height="20" ry="2" fill="#ffce51"/><path d="M59 282h18c1.108 0 2-.892 2-2l-11-17-11 17c0 1.108.892 2 2 2z" fill="#c29a32"/><path d="M79 264v1l-11 10-11-10v-1z" fill-opacity=".314"/><path d="M59 262h18c1.108 0 2 .892 2 2l-11 10-11-10c0-1.108.892-2 2-2z" fill="#ffee7d"/><rect x="57.5" y="262.5" width="21" height="19" ry="1.5" fill="none" stroke="#303030" stroke-linecap="round" stroke-linejoin="round" stroke-opacity=".392"/></g></svg>