<svg version="1.0" viewBox="0 0 24 24" xmlns="http://www.w3.org/2000/svg"><path d="M16.969 24H7.028l-7.03-7.03V7.03L7.029 0h9.941L24 7.03v9.94z" fill="#cf3b00"/><path d="m7.029 0-7.03 7.03v9.94L7.03 24h9.941L24 16.97V7.03L16.97 0zm.414 1h9.113L23 7.443v9.114L16.556 23H7.443L1 16.557V7.443z" fill-opacity=".502"/><path d="M63 267h1.667c.46 0 .896.167 1.198.469L68 269.598l2.135-2.13c.302-.3.738-.468 1.198-.468H73v1.667c0 .46-.167.896-.469 1.198l-2.135 2.128 2.135 2.142c.302.302.471.738.469 1.198V277h-1.667c-.46 0-.896-.167-1.198-.469L68 274.39l-2.135 2.142c-.302.302-.738.469-1.198.469H63v-1.667c0-.46.167-.896.469-1.198l2.135-2.141-2.135-2.13c-.302-.301-.469-.737-.469-1.197z" color="#000" fill="#fff" style="text-decoration-line:none;text-indent:0;text-transform:none" transform="translate(-56 -260)"/></svg>