<svg version="1.0" viewBox="0 0 24 24" xmlns="http://www.w3.org/2000/svg"><g transform="translate(-56 40)"><rect x="56" y="-40" width="24" height="24" ry="12" fill="#7b736e"/><path d="M68-40c-6.648 0-12 5.352-12 12s5.352 12 12 12 12-5.352 12-12-5.352-12-12-12zm0 1c6.094 0 11 4.906 11 11s-4.906 11-11 11-11-4.906-11-11 4.906-11 11-11z" fill="#fff" fill-opacity=".502"/><path d="m73-31.008 4 3-4 3v-2h-4v-2h4z" color="#bebebe" fill="#fff"/><path d="M72.194-31.839a1 1 0 0 0-.357-.766 1 1 0 0 0-.116-.084A5.997 5.997 0 0 0 66.4-33.78a6.008 6.008 0 0 0-4.398 5.81 6.006 6.006 0 0 0 4.453 5.768 6 6 0 0 0 5.279-1.117 1 1 0 0 0 .461-.84 1 1 0 0 0-1-1 1 1 0 0 0-.656.244 3.985 3.985 0 0 1-3.569.781 3.991 3.991 0 0 1-2.968-3.846 3.992 3.992 0 0 1 2.931-3.875 3.987 3.987 0 0 1 3.611.772l.008.008a1 1 0 0 0 .002 0 1 1 0 0 0 .641.236 1 1 0 0 0 1-1z" color="#000" fill="#fff" style="isolation:auto;mix-blend-mode:normal;text-decoration-color:#000;text-decoration-line:none;text-decoration-style:solid;text-indent:0;text-transform:none;white-space:normal"/></g></svg>