<svg version="1.0" viewBox="0 0 24 24" xmlns="http://www.w3.org/2000/svg"><g transform="translate(-56 640)"><rect x="56" y="-640" width="24" height="24" ry="12" fill="#7b736e"/><path d="M68-640c-6.648 0-12 5.352-12 12s5.352 12 12 12 12-5.352 12-12-5.352-12-12-12zm0 1c6.094 0 11 4.906 11 11s-4.906 11-11 11-11-4.906-11-11 4.906-11 11-11z" fill="#fff" fill-opacity=".502"/><path d="M68.651-634.99c-2.763.101-5.309 1.805-6.313 4.563-1.322 3.632.524 7.677 4.157 9 2.758 1.003 5.74.144 7.593-1.907a6.478 6.478 0 0 1-4.218-.062c-3.374-1.228-5.103-4.97-3.875-8.344.514-1.413 1.474-2.508 2.656-3.25z" color="#bebebe" fill="#fff"/></g></svg>