<svg version="1.0" viewBox="0 0 24 24" xmlns="http://www.w3.org/2000/svg"><g transform="translate(-56 940)"><rect x="56" y="-940" width="24" height="24" ry="12" fill="#7b736e"/><path d="M68-940c-6.648 0-12 5.352-12 12s5.352 12 12 12 12-5.352 12-12-5.352-12-12-12zm0 1c6.094 0 11 4.906 11 11s-4.906 11-11 11-11-4.906-11-11 4.906-11 11-11z" fill="#fff" fill-opacity=".502"/><path d="M68.651-934.99c-2.763.101-5.309 1.805-6.313 4.563-1.322 3.632.524 7.677 4.157 9 2.758 1.003 5.74.144 7.593-1.907a6.478 6.478 0 0 1-4.218-.062c-3.374-1.228-5.103-4.97-3.875-8.344.514-1.413 1.474-2.508 2.656-3.25z" color="#bebebe" fill="#fff"/><path d="M68.5-933c-.5 0-.5.5-.5.5v6s0 .5.5.5h5s.5 0 .5-.5v-6s0-.5-.5-.5zm2.5 1a2 2 0 1 1 0 4h-2v-2a2 2 0 0 1 2-2zm0 1a1 1 0 1 0 0 2 1 1 0 0 0 0-2z" fill="#fff" filter="url(#filter7554)"/></g></svg>