<svg version="1.0" viewBox="0 0 24 24" xmlns="http://www.w3.org/2000/svg"><g transform="translate(-56 -260)"><rect x="56" y="260" width="24" height="24" ry="12" fill="#73c48f"/><path d="M68 260c-6.648 0-12 5.352-12 12s5.352 12 12 12 12-5.352 12-12-5.352-12-12-12zm0 1c6.094 0 11 4.906 11 11s-4.906 11-11 11-11-4.906-11-11 4.906-11 11-11z" fill-opacity=".502"/><path d="M68 267a1 1 0 0 0-1 1 1 1 0 0 0 1 1 4 4 0 0 1 4 4h-2l3 4 3-4h-2a6 6 0 0 0-6-6zm-5 2-3 4h2a6 6 0 0 0 6 6 1 1 0 0 0 1-1 1 1 0 0 0-1-1 4 4 0 0 1-4-4h2z" fill-opacity=".196"/><path d="M68 266a1 1 0 0 0-1 1 1 1 0 0 0 1 1 4 4 0 0 1 4 4h-2l3 4 3-4h-2a6 6 0 0 0-6-6zm-5 2-3 4h2a6 6 0 0 0 6 6 1 1 0 0 0 1-1 1 1 0 0 0-1-1 4 4 0 0 1-4-4h2z" fill="#fff"/></g></svg>