<svg version="1.0" viewBox="0 0 24 24" xmlns="http://www.w3.org/2000/svg"><g stroke-linecap="square" transform="translate(-56 -260)"><rect x="101" y="253" width="30" height="31" ry="15" fill="#73c48f"/><path d="M116 253c-8.31 0-15 6.69-15 15v1c0 8.31 6.69 15 15 15s15-6.69 15-15v-1c0-8.31-6.69-15-15-15zm0 1c7.756 0 14 6.244 14 14s-6.244 14-14 14-14-6.244-14-14 6.244-14 14-14z" fill-opacity=".502"/><rect x="316" y="160" width="120" height="123" ry="60" fill="#73c48f"/><rect x="226" y="222" width="60" height="62" ry="30" fill="#73c48f"/><path d="M256 222c-16.62 0-30 13.38-30 30v2c0 16.62 13.38 30 30 30s30-13.38 30-30v-2c0-16.62-13.38-30-30-30zm0 1c16.066 0 29 12.934 29 29s-12.934 29-29 29-29-12.934-29-29 12.934-29 29-29z" fill-opacity=".502"/><rect x="472" y="36" width="240" height="244" ry="120" fill="#73c48f"/><path d="M592 36c-66.48 0-120 53.52-120 120v4c0 66.48 53.52 120 120 120s120-53.52 120-120v-4c0-66.48-53.52-120-120-120zm0 1c65.926 0 119 53.074 119 119s-53.074 119-119 119-119-53.074-119-119S526.074 37 592 37z" fill-opacity=".502"/><path d="M376 160c-33.24 0-60 26.76-60 60v3c0 33.24 26.76 60 60 60s60-26.76 60-60v-3c0-33.24-26.76-60-60-60zm0 1c32.686 0 59 26.314 59 59s-26.314 59-59 59-59-26.314-59-59 26.314-59 59-59z" fill-opacity=".502"/><rect x="158" y="238" width="44" height="46" ry="22" fill="#73c48f"/><path d="M180 238c-12.188 0-22 9.812-22 22v2c0 12.188 9.812 22 22 22s22-9.812 22-22v-2c0-12.188-9.812-22-22-22zm0 1c11.634 0 21 9.366 21 21s-9.366 21-21 21-21-9.366-21-21 9.366-21 21-21z" fill-opacity=".502"/><rect x="56" y="260" width="24" height="24" ry="12" fill="#73c48f"/><path d="M68 260c-6.648 0-12 5.352-12 12s5.352 12 12 12 12-5.352 12-12-5.352-12-12-12zm0 1c6.094 0 11 4.906 11 11s-4.906 11-11 11-11-4.906-11-11 4.906-11 11-11z" fill-opacity=".502"/><rect x="16" y="268" width="16" height="16" ry="8" fill="#73c48f"/><path d="M24 268c-4.432 0-8 3.568-8 8s3.568 8 8 8 8-3.568 8-8-3.568-8-8-8zm0 1c3.878 0 7 3.122 7 7s-3.122 7-7 7-7-3.122-7-7 3.122-7 7-7z" fill-opacity=".502"/></g><path d="M12 7a1 1 0 0 0-1 1 1 1 0 0 0 1 1 4 4 0 0 1 4 4h-2l3 4 3-4h-2a6 6 0 0 0-6-6zM7 9l-3 4h2a6 6 0 0 0 6 6 1 1 0 0 0 1-1 1 1 0 0 0-1-1 4 4 0 0 1-4-4h2z" fill-opacity=".196"/><path d="M12 6a1 1 0 0 0-1 1 1 1 0 0 0 1 1 4 4 0 0 1 4 4h-2l3 4 3-4h-2a6 6 0 0 0-6-6zM7 8l-3 4h2a6 6 0 0 0 6 6 1 1 0 0 0 1-1 1 1 0 0 0-1-1 4 4 0 0 1-4-4h2z" fill="#fff"/></svg>