<svg version="1.0" viewBox="0 0 24 24" xmlns="http://www.w3.org/2000/svg"><g transform="translate(-56 -260)"><rect x="57" y="261" width="22" height="22" ry="2" fill="#7b736e"/><path d="M59 261c-1.108 0-2 .892-2 2v18c0 1.108.892 2 2 2h18c1.108 0 2-.892 2-2v-18c0-1.108-.892-2-2-2zm0 1h18c.554 0 1 .446 1 1v18c0 .554-.446 1-1 1H59c-.554 0-1-.446-1-1v-18c0-.554.446-1 1-1z" fill="#fff" fill-opacity=".502"/><path d="M66 266h4v4h4v4h-4v4l-4 .006V274h-4v-4h4z" color="#bebebe" fill="#fff" fill-opacity=".902"/></g></svg>