<svg version="1.0" viewBox="0 0 24 24" xmlns="http://www.w3.org/2000/svg"><g transform="translate(-56 -260)"><path d="M60 269c-1.108 0-2 .892-2 2v1c0 5.54 4.46 10 10 10s10-4.46 10-10v-1c0-1.108-.892-2-2-2s-2 .892-2 2v1c0 3.324-2.676 6-6 6s-6-2.676-6-6v-1c0-1.108-.892-2-2-2z" fill="#444"/><rect x="66" y="280" width="4" height="4" ry="2" fill="#444"/><path d="M60 270c-.554 0-1 .446-1 1v1c0 4.986 4.014 9 9 9s9-4.014 9-9v-1c0-.554-.446-1-1-1s-1 .446-1 1v1c0 3.878-3.122 7-7 7s-7-3.122-7-7v-1c0-.554-.446-1-1-1z" fill="#838383"/><rect x="63" y="260" width="10" height="17" ry="5" fill="#909090"/><rect x="64" y="261" width="8" height="15" ry="4" fill="#2e2e2e"/><rect x="67" y="279" width="2" height="4" ry="1" fill="#838383"/></g></svg>