<svg version="1.0" viewBox="0 0 24 24" xmlns="http://www.w3.org/2000/svg"><g transform="translate(-56 -260)"><rect x="58" y="260" width="20" height="24" ry="2" fill="#adadad"/><path d="M60 260c-1.108 0-2 .892-2 2v20c0 1.108.892 2 2 2h16c1.108 0 2-.892 2-2v-20c0-1.108-.892-2-2-2zm0 1h16c.554 0 1 .446 1 1v5c0 .554-.446 1-1 1H60c-.554 0-1-.446-1-1v-5c0-.554.446-1 1-1z" fill-opacity=".502"/><g transform="matrix(1.5 0 0 1.5 32 -142.5)"><circle cx="24" cy="279" r="4" fill="#faa41a"/><rect x="22.667" y="277.67" width="2.667" height="2.667" ry="1.333" fill="#333"/><path d="M24 275a4 4 0 0 0-4 4 4 4 0 0 0 4 4 4 4 0 0 0 4-4 4 4 0 0 0-4-4zm0 .668A3.333 3.333 0 0 1 27.335 279 3.333 3.333 0 0 1 24 282.334a3.333 3.333 0 0 1-3.334-3.333A3.333 3.333 0 0 1 24 275.668z" fill="#333"/></g></g></svg>