<svg version="1.0" viewBox="0 0 24 24" xmlns="http://www.w3.org/2000/svg"><g transform="translate(-56 -260)"><path d="M68 260a12 12 0 0 0-4.76 1H59.5a2.495 2.495 0 0 0-2.5 2.5v3.717A12 12 0 0 0 56 272a12 12 0 0 0 1 4.76v3.74c0 1.385 1.115 2.5 2.5 2.5h3.717A12 12 0 0 0 68 284a12 12 0 0 0 4.76-1h3.74c1.385 0 2.5-1.115 2.5-2.5v-3.717A12 12 0 0 0 80 272a12 12 0 0 0-1-4.76v-3.74c0-1.385-1.115-2.5-2.5-2.5h-3.717A12 12 0 0 0 68 260z" fill="#565656"/><path d="M68 261a11 11 0 0 0-4.549 1H60c-1.108 0-2 .892-2 2v3.445A11 11 0 0 0 57 272a11 11 0 0 0 1 4.549V280c0 1.108.892 2 2 2h3.445A11 11 0 0 0 68 283a11 11 0 0 0 4.549-1H76c1.108 0 2-.892 2-2v-3.445A11 11 0 0 0 79 272a11 11 0 0 0-1-4.549V264c0-1.108-.892-2-2-2h-3.445A11 11 0 0 0 68 261z" fill="#acacac"/><rect x="58" y="262" width="20" height="20" ry="10" fill="#333"/><rect x="59" y="263" width="18" height="18" ry="9" fill="#faa41a"/><rect x="64" y="268" width="8" height="8" ry="4" fill="#845914"/><circle cx="68" cy="272" r="3" fill="#333"/></g></svg>