<svg version="1.0" viewBox="0 0 24 24" xmlns="http://www.w3.org/2000/svg"><g transform="translate(-56 -260)"><rect x="57" y="261" width="22" height="22" ry="2" fill="#767676"/><rect x="58" y="262" width="20" height="20" ry="1.5" fill="#ececec"/><g fill="#474341"><path d="m68 264-7 8 7 8zm-5 5c0-.554-.446-1-1-1s-1 .446-1 1v6c0 .554.446 1 1 1s1-.446 1-1z"/><path d="m74 265-1.713 1.03C73.221 267.584 74 270.185 74 272c0 1.815-.779 4.415-1.713 5.97L74 279c1.122-1.866 2-4.823 2-7 0-2.177-.878-5.134-2-7z"/><path d="m70.75 266.5-1.715 1.03c.655 1.088.965 3.2.965 4.47 0 1.27-.31 3.382-.965 4.47l1.715 1.03c.84-1.4 1.25-3.867 1.25-5.5s-.41-4.1-1.25-5.5z"/></g></g></svg>