<svg version="1.0" viewBox="0 0 24 24" xmlns="http://www.w3.org/2000/svg"><g transform="translate(-56 -260)"><circle transform="scale(1 -1)" cx="72" cy="-273.33" r="1.333" opacity=".2"/><rect transform="matrix(0 -1 -1 0 0 0)" x="-283" y="-79" width="22" height="22" rx="11" ry="11" fill="#e6e6e6"/><circle cx="68" cy="272" r="7" fill="#ac1800"/><circle transform="scale(1 -1)" cx="68" cy="-272" r="5" fill="#cf3b00"/><g fill="#fff"><path d="M70.126 269.88a3 3 0 0 0-4.242 0l2.121 2.12z" opacity=".2"/><path d="M70.126 269.88a3 3 0 0 1 0 4.242l-2.121-2.121z" opacity=".4"/><path d="M65.884 274.122a3 3 0 0 1 0-4.242l2.121 2.12z" opacity=".4"/><path d="M65.884 274.122a3 3 0 0 0 4.242 0l-2.121-2.121z" opacity=".6"/></g><path d="M68 261a11 11 0 0 0-11 11 11 11 0 0 0 11 11 11 11 0 0 0 11-11 11 11 0 0 0-11-11zm0 1a10 10 0 0 1 10 10 10 10 0 0 1-10 10 10 10 0 0 1-10-10 10 10 0 0 1 10-10z" fill-opacity=".5"/></g></svg>