<svg version="1.0" viewBox="0 0 24 24" xmlns="http://www.w3.org/2000/svg"><g transform="translate(-56 -260)"><rect x="56" y="266" width="24" height="16" ry="1.5" fill="#6f6f6f"/><rect x="64" y="262" width="8" height="8" ry="1.5" fill="#6f6f6f"/><rect x="65" y="263" width="6" height="6" ry="1" fill="#acacac"/><rect x="66" y="264" width="4" height="2" ry="1" fill="#ffce51"/><rect x="57" y="269" width="22" height="10" ry="0" fill="#424242"/><path d="M58 267c-.554 0-1 .446-1 1v1h22v-1c0-.554-.446-1-1-1zm-1 12v1c0 .554.446 1 1 1h20c.554 0 1-.446 1-1v-1z" fill="#ececec"/><circle cx="68" cy="274" r="4" fill="#ececec"/><circle cx="68" cy="274" r="3" fill="#48b9c7"/><circle cx="68" cy="274" r="2" fill="#fff" fill-opacity=".251"/><rect x="67" y="274" width="2" height="1" ry=".5" fill="#fff" fill-opacity=".251"/></g></svg>