<svg version="1.0" viewBox="0 0 24 24" xmlns="http://www.w3.org/2000/svg"><g transform="translate(-56 940)"><rect x="57" y="-937" width="22" height="17" ry="2" fill="#bfbfbf"/><path fill="#222" d="M60-934h16v11H60z"/><path d="M59-937c-1.108 0-2 .892-2 2v13c0 1.108.892 2 2 2h18c1.108 0 2-.892 2-2v-13c0-1.108-.892-2-2-2zm0 1h18c.554 0 1 .446 1 1v13c0 .554-.446 1-1 1H59c-.554 0-1-.446-1-1v-13c0-.554.446-1 1-1z" fill-opacity=".502"/><rect x="56" y="-921" width="24" height="4" ry="1" fill="#bfbfbf"/><path d="M57-921c-.554 0-1 .446-1 1v2c0 .554.446 1 1 1h22c.554 0 1-.446 1-1v-2c0-.554-.446-1-1-1zm0 1h22v2H57z" fill-opacity=".502"/></g></svg>