<svg version="1.0" viewBox="0 0 24 24" xmlns="http://www.w3.org/2000/svg"><g transform="translate(-56 180)"><rect x="58" y="-180" width="20" height="24" ry="2.5" fill="#5b5b5b"/><rect x="59" y="-179" width="18" height="22" ry="2" fill="#acacac"/></g><g fill="#444"><path d="M12 7a3 3 0 0 0-3 3 3 3 0 0 0 3 3 3 3 0 0 0 3-3 3 3 0 0 0-3-3zm0 1a2 2 0 0 1 2 2 2 2 0 0 1-2 2 2 2 0 0 1-2-2 2 2 0 0 1 2-2z"/><path d="M10 15h4v1h-4z"/><path d="M10 17h4v1h-4z"/><path d="m17 3.176 2.829 2.829L17 8.833l-2.828-2.828z"/><path d="M9.974 5.146 7.145 7.974l-.707-.707L9.266 4.44z"/><path d="M8.56 3.732 5.73 6.56l-.706-.707 2.828-2.828z"/></g></svg>