<svg version="1.0" viewBox="0 0 24 24" xmlns="http://www.w3.org/2000/svg"><g transform="translate(-56 180)"><rect x="58" y="-180" width="20" height="24" ry="2.5" fill="#5b5b5b"/><rect x="59" y="-179" width="18" height="22" ry="2" fill="#acacac"/></g><g transform="translate(-104 646)" fill="#444"><path d="M115-642h2v13h-2z"/><circle cx="116" cy="-629" r="2"/><path d="M113-640h6l-3-4z"/><path d="M111-634h10v2h-10z"/><path d="M110-637h2v4h-2z"/><path d="M120-637h2v4h-2z"/><rect x="119" y="-639" width="4" height="4" ry="1"/><rect x="109" y="-639" width="4" height="4" ry="2"/><rect x="110" y="-634" width="2" height="2" ry="1"/><rect x="120" y="-634" width="2" height="2" ry="1"/></g></svg>