<svg version="1.0" viewBox="0 0 24 24" xmlns="http://www.w3.org/2000/svg"><g transform="translate(-56 -260)"><rect x="56" y="267" width="7" height="16" ry="3.5" fill="#9f9792"/><rect x="73" y="267" width="7" height="16" ry="3.5" fill="#9f9792"/><rect x="56" y="262" width="24" height="13" ry="4.5" fill="#9f9792"/><path fill="#4f4b49" d="M61 264h4v8h-4z"/><path fill="#4f4b49" d="M59 266h8v4h-8z"/><path d="M62 265v2h-2v2h2v2h2v-2h2v-2h-2v-2z" fill="#ebebeb"/><path d="M60.5 262.5c-2.216 0-4 1.784-4 4v13c0 1.662 1.338 3 3 3s3-1.338 3-3v-5h11v5c0 1.662 1.338 3 3 3s3-1.338 3-3v-13c0-2.216-1.784-4-4-4z" fill="none" stroke="#000" stroke-linecap="square" stroke-opacity=".5"/><path d="M73.5 264.5a1 1 0 0 0-1 1 1 1 0 0 0 1 1 1 1 0 0 0 1-1 1 1 0 0 0-1-1z" fill="#ffce51" stroke="#7f6728" stroke-linecap="round"/><path d="M70.5 267.5a1 1 0 0 0-1 1 1 1 0 0 0 1 1 1 1 0 0 0 1-1 1 1 0 0 0-1-1z" fill="#94a6ff" stroke="#4a537f" stroke-linecap="round"/><path d="M76.5 267.5a1 1 0 0 0-1 1 1 1 0 0 0 1 1 1 1 0 0 0 1-1 1 1 0 0 0-1-1z" fill="#ff793e" stroke="#7f3c1f" stroke-linecap="round"/><path d="M73.5 270.5a1 1 0 0 0-1 1 1 1 0 0 0 1 1 1 1 0 0 0 1-1 1 1 0 0 0-1-1z" fill="#73c48f" stroke="#396247" stroke-linecap="round"/><rect x="70" y="268" width="1" height="1" ry="0" fill="#94a6ff"/><path fill="#ffce51" d="M73 265h1v1h-1z"/><path fill="#ff793e" d="M76 268h1v1h-1z"/><path fill="#73c48f" d="M73 271h1v1h-1z"/></g></svg>