<svg version="1.0" viewBox="0 0 24 24" xmlns="http://www.w3.org/2000/svg"><g transform="translate(-56 -260)"><rect x="62" y="261" width="12" height="22" ry="6" fill="#98989d"/><path d="M68 261c-3.324 0-6 2.676-6 6v10c0 3.324 2.676 6 6 6s6-2.676 6-6v-10c0-3.324-2.676-6-6-6zm0 1c2.77 0 5 2.23 5 5v10c0 2.77-2.23 5-5 5s-5-2.23-5-5v-10c0-2.77 2.23-5 5-5z" fill-opacity=".5"/><rect x="66" y="264" width="4" height="8" ry="2" fill="#fff" fill-opacity=".4"/><path d="M68 261v21.75c0 .085-.02.164-.025.248L68 283c3.324 0 6-2.676 6-6v-10c0-3.324-2.676-6-6-6z" fill="#fff" fill-opacity=".2"/><rect x="67" y="265" width="2" height="6" ry="1" fill="#343434"/></g></svg>