<svg version="1.0" viewBox="0 0 24 24" xmlns="http://www.w3.org/2000/svg"><g stroke-linecap="square" stroke-opacity=".5" transform="translate(-56 -260)"><rect x="56" y="263" width="24" height="18" ry="2" fill="#7b736e"/><rect x="59" y="266" width="3" height="3" ry=".5" fill-opacity=".5"/><path d="M58 263c-1.108 0-2 .892-2 2v14c0 1.108.892 2 2 2h20c1.108 0 2-.892 2-2v-14c0-1.108-.892-2-2-2zm0 1h20c.554 0 1 .446 1 1v14c0 .554-.446 1-1 1H58c-.554 0-1-.446-1-1v-14c0-.554.446-1 1-1z" fill-opacity=".5"/><rect x="59" y="271" width="3" height="3" ry=".5" fill-opacity=".5"/><rect x="59" y="265" width="3" height="3" ry=".5" fill="#ededed"/><rect x="62" y="276" width="12" height="3" ry=".5" fill-opacity=".5"/><rect x="59" y="270" width="3" height="3" ry=".5" fill="#ededed"/><rect x="64" y="266" width="3" height="3" ry=".5" fill-opacity=".5"/><rect x="62" y="275" width="12" height="3" ry=".5" fill="#ededed"/><rect x="64" y="271" width="3" height="3" ry=".5" fill-opacity=".5"/><rect x="64" y="265" width="3" height="3" ry=".5" fill="#ededed"/><rect x="69" y="266" width="3" height="3" ry=".5" fill-opacity=".5"/><rect x="64" y="270" width="3" height="3" ry=".5" fill="#ededed"/><rect x="69" y="271" width="3" height="3" ry=".5" fill-opacity=".5"/><rect x="69" y="265" width="3" height="3" ry=".5" fill="#ededed"/><rect x="74" y="266" width="3" height="3" ry=".5" fill-opacity=".5"/><rect x="69" y="270" width="3" height="3" ry=".5" fill="#ededed"/><rect x="74" y="271" width="3" height="3" ry=".5" fill-opacity=".5"/><rect x="74" y="265" width="3" height="3" ry=".5" fill="#ededed"/><rect x="74" y="270" width="3" height="3" ry=".5" fill="#ededed"/></g></svg>