<svg version="1.0" viewBox="0 0 24 24" xmlns="http://www.w3.org/2000/svg"><g transform="translate(-56 -260)"><rect x="56" y="263" width="24" height="18" ry="1.5" fill="#aaa"/><path d="M56 273.5v6c0 .831.669 1.5 1.5 1.5h21c.831 0 1.5-.669 1.5-1.5v-6H57.5z" fill="#dedede"/><path d="M68 273.5v7.5" fill="none" opacity=".5" stroke="#000" stroke-width="2"/><path d="M57.5 263c-.831 0-1.5.669-1.5 1.5v15c0 .831.669 1.5 1.5 1.5h21c.831 0 1.5-.669 1.5-1.5v-15c0-.831-.669-1.5-1.5-1.5zm0 1h21c.277 0 .5.223.5.5v15c0 .277-.223.5-.5.5h-21a.499.499 0 0 1-.5-.5v-15c0-.277.223-.5.5-.5z" fill-opacity=".502"/></g></svg>