<svg version="1.0" viewBox="0 0 24 24" xmlns="http://www.w3.org/2000/svg"><g transform="translate(-56 -260)"><rect x="59" y="261" width="18" height="22" ry="1.5" fill="#98989d"/><path d="M60.5 261c-.831 0-1.5.669-1.5 1.5v2.5h18v-2.5c0-.831-.669-1.5-1.5-1.5z" fill="#bcbcc0"/><circle cx="61.5" cy="263.5" r="1" fill="#ffca40"/><path d="M62.812 268.69c6.102-4.727 9.206 2.799 4.5 3.375-5.748.704-3.563 7.5-.375 4.5s6 1.5 6 1.5" fill="none" stroke="#000" stroke-width="1.5"/><path d="M60.5 261c-.831 0-1.5.669-1.5 1.5v19c0 .831.669 1.5 1.5 1.5h15c.831 0 1.5-.669 1.5-1.5v-19c0-.831-.669-1.5-1.5-1.5zm0 1h15c.277 0 .5.223.5.5v19c0 .277-.223.5-.5.5h-15a.499.499 0 0 1-.5-.5v-19c0-.277.223-.5.5-.5z" fill-opacity=".5"/></g></svg>