<svg version="1.0" viewBox="0 0 24 24" xmlns="http://www.w3.org/2000/svg"><g stroke-linecap="square" stroke-width="2" transform="translate(-56 -260)"><path d="M57 279v-16c0-1.108.892-2 2-2h18c1.108 0 2 .892 2 2v20H61" fill="#4d4d4d"/><rect x="63" y="276" width="14" height="7" ry="0" fill-opacity=".392"/><path d="M63 276v7h10v-7zm2 1h3v5h-3z" fill="#ededed"/><path d="M60 261v9c0 .554.446 1 1 1h14c.554 0 1-.446 1-1v-9z" fill-opacity=".392"/><rect x="63" y="282" width="10" height="1" ry="0" fill-opacity=".392"/><path d="M59 261c-1.108 0-2 .892-2 2v16l4 4h18v-20c0-1.108-.892-2-2-2zm0 1h18c.554 0 1 .446 1 1v19H61.5l-3.5-3.5V263c0-.554.446-1 1-1z" fill="#fff" fill-opacity=".502"/></g></svg>