<svg version="1.0" viewBox="0 0 24 24" xmlns="http://www.w3.org/2000/svg"><g transform="translate(-56 -260)"><circle cx="68" cy="272" r="12" fill="#cdcdcd"/><path d="M68 260a12 12 0 0 0-12 12 12 12 0 0 0 12 12 12 12 0 0 0 12-12 12 12 0 0 0-12-12zm0 1a11 11 0 0 1 11 11 11 11 0 0 1-11 11 11 11 0 0 1-11-11 11 11 0 0 1 11-11z" fill-opacity=".5"/><circle cx="68" cy="272" r="4.5" fill="none" stroke="#000" stroke-linecap="square" stroke-opacity=".5"/><circle cx="68" cy="272" r="4" fill-opacity=".2"/><circle cx="68" cy="272" r="2" fill-opacity=".8"/></g></svg>