<svg version="1.0" viewBox="0 0 24 24" xmlns="http://www.w3.org/2000/svg"><g transform="translate(-56 -260)"><rect x="58" y="260" width="20" height="24" ry="2" fill="#545454"/><rect x="60" y="262" width="16" height="11" ry="0" fill="#222"/><rect x="63" y="274" width="3" height="3" ry="1.496" fill="#919191"/><rect x="70" y="274" width="3" height="3" ry="1.5" fill="#919191"/><rect x="63" y="279" width="3" height="3" ry="1.5" fill="#919191"/><rect x="70" y="279" width="3" height="3" ry="1.5" fill="#919191"/><path d="M66.517 264.84a.5.5 0 0 0-.498.47h-.001v.013l-.001.017.001.035-.001 4.288a.5.5 0 0 0 .5.5.5.5 0 0 0 .21-.048l.002.001.013-.007h.002a.5.5 0 0 0 .044-.025l3.922-2.136c.002 0 .004 0 .005-.002a.5.5 0 0 0 .017-.877l-.009-.005h-.002l-3.962-2.162a.506.506 0 0 0-.242-.062z" fill="#ededed" fill-opacity=".8"/><circle cx="64.5" cy="275.5" r=".5" fill="#222"/><circle cx="71.5" cy="275.5" r=".5" fill="#222"/><circle cx="64.5" cy="280.5" r=".5" fill="#222"/><circle cx="71.5" cy="280.5" r=".5" fill="#222"/><path d="M60 260c-1.108 0-2 .892-2 2v20c0 1.108.892 2 2 2h16c1.108 0 2-.892 2-2v-20c0-1.108-.892-2-2-2zm0 1h16c.554 0 1 .446 1 1v20c0 .554-.446 1-1 1H60c-.554 0-1-.446-1-1v-20c0-.554.446-1 1-1z" fill="#fff" fill-opacity=".502"/></g></svg>