<svg version="1.0" viewBox="0 0 24 24" xmlns="http://www.w3.org/2000/svg"><g transform="translate(-56 1540)"><rect x="57" y="-1539" width="22" height="22" ry="2" fill="#cf3b00"/><path d="M59-1539c-1.108 0-2 .892-2 2v18c0 1.108.892 2 2 2h18c1.108 0 2-.892 2-2v-18c0-1.108-.892-2-2-2zm0 1h18c.554 0 1 .446 1 1v18c0 .554-.446 1-1 1H59c-.554 0-1-.446-1-1v-18c0-.554.446-1 1-1z" fill-opacity=".5"/><path d="M61-1538c-.554 0-1 .446-1 1v2c0 .554.446 1 1 1h6c.554 0 1-.446 1-1v-2c0-.554-.446-1-1-1zm0 1h6v2h-6z" fill="#fff" fill-opacity=".5"/><path d="M69-1538c-.554 0-1 .446-1 1v2c0 .554.446 1 1 1h6c.554 0 1-.446 1-1v-2c0-.554-.446-1-1-1zm0 1h6v2h-6z" fill="#fff" fill-opacity=".5"/><path d="M65-1534c-.554 0-1 .446-1 1v2c0 .554.446 1 1 1h6c.554 0 1-.446 1-1v-2c0-.554-.446-1-1-1zm0 1h6v2h-6z" fill="#fff" fill-opacity=".5"/><path d="M59-1534c-.554 0-1 .446-1 1v2c0 .554.446 1 1 1h4c.554 0 1-.446 1-1v-2c0-.554-.446-1-1-1zm0 1h4v2h-4z" fill="#fff" fill-opacity=".5"/><path d="M73-1534c-.554 0-1 .446-1 1v2c0 .554.446 1 1 1h4c.554 0 1-.446 1-1v-2c0-.554-.446-1-1-1zm0 1h4v2h-4z" fill="#fff" fill-opacity=".5"/><path d="M61-1530c-.554 0-1 .446-1 1v2c0 .554.446 1 1 1h6c.554 0 1-.446 1-1v-2c0-.554-.446-1-1-1zm0 1h6v2h-6z" fill="#fff" fill-opacity=".5"/><path d="M69-1530c-.554 0-1 .446-1 1v2c0 .554.446 1 1 1h6c.554 0 1-.446 1-1v-2c0-.554-.446-1-1-1zm0 1h6v2h-6z" fill="#fff" fill-opacity=".5"/><path d="M65-1526c-.554 0-1 .446-1 1v2c0 .554.446 1 1 1h6c.554 0 1-.446 1-1v-2c0-.554-.446-1-1-1zm0 1h6v2h-6z" fill="#fff" fill-opacity=".5"/><path d="M59-1526c-.554 0-1 .446-1 1v2c0 .554.446 1 1 1h4c.554 0 1-.446 1-1v-2c0-.554-.446-1-1-1zm0 1h4v2h-4z" fill="#fff" fill-opacity=".5"/><path d="M73-1526c-.554 0-1 .446-1 1v2c0 .554.446 1 1 1h4c.554 0 1-.446 1-1v-2c0-.554-.446-1-1-1zm0 1h4v2h-4z" fill="#fff" fill-opacity=".5"/><path d="M61-1522c-.554 0-1 .446-1 1v2c0 .554.446 1 1 1h6c.554 0 1-.446 1-1v-2c0-.554-.446-1-1-1zm0 1h6v2h-6z" fill="#fff" fill-opacity=".5"/><path d="M69-1522c-.554 0-1 .446-1 1v2c0 .554.446 1 1 1h6c.554 0 1-.446 1-1v-2c0-.554-.446-1-1-1zm0 1h6v2h-6z" fill="#fff" fill-opacity=".5"/></g></svg>