<svg version="1.0" viewBox="0 0 24 24" xmlns="http://www.w3.org/2000/svg"><g transform="translate(-56 640)"><rect x="67" y="-631" width="13" height="5" ry="1.5" fill="#479863"/><rect x="72" y="-630" width="5" height="8" ry="2.5" fill="#479863"/><rect x="57" y="-635" width="13" height="13" ry="6.75" fill="#479863"/><circle cx="63.5" cy="-628.5" r="2" fill="#a2f3be"/><path d="M63.5-635c-3.601 0-6.5 2.899-6.5 6.5s2.899 6.5 6.5 6.5a6.484 6.484 0 0 0 6.004-4H72v1.5c0 1.385 1.115 2.5 2.5 2.5s2.5-1.115 2.5-2.5v-1.5h1.5c.831 0 1.5-.669 1.5-1.5v-2c0-.831-.669-1.5-1.5-1.5h-8.996a6.484 6.484 0 0 0-6.004-4zm0 1a5.484 5.484 0 0 1 5.29 4H78c.554 0 1 .446 1 1v1c0 .554-.446 1-1 1h-2v2.5c0 .831-.669 1.5-1.5 1.5s-1.5-.669-1.5-1.5v-2.5h-4.21a5.484 5.484 0 0 1-5.29 4c-3.047 0-5.5-2.453-5.5-5.5s2.453-5.5 5.5-5.5z" fill-opacity=".502"/></g></svg>