<svg version="1.0" viewBox="0 0 24 24" xmlns="http://www.w3.org/2000/svg"><path d="M2.5 4C1.669 4 1 4.669 1 5.5v12c0 .831.669 1.5 1.5 1.5H6l2 2h8l2-2h3.5c.831 0 1.5-.669 1.5-1.5v-12c0-.831-.669-1.5-1.5-1.5h-18z" fill="#dedede"/><path d="M60 267h16v9h-3.242l-2 2h-5.516l-2-2H60z" color="#000" fill="#4d4d4d" style="isolation:auto;mix-blend-mode:normal;text-decoration-color:#000;text-decoration-line:none;text-decoration-style:solid;text-indent:0;text-transform:none;white-space:normal" transform="translate(-56 -260)"/><path d="M2.5 18.5c-.554 0-1-.446-1-1v-12c0-.554.446-1 1-1h19c.554 0 1 .446 1 1v12c0 .554-.446 1-1 1h-3.703l-2 2H8.21l-2-2z" fill="none" stroke="#000" stroke-opacity=".5"/><path fill="#d1a023" d="M11 7h2v4h-2z"/><path fill="#d1a023" d="M14 7h2v4h-2z"/><path fill="#d1a023" d="M8 7h2v4H8z"/><path fill="#d1a023" d="M17 7h2v4h-2z"/><path fill="#d1a023" d="M5 7h2v4H5z"/></svg>