<svg version="1.0" viewBox="0 0 24 24" xmlns="http://www.w3.org/2000/svg"><g stroke-linecap="square" transform="translate(-56 -260)"><rect x="56" y="276" width="24" height="7" ry="1.5" fill="#444"/><rect transform="rotate(45)" x="240.2" y="152.08" width="1.5" height="4.5" ry=".75"/><rect transform="rotate(45)" x="242.76" y="149.51" width="1.5" height="4.5" ry=".75"/><rect transform="rotate(45)" x="245.32" y="146.95" width="1.5" height="4.5" ry=".75"/><rect x="73" y="279" width="1" height="1" ry="0" fill="#73c48f"/><path fill="#f15d22" d="M75 279h1v1h-1z"/><path fill="#faa41a" d="M77 279h1v1h-1z"/><path d="M57.5 276c-.831 0-1.5.669-1.5 1.5v4c0 .831.669 1.5 1.5 1.5h21c.831 0 1.5-.669 1.5-1.5v-4c0-.831-.669-1.5-1.5-1.5zm0 1h21c.277 0 .5.223.5.5v4c0 .277-.223.5-.5.5h-21a.499.499 0 0 1-.5-.5v-4c0-.277.223-.5.5-.5z" fill="#fff" fill-opacity=".5"/><g transform="translate(0 -7)"><rect x="56" y="276" width="24" height="7" ry="1.5" fill="#444"/><rect transform="rotate(45)" x="240.2" y="152.08" width="1.5" height="4.5" ry=".75"/><rect transform="rotate(45)" x="242.76" y="149.51" width="1.5" height="4.5" ry=".75"/><rect transform="rotate(45)" x="245.32" y="146.95" width="1.5" height="4.5" ry=".75"/><rect x="73" y="279" width="1" height="1" ry="0" fill="#73c48f"/><path fill="#f15d22" d="M75 279h1v1h-1z"/><path fill="#faa41a" d="M77 279h1v1h-1z"/><path d="M57.5 276c-.831 0-1.5.669-1.5 1.5v4c0 .831.669 1.5 1.5 1.5h21c.831 0 1.5-.669 1.5-1.5v-4c0-.831-.669-1.5-1.5-1.5zm0 1h21c.277 0 .5.223.5.5v4c0 .277-.223.5-.5.5h-21a.499.499 0 0 1-.5-.5v-4c0-.277.223-.5.5-.5z" fill="#fff" fill-opacity=".5"/></g><g transform="translate(0 -14)"><rect x="56" y="276" width="24" height="7" ry="1.5" fill="#444"/><rect transform="rotate(45)" x="240.2" y="152.08" width="1.5" height="4.5" ry=".75"/><rect transform="rotate(45)" x="242.76" y="149.51" width="1.5" height="4.5" ry=".75"/><rect transform="rotate(45)" x="245.32" y="146.95" width="1.5" height="4.5" ry=".75"/><rect x="73" y="279" width="1" height="1" ry="0" fill="#73c48f"/><path fill="#f15d22" d="M75 279h1v1h-1z"/><path fill="#faa41a" d="M77 279h1v1h-1z"/><path d="M57.5 276c-.831 0-1.5.669-1.5 1.5v4c0 .831.669 1.5 1.5 1.5h21c.831 0 1.5-.669 1.5-1.5v-4c0-.831-.669-1.5-1.5-1.5zm0 1h21c.277 0 .5.223.5.5v4c0 .277-.223.5-.5.5h-21a.499.499 0 0 1-.5-.5v-4c0-.277.223-.5.5-.5z" fill="#fff" fill-opacity=".5"/></g></g></svg>