<svg version="1.0" viewBox="0 0 24 24" xmlns="http://www.w3.org/2000/svg"><g transform="translate(-56 -260)"><rect x="59" y="260" width="18" height="24" ry="2" fill="#545454"/><rect x="62" y="263" width="12" height="18" ry="0" fill="#222"/><path d="M70 266c-.554 0-1 .446-1 1v2l1.522 1.522a7 7 0 0 1-3.995 4.005L65 273h-2c-.554 0-1 .446-1 1v3c0 .554.446 1 1 1h1a10 10 0 0 0 10-10v-1c0-.554-.446-1-1-1z" fill="#ededed" fill-opacity=".8" filter="url(#filter7554)"/><path d="M61 260c-1.108 0-2 .892-2 2v20c0 1.108.892 2 2 2h14c1.108 0 2-.892 2-2v-20c0-1.108-.892-2-2-2zm0 1h14c.554 0 1 .446 1 1v20c0 .554-.446 1-1 1H61c-.554 0-1-.446-1-1v-20c0-.554.446-1 1-1z" fill="#fff" fill-opacity=".502"/></g></svg>