<svg version="1.0" viewBox="0 0 24 24" xmlns="http://www.w3.org/2000/svg"><g transform="translate(-56 1540)"><rect x="61" y="-1540" width="14" height="6" ry="1" fill="#dedede"/><path d="M62-1540c-.554 0-1 .446-1 1v7.5c0 .554.446 1 1 1v-8.5h12v8.5c.554 0 1-.446 1-1v-7.5c0-.554-.446-1-1-1z" fill-opacity=".5"/><rect x="56" y="-1534" width="24" height="11" ry="1.5" fill="#474341"/><path d="M57.5-1534c-.831 0-1.5.669-1.5 1.5v8c0 .831.669 1.5 1.5 1.5h21c.831 0 1.5-.669 1.5-1.5v-8c0-.831-.669-1.5-1.5-1.5zm-.5 1h22v9H57z" fill="#fff" fill-opacity=".5"/><rect x="61" y="-1528" width="14" height="12" ry="1" fill="#dedede"/><rect x="59" y="-1532" width="1.5" height="1.5" ry=".75" fill="#73c48f"/><path d="M62-1528c-.554 0-1 .446-1 1v10c0 .554.446 1 1 1h12c.554 0 1-.446 1-1v-10c0-.554-.446-1-1-1v11H62z" fill-opacity=".5"/><path d="M62-1524v1a6 6 0 0 1 6 6h1a7 7 0 0 0-7-7zm0 2v1a4 4 0 0 1 4 4h1a5 5 0 0 0-5-5zm0 2v1a2 2 0 0 1 2 2h1a3 3 0 0 0-3-3zm0 2v1h1a1 1 0 0 0-1-1z" opacity=".7"/></g></svg>