<svg version="1.0" viewBox="0 0 24 24" xmlns="http://www.w3.org/2000/svg"><g stroke-linecap="square" transform="translate(-56 -260)"><rect x="61" y="260" width="14" height="6" ry="1" fill="#dedede"/><path d="M62 260c-.554 0-1 .446-1 1v7.5c0 .554.446 1 1 1V261h12v8.5c.554 0 1-.446 1-1V261c0-.554-.446-1-1-1z" fill-opacity=".5"/><rect x="56" y="266" width="24" height="11" ry="1.5" fill="#474341"/><path d="M57.5 266c-.831 0-1.5.669-1.5 1.5v8c0 .831.669 1.5 1.5 1.5h21c.831 0 1.5-.669 1.5-1.5v-8c0-.831-.669-1.5-1.5-1.5zm-.5 1h22v9H57z" fill="#fff" fill-opacity=".5"/><rect x="61" y="272" width="14" height="12" ry="1" fill="#dedede"/><rect x="59" y="268" width="1.5" height="1.5" ry=".75" fill="#73c48f"/><path d="M62 272c-.554 0-1 .446-1 1v10c0 .554.446 1 1 1h12c.554 0 1-.446 1-1v-10c0-.554-.446-1-1-1v11H62z" fill-opacity=".5"/></g></svg>