<svg version="1.0" viewBox="0 0 256 256" xmlns="http://www.w3.org/2000/svg"><g transform="translate(-464 -28)"><rect x="488" y="52" width="208" height="208" ry="16.5" fill="#faa41a"/><path d="M504.5 52c-9.141 0-16.5 7.359-16.5 16.5v175c0 9.141 7.359 16.5 16.5 16.5h175c9.141 0 16.5-7.359 16.5-16.5v-175c0-9.141-7.359-16.5-16.5-16.5zm.5 1h174c8.864 0 16 7.136 16 16v170c0 8.864-7.136 16-16 16H505c-8.864 0-16-7.136-16-16V69c0-8.864 7.136-16 16-16z" fill-opacity=".502"/><path d="M552 101c-16 0-16 16-16 16v80c0 16 16 16 16 16h80s16 0 16-16v-80c0-16-16-16-16-16h-16zm0 16.031h64v8h-64zm0 24h72v8h-72zm0 24h48v8h-48zm0 24h72v8h-72z" fill-opacity=".196"/><path d="M552 100c-16 0-16 16-16 16v80c0 16 16 16 16 16h80s16 0 16-16v-80c0-16-16-16-16-16h-16zm0 16.031h64v8h-64zm0 24h72v8h-72zm0 24h48v8h-48zm0 24h72v8h-72z" fill="#fff"/></g></svg>