<svg version="1.0" viewBox="0 0 256 256" xmlns="http://www.w3.org/2000/svg"><g transform="translate(-464 -28)"><rect x="488" y="52" width="208" height="208" ry="16.5" fill="#48b9c7"/><path d="M504.5 52c-9.141 0-16.5 7.359-16.5 16.5v175c0 9.141 7.359 16.5 16.5 16.5h175c9.141 0 16.5-7.359 16.5-16.5v-175c0-9.141-7.359-16.5-16.5-16.5zm.5 1h174c8.864 0 16 7.136 16 16v170c0 8.864-7.136 16-16 16H505c-8.864 0-16-7.136-16-16V69c0-8.864 7.136-16 16-16z" fill-opacity=".502"/><g fill-opacity=".196"><path d="M591.44 112.04c-12.659.178-29.67 4.813-29.384 19.684.299 15.517 17.504 9.968 18.903 16.31.211-.27.53-.493.748-.75 1.185-1.28 2.371-2.326 3.556-3.562 1.875-2.115 3.818-4.074 5.802-6.186 6.64-7.069 6.925-7.5 22.776-19.497-6.207-3.726-13.547-5.794-19.782-5.999-.799-.03-1.776-.012-2.62 0zm-11.417 9.186c4.962 0 8.984 4.029 8.984 8.999s-4.022 8.998-8.984 8.998c-4.961 0-8.984-4.029-8.984-8.998s4.023-8.999 8.984-8.999zm43.612 3.97c-8.51 13.4-14.2 21.335-20.217 27.525-3.836 3.945-6.979 7.87-9.732 10.685-5.034 5.342-11.627 11.645-18.903 18.56.38 8.812 4.865 16.478 19.464 19.309 23.389 4.535 48.161-10.945 45.668-42.368-1.07-13.488-8.432-25.688-16.28-33.712zm2.055 22.838c3.293 0 5.99 2.686 5.99 5.999 0 3.313-2.697 5.999-5.99 5.999s-5.989-2.686-5.989-6c0-3.312 2.696-5.998 5.99-5.998zm-3.743 17.997c3.293 0 5.989 2.686 5.989 5.999 0 3.313-2.696 5.999-5.99 5.999-3.292 0-5.988-2.686-5.988-6 0-3.312 2.696-5.998 5.989-5.998zm-29.945 11.997c3.292 0 5.989 2.686 5.989 6 0 3.312-2.697 5.998-5.99 5.998-3.292 0-5.989-2.686-5.989-5.999 0-3.313 2.697-5.999 5.99-5.999zm17.967 0c3.293 0 5.99 2.686 5.99 6 0 3.312-2.697 5.998-5.99 5.998s-5.989-2.686-5.989-5.999c0-3.313 2.696-5.999 5.99-5.999z"/><path d="M544.052 192.976c9.312.004 8.362-10.725 12.883-13.712 5.24-3.462 9.832.828 10.748 4.357 1.157 4.455-.7 9.788-6.78 11.308-6.44 1.61-15.97 1.658-16.851-1.953z"/><path d="M628.28 112.04c-10.798 7.793-25.238 19.81-36.69 32.001-1.039 1.107-2.043 2.174-3.025 3.282-.621.647-1.27 1.175-1.892 1.846-.391.46-.755.977-1.134 1.436-11.239 12.422-22.318 28.085-29.503 39.797 17.864-13.785 29.496-24.99 36.879-32.822 1.442-1.475 3.175-3.398 5.106-5.539 7.221-8.007 17.55-20.625 30.259-40.001z"/></g><g fill="#fff"><path d="M591.44 111.04c-12.659.178-29.67 4.813-29.384 19.684.299 15.517 17.504 9.968 18.903 16.31.211-.27.53-.493.748-.75 1.185-1.28 2.371-2.326 3.556-3.562 1.875-2.115 3.818-4.074 5.802-6.186 6.64-7.069 6.925-7.5 22.776-19.497-6.207-3.726-13.547-5.794-19.782-5.999-.799-.03-1.776-.012-2.62 0zm-11.417 9.186c4.962 0 8.984 4.029 8.984 8.999s-4.022 8.998-8.984 8.998c-4.961 0-8.984-4.029-8.984-8.998s4.023-8.999 8.984-8.999zm43.612 3.97c-8.51 13.4-14.2 21.335-20.217 27.525-3.836 3.945-6.979 7.87-9.732 10.685-5.034 5.342-11.627 11.645-18.903 18.56.38 8.812 4.865 16.478 19.464 19.309 23.389 4.535 48.161-10.945 45.668-42.368-1.07-13.488-8.432-25.688-16.28-33.712zm2.055 22.838c3.293 0 5.99 2.686 5.99 5.999 0 3.313-2.697 5.999-5.99 5.999s-5.989-2.686-5.989-6c0-3.312 2.696-5.998 5.99-5.998zm-3.743 17.997c3.293 0 5.989 2.686 5.989 5.999 0 3.313-2.696 5.999-5.99 5.999-3.292 0-5.988-2.686-5.988-6 0-3.312 2.696-5.998 5.989-5.998zm-29.945 11.997c3.292 0 5.989 2.686 5.989 6 0 3.312-2.697 5.998-5.99 5.998-3.292 0-5.989-2.686-5.989-5.999 0-3.313 2.697-5.999 5.99-5.999zm17.967 0c3.293 0 5.99 2.686 5.99 6 0 3.312-2.697 5.998-5.99 5.998s-5.989-2.686-5.989-5.999c0-3.313 2.696-5.999 5.99-5.999z"/><path d="M544.052 191.976c9.312.004 8.362-10.725 12.883-13.712 5.24-3.462 9.832.828 10.748 4.357 1.157 4.455-.7 9.788-6.78 11.308-6.44 1.61-15.97 1.658-16.851-1.953z"/><path d="M628.28 111.04c-10.798 7.793-25.238 19.81-36.69 32.001-1.039 1.107-2.043 2.174-3.025 3.282-.621.647-1.27 1.175-1.892 1.846-.391.46-.755.977-1.134 1.436-11.239 12.422-22.318 28.085-29.503 39.797 17.864-13.785 29.496-24.99 36.879-32.822 1.442-1.475 3.175-3.398 5.106-5.539 7.221-8.007 17.55-20.625 30.259-40.001z"/></g></g></svg>