<svg version="1.0" viewBox="0 0 256 256" xmlns="http://www.w3.org/2000/svg"><g transform="translate(-464 -28)"><rect x="488" y="52" width="208" height="208" ry="16.5" fill="#479863"/><path d="M504.5 52c-9.141 0-16.5 7.359-16.5 16.5v175c0 9.141 7.359 16.5 16.5 16.5h175c9.141 0 16.5-7.359 16.5-16.5v-175c0-9.141-7.359-16.5-16.5-16.5zm.5 1h174c8.864 0 16 7.136 16 16v170c0 8.864-7.136 16-16 16H505c-8.864 0-16-7.136-16-16V69c0-8.864 7.136-16 16-16z" fill-opacity=".502"/><g fill-opacity=".196" color="#000"><path d="M181.76 194.3a1 1 0 0 0-.488 1.873l.492.273v2.682c-.13.204-.25.387-.44.715-.272.47-.605 1.06-.966 1.707a514.583 514.583 0 0 0-2.203 3.994c-.573 1.047-.551 2.454.3 3.514.674.9 1.738 1.14 2.62 1.14h7.347c.881 0 1.946-.24 2.62-1.14.85-1.059.87-2.463.3-3.51v-.004c-1.163-2.368-2.474-4.217-3.562-6.395v-2.703l.49-.273a1 1 0 0 0-.487-1.873zm2.004 2h2.015v3.107a1 1 0 0 0 .102.44c1.202 2.457 2.574 4.343 3.686 6.617a1 1 0 0 0 .02.04c.239.438.253.882-.1 1.314a1 1 0 0 0-.036.044c-.144.199-.489.336-1.029.336h-7.348c-.54 0-.884-.137-1.029-.336a1 1 0 0 0-.035-.044c-.354-.432-.34-.876-.1-1.315a511.254 511.254 0 0 1 2.192-3.976c.358-.642.69-1.226.953-1.68.263-.454.49-.815.517-.852a1 1 0 0 0 .192-.588z" style="font-feature-settings:normal;font-variant-alternates:normal;font-variant-caps:normal;font-variant-ligatures:normal;font-variant-numeric:normal;font-variant-position:normal;isolation:auto;mix-blend-mode:normal;shape-padding:0;text-decoration-color:#000;text-decoration-line:none;text-decoration-style:solid;text-indent:0;text-orientation:mixed;text-transform:none;white-space:normal" transform="matrix(6 0 0 6 -516.5 -1056.5)"/><path d="m581.38 160.72-13.313 23.994h48l-13.313-23.994z" opacity=".5"/></g><g fill="#fff" color="#000"><path d="M181.76 194.3a1 1 0 0 0-.488 1.873l.492.273v2.682c-.13.204-.25.387-.44.715-.272.47-.605 1.06-.966 1.707a514.583 514.583 0 0 0-2.203 3.994c-.573 1.047-.551 2.454.3 3.514.674.9 1.738 1.14 2.62 1.14h7.347c.881 0 1.946-.24 2.62-1.14.85-1.059.87-2.463.3-3.51v-.004c-1.163-2.368-2.474-4.217-3.562-6.395v-2.703l.49-.273a1 1 0 0 0-.487-1.873zm2.004 2h2.015v3.107a1 1 0 0 0 .102.44c1.202 2.457 2.574 4.343 3.686 6.617a1 1 0 0 0 .02.04c.239.438.253.882-.1 1.314a1 1 0 0 0-.036.044c-.144.199-.489.336-1.029.336h-7.348c-.54 0-.884-.137-1.029-.336a1 1 0 0 0-.035-.044c-.354-.432-.34-.876-.1-1.315a511.254 511.254 0 0 1 2.192-3.976c.358-.642.69-1.226.953-1.68.263-.454.49-.815.517-.852a1 1 0 0 0 .192-.588z" style="font-feature-settings:normal;font-variant-alternates:normal;font-variant-caps:normal;font-variant-ligatures:normal;font-variant-numeric:normal;font-variant-position:normal;isolation:auto;mix-blend-mode:normal;shape-padding:0;text-decoration-color:#000;text-decoration-line:none;text-decoration-style:solid;text-indent:0;text-orientation:mixed;text-transform:none;white-space:normal" transform="matrix(6 0 0 6 -516.5 -1057.5)"/><path d="m581.38 159.72-13.313 23.994h48l-13.313-23.994z" opacity=".5"/></g></g></svg>