<svg version="1.0" viewBox="0 0 256 256" xmlns="http://www.w3.org/2000/svg"><g transform="translate(-464 -28)"><rect transform="rotate(90)" x="52" y="-696" width="152" height="152" ry="16" fill="#500302"/><rect x="545" y="53" width="150" height="146" ry="15.5" fill="#cf3b00"/><path d="M587.62 75.854a3.553 3.553 0 0 0-3.552 3.559v72.879c0 2.703 2.89 4.419 5.257 3.12L656 118.971c2.46-1.35 2.46-4.89 0-6.239l-60.01-32.797-6.665-3.641a3.539 3.539 0 0 0-1.705-.439z" color="#000" fill="#fff" fill-opacity=".94" style="isolation:auto;mix-blend-mode:normal;text-decoration-color:#000;text-decoration-line:none;text-decoration-style:solid;text-indent:0;text-transform:none;white-space:normal"/><rect transform="rotate(90)" x="108" y="-640" width="152" height="152" ry="16" fill="#793914"/><rect x="489" y="109" width="150" height="146" ry="15.5" fill="#f37329"/><path d="M544 149v50.156a16 16 0 0 0-8-2.156c-8.837 0-16 7.163-16 16s7.163 16 16 16 16-7.164 16-16v-40h40v26.156a16 16 0 0 0-8-2.156c-8.837 0-16 7.163-16 16s7.163 16 16 16 16-7.164 16-16v-64h-4z" fill-opacity=".196"/><path d="M544 148v50.156a16 16 0 0 0-8-2.156c-8.837 0-16 7.163-16 16s7.163 16 16 16 16-7.164 16-16v-40h40v26.156a16 16 0 0 0-8-2.156c-8.837 0-16 7.163-16 16s7.163 16 16 16 16-7.164 16-16v-64h-4z" fill="#fff" fill-opacity=".94"/></g></svg>