<svg version="1.0" viewBox="0 0 256 256" xmlns="http://www.w3.org/2000/svg"><g transform="translate(-464 -28)"><rect x="488" y="52" width="208" height="208" ry="16.5" fill="#cdcdcd"/><rect x="103.25" y="255" width="26" height="26" ry="2.5" fill="#cdcdcd"/><rect x="57.5" y="261" width="22" height="22" ry="2.5" fill="#cdcdcd"/><path d="M105.5 255a2.495 2.495 0 0 0-2.5 2.5v21c0 1.385 1.115 2.5 2.5 2.5h21c1.385 0 2.5-1.115 2.5-2.5v-21c0-1.385-1.115-2.5-2.5-2.5zm.5 1h20c1.108 0 2 .892 2 2v19c0 1.108-.892 2-2 2h-20c-1.108 0-2-.892-2-2v-19c0-1.108.892-2 2-2z" fill-opacity=".502"/><rect x="17" y="269" width="14" height="14" ry="2.5" fill="#cdcdcd"/><rect x="230.5" y="225.75" width="52" height="52" ry="4.5" fill="#cdcdcd"/><rect x="160" y="240.5" width="40" height="39" ry="3.5" fill="#cdcdcd"/><rect x="324" y="168" width="104" height="104" ry="8.5" fill="#cdcdcd"/><path d="M59.5 261a2.495 2.495 0 0 0-2.5 2.5v17c0 1.385 1.115 2.5 2.5 2.5h17c1.385 0 2.5-1.115 2.5-2.5v-17c0-1.385-1.115-2.5-2.5-2.5zm.5 1h16c1.108 0 2 .892 2 2v16c0 1.108-.892 2-2 2H60c-1.108 0-2-.892-2-2v-16c0-1.108.892-2 2-2z" fill-opacity=".502"/><path d="M19.5 269a2.495 2.495 0 0 0-2.5 2.5v9c0 1.385 1.115 2.5 2.5 2.5h9c1.385 0 2.5-1.115 2.5-2.5v-9c0-1.385-1.115-2.5-2.5-2.5zm.5 1h8c1.108 0 2 .892 2 2v8c0 1.108-.892 2-2 2h-8c-1.108 0-2-.892-2-2v-8c0-1.108.892-2 2-2z" fill-opacity=".502"/><path d="M234.5 226a4.49 4.49 0 0 0-4.5 4.5v43a4.49 4.49 0 0 0 4.5 4.5h43a4.49 4.49 0 0 0 4.5-4.5v-43a4.49 4.49 0 0 0-4.5-4.5zm.5 1h42c2.216 0 4 1.784 4 4v40c0 2.216-1.784 4-4 4h-42c-2.216 0-4-1.784-4-4v-40c0-2.216 1.784-4 4-4z" fill-opacity=".502"/><path d="M163.5 240a3.492 3.492 0 0 0-3.5 3.5v32c0 1.939 1.561 3.5 3.5 3.5h33c1.939 0 3.5-1.561 3.5-3.5v-32c0-1.939-1.561-3.5-3.5-3.5zm.5 1h32c1.662 0 3 1.338 3 3v29c0 1.662-1.338 3-3 3h-32c-1.662 0-3-1.338-3-3v-29c0-1.662 1.338-3 3-3z" fill-opacity=".502"/><path d="M332.5 168a8.481 8.481 0 0 0-8.5 8.5v87c0 4.709 3.791 8.5 8.5 8.5h87c4.709 0 8.5-3.791 8.5-8.5v-87c0-4.709-3.791-8.5-8.5-8.5zm.5 1h86c4.432 0 8 3.568 8 8v83c0 4.432-3.568 8-8 8h-86c-4.432 0-8-3.568-8-8v-83c0-4.432 3.568-8 8-8z" fill-opacity=".502"/><path d="M504.5 52c-9.141 0-16.5 7.359-16.5 16.5v175c0 9.141 7.359 16.5 16.5 16.5h175c9.141 0 16.5-7.359 16.5-16.5v-175c0-9.141-7.359-16.5-16.5-16.5zm.5 1h174c8.864 0 16 7.136 16 16v170c0 8.864-7.136 16-16 16H505c-8.864 0-16-7.136-16-16V69c0-8.864 7.136-16 16-16z" fill-opacity=".502"/><path d="M112.5 271h1l4-10h1l4 10h1v1H120v-1h1l-.715-2h-4.555l-.73 2h1v1h-3.5zm3.5-3h4l-1.996-5.21z" aria-label="A"/><g fill="none" stroke="#000" stroke-opacity=".251"><path d="M112 271.5h-2.5v-10h2.5"/><path d="M122.5 272v2.5h-10V272"/></g><path d="M248 258h2l8-20h2l8 20h2v2h-7v-2h2l-1.43-4h-9.11l-1.46 4h2v2h-7zm7-6h8l-3.992-10.422z" aria-label="A"/><g fill="none" stroke="#000" stroke-opacity=".251"><path d="M247 259.5h-2.5v-21h2.5"/><path d="M269.5 261v2.5h-21V261"/></g><path d="M171 267h2l8-20h2l8 20h2v2h-7v-2h2l-1.43-4h-9.11l-1.46 4h2v2h-7zm7-6h8l-3.992-10.422z" aria-label="A"/><path d="M170 268.5h-2.5v-21h2.5" fill="none" stroke="#000" stroke-opacity=".251"/><path d="M192.5 270v2.5h-21V270" fill="none" stroke="#000" stroke-opacity=".251"/><path d="M360 233h4l16-40h4l16 40h4v4h-14v-4h4l-2.86-8h-18.218L370 233h4v4h-14zm14-12h16l-7.984-20.844z" aria-label="A"/><g fill="none" stroke="#000" stroke-opacity=".251"><path d="M359 236.4h-9.5v-43h9.5"/><path d="M403.5 238v6.5h-43V238"/></g><path d="M559 184h8l32-80h8l32 80h8v8h-28v-8h8l-5.719-16h-36.437L579 184h8v8h-28zm28-24h32l-15.969-41.687z" aria-label="A"/><g fill="none" stroke="#000" stroke-opacity=".251" stroke-width="2"><path d="M557 190.8h-19v-86h19"/><path d="M646 194v13h-86v-13"/></g><path d="M21 278h1l3-8h1l3 8h1v1h-3.5v-1h1l-.715-2H24.23l-.73 2h1v1H21zm3.5-3h2l-.996-3.21z" aria-label="A"/><rect x="19" y="270" width="1" height="11" ry="0" fill-opacity=".251"/><path fill-opacity=".251" d="M19 280h11v1H19z"/><path d="M63.5 276h1l4-10h1l4 10h1v1H71v-1h1l-.715-2H66.73l-.73 2h1v1h-3.5zm3.5-3h4l-1.996-5.21z" aria-label="A"/><path fill-opacity=".251" d="M63 277h12v1H63z"/><path fill-opacity=".251" d="M62 266h1v11h-1z"/></g></svg>