<svg version="1.0" viewBox="0 0 256 256" xmlns="http://www.w3.org/2000/svg"><g transform="translate(-464 -28)"><rect x="488" y="52" width="208" height="208" ry="16.5" fill="#4f4b49"/><rect x="489" y="53" width="206" height="202" ry="16" fill="#9f9792"/><path d="m581.54 107.03-.926 11.063a33 33 0 0 0-9.644 5.578l-10.055-4.734-10.5 18.187 9.129 6.34a33 33 0 0 0-.504 5.566 33 33 0 0 0 .48 5.59l-9.105 6.316 10.5 18.187 10.031-4.723a33 33 0 0 0 9.668 5.543l.926 11.087h21l.926-11.063a33 33 0 0 0 9.644-5.578l10.055 4.734 10.5-18.187-9.129-6.34a33 33 0 0 0 .504-5.566 33 33 0 0 0-.48-5.59l9.105-6.316-10.5-18.187-10.031 4.722a33 33 0 0 0-9.668-5.543l-.926-11.086zm10.5 30a12 12 0 0 1 12 12 12 12 0 0 1-12 12 12 12 0 0 1-12-12 12 12 0 0 1 12-12z" fill-opacity=".196"/><path d="m581.54 106.03-.926 11.063a33 33 0 0 0-9.644 5.578l-10.055-4.734-10.5 18.187 9.129 6.34a33 33 0 0 0-.504 5.566 33 33 0 0 0 .48 5.59l-9.105 6.316 10.5 18.187 10.031-4.723a33 33 0 0 0 9.668 5.543l.926 11.087h21l.926-11.063a33 33 0 0 0 9.644-5.578l10.055 4.734 10.5-18.187-9.129-6.34a33 33 0 0 0 .504-5.566 33 33 0 0 0-.48-5.59l9.105-6.316-10.5-18.187-10.031 4.722a33 33 0 0 0-9.668-5.543l-.926-11.086zm10.5 30a12 12 0 0 1 12 12 12 12 0 0 1-12 12 12 12 0 0 1-12-12 12 12 0 0 1 12-12z" fill="#fff"/></g></svg>