<svg version="1.0" viewBox="0 0 256 256" xmlns="http://www.w3.org/2000/svg"><g transform="translate(-464 -28)"><rect x="488" y="52" width="208" height="208" ry="16.5" fill="#d1a023"/><path d="M504.5 52c-9.141 0-16.5 7.359-16.5 16.5v175c0 9.141 7.359 16.5 16.5 16.5h175c9.141 0 16.5-7.359 16.5-16.5v-175c0-9.141-7.359-16.5-16.5-16.5zm.5 1h174c8.864 0 16 7.136 16 16v170c0 8.864-7.136 16-16 16H505c-8.864 0-16-7.136-16-16V69c0-8.864 7.136-16 16-16z" fill-opacity=".502"/><g fill-opacity=".502"><path d="M606 134.02v22.39c8.202 2.86 15.15 8.146 20 14.977V134.02z"/><path d="M606 107.98c-7.364 3.075-12 9.267-12 16.031 0 9.941 9.85 18 22 18s22-6.059 22-16c-.008-6.758-4.642-14.943-12-18.015v18.015l-6 4h-8l-6-4z"/><path d="M592 158.02a38 36 0 0 0-38 36h-10c-1.108 0-2 .892-2 2v8c0 1.108.892 2 2 2h96c1.108 0 2-.892 2-2v-8c0-1.108-.892-2-2-2h-10a38 36 0 0 0-38-36zm0 10a26 26 0 0 1 26 26h-52a26 26 0 0 1 26-26z"/></g><g fill="#fff"><path d="M606 133.02v22.39c8.202 2.86 15.15 8.146 20 14.977V133.02z"/><path d="M606 106.98c-7.364 3.075-12 9.267-12 16.031 0 9.941 9.85 18 22 18s22-6.059 22-16c-.008-6.758-4.642-14.943-12-18.015v18.015l-6 4h-8l-6-4z"/><path d="M592 157.02a38 36 0 0 0-38 36h-10c-1.108 0-2 .892-2 2v8c0 1.108.892 2 2 2h96c1.108 0 2-.892 2-2v-8c0-1.108-.892-2-2-2h-10a38 36 0 0 0-38-36zm0 10a26 26 0 0 1 26 26h-52a26 26 0 0 1 26-26z"/></g></g></svg>