<svg version="1.0" viewBox="0 0 256 256" xmlns="http://www.w3.org/2000/svg"><g transform="translate(-464 -28)"><rect x="488" y="52" width="208" height="208" ry="16.5" fill="#3f51b5"/><path d="M504.5 52c-9.141 0-16.5 7.359-16.5 16.5v175c0 9.141 7.359 16.5 16.5 16.5h175c9.141 0 16.5-7.359 16.5-16.5v-175c0-9.141-7.359-16.5-16.5-16.5zm.5 1h174c8.864 0 16 7.136 16 16v170c0 8.864-7.136 16-16 16H505c-8.864 0-16-7.136-16-16V69c0-8.864 7.136-16 16-16z" fill-opacity=".502"/><path d="M592 111c-25.358 0-46 20.642-46 46s20.642 46 46 46 46-20.642 46-46-20.642-46-46-46zm0 8c21.034 0 38 16.966 38 38s-16.966 38-38 38-38-16.966-38-38 16.966-38 38-38z" color="#000" fill-opacity=".502" style="font-feature-settings:normal;font-variant-alternates:normal;font-variant-caps:normal;font-variant-ligatures:normal;font-variant-numeric:normal;font-variant-position:normal;isolation:auto;mix-blend-mode:normal;shape-padding:0;text-decoration-color:#000;text-decoration-line:none;text-decoration-style:solid;text-indent:0;text-orientation:mixed;text-transform:none;white-space:normal"/><rect x="554" y="135" width="72" height="4" ry="0" fill-opacity=".502"/><rect x="554" y="175" width="72" height="4" ry="0" fill-opacity=".502"/><rect x="550" y="155" width="80" height="4" ry="0" fill-opacity=".502"/><path d="M592 115c-2.558 0-4.668 1.682-6.303 3.986-1.634 2.305-2.971 5.401-4.097 9.155-2.252 7.506-3.6 17.652-3.6 28.859s1.348 21.353 3.6 28.859c1.126 3.753 2.463 6.85 4.097 9.154 1.635 2.305 3.745 3.986 6.303 3.986s4.668-1.682 6.303-3.986c1.634-2.305 2.971-5.401 4.097-9.154 2.252-7.507 3.6-17.652 3.6-28.86s-1.348-21.352-3.6-28.858c-1.126-3.754-2.463-6.85-4.097-9.155-1.635-2.304-3.745-3.986-6.303-3.986zm0 4c.756 0 1.802.557 3.04 2.3 1.236 1.744 2.485 4.506 3.53 7.991 2.091 6.97 3.43 16.825 3.43 27.709s-1.339 20.739-3.43 27.709c-1.045 3.485-2.294 6.247-3.53 7.99-1.238 1.744-2.284 2.301-3.04 2.301s-1.802-.557-3.04-2.3c-1.236-1.744-2.485-4.506-3.53-7.991-2.091-6.97-3.43-16.825-3.43-27.709s1.339-20.739 3.43-27.709c1.045-3.485 2.294-6.247 3.53-7.99 1.238-1.744 2.284-2.301 3.04-2.301z" color="#000" fill-opacity=".502" opacity=".5" style="font-feature-settings:normal;font-variant-alternates:normal;font-variant-caps:normal;font-variant-ligatures:normal;font-variant-numeric:normal;font-variant-position:normal;isolation:auto;mix-blend-mode:normal;shape-padding:0;text-decoration-color:#000;text-decoration-line:none;text-decoration-style:solid;text-indent:0;text-orientation:mixed;text-transform:none;white-space:normal"/><path d="M592 115c-8.504 0-16.096 4.938-21.438 12.568s-8.563 18.008-8.563 29.432 3.222 21.802 8.563 29.432S583.495 199 592 199s16.096-4.938 21.438-12.568 8.563-18.008 8.563-29.432-3.222-21.802-8.563-29.432S600.505 115 592 115zm0 4c6.96 0 13.367 4.016 18.16 10.863C614.953 136.71 618 146.332 618 157s-3.047 20.29-7.84 27.137C605.367 190.984 598.96 195 592 195s-13.367-4.016-18.16-10.863C569.047 177.29 566 167.668 566 157s3.047-20.29 7.84-27.137C578.633 123.016 585.04 119 592 119z" color="#000" fill-opacity=".502" opacity=".5" style="font-feature-settings:normal;font-variant-alternates:normal;font-variant-caps:normal;font-variant-ligatures:normal;font-variant-numeric:normal;font-variant-position:normal;isolation:auto;mix-blend-mode:normal;shape-padding:0;text-decoration-color:#000;text-decoration-line:none;text-decoration-style:solid;text-indent:0;text-orientation:mixed;text-transform:none;white-space:normal"/><g transform="matrix(4 0 0 4 -130 -882)"><circle cx="180.5" cy="259.5" r="10.5" fill="none" stroke="#fdfdfd" stroke-linecap="square" stroke-width="2"/><rect x="171" y="254" width="18" height="1" ry="0" fill="#fff"/><rect x="171" y="264" width="18" height="1" ry="0" fill="#fff"/><rect x="170" y="259" width="20" height="1" ry="0" fill="#fff"/><ellipse cx="180.5" cy="259.5" rx="3" ry="10" fill="none" opacity=".5" stroke="#fdfdfd" stroke-linecap="square"/><ellipse cx="180.5" cy="259.5" rx="7" ry="10" fill="none" opacity=".5" stroke="#fdfdfd" stroke-linecap="square"/></g></g></svg>