<svg version="1.0" viewBox="0 0 256 256" xmlns="http://www.w3.org/2000/svg"><g transform="translate(-464 -28)"><rect x="488" y="52" width="208" height="208" ry="16.5" fill="#3f51b5"/><path d="M504.5 52c-9.141 0-16.5 7.359-16.5 16.5v175c0 9.141 7.359 16.5 16.5 16.5h175c9.141 0 16.5-7.359 16.5-16.5v-175c0-9.141-7.359-16.5-16.5-16.5zm.5 1h174c8.864 0 16 7.136 16 16v170c0 8.864-7.136 16-16 16H505c-8.864 0-16-7.136-16-16V69c0-8.864 7.136-16 16-16z" fill-opacity=".502"/><g transform="matrix(6 0 0 6 -434 -881)" fill-opacity=".196"><path transform="translate(.333 5) scale(.66667)" d="m247 243-2.977 17.824 2.616 1.154 3.36-5.478h11.827l3.555 5.502 2.578-1.272-2.96-17.73z" filter="url(#filter7554)"/><rect x="165" y="166" width="4" height="2" ry="1" filter="url(#filter7554)"/><rect x="173" y="166" width="4" height="2" ry="1" filter="url(#filter7554)"/><rect x="177" y="178" width="2" height="2" ry="1" filter="url(#filter7554)"/><rect x="163" y="178" width="2" height="2" ry="1" filter="url(#filter7554)"/><circle cx="173.33" cy="169.67" r="1"/><circle cx="175.33" cy="173" r="1"/><g transform="translate(.667)"><rect x="166.33" y="168.67" width="1.333" height="4" ry=".333"/><rect x="165" y="170" width="4" height="1.333" ry=".333"/></g></g><g transform="matrix(6 0 0 6 -434 -882)"><path transform="translate(.333 5) scale(.66667)" d="m247 243-2.977 17.824 2.616 1.154 3.36-5.478h11.827l3.555 5.502 2.578-1.272-2.96-17.73z" fill="#fff" filter="url(#filter7554)"/><rect x="165" y="166" width="4" height="2" ry="1" fill="#fff" filter="url(#filter7554)"/><rect x="173" y="166" width="4" height="2" ry="1" fill="#fff" filter="url(#filter7554)"/><rect x="177" y="178" width="2" height="2" ry="1" fill="#fff" filter="url(#filter7554)"/><rect x="163" y="178" width="2" height="2" ry="1" fill="#fff" filter="url(#filter7554)"/><circle cx="173.33" cy="169.67" r="1" fill="#3f51b5"/><circle cx="175.33" cy="173" r="1" fill="#3f51b5"/><g transform="translate(.667)" fill="#3f51b5"><rect x="166.33" y="168.67" width="1.333" height="4" ry=".333"/><rect x="165" y="170" width="4" height="1.333" ry=".333"/></g></g></g></svg>