<svg version="1.0" viewBox="0 0 256 256" xmlns="http://www.w3.org/2000/svg"><g transform="translate(-464 -28)"><rect x="488" y="52" width="208" height="208" ry="16.5" fill="#2e7153"/><path d="M504.5 52c-9.141 0-16.5 7.359-16.5 16.5v175c0 9.141 7.359 16.5 16.5 16.5h175c9.141 0 16.5-7.359 16.5-16.5v-175c0-9.141-7.359-16.5-16.5-16.5zm.5 1h174c8.864 0 16 7.136 16 16v170c0 8.864-7.136 16-16 16H505c-8.864 0-16-7.136-16-16V69c0-8.864 7.136-16 16-16z" fill-opacity=".502"/><g fill="#fff" stroke-width="6.25" aria-label="ABC"><path d="m539.92 153.06-.233.093q-.187-.046 0-.606l.233-.654.233.514zm18.013 0q0 .28-.047.467 0 .14-.046.28l-.187-.98zm11.2 26.46-.793.793q-.28.374-.374.887-.093-.093-.233-1.073 0-.84-.513-.934l-.467.14q-.7.607-.933 1.587l-.7.187q-.7 0-1.26-.98l-.934-1.82q.14-.7-.42-1.82-.513-1.12-.513-1.774-1.027-.28-1.26-1.96 0-1.633-1.213-2.1 0-1.4-.98-2.8l-1.914-2.753q-.42.14-.84-.047-.373-.186-.84-.7-.606.234-1.353.234-.7 0-1.633-.234l-1.587-.233q-.84 0-1.633.467l-.14-.467q-.14-.28-.234-.373-1.68.42-2.38 2.52l-.653 3.64q-.56-.7-.84-1.727l.187.327q.326.14.466-.047l.28-.467q0-.56-.56-1.446-.513-.887-.513-1.214 0-.56.98-.98 0-.42-.187-.606-.513 0-.886.28l-.84 1.073q.326.56.326 1.307 0 .42-.046.653t-.327 1.12l-.327 1.727q0 1.073 1.12 1.913l-.98 3.127q-.28 1.12-1.4 2.24-.326-.7-.84-.794-.14.047-.326.14-.187.094-.607.42-.42.28-.933.374-.42 0-.887-.514l-.513.747h-.42v-.373q-.374.28-.794.326-.42 0-.746-1.026l-.42-1.26.746-.327q-.14-.327-.746-.84-.56-.56-.56-1.027 0-.28.186-.653l.374-.887q.14-.233.98-.606.233.186.746.373.56-.42.56-.933 0-.42-.466-1.12-.42-.747-.42-1.167l.14-.513.513-2.287q.28-2.053 1.587-2.24l-.747-.98q-.28-.42-.28-.887 0-.28.28-.84l-.887-.933q-.373-.513-.373-1.027 0-.373.093-.513 1.027 0 1.96-.98l1.12-1.167v-.746q.327 0 .514.046l.793.187q.373 0 .607-.42l.233-.747.047-.653q0-.653-.42-1.633l-.84-2.147 1.213.187q.14-.28 0-.56l-.42-.654q.14-.326.233-.466l1.12-.654-.84-.84q-.42-.42-.84-.28l.187-1.213q0-.84.093-1.307h.467q0 .42-.187.654.234.233.7.326.467 0 1.074-.373l.84-.42q.14-.233.14-.327l.093-.606-.42-.187-.653.42q-.42.42-.84.187l.186-1.26.187-1.307q0-.607-.187-.98.094-.093.514-.093.233 0 .466.56l-.326.56q-.14.186.093.373.607-.28.84-.56.28-.327.28-.7 0-.327-.327-1.027l-.326-1.166q0-.327.046-.514.094-.233.467-.606l-.047-.654q0-.326-.373-.513l-.373.14-.374.093 1.634-2.707q.7-1.073 1.866-1.073 0-.7.467-.747l.793.234q.56.14.98.047.84 1.12 1.867 1.12.467 0 .84-.187.14.187-.047.513l-.326.42q.653.047.98.514.326.466.326 1.26l-.093 1.866-.42 1.354q0 .326.187.56.56.14.933.56l.98 1.586-.187 1.26q0 .934.327 2.52l.42 1.774q-.093.233.047.7.14.42.513.466.327-.14.42-.233l.187-.187q-.28.514-.28 1.167 0 .56.326 1.587l.327 1.4q0 .746-.373 1.26.513.326.793 2.146.187 1.68.7 1.774.373 0 .933-.514h.234l.093.56q0 .607-.373 1.214-.374.56-.887.933.187.14.327.187.14.046.233.093.56 0 .84-.093.747 0 1.4 1.166.653 1.167.98 1.26.373 0 .933-1.026 0 .793 1.214 1.493 1.026.56 1.026 1.727-.42 0-1.073-.84t-1.027-.934q-.42 0-1.026.747 0 .42.466.933l.467.654q0 .28-.513.56h-.42q0-.84-.327-1.12h-.42l-.14.606q0 .467.233.887l.654.607.233-.234q.513.187.607.7l-.234.607-.186.607q0 .373.56.653.793-.14.653-1.167.187 1.213.513 2.1.327.887 1.167 2.147l-.187.093q.794.42 1.4 2.193.654 1.68 1.68 2.1 0 .794.514 1.96.56 1.214.653 1.914zm-33.273-12.927q-.327.233-.56.233l.467-.56q.186.094.093.327zm-.933 2.333h-.187v-.746h.187zm.373 1.4h-.933l.186-.84.56.28q.28.14.187.56zm-.933 4.807-.28.42-.28.327q-.374 0-.467-.42 0-.327.28-.56.7 0 .747.233zm10.033 0-.14.84q-.047.327-.327.653-.14-.14-.14-.373 0-.7.607-1.12zm-10.22 1.68-.047.373q-.14.187-.233.187h-.28v-.56zm11.247-42.84q-.42.14-.467.607l.187.326h.186l.187-.466q.187-.327-.093-.467zm2.94 1.167v-.234h-.374v.234zm.186 9.053v-1.587q-.513-.046-.793.794-.187.793-.933.793l-.187.887q.233.28.42.28l.373-.654q.327-.56.7-.653zm-4.06 1.727q-.093-.374-.373-.607-.28-.233-.56-.14v1.307q.327-.187.513-.187.42 0 .42-.373zm11.2 4.013-.186-1.4q-.934-.467-1.214-2.193l-.186-1.82q-.607.233-.607.653 0 .327.373.933.374.56.374.887 0 .233-.28.607l.606 1.726q.187.607 1.12.607zm-9.053-1.867v-.28h-.327v.28zm-1.213 2.614q-.14-.327-.467-.374-.327.187-.42.374l-.14.793q.28.42.933.42l.187-.467zm10.593.98v-.42q-.14-.234-.467-.047-.187.14-.047.467zm-2.66 8.12q.28-.934.28-1.727 0-1.447-1.354-4.573-1.353-3.174-1.4-3.547-.186-.233-.326-1.447 0-1.166-.887-1.166-.42.513-.793 1.213-.187.373-.187.793 0 .28.047.42h.746q.467.14.467 1.167-.187.28-.7.373l-.887-.047-.326.327-.047.327q.233.14.56 0l.42-.187q.28.187.327.373.093.56-.56.56-.56 0-.84.28l-.187.467q.047.14.14.28.093.093.42.327.327.233.467.56 0 .326-.467.466t-.7.28q.047.234.467.374.373.047.513.28-.42 0-.7.42-.233.373-.513.513-.14 1.167.886 1.913 1.027 0 1.867.047t1.633.233q.84.187 1.634.7zm-7.047-4.667v-.187l-.233-.186zm-4.247.84q-.373 0-.746.513-.327.514-.467 1.167.093.14.14.28.093.14.14.42t.467.28l.186-1.447zm1.12 7.047q.14-.327-.233-.467t-.42-.187l-.093-.093q-.42 0-.42.327 0 .28.513.793l.373-.093zm-2.146 1.586v-1.4h-.374q-.326.047-.373.654v.746zm-1.68 1.027q-.094-.093-.234-.933 0-.7-.513-.747-.467.327-.467.793 0 .28.187.607l.373.513q.514 0 .654-.233zm6.066.98v-.327zm-2.986 1.4v-2.473h-.374v2.473zm-3.267 1.913v-.98q-.373-.14-.513.14l-.047.84zm1.867 3.127q-.187-.467-.187-1.353 0-.98-.187-1.354 0 .28-.046.467-.047.187-.28.84l-.327 1.12q0 .327.093.467l.514-.047zm-4.667 2.52-.327-.42-.186.093.42.42z"/><path d="M599.76 133.55q-.233.14-.467.14-.14 0-.42-.093-.233-.187-.606-.467-.374-.327-.654-.607h.654q0 .374.653.654.653.14.84.373zm.933 20.113-.513.093v-.513q.14.047.233.14zm2.474-14.84q-.14-.28-.234-.327l-.28-.233-.466.093q-.42 0-.98-.7-.187-.28-.514-.513-.093-.047-.233-.187-.327 0-.7.374l.7 1.68q.14.373.233 1.166.187-.42.7-.653l1.68-.187-.233.84-1.167.327.42.467q.14.14.14.466l-.14.467-.373-.14q-.14-.093-.467-.093l-.56.56.7.56q.514.28.514.84-.794.28-1.867 1.26l-2.193 2.053-.234.933.654.094-2.147 1.633-.467-.887q-.186-.326-.7-.093l-.56.747h-.42q.28-.514-.373-.654l-.793-.28-.187.654.14.653.467.793q.186.187.373.187l.373.047.42-.654h.56q.14.794-.606 1.68t-.747 1.26q0 .327.187.7l.933.98q.84-.513.84-1.68l.14-1.306h.933q.094.233.14.84.094.56.094 1.26 0 1.493.746 2.473l-.14 1.073q0 .56.56.84l.374-.466.186-.84-.046-.934q0-.886.886-.886l.42.046.42.187.42.327q-.56.14-.886.653-.234.56-.234 1.353v.747l.187.98q.84.233.84.793 0 .374-.513 1.027l-.514.747.42.046.934-.14v-.233h.233v1.633q-.14-.373-.56-.373-.28 0-.42.373l.327.934q-.747 0-.887 1.026 0 .84-.28 1.214-.28-.42-.28-.887l.14-.887.187-1.026q0-.84-1.12-.84l-.934.886q-.233.28-.233.84l.56.327q.467.14.607.42l-.98 1.773q-.42.7-.42 1.353 0 .654.513 1.167 0 .327-.327.794l-.606.7q-.14-.234-.14-.514l.14-.746.186-.887q0-.56-.746-.747-.14.14-.654 1.307-.326.98-1.26.84 0 .793-.28 1.773l-.653 2.053-.233-.606q-.14-.467-.514-.654-.186.094-.233.654 0 .466-.42.606l-.373-.326q-.187-.14-.374.093-.42.233-.653.98-.233.747-.7.793l-.56-.14q-.187.7-1.68.84-1.4 0-1.54 1.074-.187-.094-.233-.374l.186-.933q0-.373-.606-.42-.42-.14-1.027.42-.56.56-.887.653l-.233-1.913-.42-.14q-.327 0-.98.327l-.794.28q-.466 0-.466-.98l-.28-.327-.234-.14-.42.467q.094.093.094.233.046.14.093.187l-.513.326q.14-.7-.7-1.26-.794-.56-.934-.98-.7.187-.746.794l.093.513.093.607q0 .466-.606.746-.514-.14-.654-1.446 0-1.354-1.26-1.12-.093.606-.326.98-.234.373-.747.186l.093-.513-.186-.887-.14-1.073.14-.7q.14-.28.84-.653l-.047-.654.047-.746q0-.747-.607-1.074h-.747l.28-.793q.14-.327.467-.373l-.233-1.587q-.047-.747-.187-1.307-.093-.56-.327-.98.42 0 .7-.326.327-.374.467-.84-.047-.514.14-1.494.28-.84.28-1.213 0-.42-.187-.793l-.466-.653q.513-.42.513-1.074 0-.326-.467-1.213l-.466-1.12q0-.56.653-1.073-.093-.14-.56-.234l-.42.467v-.747q.42 0 .607-.373l.373-.84-.56-1.167q.28-.233.42-.886.14-.654.56-1.027l-.327-.607q-.14-.466-.513-.653l-.98.28q0-.233.653-1.027.7-.793.794-1.167 0-.42-.607-.886l-.047-1.54-.093-1.167q0-.7.14-1.12l-.187-.887-.046-.886q0-2.38 1.306-4.107.747.093 1.634-.607.886-.746 1.4-.84.606 0 1.26.794.233-.047.793-.84.56-.654.98-.747.327 0 .887.42.56 0 1.026-.793.467-.84 1.027-.934.467 0 .84.234.14-.28.373-.327l1.214.513-.14.467q0 .373.513.653.373.094 1.12.094l.42-.654-.887-.326q-.373-.187-.513-.654l.42-.093q.42 0 1.12.327l1.027.28q.326 0 .746-.28v1.4l.514.14q.42 0 1.073-.794.56-.84.933-.84.42 0 1.12.84l1.074-.186h.7l.466-.047-1.68.887 1.867.746q.327 0 .7-.233 0 .793 1.307 1.12 1.353.327 1.866 1.027 1.167.56 2.007 1.26t1.54 1.82zm-29.773 20.58-.327-.933h.327zm28.513.56-.98-.233q.14-.42.28-.607.186-.233.42-.327.28 0 .28.607zm-2.147 7.233-.047.56q0 .374-.186.42l-.327-.98zm-3.873 6.207q-.654 0-.934-.747l.934-.233zm-7.14-41.347q-.187-.187-.094-.42h-.42v.653q.374 0 .514-.233zm3.826.747v-.934h-1.026q-.374.42.046.7.42.28.98.234zm-1.026 2.146-.047-.513q0-.513-.187-.653v1.166zm6.3 1.167q-.094-.093-.56-.187v.747q.28-.187.466-.467 0-.046.094-.093zm-3.127 0-.513 1.307h.326l.42-1.027q-.14-.28-.233-.28zm3.313 2.893v-.98q0-.606-.653-.606l-.28 1.913q.233.14.56-.093zm0 1.307q-.513 0-.746.42h.56zm-1.4.607h-.513v.56l.42-.094q.14 0 .14-.093.047-.14-.047-.373zm-1.913.98v.513h.42l.187-.187q-.047-.28-.607-.326zm-1.493 2.146v-.886l.046-.934q0-1.213-.233-1.866-.187-.7-.98-1.354-.793-.28-1.4-.886-.607-.607-.747-1.26 0 .7-.186.746-.094-.56-.514-.84-.373-.326-.933-.373-.467 0-.793.467l-1.54-.56q-.514-.234-1.027-.934-.28-.14-.56.047-.28.14-.42.513-.373.374-.84.467-.42 0-1.213-.747-.7-.793-.934-.886l-.793 1.12q-.373.793-1.027 1.213l.187.747-.187.84-.14.886.14.607.747-.98q.56-.653.653-1.353l.234.373.28.373q-.327.187-.654.56l-.186.607q0 .373.56 1.26t.56 1.26q0 .513-1.027.793.14-.28.373-.326l.607.326q.28.28.467.794l.14.886-.094 1.307-.093.98q.653.187.793 1.447 0 1.167.7 1.447 0-1.027.374-1.26.42-.28 1.12-.28h.606q.467 0 .747-.14.327-.187.467-.794l.466.094q.514 0 1.214-.98.606-1.027 1.4-1.027l-.047.7.14 1.26.14 1.167-.093.7h.42v-.187q.14-.84.933-.98.14-.187.233-.607 0-.746-.746-.886l-.187-.794q0-.746.467-1.4l.98-1.353.653.747q.187.186.747.14zm-14.187-.886q.14-.28-.187-.56l-.467-.374-.326.42q.28.747.98.514zm18.06.886v-.233q-.14-.28-.42-.14-.187.093-.234.373zm-18.9.094h-.56v.56q0 .42.42.42.186-.187.186-.374zm17.173 1.913q0-.373-.234-.513v.746zm-15.073.233q-.14-.746-.514-.793-.373 0-.746.607-.327.606-.234 1.12.094.14.14.326.094.187.187.56.093.327.653.327l-.046-.84q0-.467-.187-.887.467-.466.747-.42zm-3.08.654h-.327l.233.513zm4.246 3.593q.14-.327-.186-.467l-.56-.28q-.327.234-.374.654l.187.326.607-.046q.28-.094.326-.187zm1.494 1.213-.28-1.213.186 1.307zm-3.407.934v-.934h-.42zm10.36-.934-.233.467q-.14.327.046.467zm-13.44.934v-.654q-.187-.233-.28-.233l-.467-.047-.42.514q-.14.233.187.42zm2.147 1.913v-.42q-.28-.187-.42-.187h-.327q-.14.28.14.467zm-2.147.14h-.233q-.327.14-.374.607 0 .42.28.56zm18.06 2.847.187-.42-.327-1.074q-.28.374-.28.84 0 .42.42.654zm-15.167-.094h-.56l-.187 1.494h.514zm16.1 2.054v-.98q-.233-.094-.327-.094v1.074zm-18.807-1.727h-.42l-.14 1.26-.187.98q0 .56.56 1.073.42-.42.42-1.073zm17.127 3.827.093-.607q0-.793-.653-2.1-.187-.467-.373-1.073-.187-.654-.28-1.027l-1.027.14q-.793 0-1.4-.467l.047-.56.14-.373q-.467-.14-.934.373-.466.467-.746.56-.7-.14-1.167-1.026-.42-.934-.98-1.074l.233.934q-.793.42-1.26.42-.326 0-.373-.467l.14-.887.14-1.073q0-.607-.467-1.073.42-.42.42-1.12 0-.094-.093-.14-.047-.094-.093-.14-.047.046-.187.14-.14.046-.467.42-.326.326-.326.933 0 .42.186.933l.56.887q0 .56-.746.607h-.747q-.42 0-.56.56-.28-.28-.56-.887l-.093-.793-.934 1.073q.42.42.42.887 0 .233-.7.886-.7.56-.7 1.074.28.28 1.027.28l.887-.047v.653q0 .56-.327.56-.7 0-.84.187 1.027.42 1.027 1.213l-.28 1.027-.234.98.14.607q.42.373.42.746 0 .327-.373.84l-.327.747q0 .42.607.747-.327.326-.607.466t-.14.607q.234.187.42.56.187.327.187.747l-.14 1.026q-.14.654-.047.98.42-.28.654-.28.28 0 .326.654v.746q0 .794.28 1.027.467 0 .7.093h.7q1.867 0 3.454-.746 1.586-.794 2.753-2.24.56-.374.98-1.12l.747-1.54q0-.374.14-.747.186-.42.793-.42l-.047-.28v-.233q0-.514.42-1.587l.467-1.353q0-.42-.28-.84zm-13.067-.187q-.233-.187-.373-.233-.14-.047-.234-.094l.42 1.167-.373.607q-.233.513-.793.373l-.047 1.353.14 1.634q.14.7.653 1.353 0-.84.187-1.167-.42-.28-.607-.653l-.186-.607q0-.373.7-1.306.7-.98.7-1.634 0-.42-.187-.793zm-4.06 6.627.187-1.027q0-.887-.7-.793-.374.233-.514.653-.14.373-.14 1.167zm5.04 3.173-.233-.327-.187.327zm-5.553 1.4-.047-.747q0-.84-.187-1.166l-.373 1.306q0 .374.187.607z"/><path d="M623.18 133.23q0 .28-.233.467h-.467l.187-.28q.14-.234.513-.187zm27.207 37.1q0 1.167-1.26 2.38-1.26 1.12-1.26 2.38l-.327-.047h-.186q-.28 0-.42-.186l.466-.374q-.28-.653-.933-.653-.373 0-.747.187l-.84.373q-.42.187-.466.747v.56l.233.233q-.187.047-.373.047t-.28 0q-.187 0-.56-.094-.327-.14-.56-.56l-.84.747q-.514.327-.887.327-.28 0-.653-.234-.28-.093-.467.047-.14.14-.14.56v.7l-2.147-1.307q-.653 1.214-1.913 1.214-.56 0-1.913-.327l-1.914-.327-.7.047-1.073-1.073q-.373 0-.56.513l-.28.793.233.234-.233.233q-.56-1.26-2.147-1.913-1.586-.7-3.22-.7-.513-.28-1.213-1.447-.56-1.213-1.167-1.213-.42 0-.84.28-.28-.28-.886 0l-.747.28q-.327 0-.513-.654-.887 0-2.52-1.026-1.587-1.027-2.334-1.027l-.746.14q.42-.56.42-1.073 0-.514-1.12-1.587-1.12-1.12-.98-2.1-1.074 0-1.074.98l.047.7q0 .467.093.7l-.14.607q-.653-.187-.793-1.54 0-1.307-.747-1.68l1.074-1.074q-.607-.186-1.074-.28-.466-.093-1.073-.093l-.093-.7q0-.56.233-1.4l.234-1.307q0-.513-.234-.933-.14-.42-.746-.887.14-.14.233-.7l-.093-.98q-.887-.28-.887-1.073l.28-1.68q-.14-.327-.233-.467-.794.14-1.12.934l-.56 1.446-.187-.793q0-.513.653-1.447.7-.933.7-1.353l-.093-.467.607.14q.186-.14.326-.513l.094-.747v-.653q0-.513.14-.887t.746-.42q.28-.233.42-.513.187-.327.187-.933-.14-.467-.653-.467-.42 0-.654.093l-.373.14q.14-.653 1.353-1.726 1.26-1.074 1.26-2.007 0-.56-.233-1.027h.373q0 1.12.094 1.867.14.7.98.98.793.14.933-.793.14-.98.84-1.12l.093-.514q0-.28-.28-1.073l-.28-.793q0-.467.233-.7l-.093.466q0 .654.7 1.307l1.307 1.073q.653-.42 1.167-1.306.56-.887.746-1.914-.046-.233-.513-.466-.42-.234-.56-.607.513-.233.933.233l.84.84 1.074-1.306.233.233q.28-.187.373-.747l-.093-.606-.093-.607q0-.467.653-.653l.233 2.613q.56.047.7-.747.187-.84.374-1.026l.793.046q.7 0 1.12-.14.42-.186.467-.7l-.094-.42q-.186-.84.7-.98.887-.186 1.074-.56l.42.747q.093.093.653.093l.233-1.446q.234.14.514-.14l.56-.56v-.234q.326 0 .933.327l.98.373q.42-.233.7-.933.28-.747.607-.98l-.047.84q0 .56.42.84.747.14 1.073-.607v-.233l.84.793q.234.14.467.14.093 0 .467-.093.14-.793 1.213-1.447 1.12-.7 1.307-.933.933-.187 1.073.7l.233 1.493q.093-.046.14-.093.28-.233.7-.793.28.653 1.4.653l.514-.047.233-.14q.28.234.28.607t-.56 1.353q-.56.84-.56 1.12t.42.28l.887-.14.186.514q-.047.046-.047.093-.233.187-.7.42-.7.186-.746.653h-.607q-.093-.14-.14-.233-.187-.234-.56-.607-.653.793-1.26.793-.28 0-.887-.326-.466-.373-1.12-.56l-1.4-.187q-.326 0-.84.047-.466.047-1.026.187l-2.427.42q-5.927 3.126-9.007 5.506-3.033 2.38-3.033 6.3l-.747-.14q-.7 0-.933 1.4 0 1.26-.233 1.587.233.7.233 1.447 0 .886-.467 2.473-.42 1.54-.42 2.147 0 .653.187 1.166.187.467.84 1.12-.047.654.14 1.074l1.4 1.166q1.12.747 1.82 2.567.747 1.773 1.773 1.773l.7-.14q.607 1.074 3.36 2.147 2.754 1.027 3.454 2.753.513.14.7-.326.046-.234.14-.467.046 0 .093-.047l4.013 1.167q3.08.793 4.574 1.68.42-.653 1.12-.887t1.633-.233h.98l1.54-.14q.607-.14 1.167-.747 1.493-.746 1.773-2.24l.373-2.66q.42.42.794.467.326 0 1.073-1.027l.887-1.12q-.14-.793.606-1.073l1.027 2.567q.56 1.26.56 2.426 0 .654-.28 1.587zm-43.54-9.8q-.14.14-.187.233 0 .047-.046.14l-.234-.84zm-.233 1.447h-.234v-.234h.234zm5.6 6.906h-.234v-.7h.234zm23.613-35.42-.327-.56q-.14-.466-.513-.513l-.234.607q.234.28.607.513.28.093.467-.047zM610.3 147.416h-.7l.466.374.187-.234zm-.934 3.594q-.28 0-.606.326l-.234.374h.467l.327-.374zm4.76 3.22q-.186-.187-.466-.14v1.213q.373-.14.42-.513zm-3.826 2.613v-.467h-.234v.467zm-.7 5.133h-.374v.7l.234-.233zm39.34 5.834q-.374-.14-.467-.234-.467.28-.56.514-.14.14-.14.513l.233.513h.234l.56-.653q.186-.28.14-.653zm0 3.22v-.467q-.14-.14-.7-.233-.094.326.093.56.187.186.607.14zm-18.107 1.913q-.234 0-.327.093l-.28.374q.14.28.467.14l.14-.28zm-5.367.607-.187-.514q-.233-.093-.42-.093v.84q.467 0 .607-.233z"/></g></g></svg>