<svg version="1.0" viewBox="0 0 256 256" xmlns="http://www.w3.org/2000/svg"><g transform="translate(-464 -28)"><rect x="103" y="255" width="26" height="26" ry="2.5" fill="#4f4b49"/><rect x="104" y="256" width="24" height="23" ry="2" fill="#9f9792"/><rect x="160" y="240" width="40" height="39" ry="3.5" fill="#4f4b49"/><rect x="161" y="241" width="38" height="35" ry="3" fill="#9f9792"/><rect x="230" y="226" width="52" height="52" ry="4.5" fill="#4f4b49"/><rect x="231" y="227" width="50" height="48" ry="4" fill="#9f9792"/><rect x="324" y="168" width="104" height="104" ry="8.5" fill="#4f4b49"/><rect x="325" y="169" width="102" height="99" ry="8" fill="#9f9792"/><rect x="488" y="52" width="208" height="208" ry="16.5" fill="#4f4b49"/><rect x="489" y="53" width="206" height="202" ry="16" fill="#9f9792"/><rect x="57" y="261" width="22" height="22" ry="2.5" fill="#4f4b49"/><rect x="58" y="262" width="20" height="20" ry="2" fill="#9f9792"/><rect x="17" y="269" width="14" height="14" ry="2.5" fill="#4f4b49"/><rect x="18" y="270" width="12" height="12" ry="2" fill="#9f9792"/><g fill-opacity=".196"><path d="m114.25 261-.154 1.844a5.5 5.5 0 0 0-1.608.93l-1.676-.79-1.75 3.032 1.522 1.056a5.5 5.5 0 0 0-.084.928 5.5 5.5 0 0 0 .08.932l-1.517 1.052 1.75 3.032 1.671-.788a5.5 5.5 0 0 0 1.612.924l.154 1.848h3.5l.154-1.844a5.5 5.5 0 0 0 1.608-.93l1.676.79 1.75-3.032-1.522-1.056a5.5 5.5 0 0 0 .084-.928 5.5 5.5 0 0 0-.08-.932l1.517-1.052-1.75-3.032-1.671.788a5.5 5.5 0 0 0-1.612-.924L117.75 261zm1.75 5a2 2 0 0 1 2 2 2 2 0 0 1-2 2 2 2 0 0 1-2-2 2 2 0 0 1 2-2z"/><path d="m177.375 249.007-.231 2.766a8.25 8.25 0 0 0-2.412 1.394l-2.513-1.183-2.625 4.546 2.282 1.585a8.25 8.25 0 0 0-.126 1.392 8.25 8.25 0 0 0 .12 1.397l-2.276 1.58 2.625 4.546 2.508-1.18a8.25 8.25 0 0 0 2.417 1.385l.231 2.772h5.25l.231-2.766a8.25 8.25 0 0 0 2.412-1.394l2.513 1.183 2.625-4.547-2.282-1.584a8.25 8.25 0 0 0 .126-1.392 8.25 8.25 0 0 0-.12-1.398l2.276-1.579-2.625-4.546-2.508 1.18a8.25 8.25 0 0 0-2.417-1.385l-.231-2.772zm2.625 7.5a3 3 0 0 1 3 3 3 3 0 0 1-3 3 3 3 0 0 1-3-3 3 3 0 0 1 3-3z"/><path d="m253.375 239.007-.231 2.766a8.25 8.25 0 0 0-2.412 1.394l-2.513-1.183-2.625 4.546 2.282 1.585a8.25 8.25 0 0 0-.126 1.392 8.25 8.25 0 0 0 .12 1.397l-2.276 1.58 2.625 4.546 2.508-1.18a8.25 8.25 0 0 0 2.417 1.385l.231 2.772h5.25l.231-2.766a8.25 8.25 0 0 0 2.412-1.394l2.513 1.183 2.625-4.547-2.282-1.584a8.25 8.25 0 0 0 .126-1.392 8.25 8.25 0 0 0-.12-1.398l2.276-1.579-2.625-4.546-2.508 1.18a8.25 8.25 0 0 0-2.417-1.385l-.231-2.772zm2.625 7.5a3 3 0 0 1 3 3 3 3 0 0 1-3 3 3 3 0 0 1-3-3 3 3 0 0 1 3-3z"/><path d="m370.77 196.01-.463 5.531a16.5 16.5 0 0 0-4.822 2.79l-5.028-2.368-5.25 9.094 4.565 3.17a16.5 16.5 0 0 0-.252 2.783 16.5 16.5 0 0 0 .24 2.795l-4.553 3.158 5.25 9.093 5.016-2.36a16.5 16.5 0 0 0 4.834 2.77l.463 5.544h10.5l.463-5.532a16.5 16.5 0 0 0 4.822-2.789l5.027 2.367 5.25-9.093-4.564-3.17a16.5 16.5 0 0 0 .252-2.783 16.5 16.5 0 0 0-.24-2.795l4.553-3.158-5.25-9.094-5.016 2.362a16.5 16.5 0 0 0-4.834-2.772l-.463-5.543zm5.25 15a6 6 0 0 1 6 6 6 6 0 0 1-6 6 6 6 0 0 1-6-6 6 6 0 0 1 6-6z"/><path d="m581.54 107.03-.926 11.063a33 33 0 0 0-9.644 5.578l-10.055-4.734-10.5 18.187 9.129 6.34a33 33 0 0 0-.504 5.566 33 33 0 0 0 .48 5.59l-9.105 6.316 10.5 18.187 10.031-4.723a33 33 0 0 0 9.668 5.543l.926 11.087h21l.926-11.063a33 33 0 0 0 9.644-5.578l10.055 4.734 10.5-18.187-9.129-6.34a33 33 0 0 0 .504-5.566 33 33 0 0 0-.48-5.59l9.105-6.316-10.5-18.187-10.031 4.722a33 33 0 0 0-9.668-5.543l-.926-11.086zm10.5 30a12 12 0 0 1 12 12 12 12 0 0 1-12 12 12 12 0 0 1-12-12 12 12 0 0 1 12-12z"/><path d="m66.25 266-.154 1.844a5.5 5.5 0 0 0-1.608.93l-1.676-.79-1.75 3.032 1.522 1.056a5.5 5.5 0 0 0-.084.928 5.5 5.5 0 0 0 .08.932l-1.518 1.052 1.75 3.032 1.672-.788a5.5 5.5 0 0 0 1.612.924L66.25 280h3.5l.154-1.844a5.5 5.5 0 0 0 1.608-.93l1.676.79 1.75-3.032-1.522-1.056A5.5 5.5 0 0 0 73.5 273a5.5 5.5 0 0 0-.08-.932l1.517-1.052-1.75-3.032-1.671.788a5.5 5.5 0 0 0-1.612-.924L69.75 266zm1.75 5a2 2 0 0 1 2 2 2 2 0 0 1-2 2 2 2 0 0 1-2-2 2 2 0 0 1 2-2z"/><path d="m23.125 273.5-.077.922a2.75 2.75 0 0 0-.804.465l-.838-.395-.875 1.516.761.528a2.75 2.75 0 0 0-.042.464 2.75 2.75 0 0 0 .04.466l-.759.526.875 1.516.836-.394a2.75 2.75 0 0 0 .806.462l.077.924h1.75l.077-.922a2.75 2.75 0 0 0 .804-.465l.838.395.875-1.516-.761-.528a2.75 2.75 0 0 0 .042-.464 2.75 2.75 0 0 0-.04-.466l.759-.526-.875-1.516-.836.394a2.75 2.75 0 0 0-.806-.462l-.077-.924zM24 276a1 1 0 0 1 1 1 1 1 0 0 1-1 1 1 1 0 0 1-1-1 1 1 0 0 1 1-1z"/></g><g fill="#fff"><path d="m114.25 260-.154 1.844a5.5 5.5 0 0 0-1.608.93l-1.676-.79-1.75 3.032 1.522 1.056a5.5 5.5 0 0 0-.084.928 5.5 5.5 0 0 0 .08.932l-1.517 1.052 1.75 3.032 1.671-.788a5.5 5.5 0 0 0 1.612.924l.154 1.848h3.5l.154-1.844a5.5 5.5 0 0 0 1.608-.93l1.676.79 1.75-3.032-1.522-1.056a5.5 5.5 0 0 0 .084-.928 5.5 5.5 0 0 0-.08-.932l1.517-1.052-1.75-3.032-1.671.788a5.5 5.5 0 0 0-1.612-.924L117.75 260zm1.75 5a2 2 0 0 1 2 2 2 2 0 0 1-2 2 2 2 0 0 1-2-2 2 2 0 0 1 2-2z"/><path d="m177.375 248.007-.231 2.766a8.25 8.25 0 0 0-2.412 1.394l-2.513-1.183-2.625 4.546 2.282 1.585a8.25 8.25 0 0 0-.126 1.392 8.25 8.25 0 0 0 .12 1.397l-2.276 1.58 2.625 4.546 2.508-1.18a8.25 8.25 0 0 0 2.417 1.385l.231 2.772h5.25l.231-2.766a8.25 8.25 0 0 0 2.412-1.394l2.513 1.183 2.625-4.547-2.282-1.584a8.25 8.25 0 0 0 .126-1.392 8.25 8.25 0 0 0-.12-1.398l2.276-1.579-2.625-4.546-2.508 1.18a8.25 8.25 0 0 0-2.417-1.385l-.231-2.772zm2.625 7.5a3 3 0 0 1 3 3 3 3 0 0 1-3 3 3 3 0 0 1-3-3 3 3 0 0 1 3-3z"/><path d="m253.375 238.007-.231 2.766a8.25 8.25 0 0 0-2.412 1.394l-2.513-1.183-2.625 4.546 2.282 1.585a8.25 8.25 0 0 0-.126 1.392 8.25 8.25 0 0 0 .12 1.397l-2.276 1.58 2.625 4.546 2.508-1.18a8.25 8.25 0 0 0 2.417 1.385l.231 2.772h5.25l.231-2.766a8.25 8.25 0 0 0 2.412-1.394l2.513 1.183 2.625-4.547-2.282-1.584a8.25 8.25 0 0 0 .126-1.392 8.25 8.25 0 0 0-.12-1.398l2.276-1.579-2.625-4.546-2.508 1.18a8.25 8.25 0 0 0-2.417-1.385l-.231-2.772zm2.625 7.5a3 3 0 0 1 3 3 3 3 0 0 1-3 3 3 3 0 0 1-3-3 3 3 0 0 1 3-3z"/><path d="m370.77 195.01-.463 5.531a16.5 16.5 0 0 0-4.822 2.79l-5.028-2.368-5.25 9.094 4.565 3.17a16.5 16.5 0 0 0-.252 2.783 16.5 16.5 0 0 0 .24 2.795l-4.553 3.158 5.25 9.093 5.016-2.36a16.5 16.5 0 0 0 4.834 2.77l.463 5.544h10.5l.463-5.532a16.5 16.5 0 0 0 4.822-2.789l5.027 2.367 5.25-9.093-4.564-3.17a16.5 16.5 0 0 0 .252-2.783 16.5 16.5 0 0 0-.24-2.795l4.553-3.158-5.25-9.094-5.016 2.362a16.5 16.5 0 0 0-4.834-2.772l-.463-5.543zm5.25 15a6 6 0 0 1 6 6 6 6 0 0 1-6 6 6 6 0 0 1-6-6 6 6 0 0 1 6-6z"/><path d="m581.54 106.03-.926 11.063a33 33 0 0 0-9.644 5.578l-10.055-4.734-10.5 18.187 9.129 6.34a33 33 0 0 0-.504 5.566 33 33 0 0 0 .48 5.59l-9.105 6.316 10.5 18.187 10.031-4.723a33 33 0 0 0 9.668 5.543l.926 11.087h21l.926-11.063a33 33 0 0 0 9.644-5.578l10.055 4.734 10.5-18.187-9.129-6.34a33 33 0 0 0 .504-5.566 33 33 0 0 0-.48-5.59l9.105-6.316-10.5-18.187-10.031 4.722a33 33 0 0 0-9.668-5.543l-.926-11.086zm10.5 30a12 12 0 0 1 12 12 12 12 0 0 1-12 12 12 12 0 0 1-12-12 12 12 0 0 1 12-12z"/><path d="m66.25 265-.154 1.844a5.5 5.5 0 0 0-1.608.93l-1.676-.79-1.75 3.032 1.522 1.056a5.5 5.5 0 0 0-.084.928 5.5 5.5 0 0 0 .08.932l-1.518 1.052 1.75 3.032 1.672-.788a5.5 5.5 0 0 0 1.612.924L66.25 279h3.5l.154-1.844a5.5 5.5 0 0 0 1.608-.93l1.676.79 1.75-3.032-1.522-1.056A5.5 5.5 0 0 0 73.5 272a5.5 5.5 0 0 0-.08-.932l1.517-1.052-1.75-3.032-1.671.788a5.5 5.5 0 0 0-1.612-.924L69.75 265zm1.75 5a2 2 0 0 1 2 2 2 2 0 0 1-2 2 2 2 0 0 1-2-2 2 2 0 0 1 2-2z"/><path d="m23.125 272.5-.077.922a2.75 2.75 0 0 0-.804.465l-.838-.395-.875 1.516.761.528a2.75 2.75 0 0 0-.042.464 2.75 2.75 0 0 0 .04.466l-.759.526.875 1.516.836-.394a2.75 2.75 0 0 0 .806.462l.077.924h1.75l.077-.922a2.75 2.75 0 0 0 .804-.465l.838.395.875-1.516-.761-.528a2.75 2.75 0 0 0 .042-.464 2.75 2.75 0 0 0-.04-.466l.759-.526-.875-1.516-.836.394a2.75 2.75 0 0 0-.806-.462l-.077-.924zM24 275a1 1 0 0 1 1 1 1 1 0 0 1-1 1 1 1 0 0 1-1-1 1 1 0 0 1 1-1z"/></g></g></svg>