<svg version="1.0" viewBox="0 0 256 256" xmlns="http://www.w3.org/2000/svg"><g transform="translate(-464 -28)"><rect x="488" y="52" width="208" height="208" ry="16.5" fill="#9c27b0"/><path d="M504.5 52c-9.141 0-16.5 7.359-16.5 16.5v175c0 9.141 7.359 16.5 16.5 16.5h175c9.141 0 16.5-7.359 16.5-16.5v-175c0-9.141-7.359-16.5-16.5-16.5zm.5 1h174c8.864 0 16 7.136 16 16v170c0 8.864-7.136 16-16 16H505c-8.864 0-16-7.136-16-16V69c0-8.864 7.136-16 16-16z" fill-opacity=".502"/><g transform="matrix(6 0 0 6 -106.37 -1428.6)" fill-opacity=".196" color="#000"><rect x="109" y="256.27" width="6" height="16" rx="2.934" ry="2.986"/><path d="M114.2 256.27c.878.713 1.469 1.792 1.469 3v1h2.125c-.074-1.093 1.249-2 2-2 .68 0 1 .012 1 1v1h1.219c1.228-.6 1.78-1.97 1.78-2.688 0-.735-2.385-1.312-3.687-1.312z"/><path d="M115.67 260.94v4.313c2.766 2.661 6.125 2.406 6.125 2.406s.353-1.521-1.906-4.031l-2.375-2.688h-1.781c-.022.002-.042-.002-.063 0zm2.975 2.532 1.683 1.737c-1.799.165-2.15-.857-1.683-1.737z"/></g><g transform="matrix(6 0 0 6 -106.37 -1429.6)" fill="#fff" color="#000"><rect x="109" y="256.27" width="6" height="16" rx="2.934" ry="2.986"/><path d="M114.2 256.27c.878.713 1.469 1.792 1.469 3v1h2.125c-.074-1.093 1.249-2 2-2 .68 0 1 .012 1 1v1h1.219c1.228-.6 1.78-1.97 1.78-2.688 0-.735-2.385-1.312-3.687-1.312z"/><path d="M115.67 260.94v4.313c2.766 2.661 6.125 2.406 6.125 2.406s.353-1.521-1.906-4.031l-2.375-2.688h-1.781c-.022.002-.042-.002-.063 0zm2.975 2.532 1.683 1.737c-1.799.165-2.15-.857-1.683-1.737z"/></g></g></svg>