<svg version="1.0" viewBox="0 0 256 256" xmlns="http://www.w3.org/2000/svg"><g transform="translate(-464 872)"><rect x="540" y="-712" width="120" height="72" ry="8" fill="#424242"/><rect x="541" y="-699.5" width="118" height="54.5" ry="8" fill="#848484"/><rect x="488" y="-840.01" width="224" height="160" ry="12" fill="#6f6f6f"/><rect x="489" y="-839" width="222" height="154" ry="11.5" fill="#acacac"/><rect x="495" y="-833" width="210" height="132" ry="2" fill="#424242"/><rect x="576" y="-698" width="48" height="8" ry="2" fill="#424242"/><path d="m589.5-810-.926 11.062a33 33 0 0 0-9.644 5.578l-10.055-4.734-10.5 18.187 9.129 6.34a33 33 0 0 0-.504 5.566 33 33 0 0 0 .48 5.59l-9.105 6.316 10.5 18.187 10.03-4.722a33 33 0 0 0 9.669 5.543l.926 11.086h21l.925-11.062a33 33 0 0 0 9.645-5.578l10.055 4.734 10.5-18.187-9.129-6.34A33 33 0 0 0 633-768a33 33 0 0 0-.48-5.59l9.105-6.317-10.5-18.187-10.031 4.723a33 33 0 0 0-9.668-5.543L610.5-810zm10.5 30a12 12 0 0 1 12 12 12 12 0 0 1-12 12 12 12 0 0 1-12-12 12 12 0 0 1 12-12z" fill="#fff"/></g></svg>