<svg version="1.0" viewBox="0 0 256 256" xmlns="http://www.w3.org/2000/svg"><g transform="translate(-464 -28)"><rect x="488" y="52" width="208" height="208" ry="16.5" fill="#cdcdcd"/><path d="M504.5 52c-9.141 0-16.5 7.359-16.5 16.5v175c0 9.141 7.359 16.5 16.5 16.5h175c9.141 0 16.5-7.359 16.5-16.5v-175c0-9.141-7.359-16.5-16.5-16.5zm.5 1h174c8.864 0 16 7.136 16 16v170c0 8.864-7.136 16-16 16H505c-8.864 0-16-7.136-16-16V69c0-8.864 7.136-16 16-16z" fill-opacity=".502"/><path d="M559 184h8l32-80h8l32 80h8v8h-28v-8h8l-5.719-16h-36.437L579 184h8v8h-28zm28-24h32l-15.969-41.687z" aria-label="A"/><g fill="none" stroke="#000" stroke-opacity=".251" stroke-width="2"><path d="M557 190.8h-19v-86h19"/><path d="M646 194v13h-86v-13"/></g></g></svg>