<svg version="1.0" viewBox="0 0 256 256" xmlns="http://www.w3.org/2000/svg"><g transform="translate(-464 -28)"><rect x="488" y="52" width="208" height="208" ry="16.5" fill="#6a7ce0"/><path d="M504.5 52c-9.141 0-16.5 7.359-16.5 16.5v175c0 9.141 7.359 16.5 16.5 16.5h175c9.141 0 16.5-7.359 16.5-16.5v-175c0-9.141-7.359-16.5-16.5-16.5zm.5 1h174c8.864 0 16 7.136 16 16v170c0 8.864-7.136 16-16 16H505c-8.864 0-16-7.136-16-16V69c0-8.864 7.136-16 16-16z" fill-opacity=".502"/><g fill="#fff" fill-opacity=".973" color="#000"><path transform="translate(-432 -851.978) scale(4.00002)" d="M256 240c-6.61 0-12 5.39-12 12s5.39 12 12 12 12-5.39 12-12-5.39-12-12-12zm0 3c3.128 0 5.85 1.593 7.46 4h-14.92c1.61-2.407 4.333-4 7.46-4zm-8.479 6h16.958c.33.94.521 1.944.521 3a9.011 9.011 0 0 1-.522 3h-16.957a9.011 9.011 0 0 1-.521-3c0-1.056.19-2.06.522-3zm1.018 8h14.922c-1.61 2.407-4.333 4-7.46 4s-5.851-1.593-7.462-4z" style="font-feature-settings:normal;font-variant-alternates:normal;font-variant-caps:normal;font-variant-east-asian:normal;font-variant-ligatures:normal;font-variant-numeric:normal;font-variant-position:normal;font-variation-settings:normal;inline-size:0;isolation:auto;mix-blend-mode:normal;shape-margin:0;shape-padding:0;text-decoration-color:#000;text-decoration-line:none;text-decoration-style:solid;text-indent:0;text-orientation:mixed;text-transform:none;white-space:normal"/><path d="M112.64 260.29c-.144 0-.27.06-.361.156-.836.31-1.538 1.053-2.053 2.01-.684 1.27-1.086 2.966-1.086 4.834s.402 3.562 1.086 4.832c.516.957 1.218 1.703 2.055 2.012.09.095.216.156.359.156h1a.495.495 0 0 0 .36-.156c.836-.31 1.54-1.055 2.056-2.012.684-1.27 1.084-2.964 1.084-4.832s-.4-3.564-1.084-4.834c-.515-.957-1.218-1.7-2.055-2.01a.493.493 0 0 0-.361-.156h-.5zm-.5 1.375v11.248c-.37-.275-.725-.69-1.035-1.266-.583-1.082-.965-2.635-.965-4.357s.382-3.277.965-4.36c.31-.575.665-.991 1.035-1.265zm2 0c.37.274.725.69 1.035 1.266.583 1.082.965 2.637.965 4.359s-.382 3.275-.965 4.357c-.31.576-.665.992-1.035 1.266z" opacity=".5" style="font-feature-settings:normal;font-variant-alternates:normal;font-variant-caps:normal;font-variant-east-asian:normal;font-variant-ligatures:normal;font-variant-numeric:normal;font-variant-position:normal;font-variation-settings:normal;inline-size:0;isolation:auto;mix-blend-mode:normal;shape-margin:0;shape-padding:0;text-decoration-color:#000;text-decoration-line:none;text-decoration-style:solid;text-indent:0;text-orientation:mixed;text-transform:none;white-space:normal" transform="matrix(6 0 0 6 -86.82 -1447.7)"/></g></g></svg>