<svg version="1.0" viewBox="0 0 256 256" xmlns="http://www.w3.org/2000/svg"><g transform="translate(-464 -28)"><rect x="488" y="52" width="208" height="208" ry="16.5" fill="#7b736e"/><path d="M504.5 52c-9.141 0-16.5 7.359-16.5 16.5v175c0 9.141 7.359 16.5 16.5 16.5h175c9.141 0 16.5-7.359 16.5-16.5v-175c0-9.141-7.359-16.5-16.5-16.5zm.5 1h174c8.864 0 16 7.136 16 16v170c0 8.864-7.136 16-16 16H505c-8.864 0-16-7.136-16-16V69c0-8.864 7.136-16 16-16z" fill-opacity=".502"/><g fill="#fff"><path d="M556.016 135.98c-12.001 0-12 12-12 12v44c0 11.792 12 12 12 12h56v-24H594.64c-.06.87-.145 1.777-.187 2.625h2.625v3h-3c-.485 4.242-2.154 6.375-5.063 6.375-.727 0-1.854-.133-3.187-.375l-.563-3c1.576.242 2.902.375 3.75.375.849 0 1.258-1.193 1.5-3.375h-14.062c.26-1.752.377-3.746.562-5.625h-4.125c-1.393 4.042-3.15 8.033-5.438 11.813l-3-2.438c1.914-3.078 3.528-6.162 4.875-9.375h-1.312v-14.437c-.135-.111-.238-.27-.375-.375l.375-.375v-10.687c-.135-.112-.238-.27-.375-.375l.375-.375V135.98zm.562 18.313h9.563v28.687h-3.187v-3.188h-3.188v4.688h-3.187zm3.188 3.187v19.313h3.187V157.48zm20.813 22.5c-.117.86-.248 1.817-.375 2.625h10.687c.084-.89.114-1.742.187-2.625h-2.813l-1.312 1.688c-.576-.634-1.244-1.111-1.875-1.688z" opacity=".5"/><path d="M571.976 108.02v67.998h56s12 0 12-12v-44s0-12-12-12z"/></g><path d="m599.36 122-13.125 42h9.563l2.023-8h13.914l2.063 8h9.937l-13.125-42zm5.25 7.125h.188L609.665 148h-9.82z" fill="#7b736e"/></g></svg>