<svg version="1.0" viewBox="0 0 256 256" xmlns="http://www.w3.org/2000/svg"><g transform="translate(-464 -28)"><rect x="488" y="52" width="208" height="208" ry="16.5" fill="#3f51b5"/><path d="M504.5 52c-9.141 0-16.5 7.359-16.5 16.5v175c0 9.141 7.359 16.5 16.5 16.5h175c9.141 0 16.5-7.359 16.5-16.5v-175c0-9.141-7.359-16.5-16.5-16.5zm.5 1h174c8.864 0 16 7.136 16 16v170c0 8.864-7.136 16-16 16H505c-8.864 0-16-7.136-16-16V69c0-8.864 7.136-16 16-16z" fill-opacity=".502"/><g fill="#fff"><path d="m120.71 270.29-1.422 1.422 3.01 3.01c.959.937 2.365-.5 1.406-1.438z" color="#000" style="text-decoration-line:none;text-indent:0;text-transform:none" transform="matrix(6 0 0 6 -110.09 -1452.1)"/><path d="M582.91 113.9a33 33 0 0 0-33 33 33 33 0 0 0 33 33 33 33 0 0 0 33-33 33 33 0 0 0-33-33zm0 12a21 21 0 0 1 21 21 21 21 0 0 1-21 21 21 21 0 0 1-21-21 21 21 0 0 1 21-21z"/></g></g></svg>