<svg version="1.0" viewBox="0 0 256 256" xmlns="http://www.w3.org/2000/svg"><g transform="translate(-464 -28)"><rect x="488" y="52" width="208" height="208" ry="16.5" fill="#7b736e"/><rect x="103" y="255" width="26" height="26" ry="2.5" fill="#7b736e"/><rect x="57" y="261" width="22" height="22" ry="2.5" fill="#7b736e"/><path d="M105.5 255a2.495 2.495 0 0 0-2.5 2.5v21c0 1.385 1.115 2.5 2.5 2.5h21c1.385 0 2.5-1.115 2.5-2.5v-21c0-1.385-1.115-2.5-2.5-2.5zm.5 1h20c1.108 0 2 .892 2 2v19c0 1.108-.892 2-2 2h-20c-1.108 0-2-.892-2-2v-19c0-1.108.892-2 2-2z" fill-opacity=".502"/><rect x="17" y="269" width="14" height="14" ry="2.5" fill="#7b736e"/><rect x="230" y="226" width="52" height="52" ry="4.5" fill="#7b736e"/><path d="M163.5 240a3.492 3.492 0 0 0-3.5 3.5v32c0 1.939 1.561 3.5 3.5 3.5h33c1.939 0 3.5-1.561 3.5-3.5v-32c0-1.939-1.561-3.5-3.5-3.5z" fill="#7b736e"/><rect x="324" y="168" width="104" height="104" ry="8.5" fill="#7b736e"/><path d="M59.5 261a2.495 2.495 0 0 0-2.5 2.5v17c0 1.385 1.115 2.5 2.5 2.5h17c1.385 0 2.5-1.115 2.5-2.5v-17c0-1.385-1.115-2.5-2.5-2.5zm.5 1h16c1.108 0 2 .892 2 2v16c0 1.108-.892 2-2 2H60c-1.108 0-2-.892-2-2v-16c0-1.108.892-2 2-2z" fill-opacity=".502"/><path d="M19.5 269a2.495 2.495 0 0 0-2.5 2.5v9c0 1.385 1.115 2.5 2.5 2.5h9c1.385 0 2.5-1.115 2.5-2.5v-9c0-1.385-1.115-2.5-2.5-2.5zm.5 1h8c1.108 0 2 .892 2 2v8c0 1.108-.892 2-2 2h-8c-1.108 0-2-.892-2-2v-8c0-1.108.892-2 2-2z" fill-opacity=".502"/><path d="M234.5 226a4.49 4.49 0 0 0-4.5 4.5v43a4.49 4.49 0 0 0 4.5 4.5h43a4.49 4.49 0 0 0 4.5-4.5v-43a4.49 4.49 0 0 0-4.5-4.5zm.5 1h42c2.216 0 4 1.784 4 4v40c0 2.216-1.784 4-4 4h-42c-2.216 0-4-1.784-4-4v-40c0-2.216 1.784-4 4-4z" fill-opacity=".502"/><path d="M163.5 240a3.492 3.492 0 0 0-3.5 3.5v32c0 1.939 1.561 3.5 3.5 3.5h33c1.939 0 3.5-1.561 3.5-3.5v-32c0-1.939-1.561-3.5-3.5-3.5zm.5 1h32c1.662 0 3 1.338 3 3v29c0 1.662-1.338 3-3 3h-32c-1.662 0-3-1.338-3-3v-29c0-1.662 1.338-3 3-3z" fill-opacity=".502"/><path d="M332.5 168a8.481 8.481 0 0 0-8.5 8.5v87c0 4.709 3.791 8.5 8.5 8.5h87c4.709 0 8.5-3.791 8.5-8.5v-87c0-4.709-3.791-8.5-8.5-8.5zm.5 1h86c4.432 0 8 3.568 8 8v83c0 4.432-3.568 8-8 8h-86c-4.432 0-8-3.568-8-8v-83c0-4.432 3.568-8 8-8z" fill-opacity=".502"/><path d="M504.5 52c-9.141 0-16.5 7.359-16.5 16.5v175c0 9.141 7.359 16.5 16.5 16.5h175c9.141 0 16.5-7.359 16.5-16.5v-175c0-9.141-7.359-16.5-16.5-16.5zm.5 1h174c8.864 0 16 7.136 16 16v170c0 8.864-7.136 16-16 16H505c-8.864 0-16-7.136-16-16V69c0-8.864 7.136-16 16-16z" fill-opacity=".502"/><g fill="#fff"><path d="M110.003 265c-2 0-2 2-2 2v7c0 1.965 2 2 2 2h9v-4h-2.563c-.01.145-.024.296-.03.438h.437v.5h-.5c-.081.707-.36 1.062-.844 1.062a3.3 3.3 0 0 1-.531-.062l-.094-.5c.263.04.484.062.625.062.141 0 .21-.199.25-.562h-2.344c.043-.292.063-.625.094-.938h-.688a10.208 10.208 0 0 1-.906 1.969l-.5-.406c.319-.513.588-1.027.813-1.563h-.22v-2.406c-.022-.019-.039-.045-.062-.063l.063-.062v-1.781c-.023-.019-.04-.045-.063-.063l.063-.062V265zm.094 2.719h1.593v4.781h-.53v-.531h-.532v.781h-.531zm.53.531v3.219h.532v-3.219zm3.47 3.75c-.02.143-.042.303-.063.438h1.781c.014-.149.02-.29.032-.438h-.47l-.218.281c-.096-.105-.207-.185-.312-.28z" opacity=".5"/><path d="M113.003 260v11h9s2 0 2-2v-7s0-2-2-2zm4.562 2h1.875l2.188 7h-1.656l-.438-1.656h-2.125l-.437 1.656h-1.594zm.875 1.188c-.171.74-.338 1.583-.53 2.28l-.188.626h1.5l-.157-.625c-.193-.698-.41-1.551-.593-2.281z"/></g><g fill="#fff"><path d="M62.003 269c-2 0-2 2-2 2v7c0 1.965 2 2 2 2h9v-4H68.44c-.01.145-.024.296-.03.438h.437v.5h-.5c-.081.707-.36 1.062-.844 1.062a3.3 3.3 0 0 1-.531-.062l-.094-.5c.263.04.484.062.625.062.141 0 .21-.199.25-.562H65.41c.044-.292.063-.625.094-.938h-.688a10.208 10.208 0 0 1-.906 1.969l-.5-.406c.32-.513.588-1.027.813-1.563h-.219v-2.406c-.022-.019-.04-.045-.063-.063l.063-.062v-1.781c-.023-.019-.04-.045-.063-.063l.063-.062V269zm.094 2.719h1.593v4.781h-.53v-.531h-.532v.781h-.531zm.53.531v3.219h.532v-3.219zm3.47 3.75c-.02.143-.042.303-.063.438h1.781c.015-.149.02-.29.032-.438h-.47l-.218.281c-.096-.105-.207-.185-.312-.28z" opacity=".5"/><path d="M65.003 264v11h9s2 0 2-2v-7s0-2-2-2zm4.563 2h1.874l2.188 7h-1.656l-.438-1.656H69.41L68.972 273h-1.594zm.874 1.188c-.171.74-.337 1.583-.53 2.28l-.188.626h1.5l-.156-.625a94.113 94.113 0 0 1-.594-2.281z"/></g><g fill="#fff"><path d="M20 275c-1 0-1 1-1 1v4c0 .983 1 1 1 1h5v-2h-1.781c-.005.073-.012.148-.016.219h.219v.25h-.25c-.04.353-.18.531-.422.531a1.65 1.65 0 0 1-.266-.031l-.046-.25c.13.02.241.031.312.031.07 0 .105-.1.125-.281h-1.172c.022-.146.032-.312.047-.469h-.344c-.116.337-.262.67-.453.984l-.25-.203c.16-.256.294-.513.406-.781H21v-1.203c-.011-.01-.02-.023-.031-.031l.031-.032v-.89c-.011-.01-.02-.023-.031-.031l.031-.032v-1.78zm.047 1.86h.797v2.39h-.266v-.266h-.265v.391h-.266zm.265.265v1.61h.266v-1.61zM22.047 279c-.01.072-.02.151-.031.219h.89c.007-.074.01-.145.016-.219h-.235l-.109.14c-.048-.052-.104-.092-.156-.14z" opacity=".5"/><path d="M22 272v6h5s1 0 1-1v-4s0-1-1-1zm2.281 1.5h.938l1.093 3.5h-.828l-.218-.828h-1.063l-.219.828h-.797zm.438.594c-.086.37-.17.791-.266 1.14l-.094.313h.75l-.078-.313a50.044 50.044 0 0 1-.297-1.14z"/></g><g fill="#fff"><path d="M171.004 253.995c-3 0-3 3-3 3v11c0 2.948 3 3 3 3h14v-6h-4.344c-.015.218-.036.444-.047.656h.657v.75h-.75c-.121 1.06-.539 1.594-1.266 1.594a4.95 4.95 0 0 1-.797-.094l-.14-.75c.394.06.725.094.937.094.212 0 .314-.298.375-.844h-3.516c.065-.438.095-.936.14-1.406h-1.03a15.313 15.313 0 0 1-1.36 2.953l-.75-.61c.479-.769.882-1.54 1.22-2.343h-.33v-3.61c-.033-.027-.059-.067-.093-.093l.094-.094v-2.672c-.034-.027-.06-.067-.094-.093l.094-.094v-4.344zm.14 4.578h2.391v7.172h-.797v-.797h-.796v1.172h-.797zm.797.797v4.828h.797v-4.828zm5.204 5.625c-.03.215-.062.454-.094.656h2.672c.02-.222.028-.435.046-.656h-.703l-.328.422c-.144-.158-.31-.278-.469-.422z" opacity=".5"/><path d="M174.994 247.005v17h14s3 0 3-3v-11s0-3-3-3z"/></g><path d="m181.84 250.5-3.281 10.5h2.39l.506-2h3.479l.515 2h2.485l-3.281-10.5zm1.313 1.781h.046l1.217 4.719h-2.455z" fill="#7b736e"/><g fill="#fff"><path d="M247.004 246.995c-3 0-3 3-3 3v11c0 2.948 3 3 3 3h14v-6h-4.344c-.015.218-.036.444-.047.656h.657v.75h-.75c-.121 1.06-.539 1.594-1.266 1.594a4.95 4.95 0 0 1-.797-.094l-.14-.75c.394.06.725.094.937.094.212 0 .314-.298.375-.844h-3.516c.065-.438.095-.936.14-1.406h-1.03a15.313 15.313 0 0 1-1.36 2.953l-.75-.61c.479-.769.882-1.54 1.219-2.343h-.328v-3.61c-.034-.027-.06-.067-.094-.093l.094-.094v-2.672c-.034-.027-.06-.067-.094-.093l.094-.094v-4.344zm.14 4.578h2.391v7.172h-.797v-.797h-.796v1.172h-.797zm.797.797v4.828h.797v-4.828zm5.204 5.625c-.03.215-.062.454-.094.656h2.672c.02-.222.028-.435.046-.656h-.703l-.328.422c-.144-.158-.31-.278-.469-.422z" opacity=".5"/><path d="M250.994 240.005v17h14s3 0 3-3v-11s0-3-3-3z"/></g><path d="m257.84 243.5-3.281 10.5h2.39l.506-2h3.479l.515 2h2.485l-3.281-10.5zm1.313 1.781h.046l1.217 4.719h-2.455z" fill="#7b736e"/><g fill="#fff"><path d="M358.008 209.99c-6 0-6 6-6 6v22c0 5.896 6 6 6 6h28v-12h-8.687c-.03.435-.073.888-.094 1.312h1.312v1.5h-1.5c-.242 2.122-1.077 3.188-2.531 3.188-.364 0-.927-.066-1.594-.188l-.28-1.5c.787.121 1.45.188 1.874.188.424 0 .629-.597.75-1.688h-7.031c.13-.876.188-1.873.28-2.812h-2.062c-.696 2.021-1.575 4.016-2.718 5.906l-1.5-1.218a33.04 33.04 0 0 0 2.437-4.688h-.656v-7.219c-.067-.055-.12-.135-.188-.187l.188-.188v-5.343c-.068-.056-.12-.135-.188-.188l.188-.187v-8.688zm.281 9.156h4.782v14.344h-1.594v-1.594h-1.594v2.344h-1.594zm1.594 1.594v9.656h1.594v-9.656zm10.406 11.25c-.058.43-.124.909-.187 1.313h5.343c.043-.446.058-.871.094-1.313h-1.406l-.657.844c-.288-.317-.621-.556-.937-.844z" opacity=".5"/><path d="M365.988 196.01v33.999h28s6 0 6-6v-22s0-6-6-6z"/></g><path d="m379.68 203-6.562 21h4.78l1.013-4h6.957l1.03 4h4.97l-6.563-21zm2.625 3.562h.094l2.433 9.438h-4.91z" fill="#7b736e"/><g fill="#fff"><path d="M556.016 135.98c-12.001 0-12 12-12 12v44c0 11.792 12 12 12 12h56v-24H594.64c-.06.87-.145 1.777-.187 2.625h2.625v3h-3c-.485 4.242-2.154 6.375-5.063 6.375-.727 0-1.854-.133-3.187-.375l-.563-3c1.576.242 2.902.375 3.75.375.849 0 1.258-1.193 1.5-3.375h-14.062c.26-1.752.377-3.746.562-5.625h-4.125c-1.393 4.042-3.15 8.033-5.438 11.813l-3-2.438c1.914-3.078 3.528-6.162 4.875-9.375h-1.312v-14.437c-.135-.111-.238-.27-.375-.375l.375-.375v-10.687c-.135-.112-.238-.27-.375-.375l.375-.375V135.98zm.562 18.313h9.563v28.687h-3.187v-3.188h-3.188v4.688h-3.187zm3.188 3.187v19.313h3.187V157.48zm20.813 22.5c-.117.86-.248 1.817-.375 2.625h10.687c.084-.89.114-1.742.187-2.625h-2.813l-1.312 1.688c-.576-.634-1.244-1.111-1.875-1.688z" opacity=".5"/><path d="M571.976 108.02v67.998h56s12 0 12-12v-44s0-12-12-12z"/></g><path d="m599.36 122-13.125 42h9.563l2.023-8h13.914l2.063 8h9.937l-13.125-42zm5.25 7.125h.188L609.665 148h-9.82z" fill="#7b736e"/></g></svg>