<svg version="1.0" viewBox="0 0 256 256" xmlns="http://www.w3.org/2000/svg"><g transform="translate(-464 -28)"><rect x="488" y="52" width="208" height="208" ry="16.5" fill="#9c27b0"/><path d="M504.5 52c-9.141 0-16.5 7.359-16.5 16.5v175c0 9.141 7.359 16.5 16.5 16.5h175c9.141 0 16.5-7.359 16.5-16.5v-175c0-9.141-7.359-16.5-16.5-16.5zm.5 1h174c8.864 0 16 7.136 16 16v170c0 8.864-7.136 16-16 16H505c-8.864 0-16-7.136-16-16V69c0-8.864 7.136-16 16-16z" fill-opacity=".502"/><g fill="#fff"><path d="M590.41 126a27 27 0 0 1 4.57 15 27 27 0 0 1-27 27 27 27 0 0 1-15-4.559V168c0 6.648 5.352 12 12 12h60c6.648 0 12-5.352 12-12v-30c0-6.648-5.352-12-12-12z"/><path d="m618.97 180-12 12-12-12z"/><path d="M567.97 120a21 21 0 0 0-21 21 21 21 0 0 0 21 21 21 21 0 0 0 21-21 21 21 0 0 0-21-21zm-3 6h6v18h-6zm0 24h6v6h-6z"/></g></g></svg>