<svg version="1.0" viewBox="0 0 256 256" xmlns="http://www.w3.org/2000/svg"><g transform="translate(-464 -28)"><rect x="488" y="52" width="208" height="208" ry="16.5" fill="#479863"/><path d="M504.5 52c-9.141 0-16.5 7.359-16.5 16.5v175c0 9.141 7.359 16.5 16.5 16.5h175c9.141 0 16.5-7.359 16.5-16.5v-175c0-9.141-7.359-16.5-16.5-16.5zm.5 1h174c8.864 0 16 7.136 16 16v170c0 8.864-7.136 16-16 16H505c-8.864 0-16-7.136-16-16V69c0-8.864 7.136-16 16-16z" fill-opacity=".502"/><path d="M616 108c-9.941 0-18 8.059-18 18 0 1.388.265 2.64.562 3.938l-19.312 12A17.933 17.933 0 0 0 568 138c-9.94 0-18 8.059-18 18s8.06 18 18 18c4.254 0 8.17-1.47 11.25-3.938l19.312 12c-.297 1.298-.562 2.55-.562 3.938 0 9.941 8.059 18 18 18s18-8.059 18-18-8.059-18-18-18c-4.254 0-8.17 1.47-11.25 3.938l-19.312-12c.297-1.298.562-2.55.562-3.938 0-1.388-.265-2.64-.562-3.938l19.312-12A17.934 17.934 0 0 0 616 144c9.941 0 18-8.059 18-18s-8.059-18-18-18z" fill="#fff"/></g></svg>