<svg version="1.0" viewBox="0 0 256 256" xmlns="http://www.w3.org/2000/svg"><g transform="translate(-464 -28)"><rect x="488" y="52" width="208" height="208" ry="16.5" fill="#9c27b0"/><rect x="103" y="255" width="26" height="26" ry="2.5" fill="#9c27b0"/><rect x="57" y="261" width="22" height="22" ry="2.5" fill="#9c27b0"/><path d="M105.5 255a2.495 2.495 0 0 0-2.5 2.5v21c0 1.385 1.115 2.5 2.5 2.5h21c1.385 0 2.5-1.115 2.5-2.5v-21c0-1.385-1.115-2.5-2.5-2.5zm.5 1h20c1.108 0 2 .892 2 2v19c0 1.108-.892 2-2 2h-20c-1.108 0-2-.892-2-2v-19c0-1.108.892-2 2-2z" fill-opacity=".502"/><rect x="17" y="269" width="14" height="14" ry="2.5" fill="#9c27b0"/><rect x="230" y="226" width="52" height="52" ry="4.5" fill="#9c27b0"/><rect x="160" y="240" width="40" height="39" ry="3.5" fill="#9c27b0"/><rect x="324" y="168" width="104" height="104" ry="8.5" fill="#9c27b0"/><path d="M59.5 261a2.495 2.495 0 0 0-2.5 2.5v17c0 1.385 1.115 2.5 2.5 2.5h17c1.385 0 2.5-1.115 2.5-2.5v-17c0-1.385-1.115-2.5-2.5-2.5zm.5 1h16c1.108 0 2 .892 2 2v16c0 1.108-.892 2-2 2H60c-1.108 0-2-.892-2-2v-16c0-1.108.892-2 2-2z" fill-opacity=".502"/><path d="M19.5 269a2.495 2.495 0 0 0-2.5 2.5v9c0 1.385 1.115 2.5 2.5 2.5h9c1.385 0 2.5-1.115 2.5-2.5v-9c0-1.385-1.115-2.5-2.5-2.5zm.5 1h8c1.108 0 2 .892 2 2v8c0 1.108-.892 2-2 2h-8c-1.108 0-2-.892-2-2v-8c0-1.108.892-2 2-2z" fill-opacity=".502"/><path d="M234.5 226a4.49 4.49 0 0 0-4.5 4.5v43a4.49 4.49 0 0 0 4.5 4.5h43a4.49 4.49 0 0 0 4.5-4.5v-43a4.49 4.49 0 0 0-4.5-4.5zm.5 1h42c2.216 0 4 1.784 4 4v40c0 2.216-1.784 4-4 4h-42c-2.216 0-4-1.784-4-4v-40c0-2.216 1.784-4 4-4z" fill-opacity=".502"/><path d="M163.5 240a3.492 3.492 0 0 0-3.5 3.5v32c0 1.939 1.561 3.5 3.5 3.5h33c1.939 0 3.5-1.561 3.5-3.5v-32c0-1.939-1.561-3.5-3.5-3.5zm.5 1h32c1.662 0 3 1.338 3 3v29c0 1.662-1.338 3-3 3h-32c-1.662 0-3-1.338-3-3v-29c0-1.662 1.338-3 3-3z" fill-opacity=".502"/><path d="M332.5 168a8.481 8.481 0 0 0-8.5 8.5v87c0 4.709 3.791 8.5 8.5 8.5h87c4.709 0 8.5-3.791 8.5-8.5v-87c0-4.709-3.791-8.5-8.5-8.5zm.5 1h86c4.432 0 8 3.568 8 8v83c0 4.432-3.568 8-8 8h-86c-4.432 0-8-3.568-8-8v-83c0-4.432 3.568-8 8-8z" fill-opacity=".502"/><path d="M504.5 52c-9.141 0-16.5 7.359-16.5 16.5v175c0 9.141 7.359 16.5 16.5 16.5h175c9.141 0 16.5-7.359 16.5-16.5v-175c0-9.141-7.359-16.5-16.5-16.5zm.5 1h174c8.864 0 16 7.136 16 16v170c0 8.864-7.136 16-16 16H505c-8.864 0-16-7.136-16-16V69c0-8.864 7.136-16 16-16z" fill-opacity=".502"/><g fill="#fff"><path d="M116.235 263a4.5 4.5 0 0 1 .762 2.5 4.5 4.5 0 0 1-4.5 4.5 4.5 4.5 0 0 1-2.5-.76v.76c0 1.108.892 2 2 2h10c1.108 0 2-.892 2-2v-5c0-1.108-.892-2-2-2z"/><path d="m120.995 272-2 2-2-2z"/><path d="M112.495 262a3.5 3.5 0 0 0-3.5 3.5 3.5 3.5 0 0 0 3.5 3.5 3.5 3.5 0 0 0 3.5-3.5 3.5 3.5 0 0 0-3.5-3.5zm-.5 1h1v3h-1zm0 4h1v1h-1z"/></g><g fill="#fff"><path d="M68.235 267a4.5 4.5 0 0 1 .762 2.5 4.5 4.5 0 0 1-4.5 4.5 4.5 4.5 0 0 1-2.5-.76v.76c0 1.108.892 2 2 2h10c1.108 0 2-.892 2-2v-5c0-1.108-.892-2-2-2z"/><path d="m72.995 276-2 2-2-2z"/><path d="M64.495 266a3.5 3.5 0 0 0-3.5 3.5 3.5 3.5 0 0 0 3.5 3.5 3.5 3.5 0 0 0 3.5-3.5 3.5 3.5 0 0 0-3.5-3.5zm-.5 1h1v3h-1zm0 4h1v1h-1z"/></g><g fill="#fff"><path d="M23.619 273.25a2.25 2.25 0 0 1 .38 1.25 2.25 2.25 0 0 1-2.25 2.25 2.25 2.25 0 0 1-1.25-.38v.38c0 .554.447 1 1 1h5c.555 0 1-.446 1-1v-2.5c0-.554-.445-1-1-1z"/><path d="m26 277.75-1 1-1-1z"/><path d="M21.75 272.75A1.75 1.75 0 0 0 20 274.5a1.75 1.75 0 0 0 1.75 1.75 1.75 1.75 0 0 0 1.75-1.75 1.75 1.75 0 0 0-1.75-1.75zm-.25.5h.5v1.5h-.5zm0 2h.5v.5h-.5z"/></g><g fill="#fff"><path d="M179.602 252a6.75 6.75 0 0 1 1.143 3.75 6.75 6.75 0 0 1-6.75 6.75 6.75 6.75 0 0 1-3.75-1.14v1.14c0 1.662 1.338 3 3 3h15c1.662 0 3-1.338 3-3V255c0-1.662-1.338-3-3-3z"/><path d="m186.743 265.5-3 3-3-3z"/><path d="M173.993 250.5a5.25 5.25 0 0 0-5.25 5.25 5.25 5.25 0 0 0 5.25 5.25 5.25 5.25 0 0 0 5.25-5.25 5.25 5.25 0 0 0-5.25-5.25zm-.75 1.5h1.5v4.5h-1.5zm0 6h1.5v1.5h-1.5z"/></g><g fill="#fff"><path d="M255.603 244.5a6.75 6.75 0 0 1 1.143 3.75 6.75 6.75 0 0 1-6.75 6.75 6.75 6.75 0 0 1-3.75-1.14V255c0 1.662 1.338 3 3 3h15c1.662 0 3-1.338 3-3v-7.5c0-1.662-1.338-3-3-3z"/><path d="m262.743 258-3 3-3-3z"/><path d="M249.993 243a5.25 5.25 0 0 0-5.25 5.25 5.25 5.25 0 0 0 5.25 5.25 5.25 5.25 0 0 0 5.25-5.25 5.25 5.25 0 0 0-5.25-5.25zm-.75 1.5h1.5v4.5h-1.5zm0 6h1.5v1.5h-1.5z"/></g><g fill="#fff"><path d="M375.205 205a13.5 13.5 0 0 1 2.285 7.5 13.5 13.5 0 0 1-13.5 13.5 13.5 13.5 0 0 1-7.5-2.28V226c0 3.324 2.676 6 6 6h30c3.324 0 6-2.676 6-6v-15c0-3.324-2.676-6-6-6z"/><path d="m389.485 232-6 6-6-6z"/><path d="M363.985 202a10.5 10.5 0 0 0-10.5 10.5 10.5 10.5 0 0 0 10.5 10.5 10.5 10.5 0 0 0 10.5-10.5 10.5 10.5 0 0 0-10.5-10.5zm-1.5 3h3v9h-3zm0 12h3v3h-3z"/></g><g fill="#fff"><path d="M590.41 126a27 27 0 0 1 4.57 15 27 27 0 0 1-27 27 27 27 0 0 1-15-4.559V168c0 6.648 5.352 12 12 12h60c6.648 0 12-5.352 12-12v-30c0-6.648-5.352-12-12-12z"/><path d="m618.97 180-12 12-12-12z"/><path d="M567.97 120a21 21 0 0 0-21 21 21 21 0 0 0 21 21 21 21 0 0 0 21-21 21 21 0 0 0-21-21zm-3 6h6v18h-6zm0 24h6v6h-6z"/></g></g></svg>