<svg version="1.0" viewBox="0 0 256 256" xmlns="http://www.w3.org/2000/svg"><g transform="translate(-464 -28)"><rect x="488" y="52" width="208" height="208" ry="16.5" fill="#ffce51"/><path d="M504.5 52c-9.141 0-16.5 7.359-16.5 16.5v175c0 9.141 7.359 16.5 16.5 16.5h175c9.141 0 16.5-7.359 16.5-16.5v-175c0-9.141-7.359-16.5-16.5-16.5zm.5 1h174c8.864 0 16 7.136 16 16v170c0 8.864-7.136 16-16 16H505c-8.864 0-16-7.136-16-16V69c0-8.864 7.136-16 16-16z" fill-opacity=".502"/><path d="M592 108c-26.51 0-48 21.49-48 48s21.49 48 48 48 48-21.49 48-48-21.49-48-48-48zm0 22.571V152h20.571L592 185.429V164h-20.571z" color="#000" fill="#393634"/></g></svg>