<svg version="1.0" viewBox="0 0 256 256" xmlns="http://www.w3.org/2000/svg"><g transform="translate(-464 -28)"><rect x="488" y="52" width="208" height="208" ry="16.5" fill="#48b9c7"/><path d="M504.5 52c-9.141 0-16.5 7.359-16.5 16.5v175c0 9.141 7.359 16.5 16.5 16.5h175c9.141 0 16.5-7.359 16.5-16.5v-175c0-9.141-7.359-16.5-16.5-16.5zm.5 1h174c8.864 0 16 7.136 16 16v170c0 8.864-7.136 16-16 16H505c-8.864 0-16-7.136-16-16V69c0-8.864 7.136-16 16-16z" fill-opacity=".502"/><path d="M556 108.01c-11.999 0-12 12-12 12v54s.001 12 12 12h72s12 0 12-12v-54s.001-12-12-12zm-.001 12h72v48.002l-72-.002zm6 78 .001 5.98h60l-.001-5.98c0-6-6-6-6-6h-48.131s-5.87 0-5.87 6z" fill="#393634" opacity=".8"/></g></svg>