<svg version="1.0" viewBox="0 0 256 256" xmlns="http://www.w3.org/2000/svg"><g transform="translate(-464 -28)"><rect x="488" y="52" width="208" height="208" ry="16.5" fill="#7b736e"/><path d="M504.5 52c-9.141 0-16.5 7.359-16.5 16.5v175c0 9.141 7.359 16.5 16.5 16.5h175c9.141 0 16.5-7.359 16.5-16.5v-175c0-9.141-7.359-16.5-16.5-16.5zm.5 1h174c8.864 0 16 7.136 16 16v170c0 8.864-7.136 16-16 16H505c-8.864 0-16-7.136-16-16V69c0-8.864 7.136-16 16-16z" fill-opacity=".502"/><g fill="#fff"><path d="M546.02 195v-50c0-3 3.117-3 3.117-3h20.883v20h-12v24.015h36v-12h12V195c0 2.86-3 3-3 3h-54s-3 0-3-3z"/><path d="M581 114c-3 0-3 3-3 3v46c0 3 3 3 3 3h54s3 0 3-3v-46c0-3-3-3-3-3zm9 16h36v23.98h-36z"/></g></g></svg>