<svg version="1.0" viewBox="0 0 256 256" xmlns="http://www.w3.org/2000/svg"><g transform="translate(-464 -28)"><rect x="103" y="255" width="26" height="26" ry="2.5" fill="#4f4b49"/><rect x="104" y="256" width="24" height="23" ry="2" fill="#d1cdcb"/><rect x="160" y="240" width="40" height="39" ry="3.5" fill="#4f4b49"/><rect x="161" y="241" width="38" height="35" ry="3" fill="#d1cdcb"/><rect x="230" y="226" width="52" height="52" ry="4.5" fill="#4f4b49"/><rect x="231" y="227" width="50" height="48" ry="4" fill="#d1cdcb"/><rect x="324" y="168" width="104" height="104" ry="8.5" fill="#4f4b49"/><rect x="325" y="169" width="102" height="99" ry="8" fill="#d1cdcb"/><rect x="488" y="52" width="208" height="208" ry="16.5" fill="#4f4b49"/><rect x="489" y="53" width="206" height="202" ry="16" fill="#d1cdcb"/><rect x="57" y="261" width="22" height="22" ry="2.5" fill="#4f4b49"/><rect x="58" y="262" width="20" height="20" ry="2" fill="#d1cdcb"/><rect x="17" y="269" width="14" height="14" ry="2.5" fill="#4f4b49"/><rect x="18" y="270" width="12" height="12" ry="2" fill="#d1cdcb"/><path d="M111 261s-2 0-2 2v8c0 2 2 2 2 2h11s2 0 2-2v-8c0-2-2-2-2-2zm.25 2h1.5a.25.25 0 0 1 .25.25v1.5a.25.25 0 0 1-.25.25h-1.5a.25.25 0 0 1-.25-.25v-1.5a.25.25 0 0 1 .25-.25zm3 0h1.5a.25.25 0 0 1 .25.25v1.5a.25.25 0 0 1-.25.25h-1.5a.25.25 0 0 1-.25-.25v-1.5a.25.25 0 0 1 .25-.25zm3 0h1.5a.25.25 0 0 1 .25.25v1.5a.25.25 0 0 1-.25.25h-1.5a.25.25 0 0 1-.25-.25v-1.5a.25.25 0 0 1 .25-.25zm3 0h1.5a.25.25 0 0 1 .25.25v1.5a.25.25 0 0 1-.25.25h-1.5a.25.25 0 0 1-.25-.25v-1.5a.25.25 0 0 1 .25-.25zm-9 3h1.5a.25.25 0 0 1 .25.25v1.5a.25.25 0 0 1-.25.25h-1.5a.25.25 0 0 1-.25-.25v-1.5a.25.25 0 0 1 .25-.25zm3 0h1.5a.25.25 0 0 1 .25.25v1.5a.25.25 0 0 1-.25.25h-1.5a.25.25 0 0 1-.25-.25v-1.5a.25.25 0 0 1 .25-.25zm3 0h1.5a.25.25 0 0 1 .25.25v1.5a.25.25 0 0 1-.25.25h-1.5a.25.25 0 0 1-.25-.25v-1.5a.25.25 0 0 1 .25-.25zm3 0h1.5a.25.25 0 0 1 .25.25v1.5a.25.25 0 0 1-.25.25h-1.5a.25.25 0 0 1-.25-.25v-1.5a.25.25 0 0 1 .25-.25zm-7 3h6.5a.25.25 0 0 1 .25.25v1.5a.25.25 0 0 1-.25.25h-6.5a.25.25 0 0 1-.25-.25v-1.5a.25.25 0 0 1 .25-.25z" fill="#2b2928" filter="url(#filter7554)"/><rect x="62" y="267" width="13" height="10" ry=".5" fill="#fdfdfd"/><path d="M63 266s-2 0-2 2v8c0 2 2 2 2 2h11s2 0 2-2v-8c0-2-2-2-2-2zm.25 2h1.5a.25.25 0 0 1 .25.25v1.5a.25.25 0 0 1-.25.25h-1.5a.25.25 0 0 1-.25-.25v-1.5a.25.25 0 0 1 .25-.25zm3 0h1.5a.25.25 0 0 1 .25.25v1.5a.25.25 0 0 1-.25.25h-1.5a.25.25 0 0 1-.25-.25v-1.5a.25.25 0 0 1 .25-.25zm3 0h1.5a.25.25 0 0 1 .25.25v1.5a.25.25 0 0 1-.25.25h-1.5a.25.25 0 0 1-.25-.25v-1.5a.25.25 0 0 1 .25-.25zm3 0h1.5a.25.25 0 0 1 .25.25v1.5a.25.25 0 0 1-.25.25h-1.5a.25.25 0 0 1-.25-.25v-1.5a.25.25 0 0 1 .25-.25zm-9 3h1.5a.25.25 0 0 1 .25.25v1.5a.25.25 0 0 1-.25.25h-1.5a.25.25 0 0 1-.25-.25v-1.5a.25.25 0 0 1 .25-.25zm3 0h1.5a.25.25 0 0 1 .25.25v1.5a.25.25 0 0 1-.25.25h-1.5a.25.25 0 0 1-.25-.25v-1.5a.25.25 0 0 1 .25-.25zm3 0h1.5a.25.25 0 0 1 .25.25v1.5a.25.25 0 0 1-.25.25h-1.5a.25.25 0 0 1-.25-.25v-1.5a.25.25 0 0 1 .25-.25zm3 0h1.5a.25.25 0 0 1 .25.25v1.5a.25.25 0 0 1-.25.25h-1.5a.25.25 0 0 1-.25-.25v-1.5a.25.25 0 0 1 .25-.25zm-7 3h6.5a.25.25 0 0 1 .25.25v1.5a.25.25 0 0 1-.25.25h-6.5a.25.25 0 0 1-.25-.25v-1.5a.25.25 0 0 1 .25-.25z" fill="#2b2928" filter="url(#filter7554)"/><rect x="19.5" y="272.5" width="9" height="6" ry=".5" fill="#fdfdfd"/><path d="M20 272c-.554 0-1 .446-1 1v5c0 .554.446 1 1 1h8c.554 0 1-.446 1-1v-5c0-.554-.446-1-1-1zm0 1h2v2h-2zm3 0h2v2h-2zm3 0h2v2h-2zm-6 3h8v2h-8z" fill="#2b2928"/><rect x="169" y="249" width="22" height="18" ry="2" fill="#2b2928"/><rect x="171" y="252" width="3" height="3" ry=".5" fill="#fdfdfd"/><rect x="176" y="252" width="3" height="3" ry=".5" fill="#fdfdfd"/><rect x="181" y="252" width="3" height="3" ry=".5" fill="#fdfdfd"/><rect x="186" y="252" width="3" height="3" ry=".5" fill="#fdfdfd"/><rect x="171" y="257" width="3" height="3" ry=".5" fill="#fdfdfd"/><rect x="176" y="257" width="3" height="3" ry=".5" fill="#fdfdfd"/><rect x="181" y="257" width="3" height="3" ry=".5" fill="#fdfdfd"/><rect x="186" y="257" width="3" height="3" ry=".5" fill="#fdfdfd"/><rect x="173" y="262" width="14" height="3" ry=".5" fill="#fdfdfd"/><rect x="110" y="262" width="13" height="10" ry=".5" fill="#fdfdfd"/><path d="M111 261s-2 0-2 2v8c0 2 2 2 2 2h11s2 0 2-2v-8c0-2-2-2-2-2zm.25 2h1.5a.25.25 0 0 1 .25.25v1.5a.25.25 0 0 1-.25.25h-1.5a.25.25 0 0 1-.25-.25v-1.5a.25.25 0 0 1 .25-.25zm3 0h1.5a.25.25 0 0 1 .25.25v1.5a.25.25 0 0 1-.25.25h-1.5a.25.25 0 0 1-.25-.25v-1.5a.25.25 0 0 1 .25-.25zm3 0h1.5a.25.25 0 0 1 .25.25v1.5a.25.25 0 0 1-.25.25h-1.5a.25.25 0 0 1-.25-.25v-1.5a.25.25 0 0 1 .25-.25zm3 0h1.5a.25.25 0 0 1 .25.25v1.5a.25.25 0 0 1-.25.25h-1.5a.25.25 0 0 1-.25-.25v-1.5a.25.25 0 0 1 .25-.25zm-9 3h1.5a.25.25 0 0 1 .25.25v1.5a.25.25 0 0 1-.25.25h-1.5a.25.25 0 0 1-.25-.25v-1.5a.25.25 0 0 1 .25-.25zm3 0h1.5a.25.25 0 0 1 .25.25v1.5a.25.25 0 0 1-.25.25h-1.5a.25.25 0 0 1-.25-.25v-1.5a.25.25 0 0 1 .25-.25zm3 0h1.5a.25.25 0 0 1 .25.25v1.5a.25.25 0 0 1-.25.25h-1.5a.25.25 0 0 1-.25-.25v-1.5a.25.25 0 0 1 .25-.25zm3 0h1.5a.25.25 0 0 1 .25.25v1.5a.25.25 0 0 1-.25.25h-1.5a.25.25 0 0 1-.25-.25v-1.5a.25.25 0 0 1 .25-.25zm-7 3h6.5a.25.25 0 0 1 .25.25v1.5a.25.25 0 0 1-.25.25h-6.5a.25.25 0 0 1-.25-.25v-1.5a.25.25 0 0 1 .25-.25z" fill="#2b2928" filter="url(#filter7554)"/><g transform="matrix(2 0 0 2 23 -283)"><rect x="110" y="262" width="13" height="10" ry=".5" fill="#fdfdfd"/><path d="M111 261s-2 0-2 2v8c0 2 2 2 2 2h11s2 0 2-2v-8c0-2-2-2-2-2z" fill="#2b2928" filter="url(#filter7554)"/><rect x="110.5" y="262.5" width="1.5" height="1.5" ry=".25" fill="#fdfdfd"/><rect x="113" y="262.5" width="1.5" height="1.5" ry=".25" fill="#fdfdfd"/><rect x="115.5" y="262.5" width="1.5" height="1.5" ry=".25" fill="#fdfdfd"/><rect x="118" y="262.5" width="1.5" height="1.5" ry=".25" fill="#fdfdfd"/><rect x="120.5" y="262.5" width="2" height="1.5" ry=".25" fill="#fdfdfd"/><rect x="118.5" y="265" width="1.5" height="1.5" ry=".25" fill="#fdfdfd"/><rect x="116" y="265" width="1.5" height="1.5" ry=".25" fill="#fdfdfd"/><rect x="110.5" y="265" width="2" height="1.5" ry=".25" fill="#fdfdfd"/><rect x="121" y="265" width="1.5" height="1.5" ry=".25" fill="#fdfdfd"/><rect x="113.5" y="265" width="1.5" height="1.5" ry=".25" fill="#fdfdfd"/><rect x="110.5" y="267.5" width="3" height="1.5" ry=".25" fill="#fdfdfd"/><rect x="119.5" y="267.5" width="3" height="1.5" ry=".25" fill="#fdfdfd"/><rect x="117" y="267.5" width="1.5" height="1.5" ry=".25" fill="#fdfdfd"/><rect x="114.5" y="267.5" width="1.5" height="1.5" ry=".25" fill="#fdfdfd"/><rect x="113" y="270" width="7" height="1.5" ry=".25" fill="#fdfdfd"/><g transform="matrix(2 0 0 2 -56.5 -283.25)"><rect x="110" y="262" width="13" height="10" ry=".5" fill="#fdfdfd"/><path d="M111 261s-2 0-2 2v8c0 2 2 2 2 2h11s2 0 2-2v-8c0-2-2-2-2-2z" fill="#2b2928" filter="url(#filter7554)"/><rect x="110.5" y="262.5" width="1.5" height="1.5" ry=".25" fill="#fdfdfd"/><rect x="113" y="262.5" width="1.5" height="1.5" ry=".25" fill="#fdfdfd"/><rect x="115.5" y="262.5" width="1.5" height="1.5" ry=".25" fill="#fdfdfd"/><rect x="118" y="262.5" width="1.5" height="1.5" ry=".25" fill="#fdfdfd"/><rect x="120.5" y="262.5" width="2" height="1.5" ry=".25" fill="#fdfdfd"/><rect x="118.5" y="265" width="1.5" height="1.5" ry=".25" fill="#fdfdfd"/><rect x="116" y="265" width="1.5" height="1.5" ry=".25" fill="#fdfdfd"/><rect x="110.5" y="265" width="2" height="1.5" ry=".25" fill="#fdfdfd"/><rect x="121" y="265" width="1.5" height="1.5" ry=".25" fill="#fdfdfd"/><rect x="113.5" y="265" width="1.5" height="1.5" ry=".25" fill="#fdfdfd"/><rect x="110.5" y="267.5" width="3" height="1.5" ry=".25" fill="#fdfdfd"/><rect x="119.5" y="267.5" width="3" height="1.5" ry=".25" fill="#fdfdfd"/><rect x="117" y="267.5" width="1.5" height="1.5" ry=".25" fill="#fdfdfd"/><rect x="114.5" y="267.5" width="1.5" height="1.5" ry=".25" fill="#fdfdfd"/><rect x="113" y="270" width="7" height="1.5" ry=".25" fill="#fdfdfd"/></g><g transform="matrix(4 0 0 4 -181.5 -849.5)"><rect x="110" y="262" width="13" height="10" ry=".5" fill="#fdfdfd"/><path d="M111 261s-2 0-2 2v8c0 2 2 2 2 2h11s2 0 2-2v-8c0-2-2-2-2-2z" fill="#2b2928" filter="url(#filter7554)"/><rect x="110.5" y="262.5" width="1.5" height="1.5" ry=".25" fill="#fdfdfd"/><rect x="113" y="262.5" width="1.5" height="1.5" ry=".25" fill="#fdfdfd"/><rect x="115.5" y="262.5" width="1.5" height="1.5" ry=".25" fill="#fdfdfd"/><rect x="118" y="262.5" width="1.5" height="1.5" ry=".25" fill="#fdfdfd"/><rect x="120.5" y="262.5" width="2" height="1.5" ry=".25" fill="#fdfdfd"/><rect x="118.5" y="265" width="1.5" height="1.5" ry=".25" fill="#fdfdfd"/><rect x="116" y="265" width="1.5" height="1.5" ry=".25" fill="#fdfdfd"/><rect x="110.5" y="265" width="2" height="1.5" ry=".25" fill="#fdfdfd"/><rect x="121" y="265" width="1.5" height="1.5" ry=".25" fill="#fdfdfd"/><rect x="113.5" y="265" width="1.5" height="1.5" ry=".25" fill="#fdfdfd"/><rect x="110.5" y="267.5" width="3" height="1.5" ry=".25" fill="#fdfdfd"/><rect x="119.5" y="267.5" width="3" height="1.5" ry=".25" fill="#fdfdfd"/><rect x="117" y="267.5" width="1.5" height="1.5" ry=".25" fill="#fdfdfd"/><rect x="114.5" y="267.5" width="1.5" height="1.5" ry=".25" fill="#fdfdfd"/><rect x="113" y="270" width="7" height="1.5" ry=".25" fill="#fdfdfd"/></g></g></g></svg>