<svg version="1.0" viewBox="0 0 256 256" xmlns="http://www.w3.org/2000/svg"><g transform="translate(-464 -28)"><rect x="488" y="52" width="208" height="208" ry="16.5" fill="#48b9c7"/><path d="M504.5 52c-9.141 0-16.5 7.359-16.5 16.5v175c0 9.141 7.359 16.5 16.5 16.5h175c9.141 0 16.5-7.359 16.5-16.5v-175c0-9.141-7.359-16.5-16.5-16.5zm.5 1h174c8.864 0 16 7.136 16 16v170c0 8.864-7.136 16-16 16H505c-8.864 0-16-7.136-16-16V69c0-8.864 7.136-16 16-16z" fill-opacity=".502"/><path d="M592 108c26.51 0 48 21.49 48 48v6c0 9.941-8.059 18-18 18a18.013 18.013 0 0 1-13.781-6.422C603.942 177.523 598.277 180 592 180c-13.255 0-24-10.745-24-24s10.745-24 24-24 24 10.745 24 24v6a6 6 0 0 0 12 0v-6c0-19.882-16.118-36-36-36s-36 16.118-36 36 16.118 36 36 36h30s6 0 6 6c-.374 6-6 6-6 6h-30c-26.51 0-48-21.49-48-48s21.49-48 48-48zm0 36c-6.628 0-12 5.373-12 12s5.372 12 12 12 12-5.373 12-12-5.372-12-12-12z" fill="#fff"/></g></svg>