<svg version="1.0" viewBox="0 0 256 256" xmlns="http://www.w3.org/2000/svg"><g transform="translate(-464 872)"><rect x="480" y="-816" width="224" height="176" ry="8" fill="#6f6f6f"/><rect x="481" y="-815" width="222" height="170" ry="7.5" fill="#dedede"/><rect x="488" y="-808" width="208" height="143" ry="1" fill="#45454f"/><rect x="488" y="-808" width="208" height="143" ry="1" fill="#48b9c7"/><g fill-opacity=".196"><path d="M604.79 384.57c-1.645 0-3 1.355-3 3v6c0 1.645 1.355 3 3 3h8c1.645 0 3-1.355 3-3v-6c0-1.645-1.355-3-3-3zm0 2h8c.571 0 1 .429 1 1v6c0 .571-.429 1-1 1h-8c-.571 0-1-.429-1-1v-6c0-.571.429-1 1-1z" color="#000" style="font-feature-settings:normal;font-variant-alternates:normal;font-variant-caps:normal;font-variant-ligatures:normal;font-variant-numeric:normal;font-variant-position:normal;isolation:auto;mix-blend-mode:normal;shape-padding:0;text-decoration-color:#000;text-decoration-line:none;text-decoration-style:solid;text-indent:0;text-orientation:mixed;text-transform:none;white-space:normal" transform="matrix(8 0 0 8 -4278.3 -3859.6)"/><path d="M560.02-759.04v32l12-12 12 12 20-20 20 20v-32z" opacity=".5"/><path d="m592.02-743.04 32 32h-64z"/></g><g fill="#fff"><path d="M604.79 384.57c-1.645 0-3 1.355-3 3v6c0 1.645 1.355 3 3 3h8c1.645 0 3-1.355 3-3v-6c0-1.645-1.355-3-3-3zm0 2h8c.571 0 1 .429 1 1v6c0 .571-.429 1-1 1h-8c-.571 0-1-.429-1-1v-6c0-.571.429-1 1-1z" color="#000" style="font-feature-settings:normal;font-variant-alternates:normal;font-variant-caps:normal;font-variant-ligatures:normal;font-variant-numeric:normal;font-variant-position:normal;isolation:auto;mix-blend-mode:normal;shape-padding:0;text-decoration-color:#000;text-decoration-line:none;text-decoration-style:solid;text-indent:0;text-orientation:mixed;text-transform:none;white-space:normal" transform="matrix(8 0 0 8 -4278.3 -3861.6)"/><path d="M560.02-761.04v32l12-12 12 12 20-20 20 20v-32z" opacity=".5"/><path d="m592.02-745.04 32 32h-64z"/></g></g></svg>