<svg version="1.0" viewBox="0 0 256 256" xmlns="http://www.w3.org/2000/svg"><g transform="translate(-464 -28)"><rect x="488" y="52" width="208" height="208" ry="16.5" fill="#f15d22"/><path d="M504.5 52c-9.141 0-16.5 7.359-16.5 16.5v175c0 9.141 7.359 16.5 16.5 16.5h175c9.141 0 16.5-7.359 16.5-16.5v-175c0-9.141-7.359-16.5-16.5-16.5zm.5 1h174c8.864 0 16 7.136 16 16v170c0 8.864-7.136 16-16 16H505c-8.864 0-16-7.136-16-16V69c0-8.864 7.136-16 16-16z" fill-opacity=".502"/><path d="M580.02 116c-5.523 0-10 4.477-10 10s4.477 10 10 10 10-4.477 10-10-4.477-10-10-10zm-8 24a4 4 0 0 0-3.695 2.46l-10 20c-2.211 4.987 5.397 8.16 7.382 3.08l4.438-10.642-.14 1.102v36c0 2.216 1.783 4 4 4h.015c2.216 0 4-1.784 4-4l-.016-20h4l.016 20c.002 2.216 1.784 4 4 4s4-1.784 4-4l-.016-36-.148-1.196 4.469 10.734a4 4 0 0 0 5.718 2.008l6.117 3.672c-.053.26-.156.504-.156.781v22c0 1.108.892 2 2 2s2-.892 2-2v-10h4.016v10c0 1.108.892 2 2 2s2-.892 2-2v-19.164l4.57 4.579c1.885 1.963 4.791-.944 2.828-2.829l-7.984-8a2 2 0 0 0-1.414-.586h-7.461l-6.508-3.914c0-.56-.117-1.113-.344-1.625l-10-20a4 4 0 0 0-3.687-2.46zm39.984 11c-3.854 0-7 3.146-7 7s3.146 7 7 7 7-3.146 7-7-3.146-7-7-7z" fill="#fff"/></g></svg>