<svg version="1.0" viewBox="0 0 256 256" xmlns="http://www.w3.org/2000/svg"><g transform="translate(-464 -28)"><rect x="488" y="52" width="208" height="208" ry="16.5" fill="#cdcdcd"/><path d="M504.5 52c-9.141 0-16.5 7.359-16.5 16.5v175c0 9.141 7.359 16.5 16.5 16.5h175c9.141 0 16.5-7.359 16.5-16.5v-175c0-9.141-7.359-16.5-16.5-16.5zm.5 1h174c8.864 0 16 7.136 16 16v170c0 8.864-7.136 16-16 16H505c-8.864 0-16-7.136-16-16V69c0-8.864 7.136-16 16-16z" fill-opacity=".502"/><path d="m576.25 93-1.389 16.594a49.5 49.5 0 0 0-14.467 8.367l-15.082-7.101-15.75 27.28 13.693 9.51a49.5 49.5 0 0 0-.756 8.35 49.5 49.5 0 0 0 .721 8.385l-13.658 9.475 15.75 27.28 15.047-7.083a49.5 49.5 0 0 0 14.502 8.314l1.389 16.63h31.5l1.389-16.595a49.5 49.5 0 0 0 14.467-8.367l15.082 7.101 15.75-27.28-13.693-9.51a49.5 49.5 0 0 0 .756-8.35 49.5 49.5 0 0 0-.721-8.385l13.658-9.474-15.75-27.281-15.047 7.083a49.5 49.5 0 0 0-14.502-8.314L607.75 93zM592 138a18 18 0 0 1 18 18 18 18 0 0 1-18 18 18 18 0 0 1-18-18 18 18 0 0 1 18-18z" fill="#463e39"/></g></svg>