<svg version="1.0" viewBox="0 0 256 256" xmlns="http://www.w3.org/2000/svg"><g transform="translate(-464 -28)"><rect x="488" y="52" width="208" height="208" ry="16.5" fill="#3f51b5"/><path d="M504.5 52c-9.141 0-16.5 7.359-16.5 16.5v175c0 9.141 7.359 16.5 16.5 16.5h175c9.141 0 16.5-7.359 16.5-16.5v-175c0-9.141-7.359-16.5-16.5-16.5zm.5 1h174c8.864 0 16 7.136 16 16v170c0 8.864-7.136 16-16 16H505c-8.864 0-16-7.136-16-16V69c0-8.864 7.136-16 16-16z" fill-opacity=".502"/><path d="m556.02 118 72 72-36 34V84l36 34-72 64" fill="none" stroke="#fafafa" stroke-linecap="round" stroke-linejoin="round" stroke-width="8"/></g></svg>