<svg version="1.0" viewBox="0 0 256 256" xmlns="http://www.w3.org/2000/svg"><g transform="translate(-464 -28)"><rect x="488" y="52" width="208" height="208" ry="16.5" fill="#3f51b5"/><path d="M504.5 52c-9.141 0-16.5 7.359-16.5 16.5v175c0 9.141 7.359 16.5 16.5 16.5h175c9.141 0 16.5-7.359 16.5-16.5v-175c0-9.141-7.359-16.5-16.5-16.5zm.5 1h174c8.864 0 16 7.136 16 16v170c0 8.864-7.136 16-16 16H505c-8.864 0-16-7.136-16-16V69c0-8.864 7.136-16 16-16z" fill-opacity=".502"/><path d="M570.53 127.23v56l12.531-15.281 8.266 19.945a4 4 0 1 0 7.39-3.063l-8.445-20.382 17.516.04z" fill="none" stroke="#fff" stroke-width="8"/><path d="M570.53 127.23v56l12.531-15.281 8.266 19.945a4 4 0 1 0 7.39-3.063l-8.445-20.382 17.516.04z" fill="#151515" fill-rule="evenodd"/></g></svg>