<svg version="1.0" viewBox="0 0 256 256" xmlns="http://www.w3.org/2000/svg"><g transform="translate(-464 -28)"><rect x="488" y="52" width="208" height="208" ry="16.5" fill="#4f4b49"/><rect x="489" y="53" width="206" height="202" ry="16" fill="#d1cdcb"/><g transform="matrix(8 0 0 8 -340 -1982)"><rect x="110" y="262" width="13" height="10" ry=".5" fill="#fdfdfd"/><path d="M111 261s-2 0-2 2v8c0 2 2 2 2 2h11s2 0 2-2v-8c0-2-2-2-2-2z" fill="#2b2928" filter="url(#filter7554)"/><rect x="110.5" y="262.5" width="1.5" height="1.5" ry=".25" fill="#fdfdfd"/><rect x="113" y="262.5" width="1.5" height="1.5" ry=".25" fill="#fdfdfd"/><rect x="115.5" y="262.5" width="1.5" height="1.5" ry=".25" fill="#fdfdfd"/><rect x="118" y="262.5" width="1.5" height="1.5" ry=".25" fill="#fdfdfd"/><rect x="120.5" y="262.5" width="2" height="1.5" ry=".25" fill="#fdfdfd"/><rect x="118.5" y="265" width="1.5" height="1.5" ry=".25" fill="#fdfdfd"/><rect x="116" y="265" width="1.5" height="1.5" ry=".25" fill="#fdfdfd"/><rect x="110.5" y="265" width="2" height="1.5" ry=".25" fill="#fdfdfd"/><rect x="121" y="265" width="1.5" height="1.5" ry=".25" fill="#fdfdfd"/><rect x="113.5" y="265" width="1.5" height="1.5" ry=".25" fill="#fdfdfd"/><rect x="110.5" y="267.5" width="3" height="1.5" ry=".25" fill="#fdfdfd"/><rect x="119.5" y="267.5" width="3" height="1.5" ry=".25" fill="#fdfdfd"/><rect x="117" y="267.5" width="1.5" height="1.5" ry=".25" fill="#fdfdfd"/><rect x="114.5" y="267.5" width="1.5" height="1.5" ry=".25" fill="#fdfdfd"/><rect x="113" y="270" width="7" height="1.5" ry=".25" fill="#fdfdfd"/></g></g></svg>