<svg version="1.0" viewBox="0 0 256 256" xmlns="http://www.w3.org/2000/svg"><g transform="translate(-464 -28)"><rect x="472" y="38" width="240" height="240" ry="120" fill="#213397"/><rect x="472" y="36" width="240" height="240" ry="120" fill="#3f51b5"/><path d="M577 204h20v24h-20zm20-13h-20c0-19.256 2.703-33.876 14.754-45.445 5.863-5.628 12.35-11.637 16.459-18.085 1.841-2.89 3-7.351 2.787-10.47-.889-13.057-12.147-18.21-23-18-12.89.25-25.468 7.466-35 14V94c11.703-6.974 25.441-10.058 38-10 21.407.092 40.405 13.416 40 33-.347 16.795-13.38 26.562-24.797 37.167C597.02 162.697 597 175.93 597 191z" fill="#fff"/><rect x="472.5" y="36.5" width="239" height="239" ry="119.5" fill="none" stroke="#fff" stroke-linecap="round" stroke-linejoin="round" stroke-opacity=".392"/><rect x="316" y="162" width="120" height="120" ry="60" fill="#213397"/><rect x="316" y="160" width="120" height="120" ry="60" fill="#3f51b5"/><rect x="226" y="223" width="60" height="60" ry="29.5" fill="#213397"/><rect x="226" y="222" width="60" height="60" ry="30" fill="#3f51b5"/><rect x="158" y="239" width="44" height="44" ry="22" fill="#213397"/><rect x="158" y="238" width="44" height="44" ry="22" fill="#3f51b5"/><rect x="101" y="254" width="30" height="30" ry="15" fill="#213397"/><rect x="101" y="253" width="30" height="30" ry="15" fill="#3f51b5"/><rect x="57" y="261" width="22" height="22" ry="11" fill="#3f51b5"/><rect x="17" y="269" width="14" height="14" ry="7" fill="#3f51b5"/><rect x="316.5" y="160.5" width="119" height="119" ry="59.5" fill="none" stroke="#fff" stroke-linecap="round" stroke-linejoin="round" stroke-opacity=".392"/><rect x="226.5" y="222.5" width="59" height="59" ry="29.5" fill="none" stroke="#fff" stroke-linecap="round" stroke-linejoin="round" stroke-opacity=".392"/><rect x="158.5" y="238.5" width="43" height="43" ry="21.5" fill="none" stroke="#fff" stroke-linecap="round" stroke-linejoin="round" stroke-opacity=".392"/><rect x="101.5" y="253.5" width="29" height="29" ry="14.5" fill="none" stroke="#fff" stroke-linecap="round" stroke-linejoin="round" stroke-opacity=".392"/><rect x="57.5" y="261.5" width="21" height="21" ry="10.5" fill="none" stroke="#fff" stroke-linecap="round" stroke-linejoin="round" stroke-opacity=".392"/><rect x="17.5" y="269.5" width="13" height="13" ry="6.5" fill="none" stroke="#fff" stroke-linecap="round" stroke-linejoin="round" stroke-opacity=".392"/><path d="M23.998 272c-1.169 0-2.523.402-3 2l.978.306c.347-1.454 1.318-1.306 2.022-1.306.873 0 2 .225 2 1 0 1.521-3.107 1.932-3 4.296V279h1v-.634c0-1.845 3-2.113 3-4.366 0-1.127-1.225-2-3-2z" fill="#fff"/><rect x="22.998" y="280" width="1" height="1" ry="0" fill="#fff"/><path d="M66.998 276h2v1.984h-2zm2-1h-1.992v-1.203c0-.526.073-.958.219-1.297.145-.339.453-.732.921-1.18l.704-.695c.296-.276.51-.536.64-.781.136-.245.337-.589.337-.844 0-.706-.829-1-1.329-1-.411 0-1.523.13-1.992.312a7.263 7.263 0 0 0-1.453.797v-1.968c.49-.297.984-.519 1.484-.665a5.606 5.606 0 0 1 1.563-.218c.958 0 1.726.252 2.304.758.584.505 1.094 1.156 1.094 1.984 0 1-.526 1.904-.984 2.352l-.688.671a5.66 5.66 0 0 0-.523.579 1.41 1.41 0 0 0-.211.398c-.031.11-.055.242-.07.398s-.024.37-.024.641z" fill="#fff"/><path d="m114 274.01 2-.008v2.992l-2 .008zm2-2.008h-2c0-2.5.71-3.666 2.221-5.06 1.11-1.023 2.343-1.943 2.388-3.322.055-1.731-1.92-2.533-3.301-2.59-1.59-.067-3.003.804-4.182 1.613v-2.214a8.532 8.532 0 0 1 4.594-1.332c2.635 0 5.35 1.967 5.28 4.405-.06 2.077-1.556 3.207-3 4.5-1.356 1.215-2.007 2.57-2 4z" fill="#fff"/><path d="M177 272h4.5v5.5h-4.496zm4.5-3H177c0-4.5.577-8.01 3.367-10.688 1.357-1.303 2.858-2.694 3.81-4.186.426-.67.872-1.404.823-2.126-.206-3.022-2.488-4.548-5-4.5-2.984.058-5.794 1.488-8 3v-4.164c2.709-1.614 5.093-2.35 8-2.336 4.955.022 9.094 3.467 9 8-.08 3.888-2.729 5.765-5.289 8.306C181.5 262.5 181.5 265.5 181.5 269z" fill="#fff"/><path d="M253 265h5v7h-5zm5-4h-5c0-5.5 1-10 3.771-12.868 1.626-1.683 3.556-3.35 4.739-5.207.53-.832 1.051-2.027.99-2.925-.256-3.76-3.375-5.06-6.5-5-3.711.072-7.256 2.119-10 4v-6c3.37-2.008 6.384-3.016 10-3 6.163.026 12.117 4.362 12 10-.1 4.836-3.868 7.467-7.069 10.611-2.431 2.389-2.93 5.889-2.93 10.39z" fill="#fff"/><path d="M367 249h12v14h-12zm12-8h-12c0-11.5 1.658-20.329 8.855-27.238 3.501-3.361 7.376-6.95 9.83-10.801 1.1-1.726 1.442-4.098 1.315-5.96-.531-7.799-7.018-11.126-13.5-11-7.698.148-14.807 4.097-20.5 8v-11c6.99-4.166 14.999-6.036 22.5-6 12.785.054 23.742 8.303 23.5 20-.207 10.03-7.697 15.57-14.515 21.904C379.001 224 379.001 232 379.001 241z" fill="#fff"/></g></svg>