<svg version="1.0" viewBox="0 0 64 64" xmlns="http://www.w3.org/2000/svg"><g transform="translate(-224 -220)"><rect x="230" y="226" width="52" height="52" ry="4" fill="#767676"/><rect x="231" y="227" width="50" height="48" ry="3" fill="#ededed"/><rect x="231" y="227" width="50" height="8" ry="3" fill="#faa41a"/><rect x="231" y="231" width="50" height="6" ry="0" fill="#faa41a"/><g aria-label="19"><path d="m242.02 265.26 3.984-.266v-16h-4v-2l8-2v20l4.016.266-.016 1.734h-12z"/><path d="M262.18 263.72c1.146 0 2.07-.436 2.776-1.307.705-.881 1.037-2.198 1.037-3.95v-.324c-.48.617-1.032 1.087-1.698 1.41-.666.313-1.38.47-2.144.47-1.998 0-3.564-.651-4.7-1.953-1.136-1.312-1.458-3.119-1.458-5.42 0-2.163.43-3.975 1.781-5.433 1.361-1.469 3.08-2.203 5.155-2.203 2.183 0 3.956.753 5.316 2.261 1.361 1.498 1.748 3.608 1.748 6.33v4.64c0 2.772-.465 4.926-1.983 6.463-1.507 1.537-3.45 2.306-5.83 2.306-.744 0-1.513-.079-2.306-.235a10.027 10.027 0 0 1-1.881-.54v-2.012l.192-1.213a11.81 11.81 0 0 0 1.91.548c.616.108 1.312.162 2.085.162zm.69-6.844c.715 0 1.337-.132 1.865-.396a3.331 3.331 0 0 0 1.258-1.087v-2.291c0-1.567-.254-2.756-.802-3.569-.549-.813-1.293-1.219-2.233-1.219-.861 0-1.566.426-2.115 1.278-.538.842-.85 2.223-.85 3.418 0 1.292.283 1.957.762 2.72.49.765 1.195 1.146 2.115 1.146z"/></g></g></svg>