<svg version="1.0" viewBox="0 0 64 64" xmlns="http://www.w3.org/2000/svg"><g stroke-linecap="square"><path d="M49 3c8.31 0 15 6.69 15 15v3h-6v-1c0-4.986-4.014-9-9-9s-9 4.014-9 9v14c0 .689.083 1.356.229 2H34.05c-.022-.332-.051-.662-.051-1V18c0-8.31 6.69-15 15-15z" fill="#6f6f6f"/><path d="M49 4c7.756 0 14 6.244 14 14h-4c0-5.54-4.46-10-10-10s-10 4.46-10 10v18h-4V18c0-7.756 6.244-14 14-14z" fill="#dedede"/><g transform="translate(-221 -220)" stroke-width="4"><rect x="224" y="248" width="44" height="32" ry="4" fill="#ffce51"/><path d="M228 248c-2.216 0-4 1.784-4 4v2h44v-2c0-2.216-1.784-4-4-4zm-4 26v2c0 2.216 1.784 4 4 4h36c2.216 0 4-1.784 4-4v-2z" fill-opacity=".118"/><path d="M228 248c-2.216 0-4 1.784-4 4v24c0 2.216 1.784 4 4 4h36c2.216 0 4-1.784 4-4v-24c0-2.216-1.784-4-4-4zm0 1h36c1.662 0 3 1.338 3 3v22c0 1.662-1.338 3-3 3h-36c-1.662 0-3-1.338-3-3v-22c0-1.662 1.338-3 3-3z" fill-opacity=".502"/></g></g></svg>