<svg version="1.0" viewBox="0 0 64 64" xmlns="http://www.w3.org/2000/svg"><g stroke-linecap="square" transform="translate(-224 -220)"><path d="M256 223c-8.31 0-15 6.69-15 15v17c0 8.31 6.69 15 15 15s15-6.69 15-15v-17c0-8.31-6.69-15-15-15zm0 8c4.986 0 9 4.014 9 9v14c0 4.986-4.014 9-9 9s-9-4.014-9-9v-14c0-4.986 4.014-9 9-9z" fill="#6f6f6f"/><path d="M256 224c-7.756 0-14 6.244-14 14v28c0 7.756 6.244 14 14 14s14-6.244 14-14v-28c0-7.756-6.244-14-14-14zm0 4c5.54 0 10 4.46 10 10v28c0 5.54-4.46 10-10 10s-10-4.46-10-10v-28c0-5.54 4.46-10 10-10z" fill="#dedede"/><rect x="234" y="248" width="44" height="32" ry="4" fill="#ffce51"/><path d="M238 248c-2.216 0-4 1.784-4 4v2h44v-2c0-2.216-1.784-4-4-4zm-4 26v2c0 2.216 1.784 4 4 4h36c2.216 0 4-1.784 4-4v-2z" fill-opacity=".118"/><path d="M238 248c-2.216 0-4 1.784-4 4v24c0 2.216 1.784 4 4 4h36c2.216 0 4-1.784 4-4v-24c0-2.216-1.784-4-4-4zm0 1h36c1.662 0 3 1.338 3 3v22c0 1.662-1.338 3-3 3h-36c-1.662 0-3-1.338-3-3v-22c0-1.662 1.338-3 3-3z" fill-opacity=".502"/></g></svg>