<svg version="1.0" viewBox="0 0 64 64" xmlns="http://www.w3.org/2000/svg"><g transform="translate(-224 80)"><rect x="241" y="-40" width="30" height="18" ry="2" fill="#424242"/><rect x="242" y="-40" width="28" height="15" ry="2" fill="#848484"/><rect x="228" y="-72.004" width="56" height="40" ry="3" fill="#6f6f6f"/><rect x="229" y="-71" width="54" height="36" ry="2" fill="#acacac"/><rect x="231" y="-69" width="50" height="28" ry=".5" fill="#424242"/><rect x="250" y="-39" width="12" height="2" ry=".5" fill="#424242"/><rect transform="matrix(0 -1 -1 0 0 0)" x="41" y="-281" width="28" height="50" ry=".5" fill="#cf3b00"/><path d="M246-66v8h3v-8zm17 0v8h3v-8zm-18 15v3h22v-3h-17zm22 3v3h3v-3zm-22 0h-3v3h3z" fill="#fff"/></g></svg>