<svg version="1.0" viewBox="0 0 64 64" xmlns="http://www.w3.org/2000/svg"><g transform="translate(-224 -220)"><rect x="226" y="222" width="60" height="62" ry="30" fill="#73c48f"/><path d="M256 222c-16.62 0-30 13.38-30 30v2c0 16.62 13.38 30 30 30s30-13.38 30-30v-2c0-16.62-13.38-30-30-30zm0 1c16.066 0 29 12.934 29 29s-12.934 29-29 29-29-12.934-29-29 12.934-29 29-29z" fill-opacity=".502"/><path d="M256 240a6 6 0 0 0-6 6 5.968 5.968 0 0 0 3.643 5.518L250 264h12l-3.643-12.482A5.968 5.968 0 0 0 262 246a6 6 0 0 0-6-6z" color="#000" fill-opacity=".196"/><path d="M256 239a6 6 0 0 0-6 6 5.968 5.968 0 0 0 3.643 5.518L250 263h12l-3.643-12.482A5.968 5.968 0 0 0 262 245a6 6 0 0 0-6-6z" color="#000" fill="#fff"/></g></svg>