<svg version="1.0" viewBox="0 0 64 64" xmlns="http://www.w3.org/2000/svg"><g transform="translate(-224 -220)"><rect transform="rotate(-45)" x="-16.725" y="339.66" width="39.108" height="39.108" ry="4" fill="#6a7ce0"/><path d="M256 226a3.987 3.987 0 0 0-2.828 1.176l-21.996 21.996a3.99 3.99 0 0 0 0 5.656l21.996 21.996a3.99 3.99 0 0 0 5.656 0l21.996-21.996a3.99 3.99 0 0 0 0-5.656l-21.996-21.996A3.987 3.987 0 0 0 256 226zm0 1a2.99 2.99 0 0 1 2.121.88l20.498 20.499a2.993 2.993 0 0 1 0 4.242l-20.498 20.498a2.993 2.993 0 0 1-4.242 0l-20.498-20.498a2.993 2.993 0 0 1 0-4.242l20.498-20.498A2.99 2.99 0 0 1 256 227z" fill-opacity=".502"/><path d="M258 263h-4v-4h4zm4.14-13.5-1.8 1.84C258.9 252.8 258 254 258 257h-4v-1c0-2.2.9-4.2 2.34-5.66l2.48-2.52A3.91 3.91 0 0 0 260 245c0-2.2-1.8-4-4-4s-4 1.8-4 4h-4c0-4.42 3.58-8 8-8s8 3.58 8 8c0 1.76-.72 3.36-1.86 4.5z" fill="#fff"/></g></svg>