<svg version="1.0" viewBox="0 0 64 64" xmlns="http://www.w3.org/2000/svg"><g transform="translate(-224 -220)"><rect transform="rotate(-45)" x="-16.725" y="339.66" width="39.108" height="39.108" ry="4" fill="#faa41a"/><path d="M256 226a3.987 3.987 0 0 0-2.828 1.176l-21.996 21.996a3.99 3.99 0 0 0 0 5.656l21.996 21.996a3.99 3.99 0 0 0 5.656 0l21.996-21.996a3.99 3.99 0 0 0 0-5.656l-21.996-21.996A3.987 3.987 0 0 0 256 226zm0 1a2.99 2.99 0 0 1 2.121.88l20.498 20.499a2.993 2.993 0 0 1 0 4.242l-20.498 20.498a2.993 2.993 0 0 1-4.242 0l-20.498-20.498a2.993 2.993 0 0 1 0-4.242l20.498-20.498A2.99 2.99 0 0 1 256 227z" fill-opacity=".502"/><path d="M258 234.99v22h-4v-22zm0 28v4h-4v-4z" fill="#fff"/></g></svg>