<svg version="1.0" viewBox="0 0 64 64" xmlns="http://www.w3.org/2000/svg"><g transform="translate(-224 1280)"><rect x="238" y="-1276" width="36" height="14" ry="2" fill="#dedede"/><path d="M240-1276c-1.108 0-2 .892-2 2v16a1.99 1.99 0 0 0 1 1.725V-1274c0-.554.446-1 1-1h32c.554 0 1 .446 1 1v17.725a1.99 1.99 0 0 0 1-1.725v-16c0-1.108-.892-2-2-2z" fill="#010101" fill-opacity=".5"/><rect x="230" y="-1262" width="52" height="26" ry="4" fill="#474341"/><path d="M234-1262c-2.216 0-4 1.784-4 4v18c0 2.216 1.784 4 4 4h44c2.216 0 4-1.784 4-4v-18c0-2.216-1.784-4-4-4zm0 1h44c1.662 0 3 1.338 3 3v16c0 1.662-1.338 3-3 3h-44c-1.662 0-3-1.338-3-3v-16c0-1.662 1.338-3 3-3z" fill="#fff" fill-opacity=".5"/><rect x="238" y="-1248" width="36" height="28" ry="2" fill="#dedede"/><circle cx="237" cy="-1255" r="2" fill="#73c48f"/><path d="M239-1247.7a1.99 1.99 0 0 0-1 1.725v24c0 1.108.892 2 2 2h32c1.108 0 2-.892 2-2v-24a1.99 1.99 0 0 0-1-1.725v23.725c0 .554-.446 1-1 1h-32c-.554 0-1-.446-1-1z" fill="#010101" fill-opacity=".5"/><rect x="256" y="-1250" width="32" height="34" ry="16" fill="#3f51b5"/><path d="M272-1250c-8.864 0-16 7.136-16 16v2c0 8.864 7.136 16 16 16s16-7.136 16-16v-2c0-8.864-7.136-16-16-16zm0 1c8.31 0 15 6.69 15 15s-6.69 15-15 15-15-6.69-15-15 6.69-15 15-15z" fill-opacity=".5"/><path d="M272-1239a8.939 9 0 0 0-8 5.01 8.939 9 0 0 0 8 4.99 8.939 9 0 0 0 8-5.01 8.939 9 0 0 0-8-4.99zm0 1a4 4 0 0 1 4 4 4 4 0 0 1-4 4 4 4 0 0 1-4-4 4 4 0 0 1 4-4zm0 2a2 2 0 0 0-2 2 2 2 0 0 0 2 2 2 2 0 0 0 2-2 2 2 0 0 0-2-2z" fill="#fff"/></g></svg>