<svg version="1.0" viewBox="0 0 64 64" xmlns="http://www.w3.org/2000/svg"><g transform="translate(-224 1280)"><rect x="228" y="-1266" width="56" height="44" ry="4" fill="#245c63"/><rect x="229" y="-1265" width="54" height="40" ry="3.5" fill="#48b9c7"/><rect x="234" y="-1260" width="44" height="30" ry="2" fill="#f6f6f6"/><path d="M250-1253a2 2 0 0 0-2 2 2 2 0 0 0 .586 1.414l4.586 4.586-4.586 4.586A2 2 0 0 0 248-1239a2 2 0 0 0 2 2 2 2 0 0 0 1.414-.586l4.586-4.586 4.566 4.567A2 2 0 0 0 262-1237a2 2 0 0 0 2-2 2 2 0 0 0-.586-1.414l-4.586-4.586 4.567-4.566A2 2 0 0 0 264-1251a2 2 0 0 0-2-2 2 2 0 0 0-1.414.586l-4.586 4.586-4.566-4.566a2 2 0 0 0-.02-.02A2 2 0 0 0 250-1253z" fill="#f15d22"/></g><style>.st0{fill:#261300}.st1{fill:#ff7c00}</style></svg>