<svg version="1.0" viewBox="0 0 64 64" xmlns="http://www.w3.org/2000/svg"><g transform="translate(-224 980)"><rect x="228" y="-966" width="56" height="44" ry="4" fill="#245c63"/><rect x="229" y="-965" width="54" height="40" ry="3.5" fill="#48b9c7"/><rect x="234" y="-960" width="44" height="30" ry="2" fill="#f6f6f6"/><path d="M256-952a7 7 0 0 0-7 7 7 7 0 0 0 7 7 7 7 0 0 0 7-7 7 7 0 0 0-7-7zm0 2a5 5 0 0 1 5 5 5 5 0 0 1-5 5 5 5 0 0 1-5-5 5 5 0 0 1 5-5z" fill="#1c8d9b"/><path d="M258.41-947.82a.504.504 0 0 0-.25.156l-2.156 2.156-1.656-1.656c-.158-.257-.569-.306-.782-.093-.213.213-.163.624.094.78l2 2a.519.519 0 0 0 .688 0l2.5-2.5c.292-.298-.025-.91-.438-.843z" color="#bebebe" fill="#1c8d9b"/></g><style>.st0{fill:#261300}.st1{fill:#ff7c00}</style></svg>