<svg version="1.0" viewBox="0 0 64 64" xmlns="http://www.w3.org/2000/svg"><g transform="translate(-224 80)"><rect x="238" y="-76" width="36" height="14" ry="2" fill="#dedede"/><path d="M240-76c-1.108 0-2 .892-2 2v16a1.99 1.99 0 0 0 1 1.725V-74c0-.554.446-1 1-1h32c.554 0 1 .446 1 1v17.725A1.99 1.99 0 0 0 274-58v-16c0-1.108-.892-2-2-2z" fill="#010101" fill-opacity=".5"/><rect x="230" y="-62" width="52" height="26" ry="4" fill="#474341"/><path d="M234-62c-2.216 0-4 1.784-4 4v18c0 2.216 1.784 4 4 4h44c2.216 0 4-1.784 4-4v-18c0-2.216-1.784-4-4-4zm0 1h44c1.662 0 3 1.338 3 3v16c0 1.662-1.338 3-3 3h-44c-1.662 0-3-1.338-3-3v-16c0-1.662 1.338-3 3-3z" fill="#fff" fill-opacity=".5"/><rect x="238" y="-48" width="36" height="28" ry="2" fill="#dedede"/><circle cx="237" cy="-55" r="2" fill="#73c48f"/><path d="M239-47.725A1.99 1.99 0 0 0 238-46v24c0 1.108.892 2 2 2h32c1.108 0 2-.892 2-2v-24a1.99 1.99 0 0 0-1-1.725V-24c0 .554-.446 1-1 1h-32c-.554 0-1-.446-1-1z" fill="#010101" fill-opacity=".5"/><rect x="256" y="-50" width="32" height="34" ry="16" fill="#cf3b00"/><path d="M272-50c-8.864 0-16 7.136-16 16v2c0 8.864 7.136 16 16 16s16-7.136 16-16v-2c0-8.864-7.136-16-16-16zm0 1c8.31 0 15 6.69 15 15s-6.69 15-15 15-15-6.69-15-15 6.69-15 15-15z" fill-opacity=".5"/><path d="M266-42a2 2 0 0 0-2 2 2 2 0 0 0 .586 1.414L269.172-34l-4.586 4.586A2 2 0 0 0 264-28a2 2 0 0 0 2 2 2 2 0 0 0 1.414-.586L272-31.172l4.566 4.567A2 2 0 0 0 278-26a2 2 0 0 0 2-2 2 2 0 0 0-.586-1.414L274.828-34l4.567-4.566A2 2 0 0 0 280-40a2 2 0 0 0-2-2 2 2 0 0 0-1.414.586L272-36.828l-4.566-4.567a2 2 0 0 0-.02-.02A2 2 0 0 0 266-42z" fill="#fff"/></g></svg>