<svg version="1.0" viewBox="0 0 64 64" xmlns="http://www.w3.org/2000/svg"><g transform="translate(-224 380)"><rect transform="matrix(0 -1 -1 0 0 0)" x="320" y="-278" width="54" height="44" ry="4" fill="#50443f"/><rect transform="matrix(0 -1 -1 0 0 0)" x="323" y="-277" width="50" height="42" ry="3.5" fill="#a1887f"/><path fill="#fff" d="M238-370h36v44h-36z"/><rect x="251" y="-378" width="10" height="13" ry="5" fill="#666"/><rect x="252" y="-377" width="8" height="12" ry="4" fill="#ccc"/><path fill="#ccc" d="M247-369h18v4h-18z"/><rect x="247" y="-371" width="18" height="4" ry="2" fill="#ccc"/><circle cx="256" cy="-373" r="2" fill="#fff"/><path d="M258-344h-4v-16h4zm0 9h-4v-5h4z" fill="#f15d22"/></g></svg>