<svg version="1.0" viewBox="0 0 256 256" xmlns="http://www.w3.org/2000/svg"><g transform="translate(-464 572)"><rect x="488" y="-548" width="208" height="208" ry="16" fill="#767676"/><rect x="489" y="-547" width="206" height="202" ry="16" fill="#ededed"/><rect x="489" y="-547" width="206.01" height="35" ry="15" fill="#faa41a"/><rect x="489" y="-528" width="206.01" height="24" ry="0" fill="#faa41a"/><g aria-label="19"><path d="m536.08-387.46 15.938-1.062v-64h-16v-8l32-8v80l16.062 1.062-.062 6.938h-48z"/><path d="M616.72-393.62c4.582 0 8.283-1.743 11.103-5.228 2.82-3.525 4.147-8.792 4.147-15.803v-1.292c-1.918 2.467-4.127 4.347-6.79 5.64-2.664 1.253-5.522 1.88-8.577 1.88-7.99 0-14.255-2.605-18.799-7.814-4.543-5.248-5.834-12.473-5.834-21.677 0-8.655 1.722-15.9 7.127-21.736 5.443-5.874 12.317-8.812 20.619-8.812 8.734 0 15.822 3.016 21.266 9.047 5.443 5.992 6.988 14.432 6.988 25.319v18.563c0 11.083-1.858 19.7-7.928 25.848-6.031 6.149-13.805 9.223-23.322 9.223-2.976 0-6.05-.313-9.223-.94-2.687-.504-5.185-1.223-7.527-2.16v-8.044l.771-4.856c2.624.98 5.17 1.725 7.637 2.195 2.467.43 5.248.646 8.342.646zm2.761-27.375c2.859 0 5.346-.529 7.46-1.586 2.155-1.097 3.776-2.546 5.03-4.347v-9.164c0-6.267-1.015-11.025-3.208-14.276-2.193-3.25-5.17-4.876-8.93-4.876-3.446 0-6.266 1.704-8.459 5.111-2.154 3.368-3.404 8.894-3.404 13.672 0 5.17 1.132 7.83 3.051 10.884 1.959 3.055 4.778 4.582 8.46 4.582z"/></g><rect x="592" y="-448" width="128" height="132" ry="64" fill="#cf3b00"/><path d="M656-448c-35.456 0-64 28.544-64 64v4c0 35.456 28.544 64 64 64s64-28.544 64-64v-4c0-35.456-28.544-64-64-64zm0 1c34.902 0 63 28.098 63 63s-28.098 63-63 63-63-28.098-63-63 28.098-63 63-63z" fill-opacity=".5"/><path d="M632-414a8 8 0 0 0-8 8 8 8 0 0 0 2.344 5.656L644.688-382l-18.344 18.344A8 8 0 0 0 624-358a8 8 0 0 0 8 8 8 8 0 0 0 5.656-2.343L656-370.687l18.266 18.266a8 8 0 0 0 5.735 2.421 8 8 0 0 0 8-8 8 8 0 0 0-2.344-5.656L667.313-382l18.266-18.266A8 8 0 0 0 688-406a8 8 0 0 0-8-8 8 8 0 0 0-5.657 2.344L656-393.312l-18.266-18.266a8 8 0 0 0-.08-.08 8 8 0 0 0-5.656-2.342z" fill="#fff"/></g></svg>