<svg version="1.0" viewBox="0 0 256 256" xmlns="http://www.w3.org/2000/svg"><g stroke-linecap="square"><path d="M199 15c31.578 0 57 25.422 57 57v4h-18c0-21.606-17.394-39-39-39s-39 17.394-39 39v44h-18V72c0-31.578 25.422-57 57-57z" fill="#6f6f6f"/><path d="M199 16c30.689 0 55.443 24.443 55.975 55h-16c-.529-21.693-18.15-39-39.975-39-22.16 0-40 17.84-40 40v48h-16V72c0-31.024 24.976-56 56-56z" fill="#dedede"/><g transform="translate(-489 -28)" stroke-width="16"><rect x="504" y="140" width="176" height="128" ry="16" fill="#ffce51"/><path d="M520 140c-8.864 0-16 7.136-16 16v7h176v-7c0-8.864-7.136-16-16-16zm-16 104v8c0 8.864 7.136 16 16 16h144c8.864 0 16-7.136 16-16v-8z" fill-opacity=".118"/><path d="M520 140c-8.864 0-16 7.136-16 16v96c0 8.864 7.136 16 16 16h144c8.864 0 16-7.136 16-16v-96c0-8.864-7.136-16-16-16zm0 1h144c8.31 0 15 6.69 15 15v92c0 8.31-6.69 15-15 15H520c-8.31 0-15-6.69-15-15v-92c0-8.31 6.69-15 15-15z" fill-opacity=".502"/></g></g></svg>