<svg version="1.0" viewBox="0 0 256 256" xmlns="http://www.w3.org/2000/svg"><g stroke-linecap="square" transform="translate(-464 -28)"><path d="M592 43c-31.578 0-57 25.422-57 57v75h18v-71c0-21.606 17.394-39 39-39s39 17.394 39 39v78h18v-82c0-31.578-25.422-57-57-57z" fill="#6f6f6f"/><path d="M592 44c-31.024 0-56 24.976-56 56v112c0 31.024 24.976 56 56 56s56-24.976 56-56V100c0-31.024-24.976-56-56-56zm0 16c22.16 0 40 17.84 40 40v112c0 22.16-17.84 40-40 40s-40-17.84-40-40V100c0-22.16 17.84-40 40-40z" fill="#dedede"/><rect x="504" y="140" width="176" height="128" ry="16" fill="#ffce51"/><path d="M520 140c-8.864 0-16 7.136-16 16v7h176v-7c0-8.864-7.136-16-16-16zm-16 104v8c0 8.864 7.136 16 16 16h144c8.864 0 16-7.136 16-16v-8z" fill-opacity=".118"/><path d="M520 140c-8.864 0-16 7.136-16 16v96c0 8.864 7.136 16 16 16h144c8.864 0 16-7.136 16-16v-96c0-8.864-7.136-16-16-16zm0 1h144c8.31 0 15 6.69 15 15v92c0 8.31-6.69 15-15 15H520c-8.31 0-15-6.69-15-15v-92c0-8.31 6.69-15 15-15z" fill-opacity=".502"/></g></svg>