<svg version="1.0" viewBox="0 0 256 256" xmlns="http://www.w3.org/2000/svg"><g transform="translate(-464 272)"><rect x="540" y="-112" width="120" height="72" ry="8" fill="#424242"/><rect x="541" y="-99.5" width="118" height="54.5" ry="8" fill="#848484"/><rect x="488" y="-240.01" width="224" height="160" ry="12" fill="#6f6f6f"/><rect x="489" y="-239" width="222" height="154" ry="11.5" fill="#acacac"/><rect x="495" y="-233" width="210" height="132" ry="2" fill="#424242"/><rect x="576" y="-98" width="48" height="8" ry="2" fill="#424242"/><rect transform="matrix(0 -1 -1 0 0 0)" x="101" y="-705" width="132" height="210" ry="2" fill="#cf3b00"/><path d="M560-209v32h12v-32zm68 0v32h12v-32zm-72 60v12h88v-12h-68zm88 12v12h12v-12zm-88 0h-12v12h12z" fill="#fff"/></g></svg>