<svg version="1.0" viewBox="0 0 256 256" xmlns="http://www.w3.org/2000/svg"><g transform="translate(-464 -28)"><rect transform="rotate(-45)" x="230.08" y="450.7" width="156.43" height="156.43" ry="16" fill="#6a7ce0"/><path d="M592 52a15.95 15.95 0 0 0-11.314 4.701l-87.984 87.984a15.967 15.967 0 0 0 0 22.63l87.984 87.983a15.967 15.967 0 0 0 22.629 0l87.984-87.984a15.967 15.967 0 0 0 0-22.629l-87.984-87.984A15.951 15.951 0 0 0 592.001 52zm0 1c3.834 0 7.67 1.468 10.607 4.406l85.486 85.486a14.97 14.97 0 0 1 0 21.215l-85.486 85.486a14.97 14.97 0 0 1-21.215 0l-85.486-85.486a14.97 14.97 0 0 1 0-21.215l85.486-85.486A14.953 14.953 0 0 1 591.999 53z" fill-opacity=".502"/><path d="M600 204h-16v-16h16zm16.56-54-7.2 7.36C603.6 163.2 600 168 600 180h-16v-4c0-8.8 3.6-16.8 9.36-22.64l9.92-10.08c2.96-2.88 4.72-6.88 4.72-11.28 0-8.8-7.2-16-16-16s-16 7.2-16 16h-16c0-17.68 14.32-32 32-32s32 14.32 32 32c0 7.04-2.88 13.44-7.44 18z" fill="#fff"/></g></svg>