<svg version="1.0" viewBox="0 0 256 256" xmlns="http://www.w3.org/2000/svg"><g transform="translate(-464 -28)"><rect transform="rotate(-45)" x="230.08" y="450.7" width="156.43" height="156.43" ry="16" fill="#faa41a"/><path d="M592 52a15.95 15.95 0 0 0-11.314 4.701l-87.984 87.984a15.967 15.967 0 0 0 0 22.63l87.984 87.983a15.967 15.967 0 0 0 22.629 0l87.984-87.984a15.967 15.967 0 0 0 0-22.629l-87.984-87.984A15.951 15.951 0 0 0 592.001 52zm0 1c3.834 0 7.67 1.468 10.607 4.406l85.486 85.486a14.97 14.97 0 0 1 0 21.215l-85.486 85.486a14.97 14.97 0 0 1-21.215 0l-85.486-85.486a14.97 14.97 0 0 1 0-21.215l85.486-85.486A14.953 14.953 0 0 1 591.999 53z" fill-opacity=".502"/><path d="M600 89.96v88h-16v-88zm0 112v16h-16v-16z" fill="#fff"/></g></svg>