<svg version="1.0" viewBox="0 0 256 256" xmlns="http://www.w3.org/2000/svg"><g transform="translate(-464 -28)"><rect x="472" y="36" width="240" height="244" ry="120" fill="#73c48f"/><path d="M592 36c-66.48 0-120 53.52-120 120v4c0 66.48 53.52 120 120 120s120-53.52 120-120v-4c0-66.48-53.52-120-120-120zm0 1c65.926 0 119 53.074 119 119s-53.074 119-119 119-119-53.074-119-119S526.074 37 592 37z" fill-opacity=".502"/><path d="M592 107c-13.255 0-24 10.745-24 24 0 9.941 5.957 18.428 14.571 22.071L568 203h48l-14.571-49.929C610.043 149.428 616 140.941 616 131c0-13.255-10.745-24-24-24z" color="#000" fill-opacity=".196"/><path d="M592 106c-13.255 0-24 10.745-24 24 0 9.941 5.957 18.428 14.571 22.071L568 202h48l-14.571-49.929C610.043 148.428 616 139.941 616 130c0-13.255-10.745-24-24-24z" color="#000" fill="#fff"/></g></svg>