<svg version="1.0" viewBox="0 0 256 256" xmlns="http://www.w3.org/2000/svg" xmlns:xlink="http://www.w3.org/1999/xlink"><g fill="#1c8d9b" transform="translate(-464 1472)"><g id="a"><rect x="102" y="259" width="28" height="22" ry="2" fill="#245c63"/><rect x="103" y="260" width="26" height="19" ry="1.5" fill="#48b9c7"/><rect x="105" y="262" width="22" height="15" ry="1" fill="#f6f6f6"/><rect x="56" y="262" width="24" height="20" ry="2" fill="#245c63"/><rect x="57" y="263" width="22" height="18" ry="1.5" fill="#48b9c7"/><rect x="59" y="265" width="18" height="14" ry="1" fill="#f6f6f6"/><rect x="16" y="269" width="16" height="14" ry="4" fill="#245c63"/><rect x="18" y="271" width="12" height="10" ry="2" fill="#fbfefe" stroke="#48b9c7" stroke-linecap="round" stroke-width="2"/><rect x="228" y="234" width="56" height="44" ry="4" fill="#245c63"/><rect x="229" y="235" width="54" height="40" ry="3.5" fill="#48b9c7"/><rect x="234" y="240" width="44" height="30" ry="2" fill="#f6f6f6"/><rect x="320" y="184" width="112" height="88" ry="8" fill="#245c63"/><rect x="321" y="185" width="110" height="83" ry="7.5" fill="#48b9c7"/><rect x="332" y="196" width="88" height="60" ry="4" fill="#f6f6f6"/><rect x="480" y="84" width="224" height="176" ry="16" fill="#245c63"/><rect x="481" y="85" width="222" height="170" ry="15.5" fill="#48b9c7"/><rect x="504" y="108" width="176" height="120" ry="8" fill="#f6f6f6"/><rect x="159" y="247" width="42" height="32" ry="3" fill="#245c63"/><rect x="160" y="248" width="40" height="28" ry="2.5" fill="#48b9c7"/><rect x="163" y="251" width="33" height="22" ry="2" fill="#f6f6f6"/></g><path d="M109 266v8h14v-8zm7 1a3 3 0 0 1 3 3 3 3 0 0 1-3 3 3 3 0 0 1-3-3 3 3 0 0 1 3-3z" fill-opacity=".502"/><path d="m115 263-2 2h-3c-.554 0-1 .446-1 1h14c0-.554-.446-1-1-1h-3l-2-2zm-6 11c0 .554.446 1 1 1h12c.554 0 1-.446 1-1z"/><path d="M61 269v8h14v-8zm7 1a3 3 0 0 1 3 3 3 3 0 0 1-3 3 3 3 0 0 1-3-3 3 3 0 0 1 3-3z" fill-opacity=".502"/><path d="m67 266-2 2h-3c-.554 0-1 .446-1 1h14c0-.554-.446-1-1-1h-3l-2-2zm-6 11c0 .554.446 1 1 1h12c.554 0 1-.446 1-1z"/><path d="M20 274.5v4h8v-4zm4 .5a1.5 1.5 0 1 1 0 3 1.5 1.5 0 0 1 0-3z" fill-opacity=".502"/><path d="m23 273-1 1h-1.5c-.277 0-.5.223-.5.5h8c0-.277-.223-.5-.5-.5H26l-1-1zm-3 5.5c0 .277.223.5.5.5h7c.277 0 .5-.223.5-.5z"/><path d="M169 257.5v12h21v-12zm10.5 1.5a4.5 4.5 0 0 1 4.5 4.5 4.5 4.5 0 0 1-4.5 4.5 4.5 4.5 0 0 1-4.5-4.5 4.5 4.5 0 0 1 4.5-4.5z" fill-opacity=".502"/><path d="m178 253-3 3h-4.5c-.83 0-1.5.67-1.5 1.5v.5h21v-.5c0-.83-.668-1.5-1.5-1.5H184l-3-3zm-9 16v.5c0 .832.67 1.5 1.5 1.5h18c.832 0 1.5-.668 1.5-1.5v-.5z"/><path d="M242 249v16h28v-16zm14 2a6 6 0 0 1 6 6 6 6 0 0 1-6 6 6 6 0 0 1-6-6 6 6 0 0 1 6-6z" fill-opacity=".502"/><path d="m254 243-4 4h-6c-1.108 0-2 .892-2 2h28c0-1.108-.892-2-2-2h-6l-4-4zm-12 22c0 1.108.892 2 2 2h24c1.108 0 2-.892 2-2z"/><path d="M348 214v32h56v-32zm28 4a12 12 0 0 1 12 12 12 12 0 0 1-12 12 12 12 0 0 1-12-12 12 12 0 0 1 12-12z" fill-opacity=".502"/><path d="m372 202-8 8h-12c-2.216 0-4 1.784-4 4h56c0-2.216-1.784-4-4-4h-12l-8-8zm-24 44c0 2.216 1.784 4 4 4h48c2.216 0 4-1.784 4-4z"/><path d="M536 144v64h112v-64zm56 8a24 24 0 0 1 24 24 24 24 0 0 1-24 24 24 24 0 0 1-24-24 24 24 0 0 1 24-24z" fill-opacity=".502"/><path d="m584 120-16 16h-24c-4.432 0-8 3.568-8 8h112c0-4.432-3.568-8-8-8h-24l-16-16zm-48 88c0 4.432 3.568 8 8 8h96c4.432 0 8-3.568 8-8z"/></g><g transform="translate(-464 1472)"><use transform="translate(0 -300)" width="100%" height="100%" xlink:href="#a"/><text x="557.404" y="-97.397" fill="#ff7c00" font-family="sans-serif" font-size="8" letter-spacing="0" word-spacing="0" style="line-height:1.25" xml:space="preserve"><tspan x="557.404" y="-97.397" font-family="'Fira Sans'" font-size="85.333" font-weight="bold">Ai</tspan></text><text x="358.702" y="-56.699" fill="#ff7c00" font-family="sans-serif" font-size="4" letter-spacing="0" stroke-width=".5" word-spacing="0" style="line-height:1.25" xml:space="preserve"><tspan x="358.702" y="-56.699" font-family="'Fira Sans'" font-size="42.667" font-weight="bold">Ai</tspan></text><text x="247.351" y="-36.349" fill="#ff7c00" font-family="sans-serif" font-size="2" letter-spacing="0" stroke-width=".25" word-spacing="0" style="line-height:1.25" xml:space="preserve"><tspan x="247.351" y="-36.349" font-family="'Fira Sans'" font-size="21.333" font-weight="bold">Ai</tspan></text><text x="111.676" y="-26.175" fill="#ff7c00" font-family="sans-serif" font-size="1" letter-spacing="0" stroke-width=".125" word-spacing="0" style="line-height:1.25" xml:space="preserve"><tspan x="111.676" y="-26.175" font-family="'Fira Sans'" font-size="10.667" font-weight="bold">Ai</tspan></text><g fill="#ff7c00" stroke-width=".125" aria-label="Ai"><path d="M68.262-23.675h1.856L68-31h-2l-2.463 7.325h1.813l.373-1.59h2.155zm-2.24-2.859.779-3.264.778 3.264z"/><path d="M71.46-32.325c-.587 0-.992.416-.992.96s.405.96.992.96 1.003-.416 1.003-.96-.416-.96-1.003-.96zm.853 2.987h-1.685v5.664h1.685z"/></g><rect x="27" y="-25" width="1" height="5" ry="0" fill="#ff7c00"/><rect x="27" y="-27" width="1" height="1" ry=".5" fill="#ff7c00"/><path d="m22-27-2 7h1.5l.5-1h2l.5 1H26l-2-7zm1 2 1 3h-2z" fill="#ff7c00"/><text x="170.851" y="-29.349" fill="#ff7c00" font-family="sans-serif" font-size="2" letter-spacing="0" stroke-width=".25" word-spacing="0" style="line-height:1.25" xml:space="preserve"><tspan x="170.851" y="-29.349" font-family="'Fira Sans'" font-size="21.333" font-weight="bold">Ai</tspan></text></g><g transform="translate(-464 1472)"><use transform="translate(0 -600)" width="100%" height="100%" xlink:href="#a"/><text x="61.772" y="-325.244" fill="#9b9291" fill-opacity=".749" font-family="'Fira Sans'" font-size="8" letter-spacing="0" word-spacing="0" style="line-height:1.25" xml:space="preserve"><tspan x="61.772" y="-325.244" font-weight="bold">XCF</tspan></text><text x="523.276" y="-402.432" fill="#393634" fill-opacity=".502" font-family="'Fira Sans'" font-size="85.333" letter-spacing="0" word-spacing="0" style="line-height:1.25" xml:space="preserve"><tspan x="523.276" y="-402.432" font-weight="bold">XCF</tspan></text><text x="341.638" y="-359.216" fill="#393634" fill-opacity=".502" font-family="'Fira Sans'" font-size="42.667" letter-spacing="0" stroke-width=".5" word-spacing="0" style="line-height:1.25" xml:space="preserve"><tspan x="341.638" y="-359.216" font-weight="bold">XCF</tspan></text><text x="238.819" y="-337.608" fill="#393634" fill-opacity=".502" font-family="'Fira Sans'" font-size="21.333" letter-spacing="0" stroke-width=".25" word-spacing="0" style="line-height:1.25" xml:space="preserve"><tspan x="238.819" y="-337.608" font-weight="bold">XCF</tspan></text><text x="107.41" y="-326.804" fill="#393634" fill-opacity=".502" font-family="'Fira Sans'" font-size="10.667" letter-spacing="0" stroke-width=".125" word-spacing="0" style="line-height:1.25" xml:space="preserve"><tspan x="107.41" y="-326.804" font-weight="bold">XCF</tspan></text><text x="166.614" y="-332.456" fill="#393634" fill-opacity=".502" font-family="'Fira Sans'" font-size="16" letter-spacing="0" stroke-width=".188" word-spacing="0" style="line-height:1.25" xml:space="preserve"><tspan x="166.614" y="-332.456" font-weight="bold">XCF</tspan></text><path d="m19-327 1 3-1 3h1l.5-1.5.5 1.5h1l-1-3 1-3h-1l-.5 1.5-.5-1.5z" fill="#9b9291" fill-opacity=".751"/><path d="M23.5-327c-.831 0-1.5.669-1.5 1.5v3c0 .831.669 1.5 1.5 1.5s1.5-.669 1.5-1.5v-.5h-1v.5a.499.499 0 1 1-1 0v-3a.499.499 0 1 1 1 0v.5h1v-.5c0-.831-.669-1.5-1.5-1.5z" fill="#9b9291" fill-opacity=".751"/><path d="M26-327v6h1v-2h1v-1h-1v-2h2v-1h-2z" fill="#9b9291" fill-opacity=".751"/></g><g transform="translate(-464 1472)"><use transform="translate(0 -900)" width="100%" height="100%" xlink:href="#a"/><rect x="105" y="-638" width="22" height="15" ry="1" fill="#001d26"/><rect x="59" y="-635" width="18" height="14" ry="1" fill="#001d26"/><rect x="234" y="-660" width="44" height="30" ry="2" fill="#001d26"/><rect x="332" y="-704" width="88" height="60" ry="4" fill="#001d26"/><rect x="504" y="-792" width="176" height="120" ry="8" fill="#001d26"/><rect x="163" y="-649" width="33" height="22" ry="2" fill="#001d26"/><text x="545.013" y="-703.157" fill="#00c8ff" font-family="sans-serif" font-size="8" letter-spacing="0" word-spacing="0" style="line-height:1.25" xml:space="preserve"><tspan x="545.013" y="-703.157" font-family="'Fira Sans'" font-size="85.333" font-weight="bold">Ps</tspan></text><text x="352.506" y="-659.579" fill="#00c8ff" font-family="sans-serif" font-size="4" letter-spacing="0" stroke-width=".5" word-spacing="0" style="line-height:1.25" xml:space="preserve"><tspan x="352.506" y="-659.579" font-family="'Fira Sans'" font-size="42.667" font-weight="bold">Ps</tspan></text><text x="244.253" y="-637.789" fill="#00c8ff" font-family="sans-serif" font-size="2" letter-spacing="0" stroke-width=".25" word-spacing="0" style="line-height:1.25" xml:space="preserve"><tspan x="244.253" y="-637.789" font-family="'Fira Sans'" font-size="21.333" font-weight="bold">Ps</tspan></text><text x="110.127" y="-626.895" fill="#00c8ff" font-family="sans-serif" font-size="1" letter-spacing="0" stroke-width=".125" word-spacing="0" style="line-height:1.25" xml:space="preserve"><tspan x="110.127" y="-626.895" font-family="'Fira Sans'" font-size="10.667" font-weight="bold">Ps</tspan></text><text x="170.69" y="-632.592" fill="#00c8ff" font-family="sans-serif" font-size="1.5" letter-spacing="0" stroke-width=".188" word-spacing="0" style="line-height:1.25" xml:space="preserve"><tspan x="170.69" y="-632.592" font-family="'Fira Sans'" font-size="16" font-weight="bold">Ps</tspan></text><text x="62.127" y="-624.395" fill="#00c8ff" font-family="sans-serif" font-size="1" letter-spacing="0" stroke-width=".125" word-spacing="0" style="line-height:1.25" xml:space="preserve"><tspan x="62.127" y="-624.395" font-family="'Fira Sans'" font-size="10.667" font-weight="bold">Ps</tspan></text><rect x="19" y="-628" width="10" height="8" ry="1" fill="#001d26"/><path d="M20-627v1.957a2 2 0 0 0 0 .043v4h1v-2h1a2 2 0 0 0 2-2 2 2 0 0 0-2-2h-1.5zm1 1h1a1 1 0 0 1 1 1 1 1 0 0 1-1 1h-1v-1z" fill="#00c8ff"/><path d="M26.5-626a1.5 1.5 0 0 0-1.5 1.5 1.5 1.5 0 0 0 1.5 1.5.5.5 0 0 1 .5.5.5.5 0 0 1-.5.5H25v1h1.5a1.5 1.5 0 0 0 1.5-1.5 1.5 1.5 0 0 0-1.5-1.5.5.5 0 0 1-.5-.5.5.5 0 0 1 .5-.5H28v-1z" fill="#00c8ff"/></g><g fill="#1c8d9b" transform="translate(-464 1472)"><use id="b" transform="translate(0 -1200)" width="100%" height="100%" xlink:href="#a"/><path d="M115.998-934a3.5 3.5 0 0 0-3.5 3.5 3.5 3.5 0 0 0 3.5 3.5 3.5 3.5 0 0 0 3.5-3.5 3.5 3.5 0 0 0-3.5-3.5zm0 1a2.5 2.5 0 0 1 2.5 2.5 2.5 2.5 0 0 1-2.5 2.5 2.5 2.5 0 0 1-2.5-2.5 2.5 2.5 0 0 1 2.5-2.5z"/><path d="M117.203-931.91a.252.252 0 0 0-.125.078L116-930.754l-.828-.828c-.079-.128-.284-.153-.39-.047-.107.107-.082.312.046.39l1 1a.26.26 0 0 0 .344 0l1.25-1.25c.146-.148-.013-.455-.219-.421z" color="#bebebe"/><path d="M179.495-944.995a7 7 0 0 0-7 7 7 7 0 0 0 7 7 7 7 0 0 0 7-7 7 7 0 0 0-7-7zm0 2a5 5 0 0 1 5 5 5 5 0 0 1-5 5 5 5 0 0 1-5-5 5 5 0 0 1 5-5z"/><path d="M181.905-940.815a.504.504 0 0 0-.25.156l-2.156 2.156-1.656-1.656c-.158-.257-.569-.307-.782-.094-.213.213-.163.625.094.782l2 2a.519.519 0 0 0 .688 0l2.5-2.5c.292-.299-.025-.911-.438-.844z" color="#bebebe"/><path d="M256-951.995a7 7 0 0 0-7 7 7 7 0 0 0 7 7 7 7 0 0 0 7-7 7 7 0 0 0-7-7zm0 2a5 5 0 0 1 5 5 5 5 0 0 1-5 5 5 5 0 0 1-5-5 5 5 0 0 1 5-5z"/><path d="M258.41-947.815a.504.504 0 0 0-.25.156l-2.156 2.156-1.656-1.656c-.158-.257-.569-.306-.782-.093-.213.213-.163.624.094.78l2 2a.519.519 0 0 0 .688 0l2.5-2.5c.292-.298-.025-.91-.438-.843z" color="#bebebe"/><path d="M375.99-987.99a14 14 0 0 0-14 14 14 14 0 0 0 14 14 14 14 0 0 0 14-14 14 14 0 0 0-14-14zm0 4a10 10 0 0 1 10 10 10 10 0 0 1-10 10 10 10 0 0 1-10-10 10 10 0 0 1 10-10z"/><path d="M380.81-979.63c-.193.051-.37.162-.5.312l-4.312 4.313-3.313-3.313c-.314-.513-1.136-.613-1.562-.187-.426.426-.327 1.248.187 1.563l4 4c.367.347 1.008.347 1.375 0l5-5c.586-.597-.05-1.823-.875-1.688z" color="#bebebe"/><path d="M591.98-1059.98a28 28 0 0 0-28 28 28 28 0 0 0 28 28 28 28 0 0 0 28-28 28 28 0 0 0-28-28zm0 8a20 20 0 0 1 20 20 20 20 0 0 1-20 20 20 20 0 0 1-20-20 20 20 0 0 1 20-20z"/><path d="M601.62-1043.26a2.015 2.015 0 0 0-1 .625l-8.625 8.625-6.625-6.625c-.628-1.028-2.273-1.227-3.125-.375-.852.852-.653 2.496.375 3.125l8 8c.734.695 2.016.695 2.75 0l10-10c1.172-1.194-.099-3.644-1.75-3.375z" color="#bebebe"/><path d="M67.998-931a3.5 3.5 0 0 0-3.5 3.5 3.5 3.5 0 0 0 3.5 3.5 3.5 3.5 0 0 0 3.5-3.5 3.5 3.5 0 0 0-3.5-3.5zm0 1a2.5 2.5 0 0 1 2.5 2.5 2.5 2.5 0 0 1-2.5 2.5 2.5 2.5 0 0 1-2.5-2.5 2.5 2.5 0 0 1 2.5-2.5z"/><path d="M69.203-928.91a.252.252 0 0 0-.126.078L68-927.754l-.828-.828c-.078-.128-.284-.153-.39-.047-.107.107-.082.312.047.39l1 1a.26.26 0 0 0 .343 0l1.25-1.25c.147-.148-.012-.455-.218-.421z" color="#bebebe"/><path d="M23.998-927a3.5 3.5 0 0 0-3.5 3.5 3.5 3.5 0 0 0 3.5 3.5 3.5 3.5 0 0 0 3.5-3.5 3.5 3.5 0 0 0-3.5-3.5zm0 1a2.5 2.5 0 0 1 2.5 2.5 2.5 2.5 0 0 1-2.5 2.5 2.5 2.5 0 0 1-2.5-2.5 2.5 2.5 0 0 1 2.5-2.5z"/><path d="M25.203-924.91a.252.252 0 0 0-.125.078L24-923.754l-.828-.828c-.079-.128-.284-.153-.39-.047-.107.107-.082.312.046.39l1 1a.26.26 0 0 0 .344 0l1.25-1.25c.146-.148-.013-.455-.219-.421z" color="#bebebe"/></g><g transform="translate(-464 1472)"><use transform="translate(0 -300)" width="100%" height="100%" xlink:href="#b"/><path d="M113-1234.5a1 1 0 0 0-1 1 1 1 0 0 0 .293.707l2.293 2.293-2.293 2.293a1 1 0 0 0-.293.707 1 1 0 0 0 1 1 1 1 0 0 0 .707-.293l2.293-2.293 2.283 2.283a1 1 0 0 0 .717.303 1 1 0 0 0 1-1 1 1 0 0 0-.293-.707l-2.293-2.293 2.283-2.283a1 1 0 0 0 .303-.717 1 1 0 0 0-1-1 1 1 0 0 0-.707.293l-2.293 2.293-2.283-2.283a1 1 0 0 0-.01-.01 1 1 0 0 0-.707-.293z" fill="#f15d22"/><path d="M65-1232a1 1 0 0 0-1 1 1 1 0 0 0 .293.707l2.293 2.293-2.293 2.293A1 1 0 0 0 64-1225a1 1 0 0 0 1 1 1 1 0 0 0 .707-.293l2.293-2.293 2.283 2.283A1 1 0 0 0 71-1224a1 1 0 0 0 1-1 1 1 0 0 0-.293-.707L69.414-1228l2.283-2.283A1 1 0 0 0 72-1231a1 1 0 0 0-1-1 1 1 0 0 0-.707.293L68-1229.414l-2.283-2.283a1 1 0 0 0-.01-.01A1 1 0 0 0 65-1232z" fill="#f15d22"/><path d="M21-1228a1 1 0 0 0-1 1 1 1 0 0 0 .293.707l2.293 2.293-2.293 2.293A1 1 0 0 0 20-1221a1 1 0 0 0 1 1 1 1 0 0 0 .707-.293l2.293-2.293 2.283 2.283A1 1 0 0 0 27-1220a1 1 0 0 0 1-1 1 1 0 0 0-.293-.707L25.414-1224l2.283-2.283A1 1 0 0 0 28-1227a1 1 0 0 0-1-1 1 1 0 0 0-.707.293L24-1225.414l-2.283-2.283a1 1 0 0 0-.01-.01A1 1 0 0 0 21-1228z" fill="#f15d22"/><path d="M175-1244a1.5 1.5 0 0 0-1.5 1.5 1.5 1.5 0 0 0 .44 1.06l3.439 3.44-3.44 3.44a1.5 1.5 0 0 0-.439 1.06 1.5 1.5 0 0 0 1.5 1.5 1.5 1.5 0 0 0 1.06-.44l3.44-3.439 3.425 3.425A1.5 1.5 0 0 0 184-1232a1.5 1.5 0 0 0 1.5-1.5 1.5 1.5 0 0 0-.44-1.06l-3.439-3.44 3.425-3.425a1.5 1.5 0 0 0 .454-1.075 1.5 1.5 0 0 0-1.5-1.5 1.5 1.5 0 0 0-1.06.44l-3.44 3.439-3.425-3.425a1.5 1.5 0 0 0-.015-.015A1.5 1.5 0 0 0 175-1244z" fill="#f15d22"/><path d="M250-1253a2 2 0 0 0-2 2 2 2 0 0 0 .586 1.414l4.586 4.586-4.586 4.586A2 2 0 0 0 248-1239a2 2 0 0 0 2 2 2 2 0 0 0 1.414-.586l4.586-4.586 4.566 4.567A2 2 0 0 0 262-1237a2 2 0 0 0 2-2 2 2 0 0 0-.586-1.414l-4.586-4.586 4.567-4.566A2 2 0 0 0 264-1251a2 2 0 0 0-2-2 2 2 0 0 0-1.414.586l-4.586 4.586-4.566-4.566a2 2 0 0 0-.02-.02A2 2 0 0 0 250-1253z" fill="#f15d22"/><path d="M364-1290a4 4 0 0 0-4 4 4 4 0 0 0 1.172 2.828l9.172 9.172-9.172 9.172A4 4 0 0 0 360-1262a4 4 0 0 0 4 4 4 4 0 0 0 2.828-1.172l9.172-9.172 9.133 9.133A4 4 0 0 0 388-1258a4 4 0 0 0 4-4 4 4 0 0 0-1.172-2.828l-9.172-9.172 9.133-9.133a4 4 0 0 0 1.21-2.867 4 4 0 0 0-4-4 4 4 0 0 0-2.827 1.172l-9.172 9.172-9.133-9.133a4 4 0 0 0-.04-.04A4 4 0 0 0 364-1290z" fill="#f15d22"/><path d="M568-1364a8 8 0 0 0-8 8 8 8 0 0 0 2.344 5.657L580.688-1332l-18.344 18.344A8 8 0 0 0 560-1308a8 8 0 0 0 8 8 8 8 0 0 0 5.656-2.343L592-1320.687l18.266 18.266a8 8 0 0 0 5.735 2.421 8 8 0 0 0 8-8 8 8 0 0 0-2.344-5.656L603.313-1332l18.266-18.266A8 8 0 0 0 624-1356a8 8 0 0 0-8-8 8 8 0 0 0-5.657 2.344L592-1343.312l-18.266-18.266a8 8 0 0 0-.08-.08 8 8 0 0 0-5.656-2.343z" fill="#f15d22"/></g><style>.st0{fill:#261300}.st1{fill:#ff7c00}</style></svg>