<svg version="1.0" viewBox="0 0 256 256" xmlns="http://www.w3.org/2000/svg"><g transform="translate(-464 1472)"><rect x="480" y="-1416" width="224" height="176" ry="16" fill="#245c63"/><rect x="481" y="-1415" width="222" height="170" ry="15.5" fill="#48b9c7"/><rect x="504" y="-1392" width="176" height="120" ry="8" fill="#f6f6f6"/><path d="M568-1364a8 8 0 0 0-8 8 8 8 0 0 0 2.344 5.657L580.688-1332l-18.344 18.344A8 8 0 0 0 560-1308a8 8 0 0 0 8 8 8 8 0 0 0 5.656-2.343L592-1320.687l18.266 18.266a8 8 0 0 0 5.735 2.421 8 8 0 0 0 8-8 8 8 0 0 0-2.344-5.656L603.313-1332l18.266-18.266A8 8 0 0 0 624-1356a8 8 0 0 0-8-8 8 8 0 0 0-5.657 2.344L592-1343.312l-18.266-18.266a8 8 0 0 0-.08-.08 8 8 0 0 0-5.656-2.343z" fill="#f15d22"/></g><style>.st0{fill:#261300}.st1{fill:#ff7c00}</style></svg>