<svg version="1.0" viewBox="0 0 256 256" xmlns="http://www.w3.org/2000/svg"><g transform="translate(-464 1172)"><rect x="480" y="-1116" width="224" height="176" ry="16" fill="#245c63"/><rect x="481" y="-1115" width="222" height="170" ry="15.5" fill="#48b9c7"/><rect x="504" y="-1092" width="176" height="120" ry="8" fill="#f6f6f6"/><path d="M592-1060a28 28 0 0 0-28 28 28 28 0 0 0 28 28 28 28 0 0 0 28-28 28 28 0 0 0-28-28zm0 8a20 20 0 0 1 20 20 20 20 0 0 1-20 20 20 20 0 0 1-20-20 20 20 0 0 1 20-20z" fill="#1c8d9b"/><path d="M601.63-1043.3a2.015 2.015 0 0 0-1 .625l-8.625 8.625-6.625-6.625c-.629-1.028-2.273-1.227-3.125-.375s-.653 2.496.375 3.125l8 8c.734.695 2.016.695 2.75 0l10-10c1.171-1.194-.1-3.644-1.75-3.375z" color="#bebebe" fill="#1c8d9b"/></g><style>.st0{fill:#261300}.st1{fill:#ff7c00}</style></svg>