<svg version="1.0" viewBox="0 0 256 256" xmlns="http://www.w3.org/2000/svg"><path d="M32 48c-8.864 0-16 7.136-16 16v144c0 8.864 7.136 16 16 16h32l16 16h96l16-16h32c8.864 0 16-7.136 16-16V64c0-8.864-7.136-16-16-16z" fill="#dedede"/><path d="M36 68v128h32l16 16h88l16-16h32V68z" fill="#4d4d4d"/><g fill="#d1a023"><path d="M132 68h12v40h-12z"/><path d="M112 68h12v40h-12z"/><path d="M152 68h12v40h-12z"/><path d="M172 68h12v40h-12z"/><path d="M92 68h12v40H92z"/><path d="M72 68h12v40H72z"/><path d="M192 68h12v40h-12z"/><path d="M52 68h12v40H52z"/></g><path d="M32 48c-8.864 0-16 7.136-16 16v144c0 8.864 7.136 16 16 16h32l16 16h96l16-16h32c8.864 0 16-7.136 16-16V64c0-8.864-7.136-16-16-16zm0 1h192c8.31 0 15 6.69 15 15v140c0 8.31-6.69 15-15 15h-32l-16 16H80l-16-16H32c-8.31 0-15-6.69-15-15V64c0-8.31 6.69-15 15-15z" fill-opacity=".5"/><g transform="matrix(2 0 0 2 -400 -312)"><rect x="268" y="222" width="60" height="62" ry="30" fill="#cf3b00"/><path d="M298 222c-16.62 0-30 13.38-30 30v2c0 16.62 13.38 30 30 30s30-13.38 30-30v-2c0-16.62-13.38-30-30-30zm0 1a29 29 0 0 1 29 29 29 29 0 0 1-29 29 29 29 0 0 1-29-29 29 29 0 0 1 29-29z" fill-opacity=".502"/><path d="M289 241a3 3 0 0 0-3 3 3 3 0 0 0 .879 2.121l6.879 6.879-6.88 6.879A3 3 0 0 0 286 262a3 3 0 0 0 3 3 3 3 0 0 0 2.121-.879l6.879-6.879 6.85 6.85A3 3 0 0 0 307 265a3 3 0 0 0 3-3 3 3 0 0 0-.879-2.121L302.242 253l6.85-6.85A3 3 0 0 0 310 244a3 3 0 0 0-3-3 3 3 0 0 0-2.121.879L298 248.758l-6.85-6.85a3 3 0 0 0-.03-.03A3 3 0 0 0 289 241z" fill="#fff"/></g></svg>