<svg version="1.0" viewBox="0 0 256 256" xmlns="http://www.w3.org/2000/svg"><g transform="translate(-464 872)"><rect x="520" y="-856" width="144" height="56" ry="8" fill="#dedede"/><path d="M528-856c-4.432 0-8 3.568-8 8v66a7.98 7.98 0 0 0 1 3.88V-848c0-3.878 3.122-7 7-7h128c3.878 0 7 3.122 7 7v69.88c.636-1.147 1-2.47 1-3.88v-66c0-4.432-3.568-8-8-8z" fill-opacity=".5"/><rect x="488" y="-800" width="208" height="104" ry="16" fill="#474341"/><path d="M504-800c-8.864 0-16 7.136-16 16v72c0 8.864 7.136 16 16 16h176c8.864 0 16-7.136 16-16v-72c0-8.864-7.136-16-16-16zm0 1h176c8.31 0 15 6.69 15 15v68c0 8.31-6.69 15-15 15H504c-8.31 0-15-6.69-15-15v-68c0-8.31 6.69-15 15-15z" fill="#fff" fill-opacity=".5"/><rect x="520" y="-744" width="144" height="112" ry="8" fill="#dedede"/><circle cx="516" cy="-772" r="8" fill="#73c48f"/><path d="M521-739.88a7.987 7.987 0 0 0-1 3.88v96c0 4.433 3.568 8 8 8h128c4.432 0 8-3.567 8-8v-96a7.98 7.98 0 0 0-1-3.88v95.881c0 3.878-3.122 7-7 7H528c-3.878 0-7-3.122-7-7z" fill-opacity=".5"/><rect x="592" y="-748" width="128" height="132" ry="64" fill="#48b9c7"/><path d="M656-748c-35.456 0-64 28.544-64 64v4c0 35.456 28.544 64 64 64s64-28.544 64-64v-4c0-35.456-28.544-64-64-64zm0 1c34.902 0 63 28.098 63 63s-28.098 63-63 63-63-28.098-63-63 28.098-63 63-63z" fill-opacity=".5"/><path d="M662-654v-36h-12v36zm0-48v-12h-12v12z" fill="#fff"/></g></svg>