<svg version="1.0" viewBox="0 0 256 256" xmlns="http://www.w3.org/2000/svg"><g transform="translate(-464 572)"><rect transform="matrix(0 -1 -1 0 0 0)" x="332" y="-680" width="216" height="176" ry="8" fill="#50443f"/><rect transform="matrix(0 -1 -1 0 0 0)" x="337" y="-679" width="210" height="174" ry="7.5" fill="#a1887f"/><path fill="#fff" d="M520-532h144v176H520z"/><rect x="572" y="-564" width="40" height="46" ry="20" fill="#666"/><rect x="576" y="-560" width="32" height="41.5" ry="16" fill="#ccc"/><path fill="#ccc" d="M556-528h72v10h-72z"/><rect x="556" y="-536" width="72" height="16" ry="8" fill="#ccc"/><circle cx="592" cy="-544" r="8" fill="#fff"/><path d="M599-428h-14v-64h14zm0 32h-14v-14h14z" fill="#f15d22"/></g></svg>