<svg version="1.0" viewBox="0 0 256 256" xmlns="http://www.w3.org/2000/svg" xmlns:xlink="http://www.w3.org/1999/xlink"><g transform="translate(-464 572)"><g id="a"><rect x="17" y="269" width="14" height="15" ry="2" fill="#50443f"/><rect transform="matrix(0 -1 -1 0 0 0)" x="-283" y="-30" width="13" height="12" rx="1" ry="1" fill="#a1887f"/><rect x="58" y="262" width="20" height="22" ry="2.5" fill="#50443f"/><rect transform="matrix(0 -1 -1 0 0 0)" x="-283" y="-77" width="20" height="18" rx="1.5" ry="1.5" fill="#a1887f"/><rect transform="matrix(0 -1 -1 0 0 0)" x="-282" y="-127" width="27" height="22" ry="2" fill="#50443f"/><rect transform="matrix(0 -1 -1 0 0 0)" x="-280" y="-126" width="24" height="20" ry="1.5" fill="#a1887f"/><rect transform="matrix(0 -1 -1 0 0 0)" x="-281" y="-196" width="40" height="32" ry="3" fill="#50443f"/><rect transform="matrix(0 -1 -1 0 0 0)" x="-278" y="-195" width="36" height="30" ry="2.5" fill="#a1887f"/><rect transform="matrix(0 -1 -1 0 0 0)" x="-280" y="-278" width="54" height="44" ry="4" fill="#50443f"/><rect transform="matrix(0 -1 -1 0 0 0)" x="-277" y="-277" width="50" height="42" ry="3.5" fill="#a1887f"/><rect transform="matrix(0 -1 -1 0 0 0)" x="-276" y="-420" width="108" height="88" ry="8" fill="#50443f"/><rect transform="matrix(0 -1 -1 0 0 0)" x="-272" y="-419" width="103" height="86" ry="7.5" fill="#a1887f"/><rect transform="matrix(0 -1 -1 0 0 0)" x="-268" y="-680" width="216" height="176" ry="8" fill="#50443f"/><rect transform="matrix(0 -1 -1 0 0 0)" x="-263" y="-679" width="210" height="174" ry="7.5" fill="#a1887f"/></g><g id="b" fill="#fff"><path d="M19 272h10v10H19z"/><path d="M61 265h14v16H61z"/><path d="M108 258h16v20h-16z"/><path d="M167 244h26v32h-26z"/><path d="M238 230h36v44h-36z"/><path d="M340 176h72v89h-72z"/><path d="M520 68h144v176H520z"/></g><g id="c"><rect x="21" y="268" width="6" height="6" ry="3" fill="#666"/><rect x="21" y="271" width="6" height="1" ry="0" fill="#666"/><path d="M24 269c-1.108 0-2 .892-2 2v1h-1c-.554 0-.984.446-1 1v1h8v-1c0-.554-.446-1-1-1h-1v-1c0-1.108-.892-2-2-2z" fill="#ccc"/><circle cx="24" cy="271" r="1" fill="#fff"/><rect x="65" y="260" width="6" height="6" ry="2.967" fill="#666"/><rect x="65" y="263" width="6" height="3" ry="0" fill="#666"/><path d="M68 261s-2 0-2 2v1h-1c-.554 0-1.065.45-1 1v1h8v-1c0-.554-.446-1-1-1h-1v-1c0-2-2-2-2-2z" fill="#ccc"/><circle cx="68" cy="263" r="1" fill="#fff"/><rect x="112" y="252" width="8" height="8" ry="3.939" fill="#666"/><rect x="112" y="256" width="8" height="4" ry="0" fill="#666"/><path fill="#ccc" d="M110 258h12v2h-12z"/><rect x="110" y="257" width="12" height="2" ry=".956" fill="#ccc"/><circle cx="116" cy="256" r="3" fill="#ccc"/><path fill="#ccc" d="M113 256h6v2.5h-6z"/><circle cx="116" cy="255.5" r="1.5" fill="#fff"/><rect x="176" y="237" width="8" height="9" ry="4" fill="#666"/><rect x="176" y="242" width="8" height="4" ry="0" fill="#666"/><path fill="#ccc" d="M173 244h14v2h-14z"/><rect x="173" y="243" width="14" height="2" ry="1" fill="#ccc"/><circle cx="180" cy="241" r="3" fill="#ccc"/><path fill="#ccc" d="M177 241h6v2.5h-6z"/><circle cx="180" cy="240.5" r="1.5" fill="#fff"/><rect x="251" y="222" width="10" height="13" ry="5" fill="#666"/><rect x="252" y="223" width="8" height="12" ry="4" fill="#ccc"/><path fill="#ccc" d="M247 231h18v4h-18z"/><rect x="247" y="229" width="18" height="4" ry="2" fill="#ccc"/><circle cx="256" cy="227" r="2" fill="#fff"/><rect x="366" y="160" width="20" height="25" ry="10" fill="#666"/><rect x="368" y="162" width="16" height="22.495" ry="8" fill="#ccc"/><path fill="#ccc" d="M358 178h36v7h-36z"/><rect x="358" y="174" width="36" height="8" ry="4" fill="#ccc"/><circle cx="376" cy="170" r="4" fill="#fff"/><rect x="572" y="36" width="40" height="46" ry="20" fill="#666"/><rect x="576" y="40" width="32" height="41.5" ry="16" fill="#ccc"/><path fill="#ccc" d="M556 72h72v10h-72z"/><rect x="556" y="64" width="72" height="16" ry="8" fill="#ccc"/><circle cx="592" cy="56" r="8" fill="#fff"/></g></g><g transform="translate(-464 572)"><use transform="translate(0 -300)" width="100%" height="100%" xlink:href="#a"/><use transform="translate(0 -300)" width="100%" height="100%" xlink:href="#b"/><use transform="translate(0 -300)" width="100%" height="100%" xlink:href="#c"/><rect x="20" y="-25" width="8" height="1" ry=".5" fill="#474341" fill-opacity=".69"/><rect x="20" y="-23" width="8" height="1" ry=".5" fill="#474341" fill-opacity=".69"/><rect x="20" y="-21" width="5" height="1" ry=".456" fill="#474341" fill-opacity=".69"/><rect x="63" y="-23" width="7" height="1" ry=".456" fill="#474341" fill-opacity=".69"/><rect x="63" y="-26" width="10" height="1" ry=".456" fill="#474341" fill-opacity=".69"/><rect x="63" y="-29" width="10" height="1" ry=".456" fill="#474341" fill-opacity=".69"/><rect x="63" y="-32" width="10" height="1" ry=".456" fill="#474341" fill-opacity=".69"/><rect x="110" y="-27" width="8" height="1" ry=".456" fill="#474341" fill-opacity=".69"/><rect x="110" y="-30" width="12.1" height="1" ry=".456" fill="#474341" fill-opacity=".69"/><rect x="110" y="-33" width="12.1" height="1" ry=".456" fill="#474341" fill-opacity=".69"/><rect x="110" y="-36" width="12.1" height="1" ry=".456" fill="#474341" fill-opacity=".69"/><g transform="matrix(2 0 0 2 -244 629)" fill="#474341" fill-opacity=".69"><rect x="243" y="-334.5" width="9" height="1" ry=".456"/><rect x="243" y="-337.5" width="14" height="1" ry=".456"/><rect x="243" y="-340.5" width="14" height="1" ry=".456"/><rect x="243" y="-343.5" width="14" height="1" ry=".456"/></g><g transform="matrix(4 0 0 4 -624 1280)" fill="#474341" fill-opacity=".69"><rect x="243" y="-334.5" width="9" height="1" ry=".456"/><rect x="243" y="-337.5" width="14" height="1" ry=".456"/><rect x="243" y="-340.5" width="14" height="1" ry=".456"/><rect x="243" y="-343.5" width="14" height="1" ry=".456"/></g><g transform="matrix(8 0 0 8 -1408 2576)" fill="#474341" fill-opacity=".69"><rect x="243" y="-334.5" width="9" height="1" ry=".456"/><rect x="243" y="-337.5" width="14" height="1" ry=".456"/><rect x="243" y="-340.5" width="14" height="1" ry=".456"/><rect x="243" y="-343.5" width="14" height="1" ry=".456"/></g><rect x="170" y="-30" width="12" height="2" ry=".912" fill="#474341" fill-opacity=".69"/><rect x="170" y="-36" width="20" height="2" ry=".845" fill="#474341" fill-opacity=".69"/><rect x="170" y="-42" width="20" height="2" ry=".75" fill="#474341" fill-opacity=".69"/><rect x="170" y="-48" width="20" height="2" ry=".912" fill="#474341" fill-opacity=".69"/></g><g transform="translate(-464 572)"><use transform="translate(0 -600)" width="100%" height="100%" xlink:href="#a"/><use transform="translate(0 -600)" width="100%" height="100%" xlink:href="#b"/><use transform="translate(0 -600)" width="100%" height="100%" xlink:href="#c"/><rect x="23" y="-325" width="2" height="4" ry=".456" fill="#f15d22"/><rect x="23" y="-320" width="2" height="1" ry=".456" fill="#f15d22"/><rect x="67" y="-332" width="2" height="7" ry=".456" fill="#f15d22"/><rect x="67" y="-323" width="2" height="2" ry=".456" fill="#f15d22"/><rect x="115" y="-337" width="2" height="8" ry=".456" fill="#f15d22"/><rect x="115" y="-327" width="2" height="2" ry=".456" fill="#f15d22"/><path d="M599-428h-14v-64h14zm0 32h-14v-14h14z" fill="#f15d22"/><path d="M380-371h-8v-33h8zm0 16h-8v-8h8z" fill="#f15d22"/><path d="M258-344h-4v-16h4zm0 9h-4v-5h4z" fill="#f15d22"/><path d="M182-338h-4v-12h4zm0 7h-4v-5h4z" fill="#f15d22"/></g><g transform="translate(-464 572)"><use transform="translate(0 -900)" width="100%" height="100%" xlink:href="#a"/><path fill="#fff" d="M19-628h10v4H19z"/><path fill="#fff" d="M61-635h13.5v3H61z"/><path fill="#fff" d="M108-642h16v4h-16z"/><path fill="#fff" d="M168-655h24v6h-24z"/><path fill="#fff" d="M240-668h32v8h-32z"/><path fill="#fff" d="M344-722h64v16h-64z"/><path fill="#fff" d="M528-828h128v32H528z"/><use transform="translate(0 -900)" width="100%" height="100%" xlink:href="#c"/></g></svg>