<svg version="1.0" viewBox="0 0 48 48" xmlns="http://www.w3.org/2000/svg"><g transform="translate(-156 -236)"><rect x="504" y="44" width="176" height="228" ry="8" fill="#7b7b7b"/><rect x="505" y="45" width="174" height="222" ry="7.4" fill="#f6f6f6"/><g fill="#393634" fill-opacity=".502" aria-label="50 6F 70 5F 69 63 6F 6E 73 20 62 79 20 49 61 6E 20 53 61 6E 74 6F 70 69 65 74 72 6F"><path d="M538.98 56.52h-6.814v6.421h1.27c.746-.261 1.25-.429 1.996-.429 1.307 0 2.334.69 2.334 2.744 0 1.997-1.008 3.043-2.707 3.043-1.101 0-1.979-.392-2.763-1.195l-.97.952c.99.952 2.184 1.53 3.733 1.53 2.65 0 4.35-1.698 4.35-4.274s-1.42-4.032-3.529-4.032c-.765 0-1.437.13-2.202.56v-4.05h5.077z"/><path d="M546.68 56.32c-2.764 0-4.2 2.37-4.2 6.627 0 4.274 1.436 6.645 4.2 6.645s4.2-2.37 4.2-6.645c0-4.256-1.438-6.627-4.2-6.627zm0 1.27c1.604 0 2.556 1.567 2.556 5.357 0 3.808-.952 5.376-2.557 5.376-1.587 0-2.557-1.568-2.557-5.376 0-3.79.97-5.358 2.557-5.358zm0 4.143a1.2 1.2 0 0 0-1.214 1.214c0 .69.523 1.232 1.213 1.232.71 0 1.232-.542 1.232-1.232 0-.672-.522-1.214-1.232-1.214z"/><path d="M569.63 61.02c-1.27 0-2.297.504-3.1 1.717.056-3.136 1.195-5.152 3.174-5.152.71 0 1.363.187 1.96.542l.616-1.046a4.453 4.453 0 0 0-2.557-.765c-3.006 0-4.78 2.725-4.78 7 0 3.827 1.158 6.272 4.276 6.272 2.24 0 4.05-1.68 4.05-4.536 0-2.744-1.68-4.032-3.64-4.032zm-.411 7.299c-1.83 0-2.614-1.307-2.67-4.2.635-1.083 1.606-1.83 2.838-1.83 1.344 0 2.277.71 2.277 2.82 0 1.978-.822 3.21-2.445 3.21z"/><path d="M578.86 57.87h5.767l.187-1.344h-7.579v12.861h1.624v-5.712h5.04v-1.307h-5.04z"/><path d="m601.34 69.55 5.132-11.816v-1.213h-7.616v1.306h6.03l-5.003 11.293z"/><path d="M613.84 56.32c-2.764 0-4.2 2.37-4.2 6.627 0 4.274 1.436 6.645 4.2 6.645 2.762 0 4.2-2.37 4.2-6.645 0-4.256-1.438-6.627-4.2-6.627zm0 1.27c1.604 0 2.556 1.567 2.556 5.357 0 3.808-.951 5.376-2.557 5.376-1.587 0-2.557-1.568-2.557-5.376 0-3.79.97-5.358 2.557-5.358zm0 4.143a1.2 1.2 0 0 0-1.214 1.214c0 .69.523 1.232 1.213 1.232.71 0 1.232-.542 1.232-1.232 0-.672-.522-1.214-1.232-1.214z"/><path d="M639.72 56.52h-6.814v6.421h1.27c.746-.261 1.25-.429 1.996-.429 1.307 0 2.334.69 2.334 2.744 0 1.997-1.008 3.043-2.707 3.043-1.101 0-1.979-.392-2.763-1.195l-.97.952c.99.952 2.184 1.53 3.733 1.53 2.65 0 4.35-1.698 4.35-4.274s-1.42-4.032-3.529-4.032c-.765 0-1.437.13-2.202.56v-4.05h5.077z"/><path d="M646.02 57.87h5.767l.187-1.344h-7.579v12.861h1.624v-5.712h5.04v-1.307h-5.04z"/><path d="M536.05 91.02c-1.27 0-2.297.504-3.1 1.717.056-3.136 1.195-5.152 3.174-5.152.71 0 1.362.187 1.96.542l.616-1.046a4.453 4.453 0 0 0-2.558-.765c-3.005 0-4.778 2.725-4.778 7 0 3.827 1.157 6.272 4.274 6.272 2.24 0 4.051-1.68 4.051-4.536 0-2.744-1.68-4.032-3.64-4.032zm-.411 7.299c-1.83 0-2.614-1.307-2.67-4.2.635-1.083 1.606-1.83 2.838-1.83 1.344 0 2.277.71 2.277 2.82 0 1.978-.821 3.21-2.445 3.21z"/><path d="M546.48 86.34c-2.316 0-4.164 1.475-4.164 4.237 0 2.558 1.55 4.126 3.696 4.107a3.728 3.728 0 0 0 3.006-1.587c-.037 3.118-2.128 4.574-5.563 5.488l.373 1.195c4.798-1.344 6.851-2.987 6.851-8.475 0-3.061-1.325-4.965-4.2-4.965zm-.187 7.075c-1.456.018-2.334-.822-2.334-2.782 0-1.978.859-3.024 2.52-3.024 1.792 0 2.632 1.027 2.576 4.088-.69 1.027-1.55 1.7-2.762 1.718z"/><path d="M569.63 91.02c-1.27 0-2.297.504-3.1 1.717.056-3.136 1.195-5.152 3.174-5.152.71 0 1.363.187 1.96.542l.616-1.046a4.453 4.453 0 0 0-2.557-.765c-3.006 0-4.78 2.725-4.78 7 0 3.827 1.158 6.272 4.276 6.272 2.24 0 4.05-1.68 4.05-4.536 0-2.744-1.68-4.032-3.64-4.032zm-.411 7.299c-1.83 0-2.614-1.307-2.67-4.2.635-1.083 1.606-1.83 2.838-1.83 1.344 0 2.277.71 2.277 2.82 0 1.978-.822 3.21-2.445 3.21z"/><path d="M579.68 86.32c-1.326 0-2.558.448-3.66 1.493l.86.952c.858-.784 1.623-1.176 2.724-1.176 1.363 0 2.427.766 2.427 2.166 0 1.549-1.195 2.24-2.427 2.24h-.765l-.187 1.25h1.064c1.531 0 2.67.598 2.67 2.446 0 1.605-1.064 2.613-2.856 2.613-1.046 0-2.128-.41-2.856-1.27l-1.046.86c.971 1.175 2.502 1.698 3.94 1.698 2.668 0 4.46-1.68 4.46-3.901 0-1.998-1.418-3.043-2.912-3.155 1.344-.261 2.502-1.437 2.502-2.987 0-1.754-1.512-3.229-3.939-3.229z"/><path d="M603.21 91.02c-1.27 0-2.297.504-3.1 1.717.056-3.136 1.195-5.152 3.174-5.152.71 0 1.363.187 1.96.542l.616-1.046a4.453 4.453 0 0 0-2.557-.765c-3.006 0-4.78 2.725-4.78 7 0 3.827 1.158 6.272 4.276 6.272 2.24 0 4.05-1.68 4.05-4.536 0-2.744-1.68-4.032-3.64-4.032zm-.411 7.299c-1.83 0-2.614-1.307-2.67-4.2.635-1.083 1.606-1.83 2.838-1.83 1.344 0 2.277.71 2.277 2.82 0 1.978-.821 3.21-2.445 3.21z"/><path d="M612.62 87.98h5.767l.187-1.344h-7.579v12.861h1.624v-5.712h5.04v-1.307h-5.04z"/><path d="M636.78 91.02c-1.27 0-2.297.504-3.1 1.717.056-3.136 1.195-5.152 3.174-5.152.71 0 1.362.187 1.96.542l.616-1.046a4.453 4.453 0 0 0-2.557-.765c-3.006 0-4.78 2.725-4.78 7 0 3.827 1.158 6.272 4.276 6.272 2.24 0 4.05-1.68 4.05-4.536 0-2.744-1.68-4.032-3.64-4.032zm-.411 7.299c-1.83 0-2.614-1.307-2.67-4.2.635-1.083 1.606-1.83 2.838-1.83 1.344 0 2.277.71 2.277 2.82 0 1.978-.822 3.21-2.445 3.21z"/><path d="M645.77 87.87h5.506l.187-1.344h-7.3v12.861h7.468V98.08h-5.862v-4.554h4.779V92.2h-4.779z"/><path d="m534.18 129.55 5.132-11.816v-1.213h-7.616v1.306h6.03l-5.003 11.293z"/><path d="M546.1 116.32c-1.326 0-2.558.448-3.66 1.493l.86.952c.858-.784 1.623-1.176 2.724-1.176 1.363 0 2.427.766 2.427 2.166 0 1.549-1.195 2.24-2.427 2.24h-.765l-.187 1.25h1.064c1.531 0 2.67.598 2.67 2.446 0 1.605-1.064 2.613-2.856 2.613-1.046 0-2.128-.41-2.856-1.27l-1.046.86c.971 1.175 2.502 1.698 3.94 1.698 2.668 0 4.46-1.68 4.46-3.901 0-1.998-1.418-3.043-2.912-3.155 1.344-.261 2.502-1.437 2.502-2.987 0-1.754-1.512-3.229-3.939-3.229z"/><path d="M568.49 116.32c-1.737 0-2.913.616-3.92 1.848l1.082.84c.821-.952 1.512-1.363 2.763-1.363 1.437 0 2.314.878 2.314 2.315 0 2.09-1.045 3.51-5.898 8.157v1.27h7.653l.187-1.344h-6.048c4.237-3.864 5.749-5.768 5.749-8.14 0-2.034-1.456-3.583-3.883-3.583z"/><path d="M580.26 116.32c-2.764 0-4.2 2.37-4.2 6.627 0 4.274 1.436 6.645 4.2 6.645 2.762 0 4.2-2.37 4.2-6.645 0-4.256-1.438-6.627-4.2-6.627zm0 1.27c1.604 0 2.556 1.567 2.556 5.357 0 3.808-.952 5.376-2.557 5.376-1.587 0-2.557-1.568-2.557-5.376 0-3.79.97-5.358 2.557-5.358zm0 4.143a1.2 1.2 0 0 0-1.214 1.214c0 .69.523 1.232 1.213 1.232.71 0 1.232-.542 1.232-1.232 0-.672-.522-1.214-1.232-1.214z"/><path d="M603.21 121.02c-1.27 0-2.297.504-3.1 1.717.056-3.136 1.195-5.152 3.174-5.152.71 0 1.363.187 1.96.542l.616-1.046a4.453 4.453 0 0 0-2.557-.765c-3.006 0-4.78 2.725-4.78 7 0 3.827 1.158 6.272 4.276 6.272 2.24 0 4.05-1.68 4.05-4.536 0-2.744-1.68-4.032-3.64-4.032zm-.411 7.299c-1.83 0-2.614-1.307-2.67-4.2.635-1.083 1.606-1.83 2.838-1.83 1.344 0 2.277.71 2.277 2.82 0 1.978-.821 3.21-2.445 3.21z"/><path d="M613.26 116.32c-1.737 0-2.913.616-3.92 1.848l1.082.84c.821-.952 1.512-1.363 2.763-1.363 1.437 0 2.314.878 2.314 2.315 0 2.09-1.045 3.51-5.898 8.157v1.27h7.653l.187-1.344h-6.048c4.237-3.864 5.749-5.768 5.749-8.14 0-2.034-1.456-3.583-3.883-3.583z"/><path d="m634.92 129.55 5.132-11.816v-1.213h-7.616v1.306h6.03l-5.003 11.293z"/><path d="M647.21 116.34c-2.316 0-4.164 1.475-4.164 4.237 0 2.558 1.55 4.126 3.696 4.107a3.728 3.728 0 0 0 3.006-1.587c-.037 3.118-2.128 4.574-5.563 5.488l.373 1.195c4.798-1.344 6.851-2.987 6.851-8.475 0-3.061-1.325-4.965-4.2-4.965zm-.187 7.075c-1.456.018-2.334-.822-2.334-2.782 0-1.978.859-3.024 2.52-3.024 1.792 0 2.632 1.027 2.576 4.088-.69 1.027-1.55 1.7-2.762 1.718z"/><path d="M534.91 146.32c-1.737 0-2.913.616-3.92 1.848l1.082.84c.821-.952 1.512-1.363 2.763-1.363 1.437 0 2.314.878 2.314 2.315 0 2.09-1.045 3.51-5.898 8.157v1.27h7.653l.187-1.344h-6.048c4.237-3.864 5.749-5.768 5.749-8.14 0-2.034-1.456-3.583-3.883-3.583z"/><path d="M546.68 146.32c-2.764 0-4.2 2.37-4.2 6.627 0 4.274 1.436 6.645 4.2 6.645s4.2-2.37 4.2-6.645c0-4.256-1.438-6.627-4.2-6.627zm0 1.27c1.604 0 2.556 1.567 2.556 5.357 0 3.808-.952 5.376-2.557 5.376-1.587 0-2.557-1.568-2.557-5.376 0-3.79.97-5.358 2.557-5.358zm0 4.143a1.2 1.2 0 0 0-1.214 1.214c0 .69.523 1.232 1.213 1.232.71 0 1.232-.542 1.232-1.232 0-.672-.522-1.214-1.232-1.214z"/><path d="M573.32 155h-1.662v-3.64h-1.363l-.13 3.64h-3.696l3.416-8.12-1.307-.56-3.77 8.792v1.157h5.338v3.118h1.512v-3.118h1.661z"/><path d="M580.06 146.34c-2.316 0-4.164 1.475-4.164 4.237 0 2.558 1.55 4.126 3.696 4.107a3.728 3.728 0 0 0 3.006-1.587c-.037 3.118-2.128 4.574-5.563 5.488l.373 1.195c4.798-1.344 6.851-2.987 6.851-8.475 0-3.061-1.325-4.965-4.2-4.965zm-.187 7.075c-1.456.018-2.334-.822-2.334-2.782 0-1.978.859-3.024 2.52-3.024 1.792 0 2.632 1.027 2.576 4.088-.69 1.027-1.55 1.7-2.762 1.718z"/><path d="M603.21 151.02c-1.27 0-2.297.504-3.1 1.717.056-3.136 1.195-5.152 3.174-5.152.71 0 1.363.187 1.96.542l.616-1.046a4.453 4.453 0 0 0-2.557-.765c-3.006 0-4.78 2.725-4.78 7 0 3.827 1.158 6.272 4.276 6.272 2.24 0 4.05-1.68 4.05-4.536 0-2.744-1.68-4.032-3.64-4.032zm-.411 7.299c-1.83 0-2.614-1.307-2.67-4.2.635-1.083 1.606-1.83 2.838-1.83 1.344 0 2.277.71 2.277 2.82 0 1.978-.821 3.21-2.445 3.21z"/><path d="M615.22 158.12v-11.592h-1.382l-3.827 2.39.69 1.1 2.932-1.773v9.875h-3.155v1.27h7.41v-1.27z"/><path d="M636.78 151.02c-1.27 0-2.297.504-3.1 1.717.056-3.136 1.195-5.152 3.174-5.152.71 0 1.362.187 1.96.542l.616-1.046a4.453 4.453 0 0 0-2.557-.765c-3.006 0-4.78 2.725-4.78 7 0 3.827 1.158 6.272 4.276 6.272 2.24 0 4.05-1.68 4.05-4.536 0-2.744-1.68-4.032-3.64-4.032zm-.411 7.299c-1.83 0-2.614-1.307-2.67-4.2.635-1.083 1.606-1.83 2.838-1.83 1.344 0 2.277.71 2.277 2.82 0 1.978-.822 3.21-2.445 3.21z"/><path d="M645.77 147.87h5.506l.187-1.344h-7.3v12.861h7.468v-1.307h-5.862v-4.554h4.779V152.2h-4.779z"/><path d="M534.91 176.32c-1.737 0-2.913.616-3.92 1.848l1.082.84c.821-.952 1.512-1.363 2.763-1.363 1.437 0 2.314.878 2.314 2.315 0 2.09-1.045 3.51-5.898 8.157v1.27h7.653l.187-1.344h-6.048c4.237-3.864 5.749-5.768 5.749-8.14 0-2.034-1.456-3.583-3.883-3.583z"/><path d="M546.68 176.32c-2.764 0-4.2 2.37-4.2 6.627 0 4.274 1.436 6.645 4.2 6.645s4.2-2.37 4.2-6.645c0-4.256-1.438-6.627-4.2-6.627zm0 1.27c1.604 0 2.556 1.567 2.556 5.357 0 3.808-.952 5.376-2.557 5.376-1.587 0-2.557-1.568-2.557-5.376 0-3.79.97-5.358 2.557-5.358zm0 4.143a1.2 1.2 0 0 0-1.214 1.214c0 .69.523 1.232 1.213 1.232.71 0 1.232-.542 1.232-1.232 0-.672-.522-1.214-1.232-1.214z"/><path d="M572.56 176.52h-6.814v6.421h1.27c.746-.261 1.25-.429 1.996-.429 1.307 0 2.334.69 2.334 2.744 0 1.997-1.008 3.043-2.707 3.043-1.101 0-1.979-.392-2.763-1.195l-.97.952c.99.952 2.184 1.53 3.733 1.53 2.65 0 4.35-1.698 4.35-4.274s-1.42-4.032-3.529-4.032c-.765 0-1.437.13-2.202.56v-4.05h5.077z"/><path d="M579.68 176.32c-1.326 0-2.558.448-3.66 1.493l.86.952c.858-.784 1.623-1.176 2.724-1.176 1.363 0 2.427.766 2.427 2.166 0 1.549-1.195 2.24-2.427 2.24h-.765l-.187 1.25h1.064c1.531 0 2.67.598 2.67 2.446 0 1.605-1.064 2.613-2.856 2.613-1.046 0-2.128-.41-2.856-1.27l-1.046.86c.971 1.175 2.502 1.698 3.94 1.698 2.668 0 4.46-1.68 4.46-3.901 0-1.998-1.418-3.043-2.912-3.155 1.344-.261 2.502-1.437 2.502-2.987 0-1.754-1.512-3.229-3.939-3.229z"/><path d="M603.21 181.02c-1.27 0-2.297.504-3.1 1.717.056-3.136 1.195-5.152 3.174-5.152.71 0 1.363.187 1.96.542l.616-1.046a4.453 4.453 0 0 0-2.557-.765c-3.006 0-4.78 2.725-4.78 7 0 3.827 1.158 6.272 4.276 6.272 2.24 0 4.05-1.68 4.05-4.536 0-2.744-1.68-4.032-3.64-4.032zm-.411 7.299c-1.83 0-2.614-1.307-2.67-4.2.635-1.083 1.606-1.83 2.838-1.83 1.344 0 2.277.71 2.277 2.82 0 1.978-.821 3.21-2.445 3.21z"/><path d="M615.59 188v-11.592h-1.382l-3.827 2.39.69 1.1 2.932-1.773V188h-3.155v1.27h7.41V188z"/><path d="M636.78 181.02c-1.27 0-2.297.504-3.1 1.717.056-3.136 1.195-5.152 3.174-5.152.71 0 1.362.187 1.96.542l.616-1.046a4.453 4.453 0 0 0-2.557-.765c-3.006 0-4.78 2.725-4.78 7 0 3.827 1.158 6.272 4.276 6.272 2.24 0 4.05-1.68 4.05-4.536 0-2.744-1.68-4.032-3.64-4.032zm-.411 7.299c-1.83 0-2.614-1.307-2.67-4.2.635-1.083 1.606-1.83 2.838-1.83 1.344 0 2.277.71 2.277 2.82 0 1.978-.822 3.21-2.445 3.21z"/><path d="M645.77 177.87h5.506l.187-1.344h-7.3v12.861h7.468v-1.307h-5.862v-4.554h4.779V182.2h-4.779z"/><path d="m534.18 219.55 5.132-11.816v-1.213h-7.616v1.306h6.03l-5.003 11.293z"/><path d="M550.94 215h-1.662v-3.64h-1.363l-.13 3.64h-3.696l3.416-8.12-1.307-.56-3.77 8.792v1.157h5.338v3.118h1.512v-3.118h1.661z"/><path d="M569.63 211.02c-1.27 0-2.297.504-3.1 1.717.056-3.136 1.195-5.152 3.174-5.152.71 0 1.363.187 1.96.542l.616-1.046a4.453 4.453 0 0 0-2.557-.765c-3.006 0-4.78 2.725-4.78 7 0 3.827 1.158 6.272 4.276 6.272 2.24 0 4.05-1.68 4.05-4.536 0-2.744-1.68-4.032-3.64-4.032zm-.411 7.299c-1.83 0-2.614-1.307-2.67-4.2.635-1.083 1.606-1.83 2.838-1.83 1.344 0 2.277.71 2.277 2.82 0 1.978-.822 3.21-2.445 3.21z"/><path d="M578.86 207.87h5.767l.187-1.344h-7.579v12.861h1.624v-5.712h5.04v-1.307h-5.04z"/><path d="m601.34 219.55 5.132-11.816v-1.213h-7.616v1.306h6.03l-5.003 11.293z"/><path d="M613.84 206.32c-2.764 0-4.2 2.37-4.2 6.627 0 4.274 1.436 6.645 4.2 6.645 2.762 0 4.2-2.37 4.2-6.645 0-4.256-1.438-6.627-4.2-6.627zm0 1.27c1.604 0 2.556 1.567 2.556 5.357 0 3.808-.951 5.376-2.557 5.376-1.587 0-2.557-1.568-2.557-5.376 0-3.79.97-5.358 2.557-5.358zm0 4.143a1.2 1.2 0 0 0-1.214 1.214c0 .69.523 1.232 1.213 1.232.71 0 1.232-.542 1.232-1.232 0-.672-.522-1.214-1.232-1.214z"/><path d="M636.78 211.02c-1.27 0-2.297.504-3.1 1.717.056-3.136 1.195-5.152 3.174-5.152.71 0 1.362.187 1.96.542l.616-1.046a4.453 4.453 0 0 0-2.557-.765c-3.006 0-4.78 2.725-4.78 7 0 3.827 1.158 6.272 4.276 6.272 2.24 0 4.05-1.68 4.05-4.536 0-2.744-1.68-4.032-3.64-4.032zm-.411 7.299c-1.83 0-2.614-1.307-2.67-4.2.635-1.083 1.606-1.83 2.838-1.83 1.344 0 2.277.71 2.277 2.82 0 1.978-.822 3.21-2.445 3.21z"/><path d="M647.21 206.34c-2.316 0-4.164 1.475-4.164 4.237 0 2.558 1.55 4.126 3.696 4.107a3.728 3.728 0 0 0 3.006-1.587c-.037 3.118-2.128 4.574-5.563 5.488l.373 1.195c4.798-1.344 6.851-2.987 6.851-8.475 0-3.061-1.325-4.965-4.2-4.965zm-.187 7.075c-1.456.018-2.334-.822-2.334-2.782 0-1.978.859-3.024 2.52-3.024 1.792 0 2.632 1.027 2.576 4.088-.69 1.027-1.55 1.7-2.762 1.718z"/><path d="M536.05 241.02c-1.27 0-2.297.504-3.1 1.717.056-3.136 1.195-5.152 3.174-5.152.71 0 1.362.187 1.96.542l.616-1.046a4.453 4.453 0 0 0-2.558-.765c-3.005 0-4.778 2.725-4.778 7 0 3.827 1.157 6.272 4.274 6.272 2.24 0 4.051-1.68 4.051-4.536 0-2.744-1.68-4.032-3.64-4.032zm-.411 7.299c-1.83 0-2.614-1.307-2.67-4.2.635-1.083 1.606-1.83 2.838-1.83 1.344 0 2.277.71 2.277 2.82 0 1.978-.821 3.21-2.445 3.21z"/><path d="M550.17 236.52h-6.814v6.421h1.27c.746-.261 1.25-.429 1.996-.429 1.307 0 2.334.69 2.334 2.744 0 1.997-1.008 3.043-2.707 3.043-1.101 0-1.979-.392-2.763-1.195l-.97.952c.99.952 2.184 1.53 3.733 1.53 2.65 0 4.35-1.698 4.35-4.274s-1.42-4.032-3.529-4.032c-.765 0-1.437.13-2.202.56v-4.05h5.077z"/><path d="m567.76 249.55 5.132-11.816v-1.213h-7.616v1.306h6.03l-5.003 11.293z"/><path d="M584.5 245h-1.662v-3.64h-1.363l-.13 3.64h-3.696l3.416-8.12-1.307-.56-3.77 8.792v1.157h5.338v3.118h1.512v-3.118h1.661z"/><path d="m601.34 249.55 5.132-11.816v-1.213h-7.616v1.306h6.03l-5.003 11.293z"/><path d="M613.26 236.32c-1.737 0-2.913.616-3.92 1.848l1.082.84c.821-.952 1.512-1.363 2.763-1.363 1.437 0 2.314.878 2.314 2.315 0 2.09-1.045 3.51-5.898 8.157v1.27h7.653l.187-1.344h-6.048c4.237-3.864 5.749-5.768 5.749-8.14 0-2.034-1.456-3.583-3.883-3.583z"/><path d="M636.78 241.02c-1.27 0-2.297.504-3.1 1.717.056-3.136 1.195-5.152 3.174-5.152.71 0 1.362.187 1.96.542l.616-1.046a4.453 4.453 0 0 0-2.557-.765c-3.006 0-4.78 2.725-4.78 7 0 3.827 1.158 6.272 4.276 6.272 2.24 0 4.05-1.68 4.05-4.536 0-2.744-1.68-4.032-3.64-4.032zm-.411 7.299c-1.83 0-2.614-1.307-2.67-4.2.635-1.083 1.606-1.83 2.838-1.83 1.344 0 2.277.71 2.277 2.82 0 1.978-.822 3.21-2.445 3.21z"/><path d="M645.73 238h5.767l.187-1.344h-7.579v12.861h1.624v-5.712h5.04v-1.307h-5.04z"/></g><rect x="332" y="164" width="88" height="116" ry="8" fill="#7b7b7b"/><rect x="333" y="165" width="86" height="110" ry="7.5" fill="#f6f6f6"/><rect x="234" y="224" width="44" height="59" ry="4" fill="#7b7b7b"/><rect x="235" y="225" width="42" height="54" ry="3.5" fill="#f6f6f6"/><g fill="#393634" fill-opacity=".51"><path d="m241.5 232 .5-1h-3v3h1.5c.373 0 .5 0 .5.5 0 .6 0 1.5-.5 1.5-1 0-1.5-.5-1.5-.5v1s.5.5 1.5.5c1.5 0 1.5-1.528 1.5-2.5 0-1 0-1.5-1.5-1.5h-.5v-1z"/><path d="M245 231a2 3 0 0 0-2 3 2 3 0 0 0 2 3 2 3 0 0 0 2-3 2 3 0 0 0-2-3zm0 1a1 2 0 0 1 1 2 1 2 0 0 1-1 2 1 2 0 0 1-1-2 1 2 0 0 1 1-2z"/><path d="M253.5 231c-1.5 0-1.5 0-1.5 3s0 3 1.5 3 1.5 0 1.5-2 0-2-1.5-2h-.5c0-.5 0-1 .5-1h1l.5-1zm0 3c.276 0 .5.448.5 1s-.224 1-.5 1-.5-.448-.5-1v-1h.5z"/><path d="m259 231-.5 1H257v1h1v1h-1v3h-1v-6z"/><path d="M265 231h3v1l-2 5-1-.5 2-4.5h-2z"/><path d="M240 243c0 4 0 4 1 4v-2h1v4h-1v-1c-2 0-2 0-2-5z"/><path d="M244.5 249c1.5 0 1.5 0 1.5-3s0-3-1.5-3-1.5 0-1.5 2 0 2 1.5 2h.5c0 .5 0 1-.5 1h-1l-.5 1zm0-3c-.276 0-.5-.448-.5-1s.224-1 .5-1 .5.448.5 1v1h-.5z"/><path d="M253.5 243c-1.5 0-1.5 0-1.5 3s0 3 1.5 3 1.5 0 1.5-2 0-2-1.5-2h-.5c0-.5 0-1 .5-1h1l.5-1zm0 3c.276 0 .5.448.5 1s-.224 1-.5 1-.5-.448-.5-1v-1h.5z"/><path d="M271 231a2 3 0 0 0-2 3 2 3 0 0 0 2 3 2 3 0 0 0 2-3 2 3 0 0 0-2-3zm0 1a1 2 0 0 1 1 2 1 2 0 0 1-1 2 1 2 0 0 1-1-2 1 2 0 0 1 1-2z"/><path d="M256 249v-1h2v-1h-1v-1h1v-2h-1.5l-.5-1h3v6z"/><path d="m272 243-.5 1H270v1h1v1h-1v3h-1v-6z"/><path d="M266.5 243c-1.5 0-1.5 0-1.5 3s0 3 1.5 3 1.5 0 1.5-2 0-2-1.5-2h-.5c0-.5 0-1 .5-1h1l.5-1zm0 3c.276 0 .5.448.5 1s-.224 1-.5 1-.5-.448-.5-1v-1h.5z"/><path d="M240.5 255c-1.5 0-1.5 0-1.5 3s0 3 1.5 3 1.5 0 1.5-2 0-2-1.5-2h-.5c0-.5 0-1 .5-1h1l.5-1zm0 3c.276 0 .5.448.5 1s-.224 1-.5 1-.5-.448-.5-1v-1h.5z"/><path d="m246 255-.5 1H244v1h1v1h-1v2h1.5l.5 1h-3v-6z"/><path d="M256 261v-1h2v-1h-1v-1h1v-2h-1.5l-.5-1h3v6z"/><path d="m268 260-.5 1H265v-3h1.5c.373 0 .5 0 .5-.5 0-.6 0-1.5-.5-1.5-1 0-1.5.5-1.5.5v-1s.5-.5 1.5-.5c1.5 0 1.5 1.528 1.5 2.5 0 1 0 1.5-1.5 1.5h-.5v1z"/><path d="M252 255h3v1l-2 5-1-.5 2-4.5h-2z"/><path d="M271 255a2 3 0 0 0-2 3 2 3 0 0 0 2 3 2 3 0 0 0 2-3 2 3 0 0 0-2-3zm0 1a1 2 0 0 1 1 2 1 2 0 0 1-1 2 1 2 0 0 1-1-2 1 2 0 0 1 1-2z"/><path d="M240 267c0 4 0 4 1 4v-2h1v4h-1v-1c-2 0-2 0-2-5z"/><path d="M244.5 273c1.5 0 1.5 0 1.5-3s0-3-1.5-3-1.5 0-1.5 2 0 2 1.5 2h.5c0 .5 0 1-.5 1h-1l-.5 1zm0-3c-.276 0-.5-.448-.5-1s.224-1 .5-1 .5.448.5 1v1h-.5z"/><path d="M253.5 267c-1.5 0-1.5 0-1.5 3s0 3 1.5 3 1.5 0 1.5-2 0-2-1.5-2h-.5c0-.5 0-1 .5-1h1l.5-1zm0 3c.276 0 .5.448.5 1s-.224 1-.5 1-.5-.448-.5-1v-1h.5z"/><path d="M266.5 267c-1.5 0-1.5 0-1.5 3s0 3 1.5 3 1.5 0 1.5-2 0-2-1.5-2h-.5c0-.5 0-1 .5-1h1l.5-1zm0 3c.276 0 .5.448.5 1s-.224 1-.5 1-.5-.448-.5-1v-1h.5z"/><path d="m272 267-.5 1H270v1h1v1h-1v2h1.5l.5 1h-3v-6z"/><path d="m257 267-.5 1h.5v4h-1v1h3v-1h-1v-5z"/><path d="m349.5 173 .5-1h-4v3h2c.435 0 1 0 1 1 0 .5 0 2-1 2-1.5 0-2-1-2-1v1.167s.5.833 2 .833 2-2 2-3c0-1.5-.25-2-2-2h-1v-1z"/><path d="M365.25 172c-1.75 0-2.25 1-2.25 4s0 3 2 3 2 0 2-2.5c0-1.5 0-1.5-2-1.5h-1c0-1.5.5-2 1-2h1.5l.5-1zm-.25 4c1 0 1 0 1 1s0 1-1 1-1 0-1-1v-1z"/><path d="m373 172-.5 1H370v2h2v1h-2v3h-1v-7z"/><path d="M380 172h4v1l-2.5 6-1-.5 2.5-5.5h-3z"/><path d="M354 172a2 3.5 0 0 0-2 3.5 2 3.5 0 0 0 2 3.5 2 3.5 0 0 0 2-3.5 2 3.5 0 0 0-2-3.5zm0 1a1 2.5 0 0 1 1 2.5 1 2.5 0 0 1-1 2.5 1 2.5 0 0 1-1-2.5 1 2.5 0 0 1 1-2.5z"/><path d="M388 172a2 3.5 0 0 0-2 3.5 2 3.5 0 0 0 2 3.5 2 3.5 0 0 0 2-3.5 2 3.5 0 0 0-2-3.5zm0 1a1 2.5 0 0 1 1 2.5 1 2.5 0 0 1-1 2.5 1 2.5 0 0 1-1-2.5 1 2.5 0 0 1 1-2.5z"/><path d="m400.5 173 .5-1h-4v3h2c.435 0 1 0 1 1 0 .5 0 2-1 2-1.5 0-2-1-2-1v1.167s.5.833 2 .833 2-2 2-3c0-1.5-.25-2-2-2h-1v-1z"/><path d="m407 172-.5 1H404v2h2v1h-2v3h-1v-7z"/><path d="m390 187-.5 1H387v2h2v1h-2v3h-1v-7z"/><path d="m373 247-.5 1H370v2h2v1h-2v3h-1v-7z"/><path d="m407 187-.5 1H404v2h2v1h-2v2h2.5l.5 1h-4v-7z"/><path d="m406 217-.5 1H403v2h2v1h-2v2h2.5l.5 1h-4v-7z"/><path d="m406.5 232-.5 1h-2.5v2h2v1h-2v2h2.5l.5 1h-4v-7z"/><path d="m406.5 262-.5 1h-2.5v2h2v1h-2v3h-1v-7z"/><path d="M348.25 187c-1.75 0-2.25 1-2.25 4s0 3 2 3 2 0 2-2.5c0-1.5 0-1.5-2-1.5h-1c0-1.5.5-2 1-2h1.5l.5-1zm-.25 4c1 0 1 0 1 1s0 1-1 1-1 0-1-1v-1z"/><path d="M365.25 187c-1.75 0-2.25 1-2.25 4s0 3 2 3 2 0 2-2.5c0-1.5 0-1.5-2-1.5h-1c0-1.5.5-2 1-2h1.5l.5-1zm-.25 4c1 0 1 0 1 1s0 1-1 1-1 0-1-1v-1z"/><path d="M382.25 187c-1.75 0-2.25 1-2.25 4s0 3 2 3 2 0 2-2.5c0-1.5 0-1.5-2-1.5h-1c0-1.5.5-2 1-2h1.5l.5-1zm-.25 4c1 0 1 0 1 1s0 1-1 1-1 0-1-1v-1z"/><path d="M399.25 187c-1.75 0-2.25 1-2.25 4s0 3 2 3 2 0 2-2.5c0-1.5 0-1.5-2-1.5h-1c0-1.5.5-2 1-2h1.5l.5-1zm-.25 4c1 0 1 0 1 1s0 1-1 1-1 0-1-1v-1z"/><path d="M382.25 202c-1.75 0-2.25 1-2.25 4s0 3 2 3 2 0 2-2.5c0-1.5 0-1.5-2-1.5h-1c0-1.5.5-2 1-2h1.5l.5-1zm-.25 4c1 0 1 0 1 1s0 1-1 1-1 0-1-1v-1z"/><path d="M382.25 217c-1.75 0-2.25 1-2.25 4s0 3 2 3 2 0 2-2.5c0-1.5 0-1.5-2-1.5h-1c0-1.5.5-2 1-2h1.5l.5-1zm-.25 4c1 0 1 0 1 1s0 1-1 1-1 0-1-1v-1z"/><path d="M382.25 232c-1.75 0-2.25 1-2.25 4s0 3 2 3 2 0 2-2.5c0-1.5 0-1.5-2-1.5h-1c0-1.5.5-2 1-2h1.5l.5-1zm-.25 4c1 0 1 0 1 1s0 1-1 1-1 0-1-1v-1z"/><path d="M365.25 247c-1.75 0-2.25 1-2.25 4s0 3 2 3 2 0 2-2.5c0-1.5 0-1.5-2-1.5h-1c0-1.5.5-2 1-2h1.5l.5-1zm-.25 4c1 0 1 0 1 1s0 1-1 1-1 0-1-1v-1z"/><path d="M399.25 217c-1.75 0-2.25 1-2.25 4s0 3 2 3 2 0 2-2.5c0-1.5 0-1.5-2-1.5h-1c0-1.5.5-2 1-2h1.5l.5-1zm-.25 4c1 0 1 0 1 1s0 1-1 1-1 0-1-1v-1z"/><path d="M399.25 232c-1.75 0-2.25 1-2.25 4s0 3 2 3 2 0 2-2.5c0-1.5 0-1.5-2-1.5h-1c0-1.5.5-2 1-2h1.5l.5-1zm-.25 4c1 0 1 0 1 1s0 1-1 1-1 0-1-1v-1z"/><path d="M369 194v-1h3v-2h-2v-1h2v-2h-2.5v-1h3.5v7z"/><path d="M352 209v-1h3v-2h-2v-1h2v-2h-2.5v-1h3.5v7z"/><path d="M369 239v-1h3v-2h-2v-1h2v-2h-2.5v-1h3.5v7z"/><path d="M397 202h4v1l-2.5 6-1-.5 2.5-5.5h-3z"/><path d="M346 202h4v1l-2.5 6-1-.5 2.5-5.5h-3z"/><path d="M346 247h4v1l-2.5 6-1-.5 2.5-5.5h-3z"/><path d="M380 247h4v1l-2.5 6-1-.5 2.5-5.5h-3z"/><path d="M380 262h4v1l-2.5 6-1-.5 2.5-5.5h-3z"/><path d="M363 262h4v1l-2.5 6-1-.5 2.5-5.5h-3z"/><path d="M348.25 262c-1.75 0-2.25 1-2.25 4s0 3 2 3 2 0 2-2.5c0-1.5 0-1.5-2-1.5h-1c0-1.5.5-2 1-2h1.5l.5-1zm-.25 4c1 0 1 0 1 1s0 1-1 1-1 0-1-1v-1z"/><path d="m366.5 233 .5-1h-4v3h2c.435 0 1 0 1 1 0 .5 0 2-1 2-1.5 0-2-1-2-1v1.167s.5.833 2 .833 2-2 2-3c0-1.5-.25-2-2-2h-1v-1z"/><path d="m355.5 263 .5-1h-4v3h2c.435 0 1 0 1 1 0 .5 0 2-1 2-1.5 0-2-1-2-1v1.167s.5.833 2 .833 2-2 2-3c0-1.5-.25-2-2-2h-1v-1z"/><path d="M399.25 247c-1.75 0-2.25 1-2.25 4s0 3 2 3 2 0 2-2.5c0-1.5 0-1.5-2-1.5h-1c0-1.5.5-2 1-2h1.5l.5-1zm-.25 4c1 0 1 0 1 1s0 1-1 1-1 0-1-1v-1z"/><path d="M399.25 262c-1.75 0-2.25 1-2.25 4s0 3 2 3 2 0 2-2.5c0-1.5 0-1.5-2-1.5h-1c0-1.5.5-2 1-2h1.5l.5-1zm-.25 4c1 0 1 0 1 1s0 1-1 1-1 0-1-1v-1z"/><path d="M371 202a2 3.5 0 0 0-2 3.5 2 3.5 0 0 0 2 3.5 2 3.5 0 0 0 2-3.5 2 3.5 0 0 0-2-3.5zm0 1a1 2.5 0 0 1 1 2.5 1 2.5 0 0 1-1 2.5 1 2.5 0 0 1-1-2.5 1 2.5 0 0 1 1-2.5z"/><path d="M354 217a2 3.5 0 0 0-2 3.5 2 3.5 0 0 0 2 3.5 2 3.5 0 0 0 2-3.5 2 3.5 0 0 0-2-3.5zm0 1a1 2.5 0 0 1 1 2.5 1 2.5 0 0 1-1 2.5 1 2.5 0 0 1-1-2.5 1 2.5 0 0 1 1-2.5z"/><path d="M354 232a2 3.5 0 0 0-2 3.5 2 3.5 0 0 0 2 3.5 2 3.5 0 0 0 2-3.5 2 3.5 0 0 0-2-3.5zm0 1a1 2.5 0 0 1 1 2.5 1 2.5 0 0 1-1 2.5 1 2.5 0 0 1-1-2.5 1 2.5 0 0 1 1-2.5z"/><path d="M388 247a2 3.5 0 0 0-2 3.5 2 3.5 0 0 0 2 3.5 2 3.5 0 0 0 2-3.5 2 3.5 0 0 0-2-3.5zm0 1a1 2.5 0 0 1 1 2.5 1 2.5 0 0 1-1 2.5 1 2.5 0 0 1-1-2.5 1 2.5 0 0 1 1-2.5z"/><path d="M403.75 254c1.75 0 2.25-1 2.25-4s0-3-2-3-2 0-2 2.5c0 1.5 0 1.5 2 1.5h1c0 1.5-.5 2-1 2h-1.5l-.5 1zm.25-4c-1 0-1 0-1-1s0-1 1-1 1 0 1 1v1z"/><path d="M370.75 224c1.75 0 2.25-1 2.25-4s0-3-2-3-2 0-2 2.5c0 1.5 0 1.5 2 1.5h1c0 1.5-.5 2-1 2h-1.5l-.5 1zm.25-4c-1 0-1 0-1-1s0-1 1-1 1 0 1 1v1z"/><path d="M403.75 209c1.75 0 2.25-1 2.25-4s0-3-2-3-2 0-2 2.5c0 1.5 0 1.5 2 1.5h1c0 1.5-.5 2-1 2h-1.5l-.5 1zm.25-4c-1 0-1 0-1-1s0-1 1-1 1 0 1 1v1z"/><path d="M353.75 194c1.75 0 2.25-1 2.25-4s0-3-2-3-2 0-2 2.5c0 1.5 0 1.5 2 1.5h1c0 1.5-.5 2-1 2h-1.5l-.5 1zm.25-4c-1 0-1 0-1-1s0-1 1-1 1 0 1 1v1z"/><path d="M367 208v1h-4v-1c0-1.5 3-1 3-3 0-1.5 0-2-1-2-1.5 0-2 .5-2 .5v-1s.5-.5 2-.5c2 0 2 1 2 3 0 2.688-1.5 2-3 3z"/><path d="M390 208v1h-4v-1c0-1.5 3-1 3-3 0-1.5 0-2-1-2-1.5 0-2 .5-2 .5v-1s.5-.5 2-.5c2 0 2 1 2 3 0 2.688-1.5 2-3 3z"/><path d="M350 223v1h-4v-1c0-1.5 3-1 3-3 0-1.5 0-2-1-2-1.5 0-2 .5-2 .5v-1s.5-.5 2-.5c2 0 2 1 2 3 0 2.688-1.5 2-3 3z"/><path d="M350 238v1h-4v-1c0-1.5 3-1 3-3 0-1.5 0-2-1-2-1.5 0-2 .5-2 .5v-1s.5-.5 2-.5c2 0 2 1 2 3 0 2.688-1.5 2-3 3z"/><path d="M390 268v1h-4v-1c0-1.5 3-1 3-3 0-1.5 0-2-1-2-1.5 0-2 .5-2 .5v-1s.5-.5 2-.5c2 0 2 1 2 3 0 2.688-1.5 2-3 3z"/><path d="m364 217-1 4v1h2v2h1v-2l1-.5v-.5h-1v-1h-.5l-.5 1h-1l.918-3.606z"/><path d="m353 247-1 4v1h2v2h1v-2l1-.5v-.5h-1v-1h-.5l-.5 1h-1l.918-3.606z"/><path d="m370 262-1 4v1h2v2h1v-2l1-.5v-.5h-1v-1h-.5l-.5 1h-1l.918-3.606z"/><path d="m386 224 .5-1h1.5v-5h-1.5l.5-1h2v6h1v1z"/><path d="m386 239 .5-1h1.5v-5h-1.5l.5-1h2v6h1v1z"/></g><rect x="164" y="239" width="32" height="44" ry="3" fill="#7b7b7b"/><rect x="165" y="240" width="30" height="40" ry="2.5" fill="#f6f6f6"/><path d="m169.5 243 .5-1h-3v3h1.5c.373 0 .5 0 .5.5 0 .6 0 1.5-.5 1.5-1 0-1.5-.5-1.5-.5v1s.5.5 1.5.5c1.5 0 1.5-1.528 1.5-2.5 0-1 0-1.5-1.5-1.5h-.5v-1z" fill="#393634" fill-opacity=".51"/><path d="M178.5 242c-1.5 0-1.5 0-1.5 3s0 3 1.5 3 1.5 0 1.5-2 0-2-1.5-2h-.5c0-.5 0-1 .5-1h1l.5-1zm0 3c.276 0 .5.448.5 1s-.224 1-.5 1-.5-.448-.5-1v-1h.5z" fill="#393634" fill-opacity=".51"/><path d="m184 242-.5 1H182v1h1v1h-1v3h-1v-6z" fill="#393634" fill-opacity=".51"/><path d="M185 242h3v1l-2 5-1-.5 2-4.5h-2z" fill="#393634" fill-opacity=".51"/><path d="M168 252c0 4 0 4 1 4v-2h1v4h-1v-1c-2 0-2 0-2-5z" fill="#393634" fill-opacity=".51"/><path d="M172.5 258c1.5 0 1.5 0 1.5-3s0-3-1.5-3-1.5 0-1.5 2 0 2 1.5 2h.5c0 .5 0 1-.5 1h-1l-.5 1zm0-3c-.276 0-.5-.448-.5-1s.224-1 .5-1 .5.448.5 1v1h-.5z" fill="#393634" fill-opacity=".51"/><path d="M177.5 252c-1.5 0-1.5 0-1.5 3s0 3 1.5 3 1.5 0 1.5-2 0-2-1.5-2h-.5c0-.5 0-1 .5-1h1l.5-1zm0 3c.276 0 .5.448.5 1s-.224 1-.5 1-.5-.448-.5-1v-1h.5z" fill="#393634" fill-opacity=".51"/><path d="M180 258v-1h2v-1h-1v-1h1v-2h-1.5l-.5-1h3v6z" fill="#393634" fill-opacity=".51"/><path d="m192 252-.5 1H190v1h1v1h-1v3h-1v-6z" fill="#393634" fill-opacity=".51"/><path d="M186.5 252c-1.5 0-1.5 0-1.5 3s0 3 1.5 3 1.5 0 1.5-2 0-2-1.5-2h-.5c0-.5 0-1 .5-1h1l.5-1zm0 3c.276 0 .5.448.5 1s-.224 1-.5 1-.5-.448-.5-1v-1h.5z" fill="#393634" fill-opacity=".51"/><path d="M168.5 262c-1.5 0-1.5 0-1.5 3s0 3 1.5 3 1.5 0 1.5-2 0-2-1.5-2h-.5c0-.5 0-1 .5-1h1l.5-1zm0 3c.276 0 .5.448.5 1s-.224 1-.5 1-.5-.448-.5-1v-1h.5z" fill="#393634" fill-opacity=".51"/><path d="m174 262-.5 1H172v1h1v1h-1v2h1.5l.5 1h-3v-6z" fill="#393634" fill-opacity=".51"/><path d="M180 268v-1h2v-1h-1v-1h1v-2h-1.5l-.5-1h3v6z" fill="#393634" fill-opacity=".51"/><path d="m188 267-.5 1H185v-3h1.5c.373 0 .5 0 .5-.5 0-.6 0-1.5-.5-1.5-1 0-1.5.5-1.5.5v-1s.5-.5 1.5-.5c1.5 0 1.5 1.528 1.5 2.5 0 1 0 1.5-1.5 1.5h-.5v1z" fill="#393634" fill-opacity=".51"/><path d="M176 262h3v1l-2 5-1-.5 2-4.5h-2z" fill="#393634" fill-opacity=".51"/><path d="M168 272c0 4 0 4 1 4v-2h1v4h-1v-1c-2 0-2 0-2-5z" fill="#393634" fill-opacity=".51"/><path d="M172.5 278c1.5 0 1.5 0 1.5-3s0-3-1.5-3-1.5 0-1.5 2 0 2 1.5 2h.5c0 .5 0 1-.5 1h-1l-.5 1zm0-3c-.276 0-.5-.448-.5-1s.224-1 .5-1 .5.448.5 1v1h-.5z" fill="#393634" fill-opacity=".51"/><path d="M177.5 272c-1.5 0-1.5 0-1.5 3s0 3 1.5 3 1.5 0 1.5-2 0-2-1.5-2h-.5c0-.5 0-1 .5-1h1l.5-1zm0 3c.276 0 .5.448.5 1s-.224 1-.5 1-.5-.448-.5-1v-1h.5z" fill="#393634" fill-opacity=".51"/><path d="M186.5 272c-1.5 0-1.5 0-1.5 3s0 3 1.5 3 1.5 0 1.5-2 0-2-1.5-2h-.5c0-.5 0-1 .5-1h1l.5-1zm0 3c.276 0 .5.448.5 1s-.224 1-.5 1-.5-.448-.5-1v-1h.5z" fill="#393634" fill-opacity=".51"/><path d="m192 272-.5 1H190v1h1v1h-1v2h1.5l.5 1h-3v-6z" fill="#393634" fill-opacity=".51"/><path d="m181 272-.5 1h.5v4h-1v1h3v-1h-1v-5z" fill="#393634" fill-opacity=".51"/><rect x="105" y="254" width="22" height="29" ry="2" fill="#7b7b7b"/><rect x="106" y="255" width="20" height="26" ry="1.5" fill="#f6f6f6"/><path d="m110.5 257 .5-1h-3v3h1.5c.373 0 .5 0 .5.5 0 .6 0 1.5-.5 1.5-1 0-1.5-.5-1.5-.5v1s.5.5 1.5.5c1.5 0 1.5-1.528 1.5-2.5 0-1 0-1.5-1.5-1.5h-.5v-1z" fill="#393634" fill-opacity=".51"/><path d="M118.5 256c-1.5 0-1.5 0-1.5 3s0 3 1.5 3 1.5 0 1.5-2 0-2-1.5-2h-.5c0-.5 0-1 .5-1h1l.5-1zm0 3c.276 0 .5.448.5 1s-.224 1-.5 1-.5-.448-.5-1v-1h.5z" fill="#393634" fill-opacity=".51"/><path d="m124 256-.5 1H122v1h1v1h-1v3h-1v-6z" fill="#393634" fill-opacity=".51"/><path d="M108 265h3v1l-2 5-1-.5 2-4.5h-2z" fill="#393634" fill-opacity=".51"/><path d="M118 265c0 4 0 4 1 4v-2h1v4h-1v-1c-2 0-2 0-2-5z" fill="#393634" fill-opacity=".51"/><path d="M122.5 271c1.5 0 1.5 0 1.5-3s0-3-1.5-3-1.5 0-1.5 2 0 2 1.5 2h.5c0 .5 0 1-.5 1h-1l-.5 1zm0-3c-.276 0-.5-.448-.5-1s.224-1 .5-1 .5.448.5 1v1h-.5z" fill="#393634" fill-opacity=".51"/><path d="M109.5 274c-1.5 0-1.5 0-1.5 3s0 3 1.5 3 1.5 0 1.5-2 0-2-1.5-2h-.5c0-.5 0-1 .5-1h1l.5-1zm0 3c.276 0 .5.448.5 1s-.224 1-.5 1-.5-.448-.5-1v-1h.5z" fill="#393634" fill-opacity=".51"/><path d="M112 280v-1h2v-1h-1v-1h1v-2h-1.5l-.5-1h3v6z" fill="#393634" fill-opacity=".51"/><path d="m124 274-.5 1H122v1h1v1h-1v3h-1v-6z" fill="#393634" fill-opacity=".51"/><path d="M118.5 274c-1.5 0-1.5 0-1.5 3s0 3 1.5 3 1.5 0 1.5-2 0-2-1.5-2h-.5c0-.5 0-1 .5-1h1l.5-1zm0 3c.276 0 .5.448.5 1s-.224 1-.5 1-.5-.448-.5-1v-1h.5z" fill="#393634" fill-opacity=".51"/><path d="M113.5 256a1.5 3 0 0 0-1.5 3 1.5 3 0 0 0 1.5 3 1.5 3 0 0 0 1.5-3 1.5 3 0 0 0-1.5-3zm0 1a.5 2 0 0 1 .5 2 .5 2 0 0 1-.5 2 .5 2 0 0 1-.5-2 .5 2 0 0 1 .5-2z" fill="#393634" fill-opacity=".51"/><path d="M113.5 265a1.5 3 0 0 0-1.5 3 1.5 3 0 0 0 1.5 3 1.5 3 0 0 0 1.5-3 1.5 3 0 0 0-1.5-3zm0 1a.5 2 0 0 1 .5 2 .5 2 0 0 1-.5 2 .5 2 0 0 1-.5-2 .5 2 0 0 1 .5-2z" fill="#393634" fill-opacity=".51"/><path d="M172.5 242a1.5 3 0 0 0-1.5 3 1.5 3 0 0 0 1.5 3 1.5 3 0 0 0 1.5-3 1.5 3 0 0 0-1.5-3zm0 1a.5 2 0 0 1 .5 2 .5 2 0 0 1-.5 2 .5 2 0 0 1-.5-2 .5 2 0 0 1 .5-2z" fill="#393634" fill-opacity=".51"/><path d="M190.5 242a1.5 3 0 0 0-1.5 3 1.5 3 0 0 0 1.5 3 1.5 3 0 0 0 1.5-3 1.5 3 0 0 0-1.5-3zm0 1a.5 2 0 0 1 .5 2 .5 2 0 0 1-.5 2 .5 2 0 0 1-.5-2 .5 2 0 0 1 .5-2z" fill="#393634" fill-opacity=".51"/><path d="M190.5 262a1.5 3 0 0 0-1.5 3 1.5 3 0 0 0 1.5 3 1.5 3 0 0 0 1.5-3 1.5 3 0 0 0-1.5-3zm0 1a.5 2 0 0 1 .5 2 .5 2 0 0 1-.5 2 .5 2 0 0 1-.5-2 .5 2 0 0 1 .5-2z" fill="#393634" fill-opacity=".51"/><rect x="58" y="260" width="20" height="24" ry="2" fill="#7b7b7b"/><rect x="59" y="261" width="18" height="22" ry="1.5" fill="#f6f6f6"/><rect x="18" y="268" width="12" height="16" ry="2" fill="#7b7b7b"/><rect x="19" y="269" width="10" height="14" ry="1.5" fill="#f6f6f6"/><g fill="#393634" fill-opacity=".51" aria-label="0x"><path d="M64.5 266c-2.17 0-3.5 1.653-3.5 4.997 0 3.359 1.33 5 3.5 5s3.5-1.641 3.5-5c0-3.344-1.33-4.997-3.5-4.997zm0 .997c1.261 0 2.5 1.023 2.5 4 0 2.992-1.239 4-2.5 4-1.247 0-2.5-1.008-2.5-4 0-2.977 1.253-4 2.5-4zm0 3c-.543 0-1 .472-1 1 0 .543.457 1 1 1 .557 0 1-.457 1-1 0-.528-.443-1-1-1z"/><path d="m69.5 276 2-3 2 3H75l-3-4 2.726-3.73h-1.423L71.5 271l-2-3H68l3 4-3 4z"/></g><path d="M24 271.007c-2.17 0-4 1.654-4 4.998 0 3.358 1.83 5 4 5s4-1.642 4-5c0-3.344-1.83-4.998-4-4.998zm0 .998c1.261 0 3 1.022 3 4 0 2.992-1.739 4-3 4-1.247 0-3-1.008-3-4 0-2.978 1.753-4 3-4zm0 3c-.543 0-1 .472-1 1 0 .542.457 1 1 1 .557 0 1-.458 1-1 0-.528-.443-1-1-1z" fill="#393634" fill-opacity=".51" aria-label="0x"/></g></svg>