<svg version="1.0" viewBox="0 0 48 48" xmlns="http://www.w3.org/2000/svg"><path d="M10.6 2A3.591 3.591 0 0 0 7 5.6v37.8c0 1.995 1.606 3.6 3.6 3.6h26.801c1.994 0 3.6-1.605 3.6-3.6V15L28 2z" fill="#6f6f6f"/><path d="M40 15v27c0 1.662-1.338 3-3 3H11c-1.662 0-3-1.338-3-3V6c0-1.662 1.338-3 3-3h17" fill="#ececec"/><path d="M40 17H30c-1.662 0-3-1.338-3-3V3h1l12 12z" fill="#6f6f6f" fill-opacity=".502"/><path d="M40 15h-9c-1.662 0-3-1.338-3-3V3" fill="#fafafa"/><path d="m21.38 19.5-.231 2.766a8.25 8.25 0 0 0-2.412 1.394l-2.513-1.183-2.625 4.546 2.282 1.586A8.25 8.25 0 0 0 15.755 30a8.25 8.25 0 0 0 .12 1.397l-2.276 1.58 2.625 4.546 2.507-1.18a8.25 8.25 0 0 0 2.417 1.386l.232 2.771h5.25l.231-2.766a8.25 8.25 0 0 0 2.411-1.394l2.514 1.183 2.625-4.546-2.282-1.585A8.25 8.25 0 0 0 32.255 30a8.25 8.25 0 0 0-.12-1.397l2.276-1.58-2.625-4.546-2.508 1.18a8.25 8.25 0 0 0-2.417-1.385L26.63 19.5zm2.625 7.5a3 3 0 0 1 3 3 3 3 0 0 1-3 3 3 3 0 0 1-3-3 3 3 0 0 1 3-3z" fill="#474341" fill-opacity=".69"/></svg>