<svg version="1.0" viewBox="0 0 48 48" xmlns="http://www.w3.org/2000/svg"><g transform="translate(-156 2464)"><rect x="164" y="-2460" width="33" height="39" ry="3" fill="#425c0b"/><rect x="165" y="-2459" width="31" height="37" ry="2.5" fill="#dedede"/><rect x="164" y="-2461" width="31" height="36" ry="3" fill="#425c0b"/><rect x="165" y="-2460" width="29" height="34" ry="2.4" fill="#85b916"/><path d="M167.4-2460c-1.33 0-2.4 1.07-2.4 2.4v33.2c0 1.329 1.07 2.4 2.4 2.4h.6v-38z" fill="#293907"/><path d="m181-2435.7-6.165-6.165 6.165-6.164 2.055 2.055-4.11 4.109 2.055 2.055 6.164-6.164-5.37-5.37a1.123 1.123 0 0 0-1.588 0l-8.686 8.685a1.124 1.124 0 0 0 0 1.589l8.686 8.685c.439.439 1.15.439 1.588 0l8.686-8.685a1.124 1.124 0 0 0 0-1.589l-1.26-1.26z" fill="#fff"/></g></svg>