<svg version="1.0" viewBox="0 0 48 48" xmlns="http://www.w3.org/2000/svg"><g transform="translate(-156 -236)"><path d="M177 240c-2.216 0-4 1.784-4 4v2h-10c-1.662 0-3 1.338-3 3v11h6.111c1.047 0 1.889.842 1.889 1.889v.222c0 .15-.022.291-.055.43A2.989 2.989 0 0 1 165 265h-5v13c0 1.662 1.338 3 3 3h11v-4c0-1.662 1.338-3 3-3s3 1.338 3 3v4h11c1.662 0 3-1.338 3-3v-11h2c2.216 0 4-1.784 4-4v-1c0-2.216-1.784-4-4-4h-2v-9c0-1.662-1.338-3-3-3h-10v-2c0-2.216-1.784-4-4-4z" fill="#396247"/><path d="M163.5 247a2.495 2.495 0 0 0-2.5 2.5v8.5h4c2.216 0 4 1.784 4 4s-1.784 4-4 4h-4v10.5c0 1.385 1.115 2.5 2.5 2.5h9.5v-3c0-2.216 1.784-4 4-4s4 1.784 4 4v3h9.5c1.385 0 2.5-1.115 2.5-2.5v-27c0-1.385-1.115-2.5-2.5-2.5z" fill="#73c48f"/><rect x="174" y="241" width="6" height="9.708" ry="3" fill="#73c48f"/><rect transform="rotate(-90)" x="-265" y="189.29" width="6" height="9.708" ry="3" fill="#73c48f"/></g></svg>