<svg version="1.0" viewBox="0 0 48 48" xmlns="http://www.w3.org/2000/svg"><path d="M10.6 2A3.591 3.591 0 0 0 7 5.6v37.8c0 1.995 1.606 3.6 3.6 3.6h26.801c1.994 0 3.6-1.605 3.6-3.6V15L28 2z" fill="#671d00"/><path d="M40 15v27c0 1.662-1.338 3-3 3H11c-1.662 0-3-1.338-3-3V6c0-1.662 1.338-3 3-3h17" fill="#cf3b00"/><path d="M40 17H30c-1.662 0-3-1.338-3-3V3h1l12 12z" fill="#671d00" fill-opacity=".502"/><path d="M40 15h-9c-1.662 0-3-1.338-3-3V3" fill="#f15d22"/><g fill="#f6f6f6"><path d="M18 31a4 4 0 0 0-4-4h-4v12h2v-4h2a4 4 0 0 0 4-4zm-2 0a2 2 0 0 1-2 2h-2v-4h2a2 2 0 0 1 2 2z"/><path d="M20 27v12h4c2.216 0 4-1.784 4-4v-4c0-2.216-1.784-4-4-4h-2zm2 2h2c1.108 0 2 .892 2 2v4c0 1.108-.892 2-2 2h-2z"/><path d="M30 27v12h2v-5h4v-2h-4v-3h6v-2h-7z"/></g></svg>