<svg version="1.0" viewBox="0 0 48 48" xmlns="http://www.w3.org/2000/svg"><g transform="translate(-156 -236)"><rect x="159" y="247" width="42" height="32" ry="3.75" fill="#ffcc85"/><path d="M184 256a2 2 0 0 0-2 2v6.188a2.927 2.927 0 0 0-1-.188 3 3 0 1 0 3 3v-7h6v4.188a2.927 2.927 0 0 0-1-.188 3 3 0 1 0 3 3v-9a2 2 0 0 0-2-2z" fill-opacity=".196"/><path d="M184 255a2 2 0 0 0-2 2v6.188a2.927 2.927 0 0 0-1-.188 3 3 0 1 0 3 3v-7h6v4.188a2.927 2.927 0 0 0-1-.188 3 3 0 1 0 3 3v-9a2 2 0 0 0-2-2z" fill="#fff"/><rect x="159" y="247" width="11" height="32" ry="3.75" fill="#faa41a"/><path fill="#faa41a" d="M165 247h5v32h-5z"/><path d="M162.75 247a3.742 3.742 0 0 0-3.75 3.75v24.5a3.742 3.742 0 0 0 3.75 3.75h34.5a3.742 3.742 0 0 0 3.75-3.75v-24.5a3.742 3.742 0 0 0-3.75-3.75zm.25 1h34c1.662 0 3 1.338 3 3v22c0 1.662-1.338 3-3 3h-34c-1.662 0-3-1.338-3-3v-22c0-1.662 1.338-3 3-3z" fill-opacity=".502"/></g></svg>