<svg version="1.0" viewBox="0 0 48 48" xmlns="http://www.w3.org/2000/svg"><path d="M10.6 2A3.591 3.591 0 0 0 7 5.6v37.8c0 1.995 1.606 3.6 3.6 3.6h26.801c1.994 0 3.6-1.605 3.6-3.6V15L28 2z" fill="#6f6f6f"/><path d="M40 15v27c0 1.662-1.338 3-3 3H11c-1.662 0-3-1.338-3-3V6c0-1.662 1.338-3 3-3h17" fill="#ececec"/><path d="M40 17H30c-1.662 0-3-1.338-3-3V3h1l12 12z" fill="#6f6f6f" fill-opacity=".502"/><path d="M40 15h-9c-1.662 0-3-1.338-3-3V3" fill="#fafafa"/><path d="M15 37h2l8-20h2l8 20h2v2h-7v-2h2l-1.43-4h-9.11L20 37h2v2h-7zm7-6h8l-3.992-10.422z"/><path d="M14 38.5h-2.5v-21H14" fill="none" stroke="#000" stroke-opacity=".251"/><path d="M36.5 40v2.5h-21V40" fill="none" stroke="#000" stroke-opacity=".251"/></svg>