<svg version="1.0" viewBox="0 0 48 48" xmlns="http://www.w3.org/2000/svg"><g transform="translate(-156 -236)"><rect x="159" y="247" width="42" height="32" ry="3" fill="#245c63"/><rect x="160" y="248" width="40" height="28" ry="2.5" fill="#48b9c7"/><rect x="163" y="251" width="33" height="22" ry="2" fill="#f6f6f6"/><path d="M169 257.5v12h21v-12zm10.5 1.5a4.5 4.5 0 0 1 4.5 4.5 4.5 4.5 0 0 1-4.5 4.5 4.5 4.5 0 0 1-4.5-4.5 4.5 4.5 0 0 1 4.5-4.5z" fill="#1c8d9b" fill-opacity=".502"/><path d="m178 253-3 3h-4.5c-.831 0-1.5.669-1.5 1.5v.5h21v-.5c0-.831-.669-1.5-1.5-1.5H184l-3-3zm-9 16v.5c0 .831.669 1.5 1.5 1.5h18c.831 0 1.5-.669 1.5-1.5v-.5z" fill="#1c8d9b"/></g><style>.st0{fill:#261300}.st1{fill:#ff7c00}</style></svg>