<svg version="1.0" viewBox="0 0 48 48" xmlns="http://www.w3.org/2000/svg"><path d="M10.6 2A3.591 3.591 0 0 0 7 5.6v37.8c0 1.995 1.606 3.6 3.6 3.6h26.801c1.994 0 3.6-1.605 3.6-3.6V15L28 2z" fill="#6f6f6f"/><path d="M40 15v27c0 1.662-1.338 3-3 3H11c-1.662 0-3-1.338-3-3V6c0-1.662 1.338-3 3-3h17" fill="#ececec"/><path d="M40 17H30c-1.662 0-3-1.338-3-3V3h1l12 12z" fill="#6f6f6f" fill-opacity=".502"/><path d="M40 15h-9c-1.662 0-3-1.338-3-3V3" fill="#fafafa"/><path d="M8 24v3a18 18 0 0 1 18 18h3A21 21 0 0 0 8 24zm0 6v3a12 12 0 0 1 12 12h3A15 15 0 0 0 8 30zm0 6v3a6 6 0 0 1 6 6h3a9 9 0 0 0-9-9zm0 6c0 1.662 1.338 3 3 3a3 3 0 0 0-3-3z" fill="#b0b0b0"/></svg>