<svg version="1.0" viewBox="0 0 48 48" xmlns="http://www.w3.org/2000/svg"><path d="M10.6 2A3.591 3.591 0 0 0 7 5.6v37.8c0 1.995 1.606 3.6 3.6 3.6h26.801c1.994 0 3.6-1.605 3.6-3.6V15L28 2z" fill="#6f6f6f"/><path d="M40 15v27c0 1.662-1.338 3-3 3H11c-1.662 0-3-1.338-3-3V6c0-1.662 1.338-3 3-3h17" fill="#ececec"/><path d="M40 17H30c-1.662 0-3-1.338-3-3V3h1l12 12z" fill="#6f6f6f" fill-opacity=".502"/><path d="M40 15h-9c-1.662 0-3-1.338-3-3V3" fill="#fafafa"/><path d="m180-5741.1-.438.219-6 3.062-.562.282v9.249l.563.282 6 2.937.437.219.438-.219 6-3 .562-.281v-9.25l-.563-.281-6-3zm0 2.25 5 2.5v6.75l-5 2.5v-6.75l-.438-.219-4.53-2.281z" color="#000" fill="#888" style="text-decoration-line:none;text-indent:0;text-transform:none" transform="translate(-156 5764)"/><path d="m24 30.1 5-2.5v6.75l-5 2.5z" fill="#888" opacity=".5"/></svg>