<svg version="1.0" viewBox="0 0 48 48" xmlns="http://www.w3.org/2000/svg"><g transform="translate(-156 2164)"><rect x="160" y="-2160" width="40" height="39" ry="3" fill="#a19282"/><rect x="161" y="-2159" width="38" height="26" ry="2.5" fill="#d7c3ad"/><path d="M171-2126.5h18m7.5-6-7.5 6 7.5 4.5m-33-10.5 7.5 6-7.5 4.5" fill="none" stroke="#000" stroke-opacity=".251"/><g fill="#635749"><path d="M166-2140h2v-4h4v4h2v-8a4 4 0 0 0-4-4 4 4 0 0 0-4 4zm2-6v-2a2 2 0 0 1 2-2 2 2 0 0 1 2 2v2z"/><path d="M184-2148a4 4 0 0 0-4-4h-4v12h2v-4h2a4 4 0 0 0 4-4zm-2 0a2 2 0 0 1-2 2h-2v-4h2a2 2 0 0 1 2 2z"/><path d="M186-2152v12h2v-6l.164-.164L192-2140h2l-4.61-7.39L194-2152h-2.219l-3.781 3.781V-2152z"/></g></g></svg>