<svg version="1.0" viewBox="0 0 48 48" xmlns="http://www.w3.org/2000/svg"><defs><linearGradient id="a" x1="60" x2="68" y1="268" y2="268" gradientTransform="matrix(.5 0 0 .5 136 -6183)" gradientUnits="userSpaceOnUse"><stop stop-color="#949390" offset="0"/><stop stop-color="#d5d3cf" offset=".083"/><stop stop-color="#949390" offset=".167"/><stop stop-color="#949390" offset=".833"/><stop stop-color="#d5d3cf" offset=".917"/><stop stop-color="#949390" offset="1"/></linearGradient></defs><g transform="translate(-156 3064)"><rect x="160" y="-3060" width="40" height="39" ry="3" fill="#a19282"/><rect x="161" y="-3059" width="38" height="26" ry="2.5" fill="#d7c3ad"/><path d="M171-3026.5h18m7.5-6-7.5 6 7.5 4.5m-33-10.5 7.5 6-7.5 4.5" fill="none" stroke="#000" stroke-opacity=".251"/><g transform="translate(0 3000)"><path fill-opacity=".251" d="M166-6059h2v26h-2z"/><path fill="#fff" fill-opacity=".251" d="M168-6059h2v26h-2z"/><rect x="166" y="-6059" width="2" height="2" ry="0" fill-opacity=".502"/><path fill-opacity=".502" d="M166-6055h2v2h-2z"/><path fill-opacity=".502" d="M166-6051h2v2h-2z"/><path fill-opacity=".502" d="M166-6047h2v2h-2z"/><path fill-opacity=".502" d="M166-6043h2v2h-2z"/><path fill-opacity=".502" d="M166-6039h2v2h-2z"/><path fill-opacity=".502" d="M166-6035h2v2h-2z"/><rect x="168" y="-6057" width="2" height="2" ry="0" fill="#131313" fill-opacity=".502"/><path fill="#131313" fill-opacity=".502" d="M168-6053h2v2h-2z"/><path fill="#131313" fill-opacity=".502" d="M168-6049h2v2h-2z"/><path fill="#131313" fill-opacity=".502" d="M168-6045h2v2h-2z"/><path fill="#131313" fill-opacity=".502" d="M168-6041h2v2h-2z"/><path fill="#131313" fill-opacity=".502" d="M168-6037h2v2h-2z"/><rect x="168" y="-6059" width="2" height="2" ry="0" fill="#f4f4f4" fill-opacity=".502"/><path fill="#f4f4f4" fill-opacity=".502" d="M168-6055h2v2h-2z"/><path fill="#f4f4f4" fill-opacity=".502" d="M168-6051h2v2h-2z"/><path fill="#f4f4f4" fill-opacity=".502" d="M168-6047h2v2h-2z"/><path fill="#f4f4f4" fill-opacity=".502" d="M168-6043h2v2h-2z"/><path fill="#f4f4f4" fill-opacity=".502" d="M168-6039h2v2h-2z"/><path fill="#f4f4f4" fill-opacity=".502" d="M168-6035h2v2h-2z"/><rect x="166" y="-6057" width="2" height="2" ry="0" fill="#fdfdfd" fill-opacity=".502"/><path fill="#fdfdfd" fill-opacity=".502" d="M166-6053h2v2h-2z"/><path fill="#fdfdfd" fill-opacity=".502" d="M166-6049h2v2h-2z"/><path fill="#fdfdfd" fill-opacity=".502" d="M166-6045h2v2h-2z"/><path fill="#fdfdfd" fill-opacity=".502" d="M166-6041h2v2h-2z"/><path fill="#fdfdfd" fill-opacity=".502" d="M166-6037h2v2h-2z"/><path d="M167-6054c-.554 0-1 .446-1 1v8c0 .554.446 1 1 1h2c.554 0 1-.446 1-1v-8c0-.554-.446-1-1-1zm0 7h2v2h-2z" fill="url(#a)"/><rect x="164" y="-6058" width="8" height="9" rx="2" ry="2" fill="#3d3846"/><rect x="164" y="-6059" width="8" height="9" rx="2" ry="2" fill="#5e5c64"/><path d="M167-6056c-.554 0-1 .446-1 1v9c0 .554.446 1 1 1h2c.554 0 1-.446 1-1v-9c0-.554-.446-1-1-1zm0 8h2v2h-2z" fill="#fff"/><rect transform="scale(1 -1)" x="167" y="6053" width="2" height="5" rx="1" ry="1" fill="#68676b" style="paint-order:normal"/><rect transform="scale(1 -1)" x="167" y="6054" width="2" height="4" rx="1" ry="1" fill="#949390" style="paint-order:normal"/></g><g fill="#635749"><path d="m185-3052-6 12h-2l6-12z"/><path d="m177-3052 6 12h2l-6-12z"/><path d="M187-3050h6l-6 8v2h8v-2h-6l6-8v-2h-8z"/></g></g></svg>