<svg version="1.0" viewBox="0 0 48 48" xmlns="http://www.w3.org/2000/svg"><defs><linearGradient id="a" x1="60" x2="68" y1="268" y2="268" gradientTransform="matrix(.5 0 0 .5 136 -5583)" gradientUnits="userSpaceOnUse"><stop stop-color="#949390" offset="0"/><stop stop-color="#d5d3cf" offset=".083"/><stop stop-color="#949390" offset=".167"/><stop stop-color="#949390" offset=".833"/><stop stop-color="#d5d3cf" offset=".917"/><stop stop-color="#949390" offset="1"/></linearGradient></defs><g transform="translate(-156 2464)"><rect x="160" y="-2460" width="40" height="39" ry="3" fill="#a19282"/><rect x="161" y="-2459" width="38" height="26" ry="2.5" fill="#d7c3ad"/><path d="M171-2426.5h18m7.5-6-7.5 6 7.5 4.5m-33-10.5 7.5 6-7.5 4.5" fill="none" stroke="#000" stroke-opacity=".251"/><g transform="translate(0 3000)"><path fill-opacity=".251" d="M166-5459h2v26h-2z"/><path fill="#fff" fill-opacity=".251" d="M168-5459h2v26h-2z"/><rect x="166" y="-5459" width="2" height="2" ry="0" fill-opacity=".502"/><path fill-opacity=".502" d="M166-5455h2v2h-2z"/><path fill-opacity=".502" d="M166-5451h2v2h-2z"/><path fill-opacity=".502" d="M166-5447h2v2h-2z"/><path fill-opacity=".502" d="M166-5443h2v2h-2z"/><path fill-opacity=".502" d="M166-5439h2v2h-2z"/><path fill-opacity=".502" d="M166-5435h2v2h-2z"/><rect x="168" y="-5457" width="2" height="2" ry="0" fill="#131313" fill-opacity=".502"/><path fill="#131313" fill-opacity=".502" d="M168-5453h2v2h-2z"/><path fill="#131313" fill-opacity=".502" d="M168-5449h2v2h-2z"/><path fill="#131313" fill-opacity=".502" d="M168-5445h2v2h-2z"/><path fill="#131313" fill-opacity=".502" d="M168-5441h2v2h-2z"/><path fill="#131313" fill-opacity=".502" d="M168-5437h2v2h-2z"/><rect x="168" y="-5459" width="2" height="2" ry="0" fill="#f4f4f4" fill-opacity=".502"/><path fill="#f4f4f4" fill-opacity=".502" d="M168-5455h2v2h-2z"/><path fill="#f4f4f4" fill-opacity=".502" d="M168-5451h2v2h-2z"/><path fill="#f4f4f4" fill-opacity=".502" d="M168-5447h2v2h-2z"/><path fill="#f4f4f4" fill-opacity=".502" d="M168-5443h2v2h-2z"/><path fill="#f4f4f4" fill-opacity=".502" d="M168-5439h2v2h-2z"/><path fill="#f4f4f4" fill-opacity=".502" d="M168-5435h2v2h-2z"/><rect x="166" y="-5457" width="2" height="2" ry="0" fill="#fdfdfd" fill-opacity=".502"/><path fill="#fdfdfd" fill-opacity=".502" d="M166-5453h2v2h-2z"/><path fill="#fdfdfd" fill-opacity=".502" d="M166-5449h2v2h-2z"/><path fill="#fdfdfd" fill-opacity=".502" d="M166-5445h2v2h-2z"/><path fill="#fdfdfd" fill-opacity=".502" d="M166-5441h2v2h-2z"/><path fill="#fdfdfd" fill-opacity=".502" d="M166-5437h2v2h-2z"/><path d="M167-5454c-.554 0-1 .446-1 1v8c0 .554.446 1 1 1h2c.554 0 1-.446 1-1v-8c0-.554-.446-1-1-1zm0 7h2v2h-2z" fill="url(#a)"/><rect x="164" y="-5458" width="8" height="9" rx="2" ry="2" fill="#3d3846"/><rect x="164" y="-5459" width="8" height="9" rx="2" ry="2" fill="#5e5c64"/><path d="M167-5456c-.554 0-1 .446-1 1v9c0 .554.446 1 1 1h2c.554 0 1-.446 1-1v-9c0-.554-.446-1-1-1zm0 8h2v2h-2z" fill="#fff"/><rect transform="scale(1 -1)" x="167" y="5453" width="2" height="5" rx="1" ry="1" fill="#68676b" style="paint-order:normal"/><rect transform="scale(1 -1)" x="167" y="5454" width="2" height="4" rx="1" ry="1" fill="#949390" style="paint-order:normal"/></g><g fill="#635749"><path d="M174-2440h2v-4h3v4h2v-8c0-2.21-1.29-4-3.5-4s-3.5 1.79-3.5 4zm2-6v-2c0-1.105.395-2 1.5-2s1.5.895 1.5 2v2z"/><path d="M193.5-2452c-2.216 0-3.5 1.784-3.5 4v4c0 2.216 1.284 4 3.5 4s3.5-1.784 3.5-4h-2c0 1.108-.392 2-1.5 2s-1.5-.892-1.5-2v-4c0-1.108.392-2 1.5-2s1.5.892 1.5 2h2c0-2.216-1.284-4-3.5-4z"/><path d="M182-2440h2v-4h1l2 4h2l-1.852-4.629A4 4 0 0 0 189-2448a4 4 0 0 0-4-4h-3v4zm2-6v-4h1a2 2 0 1 1 0 4z"/></g></g></svg>