<svg version="1.0" viewBox="0 0 48 48" xmlns="http://www.w3.org/2000/svg"><g transform="translate(-156 3364)"><rect x="160" y="-3360" width="40" height="39" ry="3" fill="#a19282"/><rect x="161" y="-3359" width="38" height="26" ry="2.5" fill="#d7c3ad"/><path d="M171-3326.5h18m7.5-6-7.5 6 7.5 4.5m-33-10.5 7.5 6-7.5 4.5" fill="none" stroke="#000" stroke-opacity=".251"/><g fill="#635749"><path d="M175-3340h2v-4h4v4h2v-8a4 4 0 0 0-4-4 4 4 0 0 0-4 4zm2-6v-2a2 2 0 0 1 2-2 2 2 0 0 1 2 2v2z"/><path d="M185-3340h2v-4h2l2 4h2l-1.852-4.629A4 4 0 0 0 193-3348a4 4 0 0 0-4-4h-4v4zm2-6v-4h2a2 2 0 0 1 2 2 2 2 0 0 1-2 2z"/><path d="M168-3352v2h2v10h2v-10h2v-2z"/></g></g></svg>