<svg version="1.0" viewBox="0 0 48 48" xmlns="http://www.w3.org/2000/svg"><defs><linearGradient id="a" x1="60" x2="68" y1="268" y2="268" gradientUnits="userSpaceOnUse"><stop stop-color="#949390" offset="0"/><stop stop-color="#d5d3cf" offset=".083"/><stop stop-color="#949390" offset=".167"/><stop stop-color="#949390" offset=".833"/><stop stop-color="#d5d3cf" offset=".917"/><stop stop-color="#949390" offset="1"/></linearGradient></defs><g transform="translate(-156 -236)"><rect x="160" y="240" width="40" height="39" ry="3" fill="#a19282"/><rect x="161" y="241" width="38" height="26" ry="2.5" fill="#d7c3ad"/><path d="M171 273.5h18m7.5-6-7.5 6 7.5 4.5m-33-10.5 7.5 6-7.5 4.5" fill="none" stroke="#000" stroke-opacity=".251"/></g><g fill-opacity=".251"><path d="M10 5h2v26h-2z"/><path fill="#fff" d="M12 5h2v26h-2z"/></g><g transform="translate(-166 64)" fill-opacity=".502"><rect x="176" y="-59" width="2" height="2" ry="0"/><path d="M176-55h2v2h-2z"/><path d="M176-51h2v2h-2z"/><path d="M176-47h2v2h-2z"/><path d="M176-43h2v2h-2z"/><path d="M176-39h2v2h-2z"/><path d="M176-35h2v2h-2z"/></g><g transform="translate(-164 66)" fill="#131313" fill-opacity=".502"><rect x="176" y="-59" width="2" height="2" ry="0"/><path d="M176-55h2v2h-2z"/><path d="M176-51h2v2h-2z"/><path d="M176-47h2v2h-2z"/><path d="M176-43h2v2h-2z"/><path d="M176-39h2v2h-2z"/></g><g transform="translate(-164 64)" fill="#f4f4f4" fill-opacity=".502"><rect x="176" y="-59" width="2" height="2" ry="0"/><path d="M176-55h2v2h-2z"/><path d="M176-51h2v2h-2z"/><path d="M176-47h2v2h-2z"/><path d="M176-43h2v2h-2z"/><path d="M176-39h2v2h-2z"/><path d="M176-35h2v2h-2z"/></g><g transform="translate(-166 66)" fill="#fdfdfd" fill-opacity=".502"><rect x="176" y="-59" width="2" height="2" ry="0"/><path d="M176-55h2v2h-2z"/><path d="M176-51h2v2h-2z"/><path d="M176-47h2v2h-2z"/><path d="M176-43h2v2h-2z"/><path d="M176-39h2v2h-2z"/></g><g transform="matrix(.5 0 0 .5 -20 -119)"><path d="M62 258c-1.108 0-2 .892-2 2v16c0 1.108.892 2 2 2h4c1.108 0 2-.892 2-2v-16c0-1.108-.892-2-2-2zm0 14h4v4h-4z" fill="url(#a)"/><rect x="56" y="250" width="16" height="18" rx="4" ry="4" fill="#3d3846"/><rect x="56" y="248" width="16" height="18" rx="4" ry="4" fill="#5e5c64"/><path d="M62 254c-1.108 0-2 .892-2 2v18c0 1.108.892 2 2 2h4c1.108 0 2-.892 2-2v-18c0-1.108-.892-2-2-2zm0 16h4v4h-4z" fill="#fff"/><rect transform="scale(1 -1)" x="62" y="-260" width="4" height="10" rx="2" ry="2" fill="#68676b" style="paint-order:normal"/><rect transform="scale(1 -1)" x="62" y="-258" width="4" height="8" rx="2" ry="2" fill="#949390" style="paint-order:normal"/></g><path d="M34 25h2v-4h1l2 4h2l-1.852-4.629A4 4 0 0 0 41 17a4 4 0 0 0-4-4h-3v4zm2-6v-4h1a2 2 0 1 1 0 4z" fill="#635749"/><path d="M17 25h2v-4h1l2 4h2l-1.852-4.629A4 4 0 0 0 24 17a4 4 0 0 0-4-4h-3v4zm2-6v-4h1a2 2 0 1 1 0 4z" fill="#635749"/><path d="M33 25h-2v-4h-4v4h-2v-8a4 4 0 0 1 4-4 4 4 0 0 1 4 4zm-2-6v-2a2 2 0 0 0-2-2 2 2 0 0 0-2 2v2z" fill="#635749"/></svg>