<svg version="1.0" viewBox="0 0 48 48" xmlns="http://www.w3.org/2000/svg"><g transform="translate(-156 1864)"><rect x="160" y="-1860" width="40" height="39" ry="3" fill="#a19282"/><rect x="161" y="-1859" width="38" height="26" ry="2.5" fill="#d7c3ad"/><path d="M171-1826.5h18m7.5-6-7.5 6 7.5 4.5m-33-10.5 7.5 6-7.5 4.5" fill="none" stroke="#000" stroke-opacity=".251"/><g fill="#635749"><path d="M183-1848a4 4 0 0 0-4-4h-4v12h2v-4h2a4 4 0 0 0 4-4zm-2 0a2 2 0 0 1-2 2h-2v-4h2a2 2 0 0 1 2 2z"/><path d="M165-1840h2v-4h2l2 4h2l-1.852-4.629A4 4 0 0 0 173-1848a4 4 0 0 0-4-4h-4v4zm2-6v-4h2a2 2 0 0 1 2 2 2 2 0 0 1-2 2z"/><path d="M185-1840v-12h2l3 8 3-8h2v12h-2v-7l-2 7h-2l-2-7v7z"/></g></g></svg>