<svg version="1.0" viewBox="0 0 48 48" xmlns="http://www.w3.org/2000/svg"><g transform="translate(-156 1564)"><rect x="160" y="-1560" width="40" height="39" ry="3" fill="#a19282"/><rect x="161" y="-1559" width="38" height="26" ry="2.5" fill="#d7c3ad"/><path d="M171-1526.5h18m7.5-6-7.5 6 7.5 4.5m-33-10.5 7.5 6-7.5 4.5" fill="none" stroke="#000" stroke-opacity=".251"/><g transform="matrix(2 0 0 2 -53 1519)" fill="#635749"><path d="M108-1536v7h2.5c1.385 0 2.5-1.115 2.5-2.5v-2c0-1.385-1.115-2.5-2.5-2.5h-2zm1 1h1.5c.831 0 1.5.669 1.5 1.5v2c0 .831-.669 1.5-1.5 1.5H109z"/><rect x="114" y="-1536" width="5" height="1" ry="0"/><path d="M114-1535.5h1v6.5h-1z"/><path d="M114.5-1530h4.5v1h-4.5z"/><path d="M114.5-1533h3.5v1h-3.5z"/><path d="M120-1536h1v7h-1z"/><path d="M121-1533v1h2a1 1 0 0 1 1 1 1 1 0 0 1-1 1h-2v1h2a2 2 0 0 0 2-2 2 2 0 0 0-2-2z"/><path d="M120-1536v1h2a1 1 0 0 1 1 1 1 1 0 0 1-1 1h-2v1h2a2 2 0 0 0 2-2 2 2 0 0 0-2-2z"/></g></g></svg>