<svg version="1.0" viewBox="0 0 48 48" xmlns="http://www.w3.org/2000/svg"><path d="M10.6 2A3.591 3.591 0 0 0 7 5.6v37.8c0 1.995 1.606 3.6 3.6 3.6h26.801c1.994 0 3.6-1.605 3.6-3.6V15L28 2z" fill="#6f6f6f"/><path d="M40 15v27c0 1.662-1.338 3-3 3H11c-1.662 0-3-1.338-3-3V6c0-1.662 1.338-3 3-3h17" fill="#ececec"/><path d="M40 17H30c-1.662 0-3-1.338-3-3V3h1l12 12z" fill="#6f6f6f" fill-opacity=".502"/><path d="M40 15h-9c-1.662 0-3-1.338-3-3V3" fill="#fafafa"/><path d="M18 6a1.5 1.5 0 0 0-1.5 1.5v4.64a2.198 2.198 0 0 0-.75-.14A2.25 2.25 0 1 0 18 14.25V9h4.5v3.14a2.198 2.198 0 0 0-.75-.14A2.25 2.25 0 1 0 24 14.25V7.5A1.5 1.5 0 0 0 22.5 6z" fill="#474341" fill-opacity=".69"/><path fill="#474341" fill-opacity=".69" d="M19 24h16.5v3H19z"/><path fill="#474341" fill-opacity=".69" d="M19 30h16.5v3H19z"/><path fill="#474341" fill-opacity=".69" d="M19 36h16.5v3H19z"/><path fill="#474341" fill-opacity=".69" d="M13 24h3v3h-3z"/><path fill="#474341" fill-opacity=".69" d="M13 30h3v3h-3z"/><path fill="#474341" fill-opacity=".69" d="M13 36h3v3h-3z"/></svg>