<svg version="1.0" viewBox="0 0 48 48" xmlns="http://www.w3.org/2000/svg"><path d="M10.6 2A3.591 3.591 0 0 0 7 5.6v37.8c0 1.995 1.606 3.6 3.6 3.6h26.801c1.994 0 3.6-1.605 3.6-3.6V15L28 2z" fill="#6f6f6f"/><path d="M40 15v27c0 1.662-1.338 3-3 3H11c-1.662 0-3-1.338-3-3V6c0-1.662 1.338-3 3-3h17" fill="#ececec"/><path d="M40 17H30c-1.662 0-3-1.338-3-3V3h1l12 12z" fill="#6f6f6f" fill-opacity=".502"/><path d="M40 15h-9c-1.662 0-3-1.338-3-3V3" fill="#fafafa"/><path d="M32.12 35.1q-.093 2.03-1.095 3.594-1.002 1.55-2.82 2.405-1.803.855-4.128.855-3.834 0-6.038-2.499-2.205-2.498-2.205-7.054v-.962q0-2.859.989-4.996 1.002-2.151 2.872-3.314 1.87-1.175 4.329-1.175 3.54 0 5.691 1.87 2.151 1.857 2.445 5.13h-4.676q-.053-1.777-.895-2.551-.842-.775-2.565-.775-1.75 0-2.565 1.309-.815 1.31-.855 4.182v1.376q0 3.113.775 4.449.788 1.336 2.698 1.336 1.617 0 2.472-.762.855-.761.908-2.418z" fill="#3f51b5"/></svg>