<svg version="1.0" viewBox="0 0 48 48" xmlns="http://www.w3.org/2000/svg"><path d="M10.6 2A3.591 3.591 0 0 0 7 5.6v37.8c0 1.995 1.606 3.6 3.6 3.6h26.801c1.994 0 3.6-1.605 3.6-3.6V15L28 2z" fill="#6f6f6f"/><path d="M40 15v27c0 1.662-1.338 3-3 3H11c-1.662 0-3-1.338-3-3V6c0-1.662 1.338-3 3-3h17" fill="#ececec"/><path d="M40 17H30c-1.662 0-3-1.338-3-3V3h1l12 12z" fill="#6f6f6f" fill-opacity=".502"/><path d="M40 15h-9c-1.662 0-3-1.338-3-3V3" fill="#fafafa"/><path d="M26.51 32.4s.768.232 1.214.457c.154.078.422.235.615.44.19.2.282.405.282.405l3.06 5.344h-5.577l-2.286-4.294s-.468-.804-.756-1.037c-.24-.195-.343-.264-.58-.264H21.32v5.592h-5v-16h9c1 0 5.132.823 5.132 4.588s-3.942 4.767-3.942 4.767zm-5.19-6.355v4h2.749s1.251 0 1.374-1.957c.128-2.043-1.376-2.041-1.376-2.041z" fill="#3f51b5" fill-rule="evenodd"/></svg>