<svg version="1.0" viewBox="0 0 48 48" xmlns="http://www.w3.org/2000/svg"><path d="M10.6 2A3.591 3.591 0 0 0 7 5.6v37.8c0 1.995 1.606 3.6 3.6 3.6h26.801c1.994 0 3.6-1.605 3.6-3.6V15L28 2z" fill="#6f6f6f"/><path d="M40 15v27c0 1.662-1.338 3-3 3H11c-1.662 0-3-1.338-3-3V6c0-1.662 1.338-3 3-3h17" fill="#ececec"/><path d="M40 17H30c-1.662 0-3-1.338-3-3V3h1l12 12z" fill="#6f6f6f" fill-opacity=".502"/><path d="M40 15h-9c-1.662 0-3-1.338-3-3V3" fill="#fafafa"/><path d="m15.178 21.02 1.605 18.001 7.202 2 7.221-2.002 1.607-17.998zm3.282 3.68h11.058l-.053.592-.1 1.12-.044.496h-8.448l.201 2.26h8.046l-.054.593-.519 5.813-.033.373-4.518 1.252-.01.003-4.523-1.256-.31-3.466h2.217l.157 1.76 2.459.664h.002l2.462-.665.257-2.863h-7.652l-.542-6.084-.053-.593z" fill="#e44d26"/><path d="m15.178 21.02 1.605 18.001 7.202 2 .01-.003v-3.819l-.01.003-4.522-1.256-.31-3.466h2.217l.157 1.76 2.459.665.002-.001.008-.002v-3.526h-4.941l-.543-6.084-.053-.592h5.536v-3.68h-8.817zm5.694 5.888.202 2.26h2.922v-2.26h-.008z" opacity=".1"/></svg>