<svg version="1.0" viewBox="0 0 48 48" xmlns="http://www.w3.org/2000/svg" xmlns:xlink="http://www.w3.org/1999/xlink"><defs><linearGradient id="b" x1="500" x2="-.097" y1="579.11" y2="1079.2" gradientTransform="translate(.097 -578.99) scale(.9998)" gradientUnits="userSpaceOnUse" xlink:href="#a"/><linearGradient id="a" x1="500" x2="-.097" y1="579.11" y2="1079.2" gradientTransform="translate(.097 -578.99) scale(.9998)" gradientUnits="userSpaceOnUse"><stop stop-color="#E44857" offset=".003"/><stop stop-color="#C711E1" offset=".469"/><stop stop-color="#7F52FF" offset="1"/></linearGradient></defs><path d="M10.6 2A3.591 3.591 0 0 0 7 5.6v37.8c0 1.995 1.606 3.6 3.6 3.6h26.801c1.994 0 3.6-1.605 3.6-3.6V15L28 2z" fill="#6f6f6f"/><path d="M40 15v27c0 1.662-1.338 3-3 3H11c-1.662 0-3-1.338-3-3V6c0-1.662 1.338-3 3-3h17" fill="#ececec"/><path d="M40 17H30c-1.662 0-3-1.338-3-3V3h1l12 12z" fill="#6f6f6f" fill-opacity=".502"/><path d="M40 15h-9c-1.662 0-3-1.338-3-3V3" fill="#fafafa"/><path transform="matrix(.032 0 0 .032 16 24)" fill="url(#b)" style="fill:url(#a)" d="M0 500V0h500L250 250l250 250z"/></svg>