<svg version="1.0" viewBox="0 0 48 48" xmlns="http://www.w3.org/2000/svg"><path d="M10.6 2A3.591 3.591 0 0 0 7 5.6v37.8c0 1.995 1.606 3.6 3.6 3.6h26.801c1.994 0 3.6-1.605 3.6-3.6V15L28 2z" fill="#6f6f6f"/><path d="M40 15v27c0 1.662-1.338 3-3 3H11c-1.662 0-3-1.338-3-3V6c0-1.662 1.338-3 3-3h17" fill="#ececec"/><path d="M40 17H30c-1.662 0-3-1.338-3-3V3h1l12 12z" fill="#6f6f6f" fill-opacity=".502"/><path d="M40 15h-9c-1.662 0-3-1.338-3-3V3" fill="#fafafa"/><path d="m14.55 22 4.908 9-4.908 9h3l4.908-9-4.908-9zm5 0 4.908 9-4.908 9h3l3.408-6.25L29.366 40h3l-3.709-6.8-.654-1.2-.545-1-4.908-9zm8.272 6 1.092 2h4.544v-2zm2.181 4 1.092 2h2.363v-2z" fill="#5f5088" fill-rule="evenodd"/></svg>