<svg version="1.0" viewBox="0 0 48 48" xmlns="http://www.w3.org/2000/svg"><path d="M10.6 2A3.591 3.591 0 0 0 7 5.6v37.8c0 1.995 1.606 3.6 3.6 3.6h26.801c1.994 0 3.6-1.605 3.6-3.6V15L28 2z" fill="#6f6f6f"/><path d="M40 15v27c0 1.662-1.338 3-3 3H11c-1.662 0-3-1.338-3-3V6c0-1.662 1.338-3 3-3h17" fill="#ececec"/><path d="M40 17H30c-1.662 0-3-1.338-3-3V3h1l12 12z" fill="#6f6f6f" fill-opacity=".502"/><path d="M40 15h-9c-1.662 0-3-1.338-3-3V3" fill="#fafafa"/><g transform="translate(-352.89 845.05)"><g color="#000"><path d="M375.68-825.05c-2.682 0-4.775 1.542-4.775 3.458v1.51h-1.575c-1.916 0-3.495 2.159-3.458 4.84l.033 2.384c.037 2.681 1.575 4.775 3.49 4.775h13.51v-13.509c0-1.916-2.16-3.458-4.842-3.458z" fill="#3776ab"/><path d="M378.06-803.05c2.682 0 4.841-1.542 4.841-3.458v-1.51h1.51c1.915 0 3.42-2.159 3.457-4.84l.033-2.384c.037-2.681-1.64-4.775-3.557-4.775h-1.443v3s.033 3-3 3h-6s-3 0-3 3v4.509c0 1.916 2.094 3.458 4.776 3.458z" fill="#ffd343"/></g><circle cx="373.9" cy="-822.05" r="1" fill="#fff"/><circle cx="379.9" cy="-806.05" r="1" fill="#fff"/></g></svg>