<svg version="1.0" viewBox="0 0 48 48" xmlns="http://www.w3.org/2000/svg"><path d="M10.6 2A3.591 3.591 0 0 0 7 5.6v37.8c0 1.995 1.606 3.6 3.6 3.6h26.801c1.994 0 3.6-1.605 3.6-3.6V15L28 2z" fill="#6f6f6f"/><path d="M40 15v27c0 1.662-1.338 3-3 3H11c-1.662 0-3-1.338-3-3V6c0-1.662 1.338-3 3-3h17" fill="#ececec"/><path d="M40 17H30c-1.662 0-3-1.338-3-3V3h1l12 12z" fill="#6f6f6f" fill-opacity=".502"/><path d="M40 15h-9c-1.662 0-3-1.338-3-3V3" fill="#fafafa"/><g transform="translate(-144 6725)"><path fill="#64b5f6" d="M160-6691h16v11h-16z"/><circle cx="162" cy="-6696" r="3" fill="#1e88e5"/><circle cx="174" cy="-6696" r="3" fill="#1e88e5"/><circle cx="168" cy="-6691" r="8" fill="#64b5f6"/><circle cx="164.5" cy="-6691.5" r="2.5" fill="#fefefe"/><circle cx="171.5" cy="-6691.5" r="2.5" fill="#fefefe"/><circle cx="164" cy="-6692" r="1" fill="#333"/><circle cx="171" cy="-6692" r="1" fill="#333"/><path fill="#fff" d="M168-6687h-2v3h2z"/><path fill="#f2f2f2" d="M170-6687h-2v3h2z"/><circle cx="169.5" cy="-6686.5" r="1.5" fill="#1e88e5"/><circle cx="166.5" cy="-6686.5" r="1.5" fill="#1e88e5"/><path fill="#1e88e5" d="M166.5-6688h3v2h-3z"/><ellipse cx="168" cy="-6688" rx="1.5" ry="1" fill="#3e2723"/><path opacity=".05" d="M160-6681h16v1h-16z"/></g></svg>