<svg version="1.0" viewBox="0 0 48 48" xmlns="http://www.w3.org/2000/svg"><g transform="translate(-156 64)"><path d="M166.6-62a3.591 3.591 0 0 0-3.6 3.6v37.8c0 1.995 1.606 3.6 3.6 3.6h26.801c1.994 0 3.6-1.605 3.6-3.6V-49l-13-13z" fill="#6f6f6f"/><path d="M196-49v27c0 1.662-1.338 3-3 3h-26c-1.662 0-3-1.338-3-3v-36c0-1.662 1.338-3 3-3h17" fill="#ececec"/><path d="M196-47h-10c-1.662 0-3-1.338-3-3v-11h1l12 12z" fill="#6f6f6f" fill-opacity=".502"/><path d="M196-49h-9c-1.662 0-3-1.338-3-3v-9" fill="#fafafa"/><path d="m180-39-10-10v3l7 7-7 7v3z" fill="#6f6f6f" fill-opacity=".784"/><rect x="177" y="-32" width="16" height="3" ry="1.5" fill="#6f6f6f" fill-opacity=".784"/></g></svg>