<svg version="1.0" viewBox="0 0 48 48" xmlns="http://www.w3.org/2000/svg"><path d="M10.6 2A3.591 3.591 0 0 0 7 5.6v37.8c0 1.995 1.606 3.6 3.6 3.6h26.801c1.994 0 3.6-1.605 3.6-3.6V15L28 2z" fill="#6f6f6f"/><path d="M40 15v27c0 1.662-1.338 3-3 3H11c-1.662 0-3-1.338-3-3V6c0-1.662 1.338-3 3-3h17" fill="#ececec"/><path d="M40 17H30c-1.662 0-3-1.338-3-3V3h1l12 12z" fill="#6f6f6f" fill-opacity=".502"/><path d="M40 15h-9c-1.662 0-3-1.338-3-3V3" fill="#fafafa"/><g fill="#1976d2"><path d="M24 21a.282.282 0 0 0-.245.127l-.519.842-.245.025-.674-.725c-.137-.147-.413-.089-.483.1l-.348.92-.238.071-.8-.575c-.162-.116-.418-.018-.45.188l-.16.973-.22.117-.899-.409c-.182-.084-.416.073-.408.274l.035.987-.188.156-.966-.227c-.195-.045-.394.153-.348.348l.227.966-.156.188-.987-.035c-.2-.018-.357.23-.274.412l.409.898-.117.217-.973.16c-.198.031-.305.292-.189.455l.576.799-.071.238-.924.344c-.187.069-.242.35-.096.487l.725.667-.029.249-.838.522c-.17.105-.17.385 0 .49l.838.518.029.249-.725.671c-.146.136-.091.413.096.483l.924.345.07.238-.575.802c-.117.164-.009.423.189.455l.973.156.117.22-.409.899c-.083.182.075.416.274.408l.987-.036.156.188-.227.966c-.046.196.153.394.348.348l.966-.227.188.156-.035.988c-.008.2.226.353.408.27l.899-.405.22.113.16.973c.032.198.288.305.45.188l.8-.575.238.07.348.924c.07.187.342.244.479.096l.675-.725.248.03.519.837c.105.17.388.17.493 0l.515-.838.249-.029.675.725c.136.147.413.091.483-.096l.344-.923.238-.071.8.575c.162.116.422.018.454-.188l.156-.973.22-.113.899.405c.182.084.415-.067.408-.27l-.036-.988.189-.156.966.227c.195.046.393-.152.348-.348l-.228-.966.157-.188.987.036c.2.018.357-.226.273-.408l-.408-.899.117-.22.973-.156c.198-.031.306-.292.188-.455l-.575-.802.071-.238.923-.345c.188-.069.243-.346.096-.483l-.724-.671.028-.249.838-.518c.17-.106.17-.385 0-.49l-.838-.522-.028-.249.724-.667c.147-.137.092-.417-.096-.487l-.923-.344-.071-.238.575-.8c.118-.161.01-.422-.188-.454l-.973-.16-.117-.217.408-.898c.084-.183-.072-.42-.273-.412l-.987.035-.157-.188.228-.966c.045-.196-.153-.394-.348-.348l-.963.227-.192-.156.036-.987c.008-.2-.226-.357-.408-.274l-.899.409-.22-.117-.153-.973c-.032-.197-.295-.305-.458-.188l-.799.575-.238-.07-.344-.92c-.07-.189-.347-.245-.483-.1l-.675.724-.245-.025-.518-.842a.287.287 0 0 0-.25-.127zm0 2.727A7.273 7.273 0 0 1 31.273 31 7.273 7.273 0 0 1 24 38.273 7.273 7.273 0 0 1 16.727 31 7.273 7.273 0 0 1 24 23.727z"/><path d="M16 26v2h2v6h-2v2h7v-2h-2v-2h1c2 0 2 4 4 4h4c2 0 2-4 2-4h-2.5s.5 2-1.5 2c-.943 0-2-2-2-2h.5c1.662 0 3-1.338 3-3s-1.338-3-3-3H24zm5 2h4.5c.554 0 1 .446 1 1s-.446 1-1 1H21z"/></g></svg>