<svg version="1.0" viewBox="0 0 48 48" xmlns="http://www.w3.org/2000/svg"><path d="M10.6 2A3.591 3.591 0 0 0 7 5.6v37.8c0 1.995 1.606 3.6 3.6 3.6h26.801c1.994 0 3.6-1.605 3.6-3.6V15L28 2z" fill="#6f6f6f"/><path d="M40 15v27c0 1.662-1.338 3-3 3H11c-1.662 0-3-1.338-3-3V6c0-1.662 1.338-3 3-3h17" fill="#ececec"/><path d="M40 17H30c-1.662 0-3-1.338-3-3V3h1l12 12z" fill="#6f6f6f" fill-opacity=".502"/><path d="M40 15h-9c-1.662 0-3-1.338-3-3V3" fill="#fafafa"/><g clip-rule="evenodd" fill="#dd4f37" fill-rule="evenodd"><path d="M20.846 36.557s-.916.533.653.713c1.902.217 2.874.186 4.97-.21 0 0 .551.345 1.32.644-4.698 2.013-10.633-.116-6.943-1.147z"/><path d="M20.272 33.93s-1.028.76.542.923c2.032.21 3.636.227 6.413-.308 0 0 .383.39.987.602-5.68 1.662-12.006.131-7.943-1.218z"/><path d="M25.111 29.471c1.159 1.334-.303 2.533-.303 2.533s2.94-1.518 1.59-3.418c-1.262-1.772-2.228-2.652 3.006-5.688 0 0-8.217 2.052-4.293 6.573z"/><path d="M31.326 38.5s.678.56-.748.992c-2.711.821-11.287 1.069-13.669.033-.856-.373.75-.89 1.255-.999.526-.113.827-.093.827-.093-.952-.67-6.155 1.317-2.642 1.887 9.579 1.553 17.461-.699 14.976-1.82z"/><path d="M21.287 31.207s-4.361 1.036-1.544 1.412c1.19.16 3.56.123 5.77-.062 1.805-.152 3.617-.476 3.617-.476s-.636.273-1.097.587c-4.43 1.165-12.986.623-10.523-.568 2.083-1.008 3.777-.893 3.777-.893z"/><path d="M29.112 35.58c4.503-2.34 2.42-4.588.968-4.285-.356.074-.515.138-.515.138s.132-.207.384-.296c2.875-1.01 5.086 2.98-.927 4.561 0 0 .07-.063.09-.118z"/><path d="M26.398 17.996s2.493 2.495-2.366 6.33c-3.896 3.078-.888 4.832-.001 6.837-2.275-2.052-3.943-3.859-2.824-5.54 1.643-2.468 6.196-3.664 5.19-7.627z"/><path d="M21.73 41.92c4.321.277 10.96-.153 11.116-2.198 0 0-.302.775-3.571 1.39-3.69.695-8.24.614-10.938.169 0 0 .553.457 3.393.64z"/></g></svg>