<svg version="1.0" viewBox="0 0 48 48" xmlns="http://www.w3.org/2000/svg"><g transform="translate(-156 -236)"><rect x="159" y="247" width="42" height="33" ry="3" fill="#782e11"/><rect x="160" y="248" width="40" height="29" ry="2.5" fill="#f15d22"/><path d="M162.5 248a2.495 2.495 0 0 0-2.5 2.5v3.5h40v-3.5c0-1.385-1.115-2.5-2.5-2.5z"/><g fill="#f7f7f7"><path d="m165.875 248-3 6h4.5l3-6z"/><path d="m174.875 248-3 6h4.5l3-6z"/><path d="m183.875 248-3 6h4.5l3-6z"/><path d="m192.875 248-3 6h4.5l3-6z"/></g><g transform="translate(65.321 17.365)" fill="#fff"><path d="m120.68 249.64 3-2v7l-3-2z" filter="url(#filter7554)"/><rect x="109.68" y="246.64" width="11" height="8" ry="2" filter="url(#filter7554)"/><path d="M111.14 240.64c-1.939 0-3.5 1.561-3.5 3.5s1.561 3.5 3.5 3.5 3.5-1.561 3.5-3.5-1.561-3.5-3.5-3.5zm0 2c.831 0 1.5.669 1.5 1.5s-.669 1.5-1.5 1.5-1.5-.669-1.5-1.5.669-1.5 1.5-1.5z" filter="url(#filter7554)"/><path d="M119.14 240.64c-1.939 0-3.5 1.561-3.5 3.5s1.561 3.5 3.5 3.5 3.5-1.561 3.5-3.5-1.561-3.5-3.5-3.5zm0 2c.831 0 1.5.669 1.5 1.5s-.669 1.5-1.5 1.5-1.5-.669-1.5-1.5.669-1.5 1.5-1.5z" filter="url(#filter7554)"/></g></g></svg>