<svg version="1.0" viewBox="0 0 48 48" xmlns="http://www.w3.org/2000/svg"><g transform="translate(-156 -236)"><path d="M166.6 238a3.591 3.591 0 0 0-3.6 3.6v37.8c0 1.995 1.606 3.6 3.6 3.6h26.801c1.994 0 3.6-1.605 3.6-3.6V251l-13-13z" fill="#1f285a"/><path d="M196 251v27c0 1.662-1.338 3-3 3h-26c-1.662 0-3-1.338-3-3v-36c0-1.662 1.338-3 3-3h17" fill="#3f51b5"/><path d="M196 253h-10c-1.662 0-3-1.338-3-3v-11h1l12 12z" fill="#1f285a" fill-opacity=".502"/><path d="M196 251h-9c-1.662 0-3-1.338-3-3v-9" fill="#6a7ce0"/><rect x="167" y="257" width="26" height="3" ry="0" fill="#fff"/><rect x="167" y="263" width="26" height="3" ry="0" fill="#fff"/><rect x="167" y="269" width="26" height="3" ry="0" fill="#fff"/><rect x="167" y="275" width="16" height="3" ry="0" fill="#fff"/></g></svg>