<svg version="1.0" viewBox="0 0 48 48" xmlns="http://www.w3.org/2000/svg"><g transform="translate(-156 364)"><path d="M166.6-362a3.591 3.591 0 0 0-3.6 3.6v37.8c0 1.995 1.606 3.6 3.6 3.6h26.801c1.994 0 3.6-1.605 3.6-3.6V-349l-13-13z" fill="#671d00"/><path d="M196-349v27c0 1.662-1.338 3-3 3h-26c-1.662 0-3-1.338-3-3v-36c0-1.662 1.338-3 3-3h17" fill="#cf3b00"/><path d="M196-347h-10c-1.662 0-3-1.338-3-3v-11h1l12 12z" fill="#671d00" fill-opacity=".502"/><path d="M196-349h-9c-1.662 0-3-1.338-3-3v-9" fill="#f15d22"/><rect x="167" y="-330" width="26" height="3" ry="0" fill="#fff"/><rect x="167" y="-324" width="16" height="3" ry="0" fill="#fff"/><path d="M166-340a6 6 0 0 1 6-6 6 6 0 0 1 6 6 6 6 0 0 1-6 6v-6z" fill="#fffffe"/><rect x="181" y="-344.5" width="12" height="9" ry="0" fill="#fff"/></g></svg>