<svg version="1.0" viewBox="0 0 48 48" xmlns="http://www.w3.org/2000/svg"><g transform="translate(-156 964)"><path d="M166.6-962a3.591 3.591 0 0 0-3.6 3.6v37.8c0 1.995 1.606 3.6 3.6 3.6h26.801c1.994 0 3.6-1.605 3.6-3.6V-949l-13-13z" fill="#6f4400"/><path d="M196-949v27c0 1.662-1.338 3-3 3h-26c-1.662 0-3-1.338-3-3v-36c0-1.662 1.338-3 3-3h17" fill="#de8800"/><path d="M196-947h-10c-1.662 0-3-1.338-3-3v-11h1l12 12z" fill="#6f4400" fill-opacity=".502"/><path d="M196-949h-9c-1.662 0-3-1.338-3-3v-9" fill="#faa41a"/><rect x="167" y="-941" width="26" height="5" ry="1.5" fill="#fff" fill-opacity=".978"/><rect x="167" y="-934" width="26" height="5" ry="1.5" fill="#fff" fill-opacity=".978"/><rect x="167" y="-927" width="26" height="5" ry="1.5" fill="#fff" fill-opacity=".978"/></g></svg>