<svg version="1.0" viewBox="0 0 48 48" xmlns="http://www.w3.org/2000/svg"><g transform="translate(-156 1864)"><path d="M166.6-1862a3.591 3.591 0 0 0-3.6 3.6v37.8c0 1.995 1.606 3.6 3.6 3.6h26.801c1.994 0 3.6-1.605 3.6-3.6v-28.4l-13-13z" fill="#245c63"/><path d="M196-1849v27c0 1.662-1.338 3-3 3h-26c-1.662 0-3-1.338-3-3v-36c0-1.662 1.338-3 3-3h17" fill="#48b9c7"/><path d="M196-1847h-10c-1.662 0-3-1.338-3-3v-11h1l12 12z" fill="#245c63" fill-opacity=".502"/><path d="M196-1849h-9c-1.662 0-3-1.338-3-3v-9" fill="#67d8e6"/><path d="M180-1842a4.5 4.5 0 1 1 0 9 4.5 4.5 0 0 1 0-9zm0 12c9 0 9 6.5 9 6.5v1.5h-18v-1.5s0-6.495 9-6.5z" color="#000" fill="#f6f7f8" style="text-decoration-line:none;text-indent:0;text-transform:none"/><circle cx="180" cy="-1837" r="5" fill="#f6f7f8"/></g></svg>