<svg version="1.0" viewBox="0 0 48 48" xmlns="http://www.w3.org/2000/svg"><path d="M10.6 2A3.591 3.591 0 0 0 7 5.6v37.8c0 1.995 1.606 3.6 3.6 3.6h26.801c1.994 0 3.6-1.605 3.6-3.6V15L28 2z" fill="#7f6728"/><path d="M40 15v27c0 1.662-1.338 3-3 3H11c-1.662 0-3-1.338-3-3V6c0-1.662 1.338-3 3-3h17" fill="#ffce51"/><path d="M40 17H30c-1.662 0-3-1.338-3-3V3h1l12 12z" fill="#7f6728" fill-opacity=".502"/><path d="M40 15h-9c-1.662 0-3-1.338-3-3V3" fill="#fffa7d"/><g transform="matrix(.75 0 0 .75 -167.656 509.5)" fill="#fff"><circle cx="248.88" cy="-638" r="8"/><path d="M258.21-650h12v8h-12z"/><path d="M270.21-638v12h-12z"/></g></svg>