<svg version="1.0" viewBox="0 0 48 48" xmlns="http://www.w3.org/2000/svg"><path d="M10.6 2A3.591 3.591 0 0 0 7 5.6v37.8c0 1.995 1.606 3.6 3.6 3.6h26.801c1.994 0 3.6-1.605 3.6-3.6V15L28 2z" fill="#234c31"/><path d="M40 15v27c0 1.662-1.338 3-3 3H11c-1.662 0-3-1.338-3-3V6c0-1.662 1.338-3 3-3h17" fill="#479863"/><path d="M40 17H30c-1.662 0-3-1.338-3-3V3h1l12 12z" fill="#234c31" fill-opacity=".502"/><path d="M40 15h-9c-1.662 0-3-1.338-3-3V3" fill="#73c48f"/><path d="M11 20v21h26V20zm3 3h5v3h-5zm8 0h12v3H22zm-8 6h5v3h-5zm8 0h12v3H22zm-8 6h5v3h-5zm8 0h12v3H22z" fill="#fff"/></svg>