<svg version="1.0" viewBox="0 0 128 128" xmlns="http://www.w3.org/2000/svg"><g transform="translate(-312 -156)"><rect x="339" y="229" width="74" height="7" ry="2.5" fill="#565656"/><rect x="340" y="230" width="72" height="4" ry="2" fill="#acacac"/><path d="M348 223c-1.645 0-3 1.355-3 3v14c0 17.109 13.891 31 31 31s31-13.891 31-31v-14a3.015 3.015 0 0 0-3.602-2.94A3.02 3.02 0 0 0 401 226v10c0 13.819-11.181 25-25 25s-25-11.181-25-25v-10c0-1.645-1.355-3-3-3z" color="#000" fill="#444" style="font-feature-settings:normal;font-variant-alternates:normal;font-variant-caps:normal;font-variant-ligatures:normal;font-variant-numeric:normal;font-variant-position:normal;isolation:auto;mix-blend-mode:normal;shape-padding:0;text-decoration-color:#000;text-decoration-line:none;text-decoration-style:solid;text-indent:0;text-orientation:mixed;text-transform:none;white-space:normal"/><rect x="373" y="262" width="6" height="18" ry="3" fill="#444"/><rect x="358" y="164" width="36" height="92" ry="18" fill="#909090"/><path d="M348 224c-1.108 0-2 .892-2 2v10a30 30 0 0 0 30 30 30 30 0 0 0 30-30v-10c0-1.108-.892-2-2-2s-2 .892-2 2v10a26 26 0 0 1-26 26 26 26 0 0 1-26-26v-10c0-1.108-.892-2-2-2z" fill="#888"/><rect x="374" y="262" width="4" height="14" ry="2" fill="#888"/><rect x="359" y="168" width="34" height="87" ry="17" fill="#2e2e2e"/></g></svg>