<svg version="1.0" viewBox="0 0 128 128" xmlns="http://www.w3.org/2000/svg"><g transform="translate(-312 -156)"><rect x="324" y="168" width="104" height="104" ry="8" fill="#767676"/><rect x="325" y="169" width="102" height="77" ry="7.5" fill="#ececec"/><circle cx="344" cy="258" r="8" fill="#73c48f"/><circle cx="376" cy="258" r="8" fill="#ff793e"/><circle cx="408" cy="258" r="8" fill="#67d8e6"/><g fill="#474341"><path d="m375.99 193.98-14 16 14 16zm-10 10c0-1.108-.892-2-2-2s-2 .892-2 2v12c0 1.108.892 2 2 2s2-.892 2-2z"/><path d="m387.99 195.98-3.426 2.059c1.869 3.11 3.426 8.312 3.426 11.941 0 3.629-1.557 8.83-3.426 11.941l3.426 2.059c2.243-3.732 4-9.645 4-14s-1.757-10.268-4-14z"/><path d="m381.49 198.98-3.43 2.059c1.309 2.177 1.93 6.4 1.93 8.941 0 2.54-.621 6.764-1.93 8.941l3.43 2.059c1.682-2.8 2.5-7.734 2.5-11s-.818-8.2-2.5-11z"/></g></g></svg>