<svg enable-background="new" version="1.0" viewBox="0 0 128 128" xmlns="http://www.w3.org/2000/svg"><defs><filter id="a" x="0" y="0" width="1" height="1" color-interpolation-filters="sRGB"><feBlend in2="BackgroundImage" mode="darken"/></filter></defs><g transform="translate(-312 -156)"><rect x="324" y="168" width="104" height="104" ry="8" enable-background="new" fill="#767676"/><rect x="325" y="169" width="102" height="77" ry="7.5" enable-background="new" fill="#ececec"/><circle cx="344" cy="258" r="8" fill="#73c48f"/><circle cx="376" cy="258" r="8" fill="#ff793e"/><circle cx="408" cy="258" r="8" fill="#67d8e6"/><g transform="matrix(2 0 0 2 -169.75 1020)" fill="#474341" filter="url(#a)"><path d="M272.07-410.95a.995.995 0 0 0-.57.201l-3.5 2.75h-2c-.554 0-1 .446-1 1v4c0 .554.446 1 1 1h2l3.5 2.75c.5.393 1.5.25 1.5-.75v-10c0-.687-.472-.97-.93-.951z"/><path d="m274-407.38 2-.625c1 2 1 4 0 6l-2-.625c1-2 1-2.75 0-4.75z"/><path d="m277-409.06 2-.938c2 3 2 7 0 10l-2-.937c2-3 2-5.125 0-8.125z"/></g></g></svg>