<svg version="1.0" viewBox="0 0 128 128" xmlns="http://www.w3.org/2000/svg"><g transform="translate(-312 -156)"><path d="M366 158c-1.108 0-2 .892-2 2v4h-24c-4.432 0-8 3.568-8 8v96c0 4.432 3.568 8 8 8h72c4.432 0 8-3.568 8-8v-96c0-4.432-3.568-8-8-8h-26v-4c0-1.108-.892-2-2-2z" fill="#565656"/><rect x="333" y="196" width="86" height="17" ry="6" fill="#7f540d"/><rect x="365" y="159" width="20" height="9" ry="2" fill="#7e7e7e"/><rect x="333" y="165" width="86" height="43" ry="7" fill="#faa41a"/><rect x="333" y="214" width="86" height="58" ry="7" fill="#7e7e7e"/></g></svg>