<svg version="1.0" viewBox="0 0 128 128" xmlns="http://www.w3.org/2000/svg"><g transform="translate(-312 -156)"><rect x="358" y="168" width="36" height="26" ry="8" fill="#6f6f6f"/><rect x="359" y="169" width="34" height="24" ry="7.5" fill="#acacac"/><rect x="362" y="172" width="28" height="9" ry="4.475" fill="#ffce51"/><rect x="320" y="184" width="112" height="88" ry="8" fill="#6f6f6f"/><path d="M328.5 185a7.484 7.484 0 0 0-7.5 7.5v2.5h110v-2.5c0-4.155-3.345-7.5-7.5-7.5zm-7.5 74v1.5c0 4.155 3.345 7.5 7.5 7.5h95c4.155 0 7.5-3.345 7.5-7.5V259z" fill="#ececec"/><path fill="#424242" d="M321 195h110v64H321z"/><circle cx="376" cy="227" r="28" fill="#ececec"/><circle cx="376" cy="227" r="24" fill="#48b9c7"/><circle cx="376" cy="227" r="16" fill="#fff" fill-opacity=".251"/><path d="M387.31 238.31a16 16 0 0 1-22.627 0 16 16 0 0 1 0-22.627l11.314 11.314z" fill="#fff" fill-opacity=".251"/><path d="M387.31 215.69a16 16 0 0 1 4.141 15.455 16 16 0 0 1-11.314 11.314 16 16 0 0 1-15.455-4.141l11.314-11.314z" fill="#fff" fill-opacity=".251"/></g></svg>