<svg version="1.0" viewBox="0 0 128 128" xmlns="http://www.w3.org/2000/svg"><g transform="translate(-312 -156)"><rect x="316" y="160" width="120" height="123" ry="60" fill="#e6e6e6"/><g transform="matrix(4 0 0 4 -88 -852)"><circle cx="116" cy="268" r="9" fill="#ac1800"/><circle transform="scale(1 -1)" cx="116" cy="-268" r="8" fill="#cf3b00"/><g fill="#fff"><path d="M118.738 265.17a4 4 0 0 0-5.656 0l2.828 2.828z" opacity=".2"/><path d="M118.738 265.17a4 4 0 0 1 0 5.656l-2.828-2.828z" opacity=".4"/><path d="M113.082 270.826a4 4 0 0 1 0-5.656l2.828 2.828z" opacity=".4"/><path d="M113.082 270.826a4 4 0 0 0 5.656 0l-2.828-2.828z" opacity=".6"/></g></g><path d="M376 160c-33.24 0-60 26.76-60 60v3c0 33.24 26.76 60 60 60s60-26.76 60-60v-3c0-33.24-26.76-60-60-60zm0 1c32.686 0 59 26.314 59 59s-26.314 59-59 59-59-26.314-59-59 26.314-59 59-59z" fill-opacity=".502"/></g></svg>