<svg version="1.0" viewBox="0 0 128 128" xmlns="http://www.w3.org/2000/svg"><g transform="translate(-312 1044)"><rect x="324" y="-1016" width="104" height="73" ry="8" fill="#bfbfbf"/><rect x="329" y="-1011" width="94" height="60" ry="1.5" fill="#222"/><path d="M332-1016c-4.432 0-8 3.568-8 8v57c0 4.432 3.568 8 8 8h88c4.432 0 8-3.568 8-8v-57c0-4.432-3.568-8-8-8zm0 1h88c3.878 0 7 3.122 7 7v54c0 3.878-3.122 7-7 7h-88c-3.878 0-7-3.122-7-7v-54c0-3.878 3.122-7 7-7z" fill-opacity=".502"/><rect x="320" y="-944" width="112" height="16" ry="4" fill="#bfbfbf"/><path d="M324-944c-2.216 0-4 1.784-4 4v8c0 2.216 1.784 4 4 4h104c2.216 0 4-1.784 4-4v-8c0-2.216-1.784-4-4-4zm0 1h104c1.662 0 3 1.338 3 3v5c0 1.662-1.338 3-3 3H324c-1.662 0-3-1.338-3-3v-5c0-1.662 1.338-3 3-3z" fill-opacity=".502"/></g></svg>