<svg version="1.0" viewBox="0 0 128 128" xmlns="http://www.w3.org/2000/svg"><g transform="translate(-312 284)"><rect x="331" y="-277" width="90" height="117" ry="8.5" fill="#565656"/><rect x="332" y="-276" width="88" height="112" ry="8" fill="#acacac"/></g><g fill="#444"><path d="M64 40a12 12 0 0 0-12 12 12 12 0 0 0 12 12 12 12 0 0 0 12-12 12 12 0 0 0-12-12zm0 4a8 8 0 0 1 8 8 8 8 0 0 1-8 8 8 8 0 0 1-8-8 8 8 0 0 1 8-8z"/><path d="M56 72h16v4H56z"/><path d="M56 80h16v4H56z"/><path d="m84 24.705 11.314 11.313L84 47.332 72.687 36.018z"/><path d="M55.894 32.583 44.58 43.897l-2.828-2.828 11.314-11.314z"/><path d="M50.237 26.927 38.924 38.24l-2.829-2.828L47.41 24.098z"/></g></svg>