<svg version="1.0" viewBox="0 0 128 128" xmlns="http://www.w3.org/2000/svg" xmlns:xlink="http://www.w3.org/1999/xlink"><g transform="translate(-312 -156)"><use id="i" transform="translate(736)" width="100%" height="100%" xlink:href="#a"/><use id="j" transform="translate(736)" width="100%" height="100%" xlink:href="#b"/><use id="k" transform="translate(736)" width="100%" height="100%" xlink:href="#c"/><use id="l" transform="translate(736)" width="100%" height="100%" xlink:href="#d"/><use id="m" transform="translate(736)" width="100%" height="100%" xlink:href="#e"/><use id="n" transform="translate(736)" width="100%" height="100%" xlink:href="#f"/><use id="o" transform="translate(736)" width="100%" height="100%" xlink:href="#g"/><use id="p" transform="translate(736)" width="100%" height="100%" xlink:href="#h"/><g transform="matrix(4 0 0 4 337 430.21)"><rect x="251.75" y="-65.552" width="28" height="29" ry="14" fill="#245c63"/><circle cx="265.75" cy="-51.552" r="13.75" fill="#48b9c7"/><g fill="#fff"><path d="M267.75-59.802v6h2.5l-4.5 7-4.5-7h2.5v-6z"/><path d="M260.75-45.802a1 1 0 0 0 0 2h10a1 1 0 0 0 0-2z"/></g></g><g transform="matrix(2 0 0 2 616 352)"><rect x="251" y="-64.5" width="29" height="30.5" ry="14.5" fill="#245c63"/><circle cx="265.5" cy="-50" r="14" fill="#48b9c7"/></g><g fill="#fff"><path d="M1151 236v12h5l-9 14-9-14h5v-12z"/><path d="M1137 264a2 2 0 1 0 0 4h20a2 2 0 1 0 0-4z"/></g><g transform="translate(752 320)"><rect x="242" y="-68" width="30" height="32" ry="15" fill="#245c63"/><circle cx="257" cy="-53" r="14" fill="#48b9c7"/></g><g fill="#fefeff"><path d="M1011 259v6h2.5l-4.5 7-4.5-7h2.5v-6z"/><path d="M1004 273a1 1 0 1 0 0 2h10a1 1 0 1 0 0-2z"/></g><g transform="translate(670 326)"><rect x="244" y="-70" width="26" height="28" ry="13" fill="#245c63"/><circle cx="257" cy="-57" r="12" fill="#48b9c7"/></g><g fill="#fefeff"><path d="M929 261v6h2.5l-4.5 7-4.5-7h2.5v-6z"/><path d="M922 275a1 1 0 1 0 0 2h10a1 1 0 1 0 0-2z"/></g><rect x="852" y="267" width="16" height="17" ry="8" fill="#245c63"/><circle cx="860" cy="275" r="7" fill="#48b9c7"/><g transform="translate(-150 133)"><path d="M1011 137v4h2l-3 4-3-4h2v-4z" fill="#fefeff"/><rect x="1007" y="146" width="6" height="1" ry=".467" fill="#fff"/></g><rect x="794" y="260" width="20" height="24" ry="2.5" fill="#245c63"/><rect x="795" y="261" width="18" height="22" ry="2" fill="#48b9c7"/><g fill="#fff"><path d="M806 264v6h2.5l-4.5 7-4.5-7h2.5v-6z"/><path d="M799 278a1 1 0 1 0 0 2h10a1 1 0 1 0 0-2z"/></g><rect x="753" y="269" width="14" height="14" ry="2" fill="#245c63"/><rect x="754" y="270" width="12" height="12" ry="1.5" fill="#48b9c7"/><g transform="translate(-250 134)"><path d="M1011 137v4h2l-3 4-3-4h2v-4z" fill="#fefeff"/><rect x="1007" y="146" width="6" height="1" ry=".467" fill="#fff"/></g></g><g transform="translate(-312 -156)"><use id="q" transform="translate(0 -300)" width="100%" height="100%" xlink:href="#i"/><use id="r" transform="translate(0 -300)" width="100%" height="100%" xlink:href="#j"/><use id="s" transform="translate(0 -300)" width="100%" height="100%" xlink:href="#k"/><use id="t" transform="translate(0 -300)" width="100%" height="100%" xlink:href="#l"/><use id="u" transform="translate(0 -300)" width="100%" height="100%" xlink:href="#m"/><use id="v" transform="translate(0 -300)" width="100%" height="100%" xlink:href="#n"/><use id="w" transform="translate(0 -300)" width="100%" height="100%" xlink:href="#o"/><use id="x" transform="translate(0 -300)" width="100%" height="100%" xlink:href="#p"/><use transform="translate(736 -300)" width="100%" height="100%" xlink:href="#g"/><use transform="translate(736 -300)" width="100%" height="100%" xlink:href="#h"/><rect x="1344" y="-132" width="112" height="116" ry="56" fill="#552d5d"/><circle cx="1400" cy="-76" r="55" fill="#aa5abb"/><rect x="1118" y="-77" width="58" height="61" ry="29" fill="#552d5d"/><circle cx="1147" cy="-48" r="28" fill="#aa5abb"/><rect x="994" y="-48" width="30" height="32" ry="15" fill="#552d5d"/><circle cx="1009" cy="-33" r="14" fill="#aa5abb"/><rect x="914" y="-44" width="26" height="28" ry="13" fill="#552d5d"/><circle cx="927" cy="-31" r="12" fill="#aa5abb"/><rect x="852" y="-33" width="16" height="17" ry="8" fill="#552d5d"/><circle cx="860" cy="-25" r="7" fill="#aa5abb"/><rect x="794" y="-40" width="20" height="24" ry="2.5" fill="#552d5d"/><rect x="795" y="-39" width="18" height="22" ry="2" fill="#aa5abb"/><rect x="753" y="-31" width="14" height="14" ry="2" fill="#552d5d"/><rect x="754" y="-30" width="12" height="12" ry="1.5" fill="#aa5abb"/><path d="m925.25-38-.154 1.844a5.5 5.5 0 0 0-1.608.93l-1.676-.79-1.75 3.032 1.522 1.056a5.5 5.5 0 0 0-.084.928 5.5 5.5 0 0 0 .08.932l-1.518 1.052 1.75 3.032 1.672-.788a5.5 5.5 0 0 0 1.612.924L925.25-24h3.5l.154-1.844a5.5 5.5 0 0 0 1.608-.93l1.675.79 1.75-3.032-1.521-1.056A5.5 5.5 0 0 0 932.5-31a5.5 5.5 0 0 0-.08-.932l1.518-1.052-1.75-3.032-1.672.788a5.5 5.5 0 0 0-1.612-.924L928.75-38zm1.75 5a2 2 0 0 1 2 2 2 2 0 0 1-2 2 2 2 0 0 1-2-2 2 2 0 0 1 2-2z" fill="#fafafb"/><path d="m1007.2-40-.154 1.844a5.5 5.5 0 0 0-1.608.93l-1.675-.79-1.75 3.032 1.521 1.056a5.5 5.5 0 0 0-.084.928 5.5 5.5 0 0 0 .08.932l-1.518 1.052 1.75 3.032 1.672-.788a5.5 5.5 0 0 0 1.612.924L1007.2-26h3.5l.154-1.844a5.5 5.5 0 0 0 1.608-.93l1.675.79 1.75-3.032-1.521-1.056a5.5 5.5 0 0 0 .084-.928 5.5 5.5 0 0 0-.08-.932l1.518-1.052-1.75-3.032-1.672.788a5.5 5.5 0 0 0-1.612-.924L1010.7-40zm1.75 5a2 2 0 0 1 2 2 2 2 0 0 1-2 2 2 2 0 0 1-2-2 2 2 0 0 1 2-2z" fill="#fafafb"/><path d="m1143.5-62-.309 3.688a11 11 0 0 0-3.214 1.859l-3.352-1.578-3.5 6.062 3.043 2.114A11 11 0 0 0 1136-48a11 11 0 0 0 .16 1.863l-3.035 2.106 3.5 6.062 3.344-1.574a11 11 0 0 0 3.222 1.848L1143.5-34h7l.308-3.687a11 11 0 0 0 3.215-1.86l3.352 1.578 3.5-6.062-3.043-2.113A11 11 0 0 0 1158-48a11 11 0 0 0-.16-1.863l3.035-2.106-3.5-6.062-3.344 1.574a11 11 0 0 0-3.222-1.848L1150.5-62zm3.5 10a4 4 0 0 1 4 4 4 4 0 0 1-4 4 4 4 0 0 1-4-4 4 4 0 0 1 4-4z" fill="#fafafb"/><path d="m1393-104-.617 7.375a22 22 0 0 0-6.43 3.719l-6.703-3.156-7 12.125 6.086 4.226A22 22 0 0 0 1378-76a22 22 0 0 0 .32 3.727l-6.07 4.21 7 12.126 6.687-3.149a22 22 0 0 0 6.445 3.696L1393-48h14l.617-7.375a22 22 0 0 0 6.43-3.719l6.703 3.157 7-12.125-6.086-4.227a22 22 0 0 0 .336-3.71 22 22 0 0 0-.32-3.728l6.07-4.21-7-12.126-6.688 3.149a22 22 0 0 0-6.445-3.695L1407-104zm7 20a8 8 0 0 1 8 8 8 8 0 0 1-8 8 8 8 0 0 1-8-8 8 8 0 0 1 8-8z" fill="#fafafb"/><path d="m859.12-28.532-.078.93a2.775 2.775 0 0 0-.81.47l-.846-.399-.883 1.53.768.533a2.775 2.775 0 0 0-.043.468 2.775 2.775 0 0 0 .04.47l-.765.53.883 1.53.843-.397a2.775 2.775 0 0 0 .813.466l.078.932h1.766l.078-.93a2.775 2.775 0 0 0 .81-.47l.846.399.883-1.53-.768-.532a2.775 2.775 0 0 0 .043-.468 2.775 2.775 0 0 0-.04-.47l.765-.532-.883-1.529-.843.397a2.775 2.775 0 0 0-.813-.466l-.078-.932zm.883 2.522a1.009 1.009 0 0 1 1.009 1.01 1.009 1.009 0 0 1-1.01 1.009 1.009 1.009 0 0 1-1.008-1.01 1.009 1.009 0 0 1 1.009-1.008z" fill="#fafafb"/><path d="m802.25-35-.154 1.844a5.5 5.5 0 0 0-1.608.93l-1.676-.79-1.75 3.032 1.522 1.056a5.5 5.5 0 0 0-.084.928 5.5 5.5 0 0 0 .08.932l-1.518 1.052 1.75 3.032 1.672-.788a5.5 5.5 0 0 0 1.612.924L802.25-21h3.5l.154-1.844a5.5 5.5 0 0 0 1.608-.93l1.675.79 1.75-3.032-1.521-1.056A5.5 5.5 0 0 0 809.5-28a5.5 5.5 0 0 0-.08-.932l1.518-1.052-1.75-3.032-1.672.788a5.5 5.5 0 0 0-1.612-.924L805.75-35zm1.75 5a2 2 0 0 1 2 2 2 2 0 0 1-2 2 2 2 0 0 1-2-2 2 2 0 0 1 2-2z" fill="#fafafb"/><path d="m759.12-27.532-.078.93a2.775 2.775 0 0 0-.81.47l-.846-.399-.883 1.53.768.533a2.775 2.775 0 0 0-.043.468 2.775 2.775 0 0 0 .04.47l-.765.53.883 1.53.843-.397a2.775 2.775 0 0 0 .813.466l.078.932h1.766l.078-.93a2.775 2.775 0 0 0 .81-.47l.846.399.883-1.53-.768-.532a2.775 2.775 0 0 0 .043-.468 2.775 2.775 0 0 0-.04-.47l.765-.532-.883-1.529-.843.397a2.775 2.775 0 0 0-.813-.466l-.078-.932zm.883 2.522a1.009 1.009 0 0 1 1.009 1.01 1.009 1.009 0 0 1-1.01 1.009 1.009 1.009 0 0 1-1.008-1.01 1.009 1.009 0 0 1 1.009-1.008z" fill="#fafafb"/></g><g transform="translate(-312 -156)"><use id="y" transform="translate(0 -300)" width="100%" height="100%" xlink:href="#q"/><use id="z" transform="translate(0 -300)" width="100%" height="100%" xlink:href="#r"/><use id="A" transform="translate(0 -300)" width="100%" height="100%" xlink:href="#s"/><use id="B" transform="translate(0 -300)" width="100%" height="100%" xlink:href="#t"/><use id="C" transform="translate(0 -300)" width="100%" height="100%" xlink:href="#u"/><use id="D" transform="translate(0 -300)" width="100%" height="100%" xlink:href="#v"/><use id="E" transform="translate(0 -300)" width="100%" height="100%" xlink:href="#w"/><use id="F" transform="translate(0 -300)" width="100%" height="100%" xlink:href="#x"/><use transform="translate(0 -600)" width="100%" height="100%" xlink:href="#o"/><use transform="translate(0 -600)" width="100%" height="100%" xlink:href="#p"/><use transform="translate(736 -600)" width="100%" height="100%" xlink:href="#g"/><use transform="translate(736 -600)" width="100%" height="100%" xlink:href="#h"/><rect x="1344" y="-432" width="112" height="116" ry="56" fill="#7f6728"/><path d="m1400-376-37.957 45.234C1372.008-321.593 1385.325-316 1400-316c31.024 0 56-24.976 56-56v-4z" fill="#353e70"/><path d="M1455-376a55 55 0 0 1-31.756 49.847 55 55 0 0 1-58.597-7.715L1400-376z" fill="#6a7ce0"/><rect x="1118" y="-377" width="58" height="61" ry="29" fill="#7f6728"/><path d="M1124.8-366.65c-4.226 5.036-6.768 11.536-6.768 18.654v3c0 8.25 3.416 15.67 8.91 20.941l20.09-23.941z" fill="#782e11"/><path d="m1147-348-20.088 23.941A28.9 28.9 0 0 0 1147-316c16.066 0 29-12.934 29-29v-3z" fill="#353e70"/><path d="M1175-348a28 28 0 0 1-16.167 25.377 28 28 0 0 1-29.831-3.927L1147-348z" fill="#6a7ce0"/><rect x="994" y="-348" width="30" height="32" ry="15" fill="#7f6728"/><path d="m1009-333-10.6 12.633A14.953 14.953 0 0 0 1009-316c8.31 0 15-6.69 15-15v-2z" fill="#353e70"/><path d="M1023-333a14 14 0 0 1-8.083 12.688 14 14 0 0 1-14.916-1.964L1009-333z" fill="#6a7ce0"/><rect x="914" y="-344" width="26" height="28" ry="13" fill="#7f6728"/><path d="m927-331-9.305 11.088A12.953 12.953 0 0 0 927-316c7.202 0 13-5.798 13-13v-2z" fill="#353e70"/><path d="M939-331a12 12 0 0 1-6.929 10.876 12 12 0 0 1-12.785-1.683L927-331z" fill="#6a7ce0"/><rect x="852" y="-333" width="16" height="17" ry="8" fill="#7f6728"/><path d="m860-325-5.621 6.7A7.972 7.972 0 0 0 860-316c4.432 0 8-3.568 8-8v-1z" fill="#353e70"/><path d="M867-325a7 7 0 0 1-4.042 6.344 7 7 0 0 1-7.457-.982L860-325z" fill="#6a7ce0"/><path d="M1357.9-411.35a55 55 0 0 1 60.944-16.33 55 55 0 0 1 36.189 51.683h-55z" fill="#ffce51"/><path d="M1357.1-412.02c-8.16 9.725-13.068 22.276-13.068 36.021v4c0 16.349 6.94 31.015 18.043 41.234l37.957-45.234zm54.707 94.783zm-23.35.045c.116.024.231.053.348.076l-.348-.076zm2.709.494c1.483.234 2.988.4 4.508.516a59.999 59.999 0 0 1-4.508-.516zm16.125.22a59.998 59.998 0 0 1-4.83.419 56.71 56.71 0 0 0 4.83-.418zm-10.736.362c1.15.07 2.308.117 3.477.117.597 0 1.188-.026 1.78-.045a59.99 59.99 0 0 1-5.257-.072z" fill="#782e11"/><path d="M1364.6-333.87a55 55 0 0 1-19.437-37.339 55 55 0 0 1 12.658-40.147l42.132 35.353z" fill="#f15d22"/><path d="M1129-326.55a28 28 0 0 1-9.895-19.009 28 28 0 0 1 6.444-20.438l21.449 17.998z" fill="#f15d22"/><path d="M1125.6-366a28 28 0 0 1 31.026-8.313 28 28 0 0 1 18.423 26.31h-28z" fill="#ffce51"/><path d="M997.5-342.65a14.948 14.948 0 0 0-3.502 9.648v2c0 4.164 1.68 7.92 4.4 10.633l10.6-12.633z" fill="#782e11"/><path d="M1000-322.28a14 14 0 0 1-4.948-9.504 14 14 0 0 1 3.222-10.22l10.725 9z" fill="#f15d22"/><path d="M998.28-342a14 14 0 0 1 15.513-4.157 14 14 0 0 1 9.212 13.156h-14z" fill="#ffce51"/><path d="M917.81-338.71a12 12 0 0 1 13.297-3.563 12 12 0 0 1 7.896 11.276h-12z" fill="#ffce51"/><path d="M917.04-339.36a12.955 12.955 0 0 0-3.035 8.361v2a12.95 12.95 0 0 0 3.697 9.088l9.303-11.088z" fill="#782e11"/><path d="M919.29-321.81a12 12 0 0 1-4.24-8.147 12 12 0 0 1 2.76-8.759l9.193 7.713z" fill="#f15d22"/><path d="M853.87-330.14a7.968 7.968 0 0 0-1.87 5.144v1c0 2.236.91 4.25 2.38 5.7l5.62-6.7z" fill="#782e11"/><path d="M855.5-319.64a7 7 0 0 1-2.474-4.752 7 7 0 0 1 1.611-5.11l5.363 4.5z" fill="#f15d22"/><path d="M854.64-329.5a7 7 0 0 1 7.756-2.078 7 7 0 0 1 4.606 6.577h-7z" fill="#ffce51"/><path d="M793.997-336.388v17.891c0 .64.246 1.217.639 1.658l9.361-11.158z" fill="#782e11"/><path d="M796.497-339.998a2.495 2.495 0 0 0-2.5 2.5v1.11l10 8.39h10v-9.5c0-1.385-1.115-2.5-2.5-2.5z" fill="#7f6728"/><path d="m803.997-327.998-9.36 11.156a2.48 2.48 0 0 0 1.86.844h15c1.385 0 2.5-1.115 2.5-2.5v-9.5z" fill="#353e70"/><path d="M797-339c-1.108 0-2 .892-2 2v1.447l9 7.553h9v-9c0-1.108-.892-2-2-2z" fill="#ffce51"/><path d="m804-328-8.576 10.221c.365.471.931.78 1.576.78h14c1.108 0 2-.893 2-2v-9z" fill="#6a7ce0"/><path d="M795-335.55v16.553c0 .463.164.882.426 1.22l8.574-10.22z" fill="#f15d22"/><path d="M755.001-331.002a1.99 1.99 0 0 0-1.852 1.25l6.852 5.75h7v-5c0-1.108-.892-2-2-2z" fill="#7f6728"/><path d="m760.001-324.002-5.752 6.854c.232.093.486.146.752.146h10c1.108 0 2-.892 2-2v-5z" fill="#353e70"/><path d="M753.151-329.752a2.006 2.006 0 0 0-.146.75v10a1.99 1.99 0 0 0 1.25 1.853l5.75-6.853z" fill="#782e11"/><path d="M755.501-329.999c-.666 0-1.221.434-1.418 1.033l5.918 4.967h6v-4.5c0-.831-.669-1.5-1.5-1.5z" fill="#ffce51"/><path d="m760.001-323.999-4.967 5.918c.148.049.302.082.467.082h9c.831 0 1.5-.669 1.5-1.5v-4.5z" fill="#6a7ce0"/><path d="M754.081-328.969a1.488 1.488 0 0 0-.082.467v9c0 .666.434 1.221 1.033 1.418l4.967-5.918z" fill="#f15d22"/></g><g transform="translate(-312 -156)"><use transform="translate(0 -300)" width="100%" height="100%" xlink:href="#y"/><use transform="translate(0 -300)" width="100%" height="100%" xlink:href="#z"/><use transform="translate(0 -300)" width="100%" height="100%" xlink:href="#A"/><use transform="translate(0 -300)" width="100%" height="100%" xlink:href="#B"/><use transform="translate(0 -300)" width="100%" height="100%" xlink:href="#C"/><use transform="translate(0 -300)" width="100%" height="100%" xlink:href="#D"/><use transform="translate(0 -300)" width="100%" height="100%" xlink:href="#E"/><use transform="translate(0 -300)" width="100%" height="100%" xlink:href="#F"/><use transform="translate(0 -600)" width="100%" height="100%" xlink:href="#w"/><use transform="translate(0 -600)" width="100%" height="100%" xlink:href="#x"/><use transform="translate(0 -900)" width="100%" height="100%" xlink:href="#o"/><use transform="translate(0 -900)" width="100%" height="100%" xlink:href="#p"/><use transform="translate(736 -900)" width="100%" height="100%" xlink:href="#g"/><use transform="translate(736 -900)" width="100%" height="100%" xlink:href="#h"/><rect x="1344" y="-732" width="112" height="116" ry="56" fill="#245c63"/><path d="m1400-676-37.957 45.234C1372.008-621.593 1385.325-616 1400-616c31.024 0 56-24.976 56-56v-4z" fill="#396247"/><path d="M1455-676a55 55 0 0 1-31.756 49.847 55 55 0 0 1-58.597-7.715L1400-676z" fill="#73c48f"/><rect x="1118" y="-677" width="58" height="61" ry="29" fill="#245c63"/><path d="M1124.8-666.65c-4.226 5.036-6.768 11.536-6.768 18.654v3c0 8.25 3.416 15.67 8.91 20.941l20.09-23.941z" fill="#7f3c1f"/><path d="m1147-648-20.088 23.941A28.9 28.9 0 0 0 1147-616c16.066 0 29-12.934 29-29v-3z" fill="#396247"/><path d="M1175-648a28 28 0 0 1-16.167 25.377 28 28 0 0 1-29.831-3.927L1147-648z" fill="#73c48f"/><rect x="994" y="-648" width="30" height="32" ry="15" fill="#245c63"/><path d="m1009-633-10.6 12.633A14.953 14.953 0 0 0 1009-616c8.31 0 15-6.69 15-15v-2z" fill="#396247"/><path d="M1023-633a14 14 0 0 1-8.083 12.688 14 14 0 0 1-14.916-1.964L1009-633z" fill="#73c48f"/><rect x="914" y="-644" width="26" height="28" ry="13" fill="#245c63"/><path d="m927-631-9.305 11.088A12.954 12.954 0 0 0 927-616c7.202 0 13-5.798 13-13v-2z" fill="#396247"/><path d="M939-631a12 12 0 0 1-6.929 10.876 12 12 0 0 1-12.785-1.683L927-631z" fill="#73c48f"/><rect x="852" y="-633" width="16" height="17" ry="8" fill="#245c63"/><path d="m860-625-5.621 6.7A7.972 7.972 0 0 0 860-616c4.432 0 8-3.568 8-8v-1z" fill="#396247"/><path d="M867-625a7 7 0 0 1-4.042 6.344 7 7 0 0 1-7.457-.982L860-625z" fill="#73c48f"/><path d="M1357.9-711.35a55 55 0 0 1 60.944-16.33 55 55 0 0 1 36.189 51.683h-55z" fill="#48b9c7"/><path d="M1357.1-712.02c-8.16 9.725-13.068 22.276-13.068 36.021v4c0 16.349 6.94 31.015 18.043 41.234l37.957-45.234zm54.707 94.783zm-23.35.045c.116.024.231.053.348.076l-.348-.076zm2.709.494c1.483.234 2.988.4 4.508.516a59.999 59.999 0 0 1-4.508-.516zm16.125.22a59.998 59.998 0 0 1-4.83.419 56.71 56.71 0 0 0 4.83-.418zm-10.736.362c1.15.07 2.308.117 3.477.117.597 0 1.188-.026 1.78-.045a59.99 59.99 0 0 1-5.257-.072z" fill="#7f3c1f"/><path d="M1364.6-633.87a55 55 0 0 1-19.437-37.339 55 55 0 0 1 12.658-40.147l42.132 35.353z" fill="#ff793e"/><path d="M1129-626.55a28 28 0 0 1-9.895-19.009 28 28 0 0 1 6.444-20.438l21.449 17.998z" fill="#ff793e"/><path d="M1125.6-666a28 28 0 0 1 31.026-8.313 28 28 0 0 1 18.423 26.31h-28z" fill="#48b9c7"/><path d="M997.5-642.65a14.948 14.948 0 0 0-3.502 9.648v2c0 4.164 1.68 7.92 4.4 10.633l10.6-12.633z" fill="#7f3c1f"/><path d="M1000-622.28a14 14 0 0 1-4.948-9.504 14 14 0 0 1 3.222-10.22l10.725 9z" fill="#ff793e"/><path d="M998.28-642a14 14 0 0 1 15.513-4.157 14 14 0 0 1 9.212 13.156h-14z" fill="#48b9c7"/><path d="M917.81-638.71a12 12 0 0 1 13.297-3.563 12 12 0 0 1 7.896 11.276h-12z" fill="#48b9c7"/><path d="M917.04-639.36a12.955 12.955 0 0 0-3.035 8.361v2a12.95 12.95 0 0 0 3.697 9.088l9.303-11.088z" fill="#7f3c1f"/><path d="M919.29-621.81a12 12 0 0 1-4.24-8.147 12 12 0 0 1 2.76-8.759l9.193 7.713z" fill="#ff793e"/><path d="M853.87-630.14a7.969 7.969 0 0 0-1.87 5.144v1c0 2.236.91 4.25 2.38 5.7l5.62-6.7z" fill="#7f3c1f"/><path d="M855.5-619.64a7 7 0 0 1-2.474-4.752 7 7 0 0 1 1.611-5.11l5.363 4.5z" fill="#ff793e"/><path d="M854.64-629.5a7 7 0 0 1 7.756-2.078 7 7 0 0 1 4.606 6.577h-7z" fill="#48b9c7"/><path d="M794-636.39v17.891c0 .64.246 1.217.639 1.658L804-627.999z" fill="#7f3c1f"/><path d="M796.5-640a2.495 2.495 0 0 0-2.5 2.5v1.11l10 8.39h10v-9.5c0-1.385-1.115-2.5-2.5-2.5z" fill="#245c63"/><path d="m804-628-9.36 11.156a2.48 2.48 0 0 0 1.86.844h15c1.385 0 2.5-1.115 2.5-2.5v-9.5z" fill="#396247"/><path d="M797-639c-1.108 0-2 .892-2 2v1.447l9 7.553h9v-9c0-1.108-.892-2-2-2z" fill="#48b9c7"/><path d="m804-628-8.576 10.221c.365.471.931.78 1.576.78h14c1.108 0 2-.893 2-2v-9z" fill="#73c48f"/><path d="M795-635.55v16.553c0 .463.164.882.426 1.22l8.574-10.22z" fill="#ff793e"/><path d="M755-631a1.99 1.99 0 0 0-1.852 1.25L760-624h7v-5c0-1.108-.892-2-2-2z" fill="#245c63"/><path d="m760-624-5.752 6.854c.232.093.486.146.752.146h10c1.108 0 2-.892 2-2v-5z" fill="#396247"/><path d="M753.15-629.75a2.006 2.006 0 0 0-.146.75v10a1.99 1.99 0 0 0 1.25 1.853l5.75-6.853z" fill="#7f3c1f"/><path d="M755.5-630c-.666 0-1.221.434-1.418 1.033L760-624h6v-4.5c0-.831-.669-1.5-1.5-1.5z" fill="#48b9c7"/><path d="m760-624-4.967 5.918c.148.049.302.082.467.082h9c.831 0 1.5-.669 1.5-1.5v-4.5z" fill="#73c48f"/><path d="M754.08-628.97a1.488 1.488 0 0 0-.082.467v9c0 .666.434 1.221 1.033 1.418l4.967-5.918z" fill="#ff793e"/><path d="M804-634a6 6 0 0 0-5.988 5.75H798v5.75c0 .277.223.5.5.5h5.5a6 6 0 0 0 6-6 6 6 0 0 0-6-6zm0 3a3 3 0 0 1 3 3 3 3 0 0 1-3 3 3 3 0 0 1-3-3 3 3 0 0 1 3-3z" fill-opacity=".502"/><path d="M760-628a4 4 0 0 0-4 4v3.5c0 .277.223.5.5.5h3.5a4 4 0 0 0 4-4 4 4 0 0 0-4-4zm0 2a2 2 0 0 1 2 2 2 2 0 0 1-2 2 2 2 0 0 1-2-2 2 2 0 0 1 2-2z" fill-opacity=".502"/><circle cx="760" cy="-624" r="2" fill="#fff"/><circle cx="804" cy="-628" r="3" fill="#fff"/><circle cx="860" cy="-625" r="4" fill="#fff"/><circle cx="927" cy="-631" r="8" fill="#fff"/><circle cx="1009" cy="-633" r="10" fill="#fff"/><circle cx="1147" cy="-648" r="18" fill="#fff"/><circle cx="1400" cy="-676" r="36" fill="#fff"/></g><g transform="translate(-312 -156)"><use id="G" transform="translate(0 -300)" width="100%" height="100%" xlink:href="#a"/><circle cx="256" cy="-54" r="14" fill="#444"/><circle cx="256" cy="-54" r="4" fill="#acacac"/><g transform="matrix(.5 0 0 .5 -12 -8)"><circle cx="256" cy="-54" r="14" fill="#444"/><circle cx="256" cy="-54" r="4" fill="#acacac"/></g><g transform="matrix(.5 0 0 .5 -60 -3)"><circle cx="256" cy="-54" r="12" fill="#444"/><circle cx="256" cy="-54" r="4" fill="#acacac"/></g><rect x="17" y="-31" width="14" height="14" ry="2" fill="#5b5b5b"/><rect x="18" y="-30" width="12" height="12" ry="1.5" fill="#acacac"/><g transform="matrix(.5 0 0 .5 -104 3)"><circle cx="256" cy="-54" r="8" fill="#444"/><circle cx="256" cy="-54" r="2" fill="#acacac"/></g><g transform="translate(-76 9)"><circle cx="256" cy="-54" r="12" fill="#444"/><circle cx="256" cy="-54" r="4" fill="#acacac"/></g><g transform="matrix(2 0 0 2 -136 16)"><circle cx="256" cy="-54" r="14" fill="#444"/><circle cx="256" cy="-54" r="4" fill="#acacac"/></g><g transform="matrix(4 0 0 4 -432 48)"><circle cx="256" cy="-54" r="14" fill="#444"/><circle cx="256" cy="-54" r="4" fill="#acacac"/></g></g><g transform="translate(-312 -156)"><use id="H" transform="translate(0 -300)" width="100%" height="100%" xlink:href="#G"/><rect x="17" y="-331" width="14" height="14" ry="2" fill="#5b5b5b"/><rect x="18" y="-330" width="12" height="12" ry="1.5" fill="#acacac"/><g fill="#444"><path d="m24-328-4 5h8z"/><path d="M20-322h8v2h-8z"/></g><g fill="#444"><path d="m116-343-7 8h14z"/><path d="M109-333.008h14v3h-14z"/></g><g fill="#444"><path d="m256-368-14 16h28z"/><path d="M242-348.015h28v5.999h-28z"/></g><g fill="#444"><path d="m376-420-28 32h56z"/><path d="M348-380.03h56v11.998h-56z"/></g><g fill="#444"><path d="m592-524-56 64h112z"/><path d="M536-444.06h112v23.996H536z"/></g><g fill="#444"><path d="m180-356.005-11 12h22z"/><path d="M169.001-341.016h22v5h-22z"/></g><g fill="#444"><path d="m68-336-6 7h12z"/><path d="M62-327.994h12v3H62z"/></g></g><g transform="translate(-312 -156)"><use id="I" transform="translate(0 -300)" width="100%" height="100%" xlink:href="#H"/><g fill="#444"><path d="M115-642h2v12.5h-2z"/><circle cx="116" cy="-629" r="2"/><path d="M113-640h6l-3-4z"/><path d="M111-634h10v2h-10z"/><path d="M110-637h2v4h-2z"/><path d="M120-637h2v4h-2z"/><rect x="119" y="-639" width="4" height="4" ry="1"/><rect x="109" y="-639" width="4" height="4" ry="2"/><rect x="110" y="-634" width="2" height="2" ry="1"/><rect x="120" y="-634" width="2" height="2" ry="1"/></g><g transform="translate(-48 6)" fill="#444"><path d="M115-642h2v13h-2z"/><circle cx="116" cy="-629" r="2"/><path d="M113-640h6l-3-4z"/><path d="M111-634h10v2h-10z"/><path d="M110-637h2v4h-2z"/><path d="M120-637h2v4h-2z"/><rect x="119" y="-639" width="4" height="4" ry="1"/><rect x="109" y="-639" width="4" height="4" ry="2"/><rect x="110" y="-634" width="2" height="2" ry="1"/><rect x="120" y="-634" width="2" height="2" ry="1"/></g><rect x="18" y="-631" width="13" height="14" ry="2" fill="#5b5b5b"/><rect x="19" y="-630" width="11" height="12" ry="1.5" fill="#acacac"/><g transform="translate(-92 9.5)" fill="#444"><path d="M116-636.5h1v8h-1z"/><path d="M114-636.5h5l-2.5-3z"/><path d="M114-631.5h5v1h-5z"/><path d="M113-633.5h1v3h-1z"/><path d="M119-633.5h1v3h-1z"/><rect x="118" y="-635.5" width="3" height="3" ry="1"/><rect x="112" y="-635.5" width="3" height="3" ry="1.5"/></g><g transform="matrix(2 0 0 2 24 620)" fill="#444"><path d="M115-642h2v14h-2z"/><circle cx="116" cy="-629" r="2"/><path d="M113-640h6l-3-4z"/><path d="M111-634h10v2h-10z"/><path d="M110-637h2v4h-2z"/><path d="M120-637h2v4h-2z"/><rect x="119" y="-639" width="4" height="4" ry="1"/><rect x="109" y="-639" width="4" height="4" ry="2"/><rect x="110" y="-634" width="2" height="2" ry="1"/><rect x="120" y="-634" width="2" height="2" ry="1"/></g><g transform="matrix(4 0 0 4 -88 1856)" fill="#444"><path d="M115-642h2v14h-2z"/><circle cx="116" cy="-629" r="2"/><path d="M113-640h6l-3-4z"/><path d="M111-634h10v2h-10z"/><path d="M110-637h2v4h-2z"/><path d="M120-637h2v4h-2z"/><rect x="119" y="-639" width="4" height="4" ry="1"/><rect x="109" y="-639" width="4" height="4" ry="2"/><rect x="110" y="-634" width="2" height="2" ry="1"/><rect x="120" y="-634" width="2" height="2" ry="1"/></g><g transform="matrix(8 0 0 8 -336 4328)" fill="#444"><path d="M115-642h2v14h-2z"/><circle cx="116" cy="-629" r="2"/><path d="M113-640h6l-3-4z"/><path d="M111-634h10v2h-10z"/><path d="M110-637h2v4h-2z"/><path d="M120-637h2v4h-2z"/><rect x="119" y="-639" width="4" height="4" ry="1"/><rect x="109" y="-639" width="4" height="4" ry="2"/><rect x="110" y="-634" width="2" height="2" ry="1"/><rect x="120" y="-634" width="2" height="2" ry="1"/></g><g transform="translate(64 -13)" fill="#444"><path d="M115-642h2v18h-2z"/><circle cx="116" cy="-623" r="2"/><path d="M113-640h6l-3-4z"/><path d="M109-630h14v2h-14z"/><path d="M108-634h2v5h-2z"/><path d="M122-634h2v5h-2z"/><rect x="121" y="-637" width="4" height="4" ry="1"/><rect x="107" y="-637" width="4" height="4" ry="2"/><rect x="108" y="-630" width="2" height="2" ry="1"/><rect x="122" y="-630" width="2" height="2" ry="1"/></g></g><g transform="translate(-312 -156)"><use transform="translate(0 -300)" width="100%" height="100%" xlink:href="#I"/><g fill="#444"><path d="M116-938a3 3 0 0 0-3 3 3 3 0 0 0 3 3 3 3 0 0 0 3-3 3 3 0 0 0-3-3zm0 1a2 2 0 0 1 2 2 2 2 0 0 1-2 2 2 2 0 0 1-2-2 2 2 0 0 1 2-2z"/><path d="M114-930h4v1h-4z"/><path d="M114-928h4v1h-4z"/><path d="m121-941.824 2.829 2.829-2.829 2.828-2.828-2.828z"/><path d="m113.974-939.854-2.829 2.828-.707-.707 2.828-2.828z"/><path d="m112.56-941.268-2.83 2.828-.706-.707 2.828-2.828z"/></g><g fill="#444"><path d="M256-960a6 6 0 0 0-6 6 6 6 0 0 0 6 6 6 6 0 0 0 6-6 6 6 0 0 0-6-6zm0 2a4 4 0 0 1 4 4 4 4 0 0 1-4 4 4 4 0 0 1-4-4 4 4 0 0 1 4-4z"/><path d="M252-944h8v2h-8z"/><path d="M252-940h8v2h-8z"/><path d="m266-967.648 5.657 5.657-5.657 5.657-5.657-5.657z"/><path d="m251.947-963.708-5.657 5.657-1.414-1.415 5.657-5.657z"/><path d="m249.119-966.537-5.657 5.657-1.414-1.414 5.656-5.657z"/></g><g fill="#444"><path d="M376-1004a12 12 0 0 0-12 12 12 12 0 0 0 12 12 12 12 0 0 0 12-12 12 12 0 0 0-12-12zm0 4a8 8 0 0 1 8 8 8 8 0 0 1-8 8 8 8 0 0 1-8-8 8 8 0 0 1 8-8z"/><path d="M368-972h16v4h-16z"/><path d="M368-964h16v4h-16z"/><path d="m396-1019.295 11.314 11.313L396-996.668l-11.313-11.314z"/><path d="m367.894-1011.417-11.314 11.314-2.828-2.828 11.314-11.314z"/><path d="m362.237-1017.073-11.313 11.313-2.829-2.828 11.314-11.314z"/></g><g fill="#444"><path d="M592-1092a24 24 0 0 0-24 24 24 24 0 0 0 24 24 24 24 0 0 0 24-24 24 24 0 0 0-24-24zm0 8a16 16 0 0 1 16 16 16 16 0 0 1-16 16 16 16 0 0 1-16-16 16 16 0 0 1 16-16z"/><path d="M576-1028h32v8h-32z"/><path d="M576-1012h32v8h-32z"/><path d="m632-1122.59 22.628 22.627-22.627 22.627-22.628-22.627z"/><path d="m575.788-1106.833-22.627 22.627-5.657-5.657 22.627-22.627z"/><path d="m564.474-1118.147-22.627 22.627-5.657-5.656 22.628-22.628z"/></g><path fill="#444" d="M176-937h8v2h-8z"/><path fill="#444" d="M176-933h8v2h-8z"/><path fill="#444" d="m187.504-954.743 4.242 4.243-4.242 4.243-4.243-4.243z"/><g fill="#444"><path d="m176.96-951.779-4.242 4.243-1.061-1.06 4.243-4.244z"/><path d="m174.839-953.9-4.243 4.242-1.06-1.06 4.242-4.243z"/></g><path d="M180-949a5 5 0 0 0-5 5 5 5 0 0 0 5 5 5 5 0 0 0 5-5 5 5 0 0 0-5-5zm0 2a3 3 0 0 1 3 3 3 3 0 0 1-3 3 3 3 0 0 1-3-3 3 3 0 0 1 3-3z" fill="#444"/><g fill="#444"><path d="M68-933a3 3 0 0 0-3 3 3 3 0 0 0 3 3 3 3 0 0 0 3-3 3 3 0 0 0-3-3zm0 1a2 2 0 0 1 2 2 2 2 0 0 1-2 2 2 2 0 0 1-2-2 2 2 0 0 1 2-2z"/><path d="M66-925h4v1h-4z"/><path d="M66-923h4v1h-4z"/><path d="m73-936.824 2.829 2.829L73-931.167l-2.828-2.828z"/><path d="m65.974-934.854-2.829 2.828-.707-.707 2.828-2.828z"/><path d="m64.56-936.268-2.83 2.828-.706-.707 2.828-2.828z"/></g><rect x="17" y="-931" width="14" height="14" ry="2" fill="#5b5b5b"/><rect x="18" y="-930" width="12" height="12" ry="1.5" fill="#acacac"/><path d="M24-927a2 2 0 0 0-2 2 2 2 0 0 0 2 2 2 2 0 0 0 2-2 2 2 0 0 0-2-2zm0 1a1 1 0 0 1 1 1 1 1 0 0 1-1 1 1 1 0 0 1-1-1 1 1 0 0 1 1-1z" fill="#444"/><g fill="#444"><rect x="23" y="-922" width="2" height="1" ry="0"/><path d="M23-920h2v1h-2z"/></g><path fill="#444" d="m26.997-928.912 1.415 1.414-1.415 1.414-1.414-1.414z"/><g transform="rotate(135 24.075 -924.67)" fill="#444"><rect x="23" y="-922" width="2.5" height="1" ry="0"/><path d="M23-920h2.5v1H23z"/></g></g><g transform="translate(-312 -156)"><g id="a"><rect x="233" y="223" width="46" height="60" ry="4.5" fill="#565656"/><rect x="234" y="224" width="44" height="56" ry="4" fill="#acacac"/><rect x="163" y="238" width="34" height="46" ry="3.5" fill="#565656"/><rect x="164" y="239" width="32" height="42" ry="3" fill="#acacac"/><rect x="104" y="253" width="24" height="31" ry="2.5" fill="#565656" fill-opacity=".963"/><rect x="105" y="254" width="22" height="28" ry="2" fill="#acacac"/><rect x="331" y="163" width="90" height="117" ry="8.5" fill="#565656"/><rect x="332" y="164" width="88" height="112" ry="8" fill="#acacac"/><rect x="503" y="43" width="178" height="230" ry="8.5" fill="#565656"/><rect x="504" y="44" width="176" height="224" ry="8" fill="#acacac"/><rect x="58" y="260" width="20" height="24" ry="2.5" fill="#5b5b5b"/><rect x="59" y="261" width="18" height="22" ry="2" fill="#acacac"/></g><g id="b"><circle cx="256" cy="246" r="14" fill="#444"/><path fill="#444" d="M242 246h14v11h-14z"/><path transform="rotate(90)" fill="#444" d="M246-256h14v11h-14z"/><rect x="242" y="246" width="14" height="14" ry="2" fill="#444"/><circle cx="256" cy="246" r="7" fill="#acacac"/></g><g id="c" transform="matrix(.5 0 0 .5 -12 142)"><circle cx="256" cy="246" r="14" fill="#444"/><path fill="#444" d="M242 246h14v11h-14z"/><path transform="rotate(90)" fill="#444" d="M246-256h14v11h-14z"/><rect x="242" y="246" width="14" height="14" ry="2" fill="#444"/><circle cx="256" cy="246" r="7" fill="#acacac"/></g><g id="d" transform="matrix(2 0 0 2 -136 -284)"><circle cx="256" cy="246" r="14" fill="#444"/><path fill="#444" d="M242 246h14v11h-14z"/><path transform="rotate(90)" fill="#444" d="M246-256h14v11h-14z"/><rect x="242" y="246" width="14" height="14" ry="2" fill="#444"/><circle cx="256" cy="246" r="7" fill="#acacac"/></g><g id="e" transform="matrix(4 0 0 4 -432 -852)"><circle cx="256" cy="246" r="14" fill="#444"/><path fill="#444" d="M242 246h14v11h-14z"/><path transform="rotate(90)" fill="#444" d="M246-256h14v11h-14z"/><rect x="242" y="246" width="14" height="14" ry="2" fill="#444"/><circle cx="256" cy="246" r="7" fill="#acacac"/></g><g id="f" transform="matrix(.5 0 0 .5 52 128)"><circle cx="256" cy="254" r="24" fill="#444"/><path fill="#444" d="M232 253h14v22h-14z"/><path transform="rotate(90)" fill="#444" d="M264-256h14v21h-14z"/><rect x="232" y="264" width="14" height="14" ry="2" fill="#444"/><circle cx="256" cy="254" r="12" fill="#acacac"/></g><g id="g" transform="matrix(.25 0 0 .25 4 206.5)"><circle cx="256" cy="254" r="24" fill="#444"/><path fill="#444" d="M232 253h14v22h-14z"/><path transform="rotate(90)" fill="#444" d="M264-256h14v21h-14z"/><rect x="232" y="264" width="14" height="14" ry="2" fill="#444"/><circle cx="256" cy="254" r="12" fill="#acacac"/></g><rect x="17" y="269" width="14" height="14" ry="2" fill="#5b5b5b"/><rect x="18" y="270" width="12" height="12" ry="1.5" fill="#acacac"/><g id="h" transform="matrix(.25 0 0 .25 -40 212.5)"><circle cx="256" cy="254" r="16" fill="#444"/><path fill="#444" d="M240 254h12v12h-12z"/><rect x="240" y="256" width="14" height="14" ry="2" fill="#444"/><path fill="#444" d="M244 258h12v12h-12z"/><circle cx="256" cy="254" r="8" fill="#acacac"/></g><path d="M804-334a6 6 0 0 0-5.988 5.75H798v5.75c0 .277.223.5.5.5h5.5a6 6 0 0 0 6-6 6 6 0 0 0-6-6zm0 3a3 3 0 0 1 3 3 3 3 0 0 1-3 3 3 3 0 0 1-3-3 3 3 0 0 1 3-3z" fill-opacity=".502"/><path d="M760-328a4 4 0 0 0-4 4v3.5c0 .277.223.5.5.5h3.5a4 4 0 0 0 4-4 4 4 0 0 0-4-4zm0 2a2 2 0 0 1 2 2 2 2 0 0 1-2 2 2 2 0 0 1-2-2 2 2 0 0 1 2-2z" fill-opacity=".502"/></g></svg>