<svg version="1.0" viewBox="0 0 128 128" xmlns="http://www.w3.org/2000/svg"><g transform="translate(-312 -156)"><rect x="320" y="184" width="112" height="88" ry="8" fill="#7b736e"/><path d="M328 184c-4.432 0-8 3.568-8 8v72c0 4.432 3.568 8 8 8h96c4.432 0 8-3.568 8-8v-72c0-4.432-3.568-8-8-8zm0 1h96c3.878 0 7 3.122 7 7v69c0 3.878-3.122 7-7 7h-96c-3.878 0-7-3.122-7-7v-69c0-3.878 3.122-7 7-7z" fill-opacity=".5"/><rect x="330" y="198" width="12" height="12" ry="3" fill-opacity=".5"/><rect x="410" y="198" width="12" height="12" ry="3" fill-opacity=".5"/><rect x="330" y="197" width="12" height="12" ry="3" fill="#f6f6f6"/><rect x="362" y="198" width="12" height="12" ry="3" fill-opacity=".5"/><rect x="410" y="197" width="12" height="12" ry="3" fill="#f6f6f6"/><rect x="346" y="198" width="12" height="12" ry="3" fill-opacity=".5"/><rect x="362" y="197" width="12" height="12" ry="3" fill="#f6f6f6"/><rect x="394" y="198" width="12" height="12" ry="3" fill-opacity=".5"/><rect x="346" y="197" width="12" height="12" ry="3" fill="#f6f6f6"/><rect x="378" y="198" width="12" height="12" ry="3" fill-opacity=".5"/><rect x="394" y="197" width="12" height="12" ry="3" fill="#f6f6f6"/><rect x="330" y="214" width="12" height="12" ry="3" fill-opacity=".5"/><rect x="378" y="197" width="12" height="12" ry="3" fill="#f6f6f6"/><rect x="410" y="214" width="12" height="12" ry="3" fill-opacity=".5"/><rect x="330" y="213" width="12" height="12" ry="3" fill="#f6f6f6"/><rect x="362" y="214" width="12" height="12" ry="3" fill-opacity=".5"/><rect x="410" y="213" width="12" height="12" ry="3" fill="#f6f6f6"/><rect x="346" y="214" width="12" height="12" ry="3" fill-opacity=".5"/><rect x="362" y="213" width="12" height="12" ry="3" fill="#f6f6f6"/><rect x="394" y="214" width="12" height="12" ry="3" fill-opacity=".5"/><rect x="346" y="213" width="12" height="12" ry="3" fill="#f6f6f6"/><rect x="378" y="214" width="12" height="12" ry="3" fill-opacity=".5"/><rect x="394" y="213" width="12" height="12" ry="3" fill="#f6f6f6"/><rect x="330" y="230" width="12" height="12" ry="3" fill-opacity=".5"/><rect x="378" y="213" width="12" height="12" ry="3" fill="#f6f6f6"/><rect x="410" y="230" width="12" height="12" ry="3" fill-opacity=".5"/><rect x="330" y="229" width="12" height="12" ry="3" fill="#f6f6f6"/><rect x="362" y="230" width="12" height="12" ry="3" fill-opacity=".5"/><rect x="410" y="229" width="12" height="12" ry="3" fill="#f6f6f6"/><rect x="346" y="230" width="12" height="12" ry="3" fill-opacity=".5"/><rect x="362" y="229" width="12" height="12" ry="3" fill="#f6f6f6"/><rect x="394" y="230" width="12" height="12" ry="3" fill-opacity=".5"/><rect x="346" y="229" width="12" height="12" ry="3" fill="#f6f6f6"/><rect x="378" y="230" width="12" height="12" ry="3" fill-opacity=".5"/><rect x="394" y="229" width="12" height="12" ry="3" fill="#f6f6f6"/><rect x="348" y="246" width="56" height="12" ry="3" fill-opacity=".5"/><rect x="378" y="229" width="12" height="12" ry="3" fill="#f6f6f6"/><rect x="348" y="245" width="56" height="12" ry="3" fill="#f6f6f6"/></g></svg>