<svg version="1.0" viewBox="0 0 128 128" xmlns="http://www.w3.org/2000/svg"><g transform="translate(-312 -156)"><rect x="320" y="184" width="112" height="88" ry="8" fill="#aaa"/><path d="M320 240v24c0 4.432 3.568 8 8 8h96c4.432 0 8-3.568 8-8v-24H328z" fill="#dedede"/><path d="M376 240v32" fill="none" opacity=".5" stroke="#000" stroke-width="2"/><path d="M328 184c-4.432 0-8 3.568-8 8v72c0 4.432 3.568 8 8 8h96c4.432 0 8-3.568 8-8v-72c0-4.432-3.568-8-8-8zm0 1h96c3.878 0 7 3.122 7 7v69c0 3.878-3.122 7-7 7h-96c-3.878 0-7-3.122-7-7v-69c0-3.878 3.122-7 7-7z" fill-opacity=".5"/></g></svg>