<svg version="1.0" viewBox="0 0 128 128" xmlns="http://www.w3.org/2000/svg"><g transform="translate(-312 -156)"><rect x="228" y="234" width="56" height="44" ry="4" fill="#aaa"/><path d="M228 262v12c0 2.216 1.784 4 4 4h48c2.216 0 4-1.784 4-4v-12h-52z" fill="#dedede"/><path d="M256 262v16" fill="none" opacity=".5" stroke="#000" stroke-width="2"/><rect x="159" y="247" width="42" height="33" ry="3" fill="#aaa"/><path d="M159 268v9c0 1.662 1.338 3 3 3h36c1.662 0 3-1.338 3-3v-9h-39z" fill="#dedede"/><path d="M180 268v12" fill="none" opacity=".5" stroke="#000" stroke-width="2"/><rect x="102" y="259" width="28" height="22" ry="2" fill="#aaa"/><path d="M102 273v6c0 1.108.892 2 2 2h24c1.108 0 2-.892 2-2v-6h-26z" fill="#dedede"/><path d="M116 273v8" fill="none" opacity=".5" stroke="#000" stroke-width="2"/><rect x="16" y="270" width="16" height="11" ry="1" fill="#aaa"/><path d="M16 277v4c0 .554.446 1 1 1h14c.554 0 1-.446 1-1v-4H17z" fill="#dedede"/><path d="M24 277v5" fill="none" opacity=".5" stroke="#000" stroke-width="2"/><rect x="56" y="263" width="24" height="18" ry="1.5" fill="#aaa"/><path d="M56 273.5v6c0 .831.669 1.5 1.5 1.5h21c.831 0 1.5-.669 1.5-1.5v-6H57.5z" fill="#dedede"/><path d="M68 273.5v7.5" fill="none" opacity=".5" stroke="#000" stroke-width="2"/><rect x="320" y="184" width="112" height="88" ry="8" fill="#aaa"/><path d="M320 240v24c0 4.432 3.568 8 8 8h96c4.432 0 8-3.568 8-8v-24H328z" fill="#dedede"/><path d="M376 240v32" fill="none" opacity=".5" stroke="#000" stroke-width="2"/><rect x="480" y="84" width="224" height="176" ry="16" fill="#aaa"/><path d="M480 196v48c0 8.864 7.136 16 16 16h192c8.864 0 16-7.136 16-16v-48H496z" fill="#dedede"/><path d="M592 196v64" fill="none" opacity=".5" stroke="#000" stroke-width="2"/><path d="M328 184c-4.432 0-8 3.568-8 8v72c0 4.432 3.568 8 8 8h96c4.432 0 8-3.568 8-8v-72c0-4.432-3.568-8-8-8zm0 1h96c3.878 0 7 3.122 7 7v69c0 3.878-3.122 7-7 7h-96c-3.878 0-7-3.122-7-7v-69c0-3.878 3.122-7 7-7z" fill-opacity=".5"/><path d="M232 234c-2.216 0-4 1.784-4 4v36c0 2.216 1.784 4 4 4h48c2.216 0 4-1.784 4-4v-36c0-2.216-1.784-4-4-4zm0 1h48c1.662 0 3 1.338 3 3v34c0 1.662-1.338 3-3 3h-48c-1.662 0-3-1.338-3-3v-34c0-1.662 1.338-3 3-3z" fill-opacity=".502"/><path d="M162 247c-1.662 0-3 1.338-3 3v27c0 1.662 1.338 3 3 3h36c1.662 0 3-1.338 3-3v-27c0-1.662-1.338-3-3-3zm0 1h36c1.108 0 2 .892 2 2v25c0 1.108-.892 2-2 2h-36c-1.108 0-2-.892-2-2v-25c0-1.108.892-2 2-2z" fill-opacity=".502"/><path d="M104 259c-1.108 0-2 .892-2 2v18c0 1.108.892 2 2 2h24c1.108 0 2-.892 2-2v-18c0-1.108-.892-2-2-2zm0 1h24c.554 0 1 .446 1 1v17c0 .554-.446 1-1 1h-24c-.554 0-1-.446-1-1v-17c0-.554.446-1 1-1z" fill-opacity=".502"/><path d="M57.5 263c-.831 0-1.5.669-1.5 1.5v15c0 .831.669 1.5 1.5 1.5h21c.831 0 1.5-.669 1.5-1.5v-15c0-.831-.669-1.5-1.5-1.5zm0 1h21c.277 0 .5.223.5.5v15c0 .277-.223.5-.5.5h-21a.499.499 0 0 1-.5-.5v-15c0-.277.223-.5.5-.5z" fill-opacity=".502"/><path d="M17 270c-.554 0-1 .446-1 1v10c0 .554.446 1 1 1h14c.554 0 1-.446 1-1v-10c0-.554-.446-1-1-1zm0 1h14v10H17z" fill-opacity=".502"/><path d="M496 84c-8.864 0-16 7.136-16 16v144c0 8.864 7.136 16 16 16h192c8.864 0 16-7.136 16-16V100c0-8.864-7.136-16-16-16zm0 1h192c8.31 0 15 6.69 15 15v140c0 8.31-6.69 15-15 15H496c-8.31 0-15-6.69-15-15V100c0-8.31 6.69-15 15-15z" fill-opacity=".502"/></g></svg>