<svg version="1.0" viewBox="0 0 128 128" xmlns="http://www.w3.org/2000/svg"><g transform="translate(-312 -156)"><rect x="332" y="164" width="88" height="112" ry="8" fill="#98989d"/><path d="M340 164c-4.432 0-8 3.568-8 8v12h88v-12c0-4.432-3.568-8-8-8z" fill="#bcbcc0"/><circle cx="343" cy="175" r="5" fill="#ffca40"/><path d="M351 205c32.542-25.209 49.097 14.925 24 18-30.658 3.756-19 40-2 24s32 8 32 8" fill="none" stroke="#000" stroke-width="8"/><path d="M340 164c-4.432 0-8 3.568-8 8v96c0 4.432 3.568 8 8 8h72c4.432 0 8-3.568 8-8v-96c0-4.432-3.568-8-8-8zm0 1h72c3.878 0 7 3.122 7 7v93c0 3.878-3.122 7-7 7h-72c-3.878 0-7-3.122-7-7v-93c0-3.878 3.122-7 7-7z" fill-opacity=".5"/></g></svg>