<svg version="1.0" viewBox="0 0 128 128" xmlns="http://www.w3.org/2000/svg"><g transform="translate(-312 -156)"><rect x="239" y="222" width="34" height="60" ry="17" fill="#98989d"/><path d="M256 222c-9.418 0-17 7.582-17 17v26c0 9.418 7.582 17 17 17s17-7.582 17-17v-26c0-9.418-7.582-17-17-17zm0 1c8.864 0 16 7.136 16 16v23c0 8.864-7.136 16-16 16s-16-7.136-16-16v-23c0-8.864 7.136-16 16-16z" fill-opacity=".5"/><path d="M256 222v60c9.418 0 17-7.582 17-17v-26c0-9.418-7.582-17-17-17z" fill="#fff" fill-opacity=".2"/><rect x="253" y="228" width="6" height="18" ry="3" fill="#fff" fill-opacity=".4"/><rect x="254" y="230" width="4" height="15" ry="2" fill="#343434"/><rect x="167" y="238" width="26" height="44" ry="13" fill="#98989d"/><path d="M180 238c-7.202 0-13 5.798-13 13v18c0 7.202 5.798 13 13 13s13-5.798 13-13v-18c0-7.202-5.798-13-13-13zm0 1c6.648 0 12 5.352 12 12v16c0 6.648-5.352 12-12 12s-12-5.352-12-12v-16c0-6.648 5.352-12 12-12z" fill-opacity=".5"/><path d="M180 238v44c7.202 0 13-5.798 13-13v-18c0-7.202-5.798-13-13-13z" fill="#fff" fill-opacity=".2"/><rect x="177" y="242" width="6" height="17" ry="3" fill="#fff" fill-opacity=".4"/><rect x="178" y="244" width="4" height="14" ry="2" fill="#343434"/><rect x="107" y="253" width="18" height="30" ry="8.5" fill="#98989d"/><path d="M115.5 253a8.481 8.481 0 0 0-8.5 8.5v13c0 4.709 3.791 8.5 8.5 8.5h1c4.709 0 8.5-3.791 8.5-8.5v-13c0-4.709-3.791-8.5-8.5-8.5zm.5 1c4.432 0 8 3.568 8 8v11c0 4.432-3.568 8-8 8s-8-3.568-8-8v-11c0-4.432 3.568-8 8-8z" fill-opacity=".5"/><path d="M116 253v30h.5c4.709 0 8.5-3.791 8.5-8.5v-13c0-4.709-3.791-8.5-8.5-8.5z" fill="#fff" fill-opacity=".2"/><rect x="114" y="255" width="4" height="11" ry="2" fill="#fff" fill-opacity=".4"/><rect x="115" y="257" width="2" height="8" ry="1" fill="#343434"/><rect x="62" y="261" width="12" height="22" ry="6" fill="#98989d"/><path d="M68 261c-3.324 0-6 2.676-6 6v10c0 3.324 2.676 6 6 6s6-2.676 6-6v-10c0-3.324-2.676-6-6-6zm0 1c2.77 0 5 2.23 5 5v10c0 2.77-2.23 5-5 5s-5-2.23-5-5v-10c0-2.77 2.23-5 5-5z" fill-opacity=".5"/><rect x="19" y="268" width="10" height="16" ry="5" fill="#98989d"/><path d="M24 268c-2.77 0-5 2.23-5 5v6c0 2.77 2.23 5 5 5s5-2.23 5-5v-6c0-2.77-2.23-5-5-5zm0 1c2.216 0 4 1.784 4 4v6c0 2.216-1.784 4-4 4s-4-1.784-4-4v-6c0-2.216 1.784-4 4-4z" fill-opacity=".5"/><rect x="342" y="160" width="68" height="120" ry="34" fill="#98989d"/><rect x="524" y="36" width="136" height="240" ry="68" fill="#98989d"/><path d="M376 160c-18.836 0-34 15.164-34 34v52c0 18.836 15.164 34 34 34s34-15.164 34-34v-52c0-18.836-15.164-34-34-34zm0 1c18.282 0 33 14.718 33 33v47c0 18.282-14.718 33-33 33s-33-14.718-33-33v-47c0-18.282 14.718-33 33-33z" fill-opacity=".5"/><path d="M592 36c-37.672 0-68 30.328-68 68v104c0 37.672 30.328 68 68 68s68-30.328 68-68V104c0-37.672-30.328-68-68-68zm0 1c37.118 0 67 29.882 67 67v95c0 37.118-29.882 67-67 67s-67-29.882-67-67v-95c0-37.118 29.882-67 67-67z" fill-opacity=".502"/><path d="M376 160v120c18.836 0 34-15.164 34-34v-52c0-18.836-15.164-34-34-34z" fill="#fff" fill-opacity=".2"/><rect x="371" y="173" width="10" height="34" ry="5" fill="#fff" fill-opacity=".4"/><rect x="372" y="176" width="8" height="30" ry="4" fill="#343434"/><path d="M592 36v240c37.672 0 68-30.328 68-68V104c0-37.672-30.328-68-68-68z" fill="#fff" fill-opacity=".2"/><rect x="583" y="64" width="18" height="65" ry="9" fill="#fff" fill-opacity=".4"/><rect x="584" y="68" width="16" height="60" ry="8" fill="#343434"/><rect x="66" y="264" width="4" height="8" ry="2" fill="#fff" fill-opacity=".4"/><path d="M68 261v21.75c0 .085-.02.164-.025.248L68 283c3.324 0 6-2.676 6-6v-10c0-3.324-2.676-6-6-6z" fill="#fff" fill-opacity=".2"/><rect x="67" y="265" width="2" height="6" ry="1" fill="#343434"/><rect x="22" y="270" width="4" height="7" ry="2" fill="#fff" fill-opacity=".4"/><path d="M24 268v16c2.77 0 5-2.23 5-5v-6c0-2.77-2.23-5-5-5z" fill="#fff" fill-opacity=".2"/><rect x="23" y="271" width="2" height="5" ry="1" fill="#343434"/></g></svg>