<svg version="1.0" viewBox="0 0 128 128" xmlns="http://www.w3.org/2000/svg"><g transform="translate(-312 -156)"><rect x="16" y="270" width="15" height="12" ry="2" fill="#7b736e"/><path d="M18 270c-1.108 0-2 .892-2 2v8c0 1.108.892 2 2 2h11c1.108 0 2-.892 2-2v-8c0-1.108-.892-2-2-2zm0 1h11c.554 0 1 .446 1 1v8c0 .554-.446 1-1 1H18c-.554 0-1-.446-1-1v-8c0-.554.446-1 1-1z" fill-opacity=".5"/><rect x="18" y="272" width="2" height="2" ry=".5" fill="#ededed"/><rect x="18" y="275" width="2" height="2" ry=".5" fill="#ededed"/><rect x="20" y="278" width="7" height="2" ry=".5" fill="#ededed"/><rect x="21" y="272" width="2" height="2" ry=".5" fill="#ededed"/><rect x="21" y="275" width="2" height="2" ry=".5" fill="#ededed"/><rect x="24" y="272" width="2" height="2" ry=".5" fill="#ededed"/><rect x="24" y="275" width="2" height="2" ry=".5" fill="#ededed"/><rect x="27" y="272" width="2" height="2" ry=".5" fill="#ededed"/><rect x="27" y="275" width="2" height="2" ry=".5" fill="#ededed"/><rect x="56" y="263" width="24" height="18" ry="2" fill="#7b736e"/><rect x="59" y="266" width="3" height="3" ry=".5" fill-opacity=".5"/><path d="M58 263c-1.108 0-2 .892-2 2v14c0 1.108.892 2 2 2h20c1.108 0 2-.892 2-2v-14c0-1.108-.892-2-2-2zm0 1h20c.554 0 1 .446 1 1v14c0 .554-.446 1-1 1H58c-.554 0-1-.446-1-1v-14c0-.554.446-1 1-1z" fill-opacity=".5"/><rect x="59" y="271" width="3" height="3" ry=".5" fill-opacity=".5"/><rect x="59" y="265" width="3" height="3" ry=".5" fill="#ededed"/><rect x="62" y="276" width="12" height="3" ry=".5" fill-opacity=".5"/><rect x="59" y="270" width="3" height="3" ry=".5" fill="#ededed"/><rect x="64" y="266" width="3" height="3" ry=".5" fill-opacity=".5"/><rect x="62" y="275" width="12" height="3" ry=".5" fill="#ededed"/><rect x="64" y="271" width="3" height="3" ry=".5" fill-opacity=".5"/><rect x="64" y="265" width="3" height="3" ry=".5" fill="#ededed"/><rect x="69" y="266" width="3" height="3" ry=".5" fill-opacity=".5"/><rect x="64" y="270" width="3" height="3" ry=".5" fill="#ededed"/><rect x="69" y="271" width="3" height="3" ry=".5" fill-opacity=".5"/><rect x="69" y="265" width="3" height="3" ry=".5" fill="#ededed"/><rect x="74" y="266" width="3" height="3" ry=".5" fill-opacity=".5"/><rect x="69" y="270" width="3" height="3" ry=".5" fill="#ededed"/><rect x="74" y="271" width="3" height="3" ry=".5" fill-opacity=".5"/><rect x="74" y="265" width="3" height="3" ry=".5" fill="#ededed"/><rect x="74" y="270" width="3" height="3" ry=".5" fill="#ededed"/><rect x="102" y="259" width="28" height="22" ry="3" fill="#7b736e"/><path d="M105 259c-1.662 0-3 1.338-3 3v16c0 1.662 1.338 3 3 3h22c1.662 0 3-1.338 3-3v-16c0-1.662-1.338-3-3-3zm0 1h22c1.108 0 2 .892 2 2v15c0 1.108-.892 2-2 2h-22c-1.108 0-2-.892-2-2v-15c0-1.108.892-2 2-2z" fill-opacity=".5"/><rect x="159" y="247" width="42" height="32" ry="4" fill="#7b736e"/><rect x="164" y="254" width="5" height="5" ry="1" fill-opacity=".5"/><path d="M163 247c-2.216 0-4 1.784-4 4v24c0 2.216 1.784 4 4 4h34c2.216 0 4-1.784 4-4v-24c0-2.216-1.784-4-4-4zm0 1h34c1.662 0 3 1.338 3 3v22c0 1.662-1.338 3-3 3h-34c-1.662 0-3-1.338-3-3v-22c0-1.662 1.338-3 3-3z" fill-opacity=".5"/><rect x="192" y="254" width="5" height="5" ry="1" fill-opacity=".5"/><rect x="228" y="234" width="56" height="44" ry="4" fill="#7b736e"/><path d="M232 234c-2.216 0-4 1.784-4 4v36c0 2.216 1.784 4 4 4h48c2.216 0 4-1.784 4-4v-36c0-2.216-1.784-4-4-4zm0 1h48c1.662 0 3 1.338 3 3v34c0 1.662-1.338 3-3 3h-48c-1.662 0-3-1.338-3-3v-34c0-1.662 1.338-3 3-3z" fill-opacity=".5"/><rect x="320" y="184" width="112" height="88" ry="8" fill="#7b736e"/><path d="M328 184c-4.432 0-8 3.568-8 8v72c0 4.432 3.568 8 8 8h96c4.432 0 8-3.568 8-8v-72c0-4.432-3.568-8-8-8zm0 1h96c3.878 0 7 3.122 7 7v69c0 3.878-3.122 7-7 7h-96c-3.878 0-7-3.122-7-7v-69c0-3.878 3.122-7 7-7z" fill-opacity=".5"/><rect x="480" y="84" width="224" height="176" ry="16" fill="#7b736e"/><path d="M496 84c-8.864 0-16 7.136-16 16v144c0 8.864 7.136 16 16 16h192c8.864 0 16-7.136 16-16V100c0-8.864-7.136-16-16-16zm0 1h192c8.31 0 15 6.69 15 15v140c0 8.31-6.69 15-15 15H496c-8.31 0-15-6.69-15-15V100c0-8.31 6.69-15 15-15z" fill-opacity=".5"/><rect x="105" y="262" width="4" height="4" ry="1" fill-opacity=".5"/><rect x="105" y="268" width="4" height="4" ry="1" fill-opacity=".5"/><rect x="105" y="261" width="4" height="4" ry="1" fill="#ededed"/><rect x="108" y="274" width="16" height="4" ry="1" fill-opacity=".5"/><rect x="105" y="267" width="4" height="4" ry="1" fill="#ededed"/><rect x="111" y="262" width="4" height="4" ry="1" fill-opacity=".5"/><rect x="108" y="273" width="16" height="4" ry="1" fill="#ededed"/><rect x="111" y="268" width="4" height="4" ry="1" fill-opacity=".5"/><rect x="111" y="261" width="4" height="4" ry="1" fill="#ededed"/><rect x="117" y="262" width="4" height="4" ry="1" fill-opacity=".5"/><rect x="111" y="267" width="4" height="4" ry="1" fill="#ededed"/><rect x="117" y="268" width="4" height="4" ry="1" fill-opacity=".5"/><rect x="117" y="261" width="4" height="4" ry="1" fill="#ededed"/><rect x="123" y="262" width="4" height="4" ry="1" fill-opacity=".5"/><rect x="117" y="267" width="4" height="4" ry="1" fill="#ededed"/><rect x="123" y="268" width="4" height="4" ry="1" fill-opacity=".5"/><rect x="123" y="261" width="4" height="4" ry="1" fill="#ededed"/><rect x="123" y="267" width="4" height="4" ry="1" fill="#ededed"/><rect x="164" y="253" width="5" height="5" ry="1" fill="#ededed"/><rect x="185" y="254" width="5" height="5" ry="1" fill-opacity=".5"/><rect x="192" y="253" width="5" height="5" ry="1" fill="#ededed"/><rect x="178" y="254" width="5" height="5" ry="1" fill-opacity=".5"/><rect x="185" y="253" width="5" height="5" ry="1" fill="#ededed"/><rect x="171" y="254" width="5" height="5" ry="1" fill-opacity=".5"/><rect x="178" y="253" width="5" height="5" ry="1" fill="#ededed"/><rect x="164" y="261" width="5" height="5" ry="1" fill-opacity=".5"/><rect x="171" y="253" width="5" height="5" ry="1" fill="#ededed"/><rect x="192" y="261" width="5" height="5" ry="1" fill-opacity=".5"/><rect x="164" y="260" width="5" height="5" ry="1" fill="#ededed"/><rect x="185" y="261" width="5" height="5" ry="1" fill-opacity=".5"/><rect x="192" y="260" width="5" height="5" ry="1" fill="#ededed"/><rect x="178" y="261" width="5" height="5" ry="1" fill-opacity=".5"/><rect x="185" y="260" width="5" height="5" ry="1" fill="#ededed"/><rect x="171" y="261" width="5" height="5" ry="1" fill-opacity=".5"/><rect x="178" y="260" width="5" height="5" ry="1" fill="#ededed"/><rect x="170" y="268" width="21" height="5" ry="1" fill-opacity=".5"/><rect x="171" y="260" width="5" height="5" ry="1" fill="#ededed"/><rect x="170" y="267" width="21" height="5" ry="1" fill="#ededed"/><rect x="233" y="241" width="6" height="6" ry="1.5" fill-opacity=".5"/><rect x="273" y="241" width="6" height="6" ry="1.5" fill-opacity=".5"/><rect x="233" y="240" width="6" height="6" ry="1.5" fill="#ededed"/><rect x="249" y="241" width="6" height="6" ry="1.5" fill-opacity=".5"/><rect x="273" y="240" width="6" height="6" ry="1.5" fill="#ededed"/><rect x="241" y="241" width="6" height="6" ry="1.5" fill-opacity=".5"/><rect x="249" y="240" width="6" height="6" ry="1.5" fill="#ededed"/><rect x="265" y="241" width="6" height="6" ry="1.5" fill-opacity=".5"/><rect x="241" y="240" width="6" height="6" ry="1.5" fill="#ededed"/><rect x="257" y="241" width="6" height="6" ry="1.5" fill-opacity=".5"/><rect x="265" y="240" width="6" height="6" ry="1.5" fill="#ededed"/><rect x="233" y="249" width="6" height="6" ry="1.5" fill-opacity=".5"/><rect x="257" y="240" width="6" height="6" ry="1.5" fill="#ededed"/><rect x="273" y="249" width="6" height="6" ry="1.5" fill-opacity=".5"/><rect x="233" y="248" width="6" height="6" ry="1.5" fill="#ededed"/><rect x="249" y="249" width="6" height="6" ry="1.5" fill-opacity=".5"/><rect x="273" y="248" width="6" height="6" ry="1.5" fill="#ededed"/><rect x="241" y="249" width="6" height="6" ry="1.5" fill-opacity=".5"/><rect x="249" y="248" width="6" height="6" ry="1.5" fill="#ededed"/><rect x="265" y="249" width="6" height="6" ry="1.5" fill-opacity=".5"/><rect x="241" y="248" width="6" height="6" ry="1.5" fill="#ededed"/><rect x="257" y="249" width="6" height="6" ry="1.5" fill-opacity=".5"/><rect x="265" y="248" width="6" height="6" ry="1.5" fill="#ededed"/><rect x="233" y="257" width="6" height="6" ry="1.5" fill-opacity=".5"/><rect x="257" y="248" width="6" height="6" ry="1.5" fill="#ededed"/><rect x="273" y="257" width="6" height="6" ry="1.5" fill-opacity=".5"/><rect x="233" y="256" width="6" height="6" ry="1.5" fill="#ededed"/><rect x="249" y="257" width="6" height="6" ry="1.5" fill-opacity=".5"/><rect x="273" y="256" width="6" height="6" ry="1.5" fill="#ededed"/><rect x="241" y="257" width="6" height="6" ry="1.5" fill-opacity=".5"/><rect x="249" y="256" width="6" height="6" ry="1.5" fill="#ededed"/><rect x="265" y="257" width="6" height="6" ry="1.5" fill-opacity=".5"/><rect x="241" y="256" width="6" height="6" ry="1.5" fill="#ededed"/><rect x="257" y="257" width="6" height="6" ry="1.5" fill-opacity=".5"/><rect x="265" y="256" width="6" height="6" ry="1.5" fill="#ededed"/><rect x="242" y="265" width="28" height="6" ry="1.5" fill-opacity=".5"/><rect x="257" y="256" width="6" height="6" ry="1.5" fill="#ededed"/><rect x="242" y="264" width="28" height="6" ry="1.5" fill="#ededed"/><rect x="330" y="198" width="12" height="12" ry="3" fill-opacity=".5"/><rect x="410" y="198" width="12" height="12" ry="3" fill-opacity=".5"/><rect x="330" y="197" width="12" height="12" ry="3" fill="#f6f6f6"/><rect x="362" y="198" width="12" height="12" ry="3" fill-opacity=".5"/><rect x="410" y="197" width="12" height="12" ry="3" fill="#f6f6f6"/><rect x="346" y="198" width="12" height="12" ry="3" fill-opacity=".5"/><rect x="362" y="197" width="12" height="12" ry="3" fill="#f6f6f6"/><rect x="394" y="198" width="12" height="12" ry="3" fill-opacity=".5"/><rect x="346" y="197" width="12" height="12" ry="3" fill="#f6f6f6"/><rect x="378" y="198" width="12" height="12" ry="3" fill-opacity=".5"/><rect x="394" y="197" width="12" height="12" ry="3" fill="#f6f6f6"/><rect x="330" y="214" width="12" height="12" ry="3" fill-opacity=".5"/><rect x="378" y="197" width="12" height="12" ry="3" fill="#f6f6f6"/><rect x="410" y="214" width="12" height="12" ry="3" fill-opacity=".5"/><rect x="330" y="213" width="12" height="12" ry="3" fill="#f6f6f6"/><rect x="362" y="214" width="12" height="12" ry="3" fill-opacity=".5"/><rect x="410" y="213" width="12" height="12" ry="3" fill="#f6f6f6"/><rect x="346" y="214" width="12" height="12" ry="3" fill-opacity=".5"/><rect x="362" y="213" width="12" height="12" ry="3" fill="#f6f6f6"/><rect x="394" y="214" width="12" height="12" ry="3" fill-opacity=".5"/><rect x="346" y="213" width="12" height="12" ry="3" fill="#f6f6f6"/><rect x="378" y="214" width="12" height="12" ry="3" fill-opacity=".5"/><rect x="394" y="213" width="12" height="12" ry="3" fill="#f6f6f6"/><rect x="330" y="230" width="12" height="12" ry="3" fill-opacity=".5"/><rect x="378" y="213" width="12" height="12" ry="3" fill="#f6f6f6"/><rect x="410" y="230" width="12" height="12" ry="3" fill-opacity=".5"/><rect x="330" y="229" width="12" height="12" ry="3" fill="#f6f6f6"/><rect x="362" y="230" width="12" height="12" ry="3" fill-opacity=".5"/><rect x="410" y="229" width="12" height="12" ry="3" fill="#f6f6f6"/><rect x="346" y="230" width="12" height="12" ry="3" fill-opacity=".5"/><rect x="362" y="229" width="12" height="12" ry="3" fill="#f6f6f6"/><rect x="394" y="230" width="12" height="12" ry="3" fill-opacity=".5"/><rect x="346" y="229" width="12" height="12" ry="3" fill="#f6f6f6"/><rect x="378" y="230" width="12" height="12" ry="3" fill-opacity=".5"/><rect x="394" y="229" width="12" height="12" ry="3" fill="#f6f6f6"/><rect x="348" y="246" width="56" height="12" ry="3" fill-opacity=".5"/><rect x="378" y="229" width="12" height="12" ry="3" fill="#f6f6f6"/><rect x="348" y="245" width="56" height="12" ry="3" fill="#f6f6f6"/><rect x="500" y="111" width="24" height="24" ry="6" fill-opacity=".5"/><rect x="660" y="111" width="24" height="24" ry="6" fill-opacity=".5"/><rect x="500" y="110" width="24" height="24" ry="6" fill="#f6f6f6"/><rect x="564" y="111" width="24" height="24" ry="6" fill-opacity=".5"/><rect x="660" y="110" width="24" height="24" ry="6" fill="#f6f6f6"/><rect x="532" y="111" width="24" height="24" ry="6" fill-opacity=".5"/><rect x="564" y="110" width="24" height="24" ry="6" fill="#f6f6f6"/><rect x="628" y="111" width="24" height="24" ry="6" fill-opacity=".5"/><rect x="532" y="110" width="24" height="24" ry="6" fill="#f6f6f6"/><rect x="596" y="111" width="24" height="24" ry="6" fill-opacity=".5"/><rect x="628" y="110" width="24" height="24" ry="6" fill="#f6f6f6"/><rect x="500" y="143" width="24" height="24" ry="6" fill-opacity=".5"/><rect x="596" y="110" width="24" height="24" ry="6" fill="#f6f6f6"/><rect x="660" y="143" width="24" height="24" ry="6" fill-opacity=".5"/><rect x="500" y="142" width="24" height="24" ry="6" fill="#f6f6f6"/><rect x="564" y="143" width="24" height="24" ry="6" fill-opacity=".5"/><rect x="660" y="142" width="24" height="24" ry="6" fill="#f6f6f6"/><rect x="532" y="143" width="24" height="24" ry="6" fill-opacity=".5"/><rect x="564" y="142" width="24" height="24" ry="6" fill="#f6f6f6"/><rect x="628" y="143" width="24" height="24" ry="6" fill-opacity=".5"/><rect x="532" y="142" width="24" height="24" ry="6" fill="#f6f6f6"/><rect x="596" y="143" width="24" height="24" ry="6" fill-opacity=".5"/><rect x="628" y="142" width="24" height="24" ry="6" fill="#f6f6f6"/><rect x="500" y="175" width="24" height="24" ry="6" fill-opacity=".5"/><rect x="596" y="142" width="24" height="24" ry="6" fill="#f6f6f6"/><rect x="660" y="175" width="24" height="24" ry="6" fill-opacity=".5"/><rect x="500" y="174" width="24" height="24" ry="6" fill="#f6f6f6"/><rect x="564" y="175" width="24" height="24" ry="6" fill-opacity=".5"/><rect x="660" y="174" width="24" height="24" ry="6" fill="#f6f6f6"/><rect x="532" y="175" width="24" height="24" ry="6" fill-opacity=".5"/><rect x="564" y="174" width="24" height="24" ry="6" fill="#f6f6f6"/><rect x="628" y="175" width="24" height="24" ry="6" fill-opacity=".5"/><rect x="532" y="174" width="24" height="24" ry="6" fill="#f6f6f6"/><rect x="596" y="175" width="24" height="24" ry="6" fill-opacity=".5"/><rect x="628" y="174" width="24" height="24" ry="6" fill="#f6f6f6"/><rect x="536" y="207" width="112" height="24" ry="6" fill-opacity=".5"/><rect x="596" y="174" width="24" height="24" ry="6" fill="#f6f6f6"/><rect x="536" y="206" width="112" height="24" ry="6" fill="#f6f6f6"/></g></svg>