<svg version="1.0" viewBox="0 0 128 128" xmlns="http://www.w3.org/2000/svg"><g transform="translate(-312 -156)"><rect x="342" y="160" width="68" height="120" ry="34" fill="#98989d"/><path d="M376 160c-18.836 0-34 15.164-34 34v52c0 18.836 15.164 34 34 34s34-15.164 34-34v-52c0-18.836-15.164-34-34-34zm0 1c18.282 0 33 14.718 33 33v47c0 18.282-14.718 33-33 33s-33-14.718-33-33v-47c0-18.282 14.718-33 33-33z" fill-opacity=".5"/><path d="M376 160v120c18.836 0 34-15.164 34-34v-52c0-18.836-15.164-34-34-34z" fill="#fff" fill-opacity=".2"/><rect x="371" y="173" width="10" height="34" ry="5" fill="#fff" fill-opacity=".4"/><rect x="372" y="176" width="8" height="30" ry="4" fill="#343434"/></g></svg>