<svg version="1.0" viewBox="0 0 128 128" xmlns="http://www.w3.org/2000/svg"><path d="M20 12c-4.432 0-8 3.568-8 8v80l16 16h88V20c0-4.432-3.568-8-8-8z" fill="#4d4d4d"/><path opacity=".2" d="M50 76h54v36H50z"/><path d="M34 76v40h55.999V76zm15.999 4h16v32H50z" fill="#ececec"/><path d="M24 12v48c0 8 8 8 8 8h64s8 0 8-8V12z" fill="#333"/><path fill-opacity=".502" d="M34 112h56v4H34z"/><path d="M20 12c-4.432 0-8 3.568-8 8v80l16 16h88V20c0-4.432-3.568-8-8-8zm0 1h88c3.878 0 7 3.122 7 7v92H29L13 96V20c0-3.878 3.122-7 7-7z" fill="#fff" fill-opacity=".502"/></svg>