<svg version="1.0" viewBox="0 0 128 128" xmlns="http://www.w3.org/2000/svg"><g transform="translate(-312 -156)"><rect x="316" y="160" width="120" height="123" ry="60" fill="#cdcdcd"/><path d="M376 160c-33.24 0-60 26.76-60 60v3c0 33.24 26.76 60 60 60s60-26.76 60-60v-3c0-33.24-26.76-60-60-60zm0 1c32.686 0 59 26.314 59 59s-26.314 59-59 59-59-26.314-59-59 26.314-59 59-59z" fill-opacity=".5"/><circle cx="376" cy="220" r="20.5" fill="none" stroke="#000" stroke-linecap="square" stroke-opacity=".5"/><circle cx="376" cy="220" r="20" fill-opacity=".2"/><circle cx="376" cy="220" r="8" fill-opacity=".8"/></g></svg>