<svg version="1.0" viewBox="0 0 128 128" xmlns="http://www.w3.org/2000/svg"><g transform="translate(-312 -156)"><rect x="332" y="164" width="88" height="112" ry="8" fill="#545454"/><rect x="342" y="174" width="68" height="46" ry="2" fill="#222"/><rect x="350" y="224" width="16" height="17" ry="8" fill="#222"/><rect x="386" y="224" width="16" height="17" ry="8" fill="#222"/><rect x="386" y="248" width="16" height="17" ry="8" fill="#222"/><path d="M358 224c-4.432 0-8 3.568-8 8v1c0 4.432 3.568 8 8 8s8-3.568 8-8v-1c0-4.432-3.568-8-8-8zm0 2c3.878 0 7 3.122 7 7s-3.122 7-7 7-7-3.122-7-7 3.122-7 7-7z" fill="#fff" fill-opacity=".502"/><rect x="350" y="248" width="16" height="17" ry="8" fill="#222"/><path d="M368.07 186.35a2 2 0 0 0-1.992 1.883h-.004v.05l-.004.067c0 .047 0 .094.004.14l-.004 17.153a2 2 0 0 0 2 2 2 2 0 0 0 .844-.192l.004.004.05-.027.008-.004a2 2 0 0 0 .176-.098l15.691-8.543.02-.008v-.004a2 2 0 0 0 1.074-1.77 2 2 0 0 0-1.007-1.734l-.036-.02-.008-.004-15.848-8.644h-.004a2.02 2.02 0 0 0-.965-.25z" fill="#ededed" fill-opacity=".8"/><path d="M394 224c-4.432 0-8 3.568-8 8v1c0 4.432 3.568 8 8 8s8-3.568 8-8v-1c0-4.432-3.568-8-8-8zm0 2c3.878 0 7 3.122 7 7s-3.122 7-7 7-7-3.122-7-7 3.122-7 7-7z" fill="#fff" fill-opacity=".502"/><path d="M394 248c-4.432 0-8 3.568-8 8v1c0 4.432 3.568 8 8 8s8-3.568 8-8v-1c0-4.432-3.568-8-8-8zm0 2c3.878 0 7 3.122 7 7s-3.122 7-7 7-7-3.122-7-7 3.122-7 7-7z" fill="#fff" fill-opacity=".502"/><path d="M358 248c-4.432 0-8 3.568-8 8v1c0 4.432 3.568 8 8 8s8-3.568 8-8v-1c0-4.432-3.568-8-8-8zm0 2c3.878 0 7 3.122 7 7s-3.122 7-7 7-7-3.122-7-7 3.122-7 7-7z" fill="#fff" fill-opacity=".502"/><path d="M340 164c-4.432 0-8 3.568-8 8v96c0 4.432 3.568 8 8 8h72c4.432 0 8-3.568 8-8v-96c0-4.432-3.568-8-8-8zm0 1h72c3.878 0 7 3.122 7 7v93c0 3.878-3.122 7-7 7h-72c-3.878 0-7-3.122-7-7v-93c0-3.878 3.122-7 7-7z" fill="#fff" fill-opacity=".502"/></g></svg>