<svg version="1.0" viewBox="0 0 128 128" xmlns="http://www.w3.org/2000/svg"><g transform="translate(-312 -156)"><rect x="234" y="224" width="44" height="56" ry="4" fill="#545454"/><path d="M238 224c-2.216 0-4 1.784-4 4v48c0 2.216 1.784 4 4 4h36c2.216 0 4-1.784 4-4v-48c0-2.216-1.784-4-4-4zm0 1h36c1.662 0 3 1.338 3 3v46c0 1.662-1.338 3-3 3h-36c-1.662 0-3-1.338-3-3v-46c0-1.662 1.338-3 3-3z" fill="#fff" fill-opacity=".5"/><rect x="239" y="229" width="34" height="23" ry="1" fill="#222"/><rect x="243" y="254" width="8" height="9" ry="4" fill="#222"/><path d="M247 254c-2.216 0-4 1.784-4 4v1c0 2.216 1.784 4 4 4s4-1.784 4-4v-1c0-2.216-1.784-4-4-4zm0 2c1.662 0 3 1.338 3 3s-1.338 3-3 3-3-1.338-3-3 1.338-3 3-3z" fill="#fff" fill-opacity=".502"/><rect x="261" y="254" width="8" height="9" ry="4" fill="#222"/><path d="M265 254c-2.216 0-4 1.784-4 4v1c0 2.216 1.784 4 4 4s4-1.784 4-4v-1c0-2.216-1.784-4-4-4zm0 2c1.662 0 3 1.338 3 3s-1.338 3-3 3-3-1.338-3-3 1.338-3 3-3z" fill="#fff" fill-opacity=".502"/><rect x="261" y="266" width="8" height="9" ry="4" fill="#222"/><path d="M265 266c-2.216 0-4 1.784-4 4v1c0 2.216 1.784 4 4 4s4-1.784 4-4v-1c0-2.216-1.784-4-4-4zm0 2c1.662 0 3 1.338 3 3s-1.338 3-3 3-3-1.338-3-3 1.338-3 3-3z" fill="#fff" fill-opacity=".502"/><rect x="243" y="266" width="8" height="9" ry="4" fill="#222"/><path d="M247 266c-2.216 0-4 1.784-4 4v1c0 2.216 1.784 4 4 4s4-1.784 4-4v-1c0-2.216-1.784-4-4-4zm0 2c1.662 0 3 1.338 3 3s-1.338 3-3 3-3-1.338-3-3 1.338-3 3-3z" fill="#fff" fill-opacity=".502"/><path d="M252.03 235.18a1 1 0 0 0-.996.941h-.002v.026l-.002.033c0 .023 0 .047.002.07l-.002 8.576a1 1 0 0 0 1 1 1 1 0 0 0 .422-.095l.002.002.025-.014.004-.002a1 1 0 0 0 .088-.049l7.846-4.271.01-.004v-.002a1 1 0 0 0 .033-1.752l-.018-.01-.004-.002-7.923-4.322h-.002a1.01 1.01 0 0 0-.483-.125z" fill="#ededed" fill-opacity=".8"/><rect x="105" y="254" width="22" height="28" ry="2" fill="#545454"/><rect x="107" y="256" width="18" height="12" ry="0" fill="#222"/><rect x="110" y="269" width="4" height="4" ry="1.994" fill="#222"/><rect x="118" y="269" width="4" height="4" ry="2" fill="#222"/><rect x="110" y="275" width="4" height="4" ry="2" fill="#222"/><rect x="118" y="275" width="4" height="4" ry="2" fill="#222"/><rect x="58" y="260" width="20" height="24" ry="2" fill="#545454"/><rect x="60" y="262" width="16" height="11" ry="0" fill="#222"/><rect x="63" y="274" width="3" height="3" ry="1.496" fill="#919191"/><rect x="70" y="274" width="3" height="3" ry="1.5" fill="#919191"/><rect x="63" y="279" width="3" height="3" ry="1.5" fill="#919191"/><rect x="70" y="279" width="3" height="3" ry="1.5" fill="#919191"/><rect x="18" y="268" width="12" height="16" ry="2" fill="#545454"/><rect x="20" y="270" width="8" height="6" ry="0" fill="#222"/><rect x="21" y="277" width="2" height="2" ry="1" fill="#c5c5c5"/><rect x="25" y="277" width="2" height="2" ry=".988" fill="#c5c5c5"/><rect x="21" y="280" width="2" height="2" ry=".969" fill="#c5c5c5"/><rect x="25" y="280" width="2" height="2" ry="1" fill="#c5c5c5"/><rect x="332" y="164" width="88" height="112" ry="8" fill="#545454"/><rect x="342" y="174" width="68" height="46" ry="2" fill="#222"/><rect x="350" y="224" width="16" height="17" ry="8" fill="#222"/><rect x="386" y="224" width="16" height="17" ry="8" fill="#222"/><rect x="386" y="248" width="16" height="17" ry="8" fill="#222"/><path d="M358 224c-4.432 0-8 3.568-8 8v1c0 4.432 3.568 8 8 8s8-3.568 8-8v-1c0-4.432-3.568-8-8-8zm0 2c3.878 0 7 3.122 7 7s-3.122 7-7 7-7-3.122-7-7 3.122-7 7-7z" fill="#fff" fill-opacity=".502"/><rect x="350" y="248" width="16" height="17" ry="8" fill="#222"/><path d="M368.07 186.35a2 2 0 0 0-1.992 1.883h-.004v.05l-.004.067c0 .047 0 .094.004.14l-.004 17.153a2 2 0 0 0 2 2 2 2 0 0 0 .844-.192l.004.004.05-.027.008-.004a2 2 0 0 0 .176-.098l15.691-8.543.02-.008v-.004a2 2 0 0 0 1.074-1.77 2 2 0 0 0-1.007-1.734l-.036-.02-.008-.004-15.848-8.644h-.004a2.02 2.02 0 0 0-.965-.25z" fill="#ededed" fill-opacity=".8"/><rect x="504" y="44" width="176" height="224" ry="16" fill="#545454"/><rect x="524" y="64" width="136" height="92" ry="4" fill="#222"/><path d="M576.13 88.707a4 4 0 0 0-3.984 3.766h-.008v.101c-.004.045-.004.089-.008.133a3.75 3.75 0 0 0 .008.281l-.008 34.305a4 4 0 0 0 4 4 4 4 0 0 0 1.687-.383l.008.008.102-.054.016-.008a4 4 0 0 0 .351-.196l31.383-17.086.04-.016v-.008a4 4 0 0 0 2.149-3.539 4.001 4.001 0 0 0-2.016-3.468l-.07-.04c-.004-.003-.012-.005-.016-.009l-31.695-17.288h-.008a4.04 4.04 0 0 0-1.93-.499z" fill="#ededed" fill-opacity=".8"/><rect x="164" y="239" width="32" height="42" ry="3" fill="#545454"/><rect x="167" y="242" width="26" height="17" ry="0" fill="#222"/><rect x="171" y="261" width="5" height="6" ry="2.5" fill="#222"/><rect x="184" y="261" width="5" height="6" ry="2.5" fill="#222"/><path d="M173.5 261a2.495 2.495 0 0 0-2.5 2.5v1c0 1.385 1.115 2.5 2.5 2.5s2.5-1.115 2.5-2.5v-1c0-1.385-1.115-2.5-2.5-2.5zm0 2c.831 0 1.5.669 1.5 1.5s-.669 1.5-1.5 1.5-1.5-.669-1.5-1.5.669-1.5 1.5-1.5z" fill="#fff" fill-opacity=".5"/><rect x="184" y="270" width="5" height="6" ry="2.5" fill="#222"/><path d="M186.5 261a2.495 2.495 0 0 0-2.5 2.5v1c0 1.385 1.115 2.5 2.5 2.5s2.5-1.115 2.5-2.5v-1c0-1.385-1.115-2.5-2.5-2.5zm0 2c.831 0 1.5.669 1.5 1.5s-.669 1.5-1.5 1.5-1.5-.669-1.5-1.5.669-1.5 1.5-1.5z" fill="#fff" fill-opacity=".5"/><rect x="171" y="270" width="5" height="6" ry="2.5" fill="#222"/><path d="M186.5 270a2.495 2.495 0 0 0-2.5 2.5v1c0 1.385 1.115 2.5 2.5 2.5s2.5-1.115 2.5-2.5v-1c0-1.385-1.115-2.5-2.5-2.5zm0 2c.831 0 1.5.669 1.5 1.5s-.669 1.5-1.5 1.5-1.5-.669-1.5-1.5.669-1.5 1.5-1.5z" fill="#fff" fill-opacity=".5"/><path d="M173.5 270a2.495 2.495 0 0 0-2.5 2.5v1c0 1.385 1.115 2.5 2.5 2.5s2.5-1.115 2.5-2.5v-1c0-1.385-1.115-2.5-2.5-2.5zm0 2c.831 0 1.5.669 1.5 1.5s-.669 1.5-1.5 1.5-1.5-.669-1.5-1.5.669-1.5 1.5-1.5z" fill="#fff" fill-opacity=".5"/><path d="M176.03 245.18a1 1 0 0 0-.996.941h-.002v.026l-.002.033c0 .023 0 .047.002.07l-.002 8.576a1 1 0 0 0 1 1 1 1 0 0 0 .422-.095l.002.002.025-.014.004-.002a1 1 0 0 0 .088-.049l7.846-4.271.01-.004v-.002a1 1 0 0 0 .033-1.752l-.018-.01-.004-.002-7.923-4.322h-.002a1.01 1.01 0 0 0-.483-.125z" fill="#ededed" fill-opacity=".8"/><path d="M113.77 258.01a.75.75 0 0 0-.747.706h-.002v.019l-.001.025v6.485a.75.75 0 0 0 .75.75.75.75 0 0 0 .316-.072l.001.001.02-.01.002-.002a.75.75 0 0 0 .066-.037l5.885-3.204a.084.084 0 0 0 .007-.003v-.002a.75.75 0 0 0 .025-1.314l-.014-.007s-.002 0-.003-.002l-5.943-3.241a.757.757 0 0 0-.362-.094z" fill="#ededed" fill-opacity=".8"/><path d="M66.517 264.84a.5.5 0 0 0-.498.47h-.001v.013l-.001.017.001.035-.001 4.288a.5.5 0 0 0 .5.5.5.5 0 0 0 .21-.048l.002.001.013-.007h.002a.5.5 0 0 0 .044-.025l3.922-2.136c.002 0 .004 0 .005-.002a.5.5 0 0 0 .017-.877l-.009-.005h-.002l-3.962-2.162a.506.506 0 0 0-.242-.062z" fill="#ededed" fill-opacity=".8"/><path d="M22.517 270.34a.5.5 0 0 0-.498.47h-.001v.013l-.001.017.001.035-.001 4.288a.5.5 0 0 0 .5.5.5.5 0 0 0 .21-.048l.002.001.013-.007h.002a.5.5 0 0 0 .044-.025l3.922-2.136c.002 0 .004 0 .005-.002a.5.5 0 0 0 .017-.877l-.009-.005h-.002l-3.962-2.162a.506.506 0 0 0-.242-.062z" fill="#ededed" fill-opacity=".8"/><path d="M111.99 269a1.99 1.99 0 0 0-1.994 1.994v.012A1.99 1.99 0 0 0 111.99 273h.012a1.99 1.99 0 0 0 1.994-1.994v-.012a1.99 1.99 0 0 0-1.994-1.994zm.006 1a1 1 0 0 1 1 1 1 1 0 0 1-1 1 1 1 0 0 1-1-1 1 1 0 0 1 1-1z" fill="#fff" fill-opacity=".502"/><path d="M120 269c-1.108 0-2 .892-2 2s.892 2 2 2 2-.892 2-2-.892-2-2-2zm0 1a1 1 0 0 1 1 1 1 1 0 0 1-1 1 1 1 0 0 1-1-1 1 1 0 0 1 1-1z" fill="#fff" fill-opacity=".502"/><path d="M112 275c-1.108 0-2 .892-2 2s.892 2 2 2 2-.892 2-2-.892-2-2-2zm0 1a1 1 0 0 1 1 1 1 1 0 0 1-1 1 1 1 0 0 1-1-1 1 1 0 0 1 1-1z" fill="#fff" fill-opacity=".502"/><path d="M120 275c-1.108 0-2 .892-2 2s.892 2 2 2 2-.892 2-2-.892-2-2-2zm0 1a1 1 0 0 1 1 1 1 1 0 0 1-1 1 1 1 0 0 1-1-1 1 1 0 0 1 1-1z" fill="#fff" fill-opacity=".502"/><circle cx="64.5" cy="275.5" r=".5" fill="#222"/><circle cx="71.5" cy="275.5" r=".5" fill="#222"/><circle cx="64.5" cy="280.5" r=".5" fill="#222"/><circle cx="71.5" cy="280.5" r=".5" fill="#222"/><path d="M394 224c-4.432 0-8 3.568-8 8v1c0 4.432 3.568 8 8 8s8-3.568 8-8v-1c0-4.432-3.568-8-8-8zm0 2c3.878 0 7 3.122 7 7s-3.122 7-7 7-7-3.122-7-7 3.122-7 7-7z" fill="#fff" fill-opacity=".502"/><path d="M394 248c-4.432 0-8 3.568-8 8v1c0 4.432 3.568 8 8 8s8-3.568 8-8v-1c0-4.432-3.568-8-8-8zm0 2c3.878 0 7 3.122 7 7s-3.122 7-7 7-7-3.122-7-7 3.122-7 7-7z" fill="#fff" fill-opacity=".502"/><path d="M358 248c-4.432 0-8 3.568-8 8v1c0 4.432 3.568 8 8 8s8-3.568 8-8v-1c0-4.432-3.568-8-8-8zm0 2c3.878 0 7 3.122 7 7s-3.122 7-7 7-7-3.122-7-7 3.122-7 7-7z" fill="#fff" fill-opacity=".502"/><rect x="540" y="164" width="32" height="34" ry="16" fill="#222"/><rect x="612" y="164" width="32" height="34" ry="16" fill="#222"/><rect x="612" y="212" width="32" height="34" ry="16" fill="#222"/><path d="M556 164c-8.864 0-16 7.136-16 16v2c0 8.864 7.136 16 16 16s16-7.136 16-16v-2c0-8.864-7.136-16-16-16zm0 4c7.756 0 14 6.244 14 14s-6.244 14-14 14-14-6.244-14-14 6.244-14 14-14z" fill="#fff" fill-opacity=".502"/><rect x="540" y="212" width="32" height="34" ry="16" fill="#222"/><path d="M628 164c-8.864 0-16 7.136-16 16v2c0 8.864 7.136 16 16 16s16-7.136 16-16v-2c0-8.864-7.136-16-16-16zm0 4c7.756 0 14 6.244 14 14s-6.244 14-14 14-14-6.244-14-14 6.244-14 14-14z" fill="#fff" fill-opacity=".502"/><path d="M628 212c-8.864 0-16 7.136-16 16v2c0 8.864 7.136 16 16 16s16-7.136 16-16v-2c0-8.864-7.136-16-16-16zm0 4c7.756 0 14 6.244 14 14s-6.244 14-14 14-14-6.244-14-14 6.244-14 14-14z" fill="#fff" fill-opacity=".502"/><path d="M556 212c-8.864 0-16 7.136-16 16v2c0 8.864 7.136 16 16 16s16-7.136 16-16v-2c0-8.864-7.136-16-16-16zm0 4c7.756 0 14 6.244 14 14s-6.244 14-14 14-14-6.244-14-14 6.244-14 14-14z" fill="#fff" fill-opacity=".502"/><path d="M20 268c-1.108 0-2 .892-2 2v12c0 1.108.892 2 2 2h8c1.108 0 2-.892 2-2v-12c0-1.108-.892-2-2-2zm0 1h8c.554 0 1 .446 1 1v12c0 .554-.446 1-1 1h-8c-.554 0-1-.446-1-1v-12c0-.554.446-1 1-1z" fill="#fff" fill-opacity=".502"/><path d="M60 260c-1.108 0-2 .892-2 2v20c0 1.108.892 2 2 2h16c1.108 0 2-.892 2-2v-20c0-1.108-.892-2-2-2zm0 1h16c.554 0 1 .446 1 1v20c0 .554-.446 1-1 1H60c-.554 0-1-.446-1-1v-20c0-.554.446-1 1-1z" fill="#fff" fill-opacity=".502"/><path d="M107 254c-1.108 0-2 .892-2 2v24c0 1.108.892 2 2 2h18c1.108 0 2-.892 2-2v-24c0-1.108-.892-2-2-2zm0 1h18c.554 0 1 .446 1 1v23c0 .554-.446 1-1 1h-18c-.554 0-1-.446-1-1v-23c0-.554.446-1 1-1z" fill="#fff" fill-opacity=".502"/><path d="M167 239c-1.662 0-3 1.338-3 3v36c0 1.662 1.338 3 3 3h26c1.662 0 3-1.338 3-3v-36c0-1.662-1.338-3-3-3zm0 1h26c1.108 0 2 .892 2 2v34c0 1.108-.892 2-2 2h-26c-1.108 0-2-.892-2-2v-34c0-1.108.892-2 2-2z" fill="#fff" fill-opacity=".502"/><path d="M340 164c-4.432 0-8 3.568-8 8v96c0 4.432 3.568 8 8 8h72c4.432 0 8-3.568 8-8v-96c0-4.432-3.568-8-8-8zm0 1h72c3.878 0 7 3.122 7 7v93c0 3.878-3.122 7-7 7h-72c-3.878 0-7-3.122-7-7v-93c0-3.878 3.122-7 7-7z" fill="#fff" fill-opacity=".502"/><path d="M520 44c-8.864 0-16 7.136-16 16v192c0 8.864 7.136 16 16 16h144c8.864 0 16-7.136 16-16V60c0-8.864-7.136-16-16-16zm0 1h144c8.31 0 15 6.69 15 15v188c0 8.31-6.69 15-15 15H520c-8.31 0-15-6.69-15-15V60c0-8.31 6.69-15 15-15z" fill="#fff" fill-opacity=".502"/></g></svg>