<svg version="1.0" viewBox="0 0 128 128" xmlns="http://www.w3.org/2000/svg"><g stroke-linecap="square" stroke-width="4" transform="translate(-312 -156)"><rect x="324" y="240" width="104" height="32" ry="8" fill="#444"/><rect transform="rotate(45)" x="418.14" y="-74.932" width="8" height="24" ry="4"/><rect transform="rotate(45)" x="430.52" y="-87.307" width="8" height="24" ry="4"/><rect transform="rotate(45)" x="442.89" y="-99.681" width="8" height="24" ry="4"/><circle cx="400" cy="256" r="4" fill="#73c48f"/><circle cx="410" cy="256" r="4" fill="#f15d22"/><circle cx="420" cy="256" r="4" fill="#faa41a"/><path d="M332 240c-4.432 0-8 3.568-8 8v16c0 4.432 3.568 8 8 8h88c4.432 0 8-3.568 8-8v-16c0-4.432-3.568-8-8-8zm0 1h88c3.878 0 7 3.122 7 7v13c0 3.878-3.122 7-7 7h-88c-3.878 0-7-3.122-7-7v-13c0-3.878 3.122-7 7-7z" fill="#f8f8f8" fill-opacity=".5"/><g transform="translate(0 -31)"><rect x="324" y="240" width="104" height="32" ry="8" fill="#444"/><rect transform="rotate(45)" x="418.14" y="-74.932" width="8" height="24" ry="4"/><rect transform="rotate(45)" x="430.52" y="-87.307" width="8" height="24" ry="4"/><rect transform="rotate(45)" x="442.89" y="-99.681" width="8" height="24" ry="4"/><circle cx="400" cy="256" r="4" fill="#73c48f"/><circle cx="410" cy="256" r="4" fill="#f15d22"/><circle cx="420" cy="256" r="4" fill="#faa41a"/><path d="M332 240c-4.432 0-8 3.568-8 8v16c0 4.432 3.568 8 8 8h88c4.432 0 8-3.568 8-8v-16c0-4.432-3.568-8-8-8zm0 1h88c3.878 0 7 3.122 7 7v13c0 3.878-3.122 7-7 7h-88c-3.878 0-7-3.122-7-7v-13c0-3.878 3.122-7 7-7z" fill="#f8f8f8" fill-opacity=".5"/></g><g transform="translate(0 -62)"><rect x="324" y="240" width="104" height="32" ry="8" fill="#444"/><rect transform="rotate(45)" x="418.14" y="-74.932" width="8" height="24" ry="4"/><rect transform="rotate(45)" x="430.52" y="-87.307" width="8" height="24" ry="4"/><rect transform="rotate(45)" x="442.89" y="-99.681" width="8" height="24" ry="4"/><circle cx="400" cy="256" r="4" fill="#73c48f"/><circle cx="410" cy="256" r="4" fill="#f15d22"/><circle cx="420" cy="256" r="4" fill="#faa41a"/><path d="M332 240c-4.432 0-8 3.568-8 8v16c0 4.432 3.568 8 8 8h88c4.432 0 8-3.568 8-8v-16c0-4.432-3.568-8-8-8zm0 1h88c3.878 0 7 3.122 7 7v13c0 3.878-3.122 7-7 7h-88c-3.878 0-7-3.122-7-7v-13c0-3.878 3.122-7 7-7z" fill="#f8f8f8" fill-opacity=".5"/></g></g></svg>