<svg version="1.0" viewBox="0 0 128 128" xmlns="http://www.w3.org/2000/svg"><path d="M63.96 24.006a80 80 0 0 0-59.248 26.25l59.248 53.752 59.248-53.752a80 80 0 0 0-59.248-26.25z" fill="#463e39"/><path d="M63.96 44.006a60 60 0 0 0-44.436 19.688l44.436 40.312 44.436-40.312A60 60 0 0 0 63.96 44.006z" fill="#9f9792"/><path d="M63.96 64.006a40 40 0 0 0-29.625 13.125l29.625 26.875 29.625-26.875A40 40 0 0 0 63.96 64.006z" fill="#463e39"/><path d="M63.96 84.006a20 20 0 0 0-14.812 6.562l14.812 13.438 14.812-13.438a20 20 0 0 0-14.812-6.562z" fill="#9f9792"/></svg>