<svg version="1.0" viewBox="0 0 128 128" xmlns="http://www.w3.org/2000/svg"><g transform="translate(-312 744)"><rect x="372" y="-694" width="64" height="24" ry="4" fill="#479863"/><rect x="400" y="-694" width="24" height="44" ry="12" fill="#479863"/><rect x="316" y="-718" width="72" height="76" ry="36" fill="#479863"/><circle cx="352" cy="-682" r="16" fill="#a2f3be"/><path d="M352-718c-19.944 0-36 16.056-36 36v4c0 19.944 16.056 36 36 36 17.191 0 31.485-11.933 35.105-28H400v8c0 6.648 5.352 12 12 12s12-5.352 12-12v-8h8c2.216 0 4-1.784 4-4v-16c0-2.216-1.784-4-4-4h-46.043A35.915 35.915 0 0 0 352-718zm0 1a34.917 34.917 0 0 1 33.24 24H432c1.662 0 3 1.338 3 3v13c0 1.662-1.338 3-3 3h-9v9c0 6.094-4.906 11-11 11s-11-4.906-11-11v-9h-14.697A34.917 34.917 0 0 1 352-646c-19.39 0-35-15.61-35-35v-1c0-19.39 15.61-35 35-35z" fill-opacity=".502"/></g></svg>