<svg version="1.0" viewBox="0 0 128 128" xmlns="http://www.w3.org/2000/svg"><path d="M16 24c-4.432 0-8 3.568-8 8v72c0 4.432 3.568 8 8 8h16l8 8h48l8-8h16c4.432 0 8-3.568 8-8V32c0-4.432-3.568-8-8-8z" fill="#dedede"/><path d="M18 34v64h16l8 8h44l8-8h16V34z" fill="#4d4d4d"/><g fill="#d1a023"><path d="M66 34h6v20h-6z"/><path d="M56 34h6v20h-6z"/><path d="M76 34h6v20h-6z"/><path d="M86 34h6v20h-6z"/><path d="M46 34h6v20h-6z"/><path d="M36 34h6v20h-6z"/><path d="M96 34h6v20h-6z"/><path d="M26 34h6v20h-6z"/></g><path d="M16 24c-4.432 0-8 3.568-8 8v72c0 4.432 3.568 8 8 8h16l8 8h48l8-8h16c4.432 0 8-3.568 8-8V32c0-4.432-3.568-8-8-8zm0 1h96c3.878 0 7 3.122 7 7v69c0 3.878-3.122 7-7 7H96l-8 8H40l-8-8H16c-3.878 0-7-3.122-7-7V32c0-3.878 3.122-7 7-7z" fill-opacity=".5"/></svg>