<svg version="1.0" viewBox="0 0 128 128" xmlns="http://www.w3.org/2000/svg"><path d="M63.96 24.01A80 80 0 0 0 4.712 50.26l59.248 53.752 59.248-53.752A80 80 0 0 0 63.96 24.01z" fill="#463e39"/><path d="M63.96 44.01a60 60 0 0 0-44.436 19.688L63.96 104.01l44.436-40.312A60 60 0 0 0 63.96 44.01z" fill="#9f9792"/><path d="M63.96 64.01a40 40 0 0 0-29.625 13.125L63.96 104.01l29.625-26.875A40 40 0 0 0 63.96 64.01z" fill="#463e39"/><path d="M63.96 84.01a20 20 0 0 0-14.812 6.562L63.96 104.01l14.812-13.438A20 20 0 0 0 63.96 84.01z" fill="#9f9792"/></svg>