<svg version="1.0" viewBox="0 0 128 128" xmlns="http://www.w3.org/2000/svg"><g transform="translate(-312 1644)"><rect x="324" y="-1632" width="104" height="104" ry="8" fill="#cf3b00"/><path d="M332-1632c-4.432 0-8 3.568-8 8v88c0 4.432 3.568 8 8 8h88c4.432 0 8-3.568 8-8v-88c0-4.432-3.568-8-8-8zm0 1h88c3.878 0 7 3.122 7 7v85c0 3.878-3.122 7-7 7h-88c-3.878 0-7-3.122-7-7v-85c0-3.878 3.122-7 7-7z" fill-opacity=".5"/><g fill="#fff" fill-opacity=".5"><path d="M330-1630c-1.108 0-2 .892-2 2v12c0 1.108.892 2 2 2h20c1.108 0 2-.892 2-2v-12c0-1.108-.892-2-2-2zm0 3h20c.554 0 1 .446 1 1v10c0 .554-.446 1-1 1h-20c-.554 0-1-.446-1-1v-10c0-.554.446-1 1-1z"/><path d="M354-1630c-1.108 0-2 .892-2 2v12c0 1.108.892 2 2 2h20c1.108 0 2-.892 2-2v-12c0-1.108-.892-2-2-2zm0 3h20c.554 0 1 .446 1 1v10c0 .554-.446 1-1 1h-20c-.554 0-1-.446-1-1v-10c0-.554.446-1 1-1z"/><path d="M378-1630c-1.108 0-2 .892-2 2v12c0 1.108.892 2 2 2h20c1.108 0 2-.892 2-2v-12c0-1.108-.892-2-2-2zm0 3h20c.554 0 1 .446 1 1v10c0 .554-.446 1-1 1h-20c-.554 0-1-.446-1-1v-10c0-.554.446-1 1-1z"/><path d="M402-1630c-1.108 0-2 .892-2 2v12c0 1.108.892 2 2 2h20c1.108 0 2-.892 2-2v-12c0-1.108-.892-2-2-2zm0 3h20c.554 0 1 .446 1 1v10c0 .554-.446 1-1 1h-20c-.554 0-1-.446-1-1v-10c0-.554.446-1 1-1z"/><path d="M342-1614c-1.108 0-2 .892-2 2v12c0 1.108.892 2 2 2h20c1.108 0 2-.892 2-2v-12c0-1.108-.892-2-2-2zm0 3h20c.554 0 1 .446 1 1v10c0 .554-.446 1-1 1h-20c-.554 0-1-.446-1-1v-10c0-.554.446-1 1-1z"/><path d="M366-1614c-1.108 0-2 .892-2 2v12c0 1.108.892 2 2 2h20c1.108 0 2-.892 2-2v-12c0-1.108-.892-2-2-2zm0 3h20c.554 0 1 .446 1 1v10c0 .554-.446 1-1 1h-20c-.554 0-1-.446-1-1v-10c0-.554.446-1 1-1z"/><path d="M390-1614c-1.108 0-2 .892-2 2v12c0 1.108.892 2 2 2h20c1.108 0 2-.892 2-2v-12c0-1.108-.892-2-2-2zm0 3h20c.554 0 1 .446 1 1v10c0 .554-.446 1-1 1h-20c-.554 0-1-.446-1-1v-10c0-.554.446-1 1-1z"/><path d="M330-1598c-1.108 0-2 .892-2 2v12c0 1.108.892 2 2 2h20c1.108 0 2-.892 2-2v-12c0-1.108-.892-2-2-2zm0 3h20c.554 0 1 .446 1 1v10c0 .554-.446 1-1 1h-20c-.554 0-1-.446-1-1v-10c0-.554.446-1 1-1z"/><path d="M354-1598c-1.108 0-2 .892-2 2v12c0 1.108.892 2 2 2h20c1.108 0 2-.892 2-2v-12c0-1.108-.892-2-2-2zm0 3h20c.554 0 1 .446 1 1v10c0 .554-.446 1-1 1h-20c-.554 0-1-.446-1-1v-10c0-.554.446-1 1-1z"/><path d="M378-1598c-1.108 0-2 .892-2 2v12c0 1.108.892 2 2 2h20c1.108 0 2-.892 2-2v-12c0-1.108-.892-2-2-2zm0 3h20c.554 0 1 .446 1 1v10c0 .554-.446 1-1 1h-20c-.554 0-1-.446-1-1v-10c0-.554.446-1 1-1z"/><path d="M402-1598c-1.108 0-2 .892-2 2v12c0 1.108.892 2 2 2h20c1.108 0 2-.892 2-2v-12c0-1.108-.892-2-2-2zm0 3h20c.554 0 1 .446 1 1v10c0 .554-.446 1-1 1h-20c-.554 0-1-.446-1-1v-10c0-.554.446-1 1-1z"/><path d="M342-1582c-1.108 0-2 .892-2 2v12c0 1.108.892 2 2 2h20c1.108 0 2-.892 2-2v-12c0-1.108-.892-2-2-2zm0 3h20c.554 0 1 .446 1 1v10c0 .554-.446 1-1 1h-20c-.554 0-1-.446-1-1v-10c0-.554.446-1 1-1z"/><path d="M366-1582c-1.108 0-2 .892-2 2v12c0 1.108.892 2 2 2h20c1.108 0 2-.892 2-2v-12c0-1.108-.892-2-2-2zm0 3h20c.554 0 1 .446 1 1v10c0 .554-.446 1-1 1h-20c-.554 0-1-.446-1-1v-10c0-.554.446-1 1-1z"/><path d="M390-1582c-1.108 0-2 .892-2 2v12c0 1.108.892 2 2 2h20c1.108 0 2-.892 2-2v-12c0-1.108-.892-2-2-2zm0 3h20c.554 0 1 .446 1 1v10c0 .554-.446 1-1 1h-20c-.554 0-1-.446-1-1v-10c0-.554.446-1 1-1z"/><path d="M330-1566c-1.108 0-2 .892-2 2v12c0 1.108.892 2 2 2h20c1.108 0 2-.892 2-2v-12c0-1.108-.892-2-2-2zm0 3h20c.554 0 1 .446 1 1v10c0 .554-.446 1-1 1h-20c-.554 0-1-.446-1-1v-10c0-.554.446-1 1-1z"/><path d="M354-1566c-1.108 0-2 .892-2 2v12c0 1.108.892 2 2 2h20c1.108 0 2-.892 2-2v-12c0-1.108-.892-2-2-2zm0 3h20c.554 0 1 .446 1 1v10c0 .554-.446 1-1 1h-20c-.554 0-1-.446-1-1v-10c0-.554.446-1 1-1z"/><path d="M378-1566c-1.108 0-2 .892-2 2v12c0 1.108.892 2 2 2h20c1.108 0 2-.892 2-2v-12c0-1.108-.892-2-2-2zm0 3h20c.554 0 1 .446 1 1v10c0 .554-.446 1-1 1h-20c-.554 0-1-.446-1-1v-10c0-.554.446-1 1-1z"/><path d="M402-1566c-1.108 0-2 .892-2 2v12c0 1.108.892 2 2 2h20c1.108 0 2-.892 2-2v-12c0-1.108-.892-2-2-2zm0 3h20c.554 0 1 .446 1 1v10c0 .554-.446 1-1 1h-20c-.554 0-1-.446-1-1v-10c0-.554.446-1 1-1z"/><path d="M342-1550c-1.108 0-2 .892-2 2v12c0 1.108.892 2 2 2h20c1.108 0 2-.892 2-2v-12c0-1.108-.892-2-2-2zm0 3h20c.554 0 1 .446 1 1v10c0 .554-.446 1-1 1h-20c-.554 0-1-.446-1-1v-10c0-.554.446-1 1-1z"/><path d="M366-1550c-1.108 0-2 .892-2 2v12c0 1.108.892 2 2 2h20c1.108 0 2-.892 2-2v-12c0-1.108-.892-2-2-2zm0 3h20c.554 0 1 .446 1 1v10c0 .554-.446 1-1 1h-20c-.554 0-1-.446-1-1v-10c0-.554.446-1 1-1z"/><path d="M390-1550c-1.108 0-2 .892-2 2v12c0 1.108.892 2 2 2h20c1.108 0 2-.892 2-2v-12c0-1.108-.892-2-2-2zm0 3h20c.554 0 1 .446 1 1v10c0 .554-.446 1-1 1h-20c-.554 0-1-.446-1-1v-10c0-.554.446-1 1-1z"/><path d="M327-1614c-1.108 0-2 .892-2 2v12c0 1.108.892 2 2 2h11c1.108 0 2-.892 2-2v-12c0-1.108-.892-2-2-2zm0 3h11c.554 0 1 .446 1 1v10c0 .554-.446 1-1 1h-11c-.554 0-1-.446-1-1v-10c0-.554.446-1 1-1z"/><path d="M414-1614c-1.108 0-2 .892-2 2v12c0 1.108.892 2 2 2h11c1.108 0 2-.892 2-2v-12c0-1.108-.892-2-2-2zm0 3h11c.554 0 1 .446 1 1v10c0 .554-.446 1-1 1h-11c-.554 0-1-.446-1-1v-10c0-.554.446-1 1-1z"/><path d="M414-1582c-1.108 0-2 .892-2 2v12c0 1.108.892 2 2 2h11c1.108 0 2-.892 2-2v-12c0-1.108-.892-2-2-2zm0 3h11c.554 0 1 .446 1 1v10c0 .554-.446 1-1 1h-11c-.554 0-1-.446-1-1v-10c0-.554.446-1 1-1z"/><path d="M327-1582c-1.108 0-2 .892-2 2v12c0 1.108.892 2 2 2h11c1.108 0 2-.892 2-2v-12c0-1.108-.892-2-2-2zm0 3h11c.554 0 1 .446 1 1v10c0 .554-.446 1-1 1h-11c-.554 0-1-.446-1-1v-10c0-.554.446-1 1-1z"/><path d="M327-1550c-1.108 0-2 .892-2 2v9c0 1.963.8 3.731 2.094 5H338c1.108 0 2-.892 2-2v-12c0-1.108-.892-2-2-2zm0 3h11c.554 0 1 .446 1 1v10c0 .554-.446 1-1 1h-11c-.554 0-1-.446-1-1v-10c0-.554.446-1 1-1z"/><path d="M414-1550c-1.108 0-2 .892-2 2v12c0 1.108.892 2 2 2h10.906a6.977 6.977 0 0 0 2.094-5v-9c0-1.108-.892-2-2-2zm0 3h11c.554 0 1 .446 1 1v10c0 .554-.446 1-1 1h-11c-.554 0-1-.446-1-1v-10c0-.554.446-1 1-1z"/></g></g></svg>