<svg version="1.0" viewBox="0 0 128 128" xmlns="http://www.w3.org/2000/svg"><g transform="translate(-312 -156)"><rect x="332" y="164" width="88" height="112" ry="8" fill="#545454"/><rect x="344" y="176" width="64" height="85" ry="0" fill="#222"/><path d="M383 198c-1.662 0-3 1.338-3 3v7l4.564 4.564a21.003 21.003 0 0 1-11.982 12.018L368 220h-7c-1.662 0-3 1.338-3 3v8c0 1.662 1.338 3 3 3h4c16.57 0 29-12.43 29-29v-4c0-1.662-1.338-3-3-3z" fill="#ededed" fill-opacity=".8" filter="url(#filter7554)"/><path d="M340 164c-4.432 0-8 3.568-8 8v96c0 4.432 3.568 8 8 8h72c4.432 0 8-3.568 8-8v-96c0-4.432-3.568-8-8-8zm0 1h72c3.878 0 7 3.122 7 7v93c0 3.878-3.122 7-7 7h-72c-3.878 0-7-3.122-7-7v-93c0-3.878 3.122-7 7-7z" fill="#fff" fill-opacity=".502"/></g></svg>