<svg version="1.0" viewBox="0 0 128 128" xmlns="http://www.w3.org/2000/svg"><g stroke-linecap="square" stroke-width="4" transform="translate(-312 -156)"><rect x="332" y="164" width="88" height="112" ry="8" fill="#444"/><rect x="340" y="172" width="72" height="90" ry="0" fill="#ededed"/><path d="M340 164c-4.432 0-8 3.568-8 8v96c0 4.432 3.568 8 8 8h72c4.432 0 8-3.568 8-8v-96c0-4.432-3.568-8-8-8zm0 1h72c3.878 0 7 3.122 7 7v93c0 3.878-3.122 7-7 7h-72c-3.878 0-7-3.122-7-7v-93c0-3.878 3.122-7 7-7z" fill="#fff" fill-opacity=".5"/><rect x="316" y="216" width="120" height="8" ry="4" fill="#f15d22"/></g></svg>