<svg version="1.0" viewBox="0 0 24 24" xmlns="http://www.w3.org/2000/svg"><g transform="translate(-90 -260)"><circle cx="102" cy="272" r="12" fill="#73c48f"/><rect x="90.5" y="260.5" width="23" height="23" ry="11.478" fill="none" stroke="#000" stroke-linecap="square" stroke-opacity=".502"/><path d="M110 272h-2a5.995 5.995 0 0 0-4.406-5.781c-.032-.01-.062-.023-.094-.031-.255-.066-.514-.094-.781-.125-.233-.028-.478-.063-.719-.063a5.99 5.99 0 0 0-1.812.281v.032a5.96 5.96 0 0 0-2.25 1.28l1.187 1.595c.502-.514 1.158-.847 1.875-1.032v-.03c.38-.09.79-.123 1.188-.095.181.013.349.029.53.063 1.868.338 3.282 1.942 3.282 3.906h-2l3 4 3-4zm-3.938 4.406-1.187-1.594c-.502.514-1.158.847-1.875 1.032v.03c-.38.09-.79.123-1.188.095a4.56 4.56 0 0 1-.53-.063C99.413 275.568 98 273.964 98 272h2l-3-4-3 4h2a5.995 5.995 0 0 0 4.406 5.781c.032.009.062.023.094.031.255.066.514.094.781.125.233.028.478.063.719.063a5.99 5.99 0 0 0 1.812-.282v-.03a5.96 5.96 0 0 0 2.25-1.282z" fill="#474341"/></g></svg>