<svg version="1.0" viewBox="0 0 24 24" xmlns="http://www.w3.org/2000/svg"><g transform="translate(-90 -260)"><circle cx="102" cy="272" r="12" fill="#888"/><rect x="90.5" y="260.5" width="23" height="23" ry="11.478" fill="#574f4a" stroke="#000" stroke-linecap="square" stroke-opacity=".502"/><path d="m100.25 265-.154 1.844a5.5 5.5 0 0 0-1.608.93l-1.676-.79-1.75 3.032 1.522 1.056a5.5 5.5 0 0 0-.084.928 5.5 5.5 0 0 0 .08.932l-1.517 1.052 1.75 3.032 1.671-.788a5.5 5.5 0 0 0 1.612.924l.154 1.848h3.5l.154-1.844a5.5 5.5 0 0 0 1.608-.93l1.676.79 1.75-3.032-1.522-1.056a5.5 5.5 0 0 0 .084-.928 5.5 5.5 0 0 0-.08-.932l1.517-1.052-1.75-3.032-1.671.788a5.5 5.5 0 0 0-1.612-.924L103.75 265zm1.75 5a2 2 0 0 1 2 2 2 2 0 0 1-2 2 2 2 0 0 1-2-2 2 2 0 0 1 2-2z" fill="#fff"/></g></svg>