<svg version="1.0" viewBox="0 0 24 24" xmlns="http://www.w3.org/2000/svg"><g transform="translate(-90 -260)"><circle cx="102" cy="272" r="12" fill="#faa41a"/><rect x="90.5" y="260.5" width="23" height="23" ry="11.478" fill="none" stroke="#000" stroke-linecap="square" stroke-opacity=".502"/><path d="M102 265c-2.216 0-4 1.822-4 4.063V271c-1.108 0-2 .892-2 2v3.998c0 1.108.892 2 2 2h7.994c1.108 0 2-.892 2-2V273a1.996 1.996 0 0 0-1.994-2v-1.938c0-2.24-1.784-4.062-4-4.062zm0 2c1.108 0 2 .892 2 2v2h-4v-2c0-1.108.892-2 2-2z" color="#000" fill="#474341"/></g></svg>