<svg version="1.0" viewBox="0 0 24 24" xmlns="http://www.w3.org/2000/svg"><g transform="translate(-90 -260)"><rect transform="matrix(0 -1 -1 0 0 0)" x="-284" y="-66" width="16" height="16" rx="8" ry="8" fill="#cf3b00"/><rect transform="matrix(0 -1 -1 0 0 0)" x="-284" y="-24" width="8" height="8" rx="1" ry="1" fill="#cf3b00"/><circle cx="102" cy="272" r="12" fill="#cf3b00"/><rect x="192" y="238" width="44" height="46" ry="22" fill="#cf3b00"/><rect x="135" y="253" width="30" height="31" ry="15" fill="#cf3b00"/><path d="M150 253c-8.31 0-15 6.69-15 15v1c0 8.31 6.69 15 15 15s15-6.69 15-15v-1c0-8.31-6.69-15-15-15zm0 1a14 14 0 0 1 14 14 14 14 0 0 1-14 14 14 14 0 0 1-14-14 14 14 0 0 1 14-14z" fill-opacity=".502"/><rect x="260" y="222" width="60" height="62" ry="30" fill="#cf3b00"/><path d="M290 222c-16.62 0-30 13.38-30 30v2c0 16.62 13.38 30 30 30s30-13.38 30-30v-2c0-16.62-13.38-30-30-30zm0 1a29 29 0 0 1 29 29 29 29 0 0 1-29 29 29 29 0 0 1-29-29 29 29 0 0 1 29-29z" fill-opacity=".502"/><rect x="16.5" y="276.5" width="7" height="7" ry=".5" fill="none" stroke="#000" stroke-linecap="square" stroke-opacity=".502"/><rect x="50.5" y="268.5" width="15" height="15" ry="7.5" fill="none" stroke="#000" stroke-linecap="square" stroke-opacity=".502"/><rect x="90.5" y="260.5" width="23" height="23" ry="11.478" fill="none" stroke="#000" stroke-linecap="square" stroke-opacity=".502"/><path d="M214 238c-12.188 0-22 9.812-22 22v2c0 12.188 9.812 22 22 22s22-9.812 22-22v-2c0-12.188-9.812-22-22-22zm0 1a21 21 0 0 1 21 21 21 21 0 0 1-21 21 21 21 0 0 1-21-21 21 21 0 0 1 21-21z" fill-opacity=".502"/><path d="M97.5 266a1.5 1.5 0 0 0-1.5 1.5 1.5 1.5 0 0 0 .44 1.06l3.439 3.44-3.44 3.44A1.5 1.5 0 0 0 96 276.5a1.5 1.5 0 0 0 1.5 1.5 1.5 1.5 0 0 0 1.06-.44l3.44-3.439 3.425 3.425a1.5 1.5 0 0 0 1.075.454 1.5 1.5 0 0 0 1.5-1.5 1.5 1.5 0 0 0-.44-1.06l-3.439-3.44 3.425-3.425A1.5 1.5 0 0 0 108 267.5a1.5 1.5 0 0 0-1.5-1.5 1.5 1.5 0 0 0-1.06.44l-3.44 3.439-3.425-3.425a1.5 1.5 0 0 0-.015-.015 1.5 1.5 0 0 0-1.06-.44z" fill="#fff"/><path d="M97.5 266a1.5 1.5 0 0 0-1.5 1.5 1.5 1.5 0 0 0 .44 1.06l3.439 3.44-3.44 3.44A1.5 1.5 0 0 0 96 276.5a1.5 1.5 0 0 0 1.5 1.5 1.5 1.5 0 0 0 1.06-.44l3.44-3.439 3.425 3.425a1.5 1.5 0 0 0 1.075.454 1.5 1.5 0 0 0 1.5-1.5 1.5 1.5 0 0 0-.44-1.06l-3.439-3.44 3.425-3.425A1.5 1.5 0 0 0 108 267.5a1.5 1.5 0 0 0-1.5-1.5 1.5 1.5 0 0 0-1.06.44l-3.44 3.439-3.425-3.425a1.5 1.5 0 0 0-.015-.015 1.5 1.5 0 0 0-1.06-.44z" fill="#fff"/><path d="M145.5 262.5a1.5 1.5 0 0 0-1.5 1.5 1.5 1.5 0 0 0 .44 1.06l3.439 3.44-3.44 3.44A1.5 1.5 0 0 0 144 273a1.5 1.5 0 0 0 1.5 1.5 1.5 1.5 0 0 0 1.06-.44l3.44-3.439 3.425 3.425a1.5 1.5 0 0 0 1.075.454 1.5 1.5 0 0 0 1.5-1.5 1.5 1.5 0 0 0-.44-1.06l-3.439-3.44 3.425-3.425A1.5 1.5 0 0 0 156 264a1.5 1.5 0 0 0-1.5-1.5 1.5 1.5 0 0 0-1.06.44l-3.44 3.439-3.425-3.425a1.5 1.5 0 0 0-.015-.015 1.5 1.5 0 0 0-1.06-.44z" fill="#fff"/><path d="M207.25 252a2.25 2.25 0 0 0-2.25 2.25 2.25 2.25 0 0 0 .66 1.59l5.158 5.16-5.159 5.16a2.25 2.25 0 0 0-.659 1.59 2.25 2.25 0 0 0 2.25 2.25 2.25 2.25 0 0 0 1.59-.66l5.16-5.158 5.137 5.137a2.25 2.25 0 0 0 1.613.681 2.25 2.25 0 0 0 2.25-2.25 2.25 2.25 0 0 0-.66-1.59l-5.158-5.16 5.137-5.137a2.25 2.25 0 0 0 .68-1.613 2.25 2.25 0 0 0-2.25-2.25 2.25 2.25 0 0 0-1.59.66l-5.16 5.158-5.136-5.137a2.25 2.25 0 0 0-.023-.022 2.25 2.25 0 0 0-1.59-.659z" fill="#fff"/><path d="M281 241a3 3 0 0 0-3 3 3 3 0 0 0 .879 2.121l6.879 6.879-6.88 6.879A3 3 0 0 0 278 262a3 3 0 0 0 3 3 3 3 0 0 0 2.121-.879l6.879-6.879 6.85 6.85A3 3 0 0 0 299 265a3 3 0 0 0 3-3 3 3 0 0 0-.879-2.121L294.242 253l6.85-6.85A3 3 0 0 0 302 244a3 3 0 0 0-3-3 3 3 0 0 0-2.121.879L290 248.758l-6.85-6.85a3 3 0 0 0-.03-.03A3 3 0 0 0 281 241z" fill="#fff"/><path d="M55 272a1 1 0 0 0-1 1 1 1 0 0 0 .293.707L56.586 276l-2.293 2.293A1 1 0 0 0 54 279a1 1 0 0 0 1 1 1 1 0 0 0 .707-.293L58 277.414l2.283 2.283A1 1 0 0 0 61 280a1 1 0 0 0 1-1 1 1 0 0 0-.293-.707L59.414 276l2.283-2.283A1 1 0 0 0 62 273a1 1 0 0 0-1-1 1 1 0 0 0-.707.293L58 274.586l-2.283-2.283a1 1 0 0 0-.01-.01A1 1 0 0 0 55 272z" fill="#fafafb"/><path d="M17.75 277a.75.75 0 0 0-.75.75.75.75 0 0 0 .22.53l1.72 1.72-1.72 1.72a.75.75 0 0 0-.22.53.75.75 0 0 0 .75.75.75.75 0 0 0 .53-.22l1.72-1.72 1.712 1.713a.75.75 0 0 0 .538.227.75.75 0 0 0 .75-.75.75.75 0 0 0-.22-.53L21.06 280l1.713-1.712a.75.75 0 0 0 .227-.538.75.75 0 0 0-.75-.75.75.75 0 0 0-.53.22L20 278.94l-1.712-1.713a.75.75 0 0 0-.008-.007.75.75 0 0 0-.53-.22z" fill="#fafafb"/></g></svg>