<svg version="1.0" viewBox="0 0 24 24" xmlns="http://www.w3.org/2000/svg"><g transform="translate(-90 -260)"><circle cx="102" cy="272" r="12" fill="#3f51b5"/><rect x="90.5" y="260.5" width="23" height="23" ry="11.478" fill="none" stroke="#000" stroke-linecap="square" stroke-opacity=".502"/><path d="M106 264a3 3 0 0 0-3 3c0 .231.044.44.094.656l-3.219 2a3 3 0 1 0 0 4.688l3.219 2c-.05.216-.094.425-.094.656a3 3 0 1 0 1.125-2.344l-3.219-2c.05-.216.094-.425.094-.656s-.044-.44-.094-.656l3.22-2A3 3 0 1 0 106 264z" fill="#fff"/></g></svg>