<svg version="1.0" viewBox="0 0 24 24" xmlns="http://www.w3.org/2000/svg"><g transform="translate(-90 -260)"><circle cx="102" cy="272" r="12" fill="#ededed"/><rect x="90.5" y="260.5" width="23" height="23" ry="11.478" fill="none" stroke="#000" stroke-linecap="square" stroke-opacity=".502"/><g fill="#474341"><path d="M100.964 263.996c-1 0-1.82.736-1.969 1.694v.306h3.406l4.594 4.594c.003 1.8-.002 3.602 0 5.402a1.998 1.998 0 0 0 1.969-1.996v-5a2 2 0 0 0-.55-1.379l-2.97-2.968c-.376-.387-.94-.653-1.48-.653h-3z"/><path d="M97.964 266.996c-1 0-1.82.736-1.969 1.694v8.613c.149.958.97 1.693 1.969 1.693h6a2 2 0 0 0 2-2v-5a2 2 0 0 0-.55-1.378l-2.97-2.97c-.376-.386-.94-.652-1.48-.652z"/></g></g></svg>