<svg version="1.0" viewBox="0 0 24 24" xmlns="http://www.w3.org/2000/svg"><g transform="translate(-90 -260)"><circle cx="102" cy="272" r="12" fill="#cf3b00"/><rect x="90.5" y="260.5" width="23" height="23" ry="11.478" fill="none" stroke="#000" stroke-linecap="square" stroke-opacity=".502"/><path d="M97.5 266a1.5 1.5 0 0 0-1.5 1.5 1.5 1.5 0 0 0 .44 1.06l3.439 3.44-3.44 3.44A1.5 1.5 0 0 0 96 276.5a1.5 1.5 0 0 0 1.5 1.5 1.5 1.5 0 0 0 1.06-.44l3.44-3.439 3.425 3.425a1.5 1.5 0 0 0 1.075.454 1.5 1.5 0 0 0 1.5-1.5 1.5 1.5 0 0 0-.44-1.06l-3.439-3.44 3.425-3.425A1.5 1.5 0 0 0 108 267.5a1.5 1.5 0 0 0-1.5-1.5 1.5 1.5 0 0 0-1.06.44l-3.44 3.439-3.425-3.425a1.5 1.5 0 0 0-.015-.015 1.5 1.5 0 0 0-1.06-.44z" fill="#fff"/><path d="M97.5 266a1.5 1.5 0 0 0-1.5 1.5 1.5 1.5 0 0 0 .44 1.06l3.439 3.44-3.44 3.44A1.5 1.5 0 0 0 96 276.5a1.5 1.5 0 0 0 1.5 1.5 1.5 1.5 0 0 0 1.06-.44l3.44-3.439 3.425 3.425a1.5 1.5 0 0 0 1.075.454 1.5 1.5 0 0 0 1.5-1.5 1.5 1.5 0 0 0-.44-1.06l-3.439-3.44 3.425-3.425A1.5 1.5 0 0 0 108 267.5a1.5 1.5 0 0 0-1.5-1.5 1.5 1.5 0 0 0-1.06.44l-3.44 3.439-3.425-3.425a1.5 1.5 0 0 0-.015-.015 1.5 1.5 0 0 0-1.06-.44z" fill="#fff"/></g></svg>