<svg version="1.0" viewBox="0 0 24 24" xmlns="http://www.w3.org/2000/svg"><g transform="translate(-90 -260)"><rect transform="matrix(0 -1 -1 0 0 0)" x="-284" y="-66" width="16" height="16" rx="8" ry="8" fill="#faa41a"/><rect transform="matrix(0 -1 -1 0 0 0)" x="-284" y="-24" width="8" height="8" rx="1" ry="1" fill="#888"/><circle cx="102" cy="272" r="12" fill="#faa41a"/><rect x="192" y="238" width="44" height="46" ry="22" fill="#faa41a"/><rect x="135" y="253" width="30" height="31" ry="15" fill="#faa41a"/><path d="M150 253c-8.31 0-15 6.69-15 15v1c0 8.31 6.69 15 15 15s15-6.69 15-15v-1c0-8.31-6.69-15-15-15zm0 1a14 14 0 0 1 14 14 14 14 0 0 1-14 14 14 14 0 0 1-14-14 14 14 0 0 1 14-14z" fill-opacity=".502"/><rect x="260" y="222" width="60" height="62" ry="30" fill="#faa41a"/><path d="M290 222c-16.62 0-30 13.38-30 30v2c0 16.62 13.38 30 30 30s30-13.38 30-30v-2c0-16.62-13.38-30-30-30zm0 1a29 29 0 0 1 29 29 29 29 0 0 1-29 29 29 29 0 0 1-29-29 29 29 0 0 1 29-29z" fill-opacity=".502"/><rect x="16.5" y="276.5" width="7" height="7" ry=".5" fill="#faa41a" stroke="#000" stroke-linecap="square" stroke-opacity=".502"/><rect x="50.5" y="268.5" width="15" height="15" ry="7.5" fill="none" stroke="#000" stroke-linecap="square" stroke-opacity=".502"/><rect x="90.5" y="260.5" width="23" height="23" ry="11.478" fill="none" stroke="#000" stroke-linecap="square" stroke-opacity=".502"/><path d="M214 238c-12.188 0-22 9.812-22 22v2c0 12.188 9.812 22 22 22s22-9.812 22-22v-2c0-12.188-9.812-22-22-22zm0 1a21 21 0 0 1 21 21 21 21 0 0 1-21 21 21 21 0 0 1-21-21 21 21 0 0 1 21-21z" fill-opacity=".502"/><path d="M102 265c-2.216 0-4 1.822-4 4.063V271c-1.108 0-2 .892-2 2v3.998c0 1.108.892 2 2 2h7.994c1.108 0 2-.892 2-2V273a1.996 1.996 0 0 0-1.994-2v-1.938c0-2.24-1.784-4.062-4-4.062zm0 2c1.108 0 2 .892 2 2v2h-4v-2c0-1.108.892-2 2-2z" color="#000" fill="#474341"/><path d="M150 261c-2.216 0-4 1.822-4 4.063V267c-1.108 0-2 .892-2 2v3.998c0 1.108.892 2 2 2h7.994c1.108 0 2-.892 2-2V269a1.996 1.996 0 0 0-1.994-2v-1.938c0-2.24-1.784-4.062-4-4.062zm0 2c1.108 0 2 .892 2 2v2h-4v-2c0-1.108.892-2 2-2z" color="#000" fill="#474341"/><path d="M214 250c-3.324 0-6 2.732-6 6.094V259c-1.662 0-3 1.338-3 3v5.997c0 1.662 1.338 3 3 3h11.991c1.662 0 3-1.338 3-3V262a2.994 2.994 0 0 0-2.991-3v-2.906c0-3.36-2.676-6.094-6-6.094zm0 3c1.662 0 3 1.338 3 3v3h-6v-3c0-1.662 1.338-3 3-3z" color="#000" fill="#474341"/><path d="M290.01 239c-4.432 0-8 3.643-8 8.125V251c-2.216 0-4 1.784-4 4v7.996c0 2.216 1.784 4 4 4h15.988c2.216 0 4-1.784 4-4V255a3.991 3.991 0 0 0-3.988-4v-3.875c0-4.48-3.568-8.125-8-8.125zm0 4c2.216 0 4 1.784 4 4v4h-8v-4c0-2.216 1.784-4 4-4z" color="#000" fill="#474341"/><path d="M58.001 273c-1.108 0-2 .91-2 2.031V276c-.554 0-1 .446-1 1v1.999c0 .554.446 1 1 1h3.997c.554 0 1-.446 1-1V277a.998.998 0 0 0-.997-1v-.969c0-1.12-.892-2.031-2-2.031zm0 1c.554 0 1 .446 1 1v1h-2v-1c0-.554.446-1 1-1z" color="#000" fill="#474341"/><path d="M20 277c-1.108 0-2 .41-2 1.531V279c-.554 0-1 .446-1 1v1c0 .554.446 1 1 1h3.997c.554 0 1-.446 1-1v-1a.998.998 0 0 0-.997-1v-.469c0-1.12-.892-1.531-2-1.531zm0 1c.554 0 1-.054 1 .5v.5h-2v-.5c0-.554.446-.5 1-.5z" color="#000" fill="#474341"/></g></svg>