<svg version="1.0" viewBox="0 0 128 128" xmlns="http://www.w3.org/2000/svg"><g transform="translate(-312 444)"><path d="M392-328h-64c-4.432 0-8-3.568-8-8v-72c0-4.432 3.568-8 8-8h64l44 44z" fill="#ffce51"/><path d="M328-416c-4.432 0-8 3.568-8 8v72c0 4.432 3.568 8 8 8h64l44-44-44-44zm0 1h63.5l41.5 41.5-41.5 41.5H328c-3.878 0-7-3.122-7-7v-69c0-3.878 3.122-7 7-7z" fill-opacity=".5"/><rect x="376" y="-383" width="64" height="67" ry="32" fill="#479863"/><path d="M408-383c-17.728 0-32 14.272-32 32v3c0 17.728 14.272 32 32 32s32-14.272 32-32v-3c0-17.728-14.272-32-32-32zm0 1c17.174 0 31 13.826 31 31s-13.826 31-31 31-31-13.826-31-31 13.826-31 31-31z" fill-opacity=".5"/><path d="M410.83-371.8a4 4 0 0 0-5.657 0 4 4 0 0 0-1.171 2.828V-356h-12.971a4 4 0 0 0-2.828 1.171 4 4 0 0 0 0 5.657A4 4 0 0 0 391.03-348h12.971v12.916a4 4 0 0 0 1.171 2.883 4 4 0 0 0 5.657 0 4 4 0 0 0 1.171-2.828V-348h12.916a4 4 0 0 0 2.884-1.171 4 4 0 0 0 0-5.657 4 4 0 0 0-2.829-1.171h-12.97v-12.916a4 4 0 0 0 0-.057 4 4 0 0 0-1.172-2.828z" fill="#fff"/><path fill="#fff" d="M404-373h8v42h-8z"/><path fill="#fff" d="M387-356h42v8h-42z"/></g></svg>