<svg version="1.0" viewBox="0 0 128 128" xmlns="http://www.w3.org/2000/svg"><g transform="translate(-312 -156)"><rect x="368" y="164" width="16" height="64" ry="8" fill="#f15d22"/><path d="M376 164c-4.432 0-8 3.568-8 8v48c0 4.188 3.187 7.6 7.277 7.963A6.984 6.984 0 0 1 369 221v-49c0-3.878 3.122-7 7-7s7 3.122 7 7v49a6.984 6.984 0 0 1-6.277 6.963A7.977 7.977 0 0 0 384 220v-48c0-4.432-3.568-8-8-8z" fill-opacity=".502"/><path d="M340 206c-4.432 0-8 3.568-8 8v24h88v-24c0-4.432-3.568-8-8-8z" fill="#f15d22"/><path d="M332 238v34h88v-34z" fill="#ffce51"/><path d="M340 206c-4.432 0-8 3.568-8 8v24h1v-24c0-3.878 3.122-7 7-7h72c3.878 0 7 3.122 7 7v24h1v-24c0-4.432-3.568-8-8-8z" fill-opacity=".502"/><path d="M332 238v34h88v-34h-1v30h-86v-30z" fill-opacity=".502"/><path fill-opacity=".502" d="M348 238h1v34h-1z"/><path fill-opacity=".502" d="M381 238h1v34h-1z"/><path fill-opacity=".502" d="M392 238h1v34h-1z"/><path fill-opacity=".502" d="M337 238h1v34h-1z"/><path fill-opacity=".502" d="M403 238h1v34h-1z"/><path fill-opacity=".502" d="M414 238h1v34h-1z"/><path fill-opacity=".502" d="M359 238h1v34h-1z"/><path fill-opacity=".502" d="M370 238h1v34h-1z"/></g></svg>