<svg version="1.0" viewBox="0 0 128 128" xmlns="http://www.w3.org/2000/svg"><g transform="translate(-312 144)"><rect transform="matrix(0 -1 -1 0 0 0)" x="24" y="-420" width="108" height="88" ry="8" fill="#50443f"/><rect transform="matrix(0 -1 -1 0 0 0)" x="28" y="-419" width="103" height="86" ry="7.5" fill="#a1887f"/><path fill="#fff" d="M340-124h72v89h-72z"/><rect x="366" y="-140" width="20" height="25" ry="10" fill="#666"/><rect x="368" y="-138" width="16" height="22.495" ry="8" fill="#ccc"/><path fill="#ccc" d="M358-122h36v7h-36z"/><rect x="358" y="-126" width="36" height="8" ry="4" fill="#ccc"/><circle cx="376" cy="-130" r="4" fill="#fff"/><rect x="348" y="-58" width="36" height="4" ry="1.823" fill="#474341" fill-opacity=".69"/><rect x="348" y="-70" width="56" height="4" ry="1.823" fill="#474341" fill-opacity=".69"/><rect x="348" y="-82" width="56" height="4" ry="1.823" fill="#474341" fill-opacity=".69"/><rect x="348" y="-94" width="56" height="4" ry="1.823" fill="#474341" fill-opacity=".69"/></g></svg>