<svg version="1.0" viewBox="0 0 128 128" xmlns="http://www.w3.org/2000/svg"><g transform="translate(-312 -156)"><rect x="332" y="166" width="88" height="112" ry="8" fill="#1f285a"/><rect x="332" y="164" width="88" height="112" ry="8" fill="#3f51b5"/><rect x="332.5" y="164.5" width="87" height="111" ry="7.5" fill="none" stroke="#000" stroke-linecap="round" stroke-linejoin="round" stroke-opacity=".314"/><path d="M367 249h12v14h-12zm12-8h-12c0-11.5 1.658-20.329 8.855-27.238 3.501-3.361 7.376-6.95 9.83-10.801 1.1-1.726 1.442-4.098 1.315-5.96-.531-7.799-7.018-11.126-13.5-11-7.698.148-14.807 4.097-20.5 8v-11c6.99-4.166 14.999-6.036 22.5-6 12.785.054 23.742 8.303 23.5 20-.207 10.03-7.697 15.57-14.515 21.904C379.001 224 379.001 232 379.001 241z" fill="#fff"/></g></svg>