<svg version="1.0" viewBox="0 0 128 128" xmlns="http://www.w3.org/2000/svg"><path d="M64 20c-2.216 0-4 1.784-4 4v52c0 2.216 1.784 4 4 4h37l19 19V24c0-2.216-1.784-4-4-4z" fill="#213397"/><path d="M64 16c-2.216 0-4 1.784-4 4v52c0 2.216 1.784 4 4 4h37l19 19V20c0-2.216-1.784-4-4-4z" fill="#4860c8"/><path d="M64 18c-2.216 0-4 1.784-4 4v52c0 2.216 1.784 4 4 4h37l19 19V22c0-2.216-1.784-4-4-4z" fill="#3f51b5"/><path d="M12 40c-2.216 0-4 1.784-4 4v72l16-16h40c2.216 0 4-1.784 4-4V44c0-2.216-1.784-4-4-4z" fill="#1c8d9b"/><path d="M12 36c-2.216 0-4 1.784-4 4v72l16-16h40c2.216 0 4-1.784 4-4V40c0-2.216-1.784-4-4-4z" fill="#4ea9b4"/><path d="M12 38c-2.216 0-4 1.784-4 4v72l16-16h40c2.216 0 4-1.784 4-4V42c0-2.216-1.784-4-4-4z" fill="#48b9c7"/><g fill="#fff" stroke-width="3.444" aria-label="Q?"><path d="M28.5 54c-6.258.11-8.483 6.142-8.5 11-.02 5.666 3.107 11.096 8.5 11 6.232-.11 8.484-6.165 8.5-11 .019-5.652-3.113-11.095-8.5-11zM38 83h-4l-4-4h-1.5c-8.25 0-12.499-7.248-12.5-14 0-7.88 5.43-14.075 12.52-14 8.237.087 12.472 7.271 12.48 14 .006 5.564-2.802 10.849-7.5 13z"/><path d="M50 74h3v4h-3zm3-3h-3c0-3.5.435-6.214 2.7-8.377 1.63-1.556 4.27-2.988 4.3-5.123.035-2.453-2.915-3.545-5-3.5-2.42.052-4.207.771-6 2v-3c2.194-1.307 4.146-2.053 6.5-2 4.01.09 7.593 2.747 7.5 6.5-.078 3.158-2.488 4.682-4.592 6.738C53.272 66.326 53 68 53 71z"/></g><g fill="#fff" stroke-width="3.43" aria-label="A!"><path d="m87 39-4.5 12.5H92zm-2-4h4.5L100 61h-4l-2.5-6.5h-12L79 61h-4z"/><path d="M105 57h4v4h-4zm0-22h4v12l-.5 6h-3l-.5-6z"/></g></svg>