<svg version="1.0" viewBox="0 0 128 128" xmlns="http://www.w3.org/2000/svg"><g transform="translate(-312 -156)"><rect x="472" y="38" width="240" height="240" ry="120" fill="#1c8d9b"/><rect x="472" y="36" width="240" height="240" ry="120" fill="#48b9c7"/><rect x="472.5" y="36.5" width="239" height="239" ry="119.5" fill="none" stroke="#161616" stroke-linecap="round" stroke-linejoin="round" stroke-opacity=".392"/><rect x="316" y="162" width="120" height="120" ry="60" fill="#1c8d9b"/><rect x="316" y="160" width="120" height="120" ry="60" fill="#48b9c7"/><rect x="226" y="223" width="60" height="60" ry="29.5" fill="#1c8d9b"/><rect x="226" y="222" width="60" height="60" ry="30" fill="#48b9c7"/><rect x="158" y="239" width="44" height="44" ry="22" fill="#1c8d9b"/><rect x="158" y="238" width="44" height="44" ry="22" fill="#48b9c7"/><rect x="101" y="254" width="30" height="30" ry="15" fill="#1c8d9b"/><rect x="101" y="253" width="30" height="30" ry="15" fill="#48b9c7"/><rect x="57" y="261" width="22" height="22" ry="11" fill="#48b9c7"/><rect x="17" y="269" width="14" height="14" ry="7" fill="#48b9c7"/><rect x="316.5" y="160.5" width="119" height="119" ry="59.5" fill="none" stroke="#161616" stroke-linecap="round" stroke-linejoin="round" stroke-opacity=".392"/><rect x="226.5" y="222.5" width="59" height="59" ry="29.5" fill="none" stroke="#161616" stroke-linecap="round" stroke-linejoin="round" stroke-opacity=".392"/><rect x="158.5" y="238.5" width="43" height="43" ry="21.5" fill="none" stroke="#161616" stroke-linecap="round" stroke-linejoin="round" stroke-opacity=".392"/><rect x="101.5" y="253.5" width="29" height="29" ry="14.5" fill="none" stroke="#161616" stroke-linecap="round" stroke-linejoin="round" stroke-opacity=".392"/><rect x="57.5" y="261.5" width="21" height="21" ry="10.5" fill="none" stroke="#161616" stroke-linecap="round" stroke-linejoin="round" stroke-opacity=".392"/><rect x="17.5" y="269.5" width="13" height="13" ry="6.5" fill="none" stroke="#161616" stroke-linecap="round" stroke-linejoin="round" stroke-opacity=".392"/><g transform="matrix(1 0 0 -1 0 552)" fill="#fff"><rect x="23" y="279" width="2" height="2" ry=".586"/><path d="m23.5 277-.5-2v-4h2v4l-.5 2z"/></g><g transform="matrix(1 0 0 -1 0 544)" fill="#fff"><rect x="67" y="276" width="2" height="3" ry=".586"/><path d="m67.5 274-.5-3v-6h2v6l-.5 3z"/></g><path d="M115 262h2v-3h-2zm0 15h2v-8l-.5-4h-1l-.5 4z" fill="#fff" aria-label="!"/><path d="M254 239h4v-5h-4zm0 30h4v-16l-.5-8h-3l-.5 8z" fill="#fff" aria-label="!"/><path d="M371 197h10v-12h-10zm0 58h10v-31l-1-16h-8l-1 16z" fill="#fff" aria-label="!"/><path d="M582 110h20V86h-20zm0 116h20v-62l-2-33h-16l-2 33z" fill="#fff" aria-label="!"/><path d="M178 251h4v-5h-4zm0 23h4v-12.5l-.5-6.5h-3l-.5 6.5z" fill="#fff" aria-label="!"/></g></svg>