<svg version="1.0" viewBox="0 0 128 128" xmlns="http://www.w3.org/2000/svg"><g transform="translate(-312 444)"><path d="M323.5-415.5 376-441l52.5 25.5c1.03.5 3.5 2.176 3.5 5.5v78c0 3.324-2.676 6-6 6H326c-3.324 0-6-2.676-6-6v-78c0-3.324 2.5-5.014 3.5-5.5z" fill="#a27100"/><rect x="332" y="-435" width="88" height="82" ry="4" fill="#dedede"/><rect x="332.5" y="-434.5" width="87" height="81" ry="3.5" fill="none" stroke="#000" stroke-linecap="round" stroke-opacity=".392"/><path d="M320-408v74c0 3.324 2.676 6 6 6h100c3.324 0 6-2.676 6-6v-74l-56 46z" fill="#ffce51"/><path d="m352.63-381.2-32.631 47.197c0 3.324 2.676 6 6 6h100c3.324 0 6-2.676 6-6L399.368-381.2l-23.369 19.197z" fill="#c29a32"/><path d="M426-415.5c3.047 0 5.5 2.453 5.5 5.5v76c0 3.047-2.453 5.5-5.5 5.5H326a5.488 5.488 0 0 1-5.5-5.5v-76c0-3.047 2.453-5.5 5.5-5.5" fill="none" stroke="#303030" stroke-linecap="round" stroke-linejoin="round" stroke-opacity=".392"/><path d="m377.09-426.5 19.406 13.5-19.406 13.5v-7.5h-6c-4.095 0-7.715 2.62-8.813 6-1.312 4.043 4.313 12 4.313 12s-12-4.5-12-14.25c0-9.37 6-15.75 15-15.75h7.5z" color="#bebebe" fill="#393634" fill-opacity=".784" style="text-decoration-line:none;text-indent:0;text-transform:none"/></g></svg>