<svg version="1.0" viewBox="0 0 128 128" xmlns="http://www.w3.org/2000/svg"><g transform="translate(-312 -156)"><rect x="228" y="236" width="56" height="44" ry="4" fill="#a27100"/><rect x="228" y="234" width="56" height="44" ry="4" fill="#ffce51"/><path d="M232 278h48c2.216 0 4-1.784 4-4l-28-39-28 39c0 2.216 1.784 4 4 4z" fill="#c29a32"/><path d="M284 238v2l-28 22-28-22v-2z" fill-opacity=".196"/><path d="M232 234h48c2.216 0 4 1.784 4 4l-28 22-28-22c0-2.216 1.784-4 4-4z" fill="#ffee7d"/><rect x="228.5" y="234.5" width="55" height="43" ry="3.49" fill="none" stroke="#303030" stroke-linecap="round" stroke-linejoin="round" stroke-opacity=".392"/><rect x="159" y="247" width="42" height="34" ry="4" fill="#a27100"/><rect x="159" y="247" width="42" height="32" ry="4" fill="#ffce51"/><path d="M163 279h34c2.216 0 4-1.784 4-4l-21-27-21 27c0 2.216 1.784 4 4 4z" fill="#c29a32"/><path d="M201 251v2l-21 15-21-15v-2z" fill-opacity=".196"/><path d="M163 247h34c2.216 0 4 1.784 4 4l-21 15-21-15c0-2.216 1.784-4 4-4z" fill="#ffee7d"/><rect x="159.5" y="247.5" width="41" height="31" ry="3.49" fill="none" stroke="#303030" stroke-linecap="round" stroke-linejoin="round" stroke-opacity=".392"/><rect x="102" y="259" width="28" height="23" ry="2" fill="#a27100"/><rect x="102" y="259" width="28" height="22" ry="2" fill="#ffce51"/><rect x="57" y="263" width="22" height="20" ry="2" fill="#a27100"/><rect x="17" y="270" width="14" height="13" ry="2" fill="#a27100"/><rect x="57" y="262" width="22" height="20" ry="2" fill="#ffce51"/><rect x="17" y="269" width="14" height="13" ry="2" fill="#ffce51"/><path d="M104 281h24c1.108 0 2-.892 2-2l-14-19-14 19c0 1.108.892 2 2 2z" fill="#c29a32"/><path d="M59 282h18c1.108 0 2-.892 2-2l-11-17-11 17c0 1.108.892 2 2 2z" fill="#c29a32"/><path d="M130 261v1l-14 11-14-11v-1z" fill-opacity=".314"/><path d="M104 259h24c1.108 0 2 .892 2 2l-14 11-14-11c0-1.108.892-2 2-2z" fill="#ffee7d"/><path d="M19 282h10c1.108 0 2-.892 2-2l-7-7-7 7c0 1.108.892 2 2 2z" fill="#c29a32"/><path d="M79 264v1l-11 10-11-10v-1z" fill-opacity=".314"/><path d="M59 262h18c1.108 0 2 .892 2 2l-11 10-11-10c0-1.108.892-2 2-2z" fill="#ffee7d"/><path d="M31 271v1l-7 7-7-7v-1z" fill-opacity=".314"/><path d="M19 269h10c1.108 0 2 .892 2 2l-7 7-7-7c0-1.108.892-2 2-2z" fill="#ffee7d"/><rect x="102.5" y="259.5" width="27" height="21" ry="1.5" fill="none" stroke="#303030" stroke-linecap="round" stroke-linejoin="round" stroke-opacity=".392"/><rect x="57.5" y="262.5" width="21" height="19" ry="1.5" fill="none" stroke="#303030" stroke-linecap="round" stroke-linejoin="round" stroke-opacity=".392"/><rect x="17.5" y="269.5" width="13" height="12" ry="1.5" fill="none" stroke="#303030" stroke-linecap="round" stroke-linejoin="round" stroke-opacity=".392"/><rect x="320" y="184" width="112" height="90" ry="6" fill="#a27100"/><rect x="320" y="184" width="112" height="88" ry="6" fill="#ffce51"/><rect x="480" y="84" width="224" height="178" ry="6" fill="#a27100"/><rect x="480" y="84" width="224" height="176" ry="6" fill="#ffce51"/><path d="M326 272h100c3.324 0 6-2.676 6-6l-56-81-56 81c0 3.324 2.676 6 6 6z" fill="#c29a32"/><path d="M432 190v2l-56 46-56-46v-2z" fill-opacity=".196"/><path d="M326 184h100c3.324 0 6 2.676 6 6l-56 46-56-46c0-3.324 2.676-6 6-6z" fill="#ffee7d"/><path d="M486 260h212c3.324 0 6-2.676 6-6L592 85 480 254c0 3.324 2.676 6 6 6z" fill="#c29a32"/><path d="M704 90v2l-112 98-112-98v-2z" fill-opacity=".196"/><path d="M486 84h212c3.324 0 6 2.676 6 6l-112 98-112-98c0-3.324 2.676-6 6-6z" fill="#ffee7d"/><rect x="320.5" y="184.5" width="111" height="87" ry="5.5" fill="none" stroke="#303030" stroke-linecap="round" stroke-linejoin="round" stroke-opacity=".392"/><rect x="480.5" y="84.5" width="223" height="175" ry="5.5" fill="none" stroke="#303030" stroke-linecap="round" stroke-linejoin="round" stroke-opacity=".392"/></g></svg>