<svg version="1.0" viewBox="0 0 128 128" xmlns="http://www.w3.org/2000/svg"><g transform="translate(-312 -156)"><rect x="320" y="184" width="112" height="90" ry="6" fill="#a27100"/><rect x="320" y="184" width="112" height="88" ry="6" fill="#ffce51"/><path d="M326 272h100c3.324 0 6-2.676 6-6l-56-81-56 81c0 3.324 2.676 6 6 6z" fill="#c29a32"/><path d="M432 190v2l-56 46-56-46v-2z" fill-opacity=".196"/><path d="M326 184h100c3.324 0 6 2.676 6 6l-56 46-56-46c0-3.324 2.676-6 6-6z" fill="#ffee7d"/><rect x="320.5" y="184.5" width="111" height="87" ry="5.5" fill="none" stroke="#303030" stroke-linecap="round" stroke-linejoin="round" stroke-opacity=".392"/><path d="M422.5 282h-23L383 265.5v-23l16.5-16.5h23l16.5 16.5v23z" fill-opacity=".392"/><path d="M422.5 280h-23L383 263.5v-23l16.5-16.5h23l16.5 16.5v23z" fill="#cf3b00"/><path d="M409.99 233a2 2 0 0 0-2 2 2 2 0 0 0 .01.174V248h-2v-10h-.01a2 2 0 0 0-2-2 2 2 0 0 0-2 2 2 2 0 0 0 .01.174V257l-3.533-5.108c-1.656-2.393-6.018-.375-3.967 3.108 2.543 4.317 9.5 17 15.5 17 5.565 0 14.027-.001 14.02-9.059l-.02-23.94h-.01a2 2 0 0 0-2-2 2 2 0 0 0-2 2 2 2 0 0 0 .01.173V250h-2v-14h-.01a2 2 0 0 0-2-2 2 2 0 0 0-2 2 2 2 0 0 0 .01.174V248h-2v-13h-.01a2 2 0 0 0-2-2z" fill="#fff"/></g></svg>