<svg version="1.0" viewBox="0 0 128 128" xmlns="http://www.w3.org/2000/svg"><g transform="translate(-312 -156)"><path d="m230 234.5 26-12.5 26 12.5c.5.24 2 1.284 2 3.5v38c0 2.216-1.784 4-4 4h-48c-2.216 0-4-1.784-4-4v-38c0-2.216 1.5-3.26 2-3.5z" fill="#a27100"/><g transform="translate(-98 58)"><rect x="332" y="168" width="44" height="48" ry="4" fill="#dedede"/><rect x="332.5" y="168.5" width="43" height="47" ry="3.5" fill="none" stroke="#000" stroke-linecap="round" stroke-opacity=".392"/></g><path d="M228 240v34c0 2.216 1.784 4 4 4h48c2.216 0 4-1.784 4-4v-34l-28 22z" fill="#ffce51"/><path d="m243.61 252.26-15.607 21.738c0 2.216 1.784 4 4 4h48c2.216 0 4-1.784 4-4l-15.607-21.738-12.393 9.738z" fill="#c29a32"/><path d="M280.01 234.5a3.482 3.482 0 0 1 3.49 3.49v36.02a3.482 3.482 0 0 1-3.49 3.49h-48.02a3.482 3.482 0 0 1-3.49-3.49v-36.02a3.482 3.482 0 0 1 3.49-3.49" fill="none" stroke="#303030" stroke-linecap="round" stroke-linejoin="round" stroke-opacity=".392"/><path d="m161 247.5 19-9 19 9c.505.24 2 1.284 2 3.5v26c0 2.216-1.784 4-4 4h-34c-2.216 0-4-1.784-4-4v-26c0-2.216 1.5-3.235 2-3.5z" fill="#a27100"/><rect x="165" y="241" width="30" height="33" ry="4" fill="#dedede"/><rect x="165.5" y="241.5" width="29" height="32" ry="3.5" fill="none" stroke="#000" stroke-linecap="round" stroke-opacity=".392"/><path d="M159 253v22c0 2.216 1.784 4 4 4h34c2.216 0 4-1.784 4-4v-22l-21 15z" fill="#ffce51"/><path d="m170 260.86-11 14.143c0 2.216 1.784 4 4 4h34c2.216 0 4-1.784 4-4l-11-14.143-10 7.143z" fill="#c29a32"/><path d="M197.01 247.5a3.482 3.482 0 0 1 3.49 3.49v24.02a3.482 3.482 0 0 1-3.49 3.49h-34.02a3.482 3.482 0 0 1-3.49-3.49v-24.02a3.482 3.482 0 0 1 3.49-3.49" fill="none" stroke="#303030" stroke-linecap="round" stroke-linejoin="round" stroke-opacity=".392"/><path d="m103.5 259 12.5-6 12.5 6c.905.435 1.5 1 1.5 2v19c0 1.108-.892 2-2 2h-24c-1.108 0-2-.892-2-2v-19c0-1 .577-1.557 1.5-2z" fill="#a27100"/><rect x="106" y="255" width="20" height="22" ry="2" fill="#dedede"/><rect x="106.5" y="255.5" width="19" height="21" ry="1.5" fill="none" stroke="#000" stroke-linecap="round" stroke-opacity=".392"/><path d="M102 262v17c0 1.108.892 2 2 2h24c1.108 0 2-.892 2-2v-17l-14 11z" fill="#ffce51"/><rect x="57" y="269" width="22" height="14" ry="2" fill="#a27100"/><rect x="57" y="268" width="22" height="14" ry="2" fill="#ffce51"/><rect x="17" y="275" width="14" height="9" ry="2" fill="#a27100"/><rect x="17" y="274" width="14" height="9" ry="2" fill="#ffce51"/><path d="m109.93 268.23-7.934 10.768c0 1.108.892 2 2 2h24c1.108 0 2-.892 2-2l-7.933-10.768-6.067 4.768z" fill="#c29a32"/><path d="M128 259.5c.831 0 1.5.669 1.5 1.5v18c0 .831-.669 1.5-1.5 1.5h-24c-.831 0-1.5-.669-1.5-1.5v-18c0-.831.669-1.5 1.5-1.5" fill="none" stroke="#303030" stroke-linecap="round" stroke-linejoin="round" stroke-opacity=".392"/><path d="M323.5 184.5 376 159l52.5 25.5c1.03.5 3.5 2.176 3.5 5.5v78c0 3.324-2.676 6-6 6H326c-3.324 0-6-2.676-6-6v-78c0-3.324 2.5-5.014 3.5-5.5z" fill="#a27100"/><rect x="332" y="165" width="88" height="82" ry="4" fill="#dedede"/><rect x="332.5" y="165.5" width="87" height="81" ry="3.5" fill="none" stroke="#000" stroke-linecap="round" stroke-opacity=".392"/><path d="M320 192v74c0 3.324 2.676 6 6 6h100c3.324 0 6-2.676 6-6v-74l-56 46z" fill="#ffce51"/><path d="M483.5 84.5 592 32l108.5 52.5c1.033.5 3.5 2.176 3.5 5.5v166c0 3.324-2.676 6-6 6H486c-3.324 0-6-2.676-6-6V90c0-3.324 2.467-5 3.5-5.5z" fill="#a27100"/><rect x="512" y="46" width="160" height="160" ry="8" fill="#dedede"/><rect x="512.5" y="46.5" width="159" height="159" ry="7.5" fill="none" stroke="#303030" stroke-linecap="round" stroke-opacity=".392"/><path d="M480 92v162c0 3.324 2.676 6 6 6h212c3.324 0 6-2.676 6-6V92l-112 98z" fill="#ffce51"/><path d="m352.63 218.8-32.631 47.197c0 3.324 2.676 6 6 6h100c3.324 0 6-2.676 6-6L399.368 218.8l-23.369 19.197z" fill="#c29a32"/><path d="M547.96 151.46 480.005 254c0 3.324 2.676 6 6 6h212c3.324 0 6-2.676 6-6L636.05 151.46l-44.045 38.539z" fill="#c29a32"/><path d="M426 184.5c3.047 0 5.5 2.453 5.5 5.5v76c0 3.047-2.453 5.5-5.5 5.5H326a5.488 5.488 0 0 1-5.5-5.5v-76c0-3.047 2.453-5.5 5.5-5.5" fill="none" stroke="#303030" stroke-linecap="round" stroke-linejoin="round" stroke-opacity=".392"/><path d="M698 84.5c3.047 0 5.5 2.453 5.5 5.5v164c0 3.047-2.453 5.5-5.5 5.5H486a5.488 5.488 0 0 1-5.5-5.5V90c0-3.047 2.453-5.5 5.5-5.5" fill="none" stroke="#303030" stroke-linecap="round" stroke-linejoin="round" stroke-opacity=".392"/><rect x="17.5" y="274.5" width="13" height="8" ry="1.5" fill="none" stroke="#303030" stroke-linecap="round" stroke-opacity=".392"/><rect x="57.5" y="268.5" width="21" height="13" ry="1.5" fill="none" stroke="#303030" stroke-linecap="round" stroke-opacity=".392"/><path d="m647 80.061-66 66-30-30" fill="none" stroke="#393634" stroke-linecap="round" stroke-linejoin="round" stroke-width="24"/><rect x="60" y="261" width="16" height="17" ry="2" fill="#dedede"/><rect x="60.5" y="261.5" width="15" height="16" ry="1.5" fill="none" stroke="#000" stroke-linecap="round" stroke-opacity=".392"/><rect x="19" y="269" width="10" height="11" ry="2" fill="#dedede"/><rect x="19.5" y="269.5" width="9" height="10" ry="1.5" fill="none" stroke="#303030" stroke-linecap="round" stroke-opacity=".392"/><path d="M21.5 275.5 23 277l3.5-3.5" fill="none" stroke="#393634" stroke-linecap="round" stroke-linejoin="round" stroke-width="2"/><path d="m63 270 3 3 7-7" fill="none" stroke="#393634" stroke-linecap="round" stroke-linejoin="round" stroke-width="2"/><path d="m400 175.53-33 33-15-15" fill="none" stroke="#393634" stroke-linecap="round" stroke-linejoin="round" stroke-width="12"/><path d="m268 233.77-16.5 16.5-7.5-7.5" fill="none" stroke="#393634" stroke-linecap="round" stroke-linejoin="round" stroke-width="6"/><path d="m122 258.88-8.25 8.25-3.75-3.75" fill="none" stroke="#393634" stroke-linecap="round" stroke-linejoin="round" stroke-width="3"/><path d="m170 253.51 6 6 14-14" fill="none" stroke="#393634" stroke-linecap="round" stroke-linejoin="round" stroke-width="4"/></g></svg>