<svg version="1.0" viewBox="0 0 128 128" xmlns="http://www.w3.org/2000/svg"><path d="M39.15 4 4.002 39.148v52.703l35.148 35.148h49.703l35.148-35.148V39.148L88.853 4z" fill="#cf3b00"/><path d="M39.15 4 4.002 39.148v52.703l35.148 35.148h49.703l35.148-35.148V39.148L88.853 4zm.437 1h48.877l34.562 34.561V88.44l-34.562 34.561H39.587L5.027 88.44V39.561z" fill-opacity=".502"/><path d="M352 196h8c2.21 0 4.302.802 5.75 2.25L376 208.469l10.25-10.219c1.448-1.448 3.54-2.25 5.75-2.25h8v8c0 2.21-.802 4.302-2.25 5.75l-10.25 10.219 10.25 10.281c1.448 1.448 2.261 3.54 2.25 5.75v8h-8c-2.21 0-4.302-.802-5.75-2.25L376 231.469l-10.25 10.281c-1.448 1.448-3.54 2.25-5.75 2.25h-8v-8c0-2.21.802-4.302 2.25-5.75l10.25-10.281-10.25-10.219c-1.448-1.448-2.25-3.54-2.25-5.75z" color="#000" fill="#fff" style="text-decoration-line:none;text-indent:0;text-transform:none" transform="translate(-312 -156)"/></svg>