<svg version="1.0" viewBox="0 0 128 128" xmlns="http://www.w3.org/2000/svg"><g transform="translate(-312 144)"><rect x="316" y="-140" width="120" height="123" ry="60" fill="#7b736e"/><path d="M376-140c-33.24 0-60 26.76-60 60v3c0 33.24 26.76 60 60 60s60-26.76 60-60v-3c0-33.24-26.76-60-60-60zm0 1c32.686 0 59 26.314 59 59s-26.314 59-59 59-59-26.314-59-59 26.314-59 59-59z" fill="#fff" fill-opacity=".502"/><path d="m397-93 18 13.5L397-66v-9h-18v-9h18z" color="#bebebe" fill="#fff"/><path d="M393.37-96.739a4.5 4.5 0 0 0-1.608-3.445 4.5 4.5 0 0 0-.519-.378c-6.616-5.239-15.469-7.262-23.95-4.913-11.722 3.245-19.85 13.984-19.793 26.147.058 12.163 8.287 22.82 20.04 25.954 8.437 2.25 17.204.185 23.756-5.028a4.5 4.5 0 0 0 2.074-3.78 4.5 4.5 0 0 0-4.5-4.5 4.5 4.5 0 0 0-2.953 1.1c-4.383 3.613-10.31 5.048-16.058 3.515A17.958 17.958 0 0 1 356.5-79.373a17.963 17.963 0 0 1 13.192-17.438 17.943 17.943 0 0 1 16.251 3.472c.014.009.023.022.036.036a4.5 4.5 0 0 0 .01 0 4.5 4.5 0 0 0 2.882 1.063 4.5 4.5 0 0 0 4.5-4.5z" color="#000" fill="#fff" style="isolation:auto;mix-blend-mode:normal;text-decoration-color:#000;text-decoration-line:none;text-decoration-style:solid;text-indent:0;text-transform:none;white-space:normal"/></g></svg>