<svg version="1.0" viewBox="0 0 128 128" xmlns="http://www.w3.org/2000/svg"><g transform="translate(-312 1044)"><rect x="316" y="-1040" width="120" height="123" ry="60" fill="#7b736e"/><path d="M376-1040c-33.24 0-60 26.76-60 60v3c0 33.24 26.76 60 60 60s60-26.76 60-60v-3c0-33.24-26.76-60-60-60zm0 1c32.686 0 59 26.314 59 59s-26.314 59-59 59-59-26.314-59-59 26.314-59 59-59z" fill="#fff" fill-opacity=".502"/><path d="M378.93-1011.5c-12.432.457-23.889 8.12-28.406 20.531-5.95 16.348 2.355 34.55 18.703 40.5 12.411 4.517 25.831.652 34.172-8.578-5.975 1.929-12.627 2.032-18.984-.281-15.18-5.525-22.963-22.367-17.438-37.547 2.314-6.357 6.635-11.288 11.953-14.625z" color="#bebebe" fill="#fff"/><path d="M376-997c-2 0-2 2-2 2v24s0 2 2 2h20s2 0 2-2v-24s0-2-2-2zm10 4a8 8 0 1 1 0 16h-8v-8a8 8 0 0 1 8-8zm0 4a4 4 0 1 0 0 8 4 4 0 0 0 0-8z" fill="#fff" filter="url(#filter7554)"/></g></svg>