<svg version="1.0" viewBox="0 0 128 128" xmlns="http://www.w3.org/2000/svg"><g transform="translate(-312 444)"><rect x="350" y="-364" width="60" height="36" ry="4" fill="#424242"/><rect x="351" y="-364" width="58" height="32" ry="4" fill="#848484"/><rect x="324" y="-428.01" width="112" height="80" ry="6" fill="#6f6f6f"/><rect x="325" y="-427" width="110" height="75" ry="5.5" fill="#acacac"/><rect x="329" y="-423" width="102" height="62" ry="1" fill="#424242"/><rect x="368" y="-359" width="24" height="4" ry="1" fill="#424242"/><path d="M380-414c-6.075 0-11 4.925-11 11a10.94 10.94 0 0 0 6.679 10.116L369-370h22l-6.679-22.884A10.94 10.94 0 0 0 391-403c0-6.075-4.925-11-11-11z" color="#000" fill="#fff"/></g></svg>