<svg version="1.0" viewBox="0 0 128 128" xmlns="http://www.w3.org/2000/svg"><g transform="translate(-312 -156)"><rect x="316" y="160" width="120" height="123" ry="60" fill="#7b736e"/><path d="M376 160c-33.24 0-60 26.76-60 60v3c0 33.24 26.76 60 60 60s60-26.76 60-60v-3c0-33.24-26.76-60-60-60zm0 1c32.686 0 59 26.314 59 59s-26.314 59-59 59-59-26.314-59-59 26.314-59 59-59z" fill="#fff" fill-opacity=".502"/><path d="M376 184a6 6 0 0 0-6 6 6 6 0 0 0 6 6 24 24 0 0 1 24 24h-12l18 24 18-24h-12a36 36 0 0 0-36-36zm-30 12-18 24h12a36 36 0 0 0 36 36 6 6 0 0 0 6-6 6 6 0 0 0-6-6 24 24 0 0 1-24-24h12z" fill="#fff" fill-opacity=".902"/></g></svg>