<svg version="1.0" viewBox="0 0 128 128" xmlns="http://www.w3.org/2000/svg"><g transform="translate(-312 444)"><rect x="316" y="-440" width="120" height="123" ry="60" fill="#7b736e"/><path d="M376-440c-33.24 0-60 26.76-60 60v3c0 33.24 26.76 60 60 60s60-26.76 60-60v-3c0-33.24-26.76-60-60-60zm0 1c32.686 0 59 26.314 59 59s-26.314 59-59 59-59-26.314-59-59 26.314-59 59-59z" fill="#fff" fill-opacity=".502"/><path d="M376-409c-2.485 0-5 1.997-5 4.482v22.501c0 2.485 2.515 4.518 5 4.518s5-2.033 5-4.518v-22.501c0-2.485-2.515-4.482-5-4.482z" color="#bebebe" fill="#fff"/><path d="M358.72-396.5a4.5 4.5 0 0 0-3.445 1.608 4.5 4.5 0 0 0-.378.519c-5.239 6.616-7.262 15.469-4.913 23.95 3.245 11.722 13.984 19.85 26.147 19.793 12.163-.058 22.82-8.287 25.954-20.04 2.25-8.437.185-17.204-5.028-23.756a4.5 4.5 0 0 0-3.78-2.074 4.5 4.5 0 0 0-4.5 4.5 4.5 4.5 0 0 0 1.1 2.953c3.613 4.383 5.048 10.31 3.515 16.058a17.958 17.958 0 0 1-17.306 13.359 17.963 17.963 0 0 1-17.438-13.192 17.943 17.943 0 0 1 3.472-16.251c.009-.014.022-.023.036-.036a4.5 4.5 0 0 0 0-.01 4.5 4.5 0 0 0 1.063-2.882 4.5 4.5 0 0 0-4.5-4.5z" color="#000" fill="#fff" style="isolation:auto;mix-blend-mode:normal;text-decoration-color:#000;text-decoration-line:none;text-decoration-style:solid;text-indent:0;text-transform:none;white-space:normal"/></g></svg>