<svg version="1.0" viewBox="0 0 128 128" xmlns="http://www.w3.org/2000/svg"><g transform="translate(-312 144)"><rect x="324" y="-132" width="104" height="107" ry="8" fill="#7b736e"/><path d="M332-132c-4.432 0-8 3.568-8 8v91c0 4.432 3.568 8 8 8h88c4.432 0 8-3.568 8-8v-91c0-4.432-3.568-8-8-8zm0 1h88c3.878 0 7 3.122 7 7v88c0 3.878-3.122 7-7 7h-88c-3.878 0-7-3.122-7-7v-88c0-3.878 3.122-7 7-7z" fill="#fff" fill-opacity=".502"/><path d="M400-85.976v12h-48v-12z" color="#bebebe" fill="#fff" fill-opacity=".902"/></g></svg>