<svg version="1.0" viewBox="0 0 128 128" xmlns="http://www.w3.org/2000/svg" xmlns:xlink="http://www.w3.org/1999/xlink"><g fill="#fff" fill-opacity=".902" transform="translate(-312 444)"><g id="a" stroke-linecap="square"><rect x="103" y="255" width="26" height="27" ry="2" fill="#7b736e" fill-opacity="1" stroke-width="2"/><path d="M105 255c-1.108 0-2 .892-2 2v23c0 1.108.892 2 2 2h22c1.108 0 2-.892 2-2v-23c0-1.108-.892-2-2-2zm0 1h22c.554 0 1 .446 1 1v22c0 .554-.446 1-1 1h-22c-.554 0-1-.446-1-1v-22c0-.554.446-1 1-1z" fill-opacity=".502" stroke-width="2"/><rect x="160" y="240" width="40" height="41" ry="3" fill="#7b736e" fill-opacity="1" stroke-width="2"/><rect x="230" y="226" width="52" height="54" ry="4" fill="#7b736e" fill-opacity="1" stroke-width="2"/><rect x="324" y="168" width="104" height="107" ry="8" fill="#7b736e" fill-opacity="1" stroke-width="4"/><rect x="488" y="52" width="208" height="212" ry="16" fill="#7b736e" fill-opacity="1" stroke-width="8"/><rect x="57" y="261" width="22" height="22" ry="2" fill="#7b736e" fill-opacity="1" stroke-width="2"/><rect x="17" y="269" width="14" height="14" ry="2" fill="#7b736e" fill-opacity="1" stroke-width="2"/><path d="M59 261c-1.108 0-2 .892-2 2v18c0 1.108.892 2 2 2h18c1.108 0 2-.892 2-2v-18c0-1.108-.892-2-2-2zm0 1h18c.554 0 1 .446 1 1v18c0 .554-.446 1-1 1H59c-.554 0-1-.446-1-1v-18c0-.554.446-1 1-1z" fill-opacity=".502" stroke-width="2"/><path d="M19 269c-1.108 0-2 .892-2 2v10c0 1.108.892 2 2 2h10c1.108 0 2-.892 2-2v-10c0-1.108-.892-2-2-2zm0 1h10c.554 0 1 .446 1 1v10c0 .554-.446 1-1 1H19c-.554 0-1-.446-1-1v-10c0-.554.446-1 1-1z" fill-opacity=".502" stroke-width="2"/><path d="M163 240c-1.662 0-3 1.338-3 3v35c0 1.662 1.338 3 3 3h34c1.662 0 3-1.338 3-3v-35c0-1.662-1.338-3-3-3zm0 1h34c1.108 0 2 .892 2 2v33c0 1.108-.892 2-2 2h-34c-1.108 0-2-.892-2-2v-33c0-1.108.892-2 2-2z" fill-opacity=".502" stroke-width="2"/><path d="M234 226c-2.216 0-4 1.784-4 4v46c0 2.216 1.784 4 4 4h44c2.216 0 4-1.784 4-4v-46c0-2.216-1.784-4-4-4zm0 1h44c1.662 0 3 1.338 3 3v44c0 1.662-1.338 3-3 3h-44c-1.662 0-3-1.338-3-3v-44c0-1.662 1.338-3 3-3z" fill-opacity=".502" stroke-width="2"/><path d="M332 168c-4.432 0-8 3.568-8 8v91c0 4.432 3.568 8 8 8h88c4.432 0 8-3.568 8-8v-91c0-4.432-3.568-8-8-8zm0 1h88c3.878 0 7 3.122 7 7v88c0 3.878-3.122 7-7 7h-88c-3.878 0-7-3.122-7-7v-88c0-3.878 3.122-7 7-7z" fill-opacity=".502" stroke-width="4"/><path d="M504 52c-8.864 0-16 7.136-16 16v180c0 8.864 7.136 16 16 16h176c8.864 0 16-7.136 16-16V68c0-8.864-7.136-16-16-16zm0 1h176c8.31 0 15 6.69 15 15v176c0 8.31-6.69 15-15 15H504c-8.31 0-15-6.69-15-15V68c0-8.31 6.69-15 15-15z" fill-opacity=".502" stroke-width="8"/></g><path d="M23 272h2v2.996l3 .004v2l-3-.004V280h-2v-3.004L20 277v-2l3-.004z" color="#bebebe"/><path d="M66 266h4v4h4v4h-4v4l-4 .006V274h-4v-4h4z" color="#bebebe"/><path d="M114 260.01h4v5.992l6 .008v4l-6-.008v6.008h-4v-6.008l-6 .008v-4l6-.008z" color="#bebebe"/><path d="M177 248.01h6v8.989l9 .012v6l-9-.012v9.011h-6v-9.011l-9 .012v-6l9-.012z" color="#bebebe"/><path d="M253 240.01h6v8.989l9 .012v6l-9-.012v9.011h-6v-9.011l-9 .012v-6l9-.012z" color="#bebebe"/><path d="M370 196.02h12l.001 17.977 17.999.024v12l-17.999-.024L382 244.02h-12l.001-18.023-18.001.024v-12l18.001-.024z" color="#bebebe"/><path d="M580 108.05h24l.002 35.955 35.998.048v24l-35.998-.048L604 204.05h-24l.002-36.045-36.002.048v-24l36.002-.048z" color="#bebebe"/></g><g fill="#fff" fill-opacity=".902" transform="translate(-312 444)"><use id="b" transform="translate(0 -300)" width="100%" height="100%" xlink:href="#a"/><path d="M28-24.996v2h-8v-2z" color="#bebebe"/><path d="M74-30v4H62v-4z" color="#bebebe"/><path d="M124-33.992v4h-16v-4z" color="#bebebe"/><path d="M192-42.988v6h-24v-6z" color="#bebebe"/><path d="M268-50.988v6h-24v-6z" color="#bebebe"/><path d="M400-85.976v12h-48v-12z" color="#bebebe"/><path d="M640-155.95v24h-96v-24z" color="#bebebe"/></g><g transform="translate(-312 444)"><use transform="translate(0 -300)" width="100%" height="100%" xlink:href="#b"/><path d="M179-350h6v18h-6v-12h-3v-3s3 0 3-3z" color="#bebebe" fill="#fff"/><path d="M115-338h4v12h-4v-8h-2v-2s2 0 2-2z" color="#bebebe" fill="#fff"/><path d="M24-327h2v6h-2v-4h-1v-1s1 0 1-1z" color="#bebebe" fill="#fff"/><path d="M67-332h3v9h-3v-6h-2v-1s2 0 2-2z" color="#bebebe" fill="#fff"/><path d="M254-360h8v24h-8v-16h-4v-4s4 0 4-4z" color="#bebebe" fill="#fff"/><path d="M372-404h16v48h-16v-32h-8v-8s8 0 8-8z" color="#bebebe" fill="#fff"/><path d="M584-492h32v96h-32v-64h-16v-16s16 0 16-16z" color="#bebebe" fill="#fff"/></g></svg>