<svg version="1.0" viewBox="0 0 128 128" xmlns="http://www.w3.org/2000/svg"><g transform="translate(-312 -156)"><rect x="324" y="168" width="104" height="107" ry="8" fill="#7b736e"/><path d="M332 168c-4.432 0-8 3.568-8 8v91c0 4.432 3.568 8 8 8h88c4.432 0 8-3.568 8-8v-91c0-4.432-3.568-8-8-8zm0 1h88c3.878 0 7 3.122 7 7v88c0 3.878-3.122 7-7 7h-88c-3.878 0-7-3.122-7-7v-88c0-3.878 3.122-7 7-7z" fill="#fff" fill-opacity=".502"/><path d="M370 196.02h12l.001 17.977 17.999.024v12l-17.999-.024L382 244.02h-12l.001-18.023-18.001.024v-12l18.001-.024z" color="#bebebe" fill="#fff" fill-opacity=".902"/></g></svg>