<svg version="1.0" viewBox="0 0 256 256" xmlns="http://www.w3.org/2000/svg"><g transform="translate(-464 -28)"><rect x="504" y="44" width="176" height="224" ry="16" fill="#adadad" fill-opacity=".989"/><path d="M520 44c-8.864 0-16 7.136-16 16v192c0 8.864 7.136 16 16 16h144c8.864 0 16-7.136 16-16V60c0-8.864-7.136-16-16-16zm0 1h144c8.31 0 15 6.69 15 15v54c0 8.31-6.69 15-15 15H520c-8.31 0-15-6.69-15-15V60c0-8.31 6.69-15 15-15z" fill-opacity=".5"/><g transform="translate(216 -23)"><path d="M376 160c-10.949 0-21.186 2.918-30.004 8H332.5a8.481 8.481 0 0 0-8.5 8.5v13.496c-5.082 8.818-8 19.055-8 30.004v3c0 10.949 2.918 21.186 8 30.004V266.5c0 4.709 3.791 8.5 8.5 8.5h13.496c8.818 5.082 19.055 8 30.004 8s21.186-2.918 30.004-8H419.5c4.709 0 8.5-3.791 8.5-8.5v-13.496c5.082-8.818 8-19.055 8-30.004v-3c0-10.949-2.918-21.186-8-30.004V176.5c0-4.709-3.791-8.5-8.5-8.5h-13.496c-8.818-5.082-19.055-8-30.004-8z" fill="#565656"/><path d="M376 161c-10.863 0-21.013 2.92-29.736 8H333c-4.432 0-8 3.568-8 8v13.264c-5.08 8.723-8 18.874-8 29.736s2.92 21.013 8 29.736V263c0 4.432 3.568 8 8 8h13.264c8.723 5.08 18.874 8 29.736 8s21.013-2.92 29.736-8H419c4.432 0 8-3.568 8-8v-13.264c5.08-8.723 8-18.874 8-29.736s-2.92-21.013-8-29.736V177c0-4.432-3.568-8-8-8h-13.264c-8.723-5.08-18.874-8-29.736-8z" fill="#acacac"/><rect x="325" y="169" width="102" height="102" ry="51" fill="#333"/><circle cx="376" cy="220" r="42" fill="#faa41a"/><rect x="359" y="200" width="34" height="37" ry="17" fill="#845914"/><circle cx="376" cy="220" r="16" fill="#333"/><g transform="translate(24 20)" fill="#565656"><circle cx="394" cy="158" r="2"/><circle cx="310" cy="158" r="2"/><circle cx="310" cy="242" r="2"/><circle cx="394" cy="242" r="2"/></g></g></g></svg>