<svg version="1.0" viewBox="0 0 256 256" xmlns="http://www.w3.org/2000/svg"><g transform="translate(-464 -28)"><rect x="488" y="52" width="208" height="208" ry="8" fill="#767676"/><rect x="489" y="53" width="206" height="155" ry="7.5" fill="#ececec"/><circle cx="528" cy="232" r="16" fill="#73c48f"/><circle cx="592" cy="232" r="16" fill="#ff793e"/><circle cx="656" cy="232" r="16" fill="#67d8e6"/><g fill="#474341"><path d="m591.98 103.96-28 32 28 32zm-20 20c0-2.216-1.784-4-4-4s-4 1.784-4 4v24c0 2.216 1.784 4 4 4s4-1.784 4-4z"/><path d="m615.98 107.96-6.852 4.117c3.738 6.222 6.853 16.625 6.852 23.883 0 7.258-3.114 17.66-6.852 23.883l6.852 4.117c4.487-7.465 7.998-19.29 8-28-.002-8.71-3.513-20.535-8-28z"/><path d="m602.98 113.96-6.86 4.117c2.618 4.355 3.86 12.802 3.86 17.883 0 5.081-1.242 13.528-3.86 17.883l6.86 4.117c3.364-5.599 5-15.468 5-22s-1.636-16.401-5-22z"/></g></g></svg>