<svg version="1.0" viewBox="0 0 256 256" xmlns="http://www.w3.org/2000/svg"><g transform="translate(-464 -28)"><rect x="520" y="175" width="146" height="13" ry="5" fill="#565656"/><rect x="521" y="176" width="144" height="8" ry="4" fill="#acacac"/><rect x="557" y="44" width="72" height="184" ry="36" fill="#909090"/><rect x="558" y="51" width="70" height="176" ry="35" fill="#2e2e2e"/><path d="M537 166a5.01 5.01 0 0 0-5 5v25c0 33.678 27.322 61 61 61s61-27.322 61-61v-25c0-2.753-2.247-5-5-5s-5 2.247-5 5v20c0 28.178-22.822 51-51 51s-51-22.822-51-51v-20c0-2.753-2.247-5-5-5z" color="#000" fill="#444" style="font-feature-settings:normal;font-variant-alternates:normal;font-variant-caps:normal;font-variant-ligatures:normal;font-variant-numeric:normal;font-variant-position:normal;isolation:auto;mix-blend-mode:normal;shape-padding:0;text-decoration-color:#000;text-decoration-line:none;text-decoration-style:solid;text-indent:0;text-orientation:mixed;text-transform:none;white-space:normal"/><path d="M537 167c-2.216 0-4 1.784-4 4v20a60 60 0 0 0 60 60 60 60 0 0 0 60-60v-20c0-2.216-1.784-4-4-4s-4 1.784-4 4v20a52 52 0 0 1-52 52 52 52 0 0 1-52-52v-20c0-2.216-1.784-4-4-4z" fill="#888"/><rect x="587" y="250" width="12" height="26" ry="6" fill="#444"/><rect x="588" y="246" width="10" height="25" ry="5" fill="#888"/></g></svg>