<svg version="1.0" viewBox="0 0 256 256" xmlns="http://www.w3.org/2000/svg"><g transform="translate(-464 -28)"><rect x="332" y="164" width="88" height="112" ry="8" fill="#adadad" fill-opacity=".989"/><path d="M340 164c-4.432 0-8 3.568-8 8v96c0 4.432 3.568 8 8 8h72c4.432 0 8-3.568 8-8v-96c0-4.432-3.568-8-8-8zm0 1h72c3.878 0 7 3.122 7 7v27c0 3.878-3.122 7-7 7h-72c-3.878 0-7-3.122-7-7v-27c0-3.878 3.122-7 7-7z" fill-opacity=".502"/><g transform="translate(120 -11)"><path d="M256 221a29.937 29.937 0 0 0-15 4h-6.5a4.49 4.49 0 0 0-4.5 4.5v6.5c-2.54 4.409-4 9.526-4 15v2c0 5.474 1.46 10.591 4 15v6a4.49 4.49 0 0 0 4.5 4.5h5.658c4.593 2.851 10.016 4.5 15.842 4.5s11.25-1.649 15.842-4.5h5.658a4.49 4.49 0 0 0 4.5-4.5v-6c2.541-4.409 4-9.526 4-15v-2a29.933 29.933 0 0 0-4-15v-6.5a4.49 4.49 0 0 0-4.5-4.5H271a29.94 29.94 0 0 0-15-4z" fill="#565656"/><path d="M256 222a28.939 28.939 0 0 0-14.734 4H235c-2.216 0-4 1.784-4 4v6.266c-2.54 4.313-4 9.346-4 14.734s1.46 10.42 4 14.734v6.265c0 2.216 1.784 4 4 4h6.266c4.314 2.54 9.347 4 14.734 4s10.421-1.46 14.734-4H277c2.216 0 4-1.784 4-4v-6.265c2.54-4.314 4-9.347 4-14.734s-1.46-10.421-4-14.734V230c0-2.216-1.784-4-4-4h-6.266c-4.314-2.54-9.347-4-14.734-4z" fill="#acacac"/><circle cx="256" cy="251" r="25" fill="#333"/><circle cx="256" cy="251" r="21" fill="#faa41a"/><rect x="247" y="240" width="18" height="20" ry="9" fill="#845914"/><circle cx="256" cy="251" r="8" fill="#333"/><circle cx="277" cy="230" r="1" fill="#565656"/><circle cx="235" cy="230" r="1" fill="#565656"/><circle cx="235" cy="272" r="1" fill="#565656"/><circle cx="277" cy="272" r="1" fill="#565656"/></g><rect x="234" y="224" width="44" height="56" ry="4" fill="#adadad"/><path d="M238 224c-2.216 0-4 1.784-4 4v48c0 2.216 1.784 4 4 4h36c2.216 0 4-1.784 4-4v-48c0-2.216-1.784-4-4-4zm0 1h36c1.662 0 3 1.338 3 3v14c0 1.662-1.338 3-3 3h-36c-1.662 0-3-1.338-3-3v-14c0-1.662 1.338-3 3-3z" fill-opacity=".502"/><g transform="translate(140 -6)"><path d="M116 253c-2.732 0-5.283.734-7.484 2H105.5a2.495 2.495 0 0 0-2.5 2.5v3.016a14.958 14.958 0 0 0-2 7.484v1c0 2.732.734 5.283 2 7.484v3.579c0 1.073.864 1.937 1.938 1.937h3.603a14.9 14.9 0 0 0 14.918 0h3.603a1.933 1.933 0 0 0 1.938-1.938v-3.578c1.266-2.201 2-4.752 2-7.484v-1c0-2.732-.734-5.283-2-7.484V257.5c0-1.385-1.115-2.5-2.5-2.5h-3.016a14.958 14.958 0 0 0-7.484-2z" fill="#565656"/><path d="M116 254c-2.642 0-5.1.738-7.203 2H106c-1.108 0-2 .892-2 2v2.797c-1.262 2.104-2 4.561-2 7.203s.738 5.1 2 7.203V278c0 1.108.892 2 2 2h2.797c2.104 1.262 4.561 2 7.203 2s5.1-.738 7.203-2H126c1.108 0 2-.892 2-2v-2.797c1.262-2.104 2-4.561 2-7.203s-.738-5.1-2-7.203V258c0-1.108-.892-2-2-2h-2.797a13.95 13.95 0 0 0-7.203-2z" fill="#acacac"/><circle cx="116" cy="268" r="12" fill="#333"/><circle cx="116" cy="268" r="10" fill="#faa41a"/><rect x="111" y="262" width="10" height="11" ry="5" fill="#845914"/><circle cx="116" cy="268" r="4" fill="#333"/><circle cx="106" cy="258" r="1" fill="#565656"/><circle cx="126" cy="258" r="1" fill="#565656"/><circle cx="126" cy="278" r="1" fill="#565656"/><circle cx="106" cy="278" r="1" fill="#565656"/></g><rect x="164" y="239" width="32" height="42" ry="3" fill="#adadad"/><path d="M167 239c-1.662 0-3 1.338-3 3v36c0 1.662 1.338 3 3 3h26c1.662 0 3-1.338 3-3v-36c0-1.662-1.338-3-3-3zm0 1h26c1.108 0 2 .892 2 2v9c0 1.108-.892 2-2 2h-26c-1.108 0-2-.892-2-2v-9c0-1.108.892-2 2-2z" fill-opacity=".502"/><g transform="translate(112 -5)"><path d="M68 260a12 12 0 0 0-4.76 1H59.5a2.495 2.495 0 0 0-2.5 2.5v3.717A12 12 0 0 0 56 272a12 12 0 0 0 1 4.76v3.74c0 1.385 1.115 2.5 2.5 2.5h3.717A12 12 0 0 0 68 284a12 12 0 0 0 4.76-1h3.74c1.385 0 2.5-1.115 2.5-2.5v-3.717A12 12 0 0 0 80 272a12 12 0 0 0-1-4.76v-3.74c0-1.385-1.115-2.5-2.5-2.5h-3.717A12 12 0 0 0 68 260z" fill="#565656"/><path d="M68 261a11 11 0 0 0-4.549 1H60c-1.108 0-2 .892-2 2v3.445A11 11 0 0 0 57 272a11 11 0 0 0 1 4.549V280c0 1.108.892 2 2 2h3.445A11 11 0 0 0 68 283a11 11 0 0 0 4.549-1H76c1.108 0 2-.892 2-2v-3.445A11 11 0 0 0 79 272a11 11 0 0 0-1-4.549V264c0-1.108-.892-2-2-2h-3.445A11 11 0 0 0 68 261z" fill="#acacac"/><rect x="58" y="262" width="20" height="20" ry="10" fill="#333"/><rect x="59" y="263" width="18" height="18" ry="9" fill="#faa41a"/><rect x="64" y="268" width="8" height="8" ry="4" fill="#845914"/><circle cx="68" cy="272" r="3" fill="#333"/></g><rect x="105" y="254" width="22" height="28" ry="2" fill="#adadad"/><path d="M107 254c-1.108 0-2 .892-2 2v24c0 1.108.892 2 2 2h18c1.108 0 2-.892 2-2v-24c0-1.108-.892-2-2-2zm0 1h18c.554 0 1 .446 1 1v7c0 .554-.446 1-1 1h-18c-.554 0-1-.446-1-1v-7c0-.554.446-1 1-1z" fill-opacity=".502"/><g transform="translate(92 -3)"><path d="M24 268a8 8 0 0 0-3.853 1H18.5c-.831 0-1.5.669-1.5 1.5v1.629A8 8 0 0 0 16 276a8 8 0 0 0 1 3.853v1.647c0 .831.669 1.5 1.5 1.5h1.629A8 8 0 0 0 24 284a8 8 0 0 0 3.853-1H29.5c.831 0 1.5-.669 1.5-1.5v-1.629A8 8 0 0 0 32 276a8 8 0 0 0-1-3.853V270.5c0-.831-.669-1.5-1.5-1.5h-1.629A8 8 0 0 0 24 268z" fill="#565656"/><circle cx="24" cy="276" r="7" fill="#acacac"/><rect x="18" y="270" width="12" height="12" ry="1" fill="#acacac"/><circle cx="24" cy="276" r="6" fill="#333"/><circle cx="24" cy="276" r="5" fill="#faa41a"/><circle cx="24" cy="276" r="2" fill="#333"/></g><rect x="504" y="44" width="176" height="224" ry="16" fill="#adadad" fill-opacity=".989"/><path d="M520 44c-8.864 0-16 7.136-16 16v192c0 8.864 7.136 16 16 16h144c8.864 0 16-7.136 16-16V60c0-8.864-7.136-16-16-16zm0 1h144c8.31 0 15 6.69 15 15v54c0 8.31-6.69 15-15 15H520c-8.31 0-15-6.69-15-15V60c0-8.31 6.69-15 15-15z" fill-opacity=".5"/><g transform="translate(216 -23)"><path d="M376 160c-10.949 0-21.186 2.918-30.004 8H332.5a8.481 8.481 0 0 0-8.5 8.5v13.496c-5.082 8.818-8 19.055-8 30.004v3c0 10.949 2.918 21.186 8 30.004V266.5c0 4.709 3.791 8.5 8.5 8.5h13.496c8.818 5.082 19.055 8 30.004 8s21.186-2.918 30.004-8H419.5c4.709 0 8.5-3.791 8.5-8.5v-13.496c5.082-8.818 8-19.055 8-30.004v-3c0-10.949-2.918-21.186-8-30.004V176.5c0-4.709-3.791-8.5-8.5-8.5h-13.496c-8.818-5.082-19.055-8-30.004-8z" fill="#565656"/><path d="M376 161c-10.863 0-21.013 2.92-29.736 8H333c-4.432 0-8 3.568-8 8v13.264c-5.08 8.723-8 18.874-8 29.736s2.92 21.013 8 29.736V263c0 4.432 3.568 8 8 8h13.264c8.723 5.08 18.874 8 29.736 8s21.013-2.92 29.736-8H419c4.432 0 8-3.568 8-8v-13.264c5.08-8.723 8-18.874 8-29.736s-2.92-21.013-8-29.736V177c0-4.432-3.568-8-8-8h-13.264c-8.723-5.08-18.874-8-29.736-8z" fill="#acacac"/><rect x="325" y="169" width="102" height="102" ry="51" fill="#333"/><circle cx="376" cy="220" r="42" fill="#faa41a"/><rect x="359" y="200" width="34" height="37" ry="17" fill="#845914"/><circle cx="376" cy="220" r="16" fill="#333"/><g transform="translate(24 20)" fill="#565656"><circle cx="394" cy="158" r="2"/><circle cx="310" cy="158" r="2"/><circle cx="310" cy="242" r="2"/><circle cx="394" cy="242" r="2"/></g></g><rect x="58" y="260" width="20" height="24" ry="2" fill="#adadad"/><path d="M60 260c-1.108 0-2 .892-2 2v20c0 1.108.892 2 2 2h16c1.108 0 2-.892 2-2v-20c0-1.108-.892-2-2-2zm0 1h16c.554 0 1 .446 1 1v5c0 .554-.446 1-1 1H60c-.554 0-1-.446-1-1v-5c0-.554.446-1 1-1z" fill-opacity=".502"/><rect x="18" y="268" width="12" height="16" ry="2" fill="#adadad"/><path d="M20 268c-1.108 0-2 .892-2 2v12c0 1.108.892 2 2 2h8c1.108 0 2-.892 2-2v-12c0-1.108-.892-2-2-2zm0 1h8c.554 0 1 .446 1 1v3c0 .554-.446 1-1 1h-8c-.554 0-1-.446-1-1v-3c0-.554.446-1 1-1z" fill-opacity=".502"/><circle cx="24" cy="279" r="4" fill="#faa41a"/><rect x="23" y="278" width="2" height="2" ry="1" fill="#333"/><path d="M24 275c-2.216 0-4 1.784-4 4s1.784 4 4 4 4-1.784 4-4-1.784-4-4-4zm0 1c1.662 0 3 1.338 3 3s-1.338 3-3 3-3-1.338-3-3 1.338-3 3-3z" fill="#333"/><g transform="matrix(1.5 0 0 1.5 32 -142.5)"><circle cx="24" cy="279" r="4" fill="#faa41a"/><rect x="22.667" y="277.67" width="2.667" height="2.667" ry="1.333" fill="#333"/><path d="M24 275a4 4 0 0 0-4 4 4 4 0 0 0 4 4 4 4 0 0 0 4-4 4 4 0 0 0-4-4zm0 .668A3.333 3.333 0 0 1 27.335 279 3.333 3.333 0 0 1 24 282.334a3.333 3.333 0 0 1-3.334-3.333A3.333 3.333 0 0 1 24 275.668z" fill="#333"/></g></g></svg>