<svg version="1.0" viewBox="0 0 256 256" xmlns="http://www.w3.org/2000/svg"><g transform="translate(-464 -28)"><path d="M572 32c-2.216 0-4 1.784-4 4v8h-48c-8.864 0-16 7.136-16 16v192c0 8.864 7.136 16 16 16h144c8.864 0 16-7.136 16-16V60c0-8.864-7.136-16-16-16h-52v-8c0-2.216-1.784-4-4-4z" fill="#565656"/><rect x="505" y="103" width="174" height="34" ry="14" fill="#7f540d"/><rect x="570" y="34" width="40" height="25" ry="4" fill="#7e7e7e"/><rect x="505" y="45" width="174" height="87" ry="15.5" fill="#faa41a"/><rect x="505" y="138" width="174" height="125" ry="14" fill="#7e7e7e"/></g></svg>