<svg version="1.0" viewBox="0 0 256 256" xmlns="http://www.w3.org/2000/svg"><g transform="translate(-464 -28)"><rect x="472" y="36" width="240" height="244" ry="120" fill="#e6e6e6"/><g transform="matrix(8 0 0 8 -336 -1988)"><circle cx="116" cy="268" r="9" fill="#ac1800"/><circle transform="scale(1 -1)" cx="116" cy="-268" r="8" fill="#cf3b00"/><g fill="#fff"><path d="M118.738 265.17a4 4 0 0 0-5.656 0l2.828 2.828z" opacity=".2"/><path d="M118.738 265.17a4 4 0 0 1 0 5.656l-2.828-2.828z" opacity=".4"/><path d="M113.082 270.826a4 4 0 0 1 0-5.656l2.828 2.828z" opacity=".4"/><path d="M113.082 270.826a4 4 0 0 0 5.656 0l-2.828-2.828z" opacity=".6"/></g></g><path d="M592 36c-66.48 0-120 53.52-120 120v4c0 66.48 53.52 120 120 120s120-53.52 120-120v-4c0-66.48-53.52-120-120-120zm0 1c65.926 0 119 53.074 119 119s-53.074 119-119 119-119-53.074-119-119S526.074 37 592 37z" fill-opacity=".502"/></g></svg>