<svg version="1.0" viewBox="0 0 256 256" xmlns="http://www.w3.org/2000/svg"><g transform="translate(-464 -28)"><rect x="556" y="52" width="72" height="52" ry="16" fill="#6f6f6f"/><rect x="557" y="53" width="70" height="50" ry="15.5" fill="#acacac"/><rect x="564" y="60" width="56" height="18" ry="8.951" fill="#ffce51"/><rect x="480" y="84" width="224" height="176" ry="16" fill="#6f6f6f"/><path d="M496 85c-8.31 0-15 6.69-15 15v5h222v-5c0-8.31-6.69-15-15-15zm-15 152v3c0 8.31 6.69 15 15 15h192c8.31 0 15-6.69 15-15v-3z" fill="#ececec"/><rect x="481" y="105" width="222" height="132" ry="0" fill="#424242"/><circle cx="592" cy="171" r="56" fill="#ececec"/><circle cx="592" cy="171" r="48" fill="#48b9c7"/><circle cx="592" cy="171" r="32" fill="#fff" fill-opacity=".251"/><path d="M614.63 193.63a32 32 0 0 1-45.255 0 32 32 0 0 1 0-45.255l22.627 22.627z" fill="#fff" fill-opacity=".251"/><path d="M614.63 148.37a32 32 0 0 1 8.282 30.91 32 32 0 0 1-22.627 22.627 32 32 0 0 1-30.91-8.282l22.627-22.627z" fill="#fff" fill-opacity=".251"/></g></svg>