<svg version="1.0" viewBox="0 0 256 256" xmlns="http://www.w3.org/2000/svg"><g transform="translate(-464 1172)"><rect x="488" y="-1116" width="208" height="145" ry="8" fill="#bfbfbf"/><rect x="494" y="-1110" width="196" height="129" ry="2" fill="#222"/><path d="M496-1116c-4.432 0-8 3.568-8 8v129c0 4.432 3.568 8 8 8h192c4.432 0 8-3.568 8-8v-129c0-4.432-3.568-8-8-8zm0 1h192c3.878 0 7 3.122 7 7v125c0 3.878-3.122 7-7 7H496c-3.878 0-7-3.122-7-7v-125c0-3.878 3.122-7 7-7z" fill-opacity=".502"/><rect x="480" y="-972" width="224" height="32" ry="8" fill="#bfbfbf"/><path d="M488-972c-4.432 0-8 3.568-8 8v16c0 4.432 3.568 8 8 8h208c4.432 0 8-3.568 8-8v-16c0-4.432-3.568-8-8-8zm0 1h208c3.878 0 7 3.122 7 7v12c0 3.878-3.122 7-7 7H488c-3.878 0-7-3.122-7-7v-12c0-3.878 3.122-7 7-7z" fill-opacity=".502"/></g></svg>