<svg version="1.0" viewBox="0 0 256 256" xmlns="http://www.w3.org/2000/svg"><g transform="translate(-464 412)"><rect x="503" y="-397" width="178" height="230" ry="8.5" fill="#565656"/><rect x="504" y="-396" width="176" height="224" ry="8" fill="#acacac"/></g><g transform="matrix(8 0 0 8 -800 5200)" fill="#444"><path d="M115-642h2v14h-2z"/><circle cx="116" cy="-629" r="2"/><path d="M113-640h6l-3-4z"/><path d="M111-634h10v2h-10z"/><path d="M110-637h2v4h-2z"/><path d="M120-637h2v4h-2z"/><rect x="119" y="-639" width="4" height="4" ry="1"/><rect x="109" y="-639" width="4" height="4" ry="2"/><rect x="110" y="-634" width="2" height="2" ry="1"/><rect x="120" y="-634" width="2" height="2" ry="1"/></g></svg>