<svg version="1.0" viewBox="0 0 256 256" xmlns="http://www.w3.org/2000/svg"><g transform="translate(-464 412)"><rect x="503" y="-397" width="178" height="230" ry="8.5" fill="#565656"/><rect x="504" y="-396" width="176" height="224" ry="8" fill="#acacac"/></g><g fill="#444"><path d="M128 80a24 24 0 0 0-24 24 24 24 0 0 0 24 24 24 24 0 0 0 24-24 24 24 0 0 0-24-24zm0 8a16 16 0 0 1 16 16 16 16 0 0 1-16 16 16 16 0 0 1-16-16 16 16 0 0 1 16-16z"/><path d="M112 144h32v8h-32z"/><path d="M112 160h32v8h-32z"/><path d="m168 49.41 22.628 22.627-22.627 22.627-22.628-22.627z"/><path d="M111.788 65.167 89.161 87.794l-5.657-5.657L106.13 59.51z"/><path d="M100.474 53.853 77.847 76.48l-5.657-5.656 22.628-22.628z"/></g></svg>