<svg version="1.0" viewBox="0 0 256 256" xmlns="http://www.w3.org/2000/svg"><g transform="translate(-464 -28)"><rect x="504" y="44" width="176" height="224" ry="16" fill="#98989d"/><path d="M520 44c-8.864 0-16 7.136-16 16v24h176V60c0-8.864-7.136-16-16-16z" fill="#bcbcc0"/><circle cx="526" cy="66" r="10" fill="#ffca40"/><path d="M542 126c65.084-50.419 98.193 29.85 48 36-61.315 7.512-38 80-4 48s64 16 64 16" fill="none" stroke="#000" stroke-width="16"/><path d="M520 44c-8.864 0-16 7.136-16 16v192c0 8.864 7.136 16 16 16h144c8.864 0 16-7.136 16-16V60c0-8.864-7.136-16-16-16zm0 1h144c8.31 0 15 6.69 15 15v188c0 8.31-6.69 15-15 15H520c-8.31 0-15-6.69-15-15V60c0-8.31 6.69-15 15-15z" fill-opacity=".5"/></g></svg>