<svg version="1.0" viewBox="0 0 256 256" xmlns="http://www.w3.org/2000/svg"><g transform="translate(-464 -28)"><rect x="480" y="84" width="224" height="176" ry="16" fill="#7b736e"/><path d="M496 84c-8.864 0-16 7.136-16 16v144c0 8.864 7.136 16 16 16h192c8.864 0 16-7.136 16-16V100c0-8.864-7.136-16-16-16zm0 1h192c8.31 0 15 6.69 15 15v140c0 8.31-6.69 15-15 15H496c-8.31 0-15-6.69-15-15V100c0-8.31 6.69-15 15-15z" fill-opacity=".5"/><rect x="500" y="111" width="24" height="24" ry="6" fill-opacity=".5"/><rect x="660" y="111" width="24" height="24" ry="6" fill-opacity=".5"/><rect x="500" y="110" width="24" height="24" ry="6" fill="#f6f6f6"/><rect x="564" y="111" width="24" height="24" ry="6" fill-opacity=".5"/><rect x="660" y="110" width="24" height="24" ry="6" fill="#f6f6f6"/><rect x="532" y="111" width="24" height="24" ry="6" fill-opacity=".5"/><rect x="564" y="110" width="24" height="24" ry="6" fill="#f6f6f6"/><rect x="628" y="111" width="24" height="24" ry="6" fill-opacity=".5"/><rect x="532" y="110" width="24" height="24" ry="6" fill="#f6f6f6"/><rect x="596" y="111" width="24" height="24" ry="6" fill-opacity=".5"/><rect x="628" y="110" width="24" height="24" ry="6" fill="#f6f6f6"/><rect x="500" y="143" width="24" height="24" ry="6" fill-opacity=".5"/><rect x="596" y="110" width="24" height="24" ry="6" fill="#f6f6f6"/><rect x="660" y="143" width="24" height="24" ry="6" fill-opacity=".5"/><rect x="500" y="142" width="24" height="24" ry="6" fill="#f6f6f6"/><rect x="564" y="143" width="24" height="24" ry="6" fill-opacity=".5"/><rect x="660" y="142" width="24" height="24" ry="6" fill="#f6f6f6"/><rect x="532" y="143" width="24" height="24" ry="6" fill-opacity=".5"/><rect x="564" y="142" width="24" height="24" ry="6" fill="#f6f6f6"/><rect x="628" y="143" width="24" height="24" ry="6" fill-opacity=".5"/><rect x="532" y="142" width="24" height="24" ry="6" fill="#f6f6f6"/><rect x="596" y="143" width="24" height="24" ry="6" fill-opacity=".5"/><rect x="628" y="142" width="24" height="24" ry="6" fill="#f6f6f6"/><rect x="500" y="175" width="24" height="24" ry="6" fill-opacity=".5"/><rect x="596" y="142" width="24" height="24" ry="6" fill="#f6f6f6"/><rect x="660" y="175" width="24" height="24" ry="6" fill-opacity=".5"/><rect x="500" y="174" width="24" height="24" ry="6" fill="#f6f6f6"/><rect x="564" y="175" width="24" height="24" ry="6" fill-opacity=".5"/><rect x="660" y="174" width="24" height="24" ry="6" fill="#f6f6f6"/><rect x="532" y="175" width="24" height="24" ry="6" fill-opacity=".5"/><rect x="564" y="174" width="24" height="24" ry="6" fill="#f6f6f6"/><rect x="628" y="175" width="24" height="24" ry="6" fill-opacity=".5"/><rect x="532" y="174" width="24" height="24" ry="6" fill="#f6f6f6"/><rect x="596" y="175" width="24" height="24" ry="6" fill-opacity=".5"/><rect x="628" y="174" width="24" height="24" ry="6" fill="#f6f6f6"/><rect x="536" y="207" width="112" height="24" ry="6" fill-opacity=".5"/><rect x="596" y="174" width="24" height="24" ry="6" fill="#f6f6f6"/><rect x="536" y="206" width="112" height="24" ry="6" fill="#f6f6f6"/></g></svg>