<svg version="1.0" viewBox="0 0 256 256" xmlns="http://www.w3.org/2000/svg"><g transform="translate(-464 -28)"><rect x="480" y="84" width="224" height="176" ry="16" fill="#aaa"/><path d="M480 196v48c0 8.864 7.136 16 16 16h192c8.864 0 16-7.136 16-16v-48H496z" fill="#dedede"/><path d="M592 196v64" fill="none" opacity=".5" stroke="#000" stroke-width="2"/><path d="M496 84c-8.864 0-16 7.136-16 16v144c0 8.864 7.136 16 16 16h192c8.864 0 16-7.136 16-16V100c0-8.864-7.136-16-16-16zm0 1h192c8.31 0 15 6.69 15 15v140c0 8.31-6.69 15-15 15H496c-8.31 0-15-6.69-15-15V100c0-8.31 6.69-15 15-15z" fill-opacity=".502"/></g></svg>