<svg version="1.0" viewBox="0 0 256 256" xmlns="http://www.w3.org/2000/svg"><g transform="translate(-464 -28)"><rect x="480" y="84" width="54" height="184" ry="26" fill="#4f4b49"/><rect x="650" y="84" width="54" height="186" ry="27" fill="#4f4b49"/><rect x="480" y="84" width="224" height="120" ry="26" fill="#4f4b49"/><rect x="482" y="86" width="50" height="174" ry="25" fill="#9f9792"/><rect x="652" y="88" width="50" height="174" ry="25" fill="#9f9792"/><rect x="482" y="86" width="220" height="110" ry="25" fill="#9f9792"/><g fill="#4f4b49" transform="matrix(2 0 0 2 -160 -284)"><rect x="335" y="195" width="10" height="31" ry="0"/><path d="M325 205h30v11h-30z"/></g><g transform="matrix(6 0 0 6 -430 -1396)" fill="#fff"><rect x="157" y="250.67" width="2.667" height="9.333" ry="0"/><rect transform="rotate(90)" x="254" y="-163" width="2.667" height="9.333" ry="0"/></g><g transform="matrix(4 0 0 4 -444 -852)"><rect x="267" y="245" width="5" height="5.5" ry="2.5" fill="#4a537f"/><circle cx="269.5" cy="247.5" r="2" fill="#94a6ff"/><rect x="279" y="245" width="5" height="5.5" ry="2.5" fill="#7f3c1f"/><circle cx="281.5" cy="247.5" r="2" fill="#ff793e"/><rect x="273" y="239" width="5" height="5.5" ry="2.5" fill="#7f6728"/><circle transform="rotate(90)" cx="241.5" cy="-275.5" r="2" fill="#ffce51"/><rect x="273" y="251" width="5" height="5.5" ry="2.5" fill="#396247"/><circle transform="rotate(90)" cx="253.5" cy="-275.5" r="2" fill="#73c48f"/></g><g transform="matrix(2 0 0 2 -160 -284)"><rect x="365" y="207" width="16" height="9" ry="4" fill="#4f4b49"/><rect x="366" y="208" width="14" height="6" ry="3" fill="#fff"/></g></g></svg>