<svg version="1.0" viewBox="0 0 256 256" xmlns="http://www.w3.org/2000/svg"><g transform="translate(-464 -28)"><rect x="524" y="36" width="136" height="240" ry="68" fill="#98989d"/><path d="M592 36c-37.672 0-68 30.328-68 68v104c0 37.672 30.328 68 68 68s68-30.328 68-68V104c0-37.672-30.328-68-68-68zm0 1c37.118 0 67 29.882 67 67v95c0 37.118-29.882 67-67 67s-67-29.882-67-67v-95c0-37.118 29.882-67 67-67z" fill-opacity=".502"/><path d="M592 36v240c37.672 0 68-30.328 68-68V104c0-37.672-30.328-68-68-68z" fill="#fff" fill-opacity=".2"/><rect x="583" y="64" width="18" height="65" ry="9" fill="#fff" fill-opacity=".4"/><rect x="584" y="68" width="16" height="60" ry="8" fill="#343434"/></g></svg>