<svg version="1.0" viewBox="0 0 256 256" xmlns="http://www.w3.org/2000/svg"><g transform="translate(-464 -28)"><rect x="234" y="224" width="44" height="56" ry="4" fill="#98989d"/><path d="M238 224c-2.216 0-4 1.784-4 4v6h44v-6c0-2.216-1.784-4-4-4z" fill="#bcbcc0"/><path d="M238 224c-2.216 0-4 1.784-4 4v48c0 2.216 1.784 4 4 4h36c2.216 0 4-1.784 4-4v-48c0-2.216-1.784-4-4-4zm0 1h36c1.662 0 3 1.338 3 3v46c0 1.662-1.338 3-3 3h-36c-1.662 0-3-1.338-3-3v-46c0-1.662 1.338-3 3-3z" fill-opacity=".5"/><circle cx="239.5" cy="229.5" r="2.5" fill="#ffca40"/><path d="M243.5 244.5c16.271-12.605 24.548 7.463 12 9-15.329 1.878-9.5 20-1 12s16 4 16 4" fill="none" stroke="#000" stroke-width="4"/><rect x="105" y="254" width="22" height="28" ry="2" fill="#98989d"/><path d="M107 254c-1.108 0-2 .892-2 2v3h22v-3c0-1.108-.892-2-2-2z" fill="#bcbcc0"/><circle cx="108" cy="257" r="1" fill="#ffca40"/><path d="M109.75 264.25c8.136-6.302 12.274 3.731 6 4.5-7.664.939-4.75 10-.5 6s8 2 8 2" fill="none" stroke="#000" stroke-width="2"/><rect x="18" y="269" width="12" height="14" ry="1" fill="#98989d"/><path d="M19 269c-.554 0-1 .446-1 1v2h12v-2c0-.554-.446-1-1-1z" fill="#bcbcc0"/><circle cx="20.5" cy="271" r=".625" fill="#ffca40"/><path d="M20.375 274.12c4.068-3.151 6.137 1.866 3 2.25-3.832.47-2.375 5-.25 3s4 1 4 1" fill="none" stroke="#000"/><rect x="164" y="239" width="33" height="42" ry="3" fill="#98989d"/><path d="M167 239c-1.662 0-3 1.338-3 3v5h33v-5c0-1.662-1.338-3-3-3z" fill="#bcbcc0"/><circle cx="168" cy="243" r="1.875" fill="#ffca40"/><path d="M171.12 254.38c12.203-9.454 18.411 5.597 9 6.75-11.497 1.409-7.125 15-.75 9s12 3 12 3" fill="none" stroke="#000" stroke-width="3"/><rect x="59" y="261" width="18" height="22" ry="1.5" fill="#98989d"/><path d="M60.5 261c-.831 0-1.5.669-1.5 1.5v2.5h18v-2.5c0-.831-.669-1.5-1.5-1.5z" fill="#bcbcc0"/><circle cx="61.5" cy="263.5" r="1" fill="#ffca40"/><path d="M62.812 268.69c6.102-4.727 9.206 2.799 4.5 3.375-5.748.704-3.563 7.5-.375 4.5s6 1.5 6 1.5" fill="none" stroke="#000" stroke-width="1.5"/><rect x="332" y="164" width="88" height="112" ry="8" fill="#98989d"/><path d="M340 164c-4.432 0-8 3.568-8 8v12h88v-12c0-4.432-3.568-8-8-8z" fill="#bcbcc0"/><circle cx="343" cy="175" r="5" fill="#ffca40"/><path d="M351 205c32.542-25.209 49.097 14.925 24 18-30.658 3.756-19 40-2 24s32 8 32 8" fill="none" stroke="#000" stroke-width="8"/><rect x="504" y="44" width="176" height="224" ry="16" fill="#98989d"/><path d="M520 44c-8.864 0-16 7.136-16 16v24h176V60c0-8.864-7.136-16-16-16z" fill="#bcbcc0"/><circle cx="526" cy="66" r="10" fill="#ffca40"/><path d="M542 126c65.084-50.419 98.193 29.85 48 36-61.315 7.512-38 80-4 48s64 16 64 16" fill="none" stroke="#000" stroke-width="16"/><path d="M340 164c-4.432 0-8 3.568-8 8v96c0 4.432 3.568 8 8 8h72c4.432 0 8-3.568 8-8v-96c0-4.432-3.568-8-8-8zm0 1h72c3.878 0 7 3.122 7 7v93c0 3.878-3.122 7-7 7h-72c-3.878 0-7-3.122-7-7v-93c0-3.878 3.122-7 7-7z" fill-opacity=".5"/><path d="M167 239c-1.662 0-3 1.338-3 3v36c0 1.662 1.338 3 3 3h27c1.662 0 3-1.338 3-3v-36c0-1.662-1.338-3-3-3zm0 1h27c1.108 0 2 .892 2 2v34c0 1.108-.892 2-2 2h-27c-1.108 0-2-.892-2-2v-34c0-1.108.892-2 2-2z" fill-opacity=".5"/><path d="M107 254c-1.108 0-2 .892-2 2v24c0 1.108.892 2 2 2h18c1.108 0 2-.892 2-2v-24c0-1.108-.892-2-2-2zm0 1h18c.554 0 1 .446 1 1v23c0 .554-.446 1-1 1h-18c-.554 0-1-.446-1-1v-23c0-.554.446-1 1-1z" fill-opacity=".5"/><path d="M60.5 261c-.831 0-1.5.669-1.5 1.5v19c0 .831.669 1.5 1.5 1.5h15c.831 0 1.5-.669 1.5-1.5v-19c0-.831-.669-1.5-1.5-1.5zm0 1h15c.277 0 .5.223.5.5v19c0 .277-.223.5-.5.5h-15a.499.499 0 0 1-.5-.5v-19c0-.277.223-.5.5-.5z" fill-opacity=".5"/><path d="M19 269c-.554 0-1 .446-1 1v12c0 .554.446 1 1 1h10c.554 0 1-.446 1-1v-12c0-.554-.446-1-1-1zm0 1h10v12H19z" fill-opacity=".5"/><path d="M520 44c-8.864 0-16 7.136-16 16v192c0 8.864 7.136 16 16 16h144c8.864 0 16-7.136 16-16V60c0-8.864-7.136-16-16-16zm0 1h144c8.31 0 15 6.69 15 15v188c0 8.31-6.69 15-15 15H520c-8.31 0-15-6.69-15-15V60c0-8.31 6.69-15 15-15z" fill-opacity=".5"/></g></svg>