<svg version="1.0" viewBox="0 0 256 256" xmlns="http://www.w3.org/2000/svg"><g transform="translate(-464 -28)"><rect x="472" y="36" width="240" height="244" ry="120" fill="#cdcdcd"/><path d="M592 36c-66.48 0-120 53.52-120 120v4c0 66.48 53.52 120 120 120s120-53.52 120-120v-4c0-66.48-53.52-120-120-120zm0 1c65.926 0 119 53.074 119 119s-53.074 119-119 119-119-53.074-119-119S526.074 37 592 37z" fill-opacity=".5"/><circle cx="592" cy="156" r="40.5" fill="none" stroke="#000" stroke-linecap="square" stroke-opacity=".5"/><circle cx="592" cy="156" r="40" fill-opacity=".2"/><circle cx="592" cy="156" r="16" fill-opacity=".8"/></g></svg>