<svg version="1.0" viewBox="0 0 256 256" xmlns="http://www.w3.org/2000/svg"><path d="M40 24c-8.864 0-16 7.136-16 16v160l32 32h176V40c0-8.864-7.136-16-16-16z" fill="#4d4d4d"/><path opacity=".2" d="M100 152h108v72H100z"/><path d="M68 152v79.999h112V152zm31.998 8.001h32v64h-32z" fill="#ececec"/><path d="M48 24v96c0 16.001 16 16 16 16h128s16 .001 16-16V24z" fill="#333"/><path fill-opacity=".502" d="M68 224h112v8H68z"/><path d="M40 24c-8.864 0-16 7.136-16 16v160l32 32h176V40c0-8.864-7.136-16-16-16zm0 2h176c7.756 0 14 6.244 14 14v184H58l-32-32V40c0-7.756 6.244-14 14-14z" fill="#fff" fill-opacity=".502"/></svg>