<svg version="1.0" viewBox="0 0 256 256" xmlns="http://www.w3.org/2000/svg"><g transform="translate(-464 -28)"><rect x="504" y="44" width="176" height="224" ry="16" fill="#545454"/><rect x="524" y="64" width="136" height="92" ry="4" fill="#222"/><path d="M576.13 88.707a4 4 0 0 0-3.984 3.766h-.008v.101c-.004.045-.004.089-.008.133a3.75 3.75 0 0 0 .008.281l-.008 34.305a4 4 0 0 0 4 4 4 4 0 0 0 1.687-.383l.008.008.102-.054.016-.008a4 4 0 0 0 .351-.196l31.383-17.086.04-.016v-.008a4 4 0 0 0 2.149-3.539 4.001 4.001 0 0 0-2.016-3.468l-.07-.04c-.004-.003-.012-.005-.016-.009l-31.695-17.288h-.008a4.04 4.04 0 0 0-1.93-.499z" fill="#ededed" fill-opacity=".8"/><rect x="540" y="164" width="32" height="34" ry="16" fill="#222"/><rect x="612" y="164" width="32" height="34" ry="16" fill="#222"/><rect x="612" y="212" width="32" height="34" ry="16" fill="#222"/><path d="M556 164c-8.864 0-16 7.136-16 16v2c0 8.864 7.136 16 16 16s16-7.136 16-16v-2c0-8.864-7.136-16-16-16zm0 4c7.756 0 14 6.244 14 14s-6.244 14-14 14-14-6.244-14-14 6.244-14 14-14z" fill="#fff" fill-opacity=".502"/><rect x="540" y="212" width="32" height="34" ry="16" fill="#222"/><path d="M628 164c-8.864 0-16 7.136-16 16v2c0 8.864 7.136 16 16 16s16-7.136 16-16v-2c0-8.864-7.136-16-16-16zm0 4c7.756 0 14 6.244 14 14s-6.244 14-14 14-14-6.244-14-14 6.244-14 14-14z" fill="#fff" fill-opacity=".502"/><path d="M628 212c-8.864 0-16 7.136-16 16v2c0 8.864 7.136 16 16 16s16-7.136 16-16v-2c0-8.864-7.136-16-16-16zm0 4c7.756 0 14 6.244 14 14s-6.244 14-14 14-14-6.244-14-14 6.244-14 14-14z" fill="#fff" fill-opacity=".502"/><path d="M556 212c-8.864 0-16 7.136-16 16v2c0 8.864 7.136 16 16 16s16-7.136 16-16v-2c0-8.864-7.136-16-16-16zm0 4c7.756 0 14 6.244 14 14s-6.244 14-14 14-14-6.244-14-14 6.244-14 14-14z" fill="#fff" fill-opacity=".502"/><path d="M520 44c-8.864 0-16 7.136-16 16v192c0 8.864 7.136 16 16 16h144c8.864 0 16-7.136 16-16V60c0-8.864-7.136-16-16-16zm0 1h144c8.31 0 15 6.69 15 15v188c0 8.31-6.69 15-15 15H520c-8.31 0-15-6.69-15-15V60c0-8.31 6.69-15 15-15z" fill="#fff" fill-opacity=".502"/></g></svg>