<svg version="1.0" viewBox="0 0 256 256" xmlns="http://www.w3.org/2000/svg"><g transform="translate(-464 1772)"><rect x="488" y="-1748" width="208" height="208" ry="16" fill="#cf3b00"/><path d="M500-1744c-2.216 0-4 1.784-4 4v24c0 2.216 1.784 4 4 4h40c2.216 0 4-1.784 4-4v-24c0-2.216-1.784-4-4-4zm0 6h40c1.108 0 2 .892 2 2v20c0 1.108-.892 2-2 2h-40c-1.108 0-2-.892-2-2v-20c0-1.108.892-2 2-2z" fill="#fff" fill-opacity=".5"/><path d="M548-1744c-2.216 0-4 1.784-4 4v24c0 2.216 1.784 4 4 4h40c2.216 0 4-1.784 4-4v-24c0-2.216-1.784-4-4-4zm0 6h40c1.108 0 2 .892 2 2v20c0 1.108-.892 2-2 2h-40c-1.108 0-2-.892-2-2v-20c0-1.108.892-2 2-2z" fill="#fff" fill-opacity=".5"/><path d="M596-1744c-2.216 0-4 1.784-4 4v24c0 2.216 1.784 4 4 4h40c2.216 0 4-1.784 4-4v-24c0-2.216-1.784-4-4-4zm0 6h40c1.108 0 2 .892 2 2v20c0 1.108-.892 2-2 2h-40c-1.108 0-2-.892-2-2v-20c0-1.108.892-2 2-2z" fill="#fff" fill-opacity=".5"/><path d="M644-1744c-2.216 0-4 1.784-4 4v24c0 2.216 1.784 4 4 4h40c2.216 0 4-1.784 4-4v-24c0-2.216-1.784-4-4-4zm0 6h40c1.108 0 2 .892 2 2v20c0 1.108-.892 2-2 2h-40c-1.108 0-2-.892-2-2v-20c0-1.108.892-2 2-2z" fill="#fff" fill-opacity=".5"/><path d="M524-1712c-2.216 0-4 1.784-4 4v24c0 2.216 1.784 4 4 4h40c2.216 0 4-1.784 4-4v-24c0-2.216-1.784-4-4-4zm0 6h40c1.108 0 2 .892 2 2v20c0 1.108-.892 2-2 2h-40c-1.108 0-2-.892-2-2v-20c0-1.108.892-2 2-2z" fill="#fff" fill-opacity=".5"/><path d="M572-1712c-2.216 0-4 1.784-4 4v24c0 2.216 1.784 4 4 4h40c2.216 0 4-1.784 4-4v-24c0-2.216-1.784-4-4-4zm0 6h40c1.108 0 2 .892 2 2v20c0 1.108-.892 2-2 2h-40c-1.108 0-2-.892-2-2v-20c0-1.108.892-2 2-2z" fill="#fff" fill-opacity=".5"/><path d="M620-1712c-2.216 0-4 1.784-4 4v24c0 2.216 1.784 4 4 4h40c2.216 0 4-1.784 4-4v-24c0-2.216-1.784-4-4-4zm0 6h40c1.108 0 2 .892 2 2v20c0 1.108-.892 2-2 2h-40c-1.108 0-2-.892-2-2v-20c0-1.108.892-2 2-2z" fill="#fff" fill-opacity=".5"/><g fill="#fff" fill-opacity=".5"><path d="M500-1680c-2.216 0-4 1.784-4 4v24c0 2.216 1.784 4 4 4h40c2.216 0 4-1.784 4-4v-24c0-2.216-1.784-4-4-4zm0 6h40c1.108 0 2 .892 2 2v20c0 1.108-.892 2-2 2h-40c-1.108 0-2-.892-2-2v-20c0-1.108.892-2 2-2z"/><path d="M548-1680c-2.216 0-4 1.784-4 4v24c0 2.216 1.784 4 4 4h40c2.216 0 4-1.784 4-4v-24c0-2.216-1.784-4-4-4zm0 6h40c1.108 0 2 .892 2 2v20c0 1.108-.892 2-2 2h-40c-1.108 0-2-.892-2-2v-20c0-1.108.892-2 2-2z"/><path d="M596-1680c-2.216 0-4 1.784-4 4v24c0 2.216 1.784 4 4 4h40c2.216 0 4-1.784 4-4v-24c0-2.216-1.784-4-4-4zm0 6h40c1.108 0 2 .892 2 2v20c0 1.108-.892 2-2 2h-40c-1.108 0-2-.892-2-2v-20c0-1.108.892-2 2-2z"/><path d="M644-1680c-2.216 0-4 1.784-4 4v24c0 2.216 1.784 4 4 4h40c2.216 0 4-1.784 4-4v-24c0-2.216-1.784-4-4-4zm0 6h40c1.108 0 2 .892 2 2v20c0 1.108-.892 2-2 2h-40c-1.108 0-2-.892-2-2v-20c0-1.108.892-2 2-2z"/><path d="M524-1648c-2.216 0-4 1.784-4 4v24c0 2.216 1.784 4 4 4h40c2.216 0 4-1.784 4-4v-24c0-2.216-1.784-4-4-4zm0 6h40c1.108 0 2 .892 2 2v20c0 1.108-.892 2-2 2h-40c-1.108 0-2-.892-2-2v-20c0-1.108.892-2 2-2z"/><path d="M572-1648c-2.216 0-4 1.784-4 4v24c0 2.216 1.784 4 4 4h40c2.216 0 4-1.784 4-4v-24c0-2.216-1.784-4-4-4zm0 6h40c1.108 0 2 .892 2 2v20c0 1.108-.892 2-2 2h-40c-1.108 0-2-.892-2-2v-20c0-1.108.892-2 2-2z"/><path d="M620-1648c-2.216 0-4 1.784-4 4v24c0 2.216 1.784 4 4 4h40c2.216 0 4-1.784 4-4v-24c0-2.216-1.784-4-4-4zm0 6h40c1.108 0 2 .892 2 2v20c0 1.108-.892 2-2 2h-40c-1.108 0-2-.892-2-2v-20c0-1.108.892-2 2-2z"/></g><g fill="#fff" fill-opacity=".5"><path d="M500-1616c-2.216 0-4 1.784-4 4v24c0 2.216 1.784 4 4 4h40c2.216 0 4-1.784 4-4v-24c0-2.216-1.784-4-4-4zm0 6h40c1.108 0 2 .892 2 2v20c0 1.108-.892 2-2 2h-40c-1.108 0-2-.892-2-2v-20c0-1.108.892-2 2-2z"/><path d="M548-1616c-2.216 0-4 1.784-4 4v24c0 2.216 1.784 4 4 4h40c2.216 0 4-1.784 4-4v-24c0-2.216-1.784-4-4-4zm0 6h40c1.108 0 2 .892 2 2v20c0 1.108-.892 2-2 2h-40c-1.108 0-2-.892-2-2v-20c0-1.108.892-2 2-2z"/><path d="M596-1616c-2.216 0-4 1.784-4 4v24c0 2.216 1.784 4 4 4h40c2.216 0 4-1.784 4-4v-24c0-2.216-1.784-4-4-4zm0 6h40c1.108 0 2 .892 2 2v20c0 1.108-.892 2-2 2h-40c-1.108 0-2-.892-2-2v-20c0-1.108.892-2 2-2z"/><path d="M644-1616c-2.216 0-4 1.784-4 4v24c0 2.216 1.784 4 4 4h40c2.216 0 4-1.784 4-4v-24c0-2.216-1.784-4-4-4zm0 6h40c1.108 0 2 .892 2 2v20c0 1.108-.892 2-2 2h-40c-1.108 0-2-.892-2-2v-20c0-1.108.892-2 2-2z"/><path d="M524-1584c-2.216 0-4 1.784-4 4v24c0 2.216 1.784 4 4 4h40c2.216 0 4-1.784 4-4v-24c0-2.216-1.784-4-4-4zm0 6h40c1.108 0 2 .892 2 2v20c0 1.108-.892 2-2 2h-40c-1.108 0-2-.892-2-2v-20c0-1.108.892-2 2-2z"/><path d="M572-1584c-2.216 0-4 1.784-4 4v24c0 2.216 1.784 4 4 4h40c2.216 0 4-1.784 4-4v-24c0-2.216-1.784-4-4-4zm0 6h40c1.108 0 2 .892 2 2v20c0 1.108-.892 2-2 2h-40c-1.108 0-2-.892-2-2v-20c0-1.108.892-2 2-2z"/><path d="M620-1584c-2.216 0-4 1.784-4 4v24c0 2.216 1.784 4 4 4h40c2.216 0 4-1.784 4-4v-24c0-2.216-1.784-4-4-4zm0 6h40c1.108 0 2 .892 2 2v20c0 1.108-.892 2-2 2h-40c-1.108 0-2-.892-2-2v-20c0-1.108.892-2 2-2z"/></g><path d="M494-1712c-2.216 0-4 1.784-4 4v24c0 2.216 1.784 4 4 4h22c2.216 0 4-1.784 4-4v-24c0-2.216-1.784-4-4-4zm0 6h22c1.108 0 2 .892 2 2v20c0 1.108-.892 2-2 2h-22c-1.108 0-2-.892-2-2v-20c0-1.108.892-2 2-2z" fill="#fff" fill-opacity=".5"/><path d="M668-1712c-2.216 0-4 1.784-4 4v24c0 2.216 1.784 4 4 4h22c2.216 0 4-1.784 4-4v-24c0-2.216-1.784-4-4-4zm0 6h22c1.108 0 2 .892 2 2v20c0 1.108-.892 2-2 2h-22c-1.108 0-2-.892-2-2v-20c0-1.108.892-2 2-2z" fill="#fff" fill-opacity=".5"/><path d="M668-1648c-2.216 0-4 1.784-4 4v24c0 2.216 1.784 4 4 4h22c2.216 0 4-1.784 4-4v-24c0-2.216-1.784-4-4-4zm0 6h22c1.108 0 2 .892 2 2v20c0 1.108-.892 2-2 2h-22c-1.108 0-2-.892-2-2v-20c0-1.108.892-2 2-2z" fill="#fff" fill-opacity=".5"/><path d="M494-1648c-2.216 0-4 1.784-4 4v24c0 2.216 1.784 4 4 4h22c2.216 0 4-1.784 4-4v-24c0-2.216-1.784-4-4-4zm0 6h22c1.108 0 2 .892 2 2v20c0 1.108-.892 2-2 2h-22c-1.108 0-2-.892-2-2v-20c0-1.108.892-2 2-2z" fill="#fff" fill-opacity=".5"/><path d="M504-1748c-8.864 0-16 7.136-16 16v176c0 8.864 7.136 16 16 16h176c8.864 0 16-7.136 16-16v-176c0-8.864-7.136-16-16-16zm0 1h176c8.31 0 15 6.69 15 15v172c0 8.31-6.69 15-15 15H504c-8.31 0-15-6.69-15-15v-172c0-8.31 6.69-15 15-15z" fill-opacity=".5"/><path d="M494-1584c-2.216 0-4 1.784-4 4v24c0 2.216 1.784 4 4 4h22c2.216 0 4-1.784 4-4v-24c0-2.216-1.784-4-4-4zm0 6h22c1.108 0 2 .892 2 2v20c0 1.108-.892 2-2 2h-22c-1.108 0-2-.892-2-2v-20c0-1.108.892-2 2-2z" fill="#fff" fill-opacity=".5"/><path d="M668-1584c-2.216 0-4 1.784-4 4v24c0 2.216 1.784 4 4 4h22c2.216 0 4-1.784 4-4v-24c0-2.216-1.784-4-4-4zm0 6h22c1.108 0 2 .892 2 2v20c0 1.108-.892 2-2 2h-22c-1.108 0-2-.892-2-2v-20c0-1.108.892-2 2-2z" fill="#fff" fill-opacity=".5"/></g></svg>