<svg version="1.0" viewBox="0 0 256 256" xmlns="http://www.w3.org/2000/svg"><path d="M128.02 48.01a160 160 0 0 0-118.496 52.5L128.02 208.014 246.516 100.51a160 160 0 0 0-118.496-52.5z" fill="#463e39"/><path d="M128.02 88.01a120 120 0 0 0-88.872 39.375l88.872 80.624 88.872-80.624A120 120 0 0 0 128.02 88.01z" fill="#9f9792"/><path d="M128.02 128.01a80 80 0 0 0-59.25 26.25l59.25 53.75 59.25-53.75a80 80 0 0 0-59.25-26.25z" fill="#463e39"/><path d="M128.02 168.01a40 40 0 0 0-29.625 13.125l29.625 26.875 29.625-26.875a40 40 0 0 0-29.625-13.125z" fill="#9f9792"/></svg>