<svg version="1.0" viewBox="0 0 256 256" xmlns="http://www.w3.org/2000/svg"><g stroke-linecap="square" stroke-width="8" transform="translate(-464 -28)"><rect x="488" y="196" width="208" height="64" ry="16" fill="#444"/><rect transform="rotate(45)" x="522.33" y="-237.55" width="16" height="48" ry="8"/><rect transform="rotate(45)" x="547.08" y="-262.3" width="16" height="48" ry="8"/><rect transform="rotate(45)" x="571.83" y="-287.04" width="16" height="48" ry="8"/><circle cx="640" cy="228" r="8" fill="#73c48f"/><circle cx="660" cy="228" r="8" fill="#f15d22"/><circle cx="680" cy="228" r="8" fill="#faa41a"/><path d="M504 196c-8.864 0-16 7.136-16 16v32c0 8.864 7.136 16 16 16h176c8.864 0 16-7.136 16-16v-32c0-8.864-7.136-16-16-16zm0 1h176c8.31 0 15 6.69 15 15v28c0 8.31-6.69 15-15 15H504c-8.31 0-15-6.69-15-15v-28c0-8.31 6.69-15 15-15z" fill="#f8f8f8" fill-opacity=".5"/><g transform="translate(0 -63)"><rect x="488" y="196" width="208" height="64" ry="16" fill="#444"/><rect transform="rotate(45)" x="522.33" y="-237.55" width="16" height="48" ry="8"/><rect transform="rotate(45)" x="547.08" y="-262.3" width="16" height="48" ry="8"/><rect transform="rotate(45)" x="571.83" y="-287.04" width="16" height="48" ry="8"/><circle cx="640" cy="228" r="8" fill="#73c48f"/><circle cx="660" cy="228" r="8" fill="#f15d22"/><circle cx="680" cy="228" r="8" fill="#faa41a"/><path d="M504 196c-8.864 0-16 7.136-16 16v32c0 8.864 7.136 16 16 16h176c8.864 0 16-7.136 16-16v-32c0-8.864-7.136-16-16-16zm0 1h176c8.31 0 15 6.69 15 15v28c0 8.31-6.69 15-15 15H504c-8.31 0-15-6.69-15-15v-28c0-8.31 6.69-15 15-15z" fill="#f8f8f8" fill-opacity=".5"/></g><g transform="translate(0 -126)"><rect x="488" y="196" width="208" height="64" ry="16" fill="#444"/><rect transform="rotate(45)" x="522.33" y="-237.55" width="16" height="48" ry="8"/><rect transform="rotate(45)" x="547.08" y="-262.3" width="16" height="48" ry="8"/><rect transform="rotate(45)" x="571.83" y="-287.04" width="16" height="48" ry="8"/><circle cx="640" cy="228" r="8" fill="#73c48f"/><circle cx="660" cy="228" r="8" fill="#f15d22"/><circle cx="680" cy="228" r="8" fill="#faa41a"/><path d="M504 196c-8.864 0-16 7.136-16 16v32c0 8.864 7.136 16 16 16h176c8.864 0 16-7.136 16-16v-32c0-8.864-7.136-16-16-16zm0 1h176c8.31 0 15 6.69 15 15v28c0 8.31-6.69 15-15 15H504c-8.31 0-15-6.69-15-15v-28c0-8.31 6.69-15 15-15z" fill="#f8f8f8" fill-opacity=".5"/></g></g></svg>