<svg version="1.0" viewBox="0 0 256 256" xmlns="http://www.w3.org/2000/svg"><path d="M128.02 48A160 160 0 0 0 9.524 100.5L128.02 208.004 246.516 100.5A160 160 0 0 0 128.02 48z" fill="#463e39"/><path d="M128.02 88a120 120 0 0 0-88.872 39.375L128.02 208l88.872-80.624A120 120 0 0 0 128.02 88z" fill="#9f9792"/><path d="M128.02 128a80 80 0 0 0-59.25 26.25L128.02 208l59.25-53.75A80 80 0 0 0 128.02 128z" fill="#463e39"/><path d="M128.02 168a40 40 0 0 0-29.625 13.125L128.02 208l29.625-26.875A40 40 0 0 0 128.02 168z" fill="#9f9792"/></svg>