<svg version="1.0" viewBox="0 0 256 256" xmlns="http://www.w3.org/2000/svg"><g transform="translate(-464 -28)"><rect x="101.99" y="258.99" width="28" height="22" ry="2.5" fill="#514d4a"/><rect x="102.99" y="259.99" width="26" height="19" ry="2" fill="#9f9792"/><rect x="102.99" y="261.99" width="26" height="3" ry="0" fill="#111"/><rect x="158.99" y="246.99" width="42" height="32" ry="3.5" fill="#514d4a"/><rect x="159.99" y="247.99" width="40" height="28" ry="3" fill="#9f9792"/><rect x="159.99" y="250.99" width="40" height="4" ry="0" fill="#111"/><rect x="227.99" y="233.99" width="56" height="44" ry="4.5" fill="#514d4a"/><rect x="228.99" y="234.99" width="54" height="40" ry="4" fill="#9f9792"/><rect x="228.99" y="238.99" width="54" height="6" ry="0" fill="#111"/><rect x="319.99" y="183.99" width="112" height="88" ry="8.5" fill="#514d4a"/><rect x="320.99" y="184.99" width="110" height="83" ry="8" fill="#9f9792"/><rect x="320.99" y="193.99" width="110" height="12" ry="0" fill="#111"/><rect x="479.99" y="83.99" width="224" height="176" ry="16.5" fill="#514d4a"/><rect x="480.99" y="84.99" width="222" height="170" ry="16" fill="#9f9792"/><rect x="480.99" y="103.99" width="222" height="24" ry="0" fill="#111"/><rect x="15.99" y="269.99" width="16" height="12" ry="1.5" fill="#514d4a"/><rect x="16.99" y="270.99" width="14" height="10" ry="1" fill="#9f9792"/><rect x="16.99" y="271.99" width="14" height="2" ry="0" fill="#111"/><rect x="55.99" y="262.99" width="24" height="18" ry="1.5" fill="#514d4a"/><rect x="56.99" y="263.99" width="22" height="16" ry="1" fill="#9f9792"/><rect x="56.99" y="264.99" width="22" height="3" ry="0" fill="#111"/><path fill="#dedede" d="M123.99 275.99h3v2h-3z"/><path fill="#c8c8c8" d="M103.99 271.99h5v4h-5z"/><path fill="#f6f6f6" d="M103.99 267.99h20v3h-20z"/><path fill="#dedede" d="M192.99 270.99h5v3h-5z"/><path fill="#c8c8c8" d="M161.99 265.99h8v6h-8z"/><path fill="#f6f6f6" d="M161.99 259.99h31v4h-31z"/><path fill="#dedede" d="M273.99 267.99h6v4h-6z"/><path fill="#c8c8c8" d="M231.99 259.99h10v8h-10z"/><path fill="#f6f6f6" d="M230.99 250.99h45v6h-45z"/><path fill="#dedede" d="M414.99 254.99h12v8h-12z"/><path fill="#c8c8c8" d="M327.99 235.99h20v16h-20z"/><path fill="#f6f6f6" d="M325.99 217.99h90v12h-90z"/><path fill="#dedede" d="M668.99 228.99h24v16h-24z"/><path fill="#c8c8c8" d="M494.99 185.99h40v32h-40z"/><path fill="#dedede" d="M27.99 278.99h2v1h-2z"/><path fill="#c8c8c8" d="M17.99 277.99h3v2h-3z"/><path fill="#f6f6f6" d="M17.99 274.99h11v2h-11z"/><path fill="#dedede" d="M74.99 276.99h3v2h-3z"/><path fill="#c8c8c8" d="M57.99 273.99h4v3h-4z"/><path fill="#f6f6f6" d="M57.99 269.99h17v3h-17z"/></g></svg>