<svg version="1.0" viewBox="0 0 256 256" xmlns="http://www.w3.org/2000/svg"><g transform="translate(-464 -28)"><rect x="504" y="44" width="176" height="224" ry="16" fill="#545454"/><rect x="528" y="68" width="128" height="172" ry="0" fill="#222"/><path d="M606 112c-3.324 0-6 2.676-6 6v14l9.129 9.129a42 42 0 0 1-23.965 24.035L576 156h-14c-3.324 0-6 2.676-6 6v16c0 3.324 2.676 6 6 6h8c33.137 0 58-24.863 58-58v-8c0-3.324-2.676-6-6-6z" fill="#ededed" fill-opacity=".8" filter="url(#filter7554)"/><path d="M520 44c-8.864 0-16 7.136-16 16v192c0 8.864 7.136 16 16 16h144c8.864 0 16-7.136 16-16V60c0-8.864-7.136-16-16-16zm0 1h144c8.31 0 15 6.69 15 15v188c0 8.31-6.69 15-15 15H520c-8.31 0-15-6.69-15-15V60c0-8.31 6.69-15 15-15z" fill="#fff" fill-opacity=".502"/></g></svg>