<svg version="1.0" viewBox="0 0 256 256" xmlns="http://www.w3.org/2000/svg"><g transform="translate(-464 1772)"><rect x="520" y="-1756" width="144" height="56" ry="8" fill="#dedede"/><path d="M528-1756c-4.432 0-8 3.568-8 8v66a7.98 7.98 0 0 0 1 3.88V-1748c0-3.878 3.122-7 7-7h128c3.878 0 7 3.122 7 7v69.88c.636-1.147 1-2.47 1-3.88v-66c0-4.432-3.568-8-8-8z" fill-opacity=".5"/><rect x="488" y="-1700" width="208" height="104" ry="16" fill="#474341"/><path d="M504-1700c-8.864 0-16 7.136-16 16v72c0 8.864 7.136 16 16 16h176c8.864 0 16-7.136 16-16v-72c0-8.864-7.136-16-16-16zm0 1h176c8.31 0 15 6.69 15 15v68c0 8.31-6.69 15-15 15H504c-8.31 0-15-6.69-15-15v-68c0-8.31 6.69-15 15-15z" fill="#fff" fill-opacity=".5"/><rect x="520" y="-1644" width="144" height="112" ry="8" fill="#dedede"/><circle cx="516" cy="-1672" r="8" fill="#73c48f"/><path d="M521-1639.9a7.988 7.988 0 0 0-1 3.88v96c0 4.433 3.568 8 8 8h128c4.432 0 8-3.567 8-8v-96a7.98 7.98 0 0 0-1-3.88v95.881c0 3.878-3.122 7-7 7H528c-3.878 0-7-3.122-7-7z" fill-opacity=".5"/><path d="M521-1593v8a48 48 0 0 1 48 48h8a56 56 0 0 0-56-56zm0 16v8a32 32 0 0 1 32 32h8a40 40 0 0 0-40-40zm0 16v8a16 16 0 0 1 16 16h8a24 24 0 0 0-24-24zm0 16v1c0 3.878 3.122 7 7 7h1a8 8 0 0 0-8-8z" opacity=".7"/></g></svg>