<svg version="1.0" viewBox="0 0 256 256" xmlns="http://www.w3.org/2000/svg"><g stroke-linecap="square" transform="translate(-464 -28)"><rect x="520" y="44" width="144" height="56" ry="8" fill="#dedede"/><path d="M528 44c-4.432 0-8 3.568-8 8v66a7.98 7.98 0 0 0 1 3.88V52c0-3.878 3.122-7 7-7h128c3.878 0 7 3.122 7 7v69.88c.636-1.147 1-2.47 1-3.88V52c0-4.432-3.568-8-8-8z" fill-opacity=".5"/><rect x="488" y="100" width="208" height="104" ry="16" fill="#474341"/><path d="M504 100c-8.864 0-16 7.136-16 16v72c0 8.864 7.136 16 16 16h176c8.864 0 16-7.136 16-16v-72c0-8.864-7.136-16-16-16zm0 1h176c8.31 0 15 6.69 15 15v68c0 8.31-6.69 15-15 15H504c-8.31 0-15-6.69-15-15v-68c0-8.31 6.69-15 15-15z" fill="#fff" fill-opacity=".5"/><rect x="520" y="156" width="144" height="112" ry="8" fill="#dedede"/><circle cx="516" cy="128" r="8" fill="#73c48f"/><path d="M521 160.12a7.987 7.987 0 0 0-1 3.88v96c0 4.433 3.568 8 8 8h128c4.432 0 8-3.567 8-8v-96a7.98 7.98 0 0 0-1-3.88v95.881c0 3.878-3.122 7-7 7H528c-3.878 0-7-3.122-7-7z" fill-opacity=".5"/></g></svg>