<svg version="1.0" viewBox="0 0 256 256" xmlns="http://www.w3.org/2000/svg"><g stroke-linecap="square" stroke-width="8" transform="translate(-464 -28)"><rect x="504" y="44" width="176" height="224" ry="16" fill="#444"/><rect x="520" y="60" width="144" height="180" ry="0" fill="#ededed"/><path d="M520 44c-8.864 0-16 7.136-16 16v192c0 8.864 7.136 16 16 16h144c8.864 0 16-7.136 16-16V60c0-8.864-7.136-16-16-16zm0 1h144c8.31 0 15 6.69 15 15v188c0 8.31-6.69 15-15 15H520c-8.31 0-15-6.69-15-15V60c0-8.31 6.69-15 15-15z" fill="#fff" fill-opacity=".5"/><rect x="472" y="148" width="240" height="16" ry="8" fill="#f15d22"/></g></svg>