<svg version="1.0" viewBox="0 0 256 256" xmlns="http://www.w3.org/2000/svg"><g stroke-linecap="square" transform="translate(-464 -28)"><rect x="234" y="224" width="44" height="56" ry="4" fill="#444"/><rect x="238" y="228" width="36" height="45" ry="0" fill="#ededed"/><rect x="164" y="239" width="33" height="42" ry="3" fill="#444"/><rect x="168" y="243" width="25" height="32" ry="0" fill="#ededed"/><rect x="105" y="254" width="22" height="28" ry="2" fill="#444"/><rect x="108" y="257" width="16" height="20" ry="0" fill="#ededed"/><rect x="18" y="268" width="12" height="16" ry="1" fill="#444"/><rect x="20" y="270" width="8" height="12" ry="0" fill="#ededed"/><rect x="59" y="260" width="18" height="24" ry="1.5" fill="#444"/><rect x="62" y="263" width="12" height="18" ry="0" fill="#ededed"/><rect x="332" y="164" width="88" height="112" ry="8" fill="#444"/><rect x="340" y="172" width="72" height="90" ry="0" fill="#ededed"/><rect x="504" y="44" width="176" height="224" ry="16" fill="#444"/><rect x="520" y="60" width="144" height="180" ry="0" fill="#ededed"/><path d="M19 268c-.554 0-1 .446-1 1v14c0 .554.446 1 1 1h10c.554 0 1-.446 1-1v-14c0-.554-.446-1-1-1zm0 1h10v14H19z" fill="#fff" fill-opacity=".5"/><path d="M60.5 260c-.831 0-1.5.669-1.5 1.5v21c0 .831.669 1.5 1.5 1.5h15c.831 0 1.5-.669 1.5-1.5v-21c0-.831-.669-1.5-1.5-1.5zm-.5 1h16v22H60z" fill="#fff" fill-opacity=".5"/><path d="M107 254c-1.108 0-2 .892-2 2v24c0 1.108.892 2 2 2h18c1.108 0 2-.892 2-2v-24c0-1.108-.892-2-2-2zm0 1h18c.554 0 1 .446 1 1v23c0 .554-.446 1-1 1h-18c-.554 0-1-.446-1-1v-23c0-.554.446-1 1-1z" fill="#fff" fill-opacity=".5"/><path d="M167 239c-1.662 0-3 1.338-3 3v36c0 1.662 1.338 3 3 3h27c1.662 0 3-1.338 3-3v-36c0-1.662-1.338-3-3-3zm0 1h27c1.108 0 2 .892 2 2v34c0 1.108-.892 2-2 2h-27c-1.108 0-2-.892-2-2v-34c0-1.108.892-2 2-2z" fill="#fff" fill-opacity=".5"/><path d="M238 224c-2.216 0-4 1.784-4 4v48c0 2.216 1.784 4 4 4h36c2.216 0 4-1.784 4-4v-48c0-2.216-1.784-4-4-4zm0 1h36c1.662 0 3 1.338 3 3v46c0 1.662-1.338 3-3 3h-36c-1.662 0-3-1.338-3-3v-46c0-1.662 1.338-3 3-3z" fill="#fff" fill-opacity=".5"/><rect x="226" y="250" width="60" height="4" ry="2" fill="#f15d22"/><path d="M340 164c-4.432 0-8 3.568-8 8v96c0 4.432 3.568 8 8 8h72c4.432 0 8-3.568 8-8v-96c0-4.432-3.568-8-8-8zm0 1h72c3.878 0 7 3.122 7 7v93c0 3.878-3.122 7-7 7h-72c-3.878 0-7-3.122-7-7v-93c0-3.878 3.122-7 7-7z" fill="#fff" fill-opacity=".5"/><path d="M520 44c-8.864 0-16 7.136-16 16v192c0 8.864 7.136 16 16 16h144c8.864 0 16-7.136 16-16V60c0-8.864-7.136-16-16-16zm0 1h144c8.31 0 15 6.69 15 15v188c0 8.31-6.69 15-15 15H520c-8.31 0-15-6.69-15-15V60c0-8.31 6.69-15 15-15z" fill="#fff" fill-opacity=".5"/><rect x="158" y="258" width="45" height="3" ry="1.5" fill="#f15d22"/><rect x="101" y="267" width="30" height="2" ry="1" fill="#f15d22"/><rect x="17" y="275" width="14" height="1" ry=".453" fill="#f15d22"/><rect x="57" y="270" width="22" height="2" ry="1" fill="#f15d22"/><rect x="316" y="216" width="120" height="8" ry="4" fill="#f15d22"/><rect x="472" y="148" width="240" height="16" ry="8" fill="#f15d22"/></g></svg>