<svg version="1.0" viewBox="0 0 16 16" xmlns="http://www.w3.org/2000/svg"><g transform="translate(-16 -268)"><rect x="17" y="269" width="14" height="14" ry="2" fill="#bebebe"/><path d="M24 269v14h5c1.108 0 2-.892 2-2v-10c0-1.108-.892-2-2-2z" fill="#dedede"/><rect x="17.5" y="269.5" width="13" height="13" ry="1.5" fill="none" stroke="#0d0d0d" stroke-linecap="round" stroke-opacity=".5"/><path d="M24 270v12" fill="none" stroke="#000" stroke-opacity=".5"/><path d="M20.5 275c-.5 0-.5.5-.5 2s0 2 .5 2 .5-.5.5-2 0-2-.5-2zm0-1c1 0 1.5 1 1.5 3 0 1.5-.5 3-1.5 3s-1.5-1.5-1.5-3c0-2 .5-3 1.5-3zm.5-2h1v1h-1zm-2 0h1v1h-1z" fill="#393634" fill-opacity=".8"/><path d="M29 278h-2c0 1 .5 1 1 1h1v1h-1c-1.5 0-2-.5-2-2.5 0-2.5 0-3.5 1.5-3.5s1.5 1 1.5 4zm-1-1c-.02-1.527 0-2-.5-2s-.5.5-.5 2zm-1-6h1l1.5 2h-1l-1-1-1 1h-1z" fill="#393634" fill-opacity=".8"/></g></svg>