<svg version="1.0" viewBox="0 0 16 16" xmlns="http://www.w3.org/2000/svg"><g transform="translate(-16 -268)"><rect x="17" y="269" width="14" height="15" ry="2" fill="#50443f"/><rect transform="matrix(0 -1 -1 0 0 0)" x="-283" y="-30" width="13" height="12" rx="1" ry="1" fill="#a1887f"/><path fill="#fff" d="M19 272h10v10H19z"/><rect x="21" y="268" width="6" height="6" ry="3" fill="#666"/><rect x="21" y="271" width="6" height="1" ry="0" fill="#666"/><path d="M24 269c-1.108 0-2 .892-2 2v1h-1c-.554 0-.984.446-1 1v1h8v-1c0-.554-.446-1-1-1h-1v-1c0-1.108-.892-2-2-2z" fill="#ccc"/><circle cx="24" cy="271" r="1" fill="#fff"/></g></svg>