<svg version="1.0" viewBox="0 0 16 16" xmlns="http://www.w3.org/2000/svg"><g transform="translate(-16 -268)"><rect x="17" y="269" width="14" height="14" ry="1" fill="#dedede"/><rect x="18" y="270" width="5" height="5" ry="0" fill="#aaa"/><rect x="25" y="277" width="5" height="5" ry="0" fill="#73c48f"/><rect x="18" y="277" width="5" height="5" ry="0" fill="#aaa"/><rect x="25" y="270" width="5" height="5" ry="0" fill="#aaa"/><path d="M20 271v1h-1v1h1v1h1v-1h1v-1h-1v-1z" fill="#fff"/><path d="m25.5 274 .5.5 1.5-1.5 1.5 1.5.5-.5-1.5-1.5 1.5-1.5-.5-.5-1.5 1.5-1.5-1.5-.5.5 1.5 1.5z" fill="#fff"/><path d="M19 279v1h3v-1z" fill="#fff"/><path d="M20 277.5h1v1h-1z" fill="#fff"/><path d="M20 280.5h1v1h-1z" fill="#fff"/><path d="M26 278h3v1h-3z" fill="#fff"/><path d="M26 280h3v1h-3z" fill="#fff"/><path d="M18.001 268.998c-.554 0-1 .446-1 1v12c0 .554.446 1 1 1h12c.554 0 1-.446 1-1v-12c0-.554-.446-1-1-1zm0 1h12v12h-12z" fill-opacity=".502"/></g></svg>