<svg version="1.0" viewBox="0 0 16 16" xmlns="http://www.w3.org/2000/svg"><g transform="translate(-16 -268)"><rect x="488.01" y="55.992" width="150" height="150" ry="8" fill="#5f5f5f"/><rect x="546" y="114" width="150" height="150" ry="8" fill="#6f6f6f"/><rect x="488" y="52" width="150" height="150" ry="8" fill="#bebebe"/><rect x="488.5" y="52" width="149" height="149.5" ry="7.5" fill="none" stroke="#000" stroke-linecap="round" stroke-opacity=".5"/><path d="M539 105c-4.625 0-8.281 2.125-10.969 5.75-2.688 3.594-4.031 8.969-4.031 15.25s1.328 10.797 3.984 14.422c2.688 3.594 6.36 5.578 11.016 5.578 4.594 0 8.235-2 10.922-5.625S554 132.25 554 126c0-6.219-1.39-11.578-4.078-15.203C547.235 107.141 543.594 105 539 105zm0-7c7.5 0 13.391 2.438 17.672 7.313C560.953 110.186 563 117.374 563 126c0 8.594-2.047 14.907-6.328 19.813C552.391 150.688 546.5 153 539 153c-7.531 0-13.438-2.313-17.719-7.188C517.031 140.906 515 134.594 515 126c0-8.624 2.031-15.812 6.281-20.687C525.562 100.436 531.469 98 539 98zm4-19h10v10h-10zm-18 0h10v10h-10z" fill="#393634" fill-opacity=".8" aria-label="ö"/><rect x="546" y="110" width="150" height="150" ry="8" fill="#dedede"/><rect x="546.5" y="110.5" width="149" height="149" ry="7.5" fill="none" stroke="#000" stroke-linecap="round" stroke-opacity=".5"/><path d="M626 184v4h-39c.375 5.938 1.828 10.992 5.016 14.117C595.234 205.211 599.28 207 605 207c3.312 0 6.937-.649 10.03-1.461 3.126-.813 5.907-1.914 8.97-3.54v8c-3.094 1.313-5.954 2.352-9.204 3.04s-6.453.96-9.797.96c-8.375 0-15.109-2.366-20.016-7.241C580.108 201.883 578 195.313 578 187c0-8.594 1.984-15.43 6.61-20.461 4.656-5.063 11.015-7.54 18.89-7.54 7.063 0 12.547 2.227 16.641 6.79 4.125 4.53 5.86 10.398 5.86 18.21zm-8-2c-.063-4.719-1.688-8.71-4.281-11.523-2.563-2.813-5.969-4.477-10.22-4.477-4.812 0-8.671 1.618-11.577 4.336-2.875 2.72-4.485 6.727-4.922 11.664zm-18.5-46h7l11.5 18h-6.5l-8.5-12-8.5 12H588z" fill="#393634" fill-opacity=".8" aria-label="ê"/><rect x="324" y="168" width="75" height="77" ry="8" fill="#5f5f5f"/><rect x="324" y="167" width="75" height="75" ry="8" fill="#bebebe"/><rect x="324.5" y="167.5" width="74" height="74" ry="7.5" fill="none" stroke="#000" stroke-linecap="round" stroke-opacity=".5"/><rect x="353" y="198" width="75" height="77" ry="8" fill="#757575"/><path d="M347 199c-2.313 0-4.14 1.063-5.484 2.875-1.344 1.797-2.016 4.484-2.016 7.625s.664 5.399 1.992 7.211c1.344 1.797 3.18 2.789 5.508 2.789 2.297 0 4.117-1 5.461-2.812s2.04-4.063 2.04-7.188c0-3.11-.696-5.789-2.04-7.601-1.344-1.829-3.164-2.899-5.46-2.899zm0-3.5c3.75 0 6.696 1.219 8.836 3.656 2.14 2.438 3.164 6.031 3.164 10.344 0 4.297-1.023 7.453-3.164 9.906-2.14 2.438-5.086 3.594-8.836 3.594-3.766 0-6.719-1.156-8.86-3.594-2.125-2.453-3.14-5.61-3.14-9.906 0-4.312 1.015-7.906 3.14-10.344 2.141-2.437 5.094-3.656 8.86-3.656zm2-9.5h5v5h-5zm-9 0h5v5h-5z" fill="#393634" fill-opacity=".8" aria-label="ö"/><rect x="353" y="197" width="75" height="75" ry="8" fill="#dedede"/><rect x="353.5" y="197.5" width="74" height="74" ry="7.5" fill="none" stroke="#0d0d0d" stroke-linecap="round" stroke-opacity=".5"/><path d="M391 239v2h-20c.188 2.969.914 5.496 2.508 7.059 1.61 1.546 3.633 2.44 6.492 2.44 1.656 0 3.469-.323 5.015-.73 1.563-.406 3.453-.957 4.985-1.77v4c-1.547.657-3.477 1.177-5.102 1.52s-3.226.48-4.898.48c-4.188 0-7.555-1.183-10.008-3.62-2.438-2.438-3.492-5.723-3.492-9.88 0-4.296.992-7.714 3.304-10.23 2.328-2.53 5.508-3.77 9.446-3.77 3.531 0 6.273 1.114 8.32 3.395 2.063 2.266 3.43 5.2 3.43 9.106zm-4-1c-.031-2.36-1.344-4.355-2.64-5.761-1.282-1.407-2.985-2.239-5.11-2.239-2.406 0-4.336.809-5.79 2.168-1.437 1.36-2.241 3.363-2.46 5.832zm-9.75-23h3.5l5.75 9h-3.25l-4.25-6-4.25 6h-3.25z" fill="#393634" fill-opacity=".8" aria-label="ê"/><rect x="230" y="226" width="38" height="40" ry="4" fill="#5f5f5f"/><rect x="230" y="226" width="38" height="38" ry="4" fill="#bebebe"/><rect x="230.5" y="226.5" width="37" height="37" ry="3.5" fill="none" stroke="#000" stroke-linecap="round" stroke-opacity=".5"/><rect x="244" y="241" width="38" height="40" ry="4" fill="#757575"/><path d="M242.002 242.002c-3.042.06-4.02 2.508-4.002 4.998.017 2.473 1.502 5.003 4.003 5.003 2.768 0 4.026-2.835 4-5-.03-2.457-1.616-5.047-4-5zm0-2c4.066.11 6.035 3.66 6 7-.04 3.9-2.434 7-6 7-4 0-5.977-3.57-6-7-.027-4.138 2.07-7.106 6-7zm1-4h2v2h-2zm-4 0h2v2h-2z" fill="#393634" fill-opacity=".8" aria-label="ö"/><rect x="244" y="240" width="38" height="38" ry="4" fill="#dedede"/><rect x="244.5" y="240.5" width="37" height="37" ry="3.5" fill="none" stroke="#0d0d0d" stroke-linecap="round" stroke-opacity=".5"/><path d="M264.002 263.002h-10c.207 2.862 2 4 4.5 4 1.777 0 2.996-.327 4.5-1v2c-1.63.686-2.893 1-4.5 1-4.5 0-6.5-3-6.5-6.5 0-6 2.253-7.5 6-7.5 4 0 6 2 6 8zm-2-2c0-2.5-2.052-4.046-4-4-2.48.06-4 1.5-4 4zm-5-12h2l2.5 5h-1.5l-2-3-2 3h-1.5z" fill="#393634" fill-opacity=".8" aria-label="ê"/><rect x="103" y="254" width="20" height="21" ry="2" fill="#5f5f5f"/><rect x="103" y="254" width="20" height="20" ry="2" fill="#bebebe"/><rect x="103.5" y="254.5" width="19" height="19" ry="1.5" fill="none" stroke="#000" stroke-linecap="round" stroke-opacity=".5"/><rect x="109" y="261" width="20" height="21" ry="2" fill="#757575"/><path d="M107.502 263c-1 0-1.5.5-1.5 2s.5 2 1.5 2c1.5 0 1.5-.5 1.5-2s-.5-2-1.5-2zm0-1c1.834 0 2.5 1 2.5 3 0 1.5-.5 3-2.5 3s-2.5-1.5-2.5-3c0-2 1-3 2.5-3zm.5-2h1v1h-1zm-2 0h1v1h-1z" fill="#393634" fill-opacity=".8" aria-label="ö"/><rect x="109" y="261" width="20" height="20" ry="2" fill="#dedede"/><rect x="109.5" y="261.5" width="19" height="19" ry="1.5" fill="none" stroke="#0d0d0d" stroke-linecap="round" stroke-opacity=".5"/><path d="M117 272.996h-5c0 1.5 1 2 2 2 .9 0 1.731-.203 2.5-.5v1c-.814.358-1.697.5-2.5.5-2 0-3-1.5-3-3.5s1-3.5 3-3.5 3 1 3 4zm-1-1c0-1.5-.5-2-2-2s-1.688.942-2 2zm-2.5-6h1l1.5 2h-1l-1-1-1 1h-1z" fill="#393634" fill-opacity=".8" aria-label="ê"/><rect x="160" y="240" width="28" height="30" ry="4" fill="#5f5f5f"/><rect x="160" y="240" width="28" height="28" ry="4" fill="#bebebe"/><rect x="172" y="251" width="28" height="30" ry="4" fill="#757575"/><rect x="160.5" y="240.5" width="27" height="27" ry="3.5" fill="none" stroke="#0d0d0d" stroke-linecap="round" stroke-opacity=".5"/><path d="M169 251.002c-3.042.06-4.02 2.508-4.002 4.998.017 2.473 1.502 5.003 4.003 5.003 2.768 0 4.026-2.835 4-5-.03-2.457-1.616-5.047-4-5zm0-2c4.066.11 6.035 3.66 6 7-.04 3.9-2.434 7-6 7-4 0-5.977-3.57-6-7-.027-4.138 2.07-7.106 6-7zm1-4h2v2h-2zm-4 0h2v2h-2z" fill="#393634" fill-opacity=".8" aria-label="ö"/><rect x="172" y="251" width="28" height="28" ry="4" fill="#dedede"/><rect x="172.5" y="251.5" width="27" height="27" ry="3.5" fill="none" stroke="#0d0d0d" stroke-linecap="round" stroke-opacity=".5"/><path d="M187 269.002h-10c.207 2.862 2 4 4.5 4 1.777 0 2.996-.327 4.5-1v2c-1.63.686-2.893 1-4.5 1-4.5 0-6.5-3-6.5-6.5 0-6 2.253-7.5 6-7.5 4 0 6 2 6 8zm-2-2c0-2.5-2.052-4.046-4-4-2.48.06-4 1.5-4 4zm-5-12h2l2.5 5H183l-2-3-2 3h-1.5z" fill="#393634" fill-opacity=".8" aria-label="ê"/><rect x="57" y="261" width="22" height="22" ry="2" fill="#bebebe"/><path d="M68 261v22h9c1.108 0 2-.892 2-2v-18c0-1.108-.892-2-2-2z" fill="#dedede"/><rect x="57.5" y="261.5" width="21" height="21" ry="1.5" fill="none" stroke="#0d0d0d" stroke-linecap="round" stroke-opacity=".5"/><path d="M68 262v20" fill="none" stroke="#000" stroke-opacity=".5"/><path d="M62.502 271c-1 0-1.5.5-1.5 2s.5 2 1.5 2c1.5 0 1.5-.5 1.5-2s-.5-2-1.5-2zm0-1c1.834 0 2.5 1 2.5 3 0 1.5-.5 3-2.5 3s-2.5-1.5-2.5-3c0-2 1-3 2.5-3zm.5-2h1v1h-1zm-2 0h1v1h-1z" fill="#393634" fill-opacity=".8" aria-label="ö"/><path d="M76.5 273.996h-5c0 1.5 1 2 2 2 .9 0 1.731-.203 2.5-.5v1c-.815.358-1.697.5-2.5.5-2 0-3-1.5-3-3.5s1-3.5 3-3.5 3 1 3 4zm-1-1c0-1.5-.5-2-2-2s-1.688.942-2 2zm-2.5-6h1l1.5 2h-1l-1-1-1 1h-1z" fill="#393634" fill-opacity=".8" aria-label="ê"/><rect x="17" y="269" width="14" height="14" ry="2" fill="#bebebe"/><path d="M24 269v14h5c1.108 0 2-.892 2-2v-10c0-1.108-.892-2-2-2z" fill="#dedede"/><rect x="17.5" y="269.5" width="13" height="13" ry="1.5" fill="none" stroke="#0d0d0d" stroke-linecap="round" stroke-opacity=".5"/><path d="M24 270v12" fill="none" stroke="#000" stroke-opacity=".5"/><path d="M20.502 275c-.5 0-.5.5-.5 2s0 2 .5 2 .5-.5.5-2 0-2-.5-2zm0-1c1 0 1.5 1 1.5 3 0 1.5-.5 3-1.5 3s-1.5-1.5-1.5-3c0-2 .5-3 1.5-3zm.5-2h1v1h-1zm-2 0h1v1h-1z" fill="#393634" fill-opacity=".8" aria-label="ö"/><path d="M29 277.996h-2c0 1 .5 1 1 1h1v1h-1c-1.5 0-2-.5-2-2.5 0-2.5 0-3.5 1.5-3.5s1.5 1 1.5 4zm-1-1c-.02-1.527 0-2-.5-2s-.5.5-.5 2zm-1-6h1l1.5 2h-1l-1-1-1 1h-1z" fill="#393634" fill-opacity=".8" aria-label="ê"/></g></svg>