<svg version="1.0" viewBox="0 0 16 16" xmlns="http://www.w3.org/2000/svg"><path d="M3.5 0C2.669 0 2 .669 2 1.5v13c0 .831.669 1.5 1.5 1.5h9c.831 0 1.5-.669 1.5-1.5v-10L9.5 0z" fill="#6f6f6f"/><path d="M13 5v9c0 .554-.446 1-1 1H4c-.554 0-1-.446-1-1V2c0-.554.446-1 1-1h5" fill="#ececec"/><path d="M13 6H9c-.554 0-1-.446-1-1V1h1l4 4z" fill="#6f6f6f" fill-opacity=".502"/><path d="M13 5h-3c-.554 0-1-.446-1-1V1" fill="#fafafa"/><rect x="4" y="8" width="8" height="1" ry=".5" fill="#474341" fill-opacity=".69"/><rect x="4" y="10" width="8" height="1" ry=".5" fill="#474341" fill-opacity=".69"/><rect x="4" y="12" width="5" height="1" ry=".456" fill="#474341" fill-opacity=".69"/><rect x="45" y="12" width="9" height="1" ry=".456" fill="#474341" fill-opacity=".69"/><rect x="45" y="9" width="14" height="1" ry=".456" fill="#474341" fill-opacity=".69"/><rect x="45" y="6" width="14" height="1" ry=".456" fill="#474341" fill-opacity=".69"/><rect x="45" y="3" width="14" height="1" ry=".456" fill="#474341" fill-opacity=".69"/><rect x="93" y="9" width="9" height="1" ry=".456" fill="#474341" fill-opacity=".69"/><rect x="93" y="6" width="14" height="1" ry=".456" fill="#474341" fill-opacity=".69"/><rect x="93" y="3" width="14" height="1" ry=".456" fill="#474341" fill-opacity=".69"/><rect x="93" width="14" height="1" ry=".456" fill="#474341" fill-opacity=".69"/><g transform="translate(-16 -268)" fill="#474341" fill-opacity=".69"><rect x="243" y="-334.5" width="9" height="1" ry=".456"/><rect x="243" y="-337.5" width="14" height="1" ry=".456"/><rect x="243" y="-340.5" width="14" height="1" ry=".456"/><rect x="243" y="-343.5" width="14" height="1" ry=".456"/><rect x="243" y="-334.5" width="9" height="1" ry=".456"/><rect x="243" y="-337.5" width="14" height="1" ry=".456"/><rect x="243" y="-340.5" width="14" height="1" ry=".456"/><rect x="243" y="-343.5" width="14" height="1" ry=".456"/><rect x="243" y="-334.5" width="9" height="1" ry=".456"/><rect x="243" y="-337.5" width="14" height="1" ry=".456"/><rect x="243" y="-340.5" width="14" height="1" ry=".456"/><rect x="243" y="-343.5" width="14" height="1" ry=".456"/><rect x="243" y="-334.5" width="7.5" height="1" ry=".456"/><rect x="243" y="-337.5" width="12" height="1" ry=".423"/><rect x="243" y="-340.5" width="12" height="1" ry=".375"/><rect x="243" y="-343.5" width="12" height="1" ry=".456"/></g><rect x="98" y="1" width="15" height="15" ry="3.5" fill="#671d00"/><rect x="99" y="2" width="13" height="12" ry="3" fill="#cf3b00"/><rect x="162" y="-4" width="20" height="20" ry="3.5" fill="#671d00"/><rect x="163" y="-3" width="18" height="16" ry="3" fill="#cf3b00"/><rect x="238" y="-8" width="26" height="24" ry="5.5" fill="#671d00"/><rect x="239" y="-7" width="24" height="20" ry="5" fill="#cf3b00"/><rect x="356" y="-32" width="52" height="47" ry="10.5" fill="#671d00"/><rect x="357" y="-31" width="50" height="42" ry="10" fill="#cf3b00"/><rect x="567" y="-79.987" width="104" height="91.987" ry="20.5" fill="#671d00"/><rect x="568" y="-79" width="102" height="86" ry="20" fill="#cf3b00"/><rect x="50" y="4" width="13" height="12" ry="2.5" fill="#671d00"/><rect x="51" y="5" width="11" height="10.002" ry="2" fill="#cf3b00"/><rect x="5" y="6" width="11" height="10" ry="1.5" fill="#671d00"/><rect x="6" y="7" width="9" height="8" ry="1" fill="#cf3b00"/><path d="M10.5 8.5a4.47 4.5 0 0 0-4 2.505 4.47 4.5 0 0 0 4 2.495 4.47 4.5 0 0 0 4-2.505 4.47 4.5 0 0 0-4-2.495zm0 .5a2 2 0 0 1 2 2 2 2 0 0 1-2 2 2 2 0 0 1-2-2 2 2 0 0 1 2-2zm0 1a1 1 0 0 0-1 1 1 1 0 0 0 1 1 1 1 0 0 0 1-1 1 1 0 0 0-1-1z" fill="#fff"/></svg>