<svg version="1.0" viewBox="0 0 16 16" xmlns="http://www.w3.org/2000/svg"><g transform="translate(-16 -268)"><path d="M19.5 268c-.831 0-1.5.669-1.5 1.5v13c0 .831.669 1.5 1.5 1.5h9c.831 0 1.5-.669 1.5-1.5v-10l-4.5-4.5z" fill="#6f6f6f"/><path d="M29 273v9c0 .554-.446 1-1 1h-8c-.554 0-1-.446-1-1v-12c0-.554.446-1 1-1h5" fill="#ececec"/><path d="M29 274h-4c-.554 0-1-.446-1-1v-4h1l4 4z" fill="#6f6f6f" fill-opacity=".502"/><path d="M29 273h-3c-.554 0-1-.446-1-1v-3" fill="#fafafa"/><rect x="20" y="276" width="8" height="1" ry=".5" fill="#474341" fill-opacity=".69"/><rect x="20" y="278" width="8" height="1" ry=".5" fill="#474341" fill-opacity=".69"/><rect x="20" y="280" width="5" height="1" ry=".456" fill="#474341" fill-opacity=".69"/><rect x="21" y="274" width="11" height="10" ry="1.5" fill="#671d00"/><rect x="22" y="275" width="9" height="8" ry="1" fill="#cf3b00"/><path d="M26.5 276.5a4.47 4.5 0 0 0-4 2.505 4.47 4.5 0 0 0 4 2.495 4.47 4.5 0 0 0 4-2.505 4.47 4.5 0 0 0-4-2.495zm0 .5a2 2 0 0 1 2 2 2 2 0 0 1-2 2 2 2 0 0 1-2-2 2 2 0 0 1 2-2zm0 1a1 1 0 0 0-1 1 1 1 0 0 0 1 1 1 1 0 0 0 1-1 1 1 0 0 0-1-1z" fill="#fff"/></g></svg>