<svg version="1.0" viewBox="0 0 16 16" xmlns="http://www.w3.org/2000/svg"><g transform="translate(-16 -268)"><rect x="16" y="269" width="15" height="15" ry="1.5" fill="#560c00"/><rect x="18" y="270" width="12" height="13" ry="1" fill="#dedede"/><rect x="16" y="268" width="13" height="13" ry="1.5" fill="#560c00"/><rect x="18" y="269" width="10" height="11" ry="1" fill="#f15d22"/><path d="M18 269c-.554 0-1 .446-1 1v12c0 .554.446.992 1 1h1v-14z" fill="#350700"/><path d="M21.5 273a1.5 1.5 0 0 0-1.5 1.5v3.5h1v-1h1v1h1v-3.5a1.5 1.5 0 0 0-1.5-1.5zm0 1c.277 0 .5.223.5.5v1.5h-1v-1.5c0-.277.223-.5.5-.5z" fill-opacity=".196"/><path d="M24 273v1h2l-2 3v1h3v-1h-2l2-3v-1z" fill-opacity=".196"/><path d="M21.5 272a1.5 1.5 0 0 0-1.5 1.5v3.5h1v-1h1v1h1v-3.5a1.5 1.5 0 0 0-1.5-1.5zm0 1c.277 0 .5.223.5.5v1.5h-1v-1.5c0-.277.223-.5.5-.5z" fill="#ededed"/><path d="M24 272v1h2l-2 3v1h3v-1h-2l2-3v-1z" fill="#ededed"/></g></svg>