<svg version="1.0" viewBox="0 0 16 16" xmlns="http://www.w3.org/2000/svg"><g transform="translate(-16 332)"><rect x="16" y="-330" width="16" height="12" ry="2" fill="#6f6f6f"/><rect x="17" y="-329" width="14" height="10" ry="1.5" fill="#dedede"/><path fill="#45454f" d="M18-328h12v8H18z"/><path fill="#48b9c7" d="M18-328h12v8H18z"/><path d="M19-326v2h1v-1h2v-1h-2zm7 0v1h2v1h1v-2h-1zm-7 4v2h3v-1h-2v-1zm9 0v1h-2v1h3v-2z" fill-opacity=".196"/><path d="M19-327v2h1v-1h2v-1h-2zm7 0v1h2v1h1v-2h-1zm-7 4v2h3v-1h-2v-1zm9 0v1h-2v1h3v-2z" fill="#fff" fill-opacity=".989"/></g></svg>