<svg version="1.0" viewBox="0 0 16 16" xmlns="http://www.w3.org/2000/svg"><path d="M3.5 0C2.669 0 2 .669 2 1.5v13c0 .831.669 1.5 1.5 1.5h9c.831 0 1.5-.669 1.5-1.5v-10L9.5 0z" fill="#7f6728"/><path d="M13 5v9c0 .554-.446 1-1 1H4c-.554 0-1-.446-1-1V2c0-.554.446-1 1-1h5" fill="#ffce51"/><path d="M11.098 5.13a.454.454 0 0 0-.644 0L9.362 6.222l1.414 1.415 1.093-1.093a.454.454 0 0 0 0-.643zm-2.443 1.8-4.628 4.627a.454.454 0 0 0 0 .644l.77.77a.454.454 0 0 0 .644 0l4.628-4.627z" fill="#cda641"/><path d="m2.998 14 .707-2.121.707-.707 1.414 1.414-.707.707z" fill="#cda641"/><path d="M11.098 4.13a.454.454 0 0 0-.644 0L9.362 5.222l1.414 1.415 1.093-1.093a.454.454 0 0 0 0-.643zm-2.443 1.8-4.628 4.627a.454.454 0 0 0 0 .644l.77.77a.454.454 0 0 0 .644 0l4.628-4.627z" fill="#fff"/><path d="m2.998 13 .707-2.121.707-.707 1.414 1.414-.707.707z" fill="#fff"/></svg>