<svg version="1.0" viewBox="0 0 16 16" xmlns="http://www.w3.org/2000/svg"><g transform="translate(-16 -268)"><rect x="17" y="269" width="14" height="14" ry="5" fill="#f6f6f6"/><rect x="17.5" y="269.5" width="13" height="13" ry="4.5" fill="none" stroke="#000" stroke-linecap="round" stroke-opacity=".502"/><rect x="23" y="270" width="2" height="3" ry="1" fill="#333"/><rect transform="rotate(-90)" x="-277" y="18" width="2" height="3" ry="1" fill="#333"/><rect transform="scale(-1)" x="-25" y="-282" width="2" height="3" ry="1" fill="#333"/><rect transform="rotate(90)" x="275" y="-30" width="2" height="3" ry="1" fill="#333"/><path d="M28.382 272.16a.5.5 0 0 0-.698-.11l-4.045 2.938a1 1 0 1 0 1.384 1.41l3.248-3.54a.5.5 0 0 0 .111-.698z" fill="#2b2928"/><path d="M26.185 278.93a.5.5 0 0 0 .253-.66l-1.22-2.74a1 1 0 1 0-1.574 1.155l1.88 1.992a.5.5 0 0 0 .661.253z" fill="#474341"/></g></svg>