<svg version="1.0" viewBox="0 0 16 16" xmlns="http://www.w3.org/2000/svg"><g transform="translate(-752 32)"><g transform="matrix(.25 0 0 .25 740 -93.5)"><circle transform="matrix(.25 0 0 .25 4 206.5)" cx="256" cy="254" r="24" fill="#444"/><path fill="#444" d="M62 269.75h3.5v5.5H62z"/><path fill="#444" d="M68 272.5v3.5h-5.25v-3.5z"/><rect transform="matrix(.25 0 0 .25 4 206.5)" x="232" y="264" width="14" height="14" ry="2" fill="#444"/><circle transform="matrix(.25 0 0 .25 4 206.5)" cx="256" cy="254" r="12" fill="#acacac"/></g><g transform="matrix(.25 0 0 .25 740 -93.5)"><circle transform="matrix(.25 0 0 .25 4 206.5)" cx="256" cy="254" r="24" fill="#444"/><path fill="#444" d="M62 269.75h3.5v5.5H62z"/><path fill="#444" d="M68 272.5v3.5h-5.25v-3.5z"/><rect transform="matrix(.25 0 0 .25 4 206.5)" x="232" y="264" width="14" height="14" ry="2" fill="#444"/><circle transform="matrix(.25 0 0 .25 4 206.5)" cx="256" cy="254" r="12" fill="#acacac"/></g><rect x="753" y="-31" width="14" height="14" ry="2" fill="#552d5d"/><rect x="754" y="-30" width="12" height="12" ry="1.5" fill="#aa5abb"/><path d="m759.12-27.532-.078.93a2.775 2.775 0 0 0-.81.47l-.846-.399-.883 1.53.768.533a2.775 2.775 0 0 0-.043.468 2.775 2.775 0 0 0 .04.47l-.765.53.883 1.53.843-.397a2.775 2.775 0 0 0 .813.466l.078.932h1.766l.078-.93a2.775 2.775 0 0 0 .81-.47l.846.399.883-1.53-.768-.532a2.775 2.775 0 0 0 .043-.468 2.775 2.775 0 0 0-.04-.47l.765-.532-.883-1.529-.843.397a2.775 2.775 0 0 0-.813-.466l-.078-.932zm.883 2.522a1.009 1.009 0 0 1 1.009 1.01 1.009 1.009 0 0 1-1.01 1.009 1.009 1.009 0 0 1-1.008-1.01 1.009 1.009 0 0 1 1.009-1.008z" fill="#fafafb"/></g></svg>