<svg version="1.0" viewBox="0 0 16 16" xmlns="http://www.w3.org/2000/svg"><g transform="matrix(.25 0 0 .25 -12 -61.5)"><circle transform="matrix(.25 0 0 .25 4 206.5)" cx="256" cy="254" r="24" fill="#444"/><path fill="#444" d="M62 269.75h3.5v5.5H62z"/><path fill="#444" d="M68 272.5v3.5h-5.25v-3.5z"/><rect transform="matrix(.25 0 0 .25 4 206.5)" x="232" y="264" width="14" height="14" ry="2" fill="#444"/><circle transform="matrix(.25 0 0 .25 4 206.5)" cx="256" cy="254" r="12" fill="#acacac"/></g><g transform="matrix(.25 0 0 .25 -12 -61.5)"><circle transform="matrix(.25 0 0 .25 4 206.5)" cx="256" cy="254" r="24" fill="#444"/><path fill="#444" d="M62 269.75h3.5v5.5H62z"/><path fill="#444" d="M68 272.5v3.5h-5.25v-3.5z"/><rect transform="matrix(.25 0 0 .25 4 206.5)" x="232" y="264" width="14" height="14" ry="2" fill="#444"/><circle transform="matrix(.25 0 0 .25 4 206.5)" cx="256" cy="254" r="12" fill="#acacac"/></g><g transform="matrix(.25 0 0 .25 -12 -61.5)"><circle transform="matrix(.25 0 0 .25 4 206.5)" cx="256" cy="254" r="24" fill="#444"/><path fill="#444" d="M62 269.75h3.5v5.5H62z"/><path fill="#444" d="M68 272.5v3.5h-5.25v-3.5z"/><rect transform="matrix(.25 0 0 .25 4 206.5)" x="232" y="264" width="14" height="14" ry="2" fill="#444"/><circle transform="matrix(.25 0 0 .25 4 206.5)" cx="256" cy="254" r="12" fill="#acacac"/></g><path d="M3.001.998a1.99 1.99 0 0 0-1.852 1.25l6.852 5.75h7v-5c0-1.108-.892-2-2-2z" fill="#7f6728"/><path d="m8.001 7.998-5.752 6.853a2 2 0 0 0 .752.147h10c1.108 0 2-.892 2-2v-5z" fill="#353e70"/><path d="M1.151 2.248a2.006 2.006 0 0 0-.146.75v10a1.99 1.99 0 0 0 1.25 1.853l5.75-6.853z" fill="#782e11"/><path d="M3.501 2.001c-.666 0-1.221.434-1.418 1.033l5.918 4.967h6v-4.5c0-.831-.669-1.5-1.5-1.5z" fill="#ffce51"/><path d="m8.001 8.001-4.967 5.918c.148.049.302.082.467.082h9c.831 0 1.5-.669 1.5-1.5v-4.5z" fill="#6a7ce0"/><path d="M2.081 3.031a1.488 1.488 0 0 0-.082.467v9c0 .666.434 1.221 1.033 1.418L8 7.998z" fill="#f15d22"/><path d="M8 4a4 4 0 0 0-4 4v3.5c0 .277.223.5.5.5H8a4 4 0 0 0 4-4 4 4 0 0 0-4-4zm0 2a2 2 0 0 1 2 2 2 2 0 0 1-2 2 2 2 0 0 1-2-2 2 2 0 0 1 2-2z" fill-opacity=".502"/></svg>