<svg version="1.0" viewBox="0 0 16 16" xmlns="http://www.w3.org/2000/svg"><g transform="translate(-752 632)"><g transform="matrix(.25 0 0 .25 740 -693.5)"><circle transform="matrix(.25 0 0 .25 4 206.5)" cx="256" cy="254" r="24" fill="#444"/><path fill="#444" d="M62 269.75h3.5v5.5H62z"/><path fill="#444" d="M68 272.5v3.5h-5.25v-3.5z"/><rect transform="matrix(.25 0 0 .25 4 206.5)" x="232" y="264" width="14" height="14" ry="2" fill="#444"/><circle transform="matrix(.25 0 0 .25 4 206.5)" cx="256" cy="254" r="12" fill="#acacac"/></g><g transform="matrix(.25 0 0 .25 740 -693.5)"><circle transform="matrix(.25 0 0 .25 4 206.5)" cx="256" cy="254" r="24" fill="#444"/><path fill="#444" d="M62 269.75h3.5v5.5H62z"/><path fill="#444" d="M68 272.5v3.5h-5.25v-3.5z"/><rect transform="matrix(.25 0 0 .25 4 206.5)" x="232" y="264" width="14" height="14" ry="2" fill="#444"/><circle transform="matrix(.25 0 0 .25 4 206.5)" cx="256" cy="254" r="12" fill="#acacac"/></g><g transform="matrix(.25 0 0 .25 740 -693.5)"><circle transform="matrix(.25 0 0 .25 4 206.5)" cx="256" cy="254" r="24" fill="#444"/><path fill="#444" d="M62 269.75h3.5v5.5H62z"/><path fill="#444" d="M68 272.5v3.5h-5.25v-3.5z"/><rect transform="matrix(.25 0 0 .25 4 206.5)" x="232" y="264" width="14" height="14" ry="2" fill="#444"/><circle transform="matrix(.25 0 0 .25 4 206.5)" cx="256" cy="254" r="12" fill="#acacac"/></g><g transform="matrix(.25 0 0 .25 740 -693.5)"><circle transform="matrix(.25 0 0 .25 4 206.5)" cx="256" cy="254" r="24" fill="#444"/><path fill="#444" d="M62 269.75h3.5v5.5H62z"/><path fill="#444" d="M68 272.5v3.5h-5.25v-3.5z"/><rect transform="matrix(.25 0 0 .25 4 206.5)" x="232" y="264" width="14" height="14" ry="2" fill="#444"/><circle transform="matrix(.25 0 0 .25 4 206.5)" cx="256" cy="254" r="12" fill="#acacac"/></g><path d="M755-631a1.99 1.99 0 0 0-1.852 1.25L760-624h7v-5c0-1.108-.892-2-2-2z" fill="#245c63"/><path d="m760-624-5.752 6.854c.232.093.486.146.752.146h10c1.108 0 2-.892 2-2v-5z" fill="#396247"/><path d="M753.15-629.75a2.006 2.006 0 0 0-.146.75v10a1.99 1.99 0 0 0 1.25 1.853l5.75-6.853z" fill="#7f3c1f"/><path d="M755.5-630c-.666 0-1.221.434-1.418 1.033L760-624h6v-4.5c0-.831-.669-1.5-1.5-1.5z" fill="#48b9c7"/><path d="m760-624-4.967 5.918c.148.049.302.082.467.082h9c.831 0 1.5-.669 1.5-1.5v-4.5z" fill="#73c48f"/><path d="M754.08-628.97a1.488 1.488 0 0 0-.082.467v9c0 .666.434 1.221 1.033 1.418l4.967-5.918z" fill="#ff793e"/><path d="M760-628a4 4 0 0 0-4 4v3.5c0 .277.223.5.5.5h3.5a4 4 0 0 0 4-4 4 4 0 0 0-4-4zm0 2a2 2 0 0 1 2 2 2 2 0 0 1-2 2 2 2 0 0 1-2-2 2 2 0 0 1 2-2z" fill-opacity=".502"/><circle cx="760" cy="-624" r="2" fill="#fff"/></g></svg>