<svg version="1.0" viewBox="0 0 16 16" xmlns="http://www.w3.org/2000/svg"><g transform="translate(-16 32)"><circle cx="24" cy="-24" r="8" fill="#cdcdcd"/><path d="M24-32a8 8 0 0 0-8 8 8 8 0 0 0 8 8 8 8 0 0 0 8-8 8 8 0 0 0-8-8zm0 1a7 7 0 0 1 7 7 7 7 0 0 1-7 7 7 7 0 0 1-7-7 7 7 0 0 1 7-7z" fill-opacity=".5"/><circle cx="24" cy="-24" r="3.5" fill="#cdcdcd" stroke="#000" stroke-linecap="square" stroke-opacity=".5"/><circle cx="24" cy="-24" r="1" fill-opacity=".8"/><circle cx="24" cy="-24" r="3" fill-opacity=".2"/><circle cx="26" cy="-22" r="6" fill="#f15d22"/><path d="M26-28a6 6 0 0 0-6 6 6 6 0 0 0 6 6 6 6 0 0 0 6-6 6 6 0 0 0-6-6zm0 1a5 5 0 0 1 5 5 5 5 0 0 1-5 5 5 5 0 0 1-5-5 5 5 0 0 1 5-5z" fill-opacity=".5"/><path d="M25.919-19.844a.893.893 0 0 1-.903-.883c0-.456.29-.777.788-.878.498-.101 1.012-.34 1.3-.726.109.363.162.746.162 1.137a1.35 1.35 0 0 1-1.347 1.35M26.423-25s.208.745.208 1.35c0 .58-.38 1.05-.96 1.05-.582 0-1.02-.47-1.02-1.05l.007-.104a3.875 3.875 0 0 0-.908 2.503A2.25 2.25 0 0 0 26-19a2.25 2.25 0 0 0 2.25-2.25c0-1.519-.728-2.869-1.828-3.75z" fill="#fff"/></g></svg>