<svg enable-background="new" version="1.0" viewBox="0 0 16 16" xmlns="http://www.w3.org/2000/svg"><defs><filter id="a" x="0" y="0" width="1" height="1" color-interpolation-filters="sRGB"><feBlend in2="BackgroundImage" mode="darken"/></filter></defs><g filter="url(#a)" transform="translate(-16 -268)"><rect x="18" y="269" width="13" height="14" ry="2.5" fill="#5c0b2a"/><rect x="19" y="270" width="11" height="12" ry="2" fill="#ad154f"/><path d="M22.5 272c-.277 0-.43.232-.5.5v.5h-1.5c-.277 0-.5.223-.5.5v5c0 .277.223.5.5.5H22v.5a.499.499 0 1 0 1 0v-.5h1v.5c0 .277.223.5.5.5s.55-.227.5-.5v-.5h1v.5a.499.499 0 1 0 1 0v-.5h1.5c.277 0 .5-.223.5-.5v-5c0-.277-.223-.5-.5-.5H27v-.5c0-.277-.223-.5-.5-.5s-.58.235-.5.5v.5h-1v-.5c0-.277-.223-.5-.5-.5s-.447.228-.5.5v.5h-1v-.5c0-.277-.223-.5-.5-.5zm-1.5 2h7v1a1 1 0 0 0 0 2v1h-7z" enable-background="new" fill="#fff"/></g></svg>