<svg version="1.0" viewBox="0 0 16 16" xmlns="http://www.w3.org/2000/svg"><g fill="#306ab8"><path d="M4.5 8.273h1.615V7.196L4.668 7.2c-.116-.002-.172-.028-.167-.17L4.5 5.85h1.885V4.773c-1.005.071-1.954.197-2.961.27v5.653c.986.117 1.973.42 2.961.538V9.888c-.597-.052-1.302-.219-1.885-.27zm3.517 6.73c-2.613-.485-4.405-.995-7.017-1.48V2.483C3.602 2 5.381 1.488 8 1.003v13.999"/><path d="M12.503 7.312c.14.105.281.205.416.312.1.079.171.05.248-.037.215-.245.582-.486.801-.727.072-.079.09-.17.09-.276-.002-.649-.001-1.298.002-1.947 0-.2-.121-.385-.319-.384-.602.002-1.013.001-1.615 0-.136 0-.294.139-.383.24-.698.797-1.3 1.663-1.788 2.616-.077.15-.047.242.067.279.553-.557 1.104-1.075 1.611-1.637.274-.303.303-.427.7-.404.595.034.58.009.602.638.016.489.028.957-.42 1.273-.004.003-.003.014-.012.054zm.466 3.346c-.28 0-.349.003-.609 0-.407-.004-1.003-.415-1.033-.437l-.313.425c-.087.107-.056.19.036.277.22.207.438.415.65.632.097.099.214.197.348.197.594 0 1.099.006 1.693 0 .278-.003.316-.128.316-.413 0-.565-.01-1.129.005-1.693a.677.677 0 0 0-.236-.567c-.749-.661-1.427-1.273-2.298-1.753-.143-.079-.25-.089-.332.138.054.045.13.096.194.16.546.557.84 1.116 1.383 1.675.067.07.195.152.196.266v1.093zM8.998 11.71c.43.046.63-.278.852-.566.571-.742 1.121-1.5 1.513-2.361-.04-.078-.083-.137-.147-.153-.362.368-.72.726-1.073 1.088-.264.272-.526.546-.783.825-.097.104-.2.152-.354.11v-2.37c.257.147.495.286.735.419.168.093.174.088.302-.096-.306-.32-.612-.642-.921-.963-.07-.071-.132-.137-.131-.254.004-.664.002-1.328.002-2.023.187.005.371-.078.534.067.134.119.258.25.396.384.151-.149.242-.326.354-.486.058-.084.012-.143-.046-.2-.244-.238-.488-.475-.731-.714-.142-.14-.331-.04-.499-.106V3.003l5.16-.005c.588 0 .839.266.839.876v8.184c0 .703-.236.945-.912.944H9.001"/></g></svg>