<svg version="1.0" viewBox="0 0 16 16" xmlns="http://www.w3.org/2000/svg"><g transform="translate(-16 -268)"><rect x="16" y="268" width="16" height="16" ry="8" fill="#1f285a"/><rect x="17" y="269" width="14" height="14" ry="7" fill="#3f51b5"/><path d="M24 269c-1.108 0-2.15.262-3.08.717A5 8 0 0 0 19.045 275h-1.967c-.047.328-.078.66-.078 1s.031.672.078 1h1.967a5 8 0 0 0 1.871 5.281 6.985 6.985 0 0 0 6.164.002A5 8 0 0 0 28.955 277h1.967c.047-.328.078-.66.078-1s-.031-.673-.078-1h-1.967a5 8 0 0 0-1.871-5.281A6.985 6.985 0 0 0 24 269zm-1 1.35V275h-1.953A3 6 0 0 1 23 270.35zm2 .002A3 6 0 0 1 26.959 275H25zM21.041 277H23v4.648A3 6 0 0 1 21.041 277zM25 277h1.953A3 6 0 0 1 25 281.65z" fill="#94a6ff"/></g></svg>