<svg version="1.0" viewBox="0 0 16 16" xmlns="http://www.w3.org/2000/svg"><g transform="translate(-16 -268)"><rect x="101" y="253" width="30" height="31" ry="15" fill="#1f285a"/><rect x="102" y="254" width="28" height="28" ry="14" fill="#3f51b5"/><path d="M116 254c-1.838 0-3.586.361-5.191 1h1.213a8 15 0 0 0-2.786 5h-4.73c-.438.63-.817 1.3-1.149 2h5.32a8 15 0 0 0-.66 5h-5.966c-.024.332-.051.662-.051 1s.027.668.05 1h5.975a8 15 0 0 0 .647 5h-5.315c.332.7.71 1.37 1.149 2h4.736a8 15 0 0 0 2.787 5h-1.22c1.605.638 3.353 1 5.19 1s3.587-.361 5.192-1h-1.213a8 15 0 0 0 2.786-5h4.73c.438-.63.817-1.3 1.148-2h-5.32a8 15 0 0 0 .66-5h5.967c.023-.332.05-.662.05-1s-.027-.668-.05-1h-5.975a8 15 0 0 0-.646-5h5.314c-.33-.7-.71-1.37-1.148-2h-4.736a8 15 0 0 0-2.787-5h1.22c-1.605-.638-3.353-1-5.191-1zm-1 1.184V260h-3.72a6 13 0 0 1 3.72-4.816zm2 .013a6 13 0 0 1 3.727 4.803H117zM110.684 262H115v5h-4.977a6 13 0 0 1 .66-5zm6.316 0h4.32a6 13 0 0 1 .66 5H117zm-6.98 7H115v5h-4.32a6 13 0 0 1-.66-5zm6.98 0h4.977a6 13 0 0 1-.66 5H117zm-5.727 7H115v4.803a6 13 0 0 1-3.727-4.803zm5.727 0h3.72a6 13 0 0 1-3.72 4.816z" fill="#94a6ff"/><rect x="158" y="238" width="44" height="46" ry="22" fill="#1f285a"/><rect x="159" y="239" width="42" height="42" ry="21" fill="#3f51b5"/><rect x="226" y="222" width="60" height="62" ry="30" fill="#1f285a"/><rect x="316" y="160" width="120" height="123" ry="60" fill="#1f285a"/><rect x="472" y="36" width="240" height="243" ry="120" fill="#1f285a"/><rect x="227" y="223" width="58" height="58" ry="29" fill="#3f51b5"/><rect x="317" y="161" width="118" height="118" ry="59" fill="#3f51b5"/><rect x="473" y="37" width="238" height="238" ry="117.87" fill="#3f51b5"/><rect x="16" y="268" width="16" height="16" ry="8" fill="#1f285a"/><rect x="56" y="260" width="24" height="24" ry="12" fill="#1f285a"/><rect x="57" y="261" width="22" height="22" ry="11" fill="#3f51b5"/><rect x="17" y="269" width="14" height="14" ry="7" fill="#3f51b5"/><path d="M180 239c-3.318 0-6.439.782-9.223 2.14a18 22 0 0 0-5.857 6.86h-2.162a20.91 20.91 0 0 0-1.242 2h2.453a18 22 0 0 0-1.94 9h-3.004c-.015.331-.025.665-.025 1s.01.669.025 1h3.016a18 22 0 0 0 1.947 9h-2.472c.374.693.794 1.357 1.242 2h2.176a18 22 0 0 0 5.955 6.912A20.957 20.957 0 0 0 180 281c3.318 0 6.439-.782 9.223-2.14a18 22 0 0 0 5.857-6.86h2.162a20.91 20.91 0 0 0 1.242-2h-2.453a18 22 0 0 0 1.94-9h3.004c.015-.331.025-.665.025-1s-.01-.669-.025-1h-3.016a18 22 0 0 0-1.947-9h2.472a20.911 20.911 0 0 0-1.242-2h-2.176a18 22 0 0 0-5.955-6.912A20.957 20.957 0 0 0 180 239zm1 1.133a9 20 0 0 1 6.19 7.867H181zm-2 .015V248h-6.186a9 20 0 0 1 6.186-7.852zm-4.807 1.217a11 22 0 0 0-3.408 6.635h-3.56a16 20 0 0 1 6.968-6.635zm11.627.026a16 20 0 0 1 6.96 6.609h-3.573a11 22 0 0 0-3.387-6.61zM166.16 250h4.043a11 22 0 0 0-1.185 9h-4.977a16 20 0 0 1 2.12-9zm6.055 0H179v9h-7.976a9 20 0 0 1 1.191-9zm8.785 0h6.782a9 20 0 0 1 1.203 9H181zm8.786 0h4.048a16 20 0 0 1 2.137 9h-4.996a11 22 0 0 0-1.19-9zm-25.756 11h4.996a11 22 0 0 0 1.189 9h-4.049a16 20 0 0 1-2.136-9zm6.986 0H179v9h-6.781a9 20 0 0 1-1.203-9zm9.984 0h7.977a9 20 0 0 1-1.192 9H181zm9.983 0h4.976a16 20 0 0 1-2.119 9h-4.043a11 22 0 0 0 1.186-9zm-23.762 11h3.572a11 22 0 0 0 3.387 6.61 16 20 0 0 1-6.96-6.61zm5.59 0H179v7.867a9 20 0 0 1-6.19-7.867zm8.189 0h6.185a9 20 0 0 1-6.185 7.852zm8.215 0h3.56a16 20 0 0 1-6.969 6.635 11 22 0 0 0 3.409-6.635z" fill="#94a6ff"/><path d="M68 261c-1.5 0-2.926.299-4.227.838A8 12 0 0 0 62.05 264h-1.6a10.986 10.986 0 0 0-1.674 2h2.307a8 12 0 0 0-1.053 5h-2.98c-.03.33-.051.662-.051 1s.021.67.05 1h2.983a8 12 0 0 0 1.047 5h-2.303a10.99 10.99 0 0 0 1.674 2h1.598a8 12 0 0 0 1.715 2.158A11.01 11.01 0 0 0 68 283c1.5 0 2.926-.299 4.226-.838A8 12 0 0 0 73.951 280h1.598a10.986 10.986 0 0 0 1.674-2h-2.307a8 12 0 0 0 1.053-5h2.98c.03-.33.051-.662.051-1s-.021-.67-.05-1h-2.983a8 12 0 0 0-1.047-5h2.303a10.987 10.987 0 0 0-1.674-2H73.95a8 12 0 0 0-1.715-2.158A11.01 11.01 0 0 0 68 261zm-1 1.14V264h-2.59a6 10 0 0 1 2.59-1.86zm2 .01a6 10 0 0 1 2.588 1.85H69zM63.209 266H67v5h-4.97a6 10 0 0 1 1.179-5zM69 266h3.793a6 10 0 0 1 1.17 5H69zm-6.963 7H67v5h-3.793a6 10 0 0 1-1.17-5zM69 273h4.97a6 10 0 0 1-1.179 5H69zm-4.588 7H67v1.85a6 10 0 0 1-2.588-1.85zM69 280h2.59a6 10 0 0 1-2.59 1.86z" fill="#94a6ff"/><path d="M256 223c-2.626 0-5.166.352-7.582 1h.467a20 30 0 0 0-9.338 11h-7.066a28.888 28.888 0 0 0-1.329 2h7.555a20 30 0 0 0-2.683 14h-8.998c-.012.333-.026.664-.026 1s.014.667.026 1h9.007a20 30 0 0 0 2.668 14h-7.548c.414.687.86 1.352 1.328 2h7.045a20 30 0 0 0 9.304 11h-.412a29.224 29.224 0 0 0 15.164 0h-.467a20 30 0 0 0 9.338-11h7.067c.468-.648.913-1.313 1.328-2h-7.555a20 30 0 0 0 2.684-14h8.998c.01-.333.025-.664.025-1s-.014-.667-.025-1h-9.008a20 30 0 0 0-2.668-14h7.549a28.917 28.917 0 0 0-1.329-2h-7.044a20 30 0 0 0-9.305-11h.412c-2.416-.648-4.956-1-7.582-1zm1 1.246A8 28 0 0 1 262.35 235H257zm-2 .01V235h-5.346A8 28 0 0 1 255 224.256zm5.191.547A18 28 0 0 1 270.285 235h-6.047a10 30 0 0 0-4.046-10.197zm-8.386.002A10 30 0 0 0 247.773 235h-6.048a18 28 0 0 1 10.08-10.195zM240.825 237h6.529a10 30 0 0 0-1.342 14h-7.98a18 28 0 0 1 2.793-14zm8.43 0H255v14h-6.987a8 28 0 0 1 1.24-14zm7.746 0h5.753a8 28 0 0 1 1.237 14H257zm7.65 0h6.543a18 28 0 0 1 2.783 14h-7.994a10 30 0 0 0-1.332-14zm-26.627 16h7.994a10 30 0 0 0 1.332 14h-6.543a18 28 0 0 1-2.783-14zm9.986 0H255v14h-5.754a8 28 0 0 1-1.236-14zm8.99 0h6.987a8 28 0 0 1-1.24 14H257zm8.989 0h7.98a18 28 0 0 1-2.793 14h-6.53a10 30 0 0 0 1.343-14zm-24.273 16h6.047a10 30 0 0 0 4.046 10.197A18 28 0 0 1 241.715 269zm7.935 0h5.35v10.754A8 28 0 0 1 249.65 269zm7.35 0h5.346A8 28 0 0 1 257 279.744zm7.226 0h6.05a18 28 0 0 1-10.08 10.195 10 30 0 0 0 4.03-10.195z" fill="#94a6ff"/><path d="M376 161c-.708 0-1.41.028-2.111.053h-.004c-.565.02-1.129.044-1.69.08-.009 0-.018 0-.027.002-.193.012-.384.03-.576.045a58.23 58.23 0 0 0-5.873.725 41.997 41.997 0 0 0-.479.084c-.013.001-.026.004-.039.007-.628.116-1.254.238-1.875.373a58.774 58.774 0 0 0-6.225 1.72c-9.206 5.001-16.95 13.537-22.15 24.411h-8.882l-.008.014c-.383.607-.753 1.22-1.114 1.842l-.02.033-.116.205-.018.031a58.103 58.103 0 0 0-1.027 1.865l-.004.006-.002.004h9.402c-3.141 7.927-4.884 16.63-5.106 25.5H317.05c-.022.666-.05 1.33-.05 2s.028 1.335.05 2h11.027c.231 8.874 1.984 17.576 5.135 25.5h-9.453a57.876 57.876 0 0 0 1.033 1.875c.007.01.012.021.018.032.04.068.078.137.117.205l.02.033c.36.621.73 1.235 1.113 1.842l.004.006a.03.03 0 0 0 .004.008h8.897c5.079 10.7 12.622 19.16 21.607 24.234 0 0 .003 0 .004.002h.002a.202.202 0 0 1 .021.008l.04.011c.96.332 1.934.64 2.917.922l.155.043c.987.28 1.984.537 2.992.768.005 0 .009.003.013.004l.414.094c.635.14 1.273.27 1.915.39h.002c.133.025.267.047.4.07a59.066 59.066 0 0 0 6.174.776c.154.011.307.025.46.035.629.041 1.26.07 1.893.092.674.022 1.346.05 2.026.05.708 0 1.409-.028 2.111-.052h.004a60.8 60.8 0 0 0 1.69-.08l.027-.002c.193-.012.384-.031.576-.045.994-.073 1.98-.17 2.959-.291a58.23 58.23 0 0 0 2.914-.434l.104-.017.375-.067.039-.008a58.805 58.805 0 0 0 1.875-.373 58.774 58.774 0 0 0 6.224-1.718c9.206-5.003 16.951-13.538 22.15-24.412h8.883l.004-.008.004-.006c.382-.607.753-1.221 1.113-1.842l.155-.27c.352-.615.696-1.236 1.027-1.865l.004-.006.002-.004h-9.402c3.141-7.927 4.883-16.629 5.105-25.5h11.005c.022-.665.051-1.33.051-2s-.029-1.335-.05-2H423.92c-.23-8.874-1.983-17.576-5.135-25.5h9.454l-.002-.004-.004-.006c-.331-.63-.675-1.25-1.028-1.865l-.154-.27c-.36-.62-.731-1.235-1.113-1.842l-.004-.006-.004-.008h-8.897c-5.08-10.7-12.622-19.16-21.607-24.234-.002 0-.004 0-.006-.002a.202.202 0 0 1-.021-.008l-.04-.011a57.808 57.808 0 0 0-2.918-.922c-.05-.015-.102-.028-.154-.043a59.687 59.687 0 0 0-2.992-.768c-.005 0-.009-.003-.014-.004-.138-.031-.275-.063-.414-.093a60.018 60.018 0 0 0-1.914-.391h-.002c-.133-.025-.267-.046-.4-.07a59.066 59.066 0 0 0-6.174-.776c-.154-.01-.307-.025-.461-.035-.628-.04-1.26-.07-1.893-.092-.672-.022-1.345-.05-2.024-.05zm2 2.291c5.963 1.72 11.342 10.972 14.654 25.209H378zm-4 .037V188.5h-14.654c3.315-14.223 8.693-23.46 14.654-25.172zm11.906 1.194c10.924 3.296 20.464 11.874 26.67 23.979h-16.078c-2.5-10.524-6.191-18.882-10.592-23.98zm-19.848.025c-4.4 5.09-8.092 13.439-10.594 23.953h-16.066c6.207-12.092 15.743-20.66 26.66-23.953zM337.499 192.5h17.117c-1.587 7.917-2.474 16.62-2.6 25.5h-19.939c.24-8.933 2.097-17.668 5.422-25.5zm20.986 0h15.514V218h-17.965c.104-8.93.944-17.665 2.451-25.5zm19.514 0h15.494c1.517 7.828 2.367 16.563 2.48 25.5h-17.975zm19.377 0h17.08c3.356 7.822 5.242 16.558 5.508 25.5h-20.006c-.12-8.877-1.001-17.58-2.582-25.5zM332.034 222h20.006c.12 8.876 1.001 17.579 2.582 25.5h-17.08c-3.356-7.822-5.242-16.558-5.508-25.5zm23.99 0h17.975v25.5h-15.494c-1.517-7.828-2.367-16.563-2.48-25.5zm21.975 0h17.965c-.104 8.93-.944 17.665-2.451 25.5h-15.514zm21.982 0h19.939c-.239 8.933-2.096 17.668-5.422 25.5h-17.117c1.587-7.917 2.474-16.62 2.6-25.5zm-60.559 29.5H355.5c2.5 10.523 6.191 18.88 10.592 23.979-10.924-3.297-20.464-11.874-26.67-23.98zm19.922 0h14.654v25.209c-5.963-1.72-11.342-10.972-14.654-25.21zm18.654 0h14.654c-3.315 14.223-8.693 23.46-14.654 25.172zm18.535 0h16.066c-6.207 12.092-15.743 20.66-26.66 23.953 4.4-5.09 8.092-13.44 10.594-23.953z" fill="#94a6ff"/><path d="M592 37.999c-1.417 0-2.818.056-4.223.105h-.008c-1.13.04-2.257.09-3.379.16l-.054.005c-.386.024-.768.061-1.153.09-1.987.146-3.96.34-5.918.581-1.958.242-3.901.53-5.828.868l-.207.035c-.25.043-.5.087-.75.133l-.078.015c-1.256.231-2.508.476-3.75.746a117.553 117.553 0 0 0-12.45 3.438c-18.411 10.005-33.901 27.076-44.3 48.824h-17.766c-.006.008-.01.018-.016.027a118.682 118.682 0 0 0-2.227 3.684l-.039.066c-.079.136-.156.274-.234.41l-.035.063a116.005 116.005 0 0 0-2.055 3.73l-.008.012-.004.008h18.805c-6.283 15.854-9.767 33.258-10.211 51H474.1c-.044 1.331-.102 2.659-.102 4s.058 2.67.102 4h22.055c.462 17.747 3.967 35.152 10.27 51h-18.906a115.927 115.927 0 0 0 2.067 3.75l.035.063c.078.137.155.274.234.41a118.565 118.565 0 0 0 2.266 3.75l.008.012a.06.06 0 0 0 .008.016h17.793c10.159 21.4 25.243 38.32 43.215 48.47.002 0 .006.001.008.003h.004c.014.004.028.01.043.016.025.008.052.014.078.024 1.922.663 3.87 1.28 5.836 1.843.103.03.206.057.309.086 1.975.561 3.968 1.074 5.984 1.536l.027.008a117.974 117.974 0 0 0 4.656.969h.005c.266.049.534.092.8.14a118.165 118.165 0 0 0 12.348 1.55c.308.023.614.05.922.07 1.256.083 2.518.142 3.785.184 1.348.046 2.692.102 4.05.102 1.417 0 2.82-.056 4.224-.105h.008c1.13-.04 2.257-.09 3.378-.16l.055-.005c.386-.024.768-.061 1.152-.09 1.988-.146 3.96-.34 5.918-.581a116.42 116.42 0 0 0 5.828-.868l.207-.035c.25-.044.501-.087.75-.133.027-.004.052-.01.079-.016 1.256-.23 2.508-.475 3.75-.746a117.553 117.553 0 0 0 12.449-3.437C648.21 257.82 663.7 240.749 674.099 219h17.766c.004-.004.004-.01.008-.016l.008-.012a118.682 118.682 0 0 0 2.227-3.684c.104-.179.205-.36.308-.539.705-1.23 1.393-2.472 2.055-3.73l.008-.012.004-.008h-18.805c6.282-15.854 9.767-33.258 10.21-51H709.9c.044-1.331.101-2.658.101-4s-.057-2.67-.101-4h-22.055c-.462-17.747-3.967-35.152-10.27-51h18.906l-.004-.008c-.002-.004-.006-.006-.008-.012a115.956 115.956 0 0 0-2.055-3.73l-.308-.54a118.565 118.565 0 0 0-2.227-3.683l-.008-.012c-.004-.004-.004-.01-.008-.016H674.07c-10.159-21.4-25.243-38.32-43.215-48.47l-.012-.003a.405.405 0 0 1-.043-.016c-.026-.008-.053-.014-.078-.024-1.922-.663-3.87-1.28-5.836-1.844-.103-.03-.206-.056-.309-.085a119.412 119.412 0 0 0-5.984-1.536l-.028-.007c-.275-.063-.55-.127-.828-.188-1.268-.28-2.544-.542-3.828-.781h-.004c-.266-.05-.534-.093-.8-.14a118.165 118.165 0 0 0-12.348-1.552c-.308-.022-.614-.05-.922-.07-1.256-.082-2.518-.14-3.785-.184-1.346-.043-2.69-.1-4.05-.1zm4 4.582c11.927 3.44 22.684 21.944 29.309 50.418H596zm-8 .074V93h-29.309c6.63-28.445 17.386-46.92 29.309-50.344zm23.812 2.387c21.849 6.593 40.928 23.748 53.34 47.957h-32.156c-4.999-21.045-12.383-37.761-21.184-47.957zm-39.695.05c-8.8 10.182-16.184 26.879-21.188 47.907h-32.133c12.414-24.185 31.485-41.32 53.32-47.906zM515 101h34.234c-3.174 15.835-4.948 33.24-5.2 51h-39.878c.478-17.866 4.192-35.337 10.844-51zm41.973 0H588v51h-35.93c.209-17.86 1.888-35.33 4.902-51zM596 101h30.988c3.034 15.656 4.734 33.126 4.96 51H596zm38.754 0h34.16c6.711 15.644 10.485 33.116 11.016 51h-40.012c-.24-17.753-2.003-35.158-5.164-51zm-130.68 59h40.012c.24 17.753 2.002 35.158 5.164 51h-34.16c-6.711-15.644-10.485-33.116-11.016-51zm47.98 0h35.949v51h-30.988c-3.035-15.656-4.734-33.126-4.96-51zm43.949 0h35.93c-.209 17.86-1.888 35.33-4.902 51h-31.027zm43.965 0h39.879c-.478 17.866-4.192 35.337-10.844 51h-34.234c3.174-15.835 4.948-33.24 5.2-51zm-121.12 59h32.156c4.999 21.045 12.383 37.76 21.184 47.957-21.849-6.594-40.928-23.748-53.34-47.957zm39.844 0h29.309v50.418c-11.927-3.44-22.684-21.944-29.309-50.418zm37.309 0h29.309c-6.63 28.445-17.386 46.92-29.309 50.344zm37.07 0h32.133c-12.414 24.185-31.485 41.319-53.32 47.906 8.8-10.181 16.184-26.878 21.188-47.906z" fill="#94a6ff"/><path d="M24 269c-1.108 0-2.15.262-3.08.717A5 8 0 0 0 19.045 275h-1.967c-.047.328-.078.66-.078 1s.031.672.078 1h1.967a5 8 0 0 0 1.871 5.281 6.985 6.985 0 0 0 6.164.002A5 8 0 0 0 28.955 277h1.967c.047-.328.078-.66.078-1s-.031-.673-.078-1h-1.967a5 8 0 0 0-1.871-5.281A6.985 6.985 0 0 0 24 269zm-1 1.35V275h-1.953A3 6 0 0 1 23 270.35zm2 .002A3 6 0 0 1 26.959 275H25zM21.041 277H23v4.648A3 6 0 0 1 21.041 277zM25 277h1.953A3 6 0 0 1 25 281.65z" fill="#94a6ff"/></g></svg>