<svg version="1.0" viewBox="0 0 16 16" xmlns="http://www.w3.org/2000/svg"><g transform="translate(-16 -268)"><rect x="17" y="270" width="14" height="13" ry="2" fill="#a27100"/><rect x="17" y="269" width="14" height="13" ry="2" fill="#ffce51"/><path d="M19 282h10c1.108 0 2-.892 2-2l-7-7-7 7c0 1.108.892 2 2 2z" fill="#c29a32"/><path d="M31 271v1l-7 7-7-7v-1z" fill-opacity=".314"/><path d="M19 269h10c1.108 0 2 .892 2 2l-7 7-7-7c0-1.108.892-2 2-2z" fill="#ffee7d"/><rect x="17.5" y="269.5" width="13" height="12" ry="1.5" fill="none" stroke="#303030" stroke-linecap="round" stroke-linejoin="round" stroke-opacity=".392"/></g></svg>