<svg version="1.0" viewBox="0 0 16 16" xmlns="http://www.w3.org/2000/svg"><g transform="translate(-16 -268)"><path d="M24 268a8 8 0 0 0-3.853 1H18.5c-.831 0-1.5.669-1.5 1.5v1.629A8 8 0 0 0 16 276a8 8 0 0 0 1 3.853v1.647c0 .831.669 1.5 1.5 1.5h1.629A8 8 0 0 0 24 284a8 8 0 0 0 3.853-1H29.5c.831 0 1.5-.669 1.5-1.5v-1.629A8 8 0 0 0 32 276a8 8 0 0 0-1-3.853V270.5c0-.831-.669-1.5-1.5-1.5h-1.629A8 8 0 0 0 24 268z" fill="#565656"/><circle cx="24" cy="276" r="7" fill="#acacac"/><rect x="18" y="270" width="12" height="12" ry="1" fill="#acacac"/><circle cx="24" cy="276" r="6" fill="#333"/><circle cx="24" cy="276" r="5" fill="#faa41a"/><circle cx="24" cy="276" r="2" fill="#333"/></g></svg>