<svg version="1.0" viewBox="0 0 16 16" xmlns="http://www.w3.org/2000/svg"><g transform="translate(-16 -268)"><rect x="17" y="269" width="15" height="14" ry="2" fill="#782e11"/><rect x="18" y="270" width="13" height="12" ry="1.5" fill="#f15d22"/><path d="M19.5 270c-.831 0-1.5.669-1.5 1.5v1.5h13v-1.5c0-.831-.669-1.5-1.5-1.5z"/><path d="m20 270-2 3h2l2-3z" fill="#f7f7f7"/><path d="m24 270-2 3h2l2-3z" fill="#f7f7f7"/><path d="m28 270-2 3h2l1.96-2.92a1.487 1.487 0 0 0-.46-.08z" fill="#f7f7f7"/><path d="M21.964 273.97a1 1 0 0 0-.996.941h-.002v.026l-.002.033c0 .023 0 .047.002.07v5a1 1 0 0 0 1.422.905l.002.002.025-.014.004-.002a.942.942 0 0 0 .088-.049l4.912-2.45.01-.005v-.002a1 1 0 0 0 .033-1.752l-.018-.01s-.003 0-.004-.002l-4.991-2.566h-.002a1.01 1.01 0 0 0-.483-.125z" fill="#fff"/></g></svg>