<svg version="1.0" viewBox="0 0 16 16" xmlns="http://www.w3.org/2000/svg"><g transform="translate(-16 -268)"><rect x="16" y="269" width="16" height="14" ry="4" fill="#245c63"/><rect x="18" y="271" width="12" height="10" ry="2" fill="#fbfefe" stroke="#48b9c7" stroke-linecap="round" stroke-width="2"/><path d="M20 273v4l1.5-1.5L23 277l2.5-2.5L28 277v-4z" fill="#1c8d9b" opacity=".5"/><path d="m24 275 4 4h-8z" fill="#1c8d9b"/><rect x="21" y="274" width="11" height="10" ry="1.5" fill="#671d00"/><rect x="22" y="275" width="9" height="8" ry="1" fill="#cf3b00"/><path d="M26.5 276.5a4.47 4.5 0 0 0-4 2.505 4.47 4.5 0 0 0 4 2.495 4.47 4.5 0 0 0 4-2.505 4.47 4.5 0 0 0-4-2.495zm0 .5a2 2 0 0 1 2 2 2 2 0 0 1-2 2 2 2 0 0 1-2-2 2 2 0 0 1 2-2zm0 1a1 1 0 0 0-1 1 1 1 0 0 0 1 1 1 1 0 0 0 1-1 1 1 0 0 0-1-1z" fill="#fff"/></g></svg>