<svg version="1.0" viewBox="0 0 16 16" xmlns="http://www.w3.org/2000/svg"><path d="m24 271.42-1.08.088c-3.22.259-5.629 2.818-5.629 2.818l-.434.438.194.584s1.478 4.49 5.855 4.902l1.094.104v-6.172z" clip-rule="evenodd" color="#000" fill="#626b26" fill-rule="evenodd" style="font-feature-settings:normal;font-variant-alternates:normal;font-variant-caps:normal;font-variant-east-asian:normal;font-variant-ligatures:normal;font-variant-numeric:normal;font-variant-position:normal;font-variation-settings:normal;inline-size:0;isolation:auto;mix-blend-mode:normal;shape-margin:0;shape-padding:0;text-decoration-color:#000;text-decoration-line:none;text-decoration-style:solid;text-indent:0;text-orientation:mixed;text-transform:none;white-space:normal" transform="translate(-16 -268)"/><path d="M6 2v12h8.5c.831 0 1.5-.669 1.5-1.5v-9c0-.831-.669-1.5-1.5-1.5z" fill="#626b26"/><path d="M7 3v1.5c.08-.006.171.002.25 0 3.069-.104 5.093 2.528 5.093 2.528S10.046 9.82 7.654 9.82c-.22 0-.46-.035-.654-.069v.75c.165.02.372.044.55.044 2.226 0 3.836-1.137 5.395-2.481.26.206 1.32.709 1.536.93C13 10.233 9.583 11.25 7.625 11.25c-.189 0-.447.017-.625 0V13h7.5c.277 0 .5-.223.5-.5v-9c0-.277-.223-.5-.5-.5z" clip-rule="evenodd" fill="#c4d64d" fill-rule="evenodd"/><path d="M7.482 5.96c1.414 0 2.252 1.1 2.252 1.1l-1.149.968C8.07 7.168 7.86 6.855 7 6.75v2.375c.21.07.468.11.69.108 1.676 0 3.24-2.171 3.24-2.171S9.457 5.182 7.25 5.25c-.08.002-.171-.007-.25 0V6c.144-.015.328-.041.482-.041z" clip-rule="evenodd" fill="#c4d64d" fill-rule="evenodd"/><path d="M3.379 7.17s1.185-1.731 3.62-1.916v-.75c-2.698.217-5 2.528-5 2.528s1.288 3.872 5 4.222v-.75C4.277 10.162 3.38 7.17 3.38 7.17z" clip-rule="evenodd" fill="#c4d64d" fill-rule="evenodd"/><path d="M5.499 7.39s.64-.74 1.501-.635v-.75c-1.642.178-2.594 1.258-2.594 1.258S4.941 9.388 7 9.755V9.13c-1.16-.39-1.5-1.74-1.5-1.74z" clip-rule="evenodd" fill="#c4d64d" fill-rule="evenodd"/></svg>