<svg version="1.0" viewBox="0 0 16 16" xmlns="http://www.w3.org/2000/svg"><g transform="translate(-16 -268)"><rect x="16" y="269" width="16" height="15" ry="1.5" fill="#245c63"/><rect x="17" y="270" width="14" height="13" ry="1" fill="#dedede"/><rect x="125" y="258" width="3" height="3" ry="1" fill="#faa41a" transform="translate(-96 13)"/><rect x="29" y="273" width="3" height="3" ry="1" fill="#73c48f"/><rect x="29" y="275" width="3" height="3" ry="1" fill="#b84acb"/><rect x="29" y="277" width="3" height="3" ry="1" fill="#f15d22"/><rect x="16" y="268" width="14" height="13" ry="1.5" fill="#245c63"/><rect x="17" y="269" width="12" height="11" ry="1" fill="#48b9c7"/><path d="M18 269c-.554 0-1 .446-1 1v12c0 .554.446.992 1 1h1v-14z" fill="#16393e"/><path d="M24 271a4 4 0 0 1 4 4v.5a1.5 1.5 0 0 1-2.648.965A1.987 1.987 0 0 1 24 277a2 2 0 1 1 2-2v.5a.5.5 0 0 0 1 0v-.5a3 3 0 1 0-3 3h2.5s.5 0 .5.5c-.031.5-.5.5-.5.5H24a4 4 0 0 1 0-8zm0 3a1 1 0 1 0 0 2 1 1 0 0 0 0-2z" fill-opacity=".196"/><path d="M24 270a4 4 0 0 1 4 4v.5a1.5 1.5 0 0 1-2.648.965A1.987 1.987 0 0 1 24 276a2 2 0 1 1 2-2v.5a.5.5 0 0 0 1 0v-.5a3 3 0 1 0-3 3h2.5s.5 0 .5.5c-.031.5-.5.5-.5.5H24a4 4 0 0 1 0-8zm0 3a1 1 0 1 0 0 2 1 1 0 0 0 0-2z" fill="#fff"/></g></svg>