<svg version="1.0" viewBox="0 0 16 16" xmlns="http://www.w3.org/2000/svg"><g transform="translate(-16 -268)"><rect x="103" y="255" width="26" height="26" ry="2" fill="#444"/><path d="M105 255c-1.108 0-2 .892-2 2v22c0 1.108.892 2 2 2h22c1.108 0 2-.892 2-2v-22c0-1.108-.892-2-2-2zm0 1h22c.554 0 1 .446 1 1v21c0 .554-.446 1-1 1h-22c-.554 0-1-.446-1-1v-21c0-.554.446-1 1-1z" fill="#fff" fill-opacity=".502"/><rect x="106" y="258" width="20" height="19" ry="1.124" fill="#cdcdcd"/><path d="M117.9 273.13a.996.996 0 0 0 1.102.068.997.997 0 0 0 .366-1.365l-1.634-2.83a2 2 0 0 0 0-.001 2 2 0 0 0 0-1.999l1.635-2.831a.999.999 0 1 0-1.732-1L116 266.005a2 2 0 0 0-1.73.997l-.001.002h-3.267a.997.997 0 0 0-1 .999c0 .554.446.999 1 .999h3.27a2 2 0 0 0 .73.733 2 2 0 0 0 .999.265l1.635 2.832a1 1 0 0 0 .263.298z" fill-opacity=".196"/><g transform="rotate(210 116 267)" fill="#656565"><circle cx="116" cy="267" r="2"/><rect x="115" y="267" width="2" height="6" ry="1"/><rect transform="rotate(240)" x="-290.23" y="-33.041" width="2" height="6" ry="1"/><rect transform="rotate(120)" x="172.23" y="-233.96" width="2" height="6" ry="1"/></g><g transform="translate(0 1)" fill-opacity=".196"><rect x="105" y="262" width="2" height="4" ry=".5"/><rect x="105" y="269" width="2" height="4" ry=".5"/></g><g fill="#ededed"><rect x="105" y="262" width="2" height="4" ry=".5"/><rect x="105" y="269" width="2" height="4" ry=".5"/></g><rect x="160" y="240" width="40" height="39" ry="3" fill="#444"/><path d="M163 240c-1.662 0-3 1.338-3 3v33c0 1.662 1.338 3 3 3h34c1.662 0 3-1.338 3-3v-33c0-1.662-1.338-3-3-3zm0 1h34c1.108 0 2 .892 2 2v31c0 1.108-.892 2-2 2h-34c-1.108 0-2-.892-2-2v-31c0-1.108.892-2 2-2z" fill="#fff" fill-opacity=".502"/><rect x="164" y="244" width="32" height="29" ry="2" fill="#cdcdcd"/><path d="M182.84 267.19a1.494 1.494 0 0 0 1.653.102c.72-.416.965-1.328.55-2.048l-2.452-4.243a3 3 0 0 0 0-.003 3 3 0 0 0 0-2.998l2.452-4.247c.415-.72.17-1.634-.55-2.05s-1.633-.17-2.048.55l-2.454 4.25a3 3 0 0 0-2.595 1.495l-.001.003h-4.901c-.831 0-1.499.668-1.499 1.499 0 .83.669 1.498 1.5 1.498h4.905a3 3 0 0 0 1.094 1.1 3 3 0 0 0 1.5.398l2.452 4.247c.104.18.24.33.394.448z" fill-opacity=".196"/><g transform="rotate(-150 157.98 328.698) scale(1.5)" fill="#656565"><circle cx="116" cy="267" r="2"/><rect x="115" y="267" width="2" height="6" ry="1"/><rect transform="rotate(240)" x="-290.23" y="-33.041" width="2" height="6" ry="1"/><rect transform="rotate(120)" x="172.23" y="-233.96" width="2" height="6" ry="1"/></g><g transform="matrix(1.5 0 0 1.5 5 -141.5)" fill-opacity=".196"><rect x="105.33" y="261.67" width="1.333" height="4" ry=".333"/><rect x="105.33" y="269.67" width="1.333" height="4" ry=".333"/></g><rect x="105.33" y="260.67" width="1.333" height="4" ry=".333" transform="matrix(1.5 0 0 1.5 5 -141)" fill="#ededed"/><rect x="105.33" y="260.67" width="1.333" height="4" ry=".333" transform="matrix(1.5 0 0 1.5 5 -129)" fill="#ededed"/><rect x="230" y="226" width="52" height="52" ry="4" fill="#444"/><rect x="236" y="232" width="40" height="38" ry="2.248" fill="#cdcdcd"/><path d="M259.79 261.26c.621.47 1.484.551 2.204.136a1.993 1.993 0 0 0 .733-2.73l-3.27-5.658a4 4 0 0 0 .003-.004 4 4 0 0 0-.002-3.998l3.269-5.662c.554-.96.228-2.178-.732-2.732s-2.178-.228-2.732.732l-3.272 5.666a4 4 0 0 0-3.46 1.994l-.002.004-6.534-.002a1.993 1.993 0 0 0-1.998 2c0 1.108.891 1.998 2 1.998h6.54a4 4 0 0 0 1.458 1.465 4 4 0 0 0 1.999.531l3.27 5.664a2 2 0 0 0 .526.596z" fill-opacity=".196"/><g transform="matrix(-1.7321 -1 1 -1.7321 189.92 828.46)" fill="#656565"><circle cx="116" cy="267" r="2"/><rect x="115" y="267" width="2" height="6" ry="1"/><rect transform="rotate(240)" x="-290.23" y="-33.041" width="2" height="6" ry="1"/><rect transform="rotate(120)" x="172.23" y="-233.96" width="2" height="6" ry="1"/></g><g transform="matrix(2 0 0 2 24 -282)" fill-opacity=".196"><rect x="105" y="262" width="2" height="4" ry=".5"/><rect x="105" y="269" width="2" height="4" ry=".5"/></g><g transform="matrix(2 0 0 2 24 -284)" fill="#ededed"><rect x="105" y="262" width="2" height="4" ry=".5"/><rect x="105" y="269" width="2" height="4" ry=".5"/></g><path d="M234 226c-2.216 0-4 1.784-4 4v44c0 2.216 1.784 4 4 4h44c2.216 0 4-1.784 4-4v-44c0-2.216-1.784-4-4-4zm0 1h44c1.662 0 3 1.338 3 3v42c0 1.662-1.338 3-3 3h-44c-1.662 0-3-1.338-3-3v-42c0-1.662 1.338-3 3-3z" fill="#fff" fill-opacity=".502"/><rect x="324" y="168" width="104" height="104" ry="8" fill="#444"/><rect x="336" y="180" width="80" height="76" ry="4.495" fill="#cdcdcd"/><path d="M383.59 237.51a3.983 3.983 0 0 0 4.408.272 3.987 3.987 0 0 0 1.465-5.46l-6.538-11.316a8 8 0 0 0 .004-.008 8 8 0 0 0-.004-7.995l6.54-11.326c1.107-1.919.454-4.356-1.465-5.464s-4.356-.455-5.464 1.464l-6.543 11.333a8 8 0 0 0-6.92 3.989l-.004.008-13.07-.004a3.986 3.986 0 0 0-3.995 3.999 3.987 3.987 0 0 0 3.999 3.995l13.08.001a8 8 0 0 0 2.918 2.93 8 8 0 0 0 3.997 1.063l6.54 11.326a4 4 0 0 0 1.053 1.194z" fill-opacity=".196"/><g transform="rotate(-150 305.854 653.782) scale(4)" fill="#656565"><circle cx="116" cy="267" r="2"/><rect x="115" y="267" width="2" height="6" ry="1"/><rect transform="rotate(240)" x="-290.23" y="-33.041" width="2" height="6" ry="1"/><rect transform="rotate(120)" x="172.23" y="-233.96" width="2" height="6" ry="1"/></g><g transform="matrix(4 0 0 4 -88 -848)" fill-opacity=".196"><rect x="105" y="262" width="2" height="4" ry=".5"/><rect x="105" y="269" width="2" height="4" ry=".5"/></g><g transform="matrix(4 0 0 4 -88 -852)" fill="#ededed"><rect x="105" y="262" width="2" height="4" ry=".5"/><rect x="105" y="269" width="2" height="4" ry=".5"/></g><path d="M332 168c-4.432 0-8 3.568-8 8v88c0 4.432 3.568 8 8 8h88c4.432 0 8-3.568 8-8v-88c0-4.432-3.568-8-8-8zm0 1h88c3.878 0 7 3.122 7 7v85c0 3.878-3.122 7-7 7h-88c-3.878 0-7-3.122-7-7v-85c0-3.878 3.122-7 7-7z" fill="#fff" fill-opacity=".502"/><rect x="488" y="52" width="208" height="208" ry="16" fill="#444"/><rect x="512" y="76" width="160" height="152" ry="8.99" fill="#cdcdcd"/><path d="M607.17 191.02a7.966 7.966 0 0 0 8.816.543 7.973 7.973 0 0 0 2.93-10.919l-13.076-22.633a16 16 0 0 0 .008-.016 16 16 0 0 0-.008-15.989l13.078-22.652c2.216-3.838.91-8.712-2.928-10.928s-8.712-.91-10.928 2.928l-13.086 22.666a16 16 0 0 0-13.84 7.978l-.009.016-26.139-.008a7.973 7.973 0 0 0-7.991 7.998 7.973 7.973 0 0 0 7.997 7.991l26.16.002a16 16 0 0 0 5.837 5.86 16 16 0 0 0 7.993 2.124l13.082 22.654a8.003 8.003 0 0 0 2.104 2.388z" fill-opacity=".196"/><g transform="rotate(-150 493.654 1187) scale(8)" fill="#656565"><circle cx="116" cy="267" r="2"/><rect x="115" y="267" width="2" height="6" ry="1"/><rect transform="rotate(240)" x="-290.23" y="-33.041" width="2" height="6" ry="1"/><rect transform="rotate(120)" x="172.23" y="-233.96" width="2" height="6" ry="1"/></g><g transform="matrix(8 0 0 8 -336 -1980)" fill-opacity=".196"><rect x="105" y="262" width="2" height="4" ry=".5"/><rect x="105" y="269" width="2" height="4" ry=".5"/></g><g transform="matrix(8 0 0 8 -336 -1988)" fill="#ededed"><rect x="105" y="262" width="2" height="4" ry=".5"/><rect x="105" y="269" width="2" height="4" ry=".5"/></g><path d="M504 52c-8.864 0-16 7.136-16 16v176c0 8.864 7.136 16 16 16h176c8.864 0 16-7.136 16-16V68c0-8.864-7.136-16-16-16zm0 1h176c8.31 0 15 6.69 15 15v172c0 8.31-6.69 15-15 15H504c-8.31 0-15-6.69-15-15V68c0-8.31 6.69-15 15-15z" fill="#fff" fill-opacity=".502"/><rect x="57" y="261" width="22" height="22" ry="2" fill="#444"/><rect x="60" y="264" width="16" height="16" ry="1" fill="#cdcdcd"/><path d="M70.897 278.13a.996.996 0 0 0 1.102.068.997.997 0 0 0 .366-1.365l-1.634-2.83a2 2 0 0 0 0-.001 2 2 0 0 0 0-1.999l1.635-2.831a.999.999 0 1 0-1.732-1l-1.636 2.833a2 2 0 0 0-1.73.997l-.001.002H64a.997.997 0 0 0-1 .999c0 .554.446.999 1 .999h3.27a2 2 0 0 0 .73.733 2 2 0 0 0 .999.265l1.635 2.832a1 1 0 0 0 .263.298z" fill-opacity=".196"/><g transform="rotate(210 93.17 275.8)" fill="#656565"><circle cx="116" cy="267" r="2"/><rect x="115" y="267" width="2" height="6" ry="1"/><rect transform="rotate(240)" x="-290.23" y="-33.041" width="2" height="6" ry="1"/><rect transform="rotate(120)" x="172.23" y="-233.96" width="2" height="6" ry="1"/></g><g transform="translate(-46 5)" fill-opacity=".196"><rect x="105" y="262" width="2" height="4" ry=".5"/><rect x="105" y="269" width="2" height="4" ry=".5"/></g><g transform="translate(-46 4)" fill="#ededed"><rect x="105" y="262" width="2" height="4" ry=".5"/><rect x="105" y="269" width="2" height="4" ry=".5"/></g><path d="M59 261c-1.108 0-2 .892-2 2v18c0 1.108.892 2 2 2h18c1.108 0 2-.892 2-2v-18c0-1.108-.892-2-2-2zm0 1h18c.554 0 1 .446 1 1v18c0 .554-.446 1-1 1H59c-.554 0-1-.446-1-1v-18c0-.554.446-1 1-1z" fill="#fff" fill-opacity=".502"/><rect x="17" y="269" width="14" height="14" ry="2" fill="#444"/><rect x="19" y="271" width="10" height="10" ry="1" fill="#cdcdcd"/><path d="M19 269c-1.108 0-2 .892-2 2v10c0 1.108.892 2 2 2h10c1.108 0 2-.892 2-2v-10c0-1.108-.892-2-2-2zm0 1h10c.554 0 1 .446 1 1v10c0 .554-.446 1-1 1H19c-.554 0-1-.446-1-1v-10c0-.554.446-1 1-1z" fill="#fff" fill-opacity=".502"/><ellipse cx="25" cy="276" rx="1.9" ry="2" fill="#656565"/><rect x="20" y="275" width="5" height="2" ry="1" fill="#656565"/><rect transform="rotate(120)" x="221.52" y="-160.65" width="5" height="2" ry="1" fill="#656565"/><rect transform="rotate(240)" x="-256.52" y="-117.35" width="5" height="2" ry="1" fill="#656565"/></g></svg>