<svg version="1.0" viewBox="0 0 16 16" xmlns="http://www.w3.org/2000/svg"><g transform="translate(-16 -268)"><rect x="17" y="269" width="14" height="14" ry="2" fill="#444"/><rect x="19" y="271" width="10" height="10" ry="1" fill="#cdcdcd"/><path d="M19 269c-1.108 0-2 .892-2 2v10c0 1.108.892 2 2 2h10c1.108 0 2-.892 2-2v-10c0-1.108-.892-2-2-2zm0 1h10c.554 0 1 .446 1 1v10c0 .554-.446 1-1 1H19c-.554 0-1-.446-1-1v-10c0-.554.446-1 1-1z" fill="#fff" fill-opacity=".502"/><ellipse cx="25" cy="276" rx="1.9" ry="2" fill="#656565"/><rect x="20" y="275" width="5" height="2" ry="1" fill="#656565"/><rect transform="rotate(120)" x="221.52" y="-160.65" width="5" height="2" ry="1" fill="#656565"/><rect transform="rotate(240)" x="-256.52" y="-117.35" width="5" height="2" ry="1" fill="#656565"/></g></svg>