<svg version="1.0" viewBox="0 0 16 16" xmlns="http://www.w3.org/2000/svg"><g transform="translate(-16 932)"><rect x="16" y="-930" width="16" height="12" ry="2" fill="#6f6f6f"/><rect x="17" y="-929" width="14" height="10" ry="1.5" fill="#dedede"/><path fill="#45454f" d="M18-928h12v8H18z"/><path fill="#48b9c7" d="M18-928h12v8H18z"/><g fill-opacity=".196"><path d="M20-926c-.554 0-1 .446-1 1v.5c0 .554.446 1 1 1h8c.554 0 1-.446 1-1v-.5c0-.554-.446-1-1-1zm7.5 1a.5.5 0 1 1 0 1 .5.5 0 0 1 0-1z"/><path d="M20-922.5c-.554 0-1 .446-1 1v.5c0 .554.446 1 1 1h8c.554 0 1-.446 1-1v-.5c0-.554-.446-1-1-1zm7.5.5a.5.5 0 1 1 0 1 .5.5 0 0 1 0-1z"/></g><g fill="#fff"><path d="M20-927c-.554 0-1 .446-1 1v.5c0 .554.446 1 1 1h8c.554 0 1-.446 1-1v-.5c0-.554-.446-1-1-1zm7.5 1a.5.5 0 1 1 0 1 .5.5 0 0 1 0-1z"/><path d="M20-923.5c-.554 0-1 .446-1 1v.5c0 .554.446 1 1 1h8c.554 0 1-.446 1-1v-.5c0-.554-.446-1-1-1zm7.5.5a.5.5 0 1 1 0 1 .5.5 0 0 1 0-1z"/></g></g></svg>