<svg version="1.0" viewBox="0 0 16 16" xmlns="http://www.w3.org/2000/svg"><g transform="translate(-752 -268)"><g transform="matrix(.25 0 0 .25 740 206.5)"><circle transform="matrix(.25 0 0 .25 4 206.5)" cx="256" cy="254" r="24" fill="#444"/><path fill="#444" d="M62 269.75h3.5v5.5H62z"/><path fill="#444" d="M68 272.5v3.5h-5.25v-3.5z"/><rect transform="matrix(.25 0 0 .25 4 206.5)" x="232" y="264" width="14" height="14" ry="2" fill="#444"/><circle transform="matrix(.25 0 0 .25 4 206.5)" cx="256" cy="254" r="12" fill="#acacac"/></g><rect x="753" y="269" width="14" height="14" ry="2" fill="#245c63"/><rect x="754" y="270" width="12" height="12" ry="1.5" fill="#48b9c7"/><g transform="translate(-250 134)"><path d="M1011 137v4h2l-3 4-3-4h2v-4z" fill="#fefeff"/><rect x="1007" y="146" width="6" height="1" ry=".467" fill="#fff"/></g></g></svg>