<svg version="1.0" viewBox="0 0 16 16" xmlns="http://www.w3.org/2000/svg"><g fill="#acacac"><path d="M3 1h3l2 2h5c1.108 0 2 .892 2 2v8c0 1.108-.892 2-2 2H3c-1.108 0-2-.892-2-2V3c0-1.108.892-2 2-2z"/><path d="M3 1.5h2.793l2 2H13c.831 0 1.5.669 1.5 1.5v8c0 .831-.669 1.5-1.5 1.5H3c-.831 0-1.5-.669-1.5-1.5V3c0-.831.669-1.5 1.5-1.5z" stroke="#000" stroke-linecap="round" stroke-opacity=".502"/></g><g transform="translate(-107 -259)"><rect x="110" y="264" width="10" height="5" ry="1.5" fill="#676767" fill-opacity=".502"/><rect x="111" y="265" width="8" height="2" ry="1" fill="#fafafa"/></g></svg>