<svg version="1.0" viewBox="0 0 16 16" xmlns="http://www.w3.org/2000/svg"><g transform="translate(-16 -268)"><rect x="103" y="255" width="26" height="26" ry="2" fill="#cf3b00"/><rect x="57" y="261" width="22" height="22" ry="2" fill="#cf3b00"/><rect x="17" y="269" width="14" height="14" ry="2" fill="#cf3b00"/><rect x="160" y="240" width="40" height="39" ry="3" fill="#cf3b00"/><rect x="230" y="226" width="52" height="52" ry="4" fill="#cf3b00"/><rect x="324" y="168" width="104" height="104" ry="8" fill="#cf3b00"/><rect x="488" y="52" width="208" height="208" ry="16" fill="#cf3b00"/><path d="M105 255c-1.108 0-2 .892-2 2v22c0 1.108.892 2 2 2h22c1.108 0 2-.892 2-2v-22c0-1.108-.892-2-2-2zm0 1h22c.554 0 1 .446 1 1v21c0 .554-.446 1-1 1h-22c-.554 0-1-.446-1-1v-21c0-.554.446-1 1-1z" fill-opacity=".502"/><path d="M59 261c-1.108 0-2 .892-2 2v18c0 1.108.892 2 2 2h18c1.108 0 2-.892 2-2v-18c0-1.108-.892-2-2-2zm0 1h18c.554 0 1 .446 1 1v18c0 .554-.446 1-1 1H59c-.554 0-1-.446-1-1v-18c0-.554.446-1 1-1z" fill-opacity=".502"/><path d="M19 269c-1.108 0-2 .892-2 2v10c0 1.108.892 2 2 2h10c1.108 0 2-.892 2-2v-10c0-1.108-.892-2-2-2zm0 1h10c.554 0 1 .446 1 1v10c0 .554-.446 1-1 1H19c-.554 0-1-.446-1-1v-10c0-.554.446-1 1-1z" fill-opacity=".502"/><path d="M163 240c-1.662 0-3 1.338-3 3v33c0 1.662 1.338 3 3 3h34c1.662 0 3-1.338 3-3v-33c0-1.662-1.338-3-3-3zm0 1h34c1.108 0 2 .892 2 2v31c0 1.108-.892 2-2 2h-34c-1.108 0-2-.892-2-2v-31c0-1.108.892-2 2-2z" fill-opacity=".502"/><path d="M234 226c-2.216 0-4 1.784-4 4v44c0 2.216 1.784 4 4 4h44c2.216 0 4-1.784 4-4v-44c0-2.216-1.784-4-4-4zm0 1h44c1.662 0 3 1.338 3 3v42c0 1.662-1.338 3-3 3h-44c-1.662 0-3-1.338-3-3v-42c0-1.662 1.338-3 3-3z" fill-opacity=".502"/><path d="M332 168c-4.432 0-8 3.568-8 8v88c0 4.432 3.568 8 8 8h88c4.432 0 8-3.568 8-8v-88c0-4.432-3.568-8-8-8zm0 1h88c3.878 0 7 3.122 7 7v85c0 3.878-3.122 7-7 7h-88c-3.878 0-7-3.122-7-7v-85c0-3.878 3.122-7 7-7z" fill-opacity=".502"/><path d="M504 52c-8.864 0-16 7.136-16 16v176c0 8.864 7.136 16 16 16h176c8.864 0 16-7.136 16-16V68c0-8.864-7.136-16-16-16zm0 1h176c8.31 0 15 6.69 15 15v173c0 8.31-6.69 15-15 15H504c-8.31 0-15-6.69-15-15V68c0-8.31 6.69-15 15-15z" fill-opacity=".502"/><path d="M178 245v20h4v-20zm0 24v4h4v-4z" fill="#fff"/><path d="M67 265v10h2v-10zm0 12v2h2v-2z" fill="#fff"/><path d="M115 258v13h3v-13zm0 16v3h3v-3z" fill="#fff"/><path d="M23 271v6h2v-6zm0 8v2h2v-2z" fill="#fff"/><path d="M254 238v20h4v-20zm0 24v4h4v-4z" fill="#fff"/><path d="M372 192v40h8v-40zm0 48v8h8v-8z" fill="#fff"/><path d="M584 100v80h16v-80zm0 96v16h16v-16z" fill="#fff"/></g></svg>