<svg version="1.0" viewBox="0 0 16 16" xmlns="http://www.w3.org/2000/svg" xmlns:xlink="http://www.w3.org/1999/xlink"><g transform="translate(-16 332)"><g id="a" transform="translate(0 -300)" fill="#cdcdcd"><rect x="228" y="534" width="56" height="44" ry="4"/><rect x="16" y="569" width="16" height="14" ry="1.5"/><rect x="102" y="559" width="28" height="22" ry="2"/><rect x="159" y="547" width="42" height="32" ry="3"/><rect x="320" y="484" width="112" height="88" ry="8"/><rect x="480" y="384" width="224" height="176" ry="16"/><rect x="56" y="562" width="24" height="20" ry="2"/></g><path d="M232 234c-2.216 0-4 1.784-4 4v36c0 2.216 1.784 4 4 4h48c2.216 0 4-1.784 4-4v-36c0-2.216-1.784-4-4-4zm.5 1h47c1.939 0 3.5 1.561 3.5 3.5v33c0 1.939-1.561 3.5-3.5 3.5h-47a3.492 3.492 0 0 1-3.5-3.5v-33c0-1.939 1.561-3.5 3.5-3.5z" fill-opacity=".502"/><path d="M17.5 269c-.831 0-1.5.669-1.5 1.5v11c0 .831.669 1.5 1.5 1.5h13c.831 0 1.5-.669 1.5-1.5v-11c0-.831-.669-1.5-1.5-1.5zm.5 1h12c.554 0 1 .446 1 1v10c0 .554-.446 1-1 1H18c-.554 0-1-.446-1-1v-10c0-.554.446-1 1-1z" fill-opacity=".502"/><rect x="105" y="262" width="22" height="15" ry="1" fill="#424242"/><rect x="232" y="238" width="48" height="34" ry="1" fill="#424242"/><path d="M162 247c-1.662 0-3 1.338-3 3v26c0 1.662 1.338 3 3 3h36c1.662 0 3-1.338 3-3v-26c0-1.662-1.338-3-3-3zm.5 1h35c1.385 0 2.5 1.115 2.5 2.5v23c0 1.385-1.115 2.5-2.5 2.5h-35a2.495 2.495 0 0 1-2.5-2.5v-23c0-1.385 1.115-2.5 2.5-2.5z" fill-opacity=".502"/><rect x="162" y="250" width="36" height="24" ry=".75" fill="#424242"/><path d="M328 184c-4.432 0-8 3.568-8 8v72c0 4.432 3.568 8 8 8h96c4.432 0 8-3.568 8-8v-72c0-4.432-3.568-8-8-8zm.5 1h95c4.155 0 7.5 3.345 7.5 7.5v68c0 4.155-3.345 7.5-7.5 7.5h-95a7.484 7.484 0 0 1-7.5-7.5v-68c0-4.155 3.345-7.5 7.5-7.5z" fill="#666"/><rect x="328" y="192" width="96" height="69" ry="1" fill="#424242"/><path d="M496 84c-8.864 0-16 7.136-16 16v144c0 8.864 7.136 16 16 16h192c8.864 0 16-7.136 16-16V100c0-8.864-7.136-16-16-16zm.5 1h191c8.587 0 15.5 6.913 15.5 15.5v139c0 8.587-6.913 15.5-15.5 15.5h-191c-8.587 0-15.5-6.913-15.5-15.5v-139c0-8.587 6.913-15.5 15.5-15.5z" fill="#666"/><rect x="496" y="101" width="192" height="138" ry="2" fill="#424242"/><path d="M58 262c-1.108 0-2 .892-2 2v16c0 1.108.892 2 2 2h20c1.108 0 2-.892 2-2v-16c0-1.108-.892-2-2-2zm.5 1h19c.831 0 1.5.669 1.5 1.5v15c0 .831-.669 1.5-1.5 1.5h-19c-.831 0-1.5-.669-1.5-1.5v-15c0-.831.669-1.5 1.5-1.5z" fill-opacity=".502"/><path fill="#424242" d="M59 265h18v14H59z"/><path fill="#424242" d="M18 271h12v10H18z"/><path d="M104 259c-1.108 0-2 .892-2 2v18c0 1.108.892 2 2 2h24c1.108 0 2-.892 2-2v-18c0-1.108-.892-2-2-2zm.5 1h23c.831 0 1.5.669 1.5 1.5v16c0 .831-.669 1.5-1.5 1.5h-23c-.831 0-1.5-.669-1.5-1.5v-16c0-.831.669-1.5 1.5-1.5z" fill-opacity=".502"/></g><g transform="translate(-16 -268)" fill="#424242"><rect x="228" y="534" width="56" height="44" ry="4"/><rect x="16" y="569" width="16" height="14" ry="1.5"/><rect x="102" y="559" width="28" height="22" ry="2"/><rect x="159" y="547" width="42" height="32" ry="3"/><rect x="320" y="484" width="112" height="88" ry="8"/><rect x="480" y="384" width="224" height="176" ry="16"/><rect x="56" y="562" width="24" height="20" ry="2"/></g><g transform="translate(-16 32)"><path d="M232 234c-2.216 0-4 1.784-4 4v36c0 2.216 1.784 4 4 4h48c2.216 0 4-1.784 4-4v-36c0-2.216-1.784-4-4-4zm.5 1h47c1.939 0 3.5 1.561 3.5 3.5v33c0 1.939-1.561 3.5-3.5 3.5h-47a3.492 3.492 0 0 1-3.5-3.5v-33c0-1.939 1.561-3.5 3.5-3.5z" fill="#fff" fill-opacity=".644"/><path d="M17.5 269c-.831 0-1.5.669-1.5 1.5v11c0 .831.669 1.5 1.5 1.5h13c.831 0 1.5-.669 1.5-1.5v-11c0-.831-.669-1.5-1.5-1.5zm.5 1h12c.554 0 1 .446 1 1v10c0 .554-.446 1-1 1H18c-.554 0-1-.446-1-1v-10c0-.554.446-1 1-1z" fill="#fff" fill-opacity=".644"/><rect x="105" y="262" width="22" height="15" ry="1" fill="#bababa"/><rect x="232" y="238" width="48" height="34" ry="1" fill="#bababa"/><path d="M162 247c-1.662 0-3 1.338-3 3v26c0 1.662 1.338 3 3 3h36c1.662 0 3-1.338 3-3v-26c0-1.662-1.338-3-3-3zm.5 1h35c1.385 0 2.5 1.115 2.5 2.5v23c0 1.385-1.115 2.5-2.5 2.5h-35a2.495 2.495 0 0 1-2.5-2.5v-23c0-1.385 1.115-2.5 2.5-2.5z" fill="#fff" fill-opacity=".644"/><rect x="162" y="250" width="36" height="24" ry=".75" fill="#bababa"/><path d="M328 184c-4.432 0-8 3.568-8 8v72c0 4.432 3.568 8 8 8h96c4.432 0 8-3.568 8-8v-72c0-4.432-3.568-8-8-8zm.5 1h95c4.155 0 7.5 3.345 7.5 7.5v68c0 4.155-3.345 7.5-7.5 7.5h-95a7.484 7.484 0 0 1-7.5-7.5v-68c0-4.155 3.345-7.5 7.5-7.5z" fill="#fff" fill-opacity=".644"/><rect x="328" y="192" width="96" height="69" ry="1" fill="#bababa"/><path d="M496 84c-8.864 0-16 7.136-16 16v144c0 8.864 7.136 16 16 16h192c8.864 0 16-7.136 16-16V100c0-8.864-7.136-16-16-16zm.5 1h191c8.587 0 15.5 6.913 15.5 15.5v139c0 8.587-6.913 15.5-15.5 15.5h-191c-8.587 0-15.5-6.913-15.5-15.5v-139c0-8.587 6.913-15.5 15.5-15.5z" fill="#fff" fill-opacity=".644"/><rect x="496" y="101" width="192" height="138" ry="2" fill="#bababa"/><path d="M58 262c-1.108 0-2 .892-2 2v16c0 1.108.892 2 2 2h20c1.108 0 2-.892 2-2v-16c0-1.108-.892-2-2-2zm.5 1h19c.831 0 1.5.669 1.5 1.5v15c0 .831-.669 1.5-1.5 1.5h-19c-.831 0-1.5-.669-1.5-1.5v-15c0-.831.669-1.5 1.5-1.5z" fill="#fff" fill-opacity=".644"/><path fill="#bababa" d="M59 265h18v14H59z"/><path fill="#bababa" d="M18 271h12v10H18z"/><path d="M104 259c-1.108 0-2 .892-2 2v18c0 1.108.892 2 2 2h24c1.108 0 2-.892 2-2v-18c0-1.108-.892-2-2-2zm.5 1h23c.831 0 1.5.669 1.5 1.5v16c0 .831-.669 1.5-1.5 1.5h-23c-.831 0-1.5-.669-1.5-1.5v-16c0-.831.669-1.5 1.5-1.5z" fill="#fff" fill-opacity=".644"/></g><g transform="translate(-16 332)"><use id="b" transform="translate(0 -600)" width="100%" height="100%" xlink:href="#a"/><g id="c" transform="translate(0 -600)"><path d="M232 234c-2.216 0-4 1.784-4 4v36c0 2.216 1.784 4 4 4h48c2.216 0 4-1.784 4-4v-36c0-2.216-1.784-4-4-4zm.5 1h47c1.939 0 3.5 1.561 3.5 3.5v33c0 1.939-1.561 3.5-3.5 3.5h-47a3.492 3.492 0 0 1-3.5-3.5v-33c0-1.939 1.561-3.5 3.5-3.5z" fill-opacity=".502"/><path d="M17.5 269c-.831 0-1.5.669-1.5 1.5v11c0 .831.669 1.5 1.5 1.5h13c.831 0 1.5-.669 1.5-1.5v-11c0-.831-.669-1.5-1.5-1.5zm.5 1h12c.554 0 1 .446 1 1v10c0 .554-.446 1-1 1H18c-.554 0-1-.446-1-1v-10c0-.554.446-1 1-1z" fill-opacity=".502"/><rect x="105" y="262" width="22" height="15" ry="1" fill="#424242"/><rect x="232" y="238" width="48" height="34" ry="1" fill="#424242"/><path d="M162 247c-1.662 0-3 1.338-3 3v26c0 1.662 1.338 3 3 3h36c1.662 0 3-1.338 3-3v-26c0-1.662-1.338-3-3-3zm.5 1h35c1.385 0 2.5 1.115 2.5 2.5v23c0 1.385-1.115 2.5-2.5 2.5h-35a2.495 2.495 0 0 1-2.5-2.5v-23c0-1.385 1.115-2.5 2.5-2.5z" fill-opacity=".502"/><rect x="162" y="250" width="36" height="24" ry=".75" fill="#424242"/><path d="M328 184c-4.432 0-8 3.568-8 8v72c0 4.432 3.568 8 8 8h96c4.432 0 8-3.568 8-8v-72c0-4.432-3.568-8-8-8zm.5 1h95c4.155 0 7.5 3.345 7.5 7.5v68c0 4.155-3.345 7.5-7.5 7.5h-95a7.484 7.484 0 0 1-7.5-7.5v-68c0-4.155 3.345-7.5 7.5-7.5z" fill="#666"/><rect x="328" y="192" width="96" height="69" ry="1" fill="#424242"/><path d="M496 84c-8.864 0-16 7.136-16 16v144c0 8.864 7.136 16 16 16h192c8.864 0 16-7.136 16-16V100c0-8.864-7.136-16-16-16zm.5 1h191c8.587 0 15.5 6.913 15.5 15.5v139c0 8.587-6.913 15.5-15.5 15.5h-191c-8.587 0-15.5-6.913-15.5-15.5v-139c0-8.587 6.913-15.5 15.5-15.5z" fill="#666"/><rect x="496" y="101" width="192" height="138" ry="2" fill="#424242"/><path d="M58 262c-1.108 0-2 .892-2 2v16c0 1.108.892 2 2 2h20c1.108 0 2-.892 2-2v-16c0-1.108-.892-2-2-2zm.5 1h19c.831 0 1.5.669 1.5 1.5v15c0 .831-.669 1.5-1.5 1.5h-19c-.831 0-1.5-.669-1.5-1.5v-15c0-.831.669-1.5 1.5-1.5z" fill-opacity=".502"/><path fill="#424242" d="M59 265h18v14H59z"/><path fill="#424242" d="M18 271h12v10H18z"/><path d="M104 259c-1.108 0-2 .892-2 2v18c0 1.108.892 2 2 2h24c1.108 0 2-.892 2-2v-18c0-1.108-.892-2-2-2zm.5 1h23c.831 0 1.5.669 1.5 1.5v16c0 .831-.669 1.5-1.5 1.5h-23c-.831 0-1.5-.669-1.5-1.5v-16c0-.831.669-1.5 1.5-1.5z" fill-opacity=".502"/></g><g transform="translate(0 300)" fill="#ac1800"><rect x="496" y="-799" width="192" height="138" ry="2"/><rect x="328" y="-708" width="96" height="69" ry="1"/><rect x="232" y="-662" width="48" height="34" ry="1"/><rect x="162" y="-650" width="36" height="24" ry="1"/><rect x="105" y="-638" width="22" height="15" ry="1"/><rect x="59" y="-635" width="18" height="14" ry="0"/><rect x="18" y="-629" width="12" height="10" ry="0"/></g><g transform="translate(0 -600)" fill="#f6f6f6"><path d="M113 271h5v1h-5z"/><rect x="108" y="263" width="1" height="9" ry="0"/><rect x="110" y="263" width="1" height="9" ry="0"/><path d="M107 265h5v1h-5z"/><path d="M107 269h5v1h-5z"/><g transform="translate(-46 3)"><path d="M113 271h5v1h-5z"/><rect x="108" y="263" width="1" height="9" ry="0"/><rect x="110" y="263" width="1" height="9" ry="0"/><path d="M107 265h5v1h-5z"/><path d="M107 269h5v1h-5z"/></g><g transform="translate(-88 8)"><path d="M113 271h4v1h-4z"/><rect x="108" y="263" width="1" height="9" ry="0"/><rect x="110" y="263" width="1" height="9" ry="0"/><path d="M107 265h5v1h-5z"/><path d="M107 269h5v1h-5z"/></g><g transform="translate(60 -11)"><path d="M113 271h5v1h-5z"/><rect x="108" y="263" width="1" height="9" ry="0"/><rect x="110" y="263" width="1" height="9" ry="0"/><path d="M107 265h5v1h-5z"/><path d="M107 269h5v1h-5z"/></g><g transform="translate(129 -22)"><path d="M113 271h5v1h-5z"/><rect x="108" y="263" width="1" height="9" ry="0"/><rect x="110" y="263" width="1" height="9" ry="0"/><path d="M107 265h5v1h-5z"/><path d="M107 269h5v1h-5z"/></g><g transform="matrix(2 0 0 2 122 -329)"><path d="M113 271h5v1h-5z"/><rect x="108" y="263" width="1" height="9" ry="0"/><rect x="110" y="263" width="1" height="9" ry="0"/><path d="M107 265h5v1h-5z"/><path d="M107 269h5v1h-5z"/></g><g transform="matrix(4 0 0 4 81 -943)"><path d="M113 271h5v1h-5z"/><rect x="108" y="263" width="1" height="9" ry="0"/><rect x="110" y="263" width="1" height="9" ry="0"/><path d="M107 265h5v1h-5z"/><path d="M107 269h5v1h-5z"/></g></g></g><g transform="translate(-16 332)"><use transform="translate(0 -300)" width="100%" height="100%" xlink:href="#b"/><use transform="translate(0 -300)" width="100%" height="100%" xlink:href="#c"/><g fill="#1c6d38"><rect x="496" y="-799" width="192" height="138" ry="2"/><rect x="328" y="-708" width="96" height="69" ry="1"/><rect x="232" y="-662" width="48" height="34" ry="1"/><rect x="162" y="-650" width="36" height="24" ry="1"/><rect x="105" y="-638" width="22" height="15" ry="1"/><rect x="59" y="-635" width="18" height="14" ry="0"/><rect x="18" y="-629" width="12" height="10" ry="0"/></g><g fill="#f6f6f6"><path d="M109-637v1a2 2 0 0 0-2 2 2 2 0 0 0 2 2v2h-2v1h2v1h1v-1a2 2 0 0 0 2-2 2 2 0 0 0-2-2v-2h1v-1h-1v-1zm0 2v2a1 1 0 0 1-1-1 1 1 0 0 1 1-1zm1 3a1 1 0 0 1 1 1 1 1 0 0 1-1 1z"/><path d="M113-629h5v1h-5z"/><path d="M169-648v1a2 2 0 0 0-2 2 2 2 0 0 0 2 2v2h-2v1h2v1h1v-1a2 2 0 0 0 2-2 2 2 0 0 0-2-2v-2h1v-1h-1v-1zm0 2v2a1 1 0 0 1-1-1 1 1 0 0 1 1-1zm1 3a1 1 0 0 1 1 1 1 1 0 0 1-1 1z"/><path d="M173-640h5v1h-5z"/><path d="M63-634v1a2 2 0 0 0-2 2 2 2 0 0 0 2 2v2h-2v1h2v1h1v-1a2 2 0 0 0 2-2 2 2 0 0 0-2-2v-2h1v-1h-1v-1zm0 2v2a1 1 0 0 1-1-1 1 1 0 0 1 1-1zm1 3a1 1 0 0 1 1 1 1 1 0 0 1-1 1z"/><path d="M67-626h5v1h-5z"/><path d="M21-629v1a2 2 0 0 0-2 2 2 2 0 0 0 2 2v2h-2v1h2v1h1v-1a2 2 0 0 0 2-2 2 2 0 0 0-2-2v-2h1v-1h-1v-1zm0 2v2a1 1 0 0 1-1-1 1 1 0 0 1 1-1zm1 3a1 1 0 0 1 1 1 1 1 0 0 1-1 1z"/><path d="M25-621h4v1h-4z"/><path d="M238-659v1a2 2 0 0 0-2 2 2 2 0 0 0 2 2v2h-2v1h2v1h1v-1a2 2 0 0 0 2-2 2 2 0 0 0-2-2v-2h1v-1h-1v-1zm0 2v2a1 1 0 0 1-1-1 1 1 0 0 1 1-1zm1 3a1 1 0 0 1 1 1 1 1 0 0 1-1 1z"/><path d="M242-651h5v1h-5z"/><path d="M340-703v2a4 4 0 0 0-4 4 4 4 0 0 0 4 4v4h-4v2h4v2h2v-2a4 4 0 0 0 4-4 4 4 0 0 0-4-4v-4h2v-2h-2v-2zm0 4v4a2 2 0 0 1-2-2 2 2 0 0 1 2-2zm2 6a2 2 0 0 1 2 2 2 2 0 0 1-2 2z"/><path d="M348-687h10v2h-10z"/><path d="M517-791v4a8 8 0 0 0-8 8 8 8 0 0 0 8 8v8h-8v4h8v4h4v-4a8 8 0 0 0 8-8 8 8 0 0 0-8-8v-8h4v-4h-4v-4zm0 8v8a4 4 0 0 1-4-4 4 4 0 0 1 4-4zm4 12a4 4 0 0 1 4 4 4 4 0 0 1-4 4z"/><path d="M533-759h20v4h-20z"/></g></g></svg>