<svg version="1.0" viewBox="0 0 16 16" xmlns="http://www.w3.org/2000/svg"><g transform="translate(-16 -268)"><rect x="102" y="259" width="28" height="22" ry="2" fill="#666"/><rect x="103" y="260" width="26" height="19" ry="1.5" fill="#cdcdcd"/><rect x="105" y="262" width="22" height="15" ry="1" fill="#424242"/><path d="M105.5 271.5h5l3-7 2 10 2-6 1 3h8" fill="none" stroke="#ffce51" stroke-linecap="square"/><rect x="228" y="234" width="56" height="44" ry="4" fill="#666"/><rect x="229" y="235" width="54" height="40" ry="3.5" fill="#cdcdcd"/><rect x="232" y="238" width="48" height="34" ry="1" fill="#424242"/><path d="M232.5 259.5h13l5-15 5 20 4-11 2 6h18" fill="none" stroke="#ffce51" stroke-linecap="square"/><rect x="159" y="247" width="42" height="32" ry="3" fill="#666"/><rect x="160" y="248" width="40" height="28" ry="2.5" fill="#cdcdcd"/><rect x="162" y="250" width="36" height="24" ry=".75" fill="#424242"/><path d="M162.5 266.5h10l4-11 4 14 3-8 2 5h12" fill="none" stroke="#ffce51" stroke-linecap="square"/><rect x="320" y="184" width="112" height="88" ry="8" fill="#666"/><rect x="321" y="185" width="110" height="83" ry="7.5" fill="#cdcdcd"/><rect x="328" y="192" width="96" height="69" ry="1" fill="#424242"/><path d="M329 235h26l10-30 10 40 8-22 4 12h36" fill="none" stroke="#ffce51" stroke-linecap="square" stroke-width="2"/><rect x="480" y="84" width="224" height="176" ry="16" fill="#666"/><rect x="481" y="85" width="222" height="170" ry="15.5" fill="#cdcdcd"/><rect x="496" y="101" width="192" height="138" ry="2" fill="#424242"/><path d="M498 186h52l20-60 20 80 16-44 8 24h72" fill="none" stroke="#ffce51" stroke-linecap="square" stroke-width="4"/><rect x="56" y="262" width="24" height="20" ry="2" fill="#666"/><rect x="57" y="263" width="22" height="18" ry="1.5" fill="#cdcdcd"/><path fill="#424242" d="M59 265h18v14H59z"/><path d="M59.5 273.5h4l2-5.5 2 7.5 2-5 1 3h6" fill="none" stroke="#ffce51" stroke-linecap="square"/><rect x="16" y="269" width="16" height="14" ry="1.5" fill="#666"/><rect x="17" y="270" width="14" height="12" ry="1" fill="#cdcdcd"/><path fill="#424242" d="M18 271h12v10H18z"/><path d="M18.5 277.5h3l1-3.5 2 5 2-4.5 1 3h2" fill="none" stroke="#ffce51" stroke-linecap="square"/></g></svg>