<svg version="1.0" viewBox="0 0 16 16" xmlns="http://www.w3.org/2000/svg"><g transform="translate(-16 332)"><rect x="16" y="-331" width="16" height="14" ry="1.5" fill="#cdcdcd"/><path d="M17.5-331c-.831 0-1.5.669-1.5 1.5v11c0 .831.669 1.5 1.5 1.5h13c.831 0 1.5-.669 1.5-1.5v-11c0-.831-.669-1.5-1.5-1.5zm.5 1h12c.554 0 1 .446 1 1v10c0 .554-.446 1-1 1H18c-.554 0-1-.446-1-1v-10c0-.554.446-1 1-1z" fill-opacity=".502"/><path fill="#424242" d="M18-329h12v10H18z"/><rect x="18" y="-329" width="12" height="10" ry="0" fill="#ac1800"/><g transform="translate(-88 -592)" fill="#f6f6f6"><path d="M113 271h4v1h-4z"/><rect x="108" y="263" width="1" height="9" ry="0"/><rect x="110" y="263" width="1" height="9" ry="0"/><path d="M107 265h5v1h-5z"/><path d="M107 269h5v1h-5z"/></g></g></svg>