<svg version="1.0" viewBox="0 0 16 16" xmlns="http://www.w3.org/2000/svg"><g transform="translate(-16 32)"><rect x="16" y="-31" width="16" height="14" ry="1.5" fill="#424242"/><path d="M17.5-31c-.831 0-1.5.669-1.5 1.5v11c0 .831.669 1.5 1.5 1.5h13c.831 0 1.5-.669 1.5-1.5v-11c0-.831-.669-1.5-1.5-1.5zm.5 1h12c.554 0 1 .446 1 1v10c0 .554-.446 1-1 1H18c-.554 0-1-.446-1-1v-10c0-.554.446-1 1-1z" fill="#fff" fill-opacity=".644"/><path fill="#bababa" d="M18-29h12v10H18z"/><g fill="#393634"><path d="M21-29v1a2 2 0 0 0-2 2 2 2 0 0 0 2 2v2h-2v1h2v1h1v-1a2 2 0 0 0 2-2 2 2 0 0 0-2-2v-2h1v-1h-1v-1zm0 2v2a1 1 0 0 1-1-1 1 1 0 0 1 1-1zm1 3a1 1 0 0 1 1 1 1 1 0 0 1-1 1z"/><path d="M25-21h4v1h-4z"/></g></g></svg>