<svg version="1.0" viewBox="0 0 16 16" xmlns="http://www.w3.org/2000/svg"><g transform="translate(-16 -268)"><rect x="103" y="255" width="26" height="26" ry="13" fill="#ffce51"/><path d="M116 255c-7.202 0-13 5.798-13 13s5.798 13 13 13 13-5.798 13-13-5.798-13-13-13zm0 1c6.648 0 12 5.352 12 12s-5.352 12-12 12-12-5.352-12-12 5.352-12 12-12z" fill-opacity=".392"/><rect x="105" y="273" width="24" height="8" ry="4" fill="#fff"/><circle cx="112" cy="273" r="4" fill="#fff"/><circle cx="121" cy="273" r="6" fill="#fff"/><path d="M121 267a5.994 5.994 0 0 0-5.611 3.875A4 4 0 0 0 108 273c0 .046 0 .079.002.125A3.995 3.995 0 0 0 105 277c0 2.216 1.784 4 4 4h16c2.216 0 4-1.784 4-4a4 4 0 0 0-2.022-3.48A6 6 0 0 0 121 267zm0 1a5 5 0 0 1 4.889 6.04A2.487 2.487 0 0 1 128 276.5c0 1.385-1.115 2.5-2.5 2.5h-17c-1.385 0-2.5-1.115-2.5-2.5s1.115-2.5 2.5-2.5h.674a3 3 0 1 1 5.826-1c-.001.34-.06.68-.176 1h1.281a4.998 4.998 0 0 1-.105-1 5 5 0 0 1 5-5z" fill-opacity=".392"/><rect x="324" y="168" width="104" height="104" ry="52" fill="#ffce51"/><path d="M376 168c-28.808 0-52 23.192-52 52s23.192 52 52 52 52-23.192 52-52-23.192-52-52-52zm0 1a51 51 0 0 1 51 51 51 51 0 0 1-51 51 51 51 0 0 1-51-51 51 51 0 0 1 51-51z" fill-opacity=".392"/><rect x="332" y="240" width="96" height="32" ry="16" fill="#fff"/><circle cx="360" cy="240" r="16" fill="#fff"/><circle cx="396" cy="240" r="24" fill="#fff"/><rect x="230" y="226" width="52" height="52" ry="26" fill="#ffce51"/><path d="M256 226c-14.404 0-26 11.596-26 26s11.596 26 26 26 26-11.596 26-26-11.596-26-26-26zm0 1a25 25 0 0 1 25 25 25 25 0 0 1-25 25 25 25 0 0 1-25-25 25 25 0 0 1 25-25z" fill-opacity=".392"/><rect x="234" y="262" width="48" height="16" ry="8" fill="#fff"/><circle cx="248" cy="262" r="8" fill="#fff"/><circle cx="266" cy="262" r="12" fill="#fff"/><rect x="160" y="240" width="40" height="39" ry="19.5" fill="#ffce51"/><path d="M179.5 240c-10.803 0-19.5 8.697-19.5 19.5s8.697 19.5 19.5 19.5h1c10.803 0 19.5-8.697 19.5-19.5s-8.697-19.5-19.5-19.5zm0 1h1c10.249 0 18.5 8.251 18.5 18.5s-8.251 18.5-18.5 18.5h-1c-10.249 0-18.5-8.251-18.5-18.5s8.251-18.5 18.5-18.5z" fill-opacity=".392"/><rect x="164" y="267" width="35" height="12" ry="6" fill="#fff"/><circle cx="174" cy="267" r="6" fill="#fff"/><circle cx="188" cy="267" r="9" fill="#fff"/><rect x="488" y="52" width="208" height="208" ry="104" fill="#ffce51"/><path d="M592 52c-57.616 0-104 46.384-104 104s46.384 104 104 104 104-46.384 104-104S649.616 52 592 52zm0 1c57.062 0 103 45.938 103 103s-45.938 103-103 103-103-45.938-103-103S534.938 53 592 53z" fill-opacity=".392"/><rect x="504" y="196" width="192" height="64" ry="32" fill="#fff"/><circle cx="560" cy="196" r="32" fill="#fff"/><circle cx="632" cy="196" r="48" fill="#fff"/><rect x="17" y="269" width="14" height="14" ry="7" fill="#ffce51"/><path d="M24 269c-3.878 0-7 3.122-7 7s3.122 7 7 7 7-3.122 7-7-3.122-7-7-7zm0 1c3.324 0 6 2.676 6 6s-2.676 6-6 6-6-2.676-6-6 2.676-6 6-6z" fill-opacity=".392"/><rect x="18" y="279" width="12" height="4" ry="2" fill="#fff"/><circle cx="22" cy="279" r="2" fill="#fff"/><circle cx="26" cy="279" r="3" fill="#fff"/><rect x="57" y="261" width="22" height="22" ry="11" fill="#ffce51"/><path d="M68 261c-6.094 0-11 4.906-11 11s4.906 11 11 11 11-4.906 11-11-4.906-11-11-11zm0 1c5.54 0 10 4.46 10 10s-4.46 10-10 10-10-4.46-10-10 4.46-10 10-10z" fill-opacity=".392"/><rect x="59" y="277" width="18" height="6" ry="3" fill="#fff"/><circle cx="64.25" cy="277" r="3" fill="#fff"/><circle cx="71.5" cy="276.5" r="4.5" fill="#fff"/><path d="M188 258a9 9 0 0 0-8.607 6.379A6 6 0 0 0 174 261a6 6 0 0 0-6 6 6 6 0 0 0 .012.342A5.982 5.982 0 0 0 164 273c0 3.324 2.676 6 6 6h23c3.324 0 6-2.676 6-6a5.98 5.98 0 0 0-2.123-4.582A9 9 0 0 0 197 267a9 9 0 0 0-9-9zm0 1a8 8 0 0 1 8 8 8 8 0 0 1-.143 1.475A3.974 3.974 0 0 1 198 272c0 2.216-1.784 4-4 4h-25c-2.216 0-4-1.784-4-4s1.784-4 4-4h.105a5 5 0 0 1-.105-1 5 5 0 0 1 5-5 5 5 0 0 1 5 5 5 5 0 0 1-.102 1h1.174a8 8 0 0 1-.072-1 8 8 0 0 1 8-8z" fill-opacity=".392"/><path d="M266 250a12 12 0 0 0-11.215 7.77A8 8 0 0 0 248 254a8 8 0 0 0-8 8c.002.086.005.172.01.258A7.973 7.973 0 0 0 234 270c0 4.432 3.568 8 8 8h32c4.432 0 8-3.568 8-8a7.975 7.975 0 0 0-4.053-6.959c.033-.346.05-.693.053-1.041 0-6.627-5.373-12-12-12zm.02 1c6.085 0 11.018 4.934 11.018 11.02-.003.438-.032.874-.086 1.309A5.983 5.983 0 0 1 281 269c0 3.324-2.676 6-6 6h-34c-3.324 0-6-2.676-6-6s2.676-6 6-6h.079a7.004 7.004 0 0 1-.079-1 7 7 0 1 1 14 0c.01-6.078 4.942-11 11.02-11z" fill-opacity=".392"/><path d="M396 216a24 24 0 0 0-22.43 15.543A16 16 0 0 0 360 224a16 16 0 0 0-16 16 16 16 0 0 0 .02.516A15.948 15.948 0 0 0 332 256c0 8.864 7.136 16 16 16h64c8.864 0 16-7.136 16-16a15.952 15.952 0 0 0-8.104-13.918A24 24 0 0 0 420 240a24 24 0 0 0-24-24zm0 1a22.95 22.95 0 0 1 23 23c0 .786-.052 1.559-.129 2.324 4.516 2.16 7.629 6.752 7.629 12.11v.132A13.405 13.405 0 0 1 413.066 268h-66.133a13.405 13.405 0 0 1-13.434-13.434v-.133c0-6.8 5.008-12.373 11.549-13.287a15 15 0 0 1-.049-1.146 15 15 0 0 1 15-15 15 15 0 0 1 13.766 9.084A22.946 22.946 0 0 1 396 217z" fill-opacity=".392"/><path d="M632 148a48 48 0 0 0-44.859 31.084A32 32 0 0 0 560 164a32 32 0 0 0-32 32 32 32 0 0 0 .035.992A31.927 31.927 0 0 0 504 228c0 17.728 14.272 32 32 32h128c17.728 0 32-14.272 32-32 0-11.975-6.517-22.366-16.207-27.854A48 48 0 0 0 680 196a48 48 0 0 0-48-48zm0 1c26.038 0 47 20.962 47 47 0 1.7-.095 3.377-.27 5.03A29.184 29.184 0 0 1 694 226.75 29.187 29.187 0 0 1 664.75 256h-129.5A29.187 29.187 0 0 1 506 226.75a29.18 29.18 0 0 1 23.082-28.6A31.642 31.642 0 0 1 529 196c0-17.174 13.826-31 31-31a30.926 30.926 0 0 1 27.332 16.322C593.472 162.518 611.094 149 632 149z" fill-opacity=".392"/><path d="M26 276a3 3 0 0 0-2.625 1.55A2 2 0 0 0 22 277a2 2 0 0 0-2 2c-1.108 0-2 .892-2 2s.892 2 2 2h8a1.996 1.996 0 0 0 .986-3.732A3 3 0 0 0 29 279a3 3 0 0 0-3-3zm0 1c1.108 0 2 .892 2 2v1c.554 0 1 .446 1 1s-.446 1-1 1h-8c-.554 0-1-.446-1-1s.446-1 1-1h1v-1c0-.554.446-1 1-1s1 .446 1 1v1h1v-1c0-1.108.892-2 2-2z" fill-opacity=".392"/><path d="M71.5 272a4.5 4.5 0 0 0-4.455 3.908A3 3 0 0 0 64.25 274a3 3 0 0 0-3 3 3 3 0 0 0 .004.104A2.986 2.986 0 0 0 59 280c0 1.662 1.338 3 3 3h12c1.662 0 3-1.338 3-3 0-.96-.456-1.803-1.154-2.352A4.5 4.5 0 0 0 76 276.5a4.5 4.5 0 0 0-4.5-4.5zm0 1c1.939 0 3.5 1.561 3.5 3.5a3.45 3.45 0 0 1-.402 1.6A1.996 1.996 0 0 1 74 282H62c-1.108 0-2-.892-2-2s.892-2 2-2v-.75c0-1.246 1.003-2.25 2.25-2.25s2.25 1.004 2.25 2.25v.75H68v-1.5c0-1.939 1.561-3.5 3.5-3.5z" fill-opacity=".392"/></g></svg>