<svg version="1.0" viewBox="0 0 16 16" xmlns="http://www.w3.org/2000/svg"><g transform="translate(-16 -268)"><rect x="17" y="269" width="14" height="14" ry="7" fill="#ffce51"/><path d="M24 269c-3.878 0-7 3.122-7 7s3.122 7 7 7 7-3.122 7-7-3.122-7-7-7zm0 1c3.324 0 6 2.676 6 6s-2.676 6-6 6-6-2.676-6-6 2.676-6 6-6z" fill-opacity=".392"/><rect x="18" y="279" width="12" height="4" ry="2" fill="#fff"/><circle cx="22" cy="279" r="2" fill="#fff"/><circle cx="26" cy="279" r="3" fill="#fff"/><path d="M26 276a3 3 0 0 0-2.625 1.55A2 2 0 0 0 22 277a2 2 0 0 0-2 2c-1.108 0-2 .892-2 2s.892 2 2 2h8a1.996 1.996 0 0 0 .986-3.732A3 3 0 0 0 29 279a3 3 0 0 0-3-3zm0 1c1.108 0 2 .892 2 2v1c.554 0 1 .446 1 1s-.446 1-1 1h-8c-.554 0-1-.446-1-1s.446-1 1-1h1v-1c0-.554.446-1 1-1s1 .446 1 1v1h1v-1c0-1.108.892-2 2-2z" fill-opacity=".392"/></g></svg>