<?xml version="1.0" encoding="UTF-8" standalone="no"?>
<!-- Created with Inkscape (http://www.inkscape.org/) -->

<svg
   inkscape:export-ydpi="90.000000"
   inkscape:export-xdpi="90.000000"
   width="64"
   height="64"
   id="svg11300"
   sodipodi:version="0.32"
   inkscape:version="0.92.4 (5da689c313, 2019-01-14)"
   sodipodi:docname="emblem-shared.svg"
   inkscape:output_extension="org.inkscape.output.svg.inkscape"
   version="1.0"
   style="display:inline;enable-background:new"
   inkscape:export-filename="/home/sam/Pop-template.png"
   xmlns:inkscape="http://www.inkscape.org/namespaces/inkscape"
   xmlns:sodipodi="http://sodipodi.sourceforge.net/DTD/sodipodi-0.dtd"
   xmlns:xlink="http://www.w3.org/1999/xlink"
   xmlns="http://www.w3.org/2000/svg"
   xmlns:svg="http://www.w3.org/2000/svg"
   xmlns:rdf="http://www.w3.org/1999/02/22-rdf-syntax-ns#"
   xmlns:cc="http://creativecommons.org/ns#"
   xmlns:dc="http://purl.org/dc/elements/1.1/">
  <title
     id="title3004">Pop Icon Theme Template</title>
  <sodipodi:namedview
     stroke="#ef2929"
     fill="#f57900"
     id="base"
     pagecolor="#ffffff"
     bordercolor="#000000"
     borderopacity="0.25490196"
     inkscape:pageopacity="0"
     inkscape:pageshadow="2"
     inkscape:zoom="32.000003"
     inkscape:cx="18.426167"
     inkscape:cy="20.492184"
     inkscape:current-layer="layer6"
     showgrid="false"
     inkscape:grid-bbox="true"
     inkscape:document-units="px"
     inkscape:showpageshadow="false"
     inkscape:window-width="2088"
     inkscape:window-height="1371"
     inkscape:window-x="472"
     inkscape:window-y="32"
     width="400px"
     height="300px"
     inkscape:snap-nodes="true"
     inkscape:snap-bbox="true"
     gridtolerance="10000"
     inkscape:object-nodes="true"
     inkscape:snap-grids="true"
     showguides="true"
     inkscape:guide-bbox="true"
     inkscape:window-maximized="0"
     inkscape:bbox-paths="true"
     inkscape:snap-bbox-midpoints="true"
     inkscape:snap-global="true"
     inkscape:object-paths="true"
     inkscape:snap-intersection-paths="true"
     inkscape:snap-smooth-nodes="true"
     inkscape:lockguides="false"
     inkscape:bbox-nodes="true"
     inkscape:pagecheckerboard="0">
    <inkscape:grid
       spacingy="1"
       spacingx="1"
       id="grid5883"
       type="xygrid"
       enabled="true"
       visible="true"
       empspacing="4"
       snapvisiblegridlinesonly="true"
       originx="0"
       originy="0" />
    <inkscape:grid
       type="xygrid"
       id="grid11592"
       empspacing="2"
       visible="true"
       enabled="true"
       spacingx="0.5"
       spacingy="0.5"
       color="#ff0000"
       opacity="0.1254902"
       empcolor="#ff0000"
       empopacity="0.25098039"
       snapvisiblegridlinesonly="true"
       originx="0"
       originy="0" />
  </sodipodi:namedview>
  <defs
     id="defs3">
    <linearGradient
       inkscape:collect="always"
       id="linearGradient2797">
      <stop
         style="stop-color:#888888;stop-opacity:0.19607843"
         offset="0"
         id="stop2789" />
      <stop
         id="stop2791"
         offset="0.06481481"
         style="stop-color:#7f7f7f;stop-opacity:0.3137255" />
      <stop
         style="stop-color:#7f7f7f;stop-opacity:0.19607843"
         offset="0.92660552"
         id="stop2793" />
      <stop
         style="stop-color:#000000;stop-opacity:0.27450982"
         offset="1"
         id="stop2795" />
    </linearGradient>
    <linearGradient
       inkscape:collect="always"
       id="linearGradient2772">
      <stop
         style="stop-color:#888888;stop-opacity:0.19607843"
         offset="0"
         id="stop2764" />
      <stop
         id="stop2766"
         offset="0.03773585"
         style="stop-color:#7f7f7f;stop-opacity:0.3137255" />
      <stop
         style="stop-color:#7f7f7f;stop-opacity:0.19607843"
         offset="0.94339621"
         id="stop2768" />
      <stop
         style="stop-color:#000000;stop-opacity:0.27450982"
         offset="1"
         id="stop2770" />
    </linearGradient>
    <linearGradient
       inkscape:collect="always"
       id="linearGradient2689">
      <stop
         style="stop-color:#888888;stop-opacity:0.19607843"
         offset="0"
         id="stop2681" />
      <stop
         id="stop2683"
         offset="0.04"
         style="stop-color:#7f7f7f;stop-opacity:0.3137255" />
      <stop
         style="stop-color:#7f7f7f;stop-opacity:0.19607843"
         offset="0.92000002"
         id="stop2685" />
      <stop
         style="stop-color:#000000;stop-opacity:0.27450982"
         offset="1"
         id="stop2687" />
    </linearGradient>
    <linearGradient
       id="linearGradient2649"
       inkscape:collect="always">
      <stop
         id="stop2641"
         offset="0"
         style="stop-color:#888888;stop-opacity:0.19607843" />
      <stop
         style="stop-color:#7f7f7f;stop-opacity:0.3137255"
         offset="0.05263158"
         id="stop2643" />
      <stop
         id="stop2645"
         offset="0.89473683"
         style="stop-color:#7f7f7f;stop-opacity:0.19607843" />
      <stop
         id="stop2647"
         offset="1"
         style="stop-color:#000000;stop-opacity:0.27450982" />
    </linearGradient>
    <linearGradient
       id="linearGradient2591"
       inkscape:collect="always">
      <stop
         id="stop2583"
         offset="0"
         style="stop-color:#000000;stop-opacity:0.98168498" />
      <stop
         style="stop-color:#7f7f7f;stop-opacity:0.19607843"
         offset="0.09417041"
         id="stop2585" />
      <stop
         id="stop2587"
         offset="0.9192825"
         style="stop-color:#7f7f7f;stop-opacity:0.19607843" />
      <stop
         id="stop2589"
         offset="1"
         style="stop-color:#000000;stop-opacity:0.39607844" />
    </linearGradient>
    <linearGradient
       inkscape:collect="always"
       id="linearGradient2312">
      <stop
         style="stop-color:#ffffff;stop-opacity:0.11764706"
         offset="0"
         id="stop2304" />
      <stop
         id="stop2306"
         offset="0.09417041"
         style="stop-color:#7f7f7f;stop-opacity:0.19607843" />
      <stop
         style="stop-color:#7f7f7f;stop-opacity:0.19607843"
         offset="0.9192825"
         id="stop2308" />
      <stop
         style="stop-color:#000000;stop-opacity:0.39607844"
         offset="1"
         id="stop2310" />
    </linearGradient>
    <linearGradient
       id="linearGradient2157"
       inkscape:collect="always">
      <stop
         id="stop2153"
         offset="0"
         style="stop-color:#ffffff;stop-opacity:0.11764706" />
      <stop
         id="stop2155"
         offset="1"
         style="stop-color:#000000;stop-opacity:0.39215687" />
    </linearGradient>
    <linearGradient
       gradientTransform="translate(41,-7)"
       inkscape:collect="always"
       xlink:href="#linearGradient2157"
       id="linearGradient2071-2"
       x1="27"
       y1="270"
       x2="27"
       y2="288"
       gradientUnits="userSpaceOnUse" />
    <linearGradient
       gradientTransform="translate(461.5,-226.5)"
       inkscape:collect="always"
       xlink:href="#linearGradient2312"
       id="linearGradient2071-2-2-6-0-9-3"
       x1="130.5"
       y1="272.5"
       x2="130.5"
       y2="492.5"
       gradientUnits="userSpaceOnUse" />
    <linearGradient
       inkscape:collect="always"
       xlink:href="#linearGradient2591"
       id="linearGradient2571"
       x1="22"
       y1="271"
       x2="22"
       y2="281"
       gradientUnits="userSpaceOnUse" />
    <linearGradient
       gradientTransform="translate(44,-6)"
       inkscape:collect="always"
       xlink:href="#linearGradient2649"
       id="linearGradient2601-3"
       x1="20"
       y1="269"
       x2="20"
       y2="288"
       gradientUnits="userSpaceOnUse" />
    <linearGradient
       gradientTransform="translate(71,-29)"
       inkscape:collect="always"
       xlink:href="#linearGradient2689"
       id="linearGradient2601-3-4"
       x1="38"
       y1="285"
       x2="38"
       y2="310"
       gradientUnits="userSpaceOnUse" />
    <linearGradient
       gradientTransform="translate(178,-68)"
       inkscape:collect="always"
       xlink:href="#linearGradient2772"
       id="linearGradient2601-3-4-2-6"
       x1="66"
       y1="294"
       x2="66"
       y2="347"
       gradientUnits="userSpaceOnUse" />
    <linearGradient
       gradientTransform="translate(287,-75)"
       inkscape:collect="always"
       xlink:href="#linearGradient2797"
       id="linearGradient2601-3-4-2-7"
       x1="57"
       y1="241"
       x2="57"
       y2="350"
       gradientUnits="userSpaceOnUse" />
  </defs>
  <metadata
     id="metadata4">
    <rdf:RDF>
      <cc:Work
         rdf:about="">
        <dc:format>image/svg+xml</dc:format>
        <dc:type
           rdf:resource="http://purl.org/dc/dcmitype/StillImage" />
        <dc:creator>
          <cc:Agent>
            <dc:title>Sam Hewitt</dc:title>
          </cc:Agent>
        </dc:creator>
        <dc:source />
        <cc:license
           rdf:resource="http://creativecommons.org/licenses/by-sa/4.0/" />
        <dc:title>Pop Icon Theme Template</dc:title>
        <dc:subject>
          <rdf:Bag />
        </dc:subject>
        <dc:date />
        <dc:rights>
          <cc:Agent>
            <dc:title />
          </cc:Agent>
        </dc:rights>
        <dc:publisher>
          <cc:Agent>
            <dc:title />
          </cc:Agent>
        </dc:publisher>
        <dc:identifier />
        <dc:relation />
        <dc:language />
        <dc:coverage />
        <dc:description />
        <dc:contributor>
          <cc:Agent>
            <dc:title />
          </cc:Agent>
        </dc:contributor>
      </cc:Work>
      <cc:Work
         rdf:about="">
        <dc:format>image/svg+xml</dc:format>
        <dc:type
           rdf:resource="http://purl.org/dc/dcmitype/StillImage" />
      </cc:Work>
      <cc:License
         rdf:about="http://creativecommons.org/licenses/by-sa/4.0/">
        <cc:permits
           rdf:resource="http://creativecommons.org/ns#Reproduction" />
        <cc:permits
           rdf:resource="http://creativecommons.org/ns#Distribution" />
        <cc:requires
           rdf:resource="http://creativecommons.org/ns#Notice" />
        <cc:requires
           rdf:resource="http://creativecommons.org/ns#Attribution" />
        <cc:permits
           rdf:resource="http://creativecommons.org/ns#DerivativeWorks" />
        <cc:requires
           rdf:resource="http://creativecommons.org/ns#ShareAlike" />
      </cc:License>
    </rdf:RDF>
  </metadata>
  <g
     style="display:inline"
     inkscape:groupmode="layer"
     inkscape:label="Icon"
     id="layer1"
     transform="translate(-258,-220)">
    <g
       style="display:none"
       inkscape:label="Baseplate"
       id="layer7"
       inkscape:groupmode="layer"
       sodipodi:insensitive="true">
      <text
         y="231.826"
         xml:space="preserve"
         x="14.974"
         style="font-style:normal;font-variant:normal;font-weight:normal;font-stretch:normal;line-height:0%;font-family:'DejaVu Sans';-inkscape-font-specification:'DejaVu Sans';display:inline;fill:#000000;fill-opacity:1;stroke:none;enable-background:new"
         inkscape:label="context"
         id="context"><tspan
           style="font-style:normal;font-variant:normal;font-weight:normal;font-stretch:normal;font-size:18px;line-height:1.25;font-family:'Fira Sans';-inkscape-font-specification:'Fira Sans'"
           y="231.826"
           x="14.974"
           sodipodi:role="line"
           id="tspan3933">emblems</tspan></text>
      <text
         y="155.81543"
         xml:space="preserve"
         x="15.657227"
         style="font-style:normal;font-variant:normal;font-weight:bold;font-stretch:normal;line-height:0%;font-family:'DejaVu Sans';-inkscape-font-specification:'DejaVu Sans Bold';text-align:start;writing-mode:lr-tb;text-anchor:start;display:inline;fill:#000000;fill-opacity:1;stroke:none;enable-background:new"
         inkscape:label="icon-name"
         id="icon-name"><tspan
           style="font-style:normal;font-variant:normal;font-weight:bold;font-stretch:normal;font-size:18px;line-height:1.25;font-family:'Roboto Slab';-inkscape-font-specification:'Roboto Slab Bold'"
           y="155.81543"
           x="15.657227"
           sodipodi:role="line"
           id="tspan3937">emblem-shared</tspan></text>
      <rect
         style="display:inline;overflow:visible;visibility:visible;fill:#d3d7cf;fill-opacity:1;fill-rule:nonzero;stroke:none;stroke-width:2;marker:none;enable-background:accumulate"
         id="rect16x16"
         width="16"
         height="16"
         x="-66"
         y="268"
         inkscape:label="16x16"
         transform="scale(-1,1)" />
      <rect
         style="display:inline;overflow:visible;visibility:visible;fill:#d3d7cf;fill-opacity:1;fill-rule:nonzero;stroke:none;stroke-width:2;marker:none;enable-background:accumulate"
         id="rect24x24"
         width="24"
         height="24"
         x="-114"
         y="260"
         inkscape:label="24x24"
         transform="scale(-1,1)" />
      <rect
         style="display:inline;overflow:visible;visibility:visible;fill:#d3d7cf;fill-opacity:1;fill-rule:nonzero;stroke:none;stroke-width:2;marker:none;enable-background:accumulate"
         id="rect32x32"
         width="32"
         height="32"
         x="-166"
         y="252"
         inkscape:label="32x32"
         transform="scale(-1,1)" />
      <rect
         inkscape:label="48x48"
         y="236"
         x="-238"
         height="48"
         width="48"
         id="rect48x48"
         style="display:inline;overflow:visible;visibility:visible;fill:#d3d7cf;fill-opacity:1;fill-rule:nonzero;stroke:none;stroke-width:2;marker:none;enable-background:accumulate"
         transform="scale(-1,1)" />
      <rect
         style="display:inline;overflow:visible;visibility:visible;fill:#d3d7cf;fill-opacity:1;fill-rule:nonzero;stroke:none;stroke-width:0.25;marker:none;enable-background:accumulate"
         id="rect3951"
         width="64"
         height="64"
         x="-322"
         y="220"
         inkscape:label="48x48"
         transform="scale(-1,1)" />
      <text
         xml:space="preserve"
         style="font-style:normal;font-weight:normal;font-size:10.6667px;line-height:1.25;font-family:sans-serif;letter-spacing:0px;word-spacing:0px;display:inline;fill:#000000;fill-opacity:1;stroke:none;enable-background:new"
         x="257.60513"
         y="294.06894"
         id="text858-79"><tspan
           sodipodi:role="line"
           id="tspan856-7"
           x="257.60513"
           y="294.06894"
           style="font-style:normal;font-variant:normal;font-weight:normal;font-stretch:normal;font-family:'Roboto Slab';-inkscape-font-specification:'Roboto Slab'">64</tspan></text>
      <text
         xml:space="preserve"
         style="font-style:normal;font-weight:normal;font-size:10.6667px;line-height:1.25;font-family:sans-serif;letter-spacing:0px;word-spacing:0px;display:inline;fill:#000000;fill-opacity:1;stroke:none;enable-background:new"
         x="189.60513"
         y="294.06894"
         id="text858-1"><tspan
           sodipodi:role="line"
           id="tspan856-6"
           x="189.60513"
           y="294.06894"
           style="font-style:normal;font-variant:normal;font-weight:normal;font-stretch:normal;font-family:'Roboto Slab';-inkscape-font-specification:'Roboto Slab'">48</tspan></text>
      <text
         xml:space="preserve"
         style="font-style:normal;font-weight:normal;font-size:10.6667px;line-height:1.25;font-family:sans-serif;letter-spacing:0px;word-spacing:0px;display:inline;fill:#000000;fill-opacity:1;stroke:none;enable-background:new"
         x="133.60513"
         y="294.06894"
         id="text858-3"><tspan
           sodipodi:role="line"
           id="tspan856-0"
           x="133.60513"
           y="294.06894"
           style="font-style:normal;font-variant:normal;font-weight:normal;font-stretch:normal;font-family:'Roboto Slab';-inkscape-font-specification:'Roboto Slab'">32</tspan></text>
      <text
         xml:space="preserve"
         style="font-style:normal;font-weight:normal;font-size:10.6667px;line-height:1.25;font-family:sans-serif;letter-spacing:0px;word-spacing:0px;display:inline;fill:#000000;fill-opacity:1;stroke:none;enable-background:new"
         x="89.605133"
         y="294.06894"
         id="text858-2"><tspan
           sodipodi:role="line"
           id="tspan856-1"
           x="89.605133"
           y="294.06894"
           style="font-style:normal;font-variant:normal;font-weight:normal;font-stretch:normal;font-family:'Roboto Slab';-inkscape-font-specification:'Roboto Slab'">24</tspan></text>
      <text
         xml:space="preserve"
         style="font-style:normal;font-weight:normal;font-size:10.6667px;line-height:1.25;font-family:sans-serif;letter-spacing:0px;word-spacing:0px;display:inline;fill:#000000;fill-opacity:1;stroke:none;enable-background:new"
         x="49.605141"
         y="294.06894"
         id="text858-5"><tspan
           sodipodi:role="line"
           id="tspan856-65"
           x="49.605141"
           y="294.06894"
           style="font-style:normal;font-variant:normal;font-weight:normal;font-stretch:normal;font-family:'Roboto Slab';-inkscape-font-specification:'Roboto Slab'">16</tspan></text>
      <rect
         transform="scale(-1,1)"
         inkscape:label="16x16"
         y="276"
         x="-24"
         height="8"
         width="8"
         id="rect1005"
         style="display:inline;overflow:visible;visibility:visible;fill:#d3d7cf;fill-opacity:1;fill-rule:nonzero;stroke:none;stroke-width:2;marker:none;enable-background:accumulate" />
      <text
         id="text1140"
         y="294.06894"
         x="15.520833"
         style="font-style:normal;font-weight:normal;font-size:10.6667px;line-height:1.25;font-family:sans-serif;letter-spacing:0px;word-spacing:0px;display:inline;fill:#000000;fill-opacity:1;stroke:none;enable-background:new"
         xml:space="preserve"><tspan
           style="font-style:normal;font-variant:normal;font-weight:normal;font-stretch:normal;font-family:'Roboto Slab';-inkscape-font-specification:'Roboto Slab'"
           y="294.06894"
           x="15.520833"
           sodipodi:role="line"
           id="tspan1142">8</tspan></text>
    </g>
    <g
       inkscape:groupmode="layer"
       id="layer6"
       inkscape:label="Symbols"
       style="display:inline">
      <g
         aria-label="?"
         style="font-style:normal;font-variant:normal;font-weight:normal;font-stretch:normal;font-size:14.0836px;line-height:1.25;font-family:'Fira Sans';-inkscape-font-specification:'Fira Sans';letter-spacing:0px;word-spacing:0px;display:inline;fill:#ffffff;fill-opacity:1;stroke:none;stroke-width:2.64067;enable-background:new"
         id="text1492-4"
         transform="translate(41,-6)" />
      <rect
         ry="8"
         rx="8"
         y="-66"
         x="-284"
         height="16"
         width="16"
         id="rect4414"
         style="display:inline;fill:#3f51b5;fill-opacity:1;stroke:none;enable-background:new"
         transform="matrix(0,-1,-1,0,0,0)" />
      <rect
         transform="matrix(0,-1,-1,0,0,0)"
         style="display:inline;fill:#888888;fill-opacity:1;stroke:none;enable-background:new"
         id="rect4420"
         width="8"
         height="8"
         x="-284"
         y="-24"
         rx="1"
         ry="1" />
      <circle
         style="opacity:1;vector-effect:none;fill:#3f51b5;fill-opacity:1;stroke:none;stroke-width:1;stroke-linecap:square;stroke-miterlimit:4;stroke-dasharray:none;stroke-opacity:1"
         id="path991"
         cx="102"
         cy="272"
         r="12" />
      <rect
         style="display:inline;opacity:1;vector-effect:none;fill:#3f51b5;fill-opacity:1;stroke:none;stroke-width:1;stroke-linecap:square;stroke-miterlimit:4;stroke-dasharray:none;stroke-opacity:0.501961;enable-background:new"
         id="rect1022"
         width="44"
         height="46"
         x="192"
         y="238"
         ry="22" />
      <rect
         ry="15"
         y="253"
         x="135"
         height="31"
         width="30"
         id="rect1019"
         style="opacity:1;vector-effect:none;fill:#3f51b5;fill-opacity:1;stroke:none;stroke-width:1;stroke-linecap:square;stroke-miterlimit:4;stroke-dasharray:none;stroke-opacity:0.501961" />
      <path
         style="opacity:1;vector-effect:none;fill:#000000;fill-opacity:0.501961;stroke:none;stroke-width:1;stroke-linecap:square;stroke-miterlimit:4;stroke-dasharray:none;stroke-opacity:0.501961"
         d="m 150,253 c -8.31,0 -15,6.69 -15,15 v 1 c 0,8.31 6.69,15 15,15 8.31,0 15,-6.69 15,-15 v -1 c 0,-8.31 -6.69,-15 -15,-15 z m 0,1 a 14,14 0 0 1 14,14 14,14 0 0 1 -14,14 14,14 0 0 1 -14,-14 14,14 0 0 1 14,-14 z"
         id="rect1015"
         inkscape:connector-curvature="0" />
      <rect
         style="opacity:1;vector-effect:none;fill:#3f51b5;fill-opacity:1;stroke:none;stroke-width:1;stroke-linecap:square;stroke-miterlimit:4;stroke-dasharray:none;stroke-opacity:0.501961"
         id="rect1029"
         width="60"
         height="62"
         x="260"
         y="222"
         ry="30" />
      <path
         style="opacity:1;vector-effect:none;fill:#000000;fill-opacity:0.501961;stroke:none;stroke-width:1;stroke-linecap:square;stroke-miterlimit:4;stroke-dasharray:none;stroke-opacity:0.501961"
         d="m 290,222 c -16.62,0 -30,13.38 -30,30 v 2 c 0,16.62 13.38,30 30,30 16.62,0 30,-13.38 30,-30 v -2 c 0,-16.62 -13.38,-30 -30,-30 z m 0,1 a 29,29 0 0 1 29,29 29,29 0 0 1 -29,29 29,29 0 0 1 -29,-29 29,29 0 0 1 29,-29 z"
         id="rect1031"
         inkscape:connector-curvature="0" />
      <rect
         style="opacity:1;vector-effect:none;fill:#3f51b5;fill-opacity:1;stroke:#000000;stroke-width:1;stroke-linecap:square;stroke-miterlimit:4;stroke-dasharray:none;stroke-opacity:0.501961"
         id="rect1007"
         width="7"
         height="7"
         x="16.5"
         y="276.5"
         ry="0.5" />
      <rect
         style="opacity:1;vector-effect:none;fill:none;fill-opacity:1;stroke:#000000;stroke-width:1;stroke-linecap:square;stroke-miterlimit:4;stroke-dasharray:none;stroke-opacity:0.501961"
         id="rect1009"
         width="15"
         height="15"
         x="50.5"
         y="268.5"
         ry="7.5" />
      <rect
         style="opacity:1;vector-effect:none;fill:none;fill-opacity:1;stroke:#000000;stroke-width:1;stroke-linecap:square;stroke-miterlimit:4;stroke-dasharray:none;stroke-opacity:0.501961"
         id="rect1011"
         width="23"
         height="23"
         x="90.5"
         y="260.5"
         ry="11.477903" />
      <path
         style="display:inline;opacity:1;vector-effect:none;fill:#000000;fill-opacity:0.501961;stroke:none;stroke-width:1;stroke-linecap:square;stroke-miterlimit:4;stroke-dasharray:none;stroke-opacity:0.501961;enable-background:new"
         d="m 214,238 c -12.188,0 -22,9.812 -22,22 v 2 c 0,12.188 9.812,22 22,22 12.188,0 22,-9.812 22,-22 v -2 c 0,-12.188 -9.812,-22 -22,-22 z m 0,1 a 21,21 0 0 1 21,21 21,21 0 0 1 -21,21 21,21 0 0 1 -21,-21 21,21 0 0 1 21,-21 z"
         id="rect1026"
         inkscape:connector-curvature="0" />
      <path
         id="path8431"
         d="m 153.99997,260.5 c -1.65684,0 -3,1.34315 -3,3 0,0.23127 0.0442,0.44001 0.0937,0.65625 l -3.21875,2 c -0.51341,-0.41127 -1.16591,-0.65625 -1.87496,-0.65625 -1.65684,0 -3,1.34315 -3,3 0,1.65686 1.34316,3 3,3 0.70904,0 1.36154,-0.24497 1.875,-0.65625 l 3.21875,2 c -0.0495,0.21625 -0.0937,0.42498 -0.0937,0.65625 0,1.65686 1.34315,3 3,3 1.65685,0 3,-1.34314 3,-3 0,-1.65685 -1.34315,-3 -3,-3 -0.70904,0 -1.36154,0.24498 -1.875,0.65625 l -3.21875,-2 c 0.0495,-0.21624 0.0937,-0.42498 0.0937,-0.65625 0,-0.23127 -0.0442,-0.44 -0.0937,-0.65625 l 3.21875,-2 c 0.51341,0.41128 1.16591,0.65625 1.87495,0.65625 1.65685,0 3,-1.34314 3,-3 0,-1.65685 -1.34315,-3 -3,-3 z"
         style="display:inline;fill:#ffffff;fill-opacity:1;stroke:none;enable-background:new"
         inkscape:connector-curvature="0" />
      <path
         inkscape:connector-curvature="0"
         style="display:inline;fill:#ffffff;fill-opacity:1;stroke:none;enable-background:new"
         d="m 105.99998,264 c -1.65684,0 -3,1.34315 -3,3 0,0.23127 0.0442,0.44001 0.0937,0.65625 l -3.218745,2 C 99.361525,269.24498 98.709025,269 97.999975,269 c -1.65684,0 -3,1.34315 -3,3 0,1.65686 1.34316,3 3,3 0.70904,0 1.36154,-0.24497 1.875,-0.65625 l 3.218755,2 c -0.0495,0.21625 -0.0937,0.42498 -0.0937,0.65625 0,1.65686 1.34316,3 3,3 1.65685,0 3,-1.34314 3,-3 0,-1.65685 -1.34315,-3 -3,-3 -0.70903,0 -1.36153,0.24498 -1.875,0.65625 l -3.21875,-2 c 0.0495,-0.21624 0.0937,-0.42498 0.0937,-0.65625 0,-0.23127 -0.0442,-0.44 -0.0937,-0.65625 l 3.21875,-2 c 0.51341,0.41128 1.16591,0.65625 1.87496,0.65625 1.65684,0 3,-1.34314 3,-3 0,-1.65685 -1.34316,-3 -3,-3 z"
         id="path1005" />
      <path
         inkscape:connector-curvature="0"
         style="display:inline;fill:#ffffff;fill-opacity:1;stroke:none;stroke-width:1.5;enable-background:new"
         d="m 219.99997,249 c -2.48526,0 -4.5,2.01472 -4.5,4.5 0,0.3469 0.0663,0.66001 0.14055,0.98437 l -4.82812,3 c -0.77012,-0.6169 -1.74887,-0.98437 -2.81244,-0.98437 -2.48525,0 -4.5,2.01472 -4.5,4.5 0,2.48529 2.01475,4.5 4.5,4.5 1.06356,0 2.04231,-0.36746 2.8125,-0.98438 l 4.82812,3 c -0.0743,0.32438 -0.14055,0.63747 -0.14055,0.98438 0,2.48529 2.01473,4.5 4.5,4.5 2.48528,0 4.5,-2.01471 4.5,-4.5 0,-2.48528 -2.01472,-4.5 -4.5,-4.5 -1.06356,0 -2.04231,0.36747 -2.8125,0.98437 l -4.82812,-3 c 0.0743,-0.32436 0.14055,-0.63747 0.14055,-0.98437 0,-0.34691 -0.0663,-0.66 -0.14055,-0.98438 l 4.82812,-3 c 0.77012,0.61692 1.74887,0.98438 2.81243,0.98438 2.48527,0 4.5,-2.01471 4.5,-4.5 0,-2.48528 -2.01473,-4.5 -4.5,-4.5 z"
         id="path1007" />
      <path
         inkscape:connector-curvature="0"
         style="display:inline;fill:#ffffff;fill-opacity:1;stroke:none;stroke-width:2;enable-background:new"
         d="m 297.99996,237 c -3.31368,0 -6,2.6863 -6,6 0,0.46254 0.0884,0.88002 0.1874,1.3125 l -6.4375,4 C 284.72305,247.48996 283.41804,247 281.99995,247 c -3.31367,0 -6,2.6863 -6,6 0,3.31372 2.68633,6 6,6 1.41807,0 2.72307,-0.48994 3.75,-1.3125 l 6.4375,4 c -0.099,0.4325 -0.18741,0.84996 -0.18741,1.3125 0,3.31372 2.68631,6 6,6 3.31371,0 6,-2.68628 6,-6 0,-3.3137 -2.68629,-6 -6,-6 -1.41807,0 -2.72307,0.48996 -3.75,1.3125 l -6.4375,-4 c 0.099,-0.43248 0.18741,-0.84996 0.18741,-1.3125 0,-0.46254 -0.0884,-0.88 -0.18741,-1.3125 l 6.4375,-4 c 1.02682,0.82256 2.33182,1.3125 3.74991,1.3125 3.31369,0 6,-2.68628 6,-6 0,-3.3137 -2.68631,-6 -6,-6 z"
         id="path1009" />
      <path
         id="path1011"
         d="m 59.99996,272 c -0.828419,0 -1.5,0.67157 -1.5,1.5 0,0.11563 0.0221,0.22001 0.0469,0.32812 l -1.60937,1 C 56.680731,274.62249 56.354481,274.5 55.99996,274.5 c -0.82842,0 -1.5,0.67157 -1.5,1.5 0,0.82843 0.67158,1.5 1.5,1.5 0.354521,0 0.68077,-0.12248 0.9375,-0.32813 l 1.609381,1 c -0.0247,0.10813 -0.0468,0.21249 -0.0468,0.32813 0,0.82843 0.671581,1.5 1.5,1.5 0.82842,0 1.5,-0.67157 1.5,-1.5 0,-0.82843 -0.67158,-1.5 -1.5,-1.5 -0.354519,0 -0.680769,0.12249 -0.9375,0.32812 l -1.60938,-1 c 0.0247,-0.10811 0.0468,-0.21249 0.0468,-0.32812 0,-0.11564 -0.0221,-0.22 -0.0468,-0.32813 l 1.60938,-1 c 0.25665,0.20565 0.5829,0.32813 0.93743,0.32813 0.828419,0 1.5,-0.67157 1.5,-1.5 0,-0.82843 -0.671581,-1.5 -1.5,-1.5 z"
         style="display:inline;fill:#ffffff;fill-opacity:1;stroke:none;stroke-width:0.5;enable-background:new"
         inkscape:connector-curvature="0" />
      <path
         inkscape:connector-curvature="0"
         style="display:inline;fill:#ffffff;fill-opacity:1;stroke:none;stroke-width:0.25;enable-background:new"
         d="m 20.99998,278 c -0.414209,0 -0.75,0.33578 -0.75,0.75 0,0.0578 0.01105,0.11 0.02345,0.16406 l -0.804685,0.5 C 19.340366,279.31124 19.17724,279.25 18.99998,279.25 c -0.41421,0 -0.75,0.33578 -0.75,0.75 0,0.41422 0.33579,0.75 0.75,0.75 0.17726,0 0.340385,-0.0612 0.46875,-0.16407 l 0.804691,0.5 c -0.01235,0.0541 -0.0234,0.10625 -0.0234,0.16407 0,0.41422 0.33579,0.75 0.75,0.75 0.41421,0 0.75,-0.33578 0.75,-0.75 0,-0.41422 -0.33579,-0.75 -0.75,-0.75 -0.17726,0 -0.340385,0.0612 -0.46875,0.16406 l -0.80469,-0.5 c 0.01235,-0.0541 0.0234,-0.10625 0.0234,-0.16406 0,-0.0578 -0.01105,-0.11 -0.0234,-0.16407 l 0.80469,-0.5 c 0.128325,0.10283 0.29145,0.16407 0.468715,0.16407 0.414209,0 0.75,-0.33578 0.75,-0.75 0,-0.41422 -0.335791,-0.75 -0.75,-0.75 z"
         id="path1013" />
    </g>
  </g>
</svg>
