<svg version="1.0" viewBox="0 0 32 32" xmlns="http://www.w3.org/2000/svg"><path d="M28 9.5v20c0 1.385-1.115 2.5-2.5 2.5h-19A2.495 2.495 0 0 1 4 29.5v-26C4 2.115 5.115 1 6.5 1h13" fill="#671d00"/><path d="M27 10v18c0 1.108-.892 2-2 2H7c-1.108 0-2-.892-2-2V4c0-1.108.892-2 2-2h12" fill="#cf3b00"/><path d="M27 12h-7c-1.108 0-2-.892-2-2V2h1l8 8z" fill="#671d00" fill-opacity=".502"/><path d="M27 10h-6c-1.108 0-2-.892-2-2V2" fill="#f15d22"/><g fill="#f6f6f6"><path d="M13 22a2 2 0 0 0-2-2H9v6h1v-2h1a2 2 0 0 0 2-2zm-1 0a1 1 0 0 1-1 1h-1v-2h1a1 1 0 0 1 1 1z"/><path d="M14 20v6h2c1.108 0 2-.892 2-2v-2c0-1.108-.892-2-2-2h-1zm1 1h1c.554 0 1 .446 1 1v2c0 .554-.446 1-1 1h-1z"/><path d="M19 20v6h1v-2h2v-1h-2v-2h3v-1h-3.5z"/></g></svg>