<svg version="1.0" viewBox="0 0 32 32" xmlns="http://www.w3.org/2000/svg"><path d="M28 9.5v20c0 1.385-1.115 2.5-2.5 2.5h-19A2.495 2.495 0 0 1 4 29.5v-26C4 2.115 5.115 1 6.5 1h13" fill="#6f6f6f"/><path d="M27 10v18c0 1.108-.892 2-2 2H7c-1.108 0-2-.892-2-2V4c0-1.108.892-2 2-2h12" fill="#ececec"/><path d="M27 12h-7c-1.108 0-2-.892-2-2V2h1l8 8z" fill="#6f6f6f" fill-opacity=".502"/><path d="M27 10h-6c-1.108 0-2-.892-2-2V2" fill="#fafafa"/><path d="M12 14c-.554 0-1 .446-1 1v1H9c-.554 0-1 .446-1 1v8c0 .554.446 1 1 1h2v1c0 .554.446 1 1 1s1-.446 1-1v-1h2v1c0 .554.446 1 1 1s1-.446 1-1v-1h2v1c0 .554.446 1 1 1s1-.446 1-1v-1h2c.554 0 1-.446 1-1v-8c0-.554-.446-1-1-1h-2v-1c0-.554-.446-1-1-1s-1 .446-1 1v1h-2v-1c0-.554-.446-1-1-1s-1 .446-1 1v1h-2v-1c0-.554-.446-1-1-1zm-2 4h12v1a2 2 0 0 0-2 2 2 2 0 0 0 2 2v1H10z" fill="#474341" fill-opacity=".69"/></svg>