<svg version="1.0" viewBox="0 0 32 32" xmlns="http://www.w3.org/2000/svg"><g transform="translate(-100 2448)"><rect x="105" y="-2445" width="22" height="26" ry="2" fill="#425c0b"/><rect x="106" y="-2444" width="20" height="24" ry="1.5" fill="#dedede"/><rect x="105" y="-2446" width="20" height="24" ry="2" fill="#425c0b"/><rect x="106" y="-2444.9" width="18" height="22" ry="1.5" fill="#85b916"/><path d="M107.5-2445c-.831 0-1.5.669-1.5 1.5v22c0 .831.669 1.5 1.5 1.5h.5v-25z" fill="#293907"/><path d="m116-2430.8-3.082-3.083 3.082-3.082 1.028 1.028-2.056 2.054 1.028 1.028 3.082-3.082-2.685-2.685a.562.562 0 0 0-.794 0l-4.343 4.343a.562.562 0 0 0 0 .794l4.343 4.343c.22.219.575.219.794 0l4.343-4.343a.562.562 0 0 0 0-.794l-.63-.63z" fill="#fff"/></g></svg>