<svg version="1.0" viewBox="0 0 32 32" xmlns="http://www.w3.org/2000/svg"><path d="M28 9.5v20c0 1.385-1.115 2.5-2.5 2.5h-19A2.495 2.495 0 0 1 4 29.5v-26C4 2.115 5.115 1 6.5 1h13" fill="#6f6f6f"/><path d="M27 10v18c0 1.108-.892 2-2 2H7c-1.108 0-2-.892-2-2V4c0-1.108.892-2 2-2h12" fill="#ececec"/><path d="M27 12h-7c-1.108 0-2-.892-2-2V2h1l8 8z" fill="#6f6f6f" fill-opacity=".502"/><path d="M27 10h-6c-1.108 0-2-.892-2-2V2" fill="#fafafa"/><path d="m14.25 12-.154 1.844a5.5 5.5 0 0 0-1.608.93l-1.675-.79-1.75 3.032 1.521 1.056A5.5 5.5 0 0 0 10.5 19a5.5 5.5 0 0 0 .08.932l-1.518 1.052 1.75 3.032 1.672-.787a5.5 5.5 0 0 0 1.612.923L14.25 26h3.5l.154-1.844a5.5 5.5 0 0 0 1.608-.93l1.675.79 1.75-3.032-1.521-1.056A5.5 5.5 0 0 0 21.5 19a5.5 5.5 0 0 0-.08-.932l1.517-1.052-1.75-3.032-1.671.787a5.5 5.5 0 0 0-1.612-.923L17.75 12zM16 17a2 2 0 0 1 2 2 2 2 0 0 1-2 2 2 2 0 0 1-2-2 2 2 0 0 1 2-2z" fill="#474341" fill-opacity=".69"/></svg>