<svg version="1.0" viewBox="0 0 32 32" xmlns="http://www.w3.org/2000/svg"><path d="M28 9.5v20c0 1.385-1.115 2.5-2.5 2.5h-19A2.495 2.495 0 0 1 4 29.5v-26C4 2.115 5.115 1 6.5 1h13" fill="#396247"/><path d="M27 10v18c0 1.108-.892 2-2 2H7c-1.108 0-2-.892-2-2V4c0-1.108.892-2 2-2h12" fill="#73c48f"/><path d="M27 12h-7c-1.108 0-2-.892-2-2V2h1l8 8z" fill="#396247" fill-opacity=".502"/><path d="M27 10h-6c-1.108 0-2-.892-2-2V2" fill="#8adba6"/><g fill="#f6f6f6"><path d="m116-1532.6-7 1v10.75l7 4.25 7-4.25v-10.75zm0 2 5 .75v8l-5 3-5-3v-8z" color="#000" style="font-feature-settings:normal;font-variant-alternates:normal;font-variant-caps:normal;font-variant-ligatures:normal;font-variant-numeric:normal;font-variant-position:normal;isolation:auto;mix-blend-mode:normal;shape-padding:0;text-decoration-color:#000;text-decoration-line:none;text-decoration-style:solid;text-indent:0;text-orientation:mixed;text-transform:none;white-space:normal" transform="translate(-100 1545.625)"/><path d="m16 16.025-4 .75v6l4 2.5 4-2.5v-6z"/></g></svg>