<svg version="1.0" viewBox="0 0 32 32" xmlns="http://www.w3.org/2000/svg"><path d="M28 9.5v20c0 1.385-1.115 2.5-2.5 2.5h-19A2.495 2.495 0 0 1 4 29.5v-26C4 2.115 5.115 1 6.5 1h13" fill="#6f6f6f"/><path d="M27 10v18c0 1.108-.892 2-2 2H7c-1.108 0-2-.892-2-2V4c0-1.108.892-2 2-2h12" fill="#ececec"/><path d="M27 12h-7c-1.108 0-2-.892-2-2V2h1l8 8z" fill="#6f6f6f" fill-opacity=".502"/><path d="M27 10h-6c-1.108 0-2-.892-2-2V2" fill="#fafafa"/><text x="107.302" y="-4223.46" fill="#817205" font-family="'Roboto Slab'" font-size="12.5" letter-spacing="0" stroke-width=".75" word-spacing="0" style="line-height:1.25" xml:space="preserve" transform="translate(-100 4248)"><tspan x="107.302" y="-4223.46">{js}</tspan></text></svg>