<svg version="1.0" viewBox="0 0 32 32" xmlns="http://www.w3.org/2000/svg"><g transform="translate(-100 -252)"><path d="M114.5 255a2.495 2.495 0 0 0-2.5 2.5v1.5h-7c-1.108 0-2 .892-2 2v9h5c.554 0 1 .446 1 1v.023a1.972 1.972 0 0 1-1.977 1.977H103v8c0 1.108.892 2 2 2h8v-3.5c0-.831.669-1.5 1.5-1.5s1.5.669 1.5 1.5v3.5h8c1.108 0 2-.892 2-2v-7h1.5c1.385 0 2.5-1.115 2.5-2.5v-1c0-1.385-1.115-2.5-2.5-2.5H126v-7c0-1.108-.892-2-2-2h-7v-1.5c0-1.385-1.115-2.5-2.5-2.5z" fill="#396247"/><path d="M105.5 260c-.831 0-1.5.669-1.5 1.5v6.5h3c1.662 0 3 1.338 3 3s-1.338 3-3 3h-3v5.5c0 .831.669 1.5 1.5 1.5h6.5v-2.5c0-1.385 1.115-2.5 2.5-2.5s2.5 1.115 2.5 2.5v2.5h6.5c.831 0 1.5-.669 1.5-1.5v-18c0-.831-.669-1.5-1.5-1.5z" fill="#73c48f"/><rect x="113" y="256" width="3" height="6" ry="1.5" fill="#73c48f"/><rect x="120.5" y="269" width="8.5" height="3" ry="1.481" fill="#73c48f"/></g></svg>