<svg version="1.0" viewBox="0 0 32 32" xmlns="http://www.w3.org/2000/svg"><g transform="translate(-100 -252)"><rect x="105" y="254" width="22" height="29" ry="2" fill="#7b7b7b"/><rect x="106" y="255" width="20" height="26" ry="1.5" fill="#f6f6f6"/><path d="m110.5 257 .5-1h-3v3h1.5c.373 0 .5 0 .5.5 0 .6 0 1.5-.5 1.5-1 0-1.5-.5-1.5-.5v1s.5.5 1.5.5c1.5 0 1.5-1.528 1.5-2.5 0-1 0-1.5-1.5-1.5h-.5v-1z" fill="#393634" fill-opacity=".51"/><path d="M118.5 256c-1.5 0-1.5 0-1.5 3s0 3 1.5 3 1.5 0 1.5-2 0-2-1.5-2h-.5c0-.5 0-1 .5-1h1l.5-1zm0 3c.276 0 .5.448.5 1s-.224 1-.5 1-.5-.448-.5-1v-1h.5z" fill="#393634" fill-opacity=".51"/><path d="m124 256-.5 1H122v1h1v1h-1v3h-1v-6z" fill="#393634" fill-opacity=".51"/><path d="M108 265h3v1l-2 5-1-.5 2-4.5h-2z" fill="#393634" fill-opacity=".51"/><path d="M118 265c0 4 0 4 1 4v-2h1v4h-1v-1c-2 0-2 0-2-5z" fill="#393634" fill-opacity=".51"/><path d="M122.5 271c1.5 0 1.5 0 1.5-3s0-3-1.5-3-1.5 0-1.5 2 0 2 1.5 2h.5c0 .5 0 1-.5 1h-1l-.5 1zm0-3c-.276 0-.5-.448-.5-1s.224-1 .5-1 .5.448.5 1v1h-.5z" fill="#393634" fill-opacity=".51"/><path d="M109.5 274c-1.5 0-1.5 0-1.5 3s0 3 1.5 3 1.5 0 1.5-2 0-2-1.5-2h-.5c0-.5 0-1 .5-1h1l.5-1zm0 3c.276 0 .5.448.5 1s-.224 1-.5 1-.5-.448-.5-1v-1h.5z" fill="#393634" fill-opacity=".51"/><path d="M112 280v-1h2v-1h-1v-1h1v-2h-1.5l-.5-1h3v6z" fill="#393634" fill-opacity=".51"/><path d="m124 274-.5 1H122v1h1v1h-1v3h-1v-6z" fill="#393634" fill-opacity=".51"/><path d="M118.5 274c-1.5 0-1.5 0-1.5 3s0 3 1.5 3 1.5 0 1.5-2 0-2-1.5-2h-.5c0-.5 0-1 .5-1h1l.5-1zm0 3c.276 0 .5.448.5 1s-.224 1-.5 1-.5-.448-.5-1v-1h.5z" fill="#393634" fill-opacity=".51"/><path d="M113.5 256a1.5 3 0 0 0-1.5 3 1.5 3 0 0 0 1.5 3 1.5 3 0 0 0 1.5-3 1.5 3 0 0 0-1.5-3zm0 1a.5 2 0 0 1 .5 2 .5 2 0 0 1-.5 2 .5 2 0 0 1-.5-2 .5 2 0 0 1 .5-2z" fill="#393634" fill-opacity=".51"/><path d="M113.5 265a1.5 3 0 0 0-1.5 3 1.5 3 0 0 0 1.5 3 1.5 3 0 0 0 1.5-3 1.5 3 0 0 0-1.5-3zm0 1a.5 2 0 0 1 .5 2 .5 2 0 0 1-.5 2 .5 2 0 0 1-.5-2 .5 2 0 0 1 .5-2z" fill="#393634" fill-opacity=".51"/></g></svg>