<svg version="1.0" viewBox="0 0 32 32" xmlns="http://www.w3.org/2000/svg"><g transform="translate(-100 -252)"><rect x="102" y="259" width="28" height="22" ry="2.5" fill="#ffcc85"/><path d="M117 264a2 2 0 0 0-2 2v6.188a2.927 2.927 0 0 0-1-.188 3 3 0 1 0 3 3v-7h6v4.188a2.927 2.927 0 0 0-1-.188 3 3 0 1 0 3 3v-9a2 2 0 0 0-2-2z" fill-opacity=".196"/><path d="M117 263a2 2 0 0 0-2 2v6.188a2.927 2.927 0 0 0-1-.188 3 3 0 1 0 3 3v-7h6v4.188a2.927 2.927 0 0 0-1-.188 3 3 0 1 0 3 3v-9a2 2 0 0 0-2-2z" fill="#fff"/><rect x="102" y="259" width="7" height="22" ry="2.5" fill="#faa41a"/><path fill="#faa41a" d="M105 259h4v22h-4z"/><path d="M104.5 259a2.495 2.495 0 0 0-2.5 2.5v17c0 1.385 1.115 2.5 2.5 2.5h23c1.385 0 2.5-1.115 2.5-2.5v-17c0-1.385-1.115-2.5-2.5-2.5zm.5 1h22c1.108 0 2 .892 2 2v15c0 1.108-.892 2-2 2h-22c-1.108 0-2-.892-2-2v-15c0-1.108.892-2 2-2z" fill-opacity=".502"/></g></svg>