<svg version="1.0" viewBox="0 0 32 32" xmlns="http://www.w3.org/2000/svg"><path d="M28 9.5v20c0 1.385-1.115 2.5-2.5 2.5h-19A2.495 2.495 0 0 1 4 29.5v-26C4 2.115 5.115 1 6.5 1h13" fill="#6f6f6f"/><path d="M27 10v18c0 1.108-.892 2-2 2H7c-1.108 0-2-.892-2-2V4c0-1.108.892-2 2-2h12" fill="#ececec"/><path d="M27 12h-7c-1.108 0-2-.892-2-2V2h1l8 8z" fill="#6f6f6f" fill-opacity=".502"/><path d="M27 10h-6c-1.108 0-2-.892-2-2V2" fill="#fafafa"/><path d="M10.5 25h1l4-10h1l4 10h1v1H18v-1h1l-.715-2H13.73L13 25h1v1h-3.5zm3.5-3h4l-1.996-5.21z"/><path d="M10 25.5H7.5v-10H10" fill="none" stroke="#000" stroke-opacity=".251"/><path d="M20.5 26v2.5h-10V26" fill="none" stroke="#000" stroke-opacity=".251"/></svg>