<svg version="1.0" viewBox="0 0 32 32" xmlns="http://www.w3.org/2000/svg"><g transform="translate(-100 -252)"><rect x="102" y="259" width="28" height="22" ry="2" fill="#245c63"/><rect x="103" y="260" width="26" height="19" ry="1.5" fill="#48b9c7"/><rect x="105" y="262" width="22" height="15" ry="1" fill="#f6f6f6"/><path d="M109 266v8h14v-8zm7 1a3 3 0 0 1 3 3 3 3 0 0 1-3 3 3 3 0 0 1-3-3 3 3 0 0 1 3-3z" fill="#1c8d9b" fill-opacity=".502"/><path d="m115 263-2 2h-3c-.554 0-1 .446-1 1h14c0-.554-.446-1-1-1h-3l-2-2zm-6 11c0 .554.446 1 1 1h12c.554 0 1-.446 1-1z" fill="#1c8d9b"/></g><style>.st0{fill:#261300}.st1{fill:#ff7c00}</style></svg>