<svg version="1.0" viewBox="0 0 32 32" xmlns="http://www.w3.org/2000/svg" xmlns:xlink="http://www.w3.org/1999/xlink"><g transform="translate(-100 5448)"><g id="a"><path transform="translate(0 -244)" d="M237.5 467a4.49 4.49 0 0 0-4.5 4.5v51a4.49 4.49 0 0 0 4.5 4.5h37a4.49 4.49 0 0 0 4.5-4.5v-39L262.5 467z" fill="#6f6f6f"/><path transform="translate(0 -244)" d="M278 484v36c0 2.216-1.784 4-4 4h-36c-2.216 0-4-1.784-4-4v-48c0-2.216 1.784-4 4-4h24" fill="#ececec"/><path d="M278 243h-13c-2.216 0-4-1.784-4-4v-15h1l16 16z" fill="#6f6f6f" fill-opacity=".502"/><path d="M278 240h-12c-2.216 0-4-1.784-4-4v-12" fill="#fafafa"/><path transform="translate(0 -244)" d="M339.5 407a8.481 8.481 0 0 0-8.5 8.5v100c0 4.709 3.791 8.5 8.5 8.5h73c4.709 0 8.5-3.791 8.5-8.5v-76L388.5 407z" fill="#6f6f6f"/><path transform="translate(0 -244)" d="M420 440v72c0 4.432-3.568 8-8 8h-72c-4.432 0-8-3.568-8-8v-96c0-4.432 3.568-8 8-8h48" fill="#ececec"/><path d="M420 200h-25c-4.432 0-8-3.568-8-8v-28h1l32 32z" fill="#6f6f6f" fill-opacity=".502"/><path d="M420 196h-24c-4.432 0-8-3.568-8-8v-24" fill="#fafafa"/><path transform="translate(0 -244)" d="M511.5 287a8.481 8.481 0 0 0-8.5 8.5v214c0 4.709 3.791 8.5 8.5 8.5h161c4.709 0 8.5-3.791 8.5-8.5V351.05l-64.447-64.055z" fill="#6f6f6f"/><path transform="translate(0 -244)" d="M680 352v152c0 4.432-3.568 8-8 8H512c-4.432 0-8-3.568-8-8V296c0-4.432 3.568-8 8-8h104" fill="#ececec"/><path d="M680 114h-57c-4.432 0-8-3.568-8-8V44h1l64 64z" fill="#6f6f6f" fill-opacity=".502"/><path d="M680 108h-56c-4.432 0-8-3.568-8-8V44" fill="#fafafa"/><path transform="translate(0 -244)" d="M166.6 482a3.591 3.591 0 0 0-3.6 3.6v37.8c0 1.995 1.606 3.6 3.6 3.6h26.801c1.994 0 3.6-1.605 3.6-3.6V495l-13-13z" fill="#6f6f6f"/><path transform="translate(0 -244)" d="M196 495v27c0 1.662-1.338 3-3 3h-26c-1.662 0-3-1.338-3-3v-36c0-1.662 1.338-3 3-3h17" fill="#ececec"/><path d="M196 253h-10c-1.662 0-3-1.338-3-3v-11h1l12 12z" fill="#6f6f6f" fill-opacity=".502"/><path d="M196 251h-9c-1.662 0-3-1.338-3-3v-9" fill="#fafafa"/><path transform="translate(0 -244)" d="M128 505.5v20c0 1.385-1.115 2.5-2.5 2.5h-19a2.495 2.495 0 0 1-2.5-2.5v-26c0-1.385 1.115-2.5 2.5-2.5h13" fill="#6f6f6f"/><path transform="translate(0 -244)" d="M127 506v18c0 1.108-.892 2-2 2h-18c-1.108 0-2-.892-2-2v-24c0-1.108.892-2 2-2h12" fill="#ececec"/><path d="M127 264h-7c-1.108 0-2-.892-2-2v-8h1l8 8z" fill="#6f6f6f" fill-opacity=".502"/><path d="M127 262h-6c-1.108 0-2-.892-2-2v-6" fill="#fafafa"/><path transform="translate(0 -244)" d="M60.5 504a2.495 2.495 0 0 0-2.5 2.5v19c0 1.385 1.115 2.5 2.5 2.5h15c1.385 0 2.5-1.115 2.5-2.5v-14l-7.5-7.5z" fill="#6f6f6f"/><path transform="translate(0 -244)" d="M77 512v13c0 1.108-.892 2-2 2H61c-1.108 0-2-.892-2-2v-18c0-1.108.892-2 2-2h9" fill="#ececec"/><path d="M77 269h-6c-1.108 0-2-.892-2-2v-6h1l7 7z" fill="#6f6f6f" fill-opacity=".502"/><path d="M77 268h-5c-1.108 0-2-.892-2-2v-5" fill="#fafafa"/></g><path d="M19.5 268c-.831 0-1.5.669-1.5 1.5v13c0 .831.669 1.5 1.5 1.5h9c.831 0 1.5-.669 1.5-1.5v-10l-4.5-4.5z" fill="#6f6f6f"/><path d="M29 273v9c0 .554-.446 1-1 1h-8c-.554 0-1-.446-1-1v-12c0-.554.446-1 1-1h5" fill="#ececec"/><path d="M29 274h-4c-.554 0-1-.446-1-1v-4h1l4 4z" fill="#6f6f6f" fill-opacity=".502"/><path d="M29 273h-3c-.554 0-1-.446-1-1v-3" fill="#fafafa"/><path d="M19.5-32c-.831 0-1.5.669-1.5 1.5v13c0 .831.669 1.5 1.5 1.5h9c.831 0 1.5-.669 1.5-1.5v-10L25.5-32z" fill="#6f6f6f"/><use id="b" transform="translate(0 -300)" width="100%" height="100%" xlink:href="#a"/><g transform="translate(0 50)" fill="#6f6f6f" fill-opacity=".784"><path d="m256-98-13-13v4l9 9-9 9v4z"/><rect x="252" y="-88" width="22" height="3" ry="1.5"/></g><path d="m180-39-10-10v3l7 7-7 7v3z" fill="#6f6f6f" fill-opacity=".784"/><rect x="177" y="-32" width="16" height="3" ry="1.5" fill="#6f6f6f" fill-opacity=".784"/><path d="m116-32-6-6v2l4 4-4 4v2z" fill="#6f6f6f" fill-opacity=".784"/><rect x="114" y="-28" width="11" height="2" ry="1" fill="#6f6f6f" fill-opacity=".784"/><path d="m68-28-6-6v2l4 4-4 4v2z" fill="#6f6f6f" fill-opacity=".784"/><rect x="66" y="-24" width="10" height="2" ry="1" fill="#6f6f6f" fill-opacity=".784"/><path d="M29-27v9c0 .554-.446 1-1 1h-8c-.554 0-1-.446-1-1v-12c0-.554.446-1 1-1h5" fill="#ececec"/><path d="M20-28v2l2 2-2 2v2l4-4z" fill="#6f6f6f" fill-opacity=".784"/><path d="M29-26h-4c-.554 0-1-.446-1-1v-4h1l4 4z" fill="#6f6f6f" fill-opacity=".502"/><rect x="23" y="-22" width="5" height="2" ry="1" fill="#6f6f6f" fill-opacity=".784"/><g transform="matrix(2 0 0 2 -141 116)" fill="#6f6f6f" fill-opacity=".784"><path d="m256-98-13-13v4l9 9-9 9v4z"/><rect x="252" y="-88" width="22" height="3" ry="1.5"/></g><g transform="matrix(4 0 0 4 -442 248)" fill="#6f6f6f" fill-opacity=".784"><path d="m256-98-13-13v4l9 9-9 9v4z"/><rect x="252" y="-88" width="22" height="3" ry="1.5"/></g><path d="M29-27h-3c-.554 0-1-.446-1-1v-3" fill="#fafafa"/><use id="c" transform="translate(0 -300)" width="100%" height="100%" xlink:href="#b"/><path d="M19.5-332c-.831 0-1.5.669-1.5 1.5v13c0 .831.669 1.5 1.5 1.5h9c.831 0 1.5-.669 1.5-1.5v-10l-4.5-4.5z" fill="#6f6f6f"/><path d="M29-327v9c0 .554-.446 1-1 1h-8c-.554 0-1-.446-1-1v-12c0-.554.446-1 1-1h5" fill="#ececec"/><path d="M29-326h-4c-.554 0-1-.446-1-1v-4h1l4 4z" fill="#6f6f6f" fill-opacity=".502"/><path d="M29-327h-3c-.554 0-1-.446-1-1v-3" fill="#fafafa"/><rect x="20" y="-324" width="8" height="1" ry=".5" fill="#474341" fill-opacity=".69"/><rect x="20" y="-322" width="8" height="1" ry=".5" fill="#474341" fill-opacity=".69"/><rect x="20" y="-320" width="5" height="1" ry=".456" fill="#474341" fill-opacity=".69"/><rect x="61" y="-320" width="9" height="1" ry=".456" fill="#474341" fill-opacity=".69"/><rect x="61" y="-323" width="14" height="1" ry=".456" fill="#474341" fill-opacity=".69"/><rect x="61" y="-326" width="14" height="1" ry=".456" fill="#474341" fill-opacity=".69"/><rect x="61" y="-329" width="14" height="1" ry=".456" fill="#474341" fill-opacity=".69"/><rect x="109" y="-323" width="9" height="1" ry=".456" fill="#474341" fill-opacity=".69"/><rect x="109" y="-326" width="14" height="1" ry=".456" fill="#474341" fill-opacity=".69"/><rect x="109" y="-329" width="14" height="1" ry=".456" fill="#474341" fill-opacity=".69"/><rect x="109" y="-332" width="14" height="1" ry=".456" fill="#474341" fill-opacity=".69"/><g transform="matrix(2 0 0 2 -244 339)" fill="#474341" fill-opacity=".69"><rect x="243" y="-334.5" width="9" height="1" ry=".456"/><rect x="243" y="-337.5" width="14" height="1" ry=".456"/><rect x="243" y="-340.5" width="14" height="1" ry=".456"/><rect x="243" y="-343.5" width="14" height="1" ry=".456"/></g><g transform="matrix(4 0 0 4 -624 993)" fill="#474341" fill-opacity=".69"><rect x="243" y="-334.5" width="9" height="1" ry=".456"/><rect x="243" y="-337.5" width="14" height="1" ry=".456"/><rect x="243" y="-340.5" width="14" height="1" ry=".456"/><rect x="243" y="-343.5" width="14" height="1" ry=".456"/></g><g transform="matrix(8 0 0 8 -1408 2304)" fill="#474341" fill-opacity=".69"><rect x="243" y="-334.5" width="9" height="1" ry=".456"/><rect x="243" y="-337.5" width="14" height="1" ry=".456"/><rect x="243" y="-340.5" width="14" height="1" ry=".456"/><rect x="243" y="-343.5" width="14" height="1" ry=".456"/></g><g transform="matrix(2 0 0 2 -318 345)" fill="#474341" fill-opacity=".69"><rect x="243" y="-334.5" width="7.5" height="1" ry=".456"/><rect x="243" y="-337.5" width="12" height="1" ry=".423"/><rect x="243" y="-340.5" width="12" height="1" ry=".375"/><rect x="243" y="-343.5" width="12" height="1" ry=".456"/></g><use id="d" transform="translate(0 -300)" width="100%" height="100%" xlink:href="#c"/><g transform="translate(-750 158)"><g transform="matrix(2 0 0 2 372.22 804.16)"><g color="#000"><path d="M375.68-825.05c-2.682 0-4.775 1.542-4.775 3.458v1.51h-1.575c-1.916 0-3.495 2.159-3.458 4.84l.033 2.384c.037 2.681 1.575 4.775 3.49 4.775h13.51v-13.509c0-1.916-2.16-3.458-4.842-3.458z" fill="#3776ab"/><path d="M378.06-803.05c2.682 0 4.841-1.542 4.841-3.458v-1.51h1.51c1.915 0 3.42-2.159 3.457-4.84l.033-2.384c.037-2.681-1.64-4.775-3.557-4.775h-1.443v3s.033 3-3 3h-6s-3 0-3 3v4.509c0 1.916 2.094 3.458 4.776 3.458z" fill="#ffd343"/></g><circle cx="373.9" cy="-822.05" r="1" fill="#fff"/><circle cx="379.9" cy="-806.05" r="1" fill="#fff"/></g><g transform="translate(629.11 15.08)"><g color="#000"><path d="M375.68-825.05c-2.682 0-4.775 1.542-4.775 3.458v1.51h-1.575c-1.916 0-3.495 2.159-3.458 4.84l.033 2.384c.037 2.681 1.575 4.775 3.49 4.775h13.51v-13.509c0-1.916-2.16-3.458-4.842-3.458z" fill="#3776ab"/><path d="M378.06-803.05c2.682 0 4.841-1.542 4.841-3.458v-1.51h1.51c1.915 0 3.42-2.159 3.457-4.84l.033-2.384c.037-2.681-1.64-4.775-3.557-4.775h-1.443v3s.033 3-3 3h-6s-3 0-3 3v4.509c0 1.916 2.094 3.458 4.776 3.458z" fill="#ffd343"/></g><circle cx="373.9" cy="-822.05" r="1" fill="#fff"/><circle cx="379.9" cy="-806.05" r="1" fill="#fff"/></g><rect transform="translate(0 -8)" x="767" y="-781" width="14" height="14" ry="1.5" fill="#6f6f6f"/><rect transform="translate(0 -8)" x="768" y="-780" width="12" height="12" ry="1" fill="#ececec"/><g transform="translate(750 -8)"><path d="M23.001-779s-2.042-.107-2 1v1h-1c-1.108 0-1 2-1 2v2c0 2 1 2 1 2h7v-7c0-1-2-1-2-1z" fill="#3776ab"/><path d="M25.001-769c2 0 2-1 2-1v-1h1c1 0 1-2 1-2v-2c0-2-1-2-1-2h-1v2c0 1-1 1-1 1h-4c-1 0-1 2-1 2v2c0 1.108 2 1 2 1z" fill="#ffd343"/><circle cx="22.501" cy="-777.5" r=".5" fill="#fff"/><circle cx="25.501" cy="-770.5" r=".5" fill="#fff"/></g><g transform="translate(794 -8.001)"><path d="M23.001-779s-2.042-.107-2 1v1h-1c-1.108 0-1 2-1 2v2c0 2 1 2 1 2h7v-7c0-1-2-1-2-1z" fill="#3776ab"/><path d="M25.001-769c2 0 2-1 2-1v-1h1c1 0 1-2 1-2v-2c0-2-1-2-1-2h-1v2c0 1-1 1-1 1h-4c-1 0-1 2-1 2v2c0 1.108 2 1 2 1z" fill="#ffd343"/><circle cx="22.501" cy="-777.5" r=".5" fill="#fff"/><circle cx="25.501" cy="-770.5" r=".5" fill="#fff"/></g><g transform="translate(629.11 15.08)"><g color="#000"><path d="M375.68-825.05c-2.682 0-4.775 1.542-4.775 3.458v1.51h-1.575c-1.916 0-3.495 2.159-3.458 4.84l.033 2.384c.037 2.681 1.575 4.775 3.49 4.775h13.51v-13.509c0-1.916-2.16-3.458-4.842-3.458z" fill="#3776ab"/><path d="M378.06-803.05c2.682 0 4.841-1.542 4.841-3.458v-1.51h1.51c1.915 0 3.42-2.159 3.457-4.84l.033-2.384c.037-2.681-1.64-4.775-3.557-4.775h-1.443v3s.033 3-3 3h-6s-3 0-3 3v4.509c0 1.916 2.094 3.458 4.776 3.458z" fill="#ffd343"/></g><circle cx="373.9" cy="-822.05" r="1" fill="#fff"/><circle cx="379.9" cy="-806.05" r="1" fill="#fff"/></g><path d="M864.33-792c-1.293 0-2.333.892-2.333 2v1h-1c-1.108 0-2 1.04-2 2.333v3.334c0 1.293.892 2.333 2 2.333h9v-9c0-1.108-1.04-2-2.333-2z" fill="#3776ab"/><path d="M867.67-778c1.293 0 2.333-.892 2.333-2v-1h1c1.108 0 2-1.04 2-2.333v-3.334c0-1.293-.892-2.333-2-2.333h-1v2c0 2-2 2-2 2h-4c-2 0-2 2-2 2v3c0 1.108 1.04 2 2.333 2z" fill="#ffd343"/><circle transform="translate(0 -8)" cx="863.5" cy="-782.5" r=".5" fill="#fff"/><circle transform="translate(0 -8)" cx="868.5" cy="-771.5" r=".5" fill="#fff"/><g transform="translate(553.11 23.047)"><g color="#000"><path d="M375.68-825.05c-2.682 0-4.775 1.542-4.775 3.458v1.51h-1.575c-1.916 0-3.495 2.159-3.458 4.84l.033 2.384c.037 2.681 1.575 4.775 3.49 4.775h13.51v-13.509c0-1.916-2.16-3.458-4.842-3.458z" fill="#3776ab"/><path d="M378.06-803.05c2.682 0 4.841-1.542 4.841-3.458v-1.51h1.51c1.915 0 3.42-2.159 3.457-4.84l.033-2.384c.037-2.681-1.64-4.775-3.557-4.775h-1.443v3s.033 3-3 3h-6s-3 0-3 3v4.509c0 1.916 2.094 3.458 4.776 3.458z" fill="#ffd343"/></g><circle cx="373.9" cy="-822.05" r="1" fill="#fff"/><circle cx="379.9" cy="-806.05" r="1" fill="#fff"/></g><g transform="matrix(4 0 0 4 -165.55 2382.3)"><g color="#000"><path d="M375.68-825.05c-2.682 0-4.775 1.542-4.775 3.458v1.51h-1.575c-1.916 0-3.495 2.159-3.458 4.84l.033 2.384c.037 2.681 1.575 4.775 3.49 4.775h13.51v-13.509c0-1.916-2.16-3.458-4.842-3.458z" fill="#3776ab"/><path d="M378.06-803.05c2.682 0 4.841-1.542 4.841-3.458v-1.51h1.51c1.915 0 3.42-2.159 3.457-4.84l.033-2.384c.037-2.681-1.64-4.775-3.557-4.775h-1.443v3s.033 3-3 3h-6s-3 0-3 3v4.509c0 1.916 2.094 3.458 4.776 3.458z" fill="#ffd343"/></g><circle cx="373.9" cy="-822.05" r="1" fill="#fff"/><circle cx="379.9" cy="-806.05" r="1" fill="#fff"/></g></g><use id="e" transform="translate(0 -300)" width="100%" height="100%" xlink:href="#d"/><g transform="translate(-750 208)" fill-rule="evenodd"><g clip-rule="evenodd" fill="#dd4f37"><path d="M863.9-1131.616s-.61.356.436.476c1.268.145 1.916.124 3.313-.14 0 0 .368.23.88.43-3.131 1.341-7.088-.078-4.628-.766z"/><path d="M863.518-1133.367s-.686.507.362.616c1.354.14 2.423.15 4.275-.205 0 0 .255.259.658.4-3.787 1.108-8.004.088-5.295-.811z"/><path d="M866.744-1136.34c.772.89-.202 1.69-.202 1.69s1.96-1.012 1.06-2.28c-.841-1.18-1.486-1.767 2.004-3.791 0 0-5.478 1.368-2.862 4.382z"/><path d="M870.887-1130.32s.452.373-.498.661c-1.808.548-7.525.713-9.113.022-.57-.248.5-.593.837-.665.35-.076.551-.062.551-.062-.635-.447-4.103.878-1.762 1.258 6.386 1.035 11.641-.467 9.985-1.214z"/><path d="M864.195-1135.182s-2.908.69-1.03.942c.793.106 2.374.081 3.847-.042 1.203-.101 2.411-.317 2.411-.317s-.424.182-.73.391c-2.954.777-8.659.415-7.016-.379 1.388-.672 2.518-.595 2.518-.595z"/><path d="M869.411-1132.267c3.002-1.56 1.614-3.058.645-2.856-.237.049-.343.092-.343.092s.088-.138.257-.198c1.916-.673 3.39 1.987-.619 3.041 0 0 .047-.042.06-.079z"/><path d="M867.602-1143.99s1.662 1.664-1.577 4.22c-2.598 2.052-.593 3.222-.001 4.559-1.517-1.368-2.629-2.573-1.883-3.694 1.096-1.645 4.131-2.442 3.46-5.084z"/><path d="M864.49-1128.04c2.88.185 7.306-.102 7.41-1.465 0 0-.2.517-2.38.927-2.46.463-5.493.409-7.292.112 0 0 .368.305 2.262.427z"/></g><g clip-rule="evenodd" fill="#dd4f37"><path d="M1001.8-1138.23s-1.221.71.872.95c2.536.29 3.831.249 6.625-.28 0 0 .736.46 1.762.86-6.265 2.684-14.179-.156-9.258-1.53z"/><path d="M1001.035-1141.734s-1.371 1.015.723 1.232c2.71.28 4.848.302 8.55-.41 0 0 .512.519 1.316.802-7.573 2.216-16.008.175-10.59-1.624z"/><path d="M1007.488-1147.678c1.544 1.778-.405 3.377-.405 3.377s3.92-2.023 2.12-4.558c-1.682-2.362-2.971-3.536 4.008-7.583 0 0-10.955 2.735-5.723 8.764z"/><path d="M1015.774-1135.64s.904.747-.997 1.323c-3.615 1.095-15.05 1.426-18.226.044-1.14-.497 1-1.185 1.673-1.331.702-.152 1.103-.124 1.103-.124-1.27-.894-8.207 1.756-3.523 2.516 12.772 2.07 23.282-.933 19.97-2.427z"/><path d="M1002.389-1145.364s-5.816 1.382-2.06 1.884c1.587.212 4.748.163 7.694-.084 2.407-.202 4.823-.634 4.823-.634s-.848.364-1.462.783c-5.907 1.553-17.316.83-14.031-.758 2.777-1.344 5.036-1.191 5.036-1.191z"/><path d="M1012.822-1139.533c6.004-3.12 3.228-6.117 1.29-5.713-.474.099-.686.184-.686.184s.176-.276.512-.395c3.834-1.347 6.782 3.974-1.236 6.082 0 0 .092-.084.12-.158z"/><path d="M1009.203-1162.978s3.324 3.326-3.154 8.44c-5.196 4.103-1.185 6.442-.002 9.116-3.033-2.736-5.258-5.145-3.766-7.387 2.192-3.29 8.263-4.886 6.922-10.169z"/><path d="M1002.979-1131.078c5.762.368 14.613-.205 14.822-2.932 0 0-.403 1.034-4.762 1.854-4.919.926-10.987.818-14.584.224 0 0 .737.61 4.524.854z"/></g><g clip-rule="evenodd" fill="#dd4f37"><path d="M1117.605-1152.464s-2.444 1.423 1.742 1.903c5.071.579 7.663.495 13.25-.56 0 0 1.472.92 3.524 1.717-12.53 5.368-28.356-.31-18.516-3.06z"/><path d="M1116.073-1159.47s-2.742 2.03 1.447 2.463c5.418.56 9.695.605 17.1-.82 0 0 1.022 1.038 2.632 1.605-15.147 4.43-32.016.349-21.18-3.248z"/><path d="M1128.978-1171.357c3.09 3.555-.81 6.752-.81 6.752s7.839-4.046 4.24-9.114c-3.363-4.725-5.94-7.072 8.016-15.166 0 0-21.91 5.47-11.446 17.527z"/><path d="M1145.55-1147.281s1.809 1.491-1.993 2.645c-7.23 2.19-30.1 2.85-36.451.087-2.282-.994 2-2.371 3.346-2.662 1.404-.304 2.206-.248 2.206-.248-2.54-1.788-16.413 3.512-7.046 5.032 25.543 4.14 46.562-1.865 39.937-4.854z"/><path d="M1118.781-1166.73s-11.63 2.763-4.119 3.767c3.173.425 9.495.327 15.387-.167 4.814-.404 9.646-1.268 9.646-1.268s-1.697.727-2.925 1.565c-11.814 3.107-34.63 1.66-28.06-1.516 5.553-2.687 10.07-2.381 10.07-2.381z"/><path d="M1139.647-1155.069c12.008-6.238 6.455-12.233 2.58-11.426-.948.198-1.373.37-1.373.37s.353-.554 1.025-.792c7.667-2.694 13.562 7.949-2.472 12.164 0 0 .184-.167.24-.316z"/><path d="M1132.409-1201.957s6.648 6.652-6.308 16.879c-10.39 8.207-2.37 12.885-.004 18.231-6.066-5.472-10.515-10.29-7.53-14.772 4.382-6.58 16.523-9.772 13.842-20.338z"/><path d="M1119.961-1138.16c11.524.738 29.225-.41 29.643-5.862 0 0-.805 2.067-9.524 3.707-9.837 1.852-21.972 1.636-29.166.448 0 0 1.474 1.22 9.047 1.708z"/></g><g clip-rule="evenodd" fill="#dd4f37"><path d="M1325.202-1187.021s-4.889 2.846 3.483 3.806c10.144 1.158 15.327.99 26.502-1.121 0 0 2.944 1.841 7.048 3.436-25.06 10.737-56.715-.622-37.034-6.121z"/><path d="M1322.137-1201.034s-5.483 4.06 2.895 4.926c10.836 1.119 19.39 1.21 34.202-1.64 0 0 2.044 2.076 5.263 3.21-30.295 8.862-64.035.698-42.361-6.496z"/><path d="M1347.95-1224.81c6.177 7.112-1.62 13.506-1.62 13.506s15.677-8.092 8.478-18.23c-6.725-9.449-11.881-14.143 16.034-30.333 0 0-43.82 10.942-22.893 35.057z"/><path d="M1381.093-1176.655s3.619 2.983-3.986 5.29c-14.461 4.38-60.2 5.701-72.905.175-4.563-1.987 3.999-4.742 6.693-5.324 2.808-.608 4.412-.497 4.412-.497-5.079-3.577-32.828 7.024-14.093 10.064 51.089 8.282 93.13-3.73 79.877-9.708z"/><path d="M1327.554-1215.555s-23.263 5.527-8.238 7.535c6.346.85 18.99.654 30.774-.335 9.63-.808 19.293-2.536 19.293-2.536s-3.393 1.455-5.85 3.132c-23.628 6.214-69.264 3.32-56.123-3.033 11.107-5.374 20.143-4.763 20.143-4.763z"/><path d="M1369.287-1192.231c24.017-12.477 12.912-24.468 5.16-22.853-1.895.396-2.745.738-2.745.738s.706-1.106 2.05-1.582c15.335-5.389 27.125 15.898-4.944 24.328 0 0 .368-.334.48-.631z"/><path d="M1354.81-1286.012s13.298 13.306-12.617 33.76c-20.781 16.414-4.738 25.77-.007 36.465-12.132-10.945-21.03-20.581-15.062-29.547 8.765-13.161 33.05-19.544 27.686-40.678z"/><path d="M1329.914-1158.41c23.048 1.473 58.452-.82 59.289-11.727 0 0-1.61 4.135-19.05 7.415-19.674 3.704-43.945 3.273-58.335.897 0 0 2.948 2.44 18.096 3.415z"/></g><g clip-rule="evenodd" fill="#dd4f37"><path d="M816.428-1128.711s-.459.266.326.356c.951.109 1.437.093 2.485-.105 0 0 .276.173.66.322-2.349 1.007-5.316-.058-3.471-.573z"/><path d="M816.14-1130.025s-.514.38.272.462c1.016.105 1.818.113 3.206-.154 0 0 .192.195.494.301-2.84.83-6.004.065-3.972-.61z"/><path d="M818.56-1132.254c.58.667-.152 1.266-.152 1.266s1.47-.758.795-1.709c-.63-.886-1.114-1.326 1.503-2.844 0 0-4.108 1.026-2.146 3.287z"/><path d="M821.668-1127.74s.339.28-.374.496c-1.356.411-5.644.535-6.835.017-.428-.187.375-.445.627-.5.264-.056.414-.046.414-.046-.476-.335-3.078.659-1.321.944 4.79.776 8.73-.35 7.488-.91z"/><path d="M816.648-1131.386s-2.18.518-.772.706c.595.08 1.78.061 2.885-.031.903-.076 1.809-.238 1.809-.238s-.318.136-.549.293c-2.215.583-6.493.312-5.261-.284 1.041-.504 1.888-.446 1.888-.446z"/><path d="M820.56-1129.2c2.252-1.17 1.211-2.294.484-2.142-.177.037-.257.069-.257.069s.066-.104.192-.148c1.438-.506 2.543 1.49-.463 2.28 0 0 .034-.031.045-.059z"/><path d="M819.203-1137.992s1.247 1.248-1.182 3.165c-1.949 1.54-.445 2.416-.001 3.419-1.137-1.026-1.972-1.93-1.412-2.77.822-1.234 3.098-1.832 2.595-3.814z"/><path d="M816.87-1126.03c2.16.139 5.48-.076 5.558-1.099 0 0-.151.388-1.786.696-1.845.347-4.12.306-5.469.084 0 0 .276.228 1.696.32z"/></g><rect transform="translate(0 -8)" x="766" y="-1132" width="16" height="16" rx="2" ry="2" fill="#6e271b"/><rect transform="translate(0 -8)" x="767" y="-1131" width="14" height="14" ry="1" fill="#dd4f37"/><g clip-rule="evenodd" fill="#fff"><path d="M772.43-1128.7s-.458.267.327.357c.95.108 1.436.093 2.484-.105 0 0 .276.172.66.322-2.348 1.006-5.316-.058-3.471-.574z"/><path d="M772.143-1130s-.514.38.271.462c1.016.105 1.818.113 3.207-.154 0 0 .191.195.493.301-2.84.83-6.003.065-3.97-.609z"/><path d="M774.563-1132.3c.58.667-.152 1.266-.152 1.266s1.47-.758.795-1.709c-.63-.886-1.114-1.326 1.503-2.844 0 0-4.108 1.026-2.146 3.287z"/><path d="M777.67-1127.7s.34.28-.374.496c-1.355.41-5.643.534-6.834.016-.428-.186.374-.445.627-.5.263-.056.414-.046.414-.046-.476-.336-3.078.658-1.322.943 4.79.777 8.731-.35 7.489-.91z"/><path d="M772.65-1131.4s-2.18.518-.772.707c.595.08 1.78.06 2.885-.032.903-.076 1.808-.237 1.808-.237s-.318.136-.548.293c-2.215.583-6.493.312-5.261-.284 1.04-.504 1.888-.447 1.888-.447z"/><path d="M776.563-1129.2c2.252-1.17 1.21-2.294.484-2.143-.178.038-.258.07-.258.07s.067-.104.193-.149c1.437-.505 2.542 1.49-.464 2.281 0 0 .035-.031.045-.059z"/><path d="M775.206-1138s1.247 1.247-1.183 3.165c-1.948 1.539-.444 2.416 0 3.418-1.138-1.026-1.972-1.93-1.412-2.77.821-1.234 3.098-1.832 2.595-3.813z"/><path d="M772.872-1126c2.16.138 5.48-.077 5.558-1.1 0 0-.15.388-1.786.696-1.844.347-4.12.307-5.468.084 0 0 .276.229 1.696.32z"/></g><g clip-rule="evenodd" fill="#dd4f37"><path d="M926.846-1135.423s-.916.533.653.713c1.902.217 2.874.186 4.97-.21 0 0 .551.345 1.32.644-4.698 2.013-10.633-.116-6.943-1.147z"/><path d="M926.272-1138.05s-1.028.76.542.923c2.032.21 3.636.227 6.413-.308 0 0 .383.39.987.602-5.68 1.662-12.006.131-7.943-1.218z"/><path d="M931.111-1142.509c1.159 1.334-.303 2.533-.303 2.533s2.94-1.518 1.59-3.418c-1.262-1.772-2.228-2.652 3.006-5.688 0 0-8.217 2.052-4.293 6.573z"/><path d="M937.326-1133.48s.678.56-.748.992c-2.711.821-11.287 1.069-13.669.033-.856-.373.75-.89 1.255-.999.526-.113.827-.093.827-.093-.952-.67-6.155 1.317-2.642 1.887 9.579 1.553 17.461-.699 14.976-1.82z"/><path d="M927.287-1140.773s-4.361 1.036-1.544 1.412c1.19.16 3.56.123 5.77-.062 1.805-.152 3.617-.476 3.617-.476s-.636.273-1.097.587c-4.43 1.165-12.986.623-10.523-.568 2.083-1.008 3.777-.893 3.777-.893z"/><path d="M935.112-1136.4c4.503-2.34 2.42-4.588.968-4.285-.356.074-.515.138-.515.138s.132-.207.384-.296c2.875-1.01 5.086 2.98-.927 4.561 0 0 .07-.063.09-.118z"/><path d="M932.398-1153.984s2.493 2.495-2.366 6.33c-3.896 3.078-.888 4.832-.001 6.837-2.275-2.052-3.943-3.859-2.824-5.54 1.643-2.468 6.196-3.664 5.19-7.627z"/><path d="M927.73-1130.06c4.321.277 10.96-.153 11.116-2.198 0 0-.302.775-3.571 1.39-3.69.695-8.24.614-10.938.169 0 0 .553.457 3.393.64z"/></g></g><use id="f" transform="translate(0 -300)" width="100%" height="100%" xlink:href="#e"/><g transform="translate(-750 258)"><g fill="#7986cb"><path d="M868-1494v6h2.5l-4.5 7-4.5-7h2.5v-6z"/><path d="M861-1480a1 1 0 1 0 0 2h10a1 1 0 1 0 0-2z"/></g><g fill="#7986cb"><path d="M819-1492v6h2.5l-4.5 7-4.5-7h2.5v-6z"/><path d="M812-1478a1 1 0 1 0 0 2h10a1 1 0 1 0 0-2z"/></g><path d="M779-1484h-4c-.554 0-1-.446-1-1v-4h1l4 4z" fill="#6f6f6f" fill-opacity=".502"/><path d="M779-1485h-3c-.554 0-1-.446-1-1v-3" fill="#fafafa"/><rect transform="translate(0 -8)" x="766" y="-1482" width="16" height="16" ry="1.5" fill="#3c4365"/><rect transform="translate(0 -8)" x="767" y="-1481" width="14" height="14" ry="1" fill="#7986cb"/><g fill="#fff"><path d="M776-1488v3h2v1l-3.5 5h-1l-3.5-5v-1h2v-3z"/><path d="M769-1478a1 1 0 1 0 0 2h10a1 1 0 1 0 0-2z"/></g><g fill="#7986cb"><path d="M1010-1513v12h5l-9 14-9-14h5v-12z"/><path d="M996-1485a2 2 0 1 0 0 4h20a2 2 0 1 0 0-4z"/></g><g fill="#7986cb"><path d="M1134.01-1552v24h10l-18 28-18-28h10v-24z"/><path d="M1106.01-1496a4 4 0 1 0 0 8h40a4 4 0 1 0 0-8z"/></g><g fill="#7986cb"><path d="M1358.02-1630v48h20l-36 56-36-56h20v-48z"/><path d="M1302.02-1518a8 8 0 1 0 0 16h80a8 8 0 1 0 0-16z"/></g><g fill="#7986cb"><path d="M933.005-1503v9h3.75l-6.25 10h-1l-6.25-10h3.75v-9z"/><path d="M922.505-1482a1.5 1.5 0 1 0 0 3h15a1.5 1.5 0 1 0 0-3z"/></g></g><use id="g" transform="translate(0 -300)" width="100%" height="100%" xlink:href="#f"/><g transform="translate(-750 300)"><path d="M871.69-1824.8q-.065 1.422-.767 2.516-.701 1.085-1.973 1.683-1.263.599-2.89.599-2.684 0-4.227-1.749-1.543-1.75-1.543-4.938v-.673q0-2.002.692-3.498.701-1.506 2.01-2.32 1.31-.822 3.03-.822 2.479 0 3.985 1.31 1.505 1.299 1.711 3.59h-3.273q-.038-1.243-.627-1.786-.589-.542-1.795-.542-1.225 0-1.796.916-.57.916-.598 2.927v.964q0 2.179.542 3.114.552.935 1.889.935 1.132 0 1.73-.533.599-.533.636-1.693z" fill="#3f51b5"/><path d="M938.12-1828.9q-.093 2.03-1.095 3.594-1.002 1.55-2.82 2.405-1.803.855-4.128.855-3.834 0-6.038-2.499-2.205-2.498-2.205-7.054v-.962q0-2.859.989-4.996 1.002-2.151 2.872-3.314 1.87-1.175 4.329-1.175 3.54 0 5.691 1.87 2.151 1.857 2.445 5.13h-4.676q-.053-1.776-.895-2.551-.842-.775-2.565-.775-1.75 0-2.565 1.309-.815 1.31-.855 4.182v1.376q0 3.113.775 4.449.788 1.336 2.698 1.336 1.617 0 2.472-.762.855-.761.908-2.418z" fill="#3f51b5"/><path d="M822.06-1822.4q-.047 1.016-.548 1.797-.5.775-1.41 1.202-.901.428-2.063.428-1.918 0-3.02-1.249-1.102-1.25-1.102-3.527v-.481q0-1.43.494-2.499.501-1.075 1.437-1.656.935-.588 2.164-.588 1.77 0 2.846.935 1.075.929 1.222 2.565h-2.338q-.027-.888-.448-1.276-.42-.387-1.282-.387-.875 0-1.283.655-.407.654-.427 2.09v.688q0 1.557.387 2.225.394.668 1.35.668.808 0 1.235-.38.428-.382.455-1.21z" fill="#3f51b5"/><path d="M1017.4-1834.6q-.13 2.843-1.534 5.032-1.403 2.17-3.946 3.367-2.525 1.197-5.78 1.197-5.368 0-8.454-3.498-3.086-3.498-3.086-9.876v-1.347q0-4.002 1.384-6.995 1.403-3.011 4.021-4.639 2.619-1.645 6.06-1.645 4.957 0 7.968 2.618 3.012 2.6 3.423 7.182h-6.546q-.075-2.487-1.253-3.572-1.179-1.085-3.592-1.085-2.45 0-3.59 1.833-1.142 1.833-1.198 5.855v1.926q0 4.358 1.085 6.229 1.103 1.87 3.778 1.87 2.263 0 3.46-1.066t1.272-3.386z" fill="#3f51b5"/><path d="M1148.7-1853.2q-.262 5.687-3.067 10.065-2.806 4.338-7.894 6.732-5.05 2.394-11.559 2.394-10.736 0-16.908-6.994-6.172-6.997-6.172-19.753v-2.694q0-8.005 2.768-13.99 2.806-6.022 8.043-9.277 5.237-3.292 12.12-3.292 9.913 0 15.936 5.237 6.023 5.2 6.846 14.364h-13.093q-.15-4.974-2.506-7.144-2.357-2.17-7.183-2.17-4.9 0-7.182 3.667-2.282 3.665-2.394 11.708v3.853q0 8.716 2.17 12.457 2.206 3.74 7.556 3.74 4.526 0 6.92-2.132t2.544-6.772z" fill="#3f51b5"/><path d="M1387.5-1890.4q-.523 11.374-6.135 20.13-5.611 8.677-15.786 13.465-10.1 4.788-23.118 4.788-21.472 0-33.817-13.989-12.345-13.994-12.345-39.506v-5.387q0-16.01 5.537-27.98 5.61-12.046 16.085-18.555 10.474-6.583 24.24-6.583 19.826 0 31.872 10.474 12.045 10.399 13.69 28.728h-26.185q-.3-9.948-5.013-14.288t-14.365-4.34q-9.8 0-14.365 7.332-4.563 7.33-4.788 23.417v7.706q0 17.433 4.34 24.914 4.413 7.482 15.112 7.482 9.053 0 13.841-4.265 4.788-4.264 5.088-13.543z" fill="#3f51b5"/><rect x="766" y="-1832" width="16" height="16" ry="1.5" fill="#1f285a" fill-rule="evenodd"/><rect x="767" y="-1831" width="14" height="14" ry="1" fill="#3f51b5" fill-rule="evenodd"/><path d="M777.98-1822.4q-.047 1.016-.548 1.797-.5.775-1.41 1.202-.901.428-2.063.428-1.918 0-3.02-1.249-1.102-1.25-1.102-3.527v-.481q0-1.43.494-2.499.501-1.075 1.437-1.656.935-.588 2.164-.588 1.77 0 2.846.935 1.075.929 1.222 2.565h-2.338q-.027-.888-.448-1.276-.42-.387-1.282-.387-.875 0-1.283.655-.407.654-.427 2.09v.689q0 1.556.387 2.224.394.668 1.35.668.808 0 1.235-.38.428-.381.455-1.21z" fill="#fff"/></g><use id="h" transform="translate(0 -300)" width="100%" height="100%" xlink:href="#g"/><g transform="translate(-750 -102)"><path d="m859.829-1732.047 1.123 12.601 5.041 1.4 5.056-1.402 1.124-12.598zm2.297 2.576h7.74l-.036.415-.07.783-.031.348h-5.914l.141 1.582h5.632l-.038.415-.363 4.069-.023.26-3.163.877-.007.002-3.166-.879-.216-2.426h1.551l.11 1.232 1.721.465h.002l1.723-.466.18-2.004h-5.356l-.38-4.259-.037-.414z" fill="#e44d26"/><path d="m859.829-1732.047 1.123 12.601 5.041 1.4.008-.002v-2.673l-.007.001-3.166-.878-.216-2.427h1.551l.11 1.233 1.721.464h.002l.005-.002v-2.468h-3.458l-.38-4.259-.037-.414H866v-2.575h-6.172zm3.986 4.122.141 1.582h2.045v-1.582h-.005z" opacity=".1"/><path d="m813.59-1726.99.801 9 3.601 1 3.611-1 .803-9zm1.64 1.84h5.53l-.027.296-.05.56-.023.248h-4.224l.101 1.13h4.023l-.027.297-.26 2.906-.016.186-2.26.626-.004.002-2.261-.628-.155-1.733h1.108l.079.88 1.229.332h.001l1.231-.333.128-1.431h-3.825l-.272-3.042-.026-.296z" fill="#e44d26"/><path d="m813.59-1726.99.801 9 3.601 1 .006-.001v-1.91l-.005.002-2.262-.628-.154-1.733h1.108l.079.88 1.229.332.005-.001v-1.763h-2.47l-.272-3.042-.026-.296h2.768v-1.84h-4.409zm2.846 2.944.101 1.13h1.46v-1.13h-.003z" opacity=".1"/><path d="m921.178-1740.98 1.605 18.001 7.202 2 7.221-2.002 1.607-17.998zm3.282 3.68h11.058l-.053.592-.1 1.12-.044.496h-8.448l.201 2.26h8.046l-.054.593-.519 5.813-.033.373-4.518 1.252-.01.003-4.523-1.256-.31-3.466h2.217l.157 1.76 2.459.664h.002l2.462-.665.257-2.863h-7.652l-.542-6.084-.053-.593z" fill="#e44d26"/><path d="m921.178-1740.98 1.605 18.001 7.202 2 .01-.003v-3.819l-.01.003-4.522-1.256-.31-3.466h2.217l.157 1.76 2.459.665.002-.001.008-.002v-3.526h-4.941l-.543-6.084-.053-.592h5.536v-3.68h-8.817zm5.694 5.888.202 2.26h2.922v-2.26h-.008z" opacity=".1"/><path d="m993.659-1751.01 2.247 25.202 10.083 2.799 10.11-2.803 2.25-25.198zm4.594 5.151h15.483l-.074.83-.14 1.566-.063.695h-11.828l.283 3.165h11.264l-.075.83-.727 8.138-.046.522-6.326 1.753-.014.004-6.332-1.758-.433-4.853h3.103l.22 2.465 3.442.93.003-.002 3.448-.93.358-4.009h-10.712l-.76-8.518-.074-.829z" fill="#e44d26"/><path d="m993.659-1751.01 2.247 25.202 10.083 2.799.015-.004v-5.347l-.014.004-6.332-1.757-.433-4.854h3.103l.22 2.465 3.442.93.003-.001.01-.003v-4.936h-6.916l-.76-8.518-.074-.829h7.75v-5.151H993.66zm7.972 8.242.283 3.165h4.09v-3.165h-.01z" opacity=".1"/><path d="m1101.334-1787.997 4.494 50.402 20.165 5.598 20.22-5.606 4.498-50.394zm9.188 10.302h30.964l-.147 1.658-.282 3.135-.124 1.389h-23.655l.565 6.33h22.528l-.151 1.66-1.452 16.274-.094 1.044-12.65 3.507-.03.007-12.662-3.515-.866-9.706h6.206l.44 4.93 6.884 1.86.006-.004 6.895-1.86.717-8.017h-21.424l-1.52-17.035-.147-1.658z" fill="#e44d26"/><path d="m1101.334-1787.997 4.494 50.402 20.165 5.598.03-.008v-10.693l-.029.008-12.662-3.515-.866-9.706h6.205l.44 4.93 6.884 1.859.006-.003.022-.006v-9.872h-13.833l-1.52-17.035-.148-1.656h15.5v-10.303h-24.688zm15.944 16.484.565 6.33h8.18v-6.33h-.021z" opacity=".1"/><path d="m1292.669-1862.005 8.986 100.805 40.33 11.196 40.442-11.211 8.996-100.79zm18.376 20.606h61.928l-.296 3.316-.562 6.268-.248 2.779h-47.31l1.13 12.66h45.055l-.302 3.32-2.905 32.548-.186 2.089-25.302 7.012-.057.016-25.326-7.03-1.732-19.413h12.411l.88 9.86 13.769 3.718.012-.005 13.789-3.722 1.435-16.034h-42.848l-3.038-34.07-.297-3.316z" fill="#e44d26"/><path d="m1292.669-1862.005 8.986 100.805 40.33 11.196.06-.016v-21.385l-.056.015-25.326-7.03-1.732-19.412h12.411l.88 9.859 13.769 3.719.012-.006.043-.011v-19.744h-27.667l-3.038-34.07-.297-3.314h31.001v-20.605h-49.377zm31.888 32.968 1.13 12.66h16.36v-12.66h-.044z" opacity=".1"/><rect x="766" y="-1730" width="16" height="16" rx="2" ry="2" fill="#722613" fill-rule="evenodd"/><rect x="767" y="-1729" width="14" height="14" rx="1.75" ry="1.75" fill="#e44d26" fill-rule="evenodd"/><path d="m769.591-1727.05.803 9 3.6 1 3.612-1 .803-9zm1.641 1.84h5.53l-.027.296-.05.56-.022.248h-4.224l.1 1.13h4.023l-.027.297-.26 2.906-.016.186-2.259.626-.005.002-2.261-.628-.155-1.733h1.108l.079.88 1.23.332 1.231-.333.129-1.431h-3.826l-.271-3.042-.027-.296z" fill="#fff"/><path d="m769.591-1727.05.803 9 3.6 1 .006-.001v-1.91l-.005.002-2.261-.628-.155-1.733h1.108l.079.88 1.23.332.004-.001v-1.763h-2.47l-.271-3.042-.027-.296H774v-1.84h-4.409zm2.848 2.944.1 1.13H774v-1.13h-.004z" opacity=".1"/></g><use id="i" transform="translate(0 -300)" width="100%" height="100%" xlink:href="#h"/><g fill-rule="evenodd"><path d="m109.7-2133 3.272 6-3.272 6h2l3.272-6-3.272-6zm3.333 0 3.272 6-3.272 6h2l2.272-4.167 2.273 4.167h2l-2.473-4.534-.436-.8-.364-.666-3.272-6zm5.515 4 .728 1.333h3.03V-2129zm1.454 2.667.728 1.333h1.576v-1.333z" fill="#5f5088"/><path d="m63.27-2128 2.454 4.5-2.454 4.5h1.5l2.454-4.5-2.454-4.5zm2.5 0 2.454 4.5-2.454 4.5h1.5l1.704-3.125 1.704 3.125h1.5l-1.854-3.4-.327-.6-.273-.5-2.454-4.5zm4.136 3 .546 1h2.272v-1zm1.09 2 .547 1h1.181v-1z" fill="#5f5088"/><path d="m170.55-2142 4.908 9-4.908 9h3l4.908-9-4.908-9zm5 0 4.908 9-4.908 9h3l3.408-6.25 3.408 6.25h3l-3.709-6.8-.654-1.2-.545-1-4.908-9zm8.272 6 1.091 2h4.545v-2zm2.181 4 1.092 2h2.363v-2z" fill="#5f5088"/><path d="m243.39-2150 6.544 12-6.544 12h4l6.544-12-6.544-12zm6.667 0 6.544 12-6.545 12h4l4.545-8.333 4.544 8.333h4l-4.945-9.068-.873-1.599-.726-1.333-6.545-12zm11.029 8 1.455 2.667h6.06V-2142zm2.908 5.333 1.456 2.667h3.151v-2.667z" fill="#5f5088"/><path d="m350.8-2187 13.088 24-13.088 24h8l13.088-24-13.088-24zm13.333 0 13.088 24-13.088 24h8l9.088-16.667L390.31-2139h8l-9.89-18.136-1.745-3.198-1.454-2.666-13.088-24zm22.058 16 2.912 5.333h12.12V-2171zm5.818 10.667 2.911 5.333h6.302v-5.333z" fill="#5f5088"/><path d="m541.6-2258 26.177 48-26.177 48h16l26.177-48-26.177-48zm26.666 0 26.177 48-26.177 48h16l18.177-33.334L620.62-2162h16l-19.781-36.271-3.49-6.395-2.906-5.334-26.177-48zm44.116 32 5.823 10.666h24.24V-2226zm11.635 21.334L629.84-2194h12.604v-10.666z" fill="#5f5088"/><g transform="translate(1.05 394)"><rect x="14.954" y="-2526" width="16" height="16" rx="2" ry="2" fill="#5f5088"/><path d="m18.5-2523 2.454 4.5-2.454 4.5H20l2.454-4.5L20-2523zm2.5 0 2.454 4.5L21-2514h1.5l1.704-3.125 1.704 3.125h1.5l-1.854-3.4-.327-.6-.273-.5-2.454-4.5zm4.136 3 .546 1h2.272v-1zm1.09 2 .547 1h1.181v-1z" fill="#fff"/></g></g><use id="j" transform="translate(0 -300)" width="100%" height="100%" xlink:href="#i"/><g fill-rule="evenodd"><path d="m111.5-2432-2.5 3h3.5zm1.166 0 .334 2 1.666-2zm3.334 0-2.5 3h5zm1.334 0 1.666 2 .334-2zm3.166 0-1 3h3.5zm-11.5 4 6.5 7-3-7zm4.5 0 2.5 6 2.5-6zm6 0-3 7 6.5-7z" fill="#f44336"/><path d="m64.5-2428-2 3h3zm1.166 0 .334 2 1.166-2zm2.334 0-1.5 3h3zm.834 0 1.166 2 .334-2zm2.666 0-1 3h3zm-9 4 5 5-2-5zm4 0 1.5 4 1.5-4zm4 0-2 5 5-5z" fill="#f44336"/><path d="m174-2440-3 4h5zm1 0 1.5 3 2-3zm5 0-3 4h6zm1.5 0 2 3 1.5-3zm4.5 0-2 4h5zm-15 5 8.5 10-3.5-10zm6 0 3 9 3-9zm7 0-3.5 10 8.5-10z" fill="#f44336"/><path d="m247-2450-5 6h7zm2.332 0 .668 4 3.332-4zm6.668 0-5 6h10zm2.668 0 3.332 4 .668-4zm6.332 0-2 6h7zm-23 8 13 14-6-14zm9 0 5 12 5-12zm12 0-6 14 13-14z" fill="#f44336"/><path d="m358-2484-10 12h14zm4.664 0 1.336 8 6.664-8zm13.336 0-10 12h20zm5.336 0 6.664 8 1.336-8zm12.664 0-4 12h14zm-46 16 26 28-12-28zm18 0 10 24 10-24zm24 0-12 28 26-28z" fill="#f44336"/><path d="m556-2552-20 24h28zm9.328 0 2.672 16 13.328-16zm26.672 0-20 24h40zm10.672 0L616-2536l2.672-16zm25.328 0-8 24h28zm-92 32 52 56-24-56zm36 0 20 48 20-48zm48 0-24 56 52-56z" fill="#f44336"/><g transform="translate(0 450)"><rect x="16" y="-2882" width="16" height="16" rx="2" ry="2" fill="#f44336"/><path d="m20-2879-2 3h3zm1.166 0 .334 2 1.166-2zm2.834 0-2 3h4zm1.334 0 1.166 2 .334-2zm2.666 0-1 3h3zm-10 4 5.5 6-2.5-6zm4 0 2 5 2-5zm5 0-2.5 6 5.5-6z" fill="#fff"/></g></g><use id="k" transform="translate(0 -300)" width="100%" height="100%" xlink:href="#j"/><g fill="#1976d2"><path d="M116-2733a.169.169 0 0 0-.146.076l-.313.506-.146.014-.405-.434c-.082-.088-.249-.054-.29.06l-.208.552-.142.043-.48-.346c-.098-.07-.253-.01-.272.114l-.096.584-.13.07-.54-.247c-.11-.05-.25.044-.246.165l.021.593-.113.094-.578-.136c-.117-.027-.236.092-.209.209l.137.578-.094.113-.594-.021c-.12-.01-.214.136-.164.246l.246.54-.07.13-.584.096c-.119.019-.183.174-.113.272l.345.48-.043.143-.554.207c-.113.042-.145.208-.057.29l.434.403-.016.148-.504.313c-.102.063-.102.232 0 .295l.504.31.016.149-.434.404c-.088.082-.056.247.057.29l.554.206.043.143-.345.48c-.07.098-.005.255.113.274l.584.094.07.13-.246.54c-.05.11.045.25.164.246l.594-.021.094.113-.137.578c-.027.117.092.237.21.209l.577-.137.113.094-.021.592c-.005.12.137.214.246.164l.54-.244.13.068.096.584c.019.119.174.183.271.113l.48-.345.143.043.207.554c.042.113.207.146.29.057l.404-.433.148.016.313.504c.062.101.231.101.294 0l.311-.504.148-.016.405.433c.082.088.247.055.289-.057l.207-.554.142-.043.48.345c.098.07.253.01.272-.113l.096-.584.13-.068.54.244c.11.05.25-.043.246-.164l-.021-.592.113-.094.578.137c.117.027.236-.092.209-.209l-.137-.578.094-.113.594.02c.12.01.214-.136.164-.245l-.246-.54.07-.13.584-.094c.119-.02.184-.176.113-.274l-.345-.48.043-.143.554-.207c.113-.042.145-.207.057-.289l-.434-.404.016-.149.504-.31c.102-.063.102-.232 0-.295l-.504-.313-.016-.148.434-.402c.088-.082.056-.25-.057-.291l-.554-.207-.043-.143.345-.48c.07-.097.006-.252-.113-.272l-.584-.096-.07-.13.246-.54c.05-.11-.044-.25-.164-.246l-.594.021-.094-.113.137-.578c.027-.118-.092-.237-.21-.21l-.575.137-.115-.094.021-.593c.005-.12-.137-.214-.246-.165l-.54.247-.13-.07-.094-.584c-.019-.119-.176-.184-.273-.114l-.48.346-.143-.043-.207-.553c-.042-.113-.207-.146-.29-.059l-.404.434-.146-.014-.313-.506A.172.172 0 0 0 116-2733zm0 1.998a4 4 0 0 1 4 4 4 4 0 0 1-4 4 4 4 0 0 1-4-4 4 4 0 0 1 4-4z"/><path d="M112-2730v1h1v4h-1v1h4v-1h-1v-2c1 0 1 3 2 3h2c1 0 1-3 1-3h-1s0 2-1 2c-.471 0-1-2-1-2h.5c.831 0 1.5-.669 1.5-1.5s-.669-1.5-1.5-1.5H116zm3 1h2a.499.499 0 1 1 0 1h-2z"/></g><g fill="#1976d2"><path d="M68-2730a.155.155 0 0 0-.135.07l-.285.463-.135.014-.37-.399c-.076-.08-.228-.049-.266.055l-.192.506-.13.04-.44-.317c-.09-.064-.23-.01-.248.104l-.088.535-.121.064-.494-.225c-.1-.046-.23.04-.225.15l.02.543-.104.086-.531-.125c-.108-.025-.217.084-.192.192l.125.53-.086.104-.542-.019c-.11-.01-.197.126-.15.227l.224.494-.065.12-.535.087c-.109.017-.168.16-.103.25l.316.44-.039.13-.508.19c-.103.038-.133.192-.053.268l.399.367-.016.137-.46.287c-.094.058-.094.211 0 .27l.46.284.016.137-.399.37c-.08.074-.05.226.053.265l.508.19.039.13-.316.442c-.065.09-.005.232.103.25l.535.086.065.12-.225.495c-.046.1.04.229.15.224l.543-.02.086.104-.125.531c-.025.108.084.217.192.192l.531-.125.104.086-.02.543c-.005.11.124.194.225.148l.494-.223.12.062.089.536c.018.109.158.167.248.103l.44-.316.13.039.192.508c.038.103.188.134.263.053l.371-.399.137.016.285.46c.058.094.214.094.272 0l.283-.46.137-.016.37.399c.076.08.228.05.266-.053l.19-.508.13-.04.44.317c.09.064.232.01.25-.103l.086-.536.121-.062.494.223c.1.046.229-.037.225-.148l-.02-.543.104-.086.531.125c.108.025.217-.084.192-.192l-.125-.531.085-.104.543.02c.11.01.197-.124.15-.224l-.224-.494.065-.121.535-.086c.109-.017.168-.16.103-.25l-.316-.442.039-.13.508-.19c.103-.038.133-.19.053-.266l-.399-.369.016-.137.46-.285c.094-.058.094-.211 0-.27l-.46-.286-.016-.137.399-.367c.08-.075.05-.23-.053-.268l-.508-.19-.04-.13.317-.44c.065-.089.006-.232-.103-.25l-.535-.088-.065-.119.225-.494c.046-.1-.04-.23-.15-.227l-.544.02-.085-.104.125-.531c.025-.108-.084-.217-.192-.192l-.53.125-.105-.086.02-.543c.004-.11-.124-.196-.225-.15l-.494.225-.121-.064-.084-.535c-.018-.109-.162-.168-.252-.104l-.44.316-.13-.039-.19-.506c-.038-.103-.19-.134-.265-.055l-.371.399-.135-.014-.285-.463A.159.159 0 0 0 68-2730zm0 1.5a4 4 0 0 1 4 4 4 4 0 0 1-4 4 4 4 0 0 1-4-4 4 4 0 0 1 4-4z"/><path d="M64-2727v1h1v3h-1v1h4v-1h-1v-1c1 0 1 2 2 2h2c1 0 1-2 1-2h-1s0 1-1 1c-.471 0-1-1-1-1h.5c.831 0 1.5-.669 1.5-1.5s-.669-1.5-1.5-1.5H68zm3 1h1.5a.499.499 0 1 1 0 1H67z"/></g><g transform="translate(10 536)"><rect x="6" y="-3268" width="16" height="16" rx="2" ry="2" fill="#1976d2" fill-rule="evenodd"/><g fill="#fff"><path d="M14-3266a.155.155 0 0 0-.135.07l-.285.463-.135.014-.37-.399c-.076-.08-.228-.049-.266.055l-.192.506-.13.04-.44-.317c-.09-.064-.23-.01-.248.104l-.088.535-.121.064-.494-.225c-.1-.046-.23.04-.225.15l.02.543-.104.086-.531-.125c-.108-.025-.217.084-.192.192l.125.53-.085.104-.543-.019c-.11-.01-.197.126-.15.227l.224.494-.065.12-.535.087c-.109.017-.168.16-.103.25l.316.44-.039.13-.508.19c-.103.038-.133.192-.053.268l.399.367-.016.137-.46.287c-.094.058-.094.211 0 .27l.46.284.016.137-.399.37c-.08.074-.05.226.053.265l.508.19.039.13-.316.442c-.065.09-.005.232.103.25l.535.086.065.12-.225.495c-.046.1.04.229.15.224l.543-.02.086.104-.125.531c-.025.108.084.217.192.192l.531-.125.104.086-.02.543c-.005.11.124.194.225.148l.494-.223.12.062.089.536c.018.109.158.167.248.103l.44-.316.13.039.192.508c.038.103.188.134.263.053l.371-.399.137.016.285.46c.058.094.214.094.272 0l.283-.46.137-.016.37.399c.076.08.228.05.266-.053l.19-.508.13-.04.44.317c.09.064.232.01.25-.103l.086-.536.121-.062.494.223c.1.046.229-.037.225-.148l-.02-.543.104-.086.531.125c.108.025.217-.084.192-.192l-.125-.531.085-.104.543.02c.11.01.197-.124.15-.224l-.224-.494.065-.121.535-.086c.109-.017.168-.16.103-.25l-.316-.442.039-.13.508-.19c.103-.038.133-.19.053-.266l-.399-.369.016-.137.46-.285c.094-.058.094-.211 0-.27l-.46-.286-.016-.137.399-.367c.08-.075.05-.23-.053-.268l-.508-.19-.04-.13.317-.44c.065-.089.006-.232-.103-.25l-.535-.088-.065-.119.225-.494c.046-.1-.04-.23-.15-.227l-.544.02-.085-.104.125-.531c.025-.108-.084-.217-.192-.192l-.53.125-.105-.086.02-.543c.004-.11-.124-.196-.225-.15l-.494.225-.121-.064-.084-.535c-.018-.109-.162-.168-.252-.104l-.44.316-.13-.039-.19-.506c-.038-.103-.19-.134-.265-.055l-.371.399-.135-.014-.285-.463A.159.159 0 0 0 14-3266zm0 1.5a4 4 0 0 1 4 4 4 4 0 0 1-4 4 4 4 0 0 1-4-4 4 4 0 0 1 4-4z"/><path d="M10-3263v1h1v3h-1v1h3v-1h-1v-1h1c1 0 1 2 2 2h2c1 0 1-2 1-2h-1s0 1-1 1c-.471 0-1-1-1-1h.5c.831 0 1.5-.669 1.5-1.5s-.669-1.5-1.5-1.5H14zm2 1h3a.499.499 0 1 1 0 1h-3z"/></g></g><g fill="#1976d2"><path d="M180-2743a.282.282 0 0 0-.245.127l-.519.842-.245.025-.674-.725c-.137-.147-.413-.089-.483.1l-.348.92-.238.071-.8-.575c-.162-.116-.418-.018-.45.188l-.16.973-.22.117-.899-.409c-.182-.084-.416.073-.408.273l.035.988-.188.156-.966-.227c-.195-.045-.394.153-.348.348l.228.966-.157.188-.987-.035c-.2-.018-.356.23-.273.412l.408.898-.117.217-.973.16c-.198.031-.305.292-.188.455l.575.799-.071.237-.924.345c-.187.069-.242.35-.095.487l.724.667-.028.249-.839.522c-.17.105-.17.385 0 .49l.839.518.028.249-.724.671c-.147.137-.092.413.095.483l.924.345.07.238-.574.802c-.117.164-.01.423.188.455l.973.156.117.22-.408.899c-.084.182.074.416.273.408l.987-.036.157.188-.228.966c-.046.196.153.394.348.348l.966-.227.188.156-.035.988c-.008.2.226.353.408.27l.899-.405.22.113.16.973c.032.198.288.305.45.188l.8-.575.238.07.348.924c.07.187.343.244.48.096l.674-.725.248.03.519.837c.105.17.388.17.494 0l.515-.837.248-.03.675.725c.136.147.413.091.483-.096l.344-.923.238-.071.8.575c.162.116.422.018.454-.188l.156-.973.22-.113.899.405c.182.084.415-.067.408-.27l-.035-.988.188-.156.966.227c.195.046.394-.152.348-.348l-.228-.966.157-.188.987.036c.2.018.357-.226.273-.408l-.408-.899.117-.22.973-.156c.198-.031.306-.292.188-.455l-.575-.802.071-.238.923-.345c.188-.069.243-.346.096-.483l-.724-.671.028-.249.838-.518c.17-.106.17-.385 0-.49l-.838-.522-.028-.249.724-.667c.147-.137.092-.417-.096-.487l-.923-.344-.07-.238.574-.8c.118-.161.011-.422-.188-.454l-.973-.16-.117-.217.408-.898c.084-.183-.072-.42-.273-.412l-.987.035-.157-.188.228-.966c.045-.196-.153-.394-.348-.348l-.963.227-.191-.156.035-.988c.008-.2-.226-.356-.408-.273l-.899.409-.22-.117-.153-.973c-.032-.197-.295-.305-.458-.188l-.799.575-.238-.07-.344-.92c-.07-.189-.347-.245-.483-.1l-.675.724-.245-.025-.518-.842A.287.287 0 0 0 180-2743zm0 2.727a7.273 7.273 0 0 1 7.273 7.273 7.273 7.273 0 0 1-7.273 7.273 7.273 7.273 0 0 1-7.273-7.273 7.273 7.273 0 0 1 7.273-7.273z"/><path d="M172-2738v2h2v6h-2v2h7v-2h-2v-2h1c2 0 2 4 4 4h4c2 0 2-4 2-4h-2.5s.5 2-1.5 2c-.942 0-2-2-2-2h.5c1.662 0 3-1.338 3-3s-1.338-3-3-3H180zm5 2h4.5c.554 0 1 .446 1 1s-.446 1-1 1H177z"/></g><g fill="#1976d2"><path d="M256-2750c-.116 0-.23.05-.293.152l-.625 1.012-.293.028-.809-.867c-.163-.176-.498-.108-.582.118l-.414 1.105-.285.086-.96-.691c-.196-.14-.505-.02-.544.226l-.191 1.168-.262.14-1.078-.492c-.219-.1-.501.088-.492.328l.043 1.188-.227.188-1.156-.274c-.234-.054-.473.184-.418.418l.274 1.156-.188.227-1.187-.042c-.24-.02-.428.273-.328.492l.492 1.078-.14.262-1.169.192c-.237.038-.366.348-.226.543l.691.961-.086.285-1.11.414c-.224.084-.288.418-.113.582l.868.805-.032.297-1.007.625c-.205.126-.205.464 0 .59l1.007.62.032.298-.868.808c-.175.164-.111.494.114.578l1.109.414.086.285-.691.961c-.14.196-.01.509.226.547l1.168.188.14.262-.491 1.078c-.1.22.089.502.328.492l1.187-.042.188.227-.274 1.156c-.055.234.184.473.418.418l1.156-.273.227.188-.043 1.183c-.01.24.273.428.492.328l1.078-.488.262.136.191 1.168c.039.238.348.367.543.227l.961-.692.285.086.414 1.11c.084.224.415.29.579.113l.808-.867.297.032.625 1.008c.126.203.464.204.59 0l.621-1.008.297-.032.808.867c.164.176.495.11.579-.114l.414-1.109.285-.086.96.692c.196.14.505.02.544-.227l.191-1.168.262-.136 1.078.488c.219.1.5-.086.492-.328l-.043-1.183.227-.188 1.156.273c.234.054.473-.184.418-.418l-.274-1.156.188-.227 1.187.042c.24.02.429-.273.328-.492l-.492-1.078.14-.262 1.169-.188c.238-.038.367-.351.226-.547l-.691-.96.086-.286 1.11-.414c.225-.084.289-.414.113-.578l-.868-.808.032-.297 1.007-.621c.205-.126.205-.464 0-.59l-1.007-.625-.032-.297.868-.805c.176-.164.112-.498-.114-.582l-1.109-.414-.086-.285.691-.961c.141-.194.012-.504-.226-.543l-1.168-.192-.14-.262.491-1.078c.101-.22-.086-.501-.328-.492l-1.187.042-.188-.227.274-1.156c.055-.234-.184-.473-.418-.418l-1.152.274-.23-.188.042-1.188c.01-.24-.273-.428-.492-.328l-1.078.492-.262-.14-.187-1.168c-.039-.237-.352-.367-.547-.226l-.961.691-.285-.086-.414-1.105c-.084-.226-.415-.292-.578-.118l-.81.867-.292-.028-.625-1.012A.344.344 0 0 0 256-2750zm0 3.996a8 8 0 0 1 8 8 8 8 0 0 1-8 8 8 8 0 0 1-8-8 8 8 0 0 1 8-8z"/><path d="M248-2744v2h2v8h-2v2h8v-2h-2v-4c2 0 2 6 4 6h4c2 0 2-6 2-6h-2s0 4-2 4c-.943 0-2-4-2-4h1c1.662 0 3-1.338 3-3s-1.338-3-3-3h-3zm6 2h4c.554 0 1 .446 1 1s-.446 1-1 1h-4z"/></g><g fill="#1976d2"><path d="M376-2784c-.232 0-.46.1-.586.304l-1.25 2.024-.586.056-1.617-1.735c-.328-.352-.996-.216-1.164.236l-.828 2.211-.57.172-1.922-1.383c-.39-.28-1.01-.04-1.086.453l-.383 2.336-.524.28-2.156-.984c-.438-.2-1.003.176-.984.656l.086 2.375-.453.376-2.313-.547c-.469-.108-.946.368-.836.836l.547 2.313-.375.453-2.375-.084c-.478-.04-.855.546-.656.984l.984 2.156-.28.524-2.337.384c-.474.076-.733.696-.453 1.086l1.383 1.922-.172.57-2.219.828c-.45.168-.578.836-.226 1.164l1.734 1.61-.062.594-2.016 1.25c-.408.252-.408.928 0 1.18l2.016 1.241.062.594-1.734 1.617c-.352.328-.224.988.226 1.156l2.219.829.172.57-1.383 1.922c-.28.392-.02 1.017.453 1.093l2.336.376.281.524-.984 2.156c-.2.438.178 1.004.656.984l2.375-.084.375.454-.547 2.312c-.11.468.367.946.836.836l2.313-.547.453.376-.086 2.367c-.02.48.546.857.984.656l2.156-.976.524.272.383 2.336c.077.476.695.733 1.086.453l1.921-1.383.57.172.829 2.219c.168.45.828.581 1.156.228l1.617-1.735.594.064 1.25 2.016c.252.406.927.408 1.18 0l1.242-2.016.594-.064 1.617 1.735c.327.352.988.22 1.156-.228l.828-2.219.57-.172 1.922 1.383c.39.28 1.01.04 1.086-.453l.383-2.336.524-.272 2.156.976c.438.2 1.002-.172.984-.656l-.086-2.367.453-.376 2.313.547c.469.108.946-.368.836-.836l-.547-2.312.375-.454 2.375.084c.478.04.857-.546.656-.984l-.984-2.156.28-.524 2.337-.376c.475-.076.735-.702.453-1.093l-1.383-1.922.172-.57 2.219-.829c.45-.168.579-.828.226-1.156l-1.734-1.617.062-.594 2.016-1.242c.408-.252.408-.927 0-1.18l-2.016-1.25-.062-.593 1.734-1.61c.353-.328.225-.996-.226-1.164l-2.219-.828-.172-.57 1.383-1.922c.282-.388.024-1.008-.453-1.086l-2.336-.384-.281-.524.984-2.156c.201-.438-.173-1.002-.656-.984l-2.375.084-.375-.453.547-2.313c.11-.469-.367-.946-.836-.836l-2.305.547-.46-.376.085-2.375c.02-.48-.546-.856-.984-.656l-2.156.984-.524-.28-.375-2.336c-.077-.474-.703-.734-1.093-.453l-1.922 1.383-.57-.172-.829-2.21c-.168-.453-.828-.585-1.156-.237l-1.617 1.735-.586-.056-1.25-2.024c-.126-.204-.362-.304-.594-.304zm0 7.992a16 16 0 0 1 16 16 16 16 0 0 1-16 16 16 16 0 0 1-16-16 16 16 0 0 1 16-16z"/><path d="M360-2772v4h4v16h-4v4h16v-4h-4v-8c4 0 4 12 8 12h8c4 0 4-12 4-12h-4s0 8-4 8c-1.886 0-4-8-4-8h2c3.324 0 6-2.676 6-6s-2.676-6-6-6h-6zm12 4h8c1.108 0 2 .892 2 2s-.892 2-2 2h-8z"/></g><g fill="#1976d2"><path d="M592-2852c-.464 0-.92.2-1.172.608l-2.5 4.047-1.172.112-3.234-3.469c-.655-.704-1.992-.432-2.328.472l-1.656 4.422-1.141.344-3.844-2.766c-.78-.56-2.017-.08-2.172.906l-.765 4.672-1.047.56-4.313-1.969c-.876-.4-2.005.352-1.968 1.313l.172 4.75-.907.752-4.625-1.093c-.938-.216-1.892.736-1.672 1.672l1.094 4.625-.75.906-4.75-.168c-.956-.08-1.71 1.091-1.312 1.969l1.969 4.312-.563 1.047-4.671.768c-.95.152-1.467 1.392-.907 2.172l2.766 3.844-.344 1.14-4.438 1.657c-.9.336-1.156 1.67-.452 2.328l3.468 3.218-.124 1.188-4.032 2.5c-.817.504-.817 1.856 0 2.36l4.032 2.483.124 1.188-3.468 3.235c-.704.656-.448 1.974.452 2.312l4.438 1.657.344 1.14-2.766 3.844c-.561.784-.04 2.034.907 2.187l4.671.752.563 1.047-1.969 4.312c-.4.877.356 2.008 1.313 1.969l4.75-.168.75.906-1.095 4.625c-.22.937.734 1.893 1.672 1.672l4.625-1.094.907.752-.172 4.735c-.04.959 1.092 1.713 1.968 1.312l4.313-1.953 1.047.544.765 4.672c.155.951 1.392 1.466 2.172.906l3.844-2.765 1.14.344 1.657 4.437c.336.899 1.657 1.162 2.312.456l3.235-3.47 1.187.129 2.5 4.031c.503.813 1.855.815 2.36 0l2.484-4.031 1.187-.128 3.235 3.469c.655.704 1.976.44 2.312-.456l1.656-4.437 1.141-.344 3.844 2.765c.78.56 2.017.08 2.172-.906l.765-4.672 1.047-.544 4.313 1.953c.876.4 2.003-.344 1.968-1.312l-.172-4.735.907-.752 4.625 1.094c.938.216 1.892-.736 1.672-1.672l-1.094-4.625.75-.906 4.75.168c.956.08 1.714-1.092 1.312-1.969l-1.969-4.312.563-1.047 4.671-.752c.952-.152 1.47-1.406.907-2.187l-2.766-3.844.344-1.14 4.438-1.657c.901-.336 1.158-1.657.452-2.312l-3.468-3.235.124-1.188 4.032-2.484c.817-.504.817-1.853 0-2.359l-4.032-2.5-.124-1.188 3.468-3.218c.705-.656.45-1.992-.452-2.328l-4.438-1.657-.344-1.14 2.766-3.844c.564-.776.048-2.016-.907-2.172l-4.671-.768-.563-1.047 1.969-4.312c.402-.878-.347-2.005-1.313-1.969l-4.75.168-.75-.906 1.095-4.625c.22-.939-.734-1.892-1.672-1.672l-4.61 1.093-.922-.752.172-4.75c.04-.96-1.092-1.711-1.968-1.313l-4.313 1.969-1.047-.56-.75-4.672c-.154-.947-1.406-1.467-2.187-.906l-3.844 2.766-1.14-.344-1.656-4.422c-.336-.904-1.657-1.168-2.313-.472l-3.234 3.47-1.172-.113-2.5-4.047c-.252-.408-.723-.608-1.188-.608zm0 15.984a32 32 0 0 1 32 32 32 32 0 0 1-32 32 32 32 0 0 1-32-32 32 32 0 0 1 32-32z"/><path d="M560-2828v8h8v32h-8v8h32v-8h-8v-16c8 0 8 24 16 24h16c8 0 8-24 8-24h-8s0 16-8 16c-3.771 0-8-16-8-16h4c6.648 0 12-5.352 12-12s-5.352-12-12-12h-12zm24 8h16c2.216 0 4 1.784 4 4s-1.784 4-4 4h-16z"/></g><use id="l" transform="translate(0 -300)" width="100%" height="100%" xlink:href="#k"/><g transform="translate(4 3660)"><path fill="#64b5f6" d="M106-6687h12v9h-12z"/><circle cx="107.5" cy="-6690.5" r="2.5" fill="#1e88e5"/><circle cx="116.5" cy="-6690.5" r="2.5" fill="#1e88e5"/><circle cx="112" cy="-6687" r="6" fill="#64b5f6"/><path fill="#fff" d="M111-6685h1v2h-1z"/><path fill="#f2f2f2" d="M112-6685h1v2h-1z"/><path d="M111-6686a1 1 0 1 0 0 2c.51 0 .993-.444.993-.444h.014s.484.443.993.444a1 1 0 1 0 0-2z" fill="#1e88e5"/><ellipse cx="112" cy="-6685.5" rx="1.125" ry=".75" fill="#3e2723"/><g transform="translate(77 -6260.2) scale(.0625)"><circle cx="512" cy="-6844" r="32" fill="#fefefe"/><circle transform="scale(-1 1)" cx="-505.14" cy="-6850.9" r="11.429" fill="#333"/></g><g transform="translate(83 -6260.2) scale(.0625)"><circle cx="512" cy="-6844" r="32" fill="#fefefe"/><circle transform="scale(-1 1)" cx="-505.14" cy="-6850.9" r="11.429" fill="#333"/></g></g><g transform="translate(12 3661)"><path fill="#64b5f6" d="M160-6691h16v11h-16z"/><circle cx="162" cy="-6696" r="3" fill="#1e88e5"/><circle cx="174" cy="-6696" r="3" fill="#1e88e5"/><circle cx="168" cy="-6691" r="8" fill="#64b5f6"/><circle cx="164.5" cy="-6691.5" r="2.5" fill="#fefefe"/><circle cx="171.5" cy="-6691.5" r="2.5" fill="#fefefe"/><circle cx="164" cy="-6692" r="1" fill="#333"/><circle cx="171" cy="-6692" r="1" fill="#333"/><path fill="#fff" d="M168-6687h-2v3h2z"/><path fill="#f2f2f2" d="M170-6687h-2v3h2z"/><circle cx="169.5" cy="-6686.5" r="1.5" fill="#1e88e5"/><circle cx="166.5" cy="-6686.5" r="1.5" fill="#1e88e5"/><path fill="#1e88e5" d="M166.5-6688h3v2h-3z"/><ellipse cx="168" cy="-6688" rx="1.5" ry="1" fill="#3e2723"/><path opacity=".05" d="M160-6681h16v1h-16z"/></g><g transform="translate(4 3661)"><path fill="#64b5f6" d="M60-6685h8v7h-8z"/><g fill="#1e88e5"><circle cx="60.5" cy="-6687.5" r="1.5"/><circle cx="67.5" cy="-6687.5" r="1.5"/></g><circle cx="64" cy="-6685" r="4" fill="#64b5f6"/><g transform="matrix(.8 0 0 .8 12.2 -1337.4)"><circle cx="62.25" cy="-6685.8" r="1.25" fill="#fefefe"/><circle cx="61.625" cy="-6686.4" r=".625" fill="#333"/></g><path fill="#fff" d="M64-6683.5h-1v1.5h1z"/><path fill="#f2f2f2" d="M65-6683.5h-1v1.5h1z"/><circle cx="64.75" cy="-6683.2" r=".75" fill="#1e88e5"/><circle cx="63.25" cy="-6683.2" r=".75" fill="#1e88e5"/><path fill="#1e88e5" d="M63.25-6684h1.5v1h-1.5z"/><ellipse cx="64" cy="-6684" rx=".75" ry=".5" fill="#3e2723"/><g transform="matrix(.8 0 0 .8 16.2 -1337.4)"><circle cx="62.25" cy="-6685.8" r="1.25" fill="#fefefe"/><circle cx="61.625" cy="-6686.4" r=".625" fill="#333"/></g></g><g transform="translate(0 3659)"><path d="M19-6691s-2 0-2 2v1c0-2 2-2 2-2h10c2 0 2 2 2 2v-1s0-2-2-2z" fill="#fff" opacity=".1"/><path fill="#64b5f6" d="M17-6684h14v6H17z"/><circle cx="18.5" cy="-6688.5" r="2.5" fill="#1e88e5"/><circle cx="29.5" cy="-6688.5" r="2.5" fill="#1e88e5"/><path d="M24-6691a7 7 0 0 0-7 7h14a7 7 0 0 0-7-7z" fill="#64b5f6"/><path fill="#fff" d="M23-6683h1v2h-1z"/><path fill="#f2f2f2" d="M24-6683h1v2h-1z"/><path d="M23-6684a1 1 0 1 0 0 2c.51 0 .993-.444.993-.444h.014s.484.443.993.444a1 1 0 1 0 0-2z" fill="#1e88e5"/><ellipse cx="24" cy="-6683.5" rx="1.125" ry=".75" fill="#3e2723"/><g transform="translate(-11 -6258.2) scale(.0625)"><circle cx="512" cy="-6844" r="32" fill="#fefefe"/><circle transform="scale(-1 1)" cx="-505.14" cy="-6850.9" r="11.429" fill="#333"/></g><g transform="translate(-5 -6258.2) scale(.0625)"><circle cx="512" cy="-6844" r="32" fill="#fefefe"/><circle transform="scale(-1 1)" cx="-505.14" cy="-6850.9" r="11.429" fill="#333"/></g><rect x="17" y="-6681" width="14" height="6" ry="2" fill="#64b5f6"/></g><g transform="matrix(2 0 0 2 32 10336)"><path fill="#64b5f6" d="M106-6687h12v9h-12z"/><circle cx="107.5" cy="-6690.5" r="2.5" fill="#1e88e5"/><circle cx="116.5" cy="-6690.5" r="2.5" fill="#1e88e5"/><circle cx="112" cy="-6687" r="6" fill="#64b5f6"/><path fill="#fff" d="M111-6685h1v2h-1z"/><path fill="#f2f2f2" d="M112-6685h1v2h-1z"/><path d="M111-6686a1 1 0 1 0 0 2c.51 0 .993-.444.993-.444h.014s.484.443.993.444a1 1 0 1 0 0-2z" fill="#1e88e5"/><ellipse cx="112" cy="-6685.5" rx="1.125" ry=".75" fill="#3e2723"/><g transform="translate(77 -6260.2) scale(.0625)"><circle cx="512" cy="-6844" r="32" fill="#fefefe"/><circle transform="scale(-1 1)" cx="-505.14" cy="-6850.9" r="11.429" fill="#333"/></g><g transform="translate(83 -6260.2) scale(.0625)"><circle cx="512" cy="-6844" r="32" fill="#fefefe"/><circle transform="scale(-1 1)" cx="-505.14" cy="-6850.9" r="11.429" fill="#333"/></g></g><g transform="matrix(4 0 0 4 -72 23688)"><path fill="#64b5f6" d="M106-6687h12v9h-12z"/><circle cx="107.5" cy="-6690.5" r="2.5" fill="#1e88e5"/><circle cx="116.5" cy="-6690.5" r="2.5" fill="#1e88e5"/><circle cx="112" cy="-6687" r="6" fill="#64b5f6"/><path fill="#fff" d="M111-6685h1v2h-1z"/><path fill="#f2f2f2" d="M112-6685h1v2h-1z"/><path d="M111-6686a1 1 0 1 0 0 2c.51 0 .993-.444.993-.444h.014s.484.443.993.444a1 1 0 1 0 0-2z" fill="#1e88e5"/><ellipse cx="112" cy="-6685.5" rx="1.125" ry=".75" fill="#3e2723"/><g transform="translate(77 -6260.2) scale(.0625)"><circle cx="512" cy="-6844" r="32" fill="#fefefe"/><circle transform="scale(-1 1)" cx="-505.14" cy="-6850.9" r="11.429" fill="#333"/></g><g transform="translate(83 -6260.2) scale(.0625)"><circle cx="512" cy="-6844" r="32" fill="#fefefe"/><circle transform="scale(-1 1)" cx="-505.14" cy="-6850.9" r="11.429" fill="#333"/></g></g><g transform="matrix(8 0 0 8 -304 50392)"><path fill="#64b5f6" d="M106-6687h12v9h-12z"/><circle cx="107.5" cy="-6690.5" r="2.5" fill="#1e88e5"/><circle cx="116.5" cy="-6690.5" r="2.5" fill="#1e88e5"/><circle cx="112" cy="-6687" r="6" fill="#64b5f6"/><path fill="#fff" d="M111-6685h1v2h-1z"/><path fill="#f2f2f2" d="M112-6685h1v2h-1z"/><path d="M111-6686a1 1 0 1 0 0 2c.51 0 .993-.444.993-.444h.014s.484.443.993.444a1 1 0 1 0 0-2z" fill="#1e88e5"/><ellipse cx="112" cy="-6685.5" rx="1.125" ry=".75" fill="#3e2723"/><g transform="translate(77 -6260.2) scale(.0625)"><circle cx="512" cy="-6844" r="32" fill="#fefefe"/><circle transform="scale(-1 1)" cx="-505.14" cy="-6850.9" r="11.429" fill="#333"/></g><g transform="translate(83 -6260.2) scale(.0625)"><circle cx="512" cy="-6844" r="32" fill="#fefefe"/><circle transform="scale(-1 1)" cx="-505.14" cy="-6850.9" r="11.429" fill="#333"/></g></g><use id="m" transform="translate(0 -300)" width="100%" height="100%" xlink:href="#l"/><rect x="16" y="-3332" width="16" height="16" ry="2" fill="#393634"/><rect x="17" y="-3331" width="14" height="14" ry="1.5" fill="#726c68"/><g fill="#9a9a9a"><path d="M108-3320.03v-2l8-8 8 8v2l-2-1-6-6-6 6z"/><path d="M117.54-3925.7a1 1 0 0 0-.953.703c-.675 2.076-2.42 3.619-4.563 4.035s-4.337-.359-5.74-2.031a1 1 0 1 0-1.533 1.285 8.007 8.007 0 0 0 7.656 2.711 8.004 8.004 0 0 0 6.082-5.38 1 1 0 0 0-.95-1.323z" color="#000" style="font-feature-settings:normal;font-variant-alternates:normal;font-variant-caps:normal;font-variant-ligatures:normal;font-variant-numeric:normal;font-variant-position:normal;isolation:auto;mix-blend-mode:normal;shape-padding:0;text-decoration-color:#000;text-decoration-line:none;text-decoration-style:solid;text-indent:0;text-orientation:mixed;text-transform:none;white-space:normal" transform="translate(5.12 597.87)"/><path d="M116-3334.03a4 4 0 0 0-4 4 4 4 0 0 0 4 4 4 4 0 0 0 4-4 4 4 0 0 0-4-4zm0 2a2 2 0 0 1 2 2 2 2 0 0 1-2 2 2 2 0 0 1-2-2 2 2 0 0 1 2-2z"/></g><g fill="#9a9a9a"><path d="M60-3318.03v-2l8-8 8 8v2l-2-1-6-6-6 6z"/><path d="M117.54-3925.7a1 1 0 0 0-.953.703c-.675 2.076-2.42 3.619-4.563 4.035s-4.337-.359-5.74-2.031a1 1 0 1 0-1.533 1.285 8.007 8.007 0 0 0 7.656 2.711 8.004 8.004 0 0 0 6.082-5.38 1 1 0 0 0-.95-1.323z" color="#000" style="font-feature-settings:normal;font-variant-alternates:normal;font-variant-caps:normal;font-variant-ligatures:normal;font-variant-numeric:normal;font-variant-position:normal;isolation:auto;mix-blend-mode:normal;shape-padding:0;text-decoration-color:#000;text-decoration-line:none;text-decoration-style:solid;text-indent:0;text-orientation:mixed;text-transform:none;white-space:normal" transform="translate(-42.88 599.87)"/><path d="M68-3332.03a4 4 0 0 0-4 4 4 4 0 0 0 4 4 4 4 0 0 0 4-4 4 4 0 0 0-4-4zm0 2a2 2 0 0 1 2 2 2 2 0 0 1-2 2 2 2 0 0 1-2-2 2 2 0 0 1 2-2z"/></g><g fill="#fff"><path d="M20-3318.02v-2l4-7 4 7v2l-1.5-1.5-2.5-4.5-2.5 4.5z"/><path d="M115.16-3924.9a.713.73 0 0 0-.68.513 4.312 4.312 0 0 1-3.253 2.946 4.218 4.218 0 0 1-4.092-1.483.713.73 0 1 0-1.094.938 5.636 5.636 0 0 0 5.46 1.979c2.033-.405 3.695-1.91 4.336-3.928a.713.73 0 0 0-.677-.965z" color="#000" style="font-feature-settings:normal;font-variant-alternates:normal;font-variant-caps:normal;font-variant-ligatures:normal;font-variant-numeric:normal;font-variant-position:normal;isolation:auto;mix-blend-mode:normal;shape-padding:0;text-decoration-color:#000;text-decoration-line:none;text-decoration-style:solid;text-indent:0;text-orientation:mixed;text-transform:none;white-space:normal" transform="translate(-86.88 600.88)"/><path d="M24-3330.02a3 3 0 0 0-3 3 3 3 0 0 0 3 3 3 3 0 0 0 3-3 3 3 0 0 0-3-3zm0 1.5a1.5 1.5 0 0 1 1.5 1.5 1.5 1.5 0 0 1-1.5 1.5 1.5 1.5 0 0 1-1.5-1.5 1.5 1.5 0 0 1 1.5-1.5z"/></g><g fill="#9a9a9a"><path d="M240.01-3325.1v-4l16-16 16 16v4l-4-2-12-12-12 12z"/><path d="M117.54-3925.7a1 1 0 0 0-.953.703c-.675 2.076-2.42 3.619-4.563 4.035s-4.337-.359-5.74-2.031a1 1 0 1 0-1.533 1.285 8.007 8.007 0 0 0 7.656 2.711 8.004 8.004 0 0 0 6.082-5.38 1 1 0 0 0-.95-1.323z" color="#000" style="font-feature-settings:normal;font-variant-alternates:normal;font-variant-caps:normal;font-variant-ligatures:normal;font-variant-numeric:normal;font-variant-position:normal;isolation:auto;mix-blend-mode:normal;shape-padding:0;text-decoration-color:#000;text-decoration-line:none;text-decoration-style:solid;text-indent:0;text-orientation:mixed;text-transform:none;white-space:normal" transform="matrix(2 0 0 2 34.25 4510.7)"/><path d="M256.01-3353.1a8 8 0 0 0-8 8 8 8 0 0 0 8 8 8 8 0 0 0 8-8 8 8 0 0 0-8-8zm0 4a4 4 0 0 1 4 4 4 4 0 0 1-4 4 4 4 0 0 1-4-4 4 4 0 0 1 4-4z"/></g><g fill="#9a9a9a"><path d="M168.01-3323.05v-3l12-12 12 12v3l-3-1.5-9-9-9 9z"/><path d="M117.54-3925.7a1 1 0 0 0-.953.703c-.675 2.076-2.42 3.619-4.563 4.035s-4.337-.359-5.74-2.031a1 1 0 1 0-1.533 1.285 8.007 8.007 0 0 0 7.656 2.711 8.004 8.004 0 0 0 6.082-5.38 1 1 0 0 0-.95-1.323z" color="#000" style="font-feature-settings:normal;font-variant-alternates:normal;font-variant-caps:normal;font-variant-ligatures:normal;font-variant-numeric:normal;font-variant-position:normal;isolation:auto;mix-blend-mode:normal;shape-padding:0;text-decoration-color:#000;text-decoration-line:none;text-decoration-style:solid;text-indent:0;text-orientation:mixed;text-transform:none;white-space:normal" transform="matrix(1.5 0 0 1.5 13.69 2553.8)"/><path d="M180.01-3344.05a6 6 0 0 0-6 6 6 6 0 0 0 6 6 6 6 0 0 0 6-6 6 6 0 0 0-6-6zm0 3a3 3 0 0 1 3 3 3 3 0 0 1-3 3 3 3 0 0 1-3-3 3 3 0 0 1 3-3z"/></g><g fill="#9a9a9a"><path d="M344.02-3333.6v-8l32-32 32 32v8l-8-4-24-24-24 24z"/><path d="M117.54-3925.7a1 1 0 0 0-.953.703c-.675 2.076-2.42 3.619-4.563 4.035s-4.337-.359-5.74-2.031a1 1 0 1 0-1.533 1.285 8.007 8.007 0 0 0 7.656 2.711 8.004 8.004 0 0 0 6.082-5.38 1 1 0 0 0-.95-1.323z" color="#000" style="font-feature-settings:normal;font-variant-alternates:normal;font-variant-caps:normal;font-variant-ligatures:normal;font-variant-numeric:normal;font-variant-position:normal;isolation:auto;mix-blend-mode:normal;shape-padding:0;text-decoration-color:#000;text-decoration-line:none;text-decoration-style:solid;text-indent:0;text-orientation:mixed;text-transform:none;white-space:normal" transform="matrix(4 0 0 4 -67.5 12338)"/><path d="M376.02-3389.6a16 16 0 0 0-16 16 16 16 0 0 0 16 16 16 16 0 0 0 16-16 16 16 0 0 0-16-16zm0 8a8 8 0 0 1 8 8 8 8 0 0 1-8 8 8 8 0 0 1-8-8 8 8 0 0 1 8-8z"/></g><g fill="#9a9a9a"><path d="M528.04-3352.2v-16l64-64 63.998 64v16.002l-15.998-8.002-48-48-48 48z"/><path d="M117.54-3925.7a1 1 0 0 0-.953.703c-.675 2.076-2.42 3.619-4.563 4.035s-4.337-.359-5.74-2.031a1 1 0 1 0-1.533 1.285 8.007 8.007 0 0 0 7.656 2.711 8.004 8.004 0 0 0 6.082-5.38 1 1 0 0 0-.95-1.323z" color="#000" style="font-feature-settings:normal;font-variant-alternates:normal;font-variant-caps:normal;font-variant-ligatures:normal;font-variant-numeric:normal;font-variant-position:normal;isolation:auto;mix-blend-mode:normal;shape-padding:0;text-decoration-color:#000;text-decoration-line:none;text-decoration-style:solid;text-indent:0;text-orientation:mixed;text-transform:none;white-space:normal" transform="matrix(8 0 0 8 -295 27991)"/><path d="M592.04-3464.2a32 32 0 0 0-32 32 32 32 0 0 0 32 32 32 32 0 0 0 32-32 32 32 0 0 0-32-32zm0 16a16 16 0 0 1 16 16 16 16 0 0 1-16 16 16 16 0 0 1-16-16 16 16 0 0 1 16-16z"/></g><use id="n" transform="translate(0 -300)" width="100%" height="100%" xlink:href="#m"/><g transform="translate(-750 198)" fill-rule="evenodd"><path id="o" d="M769.5-3830c-.831 0-1.5.669-1.5 1.5v13c0 .831.669 1.5 1.5 1.5h9c.831 0 1.5-.669 1.5-1.5v-10l-4.5-4.5z" fill="#6f6f6f"/><path id="p" d="M779-3825v9c0 .554-.446 1-1 1h-8c-.554 0-1-.446-1-1v-12c0-.554.446-1 1-1h5" fill="#ececec"/><path id="q" d="M779-3824h-4c-.554 0-1-.446-1-1v-4h1l4 4z" fill="#6f6f6f" fill-opacity=".502"/><path id="r" d="M779-3825h-3c-.554 0-1-.446-1-1v-3" fill="#fafafa"/><path d="M868.18-3823.2s.576.174.91.343c.116.059.317.176.461.33.142.15.211.303.211.303l2.097 3.259h-4.89l-.947-2.471s-.35-.603-.567-.778c-.18-.146-.257-.198-.435-.198h-.87v3.445h-4.001v-11h6.43c.75 0 4.557.368 4.557 3.191s-2.956 3.574-2.956 3.574zm-4.03-4.765v2.999h1.585s1.203 0 1.294-1.467c.096-1.532-1.295-1.53-1.295-1.53z" fill="#3f51b5"/><path d="M819.79-3821.3s.384.116.607.229c.077.039.21.117.307.22.095.1.141.202.141.202l1.53 2.671h-3.363l-1.143-2.146s-.234-.402-.378-.519c-.12-.097-.172-.126-.29-.132h-.581v2.796h-3v-7.999h5.575c.5 0 2.566.412 2.566 2.294 0 1.882-1.971 2.383-1.971 2.383zm-3.17-3.177v2h1.374s.626 0 .687-.979c.064-1.02-.688-1.02-.688-1.02z" fill="#3f51b5"/><g transform="translate(751.81 451.48)"><rect x="14.185" y="-4281.5" width="16" height="16" rx="2" ry="2" fill="#3f51b5"/><path d="M24.355-4272.8s.384.116.607.229c.077.039.21.117.307.22.095.1.141.202.141.202l1.53 2.671h-3.363l-1.143-2.146s-.234-.402-.378-.519c-.12-.097-.172-.126-.29-.132h-.581v2.796h-3v-7.999h5.575c.5 0 2.566.412 2.566 2.294 0 1.882-1.971 2.383-1.971 2.383zm-3.17-3.177v2h1.374s.626 0 .687-.979c.064-1.02-.688-1.02-.688-1.02z" fill="#fff"/></g><path d="M932.51-3829.6s.768.232 1.214.457c.154.078.422.235.615.44.19.2.282.405.282.405l3.06 5.344h-5.577l-2.286-4.294s-.468-.804-.756-1.037c-.24-.195-.343-.264-.58-.264h-1.162v5.592h-5v-16h9c1 0 5.132.823 5.132 4.588s-3.942 4.767-3.942 4.767zm-5.19-6.355v4h2.749s1.251 0 1.374-1.957c.128-2.043-1.376-2.041-1.376-2.041z" fill="#3f51b5"/><path d="M1010.4-3832.5s1.151.347 1.82.686c.232.118.633.351.923.659.284.301.422.607.422.607l4.192 6.518h-9.781l-1.891-4.942s-.702-1.207-1.134-1.557c-.36-.291-.515-.395-.87-.395h-1.743l.001 6.89h-8.001l.002-22h12.86c1.5 0 9.111.737 9.111 6.382 0 5.646-5.911 7.149-5.911 7.149zm-8.06-9.53v5.998h3.17s2.405 0 2.589-2.935c.192-3.063-2.59-3.06-2.59-3.06z" fill="#3f51b5"/><path d="M1134.7-3850.9s2.302.694 3.64 1.371c.464.236 1.267.704 1.846 1.319.567.603.844 1.213.844 1.213l8.384 13.036h-19.562l-3.783-9.884s-1.404-2.413-2.268-3.112c-.72-.584-1.028-.791-1.74-.791h-3.485v13.78h-16.003v-44h25.721c3 0 18.223 1.474 18.223 12.766s-11.823 14.297-11.823 14.297zm-16.122-19.061v11.997h6.343s4.81 0 5.177-5.87c.383-6.126-5.18-6.12-5.18-6.12z" fill="#3f51b5"/><path d="M1359.4-3887.9s4.604 1.389 7.28 2.742c.928.472 2.533 1.408 3.692 2.638a9.976 9.976 0 0 1 1.688 2.426l16.769 26.072h-39.124l-7.566-19.768s-2.808-4.825-4.536-6.224c-1.442-1.168-2.056-1.583-3.482-1.583h-6.968v27.56h-32.006l.01-88h51.442c5.998 0 36.446 2.947 36.446 25.53 0 22.584-23.646 28.594-23.646 28.594zm-32.243-38.122v23.994h12.685s9.62 0 10.354-11.74c.766-12.251-10.361-12.241-10.361-12.241z" fill="#3f51b5"/></g><use transform="translate(0 -300)" width="100%" height="100%" xlink:href="#n"/><g transform="translate(-750 248)"><use transform="translate(0 -350)" width="100%" height="100%" xlink:href="#o"/><use transform="translate(0 -350)" width="100%" height="100%" xlink:href="#p"/><use transform="translate(0 -350)" width="100%" height="100%" xlink:href="#q"/><use transform="translate(0 -350)" width="100%" height="100%" xlink:href="#r"/><path d="M861-4178c-.545 0-1 .455-1 1v6c0 .545.455 1 1 1h10c.545 0 1-.455 1-1v-6c0-.545-.455-1-1-1zm0 1h10v6h-10zm1 1v4h1v-2.188l1 1.563 1-1.563v2.188h1v-4h-1l-1 1.563-1-1.563zm6 0v2h-1l1 2h1l1-2h-1v-2z" color="#000" fill="#455a64" style="isolation:auto;mix-blend-mode:normal;text-decoration-color:#000;text-decoration-line:none;text-decoration-style:solid;text-indent:0;text-transform:none;white-space:normal"/><path d="M813-4176c-.545 0-1 .455-1 1v6c0 .545.455 1 1 1h10c.545 0 1-.455 1-1v-6c0-.545-.455-1-1-1zm0 1h10v6h-10zm1 1v4h1v-2.188l1 1.563 1-1.563v2.188h1v-4h-1l-1 1.563-1-1.563zm6 0v2h-1l1 2h1l1-2h-1v-2z" color="#000" fill="#455a64" style="isolation:auto;mix-blend-mode:normal;text-decoration-color:#000;text-decoration-line:none;text-decoration-style:solid;text-indent:0;text-transform:none;white-space:normal"/><g transform="translate(729 467)"><rect x="37" y="-4647" width="16" height="16" rx="2" ry="2" fill="#455a64" fill-rule="evenodd"/><path d="M40-4643c-.545 0-1 .455-1 1v6c0 .545.455 1 1 1h10c.545 0 1-.455 1-1v-6c0-.545-.455-1-1-1zm0 1h10v6H40zm1 1v4h1v-2.188l1 1.563 1-1.563v2.188h1v-4h-1l-1 1.563-1-1.563zm6 0v2h-1l1 2h1l1-2h-1v-2z" color="#000" fill="#fff" style="isolation:auto;mix-blend-mode:normal;text-decoration-color:#000;text-decoration-line:none;text-decoration-style:solid;text-indent:0;text-transform:none;white-space:normal"/></g><g transform="translate(762 4432)"><path d="M161-8615v7h2v-4.172l2 2 2-2v4.172h2v-7h-2l-2 2-2-2zm11 0v4h-2l2.5 3h1l2.5-3h-2v-4z" fill="#455a64"/><rect x="159" y="-8617" width="19" height="11" rx=".5" ry=".5" fill="none" stroke="#455a64" stroke-linecap="round" stroke-width="2"/></g><path d="M996-4192c-1.09 0-2 .91-2 2v12c0 1.09.91 2 2 2h20c1.09 0 2-.91 2-2v-12c0-1.09-.91-2-2-2zm0 2h20v12h-20zm2 2v8h2v-4.375l2 3.125 2-3.125v4.375h2v-8h-2l-2 3.125-2-3.125zm12 0v4h-2l3 4 3-4h-2v-4z" color="#000" fill="#455a64" style="isolation:auto;mix-blend-mode:normal;text-decoration-color:#000;text-decoration-line:none;text-decoration-style:solid;text-indent:0;text-transform:none;white-space:normal"/><path d="M1106-4220c-2.181 0-4 1.818-4 4v24c0 2.181 1.819 4 4 4h40c2.181 0 4-1.819 4-4v-24c0-2.182-1.819-4-4-4zm0 4h40v24h-40zm4 4v16h4v-8.75l4 6.25 4-6.25v8.75h4v-16h-4l-4 6.25-4-6.25zm24 0v8h-4l6 8 6-8h-4v-8z" color="#000" fill="#455a64" style="isolation:auto;mix-blend-mode:normal;text-decoration-color:#000;text-decoration-line:none;text-decoration-style:solid;text-indent:0;text-transform:none;white-space:normal"/><path d="M1302-4276c-4.363 0-8 3.637-8 8v48c0 4.362 3.637 8 8 8h80c4.363 0 8-3.638 8-8v-48c0-4.363-3.637-8-8-8zm0 8h80v48h-80zm8 8v32h8v-17.5l8 12.5 8-12.5v17.5h8v-32h-8l-8 12.5-8-12.5zm48 0v16h-8l12 16 12-16h-8v-16z" color="#000" fill="#455a64" style="isolation:auto;mix-blend-mode:normal;text-decoration-color:#000;text-decoration-line:none;text-decoration-style:solid;text-indent:0;text-transform:none;white-space:normal"/></g><use transform="translate(0 -600)" width="100%" height="100%" xlink:href="#n"/><text x="542.944" y="-4271.62" fill="#817205" font-family="'Roboto Slab'" font-size="66.667" letter-spacing="0" stroke-width="2" word-spacing="0" style="line-height:1.25" xml:space="preserve"><tspan x="542.944" y="-4271.62">{js}</tspan></text><text x="351.472" y="-4240.56" fill="#817205" font-family="'Roboto Slab'" font-size="33.333" letter-spacing="0" word-spacing="0" style="line-height:1.25" xml:space="preserve"><tspan x="351.472" y="-4240.56">{js}</tspan></text><text x="243.736" y="-4229.78" fill="#817205" font-family="'Roboto Slab'" font-size="16.667" letter-spacing="0" word-spacing="0" style="line-height:1.25" xml:space="preserve"><tspan x="243.736" y="-4229.78">{js}</tspan></text><text x="168.236" y="-4227.28" fill="#817205" font-family="'Roboto Slab'" font-size="16.667" letter-spacing="0" word-spacing="0" style="line-height:1.25" xml:space="preserve"><tspan x="168.236" y="-4227.28">{js}</tspan></text><text x="107.302" y="-4223.46" fill="#817205" font-family="'Roboto Slab'" font-size="12.5" letter-spacing="0" stroke-width=".75" word-spacing="0" style="line-height:1.25" xml:space="preserve"><tspan x="107.302" y="-4223.46">{js}</tspan></text><text x="60.077" y="-4220.46" fill="#817205" font-family="'Roboto Slab'" font-size="12.5" letter-spacing="0" stroke-width=".75" word-spacing="0" style="line-height:1.25" xml:space="preserve"><tspan x="60.077" y="-4220.46" letter-spacing="-.85">{js}</tspan></text><rect x="17" y="-4231" width="14" height="14" ry="1.5" fill="#bda907"/><rect x="16" y="-4232" width="16" height="16" ry="2" fill="#7b6f0f"/><rect x="17" y="-4231" width="14" height="14" ry="1.5" fill="#f7df1e"/><text x="19.338" y="-4220.46" fill="#030300" font-family="'Roboto Slab'" font-size="12.5" letter-spacing="0" stroke-width=".75" word-spacing="0" style="line-height:1.25" xml:space="preserve"><tspan x="19.338" y="-4220.46" letter-spacing="-.85">{j}</tspan></text><use transform="translate(0 -900)" width="100%" height="100%" xlink:href="#n"/><ellipse cx="592" cy="-4602" rx="60" ry="30" fill="#777bb3"/><ellipse cx="376" cy="-4559" rx="30" ry="15" fill="#777bb3"/><ellipse cx="256" cy="-4537.5" rx="15" ry="7.5" fill="#777bb3"/><ellipse cx="180" cy="-4531.5" rx="11" ry="5.5" fill="#777bb3"/><ellipse cx="116" cy="-4527" rx="8" ry="4" fill="#777bb3"/><ellipse cx="116" cy="-4527" rx="8" ry="4" fill="#777bb3"/><ellipse cx="68" cy="-4523" rx="6" ry="3" fill="#777bb3"/><rect x="16" y="-4532" width="16" height="16" ry="2" fill="#3b3d59"/><rect x="17" y="-4531" width="14" height="14" ry="1.5" fill="#777bb3"/><ellipse cx="24" cy="-4524" rx="5" ry="3" fill="#fff"/><use transform="translate(0 -1200)" width="100%" height="100%" xlink:href="#n"/><path d="M629.5-4943.5c-51 0-41 70-75 70v17c25.243 0 35.442-17.584 43.734-35H620.5v-17h-13.939c5.451-9.766 11.943-17 22.939-17z" fill="#4c0101"/><path d="M395-4876c-25.5 0-21 35-38 35v9c12.621 0 17.721-9.292 21.867-18H390v-8h-6.97c2.726-4.883 6.472-9 11.97-9z" fill="#4c0101"/><path d="M266-4847c-12.75 0-11.5 17-20 17v5c6.31 0 9.36-4.646 11.434-9H263v-4h-3.484c1.362-2.442 3.735-4 6.484-4z" fill="#4c0101"/><path d="M187-4839c-9.563 0-7.625 13-14 13v3c4.733 0 6.614-3.14 8.169-6.406h4.175v-3.188h-2.614c1.022-1.83 2.208-3.406 4.27-3.406z" fill="#4c0101"/><path d="M122-4835c-9.563 0-7.625 13-14 13v3c4.733 0 6.614-3.14 8.169-6.406h4.175v-3.188h-2.614c1.022-1.83 2.208-3.406 4.27-3.406z" fill="#4c0101"/><path d="M74-4830c-7.172 0-5.219 10-10 10v2c3.55 0 4.493-2.55 5.659-5H73v-2h-2.17c.766-1.373 1.624-3 3.17-3z" fill="#4c0101"/><rect x="16" y="-4832" width="16" height="16" ry="2" fill="#4c0101"/><rect x="17" y="-4831" width="14" height="14" ry="2" fill="#cf3b00"/><path transform="translate(0 8)" d="M27-4836c-1.042 0-1.824.572-2.334 1.31-.51.74-.824 1.647-1.137 2.522s-.623 1.717-1.02 2.291c-.395.574-.8.877-1.509.877v1c1.042 0 1.824-.572 2.334-1.31.51-.74.824-1.647 1.137-2.522.02-.059.043-.11.064-.168H26v-1h-1.086c.177-.425.364-.816.576-1.123.396-.574.802-.877 1.51-.877z" color="#000" fill="#fff" style="font-feature-settings:normal;font-variant-alternates:normal;font-variant-caps:normal;font-variant-ligatures:normal;font-variant-numeric:normal;font-variant-position:normal;isolation:auto;mix-blend-mode:normal;shape-padding:0;text-decoration-color:#000;text-decoration-line:none;text-decoration-style:solid;text-indent:0;text-orientation:mixed;text-transform:none;white-space:normal"/><use transform="translate(0 -1500)" width="100%" height="100%" xlink:href="#n"/><rect x="16" y="-5132" width="16" height="16" ry="2" fill="#6f6f6f"/><rect x="17" y="-5131" width="14" height="14" ry="1.5" fill="#ececec"/><path d="M110.5-5123h1l4-10h1l4 10h1v1H118v-1h1l-.715-2h-4.555l-.73 2h1v1h-3.5zm3.5-3h4l-1.996-5.21z" aria-label="A"/><path d="M245-5130h2l8-20h2l8 20h2v2h-7v-2h2l-1.43-4h-9.11l-1.46 4h2v2h-7zm7-6h8l-3.992-10.422z" aria-label="A"/><path d="M354-5140h4l16-40h4l16 40h4v4h-14v-4h4l-2.86-8h-18.218l-2.922 8h4v4h-14zm14-12h16l-7.984-20.844z" aria-label="A"/><path d="M548-5160h8l32-80h8l32 80h8v8h-28v-8h8l-5.719-16h-36.437L568-5160h8v8h-28zm28-24h32l-15.969-41.687z" aria-label="A"/><path d="M171-5127h2l8-20h2l8 20h2v2h-7v-2h2l-1.43-4h-9.11l-1.46 4h2v2h-7zm7-6h8l-3.992-10.422z" aria-label="A"/><path d="M62.5-5120h1l4-10h1l4 10h1v1H70v-1h1l-.715-2H65.73l-.73 2h1v1h-3.5zm3.5-3h4l-1.996-5.21z" aria-label="A"/><g fill="none" stroke="#000" stroke-opacity=".251"><path d="M110-5122.5h-2.5v-10h2.5"/><path d="M120.5-5122v2.5h-10v-2.5"/></g><g fill="none" stroke="#000" stroke-opacity=".251"><path d="M244-5128.5h-2.5v-21h2.5"/><path d="M266.5-5127v2.5h-21v-2.5"/></g><path d="M170-5125.5h-2.5v-21h2.5" fill="none" stroke="#000" stroke-opacity=".251"/><path d="M192.5-5124v2.5h-21v-2.5" fill="none" stroke="#000" stroke-opacity=".251"/><g fill="none" stroke="#000" stroke-opacity=".251"><path d="M353-5136.6h-9.5v-43h9.5"/><path d="M397.5-5135v6.5h-43v-6.5"/></g><g fill="none" stroke="#000" stroke-opacity=".251" stroke-width="2"><path d="M546-5153.2h-19v-86h19"/><path d="M635-5150v13h-86v-13"/></g><path d="M19-5120h1l4-10h1l4 10h1v1h-3.5v-1h1l-.715-2H22.23l-.73 2h1v1H19zm3.5-3h4l-1.996-5.21z" aria-label="A"/><rect x="18" y="-5130" width="1" height="11" ry="0" fill-opacity=".251"/><path fill-opacity=".251" d="M19-5119h11v1H19z"/><path fill-opacity=".251" d="M62-5119h12v1H62z"/><path fill-opacity=".251" d="M61-5130h1v11h-1z"/><use transform="translate(0 -1800)" width="100%" height="100%" xlink:href="#n"/><rect x="16" y="-5432" width="16" height="16" ry="1.5" fill="#6f6f6f"/><rect x="17" y="-5431" width="14" height="14" ry="1" fill="#ececec"/><path d="M105-5432v2a12 12 0 0 1 12 12h2a14 14 0 0 0-14-14zm0 4v2a8 8 0 0 1 8 8h2a10 10 0 0 0-10-10zm0 4v2a4 4 0 0 1 4 4h2a6 6 0 0 0-6-6zm0 4c0 1.108.892 2 2 2a2 2 0 0 0-2-2z" fill="#b0b0b0"/><path d="M164-5440v3a18 18 0 0 1 18 18h3a21 21 0 0 0-21-21zm0 6v3a12 12 0 0 1 12 12h3a15 15 0 0 0-15-15zm0 6v3a6 6 0 0 1 6 6h3a9 9 0 0 0-9-9zm0 6c0 1.662 1.338 3 3 3a3 3 0 0 0-3-3z" fill="#b0b0b0"/><path d="M234-5448v4a24 24 0 0 1 24 24h4a28 28 0 0 0-28-28zm0 8v4a16 16 0 0 1 16 16h4a20 20 0 0 0-20-20zm0 8v4a8 8 0 0 1 8 8h4a12 12 0 0 0-12-12zm0 8c0 2.216 1.784 4 4 4a4 4 0 0 0-4-4z" fill="#b0b0b0"/><path d="M332-5480v8a48 48 0 0 1 48 48h8a56 56 0 0 0-56-56zm0 16v8a32 32 0 0 1 32 32h8a40 40 0 0 0-40-40zm0 16v8a16 16 0 0 1 16 16h8a24 24 0 0 0-24-24zm0 16c0 4.432 3.568 8 8 8a8 8 0 0 0-8-8z" fill="#b0b0b0"/><path d="M504-5544v16a96 96 0 0 1 96 96h16a112 112 0 0 0-112-112zm0 32v16a64 64 0 0 1 64 64h16a80 80 0 0 0-80-80zm0 32v16a32 32 0 0 1 32 32h16a48 48 0 0 0-48-48zm0 32v8c0 4.432 3.568 8 8 8h8a16 16 0 0 0-.068-1.353 16 16 0 0 0-.098-.813 16 16 0 0 0-.117-.777 16 16 0 0 0-.182-.809 16 16 0 0 0-.19-.736 16 16 0 0 0-.261-.79 16 16 0 0 0-.268-.732 16 16 0 0 0-.316-.709 16 16 0 0 0-.363-.754 16 16 0 0 0-.389-.677 16 16 0 0 0-.416-.676 16 16 0 0 0-.482-.678 16 16 0 0 0-.467-.613 16 16 0 0 0-.533-.606 16 16 0 0 0-.543-.584 16 16 0 0 0-.584-.543 16 16 0 0 0-.606-.533 16 16 0 0 0-.613-.467 16 16 0 0 0-.678-.482 16 16 0 0 0-.676-.416 16 16 0 0 0-.677-.389 16 16 0 0 0-.754-.363 16 16 0 0 0-.71-.316 16 16 0 0 0-.732-.268 16 16 0 0 0-.789-.262 16 16 0 0 0-.736-.19 16 16 0 0 0-.809-.18 16 16 0 0 0-.777-.118 16 16 0 0 0-.813-.098A16 16 0 0 0 504-5448z" fill="#b0b0b0"/><path d="M59-5431v2a12 12 0 0 1 12 12h2a14 14 0 0 0-14-14zm0 4v2a8 8 0 0 1 8 8h2a10 10 0 0 0-10-10zm0 4v2a4 4 0 0 1 4 4h2a6 6 0 0 0-6-6zm0 4c0 1.108.892 2 2 2a2 2 0 0 0-2-2z" fill="#b0b0b0"/><path d="M17-5424v1a6 6 0 0 1 6 6h1a7 7 0 0 0-7-7zm0 2v1a4 4 0 0 1 4 4h1a5 5 0 0 0-5-5zm0 2v1a2 2 0 0 1 2 2h1a3 3 0 0 0-3-3zm0 2c0 .554.446 1 1 1a1 1 0 0 0-1-1z" fill="#b0b0b0"/><use transform="translate(0 -2100)" width="100%" height="100%" xlink:href="#n"/><rect x="16" y="-5732" width="16" height="16" ry="2" fill="#6f6f6f"/><rect x="17" y="-5731" width="14" height="14" ry="1.5" fill="#ececec"/><g fill="#888"><path d="m116-5736.1-.438.219-6 3.062-.562.282v9.249l.563.282 6 2.937.437.219.438-.219 6-3 .562-.281v-9.25l-.563-.281-6-3zm0 2.25 5 2.5v6.75l-5 2.5v-6.75l-.438-.219-4.53-2.281z" color="#000" style="text-decoration-line:none;text-indent:0;text-transform:none"/><path d="m116-5728.9 5-2.5v6.75l-5 2.5z" opacity=".5"/></g><path d="m180-5741.1-.438.219-6 3.062-.562.282v9.249l.563.282 6 2.937.437.219.438-.219 6-3 .562-.281v-9.25l-.563-.281-6-3zm0 2.25 5 2.5v6.75l-5 2.5v-6.75l-.438-.219-4.53-2.281z" color="#000" fill="#888" style="text-decoration-line:none;text-indent:0;text-transform:none"/><path d="m180-5733.9 5-2.5v6.75l-5 2.5z" fill="#888" opacity=".5"/><path d="m256-5748-.688.323-9.428 4.523-.884.415v13.662l.884.416 9.428 4.338.688.323.687-.323 9.43-4.43.883-.416v-13.661l-.884-.415-9.429-4.431zm0 3.323 8 3.677v10l-8 3.677v-9.97l-.688-.322L248-5741z" color="#000" fill="#888" style="text-decoration-line:none;text-indent:0;text-transform:none"/><path d="m256-5737.3 8-3.708v10l-8 3.677z" fill="#888" opacity=".5"/><path d="m256-5748-.688.323-9.428 4.523-.884.415v13.662l.884.416 9.428 4.338.688.323.687-.323 9.43-4.43.883-.416v-13.661l-.884-.415-9.429-4.431zm0 3.323 8 3.677v10l-8 3.677v-9.97l-.688-.322L248-5741z" color="#000" fill="#888" style="text-decoration-line:none;text-indent:0;text-transform:none"/><g fill="#888"><path d="m376-5759.6 16-7.415v20l-16 7.354z" opacity=".5"/><path d="m256-5748-.688.323-9.428 4.523-.884.415v13.662l.884.416 9.428 4.338.688.323.687-.323 9.43-4.43.883-.416v-13.661l-.884-.415-9.429-4.431zm0 3.323 8 3.677v10l-8 3.677v-9.97l-.688-.322L248-5741z" color="#000" style="text-decoration-line:none;text-indent:0;text-transform:none" transform="matrix(2 0 0 2 -136 5715)"/></g><g fill="#888"><path d="m592-5811.2 32-14.83v40l-32 14.708z" opacity=".5"/><path d="m256-5748-.688.323-9.428 4.523-.884.415v13.662l.884.416 9.428 4.338.688.323.687-.323 9.43-4.43.883-.416v-13.661l-.884-.415-9.429-4.431zm0 3.323 8 3.677v10l-8 3.677v-9.97l-.688-.322L248-5741z" color="#000" style="text-decoration-line:none;text-indent:0;text-transform:none" transform="matrix(4 0 0 4 -432 17138)"/></g><g fill="#888"><path d="m116-5736.1-.438.219-6 3.062-.562.282v9.249l.563.282 6 2.937.437.219.438-.219 6-3 .562-.281v-9.25l-.563-.281-6-3zm0 2.25 5 2.5v6.75l-5 2.5v-6.75l-.438-.219-4.53-2.281z" color="#000" style="text-decoration-line:none;text-indent:0;text-transform:none" transform="matrix(.5 0 0 .5 10 -2858.5)"/><path d="m68-5722.95 2.5-1.25v3.375l-2.5 1.25z" opacity=".5"/></g><g fill="#888"><path d="m116-5736.1-.438.219-6 3.062-.562.282v9.249l.563.282 6 2.937.437.219.438-.219 6-3 .562-.281v-9.25l-.563-.281-6-3zm0 2.25 5 2.5v6.75l-5 2.5v-6.75l-.438-.219-4.53-2.281z" color="#000" style="text-decoration-line:none;text-indent:0;text-transform:none" transform="matrix(.5 0 0 .5 -34 -2860)"/><path d="m24-5724.45 2.5-1.25v3.375l-2.5 1.25z" opacity=".5"/></g><use transform="translate(0 -2400)" width="100%" height="100%" xlink:href="#n"/><rect x="16" y="-6032" width="16" height="16" ry="2" fill="#6f6f6f"/><rect x="17" y="-6031" width="14" height="14" ry="1.5" fill="#ececec"/><g fill="#474341" fill-opacity=".69"><path d="M248-6072a2 2 0 0 0-2 2v6.188a2.925 2.925 0 0 0-1-.188 3 3 0 1 0 3 3v-7h6v4.188a2.925 2.925 0 0 0-1-.188 3 3 0 1 0 3 3v-9a2 2 0 0 0-2-2z"/><path d="M249-6048h22v4h-22z"/><path d="M249-6040h22v4h-22z"/><path d="M249-6032h22v4h-22z"/><path d="M241-6048h4v4h-4z"/><path d="M241-6040h4v4h-4z"/><path d="M241-6032h4v4h-4z"/></g><g fill="#474341" fill-opacity=".69"><path d="M174-6058a1.5 1.5 0 0 0-1.5 1.5v4.64a2.194 2.194 0 0 0-.75-.14 2.25 2.25 0 1 0 2.25 2.25v-5.25h4.5v3.14a2.194 2.194 0 0 0-.75-.14 2.25 2.25 0 1 0 2.25 2.25v-6.75a1.5 1.5 0 0 0-1.5-1.5z"/><path d="M174.998-6040h16.5v3h-16.5z"/><path d="M174.998-6034h16.5v3h-16.5z"/><path d="M174.998-6028h16.5v3h-16.5z"/><path d="M168.998-6040h3v3h-3z"/><path d="M168.998-6034h3v3h-3z"/><path d="M168.998-6028h3v3h-3z"/></g><g fill="#474341" fill-opacity=".69"><path d="M112-6044a1 1 0 0 0-1 1v3.094a1.463 1.463 0 0 0-.5-.094 1.5 1.5 0 1 0 1.5 1.5v-3.5h3v2.094a1.463 1.463 0 0 0-.5-.094 1.5 1.5 0 1 0 1.5 1.5v-4.5a1 1 0 0 0-1-1z"/><path d="M112-6032h11v2h-11z"/><path d="M112-6028h11v2h-11z"/><path d="M112-6024h11v2h-11z"/><path d="M108-6032h2v2h-2z"/><path d="M108-6028h2v2h-2z"/><path d="M108-6024h2v2h-2z"/></g><g fill="#474341" fill-opacity=".69"><path d="M64-6038a1 1 0 0 0-1 1v3.094a1.463 1.463 0 0 0-.5-.094 1.5 1.5 0 1 0 1.5 1.5v-3.5h3v2.094a1.463 1.463 0 0 0-.5-.094 1.5 1.5 0 1 0 1.5 1.5v-4.5a1 1 0 0 0-1-1z"/><path d="M64-6029h11v2H64z"/><path d="M64-6025h11v2H64z"/><path d="M64-6021h11v2H64z"/><path d="M60-6029h2v2h-2z"/><path d="M60-6025h2v2h-2z"/><path d="M60-6021h2v2h-2z"/></g><g fill="#474341" fill-opacity=".69"><path d="M22-6023.05h6v1h-6z"/><path d="M22-6021.05h6v1h-6z"/><path d="M22-6019.05h6v1h-6z"/><path d="M20-6023.05h1v1h-1z"/><path d="M20-6021.05h1v1h-1z"/><path d="M20-6019.05h1v1h-1z"/><path d="M24-6030.05a1 1 0 0 0-1 1v2.094a1.464 1.464 0 0 0-.5-.094 1.5 1.5 0 1 0 1.5 1.5v-2.5h3v1.094a1.464 1.464 0 0 0-.5-.094 1.5 1.5 0 1 0 1.5 1.5v-3.5a1 1 0 0 0-1-1z"/></g><g fill="#474341" fill-opacity=".69"><path d="M360-6123a4 4 0 0 0-4 4v12.375c-.633-.227-1.289-.375-2-.375a6 6 0 1 0 6 6v-14h12v8.375c-.633-.227-1.289-.375-2-.375a6 6 0 1 0 6 6v-18a4 4 0 0 0-4-4z"/><path d="M362-6075h44v8h-44z"/><path d="M362-6059h44v8h-44z"/><path d="M362-6043h44v8h-44z"/><path d="M346-6075h8v8h-8z"/><path d="M346-6059h8v8h-8z"/><path d="M346-6043h8v8h-8z"/></g><g fill="#474341" fill-opacity=".69"><path d="M560-6236a8 8 0 0 0-8 8v24.75c-1.266-.454-2.578-.75-4-.75-6.627 0-12 5.372-12 12 0 6.627 5.373 12 12 12s12-5.373 12-12v-28h24v16.75c-1.266-.454-2.578-.75-4-.75-6.627 0-12 5.372-12 12 0 6.627 5.373 12 12 12s12-5.373 12-12v-36a8 8 0 0 0-8-8z"/><path d="M564-6140h88v16h-88z"/><path d="M564-6108h88v16h-88z"/><path d="M564-6076h88v16h-88z"/><path d="M532-6140h16v16h-16z"/><path d="M532-6108h16v16h-16z"/><path d="M532-6076h16v16h-16z"/></g><use transform="translate(0 -2700)" width="100%" height="100%" xlink:href="#n"/><rect x="16" y="-6332" width="16" height="16" ry="2" fill="#6f6f6f"/><rect x="17" y="-6331" width="14" height="14" ry="1.5" fill="#ececec"/><path d="M116-6336a8 8 0 0 0-8 8 8 8 0 0 0 8 8 8 8 0 0 0 8-8 8 8 0 0 0-8-8zm0 6a2 2 0 0 1 2 2 2 2 0 0 1-2 2 2 2 0 0 1-2-2 2 2 0 0 1 2-2z" fill="#474341" fill-opacity=".69"/><path d="M68-6331a6 6 0 0 0-6 6 6 6 0 0 0 6 6 6 6 0 0 0 6-6 6 6 0 0 0-6-6zm0 4a2 2 0 0 1 2 2 2 2 0 0 1-2 2 2 2 0 0 1-2-2 2 2 0 0 1 2-2z" fill="#474341" fill-opacity=".69"/><path d="M24-6328a4 4 0 0 0-4 4 4 4 0 0 0 4 4 4 4 0 0 0 4-4 4 4 0 0 0-4-4zm0 3a1 1 0 0 1 1 1 1 1 0 0 1-1 1 1 1 0 0 1-1-1 1 1 0 0 1 1-1z" fill="#474341" fill-opacity=".69"/><path d="M256-6355a16 16 0 0 0-16 16 16 16 0 0 0 16 16 16 16 0 0 0 16-16 16 16 0 0 0-16-16zm0 12a4 4 0 0 1 4 4 4 4 0 0 1-4 4 4 4 0 0 1-4-4 4 4 0 0 1 4-4z" fill="#474341" fill-opacity=".69"/><path d="M376-6394a32 32 0 0 0-32 32 32 32 0 0 0 32 32 32 32 0 0 0 32-32 32 32 0 0 0-32-32zm0 24a8 8 0 0 1 8 8 8 8 0 0 1-8 8 8 8 0 0 1-8-8 8 8 0 0 1 8-8z" fill="#474341" fill-opacity=".69"/><path d="M592-6473a64 64 0 0 0-64 64 64 64 0 0 0 64 64 64 64 0 0 0 64-64 64 64 0 0 0-64-64zm0 48a16 16 0 0 1 16 16 16 16 0 0 1-16 16 16 16 0 0 1-16-16 16 16 0 0 1 16-16z" fill="#474341" fill-opacity=".69"/><path d="M180-6345a12 12 0 0 0-12 12 12 12 0 0 0 12 12 12 12 0 0 0 12-12 12 12 0 0 0-12-12zm0 9a3 3 0 0 1 3 3 3 3 0 0 1-3 3 3 3 0 0 1-3-3 3 3 0 0 1 3-3z" fill="#474341" fill-opacity=".69"/><use transform="translate(0 -3000)" width="100%" height="100%" xlink:href="#n"/><rect x="16" y="-6632" width="16" height="16" ry="2" fill="#6f6f6f"/><rect x="17" y="-6631" width="14" height="14" ry="1.5" fill="#ececec"/><path d="m114.25-6636-.154 1.844a5.5 5.5 0 0 0-1.608.93l-1.676-.79-1.75 3.032 1.522 1.056a5.5 5.5 0 0 0-.084.928 5.5 5.5 0 0 0 .08.932l-1.517 1.052 1.75 3.032 1.671-.787a5.5 5.5 0 0 0 1.612.923l.154 1.848h3.5l.154-1.844a5.5 5.5 0 0 0 1.608-.93l1.676.79 1.75-3.032-1.522-1.056a5.5 5.5 0 0 0 .084-.928 5.5 5.5 0 0 0-.08-.932l1.517-1.052-1.75-3.032-1.671.787a5.5 5.5 0 0 0-1.612-.923l-.154-1.848zm1.75 5a2 2 0 0 1 2 2 2 2 0 0 1-2 2 2 2 0 0 1-2-2 2 2 0 0 1 2-2z" fill="#474341" fill-opacity=".69"/><path d="m252.5-6652.5-.309 3.687a11 11 0 0 0-3.214 1.86l-3.352-1.578-3.5 6.062 3.043 2.114a11 11 0 0 0-.168 1.855 11 11 0 0 0 .16 1.863l-3.035 2.106 3.5 6.062 3.344-1.574a11 11 0 0 0 3.222 1.848l.309 3.695h7l.309-3.688a11 11 0 0 0 3.214-1.859l3.352 1.578 3.5-6.062-3.043-2.114a11 11 0 0 0 .168-1.855 11 11 0 0 0-.16-1.863l3.035-2.106-3.5-6.062-3.344 1.574a11 11 0 0 0-3.222-1.848l-.309-3.695zm3.5 10a4 4 0 0 1 4 4 4 4 0 0 1-4 4 4 4 0 0 1-4-4 4 4 0 0 1 4-4z" fill="#474341" fill-opacity=".69"/><path d="m370.75-6683-.463 5.531a16.5 16.5 0 0 0-4.822 2.79l-5.027-2.368-5.25 9.094 4.564 3.17a16.5 16.5 0 0 0-.252 2.783 16.5 16.5 0 0 0 .24 2.795l-4.553 3.158 5.25 9.094 5.016-2.361a16.5 16.5 0 0 0 4.834 2.77l.463 5.544h10.5l.463-5.531a16.5 16.5 0 0 0 4.822-2.79l5.027 2.368 5.25-9.094-4.564-3.17a16.5 16.5 0 0 0 .252-2.783 16.5 16.5 0 0 0-.24-2.795l4.552-3.158-5.25-9.094-5.015 2.361a16.5 16.5 0 0 0-4.834-2.77l-.463-5.544zm5.25 15a6 6 0 0 1 6 6 6 6 0 0 1-6 6 6 6 0 0 1-6-6 6 6 0 0 1 6-6z" fill="#474341" fill-opacity=".69"/><path d="m581.5-6751-.926 11.062a33 33 0 0 0-9.644 5.578l-10.055-4.734-10.5 18.187 9.129 6.34A33 33 0 0 0 559-6709a33 33 0 0 0 .48 5.59l-9.105 6.316 10.5 18.187 10.03-4.723a33 33 0 0 0 9.669 5.543l.925 11.086h21l.926-11.063a33 33 0 0 0 9.645-5.577l10.055 4.734 10.5-18.187-9.13-6.34a33 33 0 0 0 .505-5.567 33 33 0 0 0-.48-5.59l9.105-6.316-10.5-18.187-10.031 4.722a33 33 0 0 0-9.668-5.542L602.5-6751zm10.5 30a12 12 0 0 1 12 12 12 12 0 0 1-12 12 12 12 0 0 1-12-12 12 12 0 0 1 12-12z" fill="#474341" fill-opacity=".69"/><path d="m177.38-6644.5-.231 2.766a8.25 8.25 0 0 0-2.412 1.394l-2.513-1.183-2.625 4.546 2.282 1.585a8.25 8.25 0 0 0-.126 1.392 8.25 8.25 0 0 0 .12 1.397l-2.276 1.58 2.625 4.546 2.507-1.18a8.25 8.25 0 0 0 2.417 1.386l.232 2.771h5.25l.231-2.766a8.25 8.25 0 0 0 2.411-1.394l2.514 1.183 2.625-4.546-2.282-1.585a8.25 8.25 0 0 0 .126-1.392 8.25 8.25 0 0 0-.12-1.397l2.276-1.58-2.625-4.546-2.508 1.18a8.25 8.25 0 0 0-2.417-1.386l-.231-2.771zm2.625 7.5a3 3 0 0 1 3 3 3 3 0 0 1-3 3 3 3 0 0 1-3-3 3 3 0 0 1 3-3z" fill="#474341" fill-opacity=".69"/><path d="m66.188-6630.8-.116 1.383a4.125 4.125 0 0 0-1.205.697l-1.257-.592-1.313 2.274 1.141.792a4.125 4.125 0 0 0-.063.696 4.125 4.125 0 0 0 .06.699l-1.138.79 1.313 2.273 1.254-.59a4.125 4.125 0 0 0 1.208.692l.116 1.386h2.625l.116-1.383a4.125 4.125 0 0 0 1.205-.697l1.257.592 1.313-2.274-1.141-.792a4.125 4.125 0 0 0 .062-.696 4.125 4.125 0 0 0-.06-.699l1.139-.79-1.313-2.273-1.254.59a4.125 4.125 0 0 0-1.208-.692l-.116-1.386zm1.313 3.75a1.5 1.5 0 0 1 1.5 1.5 1.5 1.5 0 0 1-1.5 1.5 1.5 1.5 0 0 1-1.5-1.5 1.5 1.5 0 0 1 1.5-1.5z" fill="#474341" fill-opacity=".69"/><path d="m22.25-6631-.154 1.844a5.5 5.5 0 0 0-1.608.93l-1.675-.79-1.75 3.032 1.521 1.056a5.5 5.5 0 0 0-.084.928 5.5 5.5 0 0 0 .08.932l-1.517 1.052 1.75 3.032 1.671-.787a5.5 5.5 0 0 0 1.612.923l.154 1.848h3.5l.154-1.844a5.5 5.5 0 0 0 1.608-.93l1.676.79 1.75-3.032-1.522-1.056a5.5 5.5 0 0 0 .084-.928 5.5 5.5 0 0 0-.08-.932l1.517-1.052-1.75-3.032-1.671.787a5.5 5.5 0 0 0-1.612-.923L25.75-6631zm1.75 5a2 2 0 0 1 2 2 2 2 0 0 1-2 2 2 2 0 0 1-2-2 2 2 0 0 1 2-2z" fill="#474341" fill-opacity=".69"/><use transform="translate(0 -3300)" width="100%" height="100%" xlink:href="#n"/><rect x="17" y="-6932" width="15" height="16" ry="2" fill="#6f6f6f"/><rect x="18" y="-6931" width="13" height="14" ry="1.5" fill="#ececec"/><path d="M112-6934c-.554 0-1 .446-1 1v1h-2c-.554 0-1 .446-1 1v8c0 .554.446 1 1 1h2v1c0 .554.446 1 1 1s1-.446 1-1v-1h2v1c0 .554.446 1 1 1s1-.446 1-1v-1h2v1c0 .554.446 1 1 1s1-.446 1-1v-1h2c.554 0 1-.446 1-1v-8c0-.554-.446-1-1-1h-2v-1c0-.554-.446-1-1-1s-1 .446-1 1v1h-2v-1c0-.554-.446-1-1-1s-1 .446-1 1v1h-2v-1c0-.554-.446-1-1-1zm-2 4h12v1a2 2 0 0 0-2 2 2 2 0 0 0 2 2v1h-12z" fill="#474341" fill-opacity=".69"/><path d="M64-6932c-.554 0-1 .446-1 1v1h-2c-.554 0-1 .446-1 1v8c0 .554.446 1 1 1h2v1c0 .554.446 1 1 1s1-.446 1-1v-1h2v1c0 .554.446 1 1 1s1-.446 1-1v-1h2v1c0 .554.446 1 1 1s1-.446 1-1v-1h2c.554 0 1-.446 1-1v-8c0-.554-.446-1-1-1h-2v-1c0-.554-.446-1-1-1s-1 .446-1 1v1h-2v-1c0-.554-.446-1-1-1s-1 .446-1 1v1h-2v-1c0-.554-.446-1-1-1zm-2 4h12v1a2 2 0 0 0-2 2 2 2 0 0 0 2 2v1H62z" fill="#474341" fill-opacity=".69"/><path d="M22.5-6928c-.277 0-.43.232-.5.5v.5h-1.5c-.277 0-.5.223-.5.5v5c0 .277.223.5.5.5H22v.5a.499.499 0 1 0 1 0v-.5h1v.5c0 .277.223.5.5.5s.55-.228.5-.5v-.5h1v.5a.499.499 0 1 0 1 0v-.5h1.5c.277 0 .5-.223.5-.5v-5c0-.277-.223-.5-.5-.5H27v-.5c0-.277-.223-.5-.5-.5s-.58.235-.5.5v.5h-1v-.5c0-.277-.223-.5-.5-.5s-.447.228-.5.5v.5h-1v-.5c0-.277-.223-.5-.5-.5zm-1.5 2h7v1a1 1 0 1 0 0 2v1h-7z" fill="#474341" fill-opacity=".69" filter="url(#filter1113)"/><path d="M176-6939c-.554 0-1 .446-1 1v1h-2c-.554 0-1 .446-1 1v8c0 .554.446 1 1 1h2v1c0 .554.446 1 1 1s1-.446 1-1v-1h2v1c0 .554.446 1 1 1s1-.446 1-1v-1h2v1c0 .554.446 1 1 1s1-.446 1-1v-1h2c.554 0 1-.446 1-1v-8c0-.554-.446-1-1-1h-2v-1c0-.554-.446-1-1-1s-1 .446-1 1v1h-2v-1c0-.554-.446-1-1-1s-1 .446-1 1v1h-2v-1c0-.554-.446-1-1-1zm-2 4h12v1a2 2 0 0 0-2 2 2 2 0 0 0 2 2v1h-12z" fill="#474341" fill-opacity=".69"/><path d="M250.5-6949c-.831 0-1.412.674-1.5 1.5v1.5h-2.5c-.831 0-1.5.669-1.5 1.5v12c0 .831.669 1.5 1.5 1.5h2.5v1.5c0 .831.669 1.5 1.5 1.5s1.584-.673 1.5-1.5v-1.5h3v1.5c0 .831.669 1.5 1.5 1.5s1.5-.669 1.5-1.5v-1.5h3v1.5c0 .831.669 1.5 1.5 1.5s1.5-.669 1.5-1.5v-1.5h2.5c.831 0 1.5-.669 1.5-1.5v-12c0-.831-.669-1.5-1.5-1.5H264v-1.5c0-.831-.669-1.5-1.5-1.5s-1.5.669-1.5 1.5v1.5h-3v-1.5c0-.831-.669-1.5-1.5-1.5s-1.5.669-1.5 1.5v1.5h-3v-1.5c0-.831-.669-1.5-1.5-1.5zm-2.5 6h17v1.5a3 3 0 0 0 0 6v1.5h-17z" fill="#474341" fill-opacity=".69" filter="url(#filter1113)"/><path d="M364-6983c-1.662 0-2.824 1.347-3 3v3h-5c-1.662 0-3 1.338-3 3v24c0 1.662 1.338 3 3 3h5v3c0 1.662 1.338 3 3 3s3.169-1.347 3-3v-3h6v3c0 1.662 1.338 3 3 3s3-1.338 3-3v-3h6v3c0 1.662 1.338 3 3 3s3-1.338 3-3v-3h5c1.662 0 3-1.338 3-3v-24c0-1.662-1.338-3-3-3h-5v-3c0-1.662-1.338-3-3-3s-3 1.338-3 3v3h-6v-3c0-1.662-1.338-3-3-3s-3 1.338-3 3v3h-6v-3c0-1.662-1.338-3-3-3zm-5 12h34v3a6 6 0 0 0 0 12v3h-34z" fill="#474341" fill-opacity=".69" filter="url(#filter1113)"/><path d="M568-7051c-3.324 0-5.648 2.695-6 6v6h-10c-3.324 0-6 2.676-6 6v48c0 3.324 2.676 6 6 6h10v6c0 3.324 2.676 6 6 6s6.337-2.693 6-6v-6h12v6c0 3.324 2.676 6 6 6s6-2.676 6-6v-6h12v6c0 3.324 2.676 6 6 6s6-2.676 6-6v-6h10c3.324 0 6-2.676 6-6v-48c0-3.324-2.676-6-6-6h-10v-6c0-3.324-2.676-6-6-6s-6 2.676-6 6v6h-12v-6c0-3.324-2.676-6-6-6s-6 2.676-6 6v6h-12v-6c0-3.324-2.676-6-6-6zm-10 24h68v6c-6.627 0-12 5.373-12 12 0 6.628 5.373 12 12 12v6h-68z" fill="#474341" fill-opacity=".69" filter="url(#filter1113)"/></g></svg>