<svg version="1.0" viewBox="0 0 32 32" xmlns="http://www.w3.org/2000/svg"><path d="M28 9.5v20c0 1.385-1.115 2.5-2.5 2.5h-19A2.495 2.495 0 0 1 4 29.5v-26C4 2.115 5.115 1 6.5 1h13" fill="#6f6f6f"/><path d="M27 10v18c0 1.108-.892 2-2 2H7c-1.108 0-2-.892-2-2V4c0-1.108.892-2 2-2h12" fill="#ececec"/><path d="M27 12h-7c-1.108 0-2-.892-2-2V2h1l8 8z" fill="#6f6f6f" fill-opacity=".502"/><path d="M27 10h-6c-1.108 0-2-.892-2-2V2" fill="#fafafa"/><path d="M5 16v2a12 12 0 0 1 12 12h2A14 14 0 0 0 5 16zm0 4v2a8 8 0 0 1 8 8h2A10 10 0 0 0 5 20zm0 4v2a4 4 0 0 1 4 4h2a6 6 0 0 0-6-6zm0 4c0 1.108.892 2 2 2a2 2 0 0 0-2-2z" fill="#b0b0b0"/></svg>