<svg version="1.0" viewBox="0 0 32 32" xmlns="http://www.w3.org/2000/svg"><path d="M28 9.5v20c0 1.385-1.115 2.5-2.5 2.5h-19A2.495 2.495 0 0 1 4 29.5v-26C4 2.115 5.115 1 6.5 1h13" fill="#6f6f6f"/><path d="M27 10v18c0 1.108-.892 2-2 2H7c-1.108 0-2-.892-2-2V4c0-1.108.892-2 2-2h12" fill="#ececec"/><path d="M27 12h-7c-1.108 0-2-.892-2-2V2h1l8 8z" fill="#6f6f6f" fill-opacity=".502"/><path d="M27 10h-6c-1.108 0-2-.892-2-2V2" fill="#fafafa"/><path d="m116-5736.1-.438.219-6 3.062-.562.282v9.249l.563.282 6 2.937.437.219.438-.219 6-3 .562-.281v-9.25l-.563-.281-6-3zm0 2.25 5 2.5v6.75l-5 2.5v-6.75l-.438-.219-4.53-2.281z" color="#000" fill="#888" style="text-decoration-line:none;text-indent:0;text-transform:none" transform="translate(-100 5748)"/><path d="m16 19.1 5-2.5v6.75l-5 2.5z" fill="#888" opacity=".5"/></svg>