<svg version="1.0" viewBox="0 0 32 32" xmlns="http://www.w3.org/2000/svg"><defs><linearGradient id="a" x1="60" x2="68" y1="268" y2="268" gradientTransform="matrix(.25 0 0 .25 94 -6106)" gradientUnits="userSpaceOnUse"><stop stop-color="#949390" offset="0"/><stop stop-color="#d5d3cf" offset=".083"/><stop stop-color="#949390" offset=".167"/><stop stop-color="#949390" offset=".833"/><stop stop-color="#d5d3cf" offset=".917"/><stop stop-color="#949390" offset="1"/></linearGradient></defs><g transform="translate(-100 3048)"><rect x="103" y="-3045" width="26" height="26" ry="2" fill="#a19282"/><rect x="104" y="-3044" width="24" height="17" ry="1.5" fill="#d7c3ad"/><path d="M110-3022.5h12m5-4-5 4 5 3m-22-7 5 4-5 3" fill="none" stroke="#000" stroke-opacity=".251"/><g transform="translate(0 3000)"><rect x="109" y="-6044" width="1" height="17" ry="0" fill-opacity=".502"/><path fill="#fff" fill-opacity=".251" d="M110-6044h1v17h-1z"/><path fill-opacity=".502" d="M109-6043h1v1h-1z"/><path fill-opacity=".502" d="M109-6041h1v1h-1z"/><path fill-opacity=".502" d="M109-6039h1v1h-1z"/><path fill-opacity=".502" d="M109-6037h1v1h-1z"/><path fill-opacity=".502" d="M109-6035h1v1h-1z"/><path fill-opacity=".502" d="M109-6033h1v1h-1z"/><path fill-opacity=".502" d="M109-6031h1v1h-1z"/><path fill-opacity=".502" d="M109-6029h1v1h-1z"/><path fill-opacity=".502" d="M110-6044h1v1h-1z"/><path fill-opacity=".502" d="M110-6042h1v1h-1z"/><path fill-opacity=".502" d="M110-6040h1v1h-1z"/><path fill-opacity=".502" d="M110-6038h1v1h-1z"/><path fill-opacity=".502" d="M110-6036h1v1h-1z"/><path fill-opacity=".502" d="M110-6034h1v1h-1z"/><path fill-opacity=".502" d="M110-6032h1v1h-1z"/><path fill-opacity=".502" d="M110-6030h1v1h-1z"/><path fill-opacity=".502" d="M110-6028h1v1h-1z"/><path fill="#fefefe" fill-opacity=".502" d="M109-6028h1v1h-1z"/><path fill="#fefefe" fill-opacity=".502" d="M110-6029h1v1h-1z"/><path fill="#fefefe" fill-opacity=".502" d="M109-6030h1v1h-1z"/><path fill="#fefefe" fill-opacity=".502" d="M110-6031h1v1h-1z"/><path fill="#fefefe" fill-opacity=".502" d="M109-6032h1v1h-1z"/><path fill="#fefefe" fill-opacity=".502" d="M109-6034h1v1h-1z"/><path fill="#fefefe" fill-opacity=".502" d="M109-6036h1v1h-1z"/><path fill="#fefefe" fill-opacity=".502" d="M109-6038h1v1h-1z"/><path fill="#fefefe" fill-opacity=".502" d="M109-6040h1v1h-1z"/><path fill="#fefefe" fill-opacity=".502" d="M109-6042h1v1h-1z"/><path fill="#fefefe" fill-opacity=".502" d="M109-6044h1v1h-1z"/><path fill="#fefefe" fill-opacity=".502" d="M110-6043h1v1h-1z"/><path fill="#fefefe" fill-opacity=".502" d="M110-6041h1v1h-1z"/><path fill="#fefefe" fill-opacity=".502" d="M110-6039h1v1h-1z"/><path fill="#fefefe" fill-opacity=".502" d="M110-6037h1v1h-1z"/><path fill="#fefefe" fill-opacity=".502" d="M110-6035h1v1h-1z"/><path fill="#fefefe" fill-opacity=".502" d="M110-6033h1v1h-1z"/><path d="M109.5-6041.5c-.277 0-.5.223-.5.5v4c0 .277.223.5.5.5h1c.277 0 .5-.223.5-.5v-4c0-.277-.223-.5-.5-.5zm0 3.5h1v1h-1z" fill="url(#a)"/><rect x="108" y="-6043.5" width="4" height="4.5" rx="1" ry="1" fill="#3d3846"/><rect x="108" y="-6044" width="4" height="4.5" rx="1" ry="1" fill="#5e5c64"/><path d="M109.5-6042.5c-.277 0-.5.223-.5.5v4.5c0 .277.223.5.5.5h1c.277 0 .5-.223.5-.5v-4.5c0-.277-.223-.5-.5-.5zm0 4h1v1h-1z" fill="#fff"/><rect transform="scale(1 -1)" x="109.5" y="6041" width="1" height="2.5" rx=".5" ry=".5" fill="#68676b" style="paint-order:normal"/><rect transform="scale(1 -1)" x="109.5" y="6041.5" width="1" height="2" rx=".5" ry=".5" fill="#949390" style="paint-order:normal"/></g><g fill="#635749"><path d="m119-3039-3 6h-1l3-6z"/><path d="m115-3039 3 6h1l-3-6z"/><path d="M120-3038h3l-3 4v1h4v-1h-3l3-4v-1h-4z"/></g></g></svg>