<svg version="1.0" viewBox="0 0 32 32" xmlns="http://www.w3.org/2000/svg"><defs><linearGradient id="a" x1="60" x2="68" y1="268" y2="268" gradientTransform="matrix(.25 0 0 .25 94 -5506)" gradientUnits="userSpaceOnUse"><stop stop-color="#949390" offset="0"/><stop stop-color="#d5d3cf" offset=".083"/><stop stop-color="#949390" offset=".167"/><stop stop-color="#949390" offset=".833"/><stop stop-color="#d5d3cf" offset=".917"/><stop stop-color="#949390" offset="1"/></linearGradient></defs><g transform="translate(-100 2448)"><rect x="103" y="-2445" width="26" height="26" ry="2" fill="#a19282"/><rect x="104" y="-2444" width="24" height="17" ry="1.5" fill="#d7c3ad"/><path d="M110-2422.5h12m5-4-5 4 5 3m-22-7 5 4-5 3" fill="none" stroke="#000" stroke-opacity=".251"/><g transform="translate(0 3000)"><rect x="109" y="-5444" width="1" height="17" ry="0" fill-opacity=".502"/><path fill="#fff" fill-opacity=".251" d="M110-5444h1v17h-1z"/><path fill-opacity=".502" d="M109-5443h1v1h-1z"/><path fill-opacity=".502" d="M109-5441h1v1h-1z"/><path fill-opacity=".502" d="M109-5439h1v1h-1z"/><path fill-opacity=".502" d="M109-5437h1v1h-1z"/><path fill-opacity=".502" d="M109-5435h1v1h-1z"/><path fill-opacity=".502" d="M109-5433h1v1h-1z"/><path fill-opacity=".502" d="M109-5431h1v1h-1z"/><path fill-opacity=".502" d="M109-5429h1v1h-1z"/><path fill-opacity=".502" d="M110-5444h1v1h-1z"/><path fill-opacity=".502" d="M110-5442h1v1h-1z"/><path fill-opacity=".502" d="M110-5440h1v1h-1z"/><path fill-opacity=".502" d="M110-5438h1v1h-1z"/><path fill-opacity=".502" d="M110-5436h1v1h-1z"/><path fill-opacity=".502" d="M110-5434h1v1h-1z"/><path fill-opacity=".502" d="M110-5432h1v1h-1z"/><path fill-opacity=".502" d="M110-5430h1v1h-1z"/><path fill-opacity=".502" d="M110-5428h1v1h-1z"/><path fill="#fefefe" fill-opacity=".502" d="M109-5428h1v1h-1z"/><path fill="#fefefe" fill-opacity=".502" d="M110-5429h1v1h-1z"/><path fill="#fefefe" fill-opacity=".502" d="M109-5430h1v1h-1z"/><path fill="#fefefe" fill-opacity=".502" d="M110-5431h1v1h-1z"/><path fill="#fefefe" fill-opacity=".502" d="M109-5432h1v1h-1z"/><path fill="#fefefe" fill-opacity=".502" d="M109-5434h1v1h-1z"/><path fill="#fefefe" fill-opacity=".502" d="M109-5436h1v1h-1z"/><path fill="#fefefe" fill-opacity=".502" d="M109-5438h1v1h-1z"/><path fill="#fefefe" fill-opacity=".502" d="M109-5440h1v1h-1z"/><path fill="#fefefe" fill-opacity=".502" d="M109-5442h1v1h-1z"/><path fill="#fefefe" fill-opacity=".502" d="M109-5444h1v1h-1z"/><path fill="#fefefe" fill-opacity=".502" d="M110-5443h1v1h-1z"/><path fill="#fefefe" fill-opacity=".502" d="M110-5441h1v1h-1z"/><path fill="#fefefe" fill-opacity=".502" d="M110-5439h1v1h-1z"/><path fill="#fefefe" fill-opacity=".502" d="M110-5437h1v1h-1z"/><path fill="#fefefe" fill-opacity=".502" d="M110-5435h1v1h-1z"/><path fill="#fefefe" fill-opacity=".502" d="M110-5433h1v1h-1z"/><path d="M109.5-5441.5c-.277 0-.5.223-.5.5v4c0 .277.223.5.5.5h1c.277 0 .5-.223.5-.5v-4c0-.277-.223-.5-.5-.5zm0 3.5h1v1h-1z" fill="url(#a)"/><rect x="108" y="-5443.5" width="4" height="4.5" rx="1" ry="1" fill="#3d3846"/><rect x="108" y="-5444" width="4" height="4.5" rx="1" ry="1" fill="#5e5c64"/><path d="M109.5-5442.5c-.277 0-.5.223-.5.5v4.5c0 .277.223.5.5.5h1c.277 0 .5-.223.5-.5v-4.5c0-.277-.223-.5-.5-.5zm0 4h1v1h-1z" fill="#fff"/><rect transform="scale(1 -1)" x="109.5" y="5441" width="1" height="2.5" rx=".5" ry=".5" fill="#68676b" style="paint-order:normal"/><rect transform="scale(1 -1)" x="109.5" y="5441.5" width="1" height="2" rx=".5" ry=".5" fill="#949390" style="paint-order:normal"/></g><g fill="#635749"><path d="M112-2432h1v-2h2v2h1v-4a2 2 0 0 0-2-2 2 2 0 0 0-2 2zm1-3v-1a1 1 0 0 1 1-1 1 1 0 0 1 1 1v1z"/><path d="M124-2438c-1.108 0-2 .892-2 2v2c0 1.108.892 2 2 2s2-.892 2-2h-1c0 .554-.446 1-1 1s-1-.446-1-1v-2c0-.554.446-1 1-1s1 .446 1 1h1c0-1.108-.892-2-2-2z"/><path d="M117-2432h1v-2h1l1 2h1l-.926-2.314A2 2 0 0 0 121-2436a2 2 0 0 0-2-2h-2v2zm1-3v-2h1a1 1 0 0 1 1 1 1 1 0 0 1-1 1z"/></g></g></svg>