<svg version="1.0" viewBox="0 0 32 32" xmlns="http://www.w3.org/2000/svg"><defs><linearGradient id="a" x1="60" x2="68" y1="268" y2="268" gradientUnits="userSpaceOnUse"><stop stop-color="#949390" offset="0"/><stop stop-color="#d5d3cf" offset=".083"/><stop stop-color="#949390" offset=".167"/><stop stop-color="#949390" offset=".833"/><stop stop-color="#d5d3cf" offset=".917"/><stop stop-color="#949390" offset="1"/></linearGradient></defs><g transform="translate(-100 1248)"><rect x="103" y="-1245" width="26" height="26" ry="2" fill="#a19282"/><rect x="104" y="-1244" width="24" height="17" ry="1.5" fill="#d7c3ad"/><path d="M110-1222.5h12m5-4-5 4 5 3m-22-7 5 4-5 3" fill="none" stroke="#000" stroke-opacity=".251"/><g transform="translate(-6 -1200)"><rect x="115" y="-44" width="1" height="17" ry="0" fill-opacity=".502"/><path fill="#fff" fill-opacity=".251" d="M116-44h1v17h-1z"/><path fill-opacity=".502" d="M115-43h1v1h-1z"/><path fill-opacity=".502" d="M115-41h1v1h-1z"/><path fill-opacity=".502" d="M115-39h1v1h-1z"/><path fill-opacity=".502" d="M115-37h1v1h-1z"/><path fill-opacity=".502" d="M115-35h1v1h-1z"/><path fill-opacity=".502" d="M115-33h1v1h-1z"/><path fill-opacity=".502" d="M115-31h1v1h-1z"/><path fill-opacity=".502" d="M115-29h1v1h-1z"/><path fill-opacity=".502" d="M116-44h1v1h-1z"/><path fill-opacity=".502" d="M116-42h1v1h-1z"/><path fill-opacity=".502" d="M116-40h1v1h-1z"/><path fill-opacity=".502" d="M116-38h1v1h-1z"/><path fill-opacity=".502" d="M116-36h1v1h-1z"/><path fill-opacity=".502" d="M116-34h1v1h-1z"/><path fill-opacity=".502" d="M116-32h1v1h-1z"/><path fill-opacity=".502" d="M116-30h1v1h-1z"/><path fill-opacity=".502" d="M116-28h1v1h-1z"/><path fill="#fefefe" fill-opacity=".502" d="M115-28h1v1h-1z"/><path fill="#fefefe" fill-opacity=".502" d="M116-29h1v1h-1z"/><path fill="#fefefe" fill-opacity=".502" d="M115-30h1v1h-1z"/><path fill="#fefefe" fill-opacity=".502" d="M116-31h1v1h-1z"/><path fill="#fefefe" fill-opacity=".502" d="M115-32h1v1h-1z"/><path fill="#fefefe" fill-opacity=".502" d="M115-34h1v1h-1z"/><path fill="#fefefe" fill-opacity=".502" d="M115-36h1v1h-1z"/><path fill="#fefefe" fill-opacity=".502" d="M115-38h1v1h-1z"/><path fill="#fefefe" fill-opacity=".502" d="M115-40h1v1h-1z"/><path fill="#fefefe" fill-opacity=".502" d="M115-42h1v1h-1z"/><path fill="#fefefe" fill-opacity=".502" d="M115-44h1v1h-1z"/><path fill="#fefefe" fill-opacity=".502" d="M116-43h1v1h-1z"/><path fill="#fefefe" fill-opacity=".502" d="M116-41h1v1h-1z"/><path fill="#fefefe" fill-opacity=".502" d="M116-39h1v1h-1z"/><path fill="#fefefe" fill-opacity=".502" d="M116-37h1v1h-1z"/><path fill="#fefefe" fill-opacity=".502" d="M116-35h1v1h-1z"/><path fill="#fefefe" fill-opacity=".502" d="M116-33h1v1h-1z"/></g><g transform="matrix(.25 0 0 .25 94 -1306)"><path d="M62 258c-1.108 0-2 .892-2 2v16c0 1.108.892 2 2 2h4c1.108 0 2-.892 2-2v-16c0-1.108-.892-2-2-2zm0 14h4v4h-4z" fill="url(#a)"/><rect x="56" y="250" width="16" height="18" rx="4" ry="4" fill="#3d3846"/><rect x="56" y="248" width="16" height="18" rx="4" ry="4" fill="#5e5c64"/><path d="M62 254c-1.108 0-2 .892-2 2v18c0 1.108.892 2 2 2h4c1.108 0 2-.892 2-2v-18c0-1.108-.892-2-2-2zm0 16h4v4h-4z" fill="#fff"/><rect transform="scale(1 -1)" x="62" y="-260" width="4" height="10" rx="2" ry="2" fill="#68676b" style="paint-order:normal"/><rect transform="scale(1 -1)" x="62" y="-258" width="4" height="8" rx="2" ry="2" fill="#949390" style="paint-order:normal"/></g><path d="M120-1238h3l-3 4v1h4v-1h-3l3-4v-1h-4z" fill="#635749"/><path d="M115-1239h2a1.5 1.5 0 0 1 1.197 2.4A2 2 0 0 1 117-1233h-2v-2zm1 1v1h1a.5.5 0 0 0 0-1zm0 2v2h1a1 1 0 1 0 0-2z" fill="#635749"/></g></svg>