<svg version="1.0" viewBox="0 0 32 32" xmlns="http://www.w3.org/2000/svg"><defs><linearGradient id="a" x1="60" x2="68" y1="268" y2="268" gradientTransform="matrix(.25 0 0 .25 94 -5806)" gradientUnits="userSpaceOnUse"><stop stop-color="#949390" offset="0"/><stop stop-color="#d5d3cf" offset=".083"/><stop stop-color="#949390" offset=".167"/><stop stop-color="#949390" offset=".833"/><stop stop-color="#d5d3cf" offset=".917"/><stop stop-color="#949390" offset="1"/></linearGradient></defs><g transform="translate(-100 2748)"><rect x="103" y="-2745" width="26" height="26" ry="2" fill="#a19282"/><rect x="104" y="-2744" width="24" height="17" ry="1.5" fill="#d7c3ad"/><path d="M110-2722.5h12m5-4-5 4 5 3m-22-7 5 4-5 3" fill="none" stroke="#000" stroke-opacity=".251"/><g transform="translate(0 3000)"><rect x="109" y="-5744" width="1" height="17" ry="0" fill-opacity=".502"/><path fill="#fff" fill-opacity=".251" d="M110-5744h1v17h-1z"/><path fill-opacity=".502" d="M109-5743h1v1h-1z"/><path fill-opacity=".502" d="M109-5741h1v1h-1z"/><path fill-opacity=".502" d="M109-5739h1v1h-1z"/><path fill-opacity=".502" d="M109-5737h1v1h-1z"/><path fill-opacity=".502" d="M109-5735h1v1h-1z"/><path fill-opacity=".502" d="M109-5733h1v1h-1z"/><path fill-opacity=".502" d="M109-5731h1v1h-1z"/><path fill-opacity=".502" d="M109-5729h1v1h-1z"/><path fill-opacity=".502" d="M110-5744h1v1h-1z"/><path fill-opacity=".502" d="M110-5742h1v1h-1z"/><path fill-opacity=".502" d="M110-5740h1v1h-1z"/><path fill-opacity=".502" d="M110-5738h1v1h-1z"/><path fill-opacity=".502" d="M110-5736h1v1h-1z"/><path fill-opacity=".502" d="M110-5734h1v1h-1z"/><path fill-opacity=".502" d="M110-5732h1v1h-1z"/><path fill-opacity=".502" d="M110-5730h1v1h-1z"/><path fill-opacity=".502" d="M110-5728h1v1h-1z"/><path fill="#fefefe" fill-opacity=".502" d="M109-5728h1v1h-1z"/><path fill="#fefefe" fill-opacity=".502" d="M110-5729h1v1h-1z"/><path fill="#fefefe" fill-opacity=".502" d="M109-5730h1v1h-1z"/><path fill="#fefefe" fill-opacity=".502" d="M110-5731h1v1h-1z"/><path fill="#fefefe" fill-opacity=".502" d="M109-5732h1v1h-1z"/><path fill="#fefefe" fill-opacity=".502" d="M109-5734h1v1h-1z"/><path fill="#fefefe" fill-opacity=".502" d="M109-5736h1v1h-1z"/><path fill="#fefefe" fill-opacity=".502" d="M109-5738h1v1h-1z"/><path fill="#fefefe" fill-opacity=".502" d="M109-5740h1v1h-1z"/><path fill="#fefefe" fill-opacity=".502" d="M109-5742h1v1h-1z"/><path fill="#fefefe" fill-opacity=".502" d="M109-5744h1v1h-1z"/><path fill="#fefefe" fill-opacity=".502" d="M110-5743h1v1h-1z"/><path fill="#fefefe" fill-opacity=".502" d="M110-5741h1v1h-1z"/><path fill="#fefefe" fill-opacity=".502" d="M110-5739h1v1h-1z"/><path fill="#fefefe" fill-opacity=".502" d="M110-5737h1v1h-1z"/><path fill="#fefefe" fill-opacity=".502" d="M110-5735h1v1h-1z"/><path fill="#fefefe" fill-opacity=".502" d="M110-5733h1v1h-1z"/><path d="M109.5-5741.5c-.277 0-.5.223-.5.5v4c0 .277.223.5.5.5h1c.277 0 .5-.223.5-.5v-4c0-.277-.223-.5-.5-.5zm0 3.5h1v1h-1z" fill="url(#a)"/><rect x="108" y="-5743.5" width="4" height="4.5" rx="1" ry="1" fill="#3d3846"/><rect x="108" y="-5744" width="4" height="4.5" rx="1" ry="1" fill="#5e5c64"/><path d="M109.5-5742.5c-.277 0-.5.223-.5.5v4.5c0 .277.223.5.5.5h1c.277 0 .5-.223.5-.5v-4.5c0-.277-.223-.5-.5-.5zm0 4h1v1h-1z" fill="#fff"/><rect transform="scale(1 -1)" x="109.5" y="5741" width="1" height="2.5" rx=".5" ry=".5" fill="#68676b" style="paint-order:normal"/><rect transform="scale(1 -1)" x="109.5" y="5741.5" width="1" height="2" rx=".5" ry=".5" fill="#949390" style="paint-order:normal"/></g><g fill="#635749"><path d="M117-2733h1v-2h2v2h1v-4a2 2 0 0 0-2-2 2 2 0 0 0-2 2zm1-3v-1a1 1 0 0 1 1-1 1 1 0 0 1 1 1v1z"/><path d="M122-2733h1v-2h1l1 2h1l-.926-2.314A2 2 0 0 0 126-2737a2 2 0 0 0-2-2h-2v2zm1-3v-2h1a1 1 0 0 1 1 1 1 1 0 0 1-1 1z"/><path d="m117-2739-3 6h-1l3-6z"/><path d="m113-2739 3 6h1l-3-6z"/></g></g></svg>