<svg version="1.0" viewBox="0 0 32 32" xmlns="http://www.w3.org/2000/svg"><g transform="translate(-100 1848)"><rect x="103" y="-1845" width="26" height="26" ry="2" fill="#a19282"/><rect x="104" y="-1844" width="24" height="17" ry="1.5" fill="#d7c3ad"/><path d="M110-1822.5h12m5-4-5 4 5 3m-22-7 5 4-5 3" fill="none" stroke="#000" stroke-opacity=".251"/><g fill="#635749"><path d="M118-1837a2 2 0 0 0-2-2h-2v6h1v-2h1a2 2 0 0 0 2-2zm-1 0a1 1 0 0 1-1 1h-1v-2h1a1 1 0 0 1 1 1z"/><path d="M109-1833h1v-2h1l1 2h1l-.926-2.314A2 2 0 0 0 113-1837a2 2 0 0 0-2-2h-2v2zm1-3v-2h1a1 1 0 0 1 1 1 1 1 0 0 1-1 1z"/><path d="M119-1833v-6h1l1.5 4 1.5-4h1v6h-1v-3.5l-1 3.5h-1l-1-3.5v3.5z"/></g></g></svg>