<svg version="1.0" viewBox="0 0 32 32" xmlns="http://www.w3.org/2000/svg"><g transform="translate(-100 3348)"><rect x="103" y="-3345" width="26" height="26" ry="2" fill="#a19282"/><rect x="104" y="-3344" width="24" height="17" ry="1.5" fill="#d7c3ad"/><path d="M110-3322.5h12m5-4-5 4 5 3m-22-7 5 4-5 3" fill="none" stroke="#000" stroke-opacity=".251"/><g fill="#635749"><path d="M113-3333h1v-2h2v2h1v-4a2 2 0 0 0-2-2 2 2 0 0 0-2 2zm1-3v-1a1 1 0 0 1 1-1 1 1 0 0 1 1 1v1z"/><path d="M118-3333h1v-2h1l1 2h1l-.926-2.314A2 2 0 0 0 122-3337a2 2 0 0 0-2-2h-2v2zm1-3v-2h1a1 1 0 0 1 1 1 1 1 0 0 1-1 1z"/><path d="M110-3339v1h1v5h1v-5h1v-1z"/></g></g></svg>