<svg version="1.0" viewBox="0 0 32 32" xmlns="http://www.w3.org/2000/svg"><g transform="translate(-100 2148)"><rect x="103" y="-2145" width="26" height="26" ry="2" fill="#a19282"/><rect x="104" y="-2144" width="24" height="17" ry="1.5" fill="#d7c3ad"/><path d="M110-2122.5h12m5-4-5 4 5 3m-22-7 5 4-5 3" fill="none" stroke="#000" stroke-opacity=".251"/><g fill="#635749"><path d="M109-2133h1v-2h2v2h1v-4a2 2 0 0 0-2-2 2 2 0 0 0-2 2zm1-3v-1a1 1 0 0 1 1-1 1 1 0 0 1 1 1v1z"/><path d="M118-2137a2 2 0 0 0-2-2h-2v6h1v-2h1a2 2 0 0 0 2-2zm-1 0a1 1 0 0 1-1 1h-1v-2h1a1 1 0 0 1 1 1z"/><path d="M119-2139v6h1v-3l.082-.082L122-2133h1l-2.305-3.695L123-2139h-1.11l-1.89 1.89v-1.89z"/></g></g></svg>