<svg version="1.0" viewBox="0 0 32 32" xmlns="http://www.w3.org/2000/svg"><path d="M28 9.5v20c0 1.385-1.115 2.5-2.5 2.5h-19A2.495 2.495 0 0 1 4 29.5v-26C4 2.115 5.115 1 6.5 1h13" fill="#6f6f6f"/><path d="M27 10v18c0 1.108-.892 2-2 2H7c-1.108 0-2-.892-2-2V4c0-1.108.892-2 2-2h12" fill="#ececec"/><path d="M27 12h-7c-1.108 0-2-.892-2-2V2h1l8 8z" fill="#6f6f6f" fill-opacity=".502"/><path d="M27 10h-6c-1.108 0-2-.892-2-2V2" fill="#fafafa"/><path d="M12 4a1 1 0 0 0-1 1v3.094A1.458 1.458 0 0 0 10.5 8 1.5 1.5 0 1 0 12 9.5V6h3v2.094A1.458 1.458 0 0 0 14.5 8 1.5 1.5 0 1 0 16 9.5V5a1 1 0 0 0-1-1z" fill="#474341" fill-opacity=".69"/><path fill="#474341" fill-opacity=".69" d="M12 16h11v2H12z"/><path fill="#474341" fill-opacity=".69" d="M12 20h11v2H12z"/><path fill="#474341" fill-opacity=".69" d="M12 24h11v2H12z"/><path fill="#474341" fill-opacity=".69" d="M8 16h2v2H8z"/><path fill="#474341" fill-opacity=".69" d="M8 20h2v2H8z"/><path fill="#474341" fill-opacity=".69" d="M8 24h2v2H8z"/></svg>