<svg version="1.0" viewBox="0 0 32 32" xmlns="http://www.w3.org/2000/svg"><path d="M28 9.5v20c0 1.385-1.115 2.5-2.5 2.5h-19A2.495 2.495 0 0 1 4 29.5v-26C4 2.115 5.115 1 6.5 1h13" fill="#6f6f6f"/><path d="M27 10v18c0 1.108-.892 2-2 2H7c-1.108 0-2-.892-2-2V4c0-1.108.892-2 2-2h12" fill="#ececec"/><path d="M27 12h-7c-1.108 0-2-.892-2-2V2h1l8 8z" fill="#6f6f6f" fill-opacity=".502"/><path d="M27 10h-6c-1.108 0-2-.892-2-2V2" fill="#fafafa"/><path d="M18.18 22.8s.576.174.91.343c.116.059.317.176.461.33.142.15.211.303.211.303l2.097 3.259h-4.89l-.947-2.471s-.35-.603-.567-.778c-.18-.146-.257-.198-.435-.198h-.87v3.445h-4.001v-11h6.43c.75 0 4.557.368 4.557 3.191s-2.956 3.574-2.956 3.574zm-4.03-4.765v2.999h1.585s1.203 0 1.295-1.467c.095-1.532-1.296-1.53-1.296-1.53z" fill="#3f51b5" fill-rule="evenodd"/></svg>