<svg version="1.0" viewBox="0 0 32 32" xmlns="http://www.w3.org/2000/svg"><path d="M28 9.5v20c0 1.385-1.115 2.5-2.5 2.5h-19A2.495 2.495 0 0 1 4 29.5v-26C4 2.115 5.115 1 6.5 1h13" fill="#6f6f6f"/><path d="M27 10v18c0 1.108-.892 2-2 2H7c-1.108 0-2-.892-2-2V4c0-1.108.892-2 2-2h12" fill="#ececec"/><path d="M27 12h-7c-1.108 0-2-.892-2-2V2h1l8 8z" fill="#6f6f6f" fill-opacity=".502"/><path d="M27 10h-6c-1.108 0-2-.892-2-2V2" fill="#fafafa"/><path d="m9.828 13.953 1.123 12.601 5.041 1.4 5.056-1.402 1.124-12.598zm2.297 2.576h7.74l-.036.415-.07.783-.031.348h-5.914l.141 1.582h5.632l-.038.415-.363 4.069-.023.26-3.163.877-.007.002-3.166-.879-.216-2.426h1.551l.11 1.232 1.721.465h.002l1.723-.466.18-2.004h-5.356l-.38-4.259-.037-.414z" fill="#e44d26"/><path d="m9.828 13.953 1.123 12.601 5.041 1.4.008-.002v-2.673l-.007.001-3.166-.878-.216-2.427h1.551l.11 1.233 1.721.464h.002L16 23.67v-2.468h-3.458l-.38-4.259-.037-.414H16v-2.575H9.828zm3.986 4.122.141 1.582H16v-1.582h-.005z" opacity=".1"/></svg>