<svg version="1.0" viewBox="0 0 32 32" xmlns="http://www.w3.org/2000/svg"><g transform="translate(-100 648)"><path d="M128-638.5v20c0 1.385-1.115 2.5-2.5 2.5h-19a2.495 2.495 0 0 1-2.5-2.5v-26c0-1.385 1.115-2.5 2.5-2.5h13" fill="#6f6f6f"/><path d="M127-638v18c0 1.108-.892 2-2 2h-18c-1.108 0-2-.892-2-2v-24c0-1.108.892-2 2-2h12" fill="#ececec"/><path d="M127-636h-7c-1.108 0-2-.892-2-2v-8h1l8 8z" fill="#6f6f6f" fill-opacity=".502"/><path d="M127-638h-6c-1.108 0-2-.892-2-2v-6" fill="#fafafa"/><path d="M114.33-634c-1.293 0-2.333.892-2.333 2v1h-1c-1.108 0-2 1.04-2 2.333v3.334c0 1.293.892 2.333 2 2.333h9v-9c0-1.108-1.04-2-2.333-2z" fill="#3776ab"/><path d="M117.67-620c1.293 0 2.333-.892 2.333-2v-1h1c1.108 0 2-1.04 2-2.333v-3.334c0-1.293-.892-2.333-2-2.333h-1v2c0 2-2 2-2 2h-4c-2 0-2 2-2 2v3c0 1.108 1.04 2 2.333 2z" fill="#ffd343"/><circle cx="113.5" cy="-632.5" r=".5" fill="#fff"/><circle cx="118.5" cy="-621.5" r=".5" fill="#fff"/></g></svg>