<svg version="1.0" viewBox="0 0 32 32" xmlns="http://www.w3.org/2000/svg"><path d="M28 9.5v20c0 1.385-1.115 2.5-2.5 2.5h-19A2.495 2.495 0 0 1 4 29.5v-26C4 2.115 5.115 1 6.5 1h13" fill="#6f6f6f"/><path d="M27 10v18c0 1.108-.892 2-2 2H7c-1.108 0-2-.892-2-2V4c0-1.108.892-2 2-2h12" fill="#ececec"/><path d="M27 12h-7c-1.108 0-2-.892-2-2V2h1l8 8z" fill="#6f6f6f" fill-opacity=".502"/><path d="M27 10h-6c-1.108 0-2-.892-2-2V2" fill="#fafafa"/><path d="M21.69 23.2q-.065 1.422-.767 2.516-.701 1.085-1.973 1.683-1.263.599-2.89.599-2.684 0-4.227-1.749-1.543-1.75-1.543-4.938v-.673q0-2.002.692-3.498.701-1.506 2.01-2.32 1.31-.822 3.03-.822 2.479 0 3.985 1.31 1.505 1.299 1.711 3.59h-3.273q-.038-1.243-.627-1.786-.589-.542-1.795-.542-1.225 0-1.796.916-.57.917-.598 2.927v.964q0 2.179.542 3.114.552.935 1.889.935 1.132 0 1.73-.533.599-.533.636-1.693z" fill="#3f51b5"/></svg>