<svg version="1.0" viewBox="0 0 32 32" xmlns="http://www.w3.org/2000/svg"><path d="M28 9.5v20c0 1.385-1.115 2.5-2.5 2.5h-19A2.495 2.495 0 0 1 4 29.5v-26C4 2.115 5.115 1 6.5 1h13" fill="#6f6f6f"/><path d="M27 10v18c0 1.108-.892 2-2 2H7c-1.108 0-2-.892-2-2V4c0-1.108.892-2 2-2h12" fill="#ececec"/><path d="M27 12h-7c-1.108 0-2-.892-2-2V2h1l8 8z" fill="#6f6f6f" fill-opacity=".502"/><path d="M27 10h-6c-1.108 0-2-.892-2-2V2" fill="#fafafa"/><g transform="translate(-96 6708)"><path fill="#64b5f6" d="M106-6687h12v9h-12z"/><circle cx="107.5" cy="-6690.5" r="2.5" fill="#1e88e5"/><circle cx="116.5" cy="-6690.5" r="2.5" fill="#1e88e5"/><circle cx="112" cy="-6687" r="6" fill="#64b5f6"/><path fill="#fff" d="M111-6685h1v2h-1z"/><path fill="#f2f2f2" d="M112-6685h1v2h-1z"/><path d="M111-6686a1 1 0 1 0 0 2c.51 0 .993-.444.993-.444h.014s.484.443.993.444a1 1 0 1 0 0-2z" fill="#1e88e5"/><ellipse cx="112" cy="-6685.5" rx="1.125" ry=".75" fill="#3e2723"/><g transform="translate(77 -6260.2) scale(.0625)"><circle cx="512" cy="-6844" r="32" fill="#fefefe"/><circle transform="scale(-1 1)" cx="-505.14" cy="-6850.9" r="11.429" fill="#333"/></g><g transform="translate(83 -6260.2) scale(.0625)"><circle cx="512" cy="-6844" r="32" fill="#fefefe"/><circle transform="scale(-1 1)" cx="-505.14" cy="-6850.9" r="11.429" fill="#333"/></g></g></svg>