<svg version="1.0" viewBox="0 0 32 32" xmlns="http://www.w3.org/2000/svg"><path d="M28 9.5v20c0 1.385-1.115 2.5-2.5 2.5h-19A2.495 2.495 0 0 1 4 29.5v-26C4 2.115 5.115 1 6.5 1h13" fill="#6f6f6f"/><path d="M27 10v18c0 1.108-.892 2-2 2H7c-1.108 0-2-.892-2-2V4c0-1.108.892-2 2-2h12" fill="#ececec"/><path d="M27 12h-7c-1.108 0-2-.892-2-2V2h1l8 8z" fill="#6f6f6f" fill-opacity=".502"/><path d="M27 10h-6c-1.108 0-2-.892-2-2V2" fill="#fafafa"/><path d="M11.5 16 9 19h3.5zm1.166 0L13 18l1.666-2zM16 16l-2.5 3h5zm1.334 0L19 18l.334-2zm3.166 0-1 3H23zM9 20l6.5 7-3-7zm4.5 0 2.5 6 2.5-6zm6 0-3 7 6.5-7z" fill="#f44336" fill-rule="evenodd"/></svg>