<svg version="1.0" viewBox="0 0 32 32" xmlns="http://www.w3.org/2000/svg"><path d="M28 9.5v20c0 1.385-1.115 2.5-2.5 2.5h-19A2.495 2.495 0 0 1 4 29.5v-26C4 2.115 5.115 1 6.5 1h13" fill="#6f6f6f"/><path d="M27 10v18c0 1.108-.892 2-2 2H7c-1.108 0-2-.892-2-2V4c0-1.108.892-2 2-2h12" fill="#ececec"/><path d="M27 12h-7c-1.108 0-2-.892-2-2V2h1l8 8z" fill="#6f6f6f" fill-opacity=".502"/><path d="M27 10h-6c-1.108 0-2-.892-2-2V2" fill="#fafafa"/><g fill="#1976d2"><path d="M16 15a.169.169 0 0 0-.146.076l-.313.506-.146.014-.405-.434c-.082-.088-.249-.054-.29.06l-.208.552-.142.043-.48-.346c-.098-.07-.253-.01-.272.113l-.096.584-.13.07-.54-.246c-.11-.05-.25.044-.246.164l.021.594-.113.094-.578-.136c-.117-.027-.236.092-.209.209l.137.578-.094.113-.594-.021c-.12-.01-.214.136-.164.246l.246.54-.07.13-.584.096c-.119.019-.183.174-.113.271l.346.481-.043.142-.555.208c-.113.042-.145.208-.057.29l.434.403-.016.148-.504.313c-.102.063-.102.232 0 .295l.504.31.016.149-.434.404c-.088.082-.056.247.057.29l.555.206.043.143-.346.48c-.07.098-.005.254.113.274l.584.094.07.13-.246.54c-.05.11.045.25.164.246l.594-.021.094.113-.137.578c-.027.117.092.237.209.209l.578-.137.113.094-.021.592c-.005.12.137.214.246.164l.54-.244.13.068.096.584c.019.119.174.183.271.113l.48-.345.143.043.207.554c.042.113.207.145.29.057l.404-.433.148.016.313.503c.062.102.231.102.294 0l.311-.503.148-.016.405.433c.082.088.247.055.289-.057l.207-.554.142-.043.48.345c.098.07.253.01.272-.113l.096-.584.13-.068.54.244c.11.05.25-.043.246-.164l-.021-.592.113-.094.578.137c.117.027.236-.092.209-.209l-.137-.578.094-.113.594.02c.12.01.214-.136.164-.246l-.246-.539.07-.13.584-.094c.119-.02.184-.176.113-.274l-.346-.48.043-.143.555-.207c.113-.042.145-.207.057-.289l-.434-.404.016-.149.504-.31c.102-.063.102-.232 0-.295l-.504-.313-.016-.148.434-.402c.088-.082.056-.25-.057-.291l-.555-.208-.043-.142.346-.48c.07-.098.006-.253-.113-.272l-.584-.096-.07-.13.246-.54c.05-.11-.044-.25-.164-.246l-.594.021-.094-.113.137-.578c.027-.118-.092-.237-.21-.21l-.575.137-.115-.094.021-.594c.005-.12-.137-.213-.246-.164l-.54.246-.13-.07-.094-.584c-.019-.118-.176-.183-.273-.113l-.48.346-.143-.043-.207-.553c-.042-.113-.207-.146-.29-.059l-.404.434-.146-.014-.313-.506A.172.172 0 0 0 16 15zm0 1.998a4 4 0 0 1 4 4 4 4 0 0 1-4 4 4 4 0 0 1-4-4 4 4 0 0 1 4-4z"/><path d="M12 18v1h1v4h-1v1h4v-1h-1v-2c1 0 1 3 2 3h2c1 0 1-3 1-3h-1s0 2-1 2c-.471 0-1-2-1-2h.5c.831 0 1.5-.669 1.5-1.5s-.669-1.5-1.5-1.5H16zm3 1h2a.499.499 0 1 1 0 1h-2z"/></g></svg>