<svg version="1.0" viewBox="0 0 32 32" xmlns="http://www.w3.org/2000/svg"><g transform="translate(-100 348)"><path d="M128-338.5v20c0 1.385-1.115 2.5-2.5 2.5h-19a2.495 2.495 0 0 1-2.5-2.5v-26c0-1.385 1.115-2.5 2.5-2.5h13" fill="#6f6f6f"/><path d="M127-338v18c0 1.108-.892 2-2 2h-18c-1.108 0-2-.892-2-2v-24c0-1.108.892-2 2-2h12" fill="#ececec"/><path d="M127-336h-7c-1.108 0-2-.892-2-2v-8h1l8 8z" fill="#6f6f6f" fill-opacity=".502"/><path d="M127-338h-6c-1.108 0-2-.892-2-2v-6" fill="#fafafa"/><rect x="109" y="-323" width="9" height="1" ry=".456" fill="#474341" fill-opacity=".69"/><rect x="109" y="-326" width="14" height="1" ry=".456" fill="#474341" fill-opacity=".69"/><rect x="109" y="-329" width="14" height="1" ry=".456" fill="#474341" fill-opacity=".69"/><rect x="109" y="-332" width="14" height="1" ry=".456" fill="#474341" fill-opacity=".69"/></g></svg>