<svg version="1.0" viewBox="0 0 32 32" xmlns="http://www.w3.org/2000/svg"><path d="M28 9.5v20c0 1.385-1.115 2.5-2.5 2.5h-19A2.495 2.495 0 0 1 4 29.5v-26C4 2.115 5.115 1 6.5 1h13" fill="#6f6f6f"/><path d="M27 10v18c0 1.108-.892 2-2 2H7c-1.108 0-2-.892-2-2V4c0-1.108.892-2 2-2h12" fill="#ececec"/><path d="M27 12h-7c-1.108 0-2-.892-2-2V2h1l8 8z" fill="#6f6f6f" fill-opacity=".502"/><path d="M27 10h-6c-1.108 0-2-.892-2-2V2" fill="#fafafa"/><g clip-rule="evenodd" fill="#dd4f37" fill-rule="evenodd"><path d="M13.9 24.374s-.61.356.436.476c1.268.145 1.916.124 3.313-.14 0 0 .368.23.88.43-3.131 1.341-7.088-.078-4.628-.766z"/><path d="M13.518 22.623s-.686.507.362.616c1.354.14 2.423.15 4.275-.205 0 0 .255.259.658.4-3.787 1.108-8.004.088-5.295-.811z"/><path d="M16.744 19.65c.772.89-.202 1.69-.202 1.69s1.96-1.012 1.06-2.28c-.841-1.18-1.486-1.767 2.004-3.791 0 0-5.478 1.368-2.862 4.382z"/><path d="M20.887 25.67s.452.373-.498.661c-1.808.548-7.525.713-9.113.022-.57-.248.5-.593.837-.665.35-.076.551-.062.551-.062-.635-.447-4.103.878-1.762 1.258 6.386 1.035 11.641-.467 9.985-1.214z"/><path d="M14.195 20.808s-2.908.69-1.03.942c.793.106 2.374.081 3.847-.042 1.203-.101 2.411-.317 2.411-.317s-.424.182-.73.391c-2.954.777-8.659.415-7.016-.379 1.388-.672 2.518-.595 2.518-.595z"/><path d="M19.411 23.723c3.002-1.56 1.614-3.058.645-2.856-.237.049-.343.092-.343.092s.088-.138.257-.198c1.916-.673 3.39 1.987-.619 3.041 0 0 .047-.042.06-.079z"/><path d="M17.602 12s1.662 1.664-1.577 4.22c-2.598 2.052-.593 3.222-.001 4.559-1.517-1.368-2.629-2.573-1.883-3.694 1.096-1.645 4.131-2.442 3.46-5.084z"/><path d="M14.49 27.95c2.88.185 7.306-.102 7.41-1.465 0 0-.2.517-2.38.927-2.46.463-5.493.409-7.292.112 0 0 .368.305 2.262.427z"/></g></svg>