<svg version="1.0" viewBox="0 0 32 32" xmlns="http://www.w3.org/2000/svg"><path d="M28 9.5v20c0 1.385-1.115 2.5-2.5 2.5h-19A2.495 2.495 0 0 1 4 29.5v-26C4 2.115 5.115 1 6.5 1h13" fill="#6f6f6f"/><path d="M27 10v18c0 1.108-.892 2-2 2H7c-1.108 0-2-.892-2-2V4c0-1.108.892-2 2-2h12" fill="#ececec"/><path d="M27 12h-7c-1.108 0-2-.892-2-2V2h1l8 8z" fill="#6f6f6f" fill-opacity=".502"/><path d="M27 10h-6c-1.108 0-2-.892-2-2V2" fill="#fafafa"/><path d="M111-3930c-.545 0-1 .455-1 1v6c0 .545.455 1 1 1h10c.545 0 1-.455 1-1v-6c0-.545-.455-1-1-1zm0 1h10v6h-10zm1 1v4h1v-2.188l1 1.563 1-1.563v2.188h1v-4h-1l-1 1.563-1-1.563zm6 0v2h-1l1 2h1l1-2h-1v-2z" color="#000" fill="#455a64" style="isolation:auto;mix-blend-mode:normal;text-decoration-color:#000;text-decoration-line:none;text-decoration-style:solid;text-indent:0;text-transform:none;white-space:normal" transform="translate(-100 3948)"/></svg>