<svg version="1.0" viewBox="0 0 32 32" xmlns="http://www.w3.org/2000/svg"><g transform="translate(-100 48)"><path d="M128-38.5v20c0 1.385-1.115 2.5-2.5 2.5h-19a2.495 2.495 0 0 1-2.5-2.5v-26c0-1.385 1.115-2.5 2.5-2.5h13" fill="#6f6f6f"/><path d="M127-38v18c0 1.108-.892 2-2 2h-18c-1.108 0-2-.892-2-2v-24c0-1.108.892-2 2-2h12" fill="#ececec"/><path d="M127-36h-7c-1.108 0-2-.892-2-2v-8h1l8 8z" fill="#6f6f6f" fill-opacity=".502"/><path d="M127-38h-6c-1.108 0-2-.892-2-2v-6" fill="#fafafa"/><path d="m116-32-6-6v2l4 4-4 4v2z" fill="#6f6f6f" fill-opacity=".784"/><rect x="114" y="-28" width="11" height="2" ry="1" fill="#6f6f6f" fill-opacity=".784"/></g></svg>