<svg version="1.0" viewBox="0 0 32 32" xmlns="http://www.w3.org/2000/svg"><path d="M28 9.5v20c0 1.385-1.115 2.5-2.5 2.5h-19A2.495 2.495 0 0 1 4 29.5v-26C4 2.115 5.115 1 6.5 1h13" fill="#6f6f6f"/><path d="M27 10v18c0 1.108-.892 2-2 2H7c-1.108 0-2-.892-2-2V4c0-1.108.892-2 2-2h12" fill="#ececec"/><path d="M27 12h-7c-1.108 0-2-.892-2-2V2h1l8 8z" fill="#6f6f6f" fill-opacity=".502"/><path d="M27 10h-6c-1.108 0-2-.892-2-2V2" fill="#fafafa"/><path d="m9.7 15 3.272 6L9.7 27h2l3.272-6-3.272-6zm3.333 0 3.272 6-3.272 6h2l2.272-4.167L19.578 27h2l-2.473-4.534-.436-.8-.364-.666-3.272-6zm5.515 4 .728 1.333h3.03V19zm1.454 2.667L20.73 23h1.576v-1.333z" fill="#5f5088" fill-rule="evenodd"/></svg>