<svg version="1.0" viewBox="0 0 32 32" xmlns="http://www.w3.org/2000/svg"><path d="M28 9.5v20c0 1.385-1.115 2.5-2.5 2.5h-19A2.495 2.495 0 0 1 4 29.5v-26C4 2.115 5.115 1 6.5 1h13" fill="#7f6728"/><path d="M27 10v18c0 1.108-.892 2-2 2H7c-1.108 0-2-.892-2-2V4c0-1.108.892-2 2-2h12" fill="#ffce51"/><path d="M27 12h-7c-1.108 0-2-.892-2-2V2h1l8 8z" fill="#7f6728" fill-opacity=".502"/><path d="M27 10h-6c-1.108 0-2-.892-2-2V2" fill="#fffa7d"/><g transform="matrix(.5 0 0 .5 -112 339)" fill="#fff"><circle cx="250" cy="-636" r="8"/><path d="M258-650h12v8h-12z"/><path d="M270-638v12h-12z"/></g></svg>