<svg version="1.0" viewBox="0 0 32 32" xmlns="http://www.w3.org/2000/svg"><g transform="translate(-100 948)"><path d="M128-938.5v20c0 1.385-1.115 2.5-2.5 2.5h-19a2.495 2.495 0 0 1-2.5-2.5v-26c0-1.385 1.115-2.5 2.5-2.5h13" fill="#6f4400"/><path d="M127-938v18c0 1.108-.892 2-2 2h-18c-1.108 0-2-.892-2-2v-24c0-1.108.892-2 2-2h12" fill="#de8800"/><path d="M127-936h-7c-1.108 0-2-.892-2-2v-8h1l8 8z" fill="#6f4400" fill-opacity=".502"/><path d="M127-938h-6c-1.108 0-2-.892-2-2v-6" fill="#faa41a"/><rect x="107" y="-934" width="18" height="4" ry="2" fill="#fff"/><rect x="107" y="-929" width="18" height="4" ry="2" fill="#fff"/><rect x="107" y="-924" width="18" height="4" ry="2" fill="#fff"/><g fill="#fff"><rect x="107" y="-934" width="18" height="4" ry="2"/><rect x="107" y="-929" width="18" height="4" ry="2"/><rect x="107" y="-924" width="18" height="4" ry="2"/></g></g></svg>