<svg version="1.0" viewBox="0 0 32 32" xmlns="http://www.w3.org/2000/svg"><g transform="translate(-100 -252)"><path d="M128 261.5v20c0 1.385-1.115 2.5-2.5 2.5h-19a2.495 2.495 0 0 1-2.5-2.5v-26c0-1.385 1.115-2.5 2.5-2.5h13" fill="#1f285a"/><path d="M127 262v18c0 1.108-.892 2-2 2h-18c-1.108 0-2-.892-2-2v-24c0-1.108.892-2 2-2h12" fill="#3f51b5"/><path d="M127 264h-7c-1.108 0-2-.892-2-2v-8h1l8 8z" fill="#1f285a" fill-opacity=".502"/><path d="M127 262h-6c-1.108 0-2-.892-2-2v-6" fill="#6a7ce0"/><rect x="107" y="265" width="18" height="2" ry="0" fill="#fff"/><rect x="107" y="269" width="18" height="2" ry="0" fill="#fff"/><rect x="107" y="273" width="18" height="2" ry="0" fill="#fff"/><rect x="107" y="277" width="11" height="2" ry="0" fill="#fff"/></g></svg>