<svg version="1.0" viewBox="0 0 32 32" xmlns="http://www.w3.org/2000/svg"><path d="M28 9.5v20c0 1.385-1.115 2.5-2.5 2.5h-19A2.495 2.495 0 0 1 4 29.5v-26C4 2.115 5.115 1 6.5 1h13" fill="#245c63"/><path d="M27 10v18c0 1.108-.892 2-2 2H7c-1.108 0-2-.892-2-2V4c0-1.108.892-2 2-2h12" fill="#48b9c7"/><path d="M27 12h-7c-1.108 0-2-.892-2-2V2h1l8 8z" fill="#245c63" fill-opacity=".502"/><path d="M27 10h-6c-1.108 0-2-.892-2-2V2" fill="#67d8e6"/><path d="M116-1833a3 3 0 1 1 0 6 3 3 0 0 1 0-6zm0 8c6 0 6 4.003 6 4.003v1h-12v-1s0-4 6-4.003z" color="#000" fill="#f6f7f8" style="text-decoration-line:none;text-indent:0;text-transform:none" transform="translate(-100 1848)"/></svg>