<svg version="1.0" viewBox="0 0 32 32" xmlns="http://www.w3.org/2000/svg"><g transform="translate(-100 348)"><path d="M128-338.5v20c0 1.385-1.115 2.5-2.5 2.5h-19a2.495 2.495 0 0 1-2.5-2.5v-26c0-1.385 1.115-2.5 2.5-2.5h13" fill="#671d00"/><path d="M127-338v18c0 1.108-.892 2-2 2h-18c-1.108 0-2-.892-2-2v-24c0-1.108.892-2 2-2h12" fill="#cf3b00"/><path d="M127-336h-7c-1.108 0-2-.892-2-2v-8h1l8 8z" fill="#671d00" fill-opacity=".502"/><path d="M127-338h-6c-1.108 0-2-.892-2-2v-6" fill="#f15d22"/><rect x="107" y="-326" width="18" height="2" ry="0" fill="#fff"/><rect x="107" y="-322" width="11" height="2" ry="0" fill="#fff"/><path d="M107-332a4 4 0 0 1 4-4 4 4 0 0 1 4 4 4 4 0 0 1-4 4v-4z" fill="#fffffe"/><rect x="117" y="-335" width="8" height="6" ry="0" fill="#fff"/></g></svg>