<?xml version="1.0" encoding="UTF-8" standalone="no"?>
<!-- Created with Inkscape (http://www.inkscape.org/) -->

<svg
   xmlns:dc="http://purl.org/dc/elements/1.1/"
   xmlns:cc="http://creativecommons.org/ns#"
   xmlns:rdf="http://www.w3.org/1999/02/22-rdf-syntax-ns#"
   xmlns:svg="http://www.w3.org/2000/svg"
   xmlns="http://www.w3.org/2000/svg"
   xmlns:sodipodi="http://sodipodi.sourceforge.net/DTD/sodipodi-0.dtd"
   xmlns:inkscape="http://www.inkscape.org/namespaces/inkscape"
   inkscape:export-ydpi="90.000000"
   inkscape:export-xdpi="90.000000"
   width="736"
   height="544"
   id="svg11300"
   sodipodi:version="0.32"
   inkscape:version="0.92.3 (2405546, 2018-03-11)"
   sodipodi:docname="input-gaming.svg"
   inkscape:output_extension="org.inkscape.output.svg.inkscape"
   version="1.0"
   style="display:inline;enable-background:new"
   inkscape:export-filename="/home/sam/Pop-template.png">
  <title
     id="title3004">Pop Icon Theme</title>
  <sodipodi:namedview
     stroke="#ef2929"
     fill="#f57900"
     id="base"
     pagecolor="#ffffff"
     bordercolor="#666666"
     borderopacity="0.25490196"
     inkscape:pageopacity="0"
     inkscape:pageshadow="2"
     inkscape:zoom="2.8284271"
     inkscape:cx="81.951859"
     inkscape:cy="78.960843"
     inkscape:current-layer="layer6"
     showgrid="true"
     inkscape:grid-bbox="true"
     inkscape:document-units="px"
     inkscape:showpageshadow="false"
     inkscape:window-width="1851"
     inkscape:window-height="1371"
     inkscape:window-x="0"
     inkscape:window-y="32"
     width="400px"
     height="300px"
     inkscape:snap-nodes="true"
     inkscape:snap-bbox="true"
     gridtolerance="10000"
     inkscape:object-nodes="true"
     inkscape:snap-grids="true"
     showguides="true"
     inkscape:guide-bbox="true"
     inkscape:window-maximized="0"
     inkscape:bbox-nodes="true"
     inkscape:snap-bbox-edge-midpoints="true"
     inkscape:snap-intersection-paths="false"
     inkscape:object-paths="true"
     inkscape:snap-smooth-nodes="true"
     inkscape:snap-midpoints="true"
     inkscape:snap-global="true">
    <inkscape:grid
       spacingy="1"
       spacingx="1"
       id="grid5883"
       type="xygrid"
       enabled="true"
       visible="true"
       empspacing="4"
       snapvisiblegridlinesonly="true"
       originx="0"
       originy="0" />
    <inkscape:grid
       type="xygrid"
       id="grid11592"
       empspacing="2"
       visible="true"
       enabled="true"
       spacingx="0.5"
       spacingy="0.5"
       color="#ff0000"
       opacity="0.1254902"
       empcolor="#ff0000"
       empopacity="0"
       snapvisiblegridlinesonly="true"
       originx="0"
       originy="0" />
  </sodipodi:namedview>
  <defs
     id="defs3">
    <clipPath
       clipPathUnits="userSpaceOnUse"
       id="clipPath4327">
      <path
         sodipodi:nodetypes="ccssccccc"
         inkscape:connector-curvature="0"
         id="path4329"
         d="m 143,255 0.13393,5.9448 c 0.13393,0.94481 0.9155,2.65508 2.10245,4.00442 C 146.88326,266.82147 149.29903,268 152,268 l 16,0 6,8 c 3,4 6.38128,0.70711 6,-2 l -1,-19 z"
         style="fill:#828b8f;fill-opacity:1" />
    </clipPath>
    <filter
       inkscape:collect="always"
       style="color-interpolation-filters:sRGB"
       id="filter4429"
       x="-0.0216149"
       width="1.0432298"
       y="-0.026976757"
       height="1.0539535">
      <feGaussianBlur
         inkscape:collect="always"
         stdDeviation="4.0347814"
         id="feGaussianBlur4431" />
    </filter>
    <filter
       inkscape:collect="always"
       style="color-interpolation-filters:sRGB"
       id="filter4347"
       x="-0.039000006"
       width="1.078"
       y="-0.12999994"
       height="1.2599999">
      <feGaussianBlur
         inkscape:collect="always"
         stdDeviation="5.2000035"
         id="feGaussianBlur4349" />
    </filter>
  </defs>
  <metadata
     id="metadata4">
    <rdf:RDF>
      <cc:Work
         rdf:about="">
        <dc:format>image/svg+xml</dc:format>
        <dc:type
           rdf:resource="http://purl.org/dc/dcmitype/StillImage" />
        <dc:creator>
          <cc:Agent>
            <dc:title>Sam Hewitt</dc:title>
          </cc:Agent>
        </dc:creator>
        <dc:source />
        <cc:license
           rdf:resource="http://creativecommons.org/licenses/by-sa/4.0/" />
        <dc:title>Pop Icon Theme</dc:title>
        <dc:subject>
          <rdf:Bag />
        </dc:subject>
        <dc:date />
        <dc:rights>
          <cc:Agent>
            <dc:title />
          </cc:Agent>
        </dc:rights>
        <dc:publisher>
          <cc:Agent>
            <dc:title />
          </cc:Agent>
        </dc:publisher>
        <dc:identifier />
        <dc:relation />
        <dc:language />
        <dc:coverage />
        <dc:description />
        <dc:contributor>
          <cc:Agent>
            <dc:title />
          </cc:Agent>
        </dc:contributor>
      </cc:Work>
      <cc:Work
         rdf:about="">
        <dc:format>image/svg+xml</dc:format>
        <dc:type
           rdf:resource="http://purl.org/dc/dcmitype/StillImage" />
      </cc:Work>
      <cc:License
         rdf:about="http://creativecommons.org/licenses/by-sa/4.0/">
        <cc:permits
           rdf:resource="http://creativecommons.org/ns#Reproduction" />
        <cc:permits
           rdf:resource="http://creativecommons.org/ns#Distribution" />
        <cc:requires
           rdf:resource="http://creativecommons.org/ns#Notice" />
        <cc:requires
           rdf:resource="http://creativecommons.org/ns#Attribution" />
        <cc:permits
           rdf:resource="http://creativecommons.org/ns#DerivativeWorks" />
        <cc:requires
           rdf:resource="http://creativecommons.org/ns#ShareAlike" />
      </cc:License>
    </rdf:RDF>
  </metadata>
  <g
     style="display:inline"
     inkscape:groupmode="layer"
     inkscape:label="Icon"
     id="layer1"
     transform="translate(0,244)">
    <g
       style="display:none"
       inkscape:label="Baseplate"
       id="layer7"
       inkscape:groupmode="layer">
      <text
         y="332.48523"
         xml:space="preserve"
         x="15.006836"
         style="font-style:normal;font-variant:normal;font-weight:normal;font-stretch:normal;line-height:0%;font-family:'DejaVu Sans';-inkscape-font-specification:'DejaVu Sans';display:inline;fill:#000000;fill-opacity:1;stroke:none;enable-background:new"
         inkscape:label="context"
         id="context"><tspan
           style="font-style:normal;font-variant:normal;font-weight:normal;font-stretch:normal;font-size:18px;line-height:1.25;font-family:'DejaVu Sans';-inkscape-font-specification:'DejaVu Sans'"
           y="332.48523"
           x="15.006836"
           sodipodi:role="line"
           id="tspan3933">devices</tspan></text>
      <text
         y="332.48523"
         xml:space="preserve"
         x="142.48828"
         style="font-style:normal;font-variant:normal;font-weight:bold;font-stretch:normal;line-height:0%;font-family:'DejaVu Sans';-inkscape-font-specification:'DejaVu Sans Bold';text-align:start;writing-mode:lr-tb;text-anchor:start;display:inline;fill:#000000;fill-opacity:1;stroke:none;enable-background:new"
         inkscape:label="icon-name"
         id="icon-name"><tspan
           style="font-style:normal;font-variant:normal;font-weight:bold;font-stretch:normal;font-size:18px;line-height:1.25;font-family:'DejaVu Sans';-inkscape-font-specification:'DejaVu Sans Bold'"
           y="332.48523"
           x="142.48828"
           sodipodi:role="line"
           id="tspan3937">input-gaming</tspan></text>
      <rect
         style="display:inline;overflow:visible;visibility:visible;fill:#e9e9e9;fill-opacity:1;fill-rule:nonzero;stroke:none;stroke-width:2;marker:none;enable-background:accumulate"
         id="rect16x16"
         width="16"
         height="16"
         x="-32"
         y="268"
         inkscape:label="16x16"
         transform="scale(-1,1)" />
      <rect
         style="display:inline;overflow:visible;visibility:visible;fill:#e9e9e9;fill-opacity:1;fill-rule:nonzero;stroke:none;stroke-width:2;marker:none;enable-background:accumulate"
         id="rect24x24"
         width="24"
         height="24"
         x="-76"
         y="260"
         inkscape:label="24x24"
         transform="scale(-1,1)" />
      <rect
         style="display:inline;overflow:visible;visibility:visible;fill:#e9e9e9;fill-opacity:1;fill-rule:nonzero;stroke:none;stroke-width:2;marker:none;enable-background:accumulate"
         id="rect32x32"
         width="32"
         height="32"
         x="-128"
         y="252"
         inkscape:label="32x32"
         transform="scale(-1,1)" />
      <rect
         inkscape:label="48x48"
         y="236"
         x="-192"
         height="48"
         width="48"
         id="rect48x48"
         style="display:inline;overflow:visible;visibility:visible;fill:#e9e9e9;fill-opacity:1;fill-rule:nonzero;stroke:none;stroke-width:2;marker:none;enable-background:accumulate"
         transform="scale(-1,1)" />
      <rect
         style="display:inline;overflow:visible;visibility:visible;fill:#e9e9e9;fill-opacity:1;fill-rule:nonzero;stroke:none;stroke-width:2;marker:none;enable-background:accumulate"
         id="rect3951"
         width="512"
         height="512"
         x="-720"
         y="-228"
         inkscape:label="48x48"
         transform="scale(-1,1)" />
    </g>
    <g
       inkscape:groupmode="layer"
       id="layer6"
       inkscape:label="Symbols"
       style="display:inline">
      <path
         inkscape:connector-curvature="0"
         id="path4433"
         d="m 352.52608,-150.95624 c -55.7004,0 -97.60912,44.92424 -100.53664,100.5476 l -11.178,212.2512 c -7.04864,41.50352 33.20992,67.7124 67.03536,22.34512 l 59.77288,-89.65392 c 2.39648,0.1696 4.81063,0.257488 7.25152,0.2848 l 178.73904,0 67.0244,89.3696 c 33.51408,44.68544 71.2948,7.89696 67.03544,-22.3452 L 676.492,-50.40824 c 0,-55.70056 -44.83616,-100.54768 -100.53664,-100.54768 l -223.42928,0 z"
         style="opacity:0.1;fill:#000000;fill-opacity:1;stroke:#000000;stroke-width:8;stroke-miterlimit:4;stroke-dasharray:none;stroke-opacity:1;filter:url(#filter4429)"
         sodipodi:nodetypes="cccccsccccscc" />
      <path
         style="opacity:0.2;fill:#000000;fill-opacity:1;filter:url(#filter4429)"
         d="m 352.52608,-150.95624 c -55.7004,0 -97.60912,44.92424 -100.53664,100.5476 l -11.178,212.2512 c -7.04864,41.50352 33.20992,67.7124 67.03536,22.34512 l 59.77288,-89.65392 c 2.39648,0.1696 4.81063,0.257488 7.25152,0.2848 l 178.73904,0 67.0244,89.3696 c 33.51408,44.68544 71.2948,7.89696 67.03544,-22.3452 L 676.492,-50.40824 c 0,-55.70056 -44.83616,-100.54768 -100.53664,-100.54768 l -223.42928,0 z"
         id="path4598"
         inkscape:connector-curvature="0"
         sodipodi:nodetypes="cccccsccccscc" />
      <path
         style="fill:#9f9792;fill-opacity:1"
         d="m 158,490 c -4.986,0 -8.73794,4.0209 -9,9 l -1,19 c 0,2 2.97213,6.06103 6,2 l 6,-8 h 16 l 6,8 c 3,4 6,0 6,-2 l -1,-19 c 0,-4.986 -4.014,-9 -9,-9 z"
         transform="translate(0,-244)"
         id="path4206"
         inkscape:connector-curvature="0"
         sodipodi:nodetypes="ssccccsccss" />
      <path
         style="fill:#9f9792;fill-opacity:1"
         d="M 352.57227 88 C 296.87187 88 254.9119 134.64031 251.98438 190.26367 L 240.81445 402.51953 C 233.76581 444.02305 274.01636 470.23056 307.8418 424.86328 L 366.12305 335.60938 C 369.00549 335.86448 371.92082 336 374.86914 336 L 552 336 L 620.64062 424.86328 C 654.15471 469.54872 691.92733 432.76161 687.66797 402.51953 L 676.49609 190.26367 C 676.49609 134.56319 631.7004 88 576 88 L 352.57227 88 z "
         id="path4541"
         transform="translate(0,-244)" />
      <path
         inkscape:connector-curvature="0"
         style="display:inline;fill:none;fill-opacity:1;stroke:#000000;stroke-width:4;stroke-miterlimit:4;stroke-dasharray:none;stroke-opacity:0.23529412;enable-background:new"
         d="m 353.5623,-153.98836 c -55.20306,0 -96.78837,46.12304 -99.68975,101.129521 l -11.0702,209.901849 c -6.9857,41.04323 32.90546,66.96009 66.42887,22.09595 l 57.76087,-88.264035 c 2.8567,0.252271 5.746,0.386288 8.66799,0.386288 h 175.54928 l 68.02774,87.877747 c 33.21484,44.18986 70.6502,7.81073 66.42887,-22.09595 L 674.59384,-52.858839 c 0,-55.082741 -44.39571,-101.129521 -99.59877,-101.129521 z"
         id="path4541-3" />
      <g
         id="g4333"
         transform="translate(0,8)"
         style="opacity:0.2;fill:#000000;filter:url(#filter4347)">
        <rect
           ry="0"
           y="-100.00008"
           x="335.99994"
           height="95.999969"
           width="31.999994"
           id="rect4335"
           style="fill:#000000;fill-opacity:1" />
        <rect
           transform="matrix(0,1,-1,0,0,0)"
           style="fill:#000000;fill-opacity:1"
           id="rect4337"
           width="31.999952"
           height="96.000046"
           x="-68.000031"
           y="-399.99988"
           ry="0" />
        <circle
           r="16"
           cy="-52.000179"
           cx="543.99988"
           id="circle4339"
           style="fill:#000000;fill-opacity:1" />
        <circle
           style="fill:#000000;fill-opacity:1"
           id="circle4341"
           cx="575.99994"
           cy="-84.000061"
           r="16" />
        <circle
           r="16"
           cy="-52.000179"
           cx="608"
           id="circle4343"
           style="fill:#000000;fill-opacity:1" />
        <circle
           style="fill:#000000;fill-opacity:1"
           id="circle4345"
           cx="575.99994"
           cy="-19.999964"
           r="16" />
      </g>
      <g
         id="g943">
        <rect
           style="fill:#ffffff;fill-opacity:1"
           id="rect4563"
           width="31.999994"
           height="95.999969"
           x="335.99994"
           y="-100.00008"
           ry="0" />
        <rect
           ry="0"
           y="-399.99988"
           x="-68.000031"
           height="96.000046"
           width="31.999952"
           id="rect4565"
           style="fill:#ffffff;fill-opacity:1"
           transform="rotate(90)" />
      </g>
      <circle
         r="16"
         cy="-52.000179"
         cx="543.99988"
         id="circle4567"
         style="fill:#94a6ff;fill-opacity:1" />
      <circle
         style="fill:#ffce51;fill-opacity:1"
         id="circle4382"
         cx="575.99994"
         cy="-84.000061"
         r="16" />
      <circle
         r="16"
         cy="-52.000179"
         cx="608"
         id="circle4384"
         style="fill:#ff793e;fill-opacity:1" />
      <circle
         style="fill:#73c48f;fill-opacity:1"
         id="circle4386"
         cx="575.99994"
         cy="-19.999964"
         r="16" />
      <path
         style="fill:#9f9792;fill-opacity:1"
         d="m 104.53516,500 c -3.72997,0 -6.529461,3.00798 -6.732426,6.73242 l -0.748046,13.72852 c -0.472014,2.77927 2.223165,4.5341 4.488282,1.49609 L 105,516 h 14 l 3.49023,5.95703 c 2.24426,2.99235 4.77352,0.52907 4.48829,-1.49609 l -0.74805,-14.21485 c 0,-3.72997 -3.00441,-6.24609 -6.73438,-6.24609 z"
         transform="translate(0,-244)"
         id="path4218"
         inkscape:connector-curvature="0"
         sodipodi:nodetypes="sccccccccss" />
      <path
         style="display:inline;fill:#9f9792;fill-opacity:1;stroke:none;stroke-width:1px;stroke-linecap:butt;stroke-linejoin:miter;stroke-opacity:1;enable-background:new"
         d="m 20,513 c -2,0 -4,2 -4,4.00781 V 524 c 0,1.5 2.571429,1.5 3,0 l 1,-3 h 8 l 1,3 c 0.493323,1.47997 3,1.5 3,0 v -6.99219 C 32,515 30,513 28,513 Z"
         transform="translate(0,-244)"
         id="path942-5"
         inkscape:connector-curvature="0"
         sodipodi:nodetypes="csssccssscc" />
      <rect
         ry="0"
         y="271"
         x="19"
         height="3.9711609"
         width="2.0016136"
         id="rect4304"
         style="fill:#ffffff;fill-opacity:1" />
      <rect
         transform="matrix(0,1,1,0,0,0)"
         style="fill:#ffffff;fill-opacity:1"
         id="rect4306"
         width="1.9711609"
         height="4.0016136"
         x="272"
         y="18"
         ry="0" />
      <path
         style="fill:#ffce51;fill-opacity:1;stroke:#ffffff;stroke-opacity:0.96703297;stroke-width:0.3;stroke-miterlimit:4;stroke-dasharray:none"
         d="m 28.023438,514.80469 a 0.75,0.75 0 0 0 -0.75,0.75 0.75,0.75 0 0 0 0.75,0.75 0.75,0.75 0 0 0 0.75,-0.75 0.75,0.75 0 0 0 -0.75,-0.75 z"
         transform="translate(0,-244)"
         id="path915" />
      <path
         style="fill:#ff793e;fill-opacity:1;stroke:#ffffff;stroke-opacity:0.96703297;stroke-width:0.3;stroke-miterlimit:4;stroke-dasharray:none"
         d="m 29.460938,516.21094 a 0.75,0.75 0 0 0 -0.75,0.75 0.75,0.75 0 0 0 0.75,0.75 0.75,0.75 0 0 0 0.75,-0.75 0.75,0.75 0 0 0 -0.75,-0.75 z"
         transform="translate(0,-244)"
         id="path913" />
      <path
         style="fill:#94a6ff;fill-opacity:1;stroke:#ffffff;stroke-opacity:0.96703297;stroke-width:0.3;stroke-miterlimit:4;stroke-dasharray:none"
         d="m 26.5,516.24219 a 0.75,0.75 0 0 0 -0.75,0.75 0.75,0.75 0 0 0 0.75,0.75 0.75,0.75 0 0 0 0.75,-0.75 0.75,0.75 0 0 0 -0.75,-0.75 z"
         transform="translate(0,-244)"
         id="path911" />
      <path
         style="fill:#73c48f;fill-opacity:1;stroke:#ffffff;stroke-opacity:0.96703297;stroke-width:0.3;stroke-miterlimit:4;stroke-dasharray:none"
         d="m 28.023438,517.71875 a 0.75,0.75 0 0 0 -0.75,0.75 0.75,0.75 0 0 0 0.75,0.75 0.75,0.75 0 0 0 0.75,-0.75 0.75,0.75 0 0 0 -0.75,-0.75 z"
         transform="translate(0,-244)"
         id="circle4308" />
      <path
         style="color:#000000;font-style:normal;font-variant:normal;font-weight:normal;font-stretch:normal;font-size:medium;line-height:normal;font-family:sans-serif;text-indent:0;text-align:start;text-decoration:none;text-decoration-line:none;text-decoration-style:solid;text-decoration-color:#000000;letter-spacing:normal;word-spacing:normal;text-transform:none;writing-mode:lr-tb;direction:ltr;baseline-shift:baseline;text-anchor:start;white-space:normal;clip-rule:nonzero;display:inline;overflow:visible;visibility:visible;opacity:1;isolation:auto;mix-blend-mode:normal;color-interpolation:sRGB;color-interpolation-filters:linearRGB;solid-color:#000000;solid-opacity:1;fill:#9f9792;fill-opacity:1;fill-rule:nonzero;stroke:none;stroke-width:2;stroke-linecap:butt;stroke-linejoin:miter;stroke-miterlimit:4;stroke-dasharray:none;stroke-dashoffset:0;stroke-opacity:1;color-rendering:auto;image-rendering:auto;shape-rendering:auto;text-rendering:auto;enable-background:accumulate"
         d="m 59,507 c -3.309706,0 -5.693634,2.72847 -5.996094,5.9043 l -1,10.5 C 51.863511,524.8785 53.128133,526 54.5,526 c 0.689808,0 1.325201,-0.31957 1.738281,-0.76562 L 58,521 h 12 l 1.794922,4.13867 C 72.128897,525.56632 72.769009,526 73.494141,526 c 1.371866,0 2.636494,-1.1215 2.496093,-2.5957 L 75,513.00391 V 513 c 0,-3.3067 -2.693297,-6 -6,-6 z"
         transform="translate(0,-244)"
         id="path4708"
         inkscape:connector-curvature="0"
         sodipodi:nodetypes="sscsccccsccsss" />
      <path
         inkscape:connector-curvature="0"
         id="path4744"
         d="m 58,267 0,2 -2,0 0,2 2,0 0,2 2,0 0,-2 2,0 0,-2 -2,0 0,-2 -2,0 z"
         style="display:inline;opacity:0.2;fill:#000000;fill-opacity:1;enable-background:new" />
      <path
         style="display:inline;fill:#ebebeb;fill-opacity:1;enable-background:new"
         d="m 58,266 0,2 -2,0 0,2 2,0 0,2 2,0 0,-2 2,0 0,-2 -2,0 0,-2 -2,0 z"
         id="rect4694"
         inkscape:connector-curvature="0" />
      <path
         inkscape:connector-curvature="0"
         id="path4746"
         d="m 69,267 a 1,1 0 0 0 -1,1 1,1 0 0 0 1,1 1,1 0 0 0 1,-1 1,1 0 0 0 -1,-1 z m -2,2 a 1,1 0 0 0 -1,1 1,1 0 0 0 1,1 1,1 0 0 0 1,-1 1,1 0 0 0 -1,-1 z m 4,0 a 1,1 0 0 0 -1,1 1,1 0 0 0 1,1 1,1 0 0 0 1,-1 1,1 0 0 0 -1,-1 z m -2,2 a 1,1 0 0 0 -1,1 1,1 0 0 0 1,1 1,1 0 0 0 1,-1 1,1 0 0 0 -1,-1 z"
         style="display:inline;opacity:0.2;fill:#000000;fill-opacity:1;stroke:none;stroke-width:8;stroke-linecap:round;stroke-linejoin:miter;stroke-miterlimit:4;stroke-dasharray:none;stroke-opacity:1;enable-background:new" />
      <path
         style="display:inline;opacity:1;fill:#ffce51;fill-opacity:1;stroke:#ffffff;stroke-width:0.5;stroke-linecap:round;stroke-linejoin:miter;stroke-miterlimit:4;stroke-dasharray:none;stroke-opacity:1;enable-background:new"
         d="m 69,266 a 1,1 0 0 0 -1,1 1,1 0 0 0 1,1 1,1 0 0 0 1,-1 1,1 0 0 0 -1,-1 z"
         id="path907" />
      <path
         style="display:inline;opacity:1;fill:#94a6ff;fill-opacity:1;stroke:#ffffff;stroke-width:0.5;stroke-linecap:round;stroke-linejoin:miter;stroke-miterlimit:4;stroke-dasharray:none;stroke-opacity:1;enable-background:new"
         d="m 67,268 a 1,1 0 0 0 -1,1 1,1 0 0 0 1,1 1,1 0 0 0 1,-1 1,1 0 0 0 -1,-1 z"
         id="path905" />
      <path
         style="display:inline;opacity:1;fill:#ff793e;fill-opacity:1;stroke:#ffffff;stroke-width:0.5;stroke-linecap:round;stroke-linejoin:miter;stroke-miterlimit:4;stroke-dasharray:none;stroke-opacity:1;enable-background:new"
         d="m 71,268 a 1,1 0 0 0 -1,1 1,1 0 0 0 1,1 1,1 0 0 0 1,-1 1,1 0 0 0 -1,-1 z"
         id="path903" />
      <path
         style="display:inline;opacity:1;fill:#73c48f;fill-opacity:1;stroke:#ffffff;stroke-width:0.5;stroke-linecap:round;stroke-linejoin:miter;stroke-miterlimit:4;stroke-dasharray:none;stroke-opacity:1;enable-background:new"
         d="m 69,270 a 1,1 0 0 0 -1,1 1,1 0 0 0 1,1 1,1 0 0 0 1,-1 1,1 0 0 0 -1,-1 z"
         id="path4728" />
      <path
         style="display:inline;opacity:0.2;fill:#000000;fill-opacity:1;enable-background:new"
         d="m 104,261 0,2 -2,0 0,2 2,0 0,2 2,0 0,-2 2,0 0,-2 -2,0 0,-2 -2,0 z"
         id="path4291"
         inkscape:connector-curvature="0" />
      <path
         inkscape:connector-curvature="0"
         id="path4293"
         d="m 104,260 0,2 -2,0 0,2 2,0 0,2 2,0 0,-2 2,0 0,-2 -2,0 0,-2 -2,0 z"
         style="display:inline;fill:#ebebeb;fill-opacity:1;enable-background:new" />
      <path
         style="display:inline;opacity:0.2;fill:#000000;fill-opacity:1;stroke:none;stroke-width:8;stroke-linecap:round;stroke-linejoin:miter;stroke-miterlimit:4;stroke-dasharray:none;stroke-opacity:1;enable-background:new"
         d="m 119,261 a 1,1 0 0 0 -1,1 1,1 0 0 0 1,1 1,1 0 0 0 1,-1 1,1 0 0 0 -1,-1 z m -2,2 a 1,1 0 0 0 -1,1 1,1 0 0 0 1,1 1,1 0 0 0 1,-1 1,1 0 0 0 -1,-1 z m 4,0 a 1,1 0 0 0 -1,1 1,1 0 0 0 1,1 1,1 0 0 0 1,-1 1,1 0 0 0 -1,-1 z m -2,2 a 1,1 0 0 0 -1,1 1,1 0 0 0 1,1 1,1 0 0 0 1,-1 1,1 0 0 0 -1,-1 z"
         id="path4295"
         inkscape:connector-curvature="0" />
      <path
         style="display:inline;opacity:1;fill:#ffce51;fill-opacity:1;stroke:#ffffff;stroke-width:0.5;stroke-linecap:round;stroke-linejoin:miter;stroke-miterlimit:4;stroke-dasharray:none;stroke-opacity:1;enable-background:new"
         d="m 119,260 a 1,1 0 0 0 -1,1 1,1 0 0 0 1,1 1,1 0 0 0 1,-1 1,1 0 0 0 -1,-1 z"
         id="path923" />
      <path
         style="display:inline;opacity:1;fill:#94a6ff;fill-opacity:1;stroke:#ffffff;stroke-width:0.5;stroke-linecap:round;stroke-linejoin:miter;stroke-miterlimit:4;stroke-dasharray:none;stroke-opacity:1;enable-background:new"
         d="m 117,262 a 1,1 0 0 0 -1,1 1,1 0 0 0 1,1 1,1 0 0 0 1,-1 1,1 0 0 0 -1,-1 z"
         id="path921" />
      <path
         style="display:inline;opacity:1;fill:#ff793e;fill-opacity:1;stroke:#ffffff;stroke-width:0.5;stroke-linecap:round;stroke-linejoin:miter;stroke-miterlimit:4;stroke-dasharray:none;stroke-opacity:1;enable-background:new"
         d="m 121,262 a 1,1 0 0 0 -1,1 1,1 0 0 0 1,1 1,1 0 0 0 1,-1 1,1 0 0 0 -1,-1 z"
         id="path919" />
      <path
         style="display:inline;opacity:1;fill:#73c48f;fill-opacity:1;stroke:#ffffff;stroke-width:0.5;stroke-linecap:round;stroke-linejoin:miter;stroke-miterlimit:4;stroke-dasharray:none;stroke-opacity:1;enable-background:new"
         d="m 119,264 a 1,1 0 0 0 -1,1 1,1 0 0 0 1,1 1,1 0 0 0 1,-1 1,1 0 0 0 -1,-1 z"
         id="path4297" />
      <g
         id="g4311"
         transform="translate(0,1)"
         style="fill:#000000;opacity:0.2">
        <rect
           style="fill:#000000;fill-opacity:1"
           id="rect4313"
           width="3"
           height="9"
           x="157"
           y="251"
           ry="0" />
        <rect
           ry="0"
           y="-163"
           x="254"
           height="9"
           width="3"
           id="rect4315"
           style="fill:#000000;fill-opacity:1"
           transform="matrix(0,1,-1,0,0,0)" />
        <circle
           style="fill:#000000;fill-opacity:1"
           id="circle4317"
           cx="174.5"
           cy="255.5"
           r="1.5" />
        <circle
           r="1.5"
           cy="255.5"
           cx="180.5"
           id="circle4319"
           style="fill:#000000;fill-opacity:1" />
        <circle
           r="1.5"
           cy="-177.5"
           cx="252.5"
           id="circle4321"
           style="fill:#000000;fill-opacity:1"
           transform="matrix(0,1,-1,0,0,0)" />
        <circle
           style="fill:#000000;fill-opacity:1"
           id="circle4323"
           cx="258.5"
           cy="-177.5"
           r="1.5"
           transform="matrix(0,1,-1,0,0,0)" />
      </g>
      <g
         id="g933">
        <rect
           ry="0"
           y="251"
           x="157"
           height="9"
           width="3"
           id="rect4218"
           style="fill:#ffffff;fill-opacity:1" />
        <rect
           transform="rotate(90)"
           style="fill:#ffffff;fill-opacity:1"
           id="rect4224"
           width="3"
           height="9"
           x="254"
           y="-163"
           ry="0" />
      </g>
      <circle
         style="fill:#94a6ff;fill-opacity:1;stroke:#ffffff;stroke-opacity:1;stroke-width:0.5;stroke-miterlimit:4;stroke-dasharray:none"
         id="path4238"
         cx="174.5"
         cy="255.5"
         r="1.5" />
      <circle
         r="1.5"
         cy="255.5"
         cx="180.5"
         id="circle4240"
         style="fill:#ff793e;fill-opacity:1;stroke:#ffffff;stroke-opacity:1;stroke-width:0.5;stroke-miterlimit:4;stroke-dasharray:none" />
      <circle
         r="1.5"
         cy="-177.5"
         cx="252.5"
         id="circle4276"
         style="fill:#ffce51;fill-opacity:1;stroke:#ffffff;stroke-opacity:1;stroke-width:0.5;stroke-miterlimit:4;stroke-dasharray:none"
         transform="rotate(90)" />
      <circle
         style="fill:#73c48f;fill-opacity:1;stroke:#ffffff;stroke-opacity:1;stroke-width:0.5;stroke-miterlimit:4;stroke-dasharray:none"
         id="circle4278"
         cx="258.5"
         cy="-177.5"
         r="1.5"
         transform="rotate(90)" />
    </g>
  </g>
</svg>
