<?xml version="1.0" encoding="UTF-8" standalone="no"?>
<svg
   xmlns:dc="http://purl.org/dc/elements/1.1/"
   xmlns:cc="http://creativecommons.org/ns#"
   xmlns:rdf="http://www.w3.org/1999/02/22-rdf-syntax-ns#"
   xmlns:svg="http://www.w3.org/2000/svg"
   xmlns="http://www.w3.org/2000/svg"
   xmlns:sodipodi="http://sodipodi.sourceforge.net/DTD/sodipodi-0.dtd"
   xmlns:inkscape="http://www.inkscape.org/namespaces/inkscape"
   width="24"
   height="24"
   version="1"
   id="svg28"
   sodipodi:docname="nextcloud.svg"
   inkscape:version="0.92+devel (unknown)">
  <metadata
     id="metadata34">
    <rdf:RDF>
      <cc:Work
         rdf:about="">
        <dc:format>image/svg+xml</dc:format>
        <dc:type
           rdf:resource="http://purl.org/dc/dcmitype/StillImage" />
        <dc:title></dc:title>
      </cc:Work>
    </rdf:RDF>
  </metadata>
  <defs
     id="defs32" />
  <sodipodi:namedview
     pagecolor="#ffffff"
     bordercolor="#666666"
     inkscape:document-rotation="0"
     borderopacity="1"
     objecttolerance="10"
     gridtolerance="10"
     guidetolerance="10"
     inkscape:pageopacity="0"
     inkscape:pageshadow="2"
     inkscape:window-width="640"
     inkscape:window-height="480"
     id="namedview30"
     showgrid="true"
     inkscape:snap-nodes="false"
     inkscape:snap-bbox="true"
     inkscape:bbox-nodes="true"
     inkscape:zoom="25.708333"
     inkscape:cx="3.8508914"
     inkscape:cy="12"
     inkscape:current-layer="svg28">
    <inkscape:grid
       type="xygrid"
       id="grid852" />
  </sodipodi:namedview>
  <rect
     style="fill:#0082c9;fill-opacity:1"
     id="rect2"
     transform="matrix(0,-1,-1,0,0,0)"
     ry="1"
     rx="1"
     y="-22"
     x="-22"
     height="20"
     width="20"
     fill="#394e6f" />
  <path
     inkscape:connector-curvature="0"
     id="path4"
     d="M 3,2 C 2.446,2 2,2.446 2,3 v 0.5 c 0,-0.554 0.446,-1 1,-1 h 18 c 0.554,0 1,0.446 1,1 V 3 C 22,2.446 21.554,2 21,2 Z"
     opacity=".1"
     fill="#fff" />
  <path
     inkscape:connector-curvature="0"
     id="path6"
     d="m 3,22.5 c -0.554,0 -1,-0.446 -1,-1 V 21 c 0,0.554 0.446,1 1,1 h 18 c 0.554,0 1,-0.446 1,-1 v 0.5 c 0,0.554 -0.446,1 -1,1 z"
     opacity=".2" />
  <g
     id="g865"
     transform="matrix(0.14048395,0,0,0.14048395,2.59516,6.9531921)"
     style="fill:#ffffff;fill-opacity:1">
    <path
       inkscape:connector-curvature="0"
       id="XMLID_107_"
       d="m 67.032801,9.9999701 c -11.80525,0 -21.81118,8.0031799 -24.91235,18.8465899 -2.69524,-5.75151 -8.53592,-9.78093 -15.26337,-9.78093 -9.25183,0 -16.85708,7.60525 -16.85708,16.85708 0,9.25182 7.60525,16.86054 16.85708,16.86054 6.72745,0 12.56813,-4.03188 15.26337,-9.78439 3.10117,10.84422 13.1071,18.85006 24.91235,18.85006 11.71795,0 21.67286,-7.8851 24.85334,-18.60701 2.74505,5.62192 8.513439,9.54134 15.145329,9.54134 9.25183,0 16.86055,-7.60872 16.86055,-16.86054 0,-9.25183 -7.60872,-16.85708 -16.86055,-16.85708 -6.63189,0 -12.400279,3.91696 -15.145329,9.53788 C 88.705661,17.88243 78.750751,9.9999701 67.032801,9.9999701 Z m 0,9.8954999 c 8.91163,0 16.03073,7.11564 16.03073,16.02724 0,8.9116 -7.1191,16.03071 -16.03073,16.03071 -8.91158,0 -16.02722,-7.11911 -16.02722,-16.03071 0,-8.9116 7.11564,-16.02724 16.02722,-16.02724 z m -40.17572,9.06567 c 3.90437,0 6.96504,3.05718 6.96504,6.96157 0,3.90438 -3.06067,6.96504 -6.96504,6.96504 -3.90439,0 -6.96158,-3.06066 -6.96158,-6.96504 0,-3.90439 3.05719,-6.96157 6.96158,-6.96157 z m 80.174389,0 c 3.9044,0 6.96504,3.05718 6.96504,6.96157 0,3.90438 -3.06066,6.96504 -6.96504,6.96504 -3.90437,0 -6.96156,-3.06066 -6.96156,-6.96504 0,-3.90439 3.05721,-6.96157 6.96156,-6.96157 z"
       style="color:#000000;font-style:normal;font-variant:normal;font-weight:normal;font-stretch:normal;font-size:medium;line-height:normal;font-family:sans-serif;text-indent:0;text-align:start;text-decoration:none;text-decoration-line:none;text-decoration-style:solid;text-decoration-color:#000000;letter-spacing:normal;word-spacing:normal;text-transform:none;writing-mode:lr-tb;direction:ltr;baseline-shift:baseline;text-anchor:start;white-space:normal;clip-rule:nonzero;display:inline;overflow:visible;visibility:visible;opacity:1;isolation:auto;mix-blend-mode:normal;color-interpolation:sRGB;color-interpolation-filters:linearRGB;solid-color:#000000;solid-opacity:1;fill:#ffffff;fill-opacity:1;fill-rule:nonzero;stroke:none;stroke-width:5.56589985;stroke-linecap:butt;stroke-linejoin:miter;stroke-miterlimit:10;stroke-dasharray:none;stroke-dashoffset:0;stroke-opacity:1;color-rendering:auto;image-rendering:auto;shape-rendering:auto;text-rendering:auto;enable-background:accumulate" />
  </g>
</svg>
