<?xml version="1.0" encoding="UTF-8" standalone="no"?>
<svg
   height="16"
   style="enable-background:new"
   width="16"
   version="1.1"
   id="svg24"
   sodipodi:docname="audio-volume-overamplified-symbolic.svg"
   inkscape:version="1.1 (c68e22c387, 2021-05-23)"
   xmlns:inkscape="http://www.inkscape.org/namespaces/inkscape"
   xmlns:sodipodi="http://sodipodi.sourceforge.net/DTD/sodipodi-0.dtd"
   xmlns="http://www.w3.org/2000/svg"
   xmlns:svg="http://www.w3.org/2000/svg">
  <sodipodi:namedview
     id="namedview26"
     pagecolor="#ffffff"
     bordercolor="#666666"
     borderopacity="1.0"
     inkscape:pageshadow="2"
     inkscape:pageopacity="0.0"
     inkscape:pagecheckerboard="0"
     showgrid="false"
     inkscape:zoom="32.9375"
     inkscape:cx="8"
     inkscape:cy="8.0151803"
     inkscape:window-width="1366"
     inkscape:window-height="699"
     inkscape:window-x="0"
     inkscape:window-y="32"
     inkscape:window-maximized="1"
     inkscape:current-layer="g20" />
  <defs
     id="defs8">
    <filter
       height="1"
       id="b"
       style="color-interpolation-filters:sRGB"
       width="1"
       x="0"
       y="0">
      <feBlend
         in2="BackgroundImage"
         mode="darken"
         id="feBlend2" />
    </filter>
    <filter
       height="1"
       id="a"
       style="color-interpolation-filters:sRGB"
       width="1"
       x="0"
       y="0">
      <feBlend
         in2="BackgroundImage"
         mode="darken"
         id="feBlend5" />
    </filter>
  </defs>
  <g
     style="display:inline"
     id="g22">
    <g
       style="display:inline;filter:url(#a);enable-background:new"
       transform="translate(-265 413)"
       id="g20">
      <path
         d="M265-413h16v16h-16z"
         style="color:#bebebe;display:inline;overflow:visible;visibility:visible;opacity:.01;fill:#4c5263;fill-opacity:1;stroke:none;stroke-width:1;marker:none"
         id="path10" />
      <path
         d="M151.07 554.049a.995.995 0 0 0-.57.201L147 557h-2c-.554 0-1 .446-1 1v4c0 .554.446 1 1 1h2l3.5 2.75c.5.393 1.5.25 1.5-.75v-10c0-.688-.472-.97-.93-.951z"
         style="opacity:1;fill:#4c5263;fill-opacity:1"
         transform="translate(121 -965)"
         id="path12" />
      <path
         d="m274-407.375 2-.625c1 2 1 4 0 6l-2-.625c1-2 1-2.75 0-4.75zM277-409.063l2-.937c2 3 2 7 0 10l-2-.938c2-3 2-5.125 0-8.125z"
         style="opacity:1;fill:#4c5263"
         id="path14" />
    </g>
  </g>
</svg>
