<svg version="1.0" viewBox="0 0 24 24" xmlns="http://www.w3.org/2000/svg"><g transform="translate(-56 4540)"><path d="M60.5-4540a2.495 2.495 0 0 0-2.5 2.5v19c0 1.385 1.115 2.5 2.5 2.5h15c1.385 0 2.5-1.115 2.5-2.5v-14l-7.5-7.5z" fill="#6f6f6f"/><path d="M77-4532v13c0 1.108-.892 2-2 2H61c-1.108 0-2-.892-2-2v-18c0-1.108.892-2 2-2h9" fill="#ececec"/><path d="M77-4531h-6c-1.108 0-2-.892-2-2v-6h1l7 7z" fill="#6f6f6f" fill-opacity=".502"/><path d="M77-4532h-5c-1.108 0-2-.892-2-2v-5" fill="#fafafa"/><ellipse cx="68" cy="-4523" rx="6" ry="3" fill="#777bb3"/></g></svg>