<svg version="1.0" viewBox="0 0 24 24" xmlns="http://www.w3.org/2000/svg"><g transform="translate(-56 2440)"><rect x="58" y="-2439" width="20" height="23" ry="1.5" fill="#425c0b"/><rect x="59" y="-2438" width="18" height="21" ry="1" fill="#dedede"/><rect x="58" y="-2440" width="18" height="21" ry="1.5" fill="#425c0b"/><rect x="59" y="-2439" width="16" height="19" ry="1" fill="#85b916"/><path d="M60-2439c-.554 0-1 .446-1 1v20c0 .554.446 1 1 1h1v-22z" fill="#293907"/><path d="m68-2425.8-3.082-3.083 3.082-3.082 1.028 1.028-2.056 2.054 1.028 1.028 3.082-3.082-2.685-2.685a.562.562 0 0 0-.794 0l-4.343 4.343a.562.562 0 0 0 0 .794l4.343 4.343c.22.219.575.219.794 0l4.343-4.343a.562.562 0 0 0 0-.794l-.63-.63z" fill="#fff"/></g></svg>