<svg version="1.0" viewBox="0 0 24 24" xmlns="http://www.w3.org/2000/svg"><path d="M4.5 0A2.495 2.495 0 0 0 2 2.5v19C2 22.885 3.115 24 4.5 24h15c1.385 0 2.5-1.115 2.5-2.5v-14L14.5 0z" fill="#6f6f6f"/><path d="M21 8v13c0 1.108-.892 2-2 2H5c-1.108 0-2-.892-2-2V3c0-1.108.892-2 2-2h9" fill="#ececec"/><path d="M21 9h-6c-1.108 0-2-.892-2-2V1h1l7 7z" fill="#6f6f6f" fill-opacity=".502"/><path d="M21 8h-5c-1.108 0-2-.892-2-2V1" fill="#fafafa"/><text x="60.077" y="-4220.46" fill="#817205" font-family="'Roboto Slab'" font-size="12.5" letter-spacing="0" stroke-width=".75" word-spacing="0" style="line-height:1.25" xml:space="preserve" transform="translate(-56 4240)"><tspan x="60.077" y="-4220.46" letter-spacing="-.85">{js}</tspan></text></svg>