<svg version="1.0" viewBox="0 0 24 24" xmlns="http://www.w3.org/2000/svg"><path d="M4.5 0A2.495 2.495 0 0 0 2 2.5v19C2 22.885 3.115 24 4.5 24h15c1.385 0 2.5-1.115 2.5-2.5v-14L14.5 0z" fill="#6f6f6f"/><path d="M21 8v13c0 1.108-.892 2-2 2H5c-1.108 0-2-.892-2-2V3c0-1.108.892-2 2-2h9" fill="#ececec"/><path d="M21 9h-6c-1.108 0-2-.892-2-2V1h1l7 7z" fill="#6f6f6f" fill-opacity=".502"/><path d="M21 8h-5c-1.108 0-2-.892-2-2V1" fill="#fafafa"/><path d="M8 8c-.554 0-1 .446-1 1v1H5c-.554 0-1 .446-1 1v8c0 .554.446 1 1 1h2v1c0 .554.446 1 1 1s1-.446 1-1v-1h2v1c0 .554.446 1 1 1s1-.446 1-1v-1h2v1c0 .554.446 1 1 1s1-.446 1-1v-1h2c.554 0 1-.446 1-1v-8c0-.554-.446-1-1-1h-2V9c0-.554-.446-1-1-1s-1 .446-1 1v1h-2V9c0-.554-.446-1-1-1s-1 .446-1 1v1H9V9c0-.554-.446-1-1-1zm-2 4h12v1a2 2 0 0 0-2 2 2 2 0 0 0 2 2v1H6z" fill="#474341" fill-opacity=".69"/></svg>