<svg version="1.0" viewBox="0 0 24 24" xmlns="http://www.w3.org/2000/svg"><g transform="translate(-56 -260)"><rect x="58" y="260" width="20" height="24" ry="2" fill="#7b7b7b"/><rect x="59" y="261" width="18" height="22" ry="1.5" fill="#f6f6f6"/><g fill="#393634" fill-opacity=".51" aria-label="0x"><path d="M64.5 266c-2.17 0-3.5 1.653-3.5 4.997 0 3.359 1.33 5 3.5 5s3.5-1.641 3.5-5c0-3.344-1.33-4.997-3.5-4.997zm0 .997c1.261 0 2.5 1.023 2.5 4 0 2.992-1.239 4-2.5 4-1.247 0-2.5-1.008-2.5-4 0-2.977 1.253-4 2.5-4zm0 3c-.543 0-1 .472-1 1 0 .543.457 1 1 1 .557 0 1-.457 1-1 0-.528-.443-1-1-1z"/><path d="m69.5 276 2-3 2 3H75l-3-4 2.726-3.73h-1.423L71.5 271l-2-3H68l3 4-3 4z"/></g></g></svg>