<svg version="1.0" viewBox="0 0 24 24" xmlns="http://www.w3.org/2000/svg"><g transform="translate(-56 -260)"><path d="M66.5 261a2.495 2.495 0 0 0-2.5 2.5v1.5h-5c-1.108 0-2 .892-2 2v5h3.5c.831 0 1.5.669 1.5 1.5s-.669 1.5-1.5 1.5H57v6c0 1.108.892 2 2 2h6v-3.5c0-.831.669-1.5 1.5-1.5s1.5.669 1.5 1.5v3.5h5c1.108 0 2-.892 2-2v-5h1.5c1.385 0 2.5-1.115 2.5-2.5s-1.115-2.5-2.5-2.5H75v-4c0-1.108-.892-2-2-2h-4v-1.5c0-1.385-1.115-2.5-2.5-2.5z" fill="#396247"/><path d="M59.5 266c-.831 0-1.5.669-1.5 1.5v3.5h2.5c1.385 0 2.5 1.115 2.5 2.5s-1.115 2.5-2.5 2.5H58v4.5c0 .831.669 1.5 1.5 1.5H64v-2.5c0-1.385 1.115-2.5 2.5-2.5s2.5 1.115 2.5 2.5v2.5h3.5c.831 0 1.5-.669 1.5-1.5v-13c0-.831-.669-1.5-1.5-1.5z" fill="#73c48f"/><rect x="65" y="262" width="3" height="6" ry="1.5" fill="#73c48f"/><rect x="70" y="272" width="8" height="3" ry="1.5" fill="#73c48f"/></g></svg>