<svg version="1.0" viewBox="0 0 24 24" xmlns="http://www.w3.org/2000/svg"><path d="M4.5 0A2.495 2.495 0 0 0 2 2.5v19C2 22.885 3.115 24 4.5 24h15c1.385 0 2.5-1.115 2.5-2.5v-14L14.5 0z" fill="#671d00"/><path d="M21 8v13c0 1.108-.892 2-2 2H5c-1.108 0-2-.892-2-2V3c0-1.108.892-2 2-2h9" fill="#cf3b00"/><path d="M21 9h-6c-1.108 0-2-.892-2-2V1h1l7 7z" fill="#671d00" fill-opacity=".502"/><path d="M21 8h-5c-1.108 0-2-.892-2-2V1" fill="#f15d22"/><g fill="#f6f6f6"><path d="M9 17a2 2 0 0 0-2-2H5v6h1v-2h1a2 2 0 0 0 2-2zm-1 0a1 1 0 0 1-1 1H6v-2h1a1 1 0 0 1 1 1z"/><path d="M10 15v6h2c1.108 0 2-.892 2-2v-2c0-1.108-.892-2-2-2h-1zm1 1h1c.554 0 1 .446 1 1v2c0 .554-.446 1-1 1h-1z"/><path d="M15 15v6h1v-2h2v-1h-2v-2h3v-1h-3.5z"/></g></svg>