<svg version="1.0" viewBox="0 0 24 24" xmlns="http://www.w3.org/2000/svg"><path d="M4.5 0A2.495 2.495 0 0 0 2 2.5v19C2 22.885 3.115 24 4.5 24h15c1.385 0 2.5-1.115 2.5-2.5v-14L14.5 0z" fill="#396247"/><path d="M21 8v13c0 1.108-.892 2-2 2H5c-1.108 0-2-.892-2-2V3c0-1.108.892-2 2-2h9" fill="#73c48f"/><path d="M21 9h-6c-1.108 0-2-.892-2-2V1h1l7 7z" fill="#396247" fill-opacity=".502"/><path d="M21 8h-5c-1.108 0-2-.892-2-2V1" fill="#8adba6"/><g fill="#f6f6f6"><path d="m116-1532.6-8 1v10.75l8 4.25 8-4.25v-10.75zm0 2 6 .75v8l-6 3-6-3v-8z" color="#000" style="font-feature-settings:normal;font-variant-alternates:normal;font-variant-caps:normal;font-variant-ligatures:normal;font-variant-numeric:normal;font-variant-position:normal;isolation:auto;mix-blend-mode:normal;shape-padding:0;text-decoration-color:#000;text-decoration-line:none;text-decoration-style:solid;text-indent:0;text-orientation:mixed;text-transform:none;white-space:normal" transform="matrix(.5 0 0 .5 -46 778.31)"/><path d="m12 14.01-2 .375v2.5l2 1.25 2-1.25v-2.5z"/></g></svg>