<svg version="1.0" viewBox="0 0 24 24" xmlns="http://www.w3.org/2000/svg"><g transform="translate(-56 40)"><rect x="56" y="-38" width="24" height="20" ry="2" fill="#245c63"/><rect x="57" y="-37" width="22" height="18" ry="1.5" fill="#48b9c7"/><rect x="59" y="-35" width="18" height="14" ry="1" fill="#f6f6f6"/><path d="M68.262-23.675h1.856L68-31h-2l-2.463 7.325h1.813l.373-1.59h2.155zm-2.24-2.859.779-3.264.778 3.264z" fill="#ff7c00" stroke-width=".125"/><path d="M71.46-32.325c-.587 0-.992.416-.992.96s.405.96.992.96 1.003-.416 1.003-.96-.416-.96-1.003-.96zm.853 2.987h-1.685v5.664h1.685z" fill="#ff7c00" stroke-width=".125"/></g><style>.st0{fill:#261300}.st1{fill:#ff7c00}</style></svg>