<svg version="1.0" viewBox="0 0 24 24" xmlns="http://www.w3.org/2000/svg"><g transform="translate(-56 -260)"><rect x="56" y="261" width="24" height="22" ry="2.5" fill="#ffcc85"/><path d="M70 266a2 2 0 0 0-2 2v6.188a2.927 2.927 0 0 0-1-.188 3 3 0 1 0 3 3v-7h6v4.188a2.927 2.927 0 0 0-1-.188 3 3 0 1 0 3 3v-9a2 2 0 0 0-2-2z" fill-opacity=".196"/><path d="M70 265a2 2 0 0 0-2 2v6.188a2.927 2.927 0 0 0-1-.188 3 3 0 1 0 3 3v-7h6v4.188a2.927 2.927 0 0 0-1-.188 3 3 0 1 0 3 3v-9a2 2 0 0 0-2-2z" fill="#fff"/><rect x="56" y="261" width="6" height="22" ry="2.5" fill="#faa41a"/><rect x="59" y="261" width="3" height="22" ry="0" fill="#faa41a"/><path d="M58.5 261a2.495 2.495 0 0 0-2.5 2.5v17c0 1.385 1.115 2.5 2.5 2.5h19c1.385 0 2.5-1.115 2.5-2.5v-17c0-1.385-1.115-2.5-2.5-2.5zm.5 1h18c1.108 0 2 .892 2 2v16c0 1.108-.892 2-2 2H59c-1.108 0-2-.892-2-2v-16c0-1.108.892-2 2-2z" fill-opacity=".502"/></g></svg>