<svg version="1.0" viewBox="0 0 24 24" xmlns="http://www.w3.org/2000/svg"><path d="M4.5 0A2.495 2.495 0 0 0 2 2.5v19C2 22.885 3.115 24 4.5 24h15c1.385 0 2.5-1.115 2.5-2.5v-14L14.5 0z" fill="#6f6f6f"/><path d="M21 8v13c0 1.108-.892 2-2 2H5c-1.108 0-2-.892-2-2V3c0-1.108.892-2 2-2h9" fill="#ececec"/><path d="M21 9h-6c-1.108 0-2-.892-2-2V1h1l7 7z" fill="#6f6f6f" fill-opacity=".502"/><path d="M21 8h-5c-1.108 0-2-.892-2-2V1" fill="#fafafa"/><path d="M3 9v2a12 12 0 0 1 12 12h2A14 14 0 0 0 3 9zm0 4v2a8 8 0 0 1 8 8h2A10 10 0 0 0 3 13zm0 4v2a4 4 0 0 1 4 4h2a6 6 0 0 0-6-6zm0 4c0 1.108.892 2 2 2a2 2 0 0 0-2-2z" fill="#b0b0b0"/></svg>