<svg version="1.0" viewBox="0 0 24 24" xmlns="http://www.w3.org/2000/svg"><path d="M4.5 0A2.495 2.495 0 0 0 2 2.5v19C2 22.885 3.115 24 4.5 24h15c1.385 0 2.5-1.115 2.5-2.5v-14L14.5 0z" fill="#6f6f6f"/><path d="M21 8v13c0 1.108-.892 2-2 2H5c-1.108 0-2-.892-2-2V3c0-1.108.892-2 2-2h9" fill="#ececec"/><path d="M21 9h-6c-1.108 0-2-.892-2-2V1h1l7 7z" fill="#6f6f6f" fill-opacity=".502"/><path d="M21 8h-5c-1.108 0-2-.892-2-2V1" fill="#fafafa"/><path d="m68-5726.6-.219.11-3 1.53-.281.141v4.625l.281.14 3 1.47.219.109.219-.11 3-1.5.281-.14v-4.625l-.281-.14-3-1.5zm0 1.125 2.5 1.25v3.375l-2.5 1.25v-3.375l-.219-.11-2.265-1.14z" color="#000" fill="#888" style="text-decoration-line:none;text-indent:0;text-transform:none" transform="translate(-56 5740)"/><path d="m12 17.1 2.5-1.25v3.375l-2.5 1.25z" fill="#888" opacity=".5"/></svg>