<svg version="1.0" viewBox="0 0 24 24" xmlns="http://www.w3.org/2000/svg"><g transform="translate(-56 2140)"><rect x="57" y="-2139" width="22" height="22" ry="1.5" fill="#a19282"/><rect x="58" y="-2138" width="20" height="17" ry="1" fill="#d7c3ad"/><g fill="#635749"><path d="M61-2127h1v-2h2v2h1v-4a2 2 0 0 0-2-2 2 2 0 0 0-2 2zm1-3v-1a1 1 0 0 1 1-1 1 1 0 0 1 1 1v1z"/><path d="M70-2131a2 2 0 0 0-2-2h-2v6h1v-2h1a2 2 0 0 0 2-2zm-1 0a1 1 0 0 1-1 1h-1v-2h1a1 1 0 0 1 1 1z"/><path d="M71-2133v6h1v-3l.082-.082L74-2127h1l-2.305-3.695L75-2133h-1.11l-1.89 1.89v-1.89z"/></g></g></svg>