<svg version="1.0" viewBox="0 0 24 24" xmlns="http://www.w3.org/2000/svg"><g transform="translate(-56 2440)"><rect x="57" y="-2439" width="22" height="22" ry="1.5" fill="#a19282"/><rect x="58" y="-2438" width="20" height="17" ry="1" fill="#d7c3ad"/><g fill="#635749"><path d="M61-2427h1v-2h2v2h1v-4a2 2 0 0 0-2-2 2 2 0 0 0-2 2zm1-3v-1a1 1 0 0 1 1-1 1 1 0 0 1 1 1v1z"/><path d="M73-2433c-1.108 0-2 .892-2 2v2c0 1.108.892 2 2 2s2-.892 2-2h-1c0 .554-.446 1-1 1s-1-.446-1-1v-2c0-.554.446-1 1-1s1 .446 1 1h1c0-1.108-.892-2-2-2z"/><path d="M66-2427h1v-2h1l1 2h1l-.926-2.314A2 2 0 0 0 70-2431a2 2 0 0 0-2-2h-2v2zm1-3v-2h1a1 1 0 0 1 1 1 1 1 0 0 1-1 1z"/></g></g></svg>