<svg version="1.0" viewBox="0 0 24 24" xmlns="http://www.w3.org/2000/svg"><g transform="translate(-56 1840)"><rect x="57" y="-1839" width="22" height="22" ry="1.5" fill="#a19282"/><rect x="58" y="-1838" width="20" height="17" ry="1" fill="#d7c3ad"/><path d="M69-1831a2 2 0 0 0-2-2h-2v6h1v-2h1a2 2 0 0 0 2-2zm-1 0a1 1 0 0 1-1 1h-1v-2h1a1 1 0 0 1 1 1z" fill="#635749"/><path d="M60-1827h1v-2h1l1 2h1l-.926-2.314A2 2 0 0 0 64-1831a2 2 0 0 0-2-2h-2v2zm1-3v-2h1a1 1 0 0 1 1 1 1 1 0 0 1-1 1z" fill="#635749"/><path d="M70-1827v-6h1l1.5 4 1.5-4h1v6h-1v-3.5l-1 3.5h-1l-1-3.5v3.5z" fill="#635749"/></g></svg>