<svg version="1.0" viewBox="0 0 24 24" xmlns="http://www.w3.org/2000/svg"><g transform="translate(-56 -260)"><rect x="57" y="261" width="22" height="22" ry="1.5" fill="#a19282"/><rect x="58" y="262" width="20" height="17" ry="1" fill="#d7c3ad"/></g><path d="M15 13h1v-2h1l1 2h1l-.926-2.314A2 2 0 0 0 19 9a2 2 0 0 0-2-2h-2v2zm1-3V8h1a1 1 0 0 1 1 1 1 1 0 0 1-1 1z" fill="#635749"/><path d="M5 13h1v-2h1l1 2h1l-.926-2.314A2 2 0 0 0 9 9a2 2 0 0 0-2-2H5v2zm1-3V8h1a1 1 0 0 1 1 1 1 1 0 0 1-1 1z" fill="#635749"/><path d="M10 13h1v-2h2v2h1V9a2 2 0 0 0-2-2 2 2 0 0 0-2 2zm1-3V9a1 1 0 0 1 1-1 1 1 0 0 1 1 1v1z" fill="#635749"/></svg>