<svg version="1.0" viewBox="0 0 24 24" xmlns="http://www.w3.org/2000/svg"><g transform="translate(-56 1540)"><rect x="57" y="-1539" width="22" height="22" ry="1.5" fill="#a19282"/><rect x="58" y="-1538" width="20" height="17" ry="1" fill="#d7c3ad"/><g fill="#635749"><path d="M71-1533h2a1.5 1.5 0 0 1 1.197 2.4A2 2 0 0 1 73-1527h-2v-2zm1 1v1h1a.5.5 0 0 0 0-1zm0 2v2h1a1 1 0 1 0 0-2z"/><path d="M66-1533h4v1h-4z"/><path d="M66-1528h4v1h-4z"/><path d="M66-1533h1v6h-1z"/><path d="M66.5-1531H69v1h-2.5z"/><path d="M61-1533v6h2c1.108 0 2-.892 2-2v-2c0-1.108-.892-2-2-2h-1.5zm1 1h1c.554 0 1 .446 1 1v2c0 .554-.446 1-1 1h-1z"/></g></g></svg>