<svg version="1.0" viewBox="0 0 24 24" xmlns="http://www.w3.org/2000/svg"><g transform="translate(-56 3340)"><rect x="57" y="-3339" width="22" height="22" ry="1.5" fill="#a19282"/><rect x="58" y="-3338" width="20" height="17" ry="1" fill="#d7c3ad"/><g fill="#635749"><path d="M65-3327h1v-2h2v2h1v-4a2 2 0 0 0-2-2 2 2 0 0 0-2 2zm1-3v-1a1 1 0 0 1 1-1 1 1 0 0 1 1 1v1z"/><path d="M70-3327h1v-2h1l1 2h1l-.926-2.314A2 2 0 0 0 74-3331a2 2 0 0 0-2-2h-2v2zm1-3v-2h1a1 1 0 0 1 1 1 1 1 0 0 1-1 1z"/><path d="M62-3333v1h1v5h1v-5h1v-1z"/></g></g></svg>