<svg version="1.0" viewBox="0 0 24 24" xmlns="http://www.w3.org/2000/svg"><path d="M4.5 0A2.495 2.495 0 0 0 2 2.5v19C2 22.885 3.115 24 4.5 24h15c1.385 0 2.5-1.115 2.5-2.5v-14L14.5 0z" fill="#6f6f6f"/><path d="M21 8v13c0 1.108-.892 2-2 2H5c-1.108 0-2-.892-2-2V3c0-1.108.892-2 2-2h9" fill="#ececec"/><path d="M21 9h-6c-1.108 0-2-.892-2-2V1h1l7 7z" fill="#6f6f6f" fill-opacity=".502"/><path d="M21 8h-5c-1.108 0-2-.892-2-2V1" fill="#fafafa"/><path d="M8 2a1 1 0 0 0-1 1v3.094A1.458 1.458 0 0 0 6.5 6 1.5 1.5 0 1 0 8 7.5V4h3v2.094A1.458 1.458 0 0 0 10.5 6 1.5 1.5 0 1 0 12 7.5V3a1 1 0 0 0-1-1z" fill="#474341" fill-opacity=".69"/><path fill="#474341" fill-opacity=".69" d="M8 11h11v2H8z"/><path fill="#474341" fill-opacity=".69" d="M8 15h11v2H8z"/><path fill="#474341" fill-opacity=".69" d="M8 19h11v2H8z"/><path fill="#474341" fill-opacity=".69" d="M4 11h2v2H4z"/><path fill="#474341" fill-opacity=".69" d="M4 15h2v2H4z"/><path fill="#474341" fill-opacity=".69" d="M4 19h2v2H4z"/></svg>