<svg version="1.0" viewBox="0 0 24 24" xmlns="http://www.w3.org/2000/svg"><path d="M4.5 0A2.495 2.495 0 0 0 2 2.5v19C2 22.885 3.115 24 4.5 24h15c1.385 0 2.5-1.115 2.5-2.5v-14L14.5 0z" fill="#6f6f6f"/><path d="M21 8v13c0 1.108-.892 2-2 2H5c-1.108 0-2-.892-2-2V3c0-1.108.892-2 2-2h9" fill="#ececec"/><path d="M21 9h-6c-1.108 0-2-.892-2-2V1h1l7 7z" fill="#6f6f6f" fill-opacity=".502"/><path d="M21 8h-5c-1.108 0-2-.892-2-2V1" fill="#fafafa"/><g transform="translate(-12.001 790)"><path d="M23.001-779s-2.042-.107-2 1v1h-1c-1.108 0-1 2-1 2v2c0 2 1 2 1 2h7v-7c0-1-2-1-2-1z" fill="#3776ab"/><path d="M25.001-769c2 0 2-1 2-1v-1h1c1 0 1-2 1-2v-2c0-2-1-2-1-2h-1v2c0 1-1 1-1 1h-4c-1 0-1 2-1 2v2c0 1.108 2 1 2 1z" fill="#ffd343"/><circle cx="22.501" cy="-777.5" r=".5" fill="#fff"/><circle cx="25.501" cy="-770.5" r=".5" fill="#fff"/></g></svg>