<svg version="1.0" viewBox="0 0 24 24" xmlns="http://www.w3.org/2000/svg"><path d="M4.5 0A2.495 2.495 0 0 0 2 2.5v19C2 22.885 3.115 24 4.5 24h15c1.385 0 2.5-1.115 2.5-2.5v-14L14.5 0z" fill="#6f6f6f"/><path d="M21 8v13c0 1.108-.892 2-2 2H5c-1.108 0-2-.892-2-2V3c0-1.108.892-2 2-2h9" fill="#ececec"/><path d="M21 9h-6c-1.108 0-2-.892-2-2V1h1l7 7z" fill="#6f6f6f" fill-opacity=".502"/><path d="M21 8h-5c-1.108 0-2-.892-2-2V1" fill="#fafafa"/><path d="M13.792 16.7s.384.116.607.229c.077.039.21.117.307.22.095.1.141.202.141.202l1.53 2.671h-3.363l-1.143-2.146s-.234-.402-.378-.519c-.12-.097-.172-.126-.29-.132h-.581v2.796h-3v-7.999h5.575c.5 0 2.566.412 2.566 2.294 0 1.882-1.971 2.383-1.971 2.383zm-3.17-3.177v2h1.374s.626 0 .687-.979c.064-1.02-.688-1.02-.688-1.02z" fill="#3f51b5" fill-rule="evenodd"/></svg>