<svg version="1.0" viewBox="0 0 24 24" xmlns="http://www.w3.org/2000/svg"><path d="M4.5 0A2.495 2.495 0 0 0 2 2.5v19C2 22.885 3.115 24 4.5 24h15c1.385 0 2.5-1.115 2.5-2.5v-14L14.5 0z" fill="#6f6f6f"/><path d="M21 8v13c0 1.108-.892 2-2 2H5c-1.108 0-2-.892-2-2V3c0-1.108.892-2 2-2h9" fill="#ececec"/><path d="M21 9h-6c-1.108 0-2-.892-2-2V1h1l7 7z" fill="#6f6f6f" fill-opacity=".502"/><path d="M21 8h-5c-1.108 0-2-.892-2-2V1" fill="#fafafa"/><path d="M16.061 17.6q-.047 1.015-.548 1.797-.5.775-1.41 1.202-.901.428-2.063.428-1.918 0-3.02-1.249-1.102-1.25-1.102-3.527v-.481q0-1.43.494-2.499.501-1.075 1.437-1.656.935-.588 2.164-.588 1.77 0 2.846.935 1.075.929 1.222 2.565h-2.338q-.027-.888-.448-1.276-.42-.387-1.282-.387-.875 0-1.283.655-.407.654-.427 2.09v.688q0 1.557.387 2.225.394.668 1.35.668.808 0 1.235-.38.428-.382.455-1.21z" fill="#3f51b5"/></svg>