<svg version="1.0" viewBox="0 0 24 24" xmlns="http://www.w3.org/2000/svg"><path d="M4.5 0A2.495 2.495 0 0 0 2 2.5v19C2 22.885 3.115 24 4.5 24h15c1.385 0 2.5-1.115 2.5-2.5v-14L14.5 0z" fill="#6f6f6f"/><path d="M21 8v13c0 1.108-.892 2-2 2H5c-1.108 0-2-.892-2-2V3c0-1.108.892-2 2-2h9" fill="#ececec"/><path d="M21 9h-6c-1.108 0-2-.892-2-2V1h1l7 7z" fill="#6f6f6f" fill-opacity=".502"/><path d="M21 8h-5c-1.108 0-2-.892-2-2V1" fill="#fafafa"/><path d="m8.5 12-2 3h3zm1.166 0L10 14l1.166-2zM12 12l-1.5 3h3zm.834 0L14 14l.334-2zm2.666 0-1 3h3zm-9 4 5 5-2-5zm4 0 1.5 4 1.5-4zm4 0-2 5 5-5z" fill="#f44336" fill-rule="evenodd"/></svg>