<svg version="1.0" viewBox="0 0 24 24" xmlns="http://www.w3.org/2000/svg"><path d="M4.5 0A2.495 2.495 0 0 0 2 2.5v19C2 22.885 3.115 24 4.5 24h15c1.385 0 2.5-1.115 2.5-2.5v-14L14.5 0z" fill="#6f6f6f"/><path d="M21 8v13c0 1.108-.892 2-2 2H5c-1.108 0-2-.892-2-2V3c0-1.108.892-2 2-2h9" fill="#ececec"/><path d="M21 9h-6c-1.108 0-2-.892-2-2V1h1l7 7z" fill="#6f6f6f" fill-opacity=".502"/><path d="M21 8h-5c-1.108 0-2-.892-2-2V1" fill="#fafafa"/><path d="m7.591 11.01.802 9 3.601 1 3.611-1 .803-9zm1.64 1.84h5.53l-.026.296-.05.56-.023.248h-4.224l.101 1.13h4.023l-.027.297-.26 2.906-.016.186-2.26.626-.004.002-2.261-.628-.155-1.733h1.108l.079.88 1.229.332h.001l1.231-.333.128-1.431H9.53l-.272-3.042-.026-.296z" fill="#e44d26"/><path d="m7.591 11.01.802 9 3.601 1H12V19.1l-.005.002-2.262-.628-.154-1.733h1.108l.079.88 1.229.332.005-.001v-1.763H9.53l-.272-3.042-.026-.296H12v-1.84H7.59zm2.847 2.944.101 1.13H12v-1.13h-.003z" opacity=".1"/></svg>