<svg version="1.0" viewBox="0 0 24 24" xmlns="http://www.w3.org/2000/svg"><path d="M4.5 0A2.495 2.495 0 0 0 2 2.5v19C2 22.885 3.115 24 4.5 24h15c1.385 0 2.5-1.115 2.5-2.5v-14L14.5 0z" fill="#6f6f6f"/><path d="M21 8v13c0 1.108-.892 2-2 2H5c-1.108 0-2-.892-2-2V3c0-1.108.892-2 2-2h9" fill="#ececec"/><path d="M21 9h-6c-1.108 0-2-.892-2-2V1h1l7 7z" fill="#6f6f6f" fill-opacity=".502"/><path d="M21 8h-5c-1.108 0-2-.892-2-2V1" fill="#fafafa"/><g clip-rule="evenodd" fill="#dd4f37" fill-rule="evenodd"><path d="M10.425 19.279s-.459.266.326.356c.951.109 1.437.093 2.485-.105 0 0 .276.173.66.322-2.349 1.007-5.316-.058-3.471-.573z"/><path d="M10.137 17.965s-.514.38.272.462c1.016.105 1.818.113 3.206-.154 0 0 .192.195.494.301-2.84.83-6.004.065-3.972-.61z"/><path d="M12.557 15.736c.58.667-.152 1.266-.152 1.266s1.47-.758.795-1.709c-.63-.886-1.114-1.326 1.503-2.844 0 0-4.108 1.026-2.146 3.287z"/><path d="M15.665 20.25s.339.28-.374.496c-1.356.411-5.644.535-6.835.017-.428-.187.375-.445.627-.5.264-.056.414-.046.414-.046-.476-.335-3.078.659-1.321.944 4.79.776 8.73-.35 7.488-.91z"/><path d="M10.645 16.604s-2.18.518-.772.706c.595.08 1.78.061 2.885-.031.903-.076 1.809-.238 1.809-.238s-.318.136-.549.293c-2.215.583-6.493.312-5.261-.284 1.041-.504 1.888-.446 1.888-.446z"/><path d="M14.558 18.79c2.251-1.17 1.21-2.294.483-2.142-.177.037-.257.069-.257.069s.066-.104.192-.148c1.438-.506 2.543 1.49-.463 2.28 0 0 .034-.031.045-.059z"/><path d="M13.2 9.998s1.247 1.248-1.182 3.165c-1.949 1.54-.445 2.416-.001 3.419-1.137-1.026-1.972-1.93-1.412-2.77.822-1.234 3.098-1.832 2.595-3.814z"/><path d="M10.867 21.96c2.16.139 5.48-.076 5.558-1.099 0 0-.151.388-1.786.696-1.845.347-4.12.306-5.469.084 0 0 .276.228 1.696.32z"/></g></svg>