<svg version="1.0" viewBox="0 0 24 24" xmlns="http://www.w3.org/2000/svg"><path d="M4.5 0A2.495 2.495 0 0 0 2 2.5v19C2 22.885 3.115 24 4.5 24h15c1.385 0 2.5-1.115 2.5-2.5v-14L14.5 0z" fill="#6f6f6f"/><path d="M21 8v13c0 1.108-.892 2-2 2H5c-1.108 0-2-.892-2-2V3c0-1.108.892-2 2-2h9" fill="#ececec"/><path d="M21 9h-6c-1.108 0-2-.892-2-2V1h1l7 7z" fill="#6f6f6f" fill-opacity=".502"/><path d="M21 8h-5c-1.108 0-2-.892-2-2V1" fill="#fafafa"/><g transform="translate(-52 6701)"><path fill="#64b5f6" d="M60-6685h8v7h-8z"/><g fill="#1e88e5"><circle cx="60.5" cy="-6687.5" r="1.5"/><circle cx="67.5" cy="-6687.5" r="1.5"/></g><circle cx="64" cy="-6685" r="4" fill="#64b5f6"/><g transform="matrix(.8 0 0 .8 12.2 -1337.4)"><circle cx="62.25" cy="-6685.8" r="1.25" fill="#fefefe"/><circle cx="61.625" cy="-6686.4" r=".625" fill="#333"/></g><path fill="#fff" d="M64-6683.5h-1v1.5h1z"/><path fill="#f2f2f2" d="M65-6683.5h-1v1.5h1z"/><circle cx="64.75" cy="-6683.2" r=".75" fill="#1e88e5"/><circle cx="63.25" cy="-6683.2" r=".75" fill="#1e88e5"/><path fill="#1e88e5" d="M63.25-6684h1.5v1h-1.5z"/><ellipse cx="64" cy="-6684" rx=".75" ry=".5" fill="#3e2723"/><g transform="matrix(.8 0 0 .8 16.2 -1337.4)"><circle cx="62.25" cy="-6685.8" r="1.25" fill="#fefefe"/><circle cx="61.625" cy="-6686.4" r=".625" fill="#333"/></g></g></svg>