<svg version="1.0" viewBox="0 0 24 24" xmlns="http://www.w3.org/2000/svg"><g transform="translate(-56 40)"><path d="M60.5-40a2.495 2.495 0 0 0-2.5 2.5v19c0 1.385 1.115 2.5 2.5 2.5h15c1.385 0 2.5-1.115 2.5-2.5v-14L70.5-40z" fill="#6f6f6f"/><path d="M77-32v13c0 1.108-.892 2-2 2H61c-1.108 0-2-.892-2-2v-18c0-1.108.892-2 2-2h9" fill="#ececec"/><path d="M77-31h-6c-1.108 0-2-.892-2-2v-6h1l7 7z" fill="#6f6f6f" fill-opacity=".502"/><path d="M77-32h-5c-1.108 0-2-.892-2-2v-5" fill="#fafafa"/><path d="m68-28-6-6v2l4 4-4 4v2z" fill="#6f6f6f" fill-opacity=".784"/><rect x="66" y="-24" width="10" height="2" ry="1" fill="#6f6f6f" fill-opacity=".784"/></g></svg>