<svg version="1.0" viewBox="0 0 24 24" xmlns="http://www.w3.org/2000/svg" xmlns:xlink="http://www.w3.org/1999/xlink"><defs><linearGradient id="b" x1="500" x2="-.097" y1="579.11" y2="1079.2" gradientTransform="translate(.097 -578.99) scale(.9998)" gradientUnits="userSpaceOnUse" xlink:href="#a"/><linearGradient id="a" x1="500" x2="-.097" y1="579.11" y2="1079.2" gradientTransform="translate(.097 -578.99) scale(.9998)" gradientUnits="userSpaceOnUse"><stop stop-color="#E44857" offset=".003"/><stop stop-color="#C711E1" offset=".469"/><stop stop-color="#7F52FF" offset="1"/></linearGradient></defs><path d="M4.5 0A2.495 2.495 0 0 0 2 2.5v19C2 22.885 3.115 24 4.5 24h15c1.385 0 2.5-1.115 2.5-2.5v-14L14.5 0z" fill="#6f6f6f"/><path d="M21 8v13c0 1.108-.892 2-2 2H5c-1.108 0-2-.892-2-2V3c0-1.108.892-2 2-2h9" fill="#ececec"/><path d="M21 9h-6c-1.108 0-2-.892-2-2V1h1l7 7z" fill="#6f6f6f" fill-opacity=".502"/><path d="M21 8h-5c-1.108 0-2-.892-2-2V1" fill="#fafafa"/><path transform="matrix(.016 0 0 .016 8 12)" fill="url(#b)" style="fill:url(#a)" d="M0 500V0h500L250 250l250 250z"/></svg>