<svg version="1.0" viewBox="0 0 24 24" xmlns="http://www.w3.org/2000/svg"><path d="M4.5 0A2.495 2.495 0 0 0 2 2.5v19C2 22.885 3.115 24 4.5 24h15c1.385 0 2.5-1.115 2.5-2.5v-14L14.5 0z" fill="#6f6f6f"/><path d="M21 8v13c0 1.108-.892 2-2 2H5c-1.108 0-2-.892-2-2V3c0-1.108.892-2 2-2h9" fill="#ececec"/><path d="M21 9h-6c-1.108 0-2-.892-2-2V1h1l7 7z" fill="#6f6f6f" fill-opacity=".502"/><path d="M21 8h-5c-1.108 0-2-.892-2-2V1" fill="#fafafa"/><g fill="#1976d2"><path d="M12 10a.155.155 0 0 0-.135.07l-.285.463-.135.014-.37-.399c-.076-.08-.228-.049-.266.055l-.192.506-.13.04-.44-.317c-.09-.064-.23-.01-.248.103l-.088.536-.121.064-.494-.225c-.1-.046-.229.04-.225.15l.02.543-.104.086-.531-.125c-.108-.025-.217.084-.191.192l.125.53-.086.104-.543-.019c-.11-.01-.196.126-.15.227l.224.494-.065.12-.535.087c-.109.017-.167.16-.103.25l.316.44-.039.13-.508.19c-.103.038-.133.192-.052.268l.398.367-.016.136-.46.288c-.094.058-.094.211 0 .27l.46.284.016.137-.398.37c-.081.074-.05.226.052.265l.508.19.04.13-.317.441c-.065.09-.005.233.103.25l.535.086.065.122-.225.494c-.046.1.041.229.15.224l.544-.02.086.104-.125.531c-.026.108.083.217.191.192l.531-.125.104.086-.02.543c-.004.11.124.194.225.148l.494-.223.121.062.088.535c.018.11.159.168.248.104l.44-.316.13.039.192.507c.038.103.188.134.263.053l.371-.398.137.016.285.46c.058.094.214.094.272 0l.283-.46.137-.016.37.398c.076.081.228.05.266-.053l.19-.507.13-.04.44.317c.09.064.233.01.25-.104l.086-.535.121-.062.494.223c.1.046.229-.037.225-.148l-.02-.543.104-.086.531.125c.108.025.217-.084.192-.192l-.125-.531.086-.104.543.02c.11.01.196-.124.15-.224l-.225-.494.065-.122.535-.086c.109-.017.168-.16.103-.25l-.316-.44.04-.132.507-.19c.103-.037.133-.19.053-.265l-.399-.369.016-.137.46-.285c.094-.058.094-.211 0-.27l-.46-.287-.016-.136.399-.367c.08-.075.05-.23-.053-.268l-.508-.19-.039-.13.316-.44c.065-.089.006-.232-.103-.25l-.535-.088-.065-.119.225-.494c.046-.1-.04-.23-.15-.227l-.543.02-.086-.104.125-.531c.025-.108-.084-.217-.192-.192l-.53.125-.105-.086.02-.543c.005-.11-.124-.196-.225-.15l-.494.225-.12-.064-.085-.536c-.018-.108-.162-.167-.252-.103l-.44.316-.13-.039-.19-.506c-.038-.103-.19-.134-.265-.055l-.371.399-.135-.014-.285-.463A.159.159 0 0 0 12 10zm0 1.5a4 4 0 0 1 4 4 4 4 0 0 1-4 4 4 4 0 0 1-4-4 4 4 0 0 1 4-4z"/><path d="M8 13v1h1v3H8v1h4v-1h-1v-1c1 0 1 2 2 2h2c1 0 1-2 1-2h-1s0 1-1 1c-.471 0-1-1-1-1h.5c.831 0 1.5-.669 1.5-1.5s-.669-1.5-1.5-1.5H12zm3 1h1.5a.499.499 0 1 1 0 1H11z"/></g></svg>