<svg version="1.0" viewBox="0 0 24 24" xmlns="http://www.w3.org/2000/svg"><path d="M4.5 0A2.495 2.495 0 0 0 2 2.5v19C2 22.885 3.115 24 4.5 24h15c1.385 0 2.5-1.115 2.5-2.5v-14L14.5 0z" fill="#6f6f6f"/><path d="M21 8v13c0 1.108-.892 2-2 2H5c-1.108 0-2-.892-2-2V3c0-1.108.892-2 2-2h9" fill="#ececec"/><path d="M21 9h-6c-1.108 0-2-.892-2-2V1h1l7 7z" fill="#6f6f6f" fill-opacity=".502"/><path d="M21 8h-5c-1.108 0-2-.892-2-2V1" fill="#fafafa"/><path d="m7.273 12 2.454 4.5L7.273 21h1.5l2.454-4.5L8.773 12zm2.5 0 2.454 4.5L9.773 21h1.5l1.704-3.125L14.681 21h1.5l-1.854-3.4L14 17l-.273-.5-2.454-4.5zm4.136 3 .546 1h2.272v-1zm1.09 2 .547 1h1.181v-1z" fill="#5f5088" fill-rule="evenodd"/></svg>