<svg version="1.0" viewBox="0 0 24 24" xmlns="http://www.w3.org/2000/svg"><g transform="translate(-56 -260)"><rect x="56" y="262" width="24" height="20" ry="2" fill="#782e11"/><rect x="57" y="263" width="22" height="18" ry="1.5" fill="#f15d22"/><path d="M58.5 263c-.831 0-1.5.669-1.5 1.5v2.5h22v-2.5c0-.831-.669-1.5-1.5-1.5z"/><path d="m60 263-2 4h2l2-4z" fill="#f7f7f7"/><path d="m65 263-2 4h2l2-4z" fill="#f7f7f7"/><path d="m70 263-2 4h2l2-4z" fill="#f7f7f7"/><path d="m75 263-2 4h2l2-4z" fill="#f7f7f7"/><g transform="matrix(.75 0 0 .75 -18.855 88.024)" fill="#fff"><path d="m120.47 249.3 4.667-2.667v9.334l-4.667-3.334z" filter="url(#filter7554)"/><rect x="109.14" y="246.64" width="12" height="8" ry="2" filter="url(#filter7554)"/><path d="M110.47 239.958a4 4 0 0 0-4 4 4 4 0 0 0 4 4 4 4 0 0 0 4-4 4 4 0 0 0-4-4zm0 2.666a1.333 1.333 0 0 1 1.333 1.334 1.333 1.333 0 0 1-1.333 1.333 1.333 1.333 0 0 1-1.334-1.333 1.333 1.333 0 0 1 1.334-1.334z"/><path d="M119.803 239.958a4 4 0 0 0-4 4 4 4 0 0 0 4 4 4 4 0 0 0 4-4 4 4 0 0 0-4-4zm0 2.666a1.333 1.333 0 0 1 1.333 1.334 1.333 1.333 0 0 1-1.333 1.333 1.333 1.333 0 0 1-1.334-1.333 1.333 1.333 0 0 1 1.334-1.334z"/></g></g></svg>