<svg version="1.0" viewBox="0 0 24 24" xmlns="http://www.w3.org/2000/svg"><g transform="translate(-56 -260)"><path d="M60.5 260a2.495 2.495 0 0 0-2.5 2.5v19c0 1.385 1.115 2.5 2.5 2.5h15c1.385 0 2.5-1.115 2.5-2.5v-14l-7.5-7.5z" fill="#1f285a"/><path d="M77 268v13c0 1.108-.892 2-2 2H61c-1.108 0-2-.892-2-2v-18c0-1.108.892-2 2-2h9" fill="#3f51b5"/><path d="M77 269h-6c-1.108 0-2-.892-2-2v-6h1l7 7z" fill="#1f285a" fill-opacity=".502"/><path d="M77 268h-5c-1.108 0-2-.892-2-2v-5" fill="#6a7ce0"/><rect x="61" y="271" width="14" height="1" ry="0" fill="#fff"/><rect x="61" y="274" width="14" height="1" ry="0" fill="#fff"/><rect x="61" y="280" width="9" height="1" ry="0" fill="#fff"/><rect x="61" y="277" width="14" height="1" ry="0" fill="#fff"/></g></svg>