<svg version="1.0" viewBox="0 0 24 24" xmlns="http://www.w3.org/2000/svg"><path d="M4.5 0A2.495 2.495 0 0 0 2 2.5v19C2 22.885 3.115 24 4.5 24h15c1.385 0 2.5-1.115 2.5-2.5v-14L14.5 0z" fill="#245c63"/><path d="M21 8v13c0 1.108-.892 2-2 2H5c-1.108 0-2-.892-2-2V3c0-1.108.892-2 2-2h9" fill="#48b9c7"/><path d="M21 9h-6c-1.108 0-2-.892-2-2V1h1l7 7z" fill="#245c63" fill-opacity=".502"/><path d="M21 8h-5c-1.108 0-2-.892-2-2V1" fill="#67d8e6"/><path d="M68-1831a3 3 0 1 1 0 6 3 3 0 0 1 0-6zm0 8c6 0 6 4.003 6 4.003v1H62v-1s0-4 6-4.003z" color="#000" fill="#fff" style="text-decoration-line:none;text-indent:0;text-transform:none" transform="translate(-56 1840)"/></svg>