<svg version="1.0" viewBox="0 0 24 24" xmlns="http://www.w3.org/2000/svg"><g transform="translate(-56 340)"><path d="M60.5-340a2.495 2.495 0 0 0-2.5 2.5v19c0 1.385 1.115 2.5 2.5 2.5h15c1.385 0 2.5-1.115 2.5-2.5v-14l-7.5-7.5z" fill="#671d00"/><path d="M77-332v13c0 1.108-.892 2-2 2H61c-1.108 0-2-.892-2-2v-18c0-1.108.892-2 2-2h9" fill="#cf3b00"/><path d="M77-331h-6c-1.108 0-2-.892-2-2v-6h1l7 7z" fill="#671d00" fill-opacity=".502"/><path d="M77-332h-5c-1.108 0-2-.892-2-2v-5" fill="#f15d22"/><rect x="61" y="-319" width="9" height="1" ry="0" fill="#fff"/><rect x="61" y="-322" width="14" height="1" ry="0" fill="#fff"/><path d="M61-327a3 3 0 0 1 3-3 3 3 0 0 1 3 3 3 3 0 0 1-3 3v-3z" fill="#fffffe"/><rect x="69" y="-329" width="6" height="5" ry="0" fill="#fff"/></g></svg>