<?xml version="1.0" encoding="UTF-8" standalone="no"?>
<svg
   xmlns:dc="http://purl.org/dc/elements/1.1/"
   xmlns:cc="http://creativecommons.org/ns#"
   xmlns:rdf="http://www.w3.org/1999/02/22-rdf-syntax-ns#"
   xmlns:svg="http://www.w3.org/2000/svg"
   xmlns="http://www.w3.org/2000/svg"
   xmlns:sodipodi="http://sodipodi.sourceforge.net/DTD/sodipodi-0.dtd"
   xmlns:inkscape="http://www.inkscape.org/namespaces/inkscape"
   width="24"
   height="24"
   version="1.1"
   id="svg12"
   sodipodi:docname="user-red-desktop.svg"
   inkscape:version="0.92.2 (5c3e80d, 2017-08-06)">
  <metadata
     id="metadata18">
    <rdf:RDF>
      <cc:Work
         rdf:about="">
        <dc:format>image/svg+xml</dc:format>
        <dc:type
           rdf:resource="http://purl.org/dc/dcmitype/StillImage" />
      </cc:Work>
    </rdf:RDF>
  </metadata>
  <defs
     id="defs16" />
  <sodipodi:namedview
     pagecolor="#ffffff"
     bordercolor="#666666"
     borderopacity="1"
     objecttolerance="10"
     gridtolerance="10"
     guidetolerance="10"
     inkscape:pageopacity="0"
     inkscape:pageshadow="2"
     inkscape:window-width="640"
     inkscape:window-height="480"
     id="namedview14"
     showgrid="false"
     inkscape:zoom="11.875"
     inkscape:cx="-6.1894737"
     inkscape:cy="12"
     inkscape:current-layer="svg12" />
  <rect
     style="opacity:0.2"
     width="20"
     height="18"
     x="2"
     y="3.5"
     rx="1"
     ry="1"
     id="rect2" />
  <path
     style="fill:#f15d22"
     d="M 2,4.9 2,20 c 0,0.554 0.446,1 1,1 l 18,0 c 0.554,0 1,-0.446 1,-1 L 22,4.9 Z"
     id="path4" />
  <path
     style="fill:#4f1d1d"
     d="M 3,3 C 2.446,3 2,3.45 2,4 V 5 H 22 V 4 C 22,3.45 21.554,3 21,3 Z"
     id="path6" />
  <path
     style="opacity:0.1;fill:#ffffff"
     d="M 3,3 C 2.446,3 2,3.45 2,4 V 4.5 C 2,3.95 2.446,3.5 3,3.5 H 21 C 21.554,3.5 22,3.95 22,4.5 V 4 C 22,3.45 21.554,3 21,3 Z"
     id="path10" />
</svg>
