<?xml version="1.0" encoding="UTF-8" standalone="no"?>
<svg
   xmlns:osb="http://www.openswatchbook.org/uri/2009/osb"
   xmlns:dc="http://purl.org/dc/elements/1.1/"
   xmlns:cc="http://creativecommons.org/ns#"
   xmlns:rdf="http://www.w3.org/1999/02/22-rdf-syntax-ns#"
   xmlns:svg="http://www.w3.org/2000/svg"
   xmlns="http://www.w3.org/2000/svg"
   xmlns:xlink="http://www.w3.org/1999/xlink"
   xmlns:sodipodi="http://sodipodi.sourceforge.net/DTD/sodipodi-0.dtd"
   xmlns:inkscape="http://www.inkscape.org/namespaces/inkscape"
   inkscape:export-filename="/home/sam/Pop-template.png"
   style="display:inline;enable-background:new"
   version="1.0"
   inkscape:output_extension="org.inkscape.output.svg.inkscape"
   sodipodi:docname="tmpdesktops.svg"
   inkscape:version="1.0alpha (989d59584b, 2019-01-13)"
   sodipodi:version="0.32"
   id="svg11300"
   height="544"
   width="736"
   inkscape:export-xdpi="90.000000"
   inkscape:export-ydpi="90.000000">
  <title
     id="title3004">Pop Icon Theme</title>
  <sodipodi:namedview
     inkscape:document-rotation="0"
     inkscape:snap-global="true"
     inkscape:snap-smooth-nodes="true"
     inkscape:snap-intersection-paths="true"
     inkscape:object-paths="true"
     inkscape:snap-bbox-edge-midpoints="true"
     inkscape:bbox-nodes="true"
     inkscape:window-maximized="1"
     inkscape:guide-bbox="true"
     showguides="true"
     inkscape:snap-grids="true"
     inkscape:object-nodes="true"
     gridtolerance="10000"
     inkscape:snap-bbox="true"
     inkscape:snap-nodes="true"
     height="300px"
     width="400px"
     inkscape:window-y="32"
     inkscape:window-x="0"
     inkscape:window-height="1372"
     inkscape:window-width="2560"
     inkscape:showpageshadow="false"
     inkscape:document-units="px"
     inkscape:grid-bbox="true"
     showgrid="false"
     inkscape:current-layer="svg11300"
     inkscape:cy="35.40328"
     inkscape:cx="540.18405"
     inkscape:zoom="1"
     inkscape:pageshadow="2"
     inkscape:pageopacity="0"
     borderopacity="0.25490196"
     bordercolor="#666666"
     pagecolor="#3b3b3b"
     id="base"
     fill="#f57900"
     stroke="#ef2929">
    <inkscape:grid
       originy="0"
       originx="0"
       snapvisiblegridlinesonly="true"
       empspacing="4"
       visible="true"
       enabled="true"
       type="xygrid"
       id="grid5883"
       spacingx="1"
       spacingy="1" />
    <inkscape:grid
       originy="0"
       originx="0"
       snapvisiblegridlinesonly="true"
       empopacity="0.25098039"
       empcolor="#ff0000"
       opacity="0.1254902"
       color="#ff0000"
       spacingy="0.5"
       spacingx="0.5"
       enabled="false"
       visible="true"
       empspacing="2"
       id="grid11592"
       type="xygrid" />
  </sodipodi:namedview>
  <defs
     id="defs3">
    <filter
       height="1.1075104"
       y="-0.053755213"
       width="1.1357728"
       x="-0.067886427"
       id="filter4346"
       style="color-interpolation-filters:sRGB"
       inkscape:collect="always">
      <feGaussianBlur
         id="feGaussianBlur4348"
         stdDeviation="0.33970314"
         inkscape:collect="always" />
    </filter>
    <clipPath
       id="clipPath4437"
       clipPathUnits="userSpaceOnUse">
      <circle
         r="8"
         cy="-3524"
         cx="148"
         id="circle4439"
         style="color:#000000;clip-rule:nonzero;display:inline;overflow:visible;visibility:visible;opacity:1;isolation:auto;mix-blend-mode:normal;color-interpolation:sRGB;color-interpolation-filters:linearRGB;solid-color:#000000;solid-opacity:1;fill:#ffffff;fill-opacity:1;fill-rule:evenodd;stroke:none;stroke-width:1;stroke-linecap:butt;stroke-linejoin:miter;stroke-miterlimit:4;stroke-dasharray:none;stroke-dashoffset:0;stroke-opacity:1;color-rendering:auto;image-rendering:auto;shape-rendering:auto;text-rendering:auto;enable-background:accumulate" />
    </clipPath>
    <clipPath
       id="clipPath4451"
       clipPathUnits="userSpaceOnUse">
      <rect
         ry="24"
         y="-3908"
         x="240"
         height="352"
         width="448"
         id="rect4453"
         style="color:#000000;clip-rule:nonzero;display:inline;overflow:visible;visibility:visible;opacity:1;isolation:auto;mix-blend-mode:normal;color-interpolation:sRGB;color-interpolation-filters:linearRGB;solid-color:#000000;solid-opacity:1;fill:#ff5555;fill-opacity:1;fill-rule:evenodd;stroke:none;stroke-width:1;stroke-linecap:butt;stroke-linejoin:miter;stroke-miterlimit:4;stroke-dasharray:none;stroke-dashoffset:0;stroke-opacity:1;color-rendering:auto;image-rendering:auto;shape-rendering:auto;text-rendering:auto;enable-background:accumulate"
         clip-path="none" />
    </clipPath>
    <clipPath
       id="clipPath4496"
       clipPathUnits="userSpaceOnUse">
      <rect
         ry="1.4575397"
         y="-3496"
         x="54"
         height="16"
         width="20"
         id="rect4498"
         style="color:#000000;clip-rule:nonzero;display:inline;overflow:visible;visibility:visible;opacity:1;isolation:auto;mix-blend-mode:normal;color-interpolation:sRGB;color-interpolation-filters:linearRGB;solid-color:#000000;solid-opacity:1;fill:#008080;fill-opacity:1;fill-rule:evenodd;stroke:none;stroke-width:1;stroke-linecap:butt;stroke-linejoin:miter;stroke-miterlimit:4;stroke-dasharray:none;stroke-dashoffset:0;stroke-opacity:1;color-rendering:auto;image-rendering:auto;shape-rendering:auto;text-rendering:auto;enable-background:accumulate"
         clip-path="none" />
    </clipPath>
    <filter
       height="1.0508799"
       y="-0.025439942"
       width="1.0454287"
       x="-0.022714332"
       id="filter4486"
       style="color-interpolation-filters:sRGB"
       inkscape:collect="always">
      <feGaussianBlur
         id="feGaussianBlur4488"
         stdDeviation="4.2399902"
         inkscape:collect="always" />
    </filter>
    <linearGradient
       id="linearGradient5606"
       osb:paint="solid">
      <stop
         id="stop5608"
         offset="0"
         style="stop-color:#000000;stop-opacity:1;" />
    </linearGradient>
  </defs>
  <metadata
     id="metadata4">
    <rdf:RDF>
      <cc:Work
         rdf:about="">
        <dc:format>image/svg+xml</dc:format>
        <dc:type
           rdf:resource="http://purl.org/dc/dcmitype/StillImage" />
        <dc:creator>
          <cc:Agent>
            <dc:title>Sam Hewitt</dc:title>
          </cc:Agent>
        </dc:creator>
        <dc:source />
        <cc:license
           rdf:resource="http://creativecommons.org/licenses/by-sa/3.0/" />
        <dc:title>Pop Icon Theme</dc:title>
        <dc:subject>
          <rdf:Bag />
        </dc:subject>
        <dc:date />
        <dc:rights>
          <cc:Agent>
            <dc:title />
          </cc:Agent>
        </dc:rights>
        <dc:publisher>
          <cc:Agent>
            <dc:title />
          </cc:Agent>
        </dc:publisher>
        <dc:identifier />
        <dc:relation />
        <dc:language />
        <dc:coverage />
        <dc:description />
        <dc:contributor>
          <cc:Agent>
            <dc:title />
          </cc:Agent>
        </dc:contributor>
      </cc:Work>
      <cc:Work
         rdf:about="">
        <dc:format>image/svg+xml</dc:format>
        <dc:type
           rdf:resource="http://purl.org/dc/dcmitype/StillImage" />
      </cc:Work>
      <cc:License
         rdf:about="http://creativecommons.org/licenses/by-sa/3.0/">
        <cc:permits
           rdf:resource="http://creativecommons.org/ns#Reproduction" />
        <cc:permits
           rdf:resource="http://creativecommons.org/ns#Distribution" />
        <cc:requires
           rdf:resource="http://creativecommons.org/ns#Notice" />
        <cc:requires
           rdf:resource="http://creativecommons.org/ns#Attribution" />
        <cc:permits
           rdf:resource="http://creativecommons.org/ns#DerivativeWorks" />
        <cc:requires
           rdf:resource="http://creativecommons.org/ns#ShareAlike" />
      </cc:License>
    </rdf:RDF>
  </metadata>
  <g
     style="display:inline"
     inkscape:groupmode="layer"
     inkscape:label="desktop-panel"
     id="g4398"
     transform="translate(0,244)">
    <g
       style="display:none"
       inkscape:label="Baseplate"
       id="g4400"
       inkscape:groupmode="layer">
      <text
         y="-307.23315"
         xml:space="preserve"
         x="15.006844"
         style="font-style:normal;font-variant:normal;font-weight:normal;font-stretch:normal;line-height:0%;font-family:'DejaVu Sans';-inkscape-font-specification:'DejaVu Sans';display:inline;fill:#000000;fill-opacity:1;stroke:none;enable-background:new"
         inkscape:label="context"
         id="text4402"><tspan
           style="font-style:normal;font-variant:normal;font-weight:normal;font-stretch:normal;font-size:18px;line-height:1.25;font-family:'DejaVu Sans';-inkscape-font-specification:'DejaVu Sans'"
           y="-307.23315"
           x="15.006844"
           sodipodi:role="line"
           id="tspan4404">apps</tspan></text>
      <text
         y="-307.23315"
         xml:space="preserve"
         x="142.48828"
         style="font-style:normal;font-variant:normal;font-weight:bold;font-stretch:normal;line-height:0%;font-family:'DejaVu Sans';-inkscape-font-specification:'DejaVu Sans Bold';text-align:start;writing-mode:lr-tb;text-anchor:start;display:inline;fill:#000000;fill-opacity:1;stroke:none;enable-background:new"
         inkscape:label="icon-name"
         id="text4406"><tspan
           style="font-style:normal;font-variant:normal;font-weight:bold;font-stretch:normal;font-size:18px;line-height:1.25;font-family:'DejaVu Sans';-inkscape-font-specification:'DejaVu Sans Bold'"
           y="-307.23315"
           x="142.48828"
           sodipodi:role="line"
           id="tspan4408">desktop-panel</tspan></text>
      <rect
         style="display:inline;overflow:visible;visibility:visible;fill:#e9e9e9;fill-opacity:1;fill-rule:nonzero;stroke:none;stroke-width:2;marker:none;enable-background:accumulate"
         id="rect4410"
         width="16"
         height="16"
         x="-32"
         y="-372"
         inkscape:label="16x16"
         transform="scale(-1,1)" />
      <rect
         style="display:inline;overflow:visible;visibility:visible;fill:#e9e9e9;fill-opacity:1;fill-rule:nonzero;stroke:none;stroke-width:2;marker:none;enable-background:accumulate"
         id="rect4412"
         width="24"
         height="24"
         x="-76"
         y="-380"
         inkscape:label="24x24"
         transform="scale(-1,1)" />
      <rect
         style="display:inline;overflow:visible;visibility:visible;fill:#e9e9e9;fill-opacity:1;fill-rule:nonzero;stroke:none;stroke-width:2;marker:none;enable-background:accumulate"
         id="rect4414"
         width="32"
         height="32"
         x="-128"
         y="-388"
         inkscape:label="32x32"
         transform="scale(-1,1)" />
      <rect
         inkscape:label="48x48"
         y="-404"
         x="-192"
         height="48"
         width="48"
         id="rect4416"
         style="display:inline;overflow:visible;visibility:visible;fill:#e9e9e9;fill-opacity:1;fill-rule:nonzero;stroke:none;stroke-width:2;marker:none;enable-background:accumulate"
         transform="scale(-1,1)" />
      <rect
         style="display:inline;overflow:visible;visibility:visible;fill:#e9e9e9;fill-opacity:1;fill-rule:nonzero;stroke:none;stroke-width:2;marker:none;enable-background:accumulate"
         id="rect4418"
         width="512"
         height="512"
         x="-720"
         y="-868"
         inkscape:label="48x48"
         transform="scale(-1,1)" />
    </g>
    <g
       inkscape:groupmode="layer"
       id="g4420"
       inkscape:label="Symbols"
       style="display:inline">
      <use
         height="100%"
         width="100%"
         transform="translate(0,-640)"
         id="use4474"
         xlink:href="#g4379"
         y="0"
         x="0"
         style="display:inline;enable-background:new" />
    </g>
  </g>
  <g
     transform="translate(0,244)"
     id="layer1"
     inkscape:label="user-desktop"
     inkscape:groupmode="layer"
     style="display:inline">
    <g
       inkscape:groupmode="layer"
       id="layer7"
       inkscape:label="Baseplate"
       style="display:none">
      <text
         id="context"
         inkscape:label="context"
         style="font-style:normal;font-variant:normal;font-weight:normal;font-stretch:normal;line-height:0%;font-family:'DejaVu Sans';-inkscape-font-specification:'DejaVu Sans';display:inline;fill:#000000;fill-opacity:1;stroke:none;enable-background:new"
         x="15.006836"
         xml:space="preserve"
         y="332.76685"><tspan
           id="tspan3933"
           sodipodi:role="line"
           x="15.006836"
           y="332.76685"
           style="font-style:normal;font-variant:normal;font-weight:normal;font-stretch:normal;font-size:18px;line-height:1.25;font-family:'DejaVu Sans';-inkscape-font-specification:'DejaVu Sans'">places</tspan></text>
      <text
         id="icon-name"
         inkscape:label="icon-name"
         style="font-style:normal;font-variant:normal;font-weight:bold;font-stretch:normal;line-height:0%;font-family:'DejaVu Sans';-inkscape-font-specification:'DejaVu Sans Bold';text-align:start;writing-mode:lr-tb;text-anchor:start;display:inline;fill:#000000;fill-opacity:1;stroke:none;enable-background:new"
         x="142.48828"
         xml:space="preserve"
         y="332.76685"><tspan
           id="tspan3937"
           sodipodi:role="line"
           x="142.48828"
           y="332.76685"
           style="font-style:normal;font-variant:normal;font-weight:bold;font-stretch:normal;font-size:18px;line-height:1.25;font-family:'DejaVu Sans';-inkscape-font-specification:'DejaVu Sans Bold'">user-desktop</tspan></text>
      <rect
         transform="scale(-1,1)"
         inkscape:label="16x16"
         y="268"
         x="-32"
         height="16"
         width="16"
         id="rect16x16"
         style="display:inline;overflow:visible;visibility:visible;fill:#e9e9e9;fill-opacity:1;fill-rule:nonzero;stroke:none;stroke-width:2;marker:none;enable-background:accumulate" />
      <rect
         transform="scale(-1,1)"
         inkscape:label="24x24"
         y="260"
         x="-76"
         height="24"
         width="24"
         id="rect24x24"
         style="display:inline;overflow:visible;visibility:visible;fill:#e9e9e9;fill-opacity:1;fill-rule:nonzero;stroke:none;stroke-width:2;marker:none;enable-background:accumulate" />
      <rect
         transform="scale(-1,1)"
         inkscape:label="32x32"
         y="252"
         x="-128"
         height="32"
         width="32"
         id="rect32x32"
         style="display:inline;overflow:visible;visibility:visible;fill:#e9e9e9;fill-opacity:1;fill-rule:nonzero;stroke:none;stroke-width:2;marker:none;enable-background:accumulate" />
      <rect
         transform="scale(-1,1)"
         style="display:inline;overflow:visible;visibility:visible;fill:#e9e9e9;fill-opacity:1;fill-rule:nonzero;stroke:none;stroke-width:2;marker:none;enable-background:accumulate"
         id="rect48x48"
         width="48"
         height="48"
         x="-192"
         y="236"
         inkscape:label="48x48" />
      <rect
         transform="scale(-1,1)"
         inkscape:label="48x48"
         y="-228"
         x="-720"
         height="512"
         width="512"
         id="rect3951"
         style="display:inline;overflow:visible;visibility:visible;fill:#e9e9e9;fill-opacity:1;fill-rule:nonzero;stroke:none;stroke-width:2;marker:none;enable-background:accumulate" />
    </g>
    <g
       style="display:inline"
       inkscape:label="Symbols"
       id="layer6"
       inkscape:groupmode="layer">
      <g
         id="g4379">
        <path
           inkscape:connector-curvature="0"
           id="path4490"
           d="m 264.00195,-160 c -13.296,0 -24,10.704 -24,24 l 0,24 0,328 c 0,13.296 10.704,24 24,24 L 664,240 c 13.296,0 24,-10.704 24,-24 l 0,-328 0,-24 c 0,-13.296 -10.704,-24 -24,-24 l -399.99805,0 z"
           style="opacity:0.1;fill:#000000;fill-opacity:1;stroke:none;filter:url(#filter4486)" />
        <path
           style="opacity:0.2;fill:#000000;fill-opacity:1;stroke:none;filter:url(#filter4486)"
           d="m 264.00195,-160 c -13.296,0 -24,10.704 -24,24 l 0,24 0,328 c 0,13.296 10.704,24 24,24 L 664,240 c 13.296,0 24,-10.704 24,-24 l 0,-328 0,-24 c 0,-13.296 -10.704,-24 -24,-24 l -399.99805,0 z"
           id="path4484"
           inkscape:connector-curvature="0" />
        <path
           inkscape:connector-curvature="0"
           id="path4479"
           d="m 264.00195,-162 c -13.296,0 -24,10.704 -24,24 l 0,24 0,328 c 0,13.296 10.704,24 24,24 L 664,238 c 13.296,0 24,-10.704 24,-24 l 0,-328 0,-24 c 0,-13.296 -10.704,-24 -24,-24 l -399.99805,0 z"
           style="opacity:0.2;fill:#000000;fill-opacity:1;stroke:none" />
        <path
           style="opacity:0.1;fill:#000000;fill-opacity:1;stroke:none"
           d="m 53,280.5 0,1 c 0,0.831 0.669,1.5 1.5,1.5 l 19,0 c 0.831,0 1.5,-0.669 1.5,-1.5 l 0,-1 c 0,0.831 -0.669,1.5 -1.5,1.5 l -19,0 c -0.831,0 -1.5,-0.669 -1.5,-1.5 z"
           id="rect4227"
           inkscape:connector-curvature="0" />
        <path
           sodipodi:nodetypes="csssscssc"
           style="opacity:0.1;fill:#000000;fill-opacity:1;stroke:none"
           d="m 97,279.5 0,1 c 0,0.831 0.669,1.5 1.5,1.5 l 27,0 c 0.831,0 1.5,-0.669 1.5,-1.5 l 0,-1 c 0,0.831 -0.669,1.5 -1.5,1.5 l -27,0 c -0.831,0 -1.5,-0.669 -1.5,-1.5 z"
           id="rect4378"
           inkscape:connector-curvature="0" />
        <path
           style="opacity:0.1;fill:#000000;fill-opacity:1;stroke:none"
           d="m 148,276 0,1 c 0,1.108 0.892,2 2,2 l 36,0 c 1.108,0 2,-0.892 2,-2 l 0,-1 c 0,1.108 -0.892,2 -2,2 l -36,0 c -1.108,0 -2,-0.892 -2,-2 z"
           id="rect4817"
           inkscape:connector-curvature="0" />
        <path
           style="fill:#03a9f4;fill-opacity:1;stroke:none"
           d="m 53,265 0,15.5 c 0,0.831 0.669,1.5 1.5,1.5 l 19,0 c 0.831,0 1.621782,-0.67797 1.5,-1.5 L 75,265 Z"
           id="rect4243"
           inkscape:connector-curvature="0"
           sodipodi:nodetypes="csssscc" />
        <path
           style="display:inline;fill:#03a9f4;fill-opacity:1;stroke:none;enable-background:new"
           d="m 16,515 0,11 c 0,0.554 0.446,1 1,1 l 14,0 c 0.554,0 1,-0.446 1,-1 l 0,-11 -16,0 z"
           transform="translate(0,-244)"
           id="rect4265"
           inkscape:connector-curvature="0" />
        <path
           style="fill:#4d4d4d;fill-opacity:1;stroke:none"
           d="m 150,242 c 0,0 -2,0 -2,2 l 0,2 40,0 0,-2 c 0,0 -0.892,-2 -2,-2 l -18,0 z"
           id="rect4801"
           inkscape:connector-curvature="0"
           sodipodi:nodetypes="csccsscc" />
        <path
           inkscape:connector-curvature="0"
           id="rect4229"
           d="m 264.00195,-164 c -13.296,0 -24,10.704 -24,24 l 0,24 447.99805,0 0,-24 c 0,-13.296 -10.704,-24 -24,-24 z"
           style="fill:#4d4d4d;fill-opacity:1;stroke:none"
           sodipodi:nodetypes="ssccsss" />
        <path
           style="fill:#03a9f4;fill-opacity:1;stroke:none"
           d="m 97,259 0,20.5 c 0,0.831 0.669,1.5 1.5,1.5 l 27,0 c 0.831,0 1.58069,-0.67293 1.5,-1.5 l 0,-20.5 z"
           id="rect4363"
           inkscape:connector-curvature="0"
           sodipodi:nodetypes="csssscc" />
        <path
           style="fill:#4d4d4d;fill-opacity:1;stroke:none"
           d="m 98.5,255 c -0.831,0 -1.5,0.669 -1.5,1.5 l 0,2.5 30,0 0,-2.5 c 0,-0.831 -0.669,-1.5 -1.5,-1.5 z"
           id="rect4509"
           inkscape:connector-curvature="0"
           sodipodi:nodetypes="ssccsss" />
        <path
           style="fill:#4d4d4d;fill-opacity:1;stroke:none"
           d="m 54.5,262 c -0.831,0 -1.5,0.669 -1.5,1.5 l 0,1.5 22,0 0,-1.5 c 0,-0.831 -0.669,-1.5 -1.5,-1.5 z"
           id="rect4517"
           inkscape:connector-curvature="0"
           sodipodi:nodetypes="ssccsss" />
        <path
           style="display:inline;fill:#4d4d4d;fill-opacity:1;stroke:none;enable-background:new"
           d="m 17,513 c -0.554,0 -1,0.446 -1,1 l 0,1 16,0 0,-1 c 0,-0.554 -0.446,-1 -1,-1 l -14,0 z"
           transform="translate(0,-244)"
           id="rect4525"
           inkscape:connector-curvature="0" />
        <path
           inkscape:connector-curvature="0"
           id="rect4439"
           d="m 240.00195,-116 0,328 c 0,13.296 10.704,24 24,24 L 664,236 c 13.296,0 24,-10.704 24,-24 l 0,-328 z"
           style="fill:#03a9f4;fill-opacity:1;stroke:none"
           sodipodi:nodetypes="csssscc" />
        <path
           style="fill:#03a9f4;fill-opacity:1;stroke:none"
           d="m 148,246 0,16 0,14 c 0,1.108 0.892,2 2,2 l 36,0 c 1.108,0 2,-0.892 2,-2 l 0,-30 z"
           id="path4501"
           inkscape:connector-curvature="0"
           sodipodi:nodetypes="ccsssscc" />
        <path
           inkscape:connector-curvature="0"
           style="opacity:0.2;fill:#000000;fill-opacity:1;stroke:none"
           d="m 240.00195,454 0,2 c 0,13.296 10.704,24 24,24 L 664,480 c 13.296,0 24,-10.704 24,-24 l 0,-2 c 0,13.296 -10.704,24 -24,24 l -399.99805,0 c -13.296,0 -24,-10.704 -24,-24 z"
           transform="translate(0,-244)"
           id="path4362" />
        <path
           style="display:inline;opacity:0.1;fill:#000000;fill-opacity:1;stroke:none;enable-background:new"
           d="m 16,281 0,1 c 0,0.554 0.446,1 1,1 l 14,0 c 0.554,0 1,-0.446 1,-1 l 0,-1 c 0,0.554 -0.446,1 -1,1 l -14,0 c -0.554,0 -1,-0.446 -1,-1 z"
           id="path4879"
           inkscape:connector-curvature="0" />
        <path
           inkscape:connector-curvature="0"
           id="path4492"
           transform="translate(0,-244)"
           d="m 264.00195,80 c -13.296,0 -24,10.704 -24,24 l 0,2 c 0,-13.296 10.704,-24 24,-24 L 664,82 c 13.296,0 24,10.704 24,24 l 0,-2 C 688,90.704 677.296,80 664,80 l -399.99805,0 z"
           style="opacity:0.1;fill:#ffffff;fill-opacity:1;stroke:none" />
      </g>
      <path
         sodipodi:nodetypes="ssssssccs"
         inkscape:connector-curvature="0"
         id="path4155"
         d="m 173,259 c -0.554,0 -1,0.446 -1,1 l 0,14 c 0,0.554 0.446,1 1,1 l 10,0 c 0.554,0 1,-0.446 1,-1 l 0,-9 -6,-6 z"
         style="display:inline;opacity:0.2;fill:#000000;fill-opacity:1;stroke:none;enable-background:new" />
      <path
         sodipodi:nodetypes="ssssssccs"
         inkscape:connector-curvature="0"
         id="rect4137"
         d="m 173,258 c -0.554,0 -1,0.446 -1,1 l 0,14 c 0,0.554 0.446,1 1,1 l 10,0 c 0.554,0 1,-0.446 1,-1 l 0,-9 -6,-6 z"
         style="display:inline;fill:#eeeeee;fill-opacity:1;stroke:none;enable-background:new" />
      <path
         sodipodi:nodetypes="csscc"
         inkscape:connector-curvature="0"
         id="path4147"
         d="m 178,258 0,5 c 0,0.55228 0.44772,1 1,1 l 5,0 z"
         style="display:inline;fill:#ffffff;fill-opacity:1;stroke:none;enable-background:new" />
      <g
         inkscape:label="folder-documents"
         id="g8576-7-5-4-1"
         style="display:inline;enable-background:new"
         transform="matrix(12,0,0,12,-7699.9996,3327.8792)">
        <rect
           style="color:#000000;display:inline;overflow:visible;visibility:visible;fill:none;stroke:none;stroke-width:0;marker:none;enable-background:new"
           id="rect3613-1-9-7-4-8"
           width="16"
           height="16"
           x="681.00024"
           y="-277" />
        <path
           style="display:inline;opacity:0.1;fill:#000000;fill-opacity:1;stroke:none;filter:url(#filter4346);enable-background:new"
           d="m 682.99997,-274.32326 0,12.66667 c 0,1 1,1 1,1 l 10,0 c 1,0 1,-1 1,-1 0.0188,-0.0461 0.005,-7.11957 0,-9.66667 l -4,-4 -7,0 c 0,0 -1,0 -1,1 z"
           id="path4336"
           inkscape:connector-curvature="0"
           sodipodi:nodetypes="sscsccccs" />
        <path
           transform="translate(153.99997,-338.98993)"
           sodipodi:nodetypes="sscsccccs"
           inkscape:connector-curvature="0"
           id="path16783-2-5-9-9-81-6-7-8-5"
           d="M 529,64.333333 529,77 c 0,1 1,1 1,1 l 10,0 c 1,0 1,-1 1,-1 0.0188,-0.04608 0.005,-7.119569 0,-9.666667 l -4,-4 -7,0 c 0,0 -1,0 -1,1 z"
           style="display:inline;fill:#eeeeee;fill-opacity:1;stroke:none;enable-background:new" />
        <path
           sodipodi:nodetypes="cccscc"
           inkscape:connector-curvature="0"
           id="path4344"
           d="m 695.00957,-271.6466 -4,-4 -0.01,-0.01 0,3.0096 c 0,1 1,1 1,1 z"
           style="display:inline;fill:#ffffff;fill-opacity:1;stroke:none;enable-background:new" />
      </g>
    </g>
  </g>
</svg>
