<svg version="1.0" viewBox="0 0 24 24" xmlns="http://www.w3.org/2000/svg"><g transform="translate(-56 340)"><rect x="57" y="-339" width="22" height="22" ry="1.9" fill="#767676"/><rect x="58" y="-338" width="20" height="20" ry="1" fill="#ededed"/><rect x="58" y="-338" width="20" height="4" ry="1" fill="#faa41a"/><rect x="58" y="-335.5" width="20" height="1.5" ry="0" fill="#faa41a"/><g aria-label="19"><path d="m61.01-321.87 1.992-.133v-8h-2v-1l4-1v10l2.008.133-.008.867h-6z"/><path d="M71.09-322.64c.573 0 1.035-.218 1.388-.654.352-.44.518-1.099.518-1.975v-.161c-.24.308-.516.543-.849.705-.332.156-.69.235-1.072.235-.998 0-1.782-.326-2.35-.977-.567-.656-.729-1.56-.729-2.71 0-1.082.216-1.987.891-2.717.68-.734 1.54-1.101 2.578-1.101 1.091 0 1.977.377 2.658 1.13.68.75.873 1.805.873 3.165v2.32c0 1.386-.232 2.463-.99 3.232-.755.768-1.726 1.153-2.916 1.153-.372 0-.756-.04-1.153-.118a5.014 5.014 0 0 1-.94-.27v-1.005l.096-.607c.328.122.646.215.954.274.309.054.656.08 1.043.08zm.345-3.422c.357 0 .668-.066.933-.198.269-.137.472-.318.628-.544v-1.145c0-.783-.127-1.378-.4-1.784-.275-.407-.647-.61-1.117-.61-.43 0-.783.213-1.057.639-.27.42-.426 1.112-.426 1.709 0 .646.142.979.382 1.36.244.382.597.573 1.057.573z"/></g><rect x="68" y="-328" width="12" height="12" ry="6" fill="#cf3b00"/><path d="M74-328c-3.324 0-6 2.676-6 6s2.676 6 6 6 6-2.676 6-6-2.676-6-6-6zm0 1c2.77 0 5 2.23 5 5s-2.23 5-5 5-5-2.23-5-5 2.23-5 5-5z" fill-opacity=".5"/><path d="M71.75-325a.75.75 0 0 0-.75.75.75.75 0 0 0 .22.53l1.72 1.72-1.72 1.72a.75.75 0 0 0-.22.53.75.75 0 0 0 .75.75.75.75 0 0 0 .53-.22l1.72-1.72 1.712 1.713a.75.75 0 0 0 .538.227.75.75 0 0 0 .75-.75.75.75 0 0 0-.22-.53L75.06-322l1.713-1.712a.75.75 0 0 0 .227-.538.75.75 0 0 0-.75-.75.75.75 0 0 0-.53.22L74-323.06l-1.712-1.713a.75.75 0 0 0-.007-.008.75.75 0 0 0-.53-.219z" fill="#fff"/></g></svg>