<svg version="1.0" viewBox="0 0 24 24" xmlns="http://www.w3.org/2000/svg"><g stroke-linecap="square"><g transform="translate(-56 -260)"><path d="M116 253c-4.432 0-8 3.568-8 8v13c0 4.432 3.568 8 8 8s8-3.568 8-8v-13c0-4.432-3.568-8-8-8zm0 5c2.216 0 4 1.784 4 4v11.5c0 2.216-1.784 4-4 4s-4-1.784-4-4V262c0-2.216 1.784-4 4-4z" fill="#6f6f6f"/><path d="M116 254c-3.878 0-7 3.122-7 7v14c0 3.878 3.122 7 7 7s7-3.122 7-7v-14c0-3.878-3.122-7-7-7zm0 2c2.77 0 5 2.23 5 5v14c0 2.77-2.23 5-5 5s-5-2.23-5-5v-14c0-2.77 2.23-5 5-5z" fill="#dedede"/><path d="M68 260c-4.432 0-8 3.568-8 8v8c0 4.432 3.568 8 8 8s8-3.568 8-8v-8c0-4.432-3.568-8-8-8zm0 4c2.216 0 4 1.784 4 4v8.5c0 2.216-1.784 4-4 4s-4-1.784-4-4V268c0-2.216 1.784-4 4-4z" fill="#6f6f6f"/><path d="M68 261c-3.878 0-7 3.122-7 7v9c0 3.878 3.122 7 7 7s7-3.122 7-7v-9c0-3.878-3.122-7-7-7zm0 2c2.77 0 5 2.23 5 5v9c0 2.77-2.23 5-5 5s-5-2.23-5-5v-9c0-2.77 2.23-5 5-5z" fill="#dedede"/><path d="M24 268c-2.77 0-5 2.23-5 5v6c0 2.77 2.23 5 5 5s5-2.23 5-5v-6c0-2.77-2.23-5-5-5zm0 4c.554 0 1 .446 1 1v6c0 .554-.446 1-1 1s-1-.446-1-1v-6c0-.554.446-1 1-1z" fill="#6f6f6f"/><path d="M24 269c-2.216 0-4 1.784-4 4v7c0 2.216 1.784 4 4 4s4-1.784 4-4v-7c0-2.216-1.784-4-4-4zm0 2c1.108 0 2 .892 2 2v7c0 1.108-.892 2-2 2s-2-.892-2-2v-7c0-1.108.892-2 2-2z" fill="#dedede"/><path d="M180 238c-6.648 0-12 5.352-12 12v19a11.962 11.962 0 0 0 11.152 11.957 7.965 7.965 0 0 1-7.152-7.941v-21.031a7.967 7.967 0 0 1 7.984-7.985 7.967 7.967 0 0 1 7.984 7.985v21.03a7.966 7.966 0 0 1-7.166 7.944A11.961 11.961 0 0 0 192 269v-19c0-6.648-5.352-12-12-12z" fill="#6f6f6f"/><path d="M179.5 239c-5.817 0-10.5 4.683-10.5 10.5v21c0 5.817 4.683 10.5 10.5 10.5h1c5.817 0 10.5-4.683 10.5-10.5v-21c0-5.817-4.683-10.5-10.5-10.5zm.5 2c4.986 0 9 4.021 9 9.016v19.969c0 4.994-4.014 9.015-9 9.015s-9-4.02-9-9.015v-19.97a8.988 8.988 0 0 1 9-9.015z" fill="#dedede"/><path d="M256 223c-8.31 0-15 6.69-15 15v17c0 8.31 6.69 15 15 15s15-6.69 15-15v-17c0-8.31-6.69-15-15-15zm0 8c4.986 0 9 4.014 9 9v14c0 4.986-4.014 9-9 9s-9-4.014-9-9v-14c0-4.986 4.014-9 9-9z" fill="#6f6f6f"/><path d="M256 224c-7.756 0-14 6.244-14 14v28c0 7.756 6.244 14 14 14s14-6.244 14-14v-28c0-7.756-6.244-14-14-14zm0 4c5.54 0 10 4.46 10 10v28c0 5.54-4.46 10-10 10s-10-4.46-10-10v-28c0-5.54 4.46-10 10-10z" fill="#dedede"/><path d="M376 163c-16.066 0-29 12.934-29 29v25c0 16.066 12.934 29 29 29s29-12.934 29-29v-25c0-16.066-12.934-29-29-29zm0 13c10.526 0 19 8.474 19 19v16.5c0 10.526-8.474 19-19 19s-19-8.474-19-19V195c0-10.526 8.474-19 19-19z" fill="#6f6f6f"/><path d="M376 164c-15.512 0-28 12.488-28 28v56c0 15.512 12.488 28 28 28s28-12.488 28-28v-56c0-15.512-12.488-28-28-28zm0 8c11.08 0 20 8.92 20 20v56c0 11.08-8.92 20-20 20s-20-8.92-20-20v-56c0-11.08 8.92-20 20-20z" fill="#dedede"/><path d="M592 43c-31.578 0-57 25.422-57 57v75h18v-71c0-21.606 17.394-39 39-39s39 17.394 39 39v78h18v-82c0-31.578-25.422-57-57-57z" fill="#6f6f6f"/><path d="M592 44c-31.024 0-56 24.976-56 56v112c0 31.024 24.976 56 56 56s56-24.976 56-56V100c0-31.024-24.976-56-56-56zm0 16c22.16 0 40 17.84 40 40v112c0 22.16-17.84 40-40 40s-40-17.84-40-40V100c0-22.16 17.84-40 40-40z" fill="#dedede"/><rect x="105" y="266" width="22" height="16" ry="2" fill="#ffce51"/><rect x="58" y="272" width="20" height="12" ry="1" fill="#ffce51"/><rect x="18" y="276" width="12" height="8" ry="1" fill="#ffce51"/><rect x="164" y="257" width="32" height="24" ry="3" fill="#ffce51"/><rect x="234" y="248" width="44" height="32" ry="4" fill="#ffce51"/><rect x="332" y="212" width="88" height="64" ry="8" fill="#ffce51"/><rect x="504" y="140" width="176" height="128" ry="16" fill="#ffce51"/><path d="M107 266c-1.108 0-2 .892-2 2v1h22v-1c0-1.108-.892-2-2-2zm-2 13v1c0 1.108.892 2 2 2h18c1.108 0 2-.892 2-2v-1z" fill-opacity=".118"/><path d="M167 257c-1.662 0-3 1.338-3 3v1h32v-1c0-1.662-1.338-3-3-3zm-3 20v1c0 1.662 1.338 3 3 3h26c1.662 0 3-1.338 3-3v-1z" fill-opacity=".118"/><path d="M238 248c-2.216 0-4 1.784-4 4v2h44v-2c0-2.216-1.784-4-4-4zm-4 26v2c0 2.216 1.784 4 4 4h36c2.216 0 4-1.784 4-4v-2z" fill-opacity=".118"/><path d="M59 272c-.554 0-1 .446-1 1v2h20v-2c0-.554-.446-1-1-1zm-1 9v2c0 .554.446 1 1 1h18c.554 0 1-.446 1-1v-2z" fill-opacity=".118"/><path d="M19 276c-.554 0-1 .446-1 1v1h12v-1c0-.554-.446-1-1-1zm-1 6v1c0 .554.446 1 1 1h10c.554 0 1-.446 1-1v-1z" fill-opacity=".118"/><path d="M340 212c-4.432 0-8 3.568-8 8v4h88v-4c0-4.432-3.568-8-8-8zm-8 52v4c0 4.432 3.568 8 8 8h72c4.432 0 8-3.568 8-8v-4z" fill-opacity=".118"/><path d="M520 140c-8.864 0-16 7.136-16 16v7h176v-7c0-8.864-7.136-16-16-16zm-16 104v8c0 8.864 7.136 16 16 16h144c8.864 0 16-7.136 16-16v-8z" fill-opacity=".118"/><path d="M107 266c-1.108 0-2 .892-2 2v12c0 1.108.892 2 2 2h18c1.108 0 2-.892 2-2v-12c0-1.108-.892-2-2-2zm0 1h18c.554 0 1 .446 1 1v11c0 .554-.446 1-1 1h-18c-.554 0-1-.446-1-1v-11c0-.554.446-1 1-1z" fill-opacity=".502"/><path d="M59 272c-.554 0-1 .446-1 1v10c0 .554.446 1 1 1h18c.554 0 1-.446 1-1v-10c0-.554-.446-1-1-1zm0 1h18v10H59z" fill-opacity=".502"/><path d="M19 276c-.554 0-1 .446-1 1v6c0 .554.446 1 1 1h10c.554 0 1-.446 1-1v-6c0-.554-.446-1-1-1zm0 1h10v6H19z" fill-opacity=".502"/><path d="M167 257c-1.662 0-3 1.338-3 3v18c0 1.662 1.338 3 3 3h26c1.662 0 3-1.338 3-3v-18c0-1.662-1.338-3-3-3zm0 1h26c1.108 0 2 .892 2 2v16c0 1.108-.892 2-2 2h-26c-1.108 0-2-.892-2-2v-16c0-1.108.892-2 2-2z" fill-opacity=".502"/><path d="M238 248c-2.216 0-4 1.784-4 4v24c0 2.216 1.784 4 4 4h36c2.216 0 4-1.784 4-4v-24c0-2.216-1.784-4-4-4zm0 1h36c1.662 0 3 1.338 3 3v22c0 1.662-1.338 3-3 3h-36c-1.662 0-3-1.338-3-3v-22c0-1.662 1.338-3 3-3z" fill-opacity=".502"/><path d="M340 212c-4.432 0-8 3.568-8 8v48c0 4.432 3.568 8 8 8h72c4.432 0 8-3.568 8-8v-48c0-4.432-3.568-8-8-8zm0 1h72c3.878 0 7 3.122 7 7v45c0 3.878-3.122 7-7 7h-72c-3.878 0-7-3.122-7-7v-45c0-3.878 3.122-7 7-7z" fill-opacity=".502"/><path d="M520 140c-8.864 0-16 7.136-16 16v96c0 8.864 7.136 16 16 16h144c8.864 0 16-7.136 16-16v-96c0-8.864-7.136-16-16-16zm0 1h144c8.31 0 15 6.69 15 15v92c0 8.31-6.69 15-15 15H520c-8.31 0-15-6.69-15-15v-92c0-8.31 6.69-15 15-15z" fill-opacity=".502"/></g><g transform="translate(-56 -560)"><rect x="56" y="272" width="20" height="12" ry="1" fill="#ffce51"/><rect x="16" y="276" width="12" height="8" ry="1" fill="#ffce51"/><path d="M57 272c-.554 0-1 .446-1 1v2h20v-2c0-.554-.446-1-1-1zm-1 9v2c0 .554.446 1 1 1h18c.554 0 1-.446 1-1v-2z" fill-opacity=".118"/><path d="M17 276c-.554 0-1 .446-1 1v1h12v-1c0-.554-.446-1-1-1zm-1 6v1c0 .554.446 1 1 1h10c.554 0 1-.446 1-1v-1z" fill-opacity=".118"/><g transform="translate(1)" stroke-width="2"><rect x="100" y="266" width="22" height="16" ry="2" fill="#ffce51"/><path d="M102 266c-1.108 0-2 .892-2 2v1h22v-1c0-1.108-.892-2-2-2zm-2 13v1c0 1.108.892 2 2 2h18c1.108 0 2-.892 2-2v-1z" fill-opacity=".118"/><path d="M102 266c-1.108 0-2 .892-2 2v12c0 1.108.892 2 2 2h18c1.108 0 2-.892 2-2v-12c0-1.108-.892-2-2-2zm0 1h18c.554 0 1 .446 1 1v11c0 .554-.446 1-1 1h-18c-.554 0-1-.446-1-1v-11c0-.554.446-1 1-1z" fill-opacity=".502"/></g><path d="M57 272c-.554 0-1 .446-1 1v10c0 .554.446 1 1 1h18c.554 0 1-.446 1-1v-10c0-.554-.446-1-1-1zm0 1h18v10H57z" fill-opacity=".502"/><path d="M17 276c-.554 0-1 .446-1 1v6c0 .554.446 1 1 1h10c.554 0 1-.446 1-1v-6c0-.554-.446-1-1-1zm0 1h10v6H17z" fill-opacity=".502"/><g stroke-width="3"><rect x="156" y="257" width="32" height="24" ry="3" fill="#ffce51"/><path d="M159 257c-1.662 0-3 1.338-3 3v1h32v-1c0-1.662-1.338-3-3-3zm-3 20v1c0 1.662 1.338 3 3 3h26c1.662 0 3-1.338 3-3v-1z" fill-opacity=".118"/><path d="M159 257c-1.662 0-3 1.338-3 3v18c0 1.662 1.338 3 3 3h26c1.662 0 3-1.338 3-3v-18c0-1.662-1.338-3-3-3zm0 1h26c1.108 0 2 .892 2 2v16c0 1.108-.892 2-2 2h-26c-1.108 0-2-.892-2-2v-16c0-1.108.892-2 2-2z" fill-opacity=".502"/></g><g transform="translate(3)" stroke-width="4"><rect x="224" y="248" width="44" height="32" ry="4" fill="#ffce51"/><path d="M228 248c-2.216 0-4 1.784-4 4v2h44v-2c0-2.216-1.784-4-4-4zm-4 26v2c0 2.216 1.784 4 4 4h36c2.216 0 4-1.784 4-4v-2z" fill-opacity=".118"/><path d="M228 248c-2.216 0-4 1.784-4 4v24c0 2.216 1.784 4 4 4h36c2.216 0 4-1.784 4-4v-24c0-2.216-1.784-4-4-4zm0 1h36c1.662 0 3 1.338 3 3v22c0 1.662-1.338 3-3 3h-36c-1.662 0-3-1.338-3-3v-22c0-1.662 1.338-3 3-3z" fill-opacity=".502"/></g><g transform="translate(7)" stroke-width="8"><rect x="312" y="212" width="88" height="64" ry="8" fill="#ffce51"/><path d="M320 212c-4.432 0-8 3.568-8 8v4h88v-4c0-4.432-3.568-8-8-8zm-8 52v4c0 4.432 3.568 8 8 8h72c4.432 0 8-3.568 8-8v-4z" fill-opacity=".118"/><path d="M320 212c-4.432 0-8 3.568-8 8v48c0 4.432 3.568 8 8 8h72c4.432 0 8-3.568 8-8v-48c0-4.432-3.568-8-8-8zm0 1h72c3.878 0 7 3.122 7 7v45c0 3.878-3.122 7-7 7h-72c-3.878 0-7-3.122-7-7v-45c0-3.878 3.122-7 7-7z" fill-opacity=".502"/></g><g transform="translate(-25)" stroke-width="16"><rect x="504" y="140" width="176" height="128" ry="16" fill="#ffce51"/><path d="M520 140c-8.864 0-16 7.136-16 16v7h176v-7c0-8.864-7.136-16-16-16zm-16 104v8c0 8.864 7.136 16 16 16h144c8.864 0 16-7.136 16-16v-8z" fill-opacity=".118"/><path d="M520 140c-8.864 0-16 7.136-16 16v96c0 8.864 7.136 16 16 16h144c8.864 0 16-7.136 16-16v-96c0-8.864-7.136-16-16-16zm0 1h144c8.31 0 15 6.69 15 15v92c0 8.31-6.69 15-15 15H520c-8.31 0-15-6.69-15-15v-92c0-8.31 6.69-15 15-15z" fill-opacity=".502"/></g></g></g></svg>