<svg version="1.0" viewBox="0 0 24 24" xmlns="http://www.w3.org/2000/svg"><g stroke-linecap="square" stroke-width="2" transform="translate(-56 -260)"><path d="M68 260c-4.432 0-8 3.568-8 8v8c0 4.432 3.568 8 8 8s8-3.568 8-8v-8c0-4.432-3.568-8-8-8zm0 4c2.216 0 4 1.784 4 4v8.5c0 2.216-1.784 4-4 4s-4-1.784-4-4V268c0-2.216 1.784-4 4-4z" fill="#6f6f6f"/><path d="M68 261c-3.878 0-7 3.122-7 7v9c0 3.878 3.122 7 7 7s7-3.122 7-7v-9c0-3.878-3.122-7-7-7zm0 2c2.77 0 5 2.23 5 5v9c0 2.77-2.23 5-5 5s-5-2.23-5-5v-9c0-2.77 2.23-5 5-5z" fill="#dedede"/><rect x="58" y="272" width="20" height="12" ry="1" fill="#ffce51"/><path d="M59 272c-.554 0-1 .446-1 1v2h20v-2c0-.554-.446-1-1-1zm-1 9v2c0 .554.446 1 1 1h18c.554 0 1-.446 1-1v-2z" fill-opacity=".118"/><path d="M59 272c-.554 0-1 .446-1 1v10c0 .554.446 1 1 1h18c.554 0 1-.446 1-1v-10c0-.554-.446-1-1-1zm0 1h18v10H59z" fill-opacity=".502"/></g></svg>