<svg version="1.0" viewBox="0 0 24 24" xmlns="http://www.w3.org/2000/svg"><g stroke-linecap="square" stroke-width="2" transform="translate(-56 40)"><path d="M72-40c4.432 0 8 3.568 8 8v1h-4v-1c0-2.216-1.784-4-4-4s-4 1.784-4 4v8.5c0 2.216 1.784 4 4 4v3.5c-4.432 0-8-3.568-8-8v-8c0-4.432 3.568-8 8-8z" fill="#6f6f6f"/><path d="M72-39c3.878 0 7 3.122 7 7h-2c0-2.77-2.23-5-5-5s-5 2.23-5 5v9a4.99 4.99 0 0 0 4.984 5v2A6.985 6.985 0 0 1 65-23v-9c0-3.878 3.122-7 7-7z" fill="#dedede"/><rect x="56" y="-28" width="20" height="12" ry="1" fill="#ffce51"/><path d="M57-28c-.554 0-1 .446-1 1v2h20v-2c0-.554-.446-1-1-1zm-1 9v2c0 .554.446 1 1 1h18c.554 0 1-.446 1-1v-2z" fill-opacity=".118"/><path d="M57-28c-.554 0-1 .446-1 1v10c0 .554.446 1 1 1h18c.554 0 1-.446 1-1v-10c0-.554-.446-1-1-1zm0 1h18v10H57z" fill-opacity=".502"/></g></svg>