<svg version="1.0" viewBox="0 0 24 24" xmlns="http://www.w3.org/2000/svg"><g transform="translate(-56 40)"><rect x="62" y="-25" width="12" height="7" ry="1" fill="#424242"/><rect x="63" y="-25" width="10" height="6" ry=".5" fill="#848484"/><rect x="56" y="-38" width="24" height="17" ry="1.5" fill="#6f6f6f"/><rect x="57" y="-37" width="22" height="15" ry="1" fill="#acacac"/><rect x="58" y="-36" width="20" height="11" ry=".5" fill="#464646"/><rect x="65" y="-24" width="6" height="1" ry=".375" fill="#424242"/><rect transform="matrix(0 -1 -1 0 0 0)" x="25" y="-78" width="11" height="20" ry=".5" fill="#cf3b00"/><path d="M65-34v3h1v-3zm5 0v3h1v-3zm-6 5v1h8v-1h-7zm8 1v1h1v-1zm-8 0h-1v1h1z" fill="#fff"/></g></svg>