<svg version="1.0" viewBox="0 0 24 24" xmlns="http://www.w3.org/2000/svg"><g transform="translate(-56 -260)"><rect transform="rotate(-45)" x="-117.26" y="261.75" width="19.554" height="19.554" ry="2" fill="#6a7ce0"/><rect transform="rotate(-45)" x="-71.424" y="295.94" width="30.418" height="29.658" ry="3" fill="#6a7ce0"/><rect transform="rotate(-45)" x="-16.725" y="339.66" width="39.108" height="39.108" ry="4" fill="#6a7ce0"/><rect transform="rotate(-45)" x="71.201" y="382.33" width="78.215" height="78.215" ry="8" fill="#6a7ce0"/><rect transform="rotate(-45)" x="230.08" y="450.7" width="156.43" height="156.43" ry="16" fill="#6a7ce0"/><rect transform="rotate(-45)" x="-153.32" y="231.35" width="18.14" height="18.14" ry="2" fill="#6a7ce0"/><rect transform="rotate(-45)" x="-184.43" y="205.89" width="12.483" height="12.483" ry="2" fill="#6a7ce0"/><path d="M68 260c-.511 0-1.022.196-1.414.588l-9.998 9.998a1.995 1.995 0 0 0 0 2.828l9.998 9.998a1.995 1.995 0 0 0 2.828 0l9.998-9.998a1.995 1.995 0 0 0 0-2.828l-9.998-9.998A1.994 1.994 0 0 0 68 260zm0 1c.256 0 .511.097.707.293l10 10a.998.998 0 0 1 0 1.414l-10 10a.998.998 0 0 1-1.414 0l-10-10a.998.998 0 0 1 0-1.414l10-10A.996.996 0 0 1 68 261z" fill-opacity=".502"/><path d="M24 268c-.511 0-1.022.196-1.414.588l-5.998 5.998a1.995 1.995 0 0 0 0 2.828l5.998 5.998a1.995 1.995 0 0 0 2.828 0l5.998-5.998a1.995 1.995 0 0 0 0-2.828l-5.998-5.998A1.994 1.994 0 0 0 24 268zm0 1a1 1 0 0 1 .709.295l5.996 5.996a1 1 0 0 1 0 1.418l-5.996 5.996a1 1 0 0 1-1.418 0l-5.996-5.996a1 1 0 0 1 0-1.418l5.996-5.996A1 1 0 0 1 24 269z" fill-opacity=".502"/><path d="M116 255c-.511 0-1.022.196-1.414.588l-10.998 10.998a1.995 1.995 0 0 0 0 2.828l10.998 10.998a1.995 1.995 0 0 0 2.828 0l10.998-10.998a1.995 1.995 0 0 0 0-2.828l-10.998-10.998A1.994 1.994 0 0 0 116 255zm0 1c.256 0 .511.097.707.293l10.5 10.5a.998.998 0 0 1 0 1.414l-10.5 10.5a.998.998 0 0 1-1.414 0l-10.5-10.5a.998.998 0 0 1 0-1.414l10.5-10.5A.996.996 0 0 1 116 256z" fill-opacity=".502"/><path d="M180.27 239.5c-.767 0-1.535.293-2.123.88l-17.266 17.267a2.995 2.995 0 0 0 0 4.244l16.729 16.729a2.995 2.995 0 0 0 4.244 0l17.266-17.266a2.995 2.995 0 0 0 0-4.244l-16.729-16.73a2.99 2.99 0 0 0-2.121-.88zm-.031 1c.511 0 1.022.196 1.414.588l15.76 15.76a1.995 1.995 0 0 1 0 2.828l-16.236 16.236a1.995 1.995 0 0 1-2.828 0l-15.76-15.76a1.995 1.995 0 0 1 0-2.828l16.236-16.236a1.994 1.994 0 0 1 1.414-.588z" fill-opacity=".502"/><path d="M256 226a3.987 3.987 0 0 0-2.828 1.176l-21.996 21.996a3.99 3.99 0 0 0 0 5.656l21.996 21.996a3.99 3.99 0 0 0 5.656 0l21.996-21.996a3.99 3.99 0 0 0 0-5.656l-21.996-21.996A3.987 3.987 0 0 0 256 226zm0 1a2.99 2.99 0 0 1 2.121.88l20.498 20.499a2.993 2.993 0 0 1 0 4.242l-20.498 20.498a2.993 2.993 0 0 1-4.242 0l-20.498-20.498a2.993 2.993 0 0 1 0-4.242l20.498-20.498A2.99 2.99 0 0 1 256 227z" fill-opacity=".502"/><path d="M376 168a7.97 7.97 0 0 0-5.656 2.35l-43.994 43.994a7.98 7.98 0 0 0 0 11.312l43.994 43.994a7.98 7.98 0 0 0 11.312 0l43.994-43.994a7.98 7.98 0 0 0 0-11.312l-43.994-43.994A7.973 7.973 0 0 0 376 168zm0 1a6.98 6.98 0 0 1 4.95 2.057l41.993 41.994a6.983 6.983 0 0 1 0 9.898l-41.994 41.994a6.983 6.983 0 0 1-9.898 0l-41.994-41.994a6.983 6.983 0 0 1 0-9.898l41.994-41.994A6.977 6.977 0 0 1 376 169z" fill-opacity=".502"/><path d="M592 52a15.95 15.95 0 0 0-11.314 4.701l-87.984 87.984a15.967 15.967 0 0 0 0 22.63l87.984 87.983a15.967 15.967 0 0 0 22.629 0l87.984-87.984a15.967 15.967 0 0 0 0-22.629l-87.984-87.984A15.951 15.951 0 0 0 592.001 52zm0 1c3.834 0 7.67 1.468 10.607 4.406l85.486 85.486a14.97 14.97 0 0 1 0 21.215l-85.486 85.486a14.97 14.97 0 0 1-21.215 0l-85.486-85.486a14.97 14.97 0 0 1 0-21.215l85.486-85.486A14.953 14.953 0 0 1 591.999 53z" fill-opacity=".502"/><path d="M181.5 269h-3v-3h3zm3.105-11.625-1.35 1.38c-1.08 1.095-1.755 1.995-1.755 4.245h-3v-.75c0-1.65.675-3.15 1.755-4.245l1.86-1.89c.555-.54.885-1.29.885-2.115 0-1.65-1.35-3-3-3s-3 1.35-3 3h-3c0-3.315 2.685-6 6-6s6 2.685 6 6c0 1.32-.54 2.52-1.395 3.375z" fill="#fff"/><path d="M117 274h-2v-2h2zm2.07-6.75-.9.92c-.72.73-1.17 1.33-1.17 2.83h-2v-.5c0-1.1.45-2.1 1.17-2.83l1.24-1.26c.37-.36.59-.86.59-1.41 0-1.1-.9-2-2-2s-2 .9-2 2h-2c0-2.21 1.79-4 4-4s4 1.79 4 4c0 .88-.36 1.68-.93 2.25z" fill="#fff"/><path d="M69 279h-2v-2h2zm2.07-7.75-.9.92c-.72.73-1.17 1.33-1.17 2.83h-2v-.5c0-1.1.45-2.1 1.17-2.83l1.24-1.26c.37-.36.59-.86.59-1.41 0-1.1-.9-2-2-2s-2 .9-2 2h-2c0-2.21 1.79-4 4-4s4 1.79 4 4c0 .88-.36 1.68-.93 2.25z" fill="#fff"/><path d="M24 272a2 2 0 1 1 0 4v1h-1v-2h1a1 1 0 1 0-1-1h-1a2 2 0 0 1 2-2zm-.5 5.75a.75.75 0 1 1 0 1.5.75.75 0 0 1 0-1.5z" fill="#fff"/><path d="M258 263h-4v-4h4zm4.14-13.5-1.8 1.84C258.9 252.8 258 254 258 257h-4v-1c0-2.2.9-4.2 2.34-5.66l2.48-2.52A3.91 3.91 0 0 0 260 245c0-2.2-1.8-4-4-4s-4 1.8-4 4h-4c0-4.42 3.58-8 8-8s8 3.58 8 8c0 1.76-.72 3.36-1.86 4.5z" fill="#fff"/><path d="M380 244h-8v-8h8zm8.28-27-3.6 3.68C381.8 223.6 380 226 380 232h-8v-2c0-4.4 1.8-8.4 4.68-11.32l4.96-5.04A7.821 7.821 0 0 0 384 208c0-4.4-3.6-8-8-8s-8 3.6-8 8h-8c0-8.84 7.16-16 16-16s16 7.16 16 16c0 3.52-1.44 6.72-3.72 9z" fill="#fff"/><path d="M600 204h-16v-16h16zm16.56-54-7.2 7.36C603.6 163.2 600 168 600 180h-16v-4c0-8.8 3.6-16.8 9.36-22.64l9.92-10.08c2.96-2.88 4.72-6.88 4.72-11.28 0-8.8-7.2-16-16-16s-16 7.2-16 16h-16c0-17.68 14.32-32 32-32s32 14.32 32 32c0 7.04-2.88 13.44-7.44 18z" fill="#fff"/></g></svg>