<svg version="1.0" viewBox="0 0 24 24" xmlns="http://www.w3.org/2000/svg"><g transform="translate(-56 -260)"><rect x="56" y="260" width="24" height="24" ry="12" fill="#73c48f"/><path d="M68 260c-6.648 0-12 5.352-12 12s5.352 12 12 12 12-5.352 12-12-5.352-12-12-12zm0 1c6.094 0 11 4.906 11 11s-4.906 11-11 11-11-4.906-11-11 4.906-11 11-11z" fill-opacity=".502"/><path d="M68 267a3 3 0 0 0-3 3c0 1.243.745 2.304 1.821 2.759L65 279h6l-1.821-6.241A2.984 2.984 0 0 0 71 270a3 3 0 0 0-3-3z" color="#000" fill-opacity=".196"/><path d="M68 266a3 3 0 0 0-3 3c0 1.243.745 2.304 1.821 2.759L65 278h6l-1.821-6.241A2.984 2.984 0 0 0 71 269a3 3 0 0 0-3-3z" color="#000" fill="#fff"/></g></svg>