<svg version="1.0" viewBox="0 0 24 24" xmlns="http://www.w3.org/2000/svg"><g transform="translate(-56 -260)"><rect transform="rotate(-45)" x="-153.32" y="231.35" width="18.14" height="18.14" ry="2" fill="#faa41a"/><path d="M68 260c-.511 0-1.022.196-1.414.588l-9.998 9.998a1.995 1.995 0 0 0 0 2.828l9.998 9.998a1.995 1.995 0 0 0 2.828 0l9.998-9.998a1.995 1.995 0 0 0 0-2.828l-9.998-9.998A1.994 1.994 0 0 0 68 260zm0 1c.256 0 .511.097.707.293l10 10a.998.998 0 0 1 0 1.414l-10 10a.998.998 0 0 1-1.414 0l-10-10a.998.998 0 0 1 0-1.414l10-10A.996.996 0 0 1 68 261z" fill-opacity=".502"/><path d="M69 266v8h-2v-8zm0 10v2h-2v-2z" fill="#fff"/></g></svg>