<svg version="1.0" viewBox="0 0 24 24" xmlns="http://www.w3.org/2000/svg"><g transform="translate(-56 -260)"><rect transform="rotate(-45)" x="-153.32" y="231.35" width="18.14" height="18.14" ry="2" fill="#6a7ce0"/><path d="M68 260c-.511 0-1.022.196-1.414.588l-9.998 9.998a1.995 1.995 0 0 0 0 2.828l9.998 9.998a1.995 1.995 0 0 0 2.828 0l9.998-9.998a1.995 1.995 0 0 0 0-2.828l-9.998-9.998A1.994 1.994 0 0 0 68 260zm0 1c.256 0 .511.097.707.293l10 10a.998.998 0 0 1 0 1.414l-10 10a.998.998 0 0 1-1.414 0l-10-10a.998.998 0 0 1 0-1.414l10-10A.996.996 0 0 1 68 261z" fill-opacity=".502"/><path d="M69 279h-2v-2h2zm2.07-7.75-.9.92c-.72.73-1.17 1.33-1.17 2.83h-2v-.5c0-1.1.45-2.1 1.17-2.83l1.24-1.26c.37-.36.59-.86.59-1.41 0-1.1-.9-2-2-2s-2 .9-2 2h-2c0-2.21 1.79-4 4-4s4 1.79 4 4c0 .88-.36 1.68-.93 2.25z" fill="#fff"/></g></svg>