<svg version="1.0" viewBox="0 0 24 24" xmlns="http://www.w3.org/2000/svg"><g transform="translate(-56 1240)"><rect x="61" y="-1240" width="14" height="6" ry="1" fill="#dedede"/><path d="M62-1240c-.554 0-1 .446-1 1v7.5c0 .554.446 1 1 1v-8.5h12v8.5c.554 0 1-.446 1-1v-7.5c0-.554-.446-1-1-1z" fill-opacity=".5"/><rect x="56" y="-1234" width="24" height="11" ry="1.5" fill="#474341"/><path d="M57.5-1234c-.831 0-1.5.669-1.5 1.5v8c0 .831.669 1.5 1.5 1.5h21c.831 0 1.5-.669 1.5-1.5v-8c0-.831-.669-1.5-1.5-1.5zm-.5 1h22v9H57z" fill="#fff" fill-opacity=".5"/><rect x="61" y="-1228" width="14" height="12" ry="1" fill="#dedede"/><rect x="59" y="-1232" width="1.5" height="1.5" ry=".75" fill="#73c48f"/><path d="M62-1228c-.554 0-1 .446-1 1v10c0 .554.446 1 1 1h12c.554 0 1-.446 1-1v-10c0-.554-.446-1-1-1v11H62z" fill-opacity=".5"/><rect x="69" y="-1227" width="11" height="11" ry="5.5" fill="#3f51b5"/><path d="M74.5-1227c-3.047 0-5.5 2.453-5.5 5.5s2.453 5.5 5.5 5.5 5.5-2.453 5.5-5.5-2.453-5.5-5.5-5.5zm0 1c2.493 0 4.5 2.007 4.5 4.5s-2.007 4.5-4.5 4.5-4.5-2.007-4.5-4.5 2.007-4.5 4.5-4.5z" fill-opacity=".5"/><path d="M74.5-1224a4.47 4.5 0 0 0-4 2.505 4.47 4.5 0 0 0 4 2.495 4.47 4.5 0 0 0 4-2.505 4.47 4.5 0 0 0-4-2.495zm0 .5a2 2 0 0 1 2 2 2 2 0 0 1-2 2 2 2 0 0 1-2-2 2 2 0 0 1 2-2zm0 1a1 1 0 0 0-1 1 1 1 0 0 0 1 1 1 1 0 0 0 1-1 1 1 0 0 0-1-1z" fill="#fff"/></g></svg>