<svg version="1.0" viewBox="0 0 24 24" xmlns="http://www.w3.org/2000/svg"><g transform="translate(-836 -260)"><path d="M839 261h6l4 4h8c1.108 0 2 .892 2 2v14c0 1.108-.892 2-2 2h-18c-1.108 0-2-.892-2-2v-18c0-1.108.892-2 2-2z" fill="#1c8d9b"/><rect x="838" y="271" width="20" height="9.5" ry="2" fill-opacity=".314"/><rect x="838" y="272" width="20" height="11" ry="2" fill="#48b9c7"/><path d="M839 261.5h5.797l3.996 4H857c.831 0 1.5.669 1.5 1.5v14c0 .831-.669 1.5-1.5 1.5h-18c-.831 0-1.5-.669-1.5-1.5v-18c0-.831.669-1.5 1.5-1.5z" fill="none" stroke="#000" stroke-linecap="round" stroke-opacity=".392"/></g></svg>