<svg version="1.0" viewBox="0 0 24 24" xmlns="http://www.w3.org/2000/svg"><g transform="translate(-56 940)"><rect x="56" y="-938" width="24" height="20" ry="2" fill="#245c63"/><rect x="57" y="-937" width="22" height="18" ry="1.5" fill="#48b9c7"/><rect x="59" y="-935" width="18" height="14" ry="1" fill="#f6f6f6"/><path d="M68-931a3.5 3.5 0 0 0-3.5 3.5A3.5 3.5 0 0 0 68-924a3.5 3.5 0 0 0 3.5-3.5A3.5 3.5 0 0 0 68-931zm0 1a2.5 2.5 0 0 1 2.5 2.5A2.5 2.5 0 0 1 68-925a2.5 2.5 0 0 1-2.5-2.5A2.5 2.5 0 0 1 68-930z" fill="#1c8d9b"/><path d="M69.203-928.91a.252.252 0 0 0-.125.078L68-927.754l-.828-.828c-.079-.128-.284-.153-.39-.047-.107.107-.082.312.046.39l1 1a.26.26 0 0 0 .344 0l1.25-1.25c.146-.148-.013-.455-.219-.421z" color="#bebebe" fill="#1c8d9b"/></g><style>.st0{fill:#261300}.st1{fill:#ff7c00}</style></svg>