<svg version="1.0" viewBox="0 0 24 24" xmlns="http://www.w3.org/2000/svg"><g transform="translate(-56 1240)"><rect x="56" y="-1238" width="24" height="20" ry="2" fill="#245c63"/><rect x="57" y="-1237" width="22" height="18" ry="1.5" fill="#48b9c7"/><rect x="59" y="-1235" width="18" height="14" ry="1" fill="#f6f6f6"/><path d="M65-1232a1 1 0 0 0-1 1 1 1 0 0 0 .293.707l2.293 2.293-2.293 2.293A1 1 0 0 0 64-1225a1 1 0 0 0 1 1 1 1 0 0 0 .707-.293l2.293-2.293 2.283 2.283A1 1 0 0 0 71-1224a1 1 0 0 0 1-1 1 1 0 0 0-.293-.707L69.414-1228l2.283-2.283A1 1 0 0 0 72-1231a1 1 0 0 0-1-1 1 1 0 0 0-.707.293L68-1229.414l-2.283-2.283a1 1 0 0 0-.01-.01A1 1 0 0 0 65-1232z" fill="#f15d22"/></g><style>.st0{fill:#261300}.st1{fill:#ff7c00}</style></svg>