<svg version="1.0" viewBox="0 0 24 24" xmlns="http://www.w3.org/2000/svg"><g transform="translate(-56 40)"><rect x="61" y="-40" width="14" height="6" ry="1" fill="#dedede"/><path d="M62-40c-.554 0-1 .446-1 1v7.5c0 .554.446 1 1 1V-39h12v8.5c.554 0 1-.446 1-1V-39c0-.554-.446-1-1-1z" fill-opacity=".5"/><rect x="56" y="-34" width="24" height="11" ry="1.5" fill="#474341"/><path d="M57.5-34c-.831 0-1.5.669-1.5 1.5v8c0 .831.669 1.5 1.5 1.5h21c.831 0 1.5-.669 1.5-1.5v-8c0-.831-.669-1.5-1.5-1.5zm-.5 1h22v9H57z" fill="#fff" fill-opacity=".5"/><rect x="61" y="-28" width="14" height="12" ry="1" fill="#dedede"/><rect x="59" y="-32" width="1.5" height="1.5" ry=".75" fill="#73c48f"/><path d="M62-28c-.554 0-1 .446-1 1v10c0 .554.446 1 1 1h12c.554 0 1-.446 1-1v-10c0-.554-.446-1-1-1v11H62z" fill-opacity=".5"/><rect x="68" y="-28" width="12" height="12" ry="6" fill="#cf3b00"/><path d="M74-28c-3.324 0-6 2.676-6 6s2.676 6 6 6 6-2.676 6-6-2.676-6-6-6zm0 1c2.77 0 5 2.23 5 5s-2.23 5-5 5-5-2.23-5-5 2.23-5 5-5z" fill-opacity=".5"/><path d="M71.75-25a.75.75 0 0 0-.75.75.75.75 0 0 0 .22.53L72.94-22l-1.72 1.72a.75.75 0 0 0-.22.53.75.75 0 0 0 .75.75.75.75 0 0 0 .53-.22L74-20.94l1.712 1.713a.75.75 0 0 0 .538.227.75.75 0 0 0 .75-.75.75.75 0 0 0-.22-.53L75.06-22l1.713-1.712A.75.75 0 0 0 77-24.25a.75.75 0 0 0-.75-.75.75.75 0 0 0-.53.22L74-23.06l-1.712-1.713a.75.75 0 0 0-.008-.007.75.75 0 0 0-.53-.22z" fill="#fff"/></g></svg>