<svg version="1.0" viewBox="0 0 24 24" xmlns="http://www.w3.org/2000/svg"><g transform="translate(-56 640)"><rect x="58" y="-638" width="20" height="22" ry="2.5" fill="#50443f"/><rect transform="matrix(0 -1 -1 0 0 0)" x="617" y="-77" width="20" height="18" rx="1.5" ry="1.5" fill="#a1887f"/><path fill="#fff" d="M61-635h13.5v3H61z"/><rect x="65" y="-640" width="6" height="6" ry="2.967" fill="#666"/><rect x="65" y="-637" width="6" height="3" ry="0" fill="#666"/><path d="M68-639s-2 0-2 2v1h-1c-.554 0-1.065.45-1 1v1h8v-1c0-.554-.446-1-1-1h-1v-1c0-2-2-2-2-2z" fill="#ccc"/><circle cx="68" cy="-637" r="1" fill="#fff"/></g></svg>