<svg version="1.0" viewBox="0 0 24 24" xmlns="http://www.w3.org/2000/svg"><g transform="translate(-56 340)"><rect x="58" y="-338" width="20" height="22" ry="2.5" fill="#50443f"/><rect transform="matrix(0 -1 -1 0 0 0)" x="317" y="-77" width="20" height="18" rx="1.5" ry="1.5" fill="#a1887f"/><path fill="#fff" d="M61-335h14v16H61z"/><rect x="65" y="-340" width="6" height="6" ry="2.967" fill="#666"/><rect x="65" y="-337" width="6" height="3" ry="0" fill="#666"/><path d="M68-339s-2 0-2 2v1h-1c-.554 0-1.065.45-1 1v1h8v-1c0-.554-.446-1-1-1h-1v-1c0-2-2-2-2-2z" fill="#ccc"/><circle cx="68" cy="-337" r="1" fill="#fff"/><rect x="67" y="-332" width="2" height="7" ry=".456" fill="#f15d22"/><rect x="67" y="-323" width="2" height="2" ry=".456" fill="#f15d22"/></g></svg>