<?xml version="1.0" encoding="UTF-8" standalone="no"?>
<svg
   xmlns:dc="http://purl.org/dc/elements/1.1/"
   xmlns:cc="http://creativecommons.org/ns#"
   xmlns:rdf="http://www.w3.org/1999/02/22-rdf-syntax-ns#"
   xmlns:svg="http://www.w3.org/2000/svg"
   xmlns="http://www.w3.org/2000/svg"
   xmlns:sodipodi="http://sodipodi.sourceforge.net/DTD/sodipodi-0.dtd"
   xmlns:inkscape="http://www.inkscape.org/namespaces/inkscape"
   width="64"
   height="64"
   version="1"
   id="svg14"
   sodipodi:docname="application-x-firmware.svg"
   inkscape:version="0.92.4 (5da689c313, 2019-01-14)">
  <metadata
     id="metadata20">
    <rdf:RDF>
      <cc:Work
         rdf:about="">
        <dc:format>image/svg+xml</dc:format>
        <dc:type
           rdf:resource="http://purl.org/dc/dcmitype/StillImage" />
        <dc:title></dc:title>
      </cc:Work>
    </rdf:RDF>
  </metadata>
  <defs
     id="defs18" />
  <sodipodi:namedview
     pagecolor="#ffffff"
     bordercolor="#666666"
     borderopacity="1"
     objecttolerance="10"
     gridtolerance="10"
     guidetolerance="10"
     inkscape:pageopacity="0"
     inkscape:pageshadow="2"
     inkscape:window-width="1632"
     inkscape:window-height="1370"
     id="namedview16"
     showgrid="true"
     inkscape:zoom="14.75"
     inkscape:cx="34.266247"
     inkscape:cy="30.712568"
     inkscape:window-x="928"
     inkscape:window-y="32"
     inkscape:window-maximized="0"
     inkscape:current-layer="svg14">
    <inkscape:grid
       type="xygrid"
       id="grid854" />
  </sodipodi:namedview>
  <path
     style="opacity:0.2"
     d="m 14.5,7.9999999 c -1.385,0 -2.5,1.115 -2.5,2.5000001 v 45 c 0,1.385 1.115,2.5 2.5,2.5 h 35 C 50.885,58 52,56.885 52,55.5 V 23 L 38.25,21.75 37,7.9999999 Z"
     id="path2" />
  <path
     d="m14.5 7c-1.385 0-2.5 1.115-2.5 2.5v45c0 1.385 1.115 2.5 2.5 2.5h35c1.385 0 2.5-1.115 2.5-2.5v-32.5l-13.75-1.25-1.25-13.75z"
     id="path4"
     fill="#e4e4e4" />
  <path
     style="opacity:0.2"
     d="M 37,7.9999999 V 20.5 c 0,1.3808 1.1193,2.5 2.5,2.5 H 52 Z"
     id="path6" />
  <path
     d="m37 7v12.5c0 1.3808 1.1193 2.5 2.5 2.5h12.5l-15-15z"
     id="path8"
     fill="#fafafa" />
  <path
     style="opacity:0.2;fill:#ffffff"
     d="m 14.5,6.9999999 c -1.385,0 -2.5,1.115 -2.5,2.5 V 10.5 C 12,9.1149999 13.115,7.9999999 14.5,7.9999999 H 37 c 0,-1 0,0 0,-1 z"
     id="path12" />
  <g
     id="layer14"
     style="display:inline;enable-background:new;fill:#000000;fill-opacity:0.58823532"
     transform="translate(-901.0002,608)">
    <path
       inkscape:connector-curvature="0"
       d="m 929.0002,-574 c -0.554,0 -1,0.446 -1,1 v 1 h -2 c -0.554,0 -1,0.446 -1,1 v 8 c 0,0.554 0.446,1 1,1 h 2 v 1 c 0,0.554 0.446,1 1,1 0.554,0 1,-0.446 1,-1 v -1 h 2 v 1 c 0,0.554 0.446,1 1,1 0.554,0 1,-0.446 1,-1 v -1 h 2 v 1 c 0,0.554 0.446,1 1,1 0.554,0 1,-0.446 1,-1 v -1 h 2 c 0.554,0 1,-0.446 1,-1 v -4 -4 c 0,-0.554 -0.446,-1 -1,-1 h -2 v -1 c 0,-0.554 -0.446,-1 -1,-1 -0.554,0 -1,0.446 -1,1 v 1 h -2 v -1 c 0,-0.554 -0.446,-1 -1,-1 -0.554,0 -1,0.446 -1,1 v 1 h -2 v -1 c 0,-0.554 -0.446,-1 -1,-1 z m -2,4 h 12 v 1 a 2,2 0 0 0 -2,2 2,2 0 0 0 2,2 v 1 h -12 z"
       id="rect3077"
       style="display:inline;opacity:1;vector-effect:none;fill:#000000;fill-opacity:0.58823532;stroke:none;stroke-width:2;stroke-linecap:square;stroke-opacity:0.09803922;enable-background:new" />
  </g>
</svg>
