<svg version="1.0" viewBox="0 0 32 32" xmlns="http://www.w3.org/2000/svg"><g transform="translate(-100 -252)"><rect x="103" y="255" width="26" height="27" ry="2" fill="#dedede"/><path d="M105.001 254.998c-1.108 0-2 .892-2 2v23c0 1.108.892 2 2 2h22c1.108 0 2-.892 2-2v-23c0-1.108-.892-2-2-2zm.5 1h21c.831 0 1.5.67 1.5 1.5v21c0 .831-.669 1.5-1.5 1.5h-21c-.831 0-1.5-.669-1.5-1.5v-21c0-.83.669-1.5 1.5-1.5z" fill-opacity=".502"/><rect x="105" y="257" width="10" height="10" ry="2" fill-opacity=".5"/><rect x="117" y="257" width="10" height="10" ry="2" fill-opacity=".5"/><rect x="105" y="269" width="10" height="10" ry="2" fill-opacity=".5"/><rect x="117" y="269" width="10" height="10" ry="2" fill-opacity=".5"/><rect x="105" y="257" width="10" height="9" ry="2" fill="#aaa"/><rect x="117" y="257" width="10" height="9" ry="2" fill="#aaa"/><rect x="105" y="269" width="10" height="9" ry="2" fill="#aaa"/><rect x="117" y="269" width="10" height="9" ry="2" fill="#73c48f"/><path d="M111 260v2h2v1h-2v2h-2v-2h-2v-1h2v-2z" fill-opacity=".196"/><path d="m125.5 260.5-2 2 2 2-1.5 1.5-2-2-2 2-1.5-1.5 2-2-2-2 1.5-1.5 2 2 2-2z" fill-opacity=".196"/><path d="M109 271h2v2h-2zm0 5h2v2h-2zm-3-2h8v1h-8z" fill-opacity=".196"/><path d="M119 272h6v2h-6zm0 3h6v2h-6z" fill-opacity=".196"/><path d="M111 258v2h2v2h-2v2h-2v-2h-2v-2h2v-2z" fill="#fff"/><path d="m125.5 259.5-2 2 2 2-1.5 1.5-2-2-2 2-1.5-1.5 2-2-2-2 1.5-1.5 2 2 2-2z" fill="#fff"/><path d="M109 270h2v2h-2zm0 5h2v2h-2zm-3-2h8v1h-8z" fill="#fff"/><path d="M119 271h6v2h-6zm0 3h6v2h-6z" fill="#fbfbfb"/></g></svg>