<svg version="1.0" viewBox="0 0 32 32" xmlns="http://www.w3.org/2000/svg"><path d="M28 9.5v20c0 1.385-1.115 2.5-2.5 2.5h-19A2.495 2.495 0 0 1 4 29.5v-26C4 2.115 5.115 1 6.5 1h13" fill="#6f6f6f"/><path d="M27 10v18c0 1.108-.892 2-2 2H7c-1.108 0-2-.892-2-2V4c0-1.108.892-2 2-2h12" fill="#ececec"/><path d="M27 12h-7c-1.108 0-2-.892-2-2V2h1l8 8z" fill="#6f6f6f" fill-opacity=".502"/><path d="M27 10h-6c-1.108 0-2-.892-2-2V2" fill="#fafafa"/><rect x="-80" y="24" width="8" height="1" ry=".5" fill="#474341" fill-opacity=".69"/><rect x="-80" y="26" width="8" height="1" ry=".5" fill="#474341" fill-opacity=".69"/><rect x="-80" y="28" width="5" height="1" ry=".456" fill="#474341" fill-opacity=".69"/><rect x="-39" y="28" width="9" height="1" ry=".456" fill="#474341" fill-opacity=".69"/><rect x="-39" y="25" width="14" height="1" ry=".456" fill="#474341" fill-opacity=".69"/><rect x="-39" y="22" width="14" height="1" ry=".456" fill="#474341" fill-opacity=".69"/><rect x="-39" y="19" width="14" height="1" ry=".456" fill="#474341" fill-opacity=".69"/><rect x="9" y="25" width="9" height="1" ry=".456" fill="#474341" fill-opacity=".69"/><rect x="9" y="22" width="14" height="1" ry=".456" fill="#474341" fill-opacity=".69"/><rect x="9" y="19" width="14" height="1" ry=".456" fill="#474341" fill-opacity=".69"/><rect x="9" y="16" width="14" height="1" ry=".456" fill="#474341" fill-opacity=".69"/><g transform="translate(-100 -252)" fill="#474341" fill-opacity=".69"><rect x="243" y="-334.5" width="9" height="1" ry=".456"/><rect x="243" y="-337.5" width="14" height="1" ry=".456"/><rect x="243" y="-340.5" width="14" height="1" ry=".456"/><rect x="243" y="-343.5" width="14" height="1" ry=".456"/><rect x="243" y="-334.5" width="9" height="1" ry=".456"/><rect x="243" y="-337.5" width="14" height="1" ry=".456"/><rect x="243" y="-340.5" width="14" height="1" ry=".456"/><rect x="243" y="-343.5" width="14" height="1" ry=".456"/><rect x="243" y="-334.5" width="9" height="1" ry=".456"/><rect x="243" y="-337.5" width="14" height="1" ry=".456"/><rect x="243" y="-340.5" width="14" height="1" ry=".456"/><rect x="243" y="-343.5" width="14" height="1" ry=".456"/><rect x="243" y="-334.5" width="7.5" height="1" ry=".456"/><rect x="243" y="-337.5" width="12" height="1" ry=".423"/><rect x="243" y="-340.5" width="12" height="1" ry=".375"/><rect x="243" y="-343.5" width="12" height="1" ry=".456"/></g><rect x="14" y="17" width="15" height="15" ry="3.5" fill="#671d00"/><rect x="15" y="18" width="13" height="12" ry="3" fill="#cf3b00"/><rect x="78" y="12" width="20" height="20" ry="3.5" fill="#671d00"/><rect x="79" y="13" width="18" height="16" ry="3" fill="#cf3b00"/><rect x="154" y="8" width="26" height="24" ry="5.5" fill="#671d00"/><rect x="155" y="9" width="24" height="20" ry="5" fill="#cf3b00"/><rect x="272" y="-16" width="52" height="47" ry="10.5" fill="#671d00"/><rect x="273" y="-15" width="50" height="42" ry="10" fill="#cf3b00"/><rect x="483" y="-63.987" width="104" height="91.987" ry="20.5" fill="#671d00"/><rect x="484" y="-63" width="102" height="86" ry="20" fill="#cf3b00"/><rect x="-34" y="20" width="13" height="12" ry="2.5" fill="#671d00"/><rect x="-33" y="21" width="11" height="10.002" ry="2" fill="#cf3b00"/><rect x="-79" y="22" width="11" height="10" ry="1.5" fill="#671d00"/><rect x="-78" y="23" width="9" height="8" ry="1" fill="#cf3b00"/><path d="M21.5 21.5a4.47 4.5 0 0 0-4 2.505 4.47 4.5 0 0 0 4 2.495 4.47 4.5 0 0 0 4-2.505 4.47 4.5 0 0 0-4-2.495zm0 .5a2 2 0 0 1 2 2 2 2 0 0 1-2 2 2 2 0 0 1-2-2 2 2 0 0 1 2-2zm0 1a1 1 0 0 0-1 1 1 1 0 0 0 1 1 1 1 0 0 0 1-1 1 1 0 0 0-1-1z" fill="#fff"/></svg>