<svg version="1.0" viewBox="0 0 32 32" xmlns="http://www.w3.org/2000/svg"><g transform="translate(-100 -252)"><path d="M128 261.5v20c0 1.385-1.115 2.5-2.5 2.5h-19a2.495 2.495 0 0 1-2.5-2.5v-26c0-1.385 1.115-2.5 2.5-2.5h13" fill="#6f6f6f"/><path d="M127 262v18c0 1.108-.892 2-2 2h-18c-1.108 0-2-.892-2-2v-24c0-1.108.892-2 2-2h12" fill="#ececec"/><path d="M127 264h-7c-1.108 0-2-.892-2-2v-8h1l8 8z" fill="#6f6f6f" fill-opacity=".502"/><path d="M127 262h-6c-1.108 0-2-.892-2-2v-6" fill="#fafafa"/><rect x="109" y="277" width="9" height="1" ry=".456" fill="#474341" fill-opacity=".69"/><rect x="109" y="274" width="14" height="1" ry=".456" fill="#474341" fill-opacity=".69"/><rect x="109" y="271" width="14" height="1" ry=".456" fill="#474341" fill-opacity=".69"/><rect x="109" y="268" width="14" height="1" ry=".456" fill="#474341" fill-opacity=".69"/><rect x="114" y="269" width="15" height="15" ry="3.5" fill="#671d00"/><rect x="115" y="270" width="13" height="12" ry="3" fill="#cf3b00"/><path d="M121.5 273.5a4.47 4.5 0 0 0-4 2.505 4.47 4.5 0 0 0 4 2.495 4.47 4.5 0 0 0 4-2.505 4.47 4.5 0 0 0-4-2.495zm0 .5a2 2 0 0 1 2 2 2 2 0 0 1-2 2 2 2 0 0 1-2-2 2 2 0 0 1 2-2zm0 1a1 1 0 0 0-1 1 1 1 0 0 0 1 1 1 1 0 0 0 1-1 1 1 0 0 0-1-1z" fill="#fff"/></g></svg>