<svg version="1.0" viewBox="0 0 32 32" xmlns="http://www.w3.org/2000/svg"><g transform="translate(-100 -252)"><path d="M128 261.5v20c0 1.385-1.115 2.5-2.5 2.5h-19a2.495 2.495 0 0 1-2.5-2.5v-26c0-1.385 1.115-2.5 2.5-2.5h13" fill="#6f6f6f"/><path d="M127 262v18c0 1.108-.892 2-2 2h-18c-1.108 0-2-.892-2-2v-24c0-1.108.892-2 2-2h12" fill="#ececec"/><path d="M127 264h-7c-1.108 0-2-.892-2-2v-8h1l8 8z" fill="#6f6f6f" fill-opacity=".502"/><path d="M127 262h-6c-1.108 0-2-.892-2-2v-6" fill="#fafafa"/><rect x="109" y="276.5" width="9" height="1" ry=".456" fill="#474341" fill-opacity=".69"/><rect x="109" y="273.5" width="14" height="1" ry=".456" fill="#474341" fill-opacity=".69"/><rect x="109" y="270.5" width="14" height="1" ry=".456" fill="#474341" fill-opacity=".69"/><rect x="109" y="267.5" width="14" height="1" ry=".456" fill="#474341" fill-opacity=".69"/><rect transform="rotate(45)" x="273.98" y="113.09" width="5" height="3" ry="0" fill="#a27100"/><rect transform="rotate(45)" x="273.98" y="94.587" width="5" height="21.5" ry="1.5" fill="#a27100"/><path d="M111.65 275.82v3.535h3.535z" fill="#a27100"/><rect transform="rotate(45)" x="274.48" y="97.087" width="4" height="3" ry="0" fill="#d4d1ca"/><path fill="#ffce51" d="m124.02 265.568 1.414 1.414-11.314 11.314-1.414-1.414z"/><path fill="#fffa7d" d="m123.312 264.861.707.707-11.313 11.314-.707-.707z"/><path fill="#d1a023" d="m125.434 266.982.707.707-11.314 11.314-.707-.707z"/><path d="M112 276.17v2.828h2.828z" fill="#f5f2e3"/><path d="m112 278.29.707.707H112z" fill="#3c3c3c"/><rect transform="rotate(45)" x="274.48" y="95.087" width="4" height="2" ry="1" fill="#ff8989"/><rect transform="rotate(45)" x="274.48" y="96.087" width="4" height="1" ry="0" fill="#ff8989"/></g></svg>