<svg version="1.0" viewBox="0 0 32 32" xmlns="http://www.w3.org/2000/svg"><g transform="translate(-100 -252)"><rect x="105" y="255" width="22" height="26" ry="2" fill="#560c00"/><rect x="106" y="256" width="20" height="24" ry="1.5" fill="#dedede"/><rect x="105" y="254" width="20" height="24" ry="2" fill="#560c00"/><rect x="106" y="255" width="18" height="22" ry="1.5" fill="#f15d22"/><path d="M107.5 255c-.831 0-1.5.669-1.5 1.5v22c0 .831.669 1.5 1.5 1.5h.5v-25z" fill="#350700"/><path d="M112 264c-1.108 0-2 .892-2 2v4h1v-2h2v2h1v-4c0-1.108-.892-2-2-2zm0 1c.554 0 1 .446 1 1v1h-2v-1c0-.554.446-1 1-1z" fill-opacity=".196"/><path d="M118 264v1h2.4l-2.4 4v1h4v-1h-2.4l2.4-4v-1h-1z" fill-opacity=".196"/><path fill-opacity=".196" d="M115 267h2v1h-2z"/><path d="M112 263c-1.108 0-2 .892-2 2v4h1v-2h2v2h1v-4c0-1.108-.892-2-2-2zm0 1c.554 0 1 .446 1 1v1h-2v-1c0-.554.446-1 1-1z" fill="#ededed"/><path d="M118 263v1h2.4l-2.4 4v1h4v-1h-2.4l2.4-4v-1h-1z" fill="#ededed"/><path fill="#ededed" d="M115 266h2v1h-2z"/></g></svg>