<svg version="1.0" viewBox="0 0 32 32" xmlns="http://www.w3.org/2000/svg"><g transform="translate(-100 -252)"><rect transform="matrix(0 -1 -1 0 0 0)" x="-282" y="-127" width="27" height="22" ry="2" fill="#50443f"/><rect transform="matrix(0 -1 -1 0 0 0)" x="-280" y="-126" width="24" height="20" ry="1.5" fill="#a1887f"/><path fill="#fff" d="M108 258h16v20h-16z"/><rect x="112" y="252" width="8" height="8" ry="3.939" fill="#666"/><rect x="112" y="256" width="8" height="4" ry="0" fill="#666"/><path fill="#ccc" d="M110 258h12v2h-12z"/><rect x="110" y="257" width="12" height="2" ry=".956" fill="#ccc"/><circle cx="116" cy="256" r="3" fill="#ccc"/><path fill="#ccc" d="M113 256h6v2.5h-6z"/><circle cx="116" cy="255.5" r="1.5" fill="#fff"/></g></svg>