<svg version="1.0" viewBox="0 0 32 32" xmlns="http://www.w3.org/2000/svg"><g transform="translate(-100 348)"><rect x="102" y="-341" width="28" height="22" ry="2" fill="#6f6f6f"/><rect x="103" y="-340" width="26" height="19" ry="1.5" fill="#dedede"/><path fill="#45454f" d="M105-338h22v14h-22z"/><path fill="#48b9c7" d="M105-338h22v14h-22z"/><path d="M106-336v4h1v-3h4v-1h-4zm15 0v1h4v3h1v-4h-1zm-15 8v4h5v-1h-4v-3zm19 0v3h-4v1h5v-4z" fill-opacity=".196"/><path d="M106-337v4h1v-3h4v-1h-4zm15 0v1h4v3h1v-4h-1zm-15 8v4h5v-1h-4v-3zm19 0v3h-4v1h5v-4z" fill="#fff" fill-opacity=".989"/></g></svg>