<svg version="1.0" viewBox="0 0 32 32" xmlns="http://www.w3.org/2000/svg"><g transform="translate(-100 -252)"><rect x="101" y="253" width="30" height="31" ry="15" fill="#7b7b7b"/><rect x="101" y="253" width="30" height="30" ry="15" fill="#f6f6f6"/><rect x="101.5" y="253.5" width="29" height="29" ry="14.5" fill="none" stroke="#000" stroke-linecap="round" stroke-opacity=".502"/><rect transform="rotate(60)" x="289.59" y="20.541" width="1" height="4" ry=".5" fill="#333"/><rect transform="rotate(30)" x="233.96" y="161.09" width="1" height="4" ry=".5" fill="#333"/><rect x="115" y="254.5" width="2" height="5" ry="1" fill="#333"/><rect transform="rotate(-30)" x="-34.041" y="277.09" width="1" height="4" ry=".5" fill="#333"/><rect transform="rotate(-60)" x="-174.59" y="221.46" width="1" height="4" ry=".5" fill="#333"/><rect transform="rotate(-90)" x="-269" y="102.5" width="2" height="5" ry="1" fill="#333"/><rect transform="rotate(240)" x="-290.59" y="-46.541" width="1" height="4" ry=".5" fill="#333"/><rect transform="rotate(210)" x="-234.96" y="-187.09" width="1" height="4" ry=".5" fill="#333"/><rect transform="scale(-1)" x="-117" y="-281.5" width="2" height="5" ry="1" fill="#333"/><rect transform="rotate(150)" x="33.041" y="-303.09" width="1" height="4" ry=".5" fill="#333"/><rect transform="rotate(120)" x="173.59" y="-247.46" width="1" height="4" ry=".5" fill="#333"/><rect transform="rotate(90)" x="267" y="-129.5" width="2" height="5" ry="1" fill="#333"/><path d="M123.1 265.29a.5.5 0 0 0-.66-.253l-6.852 3.05a1 1 0 0 0-.507 1.32 1 1 0 0 0 1.32.507 1 1 0 0 0 .22-.133l6.226-3.83a.5.5 0 0 0 .253-.661z" fill-opacity=".502"/><path d="M123.1 264.29a.5.5 0 0 0-.66-.253l-6.852 3.05a1 1 0 0 0-.507 1.32 1 1 0 0 0 1.32.507 1 1 0 0 0 .22-.133l6.226-3.83a.5.5 0 0 0 .253-.661z" fill="#2b2928"/><path d="M118.9 274.28a.5.5 0 0 0 .253-.66l-2.237-5.025a1 1 0 0 0-1.32-.506 1 1 0 0 0-.507 1.32 1 1 0 0 0 .199.292l2.952 4.326a.5.5 0 0 0 .66.253z" fill-opacity=".502"/><path d="M118.9 273.28a.5.5 0 0 0 .253-.66l-2.237-5.025a1 1 0 0 0-1.32-.506 1 1 0 0 0-.507 1.32 1 1 0 0 0 .199.292l2.952 4.326a.5.5 0 0 0 .66.253z" fill="#474341"/><rect x="115.5" y="267.5" width="1" height="1" ry=".5" fill="#f6f6f6"/></g></svg>