<svg version="1.0" viewBox="0 0 32 32" xmlns="http://www.w3.org/2000/svg"><g transform="translate(-100 -252)"><rect x="103" y="254" width="20" height="21" ry="2" fill="#5f5f5f"/><rect x="103" y="254" width="20" height="20" ry="2" fill="#bebebe"/><rect x="103.5" y="254.5" width="19" height="19" ry="1.5" fill="none" stroke="#000" stroke-linecap="round" stroke-opacity=".5"/><rect x="109" y="261" width="20" height="21" ry="2" fill="#757575"/><path d="M107.5 263c-1 0-1.5.5-1.5 2s.5 2 1.5 2c1.5 0 1.5-.5 1.5-2s-.5-2-1.5-2zm0-1c1.834 0 2.5 1 2.5 3 0 1.5-.5 3-2.5 3s-2.5-1.5-2.5-3c0-2 1-3 2.5-3zm.5-2h1v1h-1zm-2 0h1v1h-1z" fill="#393634" fill-opacity=".8"/><rect x="109" y="261" width="20" height="20" ry="2" fill="#dedede"/><rect x="109.5" y="261.5" width="19" height="19" ry="1.5" fill="none" stroke="#0d0d0d" stroke-linecap="round" stroke-opacity=".5"/><path d="M117 273h-5c0 1.5 1 2 2 2 .9 0 1.731-.203 2.5-.5v1c-.815.357-1.697.5-2.5.5-2 0-3-1.5-3-3.5s1-3.5 3-3.5 3 1 3 4zm-1-1c0-1.5-.5-2-2-2s-1.688.942-2 2zm-2.5-6h1l1.5 2h-1l-1-1-1 1h-1z" fill="#393634" fill-opacity=".8"/></g></svg>