<svg version="1.0" viewBox="0 0 32 32" xmlns="http://www.w3.org/2000/svg"><g transform="translate(-836 48)"><g transform="translate(736 -300)"><rect x="104" y="253" width="24" height="31" ry="2.5" fill="#565656" fill-opacity=".963"/><rect x="105" y="254" width="22" height="28" ry="2" fill="#acacac"/><circle cx="116" cy="265" r="7" fill="#444"/><path fill="#444" d="M109 265h7v5.5h-7z"/><path fill="#444" d="M116 265v7h-5.5v-7z"/><rect x="109" y="265" width="7" height="7" ry="1" fill="#444"/><circle cx="116" cy="265" r="3.5" fill="#acacac"/></g><rect x="852" y="-33" width="16" height="17" ry="8" fill="#552d5d"/><circle cx="860" cy="-25" r="7" fill="#aa5abb"/><path d="m859.12-28.532-.078.93a2.775 2.775 0 0 0-.81.47l-.846-.399-.883 1.53.768.533a2.775 2.775 0 0 0-.043.468 2.775 2.775 0 0 0 .04.47l-.765.53.883 1.53.843-.397a2.775 2.775 0 0 0 .813.466l.078.932h1.766l.078-.93a2.775 2.775 0 0 0 .81-.47l.846.399.883-1.53-.768-.532a2.775 2.775 0 0 0 .043-.468 2.775 2.775 0 0 0-.04-.47l.765-.532-.883-1.529-.843.397a2.775 2.775 0 0 0-.813-.466l-.078-.932zm.883 2.522a1.009 1.009 0 0 1 1.009 1.01 1.009 1.009 0 0 1-1.01 1.009 1.009 1.009 0 0 1-1.008-1.01 1.009 1.009 0 0 1 1.009-1.008z" fill="#fafafb"/></g></svg>