<svg version="1.0" viewBox="0 0 32 32" xmlns="http://www.w3.org/2000/svg"><g transform="translate(-100 48)"><path d="M116-47c-8.31 0-15 6.69-15 15v1c0 8.31 6.69 15 15 15s15-6.69 15-15v-1c0-8.31-6.69-15-15-15z" fill="#cdcdcd"/><path d="M116-47c-8.31 0-15 6.69-15 15v1c0 8.31 6.69 15 15 15s15-6.69 15-15v-1c0-8.31-6.69-15-15-15zm0 1a14 14 0 0 1 14 14 14 14 0 0 1-14 14 14 14 0 0 1-14-14 14 14 0 0 1 14-14z" fill-opacity=".5"/><circle cx="116" cy="-32" r="5.5" fill="none" stroke="#000" stroke-linecap="square" stroke-opacity=".5"/><circle cx="116" cy="-32" r="5" fill-opacity=".2"/><circle cx="116" cy="-32" r="2" fill-opacity=".8"/><rect x="114" y="-35" width="18" height="19" ry="9" fill="#f15d22"/><path d="M123-35a8.98 8.98 0 0 0-9 9v1c0 4.986 4.014 9 9 9s9-4.014 9-9v-1c0-4.986-4.014-9-9-9zm0 1a8 8 0 0 1 8 8 8 8 0 0 1-8 8 8 8 0 0 1-8-8 8 8 0 0 1 8-8z" fill-opacity=".5"/><path d="M122.86-22.406c-.835 0-1.505-.661-1.505-1.472 0-.76.483-1.294 1.313-1.463.83-.169 1.688-.567 2.166-1.21a6.54 6.54 0 0 1 .272 1.895 2.25 2.25 0 0 1-2.246 2.25M123.7-31s.346 1.243.346 2.25c0 .967-.633 1.75-1.599 1.75-.97 0-1.701-.783-1.701-1.75l.014-.173a6.458 6.458 0 0 0-1.515 4.173 3.75 3.75 0 0 0 3.751 3.75 3.75 3.75 0 0 0 3.75-3.75c0-2.532-1.214-4.782-3.047-6.25z" fill="#fff"/></g></svg>