<svg version="1.0" viewBox="0 0 32 32" xmlns="http://www.w3.org/2000/svg"><g transform="translate(-836 348)"><g transform="translate(736 -600)"><rect x="104" y="253" width="24" height="31" ry="2.5" fill="#565656" fill-opacity=".963"/><rect x="105" y="254" width="22" height="28" ry="2" fill="#acacac"/><circle cx="116" cy="265" r="7" fill="#444"/><path fill="#444" d="M109 265h7v5.5h-7z"/><path fill="#444" d="M116 265v7h-5.5v-7z"/><rect x="109" y="265" width="7" height="7" ry="1" fill="#444"/><circle cx="116" cy="265" r="3.5" fill="#acacac"/></g><rect x="852" y="-333" width="16" height="17" ry="8" fill="#7f6728"/><path d="m860-325-5.621 6.7A7.972 7.972 0 0 0 860-316c4.432 0 8-3.568 8-8v-1z" fill="#353e70"/><path d="M867-325a7 7 0 0 1-4.042 6.344 7 7 0 0 1-7.457-.982L860-325z" fill="#6a7ce0"/><path d="M853.87-330.14a7.968 7.968 0 0 0-1.87 5.144v1c0 2.236.91 4.25 2.38 5.7l5.62-6.7z" fill="#782e11"/><path d="M855.5-319.64a7 7 0 0 1-2.474-4.752 7 7 0 0 1 1.611-5.11l5.363 4.5z" fill="#f15d22"/><path d="M854.64-329.5a7 7 0 0 1 7.756-2.078 7 7 0 0 1 4.606 6.577h-7z" fill="#ffce51"/></g></svg>