<svg version="1.0" viewBox="0 0 32 32" xmlns="http://www.w3.org/2000/svg"><g fill="#306ab8"><path d="M9.5 16.5h3v-2l-2.687.009c-.215-.003-.32-.052-.31-.317L9.5 12H13v-2c-1.866.133-3.628.367-5.5.5V21c1.832.218 3.665.782 5.5 1v-2.5c-1.108-.096-2.418-.406-3.5-.5zM17.032 29C12.18 28.099 7.852 27.151 3 26.25V5.75C7.833 4.853 12.137 3.903 17 3v26"/><path d="M25.005 14.895c.225.168.45.328.665.5.159.126.274.08.396-.06.345-.391.932-.777 1.283-1.163.114-.126.144-.272.143-.441-.003-1.039-.001-2.077.003-3.116.002-.32-.193-.615-.51-.614-.963.004-2.022.002-2.986 0-.217-.001-.47.222-.613.385a20.509 20.509 0 0 0-2.86 4.185c-.123.24-.075.387.106.446.885-.89 1.768-1.72 2.579-2.62.437-.485.885-.682 1.52-.646.954.054.93.015.964 1.022.026.781.045 1.53-.67 2.036-.007.005-.006.023-.02.086zm.744 5.355c-.448 0-.959.005-1.375 0-.652-.007-1.605-.664-1.653-.699l-.501.679c-.14.172-.09.305.057.443.352.331.702.666 1.04 1.011.156.159.344.317.557.316.952 0 2.16.01 3.112 0 .445-.004.505-.205.505-.661.001-.903-.015-1.806.008-2.708.01-.383-.107-.668-.378-.908-1.198-1.058-2.684-2.036-4.078-2.805-.229-.126-.4-.142-.532.222.087.07.21.152.31.255.875.891 1.745 1.785 2.616 2.68.107.112.312.243.312.425.003.58 0 1.088 0 1.75zm-6.755 1.684c.688.073 1.01-.445 1.364-.906.914-1.188 1.794-2.4 2.421-3.779-.063-.125-.134-.22-.235-.244-.58.588-1.152 1.161-1.717 1.741-.423.435-.842.873-1.254 1.32-.155.167-.32.243-.566.177V16.45c.411.235.791.457 1.176.67.27.148.28.14.484-.153-.49-.513-.98-1.029-1.474-1.541-.111-.115-.212-.22-.21-.407.006-1.063.002-2.126.002-3.237.3.008.595-.124.855.106.215.191.414.4.634.615.242-.238.388-.521.566-.778.093-.134.02-.228-.073-.32-.39-.38-.781-.76-1.17-1.142-.226-.224-.53-.063-.798-.17V8.002l8.658-.009c.942 0 1.342.426 1.342 1.403 0 4.243.002 8.851 0 13.095 0 1.125-.376 1.511-1.458 1.51h-8.542"/></g></svg>