<svg version="1.0" viewBox="0 0 32 32" xmlns="http://www.w3.org/2000/svg"><g transform="translate(-100 -252)"><rect x="101" y="253" width="30" height="31" ry="15" fill="#1f285a"/><rect x="102" y="254" width="28" height="28" ry="14" fill="#3f51b5"/><path d="M116 254c-1.838 0-3.586.361-5.191 1h1.213a8 15 0 0 0-2.786 5h-4.73c-.438.63-.817 1.3-1.149 2h5.32a8 15 0 0 0-.66 5h-5.966c-.024.332-.051.662-.051 1s.027.668.05 1h5.975a8 15 0 0 0 .647 5h-5.315c.332.7.71 1.37 1.149 2h4.736a8 15 0 0 0 2.787 5h-1.22c1.605.638 3.353 1 5.19 1s3.587-.361 5.192-1h-1.213a8 15 0 0 0 2.786-5h4.73c.438-.63.817-1.3 1.148-2h-5.32a8 15 0 0 0 .66-5h5.967c.023-.332.05-.662.05-1s-.027-.668-.05-1h-5.975a8 15 0 0 0-.646-5h5.314c-.33-.7-.71-1.37-1.148-2h-4.736a8 15 0 0 0-2.787-5h1.22c-1.605-.638-3.353-1-5.191-1zm-1 1.184V260h-3.72a6 13 0 0 1 3.72-4.816zm2 .013a6 13 0 0 1 3.727 4.803H117zM110.684 262H115v5h-4.977a6 13 0 0 1 .66-5zm6.316 0h4.32a6 13 0 0 1 .66 5H117zm-6.98 7H115v5h-4.32a6 13 0 0 1-.66-5zm6.98 0h4.977a6 13 0 0 1-.66 5H117zm-5.727 7H115v4.803a6 13 0 0 1-3.727-4.803zm5.727 0h3.72a6 13 0 0 1-3.72 4.816z" fill="#94a6ff"/></g></svg>