<svg version="1.0" viewBox="0 0 32 32" xmlns="http://www.w3.org/2000/svg"><g transform="translate(-100 -252)"><rect x="102" y="259" width="28" height="22" ry="2" fill="#782e11"/><rect x="103" y="260" width="26" height="19" ry="1.5" fill="#f15d22"/><path d="M104.5 260c-.831 0-1.5.669-1.5 1.5v2.5h26v-2.5c0-.831-.669-1.5-1.5-1.5z"/><path d="m106 260-2 4h3l2-4z" fill="#f7f7f7"/><path d="m112 260-2 4h3l2-4z" fill="#f7f7f7"/><path d="m118 260-2 4h3l2-4z" fill="#f7f7f7"/><path d="m124 260-2 4h3l2-4z" fill="#f7f7f7"/><path d="M114 265.46a1 1 0 0 0-.996.941h-.002v.026l-.002.033c0 .023 0 .047.002.07v5a1 1 0 0 0 1.422.905l.002.002.025-.014.004-.002a.942.942 0 0 0 .088-.049l4.912-2.45.01-.005v-.002a1 1 0 0 0 .033-1.752l-.018-.01s-.003 0-.004-.002l-4.991-2.566h-.002a1.01 1.01 0 0 0-.483-.125z" fill="#fff"/><rect x="103" y="274" width="26" height="5" ry="1.5" fill="#dedede"/><rect x="104" y="276" width="17" height="1" ry=".5" fill="#cf3b00"/><rect x="120" y="275" width="3" height="3" ry="1.5" fill="#822500"/><circle cx="121.5" cy="276.5" r=".5" fill="#fff"/></g></svg>