<svg version="1.0" viewBox="0 0 32 32" xmlns="http://www.w3.org/2000/svg"><g transform="translate(-100 -252)"><rect x="102" y="259" width="28" height="22" ry="2" fill="#245c63"/><rect x="103" y="260" width="26" height="19" ry="1.5" fill="#48b9c7"/><rect x="105" y="262" width="22" height="15" ry="1" fill="#f6f6f6"/><path d="M108 263v8.5l3-3 3 3 5-5 5 5V263z" fill="#1c8d9b" opacity=".5"/><path d="m116 267.5 8 8.5h-16z" fill="#1c8d9b"/><rect x="116" y="269" width="15" height="15" ry="3.5" fill="#671d00"/><rect x="117" y="270" width="13" height="12" ry="3" fill="#cf3b00"/><path d="M121 273v.5h-.5c-.277 0-.5.223-.5.5v4.5c0 .277.223.5.5.5h6c.277 0 .5-.223.5-.5V274c0-.277-.223-.5-.5-.5h-4v-.5zm.5 1.5a.5.5 0 1 1 0 1 .5.5 0 0 1 0-1zm2.5.5a1.5 1.5 0 1 1 0 3 1.5 1.5 0 0 1 0-3z" fill="#fefefe"/><path color="#bebebe" fill="none" d="M127.5 273h-8v8h8z"/></g></svg>