<svg version="1.0" viewBox="0 0 32 32" xmlns="http://www.w3.org/2000/svg"><g transform="translate(-100 -252)"><rect x="102" y="259" width="28" height="22" ry="2" fill="#782e11"/><rect x="103" y="260" width="26" height="19" ry="1.5" fill="#f15d22"/><path d="M104.5 260c-.831 0-1.5.669-1.5 1.5v2.5h26v-2.5c0-.831-.669-1.5-1.5-1.5z"/><path d="m106 260-2 4h3l2-4z" fill="#f7f7f7"/><path d="m112 260-2 4h3l2-4z" fill="#f7f7f7"/><path d="m118 260-2 4h3l2-4z" fill="#f7f7f7"/><path d="m124 260-2 4h3l2-4z" fill="#f7f7f7"/><rect x="228" y="234" width="56" height="44" ry="4" fill="#782e11"/><rect x="229" y="235" width="54" height="40" ry="3.5" fill="#f15d22"/><path d="M232.5 235a3.492 3.492 0 0 0-3.5 3.5v4.5h54v-4.5c0-1.939-1.561-3.5-3.5-3.5z"/><g fill="#f7f7f7"><path d="m237 235-4 8h6l4-8z"/><path d="m249 235-4 8h6l4-8z"/><path d="m261 235-4 8h6l4-8z"/><path d="m273 235-4 8h6l4-8z"/></g><rect x="320" y="184" width="112" height="88" ry="8" fill="#782e11"/><rect x="321" y="185" width="110" height="83" ry="7" fill="#f15d22"/><path d="M328 185c-3.878 0-7 3.122-7 7v9h110v-9c0-3.878-3.122-7-7-7z"/><g fill="#f7f7f7"><path d="m338 185-8 16h12l8-16z"/><path d="m362 185-8 16h12l8-16z"/><path d="m386 185-8 16h12l8-16z"/><path d="m410 185-8 16h12l8-16z"/></g><rect x="480" y="84" width="224" height="176" ry="16" fill="#782e11"/><rect x="481" y="85" width="222" height="170" ry="15.5" fill="#f15d22"/><path d="M496.5 85c-8.587 0-15.5 6.913-15.5 15.5V117h222v-16.5c0-8.587-6.913-15.5-15.5-15.5z"/><g fill="#f7f7f7"><path d="m516 85-16 32h24l16-32z"/><path d="m564 85-16 32h24l16-32z"/><path d="m612 85-16 32h24l16-32z"/><path d="m660 85-16 32h24l16-32z"/></g><rect x="159" y="247" width="42" height="33" ry="3" fill="#782e11"/><rect x="160" y="248" width="40" height="29" ry="2.5" fill="#f15d22"/><path d="M162.5 248a2.495 2.495 0 0 0-2.5 2.5v3.5h40v-3.5c0-1.385-1.115-2.5-2.5-2.5z"/><g fill="#f7f7f7"><path d="m165.875 248-3 6h4.5l3-6z"/><path d="m174.875 248-3 6h4.5l3-6z"/><path d="m183.875 248-3 6h4.5l3-6z"/><path d="m192.875 248-3 6h4.5l3-6z"/></g><rect x="56" y="262" width="24" height="20" ry="2" fill="#782e11"/><rect x="57" y="263" width="22" height="18" ry="1.5" fill="#f15d22"/><path d="M58.5 263c-.831 0-1.5.669-1.5 1.5v2.5h22v-2.5c0-.831-.669-1.5-1.5-1.5z"/><path d="m60 263-2 4h2l2-4z" fill="#f7f7f7"/><path d="m65 263-2 4h2l2-4z" fill="#f7f7f7"/><path d="m70 263-2 4h2l2-4z" fill="#f7f7f7"/><path d="m75 263-2 4h2l2-4z" fill="#f7f7f7"/><rect x="17" y="269" width="15" height="14" ry="2" fill="#782e11"/><rect x="18" y="270" width="13" height="12" ry="1.5" fill="#f15d22"/><path d="M19.5 270c-.831 0-1.5.669-1.5 1.5v1.5h13v-1.5c0-.831-.669-1.5-1.5-1.5z"/><path d="m20 270-2 3h2l2-3z" fill="#f7f7f7"/><path d="m24 270-2 3h2l2-3z" fill="#f7f7f7"/><path d="m28 270-2 3h2l1.96-2.92a1.487 1.487 0 0 0-.46-.08z" fill="#f7f7f7"/><path d="M21.964 273.97a1 1 0 0 0-.996.941h-.002v.026l-.002.033c0 .023 0 .047.002.07v5a1 1 0 0 0 1.422.905l.002.002.025-.014.004-.002a.942.942 0 0 0 .088-.049l4.912-2.45.01-.005v-.002a1 1 0 0 0 .033-1.752l-.018-.01s-.003 0-.004-.002l-4.991-2.566h-.002a1.01 1.01 0 0 0-.483-.125z" fill="#fff"/><path d="M176.03 255.68a1 1 0 0 0-.996.941h-.002v.026l-.002.033c0 .023 0 .047.002.07l-.002 8.576a1 1 0 0 0 1 1 1 1 0 0 0 .422-.095l.002.002.025-.014.004-.002a1 1 0 0 0 .088-.049l7.846-4.271.01-.004v-.002a1 1 0 0 0 .033-1.752l-.018-.01-.004-.002-7.923-4.322h-.002a1.01 1.01 0 0 0-.483-.125z" fill="#fff"/><rect x="160" y="269" width="40" height="8" ry="2.5" fill="#dedede"/><rect x="161" y="272" width="23" height="2" ry=".5" fill="#cf3b00"/><path d="M250.55 246.02a1.5 1.5 0 0 0-1.494 1.412h-.003v.038l-.003.05c0 .035 0 .07.003.105l-.003 12.864a1.5 1.5 0 0 0 1.5 1.5 1.5 1.5 0 0 0 .633-.143l.003.003.038-.02.006-.004a1.5 1.5 0 0 0 .132-.073l11.769-6.407.015-.006v-.003a1.5 1.5 0 0 0 .805-1.327 1.5 1.5 0 0 0-.756-1.301l-.026-.015c-.002-.001-.005-.001-.006-.003l-11.886-6.483h-.003a1.515 1.515 0 0 0-.724-.187z" fill="#fff"/><rect x="229" y="265" width="54" height="10" ry="3.5" fill="#dedede"/><rect x="236" y="269" width="23" height="2" ry="1" fill="#cf3b00"/><circle cx="259.5" cy="270" r="3" fill="#822500"/><circle cx="259.5" cy="270" r="2" fill="#fffaf8"/><path d="M364.1 208.53a2.999 2.999 0 0 0-2.988 2.824h-.006v.076c-.002.034-.002.067-.006.1 0 .07 0 .14.006.21l-.006 25.73a3 3 0 0 0 3 3 3 3 0 0 0 1.265-.287l.006.006.077-.041.012-.006a3 3 0 0 0 .263-.147l23.537-12.814c.01-.004.021-.01.03-.012v-.006a3 3 0 0 0 1.611-2.654 3 3 0 0 0-1.511-2.602l-.053-.03c-.004-.002-.01-.002-.012-.006l-23.772-12.967h-.006a3.029 3.029 0 0 0-1.447-.373z" fill="#fff"/><rect x="321" y="248" width="110" height="20" ry="7" fill="#dedede"/><rect x="327" y="256" width="70" height="4" ry="2" fill="#cf3b00"/><g transform="translate(16)"><circle cx="382" cy="258" r="6" fill="#822500"/><circle cx="382" cy="258" r="4" fill="#fffaf8"/></g><path d="M568.2 134.06a5.998 5.998 0 0 0-5.976 5.648h-.012v.153c-.004.066-.004.133-.012.199-.001.14.002.281.012.422l-.012 51.457a6 6 0 0 0 6 6 6 6 0 0 0 2.53-.574l.013.012.152-.083.024-.012a6 6 0 0 0 .528-.293l47.074-25.629c.02-.008.042-.02.06-.024v-.012a6 6 0 0 0 3.222-5.308 6 6 0 0 0-3.023-5.203l-.106-.06c-.008-.004-.02-.004-.024-.012l-47.543-25.934h-.012a6.058 6.058 0 0 0-2.895-.748z" fill="#fff"/><rect x="481" y="215" width="222" height="40" ry="14" fill="#dedede"/><rect x="493" y="231" width="140" height="8" ry="4" fill="#cf3b00"/><g transform="matrix(2 0 0 2 -129 -281)"><circle cx="382" cy="258" r="6" fill="#822500"/><circle cx="382" cy="258" r="4" fill="#fffaf8"/></g><path d="M65.999 267.96a1 1 0 0 0-.996.941H65v.026l-.002.033c0 .023 0 .047.002.07v5a1 1 0 0 0 1.422.905l.002.002.025-.014.004-.002a.942.942 0 0 0 .088-.049l4.912-2.45.01-.005v-.002a1 1 0 0 0 .033-1.752l-.018-.01s-.003 0-.004-.002l-4.991-2.566h-.002a1.01 1.01 0 0 0-.483-.125z" fill="#fff"/><path d="M114 265.46a1 1 0 0 0-.996.941h-.002v.026l-.002.033c0 .023 0 .047.002.07v5a1 1 0 0 0 1.422.905l.002.002.025-.014.004-.002a.942.942 0 0 0 .088-.049l4.912-2.45.01-.005v-.002a1 1 0 0 0 .033-1.752l-.018-.01s-.003 0-.004-.002l-4.991-2.566h-.002a1.01 1.01 0 0 0-.483-.125z" fill="#fff"/><rect x="103" y="274" width="26" height="5" ry="1.5" fill="#dedede"/><rect x="104" y="276" width="17" height="1" ry=".5" fill="#cf3b00"/><rect x="120" y="275" width="3" height="3" ry="1.5" fill="#822500"/><rect x="57" y="276" width="22" height="5" ry="1.5" fill="#dedede"/><rect x="58" y="278" width="14" height="1" ry=".5" fill="#cf3b00"/><rect x="70" y="277" width="3" height="3" ry="1.5" fill="#822500"/><circle cx="121.5" cy="276.5" r=".5" fill="#fff"/><circle cx="71.5" cy="278.5" r=".5" fill="#fff"/><rect x="183" y="271" width="4" height="4" ry="2" fill="#822500"/><circle cx="185" cy="273" r="1" fill="#fff"/></g></svg>