<svg version="1.0" viewBox="0 0 32 32" xmlns="http://www.w3.org/2000/svg"><g transform="translate(-100 -252)"><path d="M116 253c-2.732 0-5.283.734-7.484 2H105.5a2.495 2.495 0 0 0-2.5 2.5v3.016a14.958 14.958 0 0 0-2 7.484v1c0 2.732.734 5.283 2 7.484v3.579c0 1.073.864 1.937 1.938 1.937h3.603a14.9 14.9 0 0 0 14.918 0h3.603a1.933 1.933 0 0 0 1.938-1.938v-3.578c1.266-2.201 2-4.752 2-7.484v-1c0-2.732-.734-5.283-2-7.484V257.5c0-1.385-1.115-2.5-2.5-2.5h-3.016a14.958 14.958 0 0 0-7.484-2z" fill="#565656"/><path d="M116 254c-2.642 0-5.1.738-7.203 2H106c-1.108 0-2 .892-2 2v2.797c-1.262 2.104-2 4.561-2 7.203s.738 5.1 2 7.203V278c0 1.108.892 2 2 2h2.797c2.104 1.262 4.561 2 7.203 2s5.1-.738 7.203-2H126c1.108 0 2-.892 2-2v-2.797c1.262-2.104 2-4.561 2-7.203s-.738-5.1-2-7.203V258c0-1.108-.892-2-2-2h-2.797a13.95 13.95 0 0 0-7.203-2z" fill="#acacac"/><circle cx="116" cy="268" r="12" fill="#333"/><circle cx="116" cy="268" r="10" fill="#faa41a"/><rect x="111" y="262" width="10" height="11" ry="5" fill="#845914"/><circle cx="116" cy="268" r="4" fill="#333"/><circle cx="106" cy="258" r="1" fill="#565656"/><circle cx="126" cy="258" r="1" fill="#565656"/><circle cx="126" cy="278" r="1" fill="#565656"/><circle cx="106" cy="278" r="1" fill="#565656"/></g></svg>