<svg version="1.0" viewBox="0 0 32 32" xmlns="http://www.w3.org/2000/svg"><path d="M12 7v23h16c1.108 0 2-.892 2-2V9c0-1.108-.892-2-2-2z" fill="#626b26"/><path d="m114 261.92-1.08.087c-5.918.476-10.63 5.348-10.63 5.348l-.434.436.195.585s2.766 8.36 10.855 9.123l1.093.104V265.43z" clip-rule="evenodd" color="#000" fill="#626b26" fill-rule="evenodd" style="font-feature-settings:normal;font-variant-alternates:normal;font-variant-caps:normal;font-variant-east-asian:normal;font-variant-ligatures:normal;font-variant-numeric:normal;font-variant-position:normal;font-variation-settings:normal;inline-size:0;isolation:auto;mix-blend-mode:normal;shape-margin:0;shape-padding:0;text-decoration-color:#000;text-decoration-line:none;text-decoration-style:solid;text-indent:0;text-orientation:mixed;text-transform:none;white-space:normal" transform="translate(-100 -252)"/><path d="m114 262.92-1.08.087c-5.918.476-11.063 4.784-11.063 4.784v1l.194.585s2.767 8.36 10.855 9.123l1.094.104V266.43z" clip-rule="evenodd" color="#000" fill="#626b26" fill-rule="evenodd" style="font-feature-settings:normal;font-variant-alternates:normal;font-variant-caps:normal;font-variant-east-asian:normal;font-variant-ligatures:normal;font-variant-numeric:normal;font-variant-position:normal;font-variation-settings:normal;inline-size:0;isolation:auto;mix-blend-mode:normal;shape-margin:0;shape-padding:0;text-decoration-color:#000;text-decoration-line:none;text-decoration-style:solid;text-indent:0;text-orientation:mixed;text-transform:none;white-space:normal" transform="translate(-100 -252)"/><path d="M13 8v3c.16-.012.343.005.5 0 6.137-.208 10.186 5.057 10.186 5.057s-4.594 5.582-9.377 5.582a7.79 7.79 0 0 1-1.309-.14V23c.33.041.745.089 1.1.089 4.453 0 7.673-2.273 10.791-4.963.518.414 2.638 1.419 3.072 1.861-2.965 2.48-9.796 4.514-13.713 4.514-.378 0-.894.034-1.25 0V28h15c.554 0 1-.446 1-1V9c0-.554-.446-1-1-1z" clip-rule="evenodd" fill="#c4d64d" fill-rule="evenodd"/><path d="M13.96 13.92c2.827 0 4.505 2.2 4.505 2.2l-2.299 1.935c-1.032-1.719-1.451-2.345-3.17-2.553v4.75c.421.139.935.218 1.378.216 3.354 0 6.482-4.342 6.482-4.342s-2.946-3.762-7.36-3.624c-.159.005-.342-.015-.5 0v1.5c.288-.03.656-.082.964-.082z" clip-rule="evenodd" fill="#c4d64d" fill-rule="evenodd"/><path d="M5.76 16.33s2.369-3.462 7.241-3.833v-1.5c-5.398.435-10 5.057-10 5.057s2.576 7.743 10 8.443v-1.5C7.554 22.313 5.76 16.33 5.76 16.33z" clip-rule="evenodd" fill="#c4d64d" fill-rule="evenodd"/><path d="M10 16.77s1.278-1.479 3.003-1.27V14c-3.284.355-5.188 2.516-5.188 2.516s1.07 4.25 5.188 4.984v-1.25C10.682 19.469 10 16.77 10 16.77z" clip-rule="evenodd" fill="#c4d64d" fill-rule="evenodd"/></svg>