<svg version="1.0" viewBox="0 0 32 32" xmlns="http://www.w3.org/2000/svg"><g transform="translate(-100 -252)"><rect x="105" y="255" width="22" height="26" ry="2" fill="#245c63"/><rect x="106" y="256" width="20" height="24" ry="1.5" fill="#dedede"/><rect x="105" y="254" width="20" height="24" ry="2" fill="#245c63"/><rect x="106" y="255" width="18" height="22" ry="1.5" fill="#48b9c7"/><path d="M107.5 255c-.831 0-1.5.669-1.5 1.5v22c0 .831.669 1.5 1.5 1.5h.5v-25z" fill="#16393e"/><path d="M116 263a4 4 0 0 1 4 4v.5a1.5 1.5 0 0 1-2.648.965A1.987 1.987 0 0 1 116 269a2 2 0 1 1 2-2v.5a.5.5 0 0 0 1 0v-.5a3 3 0 1 0-3 3h2.5s.5 0 .5.5c-.031.5-.5.5-.5.5H116a4 4 0 0 1 0-8zm0 3a1 1 0 1 0 0 2 1 1 0 0 0 0-2z" fill-opacity=".196"/><path d="M125 257v5h2c.554 0 1-.446 1-1v-3c0-.554-.446-1-1-1h-1z" fill-opacity=".196"/><path d="M116 262a4 4 0 0 1 4 4v.5a1.5 1.5 0 0 1-2.648.965A1.987 1.987 0 0 1 116 268a2 2 0 1 1 2-2v.5a.5.5 0 0 0 1 0v-.5a3 3 0 1 0-3 3h2.5s.5 0 .5.5c-.031.5-.5.5-.5.5H116a4 4 0 0 1 0-8zm0 3a1 1 0 1 0 0 2 1 1 0 0 0 0-2z" fill="#fff"/><rect x="125" y="258" width="3" height="5" ry="1" fill="#faa41a"/><rect x="125" y="258" width="2" height="5" ry="0" fill="#faa41a"/><path d="M125 261v5h2c.554 0 1-.446 1-1v-3c0-.554-.446-1-1-1h-1z" fill-opacity=".196"/><rect x="125" y="262" width="3" height="5" ry="1" fill="#73c48f"/><rect x="125" y="262" width="2" height="5" ry="0" fill="#73c48f"/><path d="M125 265v5h2c.554 0 1-.446 1-1v-3c0-.554-.446-1-1-1h-1z" fill-opacity=".196"/><rect x="125" y="266" width="3" height="5" ry="1" fill="#b84acb"/><rect x="125" y="266" width="2" height="5" ry="0" fill="#b84acb"/><path d="M125 269v5h2c.554 0 1-.446 1-1v-3c0-.554-.446-1-1-1h-1z" fill-opacity=".196"/><rect x="125" y="270" width="3" height="5" ry="1" fill="#f15d22"/><rect x="125" y="270" width="2" height="5" ry="0" fill="#f15d22"/></g></svg>