<svg version="1.0" viewBox="0 0 32 32" xmlns="http://www.w3.org/2000/svg"><g transform="translate(-100 -252)"><rect x="102" y="259" width="28" height="22" ry="1.9" fill="#767676"/><rect x="103" y="260" width="26" height="19" ry="1.5" fill="#ededed"/><rect x="103" y="260" width="26" height="4" ry="1.5" fill="#faa41a"/><rect x="103" y="262" width="26" height="2" ry="0" fill="#faa41a"/><circle cx="119" cy="275" r="3" fill-opacity=".196"/><circle cx="119" cy="274" r="3" fill="#faa41a"/><path fill-opacity=".235" d="M105 266h4v4h-4z"/><path fill-opacity=".235" d="M111 266h4v4h-4z"/><path fill-opacity=".235" d="M117 266h4v4h-4z"/><path fill-opacity=".235" d="M123 266h4v4h-4z"/><path fill-opacity=".235" d="M105 272h4v4h-4z"/><path fill-opacity=".235" d="M111 272h4v4h-4z"/><path fill-opacity=".235" d="M123 272h4v4h-4z"/></g></svg>