<svg version="1.0" viewBox="0 0 32 32" xmlns="http://www.w3.org/2000/svg"><g transform="translate(-100 -252)"><rect x="103" y="255" width="26" height="26" ry="2" fill="#444"/><path d="M105 255c-1.108 0-2 .892-2 2v22c0 1.108.892 2 2 2h22c1.108 0 2-.892 2-2v-22c0-1.108-.892-2-2-2zm0 1h22c.554 0 1 .446 1 1v21c0 .554-.446 1-1 1h-22c-.554 0-1-.446-1-1v-21c0-.554.446-1 1-1z" fill="#fff" fill-opacity=".502"/><rect x="106" y="258" width="20" height="19" ry="1.124" fill="#cdcdcd"/><path d="M117.9 273.13a.996.996 0 0 0 1.102.068.997.997 0 0 0 .366-1.365l-1.634-2.83a2 2 0 0 0 0-.001 2 2 0 0 0 0-1.999l1.635-2.831a.999.999 0 1 0-1.732-1L116 266.005a2 2 0 0 0-1.73.997l-.001.002h-3.267a.997.997 0 0 0-1 .999c0 .554.446.999 1 .999h3.27a2 2 0 0 0 .73.733 2 2 0 0 0 .999.265l1.635 2.832a1 1 0 0 0 .263.298z" fill-opacity=".196"/><g transform="rotate(210 116 267)" fill="#656565"><circle cx="116" cy="267" r="2"/><rect x="115" y="267" width="2" height="6" ry="1"/><rect transform="rotate(240)" x="-290.23" y="-33.041" width="2" height="6" ry="1"/><rect transform="rotate(120)" x="172.23" y="-233.96" width="2" height="6" ry="1"/></g><g transform="translate(0 1)" fill-opacity=".196"><rect x="105" y="262" width="2" height="4" ry=".5"/><rect x="105" y="269" width="2" height="4" ry=".5"/></g><g fill="#ededed"><rect x="105" y="262" width="2" height="4" ry=".5"/><rect x="105" y="269" width="2" height="4" ry=".5"/></g></g></svg>