<svg version="1.0" viewBox="0 0 32 32" xmlns="http://www.w3.org/2000/svg"><g transform="translate(-100 948)"><rect x="102" y="-941" width="28" height="22" ry="2" fill="#6f6f6f"/><rect x="103" y="-940" width="26" height="19" ry="1.5" fill="#dedede"/><path fill="#45454f" d="M105-938h22v14h-22z"/><path fill="#48b9c7" d="M105-938h22v14h-22z"/><g fill-opacity=".196"><path d="M111-935c-.554 0-1 .446-1 1v1c0 .554.446 1 1 1h10c.554 0 1-.446 1-1v-1c0-.554-.446-1-1-1zm9.5 1a.5.5 0 1 1 0 1 .5.5 0 0 1 0-1z"/><path d="M111-931c-.554 0-1 .446-1 1v1c0 .554.446 1 1 1h10c.554 0 1-.446 1-1v-1c0-.554-.446-1-1-1zm9.5 1a.5.5 0 1 1 0 1 .5.5 0 0 1 0-1z"/><path d="M111-927c-.554 0-1 .446-1 1v1c0 .554.446 1 1 1h10c.554 0 1-.446 1-1v-1c0-.554-.446-1-1-1zm9.5 1a.5.5 0 1 1 0 1 .5.5 0 0 1 0-1z"/></g><g fill="#fff"><path d="M111-936c-.554 0-1 .446-1 1v1c0 .554.446 1 1 1h10c.554 0 1-.446 1-1v-1c0-.554-.446-1-1-1zm9.5 1a.5.5 0 1 1 0 1 .5.5 0 0 1 0-1z"/><path d="M111-932c-.554 0-1 .446-1 1v1c0 .554.446 1 1 1h10c.554 0 1-.446 1-1v-1c0-.554-.446-1-1-1zm9.5 1a.5.5 0 1 1 0 1 .5.5 0 0 1 0-1z"/><path d="M111-928c-.554 0-1 .446-1 1v1c0 .554.446 1 1 1h10c.554 0 1-.446 1-1v-1c0-.554-.446-1-1-1zm9.5 1a.5.5 0 1 1 0 1 .5.5 0 0 1 0-1z"/></g></g></svg>