<svg version="1.0" viewBox="0 0 32 32" xmlns="http://www.w3.org/2000/svg"><g transform="translate(-100 -252)"><path d="M105 255h8l3 3h11c1.108 0 2 .892 2 2v18c0 1.108-.892 2-2 2h-22c-1.108 0-2-.892-2-2v-21c0-1.108.892-2 2-2z" fill="#48b9c7"/><rect x="103" y="259" width="26" height="23" ry="2.5" fill="#565656"/><rect x="104" y="259" width="24" height="7" ry="2" fill-opacity=".314"/><rect x="104" y="260" width="24" height="20" ry="2" fill="#acacac"/><rect x="110" y="264" width="12" height="5" ry="1.5" fill="#676767" fill-opacity=".502"/><rect x="111" y="265" width="10" height="2" ry="1" fill="#fafafa"/></g></svg>