<svg version="1.0" viewBox="0 0 32 32" xmlns="http://www.w3.org/2000/svg"><g transform="translate(-100 48)"><rect x="101" y="-47" width="30" height="31" ry="15" fill="#245c63"/><rect x="102" y="-46" width="28" height="28" ry="14" fill="#48b9c7"/><path d="M116-39.003a3 3 0 1 1 0 6 3 3 0 0 1 0-6zm0 8c6-.003 6 4.003 6 4.003v1h-12v-1s0-4 6-4.003z" color="#000" fill="#fff" style="text-decoration-line:none;text-indent:0;text-transform:none"/><rect x="117" y="-31" width="14" height="15" ry="7" fill="#1f285a"/><rect x="118" y="-30" width="12" height="12" ry="6" fill="#3f51b5"/><g fill="#fff"><path d="M125-26h-2v7h2z"/><circle cx="124" cy="-28" r="1"/></g></g></svg>