<svg version="1.0" viewBox="0 0 32 32" xmlns="http://www.w3.org/2000/svg"><g transform="translate(-100 648)"><rect x="102" y="-641" width="28" height="22" ry="2" fill="#cdcdcd"/><rect x="105" y="-638" width="22" height="15" ry="1" fill="#424242"/><path d="M104-641c-1.108 0-2 .892-2 2v18c0 1.108.892 2 2 2h24c1.108 0 2-.892 2-2v-18c0-1.108-.892-2-2-2zm.5 1h23c.831 0 1.5.669 1.5 1.5v16c0 .831-.669 1.5-1.5 1.5h-23c-.831 0-1.5-.669-1.5-1.5v-16c0-.831.669-1.5 1.5-1.5z" fill-opacity=".502"/><rect x="105" y="-638" width="22" height="15" ry="1" fill="#1c6d38"/><g fill="#f6f6f6"><path d="M109-637v1a2 2 0 0 0-2 2 2 2 0 0 0 2 2v2h-2v1h2v1h1v-1a2 2 0 0 0 2-2 2 2 0 0 0-2-2v-2h1v-1h-1v-1zm0 2v2a1 1 0 0 1-1-1 1 1 0 0 1 1-1zm1 3a1 1 0 0 1 1 1 1 1 0 0 1-1 1z"/><path d="M113-629h5v1h-5z"/></g></g></svg>