<svg version="1.0" viewBox="0 0 32 32" xmlns="http://www.w3.org/2000/svg"><g transform="translate(-100 -252)"><rect x="103" y="255" width="26" height="26" ry="13" fill="#ffce51"/><path d="M116 255c-7.202 0-13 5.798-13 13s5.798 13 13 13 13-5.798 13-13-5.798-13-13-13zm0 1c6.648 0 12 5.352 12 12s-5.352 12-12 12-12-5.352-12-12 5.352-12 12-12z" fill-opacity=".392"/><rect x="105" y="273" width="24" height="8" ry="4" fill="#fff"/><circle cx="112" cy="273" r="4" fill="#fff"/><circle cx="121" cy="273" r="6" fill="#fff"/><path d="M121 267a5.994 5.994 0 0 0-5.611 3.875A4 4 0 0 0 108 273c0 .046 0 .079.002.125A3.995 3.995 0 0 0 105 277c0 2.216 1.784 4 4 4h16c2.216 0 4-1.784 4-4a4 4 0 0 0-2.022-3.48A6 6 0 0 0 121 267zm0 1a5 5 0 0 1 4.889 6.04A2.487 2.487 0 0 1 128 276.5c0 1.385-1.115 2.5-2.5 2.5h-17c-1.385 0-2.5-1.115-2.5-2.5s1.115-2.5 2.5-2.5h.674a3 3 0 1 1 5.826-1c-.001.34-.06.68-.176 1h1.281a4.998 4.998 0 0 1-.105-1 5 5 0 0 1 5-5z" fill-opacity=".392"/></g></svg>