<?xml version="1.0" encoding="UTF-8" standalone="no"?>
<!-- Created with Inkscape (http://www.inkscape.org/) -->

<svg
   inkscape:export-ydpi="90.000000"
   inkscape:export-xdpi="90.000000"
   width="24"
   height="24"
   id="svg11300"
   sodipodi:version="0.32"
   inkscape:version="0.91 r"
   sodipodi:docname="distributor-logo-mageia.svg"
   inkscape:output_extension="org.inkscape.output.svg.inkscape"
   version="1.0"
   style="display:inline;enable-background:new"
   inkscape:export-filename="/home/sam/Pop-template.png"
   xmlns:inkscape="http://www.inkscape.org/namespaces/inkscape"
   xmlns:sodipodi="http://sodipodi.sourceforge.net/DTD/sodipodi-0.dtd"
   xmlns="http://www.w3.org/2000/svg"
   xmlns:svg="http://www.w3.org/2000/svg"
   xmlns:rdf="http://www.w3.org/1999/02/22-rdf-syntax-ns#"
   xmlns:cc="http://creativecommons.org/ns#"
   xmlns:dc="http://purl.org/dc/elements/1.1/">
  <title
     id="title3004">Pop Icon Theme Template</title>
  <sodipodi:namedview
     stroke="#ef2929"
     fill="#f57900"
     id="base"
     pagecolor="#6b6b6b"
     bordercolor="#000000"
     borderopacity="0.25490196"
     inkscape:pageopacity="0"
     inkscape:pageshadow="2"
     inkscape:zoom="1"
     inkscape:cx="555.34208"
     inkscape:cy="176.4459"
     inkscape:current-layer="layer6"
     showgrid="false"
     inkscape:grid-bbox="true"
     inkscape:document-units="px"
     inkscape:showpageshadow="false"
     inkscape:window-width="1920"
     inkscape:window-height="1023"
     inkscape:window-x="0"
     inkscape:window-y="27"
     width="400px"
     height="300px"
     inkscape:snap-nodes="true"
     inkscape:snap-bbox="true"
     gridtolerance="10000"
     inkscape:object-nodes="true"
     inkscape:snap-grids="true"
     showguides="true"
     inkscape:guide-bbox="true"
     inkscape:window-maximized="1"
     inkscape:bbox-paths="true"
     inkscape:snap-bbox-midpoints="true"
     inkscape:snap-global="true"
     inkscape:object-paths="true"
     inkscape:snap-intersection-paths="true"
     inkscape:snap-smooth-nodes="true"
     inkscape:pagecheckerboard="0">
    <inkscape:grid
       spacingy="1px"
       spacingx="1px"
       id="grid5883"
       type="xygrid"
       enabled="true"
       visible="true"
       empspacing="4"
       snapvisiblegridlinesonly="true" />
    <inkscape:grid
       type="xygrid"
       id="grid11592"
       empspacing="2"
       visible="true"
       enabled="false"
       spacingx="0.5px"
       spacingy="0.5px"
       color="#ff0000"
       opacity="0.1254902"
       empcolor="#ff0000"
       empopacity="0.25098039"
       snapvisiblegridlinesonly="true" />
  </sodipodi:namedview>
  <defs
     id="defs3">
    <linearGradient
       gradientTransform="matrix(1,0,0,-1,-0.80292847,1022.6884)"
       y2="253.84129"
       x2="-51.767601"
       y1="235.84129"
       x1="-51.767601"
       gradientUnits="userSpaceOnUse"
       id="SVGID_12_">
      <stop
         id="stop83"
         style="stop-color:#2397D4"
         offset="0" />
      <stop
         id="stop85"
         style="stop-color:#65E7FF"
         offset="1" />
    </linearGradient>
    <linearGradient
       gradientTransform="matrix(1,0,0,-1,-0.80292847,1022.6884)"
       y2="265.84329"
       x2="-75.768997"
       y1="249.84129"
       x1="-75.768997"
       gradientUnits="userSpaceOnUse"
       id="SVGID_11_">
      <stop
         id="stop76"
         style="stop-color:#2397D4"
         offset="0" />
      <stop
         id="stop78"
         style="stop-color:#65E7FF"
         offset="1" />
    </linearGradient>
    <linearGradient
       gradientTransform="matrix(1,0,0,-1,-0.80292847,1022.6884)"
       y2="220.8394"
       x2="-48.767601"
       y1="198.83839"
       x1="-48.767601"
       gradientUnits="userSpaceOnUse"
       id="SVGID_10_">
      <stop
         id="stop69"
         style="stop-color:#2397D4"
         offset="0" />
      <stop
         id="stop71"
         style="stop-color:#65E7FF"
         offset="1" />
    </linearGradient>
    <linearGradient
       gradientTransform="matrix(1,0,0,-1,-0.80292847,1022.6884)"
       y2="237.84129"
       x2="-70.767601"
       y1="217.8394"
       x1="-70.767601"
       gradientUnits="userSpaceOnUse"
       id="SVGID_9_">
      <stop
         id="stop62"
         style="stop-color:#2397D4"
         offset="0" />
      <stop
         id="stop64"
         style="stop-color:#65E7FF"
         offset="1" />
    </linearGradient>
    <linearGradient
       gradientTransform="matrix(1,0,0,-1,-0.80292847,1022.6884)"
       y2="214.8394"
       x2="-84.767601"
       y1="190.83839"
       x1="-84.767601"
       gradientUnits="userSpaceOnUse"
       id="SVGID_8_">
      <stop
         id="stop55"
         style="stop-color:#2397D4"
         offset="0" />
      <stop
         id="stop57"
         style="stop-color:#65E7FF"
         offset="1" />
    </linearGradient>
    <linearGradient
       gradientTransform="matrix(1,0,0,-1,214.5,339.5771)"
       y2="193.83791"
       x2="-68.769096"
       y1="67.834"
       x1="-68.768997"
       gradientUnits="userSpaceOnUse"
       id="SVGID_7_">
      <stop
         id="stop48"
         style="stop-color:#252D42"
         offset="0" />
      <stop
         id="stop50"
         style="stop-color:#485E82"
         offset="1" />
    </linearGradient>
    <linearGradient
       gradientTransform="matrix(1.2857964,0,0,-1.2857964,258.25103,1168.7191)"
       y2="191.8867"
       x2="421.94781"
       y1="169.6572"
       x1="421.94781"
       gradientUnits="userSpaceOnUse"
       id="SVGID_13_">
      <stop
         id="stop4379"
         style="stop-color:#2397D4"
         offset="0" />
      <stop
         id="stop4381"
         style="stop-color:#65E7FF"
         offset="1" />
    </linearGradient>
    <linearGradient
       gradientTransform="matrix(1.2857964,0,0,-1.2857964,258.25103,1168.7191)"
       y2="253.84129"
       x2="-51.767601"
       y1="235.84129"
       x1="-51.767601"
       gradientUnits="userSpaceOnUse"
       id="SVGID_12_-6">
      <stop
         id="stop4372"
         style="stop-color:#2397D4"
         offset="0" />
      <stop
         id="stop4374"
         style="stop-color:#65E7FF"
         offset="1" />
    </linearGradient>
    <linearGradient
       gradientTransform="matrix(1.2857964,0,0,-1.2857964,258.25103,1168.7191)"
       y2="265.84329"
       x2="-75.768997"
       y1="249.84129"
       x1="-75.768997"
       gradientUnits="userSpaceOnUse"
       id="SVGID_11_-6">
      <stop
         id="stop4365"
         style="stop-color:#2397D4"
         offset="0" />
      <stop
         id="stop4367"
         style="stop-color:#65E7FF"
         offset="1" />
    </linearGradient>
    <linearGradient
       gradientTransform="matrix(1.2857964,0,0,-1.2857964,258.25103,1168.7191)"
       y2="220.8394"
       x2="-48.767601"
       y1="198.83839"
       x1="-48.767601"
       gradientUnits="userSpaceOnUse"
       id="SVGID_10_-9">
      <stop
         id="stop4358"
         style="stop-color:#2397D4"
         offset="0" />
      <stop
         id="stop4360"
         style="stop-color:#65E7FF"
         offset="1" />
    </linearGradient>
    <linearGradient
       gradientTransform="matrix(1.2857964,0,0,-1.2857964,258.25103,1168.7191)"
       y2="237.84129"
       x2="-70.767601"
       y1="217.8394"
       x1="-70.767601"
       gradientUnits="userSpaceOnUse"
       id="SVGID_9_-9">
      <stop
         id="stop4351"
         style="stop-color:#2397D4"
         offset="0" />
      <stop
         id="stop4353"
         style="stop-color:#65E7FF"
         offset="1" />
    </linearGradient>
    <linearGradient
       gradientTransform="matrix(1.2857964,0,0,-1.2857964,258.25103,1168.7191)"
       y2="214.8394"
       x2="-84.767601"
       y1="190.83839"
       x1="-84.767601"
       gradientUnits="userSpaceOnUse"
       id="SVGID_8_-1">
      <stop
         id="stop4344"
         style="stop-color:#2397D4"
         offset="0" />
      <stop
         id="stop4346"
         style="stop-color:#65E7FF"
         offset="1" />
    </linearGradient>
    <linearGradient
       gradientTransform="matrix(1.2857964,0,0,-1.2857964,258.25103,1168.7191)"
       y2="161.147"
       x2="421.94781"
       y1="87.412102"
       x1="421.94781"
       gradientUnits="userSpaceOnUse"
       id="SVGID_6_">
      <stop
         id="stop4328"
         style="stop-color:#252D42"
         offset="0" />
      <stop
         id="stop4330"
         style="stop-color:#485E82"
         offset="1" />
    </linearGradient>
    <linearGradient
       gradientTransform="matrix(1.2857964,0,0,-1.2857964,258.25103,1168.7191)"
       y2="161.1479"
       x2="89.801804"
       y1="87.414101"
       x1="89.801804"
       gradientUnits="userSpaceOnUse"
       id="SVGID_5_">
      <stop
         id="stop4321"
         style="stop-color:#252D42"
         offset="0" />
      <stop
         id="stop4323"
         style="stop-color:#485E82"
         offset="1" />
    </linearGradient>
    <linearGradient
       gradientTransform="matrix(1.2857964,0,0,-1.2857964,258.25103,1168.7191)"
       y2="161.14841"
       x2="363.0806"
       y1="87.414101"
       x1="363.0806"
       gradientUnits="userSpaceOnUse"
       id="SVGID_4_">
      <stop
         id="stop4314"
         style="stop-color:#252D42"
         offset="0" />
      <stop
         id="stop4316"
         style="stop-color:#485E82"
         offset="1" />
    </linearGradient>
    <linearGradient
       gradientTransform="matrix(1.2857964,0,0,-1.2857964,258.25103,1168.7191)"
       y2="161.147"
       x2="481.40869"
       y1="87.414101"
       x1="481.40869"
       gradientUnits="userSpaceOnUse"
       id="SVGID_3_">
      <stop
         id="stop4307"
         style="stop-color:#252D42"
         offset="0" />
      <stop
         id="stop4309"
         style="stop-color:#485E82"
         offset="1" />
    </linearGradient>
    <linearGradient
       gradientTransform="matrix(1.2857964,0,0,-1.2857964,258.25103,1168.7191)"
       y2="161.147"
       x2="191.85789"
       y1="87.414101"
       x1="191.85789"
       gradientUnits="userSpaceOnUse"
       id="SVGID_2_">
      <stop
         id="stop4300"
         style="stop-color:#252D42"
         offset="0" />
      <stop
         id="stop4302"
         style="stop-color:#485E82"
         offset="1" />
    </linearGradient>
    <linearGradient
       gradientTransform="matrix(1,0,0,-1,214.5,339.5771)"
       y2="162.6368"
       x2="277.86081"
       y1="84.733398"
       x1="277.86081"
       gradientUnits="userSpaceOnUse"
       id="SVGID_1_">
      <stop
         id="stop4293"
         style="stop-color:#252D42"
         offset="0" />
      <stop
         id="stop4295"
         style="stop-color:#485E82"
         offset="1" />
    </linearGradient>
    <filter
       inkscape:collect="always"
       style="color-interpolation-filters:sRGB"
       id="filter4748"
       x="-0.03"
       width="1.06"
       y="-0.02"
       height="1.04">
      <feGaussianBlur
         inkscape:collect="always"
         stdDeviation="4"
         id="feGaussianBlur4750" />
    </filter>
  </defs>
  <metadata
     id="metadata4">
    <rdf:RDF>
      <cc:Work
         rdf:about="">
        <dc:format>image/svg+xml</dc:format>
        <dc:type
           rdf:resource="http://purl.org/dc/dcmitype/StillImage" />
        <dc:creator>
          <cc:Agent>
            <dc:title>Sam Hewitt</dc:title>
          </cc:Agent>
        </dc:creator>
        <dc:source />
        <cc:license
           rdf:resource="http://creativecommons.org/licenses/by-sa/3.0/" />
        <dc:title>Pop Icon Theme Template</dc:title>
        <dc:subject>
          <rdf:Bag />
        </dc:subject>
        <dc:date />
        <dc:rights>
          <cc:Agent>
            <dc:title />
          </cc:Agent>
        </dc:rights>
        <dc:publisher>
          <cc:Agent>
            <dc:title />
          </cc:Agent>
        </dc:publisher>
        <dc:identifier />
        <dc:relation />
        <dc:language />
        <dc:coverage />
        <dc:description />
        <dc:contributor>
          <cc:Agent>
            <dc:title />
          </cc:Agent>
        </dc:contributor>
      </cc:Work>
      <cc:Work
         rdf:about="">
        <dc:format>image/svg+xml</dc:format>
        <dc:type
           rdf:resource="http://purl.org/dc/dcmitype/StillImage" />
      </cc:Work>
      <cc:License
         rdf:about="http://creativecommons.org/licenses/by-sa/3.0/">
        <cc:permits
           rdf:resource="http://creativecommons.org/ns#Reproduction" />
        <cc:permits
           rdf:resource="http://creativecommons.org/ns#Distribution" />
        <cc:requires
           rdf:resource="http://creativecommons.org/ns#Notice" />
        <cc:requires
           rdf:resource="http://creativecommons.org/ns#Attribution" />
        <cc:permits
           rdf:resource="http://creativecommons.org/ns#DerivativeWorks" />
        <cc:requires
           rdf:resource="http://creativecommons.org/ns#ShareAlike" />
      </cc:License>
    </rdf:RDF>
  </metadata>
  <g
     style="display:inline"
     inkscape:groupmode="layer"
     inkscape:label="Icon"
     id="layer1"
     transform="translate(-52,-260)">
    <g
       style="display:none"
       inkscape:label="Baseplate"
       id="layer7"
       inkscape:groupmode="layer">
      <text
         y="337.74512"
         xml:space="preserve"
         x="15.006836"
         style="font-style:normal;font-variant:normal;font-weight:normal;font-stretch:normal;line-height:0%;font-family:'DejaVu Sans';-inkscape-font-specification:'DejaVu Sans';display:inline;fill:#000000;fill-opacity:1;stroke:none;enable-background:new"
         inkscape:label="context"
         id="context"><tspan
           style="font-style:normal;font-variant:normal;font-weight:normal;font-stretch:normal;font-size:18px;line-height:1.25;font-family:'DejaVu Sans';-inkscape-font-specification:'DejaVu Sans'"
           y="337.74512"
           x="15.006836"
           sodipodi:role="line"
           id="tspan3933">places</tspan></text>
      <text
         y="337.74512"
         xml:space="preserve"
         x="142.48828"
         style="font-style:normal;font-variant:normal;font-weight:bold;font-stretch:normal;line-height:0%;font-family:'DejaVu Sans';-inkscape-font-specification:'DejaVu Sans Bold';text-align:start;writing-mode:lr-tb;text-anchor:start;display:inline;fill:#000000;fill-opacity:1;stroke:none;enable-background:new"
         inkscape:label="icon-name"
         id="icon-name"><tspan
           style="font-style:normal;font-variant:normal;font-weight:bold;font-stretch:normal;font-size:18px;line-height:1.25;font-family:'DejaVu Sans';-inkscape-font-specification:'DejaVu Sans Bold'"
           y="337.74512"
           x="142.48828"
           sodipodi:role="line"
           id="tspan3937">distributor-logo-mageia</tspan></text>
      <rect
         style="display:inline;overflow:visible;visibility:visible;fill:#d3d7cf;fill-opacity:1;fill-rule:nonzero;stroke:none;stroke-width:2;marker:none;enable-background:accumulate"
         id="rect16x16"
         width="16"
         height="16"
         x="-32"
         y="268"
         inkscape:label="16x16"
         transform="scale(-1,1)" />
      <rect
         style="display:inline;overflow:visible;visibility:visible;fill:#d3d7cf;fill-opacity:1;fill-rule:nonzero;stroke:none;stroke-width:2;marker:none;enable-background:accumulate"
         id="rect24x24"
         width="24"
         height="24"
         x="-76"
         y="260"
         inkscape:label="24x24"
         transform="scale(-1,1)" />
      <rect
         style="display:inline;overflow:visible;visibility:visible;fill:#d3d7cf;fill-opacity:1;fill-rule:nonzero;stroke:none;stroke-width:2;marker:none;enable-background:accumulate"
         id="rect32x32"
         width="32"
         height="32"
         x="-128"
         y="252"
         inkscape:label="32x32"
         transform="scale(-1,1)" />
      <rect
         inkscape:label="48x48"
         y="236"
         x="-192"
         height="48"
         width="48"
         id="rect48x48"
         style="display:inline;overflow:visible;visibility:visible;fill:#d3d7cf;fill-opacity:1;fill-rule:nonzero;stroke:none;stroke-width:2;marker:none;enable-background:accumulate"
         transform="scale(-1,1)" />
      <rect
         style="display:inline;overflow:visible;visibility:visible;fill:#d3d7cf;fill-opacity:1;fill-rule:nonzero;stroke:none;stroke-width:2;marker:none;enable-background:accumulate"
         id="rect3951"
         width="512"
         height="512"
         x="208"
         y="-228"
         inkscape:label="48x48" />
    </g>
    <g
       inkscape:groupmode="layer"
       id="layer6"
       inkscape:label="Symbols"
       style="display:inline">
      <path
         inkscape:connector-curvature="0"
         style="opacity:0.2;fill:#000000;fill-opacity:1"
         d="m 167,240 a 1.5,1.5 0 0 0 -1.5,1.5 1.5,1.5 0 0 0 1.5,1.5 1.5,1.5 0 0 0 1.5,-1.5 1.5,1.5 0 0 0 -1.5,-1.5 z m 4,2.5 a 1.75,1.75 0 0 0 -1.75,1.75 1.75,1.75 0 0 0 1.75,1.75 1.75,1.75 0 0 0 1.75,-1.75 1.75,1.75 0 0 0 -1.75,-1.75 z m -4,2.5 a 2,2 0 0 0 -2,2 2,2 0 0 0 2,2 2,2 0 0 0 2,-2 2,2 0 0 0 -2,-2 z m 4.99609,4.5 c -1.24077,0.001 -2.25004,1.01176 -2.24804,2.25391 8.1e-4,1.23887 1.01005,2.24609 2.25,2.24609 h 0.002 c 1.24058,-0.001 2.24805,-1.01176 2.24805,-2.25391 -0.001,-1.23887 -1.01037,-2.24609 -2.25196,-2.24609 z m -6.49804,1.5 c -1.37834,0.001 -2.50005,1.12319 -2.49805,2.50391 0.001,1.37613 1.12291,2.49609 2.5,2.49609 h 0.002 C 166.88029,255.999 168,254.87681 168,253.49609 167.99834,252.11996 166.87721,251 165.49805,251 Z m -6.14258,5.99219 A 14,14 0 0 0 154,268 14,14 0 0 0 168,282 14,14 0 0 0 182,268 14,14 0 0 0 176.64453,257.00781 14,14 0 0 1 168,260 a 14,14 0 0 1 -8.64453,-3.00781 z"
         id="path4781" />
      <path
         inkscape:connector-curvature="0"
         style="opacity:0.2;fill:#000000;fill-opacity:1"
         d="m 111.28516,254 a 1.0714286,1.0714286 0 0 0 -1.07032,1.07227 1.0714286,1.0714286 0 0 0 1.07032,1.07031 1.0714286,1.0714286 0 0 0 1.07226,-1.07031 A 1.0714286,1.0714286 0 0 0 111.28516,254 Z m 2.85742,1.78516 a 1.25,1.25 0 0 0 -1.25,1.25 1.25,1.25 0 0 0 1.25,1.25 1.25,1.25 0 0 0 1.25,-1.25 1.25,1.25 0 0 0 -1.25,-1.25 z m -2.85742,1.78711 A 1.4285714,1.4285714 0 0 0 109.85742,259 a 1.4285714,1.4285714 0 0 0 1.42774,1.42773 1.4285714,1.4285714 0 0 0 1.42968,-1.42773 1.4285714,1.4285714 0 0 0 -1.42968,-1.42773 z m 3.56836,3.21289 c -0.88626,7.5e-4 -1.60658,0.72211 -1.60547,1.60937 5.8e-4,0.8849 0.72174,1.60547 1.60742,1.60547 h 0.002 c 0.88612,-8.8e-4 1.60352,-0.72212 1.60352,-1.60938 -8.7e-4,-0.8849 -0.72058,-1.60546 -1.60742,-1.60546 z m -4.64063,1.07226 c -0.98363,0.002 -1.78626,0.8035 -1.78516,1.78906 0.001,0.98295 0.80346,1.78125 1.78711,1.78125 h 0.002 c 0.98453,-10e-4 1.7832,-0.80088 1.7832,-1.78711 -0.001,-0.98229 -0.80095,-1.78213 -1.78516,-1.7832 h -0.002 z m -4.38672,4.2793 A 9.9999999,9.9999999 0 0 0 102,274 a 9.9999999,9.9999999 0 0 0 10,10 9.9999999,9.9999999 0 0 0 10,-10 9.9999999,9.9999999 0 0 0 -3.82617,-7.85156 9.9999999,9.9999999 0 0 1 -6.17383,2.13672 9.9999999,9.9999999 0 0 1 -6.17383,-2.14844 z"
         id="path4783" />
      <path
         inkscape:connector-curvature="0"
         style="opacity:0.2;fill:#000000;fill-opacity:1"
         d="m 63.5,262 a 0.75,0.75 0 0 0 -0.75,0.75 0.75,0.75 0 0 0 0.75,0.75 0.75,0.75 0 0 0 0.75,-0.75 A 0.75,0.75 0 0 0 63.5,262 Z m 2,1.25 A 0.875,0.875 0 0 0 64.625,264.125 0.875,0.875 0 0 0 65.5,265 0.875,0.875 0 0 0 66.375,264.125 0.875,0.875 0 0 0 65.5,263.25 Z m -2,1.25 a 1,1 0 0 0 -1,1 1,1 0 0 0 1,1 1,1 0 0 0 1,-1 1,1 0 0 0 -1,-1 z m 2.498047,2.25 c -0.620385,5.1e-4 -1.126,0.50588 -1.125,1.12695 4.05e-4,0.61944 0.505025,1.12305 1.125,1.12305 H 66 c 0.62029,-6.2e-4 1.123047,-0.50588 1.123047,-1.12695 -6.1e-4,-0.61944 -0.504205,-1.12305 -1.125,-1.12305 z m -3.25,0.75 C 62.058877,267.50073 61.499,268.06159 61.5,268.75195 61.500725,269.44001 62.061455,270 62.75,270 h 0.002 C 63.441123,269.99927 64,269.43841 64,268.74805 63.99917,268.05998 63.437627,267.5 62.748047,267.5 Z m -3.070313,2.99609 A 7,7 0 0 0 57,276 a 7,7 0 0 0 7,7 7,7 0 0 0 7,-7 7,7 0 0 0 -2.677734,-5.49609 A 7,7 0 0 1 64,272 7,7 0 0 1 59.677734,270.49609 Z"
         id="path4785" />
      <path
         style="opacity:0.1;fill:#000000;fill-opacity:1;filter:url(#filter4748)"
         d="m 452.57227,-208 a 17.142857,17.142857 0 0 0 -17.14454,17.14258 17.142857,17.142857 0 0 0 17.14454,17.14258 17.142857,17.142857 0 0 0 17.14257,-17.14258 A 17.142857,17.142857 0 0 0 452.57227,-208 Z m 45.71289,28.57227 a 20,20 0 0 0 -20,20 20,20 0 0 0 20,20 20,20 0 0 0 20,-20 20,20 0 0 0 -20,-20 z m -45.71289,28.57031 A 22.857141,22.857141 0 0 0 429.71484,-128 22.857141,22.857141 0 0 0 452.57227,-105.14258 22.857141,22.857141 0 0 0 475.42773,-128 22.857141,22.857141 0 0 0 452.57227,-150.85742 Z m 57.0957,51.42773 c -14.18023,0.0118 -25.71431,11.554 -25.69141,25.75 C 483.98582,-59.52117 495.52055,-48 509.69141,-48 h 0.0234 c 14.17806,-0.01406 25.68946,-11.554 25.68946,-25.75 -0.0139,-14.15851 -11.54673,-25.67969 -25.73633,-25.67969 z M 435.4043,-82.2832 c -15.75246,0.0168 -28.56978,12.83362 -28.54688,28.61328 0.0166,15.7272 12.83214,28.52734 28.57031,28.52734 h 0.0234 l 0.002,0.002 C 451.20558,-25.1572 464,-37.97816 464,-53.75781 463.981,-69.48501 451.16613,-82.2832 435.4043,-82.2832 Z m -70.19922,68.48047 A 159.99999,159.99999 0 0 0 304,112 159.99999,159.99999 0 0 0 464,272 159.99999,159.99999 0 0 0 624,112 159.99999,159.99999 0 0 0 562.79492,-13.625 159.99999,159.99999 0 0 1 464,20.57227 a 159.99999,159.99999 0 0 1 -98.79492,-34.375 z"
         id="path4752"
         inkscape:connector-curvature="0" />
      <path
         inkscape:connector-curvature="0"
         id="path4746"
         d="m 452.57227,-208 a 17.142857,17.142857 0 0 0 -17.14454,17.14258 17.142857,17.142857 0 0 0 17.14454,17.14258 17.142857,17.142857 0 0 0 17.14257,-17.14258 A 17.142857,17.142857 0 0 0 452.57227,-208 Z m 45.71289,28.57227 a 20,20 0 0 0 -20,20 20,20 0 0 0 20,20 20,20 0 0 0 20,-20 20,20 0 0 0 -20,-20 z m -45.71289,28.57031 A 22.857141,22.857141 0 0 0 429.71484,-128 22.857141,22.857141 0 0 0 452.57227,-105.14258 22.857141,22.857141 0 0 0 475.42773,-128 22.857141,22.857141 0 0 0 452.57227,-150.85742 Z m 57.0957,51.42773 c -14.18023,0.0118 -25.71431,11.554 -25.69141,25.75 C 483.98582,-59.52117 495.52055,-48 509.69141,-48 h 0.0234 c 14.17806,-0.01406 25.68946,-11.554 25.68946,-25.75 -0.0139,-14.15851 -11.54673,-25.67969 -25.73633,-25.67969 z M 435.4043,-82.2832 c -15.75246,0.0168 -28.56978,12.83362 -28.54688,28.61328 0.0166,15.7272 12.83214,28.52734 28.57031,28.52734 h 0.0234 l 0.002,0.002 C 451.20558,-25.1572 464,-37.97816 464,-53.75781 463.981,-69.48501 451.16613,-82.2832 435.4043,-82.2832 Z m -70.19922,68.48047 A 159.99999,159.99999 0 0 0 304,112 159.99999,159.99999 0 0 0 464,272 159.99999,159.99999 0 0 0 624,112 159.99999,159.99999 0 0 0 562.79492,-13.625 159.99999,159.99999 0 0 1 464,20.57227 a 159.99999,159.99999 0 0 1 -98.79492,-34.375 z"
         style="opacity:0.2;fill:#000000;fill-opacity:1;filter:url(#filter4748)" />
      <path
         style="opacity:0.2;fill:#000000;fill-opacity:1"
         d="m 452.57227,-210 a 17.142857,17.142857 0 0 0 -17.14454,17.14258 17.142857,17.142857 0 0 0 17.14454,17.14258 17.142857,17.142857 0 0 0 17.14257,-17.14258 A 17.142857,17.142857 0 0 0 452.57227,-210 Z m 45.71289,28.57227 a 20,20 0 0 0 -20,20 20,20 0 0 0 20,20 20,20 0 0 0 20,-20 20,20 0 0 0 -20,-20 z m -45.71289,28.57031 A 22.857141,22.857141 0 0 0 429.71484,-130 22.857141,22.857141 0 0 0 452.57227,-107.14258 22.857141,22.857141 0 0 0 475.42773,-130 22.857141,22.857141 0 0 0 452.57227,-152.85742 Z m 57.0957,51.42773 c -14.18023,0.0118 -25.71431,11.554 -25.69141,25.75 C 483.98582,-61.52117 495.52055,-50 509.69141,-50 h 0.0234 c 14.17806,-0.01406 25.68946,-11.554 25.68946,-25.75 -0.0139,-14.15851 -11.54673,-25.67969 -25.73633,-25.67969 z M 435.4043,-84.2832 c -15.75246,0.0168 -28.56978,12.83362 -28.54688,28.61328 0.0166,15.7272 12.83214,28.52734 28.57031,28.52734 h 0.0234 l 0.002,0.002 C 451.20558,-27.1572 464,-39.97816 464,-55.75781 463.981,-71.48501 451.16613,-84.2832 435.4043,-84.2832 Z m -70.19922,68.48047 A 159.99999,159.99999 0 0 0 304,110 159.99999,159.99999 0 0 0 464,270 159.99999,159.99999 0 0 0 624,110 159.99999,159.99999 0 0 0 562.79492,-15.625 159.99999,159.99999 0 0 1 464,18.57227 a 159.99999,159.99999 0 0 1 -98.79492,-34.375 z"
         id="path4741"
         inkscape:connector-curvature="0" />
      <path
         style="fill:#03a9f4;fill-opacity:1"
         d="m 167,483 a 1.5,1.5 0 0 0 -1.5,1.5 1.5,1.5 0 0 0 1.5,1.5 1.5,1.5 0 0 0 1.5,-1.5 1.5,1.5 0 0 0 -1.5,-1.5 z m 4,2.5 a 1.75,1.75 0 0 0 -1.75,1.75 1.75,1.75 0 0 0 1.75,1.75 1.75,1.75 0 0 0 1.75,-1.75 1.75,1.75 0 0 0 -1.75,-1.75 z m -4,2.5 a 2,2 0 0 0 -2,2 2,2 0 0 0 2,2 2,2 0 0 0 2,-2 2,2 0 0 0 -2,-2 z m 4.99609,4.5 c -1.24077,10e-4 -2.25004,1.01176 -2.24804,2.25391 8.1e-4,1.23887 1.01005,2.24609 2.25,2.24609 H 172 c 1.24058,-10e-4 2.24805,-1.01176 2.24805,-2.25391 -0.001,-1.23887 -1.01037,-2.24609 -2.25196,-2.24609 z m -6.49804,1.5 c -1.37834,10e-4 -2.50005,1.12319 -2.49805,2.50391 0.001,1.37613 1.12291,2.49609 2.5,2.49609 h 0.002 c 1.37829,-0.001 2.498,-1.12319 2.498,-2.50391 C 167.99834,495.11996 166.87721,494 165.49805,494 Z"
         transform="translate(0,-244)"
         id="path3042-0-6-4" />
      <path
         style="opacity:1;fill:#0d47a1;fill-opacity:1;stroke:none;stroke-width:8;stroke-linecap:round;stroke-linejoin:miter;stroke-miterlimit:4;stroke-dasharray:none;stroke-opacity:0.628866"
         d="M 159.35547,255.99219 A 14,14 0 0 0 154,267 14,14 0 0 0 168,281 14,14 0 0 0 182,267 14,14 0 0 0 176.64453,256.00781 14,14 0 0 1 168,259 a 14,14 0 0 1 -8.64453,-3.00781 z"
         id="path4607"
         inkscape:connector-curvature="0" />
      <path
         style="fill:#03a9f4;fill-opacity:1"
         d="m 63.5,505 a 0.75,0.75 0 0 0 -0.75,0.75 0.75,0.75 0 0 0 0.75,0.75 0.75,0.75 0 0 0 0.75,-0.75 A 0.75,0.75 0 0 0 63.5,505 Z m 2,1.25 A 0.875,0.875 0 0 0 64.625,507.125 0.875,0.875 0 0 0 65.5,508 0.875,0.875 0 0 0 66.375,507.125 0.875,0.875 0 0 0 65.5,506.25 Z m -2,1.25 a 1,1 0 0 0 -1,1 1,1 0 0 0 1,1 1,1 0 0 0 1,-1 1,1 0 0 0 -1,-1 z m 2.498047,2.25 c -0.620385,5.1e-4 -1.126,0.50588 -1.125,1.12695 4.05e-4,0.61944 0.505025,1.12305 1.125,1.12305 H 66 c 0.62029,-6.2e-4 1.123047,-0.50588 1.123047,-1.12695 -6.1e-4,-0.61944 -0.504205,-1.12305 -1.125,-1.12305 z m -3.25,0.75 C 62.058877,510.50073 61.499,511.06159 61.5,511.75195 61.500725,512.44001 62.061455,513 62.75,513 h 0.002 C 63.441123,512.99927 64,512.43841 64,511.74805 63.99917,511.05998 63.437627,510.5 62.748047,510.5 Z"
         transform="translate(0,-244)"
         id="path4634" />
      <path
         inkscape:connector-curvature="0"
         id="path4644"
         d="M 59.677735,269.49609 A 7,7 0 0 0 57,275 a 7,7 0 0 0 7,7 7,7 0 0 0 7,-7 7,7 0 0 0 -2.677735,-5.49609 A 7,7 0 0 1 64,271 7,7 0 0 1 59.677735,269.49609 Z"
         style="opacity:1;fill:#0d47a1;fill-opacity:1;stroke:none;stroke-width:8;stroke-linecap:round;stroke-linejoin:miter;stroke-miterlimit:4;stroke-dasharray:none;stroke-opacity:0.628866" />
      <path
         inkscape:connector-curvature="0"
         style="fill:#03a9f4;fill-opacity:1"
         d="m 111.28602,253 a 1.0714286,1.0714286 0 0 0 -1.07204,1.07204 1.0714286,1.0714286 0 0 0 1.07204,1.06988 1.0714286,1.0714286 0 0 0 1.07206,-1.06988 A 1.0714286,1.0714286 0 0 0 111.28602,253 Z m 2.8559,1.78602 a 1.25,1.25 0 0 0 -1.25,1.25 1.25,1.25 0 0 0 1.25,1.25 1.25,1.25 0 0 0 1.25,-1.25 1.25,1.25 0 0 0 -1.25,-1.25 z m -2.8559,1.78602 A 1.4285714,1.4285714 0 0 0 109.85808,258 a 1.4285714,1.4285714 0 0 0 1.42794,1.42795 1.4285714,1.4285714 0 0 0 1.42796,-1.42795 1.4285714,1.4285714 0 0 0 -1.42796,-1.42796 z m 3.56771,3.21398 c -0.88626,7.5e-4 -1.60701,0.72082 -1.6059,1.60808 5.8e-4,0.8849 0.72239,1.6059 1.60807,1.6059 h 0.002 c 0.88612,-8.8e-4 1.60372,-0.72299 1.60372,-1.61025 -8.7e-4,-0.8849 -0.72122,-1.60373 -1.60806,-1.60373 z m -4.63975,1.07206 c -0.98454,0.001 -1.78714,0.80196 -1.78603,1.78819 0.001,0.98295 0.80238,1.78168 1.78603,1.78168 h 0.002 c 0.98453,-0.001 1.78385,-0.80197 1.78385,-1.7882 -0.001,-0.98295 -0.80091,-1.78167 -1.78602,-1.78167 z"
         id="path4654" />
      <path
         inkscape:connector-curvature="0"
         id="path4664"
         d="M 105.82533,265.13728 A 9.9999999,9.9999999 0 0 0 102,273 a 9.9999999,9.9999999 0 0 0 10,10 9.9999999,9.9999999 0 0 0 10,-10 9.9999999,9.9999999 0 0 0 -3.82533,-7.85157 9.9999999,9.9999999 0 0 1 -6.17467,2.13728 9.9999999,9.9999999 0 0 1 -6.17467,-2.14843 z"
         style="opacity:1;fill:#0d47a1;fill-opacity:1;stroke:none;stroke-width:8;stroke-linecap:round;stroke-linejoin:miter;stroke-miterlimit:4;stroke-dasharray:none;stroke-opacity:0.628866" />
      <path
         style="fill:#03a9f4;fill-opacity:1"
         d="M 452.57227,32 A 17.142857,17.142857 0 0 0 435.42773,49.142578 17.142857,17.142857 0 0 0 452.57227,66.285156 17.142857,17.142857 0 0 0 469.71484,49.142578 17.142857,17.142857 0 0 0 452.57227,32 Z m 45.71289,28.572266 a 20,20 0 0 0 -20,20 20,20 0 0 0 20,20.000004 20,20 0 0 0 20,-20.000004 20,20 0 0 0 -20,-20 z M 452.57227,89.142578 A 22.857141,22.857141 0 0 0 429.71484,112 22.857141,22.857141 0 0 0 452.57227,134.85742 22.857141,22.857141 0 0 0 475.42773,112 22.857141,22.857141 0 0 0 452.57227,89.142578 Z m 57.0957,51.427732 c -14.18023,0.0118 -25.71431,11.554 -25.69141,25.75 C 483.98582,180.47883 495.52055,192 509.69141,192 h 0.0234 c 14.17806,-0.0141 25.68946,-11.554 25.68946,-25.75 -0.0139,-14.15851 -11.54673,-25.67969 -25.73633,-25.67969 z M 435.4043,157.7168 c -15.75246,0.0168 -28.56978,12.83362 -28.54688,28.61328 0.0166,15.7272 12.83214,28.52734 28.57031,28.52734 h 0.0234 l 0.002,0.002 C 451.20558,214.8428 464,202.02184 464,186.24219 463.981,170.51499 451.16613,157.7168 435.4043,157.7168 Z"
         transform="translate(0,-244)"
         id="path4674" />
      <path
         style="opacity:1;fill:#0d47a1;fill-opacity:1;stroke:none;stroke-width:8;stroke-linecap:round;stroke-linejoin:miter;stroke-miterlimit:4;stroke-dasharray:none;stroke-opacity:0.628866"
         d="m 365.20533,-17.803581 a 159.99999,159.99999 0 0 0 -61.20537,125.803541 159.99999,159.99999 0 0 0 160,159.99999 159.99999,159.99999 0 0 0 159.99999,-159.99999 159.99999,159.99999 0 0 0 -61.20537,-125.625027 159.99999,159.99999 0 0 1 -98.79462,34.196456 159.99999,159.99999 0 0 1 -98.79463,-34.37497 z"
         id="path4684"
         inkscape:connector-curvature="0" />
      <path
         id="path4722"
         d="m 23.64301,269 a 0.5357143,0.5357143 0 0 0 -0.53602,0.53602 0.5357143,0.5357143 0 0 0 0.53602,0.53494 0.5357143,0.5357143 0 0 0 0.53603,-0.53494 A 0.5357143,0.5357143 0 0 0 23.64301,269 Z m 1.42795,0.89301 a 0.625,0.625 0 0 0 -0.625,0.625 0.625,0.625 0 0 0 0.625,0.625 0.625,0.625 0 0 0 0.625,-0.625 0.625,0.625 0 0 0 -0.625,-0.625 z m -1.42795,0.89301 a 0.7142857,0.7142857 0 0 0 -0.71397,0.71398 0.7142857,0.7142857 0 0 0 0.71397,0.71397 0.7142857,0.7142857 0 0 0 0.71398,-0.71397 0.7142857,0.7142857 0 0 0 -0.71398,-0.71398 z m 1.783855,1.60699 c -0.44313,3.7e-4 -0.803505,0.36041 -0.80295,0.80404 C 24.624205,273.6395 24.98511,274 25.42795,274 h 0.001 c 0.44306,-4.4e-4 0.80186,-0.3615 0.80186,-0.80512 -4.35e-4,-0.44245 -0.36061,-0.80187 -0.80403,-0.80187 z m -2.319875,0.53603 c -0.49227,5e-4 -0.89357,0.40098 -0.893015,0.89409 5e-4,0.49148 0.40119,0.89084 0.893015,0.89084 h 0.001 c 0.492265,-4.9e-4 0.891925,-0.40098 0.891925,-0.89409 -5e-4,-0.49148 -0.400455,-0.89084 -0.89301,-0.89084 z"
         style="fill:#03a9f4;fill-opacity:1"
         inkscape:connector-curvature="0" />
      <path
         style="opacity:1;fill:#0d47a1;fill-opacity:1;stroke:none;stroke-width:8;stroke-linecap:round;stroke-linejoin:miter;stroke-miterlimit:4;stroke-dasharray:none;stroke-opacity:0.628866"
         d="M 20.912665,275.06864 A 5,5 0 0 0 19,279 a 5,5 0 0 0 5,5 5,5 0 0 0 5,-5 5,5 0 0 0 -1.912665,-3.92579 A 5,5 0 0 1 24,276.14285 5,5 0 0 1 20.912665,275.06864 Z"
         id="path4724"
         inkscape:connector-curvature="0" />
      <path
         style="opacity:0.2;fill:#ffffff;fill-opacity:1"
         d="m 452.57227,32 a 17.142857,17.142857 0 0 0 -17.14454,17.142578 17.142857,17.142857 0 0 0 0.041,0.826172 A 17.142857,17.142857 0 0 1 452.57227,34 a 17.142857,17.142857 0 0 1 17.10156,16.314453 17.142857,17.142857 0 0 0 0.041,-1.171875 A 17.142857,17.142857 0 0 0 452.57227,32 Z m 45.71289,28.572266 a 20,20 0 0 0 -20,20 20,20 0 0 0 0.041,0.83789 20,20 0 0 1 19.95899,-18.83789 20,20 0 0 1 19.95898,19.162109 20,20 0 0 0 0.041,-1.162109 20,20 0 0 0 -20,-20 z M 452.57227,89.142578 A 22.857141,22.857141 0 0 0 429.71484,112 a 22.857141,22.857141 0 0 0 0.041,0.82812 A 22.857141,22.857141 0 0 1 452.57225,91.142578 22.857141,22.857141 0 0 1 475.3867,113.17188 22.857141,22.857141 0 0 0 475.4277,112 22.857141,22.857141 0 0 0 452.57224,89.142578 Z m 57.0957,51.427732 c -14.18023,0.0118 -25.71431,11.554 -25.69141,25.75 2.1e-4,0.31548 0.0138,0.62865 0.0254,0.94141 0.53605,-13.70595 11.84056,-24.6799 25.66602,-24.69141 13.86359,0 25.18479,10.99875 25.71094,24.70899 0.0135,-0.34206 0.0254,-0.68397 0.0254,-1.0293 -0.0139,-14.15851 -11.54673,-25.67969 -25.73633,-25.67969 z M 435.4043,157.7168 c -15.75246,0.0168 -28.56978,12.83362 -28.54688,28.61328 3.4e-4,0.31716 0.0147,0.63061 0.0254,0.94531 0.53537,-15.29138 13.12205,-27.54217 28.52149,-27.55859 15.43477,0 28.03585,12.27506 28.57031,27.55273 0.0121,-0.34153 0.0254,-0.68289 0.0254,-1.02734 -0.019,-15.7272 -12.83387,-28.52539 -28.5957,-28.52539 z m -70.19922,68.48047 A 159.99999,159.99999 0 0 0 304,352 159.99999,159.99999 0 0 0 304.0332,352.65234 159.99999,159.99999 0 0 1 365.20508,228.19727 159.99999,159.99999 0 0 0 464,262.57227 159.99999,159.99999 0 0 0 562.79492,228.375 159.99999,159.99999 0 0 1 623.95898,353.18555 159.99999,159.99999 0 0 0 624,352 159.99999,159.99999 0 0 0 562.79492,226.375 159.99999,159.99999 0 0 1 464,260.57227 a 159.99999,159.99999 0 0 1 -98.79492,-34.375 z"
         transform="translate(0,-244)"
         id="path4730" />
      <path
         style="opacity:0.2;fill:#ffffff;fill-opacity:1"
         d="m 167,483 a 1.5,1.5 0 0 0 -1.5,1.5 1.5,1.5 0 0 0 0.0879,0.5 1.5,1.5 0 0 1 1.41211,-1 1.5,1.5 0 0 1 1.41211,1 1.5,1.5 0 0 0 0.0879,-0.5 1.5,1.5 0 0 0 -1.5,-1.5 z m 4,2.5 a 1.75,1.75 0 0 0 -1.75,1.75 1.75,1.75 0 0 0 0.0742,0.50195 A 1.75,1.75 0 0 1 171,486.5 1.75,1.75 0 0 1 172.67578,487.74805 1.75,1.75 0 0 0 172.75,487.25 1.75,1.75 0 0 0 171,485.5 Z m -4,2.5 a 2,2 0 0 0 -2,2 2,2 0 0 0 0.0644,0.49609 A 2,2 0 0 1 167,489 2,2 0 0 1 168.93555,490.50391 2,2 0 0 0 169,490 a 2,2 0 0 0 -2,-2 z m 4.99609,4.5 c -1.24077,10e-4 -2.25004,1.01176 -2.24804,2.25391 1.1e-4,0.17073 0.0242,0.33619 0.0605,0.49609 0.22862,-0.99946 1.12041,-1.74914 2.1875,-1.75 1.07048,0 1.96363,0.74961 2.19141,1.75 0.0373,-0.16264 0.0606,-0.33006 0.0606,-0.50391 -0.001,-1.23887 -1.01037,-2.24609 -2.25196,-2.24609 z m -6.49804,1.5 c -1.37834,10e-4 -2.50005,1.12319 -2.49805,2.50391 1.8e-4,0.17002 0.018,0.33551 0.0508,0.49609 0.23221,-1.13978 1.24122,-1.99913 2.44727,-2 1.20676,0 2.21661,0.85787 2.45117,1.99414 C 167.98178,496.83307 168,496.6667 168,496.49609 167.99834,495.11996 166.87721,494 165.49805,494 Z m -6.14258,5.99219 A 14,14 0 0 0 154,511 a 14,14 0 0 0 0.0254,0.49023 14,14 0 0 1 5.33008,-10.49804 A 14,14 0 0 0 168,504 a 14,14 0 0 0 8.64453,-2.99219 14,14 0 0 1 5.33399,10.58399 A 14,14 0 0 0 182,511 14,14 0 0 0 176.64453,500.00781 14,14 0 0 1 168,503 a 14,14 0 0 1 -8.64453,-3.00781 z"
         transform="translate(0,-244)"
         id="path4754" />
      <path
         style="opacity:0.2;fill:#ffffff;fill-opacity:1"
         d="m 111.28516,497 a 1.0714286,1.0714286 0 0 0 -1.07032,1.07227 1.0714286,1.0714286 0 0 0 0.12305,0.49804 1.0714286,1.0714286 0 0 1 0.94727,-0.57031 1.0714286,1.0714286 0 0 1 0.94726,0.57227 1.0714286,1.0714286 0 0 0 0.125,-0.5 A 1.0714286,1.0714286 0 0 0 111.28516,497 Z m 2.85742,1.78516 a 1.25,1.25 0 0 0 -1.25,1.25 1.25,1.25 0 0 0 0.10547,0.5 1.25,1.25 0 0 1 1.14453,-0.75 1.25,1.25 0 0 1 1.14453,0.75 1.25,1.25 0 0 0 0.10547,-0.5 1.25,1.25 0 0 0 -1.25,-1.25 z m -2.85742,1.78711 A 1.4285714,1.4285714 0 0 0 109.85742,502 a 1.4285714,1.4285714 0 0 0 0.0918,0.5 1.4285714,1.4285714 0 0 1 1.33594,-0.92773 1.4285714,1.4285714 0 0 1 1.33789,0.92968 1.4285714,1.4285714 0 0 0 0.0918,-0.50195 1.4285714,1.4285714 0 0 0 -1.42968,-1.42773 z m 3.56836,3.21289 c -0.88626,7.5e-4 -1.60658,0.72211 -1.60547,1.60937 1.1e-4,0.17487 0.0358,0.34031 0.0879,0.49805 0.21142,-0.64032 0.80761,-1.10682 1.51758,-1.10742 0.71159,0 1.30816,0.46693 1.51953,1.10742 0.0524,-0.15899 0.0879,-0.32547 0.0879,-0.50196 -8.7e-4,-0.8849 -0.72058,-1.60546 -1.60742,-1.60546 z m -4.64063,1.07226 c -0.98363,0.002 -1.78626,0.8035 -1.78516,1.78906 1.8e-4,0.17389 0.0332,0.33912 0.0801,0.49805 0.21814,-0.74014 0.8966,-1.28546 1.70508,-1.28711 h 0.002 c 0.80945,8.8e-4 1.48685,0.54461 1.70508,1.2832 0.0468,-0.15971 0.0801,-0.32515 0.0801,-0.5 -0.001,-0.98229 -0.80095,-1.78213 -1.78516,-1.7832 z m -4.38672,4.2793 A 9.9999999,9.9999999 0 0 0 102,517 a 9.9999999,9.9999999 0 0 0 0.0254,0.49219 9.9999999,9.9999999 0 0 1 3.80078,-7.35547 9.9999999,9.9999999 0 0 0 6.17383,2.14844 9.9999999,9.9999999 0 0 0 6.17383,-2.13672 9.9999999,9.9999999 0 0 1 3.80469,7.4375 A 9.9999999,9.9999999 0 0 0 122,517 9.9999999,9.9999999 0 0 0 118.17383,509.14844 9.9999999,9.9999999 0 0 1 112,511.28516 a 9.9999999,9.9999999 0 0 1 -6.17383,-2.14844 z"
         transform="translate(0,-244)"
         id="path4759" />
      <path
         style="opacity:0.2;fill:#ffffff;fill-opacity:1"
         d="m 63.5,505 a 0.75,0.75 0 0 0 -0.75,0.75 0.75,0.75 0 0 0 0.191406,0.5 A 0.75,0.75 0 0 1 63.5,506 0.75,0.75 0 0 1 64.058594,506.25 0.75,0.75 0 0 0 64.25,505.75 0.75,0.75 0 0 0 63.5,505 Z m 0,2.5 a 1,1 0 0 0 -1,1 1,1 0 0 0 0.134766,0.5 A 1,1 0 0 1 63.5,508.5 1,1 0 0 1 64.365234,509 1,1 0 0 0 64.5,508.5 a 1,1 0 0 0 -1,-1 z m 2.498047,2.25 c -0.620385,5.1e-4 -1.126,0.50588 -1.125,1.12695 1.19e-4,0.18217 0.05342,0.34773 0.130859,0.5 0.185621,-0.3669 0.555995,-0.62659 0.994141,-0.62695 0.43823,0 0.808425,0.25754 0.994141,0.62305 0.07705,-0.15264 0.130859,-0.3175 0.130859,-0.5 -6.1e-4,-0.61944 -0.504205,-1.12305 -1.125,-1.12305 z m -3.25,0.75 c -0.68917,7.3e-4 -1.249047,0.56159 -1.248047,1.25195 1.88e-4,0.17804 0.04169,0.34465 0.109375,0.49805 0.19356,-0.43934 0.628796,-0.74946 1.138672,-0.75 0.511152,0 0.948349,0.31053 1.142578,0.75 C 63.958731,512.09551 64,511.92765 64,511.74805 63.99917,511.05998 63.437627,510.5 62.748047,510.5 Z m -3.070313,2.99609 A 7,7 0 0 0 57,519 a 7,7 0 0 0 0.02539,0.50781 7,7 0 0 1 2.652343,-5.01172 A 7,7 0 0 0 64,516 a 7,7 0 0 0 4.322266,-1.49609 7,7 0 0 1 2.654296,5.03711 A 7,7 0 0 0 71,519 7,7 0 0 0 68.322266,513.50391 7,7 0 0 1 64,515 7,7 0 0 1 59.677734,513.49609 Z"
         transform="translate(0,-244)"
         id="path4764" />
    </g>
  </g>
</svg>
