<svg version="1.0" viewBox="0 0 48 48" xmlns="http://www.w3.org/2000/svg"><g transform="translate(-156 64)"><path d="M186-21h-24c-1.662 0-3-1.338-3-3v-26c0-1.662 1.338-3 3-3h24l16 16z" fill="#ffce51"/><path d="M162-53c-1.662 0-3 1.338-3 3v26c0 1.662 1.338 3 3 3h24l16-16-16-16zm0 1h23.5l14 14-14 14H162c-1.108 0-2-.892-2-2v-24c0-1.108.892-2 2-2z" fill-opacity=".5"/><rect x="180" y="-42" width="24" height="26" ry="12" fill="#cf3b00"/><path d="M192-42c-6.648 0-12 5.352-12 12v2c0 6.648 5.352 12 12 12s12-5.352 12-12v-2c0-6.648-5.352-12-12-12zm0 1c6.094 0 11 4.906 11 11s-4.906 11-11 11-11-4.906-11-11 4.906-11 11-11z" fill-opacity=".5"/><path d="M187.5-35a1.5 1.5 0 0 0-1.5 1.5 1.5 1.5 0 0 0 .44 1.06l3.439 3.44-3.44 3.44A1.5 1.5 0 0 0 186-24.5a1.5 1.5 0 0 0 1.5 1.5 1.5 1.5 0 0 0 1.06-.44l3.44-3.439 3.425 3.425A1.5 1.5 0 0 0 196.5-23a1.5 1.5 0 0 0 1.5-1.5 1.5 1.5 0 0 0-.44-1.06L194.122-29l3.425-3.425A1.5 1.5 0 0 0 198-33.5a1.5 1.5 0 0 0-1.5-1.5 1.5 1.5 0 0 0-1.06.44L192-31.122l-3.425-3.425a1.5 1.5 0 0 0-.015-.015 1.5 1.5 0 0 0-1.06-.44z" fill="#fff"/></g></svg>