<svg version="1.0" viewBox="0 0 48 48" xmlns="http://www.w3.org/2000/svg"><g transform="translate(-144 -236)"><circle cx="168" cy="261" r="22" opacity=".2"/><circle cx="168" cy="260" r="22" fill="#0079c1"/><path d="M168 238a22 22 0 0 0-22 22 22 22 0 0 0 .021.586A22 22 0 0 1 168 239a22 22 0 0 1 21.979 21.414A22 22 0 0 0 190 260a22 22 0 0 0-22-22z" fill="#fff" opacity=".2"/><path d="m166.56 245.43-2.622.645a.248.248 0 0 0-.193.236l1.16 5.33.043.022a8.827 8.827 0 0 1 11.52 7.05l5.394-1.183a.241.241 0 0 0 .129-.28l-.623-2.621a.248.248 0 0 0-.237-.194h-4.32a9.482 9.482 0 0 0-1.332-1.913l1.397-3.954a.26.26 0 0 0-.108-.301l-2.3-1.397a.246.246 0 0 0-.3.043l-2.901 2.901a9.544 9.544 0 0 0-2.622-.451l-1.806-3.804a.24.24 0 0 0-.28-.129zm-8.468 3.847a.274.274 0 0 0-.15.086l-1.913 1.891c-.08.08-.08.204-.022.301l2.236 3.697a9.456 9.456 0 0 0-.946 2.127l-4.105.86a.239.239 0 0 0-.193.236v2.708c0 .115.083.21.193.237l3.976.967c.212.878.532 1.707.967 2.472l-2.3 3.524c-.064.098-.04.218.044.301l1.89 1.913c.081.08.204.102.302.043l3.696-4.083v-.043a8.813 8.813 0 0 1-2.837-6.49c0-2.845 1.35-5.351 3.44-6.964l-4.106-3.74a.282.282 0 0 0-.172-.043zm18.268 12.659c-.873 3.953-4.402 6.92-8.618 6.92a8.714 8.714 0 0 1-3.16-.601l-.02.021-1.398 5.351a.22.22 0 0 0 .172.237l2.622.71c.11.028.225-.03.28-.13l2.063-3.76a9.52 9.52 0 0 0 2.32-.259l2.795 3.138c.077.087.2.101.3.043l2.343-1.354a.239.239 0 0 0 .108-.28l-1.14-3.932a9.554 9.554 0 0 0 1.655-2.085l4.191.236c.118.007.228-.058.258-.172l.71-2.6a.252.252 0 0 0-.13-.28l-5.35-1.203z" fill="#fff"/></g></svg>