<svg enable-background="new" version="1.0" viewBox="0 0 48 48" xmlns="http://www.w3.org/2000/svg"><defs><filter id="a" x="-.024" y="-.024" width="1.048" height="1.048" color-interpolation-filters="sRGB"><feGaussianBlur stdDeviation="4.8"/></filter></defs><g transform="translate(-144 -236)"><circle cx="464" cy="30" r="240" opacity=".2"/><circle cx="464" cy="32" r="240" filter="url(#a)" opacity=".1"/><circle cx="464" cy="32" r="240" filter="url(#a)" opacity=".2"/><circle cx="64" cy="273" r="11" opacity=".2"/><circle cx="168" cy="261" r="22" opacity=".2"/><circle cx="24" cy="276" r="8" fill="#8bc34a"/><circle cx="64" cy="272" r="11" fill="#8bc34a"/><path d="M64 261a11 11 0 0 0-11 11 11 11 0 0 0 .021.586A11 11 0 0 1 64 262a11 11 0 0 1 10.979 10.414A11 11 0 0 0 75 272a11 11 0 0 0-11-11Z" fill="#fff" opacity=".2"/><circle cx="168" cy="260" r="22" fill="#8bc34a"/><path d="M168 238a22 22 0 0 0-22 22 22 22 0 0 0 .021.586A22 22 0 0 1 168 239a22 22 0 0 1 21.979 21.414A22 22 0 0 0 190 260a22 22 0 0 0-22-22z" fill="#fff" opacity=".2"/><circle cx="464" cy="28" r="240" fill="#8bc34a"/><path d="M464-212A240 240 0 0 0 224 28a240 240 0 0 0 .041 1.172A240 240 0 0 1 464-210 240 240 0 0 1 703.959 28.828 240 240 0 0 0 704 28a240 240 0 0 0-240-240Z" fill="#fff" opacity=".2"/><circle cx="112" cy="269" r="15" enable-background="new" opacity=".2"/><circle cx="112" cy="268" r="15" enable-background="new" fill="#8bc34a"/><path d="M112 253a15 15 0 0 0-15 15 15 15 0 0 0 .02.544A15 15 0 0 1 112 253.938a15 15 0 0 1 14.98 14.456A15 15 0 0 0 127 268a15 15 0 0 0-15-15z" enable-background="new" fill="#fff" opacity=".2"/><path d="M455.34-63.034c-8.983.006-17.309.212-21.229.646-23.769 2.63-44.639 8.956-67.856 20.547-37.419 18.682-60.914 39.826-74.182 66.777-5.941 12.068-7.997 20.523-8.066 33.164-.048 7.998.544 12.239 2.609 18.744 7.44 23.432 28.65 40.153 53.223 41.98 23.778 1.768 41.447-7.643 49.34-26.27 2.861-6.752 3.72-12.616 2.923-20.005-1.95-18.07-13.64-31.815-30.914-36.363-5.289-1.393-13.429-1.436-18.62-.014-14.234 3.896-24.588 16.727-20.78 32.563 3.23 13.435 18.928 21.855 32.203 16.522 5.301-2.13 8.387-4.707 6.852-10.363-1.565-5.765-5.435-7.125-12.85-5.047-2.917.818-4.982.294-7.165-1.682-3.664-3.316-3.605-8.383.15-12.001 4.57-4.403 12.924-4.774 20.553-.901 7.55 3.833 13.066 14.682 11.874 23.356-1.28 9.31-6.621 15.737-15.577 18.729-2.99.999-4.227 1.114-11.274 1.096-7.56-.02-8.117-.088-12.369-1.517-15.949-5.36-26.484-19.886-26.58-36.663-.063-10.595 3.699-19.149 12.053-27.396 7.853-7.753 17.997-11.54 30.914-11.535 16.057.006 29.39 5.62 41.064 17.303 8.786 8.793 15.42 20.71 17.976 32.262l.81 3.665 23.058 11.31c.184-.169.13-1.721-.12-2.779-.945-3.995-1.093-15.12-.27-19.826 1.197-6.843 2.815-10.405 6.267-13.818 5.322-5.263 11.89-7.53 21.859-7.54 13.259-.014 24.51 4.846 34.572 14.945 2.257 2.266 7.178 7.634 10.944 11.926 3.765 4.293 7.42 8.215 8.125 8.712 1.979 1.393 28.857 13.702 29.19 13.368.162-.163-.79-1.876-2.129-3.815-5.237-7.59-9.678-17.368-11.379-25.038-1.163-5.248-.844-12.992.69-16.522 1.436-3.305 4.498-6.096 7.736-7.06 3.469-1.031 11.04-.97 21.199.18 12.185 1.38 18.921 1.644 26.956 1.037 18.298-1.384 30.277-4.393 43.688-10.95 7.009-3.426 8.499-4.749 10.015-8.846 1.445-3.906 2.131-7.645 1.394-7.645-.26 0-2.722 1.059-5.472 2.358-10.32 4.877-19.18 7.044-27.046 6.624-8.177-.436-21.57-4.928-37.466-12.571l-7.241-3.485-5.907-14.148 5.517 3.44c9.076 6.026 23.753 13.242 32.699 16.07 13.666 4.323 24.542 3.759 35.547-1.847 3.879-1.975 11.154-6.97 11.154-7.66 0-1.301-3.89-13.95-6.057-19.69-5.417-14.357-9.109-19.143-18.036-23.402-9.91-4.727-20.833-8.114-40.914-12.692-9.601-2.038-19.251-4.012-28.995-5.227l-.24 11.896c-22.702-7.06-42.565-11.727-64.557-13.998-5.683-.587-18.315-.908-29.865-.9zm150.42 24.362c7.334-.02 14.332 3.752 18.426 10.574 6.98 11.632 1.258 26.744-11.799 31.151-8.617 2.908-18.879-.568-24.093-8.156-4.28-6.228-4.997-14.269-1.889-21.013 1.766-3.832 5.969-8.365 9.385-10.108 3.224-1.645 6.637-2.44 9.97-2.448zm-.24 6.218c-3.437.073-6.94 1.35-9.895 4.026-4.514 4.085-5.963 11.473-3.359 17.107 2.139 4.626 6.19 7.818 10.914 8.59 6.702 1.096 13.05-2.03 15.832-7.81 1.904-3.953 2.243-6.666 1.29-10.393-1.892-7.398-8.222-11.66-14.783-11.52zm3.508 7.645c2.548 0 5.613 1.593 5.997 3.124.521 2.081-.185 3.519-2.204 4.551-3.119 1.594-7.128 1.143-9.475-1.066-2.894-2.724.446-6.609 5.682-6.609z" enable-background="new" fill="#fff"/><path d="M168 242c-9.94 0-18 8.059-18 18s8.06 18 18 18 18-8.059 18-18-8.06-18-18-18zm.086 2.493c8.565 0 15.514 6.943 15.514 15.507 0 8.565-6.95 15.507-15.514 15.507a15.466 15.466 0 0 1-11.615-5.238c1.168-.906 3.123-.685 5.53-.41 1.153.13 2.468.28 3.825.31 3.791.023 7.87-.67 10.389-1.77 1.628-.713 2.67-1.183 3.321-1.776.235-.193.359-.515.484-.849l.087-.225c.105-.27.257-.85.324-1.167.03-.139.046-.288-.053-.365l-.35.067c-1.106.662-3.866 1.924-6.452 1.975-3.204.067-9.662-3.225-10.336-3.573l-.066-.08c-.162-.385-1.128-2.68-1.333-3.162 4.649 3.061 8.503 4.755 11.456 5.019 3.284.291 5.846-1.502 6.942-2.268.214-.146.377-.26.444-.285l.073-.12c-.182-1.153-1.905-6.74-3.202-8.081-.36-.368-.646-.726-1.227-1.067-4.696-2.738-15.847-4.386-16.369-4.462l-.086.026-.033.073-.047 2.573a66.19 66.19 0 0 0-3.268-.981c2.217-2.744 5.615-5.178 11.562-5.178zm4.097 8.207c.08 0 .16-.002.24 0a4.787 4.787 0 0 1 4.607 4.94 4.744 4.744 0 0 1-1.512 3.315 4.737 4.737 0 0 1-3.42 1.286 4.798 4.798 0 0 1-4.609-4.94 4.728 4.728 0 0 1 1.519-3.32 4.706 4.706 0 0 1 3.175-1.28zm-.126 1.406a3.288 3.288 0 0 0-2.055.888 3.305 3.305 0 0 0-1.054 2.314 3.34 3.34 0 0 0 3.209 3.448 3.327 3.327 0 0 0 2.387-.889 3.313 3.313 0 0 0 1.054-2.32 3.334 3.334 0 0 0-3.216-3.441 2.934 2.934 0 0 0-.325 0zm.876 1.664c.814 0 1.471.443 1.471.988 0 .542-.657.988-1.471.988-.818 0-1.479-.447-1.479-.988 0-.545.661-.988 1.479-.988z" enable-background="new" fill="#fff" fill-rule="evenodd"/><path d="M112 256c-6.627 0-12 5.372-12 12s5.373 12 12 12 12-5.372 12-12-5.373-12-12-12zm.057 1.662c5.71 0 10.343 4.629 10.343 10.338 0 5.71-4.633 10.338-10.343 10.338-3.083 0-5.85-1.351-7.743-3.492.779-.604 2.081-.457 3.686-.274.769.088 1.645.188 2.55.208 2.528.015 5.248-.447 6.926-1.18 1.085-.476 1.78-.79 2.215-1.185.156-.128.239-.343.322-.565l.058-.15c.07-.18.171-.568.216-.779.02-.092.03-.191-.035-.243l-.234.044c-.737.442-2.577 1.283-4.3 1.318-2.137.044-6.442-2.15-6.891-2.383l-.045-.053c-.107-.257-.752-1.786-.888-2.108 3.1 2.04 5.668 3.17 7.638 3.346 2.19.194 3.897-1.001 4.627-1.512.143-.097.252-.173.296-.19l.049-.08c-.121-.769-1.27-4.493-2.135-5.387-.24-.245-.43-.484-.817-.712-3.131-1.825-10.565-2.924-10.913-2.974l-.058.017-.022.049-.03 1.715a44.161 44.161 0 0 0-2.18-.654c1.478-1.83 3.744-3.452 7.708-3.452zm2.732 5.472c.053 0 .106-.002.159 0a3.192 3.192 0 0 1 3.072 3.292 3.163 3.163 0 0 1-1.008 2.21 3.158 3.158 0 0 1-2.28.858 3.199 3.199 0 0 1-3.072-3.293 3.15 3.15 0 0 1 1.012-2.214 3.137 3.137 0 0 1 2.117-.853zm-.084.937c-.51.03-.993.238-1.37.592-.43.404-.684.95-.703 1.543a2.227 2.227 0 0 0 2.14 2.298 2.208 2.208 0 0 0 2.294-2.14 2.223 2.223 0 0 0-2.144-2.293 2.235 2.235 0 0 0-.217 0zm.583 1.11c.544 0 .982.294.982.658 0 .361-.438.658-.982.658-.545 0-.985-.297-.985-.658 0-.364.44-.659.985-.659z" enable-background="new" fill="#fff" fill-rule="evenodd"/><path d="M64 263a9 9 0 1 0 0 18 9 9 0 0 0 0-18zm.043 1.246A7.756 7.756 0 0 1 71.8 272a7.756 7.756 0 0 1-13.565 5.135c.584-.453 1.562-.343 2.765-.206.577.066 1.234.14 1.913.156 1.895.011 3.935-.335 5.194-.885.814-.357 1.335-.592 1.661-.888.117-.097.18-.258.242-.425l.043-.112a4.82 4.82 0 0 0 .162-.584c.016-.07.023-.144-.026-.182l-.176.033c-.552.331-1.932.962-3.225.988-1.602.033-4.831-1.613-5.168-1.787l-.033-.04c-.081-.192-.564-1.34-.667-1.58 2.325 1.53 4.252 2.377 5.729 2.509 1.642.146 2.923-.75 3.47-1.134.107-.073.189-.13.222-.143l.037-.06c-.091-.576-.952-3.37-1.601-4.04-.18-.184-.323-.363-.613-.534-2.349-1.368-7.924-2.193-8.185-2.23l-.043.013-.017.036-.023 1.286a33.124 33.124 0 0 0-1.634-.49c1.109-1.372 2.808-2.59 5.781-2.59zm2.049 4.104h.119a2.394 2.394 0 0 1 2.304 2.47 2.372 2.372 0 0 1-.756 1.657 2.368 2.368 0 0 1-1.71.643 2.4 2.4 0 0 1-2.304-2.47 2.364 2.364 0 0 1 .759-1.66c.436-.409.994-.63 1.588-.64zm-.063.703a1.644 1.644 0 0 0-1.028.444 1.652 1.652 0 0 0-.527 1.157 1.67 1.67 0 0 0 1.604 1.724 1.656 1.656 0 0 0 1.72-1.604 1.667 1.667 0 0 0-1.77-1.72zm.437.832c.408 0 .736.222.736.494 0 .271-.328.494-.736.494-.409 0-.739-.223-.739-.494 0-.272.33-.494.74-.494z" enable-background="new" fill="#fff" fill-rule="evenodd"/><path d="M24 269a7 7 0 1 0 0 14 7 7 0 0 0 0-14zm.034.97c3.33 0 6.033 2.7 6.033 6.03a6.033 6.033 0 0 1-10.55 3.994c.454-.353 1.214-.267 2.15-.16.448.051.96.11 1.487.121 1.475.01 3.061-.26 4.04-.688.634-.278 1.039-.46 1.292-.691.092-.075.14-.2.188-.33l.034-.088c.041-.105.1-.33.126-.454.012-.054.018-.112-.02-.142l-.137.026c-.43.258-1.503.749-2.509.769-1.246.026-3.757-1.255-4.02-1.39l-.025-.031a792.07 792.07 0 0 0-.518-1.23c1.808 1.19 3.306 1.85 4.455 1.952 1.277.113 2.273-.584 2.7-.882.083-.057.146-.101.172-.11l.029-.047c-.071-.449-.741-2.621-1.246-3.143-.14-.143-.25-.282-.477-.415-1.826-1.065-6.162-1.706-6.365-1.735l-.034.01-.013.028-.018 1c-.149-.048-.61-.2-1.271-.38.862-1.068 2.184-2.014 4.497-2.014zm1.593 3.191h.093a1.862 1.862 0 0 1 1.792 1.921 1.845 1.845 0 0 1-.588 1.29 1.847 1.847 0 0 1-1.33.5 1.866 1.866 0 0 1-1.793-1.921c.018-.496.228-.956.59-1.292a1.83 1.83 0 0 1 1.236-.498zm-.05.547a1.278 1.278 0 0 0-.798.345c-.251.236-.4.555-.41.9a1.299 1.299 0 0 0 1.248 1.34 1.293 1.293 0 1 0 .087-2.585 1.065 1.065 0 0 0-.126 0zm.341.647c.317 0 .573.172.573.384 0 .211-.256.384-.573.384-.318 0-.575-.173-.575-.384 0-.212.257-.384.575-.384z" enable-background="new" fill="#fff" fill-rule="evenodd"/></g></svg>