<svg version="1.0" viewBox="0 0 48 48" xmlns="http://www.w3.org/2000/svg"><g transform="translate(-144 -236)"><circle cx="168" cy="261" r="22" opacity=".2"/><circle cx="168" cy="260" r="22" fill="#3d91e7"/><path d="M168 238a22 22 0 0 0-22 22 22 22 0 0 0 .021.586A22 22 0 0 1 168 239a22 22 0 0 1 21.979 21.414A22 22 0 0 0 190 260a22 22 0 0 0-22-22z" fill="#fff" opacity=".2"/><path d="M168 242c-9.941 0-18 8.059-18 18s8.059 18 18 18 18-8.059 18-18-8.059-18-18-18zm0 1.5c7.558 0 13.929 5.082 15.883 12.015a28.629 28.629 0 0 1-6.994 9.122c-1.4 1.213-2.93 2.295-4.62 3.056-1.69.762-3.548 1.194-5.398 1.088a9.339 9.339 0 0 1-3.98-1.142 30.023 30.023 0 0 0 8.52-6.87c1.564-1.832 2.932-3.914 3.459-6.265.263-1.175.308-2.406.062-3.585-.246-1.179-.792-2.302-1.616-3.18-.806-.857-1.864-1.464-2.998-1.777s-2.342-.337-3.5-.126c-2.314.423-4.381 1.769-6.039 3.439-2.922 2.944-4.728 7.098-4.397 11.233.166 2.067.859 4.099 2.046 5.8.265.379.556.74.868 1.083a26.995 26.995 0 0 1-5.336 1.279 16.42 16.42 0 0 1-2.46-8.67c0-9.113 7.387-16.5 16.5-16.5zm.105 3.334c1.16.002 2.328.353 3.253 1.052.834.63 1.452 1.526 1.802 2.51s.44 2.054.32 3.092c-.238 2.077-1.286 3.98-2.551 5.644-2.24 2.945-5.22 5.302-8.531 6.952-.34.17-.684.33-1.03.484a8.52 8.52 0 0 1-1.81-2.212c-.983-1.742-1.308-3.812-1.117-5.803.191-1.992.875-3.911 1.793-5.69 1.064-2.06 2.515-4.013 4.547-5.133 1.015-.56 2.164-.898 3.324-.896zm16.247 10.958c.097.722.148 1.46.148 2.209 0 9.112-7.387 16.5-16.5 16.5-5.118 0-9.692-2.33-12.718-5.987a29.704 29.704 0 0 0 5.445-1.81 10.151 10.151 0 0 0 2.51 1.407c2.59.992 5.53.848 8.15-.059s4.943-2.535 6.969-4.428a29.998 29.998 0 0 0 5.996-7.832z" fill="#fff"/></g></svg>