<svg version="1.0" viewBox="0 0 48 48" xmlns="http://www.w3.org/2000/svg"><path d="M23 4a1.5 1.5 0 0 0-1.5 1.5A1.5 1.5 0 0 0 23 7a1.5 1.5 0 0 0 1.5-1.5A1.5 1.5 0 0 0 23 4zm4 2.5a1.75 1.75 0 0 0-1.75 1.75A1.75 1.75 0 0 0 27 10a1.75 1.75 0 0 0 1.75-1.75A1.75 1.75 0 0 0 27 6.5zM23 9a2 2 0 0 0-2 2 2 2 0 0 0 2 2 2 2 0 0 0 2-2 2 2 0 0 0-2-2zm4.996 4.5a2.253 2.253 0 0 0-2.248 2.254A2.251 2.251 0 0 0 27.998 18H28a2.254 2.254 0 0 0 2.248-2.254 2.252 2.252 0 0 0-2.252-2.246zM21.498 15A2.503 2.503 0 0 0 19 17.504 2.503 2.503 0 0 0 21.5 20h.002A2.504 2.504 0 0 0 24 17.496 2.503 2.503 0 0 0 21.498 15zm-6.143 5.992A14 14 0 0 0 10 32a14 14 0 0 0 14 14 14 14 0 0 0 14-14 14 14 0 0 0-5.356-10.992A14 14 0 0 1 24 24a14 14 0 0 1-8.645-3.007z" opacity=".2"/><path d="M23 3a1.5 1.5 0 0 0-1.5 1.5A1.5 1.5 0 0 0 23 6a1.5 1.5 0 0 0 1.5-1.5A1.5 1.5 0 0 0 23 3zm4 2.5a1.75 1.75 0 0 0-1.75 1.75A1.75 1.75 0 0 0 27 9a1.75 1.75 0 0 0 1.75-1.75A1.75 1.75 0 0 0 27 5.5zM23 8a2 2 0 0 0-2 2 2 2 0 0 0 2 2 2 2 0 0 0 2-2 2 2 0 0 0-2-2zm4.996 4.5a2.253 2.253 0 0 0-2.248 2.254A2.251 2.251 0 0 0 27.998 17H28a2.254 2.254 0 0 0 2.248-2.254 2.252 2.252 0 0 0-2.252-2.246zM21.498 14A2.503 2.503 0 0 0 19 16.504 2.503 2.503 0 0 0 21.5 19h.002A2.504 2.504 0 0 0 24 16.496 2.503 2.503 0 0 0 21.498 14z" fill="#03a9f4"/><path d="M15.36 19.99a14 14 0 0 0-5.355 11.008 14 14 0 0 0 14 14 14 14 0 0 0 14-14 14 14 0 0 0-5.356-10.992 14 14 0 0 1-8.644 2.992 14 14 0 0 1-8.645-3.008z" fill="#0d47a1"/><path d="M23 3a1.5 1.5 0 0 0-1.5 1.5 1.5 1.5 0 0 0 .088.5A1.5 1.5 0 0 1 23 4a1.5 1.5 0 0 1 1.412 1 1.5 1.5 0 0 0 .088-.5A1.5 1.5 0 0 0 23 3zm4 2.5a1.75 1.75 0 0 0-1.75 1.75 1.75 1.75 0 0 0 .074.502A1.75 1.75 0 0 1 27 6.5a1.75 1.75 0 0 1 1.676 1.248 1.75 1.75 0 0 0 .074-.498A1.75 1.75 0 0 0 27 5.5zM23 8a2 2 0 0 0-2 2 2 2 0 0 0 .064.496A2 2 0 0 1 23 9a2 2 0 0 1 1.936 1.504A2 2 0 0 0 25 10a2 2 0 0 0-2-2zm4.996 4.5a2.253 2.253 0 0 0-2.248 2.254c0 .17.024.336.06.496.23-1 1.121-1.75 2.188-1.75 1.07 0 1.964.75 2.191 1.75.038-.163.061-.33.061-.504a2.252 2.252 0 0 0-2.252-2.246zM21.498 14a2.503 2.503 0 0 0-2.447 3c.232-1.14 1.241-2 2.447-2 1.207 0 2.217.858 2.451 1.994A2.503 2.503 0 0 0 21.498 14zm-6.143 5.992A14 14 0 0 0 10 31a14 14 0 0 0 .025.49 14 14 0 0 1 5.33-10.498A14 14 0 0 0 24 24a14 14 0 0 0 8.644-2.992 14 14 0 0 1 5.334 10.584A14 14 0 0 0 38 31a14 14 0 0 0-5.356-10.992A14 14 0 0 1 24 23a14 14 0 0 1-8.645-3.007z" fill="#fff" opacity=".2"/></svg>