<svg enable-background="new" version="1.0" viewBox="0 0 48 48" xmlns="http://www.w3.org/2000/svg"><defs><filter id="a" x="-.024" y="-.024" width="1.048" height="1.048" color-interpolation-filters="sRGB"><feGaussianBlur stdDeviation="4.48"/></filter><filter id="e" x="-.06" y="-.06" width="1.12" height="1.12" color-interpolation-filters="sRGB"><feGaussianBlur stdDeviation="5.6"/></filter><filter id="b" x="-.06" y="-.06" width="1.12" height="1.12" color-interpolation-filters="sRGB"><feGaussianBlur stdDeviation="5.6"/></filter><filter id="d" x="-.06" y="-.06" width="1.12" height="1.12" color-interpolation-filters="sRGB"><feGaussianBlur stdDeviation="8"/></filter><clipPath id="c"/></defs><path d="M527.98-192A160 160 0 0 0 370.77-61.2 160 160 0 0 0 239.99 95.98v135.53A24.436 24.436 0 0 0 264.48 256h135.53a160 160 0 0 0 157.21-130.8A160 160 0 0 0 688-31.98v-135.53A24.44 24.44 0 0 0 663.51-192h-66.934z" filter="url(#a)" opacity=".1" transform="translate(-144 -236)"/><path d="M527.98-192A160 160 0 0 0 370.77-61.2 160 160 0 0 0 239.99 95.98v135.53A24.436 24.436 0 0 0 264.48 256h135.53a160 160 0 0 0 157.21-130.8A160 160 0 0 0 688-31.98v-135.53A24.44 24.44 0 0 0 663.51-192h-66.934z" filter="url(#a)" opacity=".2" transform="translate(-144 -236)"/><path d="M30 5a14 14 0 0 0-14 14 14 14 0 0 0 14 14 14 14 0 0 0 14-14V7c0-1.108-.892-2-2-2h-6z" opacity=".2"/><path d="M18 17A14 14 0 0 0 4 31v12c0 1.108.892 2 2 2h12a14 14 0 0 0 14-14 14 14 0 0 0-14-14z" opacity=".2"/><path d="M528 84c62.048 0 112-49.952 112-112v-112H528c-62.048 0-112 49.952-112 112S465.952 84 528 84z" filter="url(#b)" opacity=".2" transform="translate(-144 -236)"/><path d="M30 4a14 14 0 0 0-14 14 14 14 0 0 0 14 14 14 14 0 0 0 14-14V6c0-1.108-.892-2-2-2h-6z" fill="#666"/><path d="M30 29c5.54 0 10-4.46 10-10V9H30c-5.54 0-10 4.46-10 10s4.46 10 10 10z" opacity=".2"/><path d="M30 28c5.54 0 10-4.46 10-10V8H30c-5.54 0-10 4.46-10 10s4.46 10 10 10z" fill="#ececec"/><path d="M18 16A14 14 0 0 0 4 30v12c0 1.108.892 2 2 2h12a14 14 0 0 0 14-14 14 14 0 0 0-14-14z" fill="gray"/><path d="M30 4a14 14 0 0 0-14 14 14 14 0 0 0 .021.414A14 14 0 0 1 30 5h12c1.108 0 2 .892 2 2V6c0-1.108-.892-2-2-2h-6z" fill="#fff" opacity=".2"/><path d="M18 16A14 14 0 0 0 4 30v1a14 14 0 0 1 14-14 14 14 0 0 1 13.979 13.586A14 14 0 0 0 32 30a14 14 0 0 0-14-14z" fill="#fff" opacity=".2"/><path d="M400.02-62C311.655-62.007 240.01 9.619 240 97.98v135.53c0 13.568 10.927 24.844 24.49 24.49h135.53c88.365-.01 159.99-71.651 159.98-160.02C559.99 9.628 488.368-61.99 400.02-62z" clip-path="url(#c)" filter="url(#d)" opacity=".5" transform="translate(-144 -236)"/><path d="M18 21c-5.54 0-10 4.46-10 10v10h10c5.54 0 10-4.46 10-10s-4.46-10-10-10z" opacity=".2"/><path d="M18 20c-5.54 0-10 4.46-10 10v10h10c5.54 0 10-4.46 10-10s-4.46-10-10-10z" fill="#fff"/><path d="M400-12c-62.048 0-112 49.952-112 112v112h112c62.048 0 112-49.952 112-112S462.048-12 400-12z" filter="url(#e)" opacity=".2" transform="translate(-144 -236)"/></svg>