<svg version="1.0" viewBox="0 0 48 48" xmlns="http://www.w3.org/2000/svg"><path fill="#e9e9e9" d="M48 0H0v48h48z"/><g transform="translate(-144 -236)"><rect transform="matrix(0 -1 -1 0 0 0)" x="-281" y="-188" width="40" height="40" rx="3" ry="3" opacity=".2"/><rect transform="matrix(0 -1 -1 0 0 0)" x="-280" y="-188" width="40" height="40" rx="3" ry="3" fill="#c70036"/><path d="M151 240c-1.662 0-3 1.338-3 3v1c0-1.662 1.338-3 3-3h34c1.662 0 3 1.338 3 3v-1c0-1.662-1.338-3-3-3z" fill="#fff" opacity=".2"/><path d="M176.63 257.98c.028.756-.22 1.123-.445 1.772l-.405.201c-.33.642.033.408-.204.918-.516.46-1.565 1.436-1.901 1.525-.245-.005.166-.29.22-.4-.69.473-.555.711-1.611 1l-.031-.07c-2.605 1.227-6.224-1.202-6.176-4.516-.028.21-.08.158-.137.242-.134-1.705.787-3.417 2.342-4.117 1.521-.752 3.304-.444 4.393.572-.598-.784-1.79-1.615-3.2-1.538-1.383.023-2.677.901-3.108 1.855-.708.446-.79 1.72-1.099 1.952-.416 3.053.78 4.37 2.805 5.922.318.215.09.247.132.41a5.49 5.49 0 0 1-1.794-1.371c.269.393.559.775.933 1.075-.634-.214-1.481-1.536-1.728-1.59 1.093 1.957 4.434 3.432 6.184 2.7-.81.03-1.838.017-2.748-.32-.383-.196-.902-.603-.809-.68 2.388.893 4.854.676 6.92-.98.526-.41 1.1-1.106 1.266-1.116-.25.376.043.181-.149.513.523-.845-.228-.344.541-1.459l.284.391c-.106-.701.871-1.553.772-2.662.224-.339.25.366.012 1.146.33-.866.087-1.005.172-1.72.09.241.212.496.273.75-.215-.837.22-1.409.328-1.895-.107-.047-.331.37-.383-.618.008-.429.12-.225.162-.33-.084-.049-.305-.378-.439-1.009.097-.148.26.385.393.406-.085-.501-.232-.883-.238-1.268-.388-.81-.138.108-.452-.348-.412-1.287.342-.299.394-.883.625.905.98 2.31 1.145 2.89a11.835 11.835 0 0 0-.574-2.06c.19.08-.306-1.458.248-.44-.59-2.171-2.526-4.2-4.307-5.152.217.199.492.449.394.488-.887-.527-.73-.568-.858-.79-.72-.295-.769.023-1.246 0-1.36-.722-1.622-.645-2.874-1.097l.057.266c-.9-.3-1.05.114-2.023.001-.06-.046.312-.168.618-.212-.872.115-.83-.172-1.683.032.21-.147.432-.245.656-.37-.71.043-1.696.413-1.392.076-1.159.517-3.217 1.243-4.372 2.326l-.036-.243c-.529.636-2.307 1.897-2.449 2.72l-.142.034c-.275.466-.453.994-.671 1.473-.36.614-.528.237-.477.333-.708 1.436-1.06 2.643-1.364 3.633.216.323.005 1.949.087 3.25-.356 6.424 4.508 12.661 9.825 14.101.78.28 1.938.27 2.924.297-1.163-.333-1.313-.176-2.446-.571-.817-.385-.996-.825-1.575-1.327l.229.405c-1.135-.402-.66-.497-1.584-.79l.245-.32c-.368-.027-.975-.619-1.14-.948l-.404.016c-.483-.596-.741-1.026-.722-1.36l-.13.232c-.147-.253-1.78-2.239-.933-1.776-.157-.144-.366-.234-.593-.646l.172-.197c-.407-.525-.75-1.197-.723-1.42.217.293.368.348.517.398-1.03-2.553-1.087-.14-1.866-2.599l.165-.013c-.126-.19-.204-.397-.305-.6l.072-.714c-.74-.856-.207-3.642-.1-5.17.074-.62.618-1.282 1.032-2.32l-.252-.043c.482-.84 2.753-3.377 3.805-3.247.509-.64-.102-.002-.201-.163 1.119-1.158 1.47-.818 2.226-1.027.814-.483-.7.19-.313-.184 1.408-.36.997-.817 2.834-1 .194.11-.45.17-.61.313 1.172-.574 3.71-.443 5.36.319 1.914.895 4.064 3.538 4.15 6.025l.096.026c-.049.989.151 2.133-.196 3.183l.235-.498" fill="#fff"/></g></svg>