<svg version="1.0" viewBox="0 0 48 48" xmlns="http://www.w3.org/2000/svg"><g transform="translate(-144 -236)"><rect transform="matrix(0 -1 -1 0 0 0)" x="-281" y="-188" width="40" height="40" rx="3" ry="3" opacity=".2"/><rect transform="matrix(0 -1 -1 0 0 0)" x="-280" y="-188" width="40" height="40" rx="3" ry="3" fill="#f2f2f2"/><path d="M151 240c-1.662 0-3 1.338-3 3v1c0-1.662 1.338-3 3-3h34c1.662 0 3 1.338 3 3v-1c0-1.662-1.338-3-3-3z" fill="#fff" opacity=".2"/><path d="M152 267v7h36v-2h-34v-5z"/><path d="M168.06 247.05c-3.793 0-9.403 1.824-9.403 6.362 0 4.352 5.39 5.859 8.859 5.859 3.613 0 6.975.89 6.975 3.697 0 2.735-3.184 4.004-6.905 4.004-4.227 0-6.278-2.815-6.278-4.255 0-.505-.785-1.046-1.688-1.046-.904 0-1.437.47-1.437 1.046v4.562c.036 1.043.513 2.092 1.758 2.092 1.34 0 1.73-.182 1.73-1.52 2.063 1.055 4.203 1.52 6.5 1.52 5.745 0 9.677-2.814 9.655-6.375-.037-5.755-6.944-6.432-10.268-6.432-3.432-.036-5.358-1.67-5.358-3.18 0-1.62 1.666-3.935 5.748-3.935 4.592 0 5.705 2.466 5.86 3.293.18.65.822.99 1.618.99.831 0 1.395-.42 1.395-1.032v-4.255c0-.54-.835-1.256-1.73-1.256-.758 0-1.54.285-1.576 1.005-.759-.576-3.283-1.144-5.455-1.144z"/></g></svg>