<svg version="1.0" viewBox="0 0 48 48" xmlns="http://www.w3.org/2000/svg"><path d="M24 5C13.744 5 4.513 24.487 3.487 32.692 2.208 42.92 17.846 45 24 45s21.791-2.08 20.513-12.308C43.487 24.487 34.257 5 24 5z" fill-rule="evenodd" opacity=".2"/><path d="M24 4C13.744 4 4.513 23.487 3.487 31.692 2.208 41.92 17.846 44 24 44s21.791-2.08 20.513-12.308C43.487 23.487 34.257 4 24 4z" fill="#7986cb" fill-rule="evenodd"/><path d="M26.9 36.34c2.663-6.655 3.182-15.26 1.281-21.207-.5-1.563-.727-1.201-1.615 2.573-1.342 5.696-4.443 12.544-7.334 16.192-.799 1.008-1.392 2.015-1.318 2.238.254.763 3.42 1.669 5.907 1.69l2.477.02zm9.258-10.632c0-3.338-1.283-6.474-3.524-8.608-1.003-.955-1.418-1.192-1.227-.7 1.3 3.34 2.499 8.038 2.887 11.304l.464 3.905.7-1.606c.472-1.082.7-2.483.7-4.295zM14.67 27.163c2.778-2.07 5.632-4.923 7.407-7.405 2.577-3.604 3.843-6.527 2.827-6.527-.196 0-1.458.824-2.806 1.832-1.348 1.007-3.952 2.607-5.787 3.555-3.294 1.7-3.344 1.747-3.907 3.643-.813 2.737-.722 6.261.162 6.261.153 0 1.1-.612 2.104-1.36z" fill="#fff"/><path d="M24 4C13.744 4 4.512 23.486 3.486 31.691a8.992 8.992 0 0 0-.05 1.676c.011-.223.021-.445.05-.676C4.512 24.486 13.743 5 24 5s19.488 19.486 20.514 27.691c.029.23.039.453.05.676a8.983 8.983 0 0 0-.05-1.676C43.488 23.486 34.257 4 24 4z" fill="#fff" fill-rule="evenodd" opacity=".2"/></svg>