<svg version="1.0" viewBox="0 0 48 48" xmlns="http://www.w3.org/2000/svg"><g transform="translate(-144 -236)"><circle cx="168" cy="261" r="22" opacity=".2"/><circle cx="168" cy="260" r="22" fill="#87a556"/><path d="M168 238a22 22 0 0 0-22 22 22 22 0 0 0 .021.586A22 22 0 0 1 168 239a22 22 0 0 1 21.979 21.414A22 22 0 0 0 190 260a22 22 0 0 0-22-22z" fill="#fff" opacity=".2"/><path d="m171.34 245.41 7.77 4.592-7.779 4.592.01-9.184zm-3.342 2.361c.57 0 1.127.046 1.675.122v1.701a10.546 10.546 0 0 0-11.476 6.458l-1.44-.85c1.87-4.362 6.205-7.43 11.24-7.43zm0 4.158c.57 0 1.128.068 1.667.182v1.728a6.443 6.443 0 0 0-1.667-.217 6.353 6.353 0 0 0-6.12 4.6l-1.493-.885c1.105-3.142 4.105-5.408 7.613-5.408zm9.809.773a12.174 12.174 0 0 1 2.422 7.3c0 2.774-.935 5.34-2.5 7.396l-1.45-.86a10.5 10.5 0 0 0 2.266-6.536c0-2.428-.817-4.662-2.188-6.441zm-3.62 2.144a8.017 8.017 0 0 1 1.884 5.156 8.046 8.046 0 0 1-1.962 5.26l-1.484-.876a6.322 6.322 0 0 0 1.753-4.384c0-1.66-.628-3.164-1.658-4.297zm-20.347.564 7.77 4.592-7.779 4.592.01-9.184zm8.038 6.372a6.348 6.348 0 0 0 6.12 4.592 6.54 6.54 0 0 0 1.667-.218v1.737a8.017 8.017 0 0 1-1.667.182c-3.51 0-6.51-2.27-7.613-5.417zm-3.68 2.17a10.546 10.546 0 0 0 9.8 6.597c.566 0 1.118-.045 1.658-.13v1.692c-.542.076-1.095.122-1.658.122-5.036 0-9.37-3.069-11.24-7.43zm13.134 1.605 7.769 4.584-7.778 4.592.01-9.176z" fill="#fff"/></g></svg>