<svg version="1.0" viewBox="0 0 48 48" xmlns="http://www.w3.org/2000/svg"><g transform="translate(-144 -236)"><circle cx="168" cy="261" r="22" opacity=".2"/><circle cx="168" cy="260" r="22" fill="#e95420"/><path d="M168 238a22 22 0 0 0-22 22 22 22 0 0 0 .021.586A22 22 0 0 1 168 239a22 22 0 0 1 21.979 21.414A22 22 0 0 0 190 260a22 22 0 0 0-22-22z" fill="#fff" opacity=".2"/><path d="M154.4 257.33a2.67 2.67 0 1 0 0 5.34 2.67 2.67 0 0 0 0-5.34zm19.065 12.136a2.669 2.669 0 1 0 2.668 4.623 2.669 2.669 0 0 0-2.668-4.623zM160.2 260a7.788 7.788 0 0 1 3.317-6.381l-1.952-3.27a11.62 11.62 0 0 0-4.798 6.743A3.742 3.742 0 0 1 158.15 260c0 1.174-.54 2.22-1.383 2.908a11.618 11.618 0 0 0 4.797 6.743l1.953-3.27A7.787 7.787 0 0 1 160.2 260zm7.8-7.8a7.799 7.799 0 0 1 7.768 7.108l3.805-.055a11.564 11.564 0 0 0-3.447-7.524 3.74 3.74 0 0 1-3.201-.26 3.74 3.74 0 0 1-1.826-2.647 11.6 11.6 0 0 0-8.24.78l1.855 3.324A7.767 7.767 0 0 1 168 252.2zm0 15.6a7.768 7.768 0 0 1-3.286-.726l-1.855 3.325a11.601 11.601 0 0 0 8.24.78 3.742 3.742 0 0 1 1.826-2.648 3.741 3.741 0 0 1 3.202-.26 11.563 11.563 0 0 0 3.446-7.523l-3.806-.056A7.798 7.798 0 0 1 168 267.8zm5.465-17.266a2.669 2.669 0 1 0 2.67-4.622 2.669 2.669 0 0 0-2.67 4.622z" fill="#fff"/></g></svg>