<svg version="1.0" viewBox="0 0 48 48" xmlns="http://www.w3.org/2000/svg"><g transform="translate(-144 -236)"><circle cx="168" cy="261" r="22" opacity=".2"/><circle cx="168" cy="260" r="22" fill="#0068c8"/><path d="M168 238a22 22 0 0 0-22 22 22 22 0 0 0 .021.586A22 22 0 0 1 168 239a22 22 0 0 1 21.979 21.414A22 22 0 0 0 190 260a22 22 0 0 0-22-22z" fill="#fff" opacity=".2"/><path d="M166.52 238.05a22 22 0 0 0-.152.012l.152-.012zm-10.377 3.418a22 22 0 0 0-.06.037l.06-.037zm-1.754 1.248a22 22 0 0 0-.121.098l.121-.098zm-1.63 1.424a22 22 0 0 0-.143.135l.142-.135zm30.98.49.095.102a22 22 0 0 0-.096-.102zm-10.792.648c-.612-.021-3.974.969-4.959 2.215-2.967.215-14.93 8.377-21.96 13.338a22 22 0 0 0 .126 1.565c3.197-1.232 6.915-2.523 8.42-2.512.297.002.512.052.611.166.579.682-1.883 3.982-4.425 7.719a288.92 288.92 0 0 0-1.96 2.922 22 22 0 0 0 .64 1.111c3.494-4.376 7.888-9.852 9.105-10.037v-.002c.06-.01.126 0 .17.022.216.264-3.795 6.657-7.383 12.533a22 22 0 0 0 1.266 1.36c1.743-2.396 3.634-5.03 5.464-7.558 3.82-5.273 7.2-10.202 8.848-10.246v.002a.758.758 0 0 1 .15.008c5.074.03 10.03 12.752 12.641 20.73a22 22 0 0 0 1.092-.754c-1.253-8.921-4.193-23.616-10.312-27.705.657-.437.711-2.681.711-2.681zm-21.727.495a22 22 0 0 0-.074.086c.024-.03.05-.058.074-.086zm33.977.51c.024.029.045.06.069.09a22 22 0 0 0-.069-.09zm-35.322 1.247a22 22 0 0 0-.048.069l.048-.069zm39.795 8.69.012.066a22 22 0 0 0-.012-.066zm.256 2.076c.008.104.017.208.024.313a22 22 0 0 0-.024-.313zm-.027 3.691-.031.348a22 22 0 0 0 .03-.348zm-.336 2.358c-.004.022-.011.044-.016.066a22 22 0 0 0 .016-.066zm-1.275 4.146c-.019.044-.035.088-.053.131a22 22 0 0 0 .053-.13zm-.958 1.998-.08.143a22 22 0 0 0 .08-.143zm-36.674 3.032a22 22 0 0 0 .256.32 22.143 22.143 0 0 1-.256-.32zm34.295.482c-.071.087-.141.174-.214.26a22 22 0 0 0 .214-.26zm-1.476 1.615c-.115.114-.23.225-.348.336a22 22 0 0 0 .348-.336zm-30.057.826a22 22 0 0 0 .523.467c-.18-.15-.348-.312-.523-.467zm28.316.73c-.071.058-.145.11-.217.167a22 22 0 0 0 .217-.166zm-26.57.669a22 22 0 0 0 .498.365c-.17-.116-.331-.245-.498-.365zm22.848 1.742c-.032.016-.064.03-.096.047a22 22 0 0 0 .096-.047zm-6.137 2.06-.236.044a22 22 0 0 0 .236-.043z" fill="#fff"/></g></svg>