<svg version="1.0" viewBox="0 0 48 48" xmlns="http://www.w3.org/2000/svg"><g transform="translate(-144 -236)"><circle cx="168" cy="261" r="22" opacity=".2"/><circle cx="168" cy="260" r="22" fill="#8bc34a"/><path d="M168 238a22 22 0 0 0-22 22 22 22 0 0 0 .021.586A22 22 0 0 1 168 239a22 22 0 0 1 21.979 21.414A22 22 0 0 0 190 260a22 22 0 0 0-22-22z" fill="#fff" opacity=".2"/><path d="M168 242c-9.94 0-18 8.059-18 18s8.06 18 18 18 18-8.059 18-18-8.06-18-18-18zm.086 2.493c8.565 0 15.514 6.943 15.514 15.507 0 8.565-6.95 15.507-15.514 15.507a15.466 15.466 0 0 1-11.615-5.238c1.168-.906 3.123-.685 5.53-.41 1.153.13 2.468.28 3.825.31 3.791.023 7.87-.67 10.389-1.77 1.628-.713 2.67-1.183 3.321-1.776.235-.193.359-.515.484-.849l.087-.225c.105-.27.257-.85.324-1.167.03-.139.046-.288-.053-.365l-.35.067c-1.106.662-3.866 1.924-6.452 1.975-3.204.067-9.662-3.225-10.336-3.573l-.066-.08c-.162-.385-1.128-2.68-1.333-3.162 4.649 3.061 8.503 4.755 11.456 5.019 3.284.291 5.846-1.502 6.942-2.268.214-.146.377-.26.444-.285l.073-.12c-.182-1.153-1.905-6.74-3.202-8.081-.36-.368-.646-.726-1.227-1.067-4.696-2.738-15.847-4.386-16.369-4.462l-.086.026-.033.073-.047 2.573a66.19 66.19 0 0 0-3.268-.981c2.217-2.744 5.615-5.178 11.562-5.178zm4.097 8.207c.08 0 .16-.002.24 0a4.787 4.787 0 0 1 4.607 4.94 4.744 4.744 0 0 1-1.512 3.315 4.737 4.737 0 0 1-3.42 1.286 4.798 4.798 0 0 1-4.609-4.94 4.728 4.728 0 0 1 1.519-3.32 4.706 4.706 0 0 1 3.175-1.28zm-.126 1.406a3.288 3.288 0 0 0-2.055.888 3.305 3.305 0 0 0-1.054 2.314 3.34 3.34 0 0 0 3.209 3.448 3.327 3.327 0 0 0 2.387-.889 3.313 3.313 0 0 0 1.054-2.32 3.334 3.334 0 0 0-3.216-3.441 2.934 2.934 0 0 0-.325 0zm.876 1.664c.814 0 1.471.443 1.471.988 0 .542-.657.988-1.471.988-.818 0-1.479-.447-1.479-.988 0-.545.661-.988 1.479-.988z" fill="#fff" fill-rule="evenodd"/></g></svg>