<svg version="1.0" viewBox="0 0 48 48" xmlns="http://www.w3.org/2000/svg"><path d="M24 3C11.855 3 2.008 12.845 2 24.988v18.597a3.407 3.407 0 0 0 3.414 3.414h18.597C36.157 46.994 46 37.147 46 25c0-12.15-9.85-22-22-22z" opacity=".2"/><path d="M24 2C11.855 2 2.008 11.845 2 23.988v18.597a3.407 3.407 0 0 0 3.414 3.414h18.597C36.157 45.994 46 36.147 46 24c0-12.15-9.85-22-22-22z" fill="#294172"/><path d="M30.51 6.09c-5.826 0-10.549 4.723-10.549 10.549v5.59h-5.567c-5.826 0-10.55 4.7-10.55 10.526 0 5.827 4.724 10.55 10.55 10.55 5.825 0 10.548-4.722 10.548-10.55v-5.613h5.568c5.825 0 10.548-4.677 10.548-10.503 0-5.826-4.723-10.55-10.548-10.55zM19.961 32.766a5.568 5.568 0 0 1-5.568 5.559c-3.074 0-5.59-2.493-5.59-5.568 0-3.076 2.516-5.615 5.59-5.615h4.782c.435 0 .787.352.787.785v4.839zM30.51 22.23h-4.782a.785.785 0 0 1-.786-.786V16.63a5.568 5.568 0 0 1 5.568-5.56c3.075 0 5.591 2.494 5.591 5.57 0 3.074-2.516 5.59-5.591 5.59z" fill="#5484c6"/><path d="M19.96 22.23v-5.591c0-5.826 4.723-10.549 10.549-10.549.884 0 1.512.1 2.33.314 1.193.313 2.167 1.29 2.168 2.428 0 1.376-.998 2.375-2.49 2.375-.71 0-.968-.136-2.008-.136a5.568 5.568 0 0 0-5.568 5.56v4.813c0 .435.351.786.785.786h3.66a2.454 2.454 0 0 1 2.463 2.457 2.452 2.452 0 0 1-2.463 2.455H24.94v5.615c0 5.826-4.723 10.549-10.548 10.549-.884 0-1.512-.1-2.33-.314-1.193-.313-2.168-1.29-2.168-2.428 0-1.375.997-2.375 2.49-2.375.71 0 .968.136 2.008.136a5.568 5.568 0 0 0 5.568-5.558v-4.84a.786.786 0 0 0-.786-.784h-3.658a2.45 2.45 0 0 1-2.464-2.455c0-1.374 1.112-2.457 2.49-2.457h4.418z" fill="#fff"/></svg>