<svg version="1.0" viewBox="0 0 48 48" xmlns="http://www.w3.org/2000/svg"><g transform="translate(-144 -236)"><rect transform="matrix(0 -1 -1 0 0 0)" x="-281" y="-188" width="40" height="40" rx="3" ry="3" opacity=".2"/><rect transform="matrix(0 -1 -1 0 0 0)" x="-280" y="-188" width="40" height="40" rx="3" ry="3" fill="#1794d1"/><path d="M151 240c-1.662 0-3 1.338-3 3v1c0-1.662 1.338-3 3-3h34c1.662 0 3 1.338 3 3v-1c0-1.662-1.338-3-3-3z" fill="#fff" opacity=".2"/><path d="M168 246c-1.246 3.055-1.998 5.054-3.385 8.019.85.902 1.894 1.952 3.59 3.138-1.823-.75-3.067-1.504-3.996-2.285-1.776 3.705-4.558 8.983-10.204 19.128 4.438-2.562 7.877-4.142 11.083-4.744a8.123 8.123 0 0 1-.21-1.9l.004-.143c.07-2.843 1.55-5.03 3.302-4.88 1.752.148 3.113 2.574 3.043 5.417a8.028 8.028 0 0 1-.18 1.527c3.172.62 6.575 2.195 10.953 4.723-.863-1.59-1.634-3.022-2.37-4.386-1.158-.898-2.367-2.068-4.833-3.333 1.695.44 2.908.948 3.854 1.516-7.48-13.927-8.086-15.778-10.65-21.798z" fill="#fff" fill-rule="evenodd"/></g></svg>