<svg version="1.0" viewBox="0 0 48 48" xmlns="http://www.w3.org/2000/svg"><g transform="translate(-144 -236)"><circle cx="168" cy="261" r="22" opacity=".2"/><circle cx="168" cy="260" r="22" fill="#0087ed"/><path d="M168 238a22 22 0 0 0-22 22 22 22 0 0 0 .021.586A22 22 0 0 1 168 239a22 22 0 0 1 21.979 21.414A22 22 0 0 0 190 260a22 22 0 0 0-22-22z" fill="#fff" opacity=".2"/><path d="M166.753 245.823c-.645.387-1.467.935-2.466 1.644-.983.693-2.03 1.595-3.142 2.707-.967.967-1.643 1.918-2.03 2.852-.37.95-.5 1.885-.387 2.804.113.918.427 1.813.943 2.683.532.886 1.224 1.756 2.078 2.61l7.058 7.058 2.248-2.248-6.574-6.574c-1.531-1.531-2.385-2.869-2.562-4.013-.178-1.144.306-2.288 1.45-3.432.242-.242.5-.483.773-.725s.532-.467.774-.677c.258-.193.483-.37.676-.532a3.14 3.14 0 0 1 .508-.314l14.46 14.46 2.248-2.247zm-.7 7.143-2.248 2.247 10.61 10.611a3.13 3.13 0 0 1-.313.508 17.08 17.08 0 0 0-.532.676c-.21.242-.435.5-.677.774s-.483.532-.725.773c-1.144 1.144-2.288 1.628-3.432 1.45-1.144-.177-2.482-1.03-4.012-2.561l-6.575-6.575-2.248 2.248 7.058 7.058c.854.854 1.724 1.547 2.61 2.078.87.516 1.765.83 2.683.943.919.113 1.853-.016 2.804-.387.935-.386 1.885-1.063 2.852-2.03 1.112-1.112 2.014-2.16 2.707-3.142.71-1 1.257-1.821 1.644-2.466z" fill="#fff"/></g></svg>