<svg version="1.0" viewBox="0 0 48 48" xmlns="http://www.w3.org/2000/svg"><path d="M2 6v12h5v11.141A14.833 14.833 0 0 0 21.859 44H45V20.86A14.833 14.833 0 0 0 30.14 6H7z" color="#000" opacity=".2"/><path d="M2 5v12h5v11.141A14.833 14.833 0 0 0 21.859 43H45V19.86A14.833 14.833 0 0 0 30.14 5H7z" color="#000" fill="#fff"/><path d="M5 8v6h2c1.571-.001 3.001 1.429 3 3v11.141C10 34.756 16.244 40 22.859 40h19.14V19.718C42 13.103 36.757 8 30.142 8H8z" color="#000" fill="#4caf50"/><path d="M22 36h9c7 0 7-7 7-7v-3h-3v3c0 4-4 4-4 4h-9z" color="#000" opacity=".2"/><path d="M14 13v17c0 7 7 7 7 7h3v-3h-3c-4 0-4-4-4-4V13zm12 3c-2.77 0-5 2.23-5 5v9h3v-9c0-1.108.892-2 2-2s2 .892 2 2v9h3v-9c0-1.108.892-2 2-2s2 .892 2 2v9h3v-9c0-2.77-2.23-5-5-5a4.98 4.98 0 0 0-3.5 1.43A4.98 4.98 0 0 0 26 16z" color="#000" opacity=".2"/><path d="M14 12v17c0 7 7 7 7 7h3v-3h-3c-4 0-4-4-4-4V12z" color="#000" fill="#fff"/><path d="M26 15c-2.77 0-5 2.23-5 5v9h3v-9c0-1.108.892-2 2-2s2 .892 2 2v9h3v-9c0-1.108.892-2 2-2s2 .892 2 2v9h3v-9c0-2.77-2.23-5-5-5a4.98 4.98 0 0 0-3.5 1.43A4.98 4.98 0 0 0 26 15z" fill="#fff"/></svg>