<svg enable-background="new" version="1.0" viewBox="0 0 48 48" xmlns="http://www.w3.org/2000/svg"><defs><filter id="b" x="-.024" y="-.024" width="1.048" height="1.048" color-interpolation-filters="sRGB"><feGaussianBlur stdDeviation="2.72"/></filter><filter id="a" x="-.023" y="-.025" width="1.045" height="1.051" color-interpolation-filters="sRGB"><feGaussianBlur stdDeviation="4.24"/></filter></defs><path d="M240-176v96h32c8.836 0 15.999 7.164 16 16V96s0 128 128 128h272V-33.5c0-79.154-63.346-142.5-142.5-142.5H272z" color="#000" enable-background="accumulate" filter="url(#a)" opacity=".1" transform="translate(-144 -236)"/><path d="M240-176v96h32c8.836 0 15.999 7.164 16 16V96s0 128 128 128h272V-33.5c0-79.154-63.346-142.5-142.5-142.5H272z" color="#000" enable-background="accumulate" filter="url(#a)" opacity=".2" transform="translate(-144 -236)"/><path d="M53 264v7h3v5c0 4.566 3.635 7 8 7h11v-11.14c0-4.365-3.593-7.86-7.93-7.86H57z" color="#000" enable-background="accumulate" opacity=".2" style="isolation:auto;mix-blend-mode:normal;text-decoration-color:#000;text-decoration-line:none;text-decoration-style:solid;text-indent:0;text-transform:none;white-space:normal" transform="translate(-144 -236)"/><path d="M53 263v7h3v5c0 4.566 3.635 7 8 7h11v-11.14c0-4.365-3.593-7.86-7.93-7.86H57z" color="#000" enable-background="accumulate" fill="#fff" style="isolation:auto;mix-blend-mode:normal;text-decoration-color:#000;text-decoration-line:none;text-decoration-style:solid;text-indent:0;text-transform:none;white-space:normal" transform="translate(-144 -236)"/><path d="M2 6v12h5v11.141A14.833 14.833 0 0 0 21.859 44H45V20.86A14.833 14.833 0 0 0 30.14 6H7z" color="#000" enable-background="accumulate" opacity=".2"/><path d="M352-112V96c0 35.456 28.544 64 64 64h48.25v-32H416c-17.728 0-32-14.272-32-32v-208zm136 32c-30.928 0-56 25.072-56 56V80h32V-24c0-13.255 10.745-24 24-24s24 10.745 24 24V80h32V-24c0-13.255 10.745-24 24-24s24 10.745 24 24V80h32V-24c0-30.928-25.072-56-56-56-15.713 0-29.83 6.577-40 17-10.17-10.423-24.287-17-40-17z" color="#000" enable-background="accumulate" filter="url(#b)" opacity=".2" transform="translate(-144 -236)"/><path d="M2 5v12h5v11.141A14.833 14.833 0 0 0 21.859 43H45V19.86A14.833 14.833 0 0 0 30.14 5H7z" color="#000" enable-background="accumulate" fill="#fff"/><path d="M5 8v6h2c1.571-.001 3.001 1.429 3 3v11.141C10 34.756 16.244 40 22.859 40h19.14V19.718C42 13.103 36.757 8 30.142 8H8z" color="#000" enable-background="accumulate" fill="#4caf50"/><path d="M22 36h9c7 0 7-7 7-7v-3h-3v3c0 4-4 4-4 4h-9z" color="#000" enable-background="accumulate" opacity=".2"/><path d="M14 13v17c0 7 7 7 7 7h3v-3h-3c-4 0-4-4-4-4V13zm12 3c-2.77 0-5 2.23-5 5v9h3v-9c0-1.108.892-2 2-2s2 .892 2 2v9h3v-9c0-1.108.892-2 2-2s2 .892 2 2v9h3v-9c0-2.77-2.23-5-5-5a4.98 4.98 0 0 0-3.5 1.43A4.98 4.98 0 0 0 26 16z" color="#000" enable-background="accumulate" opacity=".2"/><path d="M14 12v17c0 7 7 7 7 7h3v-3h-3c-4 0-4-4-4-4V12z" color="#000" enable-background="accumulate" fill="#fff"/><path d="M26 15c-2.77 0-5 2.23-5 5v9h3v-9c0-1.108.892-2 2-2s2 .892 2 2v9h3v-9c0-1.108.892-2 2-2s2 .892 2 2v9h3v-9c0-2.77-2.23-5-5-5a4.98 4.98 0 0 0-3.5 1.43A4.98 4.98 0 0 0 26 15z" fill="#fff"/></svg>