<svg version="1.0" viewBox="0 0 48 48" xmlns="http://www.w3.org/2000/svg"><g transform="translate(-144 -236)"><circle cx="168" cy="261" r="22" opacity=".2"/><circle cx="168" cy="260" r="22" fill="#04a"/><path d="M168 238a22 22 0 0 0-22 22 22 22 0 0 0 .021.586A22 22 0 0 1 168 239a22 22 0 0 1 21.979 21.414A22 22 0 0 0 190 260a22 22 0 0 0-22-22z" fill="#fff" opacity=".2"/><g fill="#fff"><path d="M175.195 246.25c-.066.042-.094.077-.077.05-.747 1.262-.753 2.915-1.09 4.398a.548.548 0 0 1-.002.082c-.166 1.628-.698 3.284-.268 4.847a.548.548 0 0 1 .036.088c.08.105.183.2.243.212.044.01.11-.01.264-.118.167-.116.274-.328.323-.634a.548.548 0 0 1 .066-.058.548.548 0 0 1 .013-.094c.676-2.666 1.158-5.472.98-8.216a.548.548 0 0 1 0-.026c-.023-.126-.062-.202-.183-.348a1.246 1.246 0 0 0-.155-.167c-.02-.015-.003-.018-.08-.013a.548.548 0 0 1-.07-.002z"/><path d="M181.277 247.54c-1.15.556-1.74 1.906-2.533 2.99a.513.513 0 0 1-.058.156c-.999 1.77-2.27 3.524-2.404 5.57.006.324.19.509.382.55.18.038.512-.078.647-.281.012-.03.002-.059.02-.084a.513.513 0 0 1 .012-.02c1.81-2.487 3.18-5.438 4.303-8.305a.513.513 0 0 1 .003-.009c.077-.188.082-.262.013-.404-.02-.042-.223-.177-.334-.163a.513.513 0 0 1-.051 0z"/><path d="M163.517 248.368c-.184.034-.458.199-.653.275-.691.262-1.073.855-1.238 1.547-.168.708-.112 1.497 0 2.303.112.805.273 1.635.447 2.269.15.548.258.815.31.997v.137c0 .06-.03.055-.07.103-.021.012.023.069 0 .069a.294.294 0 0 1-.171.069c-.122.007-.218-.037-.344-.07-.086-.019-.198-.088-.172-.068-.04-.024-.111-.027-.137-.069 0 .017.024.016 0-.034-.028-.052-.06-.183-.103-.275-.098-.208-.175-.45-.31-.756a27.67 27.67 0 0 0-.996-2.063c-.385-.705-.839-1.345-1.341-1.787-.251-.22-.56-.442-.86-.516-.288-.072-.63-.01-.928.138-.77.427-1.205 1.126-1.375 1.856-.17.74-.09 1.594.035 2.338.126.741.32 1.353.447 1.856.053.212.12.41.137.515 0 .105-.043.38-.069.482-.13.45-.446 1.203-.447 1.203 0 0-5.998 15.931 6.875 14.816.106-.008.347-.069.447-.069a40.186 40.186 0 0 0 7.047-2.131c.418-.2.966-.4 1.581-.688 1.231-.576 2.777-1.315 4.263-2.131 1.486-.816 2.865-1.686 3.919-2.613 1.055-.927 1.826-1.944 1.684-2.956-.224-1.632-1.308-2.844-2.75-3.781-1.448-.94-3.253-1.59-5.053-2.063-1.8-.473-3.547-.858-4.881-1.065-.668-.104-1.293-.134-1.685-.206-.116-.02-.178-.05-.24-.07-.034-.004-.037-.014-.07-.033-.04-.024-.113-.027-.137-.07-.022-.04 0-.09 0-.137v-1.065c-.022-.823-.07-1.91-.24-2.922-.172-1.017-.438-1.99-.997-2.647a1.95 1.95 0 0 0-1.375-.688 1.876 1.876 0 0 0-.55 0z"/></g></g></svg>