<svg version="1.0" viewBox="0 0 48 48" xmlns="http://www.w3.org/2000/svg"><g transform="translate(-144 -236)"><circle cx="168" cy="261" r="22" opacity=".2"/><circle cx="168" cy="260" r="22" fill="#4c5263"/><path d="M189.48 264.54c-3.209 4.329-9.136 6.642-16.198 7.668-7.367 1.07-15.91.753-23.533.102.365.545.766 1.074 1.178 1.584 7.338.582 14.98 2.853 22.126 1.815 5.96-.866 11.786-4.656 15.48-7.92.403-1.05.735-2.213.946-3.249z" color="#000" fill="#fff" fill-rule="evenodd" style="isolation:auto;mix-blend-mode:normal;text-decoration-color:#000;text-decoration-line:none;text-decoration-style:solid;text-indent:0;text-transform:none;white-space:normal"/><circle cx="168" cy="260" r="22" fill="none"/><path d="M173.5 273.68c-7.467 1.054-15.073.792-22.566.22 4.822 6.149 13.203 9.248 20.944 7.754 7.471-1.284 14.02-6.756 16.658-13.854-4.437 3.147-9.678 5.057-15.036 5.88z" fill="#5294e2"/><path d="M159.13 237.53c-2.472 10.087-9.586 22.5-14.065 30.414 7.81 1.881 16.473 2.427 23.189 3.04-.117-1.523-1.244-18.094-1.52-21.287-2.765-5.01-5.008-7.6-7.604-12.167zm9.505 12.926c3.664 7.548 3.667 15.017 1.52 20.529 3.023.018 7.956.357 13.306-2.281-4.397-10.04-14.827-18.248-14.827-18.248zm7.223 4.563c2.273 1.524 4.44 2.913 6.083 4.56 2.224 2.232 3.36 5.24 3.04 8.366 2.98-1.498 4.95-3.995 6.084-6.084-1.981-1.824-5.421-3.628-9.124-4.941a90.23 90.23 0 0 0-6.083-1.901z" fill-rule="evenodd" opacity=".2"/><path d="M159.13 236.53c-2.472 10.087-9.586 22.5-14.065 30.414 7.81 1.881 16.473 2.427 23.189 3.04-.117-1.523-1.244-18.094-1.52-21.287-2.765-5.01-5.008-7.6-7.604-12.167zm9.505 12.926c3.664 7.548 3.667 15.017 1.52 20.529 3.023.018 7.956.357 13.306-2.281-4.397-10.04-14.827-18.248-14.827-18.248zm7.223 4.563c2.273 1.524 4.44 2.913 6.083 4.56 2.224 2.232 3.36 5.24 3.04 8.366 2.98-1.498 4.95-3.995 6.084-6.084-1.981-1.824-5.421-3.628-9.124-4.941a90.23 90.23 0 0 0-6.083-1.901z" fill="#fff" fill-rule="evenodd"/><path d="M168 238a22 22 0 0 0-22 22 22 22 0 0 0 .021.586A22 22 0 0 1 168 239a22 22 0 0 1 21.979 21.414A22 22 0 0 0 190 260a22 22 0 0 0-22-22z" fill="#fff" opacity=".2"/></g></svg>