<svg enable-background="new" version="1.0" viewBox="0 0 48 48" xmlns="http://www.w3.org/2000/svg"><defs><filter id="a" x="-.024" y="-.024" width="1.048" height="1.048" color-interpolation-filters="sRGB"><feGaussianBlur stdDeviation="4.8"/></filter></defs><g transform="translate(-144 -236)"><circle cx="464" cy="32" r="240" filter="url(#a)" opacity=".1"/><circle cx="464" cy="32" r="240" filter="url(#a)" opacity=".2"/><circle cx="64" cy="273" r="11" opacity=".2"/><circle cx="168" cy="261" r="22" opacity=".2"/><circle cx="24" cy="276" r="8" fill="#87a556"/><circle cx="64" cy="272" r="11" fill="#87a556"/><path d="M64 261a11 11 0 0 0-11 11 11 11 0 0 0 .021.586A11 11 0 0 1 64 262a11 11 0 0 1 10.979 10.414A11 11 0 0 0 75 272a11 11 0 0 0-11-11Z" fill="#fff" opacity=".2"/><circle cx="168" cy="260" r="22" fill="#87a556"/><path d="M168 238a22 22 0 0 0-22 22 22 22 0 0 0 .021.586A22 22 0 0 1 168 239a22 22 0 0 1 21.979 21.414A22 22 0 0 0 190 260a22 22 0 0 0-22-22z" fill="#fff" opacity=".2"/><path d="M464-212A240 240 0 0 0 224 28a240 240 0 0 0 .041 1.172A240 240 0 0 1 464-210 240 240 0 0 1 703.959 28.828 240 240 0 0 0 704 28a240 240 0 0 0-240-240Z" fill="#fff" opacity=".2"/><circle cx="464" cy="28" r="240" enable-background="new" fill="#87a556"/><path d="m506.25-149.73 94.18 55.666-94.285 55.666.105-111.33zm-40.513 28.622c6.907 0 13.661.55 20.309 1.473v20.625c-6.61-1.07-13.382-1.683-20.309-1.683-53.854 0-99.91 33.004-118.8 79.974l-17.468-10.312c22.683-52.877 75.218-90.076 136.27-90.076zm0 50.404c6.916 0 13.677.823 20.204 2.21v20.94a78.105 78.105 0 0 0-20.204-2.63c-35.367 0-64.895 23.501-74.186 55.771L373.452-5.146c13.388-38.095 49.759-65.557 92.285-65.557zm118.91 9.365c18.441 24.724 29.359 55.382 29.359 88.497 0 33.631-11.335 64.737-30.306 89.655l-17.573-10.418c17.195-21.768 27.465-49.246 27.465-79.237 0-29.428-9.9-56.509-26.518-78.08zm-43.88 25.991c14.208 16.994 22.835 38.767 22.835 62.506 0 24.275-8.996 46.608-23.782 63.768l-17.994-10.628c13.153-13.814 21.256-32.425 21.256-53.14 0-20.127-7.612-38.358-20.099-52.088zm-246.66 6.84 94.18 55.666-94.285 55.666.105-111.33zm97.442 77.238c9.291 32.244 38.819 55.666 74.186 55.666 6.994 0 13.761-.938 20.204-2.63v21.045c-6.527 1.387-13.288 2.21-20.204 2.21-42.559 0-78.925-27.522-92.285-65.663zm-44.617 26.307c18.893 46.97 64.949 79.974 118.8 79.974 6.86 0 13.545-.545 20.099-1.578v20.52c-6.568.913-13.274 1.473-20.099 1.473-61.053 0-113.59-37.198-136.27-90.076zm159.21 19.467 94.18 55.561-94.285 55.666.105-111.23z" enable-background="new" fill="#fff"/><path d="m171.34 245.41 7.77 4.592-7.779 4.592.01-9.184zm-3.342 2.361c.57 0 1.127.046 1.675.122v1.701a10.546 10.546 0 0 0-11.476 6.458l-1.44-.85c1.87-4.362 6.205-7.43 11.24-7.43zm0 4.158c.57 0 1.128.068 1.667.182v1.728a6.443 6.443 0 0 0-1.667-.217 6.353 6.353 0 0 0-6.12 4.6l-1.493-.885c1.105-3.142 4.105-5.408 7.613-5.408zm9.809.773a12.174 12.174 0 0 1 2.422 7.3c0 2.774-.935 5.34-2.5 7.396l-1.45-.86a10.5 10.5 0 0 0 2.266-6.536c0-2.428-.817-4.662-2.188-6.441zm-3.62 2.144a8.017 8.017 0 0 1 1.884 5.156 8.046 8.046 0 0 1-1.962 5.26l-1.484-.876a6.322 6.322 0 0 0 1.753-4.384c0-1.66-.628-3.164-1.658-4.297zm-20.347.564 7.77 4.592-7.779 4.592.01-9.184zm8.038 6.372a6.348 6.348 0 0 0 6.12 4.592 6.54 6.54 0 0 0 1.667-.218v1.737a8.017 8.017 0 0 1-1.667.182c-3.51 0-6.51-2.27-7.613-5.417zm-3.68 2.17a10.546 10.546 0 0 0 9.8 6.597c.566 0 1.118-.045 1.658-.13v1.692c-.542.076-1.095.122-1.658.122-5.036 0-9.37-3.069-11.24-7.43zm13.134 1.605 7.769 4.584-7.778 4.592.01-9.176z" enable-background="new" fill="#fff"/><g transform="translate(7 16.812) scale(.9375)"><circle cx="112" cy="269" r="16" enable-background="new" opacity=".2"/><circle cx="112" cy="267.93" r="16" enable-background="new" fill="#87a556"/><path d="M112 251.93a16 16 0 0 0-16 16 16 16 0 0 0 .021.58 16 16 0 0 1 15.98-15.58 16 16 0 0 1 15.978 15.42 16 16 0 0 0 .022-.42 16 16 0 0 0-16-16z" enable-background="new" fill="#fff" opacity=".2"/><path d="m114.51 256.99 5.827 3.444-5.834 3.444.006-6.888zm-2.506 1.77c.427 0 .845.035 1.256.092v1.276a7.91 7.91 0 0 0-8.607 4.844l-1.08-.638c1.403-3.272 4.653-5.573 8.43-5.573zm0 3.12c.427 0 .846.05 1.25.136v1.296a4.835 4.835 0 0 0-1.25-.163 4.765 4.765 0 0 0-4.59 3.45l-1.12-.664c.828-2.356 3.079-4.056 5.71-4.056zm7.356.579a9.13 9.13 0 0 1 1.817 5.475c0 2.08-.702 4.005-1.875 5.547l-1.088-.645a7.875 7.875 0 0 0 1.7-4.902c0-1.82-.613-3.496-1.64-4.83zm-2.715 1.608a6.012 6.012 0 0 1-.058 7.812l-1.113-.657a4.742 4.742 0 0 0 1.315-3.288 4.767 4.767 0 0 0-1.244-3.223zm-15.26.423 5.827 3.444-5.833 3.444.006-6.888zm6.03 4.779a4.761 4.761 0 0 0 4.589 3.444 4.93 4.93 0 0 0 1.25-.163v1.302a6.005 6.005 0 0 1-1.25.137c-2.633 0-4.883-1.703-5.71-4.063l1.12-.657zm-2.761 1.627a7.91 7.91 0 0 0 7.35 4.948c.424 0 .838-.033 1.243-.097v1.269a8.974 8.974 0 0 1-1.243.091c-3.777 0-7.028-2.301-8.431-5.573l1.08-.638zm9.85 1.205 5.827 3.437-5.834 3.444.006-6.881z" enable-background="new" fill="#fff"/></g><path d="m65.671 264.7 3.885 2.296-3.89 2.296.005-4.592zM64 265.88a6.1 6.1 0 0 1 .838.061v.851a5.273 5.273 0 0 0-5.738 3.23l-.72-.426A6.125 6.125 0 0 1 64 265.88zm0 2.08c.285 0 .564.034.833.09v.864a3.223 3.223 0 0 0-.833-.108c-1.459 0-2.677.97-3.06 2.3l-.746-.442A4.046 4.046 0 0 1 64 267.96zm4.904.386a6.087 6.087 0 0 1 1.211 3.65 6.09 6.09 0 0 1-1.25 3.698l-.724-.43a5.25 5.25 0 0 0 1.132-3.268 5.26 5.26 0 0 0-1.093-3.22zm-1.81 1.072a4.008 4.008 0 0 1-.038 5.208l-.743-.438a3.16 3.16 0 0 0 .877-2.192c0-.83-.314-1.582-.829-2.148zm-10.173.282 3.884 2.296-3.889 2.296.005-4.592zm4.019 3.186a3.174 3.174 0 0 0 3.06 2.296c.288 0 .567-.039.833-.109v.868a3.96 3.96 0 0 1-.833.092 4.045 4.045 0 0 1-3.807-2.709l.747-.438zm-1.84 1.085a5.273 5.273 0 0 0 5.729 3.233v.847c-.271.038-.548.06-.83.06a6.125 6.125 0 0 1-5.62-3.715l.72-.425zm6.566.803 3.885 2.292-3.89 2.296.005-4.588z" enable-background="new" fill="#fff"/><path d="m25.17 270.89 2.72 1.607-2.723 1.607.003-3.214zm-1.17.826c.2 0 .395.016.587.043v.595a3.691 3.691 0 0 0-4.016 2.26l-.505-.297a4.287 4.287 0 0 1 3.934-2.6zm0 1.456c.2 0 .395.023.584.063v.605a2.256 2.256 0 0 0-.584-.076 2.224 2.224 0 0 0-2.142 1.61l-.522-.31A2.832 2.832 0 0 1 24 273.173zm3.434.27c.532.714.847 1.6.847 2.555 0 .971-.327 1.87-.875 2.589l-.507-.301a3.675 3.675 0 0 0 .793-2.288 3.68 3.68 0 0 0-.766-2.254zm-1.267.75a2.806 2.806 0 0 1-.028 3.646l-.52-.306a2.23 2.23 0 0 0 .034-3.039zm-7.122.198 2.72 1.607-2.723 1.607.003-3.214zm2.813 2.23A2.222 2.222 0 0 0 24 278.227a2.3 2.3 0 0 0 .584-.076v.608c-.189.04-.384.064-.584.064a2.831 2.831 0 0 1-2.664-1.896l.522-.307zm-1.288.76a3.69 3.69 0 0 0 4.01 2.263v.592a4.102 4.102 0 0 1-.58.043 4.287 4.287 0 0 1-3.934-2.6l.504-.298zm4.597.562 2.72 1.604-2.723 1.607.003-3.211z" enable-background="new" fill="#fff"/></g></svg>