<svg enable-background="new" version="1.0" viewBox="0 0 48 48" xmlns="http://www.w3.org/2000/svg"><defs><filter id="a" x="-.024" y="-.024" width="1.048" height="1.048" color-interpolation-filters="sRGB"><feGaussianBlur stdDeviation="4.48"/></filter></defs><g transform="translate(-144 -236)"><rect transform="matrix(0 -1 -1 0 0 0)" x="-256" y="-688" width="448" height="448" rx="36" ry="36" filter="url(#a)" opacity=".1"/><rect transform="matrix(0 -1 -1 0 0 0)" x="-256" y="-688" width="448" height="448" rx="36" ry="36" filter="url(#a)" opacity=".2"/><rect transform="matrix(0 -1 -1 0 0 0)" x="-283" y="-74" width="20" height="20" rx="2" ry="2" opacity=".2"/><rect transform="matrix(0 -1 -1 0 0 0)" x="-281" y="-188" width="40" height="40" rx="3" ry="3" opacity=".2"/><rect transform="matrix(0 -1 -1 0 0 0)" x="-283" y="-126" width="28" height="28" rx="3" ry="3" opacity=".2"/><rect transform="matrix(0 -1 -1 0 0 0)" x="-282" y="-74" width="20" height="20" rx="2" ry="2" fill="#1794d1"/><rect transform="matrix(0 -1 -1 0 0 0)" x="-280" y="-188" width="40" height="40" rx="3" ry="3" fill="#1794d1"/><rect transform="matrix(0 -1 -1 0 0 0)" x="-282" y="-126" width="28" height="28" rx="3" ry="3" fill="#1794d1"/><rect transform="matrix(0 -1 -1 0 0 0)" x="-284" y="-32" width="16" height="16" rx="2" ry="2" enable-background="new" fill="#1794d1"/><rect transform="matrix(0 -1 -1 0 0 0)" x="-252" y="-688" width="448" height="448" rx="36" ry="36" fill="#1794d1"/><path d="M276-196c-19.944 0-36 16.056-36 36v2c0-19.944 16.056-36 36-36h376c19.944 0 36 16.056 36 36v-2c0-19.944-16.056-36-36-36z" fill="#fff" opacity=".2"/><path d="M56 262c-1.108 0-2 .892-2 2v1c0-1.108.892-2 2-2h16c1.108 0 2 .892 2 2v-1c0-1.108-.892-2-2-2z" fill="#fff" opacity=".2"/><path d="M151 240c-1.662 0-3 1.338-3 3v1c0-1.662 1.338-3 3-3h34c1.662 0 3 1.338 3 3v-1c0-1.662-1.338-3-3-3z" fill="#fff" opacity=".2"/><path d="M101 254c-1.662 0-3 1.338-3 3v1c0-1.662 1.338-3 3-3h22c1.662 0 3 1.338 3 3v-1c0-1.662-1.338-3-3-3z" fill="#fff" opacity=".2"/></g><path d="M24 10c-1.246 3.055-1.998 5.054-3.385 8.019.85.902 1.895 1.952 3.59 3.138-1.823-.75-3.066-1.504-3.996-2.285-1.776 3.705-4.558 8.983-10.204 19.128 4.438-2.562 7.877-4.142 11.083-4.744a8.123 8.123 0 0 1-.21-1.9l.004-.143c.07-2.843 1.55-5.03 3.302-4.88 1.752.148 3.113 2.574 3.043 5.417a8.028 8.028 0 0 1-.18 1.527C30.22 33.897 33.623 35.472 38 38c-.863-1.59-1.634-3.022-2.37-4.386-1.158-.898-2.367-2.068-4.833-3.333 1.695.44 2.908.948 3.854 1.516C27.171 17.87 26.565 16.02 24.001 10z" fill="#fff" fill-rule="evenodd"/></svg>