<svg enable-background="new" version="1.0" viewBox="0 0 48 48" xmlns="http://www.w3.org/2000/svg"><defs><filter id="a" x="-.027" y="-.022" width="1.053" height="1.044" color-interpolation-filters="sRGB"><feGaussianBlur stdDeviation="4.08"/></filter></defs><g color="#000"><path d="M272-16h112v-64h128v-112H272zm256-176v448h112v-448zM400-64v320h112V-64zM272 0v256h112V0z" enable-background="new" filter="url(#a)" opacity=".1" transform="translate(-144 -236)"/><path d="M272-16h112v-64h128v-112H272zm256-176v448h112v-448zM400-64v320h112V-64zM272 0v256h112V0z" enable-background="new" filter="url(#a)" opacity=".2" transform="translate(-144 -236)"/><path d="M6 22h10v-8h12V4H6zM30 4v42h10V4zM18 16v30h10V16zM6 24v22h10V24z" enable-background="new" opacity=".2"/><path d="M6 21h10v-8h12V3H6zM30 3v42h10V3zM18 15v30h10V15zM6 23v22h10V23z" enable-background="new" fill="#00e676"/><path d="M6 3v1h22V3zm24 0v1h10V3zM18 15v1h10v-1zM6 23v1h10v-1z" enable-background="new" fill="#fff" opacity=".2"/></g></svg>