<svg version="1.0" viewBox="0 0 48 48" xmlns="http://www.w3.org/2000/svg"><path d="M8 4h12l4 4h16c2.216 0 4 1.784 4 4v29c0 2.216-1.784 4-4 4H8c-2.216 0-4-1.784-4-4V8c0-2.216 1.784-4 4-4z" fill="#48b9c7"/><path d="M8 4C5.784 4 4 5.784 4 8v33c0 2.216 1.784 4 4 4h32c2.216 0 4-1.784 4-4V12c0-2.216-1.784-4-4-4H24l-4-4zm0 7h32c1.662 0 3 1.338 3 3v25c0 1.662-1.338 3-3 3H8c-1.662 0-3-1.338-3-3V14c0-1.662 1.338-3 3-3z" fill-opacity=".25"/><path d="M8 10c-2.216 0-4 1.784-4 4v27c0 2.216 1.784 4 4 4h32c2.216 0 4-1.784 4-4V14c0-2.216-1.784-4-4-4zm0 1h32c1.662 0 3 1.338 3 3v25c0 1.662-1.338 3-3 3H8c-1.662 0-3-1.338-3-3V14c0-1.662 1.338-3 3-3z" fill-opacity=".25"/><path d="M24 17a6 6 0 0 0-6 6 6 6 0 0 0 1.76 4.24l-2.853 2.853a1.5 1.5 0 0 0-2.11 2.11L12 35v3l3-1.5 2.15-2.15a12.006 12.006 0 0 0 9.141 1.93 11.961 11.961 0 0 0 4.553-1.936L33 36.5l3 1.5v-3l-2.806-2.807a11.972 11.972 0 0 0 2.217-3.984 1.5 1.5 0 0 0-1.42-1.983 1.5 1.5 0 0 0-1.43 1.054 8.968 8.968 0 0 1-1.503 2.778l-2.819-2.819A6 6 0 0 0 30 23a6 6 0 0 0-6-6zm0 3a3 3 0 0 1 3 3 3 3 0 0 1-.879 2.121L24 23l-2.121 2.121a3 3 0 0 1-.88-2.121 3 3 0 0 1 3-3zm-1.339 8.839A6 6 0 0 0 24 29a6 6 0 0 0 1.342-.158l3.33 3.33a8.974 8.974 0 0 1-2.955 1.161 8.98 8.98 0 0 1-6.39-1.16z" fill="#121212" fill-opacity=".314"/><g fill="#fff"><path d="M12 37v-3l12-12 12 12v3l-3-1.5-9-9-9 9z"/><path d="M578.66 169.15a1 1 0 0 0-.953.703c-.675 2.076-2.42 3.619-4.563 4.035s-4.337-.359-5.74-2.03a1 1 0 1 0-1.533 1.284 8.002 8.002 0 0 0 13.736-2.67 1 1 0 0 0-.947-1.322z" color="#000" style="font-feature-settings:normal;font-variant-alternates:normal;font-variant-caps:normal;font-variant-ligatures:normal;font-variant-numeric:normal;font-variant-position:normal;isolation:auto;mix-blend-mode:normal;shape-padding:0;text-decoration-color:#000;text-decoration-line:none;text-decoration-style:solid;text-indent:0;text-orientation:mixed;text-transform:none;white-space:normal" transform="matrix(1.5 0 0 1.5 -834 -228.5)"/><path d="M24 16a6 6 0 0 0-6 6 6 6 0 0 0 6 6 6 6 0 0 0 6-6 6 6 0 0 0-6-6zm0 3a3 3 0 0 1 3 3 3 3 0 0 1-3 3 3 3 0 0 1-3-3 3 3 0 0 1 3-3z"/></g></svg>