<svg version="1.0" viewBox="0 0 48 48" xmlns="http://www.w3.org/2000/svg"><path d="M8 4h12l4 4h16c2.216 0 4 1.784 4 4v29c0 2.216-1.784 4-4 4H8c-2.216 0-4-1.784-4-4V8c0-2.216 1.784-4 4-4z" fill="#48b9c7"/><path d="M8 4C5.784 4 4 5.784 4 8v33c0 2.216 1.784 4 4 4h32c2.216 0 4-1.784 4-4V12c0-2.216-1.784-4-4-4H24l-4-4zm0 7h32c1.662 0 3 1.338 3 3v25c0 1.662-1.338 3-3 3H8c-1.662 0-3-1.338-3-3V14c0-1.662 1.338-3 3-3z" fill-opacity=".25"/><path d="M8 10c-2.216 0-4 1.784-4 4v27c0 2.216 1.784 4 4 4h32c2.216 0 4-1.784 4-4V14c0-2.216-1.784-4-4-4zm0 1h32c1.662 0 3 1.338 3 3v25c0 1.662-1.338 3-3 3H8c-1.662 0-3-1.338-3-3V14c0-1.662 1.338-3 3-3z" fill-opacity=".25"/><path d="M24 18.5a17.01 17.01 0 0 0-6.387 1.242A16.852 16.852 0 0 0 12 23.47l9.826 11.897h.003a2.995 2.995 0 0 0 4.333-.009h.006L36 23.468a16.964 16.964 0 0 0-4.11-3.03c-.034-.017-.07-.03-.103-.046a16.834 16.834 0 0 0-1.614-.724c-.206-.079-.416-.147-.624-.22a16.617 16.617 0 0 0-1.87-.53 17.384 17.384 0 0 0-1.195-.217c-.218-.032-.436-.07-.656-.093A16.934 16.934 0 0 0 24 18.5z" fill="#030303" fill-opacity=".318"/><path d="M24 17.515a17.01 17.01 0 0 0-6.387 1.242A16.862 16.862 0 0 0 12 22.484l9.826 11.897h.003a3 3 0 0 0 2.165.923 3 3 0 0 0 2.168-.932h.006L36 22.484a16.964 16.964 0 0 0-4.11-3.03c-.033-.017-.069-.03-.103-.046a16.822 16.822 0 0 0-1.614-.724c-.206-.08-.416-.148-.624-.22a16.926 16.926 0 0 0-1.87-.53 17.06 17.06 0 0 0-1.194-.217c-.22-.032-.437-.07-.657-.094A17.09 17.09 0 0 0 24 17.515z" fill="#88d1db"/><path d="M24 22.015a13.017 13.017 0 0 0-9.231 3.82l7.057 8.546h.003a3 3 0 0 0 2.165.923 3 3 0 0 0 2.168-.931h.006l7.06-8.54A13.017 13.017 0 0 0 24 22.014z" fill="#fff"/></svg>