<svg version="1.0" viewBox="0 0 48 48" xmlns="http://www.w3.org/2000/svg"><path d="M8 4h12l4 4h16c2.216 0 4 1.784 4 4v29c0 2.216-1.784 4-4 4H8c-2.216 0-4-1.784-4-4V8c0-2.216 1.784-4 4-4z" fill="#48b9c7"/><path d="M8 4C5.784 4 4 5.784 4 8v33c0 2.216 1.784 4 4 4h32c2.216 0 4-1.784 4-4V12c0-2.216-1.784-4-4-4H24l-4-4zm0 7h32c1.662 0 3 1.338 3 3v25c0 1.662-1.338 3-3 3H8c-1.662 0-3-1.338-3-3V14c0-1.662 1.338-3 3-3z" fill-opacity=".25"/><path d="M8 10c-2.216 0-4 1.784-4 4v27c0 2.216 1.784 4 4 4h32c2.216 0 4-1.784 4-4V14c0-2.216-1.784-4-4-4zm0 1h32c1.662 0 3 1.338 3 3v25c0 1.662-1.338 3-3 3H8c-1.662 0-3-1.338-3-3V14c0-1.662 1.338-3 3-3z" fill-opacity=".25"/><g fill-opacity=".314" color="#000"><path transform="translate(-190.99 -234)" d="M215 252a4 4 0 0 0-4 4 4 4 0 0 0 4 4 4 4 0 0 0 4-4 4 4 0 0 0-4-4z" style="text-decoration-line:none;text-indent:0;text-transform:none"/><path d="M182 265c9 0 8.99 6.5 8.99 6.5v1.5h-18v-1.5s.01-6.495 9.01-6.5z" style="text-decoration-line:none;text-indent:0;text-transform:none" transform="translate(-157.99 -236)"/></g><g fill="#fafafb" color="#000"><path transform="translate(-190.99 -235)" d="M215 252a4 4 0 0 0-4 4 4 4 0 0 0 4 4 4 4 0 0 0 4-4 4 4 0 0 0-4-4z" style="text-decoration-line:none;text-indent:0;text-transform:none"/><path d="M182 265c9 0 8.99 6.5 8.99 6.5v1.5h-18v-1.5s.01-6.495 9.01-6.5z" style="text-decoration-line:none;text-indent:0;text-transform:none" transform="translate(-157.99 -237)"/></g></svg>