<svg version="1.0" viewBox="0 0 48 48" xmlns="http://www.w3.org/2000/svg"><path d="M8 4h12l4 4h16c2.216 0 4 1.784 4 4v29c0 2.216-1.784 4-4 4H8c-2.216 0-4-1.784-4-4V8c0-2.216 1.784-4 4-4z" fill="#48b9c7"/><path d="M8 4C5.784 4 4 5.784 4 8v33c0 2.216 1.784 4 4 4h32c2.216 0 4-1.784 4-4V12c0-2.216-1.784-4-4-4H24l-4-4zm0 7h32c1.662 0 3 1.338 3 3v25c0 1.662-1.338 3-3 3H8c-1.662 0-3-1.338-3-3V14c0-1.662 1.338-3 3-3z" fill-opacity=".25"/><path d="M8 10c-2.216 0-4 1.784-4 4v27c0 2.216 1.784 4 4 4h32c2.216 0 4-1.784 4-4V14c0-2.216-1.784-4-4-4zm0 1h32c1.662 0 3 1.338 3 3v25c0 1.662-1.338 3-3 3H8c-1.662 0-3-1.338-3-3V14c0-1.662 1.338-3 3-3z" fill-opacity=".25"/><g fill-opacity=".314"><path d="M27 16.01v9h3.75L24 35.51l-6.75-10.5H21v-9z"/><path d="M16.5 37.01a1.5 1.5 0 0 0 0 3h15a1.5 1.5 0 0 0 0-3z"/></g><g fill="#fff"><path d="M27 15.01v9h3.75L24 34.51l-6.75-10.5H21v-9z"/><path d="M16.5 36.01a1.5 1.5 0 0 0 0 3h15a1.5 1.5 0 0 0 0-3z"/></g></svg>