<svg version="1.0" viewBox="0 0 48 48" xmlns="http://www.w3.org/2000/svg"><path d="M8 4h12l4 4h16c2.216 0 4 1.784 4 4v29c0 2.216-1.784 4-4 4H8c-2.216 0-4-1.784-4-4V8c0-2.216 1.784-4 4-4z" fill="#48b9c7"/><path d="M8 4C5.784 4 4 5.784 4 8v33c0 2.216 1.784 4 4 4h32c2.216 0 4-1.784 4-4V12c0-2.216-1.784-4-4-4H24l-4-4zm0 7h32c1.662 0 3 1.338 3 3v25c0 1.662-1.338 3-3 3H8c-1.662 0-3-1.338-3-3V14c0-1.662 1.338-3 3-3z" fill-opacity=".25"/><path d="M8 10c-2.216 0-4 1.784-4 4v27c0 2.216 1.784 4 4 4h32c2.216 0 4-1.784 4-4V14c0-2.216-1.784-4-4-4zm0 1h32c1.662 0 3 1.338 3 3v25c0 1.662-1.338 3-3 3H8c-1.662 0-3-1.338-3-3V14c0-1.662 1.338-3 3-3z" fill-opacity=".25"/><path d="M18 16.5a3 3 0 0 0-3 3V36a3 3 0 0 0 3 3h12c1.636 0 2.96-1.31 2.994-2.938.016-1.641.008-8.135 0-12.196a2.997 2.997 0 0 0-.82-2.004l-4.453-4.454a3 3 0 0 0-2.15-.908z" fill-opacity=".314"/><path d="M18 15a3 3 0 0 0-3 3l-.003 17a3 3 0 0 0 3 3h12c1.636 0 2.96-1.31 2.994-2.938.016-1.641.007-8.135 0-12.196a2.997 2.997 0 0 0-.82-2.004l-4.448-4.95-.003-.004A3 3 0 0 0 25.57 15z" fill="#fefeff"/></svg>