<svg version="1.0" viewBox="0 0 48 48" xmlns="http://www.w3.org/2000/svg"><g transform="translate(-156 64)"><rect x="159" y="-53" width="42" height="32" ry="3" fill="#ffce51"/><path d="M162-53c-1.662 0-3 1.338-3 3v26c0 1.662 1.338 3 3 3h36c1.662 0 3-1.338 3-3v-26c0-1.662-1.338-3-3-3zm0 1h36c1.108 0 2 .892 2 2v26c0 1.108-.892 2-2 2h-36c-1.108 0-2-.892-2-2v-26c0-1.108.892-2 2-2z" fill-opacity=".5"/><path d="M163-51c-1.108 0-2 .892-2 2v15c0 1.108.892 2 2 2h7v4c0 1.108.892 2 2 2h16c1.108 0 2-.892 2-2v-4h7c1.108 0 2-.892 2-2v-15c0-1.108-.892-2-2-2z" fill-opacity=".5"/><path d="M162-52c-1.108 0-2 .892-2 2v17c0 1.108.892 2 2 2h8v-1h-7c-1.108 0-2-.892-2-2v-15c0-1.108.892-2 2-2h34c1.108 0 2 .892 2 2v15c0 1.108-.892 2-2 2h-7v1h8c1.108 0 2-.892 2-2v-17c0-1.108-.892-2-2-2z" fill="#fbfbfb" fill-opacity=".5"/><path d="M170-28v1c0 1.108.892 2 2 2h16c1.108 0 2-.892 2-2v-1c0 1.108-.892 2-2 2h-16c-1.108 0-2-.892-2-2z" fill="#fbfbfb" fill-opacity=".5"/><g stroke-linecap="square" stroke-width="2"><path d="M167-61c-1.662 0-3 1.338-3 3v26h6v4c0 1.108.892 2 2 2h16c1.108 0 2-.892 2-2v-4h6v-26c0-1.662-1.338-3-3-3z" fill="#ededed"/><path d="M167-61c-1.662 0-3 1.338-3 3v26h6v4c0 1.108.892 2 2 2h16c1.108 0 2-.892 2-2v-4h6v-26c0-1.662-1.338-3-3-3zm0 1h26c1.108 0 2 .892 2 2v24h-6v4c0 1.108-.892 2-2 2h-14c-1.108 0-2-.892-2-2v-4h-6v-24c0-1.108.892-2 2-2z" fill-opacity=".3"/></g><path d="m173.25-43.5 6.75 8.25 6.75-8.25c-.005.006-2.75 0-3.75 0V-51h-6v7.5z" color="#000" fill="#393634" opacity=".8"/></g></svg>