<svg version="1.0" viewBox="0 0 48 48" xmlns="http://www.w3.org/2000/svg"><g stroke-linecap="square" transform="translate(-156 -236)"><rect x="159" y="247" width="42" height="32" ry="3" fill="#ffce51"/><path d="M162 247c-1.662 0-3 1.338-3 3v26c0 1.662 1.338 3 3 3h36c1.662 0 3-1.338 3-3v-26c0-1.662-1.338-3-3-3zm0 1h36c1.108 0 2 .892 2 2v26c0 1.108-.892 2-2 2h-36c-1.108 0-2-.892-2-2v-26c0-1.108.892-2 2-2z" fill-opacity=".5"/><path d="M163 249c-1.108 0-2 .892-2 2v15c0 1.108.892 2 2 2h7v4c0 1.108.892 2 2 2h16c1.108 0 2-.892 2-2v-4h7c1.108 0 2-.892 2-2v-15c0-1.108-.892-2-2-2z" fill-opacity=".5"/><path d="M162 248c-1.108 0-2 .892-2 2v17c0 1.108.892 2 2 2h8v-1h-7c-1.108 0-2-.892-2-2v-15c0-1.108.892-2 2-2h34c1.108 0 2 .892 2 2v15c0 1.108-.892 2-2 2h-7v1h8c1.108 0 2-.892 2-2v-17c0-1.108-.892-2-2-2z" fill="#fbfbfb" fill-opacity=".5"/><path d="M170 272v1c0 1.108.892 2 2 2h16c1.108 0 2-.892 2-2v-1c0 1.108-.892 2-2 2h-16c-1.108 0-2-.892-2-2z" fill="#fbfbfb" fill-opacity=".5"/></g></svg>