<svg version="1.0" viewBox="0 0 48 48" xmlns="http://www.w3.org/2000/svg"><path d="M11 3h26c1.662 0 3.134 1.343 3 3l-3 37c-8 3-18 3-26 0L8 6c-.134-1.657 1.338-3 3-3z" fill="#898989"/><path d="M11 3C9.338 3 7.866 4.343 8 6l3 37c8 3 18 3 26 0l3-37c.134-1.657-1.338-3-3-3zm0 1h26c1.108 0 2 .892 2 2v1l-3 33c-8 3-16 3-24 0L9 7V6c0-1.108.892-2 2-2z" fill-opacity=".5"/><g stroke-width="1.333"><path d="m16.625 16.875-3.75-3 3.75-5.25 2.25 2.25 5.25-4.5 7.5 3 3 5.25-6 3 .75 6-5.25 2.25-2.25-3.75-6.75 1.5-2.25-3.75z" fill="#ededed"/><path d="M18.875 10.875 23 15l2.625 4.125" fill="none" stroke="#898989" stroke-width="1"/></g><g stroke-width="1.333"><path d="m21.543 22.32 2.39-4.165 5.763 2.903-1.88 2.568 5.25 4.5-1.817 7.87-4.73 3.768-3.882-5.47-5.815 1.658-3.026-4.844 3.361-2.797-2.514-6.441 3.361-2.797z" fill="#ededed"/><path d="m27.816 23.626-3.445 4.707-3.675 3.225" fill="none" stroke="#898989" stroke-width="1"/></g></svg>