<svg version="1.0" viewBox="0 0 16 16" xmlns="http://www.w3.org/2000/svg"><g transform="translate(-16 -268)"><path d="M18.5 273c-.831 0-1.5.669-1.5 1.5v1.5c0 3.878 3.122 7 7 7s7-3.122 7-7v-1.5c0-.831-.669-1.5-1.5-1.5s-1.5.669-1.5 1.5v1.5c0 2.216-1.784 4-4 4s-4-1.784-4-4v-1.5c0-.831-.669-1.5-1.5-1.5z" fill="#3c3c3c"/><rect x="22" y="280" width="4" height="4" ry="1" fill="#3c3c3c"/><path d="M18.5 274c-.277 0-.5.223-.5.5v1.5c0 3.324 2.676 6 6 6s6-2.676 6-6v-1.5a.499.499 0 1 0-1 0v1.5c0 2.77-2.23 5-5 5s-5-2.23-5-5v-1.5c0-.277-.223-.5-.5-.5z" fill="#838383"/><rect x="21" y="268" width="6" height="11" ry="3" fill="#909090"/><rect x="22" y="269" width="4" height="9" ry="2" fill="#2e2e2e"/><rect x="23" y="281" width="2" height="2" ry="1" fill="#838383"/></g></svg>