<svg version="1.0" viewBox="0 0 16 16" xmlns="http://www.w3.org/2000/svg"><g transform="translate(-16 -268)"><rect x="18" y="268" width="12" height="16" ry="2" fill="#adadad"/><path d="M20 268c-1.108 0-2 .892-2 2v12c0 1.108.892 2 2 2h8c1.108 0 2-.892 2-2v-12c0-1.108-.892-2-2-2zm0 1h8c.554 0 1 .446 1 1v3c0 .554-.446 1-1 1h-8c-.554 0-1-.446-1-1v-3c0-.554.446-1 1-1z" fill-opacity=".502"/><circle cx="24" cy="279" r="4" fill="#faa41a"/><rect x="23" y="278" width="2" height="2" ry="1" fill="#333"/><path d="M24 275c-2.216 0-4 1.784-4 4s1.784 4 4 4 4-1.784 4-4-1.784-4-4-4zm0 1c1.662 0 3 1.338 3 3s-1.338 3-3 3-3-1.338-3-3 1.338-3 3-3z" fill="#333"/></g></svg>