<svg version="1.0" viewBox="0 0 16 16" xmlns="http://www.w3.org/2000/svg"><g transform="translate(-16 -268)"><rect x="16" y="268" width="16" height="16" ry="2" fill="#767676"/><rect x="17" y="269" width="14" height="14" ry="1.5" fill="#ececec"/><g fill="#474341"><path d="m25 270-7 6 7 6zm-5 3c0-.554-.446-1-1-1s-1 .446-1 1v6c0 .554.446 1 1 1s1-.446 1-1z"/><path d="m28.75 270.5-1.715 1.03c.654 1.088.965 3.2.965 4.47 0 1.27-.31 3.382-.965 4.47l1.715 1.03c.84-1.4 1.25-3.867 1.25-5.5s-.41-4.1-1.25-5.5z"/></g></g></svg>