<svg enable-background="new" version="1.0" viewBox="0 0 16 16" xmlns="http://www.w3.org/2000/svg"><defs><filter id="b" x="0" y="0" width="1" height="1" color-interpolation-filters="sRGB"><feBlend in2="BackgroundImage" mode="darken"/></filter><filter id="a" x="0" y="0" width="1" height="1" color-interpolation-filters="sRGB"><feBlend in2="BackgroundImage" mode="darken"/></filter><filter id="c" x="0" y="0" width="1" height="1" color-interpolation-filters="sRGB"><feBlend in2="BackgroundImage" mode="darken"/></filter></defs><g transform="translate(-16 -268)"><rect x="16" y="268" width="16" height="16" ry="2" enable-background="new" fill="#767676"/><rect x="17" y="269" width="14" height="10" ry="1.5" enable-background="new" fill="#ececec"/><g transform="translate(-247 681)" fill="#474341" filter="url(#a)"><path d="M270.07-410.95c-.208.008-.441.05-.57.201l-1.5 1.75h-2c-.554 0-1 .446-1 1v2c0 .554.446 1 1 1h2l1.5 1.75c.414.483 1.5.25 1.5-.75v-6c0-.687-.472-.97-.93-.951z"/><path d="m271.75-409.38 2-.625c1 2 1 4 0 6l-2-.625c1-2 1-2.75 0-4.75z" filter="url(#b)"/><path d="m274.75-409.38 2-.625c1 2 1 4 0 6l-2-.625c1-2 1-2.75 0-4.75z" filter="url(#c)"/></g><circle cx="19.5" cy="281.5" r="1.5" enable-background="new" fill="#73c48f"/><circle cx="24" cy="281.5" r="1.5" enable-background="new" fill="#ff793e"/><circle cx="28.5" cy="281.5" r="1.5" enable-background="new" fill="#67d8e6"/></g></svg>