<svg version="1.0" viewBox="0 0 16 16" xmlns="http://www.w3.org/2000/svg"><g transform="translate(-16 -268)"><rect x="228" y="234" width="56" height="44" ry="4.5" fill="#6f6f6f"/><rect x="247" y="226" width="18" height="12.5" ry="4" fill="#6f6f6f"/><rect x="229" y="235" width="54" height="40" ry="4" fill="#424242"/><rect x="248" y="227" width="16" height="11.5" ry="3.5" fill="#acacac"/><rect x="243" y="242" width="26" height="26" ry="13" fill="#dcdcdc"/><rect x="245" y="244" width="22" height="22" ry="10.993" fill="#48b9c7"/><circle cx="256" cy="255" r="8" fill="#fff" fill-opacity=".251"/><path d="M261.66 249.34a8 8 0 0 1 2.07 7.727 8 8 0 0 1-5.656 5.657 8 8 0 0 1-7.728-2.07l5.657-5.657z" fill="#fff" fill-opacity=".251"/><path d="M250.34 249.34a8 8 0 0 0-2.07 7.727 8 8 0 0 0 5.656 5.657 8 8 0 0 0 7.728-2.07l-5.657-5.657z" fill="#fff" fill-opacity=".251"/><rect x="249" y="228" width="14" height="6" ry="3" fill="#ffce51"/><path d="M233 235c-2.216 0-4 1.784-4 4v1h54v-1c0-2.216-1.784-4-4-4zm-4 35v1c0 2.216 1.784 4 4 4h46c2.216 0 4-1.784 4-4v-1z" fill="#ececec"/><rect x="159" y="247" width="42" height="32" ry="3" fill="#6f6f6f"/><rect x="173" y="240" width="14" height="10" ry="3" fill="#6f6f6f"/><rect x="174" y="241" width="12" height="9.5" ry="2.5" fill="#acacac"/><path d="M162.5 248a2.495 2.495 0 0 0-2.5 2.5v.5h40v-.5c0-1.385-1.115-2.5-2.5-2.5zm-2.5 25v.5c0 1.385 1.115 2.5 2.5 2.5h35c1.385 0 2.5-1.115 2.5-2.5v-.5z" fill="#ececec"/><rect x="175" y="242" width="10" height="4" ry="2" fill="#ffce51"/><path fill="#424242" d="M160 251h40v22h-40z"/><circle cx="180" cy="262" r="9" fill="#dcdcdc"/><circle cx="180" cy="262" r="7" fill="#48b9c7"/><circle cx="180" cy="262" r="5" fill="#fff" fill-opacity=".251"/><path d="M183.54 258.46a5 5 0 0 1 1.294 4.83 5 5 0 0 1-3.535 3.535 5 5 0 0 1-4.83-1.294l3.535-3.535z" fill="#fff" fill-opacity=".251"/><path d="M176.46 258.46a5 5 0 0 0-1.294 4.83 5 5 0 0 0 3.535 3.535 5 5 0 0 0 4.83-1.294l-3.535-3.535z" fill="#fff" fill-opacity=".251"/><rect x="102" y="259" width="28" height="23" ry="2" fill="#6f6f6f"/><rect x="111" y="255" width="10" height="6.5" ry="2" fill="#6f6f6f"/><rect x="112" y="256" width="8" height="8" ry="1.5" fill="#acacac"/><rect x="113" y="257" width="6" height="2" ry="1" fill="#ffce51"/><path d="M104.5 260c-.831 0-1.5.669-1.5 1.5v1.5h26v-1.5c0-.831-.669-1.5-1.5-1.5zm-1.5 17v1.5c0 .831.669 1.5 1.5 1.5h23c.831 0 1.5-.669 1.5-1.5V277z" fill="#ececec"/><rect x="103" y="263" width="26" height="14" ry="0" fill="#424242"/><circle cx="116" cy="270" r="6" fill="#ececec"/><circle cx="116" cy="270" r="4" fill="#48b9c7"/><circle cx="116" cy="270" r="3" fill="#fff" fill-opacity=".251"/><path d="M118.12 267.88a3 3 0 0 1 .776 2.898 3 3 0 0 1-2.12 2.121 3 3 0 0 1-2.899-.776L116 270z" fill="#fff" fill-opacity=".251"/><path d="M118.12 272.12a3 3 0 0 1-4.243 0 3 3 0 0 1 0-4.243L116 270z" fill="#fff" fill-opacity=".251"/><rect x="56" y="266" width="24" height="16" ry="1.5" fill="#6f6f6f"/><rect x="64" y="262" width="8" height="8" ry="1.5" fill="#6f6f6f"/><rect x="65" y="263" width="6" height="6" ry="1" fill="#acacac"/><rect x="66" y="264" width="4" height="2" ry="1" fill="#ffce51"/><rect x="57" y="269" width="22" height="10" ry="0" fill="#424242"/><path d="M58 267c-.554 0-1 .446-1 1v1h22v-1c0-.554-.446-1-1-1zm-1 12v1c0 .554.446 1 1 1h20c.554 0 1-.446 1-1v-1z" fill="#ececec"/><circle cx="68" cy="274" r="4" fill="#ececec"/><circle cx="68" cy="274" r="3" fill="#48b9c7"/><circle cx="68" cy="274" r="2" fill="#fff" fill-opacity=".251"/><rect x="67" y="274" width="2" height="1" ry=".5" fill="#fff" fill-opacity=".251"/><rect x="16" y="272" width="16" height="10" ry="1.5" fill="#6f6f6f"/><rect x="21" y="269" width="6" height="5" ry="1.5" fill="#6f6f6f"/><rect x="22" y="270" width="4" height="4" ry="1" fill="#acacac"/><rect x="23" y="271" width="2" height="2" ry=".5" fill="#ffce51"/><path d="M18 273c-.554 0-1 .446-1 1h14c0-.554-.446-1-1-1zm-1 7c0 .554.446 1 1 1h12c.554 0 1-.446 1-1z" fill="#ececec"/><rect x="17" y="274" width="14" height="6" ry="0" fill="#424242"/><circle cx="24" cy="277" r="3" fill="#ececec"/><circle cx="24" cy="277" r="2" fill="#48b9c7"/><circle cx="24" cy="277" r="1" fill="#ececec" fill-opacity=".251"/><rect x="358" y="168" width="36" height="26" ry="8" fill="#6f6f6f"/><rect x="359" y="169" width="34" height="24" ry="7.5" fill="#acacac"/><rect x="362" y="172" width="28" height="9" ry="4.475" fill="#ffce51"/><rect x="320" y="184" width="112" height="88" ry="8" fill="#6f6f6f"/><path d="M328.5 185a7.484 7.484 0 0 0-7.5 7.5v2.5h110v-2.5c0-4.155-3.345-7.5-7.5-7.5zm-7.5 74v1.5c0 4.155 3.345 7.5 7.5 7.5h95c4.155 0 7.5-3.345 7.5-7.5V259z" fill="#ececec"/><path fill="#424242" d="M321 195h110v64H321z"/><circle cx="376" cy="227" r="28" fill="#ececec"/><circle cx="376" cy="227" r="24" fill="#48b9c7"/><circle cx="376" cy="227" r="16" fill="#fff" fill-opacity=".251"/><path d="M387.31 238.31a16 16 0 0 1-22.627 0 16 16 0 0 1 0-22.627l11.314 11.314z" fill="#fff" fill-opacity=".251"/><path d="M387.31 215.69a16 16 0 0 1 4.141 15.455 16 16 0 0 1-11.314 11.314 16 16 0 0 1-15.455-4.141l11.314-11.314z" fill="#fff" fill-opacity=".251"/><rect x="556" y="52" width="72" height="52" ry="16" fill="#6f6f6f"/><rect x="557" y="53" width="70" height="50" ry="15.5" fill="#acacac"/><rect x="564" y="60" width="56" height="18" ry="8.951" fill="#ffce51"/><rect x="480" y="84" width="224" height="176" ry="16" fill="#6f6f6f"/><path d="M496 85c-8.31 0-15 6.69-15 15v5h222v-5c0-8.31-6.69-15-15-15zm-15 152v3c0 8.31 6.69 15 15 15h192c8.31 0 15-6.69 15-15v-3z" fill="#ececec"/><rect x="481" y="105" width="222" height="132" ry="0" fill="#424242"/><circle cx="592" cy="171" r="56" fill="#ececec"/><circle cx="592" cy="171" r="48" fill="#48b9c7"/><circle cx="592" cy="171" r="32" fill="#fff" fill-opacity=".251"/><path d="M614.63 193.63a32 32 0 0 1-45.255 0 32 32 0 0 1 0-45.255l22.627 22.627z" fill="#fff" fill-opacity=".251"/><path d="M614.63 148.37a32 32 0 0 1 8.282 30.91 32 32 0 0 1-22.627 22.627 32 32 0 0 1-30.91-8.282l22.627-22.627z" fill="#fff" fill-opacity=".251"/></g></svg>