<svg version="1.0" viewBox="0 0 16 16" xmlns="http://www.w3.org/2000/svg"><g transform="translate(-16 -268)"><rect x="16" y="272" width="16" height="10" ry="1.5" fill="#6f6f6f"/><rect x="21" y="269" width="6" height="5" ry="1.5" fill="#6f6f6f"/><rect x="22" y="270" width="4" height="4" ry="1" fill="#acacac"/><rect x="23" y="271" width="2" height="2" ry=".5" fill="#ffce51"/><path d="M18 273c-.554 0-1 .446-1 1h14c0-.554-.446-1-1-1zm-1 7c0 .554.446 1 1 1h12c.554 0 1-.446 1-1z" fill="#ececec"/><rect x="17" y="274" width="14" height="6" ry="0" fill="#424242"/><circle cx="24" cy="277" r="3" fill="#ececec"/><circle cx="24" cy="277" r="2" fill="#48b9c7"/><circle cx="24" cy="277" r="1" fill="#ececec" fill-opacity=".251"/></g></svg>