<svg version="1.0" viewBox="0 0 16 16" xmlns="http://www.w3.org/2000/svg"><g transform="translate(-16 -268)"><circle transform="scale(1 -1)" cx="28" cy="-277.33" r="1.333" opacity=".2"/><rect transform="matrix(0 -1 -1 0 0 0)" x="-284" y="-32" width="16" height="16" rx="8" ry="8" fill="#e6e6e6"/><circle cx="24" cy="276" r="5" fill="#ac1800"/><circle transform="scale(1 -1)" cx="24" cy="-276" r="4" fill="#cf3b00"/><g fill="#fff"><path d="M25.414 274.59a2 2 0 0 0-2.828 0L24 276.004z" opacity=".2"/><path d="M25.414 274.59a2 2 0 0 1 0 2.828L24 276.004z" opacity=".4"/><path d="M22.586 277.418a2 2 0 0 1 0-2.828L24 276.004z" opacity=".4"/><path d="M22.586 277.418a2 2 0 0 0 2.828 0L24 276.004z" opacity=".6"/></g></g><path d="M8 0a8 8 0 0 0-8 8 8 8 0 0 0 8 8 8 8 0 0 0 8-8 8 8 0 0 0-8-8zm0 1c3.878 0 7 3.122 7 7s-3.122 7-7 7-7-3.122-7-7 3.122-7 7-7z" fill-opacity=".5"/></svg>