<svg version="1.0" viewBox="0 0 16 16" xmlns="http://www.w3.org/2000/svg"><g transform="translate(-16 932)"><rect x="17" y="-931" width="14" height="11" ry="2" fill="#bfbfbf"/><rect x="19" y="-929" width="10" height="7" ry="0" fill="#222"/><path d="M19-931c-1.108 0-2 .892-2 2v7c0 1.108.892 2 2 2h10c1.108 0 2-.892 2-2v-7c0-1.108-.892-2-2-2zm0 1h10c.554 0 1 .446 1 1v7c0 .554-.446 1-1 1H19c-.554 0-1-.446-1-1v-7c0-.554.446-1 1-1z" fill-opacity=".5"/><rect x="16" y="-921" width="16" height="4" ry="1" fill="#bfbfbf"/><path d="M17-921c-.554 0-1 .446-1 1v2c0 .554.446 1 1 1h14c.554 0 1-.446 1-1v-2c0-.554-.446-1-1-1zm0 1h14v2H17z" fill-opacity=".502"/></g></svg>