<svg version="1.0" viewBox="0 0 16 16" xmlns="http://www.w3.org/2000/svg"><g transform="translate(-16 932)"><rect x="17" y="-931" width="14" height="14" ry="2" fill="#5b5b5b"/><rect x="18" y="-930" width="12" height="12" ry="1.5" fill="#acacac"/><path d="M24-927a2 2 0 0 0-2 2 2 2 0 0 0 2 2 2 2 0 0 0 2-2 2 2 0 0 0-2-2zm0 1a1 1 0 0 1 1 1 1 1 0 0 1-1 1 1 1 0 0 1-1-1 1 1 0 0 1 1-1z" fill="#444"/><g fill="#444"><rect x="23" y="-922" width="2" height="1" ry="0"/><path d="M23-920h2v1h-2z"/></g><path fill="#444" d="m26.997-928.912 1.415 1.414-1.415 1.414-1.414-1.414z"/><g transform="rotate(135 24.075 -924.67)" fill="#444"><rect x="23" y="-922" width="2.5" height="1" ry="0"/><path d="M23-920h2.5v1H23z"/></g></g></svg>