<svg version="1.0" viewBox="0 0 16 16" xmlns="http://www.w3.org/2000/svg"><g transform="translate(-16 -268)"><rect x="18" y="269" width="12" height="14" ry="1" fill="#98989d"/><path d="M19 269c-.554 0-1 .446-1 1v2h12v-2c0-.554-.446-1-1-1z" fill="#bcbcc0"/><circle cx="20.5" cy="271" r=".625" fill="#ffca40"/><path d="M20.375 274.12c4.068-3.151 6.137 1.866 3 2.25-3.832.47-2.375 5-.25 3s4 1 4 1" fill="none" stroke="#000"/><path d="M19 269c-.554 0-1 .446-1 1v12c0 .554.446 1 1 1h10c.554 0 1-.446 1-1v-12c0-.554-.446-1-1-1zm0 1h10v12H19z" fill-opacity=".5"/></g></svg>