<svg version="1.0" viewBox="0 0 16 16" xmlns="http://www.w3.org/2000/svg"><g transform="translate(-16 -268)"><rect x="19" y="268" width="10" height="16" ry="5" fill="#98989d"/><path d="M24 268c-2.77 0-5 2.23-5 5v6c0 2.77 2.23 5 5 5s5-2.23 5-5v-6c0-2.77-2.23-5-5-5zm0 1c2.216 0 4 1.784 4 4v6c0 2.216-1.784 4-4 4s-4-1.784-4-4v-6c0-2.216 1.784-4 4-4z" fill-opacity=".5"/><rect x="22" y="270" width="4" height="7" ry="2" fill="#fff" fill-opacity=".4"/><path d="M24 268v16c2.77 0 5-2.23 5-5v-6c0-2.77-2.23-5-5-5z" fill="#fff" fill-opacity=".2"/><rect x="23" y="271" width="2" height="5" ry="1" fill="#343434"/></g></svg>