<svg version="1.0" viewBox="0 0 16 16" xmlns="http://www.w3.org/2000/svg"><g stroke-linecap="square" stroke-opacity=".5" transform="translate(-16 -268)"><rect x="16" y="270" width="15" height="12" ry="2" fill="#7b736e"/><path d="M18 270c-1.108 0-2 .892-2 2v8c0 1.108.892 2 2 2h11c1.108 0 2-.892 2-2v-8c0-1.108-.892-2-2-2zm0 1h11c.554 0 1 .446 1 1v8c0 .554-.446 1-1 1H18c-.554 0-1-.446-1-1v-8c0-.554.446-1 1-1z" fill-opacity=".5"/><rect x="18" y="272" width="2" height="2" ry=".5" fill="#ededed"/><rect x="18" y="275" width="2" height="2" ry=".5" fill="#ededed"/><rect x="20" y="278" width="7" height="2" ry=".5" fill="#ededed"/><rect x="21" y="272" width="2" height="2" ry=".5" fill="#ededed"/><rect x="21" y="275" width="2" height="2" ry=".5" fill="#ededed"/><rect x="24" y="272" width="2" height="2" ry=".5" fill="#ededed"/><rect x="24" y="275" width="2" height="2" ry=".5" fill="#ededed"/><rect x="27" y="272" width="2" height="2" ry=".5" fill="#ededed"/><rect x="27" y="275" width="2" height="2" ry=".5" fill="#ededed"/></g></svg>