<svg version="1.0" viewBox="0 0 16 16" xmlns="http://www.w3.org/2000/svg"><g transform="translate(-16 -268)"><rect x="16" y="274" width="6" height="10" ry="3" fill="#9f9792"/><rect x="26" y="273" width="6" height="11" ry="3" fill="#9f9792"/><rect x="16" y="269" width="16" height="10" ry="3" fill="#9f9792"/><rect x="20" y="271" width="2" height="6" ry="0" fill="#fff"/><rect transform="matrix(0 1 1 0 0 0)" x="273" y="18" width="2" height="6" ry="0" fill="#fff"/><path d="M19 269.5a2.495 2.495 0 0 0-2.5 2.5v9c0 1.385 1.115 2.5 2.5 2.5s2.5-1.115 2.5-2.5v-2.5h5v2.5c0 1.385 1.115 2.5 2.5 2.5s2.5-1.115 2.5-2.5v-9c0-1.385-1.115-2.5-2.5-2.5z" fill="none" stroke="#000" stroke-linecap="square" stroke-opacity=".5"/><path d="M27.5 270.5a1 1 0 0 0-1 1 1 1 0 0 0 1 1 1 1 0 0 0 1-1 1 1 0 0 0-1-1z" fill="#ffce51" stroke="#7f6728" stroke-linecap="round"/><path d="M25.5 273.5a1 1 0 0 0-1 1 1 1 0 0 0 1 1 1 1 0 0 0 1-1 1 1 0 0 0-1-1z" fill="#94a6ff" stroke="#4a537f" stroke-linecap="round"/><path d="M29.5 273.5a1 1 0 0 0-1 1 1 1 0 0 0 1 1 1 1 0 0 0 1-1 1 1 0 0 0-1-1z" fill="#ff793e" stroke="#7f3c1f" stroke-linecap="round"/><path d="M27.5 276a1 1 0 0 0-1 1 1 1 0 0 0 1 1 1 1 0 0 0 1-1 1 1 0 0 0-1-1z" fill="#73c48f" stroke="#396247" stroke-linecap="round"/><rect x="25" y="274" width="1" height="1" ry="0" fill="#94a6ff"/><path fill="#ffce51" d="M27 271h1v1h-1z"/><path fill="#ff793e" d="M29 274h1v1h-1z"/><path fill="#73c48f" d="M27 276.5h1v1h-1z"/></g></svg>