<svg version="1.0" viewBox="0 0 16 16" xmlns="http://www.w3.org/2000/svg" xmlns:xlink="http://www.w3.org/1999/xlink"><g transform="translate(-16 -268)"><g id="a"><path d="M116 253c-8.31 0-15 6.69-15 15v1c0 8.31 6.69 15 15 15s15-6.69 15-15v-1c0-8.31-6.69-15-15-15z" fill="#cdcdcd"/><path d="M116 253c-8.31 0-15 6.69-15 15v1c0 8.31 6.69 15 15 15s15-6.69 15-15v-1c0-8.31-6.69-15-15-15zm0 1a14 14 0 0 1 14 14 14 14 0 0 1-14 14 14 14 0 0 1-14-14 14 14 0 0 1 14-14z" fill-opacity=".5"/><path d="M180 238c-12.188 0-22 9.812-22 22v2c0 12.188 9.812 22 22 22s22-9.812 22-22v-2c0-12.188-9.812-22-22-22z" fill="#cdcdcd"/><path d="M180 238c-12.188 0-22 9.812-22 22v2c0 12.188 9.812 22 22 22s22-9.812 22-22v-2c0-12.188-9.812-22-22-22zm0 1a21 21 0 0 1 21 21 21 21 0 0 1-21 21 21 21 0 0 1-21-21 21 21 0 0 1 21-21z" fill-opacity=".5"/><circle cx="180" cy="260" r="8.5" fill="none" stroke="#000" stroke-linecap="square" stroke-opacity=".5"/><rect x="226" y="222" width="60" height="62" ry="30" fill="#cdcdcd"/><path d="M256 222c-16.62 0-30 13.38-30 30v2c0 16.62 13.38 30 30 30s30-13.38 30-30v-2c0-16.62-13.38-30-30-30zm0 1a29 29 0 0 1 29 29 29 29 0 0 1-29 29 29 29 0 0 1-29-29 29 29 0 0 1 29-29z" fill-opacity=".5"/><rect x="316" y="160" width="120" height="123" ry="60" fill="#cdcdcd"/><rect x="472" y="36" width="240" height="244" ry="120" fill="#cdcdcd"/><path d="M592 36c-66.48 0-120 53.52-120 120v4c0 66.48 53.52 120 120 120s120-53.52 120-120v-4c0-66.48-53.52-120-120-120zm0 1c65.926 0 119 53.074 119 119s-53.074 119-119 119-119-53.074-119-119S526.074 37 592 37z" fill-opacity=".5"/><path d="M376 160c-33.24 0-60 26.76-60 60v3c0 33.24 26.76 60 60 60s60-26.76 60-60v-3c0-33.24-26.76-60-60-60zm0 1c32.686 0 59 26.314 59 59s-26.314 59-59 59-59-26.314-59-59 26.314-59 59-59z" fill-opacity=".5"/><circle cx="116" cy="268" r="5.5" fill="none" stroke="#000" stroke-linecap="square" stroke-opacity=".5"/><circle cx="256" cy="252" r="10.5" fill="none" stroke="#000" stroke-linecap="square" stroke-opacity=".5"/><circle cx="376" cy="220" r="20.5" fill="none" stroke="#000" stroke-linecap="square" stroke-opacity=".5"/><circle cx="592" cy="156" r="40.5" fill="none" stroke="#000" stroke-linecap="square" stroke-opacity=".5"/><circle cx="68" cy="272" r="12" fill="#cdcdcd"/><circle cx="24" cy="276" r="8" fill="#cdcdcd"/><path d="M68 260a12 12 0 0 0-12 12 12 12 0 0 0 12 12 12 12 0 0 0 12-12 12 12 0 0 0-12-12zm0 1a11 11 0 0 1 11 11 11 11 0 0 1-11 11 11 11 0 0 1-11-11 11 11 0 0 1 11-11z" fill-opacity=".5"/><path d="M24 268a8 8 0 0 0-8 8 8 8 0 0 0 8 8 8 8 0 0 0 8-8 8 8 0 0 0-8-8zm0 1a7 7 0 0 1 7 7 7 7 0 0 1-7 7 7 7 0 0 1-7-7 7 7 0 0 1 7-7z" fill-opacity=".5"/><circle cx="68" cy="272" r="4.5" fill="none" stroke="#000" stroke-linecap="square" stroke-opacity=".5"/><circle cx="24" cy="276" r="3.5" fill="#cdcdcd" stroke="#000" stroke-linecap="square" stroke-opacity=".5"/><circle cx="24" cy="276" r="1" fill-opacity=".8"/><circle cx="68" cy="272" r="4" fill-opacity=".2"/><circle cx="68" cy="272" r="2" fill-opacity=".8"/><circle cx="116" cy="268" r="5" fill-opacity=".2"/><circle cx="180" cy="260" r="8" fill-opacity=".2"/><circle cx="256" cy="252" r="10" fill-opacity=".2"/><circle cx="376" cy="220" r="20" fill-opacity=".2"/><circle cx="592" cy="156" r="40" fill-opacity=".2"/><circle cx="116" cy="268" r="2" fill-opacity=".8"/><circle cx="256" cy="252" r="4" fill-opacity=".8"/><circle cx="376" cy="220" r="8" fill-opacity=".8"/><circle cx="592" cy="156" r="16" fill-opacity=".8"/><circle cx="180" cy="260" r="3" fill-opacity=".8"/><circle cx="24" cy="276" r="3" fill-opacity=".2"/></g><use transform="translate(0 -300)" width="100%" height="100%" xlink:href="#a"/><rect x="114" y="-35" width="18" height="19" ry="9" fill="#f15d22"/><path d="M123-35a8.98 8.98 0 0 0-9 9v1c0 4.986 4.014 9 9 9s9-4.014 9-9v-1c0-4.986-4.014-9-9-9zm0 1a8 8 0 0 1 8 8 8 8 0 0 1-8 8 8 8 0 0 1-8-8 8 8 0 0 1 8-8z" fill-opacity=".5"/><rect x="178" y="-44" width="26" height="28" ry="13" fill="#f15d22"/><path d="M191-44c-7.202 0-13 5.798-13 13v2c0 7.202 5.798 13 13 13s13-5.798 13-13v-2c0-7.202-5.798-13-13-13zm0 1a12 12 0 0 1 12 12 12 12 0 0 1-12 12 12 12 0 0 1-12-12 12 12 0 0 1 12-12z" fill-opacity=".5"/><path d="M190.81-25.969c-1.168 0-2.107-.925-2.107-2.06 0-1.064.676-1.812 1.838-2.049 1.162-.236 2.363-.794 3.032-1.693.256.847.381 1.74.381 2.652a3.15 3.15 0 0 1-3.144 3.15m1.175-12.03s.486 1.738.486 3.15c0 1.352-.886 2.448-2.239 2.448-1.358 0-2.382-1.096-2.382-2.448l.02-.243a9.041 9.041 0 0 0-2.12 5.841A5.25 5.25 0 0 0 191-24a5.25 5.25 0 0 0 5.251-5.25c0-3.545-1.7-6.696-4.266-8.75z" fill="#fff"/><path d="M122.86-22.406c-.835 0-1.505-.661-1.505-1.472 0-.76.483-1.294 1.313-1.463.83-.169 1.688-.567 2.166-1.21a6.54 6.54 0 0 1 .272 1.895 2.25 2.25 0 0 1-2.246 2.25M123.7-31s.346 1.243.346 2.25c0 .967-.633 1.75-1.599 1.75-.97 0-1.701-.783-1.701-1.75l.014-.173a6.458 6.458 0 0 0-1.515 4.173 3.75 3.75 0 0 0 3.751 3.75 3.75 3.75 0 0 0 3.75-3.75c0-2.532-1.214-4.782-3.047-6.25z" fill="#fff"/><rect x="67" y="-29" width="13" height="13" ry="6.5" fill="#f15d22"/><path d="M73.5-29c-3.601 0-6.5 2.899-6.5 6.5s2.899 6.5 6.5 6.5 6.5-2.899 6.5-6.5-2.899-6.5-6.5-6.5zm0 1a5.5 5.5 0 0 1 5.5 5.5 5.5 5.5 0 0 1-5.5 5.5 5.5 5.5 0 0 1-5.5-5.5 5.5 5.5 0 0 1 5.5-5.5z" fill-opacity=".5"/><path d="M73.405-19.985a1.041 1.041 0 0 1-1.053-1.03c0-.532.338-.906.918-1.024.581-.119 1.182-.397 1.517-.847.128.423.19.87.19 1.326 0 .866-.702 1.575-1.572 1.575m.587-6.016s.243.87.243 1.576c0 .676-.443 1.224-1.119 1.224-.68 0-1.191-.548-1.191-1.224l.009-.122a4.52 4.52 0 0 0-1.06 2.921 2.625 2.625 0 0 0 2.626 2.625 2.625 2.625 0 0 0 2.625-2.625c0-1.772-.85-3.347-2.133-4.375z" fill="#fff"/><circle cx="26" cy="-22" r="6" fill="#f15d22"/><path d="M26-28a6 6 0 0 0-6 6 6 6 0 0 0 6 6 6 6 0 0 0 6-6 6 6 0 0 0-6-6zm0 1a5 5 0 0 1 5 5 5 5 0 0 1-5 5 5 5 0 0 1-5-5 5 5 0 0 1 5-5z" fill-opacity=".5"/><path d="M25.919-19.844a.893.893 0 0 1-.903-.883c0-.456.29-.777.788-.878.498-.101 1.012-.34 1.3-.726.109.363.162.746.162 1.137a1.35 1.35 0 0 1-1.347 1.35M26.423-25s.208.745.208 1.35c0 .58-.38 1.05-.96 1.05-.582 0-1.02-.47-1.02-1.05l.007-.104a3.875 3.875 0 0 0-.908 2.503A2.25 2.25 0 0 0 26-19a2.25 2.25 0 0 0 2.25-2.25c0-1.519-.728-2.869-1.828-3.75z" fill="#fff"/><rect x="254" y="-52" width="34" height="36" ry="17" fill="#f15d22"/><path d="M271-52c-9.418 0-17 7.582-17 17v2c0 9.418 7.582 17 17 17s17-7.582 17-17v-2c0-9.418-7.582-17-17-17zm0 1a16 16 0 0 1 16 16 16 16 0 0 1-16 16 16 16 0 0 1-16-16 16 16 0 0 1 16-16z" fill-opacity=".5"/><path d="M270.73-27.813c-1.669 0-3.01-1.322-3.01-2.944 0-1.52.966-2.588 2.626-2.926 1.66-.337 3.375-1.134 4.332-2.419.365 1.21.543 2.485.543 3.788 0 2.476-2.006 4.501-4.49 4.501M272.407-45s.694 2.485.694 4.5c0 1.932-1.265 3.498-3.197 3.498-1.941 0-3.404-1.566-3.404-3.497l.028-.347a12.916 12.916 0 0 0-3.028 8.345A7.501 7.501 0 0 0 271.002-25a7.501 7.501 0 0 0 7.501-7.501c0-5.064-2.428-9.564-6.094-12.5z" fill="#fff"/><rect x="374" y="-85" width="66" height="69" ry="33" fill="#f15d22"/><path d="M407-85c-18.282 0-33 14.718-33 33v3c0 18.282 14.718 33 33 33s33-14.718 33-33v-3c0-18.282-14.718-33-33-33zm0 1a32 32 0 0 1 32 32 32 32 0 0 1-32 32 32 32 0 0 1-32-32 32 32 0 0 1 32-32z" fill-opacity=".5"/><path d="M406.46-37.626c-3.338 0-6.02-2.644-6.02-5.888 0-3.038 1.932-5.176 5.251-5.851 3.32-.675 6.751-2.27 8.664-4.838.731 2.419 1.088 4.969 1.088 7.576 0 4.95-4.014 9.001-8.983 9.001M409.817-72s1.387 4.97 1.387 9.002c0 3.863-2.531 6.994-6.394 6.994-3.882 0-6.808-3.131-6.808-6.994l.057-.694c-3.788 4.5-6.057 10.333-6.057 16.69A15.002 15.002 0 0 0 407.004-32a15.002 15.002 0 0 0 15.002-15.002c0-10.127-4.857-19.128-12.19-24.998z" fill="#fff"/><rect x="590" y="-150" width="130" height="134" ry="65" fill="#f15d22"/><path d="M655-150c-36.01 0-65 28.99-65 65v4c0 36.01 28.99 65 65 65s65-28.99 65-65v-4c0-36.01-28.99-65-65-65zm0 1a64 64 0 0 1 64 64 64 64 0 0 1-64 64 64 64 0 0 1-64-64 64 64 0 0 1 64-64z" fill-opacity=".5"/><path d="M653.91-56.252c-6.676 0-12.039-5.288-12.039-11.777 0-6.076 3.863-10.352 10.502-11.702 6.639-1.35 13.502-4.538 17.328-9.677 1.463 4.839 2.175 9.94 2.175 15.153 0 9.901-8.026 18.002-17.965 18.002M660.625-125s2.775 9.94 2.775 18.004c0 7.726-5.063 13.99-12.789 13.99-7.764 0-13.615-6.264-13.615-13.99l.113-1.388c-7.576 9.001-12.114 20.666-12.114 33.38A30.005 30.005 0 0 0 655-45a30.005 30.005 0 0 0 30.005-30.005c0-20.253-9.714-38.256-24.379-49.995z" fill="#fff"/></g></svg>