<svg version="1.0" viewBox="0 0 16 16" xmlns="http://www.w3.org/2000/svg"><g transform="translate(-16 -268)"><circle cx="24" cy="276" r="8" fill="#cdcdcd"/><path d="M24 268a8 8 0 0 0-8 8 8 8 0 0 0 8 8 8 8 0 0 0 8-8 8 8 0 0 0-8-8zm0 1a7 7 0 0 1 7 7 7 7 0 0 1-7 7 7 7 0 0 1-7-7 7 7 0 0 1 7-7z" fill-opacity=".5"/><circle cx="24" cy="276" r="3.5" fill="#cdcdcd" stroke="#000" stroke-linecap="square" stroke-opacity=".5"/><circle cx="24" cy="276" r="1" fill-opacity=".8"/><circle cx="24" cy="276" r="3" fill-opacity=".2"/></g></svg>