<svg version="1.0" viewBox="0 0 16 16" xmlns="http://www.w3.org/2000/svg"><g transform="translate(-16 -268)"><rect x="18" y="268" width="12" height="16" ry="2" fill="#545454"/><rect x="20" y="270" width="8" height="6" ry="0" fill="#222"/><rect x="21" y="277" width="2" height="2" ry="1" fill="#c5c5c5"/><rect x="25" y="277" width="2" height="2" ry=".988" fill="#c5c5c5"/><rect x="21" y="280" width="2" height="2" ry=".969" fill="#c5c5c5"/><rect x="25" y="280" width="2" height="2" ry="1" fill="#c5c5c5"/><path d="M22.517 270.34a.5.5 0 0 0-.498.47h-.001v.013l-.001.017.001.035-.001 4.288a.5.5 0 0 0 .5.5.5.5 0 0 0 .21-.048l.002.001.013-.007h.002a.5.5 0 0 0 .044-.025l3.922-2.136c.002 0 .004 0 .005-.002a.5.5 0 0 0 .017-.877l-.009-.005h-.002l-3.962-2.162a.506.506 0 0 0-.242-.062z" fill="#ededed" fill-opacity=".8"/><path d="M20 268c-1.108 0-2 .892-2 2v12c0 1.108.892 2 2 2h8c1.108 0 2-.892 2-2v-12c0-1.108-.892-2-2-2zm0 1h8c.554 0 1 .446 1 1v12c0 .554-.446 1-1 1h-8c-.554 0-1-.446-1-1v-12c0-.554.446-1 1-1z" fill="#fff" fill-opacity=".502"/></g></svg>