<svg version="1.0" viewBox="0 0 16 16" xmlns="http://www.w3.org/2000/svg"><path d="M2 2c-.554 0-1 .446-1 1v9c0 .554.446 1 1 1h2l1 1h6l1-1h2c.554 0 1-.446 1-1V3c0-.554-.446-1-1-1z" fill="#dedede"/><path d="M3 4h10v7h-2l-1 1H6l-1-1H3z" fill="#4d4d4d"/><path d="M2 12.5a.499.499 0 0 1-.5-.5V3c0-.277.223-.5.5-.5h12c.277 0 .5.223.5.5v9c0 .277-.223.5-.5.5h-2.207l-1 1h-5.59l-1-1z" fill="none" stroke="#000" stroke-opacity=".5"/><path fill="#d1a023" d="M7 4h2v4H7z"/><path fill="#d1a023" d="M10 4h2v4h-2z"/><path fill="#d1a023" d="M4 4h2v4H4z"/></svg>