<svg version="1.0" viewBox="0 0 16 16" xmlns="http://www.w3.org/2000/svg"><g transform="translate(-16 632)"><rect x="23" y="-625" width="8" height="3" ry="1" fill="#479863"/><rect x="26" y="-625" width="3" height="6" ry="1.5" fill="#479863"/><rect x="16" y="-628" width="9" height="9" ry="4.5" fill="#479863"/><circle cx="20.5" cy="-623.5" r="2" fill="#a2f3be"/><path d="M20.5-628c-2.493 0-4.5 2.007-4.5 4.5s2.007 4.5 4.5 4.5a4.475 4.475 0 0 0 4.225-3H26v1.5c0 .831.669 1.5 1.5 1.5s1.5-.669 1.5-1.5v-1.5h1c.554 0 1-.446 1-1v-1c0-.554-.446-1-1-1h-5.275a4.475 4.475 0 0 0-4.225-3zm0 1a3.482 3.482 0 0 1 3.451 3h5.56c.271 0 .489.218.489.488v.024c0 .27-.218.488-.488.488H28v2.5a.499.499 0 1 1-1 0v-2.5h-3.049a3.482 3.482 0 0 1-3.451 3c-1.939 0-3.5-1.561-3.5-3.5s1.561-3.5 3.5-3.5z" fill-opacity=".502"/></g></svg>