<svg version="1.0" viewBox="0 0 16 16" xmlns="http://www.w3.org/2000/svg"><g stroke-linecap="square" transform="translate(-16 -268)"><rect x="16" y="278" width="16" height="5" ry="1" fill="#444"/><rect transform="rotate(45)" x="210.92" y="183.76" width="1" height="3" ry=".5"/><rect transform="rotate(45)" x="212.52" y="182.17" width="1" height="3" ry=".5"/><rect transform="rotate(45)" x="214.11" y="180.58" width="1" height="3" ry=".5"/><circle cx="25.5" cy="280.5" r=".5" fill="#73c48f"/><circle cx="27.5" cy="280.5" r=".5" fill="#f15d22"/><circle cx="29.5" cy="280.5" r=".5" fill="#faa41a"/><rect x="25" y="280" width="1" height="1" ry="0" fill="#73c48f"/><path fill="#f15d22" d="M27 280h1v1h-1z"/><path fill="#faa41a" d="M29 280h1v1h-1z"/><path d="M17 278c-.554 0-1 .446-1 1v3c0 .554.446 1 1 1h14c.554 0 1-.446 1-1v-3c0-.554-.446-1-1-1zm0 1h14v3H17z" fill="#fff" fill-opacity=".5"/><rect x="16" y="273" width="16" height="5" ry="1" fill="#444"/><rect transform="rotate(45)" x="207.39" y="180.23" width="1" height="3" ry=".5"/><rect transform="rotate(45)" x="208.98" y="178.64" width="1" height="3" ry=".5"/><rect transform="rotate(45)" x="210.57" y="177.04" width="1" height="3" ry=".5"/><circle cx="25.5" cy="275.5" r=".5" fill="#73c48f"/><circle cx="27.5" cy="275.5" r=".5" fill="#f15d22"/><circle cx="29.5" cy="275.5" r=".5" fill="#faa41a"/><rect x="25" y="275" width="1" height="1" ry="0" fill="#73c48f"/><path fill="#f15d22" d="M27 275h1v1h-1z"/><path fill="#faa41a" d="M29 275h1v1h-1z"/><path d="M17 273c-.554 0-1 .446-1 1v3c0 .554.446 1 1 1h14c.554 0 1-.446 1-1v-3c0-.554-.446-1-1-1zm0 1h14v3H17z" fill="#fff" fill-opacity=".5"/><g transform="translate(0 -5)"><rect x="16" y="273" width="16" height="5" ry="1" fill="#444"/><rect transform="rotate(45)" x="207.39" y="180.23" width="1" height="3" ry=".5"/><rect transform="rotate(45)" x="208.98" y="178.64" width="1" height="3" ry=".5"/><rect transform="rotate(45)" x="210.57" y="177.04" width="1" height="3" ry=".5"/><circle cx="25.5" cy="275.5" r=".5" fill="#73c48f"/><circle cx="27.5" cy="275.5" r=".5" fill="#f15d22"/><circle cx="29.5" cy="275.5" r=".5" fill="#faa41a"/><rect x="25" y="275" width="1" height="1" ry="0" fill="#73c48f"/><path fill="#f15d22" d="M27 275h1v1h-1z"/><path fill="#faa41a" d="M29 275h1v1h-1z"/><path d="M17 273c-.554 0-1 .446-1 1v3c0 .554.446 1 1 1h14c.554 0 1-.446 1-1v-3c0-.554-.446-1-1-1zm0 1h14v3H17z" fill="#fff" fill-opacity=".5"/></g></g></svg>