<svg version="1.0" viewBox="0 0 16 16" xmlns="http://www.w3.org/2000/svg"><g transform="translate(-16 1532)"><rect x="17" y="-1531" width="14" height="14" ry="2" fill="#cf3b00"/><path d="M19-1531c-1.108 0-2 .892-2 2v10c0 1.108.892 2 2 2h10c1.108 0 2-.892 2-2v-10c0-1.108-.892-2-2-2zm0 1h10c.554 0 1 .446 1 1v10c0 .554-.446 1-1 1H19c-.554 0-1-.446-1-1v-10c0-.554.446-1 1-1z" fill-opacity=".5"/><path d="M19-1530c-.554 0-1 .446-1 1v4c0 .554.446 1 1 1h4c.554 0 1-.446 1-1v-4c0-.554-.446-1-1-1zm0 1h4v4h-4z" fill="#fff" fill-opacity=".5"/><path d="M25-1530c-.554 0-1 .446-1 1v4c0 .554.446 1 1 1h4c.554 0 1-.446 1-1v-4c0-.554-.446-1-1-1zm0 1h4v4h-4z" fill="#fff" fill-opacity=".5"/><path d="M22-1524c-.554 0-1 .446-1 1v4c0 .554.446 1 1 1h4c.554 0 1-.446 1-1v-4c0-.554-.446-1-1-1zm0 1h4v4h-4z" fill="#fff" fill-opacity=".5"/><path d="M19-1524c-.554 0-1 .446-1 1v4c0 .554.446 1 1 1h1c.554 0 1-.446 1-1v-4c0-.554-.446-1-1-1zm0 1h1v4h-1z" fill="#fff" fill-opacity=".5"/><path d="M28-1524c-.554 0-1 .446-1 1v4c0 .554.446 1 1 1h1c.554 0 1-.446 1-1v-4c0-.554-.446-1-1-1zm0 1h1v4h-1z" fill="#fff" fill-opacity=".5"/></g></svg>