<svg version="1.0" viewBox="0 0 16 16" xmlns="http://www.w3.org/2000/svg"><g transform="translate(-16 -268)"><rect x="18" y="268" width="12" height="16" ry="2" fill="#545454"/><rect x="21" y="271" width="6" height="10" ry="0" fill="#222"/><path d="M25 273c-.277 0-.5.223-.5.5v1l.76.76a3.5 3.5 0 0 1-1.996 2.004l-.764-.764h-1c-.277 0-.5.223-.5.5v1.5c0 .277.223.5.5.5h.5a5 5 0 0 0 5-5v-.5c0-.277-.223-.5-.5-.5z" fill="#ededed" fill-opacity=".8" filter="url(#filter7554)"/><path d="M20 268c-1.108 0-2 .892-2 2v12c0 1.108.892 2 2 2h8c1.108 0 2-.892 2-2v-12c0-1.108-.892-2-2-2zm0 1h8c.554 0 1 .446 1 1v12c0 .554-.446 1-1 1h-8c-.554 0-1-.446-1-1v-12c0-.554.446-1 1-1z" fill="#fff" fill-opacity=".502"/></g></svg>