<svg version="1.0" viewBox="0 0 16 16" xmlns="http://www.w3.org/2000/svg"><g stroke-linecap="square" transform="translate(-16 -268)"><rect x="19" y="268" width="10" height="4" ry=".5" fill="#dedede"/><path d="M19.5 268c-.277 0-.5.223-.5.5v5c0 .277.223.5.5.5h.5v-5h8v5h.5c.277 0 .5-.223.5-.5v-5c0-.277-.223-.5-.5-.5z" fill-opacity=".5"/><rect x="16" y="272" width="16" height="8" ry="1" fill="#474341"/><path d="M17 272c-.554 0-1 .446-1 1v6c0 .554.446 1 1 1h14c.554 0 1-.446 1-1v-6c0-.554-.446-1-1-1zm0 1h14v6H17z" fill="#fff" fill-opacity=".5"/><rect x="19" y="276" width="10" height="8" ry=".5" fill="#dedede"/><rect x="18" y="274" width="1" height="1" ry="0" fill="#73c48f"/><path d="M19.5 276c-.277 0-.5.223-.5.5v7c0 .277.223.5.5.5h9c.277 0 .5-.223.5-.5v-7c0-.277-.223-.5-.5-.5H28v7h-8v-7z" fill-opacity=".5"/></g></svg>