<svg version="1.0" viewBox="0 0 16 16" xmlns="http://www.w3.org/2000/svg"><g transform="translate(-16 1532)"><rect x="19" y="-1532" width="10" height="4" ry=".5" fill="#dedede"/><path d="M19.5-1532c-.277 0-.5.223-.5.5v5c0 .277.223.5.5.5h.5v-5h8v5h.5c.277 0 .5-.223.5-.5v-5c0-.277-.223-.5-.5-.5z" fill-opacity=".5"/><rect x="16" y="-1528" width="16" height="8" ry="1" fill="#474341"/><path d="M17-1528c-.554 0-1 .446-1 1v6c0 .554.446 1 1 1h14c.554 0 1-.446 1-1v-6c0-.554-.446-1-1-1zm0 1h14v6H17z" fill="#fff" fill-opacity=".5"/><rect x="19" y="-1524" width="10" height="8" ry=".5" fill="#dedede"/><rect x="18" y="-1526" width="1" height="1" ry="0" fill="#73c48f"/><path d="M19.5-1524c-.277 0-.5.223-.5.5v7c0 .277.223.5.5.5h9c.277 0 .5-.223.5-.5v-7c0-.277-.223-.5-.5-.5H28v7h-8v-7z" fill-opacity=".5"/><path d="M20-1524v1a6 6 0 0 1 6 6h1a7 7 0 0 0-7-7zm0 2v1a4 4 0 0 1 4 4h1a5 5 0 0 0-5-5zm0 2v1a2 2 0 0 1 2 2h1a3 3 0 0 0-3-3zm0 2v1h1a1 1 0 0 0-1-1z" opacity=".7"/></g></svg>