<svg version="1.0" viewBox="0 0 48 48" xmlns="http://www.w3.org/2000/svg"><g transform="translate(-190 -236)"><rect transform="matrix(0 -1 -1 0 0 0)" x="-284" y="-66" width="16" height="16" rx="8" ry="8" fill="#48b9c7"/><rect transform="matrix(0 -1 -1 0 0 0)" x="-284" y="-24" width="8" height="8" rx="1" ry="1" fill="#48b9c7"/><circle cx="102" cy="272" r="12" fill="#48b9c7"/><rect x="192" y="238" width="44" height="46" ry="22" fill="#48b9c7"/><rect x="135" y="253" width="30" height="31" ry="15" fill="#48b9c7"/><path d="M150 253c-8.31 0-15 6.69-15 15v1c0 8.31 6.69 15 15 15s15-6.69 15-15v-1c0-8.31-6.69-15-15-15zm0 1a14 14 0 0 1 14 14 14 14 0 0 1-14 14 14 14 0 0 1-14-14 14 14 0 0 1 14-14z" fill-opacity=".502"/><rect x="260" y="222" width="60" height="62" ry="30" fill="#48b9c7"/><path d="M290 222c-16.62 0-30 13.38-30 30v2c0 16.62 13.38 30 30 30s30-13.38 30-30v-2c0-16.62-13.38-30-30-30zm0 1a29 29 0 0 1 29 29 29 29 0 0 1-29 29 29 29 0 0 1-29-29 29 29 0 0 1 29-29z" fill-opacity=".502"/><rect x="16.5" y="276.5" width="7" height="7" ry=".5" fill="none" stroke="#000" stroke-linecap="square" stroke-opacity=".502"/><rect x="50.5" y="268.5" width="15" height="15" ry="7.5" fill="none" stroke="#000" stroke-linecap="square" stroke-opacity=".502"/><rect x="90.5" y="260.5" width="23" height="23" ry="11.478" fill="none" stroke="#000" stroke-linecap="square" stroke-opacity=".502"/><path d="M214 238c-12.188 0-22 9.812-22 22v2c0 12.188 9.812 22 22 22s22-9.812 22-22v-2c0-12.188-9.812-22-22-22zm0 1a21 21 0 0 1 21 21 21 21 0 0 1-21 21 21 21 0 0 1-21-21 21 21 0 0 1 21-21z" fill-opacity=".502"/><g transform="translate(-28.815 48.368)"><rect x="124.81" y="218.63" width="12" height="10" ry="2" fill="none" stroke="#fff" stroke-linecap="round" stroke-width="2"/><path d="M126.81 220.63v4l1.5-1.5 1.5 1.5 2.5-2.5 2.5 2.5v-4z" fill="#fff" opacity=".5"/><path d="m130.81 222.63 4 4h-8z" fill="#fff"/></g><g transform="translate(19.185 44.368)"><rect x="124.81" y="218.63" width="12" height="10" ry="2" fill="none" stroke="#fff" stroke-linecap="round" stroke-width="2"/><path d="M126.81 220.63v4l1.5-1.5 1.5 1.5 2.5-2.5 2.5 2.5v-4z" fill="#fff" opacity=".5"/><path d="m130.81 222.63 4 4h-8z" fill="#fff"/></g><g transform="matrix(1.5 0 0 1.5 17.778 -74.449)"><rect x="125.15" y="218.63" width="11.333" height="10" ry="2" fill="none" stroke="#fff" stroke-linecap="round" stroke-width="2"/><path d="M126.81 220.3v4.333l1.5-1.5 1.5 1.5 2.5-2.5 2.5 2.5V220.3z" fill="#fff" opacity=".5"/><path d="m130.81 222.63 4 4.333h-8z" fill="#fff"/></g><g transform="matrix(2 0 0 2 28.371 -194.26)"><rect x="124.81" y="218.63" width="12" height="10" ry="2" fill="none" stroke="#fff" stroke-linecap="round" stroke-width="2"/><path d="M126.81 220.63v4l1.5-1.5 1.5 1.5 2.5-2.5 2.5 2.5v-4z" fill="#fff" opacity=".5"/><path d="m130.81 222.63 4 4h-8z" fill="#fff"/></g><g transform="translate(-72.815 52.368)"><rect x="125.31" y="219.13" width="11" height="9" ry="2" fill="none" stroke="#fff" stroke-linecap="round"/><path d="M126.81 220.63v4l1.5-1.5 1.5 1.5 2.5-2.5 2.5 2.5v-4z" fill="#fff" opacity=".5"/><path d="m130.81 222.63 4 4h-8z" fill="#fff"/></g><path d="M17 278v2.667l1.125-1 1.125 1L21.125 279 23 280.667V278z" fill="#fff" opacity=".5"/><path d="m20 279.33 3 2.667h-6z" fill="#fff"/></g></svg>