<svg version="1.0" viewBox="0 0 48 48" xmlns="http://www.w3.org/2000/svg"><g transform="translate(-190 -236)"><rect x="192" y="238" width="44" height="46" ry="22" fill="#3f51b5"/><path d="M214 238c-12.188 0-22 9.812-22 22v2c0 12.188 9.812 22 22 22s22-9.812 22-22v-2c0-12.188-9.812-22-22-22zm0 1a21 21 0 0 1 21 21 21 21 0 0 1-21 21 21 21 0 0 1-21-21 21 21 0 0 1 21-21z" fill-opacity=".502"/><path d="M220 249a4.5 4.5 0 0 0-4.5 4.5c0 .347.066.66.14.984l-4.828 3a4.5 4.5 0 1 0 0 7.031l4.829 3c-.075.325-.14.638-.14.985a4.5 4.5 0 1 0 4.5-4.5 4.484 4.484 0 0 0-2.813.984l-4.828-3c.074-.324.14-.637.14-.984s-.066-.66-.14-.984l4.828-3c.77.617 1.749.984 2.812.984a4.5 4.5 0 1 0 0-9z" fill="#fff"/></g></svg>