<svg version="1.0" viewBox="0 0 48 48" xmlns="http://www.w3.org/2000/svg"><g transform="translate(-190 -236)"><rect x="192" y="238" width="44" height="46" ry="22" fill="#73c48f"/><path d="M214 238c-12.188 0-22 9.812-22 22v2c0 12.188 9.812 22 22 22s22-9.812 22-22v-2c0-12.188-9.812-22-22-22zm0 1a21 21 0 0 1 21 21 21 21 0 0 1-21 21 21 21 0 0 1-21-21 21 21 0 0 1 21-21z" fill-opacity=".502"/><path d="M226 261h-3c0-4.144-2.798-7.625-6.61-8.672-.047-.013-.093-.034-.14-.047-.383-.098-.771-.14-1.172-.187-.35-.042-.717-.094-1.078-.094a8.986 8.986 0 0 0-2.719.422v.047c-1.262.4-2.42 1.041-3.375 1.922l1.781 2.39c.753-.77 1.738-1.27 2.813-1.547v-.046a6.027 6.027 0 0 1 1.781-.141c.273.02.524.043.797.094 2.8.506 4.922 2.912 4.922 5.86h-3l4.5 6 4.5-6zm-5.906 6.61-1.781-2.391c-.753.77-1.738 1.27-2.813 1.547v.046a6.027 6.027 0 0 1-1.781.141 6.85 6.85 0 0 1-.797-.094c-2.8-.506-4.922-2.912-4.922-5.859h3l-4.5-6-4.5 6h3c0 4.144 2.798 7.625 6.61 8.672.048.013.091.034.14.047.383.098.771.14 1.172.187.35.042.717.094 1.078.094a8.986 8.986 0 0 0 2.719-.422v-.047c1.262-.4 2.42-1.041 3.375-1.922z" fill="#474341"/></g></svg>