<svg version="1.0" viewBox="0 0 48 48" xmlns="http://www.w3.org/2000/svg"><g transform="translate(-190 -236)"><rect x="192" y="238" width="44" height="46" ry="22" fill="#73c48f"/><g transform="matrix(2 0 0 2 54 -284)" fill="none"><rect x="72" y="264" width="16" height="16" rx=".144" ry=".151" color="#bebebe"/><path d="m75 273 3 3 7-8" stroke="#fff" stroke-width="2"/></g><path d="M214 238c-12.188 0-22 9.812-22 22v2c0 12.188 9.812 22 22 22s22-9.812 22-22v-2c0-12.188-9.812-22-22-22zm0 1a21 21 0 0 1 21 21 21 21 0 0 1-21 21 21 21 0 0 1-21-21 21 21 0 0 1 21-21z" fill-opacity=".502"/></g></svg>