<svg version="1.0" viewBox="0 0 48 48" xmlns="http://www.w3.org/2000/svg"><g transform="translate(-190 -236)"><rect x="192" y="238" width="44" height="46" ry="22" fill="#cf3b00"/><path d="M214 238c-12.188 0-22 9.812-22 22v2c0 12.188 9.812 22 22 22s22-9.812 22-22v-2c0-12.188-9.812-22-22-22zm0 1a21 21 0 0 1 21 21 21 21 0 0 1-21 21 21 21 0 0 1-21-21 21 21 0 0 1 21-21z" fill-opacity=".502"/><path d="M209.17 252c-3.123 0-5.672 2.513-5.672 5.625a5.65 5.65 0 0 0 1.781 4.125l8.578 8.25 8.86-8.25a5.647 5.647 0 0 0 1.781-4.125c0-3.112-2.55-5.625-5.672-5.625a5.611 5.611 0 0 0-4.828 2.719A5.612 5.612 0 0 0 209.17 252z" fill="#fff"/></g></svg>