<svg version="1.0" viewBox="0 0 48 48" xmlns="http://www.w3.org/2000/svg"><g transform="translate(-190 -236)"><rect x="192" y="238" width="44" height="46" ry="22" fill="#faa41a"/><path d="M214 238c-12.188 0-22 9.812-22 22v2c0 12.188 9.812 22 22 22s22-9.812 22-22v-2c0-12.188-9.812-22-22-22zm0 1a21 21 0 0 1 21 21 21 21 0 0 1-21 21 21 21 0 0 1-21-21 21 21 0 0 1 21-21z" fill-opacity=".502"/><path d="M214 250c-3.324 0-6 2.732-6 6.094V259c-1.662 0-3 1.338-3 3v5.997c0 1.662 1.338 3 3 3h11.991c1.662 0 3-1.338 3-3V262a2.994 2.994 0 0 0-2.991-3v-2.906c0-3.36-2.676-6.094-6-6.094zm0 3c1.662 0 3 1.338 3 3v3h-6v-3c0-1.662 1.338-3 3-3z" color="#000" fill="#474341"/></g></svg>