<svg version="1.0" viewBox="0 0 48 48" xmlns="http://www.w3.org/2000/svg"><g transform="translate(-190 -236)"><rect x="192" y="238" width="44" height="46" ry="22" fill="#48b9c7"/><path d="M214 238c-12.188 0-22 9.812-22 22v2c0 12.188 9.812 22 22 22s22-9.812 22-22v-2c0-12.188-9.812-22-22-22zm0 1a21 21 0 0 1 21 21 21 21 0 0 1-21 21 21 21 0 0 1-21-21 21 21 0 0 1 21-21z" fill-opacity=".502"/><g transform="matrix(1.5 0 0 1.5 17.778 -74.449)"><rect x="125.15" y="218.63" width="11.333" height="10" ry="2" fill="none" stroke="#fff" stroke-linecap="round" stroke-width="2"/><path d="M126.81 220.3v4.333l1.5-1.5 1.5 1.5 2.5-2.5 2.5 2.5V220.3z" fill="#fff" opacity=".5"/><path d="m130.81 222.63 4 4.333h-8z" fill="#fff"/></g></g></svg>