<svg version="1.0" viewBox="0 0 48 48" xmlns="http://www.w3.org/2000/svg"><g transform="translate(-190 -236)"><rect x="192" y="238" width="44" height="46" ry="22" fill="#cf3b00"/><path d="M214 238c-12.188 0-22 9.812-22 22v2c0 12.188 9.812 22 22 22s22-9.812 22-22v-2c0-12.188-9.812-22-22-22zm0 1a21 21 0 0 1 21 21 21 21 0 0 1-21 21 21 21 0 0 1-21-21 21 21 0 0 1 21-21z" fill-opacity=".502"/><path d="M207.25 252a2.25 2.25 0 0 0-2.25 2.25 2.25 2.25 0 0 0 .66 1.59l5.158 5.16-5.159 5.16a2.25 2.25 0 0 0-.659 1.59 2.25 2.25 0 0 0 2.25 2.25 2.25 2.25 0 0 0 1.59-.66l5.16-5.158 5.137 5.137a2.25 2.25 0 0 0 1.613.681 2.25 2.25 0 0 0 2.25-2.25 2.25 2.25 0 0 0-.66-1.59l-5.158-5.16 5.137-5.137a2.25 2.25 0 0 0 .68-1.613 2.25 2.25 0 0 0-2.25-2.25 2.25 2.25 0 0 0-1.59.66l-5.16 5.158-5.136-5.137a2.25 2.25 0 0 0-.023-.022 2.25 2.25 0 0 0-1.59-.659z" fill="#fff"/></g></svg>