<svg version="1.0" viewBox="0 0 48 48" xmlns="http://www.w3.org/2000/svg"><g transform="translate(-190 -236)"><rect x="192" y="238" width="44" height="46" ry="22" fill="#574f4a"/><path d="M214 238c-12.188 0-22 9.812-22 22v2c0 12.188 9.812 22 22 22s22-9.812 22-22v-2c0-12.188-9.812-22-22-22zm0 1a21 21 0 0 1 21 21 21 21 0 0 1-21 21 21 21 0 0 1-21-21 21 21 0 0 1 21-21z" fill-opacity=".502"/><path d="m211.38 250.5-.231 2.766a8.25 8.25 0 0 0-2.412 1.394l-2.513-1.183-2.625 4.546 2.282 1.585a8.25 8.25 0 0 0-.126 1.392 8.25 8.25 0 0 0 .12 1.397l-2.276 1.58 2.625 4.546 2.507-1.18a8.25 8.25 0 0 0 2.417 1.386l.232 2.771h5.25l.231-2.766a8.25 8.25 0 0 0 2.411-1.394l2.514 1.184 2.625-4.547-2.282-1.585a8.25 8.25 0 0 0 .126-1.392 8.25 8.25 0 0 0-.12-1.397l2.276-1.58-2.625-4.546-2.508 1.18a8.25 8.25 0 0 0-2.417-1.386l-.231-2.771zm2.625 7.5a3 3 0 0 1 3 3 3 3 0 0 1-3 3 3 3 0 0 1-3-3 3 3 0 0 1 3-3z" fill="#fff"/></g></svg>