<svg version="1.0" viewBox="0 0 48 48" xmlns="http://www.w3.org/2000/svg"><g transform="translate(-190 -236)"><rect x="192" y="238" width="44" height="46" ry="22" fill="#ededed"/><path d="M214 238c-12.188 0-22 9.812-22 22v2c0 12.188 9.812 22 22 22s22-9.812 22-22v-2c0-12.188-9.812-22-22-22zm0 1a21 21 0 0 1 21 21 21 21 0 0 1-21 21 21 21 0 0 1-21-21 21 21 0 0 1 21-21z" fill-opacity=".502"/><g fill="#474341"><path d="M211.956 248.995a2.993 2.993 0 0 0-2.953 2.54v.46h5.11l6.89 6.89c.004 2.702-.003 5.403 0 8.104a2.997 2.997 0 0 0 2.953-2.994v-7.5a3 3 0 0 0-.826-2.068l-4.453-4.453c-.565-.581-1.411-.979-2.221-.979h-4.5z"/><path d="M206.946 253.99a2.993 2.993 0 0 0-2.953 2.54v12.92a2.993 2.993 0 0 0 2.953 2.54h9a3 3 0 0 0 3-3v-7.5a3 3 0 0 0-.826-2.068l-4.453-4.453c-.565-.58-1.411-.979-2.221-.979z"/></g></g></svg>