<svg version="1.0" viewBox="0 0 48 48" xmlns="http://www.w3.org/2000/svg"><g transform="translate(-190 -236)"><rect transform="matrix(0 -1 -1 0 0 0)" x="-284" y="-66" width="16" height="16" rx="8" ry="8" fill="#ffce51"/><rect transform="matrix(0 -1 -1 0 0 0)" x="-284" y="-24" width="8" height="8" rx="1" ry="1" fill="#888"/><circle cx="102" cy="272" r="12" fill="#ffce51"/><rect x="192" y="238" width="44" height="46" ry="22" fill="#ffce51"/><rect x="135" y="253" width="30" height="31" ry="15" fill="#ffce51"/><path d="M150 253c-8.31 0-15 6.69-15 15v1c0 8.31 6.69 15 15 15s15-6.69 15-15v-1c0-8.31-6.69-15-15-15zm0 1a14 14 0 0 1 14 14 14 14 0 0 1-14 14 14 14 0 0 1-14-14 14 14 0 0 1 14-14z" fill-opacity=".502"/><rect x="260" y="222" width="60" height="62" ry="30" fill="#ffce51"/><path d="M290 222c-16.62 0-30 13.38-30 30v2c0 16.62 13.38 30 30 30s30-13.38 30-30v-2c0-16.62-13.38-30-30-30zm0 1a29 29 0 0 1 29 29 29 29 0 0 1-29 29 29 29 0 0 1-29-29 29 29 0 0 1 29-29z" fill-opacity=".502"/><rect x="16.5" y="276.5" width="7" height="7" ry=".5" fill="#ffce51" stroke="#000" stroke-linecap="square" stroke-opacity=".502"/><rect x="50.5" y="268.5" width="15" height="15" ry="7.5" fill="none" stroke="#000" stroke-linecap="square" stroke-opacity=".502"/><rect x="90.5" y="260.5" width="23" height="23" ry="11.478" fill="none" stroke="#000" stroke-linecap="square" stroke-opacity=".502"/><path d="M214 238c-12.188 0-22 9.812-22 22v2c0 12.188 9.812 22 22 22s22-9.812 22-22v-2c0-12.188-9.812-22-22-22zm0 1a21 21 0 0 1 21 21 21 21 0 0 1-21 21 21 21 0 0 1-21-21 21 21 0 0 1 21-21z" fill-opacity=".502"/><path d="M96 266c-1.108 0-2 .892-2 2v8c0 1.108.892 2 2 2h12c1.108 0 2-.892 2-2v-8c0-1.108-.892-2-2-2zm0 2 6 3 6-3v2l-6 3-6-3zm2 3.996 1.25.639-3.25 3.361v-2zm8 0 2 2v2l-3.25-3.361z" fill="#474341"/><path d="M144 262c-1.108 0-2 .892-2 2v8c0 1.108.892 2 2 2h12c1.108 0 2-.892 2-2v-8c0-1.108-.892-2-2-2zm0 2 6 3 6-3v2l-6 3-6-3zm2 3.996 1.25.639-3.25 3.361v-2zm8 0 2 2v2l-3.25-3.361z" fill="#474341"/><path d="M205 252c-1.662 0-3 1.338-3 3v12c0 1.662 1.338 3 3 3h18c1.662 0 3-1.338 3-3v-12c0-1.662-1.338-3-3-3zm0 3 9 4.5 9-4.5v3l-9 4.5-9-4.5zm3 5.994 1.875.958-4.875 5.042v-3zm12 0 3 3v3l-4.875-5.042z" fill="#474341"/><path d="M278 241c-2.216 0-4 1.784-4 4v16c0 2.216 1.784 4 4 4h24c2.216 0 4-1.784 4-4v-16c0-2.216-1.784-4-4-4zm0 4 12 6 12-6v4l-12 6-12-6zm4 7.992 2.5 1.278-6.5 6.722v-4zm16 0 4 4v4l-6.5-6.722z" fill="#474341"/><path d="M55 273c-.554 0-1 .446-1 1v4c0 .554.446 1 1 1h6c.554 0 1-.446 1-1v-4c0-.554-.446-1-1-1zm0 1 3 1.5 3-1.5v1l-3 1.5-3-1.5zm1 1.998.625.32-1.625 1.68v-1zm4 0 1 1v1l-1.625-1.68z" fill="#474341"/><path d="m17 277 3 1.5 3-1.5v2l-3 1.5-3-1.5zm1 2.998 1 .502-2 2.5v-2.002zm4 0 1 1V283l-2-2.5z" fill="#474341"/></g></svg>