<svg version="1.0" viewBox="0 0 48 48" xmlns="http://www.w3.org/2000/svg"><g transform="translate(-190 -236)"><rect x="192" y="238" width="44" height="46" ry="22" fill="#dedede"/><path d="M214 238c-12.188 0-22 9.812-22 22v2c0 12.188 9.812 22 22 22s22-9.812 22-22v-2c0-12.188-9.812-22-22-22zm0 1a21 21 0 0 1 21 21 21 21 0 0 1-21 21 21 21 0 0 1-21-21 21 21 0 0 1 21-21z" fill-opacity=".502"/><path d="M206 252v5h9l-9.134 8.953c-.537.414-.815 1.105-.826 1.797H205V270h2.25v-.022c.692-.007 1.383-.294 1.797-.844 3.901-3.901 5.052-5.233 8.953-9.134v9h5v-17h-17z" fill="#474341"/></g></svg>