<svg version="1.0" viewBox="0 0 48 48" xmlns="http://www.w3.org/2000/svg"><g transform="translate(-190 -236)"><rect x="192" y="238" width="44" height="46" ry="22" fill="#3f51b5"/><path d="M214 238c-12.188 0-22 9.812-22 22v2c0 12.188 9.812 22 22 22s22-9.812 22-22v-2c0-12.188-9.812-22-22-22zm0 1a21 21 0 0 1 21 21 21 21 0 0 1-21 21 21 21 0 0 1-21-21 21 21 0 0 1 21-21z" fill-opacity=".502"/><g fill="#fcfcfd"><path d="M217.001 249.001v9h3.75l-6.75 10.5-6.75-10.5h3.75v-9z"/><path d="M206.501 270.001a1.5 1.5 0 0 0 0 3h15a1.5 1.5 0 0 0 0-3z"/></g></g></svg>