<svg version="1.0" viewBox="0 0 48 48" xmlns="http://www.w3.org/2000/svg"><g transform="translate(-190 -236)"><rect x="192" y="238" width="44" height="46" ry="22" fill="#f15d22"/><path d="M214 238c-12.188 0-22 9.812-22 22v2c0 12.188 9.812 22 22 22s22-9.812 22-22v-2c0-12.188-9.812-22-22-22zm0 1a21 21 0 0 1 21 21 21 21 0 0 1-21 21 21 21 0 0 1-21-21 21 21 0 0 1 21-21z" fill-opacity=".502"/><rect x="211" y="253" width="8" height="15" ry=".5" fill="#cf3b00"/><path d="M214 250c-5.799 0-10.5 4.701-10.5 10.5S208.201 271 214 271s10.5-4.701 10.5-10.5S219.799 250 214 250zm-1.5 4.5h3v4.5l-.375 3h-2.203l-.422-3zm1.5 8.625a1.875 1.875 0 1 1 0 3.75 1.875 1.875 0 0 1 0-3.75z" fill="#fff"/></g></svg>