<svg version="1.0" viewBox="0 0 48 48" xmlns="http://www.w3.org/2000/svg"><g transform="translate(-190 -236)"><rect transform="matrix(0 -1 -1 0 0 0)" x="-284" y="-66" width="16" height="16" rx="8" ry="8" fill="#f15d22"/><rect transform="matrix(0 -1 -1 0 0 0)" x="-284" y="-24" width="8" height="8" rx="1" ry="1" fill="#f15d22"/><circle cx="102" cy="272" r="12" fill="#f15d22"/><rect x="192" y="238" width="44" height="46" ry="22" fill="#f15d22"/><rect x="135" y="253" width="30" height="31" ry="15" fill="#f15d22"/><path d="M150 253c-8.31 0-15 6.69-15 15v1c0 8.31 6.69 15 15 15s15-6.69 15-15v-1c0-8.31-6.69-15-15-15zm0 1a14 14 0 0 1 14 14 14 14 0 0 1-14 14 14 14 0 0 1-14-14 14 14 0 0 1 14-14z" fill-opacity=".502"/><rect x="260" y="222" width="60" height="62" ry="30" fill="#f15d22"/><path d="M290 222c-16.62 0-30 13.38-30 30v2c0 16.62 13.38 30 30 30s30-13.38 30-30v-2c0-16.62-13.38-30-30-30zm0 1a29 29 0 0 1 29 29 29 29 0 0 1-29 29 29 29 0 0 1-29-29 29 29 0 0 1 29-29z" fill-opacity=".502"/><rect x="16.5" y="276.5" width="7" height="7" ry=".5" fill="none" stroke="#000" stroke-linecap="square" stroke-opacity=".502"/><rect x="50.5" y="268.5" width="15" height="15" ry="7.5" fill="none" stroke="#000" stroke-linecap="square" stroke-opacity=".502"/><rect x="90.5" y="260.5" width="23" height="23" ry="11.478" fill="none" stroke="#000" stroke-linecap="square" stroke-opacity=".502"/><path d="M214 238c-12.188 0-22 9.812-22 22v2c0 12.188 9.812 22 22 22s22-9.812 22-22v-2c0-12.188-9.812-22-22-22zm0 1a21 21 0 0 1 21 21 21 21 0 0 1-21 21 21 21 0 0 1-21-21 21 21 0 0 1 21-21z" fill-opacity=".502"/><rect x="99.5" y="266" width="5.5" height="12" ry=".5" fill="#cf3b00"/><path d="M102 265a7 7 0 1 0 0 14 7 7 0 0 0 0-14zm-1 3h2v3l-.25 2h-1.469l-.281-2zm1 5.75a1.25 1.25 0 1 1 0 2.5 1.25 1.25 0 0 1 0-2.5z" fill="#fff"/><rect x="148" y="263" width="4" height="10" ry=".5" fill="#cf3b00"/><path d="M150 261a7 7 0 1 0 0 14 7 7 0 0 0 0-14zm-1 3h2v3l-.25 2h-1.469l-.281-2zm1 5.75a1.25 1.25 0 1 1 0 2.5 1.25 1.25 0 0 1 0-2.5z" fill="#fff"/><rect x="211" y="253" width="8" height="15" ry=".5" fill="#cf3b00"/><path d="M214 250c-5.799 0-10.5 4.701-10.5 10.5S208.201 271 214 271s10.5-4.701 10.5-10.5S219.799 250 214 250zm-1.5 4.5h3v4.5l-.375 3h-2.203l-.422-3zm1.5 8.625a1.875 1.875 0 1 1 0 3.75 1.875 1.875 0 0 1 0-3.75z" fill="#fff"/><rect x="286" y="243" width="10" height="20" ry=".5" fill="#cf3b00"/><path d="M290 239c-7.732 0-14 6.268-14 14s6.268 14 14 14 14-6.268 14-14-6.268-14-14-14zm-2 6h4v6l-.5 4h-2.938l-.562-4zm2 11.5a2.5 2.5 0 1 1 0 5 2.5 2.5 0 0 1 0-5z" fill="#fff"/><rect x="56.5" y="271.5" width="3.5" height="9" ry=".5" fill="#cf3b00"/><path d="M58 271a5 5 0 0 0-5 5 5 5 0 0 0 5 5 5 5 0 0 0 5-5 5 5 0 0 0-5-5zm-1 1h2v3l-.25 2h-1.469L57 275zm1 5.75a1.25 1.25 0 1 1 0 2.5 1.25 1.25 0 0 1 0-2.5z" fill="#fff"/><path d="M19 277h2l-.5 3h-1z" fill="#fff"/><circle cx="20" cy="282" r="1" fill="#fff"/></g></svg>