<svg version="1.0" viewBox="0 0 128 128" xmlns="http://www.w3.org/2000/svg"><g transform="translate(-312 4644)"><path d="M339.5-4637a8.481 8.481 0 0 0-8.5 8.5v100c0 4.709 3.791 8.5 8.5 8.5h73c4.709 0 8.5-3.791 8.5-8.5v-76l-32.5-32.5z" fill="#6f6f6f"/><path d="M420-4604v72c0 4.432-3.568 8-8 8h-72c-4.432 0-8-3.568-8-8v-96c0-4.432 3.568-8 8-8h48" fill="#ececec"/><path d="M420-4600h-25c-4.432 0-8-3.568-8-8v-28h1l32 32z" fill="#6f6f6f" fill-opacity=".502"/><path d="M420-4604h-24c-4.432 0-8-3.568-8-8v-24" fill="#fafafa"/><ellipse cx="376" cy="-4559" rx="30" ry="15" fill="#777bb3"/></g></svg>