<svg version="1.0" viewBox="0 0 128 128" xmlns="http://www.w3.org/2000/svg"><path d="M49 12c-6.094 0-11 4.906-11 11v12H17.5a5.488 5.488 0 0 0-5.5 5.5V69h16c3.878 0 7 3.122 7 7 0 .243-.018.482-.035.72A9.97 9.97 0 0 1 25 86H12v28.5c0 3.047 2.453 5.5 5.5 5.5H39v-8c0-6.094 4.46-11 10-11s10 4.906 10 11v8h21.5c3.047 0 5.5-2.453 5.5-5.5V90h12c6.094 0 11-4.906 11-11v-3c0-6.094-4.906-11-11-11H86V40.5c0-3.047-2.453-5.5-5.5-5.5H60V23c0-6.094-4.906-11-11-11z" fill="#396247"/><path d="M49 13c-5.54 0-10 4.918-10 11.025V36H18c-2.77 0-5 2.23-5 5v24h12c6.094 0 11 4.906 11 11s-4.906 11-11 11H13v24c0 2.77 2.23 5 5 5h20v-8c0-6.094 4.906-11 11-11s11 4.906 11 11v8h20c2.77 0 5-2.23 5-5V86h11.975C103.083 86 108 81.54 108 76s-4.918-10-11.025-10H85V41c0-2.77-2.23-5-5-5H59V24.025C59 17.917 54.54 13 49 13z" fill="#73c48f"/></svg>