<svg version="1.0" viewBox="0 0 128 128" xmlns="http://www.w3.org/2000/svg"><path d="M27.5 7a8.481 8.481 0 0 0-8.5 8.5v100c0 4.709 3.791 8.5 8.5 8.5h73c4.709 0 8.5-3.791 8.5-8.5v-76L76.5 7z" fill="#671d00"/><path d="M108 40v72c0 4.432-3.568 8-8 8H28c-4.432 0-8-3.568-8-8V16c0-4.432 3.568-8 8-8h48" fill="#cf3b00"/><path d="M108 44H83c-4.432 0-8-3.568-8-8V8h1l32 32z" fill="#671d00" fill-opacity=".502"/><path d="M108 40H84c-4.432 0-8-3.568-8-8V8" fill="#f15d22"/><g fill="#f6f6f6"><path d="M52 92a8 8 0 0 0-8-8h-8v24h4v-8h4a8 8 0 0 0 8-8zm-4 0a4 4 0 0 1-4 4h-4v-8h4a4 4 0 0 1 4 4z"/><path d="M56 84v24h8c4.432 0 8-3.568 8-8v-8c0-4.432-3.568-8-8-8h-4zm4 4h4c2.216 0 4 1.784 4 4v8c0 2.216-1.784 4-4 4h-4z"/><path d="M76 84v24h4V98h8v-4h-8v-6h12v-4H78z"/></g></svg>