<svg version="1.0" viewBox="0 0 128 128" xmlns="http://www.w3.org/2000/svg"><g transform="translate(-312 2544)"><rect x="332" y="-2535" width="88" height="107" ry="5" fill="#425c0b"/><rect x="333" y="-2534" width="86" height="105" ry="5" fill="#dedede"/><rect x="332" y="-2536" width="86" height="100" ry="5" fill="#425c0b"/><rect x="333" y="-2535" width="84" height="98" ry="4.5" fill="#85b916"/><path d="M337.5-2535a4.49 4.49 0 0 0-4.5 4.5v97a4.49 4.49 0 0 0 4.5 4.5h1.5v-106z" fill="#293907"/><path d="m379-2473.3-12.329-12.33L379-2497.958l4.11 4.11-8.22 8.218 4.11 4.11 12.329-12.328-10.74-10.74a2.246 2.246 0 0 0-3.177 0l-17.371 17.371a2.247 2.247 0 0 0 0 3.178l17.37 17.37c.878.877 2.3.877 3.178 0l17.37-17.37c.878-.878.878-2.3 0-3.178l-2.521-2.52z" fill="#fff"/></g></svg>