<svg version="1.0" viewBox="0 0 128 128" xmlns="http://www.w3.org/2000/svg"><path d="M27.5 7a8.481 8.481 0 0 0-8.5 8.5v100c0 4.709 3.791 8.5 8.5 8.5h73c4.709 0 8.5-3.791 8.5-8.5v-76L76.5 7z" fill="#6f6f6f"/><path d="M108 40v72c0 4.432-3.568 8-8 8H28c-4.432 0-8-3.568-8-8V16c0-4.432 3.568-8 8-8h48" fill="#ececec"/><path d="M108 44H83c-4.432 0-8-3.568-8-8V8h1l32 32z" fill="#6f6f6f" fill-opacity=".502"/><path d="M108 40H84c-4.432 0-8-3.568-8-8V8" fill="#fafafa"/><path d="m58.75 61-.463 5.531a16.5 16.5 0 0 0-4.822 2.79l-5.027-2.368-5.25 9.094 4.564 3.17A16.5 16.5 0 0 0 47.5 82a16.5 16.5 0 0 0 .24 2.795l-4.553 3.158 5.25 9.094 5.016-2.362a16.5 16.5 0 0 0 4.834 2.772L58.75 103h10.5l.463-5.531a16.5 16.5 0 0 0 4.822-2.79l5.028 2.368 5.25-9.094-4.565-3.17A16.5 16.5 0 0 0 80.5 82a16.5 16.5 0 0 0-.24-2.795l4.552-3.158-5.25-9.094-5.015 2.361a16.5 16.5 0 0 0-4.834-2.77L69.25 61zM64 76a6 6 0 0 1 6 6 6 6 0 0 1-6 6 6 6 0 0 1-6-6 6 6 0 0 1 6-6z" fill="#474341" fill-opacity=".69"/></svg>