<svg version="1.0" viewBox="0 0 128 128" xmlns="http://www.w3.org/2000/svg"><path d="M27.5 7a8.481 8.481 0 0 0-8.5 8.5v100c0 4.709 3.791 8.5 8.5 8.5h73c4.709 0 8.5-3.791 8.5-8.5v-76L76.5 7z" fill="#6f6f6f"/><path d="M108 40v72c0 4.432-3.568 8-8 8H28c-4.432 0-8-3.568-8-8V16c0-4.432 3.568-8 8-8h48" fill="#ececec"/><path d="M108 44H83c-4.432 0-8-3.568-8-8V8h1l32 32z" fill="#6f6f6f" fill-opacity=".502"/><path d="M108 40H84c-4.432 0-8-3.568-8-8V8" fill="#fafafa"/><text x="351.472" y="-4240.56" fill="#817205" font-family="'Roboto Slab'" font-size="33.333" letter-spacing="0" word-spacing="0" style="line-height:1.25" xml:space="preserve" transform="translate(-312 4344)"><tspan x="351.472" y="-4240.56">{js}</tspan></text></svg>