<svg version="1.0" viewBox="0 0 128 128" xmlns="http://www.w3.org/2000/svg"><g transform="translate(-312 -156)"><rect x="332" y="164" width="88" height="116" ry="8" fill="#7b7b7b"/><rect x="333" y="165" width="86" height="110" ry="7.5" fill="#f6f6f6"/><g fill="#393634" fill-opacity=".51"><path d="m349.5 173 .5-1h-4v3h2c.435 0 1 0 1 1 0 .5 0 2-1 2-1.5 0-2-1-2-1v1.167s.5.833 2 .833 2-2 2-3c0-1.5-.25-2-2-2h-1v-1z"/><path d="M365.25 172c-1.75 0-2.25 1-2.25 4s0 3 2 3 2 0 2-2.5c0-1.5 0-1.5-2-1.5h-1c0-1.5.5-2 1-2h1.5l.5-1zm-.25 4c1 0 1 0 1 1s0 1-1 1-1 0-1-1v-1z"/><path d="m373 172-.5 1H370v2h2v1h-2v3h-1v-7z"/><path d="M380 172h4v1l-2.5 6-1-.5 2.5-5.5h-3z"/><path d="M354 172a2 3.5 0 0 0-2 3.5 2 3.5 0 0 0 2 3.5 2 3.5 0 0 0 2-3.5 2 3.5 0 0 0-2-3.5zm0 1a1 2.5 0 0 1 1 2.5 1 2.5 0 0 1-1 2.5 1 2.5 0 0 1-1-2.5 1 2.5 0 0 1 1-2.5z"/><path d="M388 172a2 3.5 0 0 0-2 3.5 2 3.5 0 0 0 2 3.5 2 3.5 0 0 0 2-3.5 2 3.5 0 0 0-2-3.5zm0 1a1 2.5 0 0 1 1 2.5 1 2.5 0 0 1-1 2.5 1 2.5 0 0 1-1-2.5 1 2.5 0 0 1 1-2.5z"/><path d="m400.5 173 .5-1h-4v3h2c.435 0 1 0 1 1 0 .5 0 2-1 2-1.5 0-2-1-2-1v1.167s.5.833 2 .833 2-2 2-3c0-1.5-.25-2-2-2h-1v-1z"/><path d="m407 172-.5 1H404v2h2v1h-2v3h-1v-7z"/><path d="m390 187-.5 1H387v2h2v1h-2v3h-1v-7z"/><path d="m373 247-.5 1H370v2h2v1h-2v3h-1v-7z"/><path d="m407 187-.5 1H404v2h2v1h-2v2h2.5l.5 1h-4v-7z"/><path d="m406 217-.5 1H403v2h2v1h-2v2h2.5l.5 1h-4v-7z"/><path d="m406.5 232-.5 1h-2.5v2h2v1h-2v2h2.5l.5 1h-4v-7z"/><path d="m406.5 262-.5 1h-2.5v2h2v1h-2v3h-1v-7z"/><path d="M348.25 187c-1.75 0-2.25 1-2.25 4s0 3 2 3 2 0 2-2.5c0-1.5 0-1.5-2-1.5h-1c0-1.5.5-2 1-2h1.5l.5-1zm-.25 4c1 0 1 0 1 1s0 1-1 1-1 0-1-1v-1z"/><path d="M365.25 187c-1.75 0-2.25 1-2.25 4s0 3 2 3 2 0 2-2.5c0-1.5 0-1.5-2-1.5h-1c0-1.5.5-2 1-2h1.5l.5-1zm-.25 4c1 0 1 0 1 1s0 1-1 1-1 0-1-1v-1z"/><path d="M382.25 187c-1.75 0-2.25 1-2.25 4s0 3 2 3 2 0 2-2.5c0-1.5 0-1.5-2-1.5h-1c0-1.5.5-2 1-2h1.5l.5-1zm-.25 4c1 0 1 0 1 1s0 1-1 1-1 0-1-1v-1z"/><path d="M399.25 187c-1.75 0-2.25 1-2.25 4s0 3 2 3 2 0 2-2.5c0-1.5 0-1.5-2-1.5h-1c0-1.5.5-2 1-2h1.5l.5-1zm-.25 4c1 0 1 0 1 1s0 1-1 1-1 0-1-1v-1z"/><path d="M382.25 202c-1.75 0-2.25 1-2.25 4s0 3 2 3 2 0 2-2.5c0-1.5 0-1.5-2-1.5h-1c0-1.5.5-2 1-2h1.5l.5-1zm-.25 4c1 0 1 0 1 1s0 1-1 1-1 0-1-1v-1z"/><path d="M382.25 217c-1.75 0-2.25 1-2.25 4s0 3 2 3 2 0 2-2.5c0-1.5 0-1.5-2-1.5h-1c0-1.5.5-2 1-2h1.5l.5-1zm-.25 4c1 0 1 0 1 1s0 1-1 1-1 0-1-1v-1z"/><path d="M382.25 232c-1.75 0-2.25 1-2.25 4s0 3 2 3 2 0 2-2.5c0-1.5 0-1.5-2-1.5h-1c0-1.5.5-2 1-2h1.5l.5-1zm-.25 4c1 0 1 0 1 1s0 1-1 1-1 0-1-1v-1z"/><path d="M365.25 247c-1.75 0-2.25 1-2.25 4s0 3 2 3 2 0 2-2.5c0-1.5 0-1.5-2-1.5h-1c0-1.5.5-2 1-2h1.5l.5-1zm-.25 4c1 0 1 0 1 1s0 1-1 1-1 0-1-1v-1z"/><path d="M399.25 217c-1.75 0-2.25 1-2.25 4s0 3 2 3 2 0 2-2.5c0-1.5 0-1.5-2-1.5h-1c0-1.5.5-2 1-2h1.5l.5-1zm-.25 4c1 0 1 0 1 1s0 1-1 1-1 0-1-1v-1z"/><path d="M399.25 232c-1.75 0-2.25 1-2.25 4s0 3 2 3 2 0 2-2.5c0-1.5 0-1.5-2-1.5h-1c0-1.5.5-2 1-2h1.5l.5-1zm-.25 4c1 0 1 0 1 1s0 1-1 1-1 0-1-1v-1z"/><path d="M369 194v-1h3v-2h-2v-1h2v-2h-2.5v-1h3.5v7z"/><path d="M352 209v-1h3v-2h-2v-1h2v-2h-2.5v-1h3.5v7z"/><path d="M369 239v-1h3v-2h-2v-1h2v-2h-2.5v-1h3.5v7z"/><path d="M397 202h4v1l-2.5 6-1-.5 2.5-5.5h-3z"/><path d="M346 202h4v1l-2.5 6-1-.5 2.5-5.5h-3z"/><path d="M346 247h4v1l-2.5 6-1-.5 2.5-5.5h-3z"/><path d="M380 247h4v1l-2.5 6-1-.5 2.5-5.5h-3z"/><path d="M380 262h4v1l-2.5 6-1-.5 2.5-5.5h-3z"/><path d="M363 262h4v1l-2.5 6-1-.5 2.5-5.5h-3z"/><path d="M348.25 262c-1.75 0-2.25 1-2.25 4s0 3 2 3 2 0 2-2.5c0-1.5 0-1.5-2-1.5h-1c0-1.5.5-2 1-2h1.5l.5-1zm-.25 4c1 0 1 0 1 1s0 1-1 1-1 0-1-1v-1z"/><path d="m366.5 233 .5-1h-4v3h2c.435 0 1 0 1 1 0 .5 0 2-1 2-1.5 0-2-1-2-1v1.167s.5.833 2 .833 2-2 2-3c0-1.5-.25-2-2-2h-1v-1z"/><path d="m355.5 263 .5-1h-4v3h2c.435 0 1 0 1 1 0 .5 0 2-1 2-1.5 0-2-1-2-1v1.167s.5.833 2 .833 2-2 2-3c0-1.5-.25-2-2-2h-1v-1z"/><path d="M399.25 247c-1.75 0-2.25 1-2.25 4s0 3 2 3 2 0 2-2.5c0-1.5 0-1.5-2-1.5h-1c0-1.5.5-2 1-2h1.5l.5-1zm-.25 4c1 0 1 0 1 1s0 1-1 1-1 0-1-1v-1z"/><path d="M399.25 262c-1.75 0-2.25 1-2.25 4s0 3 2 3 2 0 2-2.5c0-1.5 0-1.5-2-1.5h-1c0-1.5.5-2 1-2h1.5l.5-1zm-.25 4c1 0 1 0 1 1s0 1-1 1-1 0-1-1v-1z"/><path d="M371 202a2 3.5 0 0 0-2 3.5 2 3.5 0 0 0 2 3.5 2 3.5 0 0 0 2-3.5 2 3.5 0 0 0-2-3.5zm0 1a1 2.5 0 0 1 1 2.5 1 2.5 0 0 1-1 2.5 1 2.5 0 0 1-1-2.5 1 2.5 0 0 1 1-2.5z"/><path d="M354 217a2 3.5 0 0 0-2 3.5 2 3.5 0 0 0 2 3.5 2 3.5 0 0 0 2-3.5 2 3.5 0 0 0-2-3.5zm0 1a1 2.5 0 0 1 1 2.5 1 2.5 0 0 1-1 2.5 1 2.5 0 0 1-1-2.5 1 2.5 0 0 1 1-2.5z"/><path d="M354 232a2 3.5 0 0 0-2 3.5 2 3.5 0 0 0 2 3.5 2 3.5 0 0 0 2-3.5 2 3.5 0 0 0-2-3.5zm0 1a1 2.5 0 0 1 1 2.5 1 2.5 0 0 1-1 2.5 1 2.5 0 0 1-1-2.5 1 2.5 0 0 1 1-2.5z"/><path d="M388 247a2 3.5 0 0 0-2 3.5 2 3.5 0 0 0 2 3.5 2 3.5 0 0 0 2-3.5 2 3.5 0 0 0-2-3.5zm0 1a1 2.5 0 0 1 1 2.5 1 2.5 0 0 1-1 2.5 1 2.5 0 0 1-1-2.5 1 2.5 0 0 1 1-2.5z"/><path d="M403.75 254c1.75 0 2.25-1 2.25-4s0-3-2-3-2 0-2 2.5c0 1.5 0 1.5 2 1.5h1c0 1.5-.5 2-1 2h-1.5l-.5 1zm.25-4c-1 0-1 0-1-1s0-1 1-1 1 0 1 1v1z"/><path d="M370.75 224c1.75 0 2.25-1 2.25-4s0-3-2-3-2 0-2 2.5c0 1.5 0 1.5 2 1.5h1c0 1.5-.5 2-1 2h-1.5l-.5 1zm.25-4c-1 0-1 0-1-1s0-1 1-1 1 0 1 1v1z"/><path d="M403.75 209c1.75 0 2.25-1 2.25-4s0-3-2-3-2 0-2 2.5c0 1.5 0 1.5 2 1.5h1c0 1.5-.5 2-1 2h-1.5l-.5 1zm.25-4c-1 0-1 0-1-1s0-1 1-1 1 0 1 1v1z"/><path d="M353.75 194c1.75 0 2.25-1 2.25-4s0-3-2-3-2 0-2 2.5c0 1.5 0 1.5 2 1.5h1c0 1.5-.5 2-1 2h-1.5l-.5 1zm.25-4c-1 0-1 0-1-1s0-1 1-1 1 0 1 1v1z"/><path d="M367 208v1h-4v-1c0-1.5 3-1 3-3 0-1.5 0-2-1-2-1.5 0-2 .5-2 .5v-1s.5-.5 2-.5c2 0 2 1 2 3 0 2.688-1.5 2-3 3z"/><path d="M390 208v1h-4v-1c0-1.5 3-1 3-3 0-1.5 0-2-1-2-1.5 0-2 .5-2 .5v-1s.5-.5 2-.5c2 0 2 1 2 3 0 2.688-1.5 2-3 3z"/><path d="M350 223v1h-4v-1c0-1.5 3-1 3-3 0-1.5 0-2-1-2-1.5 0-2 .5-2 .5v-1s.5-.5 2-.5c2 0 2 1 2 3 0 2.688-1.5 2-3 3z"/><path d="M350 238v1h-4v-1c0-1.5 3-1 3-3 0-1.5 0-2-1-2-1.5 0-2 .5-2 .5v-1s.5-.5 2-.5c2 0 2 1 2 3 0 2.688-1.5 2-3 3z"/><path d="M390 268v1h-4v-1c0-1.5 3-1 3-3 0-1.5 0-2-1-2-1.5 0-2 .5-2 .5v-1s.5-.5 2-.5c2 0 2 1 2 3 0 2.688-1.5 2-3 3z"/><path d="m364 217-1 4v1h2v2h1v-2l1-.5v-.5h-1v-1h-.5l-.5 1h-1l.918-3.606z"/><path d="m353 247-1 4v1h2v2h1v-2l1-.5v-.5h-1v-1h-.5l-.5 1h-1l.918-3.606z"/><path d="m370 262-1 4v1h2v2h1v-2l1-.5v-.5h-1v-1h-.5l-.5 1h-1l.918-3.606z"/><path d="m386 224 .5-1h1.5v-5h-1.5l.5-1h2v6h1v1z"/><path d="m386 239 .5-1h1.5v-5h-1.5l.5-1h2v6h1v1z"/></g></g></svg>