<svg version="1.0" viewBox="0 0 128 128" xmlns="http://www.w3.org/2000/svg"><path d="M27.5 7a8.481 8.481 0 0 0-8.5 8.5v100c0 4.709 3.791 8.5 8.5 8.5h73c4.709 0 8.5-3.791 8.5-8.5v-76L76.5 7z" fill="#6f6f6f"/><path d="M108 40v72c0 4.432-3.568 8-8 8H28c-4.432 0-8-3.568-8-8V16c0-4.432 3.568-8 8-8h48" fill="#ececec"/><path d="M108 44H83c-4.432 0-8-3.568-8-8V8h1l32 32z" fill="#6f6f6f" fill-opacity=".502"/><path d="M108 40H84c-4.432 0-8-3.568-8-8V8" fill="#fafafa"/><path d="M364-6983c-1.662 0-2.824 1.347-3 3v3h-5c-1.662 0-3 1.338-3 3v24c0 1.662 1.338 3 3 3h5v3c0 1.662 1.338 3 3 3s3.169-1.347 3-3v-3h6v3c0 1.662 1.338 3 3 3s3-1.338 3-3v-3h6v3c0 1.662 1.338 3 3 3s3-1.338 3-3v-3h5c1.662 0 3-1.338 3-3v-24c0-1.662-1.338-3-3-3h-5v-3c0-1.662-1.338-3-3-3s-3 1.338-3 3v3h-6v-3c0-1.662-1.338-3-3-3s-3 1.338-3 3v3h-6v-3c0-1.662-1.338-3-3-3zm-5 12h34v3a6 6 0 0 0 0 12v3h-34z" fill="#474341" fill-opacity=".69" filter="url(#filter1113)" transform="translate(-312 7044)"/></svg>