<svg version="1.0" viewBox="0 0 128 128" xmlns="http://www.w3.org/2000/svg"><g transform="translate(-312 -156)"><rect x="320" y="184" width="112" height="88" ry="8.5" fill="#ffcc85"/><path d="M387 206a6 6 0 0 0-6 6v18.562c-.95-.34-1.933-.563-3-.563a9 9 0 1 0 9 9v-21h18v12.563c-.95-.341-1.933-.563-3-.563a9 9 0 1 0 9 9v-27a6 6 0 0 0-6-6z" fill-opacity=".196"/><path d="M387 205a6 6 0 0 0-6 6v18.562c-.95-.34-1.933-.563-3-.563a9 9 0 1 0 9 9v-21h18v12.563c-.95-.341-1.933-.563-3-.563a9 9 0 1 0 9 9v-27a6 6 0 0 0-6-6z" fill="#fff"/><rect x="320" y="184" width="28" height="88" ry="8.5" fill="#faa41a"/><path fill="#faa41a" d="M338 184h10v88h-10z"/><path d="M328.5 184a8.481 8.481 0 0 0-8.5 8.5v71c0 4.709 3.791 8.5 8.5 8.5h95c4.709 0 8.5-3.791 8.5-8.5v-71c0-4.709-3.791-8.5-8.5-8.5zm.5 1h94c4.432 0 8 3.568 8 8v67c0 4.432-3.568 8-8 8h-94c-4.432 0-8-3.568-8-8v-67c0-4.432 3.568-8 8-8z" fill-opacity=".502"/></g></svg>