<svg version="1.0" viewBox="0 0 128 128" xmlns="http://www.w3.org/2000/svg"><g transform="translate(-312 -156)"><rect x="102" y="259" width="28" height="22" ry="2.5" fill="#ffcc85"/><rect x="159" y="247" width="42" height="32" ry="3.75" fill="#ffcc85"/><rect x="228" y="234" width="56" height="44" ry="4.5" fill="#ffcc85"/><rect x="228" y="234" width="14" height="44" ry="4.5" fill="#faa41a"/><rect x="320" y="184" width="112" height="88" ry="8.5" fill="#ffcc85"/><rect x="480" y="84" width="224" height="176" ry="16.5" fill="#ffcc85"/><rect x="56" y="261" width="24" height="22" ry="2.5" fill="#ffcc85"/><rect x="16" y="268" width="16" height="15" ry="2.5" fill="#ffcc85"/><path d="M117 264a2 2 0 0 0-2 2v6.188a2.927 2.927 0 0 0-1-.188 3 3 0 1 0 3 3v-7h6v4.188a2.927 2.927 0 0 0-1-.188 3 3 0 1 0 3 3v-9a2 2 0 0 0-2-2z" fill-opacity=".196"/><path d="M184 256a2 2 0 0 0-2 2v6.188a2.927 2.927 0 0 0-1-.188 3 3 0 1 0 3 3v-7h6v4.188a2.927 2.927 0 0 0-1-.188 3 3 0 1 0 3 3v-9a2 2 0 0 0-2-2z" fill-opacity=".196"/><path d="M261 245a3 3 0 0 0-3 3v9.281a4.39 4.39 0 0 0-1.5-.281 4.5 4.5 0 1 0 4.5 4.5V251h9v6.281a4.39 4.39 0 0 0-1.5-.281 4.5 4.5 0 1 0 4.5 4.5V248a3 3 0 0 0-3-3z" fill-opacity=".196"/><path d="M387 206a6 6 0 0 0-6 6v18.562c-.95-.34-1.933-.563-3-.563a9 9 0 1 0 9 9v-21h18v12.563c-.95-.341-1.933-.563-3-.563a9 9 0 1 0 9 9v-27a6 6 0 0 0-6-6z" fill-opacity=".196"/><path d="M612 129a12 12 0 0 0-12 12v37.125c-1.899-.681-3.867-1.125-6-1.125-9.941 0-18 8.059-18 18s8.059 18 18 18 18-8.059 18-18v-42h36v25.125c-1.899-.681-3.867-1.125-6-1.125-9.941 0-18 8.059-18 18s8.059 18 18 18 18-8.059 18-18v-54a12 12 0 0 0-12-12z" fill-opacity=".196"/><path d="M70 266a2 2 0 0 0-2 2v6.188a2.927 2.927 0 0 0-1-.188 3 3 0 1 0 3 3v-7h6v4.188a2.927 2.927 0 0 0-1-.188 3 3 0 1 0 3 3v-9a2 2 0 0 0-2-2z" fill-opacity=".196"/><path d="M25 273a1 1 0 0 0-1 1v3.094a1.464 1.464 0 0 0-.5-.094 1.5 1.5 0 1 0 1.5 1.5V275h3v2.094a1.464 1.464 0 0 0-.5-.094 1.5 1.5 0 1 0 1.5 1.5V274a1 1 0 0 0-1-1z" fill-opacity=".196"/><path d="M117 263a2 2 0 0 0-2 2v6.188a2.927 2.927 0 0 0-1-.188 3 3 0 1 0 3 3v-7h6v4.188a2.927 2.927 0 0 0-1-.188 3 3 0 1 0 3 3v-9a2 2 0 0 0-2-2z" fill="#fff"/><path d="M184 255a2 2 0 0 0-2 2v6.188a2.927 2.927 0 0 0-1-.188 3 3 0 1 0 3 3v-7h6v4.188a2.927 2.927 0 0 0-1-.188 3 3 0 1 0 3 3v-9a2 2 0 0 0-2-2z" fill="#fff"/><path d="M261 244a3 3 0 0 0-3 3v9.281a4.39 4.39 0 0 0-1.5-.281 4.5 4.5 0 1 0 4.5 4.5V250h9v6.281a4.39 4.39 0 0 0-1.5-.281 4.5 4.5 0 1 0 4.5 4.5V247a3 3 0 0 0-3-3z" fill="#fff"/><path d="M387 205a6 6 0 0 0-6 6v18.562c-.95-.34-1.933-.563-3-.563a9 9 0 1 0 9 9v-21h18v12.563c-.95-.341-1.933-.563-3-.563a9 9 0 1 0 9 9v-27a6 6 0 0 0-6-6z" fill="#fff"/><path d="M612 128a12 12 0 0 0-12 12v37.125c-1.899-.681-3.867-1.125-6-1.125-9.941 0-18 8.059-18 18s8.059 18 18 18 18-8.059 18-18v-42h36v25.125c-1.899-.681-3.867-1.125-6-1.125-9.941 0-18 8.059-18 18s8.059 18 18 18 18-8.059 18-18v-54a12 12 0 0 0-12-12z" fill="#fff"/><path d="M70 265a2 2 0 0 0-2 2v6.188a2.927 2.927 0 0 0-1-.188 3 3 0 1 0 3 3v-7h6v4.188a2.927 2.927 0 0 0-1-.188 3 3 0 1 0 3 3v-9a2 2 0 0 0-2-2z" fill="#fff"/><path d="M25 272a1 1 0 0 0-1 1v3.094a1.464 1.464 0 0 0-.5-.094 1.5 1.5 0 1 0 1.5 1.5V274h3v2.094a1.464 1.464 0 0 0-.5-.094 1.5 1.5 0 1 0 1.5 1.5V273a1 1 0 0 0-1-1z" fill="#fff"/><rect x="102" y="259" width="7" height="22" ry="2.5" fill="#faa41a"/><path fill="#faa41a" d="M105 259h4v22h-4z"/><path d="M104.5 259a2.495 2.495 0 0 0-2.5 2.5v17c0 1.385 1.115 2.5 2.5 2.5h23c1.385 0 2.5-1.115 2.5-2.5v-17c0-1.385-1.115-2.5-2.5-2.5zm.5 1h22c1.108 0 2 .892 2 2v15c0 1.108-.892 2-2 2h-22c-1.108 0-2-.892-2-2v-15c0-1.108.892-2 2-2z" fill-opacity=".502"/><rect x="159" y="247" width="11" height="32" ry="3.75" fill="#faa41a"/><rect x="56" y="261" width="6" height="22" ry="2.5" fill="#faa41a"/><rect x="320" y="184" width="28" height="88" ry="8.5" fill="#faa41a"/><rect x="480" y="84" width="56" height="176" ry="16.5" fill="#faa41a"/><rect x="59" y="261" width="3" height="22" ry="0" fill="#faa41a"/><path d="M58.5 261a2.495 2.495 0 0 0-2.5 2.5v17c0 1.385 1.115 2.5 2.5 2.5h19c1.385 0 2.5-1.115 2.5-2.5v-17c0-1.385-1.115-2.5-2.5-2.5zm.5 1h18c1.108 0 2 .892 2 2v16c0 1.108-.892 2-2 2H59c-1.108 0-2-.892-2-2v-16c0-1.108.892-2 2-2z" fill-opacity=".502"/><path d="M18.248 268.03A2.485 2.485 0 0 0 16 270.505v10c0 1.298.984 2.347 2.248 2.474A1.988 1.988 0 0 0 20 281.005v-11a1.988 1.988 0 0 0-1.752-1.975z" fill="#faa41a"/><path d="M18.5 268a2.57 2.57 0 0 0-.5.05v14.899c.161.032.329.05.5.05H20v-15z" fill="#faa41a"/><path d="M18.5 268a2.495 2.495 0 0 0-2.5 2.5v10c0 1.385 1.115 2.5 2.5 2.5h11c1.385 0 2.5-1.115 2.5-2.5v-10c0-1.385-1.115-2.5-2.5-2.5zm.5 1h10c1.108 0 2 .892 2 2v9c0 1.108-.892 2-2 2H19c-1.108 0-2-.892-2-2v-9c0-1.108.892-2 2-2z" fill-opacity=".502"/><path fill="#faa41a" d="M165 247h5v32h-5z"/><path d="M162.75 247a3.742 3.742 0 0 0-3.75 3.75v24.5a3.742 3.742 0 0 0 3.75 3.75h34.5a3.742 3.742 0 0 0 3.75-3.75v-24.5a3.742 3.742 0 0 0-3.75-3.75zm.25 1h34c1.662 0 3 1.338 3 3v22c0 1.662-1.338 3-3 3h-34c-1.662 0-3-1.338-3-3v-22c0-1.662 1.338-3 3-3z" fill-opacity=".502"/><path fill="#faa41a" d="M237 234h5v44h-5z"/><path d="M232.5 234a4.49 4.49 0 0 0-4.5 4.5v35a4.49 4.49 0 0 0 4.5 4.5h47a4.49 4.49 0 0 0 4.5-4.5v-35a4.49 4.49 0 0 0-4.5-4.5zm.5 1h46c2.216 0 4 1.784 4 4v32c0 2.216-1.784 4-4 4h-46c-2.216 0-4-1.784-4-4v-32c0-2.216 1.784-4 4-4z" fill-opacity=".502"/><path fill="#faa41a" d="M338 184h10v88h-10z"/><path d="M328.5 184a8.481 8.481 0 0 0-8.5 8.5v71c0 4.709 3.791 8.5 8.5 8.5h95c4.709 0 8.5-3.791 8.5-8.5v-71c0-4.709-3.791-8.5-8.5-8.5zm.5 1h94c4.432 0 8 3.568 8 8v67c0 4.432-3.568 8-8 8h-94c-4.432 0-8-3.568-8-8v-67c0-4.432 3.568-8 8-8z" fill-opacity=".502"/><path fill="#faa41a" d="M510 84h26v176h-26z"/><path d="M496.5 84c-9.141 0-16.5 7.359-16.5 16.5v143c0 9.141 7.359 16.5 16.5 16.5h191c9.141 0 16.5-7.359 16.5-16.5v-143c0-9.141-7.359-16.5-16.5-16.5zm.5 1h190c8.864 0 16 7.136 16 16v138c0 8.864-7.136 16-16 16H497c-8.864 0-16-7.136-16-16V101c0-8.864 7.136-16 16-16z" fill-opacity=".502"/></g></svg>