<svg version="1.0" viewBox="0 0 128 128" xmlns="http://www.w3.org/2000/svg"><g transform="translate(-312 -156)"><rect x="320" y="184" width="112" height="88" ry="8" fill="#245c63"/><rect x="321" y="185" width="110" height="83" ry="7.5" fill="#48b9c7"/><rect x="332" y="196" width="88" height="60" ry="4" fill="#f6f6f6"/><path d="M348 214v32h56v-32zm28 4a12 12 0 0 1 12 12 12 12 0 0 1-12 12 12 12 0 0 1-12-12 12 12 0 0 1 12-12z" fill="#1c8d9b" fill-opacity=".502"/><path d="m372 202-8 8h-12c-2.216 0-4 1.784-4 4h56c0-2.216-1.784-4-4-4h-12l-8-8zm-24 44c0 2.216 1.784 4 4 4h48c2.216 0 4-1.784 4-4z" fill="#1c8d9b"/></g><style>.st0{fill:#261300}.st1{fill:#ff7c00}</style></svg>