<svg version="1.0" viewBox="0 0 128 128" xmlns="http://www.w3.org/2000/svg"><path d="M27.5 7a8.481 8.481 0 0 0-8.5 8.5v100c0 4.709 3.791 8.5 8.5 8.5h73c4.709 0 8.5-3.791 8.5-8.5v-76L76.5 7z" fill="#6f6f6f"/><path d="M108 40v72c0 4.432-3.568 8-8 8H28c-4.432 0-8-3.568-8-8V16c0-4.432 3.568-8 8-8h48" fill="#ececec"/><path d="M108 44H83c-4.432 0-8-3.568-8-8V8h1l32 32z" fill="#6f6f6f" fill-opacity=".502"/><path d="M108 40H84c-4.432 0-8-3.568-8-8V8" fill="#fafafa"/><path d="m64 84.4 16-7.415v20l-16 7.354z" fill="#888" opacity=".5"/><path d="m376-5781-1.375.646-18.857 9.046-1.768.831v27.323l1.768.83 18.857 8.677L376-5733l1.375-.647 18.857-8.861 1.768-.83v-27.324l-1.768-.83-18.857-8.862zm0 6.646 16 7.354v20l-16 7.354v-19.939l-1.375-.646-14.625-6.77z" color="#000" fill="#888" style="text-decoration-line:none;text-indent:0;text-transform:none" transform="translate(-312 5844)"/></svg>