<svg version="1.0" viewBox="0 0 128 128" xmlns="http://www.w3.org/2000/svg"><g transform="translate(-312 3444)"><rect x="324" y="-3432" width="108" height="104" ry="6" fill="#a19282"/><rect x="325" y="-3431" width="106" height="67" ry="5.5" fill="#d7c3ad"/><path d="M354-3345h48m20-16-20 16 20 12m-88-28 20 16-20 12" fill="none" stroke="#000" stroke-opacity=".251"/><g fill="#635749"><path d="M368-3386h4v-8h8v8h4v-16a8 8 0 0 0-8-8 8 8 0 0 0-8 8zm4-12v-4a4 4 0 0 1 4-4 4 4 0 0 1 4 4v4z"/><path d="M388-3386h4v-8h4l4 8h4l-3.703-9.258A8 8 0 0 0 404-3402a8 8 0 0 0-8-8h-8v8zm4-12v-8h4a4 4 0 0 1 4 4 4 4 0 0 1-4 4z"/><path d="M355-3410v4h4v20h4v-20h4v-4z"/></g></g></svg>