<svg version="1.0" viewBox="0 0 128 128" xmlns="http://www.w3.org/2000/svg"><defs><linearGradient id="a" x1="60" x2="68" y1="268" y2="268" gradientUnits="userSpaceOnUse"><stop stop-color="#949390" offset="0"/><stop stop-color="#d5d3cf" offset=".083"/><stop stop-color="#949390" offset=".167"/><stop stop-color="#949390" offset=".833"/><stop stop-color="#d5d3cf" offset=".917"/><stop stop-color="#949390" offset="1"/></linearGradient></defs><g transform="translate(-312 -156)"><rect x="324" y="168" width="108" height="104" ry="6" fill="#a19282"/><rect x="325" y="169" width="106" height="67" ry="5.5" fill="#d7c3ad"/><path d="M354 254.98h48m20-16-20 16 20 12m-88-28 20 16-20 12" fill="none" stroke="#000" stroke-opacity=".251"/></g><g fill-opacity=".251"><path d="M35.5 13h4v67h-4z"/><path fill="#fff" d="M39.5 13h4v67h-4z"/></g><g transform="matrix(2 0 0 2 -316.5 131)" fill-opacity=".502"><rect x="176" y="-59" width="2" height="2" ry="0"/><path d="M176-55h2v2h-2z"/><path d="M176-51h2v2h-2z"/><path d="M176-47h2v2h-2z"/><path d="M176-43h2v2h-2z"/><path d="M176-39h2v2h-2z"/><path d="M176-35h2v2h-2z"/></g><g transform="matrix(2 0 0 2 -316.5 135)" fill="#fdfdfd" fill-opacity=".502"><rect x="176" y="-59" width="2" height="2" ry="0"/><path d="M176-55h2v2h-2z"/><path d="M176-51h2v2h-2z"/><path d="M176-47h2v2h-2z"/><path d="M176-43h2v2h-2z"/><path d="M176-39h2v2h-2z"/></g><g transform="matrix(2 0 0 2 -312.5 131)" fill="#f4f4f4" fill-opacity=".502"><rect x="176" y="-59" width="2" height="2" ry="0"/><path d="M176-55h2v2h-2z"/><path d="M176-51h2v2h-2z"/><path d="M176-47h2v2h-2z"/><path d="M176-43h2v2h-2z"/><path d="M176-39h2v2h-2z"/><path d="M176-35h2v2h-2z"/></g><g transform="matrix(2 0 0 2 -312.5 135)" fill="#131313" fill-opacity=".502"><rect x="176" y="-59" width="2" height="2" ry="0"/><path d="M176-55h2v2h-2z"/><path d="M176-51h2v2h-2z"/><path d="M176-47h2v2h-2z"/><path d="M176-43h2v2h-2z"/><path d="M176-39h2v2h-2z"/></g><g transform="matrix(2 0 0 2 -316.5 187)" fill-opacity=".502"><rect x="176" y="-59" width="2" height="2" ry="0"/><path d="M176-55h2v1.5h-2z"/></g><g transform="matrix(2 0 0 2 -316.5 183)" fill="#fdfdfd" fill-opacity=".502"><rect x="176" y="-59" width="2" height="2" ry="0"/><path d="M176-55h2v2h-2z"/></g><g transform="matrix(2 0 0 2 -312.5 187)" fill="#f4f4f4" fill-opacity=".502"><rect x="176" y="-59" width="2" height="2" ry="0"/><path d="M176-55h2v1.5h-2z"/></g><g transform="matrix(2 0 0 2 -312.5 183)" fill="#131313" fill-opacity=".502"><rect x="176" y="-59" width="2" height="2" ry="0"/><path d="M176-55h2v2h-2z"/></g><g transform="translate(-24.5 -235)"><path d="M62 258c-1.108 0-2 .892-2 2v16c0 1.108.892 2 2 2h4c1.108 0 2-.892 2-2v-16c0-1.108-.892-2-2-2zm0 14h4v4h-4z" fill="url(#a)"/><rect x="56" y="250" width="16" height="18" rx="4" ry="4" fill="#3d3846"/><rect x="56" y="248" width="16" height="18" rx="4" ry="4" fill="#5e5c64"/><path d="M62 254c-1.108 0-2 .892-2 2v18c0 1.108.892 2 2 2h4c1.108 0 2-.892 2-2v-18c0-1.108-.892-2-2-2zm0 16h4v4h-4z" fill="#fff"/><rect transform="scale(1 -1)" x="62" y="-260" width="4" height="10" rx="2" ry="2" fill="#68676b" style="paint-order:normal"/><rect transform="scale(1 -1)" x="62" y="-258" width="4" height="8" rx="2" ry="2" fill="#949390" style="paint-order:normal"/></g><path d="M92 59h4v-8h4l4 8h4l-3.703-9.258A8 8 0 0 0 108 43a8 8 0 0 0-8-8h-8v8zm4-12v-8h4a4 4 0 0 1 4 4 4 4 0 0 1-4 4z" fill="#635749"/><path d="M52 59h4v-8h4l4 8h4l-3.703-9.258A8 8 0 0 0 68 43a8 8 0 0 0-8-8h-8v8zm4-12v-8h4a4 4 0 0 1 4 4 4 4 0 0 1-4 4z" fill="#635749"/><path d="M88 59h-4v-8h-8v8h-4V43a8 8 0 0 1 8-8 8 8 0 0 1 8 8zm-4-12v-4a4 4 0 0 0-4-4 4 4 0 0 0-4 4v4z" fill="#635749"/></svg>