<svg version="1.0" viewBox="0 0 128 128" xmlns="http://www.w3.org/2000/svg"><g transform="translate(-312 1944)"><rect x="324" y="-1932" width="108" height="104" ry="6" fill="#a19282"/><rect x="325" y="-1931" width="106" height="67" ry="5.5" fill="#d7c3ad"/><path d="M354-1845h48m20-16-20 16 20 12m-88-28 20 16-20 12" fill="none" stroke="#000" stroke-opacity=".251"/><g fill="#635749"><path d="M384-1902a8 8 0 0 0-8-8h-8v24h4v-8h4a8 8 0 0 0 8-8zm-4 0a4 4 0 0 1-4 4h-4v-8h4a4 4 0 0 1 4 4z"/><path d="M348-1886h4v-8h4l4 8h4l-3.703-9.258A8 8 0 0 0 364-1902a8 8 0 0 0-8-8h-8v8zm4-12v-8h4a4 4 0 0 1 4 4 4 4 0 0 1-4 4z"/><path d="M388-1886v-24h4l6 16 6-16h4v24h-4v-14l-4 14h-4l-4-14v14z"/></g></g></svg>