<svg version="1.0" viewBox="0 0 128 128" xmlns="http://www.w3.org/2000/svg"><defs><linearGradient id="a" x1="60" x2="68" y1="268" y2="268" gradientTransform="translate(287.5 -6079)" gradientUnits="userSpaceOnUse"><stop stop-color="#949390" offset="0"/><stop stop-color="#d5d3cf" offset=".083"/><stop stop-color="#949390" offset=".167"/><stop stop-color="#949390" offset=".833"/><stop stop-color="#d5d3cf" offset=".917"/><stop stop-color="#949390" offset="1"/></linearGradient></defs><g transform="translate(-312 2844)"><rect x="324" y="-2832" width="108" height="104" ry="6" fill="#a19282"/><rect x="325" y="-2831" width="106" height="67" ry="5.5" fill="#d7c3ad"/><path d="M354-2745h48m20-16-20 16 20 12m-88-28 20 16-20 12" fill="none" stroke="#000" stroke-opacity=".251"/><g transform="translate(0 3000)"><path fill-opacity=".251" d="M347.5-5831h4v67h-4z"/><path fill="#fff" fill-opacity=".251" d="M351.5-5831h4v67h-4z"/><rect x="347.5" y="-5831" width="4" height="4" ry="0" fill-opacity=".502"/><path fill-opacity=".502" d="M347.5-5823h4v4h-4z"/><path fill-opacity=".502" d="M347.5-5815h4v4h-4z"/><path fill-opacity=".502" d="M347.5-5807h4v4h-4z"/><path fill-opacity=".502" d="M347.5-5799h4v4h-4z"/><path fill-opacity=".502" d="M347.5-5791h4v4h-4z"/><path fill-opacity=".502" d="M347.5-5783h4v4h-4z"/><rect x="347.5" y="-5827" width="4" height="4" ry="0" fill="#fdfdfd" fill-opacity=".502"/><path fill="#fdfdfd" fill-opacity=".502" d="M347.5-5819h4v4h-4z"/><path fill="#fdfdfd" fill-opacity=".502" d="M347.5-5811h4v4h-4z"/><path fill="#fdfdfd" fill-opacity=".502" d="M347.5-5803h4v4h-4z"/><path fill="#fdfdfd" fill-opacity=".502" d="M347.5-5795h4v4h-4z"/><path fill="#fdfdfd" fill-opacity=".502" d="M347.5-5787h4v4h-4z"/><rect x="351.5" y="-5831" width="4" height="4" ry="0" fill="#f4f4f4" fill-opacity=".502"/><path fill="#f4f4f4" fill-opacity=".502" d="M351.5-5823h4v4h-4z"/><path fill="#f4f4f4" fill-opacity=".502" d="M351.5-5815h4v4h-4z"/><path fill="#f4f4f4" fill-opacity=".502" d="M351.5-5807h4v4h-4z"/><path fill="#f4f4f4" fill-opacity=".502" d="M351.5-5799h4v4h-4z"/><path fill="#f4f4f4" fill-opacity=".502" d="M351.5-5791h4v4h-4z"/><path fill="#f4f4f4" fill-opacity=".502" d="M351.5-5783h4v4h-4z"/><rect x="351.5" y="-5827" width="4" height="4" ry="0" fill="#131313" fill-opacity=".502"/><path fill="#131313" fill-opacity=".502" d="M351.5-5819h4v4h-4z"/><path fill="#131313" fill-opacity=".502" d="M351.5-5811h4v4h-4z"/><path fill="#131313" fill-opacity=".502" d="M351.5-5803h4v4h-4z"/><path fill="#131313" fill-opacity=".502" d="M351.5-5795h4v4h-4z"/><path fill="#131313" fill-opacity=".502" d="M351.5-5787h4v4h-4z"/><rect x="347.5" y="-5775" width="4" height="4" ry="0" fill-opacity=".502"/><path fill-opacity=".502" d="M347.5-5767h4v3h-4z"/><rect x="347.5" y="-5779" width="4" height="4" ry="0" fill="#fdfdfd" fill-opacity=".502"/><path fill="#fdfdfd" fill-opacity=".502" d="M347.5-5771h4v4h-4z"/><rect x="351.5" y="-5775" width="4" height="4" ry="0" fill="#f4f4f4" fill-opacity=".502"/><path fill="#f4f4f4" fill-opacity=".502" d="M351.5-5767h4v3h-4z"/><rect x="351.5" y="-5779" width="4" height="4" ry="0" fill="#131313" fill-opacity=".502"/><path fill="#131313" fill-opacity=".502" d="M351.5-5771h4v4h-4z"/><path d="M349.5-5821c-1.108 0-2 .892-2 2v16c0 1.108.892 2 2 2h4c1.108 0 2-.892 2-2v-16c0-1.108-.892-2-2-2zm0 14h4v4h-4z" fill="url(#a)"/><rect x="343.5" y="-5829" width="16" height="18" rx="4" ry="4" fill="#3d3846"/><rect x="343.5" y="-5831" width="16" height="18" rx="4" ry="4" fill="#5e5c64"/><path d="M349.5-5825c-1.108 0-2 .892-2 2v18c0 1.108.892 2 2 2h4c1.108 0 2-.892 2-2v-18c0-1.108-.892-2-2-2zm0 16h4v4h-4z" fill="#fff"/><rect transform="scale(1 -1)" x="349.5" y="5819" width="4" height="10" rx="2" ry="2" fill="#68676b" style="paint-order:normal"/><rect transform="scale(1 -1)" x="349.5" y="5821" width="4" height="8" rx="2" ry="2" fill="#949390" style="paint-order:normal"/></g><g fill="#635749"><path d="M383-2786h4v-8h8v8h4v-16a8 8 0 0 0-8-8 8 8 0 0 0-8 8zm4-12v-4a4 4 0 0 1 4-4 4 4 0 0 1 4 4v4z"/><path d="M402-2786h4v-8h4l4 8h4l-3.703-9.258A8 8 0 0 0 418-2802a8 8 0 0 0-8-8h-8v8zm4-12v-8h4a4 4 0 0 1 4 4 4 4 0 0 1-4 4z"/><path d="m382-2810-12 24h-4l12-24z"/><path d="m366-2810 12 24h4l-12-24z"/></g></g></svg>