<svg version="1.0" viewBox="0 0 128 128" xmlns="http://www.w3.org/2000/svg"><defs><linearGradient id="a" x1="60" x2="68" y1="268" y2="268" gradientTransform="translate(287.5 -6379)" gradientUnits="userSpaceOnUse"><stop stop-color="#949390" offset="0"/><stop stop-color="#d5d3cf" offset=".083"/><stop stop-color="#949390" offset=".167"/><stop stop-color="#949390" offset=".833"/><stop stop-color="#d5d3cf" offset=".917"/><stop stop-color="#949390" offset="1"/></linearGradient></defs><g transform="translate(-312 3144)"><rect x="324" y="-3132" width="108" height="104" ry="6" fill="#a19282"/><rect x="325" y="-3131" width="106" height="67" ry="5.5" fill="#d7c3ad"/><path d="M354-3045h48m20-16-20 16 20 12m-88-28 20 16-20 12" fill="none" stroke="#000" stroke-opacity=".251"/><g transform="translate(0 3000)"><g fill-opacity=".251"><path d="M347.5-6131h4v67h-4z"/><path fill="#fff" d="M351.5-6131h4v67h-4z"/></g><g transform="matrix(2 0 0 2 -4.5 -5957)" fill-opacity=".502"><rect x="176" y="-59" width="2" height="2" ry="0"/><path d="M176-55h2v1.5h-2z"/></g><g transform="matrix(2 0 0 2 -.5 -5957)" fill="#f4f4f4" fill-opacity=".502"><rect x="176" y="-59" width="2" height="2" ry="0"/><path d="M176-55h2v1.5h-2z"/></g><g transform="matrix(2 0 0 2 -4.5 -6013)" fill-opacity=".502"><rect x="176" y="-59" width="2" height="2" ry="0"/><path d="M176-55h2v2h-2z"/><path d="M176-51h2v2h-2z"/><path d="M176-47h2v2h-2z"/><path d="M176-43h2v2h-2z"/><path d="M176-39h2v2h-2z"/><path d="M176-35h2v2h-2z"/></g><g transform="matrix(2 0 0 2 -4.5 -6009)" fill="#fdfdfd" fill-opacity=".502"><rect x="176" y="-59" width="2" height="2" ry="0"/><path d="M176-55h2v2h-2z"/><path d="M176-51h2v2h-2z"/><path d="M176-47h2v2h-2z"/><path d="M176-43h2v2h-2z"/><path d="M176-39h2v2h-2z"/></g><g transform="matrix(2 0 0 2 -.5 -6013)" fill="#f4f4f4" fill-opacity=".502"><rect x="176" y="-59" width="2" height="2" ry="0"/><path d="M176-55h2v2h-2z"/><path d="M176-51h2v2h-2z"/><path d="M176-47h2v2h-2z"/><path d="M176-43h2v2h-2z"/><path d="M176-39h2v2h-2z"/><path d="M176-35h2v2h-2z"/></g><g transform="matrix(2 0 0 2 -.5 -6009)" fill="#131313" fill-opacity=".502"><rect x="176" y="-59" width="2" height="2" ry="0"/><path d="M176-55h2v2h-2z"/><path d="M176-51h2v2h-2z"/><path d="M176-47h2v2h-2z"/><path d="M176-43h2v2h-2z"/><path d="M176-39h2v2h-2z"/></g><g transform="matrix(2 0 0 2 -4.5 -5961)" fill="#fdfdfd" fill-opacity=".502"><rect x="176" y="-59" width="2" height="2" ry="0"/><path d="M176-55h2v2h-2z"/></g><g transform="matrix(2 0 0 2 -.5 -5961)" fill="#131313" fill-opacity=".502"><rect x="176" y="-59" width="2" height="2" ry="0"/><path d="M176-55h2v2h-2z"/></g><path d="M349.5-6121c-1.108 0-2 .892-2 2v16c0 1.108.892 2 2 2h4c1.108 0 2-.892 2-2v-16c0-1.108-.892-2-2-2zm0 14h4v4h-4z" fill="url(#a)"/><rect x="343.5" y="-6129" width="16" height="18" rx="4" ry="4" fill="#3d3846"/><rect x="343.5" y="-6131" width="16" height="18" rx="4" ry="4" fill="#5e5c64"/><path d="M349.5-6125c-1.108 0-2 .892-2 2v18c0 1.108.892 2 2 2h4c1.108 0 2-.892 2-2v-18c0-1.108-.892-2-2-2zm0 16h4v4h-4z" fill="#fff"/><rect transform="scale(1 -1)" x="349.5" y="6119" width="4" height="10" rx="2" ry="2" fill="#68676b" style="paint-order:normal"/><rect transform="scale(1 -1)" x="349.5" y="6121" width="4" height="8" rx="2" ry="2" fill="#949390" style="paint-order:normal"/></g><g fill="#635749"><path d="m390-3110-12 24h-4l12-24z"/><path d="m374-3110 12 24h4l-12-24z"/><path d="M394-3106h12l-12 16v4h16v-4h-12l12-16v-4h-16z"/></g></g></svg>