<svg version="1.0" viewBox="0 0 128 128" xmlns="http://www.w3.org/2000/svg"><g transform="translate(-312 1644)"><rect x="324" y="-1632" width="108" height="104" ry="6" fill="#a19282"/><rect x="325" y="-1631" width="106" height="67" ry="5.5" fill="#d7c3ad"/><path d="M354-1545h48m20-16-20 16 20 12m-88-28 20 16-20 12" fill="none" stroke="#000" stroke-opacity=".251"/><g transform="matrix(4 0 0 4 -88 4532)" fill="#635749"><path d="M108-1536v7h2.5c1.385 0 2.5-1.115 2.5-2.5v-2c0-1.385-1.115-2.5-2.5-2.5h-2zm1 1h1.5c.831 0 1.5.669 1.5 1.5v2c0 .831-.669 1.5-1.5 1.5H109z"/><rect x="114" y="-1536" width="5" height="1" ry="0"/><path d="M114-1535.5h1v6.5h-1z"/><path d="M114.5-1530h4.5v1h-4.5z"/><path d="M114.5-1533h3.5v1h-3.5z"/><path d="M120-1536h1v7h-1z"/><path d="M121-1533v1h2a1 1 0 0 1 1 1 1 1 0 0 1-1 1h-2v1h2a2 2 0 0 0 2-2 2 2 0 0 0-2-2z"/><path d="M120-1536v1h2a1 1 0 0 1 1 1 1 1 0 0 1-1 1h-2v1h2a2 2 0 0 0 2-2 2 2 0 0 0-2-2z"/></g></g></svg>