<svg version="1.0" viewBox="0 0 128 128" xmlns="http://www.w3.org/2000/svg"><g transform="translate(-312 2244)"><rect x="324" y="-2232" width="108" height="104" ry="6" fill="#a19282"/><rect x="325" y="-2231" width="106" height="67" ry="5.5" fill="#d7c3ad"/><path d="M354-2145h48m20-16-20 16 20 12m-88-28 20 16-20 12" fill="none" stroke="#000" stroke-opacity=".251"/><g fill="#635749"><path d="M350-2186h4v-8h8v8h4v-16a8 8 0 0 0-8-8 8 8 0 0 0-8 8zm4-12v-4a4 4 0 0 1 4-4 4 4 0 0 1 4 4v4z"/><path d="M386-2202a8 8 0 0 0-8-8h-8v24h4v-8h4a8 8 0 0 0 8-8zm-4 0a4 4 0 0 1-4 4h-4v-8h4a4 4 0 0 1 4 4z"/><path d="M390-2210v24h4v-12l.328-.328L402-2186h4l-9.219-14.781L406-2210h-4.438l-7.562 7.562V-2210z"/></g></g></svg>