<svg version="1.0" viewBox="0 0 128 128" xmlns="http://www.w3.org/2000/svg"><path d="M27.5 7a8.481 8.481 0 0 0-8.5 8.5v100c0 4.709 3.791 8.5 8.5 8.5h73c4.709 0 8.5-3.791 8.5-8.5v-76L76.5 7z" fill="#6f6f6f"/><path d="M108 40v72c0 4.432-3.568 8-8 8H28c-4.432 0-8-3.568-8-8V16c0-4.432 3.568-8 8-8h48" fill="#ececec"/><path d="M108 44H83c-4.432 0-8-3.568-8-8V8h1l32 32z" fill="#6f6f6f" fill-opacity=".502"/><path d="M108 40H84c-4.432 0-8-3.568-8-8V8" fill="#fafafa"/><path d="M48 21a4 4 0 0 0-4 4v12.375c-.633-.227-1.289-.375-2-.375a6 6 0 1 0 6 6V29h12v8.375c-.633-.227-1.289-.375-2-.375a6 6 0 1 0 6 6V25a4 4 0 0 0-4-4z" fill="#474341" fill-opacity=".69"/><path fill="#474341" fill-opacity=".69" d="M50 69h44v8H50z"/><path fill="#474341" fill-opacity=".69" d="M50 85h44v8H50z"/><path fill="#474341" fill-opacity=".69" d="M50 101h44v8H50z"/><path fill="#474341" fill-opacity=".69" d="M34 69h8v8h-8z"/><path fill="#474341" fill-opacity=".69" d="M34 85h8v8h-8z"/><path fill="#474341" fill-opacity=".69" d="M34 101h8v8h-8z"/></svg>