<svg version="1.0" viewBox="0 0 128 128" xmlns="http://www.w3.org/2000/svg"><g transform="translate(-312 444)"><path d="M339.5-437a8.481 8.481 0 0 0-8.5 8.5v100c0 4.709 3.791 8.5 8.5 8.5h73c4.709 0 8.5-3.791 8.5-8.5v-76L388.5-437z" fill="#6f6f6f"/><path d="M420-404v72c0 4.432-3.568 8-8 8h-72c-4.432 0-8-3.568-8-8v-96c0-4.432 3.568-8 8-8h48" fill="#ececec"/><path d="M420-400h-25c-4.432 0-8-3.568-8-8v-28h1l32 32z" fill="#6f6f6f" fill-opacity=".502"/><path d="M420-404h-24c-4.432 0-8-3.568-8-8v-24" fill="#fafafa"/><rect x="348" y="-345" width="36" height="4" ry="1.823" fill="#474341" fill-opacity=".69"/><rect x="348" y="-357" width="56" height="4" ry="1.823" fill="#474341" fill-opacity=".69"/><rect x="348" y="-369" width="56" height="4" ry="1.823" fill="#474341" fill-opacity=".69"/><rect x="348" y="-381" width="56" height="4" ry="1.823" fill="#474341" fill-opacity=".69"/></g></svg>