<svg version="1.0" viewBox="0 0 128 128" xmlns="http://www.w3.org/2000/svg"><path d="M27.5 7a8.481 8.481 0 0 0-8.5 8.5v100c0 4.709 3.791 8.5 8.5 8.5h73c4.709 0 8.5-3.791 8.5-8.5v-76L76.5 7z" fill="#6f6f6f"/><path d="M108 40v72c0 4.432-3.568 8-8 8H28c-4.432 0-8-3.568-8-8V16c0-4.432 3.568-8 8-8h48" fill="#ececec"/><path d="M108 44H83c-4.432 0-8-3.568-8-8V8h1l32 32z" fill="#6f6f6f" fill-opacity=".502"/><path d="M108 40H84c-4.432 0-8-3.568-8-8V8" fill="#fafafa"/><g fill="#9a9a9a"><path d="M32.02 110.4v-8l32-32 32 32v8l-8-4-24-24-24 24z"/><path d="M117.54-3925.7a1 1 0 0 0-.953.703c-.675 2.076-2.42 3.619-4.563 4.035s-4.337-.359-5.74-2.031a1 1 0 1 0-1.533 1.285 8.007 8.007 0 0 0 7.656 2.711 8.004 8.004 0 0 0 6.082-5.38 1 1 0 0 0-.95-1.323z" color="#000" style="font-feature-settings:normal;font-variant-alternates:normal;font-variant-caps:normal;font-variant-ligatures:normal;font-variant-numeric:normal;font-variant-position:normal;isolation:auto;mix-blend-mode:normal;shape-padding:0;text-decoration-color:#000;text-decoration-line:none;text-decoration-style:solid;text-indent:0;text-orientation:mixed;text-transform:none;white-space:normal" transform="matrix(4 0 0 4 -379.5 15782)"/><path d="M64.02 54.4a16 16 0 0 0-16 16 16 16 0 0 0 16 16 16 16 0 0 0 16-16 16 16 0 0 0-16-16zm0 8a8 8 0 0 1 8 8 8 8 0 0 1-8 8 8 8 0 0 1-8-8 8 8 0 0 1 8-8z"/></g></svg>