<svg version="1.0" viewBox="0 0 128 128" xmlns="http://www.w3.org/2000/svg"><g transform="translate(-312 144)"><path d="M339.5-137a8.481 8.481 0 0 0-8.5 8.5v100c0 4.709 3.791 8.5 8.5 8.5h73c4.709 0 8.5-3.791 8.5-8.5v-76L388.5-137z" fill="#6f6f6f"/><path d="M420-104v72c0 4.432-3.568 8-8 8h-72c-4.432 0-8-3.568-8-8v-96c0-4.432 3.568-8 8-8h48" fill="#ececec"/><path d="M420-100h-25c-4.432 0-8-3.568-8-8v-28h1l32 32z" fill="#6f6f6f" fill-opacity=".502"/><path d="M420-104h-24c-4.432 0-8-3.568-8-8v-24" fill="#fafafa"/><path d="m371-80-26-26v8l18 18-18 18v8z" fill="#6f6f6f" fill-opacity=".784"/><rect x="363" y="-60" width="44" height="6" ry="3" fill="#6f6f6f" fill-opacity=".784"/></g></svg>