<svg version="1.0" viewBox="0 0 128 128" xmlns="http://www.w3.org/2000/svg"><path d="M27.5 7a8.481 8.481 0 0 0-8.5 8.5v100c0 4.709 3.791 8.5 8.5 8.5h73c4.709 0 8.5-3.791 8.5-8.5v-76L76.5 7z" fill="#6f6f6f"/><path d="M108 40v72c0 4.432-3.568 8-8 8H28c-4.432 0-8-3.568-8-8V16c0-4.432 3.568-8 8-8h48" fill="#ececec"/><path d="M108 44H83c-4.432 0-8-3.568-8-8V8h1l32 32z" fill="#6f6f6f" fill-opacity=".502"/><path d="M108 40H84c-4.432 0-8-3.568-8-8V8" fill="#fafafa"/><path d="M356-3972c-2.181 0-4 1.818-4 4v24c0 2.181 1.819 4 4 4h40c2.181 0 4-1.819 4-4v-24c0-2.182-1.819-4-4-4zm0 4h40v24h-40zm4 4v16h4v-8.75l4 6.25 4-6.25v8.75h4v-16h-4l-4 6.25-4-6.25zm24 0v8h-4l6 8 6-8h-4v-8z" color="#000" fill="#455a64" style="isolation:auto;mix-blend-mode:normal;text-decoration-color:#000;text-decoration-line:none;text-decoration-style:solid;text-indent:0;text-transform:none;white-space:normal" transform="translate(-312 4044)"/></svg>