<svg version="1.0" viewBox="0 0 128 128" xmlns="http://www.w3.org/2000/svg"><path d="M27.5 7a8.481 8.481 0 0 0-8.5 8.5v100c0 4.709 3.791 8.5 8.5 8.5h73c4.709 0 8.5-3.791 8.5-8.5v-76L76.5 7z" fill="#6f6f6f"/><path d="M108 40v72c0 4.432-3.568 8-8 8H28c-4.432 0-8-3.568-8-8V16c0-4.432 3.568-8 8-8h48" fill="#ececec"/><path d="M108 44H83c-4.432 0-8-3.568-8-8V8h1l32 32z" fill="#6f6f6f" fill-opacity=".502"/><path d="M108 40H84c-4.432 0-8-3.568-8-8V8" fill="#fafafa"/><path d="m39.314 54.003 4.494 50.402 20.165 5.598 20.22-5.606 4.498-50.394zm9.188 10.302h30.964l-.147 1.658-.282 3.135-.124 1.389H55.258l.565 6.33h22.528l-.151 1.66-1.452 16.274-.094 1.044-12.65 3.507-.03.007-12.662-3.515-.866-9.706h6.206l.44 4.93 6.884 1.86.006-.004 6.895-1.86.717-8.017H50.17l-1.52-17.035-.147-1.658z" fill="#e44d26"/><path d="m39.314 54.003 4.494 50.402 20.165 5.598.03-.008V99.302l-.029.008-12.662-3.515-.866-9.706h6.205l.44 4.93 6.884 1.859.006-.003.022-.006v-9.872H50.17l-1.52-17.035-.148-1.656h15.5V54.003H39.315zm15.944 16.484.565 6.33h8.18v-6.33h-.021z" opacity=".1"/></svg>