<svg version="1.0" viewBox="0 0 128 128" xmlns="http://www.w3.org/2000/svg"><path d="M27.5 7a8.481 8.481 0 0 0-8.5 8.5v100c0 4.709 3.791 8.5 8.5 8.5h73c4.709 0 8.5-3.791 8.5-8.5v-76L76.5 7z" fill="#6f6f6f"/><path d="M108 40v72c0 4.432-3.568 8-8 8H28c-4.432 0-8-3.568-8-8V16c0-4.432 3.568-8 8-8h48" fill="#ececec"/><path d="M108 44H83c-4.432 0-8-3.568-8-8V8h1l32 32z" fill="#6f6f6f" fill-opacity=".502"/><path d="M108 40H84c-4.432 0-8-3.568-8-8V8" fill="#fafafa"/><path d="m38.79 57 13.088 24-13.088 24h8l13.088-24L46.79 57zm13.333 0 13.088 24-13.088 24h8l9.089-16.667L78.3 105h8l-9.89-18.136-1.745-3.198L73.212 81 60.123 57zm22.058 16 2.912 5.333h12.12V73zm5.818 10.667L82.91 89h6.302v-5.333z" fill="#5f5088" fill-rule="evenodd"/></svg>