<svg version="1.0" viewBox="0 0 128 128" xmlns="http://www.w3.org/2000/svg"><path d="M27.5 7a8.481 8.481 0 0 0-8.5 8.5v100c0 4.709 3.791 8.5 8.5 8.5h73c4.709 0 8.5-3.791 8.5-8.5v-76L76.5 7z" fill="#6f6f6f"/><path d="M108 40v72c0 4.432-3.568 8-8 8H28c-4.432 0-8-3.568-8-8V16c0-4.432 3.568-8 8-8h48" fill="#ececec"/><path d="M108 44H83c-4.432 0-8-3.568-8-8V8h1l32 32z" fill="#6f6f6f" fill-opacity=".502"/><path d="M108 40H84c-4.432 0-8-3.568-8-8V8" fill="#fafafa"/><path d="M86.74 90.8q-.262 5.687-3.067 10.065-2.806 4.338-7.894 6.732-5.05 2.394-11.559 2.394-10.736 0-16.908-6.994Q41.14 96 41.14 83.244V80.55q0-8.005 2.768-13.99 2.806-6.022 8.043-9.277 5.237-3.292 12.12-3.292 9.913 0 15.936 5.237 6.023 5.2 6.846 14.364H73.76q-.15-4.974-2.507-7.144-2.356-2.17-7.182-2.17-4.9 0-7.182 3.667-2.282 3.665-2.394 11.708v3.853q0 8.716 2.17 12.457 2.206 3.74 7.556 3.74 4.526 0 6.92-2.132t2.544-6.772z" fill="#3f51b5"/></svg>