<svg version="1.0" viewBox="0 0 128 128" xmlns="http://www.w3.org/2000/svg" xmlns:xlink="http://www.w3.org/1999/xlink"><defs><linearGradient id="b" x1="500" x2="-.097" y1="579.11" y2="1079.2" gradientTransform="translate(.097 -578.99) scale(.9998)" gradientUnits="userSpaceOnUse" xlink:href="#a"/><linearGradient id="a" x1="500" x2="-.097" y1="579.11" y2="1079.2" gradientTransform="translate(.097 -578.99) scale(.9998)" gradientUnits="userSpaceOnUse"><stop stop-color="#E44857" offset=".003"/><stop stop-color="#C711E1" offset=".469"/><stop stop-color="#7F52FF" offset="1"/></linearGradient></defs><path d="M27.5 7a8.481 8.481 0 0 0-8.5 8.5v100c0 4.709 3.791 8.5 8.5 8.5h73c4.709 0 8.5-3.791 8.5-8.5v-76L76.5 7z" fill="#6f6f6f"/><path d="M108 40v72c0 4.432-3.568 8-8 8H28c-4.432 0-8-3.568-8-8V16c0-4.432 3.568-8 8-8h48" fill="#ececec"/><path d="M108 44H83c-4.432 0-8-3.568-8-8V8h1l32 32z" fill="#6f6f6f" fill-opacity=".502"/><path d="M108 40H84c-4.432 0-8-3.568-8-8V8" fill="#fafafa"/><path transform="matrix(.084 0 0 .084 44 62)" fill="url(#b)" style="fill:url(#a)" d="M0 0h500L250 250l250 250H0z"/></svg>