<svg version="1.0" viewBox="0 0 128 128" xmlns="http://www.w3.org/2000/svg"><path d="M27.5 7a8.481 8.481 0 0 0-8.5 8.5v100c0 4.709 3.791 8.5 8.5 8.5h73c4.709 0 8.5-3.791 8.5-8.5v-76L76.5 7z" fill="#6f6f6f"/><path d="M108 40v72c0 4.432-3.568 8-8 8H28c-4.432 0-8-3.568-8-8V16c0-4.432 3.568-8 8-8h48" fill="#ececec"/><path d="M108 44H83c-4.432 0-8-3.568-8-8V8h1l32 32z" fill="#6f6f6f" fill-opacity=".502"/><path d="M108 40H84c-4.432 0-8-3.568-8-8V8" fill="#fafafa"/><path d="M72.71 91.1s2.302.694 3.64 1.371c.464.236 1.267.704 1.846 1.319.567.603.844 1.213.844 1.213l8.384 13.036H67.862l-3.783-9.884s-1.404-2.413-2.268-3.112c-.72-.584-1.028-.791-1.74-.791h-3.485v13.78H40.583v-44h25.721c3 0 18.223 1.474 18.223 12.766S72.704 91.095 72.704 91.095zM56.588 72.039v11.997h6.343s4.81 0 5.177-5.87c.383-6.126-5.18-6.12-5.18-6.12z" fill="#3f51b5" fill-rule="evenodd"/></svg>