<svg version="1.0" viewBox="0 0 128 128" xmlns="http://www.w3.org/2000/svg"><path d="M27.5 7a8.481 8.481 0 0 0-8.5 8.5v100c0 4.709 3.791 8.5 8.5 8.5h73c4.709 0 8.5-3.791 8.5-8.5v-76L76.5 7z" fill="#6f6f6f"/><path d="M108 40v72c0 4.432-3.568 8-8 8H28c-4.432 0-8-3.568-8-8V16c0-4.432 3.568-8 8-8h48" fill="#ececec"/><path d="M108 44H83c-4.432 0-8-3.568-8-8V8h1l32 32z" fill="#6f6f6f" fill-opacity=".502"/><path d="M108 40H84c-4.432 0-8-3.568-8-8V8" fill="#fafafa"/><g fill="#1976d2"><path d="M64 60c-.232 0-.46.1-.586.304l-1.25 2.024-.586.056-1.617-1.735c-.328-.352-.996-.216-1.164.236l-.828 2.211-.57.172-1.922-1.383c-.39-.28-1.01-.04-1.086.453l-.383 2.336-.524.28-2.156-.984c-.438-.2-1.003.176-.984.656l.086 2.375-.453.376-2.313-.547c-.469-.108-.946.368-.836.836l.547 2.313-.375.453-2.375-.084c-.478-.04-.855.546-.656.984l.984 2.156-.28.524-2.337.384c-.474.076-.733.696-.453 1.086l1.383 1.922-.172.57-2.219.828c-.45.168-.578.836-.226 1.164l1.734 1.61-.062.594-2.016 1.25c-.408.252-.408.928 0 1.18l2.016 1.241.062.594-1.734 1.617c-.352.328-.224.988.226 1.156l2.219.829.172.57-1.383 1.922c-.28.392-.02 1.017.453 1.093l2.336.376.281.524-.984 2.156c-.2.438.178 1.004.656.984L47 97.578l.375.454-.547 2.312c-.11.468.367.946.836.836l2.313-.547.453.376-.086 2.367c-.02.48.546.857.984.656l2.156-.976.524.272.383 2.336c.077.476.695.733 1.086.453l1.921-1.383.57.172.829 2.219c.168.45.828.581 1.156.228l1.617-1.735.594.064 1.25 2.016c.252.406.927.408 1.18 0l1.242-2.016.594-.064 1.617 1.735c.327.352.988.22 1.156-.228l.828-2.219.57-.172 1.922 1.383c.39.28 1.01.04 1.086-.453l.383-2.336.524-.272 2.156.976c.438.2 1.002-.172.984-.656l-.086-2.367.453-.376 2.313.547c.469.108.946-.368.836-.836l-.547-2.312.375-.454 2.375.084c.478.04.857-.546.656-.984l-.984-2.156.28-.524 2.337-.376c.475-.076.735-.702.453-1.093l-1.383-1.922.172-.57 2.219-.829c.45-.168.579-.828.226-1.156l-1.734-1.617.062-.594 2.016-1.242c.408-.252.408-.927 0-1.18l-2.016-1.25-.062-.593 1.734-1.61c.353-.328.225-.996-.226-1.164l-2.219-.828-.172-.57 1.383-1.922c.282-.388.024-1.008-.453-1.086l-2.336-.384-.281-.524.984-2.156c.201-.438-.173-1.002-.656-.984L81 70.432l-.375-.453.547-2.313c.11-.469-.367-.946-.836-.836l-2.305.547-.46-.376.085-2.375c.02-.48-.546-.856-.984-.656l-2.156.984-.524-.28-.375-2.336c-.077-.474-.703-.734-1.093-.453l-1.922 1.383-.57-.172-.829-2.21c-.168-.453-.828-.585-1.156-.237l-1.617 1.735-.586-.056-1.25-2.024C64.468 60.1 64.232 60 64 60zm0 7.992a16 16 0 0 1 16 16 16 16 0 0 1-16 16 16 16 0 0 1-16-16 16 16 0 0 1 16-16z"/><path d="M48 72v4h4v16h-4v4h16v-4h-4v-8c4 0 4 12 8 12h8c4 0 4-12 4-12h-4s0 8-4 8c-1.886 0-4-8-4-8h2c3.324 0 6-2.676 6-6s-2.676-6-6-6h-6zm12 4h8c1.108 0 2 .892 2 2s-.892 2-2 2h-8z"/></g></svg>