<svg version="1.0" viewBox="0 0 128 128" xmlns="http://www.w3.org/2000/svg"><path d="M27.5 7a8.481 8.481 0 0 0-8.5 8.5v100c0 4.709 3.791 8.5 8.5 8.5h73c4.709 0 8.5-3.791 8.5-8.5v-76L76.5 7z" fill="#6f6f6f"/><path d="M108 40v72c0 4.432-3.568 8-8 8H28c-4.432 0-8-3.568-8-8V16c0-4.432 3.568-8 8-8h48" fill="#ececec"/><path d="M108 44H83c-4.432 0-8-3.568-8-8V8h1l32 32z" fill="#6f6f6f" fill-opacity=".502"/><path d="M108 40H84c-4.432 0-8-3.568-8-8V8" fill="#fafafa"/><g clip-rule="evenodd" fill="#dd4f37" fill-rule="evenodd"><path d="M55.605 99.536s-2.444 1.423 1.742 1.903c5.071.579 7.663.495 13.25-.56 0 0 1.472.92 3.524 1.717-12.53 5.368-28.356-.31-18.516-3.06z"/><path d="M54.073 92.53s-2.742 2.03 1.447 2.463c5.418.56 9.695.605 17.1-.82 0 0 1.022 1.038 2.632 1.605-15.147 4.43-32.016.349-21.18-3.248z"/><path d="M66.978 80.643c3.09 3.555-.81 6.752-.81 6.752s7.839-4.046 4.24-9.114c-3.363-4.725-5.94-7.072 8.016-15.166 0 0-21.91 5.47-11.446 17.527z"/><path d="M83.55 104.719s1.809 1.491-1.993 2.645c-7.23 2.19-30.1 2.85-36.451.087-2.282-.994 2-2.371 3.346-2.662 1.404-.304 2.206-.248 2.206-.248-2.54-1.788-16.413 3.512-7.046 5.032 25.543 4.14 46.562-1.865 39.937-4.854z"/><path d="M56.781 85.27s-11.63 2.763-4.119 3.767c3.173.425 9.495.327 15.387-.167 4.814-.404 9.646-1.268 9.646-1.268s-1.697.727-2.925 1.565c-11.814 3.107-34.63 1.66-28.06-1.516 5.553-2.687 10.07-2.381 10.07-2.381z"/><path d="M77.647 96.931c12.008-6.238 6.455-12.233 2.58-11.426-.948.198-1.373.37-1.373.37s.353-.554 1.025-.792c7.667-2.694 13.562 7.949-2.472 12.164 0 0 .184-.167.24-.316z"/><path d="M70.409 50.043s6.648 6.652-6.308 16.879c-10.39 8.207-2.37 12.885-.004 18.231-6.066-5.472-10.515-10.29-7.53-14.772 4.382-6.58 16.523-9.772 13.842-20.338z"/><path d="M57.961 113.84c11.524.738 29.225-.41 29.643-5.862 0 0-.805 2.067-9.524 3.707-9.837 1.852-21.972 1.636-29.166.448 0 0 1.474 1.22 9.047 1.708z"/></g></svg>