<svg version="1.0" viewBox="0 0 128 128" xmlns="http://www.w3.org/2000/svg"><path d="M27.5 7a8.481 8.481 0 0 0-8.5 8.5v100c0 4.709 3.791 8.5 8.5 8.5h73c4.709 0 8.5-3.791 8.5-8.5v-76L76.5 7z" fill="#6f6f6f"/><path d="M108 40v72c0 4.432-3.568 8-8 8H28c-4.432 0-8-3.568-8-8V16c0-4.432 3.568-8 8-8h48" fill="#ececec"/><path d="M108 44H83c-4.432 0-8-3.568-8-8V8h1l32 32z" fill="#6f6f6f" fill-opacity=".502"/><path d="M108 40H84c-4.432 0-8-3.568-8-8V8" fill="#fafafa"/><g transform="matrix(2 0 0 2 -689.78 1706.16)"><g color="#000"><path d="M375.68-825.05c-2.682 0-4.775 1.542-4.775 3.458v1.51h-1.575c-1.916 0-3.495 2.159-3.458 4.84l.033 2.384c.037 2.681 1.575 4.775 3.49 4.775h13.51v-13.509c0-1.916-2.16-3.458-4.842-3.458z" fill="#3776ab"/><path d="M378.06-803.05c2.682 0 4.841-1.542 4.841-3.458v-1.51h1.51c1.915 0 3.42-2.159 3.457-4.84l.033-2.384c.037-2.681-1.64-4.775-3.557-4.775h-1.443v3s.033 3-3 3h-6s-3 0-3 3v4.509c0 1.916 2.094 3.458 4.776 3.458z" fill="#ffd343"/></g><circle cx="373.9" cy="-822.05" r="1" fill="#fff"/><circle cx="379.9" cy="-806.05" r="1" fill="#fff"/></g></svg>