<svg version="1.0" viewBox="0 0 128 128" xmlns="http://www.w3.org/2000/svg"><path d="M27.5 7a8.481 8.481 0 0 0-8.5 8.5v100c0 4.709 3.791 8.5 8.5 8.5h73c4.709 0 8.5-3.791 8.5-8.5v-76L76.5 7z" fill="#6f6f6f"/><path d="M108 40v72c0 4.432-3.568 8-8 8H28c-4.432 0-8-3.568-8-8V16c0-4.432 3.568-8 8-8h48" fill="#ececec"/><path d="M108 44H83c-4.432 0-8-3.568-8-8V8h1l32 32z" fill="#6f6f6f" fill-opacity=".502"/><path d="M108 40H84c-4.432 0-8-3.568-8-8V8" fill="#fafafa"/><g transform="matrix(4 0 0 4 -384 26832)"><path fill="#64b5f6" d="M106-6687h12v9h-12z"/><circle cx="107.5" cy="-6690.5" r="2.5" fill="#1e88e5"/><circle cx="116.5" cy="-6690.5" r="2.5" fill="#1e88e5"/><circle cx="112" cy="-6687" r="6" fill="#64b5f6"/><path fill="#fff" d="M111-6685h1v2h-1z"/><path fill="#f2f2f2" d="M112-6685h1v2h-1z"/><path d="M111-6686a1 1 0 1 0 0 2c.51 0 .993-.444.993-.444h.014s.484.443.993.444a1 1 0 1 0 0-2z" fill="#1e88e5"/><ellipse cx="112" cy="-6685.5" rx="1.125" ry=".75" fill="#3e2723"/><g transform="translate(77 -6260.2) scale(.0625)"><circle cx="512" cy="-6844" r="32" fill="#fefefe"/><circle transform="scale(-1 1)" cx="-505.14" cy="-6850.9" r="11.429" fill="#333"/></g><g transform="translate(83 -6260.2) scale(.0625)"><circle cx="512" cy="-6844" r="32" fill="#fefefe"/><circle transform="scale(-1 1)" cx="-505.14" cy="-6850.9" r="11.429" fill="#333"/></g></g></svg>