<svg version="1.0" viewBox="0 0 128 128" xmlns="http://www.w3.org/2000/svg"><g transform="translate(-312 -156)"><rect x="102" y="259" width="28" height="22" ry="2" fill="#782e11"/><rect x="103" y="260" width="26" height="19" ry="1.5" fill="#f15d22"/><path d="M104.5 260c-.831 0-1.5.669-1.5 1.5v2.5h26v-2.5c0-.831-.669-1.5-1.5-1.5z"/><path d="m106 260-2 4h3l2-4z" fill="#f7f7f7"/><path d="m112 260-2 4h3l2-4z" fill="#f7f7f7"/><path d="m118 260-2 4h3l2-4z" fill="#f7f7f7"/><path d="m124 260-2 4h3l2-4z" fill="#f7f7f7"/><rect x="228" y="234" width="56" height="44" ry="4" fill="#782e11"/><rect x="229" y="235" width="54" height="40" ry="3.5" fill="#f15d22"/><path d="M232.5 235a3.492 3.492 0 0 0-3.5 3.5v4.5h54v-4.5c0-1.939-1.561-3.5-3.5-3.5z"/><g fill="#f7f7f7"><path d="m237 235-4 8h6l4-8z"/><path d="m249 235-4 8h6l4-8z"/><path d="m261 235-4 8h6l4-8z"/><path d="m273 235-4 8h6l4-8z"/></g><rect x="320" y="184" width="112" height="88" ry="8" fill="#782e11"/><rect x="321" y="185" width="110" height="83" ry="7" fill="#f15d22"/><path d="M328 185c-3.878 0-7 3.122-7 7v9h110v-9c0-3.878-3.122-7-7-7z"/><g fill="#f7f7f7"><path d="m338 185-8 16h12l8-16z"/><path d="m362 185-8 16h12l8-16z"/><path d="m386 185-8 16h12l8-16z"/><path d="m410 185-8 16h12l8-16z"/></g><rect x="480" y="84" width="224" height="176" ry="16" fill="#782e11"/><rect x="481" y="85" width="222" height="170" ry="15.5" fill="#f15d22"/><path d="M496.5 85c-8.587 0-15.5 6.913-15.5 15.5V117h222v-16.5c0-8.587-6.913-15.5-15.5-15.5z"/><g fill="#f7f7f7"><path d="m516 85-16 32h24l16-32z"/><path d="m564 85-16 32h24l16-32z"/><path d="m612 85-16 32h24l16-32z"/><path d="m660 85-16 32h24l16-32z"/></g><rect x="159" y="247" width="42" height="33" ry="3" fill="#782e11"/><rect x="160" y="248" width="40" height="29" ry="2.5" fill="#f15d22"/><path d="M162.5 248a2.495 2.495 0 0 0-2.5 2.5v3.5h40v-3.5c0-1.385-1.115-2.5-2.5-2.5z"/><g fill="#f7f7f7"><path d="m165.875 248-3 6h4.5l3-6z"/><path d="m174.875 248-3 6h4.5l3-6z"/><path d="m183.875 248-3 6h4.5l3-6z"/><path d="m192.875 248-3 6h4.5l3-6z"/></g><rect x="56" y="262" width="24" height="20" ry="2" fill="#782e11"/><rect x="57" y="263" width="22" height="18" ry="1.5" fill="#f15d22"/><path d="M58.5 263c-.831 0-1.5.669-1.5 1.5v2.5h22v-2.5c0-.831-.669-1.5-1.5-1.5z"/><path d="m60 263-2 4h2l2-4z" fill="#f7f7f7"/><path d="m65 263-2 4h2l2-4z" fill="#f7f7f7"/><path d="m70 263-2 4h2l2-4z" fill="#f7f7f7"/><path d="m75 263-2 4h2l2-4z" fill="#f7f7f7"/><rect x="17" y="269" width="15" height="14" ry="2" fill="#782e11"/><rect x="18" y="270" width="13" height="12" ry="1.5" fill="#f15d22"/><path d="M19.5 270c-.831 0-1.5.669-1.5 1.5v2.5h13v-2.5c0-.831-.669-1.5-1.5-1.5z"/><path d="m20 270-2 4h2l2-4z" fill="#f7f7f7"/><path d="m24 270-2 4h2l2-4z" fill="#f7f7f7"/><path d="m28 270-2 4h2l1.96-3.92a1.487 1.487 0 0 0-.46-.08z" fill="#f7f7f7"/><g transform="translate(65.321 17.365)" fill="#fff"><path d="m120.68 249.64 3-2v7l-3-2z" filter="url(#filter7554)"/><rect x="109.68" y="246.64" width="11" height="8" ry="2" filter="url(#filter7554)"/><path d="M111.14 240.64c-1.939 0-3.5 1.561-3.5 3.5s1.561 3.5 3.5 3.5 3.5-1.561 3.5-3.5-1.561-3.5-3.5-3.5zm0 2c.831 0 1.5.669 1.5 1.5s-.669 1.5-1.5 1.5-1.5-.669-1.5-1.5.669-1.5 1.5-1.5z" filter="url(#filter7554)"/><path d="M119.14 240.64c-1.939 0-3.5 1.561-3.5 3.5s1.561 3.5 3.5 3.5 3.5-1.561 3.5-3.5-1.561-3.5-3.5-3.5zm0 2c.831 0 1.5.669 1.5 1.5s-.669 1.5-1.5 1.5-1.5-.669-1.5-1.5.669-1.5 1.5-1.5z" filter="url(#filter7554)"/></g><g transform="matrix(1.5 0 0 1.5 83.29 -111.95)" fill="#fff"><path d="m120.47 249.3 3.333-2v7.333l-3.333-2z" filter="url(#filter7554)"/><rect x="109.81" y="246.64" width="10.667" height="8" ry="2" filter="url(#filter7554)"/><path d="M119.142 240.636a3.333 3.333 0 0 0-3.334 3.333 3.333 3.333 0 0 0 3.334 3.334 3.333 3.333 0 0 0 3.333-3.334 3.333 3.333 0 0 0-3.333-3.333zm0 2a1.333 1.333 0 0 1 1.333 1.333 1.333 1.333 0 0 1-1.333 1.334 1.333 1.333 0 0 1-1.334-1.334 1.333 1.333 0 0 1 1.334-1.333z"/><path d="M111.14 240.64a3.333 3.333 0 0 0-3.333 3.333 3.333 3.333 0 0 0 3.333 3.334 3.333 3.333 0 0 0 3.333-3.334 3.333 3.333 0 0 0-3.333-3.333zm0 2a1.333 1.333 0 0 1 1.333 1.333 1.333 1.333 0 0 1-1.333 1.334 1.333 1.333 0 0 1-1.333-1.334 1.333 1.333 0 0 1 1.333-1.333z"/></g><g transform="matrix(3 0 0 3 28.579 -507.91)" fill="#fff"><path d="m120.47 249.3 3.333-2v7.333l-3.333-2z" filter="url(#filter7554)"/><rect x="109.81" y="246.64" width="10.667" height="8" ry="2" filter="url(#filter7554)"/><path d="M119.142 240.636a3.333 3.333 0 0 0-3.334 3.333 3.333 3.333 0 0 0 3.334 3.334 3.333 3.333 0 0 0 3.333-3.334 3.333 3.333 0 0 0-3.333-3.333zm0 2a1.333 1.333 0 0 1 1.333 1.333 1.333 1.333 0 0 1-1.333 1.334 1.333 1.333 0 0 1-1.334-1.334 1.333 1.333 0 0 1 1.334-1.333z"/><path d="M111.14 240.64a3.333 3.333 0 0 0-3.333 3.333 3.333 3.333 0 0 0 3.333 3.334 3.333 3.333 0 0 0 3.333-3.334 3.333 3.333 0 0 0-3.333-3.333zm0 2a1.333 1.333 0 0 1 1.333 1.333 1.333 1.333 0 0 1-1.333 1.334 1.333 1.333 0 0 1-1.333-1.334 1.333 1.333 0 0 1 1.333-1.333z"/></g><g transform="matrix(6 0 0 6 -102.84 -1299.8)" fill="#fff"><path d="m120.47 249.3 3.333-2v7.333l-3.333-2z" filter="url(#filter7554)"/><rect x="109.81" y="246.64" width="10.667" height="8" ry="2" filter="url(#filter7554)"/><path d="M119.142 240.636a3.333 3.333 0 0 0-3.334 3.333 3.333 3.333 0 0 0 3.334 3.334 3.333 3.333 0 0 0 3.333-3.334 3.333 3.333 0 0 0-3.333-3.333zm0 2a1.333 1.333 0 0 1 1.333 1.333 1.333 1.333 0 0 1-1.333 1.334 1.333 1.333 0 0 1-1.334-1.334 1.333 1.333 0 0 1 1.334-1.333z"/><path d="M111.14 240.64a3.333 3.333 0 0 0-3.333 3.333 3.333 3.333 0 0 0 3.333 3.334 3.333 3.333 0 0 0 3.333-3.334 3.333 3.333 0 0 0-3.333-3.333zm0 2a1.333 1.333 0 0 1 1.333 1.333 1.333 1.333 0 0 1-1.333 1.334 1.333 1.333 0 0 1-1.333-1.334 1.333 1.333 0 0 1 1.333-1.333z"/></g><g transform="matrix(.75 0 0 .75 -18.855 88.024)" fill="#fff"><path d="m120.47 249.3 4.667-2.667v9.334l-4.667-3.334z" filter="url(#filter7554)"/><rect x="109.14" y="246.64" width="12" height="8" ry="2" filter="url(#filter7554)"/><path d="M110.47 239.958a4 4 0 0 0-4 4 4 4 0 0 0 4 4 4 4 0 0 0 4-4 4 4 0 0 0-4-4zm0 2.666a1.333 1.333 0 0 1 1.333 1.334 1.333 1.333 0 0 1-1.333 1.333 1.333 1.333 0 0 1-1.334-1.333 1.333 1.333 0 0 1 1.334-1.334z"/><path d="M119.803 239.958a4 4 0 0 0-4 4 4 4 0 0 0 4 4 4 4 0 0 0 4-4 4 4 0 0 0-4-4zm0 2.666a1.333 1.333 0 0 1 1.333 1.334 1.333 1.333 0 0 1-1.333 1.333 1.333 1.333 0 0 1-1.334-1.333 1.333 1.333 0 0 1 1.334-1.334z"/></g><g transform="matrix(.5 0 0 .5 -33.839 154.68)" fill="#fff"><path d="m121.68 248.64 4-2v6l-4-2z" filter="url(#filter7554)"/><rect x="109.68" y="246.64" width="12" height="6" ry="2" filter="url(#filter7554)"/><path d="M111.14 240.64c-1.939 0-3.5 1.561-3.5 3.5s1.561 3.5 3.5 3.5 3.5-1.561 3.5-3.5-1.561-3.5-3.5-3.5zm0 2c.831 0 1.5.669 1.5 1.5s-.669 1.5-1.5 1.5-1.5-.669-1.5-1.5.669-1.5 1.5-1.5z" filter="url(#filter7554)"/><path d="M119.14 240.64c-1.939 0-3.5 1.561-3.5 3.5s1.561 3.5 3.5 3.5 3.5-1.561 3.5-3.5-1.561-3.5-3.5-3.5zm0 2c.831 0 1.5.669 1.5 1.5s-.669 1.5-1.5 1.5-1.5-.669-1.5-1.5.669-1.5 1.5-1.5z" filter="url(#filter7554)"/></g><g transform="matrix(.75 0 0 .75 29.145 86.024)" fill="#fff"><path d="m120.47 249.3 4.667-2.667v9.334l-4.667-3.334z" filter="url(#filter7554)"/><rect x="109.14" y="246.64" width="12" height="8" ry="2" filter="url(#filter7554)"/><path d="M110.47 239.958a4 4 0 0 0-4 4 4 4 0 0 0 4 4 4 4 0 0 0 4-4 4 4 0 0 0-4-4zm0 2.666a1.333 1.333 0 0 1 1.333 1.334 1.333 1.333 0 0 1-1.333 1.333 1.333 1.333 0 0 1-1.334-1.333 1.333 1.333 0 0 1 1.334-1.334z"/><path d="M119.803 239.958a4 4 0 0 0-4 4 4 4 0 0 0 4 4 4 4 0 0 0 4-4 4 4 0 0 0-4-4zm0 2.666a1.333 1.333 0 0 1 1.333 1.334 1.333 1.333 0 0 1-1.333 1.333 1.333 1.333 0 0 1-1.334-1.333 1.333 1.333 0 0 1 1.334-1.334z"/></g></g></svg>