<svg version="1.0" viewBox="0 0 128 128" xmlns="http://www.w3.org/2000/svg"><g transform="translate(-312 -156)"><rect x="320" y="184" width="112" height="88" ry="8" fill="#782e11"/><rect x="321" y="185" width="110" height="83" ry="7" fill="#f15d22"/><path d="M328 185c-3.878 0-7 3.122-7 7v9h110v-9c0-3.878-3.122-7-7-7z"/><g fill="#f7f7f7"><path d="m338 185-8 16h12l8-16z"/><path d="m362 185-8 16h12l8-16z"/><path d="m386 185-8 16h12l8-16z"/><path d="m410 185-8 16h12l8-16z"/></g><g transform="matrix(3 0 0 3 28.579 -507.91)" fill="#fff"><path d="m120.47 249.3 3.333-2v7.333l-3.333-2z" filter="url(#filter7554)"/><rect x="109.81" y="246.64" width="10.667" height="8" ry="2" filter="url(#filter7554)"/><path d="M119.142 240.636a3.333 3.333 0 0 0-3.334 3.333 3.333 3.333 0 0 0 3.334 3.334 3.333 3.333 0 0 0 3.333-3.334 3.333 3.333 0 0 0-3.333-3.333zm0 2a1.333 1.333 0 0 1 1.333 1.333 1.333 1.333 0 0 1-1.333 1.334 1.333 1.333 0 0 1-1.334-1.334 1.333 1.333 0 0 1 1.334-1.333z"/><path d="M111.14 240.64a3.333 3.333 0 0 0-3.333 3.333 3.333 3.333 0 0 0 3.333 3.334 3.333 3.333 0 0 0 3.333-3.334 3.333 3.333 0 0 0-3.333-3.333zm0 2a1.333 1.333 0 0 1 1.333 1.333 1.333 1.333 0 0 1-1.333 1.334 1.333 1.333 0 0 1-1.333-1.334 1.333 1.333 0 0 1 1.333-1.333z"/></g></g></svg>