<svg version="1.0" viewBox="0 0 128 128" xmlns="http://www.w3.org/2000/svg"><path d="M27.5 7a8.481 8.481 0 0 0-8.5 8.5v100c0 4.709 3.791 8.5 8.5 8.5h73c4.709 0 8.5-3.791 8.5-8.5v-76L76.5 7z" fill="#7f6728"/><path d="M108 40v72c0 4.432-3.568 8-8 8H28c-4.432 0-8-3.568-8-8V16c0-4.432 3.568-8 8-8h48" fill="#ffce51"/><path d="M108 44H83c-4.432 0-8-3.568-8-8V8h1l32 32z" fill="#7f6728" fill-opacity=".502"/><path d="M108 40H84c-4.432 0-8-3.568-8-8V8" fill="#fffa7d"/><g transform="matrix(2 0 0 2 -447 1360)" fill="#fff"><circle cx="249" cy="-638" r="8"/><path d="M258-650h12v8h-12z"/><path d="M270-638v12h-12z"/></g></svg>