<svg version="1.0" viewBox="0 0 128 128" xmlns="http://www.w3.org/2000/svg"><path d="M27.5 7a8.481 8.481 0 0 0-8.5 8.5v100c0 4.709 3.791 8.5 8.5 8.5h73c4.709 0 8.5-3.791 8.5-8.5v-76L76.5 7z" fill="#234c31"/><path d="M108 40v72c0 4.432-3.568 8-8 8H28c-4.432 0-8-3.568-8-8V16c0-4.432 3.568-8 8-8h48" fill="#479863"/><path d="M108 44H83c-4.432 0-8-3.568-8-8V8h1l32 32z" fill="#234c31" fill-opacity=".502"/><path d="M108 40H84c-4.432 0-8-3.568-8-8V8" fill="#73c48f"/><path d="M28 54v56h72V54zm8 8h16v8H36zm24 0h32v8H60zM36 78h16v8H36zm24 0h32v8H60zM36 94h16v8H36zm24 0h32v8H60z" fill="#fff"/></svg>