<svg version="1.0" viewBox="0 0 128 128" xmlns="http://www.w3.org/2000/svg"><g transform="translate(-312 -156)"><path d="M339.5 163a8.481 8.481 0 0 0-8.5 8.5v100c0 4.709 3.791 8.5 8.5 8.5h73c4.709 0 8.5-3.791 8.5-8.5v-76L388.5 163z" fill="#1f285a"/><path d="M420 196v72c0 4.432-3.568 8-8 8h-72c-4.432 0-8-3.568-8-8v-96c0-4.432 3.568-8 8-8h48" fill="#3f51b5"/><path d="M420 200h-25c-4.432 0-8-3.568-8-8v-28h1l32 32z" fill="#1f285a" fill-opacity=".502"/><path d="M420 196h-24c-4.432 0-8-3.568-8-8v-24" fill="#6a7ce0"/><rect x="340" y="210" width="72" height="8" ry="0" fill="#fff"/><rect x="340" y="226" width="72" height="8" ry="0" fill="#fff"/><rect x="340" y="242" width="72" height="8" ry="0" fill="#fff"/><rect x="340" y="258" width="44" height="8" ry="0" fill="#fff"/></g></svg>