<svg version="1.0" viewBox="0 0 128 128" xmlns="http://www.w3.org/2000/svg"><g transform="translate(-312 444)"><path d="M339.5-437a8.481 8.481 0 0 0-8.5 8.5v100c0 4.709 3.791 8.5 8.5 8.5h73c4.709 0 8.5-3.791 8.5-8.5v-76L388.5-437z" fill="#671d00"/><path d="M420-404v72c0 4.432-3.568 8-8 8h-72c-4.432 0-8-3.568-8-8v-96c0-4.432 3.568-8 8-8h48" fill="#cf3b00"/><path d="M420-400h-25c-4.432 0-8-3.568-8-8v-28h1l32 32z" fill="#671d00" fill-opacity=".502"/><path d="M420-404h-24c-4.432 0-8-3.568-8-8v-24" fill="#f15d22"/><rect x="340" y="-357" width="72" height="8" ry="0" fill="#fff"/><rect x="340" y="-341" width="44" height="8" ry="0" fill="#fff"/><path d="M340-377a16 16 0 0 1 16-16 16 16 0 0 1 16 16 16 16 0 0 1-16 16v-16z" fill="#fffffe"/><rect x="380" y="-389" width="32" height="24" ry="0" fill="#fff"/></g></svg>