<svg version="1.0" viewBox="0 0 256 256" xmlns="http://www.w3.org/2000/svg"><g transform="translate(-464 572)"><path d="M624-340H496c-8.864 0-16-7.136-16-16v-144c0-8.864 7.136-16 16-16h128l88 88z" fill="#ffce51"/><path d="M496-516c-8.864 0-16 7.136-16 16v144c0 8.864 7.136 16 16 16h128l88-88-88-88zm0 1h127.5l84.5 85-84.5 85H496c-8.31 0-15-6.69-15-15v-140c0-8.31 6.69-15 15-15z" fill-opacity=".5"/><rect x="592" y="-448" width="128" height="132" ry="64" fill="#479863"/><path d="M656-448c-35.456 0-64 28.544-64 64v4c0 35.456 28.544 64 64 64s64-28.544 64-64v-4c0-35.456-28.544-64-64-64zm0 1c34.902 0 63 28.098 63 63s-28.098 63-63 63-63-28.098-63-63 28.098-63 63-63z" fill-opacity=".5"/><path d="M661.66-421.6a8 8 0 0 0-11.314 0 8 8 0 0 0-2.342 5.657v25.942h-25.942a8 8 0 0 0-5.657 2.342 8 8 0 0 0 0 11.314 8 8 0 0 0 5.657 2.342h25.942v25.832a8 8 0 0 0 2.342 5.768 8 8 0 0 0 11.314 0 8 8 0 0 0 2.342-5.657v-25.942h25.832a8 8 0 0 0 5.768-2.342 8 8 0 0 0 0-11.314 8 8 0 0 0-5.657-2.343h-25.942v-25.832a8 8 0 0 0 0-.113 8 8 0 0 0-2.344-5.655z" fill="#fff"/><path fill="#fff" d="M648-424h16v84h-16z"/><path fill="#fff" d="M614-390h84v16h-84z"/></g></svg>