<svg version="1.0" viewBox="0 0 256 256" xmlns="http://www.w3.org/2000/svg"><g transform="translate(-464 -28)"><rect x="576" y="44" width="32" height="128" ry="16" fill="#f15d22"/><path d="M592 44c-8.864 0-16 7.136-16 16v96c0 8.864 7.136 16 16 16s16-7.136 16-16V60c0-8.864-7.136-16-16-16zm0 1c8.31 0 15 6.69 15 15v77c0 8.31-6.69 15-15 15s-15-6.69-15-15V60c0-8.31 6.69-15 15-15z" fill-opacity=".502"/><path d="M520 128c-8.864 0-16 7.136-16 16v48h176v-48c0-8.864-7.136-16-16-16z" fill="#f15d22"/><path d="M504 192v68h176v-68z" fill="#ffce51"/><path d="M520 128c-8.864 0-16 7.136-16 16v48h1v-48c0-8.31 6.69-15 15-15h144c8.31 0 15 6.69 15 15v48h1v-48c0-8.864-7.136-16-16-16z" fill-opacity=".502"/><path d="M504 192v68h176v-68h-1v63H505v-63z" fill-opacity=".502"/><g fill-opacity=".502"><path d="M536 191.994h2v67.998h-2z"/><path d="M602 191.994h2v67.998h-2z"/><path d="M624 191.994h2v67.998h-2z"/><path d="M514 191.994h2v67.998h-2z"/><path d="M646 191.994h2v67.998h-2z"/><path d="M668 191.994h2v67.998h-2z"/><path d="M558 191.994h2v67.998h-2z"/><path d="M580 191.994h2v67.998h-2z"/></g></g></svg>