<svg version="1.0" viewBox="0 0 256 256" xmlns="http://www.w3.org/2000/svg"><g transform="translate(-464 272)"><rect transform="matrix(0 -1 -1 0 0 0)" x="32" y="-680" width="216" height="176" ry="8" fill="#50443f"/><rect transform="matrix(0 -1 -1 0 0 0)" x="37" y="-679" width="210" height="174" ry="7.5" fill="#a1887f"/><path fill="#fff" d="M520-232h144v176H520z"/><rect x="572" y="-264" width="40" height="46" ry="20" fill="#666"/><rect x="576" y="-260" width="32" height="41.5" ry="16" fill="#ccc"/><path fill="#ccc" d="M556-228h72v10h-72z"/><rect x="556" y="-236" width="72" height="16" ry="8" fill="#ccc"/><circle cx="592" cy="-244" r="8" fill="#fff"/><rect x="536" y="-100" width="72" height="8" ry="3.646" fill="#474341" fill-opacity=".69"/><rect x="536" y="-124" width="112" height="8" ry="3.646" fill="#474341" fill-opacity=".69"/><rect x="536" y="-148" width="112" height="8" ry="3.646" fill="#474341" fill-opacity=".69"/><rect x="536" y="-172" width="112" height="8" ry="3.646" fill="#474341" fill-opacity=".69"/></g></svg>