<svg version="1.0" viewBox="0 0 256 256" xmlns="http://www.w3.org/2000/svg"><g transform="translate(-464 -28)"><rect x="472" y="38" width="240" height="240" ry="120" fill="#213397"/><rect x="472" y="36" width="240" height="240" ry="120" fill="#3f51b5"/><path d="M577 204h20v24h-20zm20-13h-20c0-19.256 2.703-33.876 14.754-45.445 5.863-5.628 12.35-11.637 16.459-18.085 1.841-2.89 3-7.351 2.787-10.47-.889-13.057-12.147-18.21-23-18-12.89.25-25.468 7.466-35 14V94c11.703-6.974 25.441-10.058 38-10 21.407.092 40.405 13.416 40 33-.347 16.795-13.38 26.562-24.797 37.167C597.02 162.697 597 175.93 597 191z" fill="#fff"/><rect x="472.5" y="36.5" width="239" height="239" ry="119.5" fill="none" stroke="#fff" stroke-linecap="round" stroke-linejoin="round" stroke-opacity=".392"/></g></svg>