<svg version="1.0" viewBox="0 0 256 256" xmlns="http://www.w3.org/2000/svg"><g transform="translate(-464 -28)"><rect x="505" y="44" width="176" height="226" ry="8" fill="#1f285a"/><rect x="505" y="44" width="176" height="224" ry="8" fill="#3f51b5"/><rect x="505.5" y="44.5" width="175" height="223" ry="7.5" fill="none" stroke="#000" stroke-linecap="round" stroke-linejoin="round" stroke-opacity=".314"/><path d="M578 204h20v24h-20zm20-13h-20c0-19.256 2.703-33.876 14.754-45.445 5.863-5.628 12.35-11.637 16.459-18.085 1.841-2.89 3-7.351 2.787-10.47-.889-13.057-12.147-18.21-23-18-12.89.25-25.468 7.466-35 14V94c11.703-6.974 25.441-10.058 38-10 21.407.092 40.405 13.416 40 33-.347 16.796-13.38 26.562-24.797 37.167C598.02 162.697 598 175.93 598 191z" fill="#fff"/></g></svg>