<svg version="1.0" viewBox="0 0 256 256" xmlns="http://www.w3.org/2000/svg"><defs><linearGradient id="a" x1="540" x2="540" y1="106" y2="207" gradientTransform="translate(0 244)" gradientUnits="userSpaceOnUse"><stop stop-color="#888" stop-opacity=".196" offset="0"/><stop stop-color="#7f7f7f" stop-opacity=".314" offset=".031"/><stop stop-color="#7f7f7f" stop-opacity=".196" offset=".961"/><stop stop-opacity=".275" offset="1"/></linearGradient><linearGradient id="b" x1="500" x2="500" y1="174" y2="251" gradientTransform="translate(0 244)" gradientUnits="userSpaceOnUse"><stop stop-color="#888" stop-opacity=".196" offset="0"/><stop stop-color="#7f7f7f" stop-opacity=".314" offset=".026"/><stop stop-color="#7f7f7f" stop-opacity=".196" offset=".961"/><stop stop-opacity=".275" offset="1"/></linearGradient></defs><g transform="translate(-464 -58)"><rect x="532" y="104" width="172" height="104" ry="5" fill="#3f51b5"/><path d="M704 202v22l-16-16z" fill="#3f51b5"/><path transform="translate(0 -244)" d="M537 349c-2.216 0-4 1.784-4 4v94c0 2.216 1.784 4 4 4h151.41L703 465.586v-112.59c0-2.216-1.784-4-4-4z" fill="none" stroke="url(#a)" stroke-linecap="round" stroke-width="2"/><rect x="480" y="172" width="80" height="80" ry="4" fill="#48b9c7"/><path d="M480 246v22l16-16z" fill="#48b9c7"/><g fill="#fff" aria-label="Q?"><path d="M508 195c-3.438 0-6.559 1.219-8.59 3.781-2.015 2.563-3.41 5.797-3.41 10.22 0 4.405 1.395 8.148 3.41 10.71 2.031 2.563 5.152 3.29 8.59 3.29s5.77-.727 7.77-3.29c2.015-2.562 3.23-6.304 3.23-10.71 0-4.423-1.215-7.657-3.23-10.22-2-2.562-4.332-3.781-7.77-3.781zm12 37h-5.5l-4.5-5h-2c-4.922 0-9.277-1.336-12.23-4.617-2.938-3.297-4.77-7.867-4.77-13.383 0-5.531 1.864-9.68 4.801-12.961 2.953-3.297 7.278-5.04 12.2-5.04 4.906 0 8.44 1.743 11.378 5.04 2.938 3.281 4.621 7.43 4.621 12.96 0 4.063-1.035 7.798-2.675 10.688-1.625 2.89-3.23 4.937-6.325 6.312z"/><path d="M536 221h4v5h-4zm4-4h-4v-3.61c0-1.577.219-2.874.656-3.89s1.145-1.875 2.551-3.219l2.11-2.086c.89-.828 1.53-1.61 1.921-2.343.407-.735.762-1.586.762-2.352 0-1.39-.668-2.414-1.7-3.273-1.015-.86-2.112-1.227-3.8-1.227-1.234 0-2.809.21-4.215.758-1.39.547-2.77 1.195-4.285 2.242v-4c1.469-.89 2.879-1.813 4.379-2.25 1.516-.438 3.012-.75 4.621-.75 2.875 0 5.246.851 6.98 2.367 1.75 1.516 2.027 3.649 2.02 6.133-.008 2.947-1.413 5.137-3.191 6.875l-2.063 2.016c-.869.849-2.046 1.586-2.488 2.609-.135.313-.164.726-.211 1.195-.047.469-.07 1.11-.07 1.922z"/></g><path transform="translate(0 -244)" d="M484 417c-1.662 0-3 1.338-3 3v89.583L495.582 495H556c1.662 0 3-1.338 3-3v-72c0-1.662-1.338-3-3-3z" fill="none" stroke="url(#b)" stroke-linecap="round" stroke-width="2"/><g fill="#fff" stroke-width="1.772" aria-label="A..."><path d="M590.5 126 579 157h23zm-5-8h10l23.5 62h-9l-5.5-16h-28l-5.5 16h-9z"/><path d="M627.24 169.45h8.761v10.547h-8.761z"/><path d="M654.24 169.45h8.761v10.547h-8.761z"/><path d="M681.24 169.45h8.761v10.547h-8.761z"/></g><path d="M480 242v26l2-4.828V242z" color="#000" fill="#54acb7" style="font-feature-settings:normal;font-variant-alternates:normal;font-variant-caps:normal;font-variant-ligatures:normal;font-variant-numeric:normal;font-variant-position:normal;isolation:auto;mix-blend-mode:normal;shape-padding:0;text-decoration-color:#000;text-decoration-line:none;text-decoration-style:solid;text-indent:0;text-orientation:mixed;text-transform:none;white-space:normal"/><path d="M702 199v20.176l2 4.824v-25z" fill="#4c5aaa"/><path d="M376 206c-2.216 0-4 1.784-4 4v52c0 2.216 1.784 4 4 4h37l19 19v-75c0-2.216-1.784-4-4-4z" fill="#213397"/><path d="M376 202c-2.216 0-4 1.784-4 4v52c0 2.216 1.784 4 4 4h37l19 19v-75c0-2.216-1.784-4-4-4z" fill="#4860c8"/><path d="M376 204c-2.216 0-4 1.784-4 4v52c0 2.216 1.784 4 4 4h37l19 19v-75c0-2.216-1.784-4-4-4z" fill="#3f51b5"/><path d="M324 226c-2.216 0-4 1.784-4 4v72l16-16h40c2.216 0 4-1.784 4-4v-52c0-2.216-1.784-4-4-4z" fill="#1c8d9b"/><path d="M324 222c-2.216 0-4 1.784-4 4v72l16-16h40c2.216 0 4-1.784 4-4v-52c0-2.216-1.784-4-4-4z" fill="#4ea9b4"/><path d="M324 224c-2.216 0-4 1.784-4 4v72l16-16h40c2.216 0 4-1.784 4-4v-52c0-2.216-1.784-4-4-4z" fill="#48b9c7"/><g fill="#fff" stroke-width="3.444" aria-label="Q?"><path d="M340.5 240c-6.258.11-8.483 6.142-8.5 11-.02 5.666 3.107 11.096 8.5 11 6.232-.11 8.484-6.165 8.5-11 .019-5.652-3.113-11.095-8.5-11zm9.5 29h-4l-4-4h-1.5c-8.25 0-12.499-7.248-12.5-14 0-7.88 5.43-14.075 12.52-14 8.237.087 12.472 7.271 12.48 14 .006 5.564-2.802 10.849-7.5 13z"/><path d="M362 260h3v4h-3zm3-3h-3c0-3.5.435-6.214 2.7-8.377 1.63-1.556 4.27-2.988 4.3-5.123.035-2.453-2.915-3.545-5-3.5-2.42.052-4.207.771-6 2v-3c2.194-1.307 4.146-2.053 6.5-2 4.01.09 7.593 2.747 7.5 6.5-.078 3.158-2.488 4.682-4.592 6.738C365.272 252.326 365 254 365 257z"/></g><g fill="#fff" stroke-width="3.43" aria-label="A!"><path d="m399 225-4.5 12.5h9.5zm-2-4h4.5l10.5 26h-4l-2.5-6.5h-12L391 247h-4z"/><path d="M417 243h4v4h-4zm0-22h4v12l-.5 6h-3l-.5-6z"/></g><rect transform="scale(-1 1)" x="-284" y="258" width="30" height="24" ry="3" fill="#4860c8"/><rect transform="scale(-1 1)" x="-284" y="262" width="30" height="24" ry="3" fill="#213397"/><rect transform="scale(-1 1)" x="-284" y="260" width="30" height="24" ry="3" fill="#3f51b5"/><rect x="228" y="274" width="30" height="24" ry="3" fill="#4ea9b4"/><rect x="228" y="278" width="30" height="24" ry="3" fill="#1c8d9b"/><rect x="228" y="276" width="30" height="24" ry="3" fill="#48b9c7"/><path d="m228 308 6-6-6-3.5z" fill="#1c8d9b"/><path d="m228 306 6-6-6-3.5z" fill="#48b9c7"/><path d="m284 291-6-6 6-3.5z" fill="#213397"/><path d="m284 289-6-6 6-3.5z" fill="#3f51b5"/><rect x="178" y="276" width="22" height="19" ry="3" fill="#213397"/><rect x="178" y="272" width="22" height="19" ry="3" fill="#4860c8"/><rect x="178.1" y="274.85" width="22" height="19" ry="3" fill="#3f51b5"/><rect x="160" y="282" width="22" height="19" ry="3" fill="#4ea9b4"/><rect x="160" y="286" width="22" height="19" ry="3" fill="#1c8d9b"/><rect x="160" y="284" width="22" height="19" ry="3" fill="#48b9c7"/><rect x="115" y="286" width="15" height="13" ry="2" fill="#4860c8"/><rect x="115" y="288" width="15" height="13" ry="2" fill="#213397"/><rect x="115" y="287" width="15" height="13" ry="2" fill="#3f51b5"/><rect x="102" y="293" width="15" height="13" ry="2" fill="#4ea9b4"/><rect x="102" y="295" width="15" height="13" ry="2" fill="#1c8d9b"/><rect x="102" y="294" width="15" height="13" ry="2" fill="#48b9c7"/><rect x="67" y="292" width="12" height="10" ry="1.5" fill="#4860c8"/><rect x="67" y="294" width="12" height="10" ry="1.5" fill="#213397"/><rect x="67" y="293" width="12" height="10" ry="1.5" fill="#3f51b5"/><rect x="57" y="299" width="12" height="10" ry="1.5" fill="#4ea9b4"/><rect x="57" y="301" width="12" height="10" ry="1.5" fill="#1c8d9b"/><rect x="57" y="300" width="12" height="10" ry="1.5" fill="#48b9c7"/><rect x="23" y="299" width="8" height="8" ry="1" fill="#4860c8"/><rect x="23" y="301" width="8" height="8" ry="1" fill="#213397"/><rect x="23" y="300" width="8" height="8" ry="1" fill="#3f51b5"/><rect x="17" y="305" width="8" height="8" ry="1" fill="#1c8d9b"/><path d="m27 302-1 3h2zm-.5-1h1l3 7h-1l-1-2h-3l-1 2h-1z" fill="#fff"/><rect x="17" y="303" width="8" height="8" ry="1" fill="#4ea9b4"/><rect x="17" y="304" width="8" height="8" ry="1" fill="#48b9c7"/><path d="m160 310 5-5-5-3z" fill="#1c8d9b"/><path d="m160 308 5-5-5-3z" fill="#48b9c7"/><path d="m102 312 4-4-4-3z" fill="#1c8d9b"/><path d="m102 311 4-4-4-3z" fill="#48b9c7"/><path d="m200 300-5-5 5-3z" fill="#213397"/><path d="m200 298-5-5 5-3z" fill="#3f51b5"/><path d="m130 305-4-4 4-3z" fill="#213397"/><path d="m130 304-4-4 4-3z" fill="#3f51b5"/><g fill="#fff" stroke-width="1.431" aria-label="Q?"><path d="M237.006 282.007c-3.462.144-5.028 2.73-5 5.5.033 3.22 1.887 6.117 5 6 3.531-.131 5.027-3.152 5-6-.031-3.277-1.797-5.632-5-5.5zm3 13 3 3h-2.49l-2.51-2.5h-1c-4.674 0-7.001-4.044-7-8 .001-4.393 3.083-7.614 7-7.5 4.728.139 7.027 3.484 7 7.5-.021 3.17-1.298 6.27-4 7.5z"/><path d="M249.351 292.71h2.073v2.576h-2.073zm2.012-1.492h-1.95v-1.562q0-1.024.286-1.684.285-.66 1.204-1.532l.919-.903q.582-.537.837-1.014.266-.477.266-.974 0-.903-.674-1.46-.664-.559-1.766-.559-.807 0-1.726.355-.908.355-1.898 1.035v-1.907q.96-.578 1.94-.862.99-.284 2.041-.284 1.878 0 3.012.984 1.143.984 1.143 2.597 0 .77-.368 1.47-.367.69-1.286 1.563l-.898.872q-.48.477-.684.75-.194.265-.276.518-.061.213-.092.518-.03.304-.03.832z"/></g><g fill="#fff" stroke-width="1.431" aria-label="A!"><path d="m266.994 266.007-3 8h6zm-1-2h2l6.5 16h-2l-1.5-4h-8l-1.5 4h-2z"/><path d="M277.995 278.004h2v2h-2zm0-14h2v7l-.5 5h-1l-.5-5z"/></g><g fill="#fff" stroke-width="1.196" aria-label="Q?"><path d="M167.71 288.97c-2.16.243-2.968 2.012-2.984 3.806 0 1.171.268 2.097.804 2.778.54.681 1.059.951 1.972.951 2.5 0 3.164-1.942 3.18-3.729-.053-1.961-1.066-3.779-2.972-3.806zm3.292 10.035h-1.5l-1-1.5h-1c-1.308 0-2.147-.344-2.931-1.216-.781-.876-1.172-2.047-1.172-3.513.102-2.733 1.792-4.795 4.311-4.828 2.854.188 4.274 2.418 4.298 4.828-.024 2.115-.947 3.235-2.506 4.229z"/><path d="M175 296h1v1h-1zm1-1h-1c0-1.5.33-2.263 1.105-3.02.594-.581 1.351-1.253 1.395-1.98.047-.777-.5-1-1.5-1-.86 0-1.349.113-2 .5v-1c.765-.506 1.18-.494 2-.5 1.606-.01 2.391.691 2.5 2 .092 1.103-.711 1.81-1.454 2.54-.73.643-1.046.96-1.046 2.46z"/></g><g fill="#fff" stroke-width="1.196" aria-label="A!"><path d="m188.505 281.002-1.5 4.5h3zm-1-1h2l3.5 9h-1.5l-1-2.5h-4l-1 2.5h-1.5z"/><path d="M194.005 287.002h1.5v2h-1.5zm0-7h1.5v4l-.5 2h-1.01l.01-2z"/></g><g fill="#fff" stroke-width=".814" aria-label="Q?"><path d="M106.5 297.003c-1.742 0-2.515 1.545-2.5 3 .02 1.84.966 2.93 2.5 3 1.733.08 2.5-1.5 2.5-3 0-1.837-1-3-2.5-3zm1.5 6.5 1.155 1.5H108l-1-1h-.5c-1.5 0-3.527-2.032-3.5-4 .03-2.172 1.5-4 3.5-4 2.294 0 3.5 2 3.5 4 0 1.78-.817 2.773-2 3.5z"/><path d="M112 303.01h.998v1H112zm.998-1h-1c0-1.5.379-1.892 1-2.5.483-.474 1-.927 1-1.5 0-1-.886-1-1.5-1-1.5 0-1.982.695-2.5 1v-1c.601-.413 1-1 2.5-1 1.312 0 2.5 1 2.5 2 0 .887-.91 1.908-1.5 2.5-.5.5-.5.709-.5 1.5z"/></g><path d="M126 295h1v1h-1zm0-5h1v2.775l-.085 1.225h-.826l-.089-1.225z" fill="#fff" aria-label="A!"/><path d="M62.504 302.01c-2 0-2.515 1.044-2.5 2.5.019 1.839.966 2.429 2.5 2.5 1.733.08 2.515-1.051 2.5-2.5-.02-1.837-.966-2.5-2.5-2.5zm1.5 5.5 1 1.5-.477-.005-.523.005-1-1h-.5c-2.297 0-3.527-1.533-3.5-3.5.03-2.172 1.5-3.5 3.5-3.5 2.294 0 3.607 1.54 3.5 3.5-.097 1.778-.817 2.273-2 3z" fill="#fff" aria-label="Q?"/><path d="m73.5 295-1 3h2zm-.5-1h1l3 7h-1l-1-2h-3l-1 2h-1z" fill="#fff"/><path d="m122 290-1 3h2zm-.5-1h1l3 7h-1l-1-2h-3l-1 2h-1z" fill="#fff"/><path d="M20.998 306.001c-1.712 0-2.012.727-2 2 .017 1.61.687 1.939 2 2 1.485.07 2.013-.732 2-2-.016-1.607-.686-2-2-2zm1.5 4.5 1 1.5h-1l-1-1h-.5c-1.967 0-3.023-1.278-3-3 .026-1.9 1.285-3 2.998-3 1.964 0 3.094 1.286 3.002 3-.083 1.556-.487 1.864-1.5 2.5z" fill="#fff" aria-label="Q?"/></g></svg>