<svg version="1.0" viewBox="0 0 256 256" xmlns="http://www.w3.org/2000/svg"><defs><linearGradient id="a" x1="540" x2="540" y1="106" y2="207" gradientTransform="translate(0 -30)" gradientUnits="userSpaceOnUse"><stop stop-color="#888" stop-opacity=".196" offset="0"/><stop stop-color="#7f7f7f" stop-opacity=".314" offset=".031"/><stop stop-color="#7f7f7f" stop-opacity=".196" offset=".961"/><stop stop-opacity=".275" offset="1"/></linearGradient><linearGradient id="b" x1="500" x2="500" y1="174" y2="251" gradientTransform="translate(0 -30)" gradientUnits="userSpaceOnUse"><stop stop-color="#888" stop-opacity=".196" offset="0"/><stop stop-color="#7f7f7f" stop-opacity=".314" offset=".026"/><stop stop-color="#7f7f7f" stop-opacity=".196" offset=".961"/><stop stop-opacity=".275" offset="1"/></linearGradient></defs><g transform="translate(-464 -28)"><rect x="532" y="74" width="172" height="104" ry="5" fill="#3f51b5"/><path d="M704 172v22l-16-16z" fill="#3f51b5"/><path d="M537 75c-2.216 0-4 1.784-4 4v94c0 2.216 1.784 4 4 4h151.41L703 191.586V78.996c0-2.216-1.784-4-4-4z" fill="none" stroke="url(#a)" stroke-linecap="round" stroke-width="2"/><rect x="480" y="142" width="80" height="80" ry="4" fill="#48b9c7"/><path d="M480 216v22l16-16z" fill="#48b9c7"/><g fill="#fff" aria-label="Q?"><path d="M508 165c-3.438 0-6.559 1.219-8.59 3.781-2.015 2.563-3.41 5.797-3.41 10.22 0 4.405 1.395 8.148 3.41 10.71 2.031 2.563 5.152 3.29 8.59 3.29s5.77-.727 7.77-3.29c2.015-2.562 3.23-6.304 3.23-10.71 0-4.423-1.215-7.657-3.23-10.22-2-2.562-4.332-3.781-7.77-3.781zm12 37h-5.5l-4.5-5h-2c-4.922 0-9.277-1.336-12.23-4.617-2.938-3.297-4.77-7.867-4.77-13.383 0-5.531 1.864-9.68 4.801-12.961 2.953-3.297 7.278-5.04 12.2-5.04 4.906 0 8.44 1.743 11.378 5.04 2.938 3.281 4.621 7.43 4.621 12.96 0 4.063-1.035 7.798-2.675 10.688-1.625 2.89-3.23 4.937-6.325 6.312z"/><path d="M536 191h4v5h-4zm4-4h-4v-3.61c0-1.577.219-2.874.656-3.89s1.145-1.875 2.551-3.219l2.11-2.086c.89-.828 1.53-1.61 1.921-2.343.407-.735.762-1.586.762-2.352 0-1.39-.668-2.414-1.7-3.273-1.015-.86-2.112-1.227-3.8-1.227-1.234 0-2.809.21-4.215.758-1.39.547-2.77 1.195-4.285 2.242v-4c1.469-.89 2.879-1.813 4.379-2.25 1.516-.438 3.012-.75 4.621-.75 2.875 0 5.246.851 6.98 2.367 1.75 1.516 2.027 3.649 2.02 6.133-.008 2.947-1.413 5.137-3.191 6.875l-2.063 2.016c-.869.849-2.046 1.586-2.488 2.609-.135.313-.164.726-.211 1.195-.047.469-.07 1.11-.07 1.922z"/></g><path d="M484 143c-1.662 0-3 1.338-3 3v89.583L495.582 221H556c1.662 0 3-1.338 3-3v-72c0-1.662-1.338-3-3-3z" fill="none" stroke="url(#b)" stroke-linecap="round" stroke-width="2"/><g fill="#fff" stroke-width="1.772" aria-label="A..."><path d="M590.5 96 579 127h23zm-5-8h10l23.5 62h-9l-5.5-16h-28l-5.5 16h-9z"/><path d="M627.24 139.45h8.761v10.547h-8.761z"/><path d="M654.24 139.45h8.761v10.547h-8.761z"/><path d="M681.24 139.45h8.761v10.547h-8.761z"/></g><path d="M480 212v26l2-4.828V212z" color="#000" fill="#54acb7" style="font-feature-settings:normal;font-variant-alternates:normal;font-variant-caps:normal;font-variant-ligatures:normal;font-variant-numeric:normal;font-variant-position:normal;isolation:auto;mix-blend-mode:normal;shape-padding:0;text-decoration-color:#000;text-decoration-line:none;text-decoration-style:solid;text-indent:0;text-orientation:mixed;text-transform:none;white-space:normal"/><path d="M702 169v20.176l2 4.824v-25z" fill="#4c5aaa"/></g></svg>