<svg version="1.0" viewBox="0 0 256 256" xmlns="http://www.w3.org/2000/svg"><g transform="translate(-464 572)"><path d="M483.5-515.5 592-568l108.5 52.5c1.033.5 3.5 2.176 3.5 5.5v166c0 3.324-2.676 6-6 6H486c-3.324 0-6-2.676-6-6v-166c0-3.324 2.467-5 3.5-5.5z" fill="#a27100"/><rect x="512" y="-554" width="160" height="160" ry="8" fill="#dedede"/><rect x="512.5" y="-553.5" width="159" height="159" ry="7.5" fill="none" stroke="#303030" stroke-linecap="round" stroke-opacity=".392"/><path d="M480-508v162c0 3.324 2.676 6 6 6h212c3.324 0 6-2.676 6-6v-162l-112 98z" fill="#ffce51"/><path d="M547.96-448.54 480.005-346c0 3.324 2.676 6 6 6h212c3.324 0 6-2.676 6-6L636.05-448.54l-44.045 38.539z" fill="#c29a32"/><path d="M698-515.5c3.047 0 5.5 2.453 5.5 5.5v164c0 3.047-2.453 5.5-5.5 5.5H486a5.488 5.488 0 0 1-5.5-5.5v-164c0-3.047 2.453-5.5 5.5-5.5" fill="none" stroke="#303030" stroke-linecap="round" stroke-linejoin="round" stroke-opacity=".392"/><path d="m595.19-536 38.812 27-38.812 27v-15h-12c-8.19 0-15.43 5.24-17.625 12-2.626 8.085 8.625 24 8.625 24s-24-9-24-28.5c0-18.741 12-31.5 30-31.5h15z" color="#bebebe" fill="#393634" fill-opacity=".784" style="text-decoration-line:none;text-indent:0;text-transform:none"/></g></svg>