<svg version="1.0" viewBox="0 0 256 256" xmlns="http://www.w3.org/2000/svg"><g transform="translate(-464 -28)"><rect x="480" y="84" width="224" height="178" ry="6" fill="#a27100"/><rect x="480" y="84" width="224" height="176" ry="6" fill="#ffce51"/><path d="M486 260h212c3.324 0 6-2.676 6-6L592 85 480 254c0 3.324 2.676 6 6 6z" fill="#c29a32"/><path d="M704 90v2l-112 98-112-98v-2z" fill-opacity=".196"/><path d="M486 84h212c3.324 0 6 2.676 6 6l-112 98-112-98c0-3.324 2.676-6 6-6z" fill="#ffee7d"/><rect x="480.5" y="84.5" width="223" height="175" ry="5.5" fill="none" stroke="#303030" stroke-linecap="round" stroke-linejoin="round" stroke-opacity=".392"/><path d="M664 248v-32h16l-36-32-36 32h16v32z" fill="#faa41a"/><path d="M704 216v32h16l-36 32-36-32h16v-32z" fill="#73c48f"/><path d="M663 247v-32h14.371L644 185.34 610.629 215H625v32z" fill="none" stroke="#000" stroke-opacity=".392" stroke-width="2"/><path d="M703 217v32h14.371L684 278.66 650.629 249H665v-32z" fill="none" stroke="#000" stroke-opacity=".392" stroke-width="2"/></g></svg>