<svg version="1.0" viewBox="0 0 256 256" xmlns="http://www.w3.org/2000/svg"><g transform="translate(-464 -28)"><rect x="228" y="236" width="56" height="44" ry="4" fill="#a27100"/><rect x="228" y="234" width="56" height="44" ry="4" fill="#ffce51"/><path d="M232 278h48c2.216 0 4-1.784 4-4l-28-39-28 39c0 2.216 1.784 4 4 4z" fill="#c29a32"/><path d="M284 238v2l-28 22-28-22v-2z" fill-opacity=".196"/><path d="M232 234h48c2.216 0 4 1.784 4 4l-28 22-28-22c0-2.216 1.784-4 4-4z" fill="#ffee7d"/><rect x="228.5" y="234.5" width="55" height="43" ry="3.49" fill="none" stroke="#303030" stroke-linecap="round" stroke-linejoin="round" stroke-opacity=".392"/><rect x="159" y="247" width="42" height="34" ry="4" fill="#a27100"/><rect x="159" y="247" width="42" height="32" ry="4" fill="#ffce51"/><path d="M163 279h34c2.216 0 4-1.784 4-4l-21-27-21 27c0 2.216 1.784 4 4 4z" fill="#c29a32"/><path d="M201 251v2l-21 15-21-15v-2z" fill-opacity=".196"/><path d="M163 247h34c2.216 0 4 1.784 4 4l-21 15-21-15c0-2.216 1.784-4 4-4z" fill="#ffee7d"/><rect x="159.5" y="247.5" width="41" height="31" ry="3.49" fill="none" stroke="#303030" stroke-linecap="round" stroke-linejoin="round" stroke-opacity=".392"/><rect x="102" y="259" width="28" height="23" ry="2" fill="#a27100"/><rect x="102" y="259" width="28" height="22" ry="2" fill="#ffce51"/><path d="M104 281h24c1.108 0 2-.892 2-2l-14-19-14 19c0 1.108.892 2 2 2z" fill="#c29a32"/><path d="M130 261v1l-14 11-14-11v-1z" fill-opacity=".314"/><path d="M104 259h24c1.108 0 2 .892 2 2l-14 11-14-11c0-1.108.892-2 2-2z" fill="#ffee7d"/><rect x="102.5" y="259.5" width="27" height="21" ry="1.5" fill="none" stroke="#303030" stroke-linecap="round" stroke-linejoin="round" stroke-opacity=".392"/><rect x="320" y="184" width="112" height="90" ry="6" fill="#a27100"/><rect x="320" y="184" width="112" height="88" ry="6" fill="#ffce51"/><rect x="480" y="84" width="224" height="178" ry="6" fill="#a27100"/><rect x="480" y="84" width="224" height="176" ry="6" fill="#ffce51"/><path d="M326 272h100c3.324 0 6-2.676 6-6l-56-81-56 81c0 3.324 2.676 6 6 6z" fill="#c29a32"/><path d="M432 190v2l-56 46-56-46v-2z" fill-opacity=".196"/><path d="M326 184h100c3.324 0 6 2.676 6 6l-56 46-56-46c0-3.324 2.676-6 6-6z" fill="#ffee7d"/><path d="M486 260h212c3.324 0 6-2.676 6-6L592 85 480 254c0 3.324 2.676 6 6 6z" fill="#c29a32"/><path d="M704 90v2l-112 98-112-98v-2z" fill-opacity=".196"/><path d="M486 84h212c3.324 0 6 2.676 6 6l-112 98-112-98c0-3.324 2.676-6 6-6z" fill="#ffee7d"/><rect x="320.5" y="184.5" width="111" height="87" ry="5.5" fill="none" stroke="#303030" stroke-linecap="round" stroke-linejoin="round" stroke-opacity=".392"/><rect x="480.5" y="84.5" width="223" height="175" ry="5.5" fill="none" stroke="#303030" stroke-linecap="round" stroke-linejoin="round" stroke-opacity=".392"/><path d="M699.5 276h-23L660 259.5v-23l16.5-16.5h23l16.5 16.5v23z" fill-opacity=".392"/><path d="M699.5 274h-23L660 257.5v-23l16.5-16.5h23l16.5 16.5v23z" fill="#1c6d38"/><path d="m704 235.02-22 22-10-10" fill="none" stroke="#fff" stroke-linecap="round" stroke-linejoin="round" stroke-width="8"/><path d="M422.5 282h-23L383 265.5v-23l16.5-16.5h23l16.5 16.5v23z" fill-opacity=".392"/><path d="M422.5 280h-23L383 263.5v-23l16.5-16.5h23l16.5 16.5v23z" fill="#1c6d38"/><path d="m426 241.02-22 22-10-10" fill="none" stroke="#fff" stroke-linecap="round" stroke-linejoin="round" stroke-width="8"/><path d="M279 283h-12l-8-8v-12l8-8h11.5l8.5 8v11.5z" fill-opacity=".392"/><path d="M279 282h-12l-8-8v-12l8-8h12l8 8v11.5z" fill="#1c6d38"/><path d="m282 263-11 11-5-5" fill="none" stroke="#fff" stroke-linecap="round" stroke-linejoin="round" stroke-width="4"/><path d="M195 284h-12l-8-8v-12l8-8h11.5l8.5 8v11.5z" fill-opacity=".392"/><path d="M195 283h-12l-8-8v-12l8-8h12l8 8v11.5z" fill="#1c6d38"/><path d="m195 265-8 8-4-4" fill="none" stroke="#fff" stroke-linecap="round" stroke-linejoin="round" stroke-width="3"/><path d="M127 284h-6l-4-4v-6l4-4h5.75l4.25 4v5.75z" fill-opacity=".392"/><path d="M127 283h-6l-4-4v-6l4-4.5h6l4 4.5v5.75z" fill="#1c6d38"/><path d="M27 283h-6l-4-4v-6l4-4h6l4 4v6z" fill="#1c6d38"/><path d="M26.786 282.5h-5.572l-3.714-3.714v-5.572l3.714-3.714h5.572l3.714 3.714v5.572z" fill="none" stroke="#e8e8e8" stroke-opacity=".392"/><path d="M72 282h-8l-6-6v-8l6-6h8l6 6v8z" fill="#1c6d38"/><path d="M71.8 281.5h-7.6l-5.7-5.7v-7.6l5.7-5.7h7.6l5.7 5.7v7.6z" fill="none" stroke="#f9f9f9" stroke-linecap="round" stroke-opacity=".392"/><path d="M27.243 273.26 23 277.503l-2.12-2.122" fill="none" stroke="#fff" stroke-linecap="round" stroke-linejoin="round" stroke-width="2"/><path d="m74 268-8 8-4-4" fill="none" stroke="#fff" stroke-linecap="round" stroke-linejoin="round" stroke-width="2"/><path d="m127.24 273.26-4.243 4.243-2.12-2.122" fill="none" stroke="#fff" stroke-linecap="round" stroke-linejoin="round" stroke-width="2"/></g></svg>