<svg version="1.0" viewBox="0 0 256 256" xmlns="http://www.w3.org/2000/svg"><g transform="translate(-464 -28)"><path d="M483.5 84.5 592 32l108.5 52.5c1.033.5 3.5 2.176 3.5 5.5v166c0 3.324-2.676 6-6 6H486c-3.324 0-6-2.676-6-6V90c0-3.324 2.467-5 3.5-5.5z" fill="#a27100"/><rect x="512" y="46" width="160" height="160" ry="8" fill="#dedede"/><rect x="512.5" y="46.5" width="159" height="159" ry="7.5" fill="none" stroke="#303030" stroke-linecap="round" stroke-opacity=".392"/><path d="M480 92v162c0 3.324 2.676 6 6 6h212c3.324 0 6-2.676 6-6V92l-112 98z" fill="#ffce51"/><path d="M547.96 151.46 480.005 254c0 3.324 2.676 6 6 6h212c3.324 0 6-2.676 6-6L636.05 151.46l-44.045 38.539z" fill="#c29a32"/><path d="M698 84.5c3.047 0 5.5 2.453 5.5 5.5v164c0 3.047-2.453 5.5-5.5 5.5H486a5.488 5.488 0 0 1-5.5-5.5V90c0-3.047 2.453-5.5 5.5-5.5" fill="none" stroke="#303030" stroke-linecap="round" stroke-linejoin="round" stroke-opacity=".392"/><path d="m647 80.061-66 66-30-30" fill="none" stroke="#393634" stroke-linecap="round" stroke-linejoin="round" stroke-width="24"/></g></svg>