<svg version="1.0" viewBox="0 0 256 256" xmlns="http://www.w3.org/2000/svg"><g transform="translate(-464 -28)"><rect x="480" y="84" width="224" height="178" ry="6" fill="#a27100"/><rect x="480" y="84" width="224" height="176" ry="6" fill="#ffce51"/><path d="M486 260h212c3.324 0 6-2.676 6-6L592 85 480 254c0 3.324 2.676 6 6 6z" fill="#c29a32"/><path d="M704 90v2l-112 98-112-98v-2z" fill-opacity=".196"/><path d="M486 84h212c3.324 0 6 2.676 6 6l-112 98-112-98c0-3.324 2.676-6 6-6z" fill="#ffee7d"/><rect x="480.5" y="84.5" width="223" height="175" ry="5.5" fill="none" stroke="#303030" stroke-linecap="round" stroke-linejoin="round" stroke-opacity=".392"/><path d="M699.5 276h-23L660 259.5v-23l16.5-16.5h23l16.5 16.5v23z" fill-opacity=".392"/><path d="M699.5 274h-23L660 257.5v-23l16.5-16.5h23l16.5 16.5v23z" fill="#cf3b00"/><path d="M686.99 227a2 2 0 0 0-2 2 2 2 0 0 0 .01.174V242h-2v-10h-.01a2 2 0 0 0-2-2 2 2 0 0 0-2 2 2 2 0 0 0 .01.174V251l-3.533-5.108c-1.655-2.393-6.018-.375-3.967 3.108 2.543 4.317 9.5 17 15.5 17 5.565 0 14.027-.001 14.02-9.059l-.02-23.94h-.01a2 2 0 0 0-2-2 2 2 0 0 0-2 2 2 2 0 0 0 .01.173V244h-2v-14h-.01a2 2 0 0 0-2-2 2 2 0 0 0-2 2 2 2 0 0 0 .01.174V242h-2v-13h-.01a2 2 0 0 0-2-2z" fill="#fff"/></g></svg>