<svg version="1.0" viewBox="0 0 256 256" xmlns="http://www.w3.org/2000/svg"><path d="M78.3 8 8.003 78.297v105.41L78.3 254.004h99.406l70.297-70.297V78.297L177.706 8z" fill="#cf3b00"/><path d="M78.3 8 8.003 78.297v105.41L78.3 254.004h99.406l70.297-70.297V78.297L177.706 8zm.412 1h98.582l69.71 69.709v98.582L177.293 247H78.712L9.003 177.291V78.709z" fill-opacity=".502"/><path d="M544 108h16c4.418 0 8.605 1.605 11.5 4.5l20.5 20.437 20.5-20.437c2.895-2.895 7.082-4.5 11.5-4.5h16v16c0 4.418-1.605 8.605-4.5 11.5L615 155.937l20.5 20.563c2.895 2.896 4.522 7.082 4.5 11.5v16h-16c-4.418 0-8.605-1.605-11.5-4.5L592 178.937 571.5 199.5c-2.895 2.896-7.082 4.5-11.5 4.5h-16v-16c0-4.418 1.605-8.604 4.5-11.5l20.5-20.563-20.5-20.437c-2.895-2.896-4.5-7.082-4.5-11.5z" color="#000" fill="#fff" style="text-decoration-line:none;text-indent:0;text-transform:none" transform="translate(-464 -28)"/></svg>