<svg version="1.0" viewBox="0 0 256 256" xmlns="http://www.w3.org/2000/svg"><g transform="translate(-464 572)"><rect x="540" y="-412" width="120" height="72" ry="8" fill="#424242"/><rect x="541" y="-399.5" width="118" height="54.5" ry="8" fill="#848484"/><rect x="488" y="-540.01" width="224" height="160" ry="12" fill="#6f6f6f"/><rect x="489" y="-539" width="222" height="154" ry="11.5" fill="#acacac"/><rect x="495" y="-533" width="210" height="132" ry="2" fill="#424242"/><rect x="576" y="-398" width="48" height="8" ry="2" fill="#424242"/><path d="M600-510.5c-12.15 0-22 9.85-22 22 0 9.113 5.461 16.893 13.357 20.232L578-422.5h44l-13.357-45.768A21.88 21.88 0 0 0 622-488.5c0-12.15-9.85-22-22-22z" color="#000" fill="#fff"/></g></svg>