<svg version="1.0" viewBox="0 0 256 256" xmlns="http://www.w3.org/2000/svg"><g transform="translate(-464 1172)"><rect x="472" y="-1164" width="240" height="244" ry="120" fill="#7b736e"/><path d="M592-1164c-66.48 0-120 53.52-120 120v4c0 66.48 53.52 120 120 120s120-53.52 120-120v-4c0-66.48-53.52-120-120-120zm0 1c65.926 0 119 53.074 119 119s-53.074 119-119 119-119-53.074-119-119 53.074-119 119-119z" fill="#fff" fill-opacity=".502"/><path d="M597.86-1106.9c-24.865.913-47.778 16.241-56.812 41.063-11.9 32.696 4.71 69.1 37.406 81 24.821 9.034 51.661 1.305 68.344-17.156-11.95 3.857-25.255 4.065-37.969-.562-30.36-11.05-45.925-44.734-34.875-75.094 4.627-12.714 13.27-22.575 23.906-29.25z" color="#bebebe" fill="#fff"/><path d="M591-1079c-4 0-4 4-4 4v48s0 4 4 4h40s4 0 4-4v-48s0-4-4-4zm20 8c8.837 0 16 7.163 16 16s-7.163 16-16 16h-16v-16c0-8.837 7.163-16 16-16zm0 8a8 8 0 1 0 0 16 8 8 0 0 0 0-16z" fill="#fff" filter="url(#filter7554)"/></g></svg>