<svg version="1.0" viewBox="0 0 256 256" xmlns="http://www.w3.org/2000/svg"><g transform="translate(-464 272)"><rect x="472" y="-264" width="240" height="244" ry="120" fill="#7b736e"/><path d="M592-264c-66.48 0-120 53.52-120 120v4c0 66.48 53.52 120 120 120s120-53.52 120-120v-4c0-66.48-53.52-120-120-120zm0 1c65.926 0 119 53.074 119 119S657.926-25 592-25 473-78.074 473-144s53.074-119 119-119z" fill="#fff" fill-opacity=".502"/><path d="m631-171 36 27-36 27v-18h-36v-18h36z" color="#bebebe" fill="#fff"/><path d="M623.74-178.48a9 9 0 0 0-3.217-6.89 9 9 0 0 0-1.037-.757c-13.232-10.477-30.938-14.523-47.9-9.826-23.444 6.492-39.702 27.97-39.586 52.295.116 24.326 16.573 45.64 40.078 51.908 16.876 4.5 34.411.37 47.514-10.055a9 9 0 0 0 4.149-7.558 9 9 0 0 0-9-9 9 9 0 0 0-5.907 2.197c-8.766 7.227-20.622 10.096-32.115 7.031A35.918 35.918 0 0 1 550-143.746a35.924 35.924 0 0 1 26.385-34.875c11.596-3.21 23.638-.385 32.502 6.943.027.018.045.045.072.072a9 9 0 0 0 .018 0 9 9 0 0 0 5.766 2.127 9 9 0 0 0 9-9z" color="#000" fill="#fff" style="isolation:auto;mix-blend-mode:normal;text-decoration-color:#000;text-decoration-line:none;text-decoration-style:solid;text-indent:0;text-transform:none;white-space:normal"/></g></svg>