<svg version="1.0" viewBox="0 0 256 256" xmlns="http://www.w3.org/2000/svg"><g transform="translate(-464 -28)"><rect x="472" y="36" width="240" height="244" ry="120" fill="#7b736e"/><path d="M592 36c-66.48 0-120 53.52-120 120v4c0 66.48 53.52 120 120 120s120-53.52 120-120v-4c0-66.48-53.52-120-120-120zm0 1c65.926 0 119 53.074 119 119s-53.074 119-119 119-119-53.074-119-119S526.074 37 592 37z" fill="#fff" fill-opacity=".502"/><path d="M592 84a12 12 0 0 0-12 12 12 12 0 0 0 12 12 48 48 0 0 1 48 48h-24l36 48 36-48h-24a72 72 0 0 0-72-72zm-60 24-36 48h24a72 72 0 0 0 72 72 12 12 0 0 0 12-12 12 12 0 0 0-12-12 48 48 0 0 1-48-48h24z" fill="#fff" fill-opacity=".902"/></g></svg>