<svg version="1.0" viewBox="0 0 256 256" xmlns="http://www.w3.org/2000/svg"><g transform="translate(-464 572)"><rect x="472" y="-564" width="240" height="244" ry="120" fill="#7b736e"/><path d="M592-564c-66.48 0-120 53.52-120 120v4c0 66.48 53.52 120 120 120s120-53.52 120-120v-4c0-66.48-53.52-120-120-120zm0 1c65.926 0 119 53.074 119 119s-53.074 119-119 119-119-53.074-119-119 53.074-119 119-119z" fill="#fff" fill-opacity=".502"/><path d="M592-502c-4.97 0-10 3.993-10 8.964v45.002c0 4.97 5.03 9.036 10 9.036s10-4.066 10-9.036v-45.002c0-4.97-5.03-8.964-10-8.964z" color="#bebebe" fill="#fff"/><path d="M557.44-477a9 9 0 0 0-6.89 3.217 9 9 0 0 0-.757 1.037c-10.477 13.232-14.523 30.938-9.826 47.9 6.492 23.444 27.97 39.702 52.295 39.586 24.326-.116 45.64-16.573 51.908-40.078 4.5-16.876.37-34.411-10.055-47.514a9 9 0 0 0-7.558-4.149 9 9 0 0 0-9 9 9 9 0 0 0 2.197 5.907c7.227 8.766 10.096 20.622 7.031 32.115a35.918 35.918 0 0 1-34.611 26.719 35.924 35.924 0 0 1-34.875-26.385c-3.21-11.596-.385-23.638 6.943-32.502.018-.027.045-.045.072-.072a9 9 0 0 0 0-.018 9 9 0 0 0 2.127-5.766 9 9 0 0 0-9-9z" color="#000" fill="#fff" style="isolation:auto;mix-blend-mode:normal;text-decoration-color:#000;text-decoration-line:none;text-decoration-style:solid;text-indent:0;text-transform:none;white-space:normal"/></g></svg>