<svg version="1.0" viewBox="0 0 256 256" xmlns="http://www.w3.org/2000/svg"><g transform="translate(-464 -28)"><rect x="488" y="52" width="208" height="212" ry="16" fill="#7b736e"/><path d="M504 52c-8.864 0-16 7.136-16 16v180c0 8.864 7.136 16 16 16h176c8.864 0 16-7.136 16-16V68c0-8.864-7.136-16-16-16zm0 1h176c8.31 0 15 6.69 15 15v176c0 8.31-6.69 15-15 15H504c-8.31 0-15-6.69-15-15V68c0-8.31 6.69-15 15-15z" fill="#fff" fill-opacity=".502"/><path d="M580 108.05h24l.002 35.955 35.998.048v24l-35.998-.048L604 204.05h-24l.002-36.045-36.002.048v-24l36.002-.048z" color="#bebebe" fill="#fff" fill-opacity=".902"/></g></svg>