<svg version="1.0" viewBox="0 0 256 256" xmlns="http://www.w3.org/2000/svg"><path d="M47.5 15a8.481 8.481 0 0 0-8.5 8.5v214c0 4.709 3.791 8.5 8.5 8.5h161c4.709 0 8.5-3.791 8.5-8.5V79.05l-64.447-64.055z" fill="#671d00"/><path d="M216 80v152c0 4.432-3.568 8-8 8H48c-4.432 0-8-3.568-8-8V24c0-4.432 3.568-8 8-8h104" fill="#cf3b00"/><path d="M216 86h-57c-4.432 0-8-3.568-8-8V16h1l64 64z" fill="#671d00" fill-opacity=".502"/><path d="M216 80h-56c-4.432 0-8-3.568-8-8V16" fill="#f15d22"/><g fill="#f6f6f6"><path d="M104 188a16 16 0 0 0-16-16H72v48h8v-16h8a16 16 0 0 0 16-16zm-8 0a8 8 0 0 1-8 8h-8v-16h8a8 8 0 0 1 8 8z"/><path d="M112 172v48h16c8.864 0 16-7.136 16-16v-16c0-8.864-7.136-16-16-16h-8zm8 8h8c4.432 0 8 3.568 8 8v16c0 4.432-3.568 8-8 8h-8z"/><path d="M152 172v48h8v-20h16v-8h-16v-12h24v-8h-28z"/></g></svg>