<svg version="1.0" viewBox="0 0 256 256" xmlns="http://www.w3.org/2000/svg"><path d="M47.5 15a8.481 8.481 0 0 0-8.5 8.5v214c0 4.709 3.791 8.5 8.5 8.5h161c4.709 0 8.5-3.791 8.5-8.5V79.05l-64.447-64.055z" fill="#6f6f6f"/><path d="M216 80v152c0 4.432-3.568 8-8 8H48c-4.432 0-8-3.568-8-8V24c0-4.432 3.568-8 8-8h104" fill="#ececec"/><path d="M216 86h-57c-4.432 0-8-3.568-8-8V16h1l64 64z" fill="#6f6f6f" fill-opacity=".502"/><path d="M216 80h-56c-4.432 0-8-3.568-8-8V16" fill="#fafafa"/><g fill="#7986cb"><path d="M144.02 100v48h20l-36 56-36-56h20v-48z"/><path d="M88.02 212a8 8 0 1 0 0 16h80a8 8 0 1 0 0-16z"/></g></svg>