<svg version="1.0" viewBox="0 0 256 256" xmlns="http://www.w3.org/2000/svg"><path d="M98 25c-12.188 0-20.969 9.812-21 22v24H36c-6.094 0-11 4.906-11 11v56h31c7.756 0 15 6.244 15 14 0 .487-.036.964-.07 1.441-.737 10.4-10.336 19.56-20.93 19.56H25v56c0 6.093 4.906 11 11 11h41v-19c0-12.189 9.92-22 21-22s21 9.811 21 22v19h41c6.094 0 11-4.907 11-11v-49h24c12.188 0 22-9.813 22-22v-6c0-12.189-9.812-21-22-21h-24V82c0-6.095-4.906-11-11-11h-41V47c0-12.189-8.812-22-21-22z" fill="#396247"/><path d="M98 26c-11.08 0-20 9.835-20 22.051V72H36c-5.54 0-10 4.46-10 10v48h24c12.188 0 22 9.812 22 22s-9.812 22-22 22H26v48c0 5.54 4.46 10 10 10h40v-16c0-12.188 9.812-22 22-22s22 9.812 22 22v16h40c5.54 0 10-4.46 10-10v-50h23.949c12.215 0 22.051-8.92 22.051-20s-9.835-20-22.051-20H170V82c0-5.54-4.46-10-10-10h-42V48.051C118 35.836 109.08 26 98 26z" fill="#73c48f"/></svg>