<svg version="1.0" viewBox="0 0 256 256" xmlns="http://www.w3.org/2000/svg"><g transform="translate(-464 4772)"><path d="M511.5-4757a8.481 8.481 0 0 0-8.5 8.5v214c0 4.709 3.791 8.5 8.5 8.5h161c4.709 0 8.5-3.791 8.5-8.5v-158.44l-64.447-64.055z" fill="#6f6f6f"/><path d="M680-4692v152c0 4.432-3.568 8-8 8H512c-4.432 0-8-3.568-8-8v-208c0-4.432 3.568-8 8-8h104" fill="#ececec"/><path d="M680-4686h-57c-4.432 0-8-3.568-8-8v-62h1l64 64z" fill="#6f6f6f" fill-opacity=".502"/><path d="M680-4692h-56c-4.432 0-8-3.568-8-8v-56" fill="#fafafa"/><ellipse cx="592" cy="-4602" rx="60" ry="30" fill="#777bb3"/></g></svg>