<svg version="1.0" viewBox="0 0 256 256" xmlns="http://www.w3.org/2000/svg"><g transform="translate(-464 -28)"><rect x="504" y="44" width="176" height="228" ry="8" fill="#7b7b7b"/><rect x="505" y="45" width="174" height="222" ry="7.4" fill="#f6f6f6"/><g fill="#393634" fill-opacity=".502" aria-label="50 6F 70 5F 69 63 6F 6E 73 20 62 79 20 49 61 6E 20 53 61 6E 74 6F 70 69 65 74 72 6F"><path d="M538.98 56.52h-6.814v6.421h1.27c.746-.261 1.25-.429 1.996-.429 1.307 0 2.334.69 2.334 2.744 0 1.997-1.008 3.043-2.707 3.043-1.101 0-1.979-.392-2.763-1.195l-.97.952c.99.952 2.184 1.53 3.733 1.53 2.65 0 4.35-1.698 4.35-4.274s-1.42-4.032-3.529-4.032c-.765 0-1.437.13-2.202.56v-4.05h5.077z"/><path d="M546.68 56.32c-2.764 0-4.2 2.37-4.2 6.627 0 4.274 1.436 6.645 4.2 6.645s4.2-2.37 4.2-6.645c0-4.256-1.438-6.627-4.2-6.627zm0 1.27c1.604 0 2.556 1.567 2.556 5.357 0 3.808-.952 5.376-2.557 5.376-1.587 0-2.557-1.568-2.557-5.376 0-3.79.97-5.358 2.557-5.358zm0 4.143a1.2 1.2 0 0 0-1.214 1.214c0 .69.523 1.232 1.213 1.232.71 0 1.232-.542 1.232-1.232 0-.672-.522-1.214-1.232-1.214z"/><path d="M569.63 61.02c-1.27 0-2.297.504-3.1 1.717.056-3.136 1.195-5.152 3.174-5.152.71 0 1.363.187 1.96.542l.616-1.046a4.453 4.453 0 0 0-2.557-.765c-3.006 0-4.78 2.725-4.78 7 0 3.827 1.158 6.272 4.276 6.272 2.24 0 4.05-1.68 4.05-4.536 0-2.744-1.68-4.032-3.64-4.032zm-.411 7.299c-1.83 0-2.614-1.307-2.67-4.2.635-1.083 1.606-1.83 2.838-1.83 1.344 0 2.277.71 2.277 2.82 0 1.978-.822 3.21-2.445 3.21z"/><path d="M578.86 57.87h5.767l.187-1.344h-7.579v12.861h1.624v-5.712h5.04v-1.307h-5.04z"/><path d="m601.34 69.55 5.132-11.816v-1.213h-7.616v1.306h6.03l-5.003 11.293z"/><path d="M613.84 56.32c-2.764 0-4.2 2.37-4.2 6.627 0 4.274 1.436 6.645 4.2 6.645 2.762 0 4.2-2.37 4.2-6.645 0-4.256-1.438-6.627-4.2-6.627zm0 1.27c1.604 0 2.556 1.567 2.556 5.357 0 3.808-.951 5.376-2.557 5.376-1.587 0-2.557-1.568-2.557-5.376 0-3.79.97-5.358 2.557-5.358zm0 4.143a1.2 1.2 0 0 0-1.214 1.214c0 .69.523 1.232 1.213 1.232.71 0 1.232-.542 1.232-1.232 0-.672-.522-1.214-1.232-1.214z"/><path d="M639.72 56.52h-6.814v6.421h1.27c.746-.261 1.25-.429 1.996-.429 1.307 0 2.334.69 2.334 2.744 0 1.997-1.008 3.043-2.707 3.043-1.101 0-1.979-.392-2.763-1.195l-.97.952c.99.952 2.184 1.53 3.733 1.53 2.65 0 4.35-1.698 4.35-4.274s-1.42-4.032-3.529-4.032c-.765 0-1.437.13-2.202.56v-4.05h5.077z"/><path d="M646.02 57.87h5.767l.187-1.344h-7.579v12.861h1.624v-5.712h5.04v-1.307h-5.04z"/><path d="M536.05 91.02c-1.27 0-2.297.504-3.1 1.717.056-3.136 1.195-5.152 3.174-5.152.71 0 1.362.187 1.96.542l.616-1.046a4.453 4.453 0 0 0-2.558-.765c-3.005 0-4.778 2.725-4.778 7 0 3.827 1.157 6.272 4.274 6.272 2.24 0 4.051-1.68 4.051-4.536 0-2.744-1.68-4.032-3.64-4.032zm-.411 7.299c-1.83 0-2.614-1.307-2.67-4.2.635-1.083 1.606-1.83 2.838-1.83 1.344 0 2.277.71 2.277 2.82 0 1.978-.821 3.21-2.445 3.21z"/><path d="M546.48 86.34c-2.316 0-4.164 1.475-4.164 4.237 0 2.558 1.55 4.126 3.696 4.107a3.728 3.728 0 0 0 3.006-1.587c-.037 3.118-2.128 4.574-5.563 5.488l.373 1.195c4.798-1.344 6.851-2.987 6.851-8.475 0-3.061-1.325-4.965-4.2-4.965zm-.187 7.075c-1.456.018-2.334-.822-2.334-2.782 0-1.978.859-3.024 2.52-3.024 1.792 0 2.632 1.027 2.576 4.088-.69 1.027-1.55 1.7-2.762 1.718z"/><path d="M569.63 91.02c-1.27 0-2.297.504-3.1 1.717.056-3.136 1.195-5.152 3.174-5.152.71 0 1.363.187 1.96.542l.616-1.046a4.453 4.453 0 0 0-2.557-.765c-3.006 0-4.78 2.725-4.78 7 0 3.827 1.158 6.272 4.276 6.272 2.24 0 4.05-1.68 4.05-4.536 0-2.744-1.68-4.032-3.64-4.032zm-.411 7.299c-1.83 0-2.614-1.307-2.67-4.2.635-1.083 1.606-1.83 2.838-1.83 1.344 0 2.277.71 2.277 2.82 0 1.978-.822 3.21-2.445 3.21z"/><path d="M579.68 86.32c-1.326 0-2.558.448-3.66 1.493l.86.952c.858-.784 1.623-1.176 2.724-1.176 1.363 0 2.427.766 2.427 2.166 0 1.549-1.195 2.24-2.427 2.24h-.765l-.187 1.25h1.064c1.531 0 2.67.598 2.67 2.446 0 1.605-1.064 2.613-2.856 2.613-1.046 0-2.128-.41-2.856-1.27l-1.046.86c.971 1.175 2.502 1.698 3.94 1.698 2.668 0 4.46-1.68 4.46-3.901 0-1.998-1.418-3.043-2.912-3.155 1.344-.261 2.502-1.437 2.502-2.987 0-1.754-1.512-3.229-3.939-3.229z"/><path d="M603.21 91.02c-1.27 0-2.297.504-3.1 1.717.056-3.136 1.195-5.152 3.174-5.152.71 0 1.363.187 1.96.542l.616-1.046a4.453 4.453 0 0 0-2.557-.765c-3.006 0-4.78 2.725-4.78 7 0 3.827 1.158 6.272 4.276 6.272 2.24 0 4.05-1.68 4.05-4.536 0-2.744-1.68-4.032-3.64-4.032zm-.411 7.299c-1.83 0-2.614-1.307-2.67-4.2.635-1.083 1.606-1.83 2.838-1.83 1.344 0 2.277.71 2.277 2.82 0 1.978-.821 3.21-2.445 3.21z"/><path d="M612.62 87.98h5.767l.187-1.344h-7.579v12.861h1.624v-5.712h5.04v-1.307h-5.04z"/><path d="M636.78 91.02c-1.27 0-2.297.504-3.1 1.717.056-3.136 1.195-5.152 3.174-5.152.71 0 1.362.187 1.96.542l.616-1.046a4.453 4.453 0 0 0-2.557-.765c-3.006 0-4.78 2.725-4.78 7 0 3.827 1.158 6.272 4.276 6.272 2.24 0 4.05-1.68 4.05-4.536 0-2.744-1.68-4.032-3.64-4.032zm-.411 7.299c-1.83 0-2.614-1.307-2.67-4.2.635-1.083 1.606-1.83 2.838-1.83 1.344 0 2.277.71 2.277 2.82 0 1.978-.822 3.21-2.445 3.21z"/><path d="M645.77 87.87h5.506l.187-1.344h-7.3v12.861h7.468V98.08h-5.862v-4.554h4.779V92.2h-4.779z"/><path d="m534.18 129.55 5.132-11.816v-1.213h-7.616v1.306h6.03l-5.003 11.293z"/><path d="M546.1 116.32c-1.326 0-2.558.448-3.66 1.493l.86.952c.858-.784 1.623-1.176 2.724-1.176 1.363 0 2.427.766 2.427 2.166 0 1.549-1.195 2.24-2.427 2.24h-.765l-.187 1.25h1.064c1.531 0 2.67.598 2.67 2.446 0 1.605-1.064 2.613-2.856 2.613-1.046 0-2.128-.41-2.856-1.27l-1.046.86c.971 1.175 2.502 1.698 3.94 1.698 2.668 0 4.46-1.68 4.46-3.901 0-1.998-1.418-3.043-2.912-3.155 1.344-.261 2.502-1.437 2.502-2.987 0-1.754-1.512-3.229-3.939-3.229z"/><path d="M568.49 116.32c-1.737 0-2.913.616-3.92 1.848l1.082.84c.821-.952 1.512-1.363 2.763-1.363 1.437 0 2.314.878 2.314 2.315 0 2.09-1.045 3.51-5.898 8.157v1.27h7.653l.187-1.344h-6.048c4.237-3.864 5.749-5.768 5.749-8.14 0-2.034-1.456-3.583-3.883-3.583z"/><path d="M580.26 116.32c-2.764 0-4.2 2.37-4.2 6.627 0 4.274 1.436 6.645 4.2 6.645 2.762 0 4.2-2.37 4.2-6.645 0-4.256-1.438-6.627-4.2-6.627zm0 1.27c1.604 0 2.556 1.567 2.556 5.357 0 3.808-.952 5.376-2.557 5.376-1.587 0-2.557-1.568-2.557-5.376 0-3.79.97-5.358 2.557-5.358zm0 4.143a1.2 1.2 0 0 0-1.214 1.214c0 .69.523 1.232 1.213 1.232.71 0 1.232-.542 1.232-1.232 0-.672-.522-1.214-1.232-1.214z"/><path d="M603.21 121.02c-1.27 0-2.297.504-3.1 1.717.056-3.136 1.195-5.152 3.174-5.152.71 0 1.363.187 1.96.542l.616-1.046a4.453 4.453 0 0 0-2.557-.765c-3.006 0-4.78 2.725-4.78 7 0 3.827 1.158 6.272 4.276 6.272 2.24 0 4.05-1.68 4.05-4.536 0-2.744-1.68-4.032-3.64-4.032zm-.411 7.299c-1.83 0-2.614-1.307-2.67-4.2.635-1.083 1.606-1.83 2.838-1.83 1.344 0 2.277.71 2.277 2.82 0 1.978-.821 3.21-2.445 3.21z"/><path d="M613.26 116.32c-1.737 0-2.913.616-3.92 1.848l1.082.84c.821-.952 1.512-1.363 2.763-1.363 1.437 0 2.314.878 2.314 2.315 0 2.09-1.045 3.51-5.898 8.157v1.27h7.653l.187-1.344h-6.048c4.237-3.864 5.749-5.768 5.749-8.14 0-2.034-1.456-3.583-3.883-3.583z"/><path d="m634.92 129.55 5.132-11.816v-1.213h-7.616v1.306h6.03l-5.003 11.293z"/><path d="M647.21 116.34c-2.316 0-4.164 1.475-4.164 4.237 0 2.558 1.55 4.126 3.696 4.107a3.728 3.728 0 0 0 3.006-1.587c-.037 3.118-2.128 4.574-5.563 5.488l.373 1.195c4.798-1.344 6.851-2.987 6.851-8.475 0-3.061-1.325-4.965-4.2-4.965zm-.187 7.075c-1.456.018-2.334-.822-2.334-2.782 0-1.978.859-3.024 2.52-3.024 1.792 0 2.632 1.027 2.576 4.088-.69 1.027-1.55 1.7-2.762 1.718z"/><path d="M534.91 146.32c-1.737 0-2.913.616-3.92 1.848l1.082.84c.821-.952 1.512-1.363 2.763-1.363 1.437 0 2.314.878 2.314 2.315 0 2.09-1.045 3.51-5.898 8.157v1.27h7.653l.187-1.344h-6.048c4.237-3.864 5.749-5.768 5.749-8.14 0-2.034-1.456-3.583-3.883-3.583z"/><path d="M546.68 146.32c-2.764 0-4.2 2.37-4.2 6.627 0 4.274 1.436 6.645 4.2 6.645s4.2-2.37 4.2-6.645c0-4.256-1.438-6.627-4.2-6.627zm0 1.27c1.604 0 2.556 1.567 2.556 5.357 0 3.808-.952 5.376-2.557 5.376-1.587 0-2.557-1.568-2.557-5.376 0-3.79.97-5.358 2.557-5.358zm0 4.143a1.2 1.2 0 0 0-1.214 1.214c0 .69.523 1.232 1.213 1.232.71 0 1.232-.542 1.232-1.232 0-.672-.522-1.214-1.232-1.214z"/><path d="M573.32 155h-1.662v-3.64h-1.363l-.13 3.64h-3.696l3.416-8.12-1.307-.56-3.77 8.792v1.157h5.338v3.118h1.512v-3.118h1.661z"/><path d="M580.06 146.34c-2.316 0-4.164 1.475-4.164 4.237 0 2.558 1.55 4.126 3.696 4.107a3.728 3.728 0 0 0 3.006-1.587c-.037 3.118-2.128 4.574-5.563 5.488l.373 1.195c4.798-1.344 6.851-2.987 6.851-8.475 0-3.061-1.325-4.965-4.2-4.965zm-.187 7.075c-1.456.018-2.334-.822-2.334-2.782 0-1.978.859-3.024 2.52-3.024 1.792 0 2.632 1.027 2.576 4.088-.69 1.027-1.55 1.7-2.762 1.718z"/><path d="M603.21 151.02c-1.27 0-2.297.504-3.1 1.717.056-3.136 1.195-5.152 3.174-5.152.71 0 1.363.187 1.96.542l.616-1.046a4.453 4.453 0 0 0-2.557-.765c-3.006 0-4.78 2.725-4.78 7 0 3.827 1.158 6.272 4.276 6.272 2.24 0 4.05-1.68 4.05-4.536 0-2.744-1.68-4.032-3.64-4.032zm-.411 7.299c-1.83 0-2.614-1.307-2.67-4.2.635-1.083 1.606-1.83 2.838-1.83 1.344 0 2.277.71 2.277 2.82 0 1.978-.821 3.21-2.445 3.21z"/><path d="M615.22 158.12v-11.592h-1.382l-3.827 2.39.69 1.1 2.932-1.773v9.875h-3.155v1.27h7.41v-1.27z"/><path d="M636.78 151.02c-1.27 0-2.297.504-3.1 1.717.056-3.136 1.195-5.152 3.174-5.152.71 0 1.362.187 1.96.542l.616-1.046a4.453 4.453 0 0 0-2.557-.765c-3.006 0-4.78 2.725-4.78 7 0 3.827 1.158 6.272 4.276 6.272 2.24 0 4.05-1.68 4.05-4.536 0-2.744-1.68-4.032-3.64-4.032zm-.411 7.299c-1.83 0-2.614-1.307-2.67-4.2.635-1.083 1.606-1.83 2.838-1.83 1.344 0 2.277.71 2.277 2.82 0 1.978-.822 3.21-2.445 3.21z"/><path d="M645.77 147.87h5.506l.187-1.344h-7.3v12.861h7.468v-1.307h-5.862v-4.554h4.779V152.2h-4.779z"/><path d="M534.91 176.32c-1.737 0-2.913.616-3.92 1.848l1.082.84c.821-.952 1.512-1.363 2.763-1.363 1.437 0 2.314.878 2.314 2.315 0 2.09-1.045 3.51-5.898 8.157v1.27h7.653l.187-1.344h-6.048c4.237-3.864 5.749-5.768 5.749-8.14 0-2.034-1.456-3.583-3.883-3.583z"/><path d="M546.68 176.32c-2.764 0-4.2 2.37-4.2 6.627 0 4.274 1.436 6.645 4.2 6.645s4.2-2.37 4.2-6.645c0-4.256-1.438-6.627-4.2-6.627zm0 1.27c1.604 0 2.556 1.567 2.556 5.357 0 3.808-.952 5.376-2.557 5.376-1.587 0-2.557-1.568-2.557-5.376 0-3.79.97-5.358 2.557-5.358zm0 4.143a1.2 1.2 0 0 0-1.214 1.214c0 .69.523 1.232 1.213 1.232.71 0 1.232-.542 1.232-1.232 0-.672-.522-1.214-1.232-1.214z"/><path d="M572.56 176.52h-6.814v6.421h1.27c.746-.261 1.25-.429 1.996-.429 1.307 0 2.334.69 2.334 2.744 0 1.997-1.008 3.043-2.707 3.043-1.101 0-1.979-.392-2.763-1.195l-.97.952c.99.952 2.184 1.53 3.733 1.53 2.65 0 4.35-1.698 4.35-4.274s-1.42-4.032-3.529-4.032c-.765 0-1.437.13-2.202.56v-4.05h5.077z"/><path d="M579.68 176.32c-1.326 0-2.558.448-3.66 1.493l.86.952c.858-.784 1.623-1.176 2.724-1.176 1.363 0 2.427.766 2.427 2.166 0 1.549-1.195 2.24-2.427 2.24h-.765l-.187 1.25h1.064c1.531 0 2.67.598 2.67 2.446 0 1.605-1.064 2.613-2.856 2.613-1.046 0-2.128-.41-2.856-1.27l-1.046.86c.971 1.175 2.502 1.698 3.94 1.698 2.668 0 4.46-1.68 4.46-3.901 0-1.998-1.418-3.043-2.912-3.155 1.344-.261 2.502-1.437 2.502-2.987 0-1.754-1.512-3.229-3.939-3.229z"/><path d="M603.21 181.02c-1.27 0-2.297.504-3.1 1.717.056-3.136 1.195-5.152 3.174-5.152.71 0 1.363.187 1.96.542l.616-1.046a4.453 4.453 0 0 0-2.557-.765c-3.006 0-4.78 2.725-4.78 7 0 3.827 1.158 6.272 4.276 6.272 2.24 0 4.05-1.68 4.05-4.536 0-2.744-1.68-4.032-3.64-4.032zm-.411 7.299c-1.83 0-2.614-1.307-2.67-4.2.635-1.083 1.606-1.83 2.838-1.83 1.344 0 2.277.71 2.277 2.82 0 1.978-.821 3.21-2.445 3.21z"/><path d="M615.59 188v-11.592h-1.382l-3.827 2.39.69 1.1 2.932-1.773V188h-3.155v1.27h7.41V188z"/><path d="M636.78 181.02c-1.27 0-2.297.504-3.1 1.717.056-3.136 1.195-5.152 3.174-5.152.71 0 1.362.187 1.96.542l.616-1.046a4.453 4.453 0 0 0-2.557-.765c-3.006 0-4.78 2.725-4.78 7 0 3.827 1.158 6.272 4.276 6.272 2.24 0 4.05-1.68 4.05-4.536 0-2.744-1.68-4.032-3.64-4.032zm-.411 7.299c-1.83 0-2.614-1.307-2.67-4.2.635-1.083 1.606-1.83 2.838-1.83 1.344 0 2.277.71 2.277 2.82 0 1.978-.822 3.21-2.445 3.21z"/><path d="M645.77 177.87h5.506l.187-1.344h-7.3v12.861h7.468v-1.307h-5.862v-4.554h4.779V182.2h-4.779z"/><path d="m534.18 219.55 5.132-11.816v-1.213h-7.616v1.306h6.03l-5.003 11.293z"/><path d="M550.94 215h-1.662v-3.64h-1.363l-.13 3.64h-3.696l3.416-8.12-1.307-.56-3.77 8.792v1.157h5.338v3.118h1.512v-3.118h1.661z"/><path d="M569.63 211.02c-1.27 0-2.297.504-3.1 1.717.056-3.136 1.195-5.152 3.174-5.152.71 0 1.363.187 1.96.542l.616-1.046a4.453 4.453 0 0 0-2.557-.765c-3.006 0-4.78 2.725-4.78 7 0 3.827 1.158 6.272 4.276 6.272 2.24 0 4.05-1.68 4.05-4.536 0-2.744-1.68-4.032-3.64-4.032zm-.411 7.299c-1.83 0-2.614-1.307-2.67-4.2.635-1.083 1.606-1.83 2.838-1.83 1.344 0 2.277.71 2.277 2.82 0 1.978-.822 3.21-2.445 3.21z"/><path d="M578.86 207.87h5.767l.187-1.344h-7.579v12.861h1.624v-5.712h5.04v-1.307h-5.04z"/><path d="m601.34 219.55 5.132-11.816v-1.213h-7.616v1.306h6.03l-5.003 11.293z"/><path d="M613.84 206.32c-2.764 0-4.2 2.37-4.2 6.627 0 4.274 1.436 6.645 4.2 6.645 2.762 0 4.2-2.37 4.2-6.645 0-4.256-1.438-6.627-4.2-6.627zm0 1.27c1.604 0 2.556 1.567 2.556 5.357 0 3.808-.951 5.376-2.557 5.376-1.587 0-2.557-1.568-2.557-5.376 0-3.79.97-5.358 2.557-5.358zm0 4.143a1.2 1.2 0 0 0-1.214 1.214c0 .69.523 1.232 1.213 1.232.71 0 1.232-.542 1.232-1.232 0-.672-.522-1.214-1.232-1.214z"/><path d="M636.78 211.02c-1.27 0-2.297.504-3.1 1.717.056-3.136 1.195-5.152 3.174-5.152.71 0 1.362.187 1.96.542l.616-1.046a4.453 4.453 0 0 0-2.557-.765c-3.006 0-4.78 2.725-4.78 7 0 3.827 1.158 6.272 4.276 6.272 2.24 0 4.05-1.68 4.05-4.536 0-2.744-1.68-4.032-3.64-4.032zm-.411 7.299c-1.83 0-2.614-1.307-2.67-4.2.635-1.083 1.606-1.83 2.838-1.83 1.344 0 2.277.71 2.277 2.82 0 1.978-.822 3.21-2.445 3.21z"/><path d="M647.21 206.34c-2.316 0-4.164 1.475-4.164 4.237 0 2.558 1.55 4.126 3.696 4.107a3.728 3.728 0 0 0 3.006-1.587c-.037 3.118-2.128 4.574-5.563 5.488l.373 1.195c4.798-1.344 6.851-2.987 6.851-8.475 0-3.061-1.325-4.965-4.2-4.965zm-.187 7.075c-1.456.018-2.334-.822-2.334-2.782 0-1.978.859-3.024 2.52-3.024 1.792 0 2.632 1.027 2.576 4.088-.69 1.027-1.55 1.7-2.762 1.718z"/><path d="M536.05 241.02c-1.27 0-2.297.504-3.1 1.717.056-3.136 1.195-5.152 3.174-5.152.71 0 1.362.187 1.96.542l.616-1.046a4.453 4.453 0 0 0-2.558-.765c-3.005 0-4.778 2.725-4.778 7 0 3.827 1.157 6.272 4.274 6.272 2.24 0 4.051-1.68 4.051-4.536 0-2.744-1.68-4.032-3.64-4.032zm-.411 7.299c-1.83 0-2.614-1.307-2.67-4.2.635-1.083 1.606-1.83 2.838-1.83 1.344 0 2.277.71 2.277 2.82 0 1.978-.821 3.21-2.445 3.21z"/><path d="M550.17 236.52h-6.814v6.421h1.27c.746-.261 1.25-.429 1.996-.429 1.307 0 2.334.69 2.334 2.744 0 1.997-1.008 3.043-2.707 3.043-1.101 0-1.979-.392-2.763-1.195l-.97.952c.99.952 2.184 1.53 3.733 1.53 2.65 0 4.35-1.698 4.35-4.274s-1.42-4.032-3.529-4.032c-.765 0-1.437.13-2.202.56v-4.05h5.077z"/><path d="m567.76 249.55 5.132-11.816v-1.213h-7.616v1.306h6.03l-5.003 11.293z"/><path d="M584.5 245h-1.662v-3.64h-1.363l-.13 3.64h-3.696l3.416-8.12-1.307-.56-3.77 8.792v1.157h5.338v3.118h1.512v-3.118h1.661z"/><path d="m601.34 249.55 5.132-11.816v-1.213h-7.616v1.306h6.03l-5.003 11.293z"/><path d="M613.26 236.32c-1.737 0-2.913.616-3.92 1.848l1.082.84c.821-.952 1.512-1.363 2.763-1.363 1.437 0 2.314.878 2.314 2.315 0 2.09-1.045 3.51-5.898 8.157v1.27h7.653l.187-1.344h-6.048c4.237-3.864 5.749-5.768 5.749-8.14 0-2.034-1.456-3.583-3.883-3.583z"/><path d="M636.78 241.02c-1.27 0-2.297.504-3.1 1.717.056-3.136 1.195-5.152 3.174-5.152.71 0 1.362.187 1.96.542l.616-1.046a4.453 4.453 0 0 0-2.557-.765c-3.006 0-4.78 2.725-4.78 7 0 3.827 1.158 6.272 4.276 6.272 2.24 0 4.05-1.68 4.05-4.536 0-2.744-1.68-4.032-3.64-4.032zm-.411 7.299c-1.83 0-2.614-1.307-2.67-4.2.635-1.083 1.606-1.83 2.838-1.83 1.344 0 2.277.71 2.277 2.82 0 1.978-.822 3.21-2.445 3.21z"/><path d="M645.73 238h5.767l.187-1.344h-7.579v12.861h1.624v-5.712h5.04v-1.307h-5.04z"/></g></g></svg>