<svg version="1.0" viewBox="0 0 256 256" xmlns="http://www.w3.org/2000/svg"><path d="M47.5 15a8.481 8.481 0 0 0-8.5 8.5v214c0 4.709 3.791 8.5 8.5 8.5h161c4.709 0 8.5-3.791 8.5-8.5V79.06l-64.447-64.055z" fill="#6f6f6f"/><path d="M216 80v152c0 4.432-3.568 8-8 8H48c-4.432 0-8-3.568-8-8V24c0-4.432 3.568-8 8-8h104" fill="#ececec"/><path d="M216 86h-57c-4.432 0-8-3.568-8-8V16h1l64 64z" fill="#6f6f6f" fill-opacity=".502"/><path d="M216 80h-56c-4.432 0-8-3.568-8-8V16" fill="#fafafa"/><path d="m117.5 121-.926 11.062a33 33 0 0 0-9.644 5.578l-10.055-4.734-10.5 18.187 9.129 6.34A33 33 0 0 0 95 163a33 33 0 0 0 .48 5.59l-9.105 6.316 10.5 18.187 10.03-4.723a33 33 0 0 0 9.669 5.543l.925 11.086h21l.926-11.063a33 33 0 0 0 9.645-5.577l10.055 4.734 10.5-18.187-9.13-6.34a33 33 0 0 0 .505-5.567 33 33 0 0 0-.48-5.59l9.105-6.316-10.5-18.187-10.031 4.722a33 33 0 0 0-9.668-5.542L138.5 121zm10.5 30a12 12 0 0 1 12 12 12 12 0 0 1-12 12 12 12 0 0 1-12-12 12 12 0 0 1 12-12z" fill="#474341" fill-opacity=".69"/></svg>