<svg version="1.0" viewBox="0 0 256 256" xmlns="http://www.w3.org/2000/svg"><path d="M47.5 15a8.481 8.481 0 0 0-8.5 8.5v214c0 4.709 3.791 8.5 8.5 8.5h161c4.709 0 8.5-3.791 8.5-8.5V79.06l-64.447-64.055z" fill="#6f6f6f"/><path d="M216 80v152c0 4.432-3.568 8-8 8H48c-4.432 0-8-3.568-8-8V24c0-4.432 3.568-8 8-8h104" fill="#ececec"/><path d="M216 86h-57c-4.432 0-8-3.568-8-8V16h1l64 64z" fill="#6f6f6f" fill-opacity=".502"/><path d="M216 80h-56c-4.432 0-8-3.568-8-8V16" fill="#fafafa"/><path d="M568-7051c-3.324 0-5.648 2.695-6 6v6h-10c-3.324 0-6 2.676-6 6v48c0 3.324 2.676 6 6 6h10v6c0 3.324 2.676 6 6 6s6.337-2.693 6-6v-6h12v6c0 3.324 2.676 6 6 6s6-2.676 6-6v-6h12v6c0 3.324 2.676 6 6 6s6-2.676 6-6v-6h10c3.324 0 6-2.676 6-6v-48c0-3.324-2.676-6-6-6h-10v-6c0-3.324-2.676-6-6-6s-6 2.676-6 6v6h-12v-6c0-3.324-2.676-6-6-6s-6 2.676-6 6v6h-12v-6c0-3.324-2.676-6-6-6zm-10 24h68v6c-6.627 0-12 5.373-12 12 0 6.628 5.373 12 12 12v6h-68z" fill="#474341" fill-opacity=".69" filter="url(#filter1113)" transform="translate(-464 7172)"/></svg>