<svg version="1.0" viewBox="0 0 256 256" xmlns="http://www.w3.org/2000/svg"><g transform="translate(-464 2672)"><rect x="504" y="-2655" width="176" height="215" ry="8" fill="#425c0b"/><rect x="505" y="-2654" width="174" height="213" ry="7.5" fill="#dedede"/><rect x="504" y="-2656" width="174" height="202" ry="8" fill="#425c0b"/><rect x="505" y="-2655" width="172" height="200" ry="7.5" fill="#85b916"/><path d="M512.5-2655a7.484 7.484 0 0 0-7.5 7.5v199c0 4.155 3.348 7.646 7.5 7.5h3.5v-214z" fill="#293907"/><path d="m599-2530.7-24.658-24.66L599-2580.016l8.22 8.219-16.44 16.438 8.22 8.22 24.658-24.656-21.48-21.48a4.492 4.492 0 0 0-6.355 0l-34.742 34.742a4.495 4.495 0 0 0 0 6.354l34.742 34.74a4.492 4.492 0 0 0 6.354 0l34.742-34.74a4.495 4.495 0 0 0 0-6.354l-5.043-5.042z" fill="#fff"/></g></svg>