<svg version="1.0" viewBox="0 0 256 256" xmlns="http://www.w3.org/2000/svg"><g transform="translate(-464 -28)"><rect x="480" y="84" width="224" height="176" ry="16.5" fill="#ffcc85"/><path d="M612 129a12 12 0 0 0-12 12v37.125c-1.899-.681-3.867-1.125-6-1.125-9.941 0-18 8.059-18 18s8.059 18 18 18 18-8.059 18-18v-42h36v25.125c-1.899-.681-3.867-1.125-6-1.125-9.941 0-18 8.059-18 18s8.059 18 18 18 18-8.059 18-18v-54a12 12 0 0 0-12-12z" fill-opacity=".196"/><path d="M612 128a12 12 0 0 0-12 12v37.125c-1.899-.681-3.867-1.125-6-1.125-9.941 0-18 8.059-18 18s8.059 18 18 18 18-8.059 18-18v-42h36v25.125c-1.899-.681-3.867-1.125-6-1.125-9.941 0-18 8.059-18 18s8.059 18 18 18 18-8.059 18-18v-54a12 12 0 0 0-12-12z" fill="#fff"/><rect x="480" y="84" width="56" height="176" ry="16.5" fill="#faa41a"/><path fill="#faa41a" d="M510 84h26v176h-26z"/><path d="M496.5 84c-9.141 0-16.5 7.359-16.5 16.5v143c0 9.141 7.359 16.5 16.5 16.5h191c9.141 0 16.5-7.359 16.5-16.5v-143c0-9.141-7.359-16.5-16.5-16.5zm.5 1h190c8.864 0 16 7.136 16 16v138c0 8.864-7.136 16-16 16H497c-8.864 0-16-7.136-16-16V101c0-8.864 7.136-16 16-16z" fill-opacity=".502"/></g></svg>