<svg version="1.0" viewBox="0 0 256 256" xmlns="http://www.w3.org/2000/svg"><path d="M47.5 15a8.481 8.481 0 0 0-8.5 8.5v214c0 4.709 3.791 8.5 8.5 8.5h161c4.709 0 8.5-3.791 8.5-8.5V79.06l-64.447-64.055z" fill="#6f6f6f"/><path d="M216 80v152c0 4.432-3.568 8-8 8H48c-4.432 0-8-3.568-8-8V24c0-4.432 3.568-8 8-8h104" fill="#ececec"/><path d="M216 86h-57c-4.432 0-8-3.568-8-8V16h1l64 64z" fill="#6f6f6f" fill-opacity=".502"/><path d="M216 80h-56c-4.432 0-8-3.568-8-8V16" fill="#fafafa"/><path d="M84 212h8l32-80h8l32 80h8v8h-28v-8h8l-5.719-16h-36.438L104 212h8v8H84zm28-24h32l-15.969-41.687z"/><path d="M82 219H63v-86h19" fill="none" stroke="#000" stroke-opacity=".251" stroke-width="2"/><path d="M171 222v13H85v-13" fill="none" stroke="#000" stroke-opacity=".251" stroke-width="2"/></svg>