<svg version="1.0" viewBox="0 0 256 256" xmlns="http://www.w3.org/2000/svg"><g transform="translate(-464 -28)"><rect x="480" y="84" width="224" height="176" ry="16" fill="#245c63"/><rect x="481" y="85" width="222" height="170" ry="15.5" fill="#48b9c7"/><rect x="504" y="108" width="176" height="120" ry="8" fill="#f6f6f6"/><path d="M536 144v64h112v-64zm56 8a24 24 0 0 1 24 24 24 24 0 0 1-24 24 24 24 0 0 1-24-24 24 24 0 0 1 24-24z" fill="#1c8d9b" fill-opacity=".502"/><path d="m584 120-16 16h-24c-4.432 0-8 3.568-8 8h112c0-4.432-3.568-8-8-8h-24l-16-16zm-48 88c0 4.432 3.568 8 8 8h96c4.432 0 8-3.568 8-8z" fill="#1c8d9b"/></g><style>.st0{fill:#261300}.st1{fill:#ff7c00}</style></svg>