<svg version="1.0" viewBox="0 0 256 256" xmlns="http://www.w3.org/2000/svg"><path d="M47.5 15a8.481 8.481 0 0 0-8.5 8.5v214c0 4.709 3.791 8.5 8.5 8.5h161c4.709 0 8.5-3.791 8.5-8.5V79.06l-64.447-64.055z" fill="#6f6f6f"/><path d="M216 80v152c0 4.432-3.568 8-8 8H48c-4.432 0-8-3.568-8-8V24c0-4.432 3.568-8 8-8h104" fill="#ececec"/><path d="M216 86h-57c-4.432 0-8-3.568-8-8V16h1l64 64z" fill="#6f6f6f" fill-opacity=".502"/><path d="M216 80h-56c-4.432 0-8-3.568-8-8V16" fill="#fafafa"/><path d="M40 128v16a96 96 0 0 1 96 96h16A112 112 0 0 0 40 128zm0 32v16a64 64 0 0 1 64 64h16a80 80 0 0 0-80-80zm0 32v16a32 32 0 0 1 32 32h16a48 48 0 0 0-48-48zm0 32v8c0 4.432 3.568 8 8 8h8a16 16 0 0 0-.068-1.353 16 16 0 0 0-.098-.813 16 16 0 0 0-.117-.777 16 16 0 0 0-.182-.809 16 16 0 0 0-.19-.736 16 16 0 0 0-.261-.79 16 16 0 0 0-.268-.732 16 16 0 0 0-.316-.709 16 16 0 0 0-.363-.754 16 16 0 0 0-.389-.677 16 16 0 0 0-.416-.676 16 16 0 0 0-.482-.678 16 16 0 0 0-.467-.613 16 16 0 0 0-.533-.606 16 16 0 0 0-.543-.584 16 16 0 0 0-.584-.543 16 16 0 0 0-.606-.533 16 16 0 0 0-.613-.467 16 16 0 0 0-.678-.482 16 16 0 0 0-.676-.416 16 16 0 0 0-.677-.389 16 16 0 0 0-.754-.363 16 16 0 0 0-.71-.316 16 16 0 0 0-.732-.268 16 16 0 0 0-.789-.262 16 16 0 0 0-.736-.19 16 16 0 0 0-.809-.18 16 16 0 0 0-.777-.118 16 16 0 0 0-.813-.098A16 16 0 0 0 40 224z" fill="#b0b0b0"/></svg>