<svg version="1.0" viewBox="0 0 256 256" xmlns="http://www.w3.org/2000/svg"><path d="M47.5 15a8.481 8.481 0 0 0-8.5 8.5v214c0 4.709 3.791 8.5 8.5 8.5h161c4.709 0 8.5-3.791 8.5-8.5V79.06l-64.447-64.055z" fill="#6f6f6f"/><path d="M216 80v152c0 4.432-3.568 8-8 8H48c-4.432 0-8-3.568-8-8V24c0-4.432 3.568-8 8-8h104" fill="#ececec"/><path d="M216 86h-57c-4.432 0-8-3.568-8-8V16h1l64 64z" fill="#6f6f6f" fill-opacity=".502"/><path d="M216 80h-56c-4.432 0-8-3.568-8-8V16" fill="#fafafa"/><path d="m128 160.8 32-14.83v40l-32 14.708z" fill="#888" opacity=".5"/><path d="m592-5854-2.75 1.292-37.714 18.092-3.536 1.662v54.647l3.536 1.661 37.714 17.354 2.75 1.293 2.75-1.293 37.714-17.723 3.536-1.66v-54.647l-3.536-1.662-37.714-17.723zm0 13.292L624-5826v40l-32 14.708v-39.878l-2.75-1.292L560-5826z" color="#000" fill="#888" style="text-decoration-line:none;text-indent:0;text-transform:none" transform="translate(-464 5972)"/></svg>