<svg version="1.0" viewBox="0 0 256 256" xmlns="http://www.w3.org/2000/svg"><defs><linearGradient id="a" x1="60" x2="68" y1="268" y2="268" gradientTransform="translate(478.5 -6195)" gradientUnits="userSpaceOnUse"><stop stop-color="#949390" offset="0"/><stop stop-color="#d5d3cf" offset=".083"/><stop stop-color="#949390" offset=".167"/><stop stop-color="#949390" offset=".833"/><stop stop-color="#d5d3cf" offset=".917"/><stop stop-color="#949390" offset="1"/></linearGradient></defs><g transform="translate(-464 2972)"><rect x="488" y="-2948" width="216" height="208" ry="8" fill="#a19282"/><rect x="489" y="-2947" width="214" height="140" ry="8" fill="#d7c3ad"/><path d="M548-2770h96m40-32-40 32 40 24m-176-56 40 32-40 24" fill="none" stroke="#000" stroke-opacity=".251" stroke-width="2"/><g transform="translate(0 3000)"><path fill-opacity=".251" d="M538.5-5947h4v64h-4z"/><path fill="#fff" fill-opacity=".251" d="M542.5-5947h4v64h-4z"/><rect x="538.5" y="-5947" width="4" height="4" ry="0" fill-opacity=".502"/><path fill-opacity=".502" d="M538.5-5939h4v4h-4z"/><path fill-opacity=".502" d="M538.5-5931h4v4h-4z"/><path fill-opacity=".502" d="M538.5-5923h4v4h-4z"/><path fill-opacity=".502" d="M538.5-5915h4v4h-4z"/><path fill-opacity=".502" d="M538.5-5907h4v4h-4z"/><path fill-opacity=".502" d="M538.5-5899h4v4h-4z"/><rect x="538.5" y="-5943" width="4" height="4" ry="0" fill="#fdfdfd" fill-opacity=".502"/><path fill="#fdfdfd" fill-opacity=".502" d="M538.5-5935h4v4h-4z"/><path fill="#fdfdfd" fill-opacity=".502" d="M538.5-5927h4v4h-4z"/><path fill="#fdfdfd" fill-opacity=".502" d="M538.5-5919h4v4h-4z"/><path fill="#fdfdfd" fill-opacity=".502" d="M538.5-5911h4v4h-4z"/><path fill="#fdfdfd" fill-opacity=".502" d="M538.5-5903h4v4h-4z"/><rect x="542.5" y="-5947" width="4" height="4" ry="0" fill="#f4f4f4" fill-opacity=".502"/><path fill="#f4f4f4" fill-opacity=".502" d="M542.5-5939h4v4h-4z"/><path fill="#f4f4f4" fill-opacity=".502" d="M542.5-5931h4v4h-4z"/><path fill="#f4f4f4" fill-opacity=".502" d="M542.5-5923h4v4h-4z"/><path fill="#f4f4f4" fill-opacity=".502" d="M542.5-5915h4v4h-4z"/><path fill="#f4f4f4" fill-opacity=".502" d="M542.5-5907h4v4h-4z"/><path fill="#f4f4f4" fill-opacity=".502" d="M542.5-5899h4v4h-4z"/><rect x="542.5" y="-5943" width="4" height="4" ry="0" fill="#131313" fill-opacity=".502"/><path fill="#131313" fill-opacity=".502" d="M542.5-5935h4v4h-4z"/><path fill="#131313" fill-opacity=".502" d="M542.5-5927h4v4h-4z"/><path fill="#131313" fill-opacity=".502" d="M542.5-5919h4v4h-4z"/><path fill="#131313" fill-opacity=".502" d="M542.5-5911h4v4h-4z"/><path fill="#131313" fill-opacity=".502" d="M542.5-5903h4v4h-4z"/><rect x="538.5" y="-5891" width="4" height="4" ry="0" fill-opacity=".502"/><rect x="538.5" y="-5895" width="4" height="4" ry="0" fill="#fdfdfd" fill-opacity=".502"/><path fill="#fdfdfd" fill-opacity=".502" d="M538.5-5887h4v4h-4z"/><rect x="542.5" y="-5891" width="4" height="4" ry="0" fill="#f4f4f4" fill-opacity=".502"/><rect x="542.5" y="-5895" width="4" height="4" ry="0" fill="#131313" fill-opacity=".502"/><path fill="#131313" fill-opacity=".502" d="M542.5-5887h4v4h-4z"/><path fill-opacity=".251" d="M538.5-5883h4v67h-4z"/><path fill="#fff" fill-opacity=".251" d="M542.5-5883h4v67h-4z"/><rect x="538.5" y="-5883" width="4" height="4" ry="0" fill-opacity=".502"/><path fill-opacity=".502" d="M538.5-5875h4v4h-4z"/><path fill-opacity=".502" d="M538.5-5867h4v4h-4z"/><path fill-opacity=".502" d="M538.5-5859h4v4h-4z"/><path fill-opacity=".502" d="M538.5-5851h4v4h-4z"/><path fill-opacity=".502" d="M538.5-5843h4v4h-4z"/><path fill-opacity=".502" d="M538.5-5835h4v4h-4z"/><rect x="538.5" y="-5879" width="4" height="4" ry="0" fill="#fdfdfd" fill-opacity=".502"/><path fill="#fdfdfd" fill-opacity=".502" d="M538.5-5871h4v4h-4z"/><path fill="#fdfdfd" fill-opacity=".502" d="M538.5-5863h4v4h-4z"/><path fill="#fdfdfd" fill-opacity=".502" d="M538.5-5855h4v4h-4z"/><path fill="#fdfdfd" fill-opacity=".502" d="M538.5-5847h4v4h-4z"/><path fill="#fdfdfd" fill-opacity=".502" d="M538.5-5839h4v4h-4z"/><rect x="542.5" y="-5883" width="4" height="4" ry="0" fill="#f4f4f4" fill-opacity=".502"/><path fill="#f4f4f4" fill-opacity=".502" d="M542.5-5875h4v4h-4z"/><path fill="#f4f4f4" fill-opacity=".502" d="M542.5-5867h4v4h-4z"/><path fill="#f4f4f4" fill-opacity=".502" d="M542.5-5859h4v4h-4z"/><path fill="#f4f4f4" fill-opacity=".502" d="M542.5-5851h4v4h-4z"/><path fill="#f4f4f4" fill-opacity=".502" d="M542.5-5843h4v4h-4z"/><path fill="#f4f4f4" fill-opacity=".502" d="M542.5-5835h4v4h-4z"/><rect x="542.5" y="-5879" width="4" height="4" ry="0" fill="#131313" fill-opacity=".502"/><path fill="#131313" fill-opacity=".502" d="M542.5-5871h4v4h-4z"/><path fill="#131313" fill-opacity=".502" d="M542.5-5863h4v4h-4z"/><path fill="#131313" fill-opacity=".502" d="M542.5-5855h4v4h-4z"/><path fill="#131313" fill-opacity=".502" d="M542.5-5847h4v4h-4z"/><path fill="#131313" fill-opacity=".502" d="M542.5-5839h4v4h-4z"/><rect x="538.5" y="-5827" width="4" height="4" ry="0" fill-opacity=".502"/><path fill-opacity=".502" d="M538.5-5819h4v3h-4z"/><rect x="538.5" y="-5831" width="4" height="4" ry="0" fill="#fdfdfd" fill-opacity=".502"/><path fill="#fdfdfd" fill-opacity=".502" d="M538.5-5823h4v4h-4z"/><rect x="542.5" y="-5827" width="4" height="4" ry="0" fill="#f4f4f4" fill-opacity=".502"/><path fill="#f4f4f4" fill-opacity=".502" d="M542.5-5819h4v3h-4z"/><rect x="542.5" y="-5831" width="4" height="4" ry="0" fill="#131313" fill-opacity=".502"/><path fill="#131313" fill-opacity=".502" d="M542.5-5823h4v4h-4z"/><path fill-opacity=".251" d="M538.5-5816h4v9h-4z"/><path fill="#fff" fill-opacity=".251" d="M542.5-5816h4v9h-4z"/><rect transform="scale(-1)" x="-542.5" y="5807" width="4" height="4" ry="0" fill-opacity=".502"/><path fill-opacity=".502" d="M542.5-5815h-4v-1h4z"/><rect x="538.5" y="-5815" width="4" height="4" ry="0" fill="#fdfdfd" fill-opacity=".502"/><rect transform="scale(1 -1)" x="542.5" y="5807" width="4" height="4" ry="0" fill="#f4f4f4" fill-opacity=".502"/><path fill="#f4f4f4" fill-opacity=".502" d="M542.5-5815h4v-1h-4z"/><rect x="542.5" y="-5815" width="4" height="4" ry="0" fill="#131313" fill-opacity=".502"/><path d="M540.5-5937c-1.108 0-2 .892-2 2v16c0 1.108.892 2 2 2h4c1.108 0 2-.892 2-2v-16c0-1.108-.892-2-2-2zm0 14h4v4h-4z" fill="url(#a)"/><rect x="534.5" y="-5945" width="16" height="18" rx="4" ry="4" fill="#3d3846"/><rect x="534.5" y="-5947" width="16" height="18" rx="4" ry="4" fill="#5e5c64"/><path d="M540.5-5941c-1.108 0-2 .892-2 2v18c0 1.108.892 2 2 2h4c1.108 0 2-.892 2-2v-18c0-1.108-.892-2-2-2zm0 16h4v4h-4z" fill="#fff"/><rect transform="scale(1 -1)" x="540.5" y="5935" width="4" height="10" rx="2" ry="2" fill="#68676b" style="paint-order:normal"/><rect transform="scale(1 -1)" x="540.5" y="5937" width="4" height="8" rx="2" ry="2" fill="#949390" style="paint-order:normal"/></g><g fill="#635749"><path d="M607.04-2853h8v-16h16v16h8v-32a16 16 0 0 0-16-16 16 16 0 0 0-16 16zm8-24v-8a8 8 0 0 1 8-8 8 8 0 0 1 8 8v8z"/><path d="M644-2853h8v-16h8l8 16h8l-7.406-18.516A16 16 0 0 0 676-2885a16 16 0 0 0-16-16h-16v16zm8-24v-16h8a8 8 0 0 1 8 8 8 8 0 0 1-8 8z"/><path d="m604-2901-24 48h-8l24-48z"/><path d="m572-2901 24 48h8l-24-48z"/></g></g></svg>