<svg version="1.0" viewBox="0 0 256 256" xmlns="http://www.w3.org/2000/svg"><g transform="translate(-464 3572)"><rect x="488" y="-3548" width="216" height="208" ry="8" fill="#a19282"/><rect x="489" y="-3547" width="214" height="140" ry="8" fill="#d7c3ad"/><path d="M548-3370h96m40-32-40 32 40 24m-176-56 40 32-40 24" fill="none" stroke="#000" stroke-opacity=".251" stroke-width="2"/><g fill="#635749"><path d="M576-3453h8v-16h16v16h8v-32a16 16 0 0 0-16-16 16 16 0 0 0-16 16zm8-24v-8a8 8 0 0 1 8-8 8 8 0 0 1 8 8v8z"/><path d="M616-3453h8v-16h8l8 16h8l-7.406-18.516A16 16 0 0 0 648-3485a16 16 0 0 0-16-16h-16v16zm8-24v-16h8a8 8 0 0 1 8 8 8 8 0 0 1-8 8z"/><path d="M548.96-3501v8h8v40h8v-40h8v-8z"/></g></g></svg>