<svg version="1.0" viewBox="0 0 256 256" xmlns="http://www.w3.org/2000/svg"><defs><linearGradient id="a" x1="60" x2="68" y1="268" y2="268" gradientTransform="translate(478.5 -6495)" gradientUnits="userSpaceOnUse"><stop stop-color="#949390" offset="0"/><stop stop-color="#d5d3cf" offset=".083"/><stop stop-color="#949390" offset=".167"/><stop stop-color="#949390" offset=".833"/><stop stop-color="#d5d3cf" offset=".917"/><stop stop-color="#949390" offset="1"/></linearGradient></defs><g transform="translate(-464 3272)"><rect x="488" y="-3248" width="216" height="208" ry="8" fill="#a19282"/><rect x="489" y="-3247" width="214" height="140" ry="8" fill="#d7c3ad"/><path d="M548-3070h96m40-32-40 32 40 24m-176-56 40 32-40 24" fill="none" stroke="#000" stroke-opacity=".251" stroke-width="2"/><g transform="translate(0 3000)"><g fill-opacity=".251"><path d="M538.5-6247.01h4v63.998h-4z"/><path fill="#fff" d="M542.5-6247.01h4v63.998h-4z"/></g><g transform="matrix(2 0 0 2 186.5 -6129)" fill-opacity=".502"><rect x="176" y="-59" width="2" height="2" ry="0"/><path d="M176-55h2v2h-2z"/><path d="M176-51h2v2h-2z"/><path d="M176-47h2v2h-2z"/><path d="M176-43h2v2h-2z"/><path d="M176-39h2v2h-2z"/><path d="M176-35h2v2h-2z"/></g><g transform="matrix(2 0 0 2 186.5 -6125)" fill="#fdfdfd" fill-opacity=".502"><rect x="176" y="-59" width="2" height="2" ry="0"/><path d="M176-55h2v2h-2z"/><path d="M176-51h2v2h-2z"/><path d="M176-47h2v2h-2z"/><path d="M176-43h2v2h-2z"/><path d="M176-39h2v2h-2z"/></g><g transform="matrix(2 0 0 2 190.5 -6129)" fill="#f4f4f4" fill-opacity=".502"><rect x="176" y="-59" width="2" height="2" ry="0"/><path d="M176-55h2v2h-2z"/><path d="M176-51h2v2h-2z"/><path d="M176-47h2v2h-2z"/><path d="M176-43h2v2h-2z"/><path d="M176-39h2v2h-2z"/><path d="M176-35h2v2h-2z"/></g><g transform="matrix(2 0 0 2 190.5 -6125)" fill="#131313" fill-opacity=".502"><rect x="176" y="-59" width="2" height="2" ry="0"/><path d="M176-55h2v2h-2z"/><path d="M176-51h2v2h-2z"/><path d="M176-47h2v2h-2z"/><path d="M176-43h2v2h-2z"/><path d="M176-39h2v2h-2z"/></g><rect x="176" y="-59" width="2" height="2" ry="0" transform="matrix(2 0 0 2 186.5 -6073)" fill-opacity=".502"/><g transform="matrix(2 0 0 2 186.5 -6077)" fill="#fdfdfd" fill-opacity=".502"><rect x="176" y="-59" width="2" height="2" ry="0"/><path d="M176-55h2v2h-2z"/></g><rect x="176" y="-59" width="2" height="2" ry="0" transform="matrix(2 0 0 2 190.5 -6073)" fill="#f4f4f4" fill-opacity=".502"/><g transform="matrix(2 0 0 2 190.5 -6077)" fill="#131313" fill-opacity=".502"><rect x="176" y="-59" width="2" height="2" ry="0"/><path d="M176-55h2v2h-2z"/></g><g fill-opacity=".251"><path d="M538.5-6183h4v67h-4z"/><path fill="#fff" d="M542.5-6183h4v67h-4z"/></g><g transform="matrix(2 0 0 2 186.5 -6065)" fill-opacity=".502"><rect x="176" y="-59" width="2" height="2" ry="0"/><path d="M176-55h2v2h-2z"/><path d="M176-51h2v2h-2z"/><path d="M176-47h2v2h-2z"/><path d="M176-43h2v2h-2z"/><path d="M176-39h2v2h-2z"/><path d="M176-35h2v2h-2z"/></g><g transform="matrix(2 0 0 2 186.5 -6061)" fill="#fdfdfd" fill-opacity=".502"><rect x="176" y="-59" width="2" height="2" ry="0"/><path d="M176-55h2v2h-2z"/><path d="M176-51h2v2h-2z"/><path d="M176-47h2v2h-2z"/><path d="M176-43h2v2h-2z"/><path d="M176-39h2v2h-2z"/></g><g transform="matrix(2 0 0 2 190.5 -6065)" fill="#f4f4f4" fill-opacity=".502"><rect x="176" y="-59" width="2" height="2" ry="0"/><path d="M176-55h2v2h-2z"/><path d="M176-51h2v2h-2z"/><path d="M176-47h2v2h-2z"/><path d="M176-43h2v2h-2z"/><path d="M176-39h2v2h-2z"/><path d="M176-35h2v2h-2z"/></g><g transform="matrix(2 0 0 2 190.5 -6061)" fill="#131313" fill-opacity=".502"><rect x="176" y="-59" width="2" height="2" ry="0"/><path d="M176-55h2v2h-2z"/><path d="M176-51h2v2h-2z"/><path d="M176-47h2v2h-2z"/><path d="M176-43h2v2h-2z"/><path d="M176-39h2v2h-2z"/></g><g transform="matrix(2 0 0 2 186.5 -6009)" fill-opacity=".502"><rect x="176" y="-59" width="2" height="2" ry="0"/><path d="M176-55h2v1.5h-2z"/></g><g transform="matrix(2 0 0 2 186.5 -6013)" fill="#fdfdfd" fill-opacity=".502"><rect x="176" y="-59" width="2" height="2" ry="0"/><path d="M176-55h2v2h-2z"/></g><g transform="matrix(2 0 0 2 190.5 -6009)" fill="#f4f4f4" fill-opacity=".502"><rect x="176" y="-59" width="2" height="2" ry="0"/><path d="M176-55h2v1.5h-2z"/></g><g transform="matrix(2 0 0 2 190.5 -6013)" fill="#131313" fill-opacity=".502"><rect x="176" y="-59" width="2" height="2" ry="0"/><path d="M176-55h2v2h-2z"/></g><g fill-opacity=".251"><path d="M538.5-6115.96h4v9h-4z"/><path fill="#fff" d="M542.5-6115.96h4v9h-4z"/></g><g transform="matrix(-2 0 0 -2 894.5 -6225)" fill-opacity=".502"><rect x="176" y="-59" width="2" height="2" ry="0"/><path d="M176-55h2v.5h-2z"/></g><rect x="176" y="-59" width="2" height="2" ry="0" transform="matrix(2 0 0 2 186.5 -5997)" fill="#fdfdfd" fill-opacity=".502"/><g transform="matrix(2 0 0 -2 190.5 -6225)" fill="#f4f4f4" fill-opacity=".502"><rect x="176" y="-59" width="2" height="2" ry="0"/><path d="M176-55h2v.5h-2z"/></g><rect x="176" y="-59" width="2" height="2" ry="0" transform="matrix(2 0 0 2 190.5 -5997)" fill="#131313" fill-opacity=".502"/><path d="M540.5-6237c-1.108 0-2 .892-2 2v16c0 1.108.892 2 2 2h4c1.108 0 2-.892 2-2v-16c0-1.108-.892-2-2-2zm0 14h4v4h-4z" fill="url(#a)"/><rect x="534.5" y="-6245" width="16" height="18" rx="4" ry="4" fill="#3d3846"/><rect x="534.5" y="-6247" width="16" height="18" rx="4" ry="4" fill="#5e5c64"/><path d="M540.5-6241c-1.108 0-2 .892-2 2v18c0 1.108.892 2 2 2h4c1.108 0 2-.892 2-2v-18c0-1.108-.892-2-2-2zm0 16h4v4h-4z" fill="#fff"/><rect transform="scale(1 -1)" x="540.5" y="6235" width="4" height="10" rx="2" ry="2" fill="#68676b" style="paint-order:normal"/><rect transform="scale(1 -1)" x="540.5" y="6237" width="4" height="8" rx="2" ry="2" fill="#949390" style="paint-order:normal"/></g><g fill="#635749"><path d="m620-3201-24 48h-8l24-48z"/><path d="m588-3201 24 48h8l-24-48z"/><path d="M628-3193h24l-24 32v8h32v-8h-24l24-32v-8h-32z"/></g></g></svg>