<svg version="1.0" viewBox="0 0 256 256" xmlns="http://www.w3.org/2000/svg" xmlns:xlink="http://www.w3.org/1999/xlink"><defs><linearGradient id="a" x1="60" x2="68" y1="268" y2="268" gradientUnits="userSpaceOnUse"><stop stop-color="#949390" offset="0"/><stop stop-color="#d5d3cf" offset=".083"/><stop stop-color="#949390" offset=".167"/><stop stop-color="#949390" offset=".833"/><stop stop-color="#d5d3cf" offset=".917"/><stop stop-color="#949390" offset="1"/></linearGradient><linearGradient id="c" x1="60" x2="68" y1="268" y2="268" gradientUnits="userSpaceOnUse" xlink:href="#a"/></defs><g transform="translate(-464 3572)"><g id="b"><rect x="103" y="255" width="26" height="26" ry="2" fill="#a19282"/><rect x="104" y="256" width="24" height="17" ry="1.5" fill="#d7c3ad"/><rect x="57" y="261" width="22" height="22" ry="1.5" fill="#a19282"/><rect x="58" y="262" width="20" height="17" ry="1" fill="#d7c3ad"/><rect x="17" y="269" width="15" height="14" ry="1" fill="#a19282"/><rect x="18" y="270" width="13" height="10" ry=".5" fill="#d7c3ad"/><rect x="160" y="240" width="40" height="39" ry="3" fill="#a19282"/><rect x="230" y="226" width="54" height="52" ry="4" fill="#a19282"/><rect x="324" y="168" width="108" height="104" ry="6" fill="#a19282"/><rect x="488" y="52" width="216" height="208" ry="8" fill="#a19282"/><rect x="161" y="241" width="38" height="26" ry="2.5" fill="#d7c3ad"/><rect x="231" y="227" width="52" height="35" ry="3.5" fill="#d7c3ad"/><rect x="325" y="169" width="106" height="67" ry="5.5" fill="#d7c3ad"/><rect x="489" y="53" width="214" height="140" ry="8" fill="#d7c3ad"/><path d="M110 277.5h12m5-4-5 4 5 3m-22-7 5 4-5 3" fill="none" stroke="#000" stroke-opacity=".251"/><path d="M245 270.5h24m10-8-10 8 10 6m-44-14 10 8-10 6" fill="none" stroke="#000" stroke-opacity=".251"/><path d="M354 254.98h48m20-16-20 16 20 12m-88-28 20 16-20 12" fill="none" stroke="#000" stroke-opacity=".251"/><path d="M548 229.96h96m40-32-40 32 40 24m-176-56 40 32-40 24" fill="none" stroke="#000" stroke-opacity=".251" stroke-width="2"/><path d="M171 273.5h18m7.5-6-7.5 6 7.5 4.5m-33-10.5 7.5 6-7.5 4.5" fill="none" stroke="#000" stroke-opacity=".251"/></g></g><g transform="translate(-464 3572)"><use id="d" transform="translate(0 -300)" width="100%" height="100%" xlink:href="#b"/><rect x="18" y="-30" width="12" height="10" ry=".5" fill="#d7c3ad"/><g fill="#635749"><path d="M114.5-38.5h4v1l-3 4h3v1h-4v-1l3-4h-3z"/><path d="M120.5-38.5v6h-1v-6z"/><path d="M125.5-36.5a2 2 0 0 0-2-2h-2v6h1v-2h1a2 2 0 0 0 2-2zm-1 0a1 1 0 0 1-1 1h-1v-2h1a1 1 0 0 1 1 1z"/></g><g id="e"><g transform="translate(-6)"><rect x="115" y="-44" width="1" height="17" ry="0" fill-opacity=".502"/><path fill="#fff" fill-opacity=".251" d="M116-44h1v17h-1z"/><path fill-opacity=".502" d="M115-43h1v1h-1z"/><path fill-opacity=".502" d="M115-41h1v1h-1z"/><path fill-opacity=".502" d="M115-39h1v1h-1z"/><path fill-opacity=".502" d="M115-37h1v1h-1z"/><path fill-opacity=".502" d="M115-35h1v1h-1z"/><path fill-opacity=".502" d="M115-33h1v1h-1z"/><path fill-opacity=".502" d="M115-31h1v1h-1z"/><path fill-opacity=".502" d="M115-29h1v1h-1z"/><path fill-opacity=".502" d="M116-44h1v1h-1z"/><path fill-opacity=".502" d="M116-42h1v1h-1z"/><path fill-opacity=".502" d="M116-40h1v1h-1z"/><path fill-opacity=".502" d="M116-38h1v1h-1z"/><path fill-opacity=".502" d="M116-36h1v1h-1z"/><path fill-opacity=".502" d="M116-34h1v1h-1z"/><path fill-opacity=".502" d="M116-32h1v1h-1z"/><path fill-opacity=".502" d="M116-30h1v1h-1z"/><path fill-opacity=".502" d="M116-28h1v1h-1z"/><path fill="#fefefe" fill-opacity=".502" d="M115-28h1v1h-1z"/><path fill="#fefefe" fill-opacity=".502" d="M116-29h1v1h-1z"/><path fill="#fefefe" fill-opacity=".502" d="M115-30h1v1h-1z"/><path fill="#fefefe" fill-opacity=".502" d="M116-31h1v1h-1z"/><path fill="#fefefe" fill-opacity=".502" d="M115-32h1v1h-1z"/><path fill="#fefefe" fill-opacity=".502" d="M115-34h1v1h-1z"/><path fill="#fefefe" fill-opacity=".502" d="M115-36h1v1h-1z"/><path fill="#fefefe" fill-opacity=".502" d="M115-38h1v1h-1z"/><path fill="#fefefe" fill-opacity=".502" d="M115-40h1v1h-1z"/><path fill="#fefefe" fill-opacity=".502" d="M115-42h1v1h-1z"/><path fill="#fefefe" fill-opacity=".502" d="M115-44h1v1h-1z"/><path fill="#fefefe" fill-opacity=".502" d="M116-43h1v1h-1z"/><path fill="#fefefe" fill-opacity=".502" d="M116-41h1v1h-1z"/><path fill="#fefefe" fill-opacity=".502" d="M116-39h1v1h-1z"/><path fill="#fefefe" fill-opacity=".502" d="M116-37h1v1h-1z"/><path fill="#fefefe" fill-opacity=".502" d="M116-35h1v1h-1z"/><path fill="#fefefe" fill-opacity=".502" d="M116-33h1v1h-1z"/></g><g fill-opacity=".251"><path d="M177-59h2v26h-2z" transform="translate(-11)"/><path fill="#fff" d="M179-59h2v26h-2z" transform="translate(-11)"/></g><g fill-opacity=".251"><path d="M177-63.5h2v35h-2z" transform="translate(65 -9.5)"/><path fill="#fff" d="M179-63.5h2v35h-2z" transform="translate(65 -9.5)"/></g><g transform="translate(-10)" fill-opacity=".502"><rect x="176" y="-59" width="2" height="2" ry="0"/><path d="M176-55h2v2h-2z"/><path d="M176-51h2v2h-2z"/><path d="M176-47h2v2h-2z"/><path d="M176-43h2v2h-2z"/><path d="M176-39h2v2h-2z"/><path d="M176-35h2v2h-2z"/></g><g transform="translate(-8 2)" fill="#131313" fill-opacity=".502"><rect x="176" y="-59" width="2" height="2" ry="0"/><path d="M176-55h2v2h-2z"/><path d="M176-51h2v2h-2z"/><path d="M176-47h2v2h-2z"/><path d="M176-43h2v2h-2z"/><path d="M176-39h2v2h-2z"/></g><g transform="translate(-8)" fill="#f4f4f4" fill-opacity=".502"><rect x="176" y="-59" width="2" height="2" ry="0"/><path d="M176-55h2v2h-2z"/><path d="M176-51h2v2h-2z"/><path d="M176-47h2v2h-2z"/><path d="M176-43h2v2h-2z"/><path d="M176-39h2v2h-2z"/><path d="M176-35h2v2h-2z"/></g><g transform="translate(-10 2)" fill="#fdfdfd" fill-opacity=".502"><rect x="176" y="-59" width="2" height="2" ry="0"/><path d="M176-55h2v2h-2z"/><path d="M176-51h2v2h-2z"/><path d="M176-47h2v2h-2z"/><path d="M176-43h2v2h-2z"/><path d="M176-39h2v2h-2z"/></g><g transform="translate(66 -14)" fill-opacity=".502"><rect x="176" y="-59" width="2" height="2" ry="0"/><path d="M176-55h2v2h-2z"/><path d="M176-51h2v2h-2z"/><path d="M176-47h2v2h-2z"/><path d="M176-43h2v2h-2z"/><path d="M176-39h2v2h-2z"/><path d="M176-35h2v2h-2z"/></g><g transform="translate(66 -12)" fill="#fdfdfd" fill-opacity=".502"><rect x="176" y="-59" width="2" height="2" ry="0"/><path d="M176-55h2v2h-2z"/><path d="M176-51h2v2h-2z"/><path d="M176-47h2v2h-2z"/><path d="M176-43h2v2h-2z"/><path d="M176-39h2v2h-2z"/></g><g transform="translate(68 -14)" fill="#f4f4f4" fill-opacity=".502"><rect x="176" y="-59" width="2" height="2" ry="0"/><path d="M176-55h2v2h-2z"/><path d="M176-51h2v2h-2z"/><path d="M176-47h2v2h-2z"/><path d="M176-43h2v2h-2z"/><path d="M176-39h2v2h-2z"/><path d="M176-35h2v2h-2z"/></g><g transform="translate(68 -12)" fill="#131313" fill-opacity=".502"><rect x="176" y="-59" width="2" height="2" ry="0"/><path d="M176-55h2v2h-2z"/><path d="M176-51h2v2h-2z"/><path d="M176-47h2v2h-2z"/><path d="M176-43h2v2h-2z"/><path d="M176-39h2v2h-2z"/></g><g transform="translate(66 14)" fill-opacity=".502"><rect x="176" y="-59" width="2" height="2" ry="0"/><path d="M176-55h2v2h-2z"/></g><g transform="translate(66 12)" fill="#fdfdfd" fill-opacity=".502"><rect x="176" y="-59" width="2" height="2" ry="0"/><path d="M176-55h2v2h-2z"/><path d="M176-51h2v1h-2z"/></g><g transform="translate(68 14)" fill="#f4f4f4" fill-opacity=".502"><rect x="176" y="-59" width="2" height="2" ry="0"/><path d="M176-55h2v2h-2z"/></g><g transform="translate(68 12)" fill="#131313" fill-opacity=".502"><rect x="176" y="-59" width="2" height="2" ry="0"/><path d="M176-55h2v2h-2z"/><path d="M176-51h2v1h-2z"/></g><g fill-opacity=".251"><path d="M177-63.5h2V-30h-2z" transform="matrix(2 0 0 2 -6.5 -4)"/><path fill="#fff" d="M179-63.5h2V-30h-2z" transform="matrix(2 0 0 2 -6.5 -4)"/></g><g transform="matrix(2 0 0 2 -4.5 -13)" fill-opacity=".502"><rect x="176" y="-59" width="2" height="2" ry="0"/><path d="M176-55h2v2h-2z"/><path d="M176-51h2v2h-2z"/><path d="M176-47h2v2h-2z"/><path d="M176-43h2v2h-2z"/><path d="M176-39h2v2h-2z"/><path d="M176-35h2v2h-2z"/></g><g transform="matrix(2 0 0 2 -4.5 -9)" fill="#fdfdfd" fill-opacity=".502"><rect x="176" y="-59" width="2" height="2" ry="0"/><path d="M176-55h2v2h-2z"/><path d="M176-51h2v2h-2z"/><path d="M176-47h2v2h-2z"/><path d="M176-43h2v2h-2z"/><path d="M176-39h2v2h-2z"/></g><g transform="matrix(2 0 0 2 -.5 -13)" fill="#f4f4f4" fill-opacity=".502"><rect x="176" y="-59" width="2" height="2" ry="0"/><path d="M176-55h2v2h-2z"/><path d="M176-51h2v2h-2z"/><path d="M176-47h2v2h-2z"/><path d="M176-43h2v2h-2z"/><path d="M176-39h2v2h-2z"/><path d="M176-35h2v2h-2z"/></g><g transform="matrix(2 0 0 2 -.5 -9)" fill="#131313" fill-opacity=".502"><rect x="176" y="-59" width="2" height="2" ry="0"/><path d="M176-55h2v2h-2z"/><path d="M176-51h2v2h-2z"/><path d="M176-47h2v2h-2z"/><path d="M176-43h2v2h-2z"/><path d="M176-39h2v2h-2z"/></g><g transform="matrix(2 0 0 2 -4.5 43)" fill-opacity=".502"><rect x="176" y="-59" width="2" height="2" ry="0"/><path d="M176-55h2v1.5h-2z"/></g><g transform="matrix(2 0 0 2 -4.5 39)" fill="#fdfdfd" fill-opacity=".502"><rect x="176" y="-59" width="2" height="2" ry="0"/><path d="M176-55h2v2h-2z"/></g><g transform="matrix(2 0 0 2 -.5 43)" fill="#f4f4f4" fill-opacity=".502"><rect x="176" y="-59" width="2" height="2" ry="0"/><path d="M176-55h2v1.5h-2z"/></g><g transform="matrix(2 0 0 2 -.5 39)" fill="#131313" fill-opacity=".502"><rect x="176" y="-59" width="2" height="2" ry="0"/><path d="M176-55h2v2h-2z"/></g><g fill-opacity=".251"><path d="M177-63.5h2V-30h-2z" transform="matrix(2 0 0 1.91044 184.5 -125.686)"/><path fill="#fff" d="M179-63.5h2V-30h-2z" transform="matrix(2 0 0 1.91044 184.5 -125.686)"/></g><g transform="matrix(2 0 0 2 186.5 -129)" fill-opacity=".502"><rect x="176" y="-59" width="2" height="2" ry="0"/><path d="M176-55h2v2h-2z"/><path d="M176-51h2v2h-2z"/><path d="M176-47h2v2h-2z"/><path d="M176-43h2v2h-2z"/><path d="M176-39h2v2h-2z"/><path d="M176-35h2v2h-2z"/></g><g transform="matrix(2 0 0 2 186.5 -125)" fill="#fdfdfd" fill-opacity=".502"><rect x="176" y="-59" width="2" height="2" ry="0"/><path d="M176-55h2v2h-2z"/><path d="M176-51h2v2h-2z"/><path d="M176-47h2v2h-2z"/><path d="M176-43h2v2h-2z"/><path d="M176-39h2v2h-2z"/></g><g transform="matrix(2 0 0 2 190.5 -129)" fill="#f4f4f4" fill-opacity=".502"><rect x="176" y="-59" width="2" height="2" ry="0"/><path d="M176-55h2v2h-2z"/><path d="M176-51h2v2h-2z"/><path d="M176-47h2v2h-2z"/><path d="M176-43h2v2h-2z"/><path d="M176-39h2v2h-2z"/><path d="M176-35h2v2h-2z"/></g><g transform="matrix(2 0 0 2 190.5 -125)" fill="#131313" fill-opacity=".502"><rect x="176" y="-59" width="2" height="2" ry="0"/><path d="M176-55h2v2h-2z"/><path d="M176-51h2v2h-2z"/><path d="M176-47h2v2h-2z"/><path d="M176-43h2v2h-2z"/><path d="M176-39h2v2h-2z"/></g><rect x="176" y="-59" width="2" height="2" ry="0" transform="matrix(2 0 0 2 186.5 -73)" fill-opacity=".502"/><g transform="matrix(2 0 0 2 186.5 -77)" fill="#fdfdfd" fill-opacity=".502"><rect x="176" y="-59" width="2" height="2" ry="0"/><path d="M176-55h2v2h-2z"/></g><rect x="176" y="-59" width="2" height="2" ry="0" transform="matrix(2 0 0 2 190.5 -73)" fill="#f4f4f4" fill-opacity=".502"/><g transform="matrix(2 0 0 2 190.5 -77)" fill="#131313" fill-opacity=".502"><rect x="176" y="-59" width="2" height="2" ry="0"/><path d="M176-55h2v2h-2z"/></g><g fill-opacity=".251"><path d="M177-63.5h2V-30h-2z" transform="matrix(2 0 0 2 184.5 -56)"/><path fill="#fff" d="M179-63.5h2V-30h-2z" transform="matrix(2 0 0 2 184.5 -56)"/></g><g transform="matrix(2 0 0 2 186.5 -65)" fill-opacity=".502"><rect x="176" y="-59" width="2" height="2" ry="0"/><path d="M176-55h2v2h-2z"/><path d="M176-51h2v2h-2z"/><path d="M176-47h2v2h-2z"/><path d="M176-43h2v2h-2z"/><path d="M176-39h2v2h-2z"/><path d="M176-35h2v2h-2z"/></g><g transform="matrix(2 0 0 2 186.5 -61)" fill="#fdfdfd" fill-opacity=".502"><rect x="176" y="-59" width="2" height="2" ry="0"/><path d="M176-55h2v2h-2z"/><path d="M176-51h2v2h-2z"/><path d="M176-47h2v2h-2z"/><path d="M176-43h2v2h-2z"/><path d="M176-39h2v2h-2z"/></g><g transform="matrix(2 0 0 2 190.5 -65)" fill="#f4f4f4" fill-opacity=".502"><rect x="176" y="-59" width="2" height="2" ry="0"/><path d="M176-55h2v2h-2z"/><path d="M176-51h2v2h-2z"/><path d="M176-47h2v2h-2z"/><path d="M176-43h2v2h-2z"/><path d="M176-39h2v2h-2z"/><path d="M176-35h2v2h-2z"/></g><g transform="matrix(2 0 0 2 190.5 -61)" fill="#131313" fill-opacity=".502"><rect x="176" y="-59" width="2" height="2" ry="0"/><path d="M176-55h2v2h-2z"/><path d="M176-51h2v2h-2z"/><path d="M176-47h2v2h-2z"/><path d="M176-43h2v2h-2z"/><path d="M176-39h2v2h-2z"/></g><g transform="matrix(2 0 0 2 186.5 -9)" fill-opacity=".502"><rect x="176" y="-59" width="2" height="2" ry="0"/><path d="M176-55h2v1.5h-2z"/></g><g transform="matrix(2 0 0 2 186.5 -13)" fill="#fdfdfd" fill-opacity=".502"><rect x="176" y="-59" width="2" height="2" ry="0"/><path d="M176-55h2v2h-2z"/></g><g transform="matrix(2 0 0 2 190.5 -9)" fill="#f4f4f4" fill-opacity=".502"><rect x="176" y="-59" width="2" height="2" ry="0"/><path d="M176-55h2v1.5h-2z"/></g><g transform="matrix(2 0 0 2 190.5 -13)" fill="#131313" fill-opacity=".502"><rect x="176" y="-59" width="2" height="2" ry="0"/><path d="M176-55h2v2h-2z"/></g><g fill-opacity=".251"><path d="M177-63.5h2V-30h-2z" transform="matrix(2 0 0 .26866 184.5 -98.94)"/><path fill="#fff" d="M179-63.5h2V-30h-2z" transform="matrix(2 0 0 .26866 184.5 -98.94)"/></g><g transform="matrix(-2 0 0 -2 894.5 -225)" fill-opacity=".502"><rect x="176" y="-59" width="2" height="2" ry="0"/><path d="M176-55h2v.5h-2z"/></g><rect x="176" y="-59" width="2" height="2" ry="0" transform="matrix(2 0 0 2 186.5 3)" fill="#fdfdfd" fill-opacity=".502"/><g transform="matrix(2 0 0 -2 190.5 -225)" fill="#f4f4f4" fill-opacity=".502"><rect x="176" y="-59" width="2" height="2" ry="0"/><path d="M176-55h2v.5h-2z"/></g><rect x="176" y="-59" width="2" height="2" ry="0" transform="matrix(2 0 0 2 190.5 3)" fill="#131313" fill-opacity=".502"/><g transform="translate(287.5 -379)"><path d="M62 258c-1.108 0-2 .892-2 2v16c0 1.108.892 2 2 2h4c1.108 0 2-.892 2-2v-16c0-1.108-.892-2-2-2zm0 14h4v4h-4z" fill="url(#c)"/><rect x="56" y="250" width="16" height="18" rx="4" ry="4" fill="#3d3846"/><rect x="56" y="248" width="16" height="18" rx="4" ry="4" fill="#5e5c64"/><path d="M62 254c-1.108 0-2 .892-2 2v18c0 1.108.892 2 2 2h4c1.108 0 2-.892 2-2v-18c0-1.108-.892-2-2-2zm0 16h4v4h-4z" fill="#fff"/><rect transform="scale(1 -1)" x="62" y="-260" width="4" height="10" rx="2" ry="2" fill="#68676b" style="paint-order:normal"/><rect transform="scale(1 -1)" x="62" y="-258" width="4" height="8" rx="2" ry="2" fill="#949390" style="paint-order:normal"/></g><g transform="translate(478.5 -495)"><path d="M62 258c-1.108 0-2 .892-2 2v16c0 1.108.892 2 2 2h4c1.108 0 2-.892 2-2v-16c0-1.108-.892-2-2-2zm0 14h4v4h-4z" fill="url(#c)"/><rect x="56" y="250" width="16" height="18" rx="4" ry="4" fill="#3d3846"/><rect x="56" y="248" width="16" height="18" rx="4" ry="4" fill="#5e5c64"/><path d="M62 254c-1.108 0-2 .892-2 2v18c0 1.108.892 2 2 2h4c1.108 0 2-.892 2-2v-18c0-1.108-.892-2-2-2zm0 16h4v4h-4z" fill="#fff"/><rect transform="scale(1 -1)" x="62" y="-260" width="4" height="10" rx="2" ry="2" fill="#68676b" style="paint-order:normal"/><rect transform="scale(1 -1)" x="62" y="-258" width="4" height="8" rx="2" ry="2" fill="#949390" style="paint-order:normal"/></g><g transform="matrix(.5 0 0 .5 212 -197)"><path d="M62 258c-1.108 0-2 .892-2 2v16c0 1.108.892 2 2 2h4c1.108 0 2-.892 2-2v-16c0-1.108-.892-2-2-2zm0 14h4v4h-4z" fill="url(#c)"/><rect x="56" y="250" width="16" height="18" rx="4" ry="4" fill="#3d3846"/><rect x="56" y="248" width="16" height="18" rx="4" ry="4" fill="#5e5c64"/><path d="M62 254c-1.108 0-2 .892-2 2v18c0 1.108.892 2 2 2h4c1.108 0 2-.892 2-2v-18c0-1.108-.892-2-2-2zm0 16h4v4h-4z" fill="#fff"/><rect transform="scale(1 -1)" x="62" y="-260" width="4" height="10" rx="2" ry="2" fill="#68676b" style="paint-order:normal"/><rect transform="scale(1 -1)" x="62" y="-258" width="4" height="8" rx="2" ry="2" fill="#949390" style="paint-order:normal"/></g><g transform="matrix(.5 0 0 .5 136 -183)"><path d="M62 258c-1.108 0-2 .892-2 2v16c0 1.108.892 2 2 2h4c1.108 0 2-.892 2-2v-16c0-1.108-.892-2-2-2zm0 14h4v4h-4z" fill="url(#c)"/><rect x="56" y="250" width="16" height="18" rx="4" ry="4" fill="#3d3846"/><rect x="56" y="248" width="16" height="18" rx="4" ry="4" fill="#5e5c64"/><path d="M62 254c-1.108 0-2 .892-2 2v18c0 1.108.892 2 2 2h4c1.108 0 2-.892 2-2v-18c0-1.108-.892-2-2-2zm0 16h4v4h-4z" fill="#fff"/><rect transform="scale(1 -1)" x="62" y="-260" width="4" height="10" rx="2" ry="2" fill="#68676b" style="paint-order:normal"/><rect transform="scale(1 -1)" x="62" y="-258" width="4" height="8" rx="2" ry="2" fill="#949390" style="paint-order:normal"/></g><g transform="matrix(.25 0 0 .25 94 -106)"><path d="M62 258c-1.108 0-2 .892-2 2v16c0 1.108.892 2 2 2h4c1.108 0 2-.892 2-2v-16c0-1.108-.892-2-2-2zm0 14h4v4h-4z" fill="url(#c)"/><rect x="56" y="250" width="16" height="18" rx="4" ry="4" fill="#3d3846"/><rect x="56" y="248" width="16" height="18" rx="4" ry="4" fill="#5e5c64"/><path d="M62 254c-1.108 0-2 .892-2 2v18c0 1.108.892 2 2 2h4c1.108 0 2-.892 2-2v-18c0-1.108-.892-2-2-2zm0 16h4v4h-4z" fill="#fff"/><rect transform="scale(1 -1)" x="62" y="-260" width="4" height="10" rx="2" ry="2" fill="#68676b" style="paint-order:normal"/><rect transform="scale(1 -1)" x="62" y="-258" width="4" height="8" rx="2" ry="2" fill="#949390" style="paint-order:normal"/></g></g><g fill="#635749"><path d="M63-33h4v1l-3 4h3v1h-4v-1l3-4h-3z"/><path d="M69-33v6h-1v-6z"/><path d="M74-31a2 2 0 0 0-2-2h-2v6h1v-2h1a2 2 0 0 0 2-2zm-1 0a1 1 0 0 1-1 1h-1v-2h1a1 1 0 0 1 1 1z"/></g><g fill-opacity=".69"><path d="M19-28h4v1l-3 4h3v1h-4v-1l3-4h-3z"/><path d="M25-28v6h-1v-6z"/><path d="M30-26a2 2 0 0 0-2-2h-2v6h1v-2h1a2 2 0 0 0 2-2zm-1 0a1 1 0 0 1-1 1h-1v-2h1a1 1 0 0 1 1 1z"/></g><g fill="#635749"><path d="M253-62h8v2l-6 8h6v2h-8v-2l6-8h-6z"/><path d="M265-62v12h-2v-12z"/><path d="M275-58a4 4 0 0 0-4-4h-4v12h2v-4h2a4 4 0 0 0 4-4zm-2 0a2 2 0 0 1-2 2h-2v-4h2a2 2 0 0 1 2 2z"/></g><g fill="#635749"><path d="M370-110h16v4l-12 16h12v4h-16v-4l12-16h-12z"/><path d="M394-110v24h-4v-24z"/><path d="M414-102a8 8 0 0 0-8-8h-8v24h4v-8h4a8 8 0 0 0 8-8zm-4 0a4 4 0 0 1-4 4h-4v-8h4a4 4 0 0 1 4 4z"/></g><g fill="#635749"><path d="M580-201h32v8l-24 32h24v8h-32v-8l24-32h-24z"/><path d="M628-201v48h-8v-48z"/><path d="M668-185a16 16 0 0 0-16-16h-16v48h8v-16h8a16 16 0 0 0 16-16zm-8 0a8 8 0 0 1-8 8h-8v-16h8a8 8 0 0 1 8 8z"/></g><g fill="#635749"><path d="M175-52h8v2l-6 8h6v2h-8v-2l6-8h-6z"/><path d="M187-52v12h-2v-12z"/><path d="M197-48a4 4 0 0 0-4-4h-4v12h2v-4h2a4 4 0 0 0 4-4zm-2 0a2 2 0 0 1-2 2h-2v-4h2a2 2 0 0 1 2 2z"/></g></g><g fill="#635749" transform="translate(-464 3572)"><use id="f" transform="translate(0 -300)" width="100%" height="100%" xlink:href="#d"/><use id="g" transform="translate(0 -300)" width="100%" height="100%" xlink:href="#e"/><path d="M115.5-337.5h3l-2 5h1l2-5v-1h-4z"/><path d="M120.5-337.5h3l-3 4v1h4v-1h-3l3-4v-1h-4z"/><path d="M64-332h3l-2 5h1l2-5v-1h-4z"/><path d="M69-332h3l-3 4v1h4v-1h-3l3-4v-1h-4z"/><path d="M20-327h3l-2 5h1l2-5v-1h-4z"/><path d="M25-327h3l-3 4v1h4v-1h-3l3-4v-1h-4z"/><path d="M255-359h6l-4 10h2l4-10v-2h-8z"/><path d="M265-359h6l-6 8v2h8v-2h-6l6-8v-2h-8z"/><path d="M374-405h12l-8 20h4l8-20v-4h-16z"/><path d="M394-405h12l-12 16v4h16v-4h-12l12-16v-4h-16z"/><path d="M588-492h24l-16 40h8l16-40v-8h-32z"/><path d="M628-492h24l-24 32v8h32v-8h-24l24-32v-8h-32z"/><path d="M177-350h6l-4 10h2l4-10v-2h-8z"/><path d="M187-350h6l-6 8v2h8v-2h-6l6-8v-2h-8z"/></g><g transform="translate(-464 3572)"><use id="h" transform="translate(0 -300)" width="100%" height="100%" xlink:href="#f"/><use id="i" transform="translate(0 -300)" width="100%" height="100%" xlink:href="#g"/><g fill="#635749"><path d="M123-632h1v-2h1l1 2h1l-.926-2.314A2 2 0 0 0 127-636a2 2 0 0 0-2-2h-2v2zm1-3v-2h1a1 1 0 0 1 1 1 1 1 0 0 1-1 1z"/><path d="M113-632h1v-2h1l1 2h1l-.926-2.314A2 2 0 0 0 117-636a2 2 0 0 0-2-2h-2v2zm1-3v-2h1a1 1 0 0 1 1 1 1 1 0 0 1-1 1z"/><path d="M122-632h-1v-2h-2v2h-1v-4a2 2 0 0 1 2-2 2 2 0 0 1 2 2zm-1-3v-1a1 1 0 0 0-1-1 1 1 0 0 0-1 1v1z"/></g><g fill="#635749"><path d="M71-627h1v-2h1l1 2h1l-.926-2.314A2 2 0 0 0 75-631a2 2 0 0 0-2-2h-2v2zm1-3v-2h1a1 1 0 0 1 1 1 1 1 0 0 1-1 1z"/><path d="M61-627h1v-2h1l1 2h1l-.926-2.314A2 2 0 0 0 65-631a2 2 0 0 0-2-2h-2v2zm1-3v-2h1a1 1 0 0 1 1 1 1 1 0 0 1-1 1z"/><path d="M66-627h1v-2h2v2h1v-4a2 2 0 0 0-2-2 2 2 0 0 0-2 2zm1-3v-1a1 1 0 0 1 1-1 1 1 0 0 1 1 1v1z"/></g><g fill="#635749"><path d="M22-622h1v-2h2v2h1v-4a2 2 0 0 0-2-2 2 2 0 0 0-2 2zm1-3v-1a1 1 0 0 1 1-1 1 1 0 0 1 1 1v1z"/><path d="M19-622h1v-2l1 2h1l-.926-2.314A2 2 0 0 0 20-628h-1v2zm1-4v-1a1 1 0 1 1 0 2z"/><path d="M27-622h1v-2l1 2h1l-.926-2.314A2 2 0 0 0 28-628h-1v2zm1-4v-1a1 1 0 1 1 0 2z"/></g><g fill="#635749"><path d="M270-650h2v-4h2l2 4h2l-1.852-4.629A4 4 0 0 0 278-658a4 4 0 0 0-4-4h-4v4zm2-6v-4h2a2 2 0 0 1 2 2 2 2 0 0 1-2 2z"/><path d="M250-650h2v-4h2l2 4h2l-1.852-4.629A4 4 0 0 0 258-658a4 4 0 0 0-4-4h-4v4zm2-6v-4h2a2 2 0 0 1 2 2 2 2 0 0 1-2 2z"/><path d="M268-650h-2v-4h-4v4h-2v-8a4 4 0 0 1 4-4 4 4 0 0 1 4 4zm-2-6v-2a2 2 0 0 0-2-2 2 2 0 0 0-2 2v2z"/></g><g fill="#635749"><path d="M404-685h4v-8h4l4 8h4l-3.703-9.258A8 8 0 0 0 420-701a8 8 0 0 0-8-8h-8v8zm4-12v-8h4a4 4 0 0 1 4 4 4 4 0 0 1-4 4z"/><path d="M364-685h4v-8h4l4 8h4l-3.703-9.258A8 8 0 0 0 380-701a8 8 0 0 0-8-8h-8v8zm4-12v-8h4a4 4 0 0 1 4 4 4 4 0 0 1-4 4z"/><path d="M400-685h-4v-8h-8v8h-4v-16a8 8 0 0 1 8-8 8 8 0 0 1 8 8zm-4-12v-4a4 4 0 0 0-4-4 4 4 0 0 0-4 4v4z"/></g><g fill="#635749"><path d="M648-753h8v-16h8l8 16h8l-7.406-18.515A16 16 0 0 0 680-785a16 16 0 0 0-16-16h-16v16zm8-24v-16h8a8 8 0 0 1 8 8 8 8 0 0 1-8 8z"/><path d="M568-753h8v-16h8l8 16h8l-7.406-18.515A16 16 0 0 0 600-785a16 16 0 0 0-16-16h-16v16zm8-24v-16h8a8 8 0 0 1 8 8 8 8 0 0 1-8 8z"/><path d="M640-753h-8v-16h-16v16h-8v-32a16 16 0 0 1 16-16 16 16 0 0 1 16 16zm-8-24v-8a8 8 0 0 0-8-8 8 8 0 0 0-8 8v8z"/></g><g fill="#635749"><path d="M190-639h2v-4h1l2 4h2l-1.852-4.629A4 4 0 0 0 193-651h-3v4zm2-6v-4h1a2 2 0 0 1 0 4z"/><path d="M173-639h2v-4h1l2 4h2l-1.852-4.629A4 4 0 0 0 176-651h-3v4zm2-6v-4h1a2 2 0 0 1 0 4z"/><path d="M189-639h-2v-4h-4v4h-2v-8a4 4 0 0 1 4-4 4 4 0 0 1 4 4zm-2-6v-2a2 2 0 0 0-2-2 2 2 0 0 0-2 2v2z"/></g></g><g transform="translate(-464 3572)"><use id="j" transform="translate(0 -300)" width="100%" height="100%" xlink:href="#h"/><rect x="104" y="-1244" width="24" height="17" ry="1.5" fill="#4ac121"/><rect x="58" y="-1238" width="20" height="17" ry="1" fill="#4ac121"/><use id="k" transform="translate(0 -300)" width="100%" height="100%" xlink:href="#i"/><path d="M120.5-937.5h3l-3 4v1h4v-1h-3l3-4v-1h-4z" fill="#635749"/><path d="M115.5-934.5c0 1.108.892 2 2 2s2-.892 2-2v-1h-2v1h1c0 .554-.446 1-1 1s-1-.446-1-1v-2c0-.554.446-1 1-1s1 .446 1 1h1c0-1.108-.892-2-2-2s-2 .892-2 2z" fill="#635749"/><path d="M69-932h3l-3 4v1h4v-1h-3l3-4v-1h-4z" fill="#635749"/><path d="M63-929c0 1.108.892 2 2 2s2-.892 2-2v-1h-2v1h1c0 .554-.446 1-1 1s-1-.446-1-1v-2c0-.554.446-1 1-1s1 .446 1 1h1c0-1.108-.892-2-2-2s-2 .892-2 2z" fill="#635749"/><path d="M25-927h3l-3 4v1h4v-1h-3l3-4v-1h-4z" fill="#635749"/><path d="M20-924c0 1.108.892 2 2 2s2-.892 2-2v-1h-2v1h1c0 .554-.446 1-1 1s-1-.446-1-1v-2c0-.554.446-1 1-1s1 .446 1 1h1c0-1.108-.892-2-2-2s-2 .892-2 2z" fill="#635749"/><path d="M265-959h6l-6 8v2h8v-2h-6l6-8v-2h-8z" fill="#635749"/><path d="M255-953c0 2.216 1.784 4 4 4s4-1.784 4-4v-2h-4v2h2c0 1.108-.892 2-2 2s-2-.892-2-2v-4c0-1.108.892-2 2-2s2 .892 2 2h2c0-2.216-1.784-4-4-4s-4 1.784-4 4z" fill="#635749"/><path d="M186.5-949h6l-6 8v2h8v-2h-6l6-8v-2h-8z" fill="#635749"/><path d="M177.5-943c0 2.216 1.784 4 4 4s4-1.784 4-4v-2h-4v2h2c0 1.108-.892 2-2 2s-2-.892-2-2v-4c0-1.108.892-2 2-2s2 .892 2 2h2c0-2.216-1.784-4-4-4s-4 1.784-4 4z" fill="#635749"/><path d="M394-1005h12l-12 16v4h16v-4h-12l12-16v-4h-16z" fill="#635749"/><path d="M374-993c0 4.432 3.568 8 8 8s8-3.568 8-8v-4h-8v4h4c0 2.216-1.784 4-4 4s-4-1.784-4-4v-8c0-2.216 1.784-4 4-4s4 1.784 4 4h4c0-4.432-3.568-8-8-8s-8 3.568-8 8z" fill="#635749"/><path d="M628-1093h24l-24 32v8h32v-8h-24l24-32v-8h-32z" fill="#635749"/><path d="M588-1069c0 8.864 7.136 16 16 16s16-7.136 16-16v-8h-16v8h8c0 4.432-3.568 8-8 8s-8-3.568-8-8v-16c0-4.432 3.568-8 8-8s8 3.568 8 8h8c0-8.864-7.136-16-16-16s-16 7.136-16 16z" fill="#635749"/></g><g transform="translate(-464 3572)"><use id="l" transform="translate(0 -300)" width="100%" height="100%" xlink:href="#j"/><use id="p" transform="translate(0 -300)" width="100%" height="100%" xlink:href="#k"/><path d="M120.5-1237.5h3l-3 4v1h4v-1h-3l3-4v-1h-4z" fill="#635749"/><path d="M115.5-1238.5h2a1.5 1.5 0 0 1 1.197 2.4 2 2 0 0 1-1.197 3.6h-2v-2zm1 1v1h1a.5.5 0 0 0 0-1zm0 2v2h1a1 1 0 1 0 0-2z" fill="#635749"/><path d="M25-1227h3l-3 4v1h4v-1h-3l3-4v-1h-4z" fill="#635749"/><path d="M20-1228h2a1.5 1.5 0 0 1 1.197 2.4A2 2 0 0 1 22-1222h-2v-2zm1 1v1h1a.5.5 0 0 0 0-1zm0 2v2h1a1 1 0 1 0 0-2z" fill="#635749"/><path d="M69-1232h3l-3 4v1h4v-1h-3l3-4v-1h-4z" fill="#635749"/><path d="M63-1233h2a1.5 1.5 0 0 1 1.197 2.4A2 2 0 0 1 65-1227h-2v-2zm1 1v1h1a.5.5 0 0 0 0-1zm0 2v2h1a1 1 0 1 0 0-2z" fill="#635749"/><path d="M265-1259h6l-6 8v2h8v-2h-6l6-8v-2h-8z" fill="#635749"/><path d="M255-1261h4a3 3 0 0 1 3 3 3 3 0 0 1-.605 1.8A4 4 0 0 1 263-1253a4 4 0 0 1-4 4h-4v-4zm2 2v2h2a1 1 0 0 0 0-2zm0 4v4h2a2 2 0 1 0 0-4z" fill="#635749"/><path d="M187-1250h6l-6 8v2h8v-2h-6l6-8v-2h-8z" fill="#635749"/><path d="M177-1252h4a3 3 0 0 1 3 3 3 3 0 0 1-.605 1.8A4 4 0 0 1 185-1244a4 4 0 0 1-4 4h-4v-4zm2 2v2h2a1 1 0 0 0 0-2zm0 4v4h2a2 2 0 1 0 0-4z" fill="#635749"/><path d="M394-1306h12l-12 16v4h16v-4h-12l12-16v-4h-16z" fill="#635749"/><path d="M374-1310h8a6 6 0 0 1 6 6 6 6 0 0 1-1.21 3.602A8.001 8.001 0 0 1 390-1294a8 8 0 0 1-8 8h-8v-8zm4 4v4h4a2 2 0 0 0 0-4zm0 8v8h4a4 4 0 1 0 0-8z" fill="#635749"/><path d="M628-1393h24l-24 32v8h32v-8h-24l24-32v-8h-32z" fill="#635749"/><path d="M588-1401h16c6.627 0 12 5.373 12 12a12 12 0 0 1-2.422 7.203A16.002 16.002 0 0 1 620-1369c0 8.837-7.163 16-16 16h-16v-16zm8 8v8h8a4 4 0 0 0 0-8zm0 16v16h8a8 8 0 1 0 0-16z" fill="#635749"/></g><g fill="#635749" transform="translate(-464 3572)"><use id="m" transform="translate(0 -300)" width="100%" height="100%" xlink:href="#l"/><path d="M71-1533h2a1.5 1.5 0 0 1 1.197 2.4A2 2 0 0 1 73-1527h-2v-2zm1 1v1h1a.5.5 0 0 0 0-1zm0 2v2h1a1 1 0 1 0 0-2z"/><path d="M66-1533h4v1h-4z"/><path d="M66-1528h4v1h-4z"/><path d="M66-1533h1v6h-1z"/><path d="M66.5-1531H69v1h-2.5z"/><path d="M61-1533v6h2c1.108 0 2-.892 2-2v-2c0-1.108-.892-2-2-2h-1.5zm1 1h1c.554 0 1 .446 1 1v2c0 .554-.446 1-1 1h-1z"/><g transform="translate(0 -3)"><path d="M108-1536v7h2.5c1.385 0 2.5-1.115 2.5-2.5v-2c0-1.385-1.115-2.5-2.5-2.5h-2zm1 1h1.5c.831 0 1.5.669 1.5 1.5v2c0 .831-.669 1.5-1.5 1.5H109z"/><rect x="114" y="-1536" width="5" height="1" ry="0"/><path d="M114-1535.5h1v6.5h-1z"/><path d="M114.5-1530h4.5v1h-4.5z"/><path d="M114.5-1533h3.5v1h-3.5z"/><path d="M120-1536h1v7h-1z"/><path d="M121-1533v1h2a1 1 0 0 1 1 1 1 1 0 0 1-1 1h-2v1h2a2 2 0 0 0 2-2 2 2 0 0 0-2-2z"/><path d="M120-1536v1h2a1 1 0 0 1 1 1 1 1 0 0 1-1 1h-2v1h2a2 2 0 0 0 2-2 2 2 0 0 0-2-2z"/></g><g transform="matrix(2 0 0 2 24 1509)"><path d="M108-1536v7h2.5c1.385 0 2.5-1.115 2.5-2.5v-2c0-1.385-1.115-2.5-2.5-2.5h-2zm1 1h1.5c.831 0 1.5.669 1.5 1.5v2c0 .831-.669 1.5-1.5 1.5H109z"/><rect x="114" y="-1536" width="5" height="1" ry="0"/><path d="M114-1535.5h1v6.5h-1z"/><path d="M114.5-1530h4.5v1h-4.5z"/><path d="M114.5-1533h3.5v1h-3.5z"/><path d="M120-1536h1v7h-1z"/><path d="M121-1533v1h2a1 1 0 0 1 1 1 1 1 0 0 1-1 1h-2v1h2a2 2 0 0 0 2-2 2 2 0 0 0-2-2z"/><path d="M120-1536v1h2a1 1 0 0 1 1 1 1 1 0 0 1-1 1h-2v1h2a2 2 0 0 0 2-2 2 2 0 0 0-2-2z"/></g><g transform="matrix(2 0 0 2 -53 1519)"><path d="M108-1536v7h2.5c1.385 0 2.5-1.115 2.5-2.5v-2c0-1.385-1.115-2.5-2.5-2.5h-2zm1 1h1.5c.831 0 1.5.669 1.5 1.5v2c0 .831-.669 1.5-1.5 1.5H109z"/><rect x="114" y="-1536" width="5" height="1" ry="0"/><path d="M114-1535.5h1v6.5h-1z"/><path d="M114.5-1530h4.5v1h-4.5z"/><path d="M114.5-1533h3.5v1h-3.5z"/><path d="M120-1536h1v7h-1z"/><path d="M121-1533v1h2a1 1 0 0 1 1 1 1 1 0 0 1-1 1h-2v1h2a2 2 0 0 0 2-2 2 2 0 0 0-2-2z"/><path d="M120-1536v1h2a1 1 0 0 1 1 1 1 1 0 0 1-1 1h-2v1h2a2 2 0 0 0 2-2 2 2 0 0 0-2-2z"/></g><g transform="matrix(4 0 0 4 -88 4532)"><path d="M108-1536v7h2.5c1.385 0 2.5-1.115 2.5-2.5v-2c0-1.385-1.115-2.5-2.5-2.5h-2zm1 1h1.5c.831 0 1.5.669 1.5 1.5v2c0 .831-.669 1.5-1.5 1.5H109z"/><rect x="114" y="-1536" width="5" height="1" ry="0"/><path d="M114-1535.5h1v6.5h-1z"/><path d="M114.5-1530h4.5v1h-4.5z"/><path d="M114.5-1533h3.5v1h-3.5z"/><path d="M120-1536h1v7h-1z"/><path d="M121-1533v1h2a1 1 0 0 1 1 1 1 1 0 0 1-1 1h-2v1h2a2 2 0 0 0 2-2 2 2 0 0 0-2-2z"/><path d="M120-1536v1h2a1 1 0 0 1 1 1 1 1 0 0 1-1 1h-2v1h2a2 2 0 0 0 2-2 2 2 0 0 0-2-2z"/></g><g transform="matrix(8 0 0 8 -336 10583)"><path d="M108-1536v7h2.5c1.385 0 2.5-1.115 2.5-2.5v-2c0-1.385-1.115-2.5-2.5-2.5h-2zm1 1h1.5c.831 0 1.5.669 1.5 1.5v2c0 .831-.669 1.5-1.5 1.5H109z"/><rect x="114" y="-1536" width="5" height="1" ry="0"/><path d="M114-1535.5h1v6.5h-1z"/><path d="M114.5-1530h4.5v1h-4.5z"/><path d="M114.5-1533h3.5v1h-3.5z"/><path d="M120-1536h1v7h-1z"/><path d="M121-1533v1h2a1 1 0 0 1 1 1 1 1 0 0 1-1 1h-2v1h2a2 2 0 0 0 2-2 2 2 0 0 0-2-2z"/><path d="M120-1536v1h2a1 1 0 0 1 1 1 1 1 0 0 1-1 1h-2v1h2a2 2 0 0 0 2-2 2 2 0 0 0-2-2z"/></g><path d="M27-1528h1a1.5 1.5 0 0 1 1.197 2.4A2 2 0 0 1 28-1522h-1zm1 2a.5.5 0 0 0 0-1zm0 3a1 1 0 1 0 0-2z"/><path d="M23-1528h3v1h-3z"/><path d="M23-1523h3v1h-3z"/><path d="M23-1528h1v6h-1z"/><path d="M23.38-1526h1.625v1H23.38z"/><path d="M19-1528v6h1c1.108 0 2-.892 2-2v-2c0-1.108-.892-2-2-2zm1 1c.554 0 1 .446 1 1v2c0 .554-.446 1-1 1z"/></g><g fill="#635749" transform="translate(-464 3572)"><use id="n" transform="translate(0 -300)" width="100%" height="100%" xlink:href="#m"/><path d="M118-1837a2 2 0 0 0-2-2h-2v6h1v-2h1a2 2 0 0 0 2-2zm-1 0a1 1 0 0 1-1 1h-1v-2h1a1 1 0 0 1 1 1z"/><path d="M109-1833h1v-2h1l1 2h1l-.926-2.314A2 2 0 0 0 113-1837a2 2 0 0 0-2-2h-2v2zm1-3v-2h1a1 1 0 0 1 1 1 1 1 0 0 1-1 1z"/><path d="M119-1833v-6h1l1.5 4 1.5-4h1v6h-1v-3.5l-1 3.5h-1l-1-3.5v3.5z"/><path d="M69-1831a2 2 0 0 0-2-2h-2v6h1v-2h1a2 2 0 0 0 2-2zm-1 0a1 1 0 0 1-1 1h-1v-2h1a1 1 0 0 1 1 1z"/><path d="M60-1827h1v-2h1l1 2h1l-.926-2.314A2 2 0 0 0 64-1831a2 2 0 0 0-2-2h-2v2zm1-3v-2h1a1 1 0 0 1 1 1 1 1 0 0 1-1 1z"/><path d="M70-1827v-6h1l1.5 4 1.5-4h1v6h-1v-3.5l-1 3.5h-1l-1-3.5v3.5z"/><path d="M26-1822v-6h1l1 2 1-2h1v6h-1v-3.5l-1 1.5-1-1.5v3.5z"/><path d="M260-1858a4 4 0 0 0-4-4h-4v12h2v-4h2a4 4 0 0 0 4-4zm-2 0a2 2 0 0 1-2 2h-2v-4h2a2 2 0 0 1 2 2z"/><path d="M242-1850h2v-4h2l2 4h2l-1.852-4.629A4 4 0 0 0 250-1858a4 4 0 0 0-4-4h-4v4zm2-6v-4h2a2 2 0 0 1 2 2 2 2 0 0 1-2 2z"/><path d="M262-1850v-12h2l3 8 3-8h2v12h-2v-7l-2 7h-2l-2-7v7z"/><path d="M183-1848a4 4 0 0 0-4-4h-4v12h2v-4h2a4 4 0 0 0 4-4zm-2 0a2 2 0 0 1-2 2h-2v-4h2a2 2 0 0 1 2 2z"/><path d="M165-1840h2v-4h2l2 4h2l-1.852-4.629A4 4 0 0 0 173-1848a4 4 0 0 0-4-4h-4v4zm2-6v-4h2a2 2 0 0 1 2 2 2 2 0 0 1-2 2z"/><path d="M185-1840v-12h2l3 8 3-8h2v12h-2v-7l-2 7h-2l-2-7v7z"/><path d="M384-1902a8 8 0 0 0-8-8h-8v24h4v-8h4a8 8 0 0 0 8-8zm-4 0a4 4 0 0 1-4 4h-4v-8h4a4 4 0 0 1 4 4z"/><path d="M348-1886h4v-8h4l4 8h4l-3.703-9.258A8 8 0 0 0 364-1902a8 8 0 0 0-8-8h-8v8zm4-12v-8h4a4 4 0 0 1 4 4 4 4 0 0 1-4 4z"/><path d="M388-1886v-24h4l6 16 6-16h4v24h-4v-14l-4 14h-4l-4-14v14z"/><path d="M608-1985a16 16 0 0 0-16-16h-16v48h8v-16h8a16 16 0 0 0 16-16zm-8 0a8 8 0 0 1-8 8h-8v-16h8a8 8 0 0 1 8 8z"/><path d="M536-1953h8v-16h8l8 16h8l-7.406-18.516A16 16 0 0 0 568-1985a16 16 0 0 0-16-16h-16v16zm8-24v-16h8a8 8 0 0 1 8 8 8 8 0 0 1-8 8z"/><path d="M616-1953v-48h8l12 32 12-32h8v48h-8v-28l-8 28h-8l-8-28v28z"/></g><g fill="#635749" transform="translate(-464 3572)"><use id="o" transform="translate(0 -300)" width="100%" height="100%" xlink:href="#n"/><path d="M109-2133h1v-2h2v2h1v-4a2 2 0 0 0-2-2 2 2 0 0 0-2 2zm1-3v-1a1 1 0 0 1 1-1 1 1 0 0 1 1 1v1z"/><path d="M118-2137a2 2 0 0 0-2-2h-2v6h1v-2h1a2 2 0 0 0 2-2zm-1 0a1 1 0 0 1-1 1h-1v-2h1a1 1 0 0 1 1 1z"/><path d="M119-2139v6h1v-3l.082-.082L122-2133h1l-2.305-3.695L123-2139h-1.11l-1.89 1.89v-1.89z"/><path d="M61-2127h1v-2h2v2h1v-4a2 2 0 0 0-2-2 2 2 0 0 0-2 2zm1-3v-1a1 1 0 0 1 1-1 1 1 0 0 1 1 1v1z"/><path d="M70-2131a2 2 0 0 0-2-2h-2v6h1v-2h1a2 2 0 0 0 2-2zm-1 0a1 1 0 0 1-1 1h-1v-2h1a1 1 0 0 1 1 1z"/><path d="M71-2133v6h1v-3l.082-.082L74-2127h1l-2.305-3.695L75-2133h-1.11l-1.89 1.89v-1.89z"/><path d="M243-2150h2v-4h4v4h2v-8a4 4 0 0 0-4-4 4 4 0 0 0-4 4zm2-6v-2a2 2 0 0 1 2-2 2 2 0 0 1 2 2v2z"/><path d="M261-2158a4 4 0 0 0-4-4h-4v12h2v-4h2a4 4 0 0 0 4-4zm-2 0a2 2 0 0 1-2 2h-2v-4h2a2 2 0 0 1 2 2z"/><path d="M263-2162v12h2v-6l.164-.164L269-2150h2l-4.61-7.39L271-2162h-2.219l-3.781 3.781V-2162z"/><path d="M166-2140h2v-4h4v4h2v-8a4 4 0 0 0-4-4 4 4 0 0 0-4 4zm2-6v-2a2 2 0 0 1 2-2 2 2 0 0 1 2 2v2z"/><path d="M184-2148a4 4 0 0 0-4-4h-4v12h2v-4h2a4 4 0 0 0 4-4zm-2 0a2 2 0 0 1-2 2h-2v-4h2a2 2 0 0 1 2 2z"/><path d="M186-2152v12h2v-6l.164-.164L192-2140h2l-4.61-7.39L194-2152h-2.219l-3.781 3.781V-2152z"/><path d="M350-2186h4v-8h8v8h4v-16a8 8 0 0 0-8-8 8 8 0 0 0-8 8zm4-12v-4a4 4 0 0 1 4-4 4 4 0 0 1 4 4v4z"/><path d="M386-2202a8 8 0 0 0-8-8h-8v24h4v-8h4a8 8 0 0 0 8-8zm-4 0a4 4 0 0 1-4 4h-4v-8h4a4 4 0 0 1 4 4z"/><path d="M390-2210v24h4v-12l.328-.328L402-2186h4l-9.219-14.781L406-2210h-4.438l-7.562 7.562V-2210z"/><path d="M540-2253h8v-16h16v16h8v-32a16 16 0 0 0-16-16 16 16 0 0 0-16 16zm8-24v-8a8 8 0 0 1 8-8 8 8 0 0 1 8 8v8z"/><path d="M612-2285a16 16 0 0 0-16-16h-16v48h8v-16h8a16 16 0 0 0 16-16zm-8 0a8 8 0 0 1-8 8h-8v-16h8a8 8 0 0 1 8 8z"/><path d="M620-2301v48h8v-24l.656-.656L644-2253h8l-18.438-29.562L652-2301h-8.875L628-2285.875V-2301z"/></g><g fill="#635749" transform="translate(-464 3572)"><use id="q" transform="translate(0 -300)" width="100%" height="100%" xlink:href="#o"/><use id="r" transform="translate(0 -1200)" width="100%" height="100%" xlink:href="#p"/><path d="M112-2432h1v-2h2v2h1v-4a2 2 0 0 0-2-2 2 2 0 0 0-2 2zm1-3v-1a1 1 0 0 1 1-1 1 1 0 0 1 1 1v1z"/><path d="M124-2438c-1.108 0-2 .892-2 2v2c0 1.108.892 2 2 2s2-.892 2-2h-1c0 .554-.446 1-1 1s-1-.446-1-1v-2c0-.554.446-1 1-1s1 .446 1 1h1c0-1.108-.892-2-2-2z"/><path d="M117-2432h1v-2h1l1 2h1l-.926-2.314A2 2 0 0 0 121-2436a2 2 0 0 0-2-2h-2v2zm1-3v-2h1a1 1 0 0 1 1 1 1 1 0 0 1-1 1z"/><path d="M61-2427h1v-2h2v2h1v-4a2 2 0 0 0-2-2 2 2 0 0 0-2 2zm1-3v-1a1 1 0 0 1 1-1 1 1 0 0 1 1 1v1z"/><path d="M73-2433c-1.108 0-2 .892-2 2v2c0 1.108.892 2 2 2s2-.892 2-2h-1c0 .554-.446 1-1 1s-1-.446-1-1v-2c0-.554.446-1 1-1s1 .446 1 1h1c0-1.108-.892-2-2-2z"/><path d="M66-2427h1v-2h1l1 2h1l-.926-2.314A2 2 0 0 0 70-2431a2 2 0 0 0-2-2h-2v2zm1-3v-2h1a1 1 0 0 1 1 1 1 1 0 0 1-1 1z"/><path d="M19-2422.5h1v-2h1v2h1v-4c0-1.105-.395-2-1.5-2s-1.5.895-1.5 2zm1-3v-1c0-.552-.052-1 .5-1s.5.448.5 1v1z"/><path d="M28.5-2428.5c-1.108 0-1.5.892-1.5 2v2c0 1.108.392 2 1.5 2s1.5-.892 1.5-2h-1c0 .554.054 1-.5 1s-.5-.446-.5-1v-2c0-.554-.054-1 .5-1s.5.446.5 1h1c0-1.108-.392-2-1.5-2z"/><path d="M250-2450h2v-4h4v4h2v-8a4 4 0 0 0-4-4 4 4 0 0 0-4 4zm2-6v-2a2 2 0 0 1 2-2 2 2 0 0 1 2 2v2z"/><path d="M274-2462c-2.216 0-4 1.784-4 4v4c0 2.216 1.784 4 4 4s4-1.784 4-4h-2c0 1.108-.892 2-2 2s-2-.892-2-2v-4c0-1.108.892-2 2-2s2 .892 2 2h2c0-2.216-1.784-4-4-4z"/><path d="M260-2450h2v-4h2l2 4h2l-1.852-4.629A4 4 0 0 0 268-2458a4 4 0 0 0-4-4h-4v4zm2-6v-4h2a2 2 0 0 1 2 2 2 2 0 0 1-2 2z"/><path d="M174-2440h2v-4h3v4h2v-8c0-2.21-1.29-4-3.5-4s-3.5 1.79-3.5 4zm2-6v-2c0-1.105.395-2 1.5-2s1.5.895 1.5 2v2z"/><path d="M193.5-2452c-2.216 0-3.5 1.784-3.5 4v4c0 2.216 1.284 4 3.5 4s3.5-1.784 3.5-4h-2c0 1.108-.392 2-1.5 2s-1.5-.892-1.5-2v-4c0-1.108.392-2 1.5-2s1.5.892 1.5 2h2c0-2.216-1.284-4-3.5-4z"/><path d="M182-2440h2v-4h1l2 4h2l-1.852-4.629A4 4 0 0 0 189-2448a4 4 0 0 0-4-4h-3v4zm2-6v-4h1a2 2 0 1 1 0 4z"/><path d="M364-2486h4v-8h8v8h4v-16a8 8 0 0 0-8-8 8 8 0 0 0-8 8zm4-12v-4a4 4 0 0 1 4-4 4 4 0 0 1 4 4v4z"/><path d="M412-2510c-4.432 0-8 3.568-8 8v8c0 4.432 3.568 8 8 8s8-3.568 8-8h-4c0 2.216-1.784 4-4 4s-4-1.784-4-4v-8c0-2.216 1.784-4 4-4s4 1.784 4 4h4c0-4.432-3.568-8-8-8z"/><path d="M384-2486h4v-8h4l4 8h4l-3.703-9.258A8 8 0 0 0 400-2502a8 8 0 0 0-8-8h-8v8zm4-12v-8h4a4 4 0 0 1 4 4 4 4 0 0 1-4 4z"/><path d="M568-2553h8v-16h16v16h8v-32a16 16 0 0 0-16-16 16 16 0 0 0-16 16zm8-24v-8a8 8 0 0 1 8-8 8 8 0 0 1 8 8v8z"/><path d="M664-2601c-8.864 0-16 7.136-16 16v16c0 8.864 7.136 16 16 16s16-7.136 16-16h-8c0 4.432-3.568 8-8 8s-8-3.568-8-8v-16c0-4.432 3.568-8 8-8s8 3.568 8 8h8c0-8.864-7.136-16-16-16z"/><path d="M608-2553h8v-16h8l8 16h8l-7.406-18.516A16 16 0 0 0 640-2585a16 16 0 0 0-16-16h-16v16zm8-24v-16h8a8 8 0 0 1 8 8 8 8 0 0 1-8 8z"/><path d="M23-2422.5h1v-2l1 2h1l-.926-2.314A2 2 0 0 0 24-2428.5h-1v2zm1-4v-1a1 1 0 1 1 0 2z"/><path d="M23-2122h1v-2c.5 0 .76-.151 1.074-.315A2 2 0 0 0 24-2128h-1v2zm1-4v-1a1 1 0 1 1 0 2z"/><path d="M27-2128v6h1v-3l.082-.082L29-2122h1l-1.305-3.695L30-2128h-1.11l-.89 1.89v-1.89z"/><path d="M23-1822h1v-2c.5 0 .76-.151 1.074-.315A2 2 0 0 0 24-1828h-1v2zm1-4v-1a1 1 0 1 1 0 2z"/><path d="M19-1822h1v-2l1 2h1l-.926-2.314A2 2 0 0 0 20-1828h-1v2zm1-4v-1a1 1 0 1 1 0 2z"/></g><g fill="#635749" transform="translate(-464 3572)"><use id="s" transform="translate(0 -300)" width="100%" height="100%" xlink:href="#q"/><use id="t" transform="translate(0 -300)" width="100%" height="100%" xlink:href="#r"/><path d="M66-2727h1v-2h2v2h1v-4a2 2 0 0 0-2-2 2 2 0 0 0-2 2zm1-3v-1a1 1 0 0 1 1-1 1 1 0 0 1 1 1v1z"/><path d="M71-2727h1v-2h1l1 2h1l-.926-2.314A2 2 0 0 0 75-2731a2 2 0 0 0-2-2h-2v2zm1-3v-2h1a1 1 0 0 1 1 1 1 1 0 0 1-1 1z"/><path d="m66-2733-3 6h-1l3-6z"/><path d="m62-2733 3 6h1l-3-6z"/><path d="m23-2728-3 6h-1l3-6z"/><path d="m19-2728 3 6h1l-3-6z"/><path d="M117-2733h1v-2h2v2h1v-4a2 2 0 0 0-2-2 2 2 0 0 0-2 2zm1-3v-1a1 1 0 0 1 1-1 1 1 0 0 1 1 1v1z"/><path d="M122-2733h1v-2h1l1 2h1l-.926-2.314A2 2 0 0 0 126-2737a2 2 0 0 0-2-2h-2v2zm1-3v-2h1a1 1 0 0 1 1 1 1 1 0 0 1-1 1z"/><path d="m117-2739-3 6h-1l3-6z"/><path d="m113-2739 3 6h1l-3-6z"/><path d="M260-2749h2v-4h4v4h2v-8a4 4 0 0 0-4-4 4 4 0 0 0-4 4zm2-6v-2a2 2 0 0 1 2-2 2 2 0 0 1 2 2v2z"/><path d="M269-2749h2v-4h2l2 4h2l-1.852-4.629A4 4 0 0 0 277-2757a4 4 0 0 0-4-4h-4v4zm2-6v-4h2a2 2 0 0 1 2 2 2 2 0 0 1-2 2z"/><path d="m259-2761-6 12h-2l6-12z"/><path d="m251-2761 6 12h2l-6-12z"/><path d="M181-2739h2v-4h3v4h2v-8c0-2.21-1.29-4-3.5-4s-3.5 1.79-3.5 4zm2-6v-2c0-1.105.395-2 1.5-2s1.524.896 1.5 2v2z"/><path d="M190-2739h2v-4h1l2 4h2l-1.852-4.629A4 4 0 0 0 197-2747a4 4 0 0 0-4-4h-3v4zm2-6v-4h1a2 2 0 1 1 0 4z"/><path d="m180-2751-4 12h-2l4-12z"/><path d="m174-2751 4 12h2l-4-12z"/><path d="M383-2786h4v-8h8v8h4v-16a8 8 0 0 0-8-8 8 8 0 0 0-8 8zm4-12v-4a4 4 0 0 1 4-4 4 4 0 0 1 4 4v4z"/><path d="M402-2786h4v-8h4l4 8h4l-3.703-9.258A8 8 0 0 0 418-2802a8 8 0 0 0-8-8h-8v8zm4-12v-8h4a4 4 0 0 1 4 4 4 4 0 0 1-4 4z"/><path d="m382-2810-12 24h-4l12-24z"/><path d="m366-2810 12 24h4l-12-24z"/><path d="M607.04-2853h8v-16h16v16h8v-32a16 16 0 0 0-16-16 16 16 0 0 0-16 16zm8-24v-8a8 8 0 0 1 8-8 8 8 0 0 1 8 8v8z"/><path d="M644-2853h8v-16h8l8 16h8l-7.406-18.516A16 16 0 0 0 676-2885a16 16 0 0 0-16-16h-16v16zm8-24v-16h8a8 8 0 0 1 8 8 8 8 0 0 1-8 8z"/><path d="m604-2901-24 48h-8l24-48z"/><path d="m572-2901 24 48h8l-24-48z"/><path d="M27-2722h1v-2l1 2h1l-.926-2.314A2 2 0 0 0 28-2728h-1v2zm1-4v-1a1 1 0 1 1 0 2z"/><path d="M23-2722h1v-2h1v2h1v-4c0-1.105-.395-2-1.5-2s-1.5.895-1.5 2zm1-3v-1c0-.552-.052-1 .5-1s.5.448.5 1v1z"/><path d="M19-2122h1v-2h1v2h1v-4c0-1.105-.395-2-1.5-2s-1.5.895-1.5 2zm1-3v-1c0-.552-.052-1 .5-1s.5.448.5 1v1z"/></g><g transform="translate(-464 3572)"><use transform="translate(0 -300)" width="100%" height="100%" xlink:href="#s"/><use transform="translate(0 -300)" width="100%" height="100%" xlink:href="#t"/><g fill="#635749"><path d="m68-3033-3 6h-1l3-6z"/><path d="m64-3033 3 6h1l-3-6z"/><path d="M69-3032h3l-3 4v1h4v-1h-3l3-4v-1h-4z"/></g><g fill="#635749"><path d="m24-3028-3 6h-1l3-6z"/><path d="m20-3028 3 6h1l-3-6z"/><path d="M25-3027h3l-3 4v1h4v-1h-3l3-4v-1h-4z"/></g><g fill="#635749"><path d="m118.5-3038.5-3 6h-1l3-6z"/><path d="m114.5-3038.5 3 6h1l-3-6z"/><path d="M119.5-3037.5h3l-3 4v1h4v-1h-3l3-4v-1h-4z"/></g><g fill="#635749"><path d="m263-3062-6 12h-2l6-12z"/><path d="m255-3062 6 12h2l-6-12z"/><path d="M265-3060h6l-6 8v2h8v-2h-6l6-8v-2h-8z"/></g><g fill="#635749"><path d="m185-3052-6 12h-2l6-12z"/><path d="m177-3052 6 12h2l-6-12z"/><path d="M187-3050h6l-6 8v2h8v-2h-6l6-8v-2h-8z"/></g><g fill="#635749"><path d="m390-3110-12 24h-4l12-24z"/><path d="m374-3110 12 24h4l-12-24z"/><path d="M394-3106h12l-12 16v4h16v-4h-12l12-16v-4h-16z"/></g><g fill="#635749"><path d="m620-3201-24 48h-8l24-48z"/><path d="m588-3201 24 48h8l-24-48z"/><path d="M628-3193h24l-24 32v8h32v-8h-24l24-32v-8h-32z"/></g></g><g transform="translate(-464 3572)"><use transform="translate(0 -600)" width="100%" height="100%" xlink:href="#s"/><g fill="#635749"><path d="M113-3333h1v-2h2v2h1v-4a2 2 0 0 0-2-2 2 2 0 0 0-2 2zm1-3v-1a1 1 0 0 1 1-1 1 1 0 0 1 1 1v1z"/><path d="M118-3333h1v-2h1l1 2h1l-.926-2.314A2 2 0 0 0 122-3337a2 2 0 0 0-2-2h-2v2zm1-3v-2h1a1 1 0 0 1 1 1 1 1 0 0 1-1 1z"/><path d="M110-3339v1h1v5h1v-5h1v-1z"/></g><g fill="#635749"><path d="M65-3327h1v-2h2v2h1v-4a2 2 0 0 0-2-2 2 2 0 0 0-2 2zm1-3v-1a1 1 0 0 1 1-1 1 1 0 0 1 1 1v1z"/><path d="M70-3327h1v-2h1l1 2h1l-.926-2.314A2 2 0 0 0 74-3331a2 2 0 0 0-2-2h-2v2zm1-3v-2h1a1 1 0 0 1 1 1 1 1 0 0 1-1 1z"/><path d="M62-3333v1h1v5h1v-5h1v-1z"/></g><g fill="#635749"><path d="M22-3322h1v-2h2v2h1v-4a2 2 0 0 0-2-2 2 2 0 0 0-2 2zm1-3v-1a1 1 0 0 1 1-1 1 1 0 0 1 1 1v1z"/><path d="M27-3322h1v-2l1 2h1l-.926-2.314A2 2 0 0 0 28-3328h-1v2zm1-4v-1a1 1 0 1 1 0 2z"/><path d="M19-3328v1h1v5h1v-5h1v-1z"/></g><g fill="#635749"><path d="M252-3350h2v-4h4v4h2v-8a4 4 0 0 0-4-4 4 4 0 0 0-4 4zm2-6v-2a2 2 0 0 1 2-2 2 2 0 0 1 2 2v2z"/><path d="M262-3350h2v-4h2l2 4h2l-1.852-4.629A4 4 0 0 0 270-3358a4 4 0 0 0-4-4h-4v4zm2-6v-4h2a2 2 0 0 1 2 2 2 2 0 0 1-2 2z"/><path d="M245-3362v2h2v10h2v-10h2v-2z"/></g><g fill="#635749"><path d="M175-3340h2v-4h4v4h2v-8a4 4 0 0 0-4-4 4 4 0 0 0-4 4zm2-6v-2a2 2 0 0 1 2-2 2 2 0 0 1 2 2v2z"/><path d="M185-3340h2v-4h2l2 4h2l-1.852-4.629A4 4 0 0 0 193-3348a4 4 0 0 0-4-4h-4v4zm2-6v-4h2a2 2 0 0 1 2 2 2 2 0 0 1-2 2z"/><path d="M168-3352v2h2v10h2v-10h2v-2z"/></g><g fill="#635749"><path d="M368-3386h4v-8h8v8h4v-16a8 8 0 0 0-8-8 8 8 0 0 0-8 8zm4-12v-4a4 4 0 0 1 4-4 4 4 0 0 1 4 4v4z"/><path d="M388-3386h4v-8h4l4 8h4l-3.703-9.258A8 8 0 0 0 404-3402a8 8 0 0 0-8-8h-8v8zm4-12v-8h4a4 4 0 0 1 4 4 4 4 0 0 1-4 4z"/><path d="M355-3410v4h4v20h4v-20h4v-4z"/></g><g fill="#635749"><path d="M576-3453h8v-16h16v16h8v-32a16 16 0 0 0-16-16 16 16 0 0 0-16 16zm8-24v-8a8 8 0 0 1 8-8 8 8 0 0 1 8 8v8z"/><path d="M616-3453h8v-16h8l8 16h8l-7.406-18.516A16 16 0 0 0 648-3485a16 16 0 0 0-16-16h-16v16zm8-24v-16h8a8 8 0 0 1 8 8 8 8 0 0 1-8 8z"/><path d="M548.96-3501v8h8v40h8v-40h8v-8z"/></g></g></svg>