<svg version="1.0" viewBox="0 0 256 256" xmlns="http://www.w3.org/2000/svg"><g transform="translate(-464 2372)"><rect x="488" y="-2348" width="216" height="208" ry="8" fill="#a19282"/><rect x="489" y="-2347" width="214" height="140" ry="8" fill="#d7c3ad"/><path d="M548-2170h96m40-32-40 32 40 24m-176-56 40 32-40 24" fill="none" stroke="#000" stroke-opacity=".251" stroke-width="2"/><g fill="#635749"><path d="M540-2253h8v-16h16v16h8v-32a16 16 0 0 0-16-16 16 16 0 0 0-16 16zm8-24v-8a8 8 0 0 1 8-8 8 8 0 0 1 8 8v8z"/><path d="M612-2285a16 16 0 0 0-16-16h-16v48h8v-16h8a16 16 0 0 0 16-16zm-8 0a8 8 0 0 1-8 8h-8v-16h8a8 8 0 0 1 8 8z"/><path d="M620-2301v48h8v-24l.656-.656L644-2253h8l-18.438-29.562L652-2301h-8.875L628-2285.875V-2301z"/></g></g></svg>