<svg version="1.0" viewBox="0 0 256 256" xmlns="http://www.w3.org/2000/svg"><defs><linearGradient id="a" x1="60" x2="68" y1="268" y2="268" gradientTransform="translate(478.5 -5895)" gradientUnits="userSpaceOnUse"><stop stop-color="#949390" offset="0"/><stop stop-color="#d5d3cf" offset=".083"/><stop stop-color="#949390" offset=".167"/><stop stop-color="#949390" offset=".833"/><stop stop-color="#d5d3cf" offset=".917"/><stop stop-color="#949390" offset="1"/></linearGradient></defs><g transform="translate(-464 2672)"><rect x="488" y="-2648" width="216" height="208" ry="8" fill="#a19282"/><rect x="489" y="-2647" width="214" height="140" ry="8" fill="#d7c3ad"/><path d="M548-2470h96m40-32-40 32 40 24m-176-56 40 32-40 24" fill="none" stroke="#000" stroke-opacity=".251" stroke-width="2"/><g transform="translate(0 3000)"><path fill-opacity=".251" d="M538.5-5647h4v64h-4z"/><path fill="#fff" fill-opacity=".251" d="M542.5-5647h4v64h-4z"/><rect x="538.5" y="-5647" width="4" height="4" ry="0" fill-opacity=".502"/><path fill-opacity=".502" d="M538.5-5639h4v4h-4z"/><path fill-opacity=".502" d="M538.5-5631h4v4h-4z"/><path fill-opacity=".502" d="M538.5-5623h4v4h-4z"/><path fill-opacity=".502" d="M538.5-5615h4v4h-4z"/><path fill-opacity=".502" d="M538.5-5607h4v4h-4z"/><path fill-opacity=".502" d="M538.5-5599h4v4h-4z"/><rect x="538.5" y="-5643" width="4" height="4" ry="0" fill="#fdfdfd" fill-opacity=".502"/><path fill="#fdfdfd" fill-opacity=".502" d="M538.5-5635h4v4h-4z"/><path fill="#fdfdfd" fill-opacity=".502" d="M538.5-5627h4v4h-4z"/><path fill="#fdfdfd" fill-opacity=".502" d="M538.5-5619h4v4h-4z"/><path fill="#fdfdfd" fill-opacity=".502" d="M538.5-5611h4v4h-4z"/><path fill="#fdfdfd" fill-opacity=".502" d="M538.5-5603h4v4h-4z"/><rect x="542.5" y="-5647" width="4" height="4" ry="0" fill="#f4f4f4" fill-opacity=".502"/><path fill="#f4f4f4" fill-opacity=".502" d="M542.5-5639h4v4h-4z"/><path fill="#f4f4f4" fill-opacity=".502" d="M542.5-5631h4v4h-4z"/><path fill="#f4f4f4" fill-opacity=".502" d="M542.5-5623h4v4h-4z"/><path fill="#f4f4f4" fill-opacity=".502" d="M542.5-5615h4v4h-4z"/><path fill="#f4f4f4" fill-opacity=".502" d="M542.5-5607h4v4h-4z"/><path fill="#f4f4f4" fill-opacity=".502" d="M542.5-5599h4v4h-4z"/><rect x="542.5" y="-5643" width="4" height="4" ry="0" fill="#131313" fill-opacity=".502"/><path fill="#131313" fill-opacity=".502" d="M542.5-5635h4v4h-4z"/><path fill="#131313" fill-opacity=".502" d="M542.5-5627h4v4h-4z"/><path fill="#131313" fill-opacity=".502" d="M542.5-5619h4v4h-4z"/><path fill="#131313" fill-opacity=".502" d="M542.5-5611h4v4h-4z"/><path fill="#131313" fill-opacity=".502" d="M542.5-5603h4v4h-4z"/><rect x="538.5" y="-5591" width="4" height="4" ry="0" fill-opacity=".502"/><rect x="538.5" y="-5595" width="4" height="4" ry="0" fill="#fdfdfd" fill-opacity=".502"/><path fill="#fdfdfd" fill-opacity=".502" d="M538.5-5587h4v4h-4z"/><rect x="542.5" y="-5591" width="4" height="4" ry="0" fill="#f4f4f4" fill-opacity=".502"/><rect x="542.5" y="-5595" width="4" height="4" ry="0" fill="#131313" fill-opacity=".502"/><path fill="#131313" fill-opacity=".502" d="M542.5-5587h4v4h-4z"/><path fill-opacity=".251" d="M538.5-5583h4v67h-4z"/><path fill="#fff" fill-opacity=".251" d="M542.5-5583h4v67h-4z"/><rect x="538.5" y="-5583" width="4" height="4" ry="0" fill-opacity=".502"/><path fill-opacity=".502" d="M538.5-5575h4v4h-4z"/><path fill-opacity=".502" d="M538.5-5567h4v4h-4z"/><path fill-opacity=".502" d="M538.5-5559h4v4h-4z"/><path fill-opacity=".502" d="M538.5-5551h4v4h-4z"/><path fill-opacity=".502" d="M538.5-5543h4v4h-4z"/><path fill-opacity=".502" d="M538.5-5535h4v4h-4z"/><rect x="538.5" y="-5579" width="4" height="4" ry="0" fill="#fdfdfd" fill-opacity=".502"/><path fill="#fdfdfd" fill-opacity=".502" d="M538.5-5571h4v4h-4z"/><path fill="#fdfdfd" fill-opacity=".502" d="M538.5-5563h4v4h-4z"/><path fill="#fdfdfd" fill-opacity=".502" d="M538.5-5555h4v4h-4z"/><path fill="#fdfdfd" fill-opacity=".502" d="M538.5-5547h4v4h-4z"/><path fill="#fdfdfd" fill-opacity=".502" d="M538.5-5539h4v4h-4z"/><rect x="542.5" y="-5583" width="4" height="4" ry="0" fill="#f4f4f4" fill-opacity=".502"/><path fill="#f4f4f4" fill-opacity=".502" d="M542.5-5575h4v4h-4z"/><path fill="#f4f4f4" fill-opacity=".502" d="M542.5-5567h4v4h-4z"/><path fill="#f4f4f4" fill-opacity=".502" d="M542.5-5559h4v4h-4z"/><path fill="#f4f4f4" fill-opacity=".502" d="M542.5-5551h4v4h-4z"/><path fill="#f4f4f4" fill-opacity=".502" d="M542.5-5543h4v4h-4z"/><path fill="#f4f4f4" fill-opacity=".502" d="M542.5-5535h4v4h-4z"/><rect x="542.5" y="-5579" width="4" height="4" ry="0" fill="#131313" fill-opacity=".502"/><path fill="#131313" fill-opacity=".502" d="M542.5-5571h4v4h-4z"/><path fill="#131313" fill-opacity=".502" d="M542.5-5563h4v4h-4z"/><path fill="#131313" fill-opacity=".502" d="M542.5-5555h4v4h-4z"/><path fill="#131313" fill-opacity=".502" d="M542.5-5547h4v4h-4z"/><path fill="#131313" fill-opacity=".502" d="M542.5-5539h4v4h-4z"/><rect x="538.5" y="-5527" width="4" height="4" ry="0" fill-opacity=".502"/><path fill-opacity=".502" d="M538.5-5519h4v3h-4z"/><rect x="538.5" y="-5531" width="4" height="4" ry="0" fill="#fdfdfd" fill-opacity=".502"/><path fill="#fdfdfd" fill-opacity=".502" d="M538.5-5523h4v4h-4z"/><rect x="542.5" y="-5527" width="4" height="4" ry="0" fill="#f4f4f4" fill-opacity=".502"/><path fill="#f4f4f4" fill-opacity=".502" d="M542.5-5519h4v3h-4z"/><rect x="542.5" y="-5531" width="4" height="4" ry="0" fill="#131313" fill-opacity=".502"/><path fill="#131313" fill-opacity=".502" d="M542.5-5523h4v4h-4z"/><path fill-opacity=".251" d="M538.5-5516h4v9h-4z"/><path fill="#fff" fill-opacity=".251" d="M542.5-5516h4v9h-4z"/><rect transform="scale(-1)" x="-542.5" y="5507" width="4" height="4" ry="0" fill-opacity=".502"/><path fill-opacity=".502" d="M542.5-5515h-4v-1h4z"/><rect x="538.5" y="-5515" width="4" height="4" ry="0" fill="#fdfdfd" fill-opacity=".502"/><rect transform="scale(1 -1)" x="542.5" y="5507" width="4" height="4" ry="0" fill="#f4f4f4" fill-opacity=".502"/><path fill="#f4f4f4" fill-opacity=".502" d="M542.5-5515h4v-1h-4z"/><rect x="542.5" y="-5515" width="4" height="4" ry="0" fill="#131313" fill-opacity=".502"/><path d="M540.5-5637c-1.108 0-2 .892-2 2v16c0 1.108.892 2 2 2h4c1.108 0 2-.892 2-2v-16c0-1.108-.892-2-2-2zm0 14h4v4h-4z" fill="url(#a)"/><rect x="534.5" y="-5645" width="16" height="18" rx="4" ry="4" fill="#3d3846"/><rect x="534.5" y="-5647" width="16" height="18" rx="4" ry="4" fill="#5e5c64"/><path d="M540.5-5641c-1.108 0-2 .892-2 2v18c0 1.108.892 2 2 2h4c1.108 0 2-.892 2-2v-18c0-1.108-.892-2-2-2zm0 16h4v4h-4z" fill="#fff"/><rect transform="scale(1 -1)" x="540.5" y="5635" width="4" height="10" rx="2" ry="2" fill="#68676b" style="paint-order:normal"/><rect transform="scale(1 -1)" x="540.5" y="5637" width="4" height="8" rx="2" ry="2" fill="#949390" style="paint-order:normal"/></g><g fill="#635749"><path d="M568-2553h8v-16h16v16h8v-32a16 16 0 0 0-16-16 16 16 0 0 0-16 16zm8-24v-8a8 8 0 0 1 8-8 8 8 0 0 1 8 8v8z"/><path d="M664-2601c-8.864 0-16 7.136-16 16v16c0 8.864 7.136 16 16 16s16-7.136 16-16h-8c0 4.432-3.568 8-8 8s-8-3.568-8-8v-16c0-4.432 3.568-8 8-8s8 3.568 8 8h8c0-8.864-7.136-16-16-16z"/><path d="M608-2553h8v-16h8l8 16h8l-7.406-18.516A16 16 0 0 0 640-2585a16 16 0 0 0-16-16h-16v16zm8-24v-16h8a8 8 0 0 1 8 8 8 8 0 0 1-8 8z"/></g></g></svg>