<svg version="1.0" viewBox="0 0 256 256" xmlns="http://www.w3.org/2000/svg"><g transform="translate(-464 2072)"><rect x="488" y="-2048" width="216" height="208" ry="8" fill="#a19282"/><rect x="489" y="-2047" width="214" height="140" ry="8" fill="#d7c3ad"/><path d="M548-1870h96m40-32-40 32 40 24m-176-56 40 32-40 24" fill="none" stroke="#000" stroke-opacity=".251" stroke-width="2"/><g fill="#635749"><path d="M608-1985a16 16 0 0 0-16-16h-16v48h8v-16h8a16 16 0 0 0 16-16zm-8 0a8 8 0 0 1-8 8h-8v-16h8a8 8 0 0 1 8 8z"/><path d="M536-1953h8v-16h8l8 16h8l-7.406-18.516A16 16 0 0 0 568-1985a16 16 0 0 0-16-16h-16v16zm8-24v-16h8a8 8 0 0 1 8 8 8 8 0 0 1-8 8z"/><path d="M616-1953v-48h8l12 32 12-32h8v48h-8v-28l-8 28h-8l-8-28v28z"/></g></g></svg>