<svg version="1.0" viewBox="0 0 256 256" xmlns="http://www.w3.org/2000/svg"><g transform="translate(-464 1772)"><rect x="488" y="-1748" width="216" height="208" ry="8" fill="#a19282"/><rect x="489" y="-1747" width="214" height="140" ry="8" fill="#d7c3ad"/><path d="M548-1570h96m40-32-40 32 40 24m-176-56 40 32-40 24" fill="none" stroke="#000" stroke-opacity=".251" stroke-width="2"/><g transform="matrix(8 0 0 8 -336 10583)" fill="#635749"><path d="M108-1536v7h2.5c1.385 0 2.5-1.115 2.5-2.5v-2c0-1.385-1.115-2.5-2.5-2.5h-2zm1 1h1.5c.831 0 1.5.669 1.5 1.5v2c0 .831-.669 1.5-1.5 1.5H109z"/><rect x="114" y="-1536" width="5" height="1" ry="0"/><path d="M114-1535.5h1v6.5h-1z"/><path d="M114.5-1530h4.5v1h-4.5z"/><path d="M114.5-1533h3.5v1h-3.5z"/><path d="M120-1536h1v7h-1z"/><path d="M121-1533v1h2a1 1 0 0 1 1 1 1 1 0 0 1-1 1h-2v1h2a2 2 0 0 0 2-2 2 2 0 0 0-2-2z"/><path d="M120-1536v1h2a1 1 0 0 1 1 1 1 1 0 0 1-1 1h-2v1h2a2 2 0 0 0 2-2 2 2 0 0 0-2-2z"/></g></g></svg>