<svg version="1.0" viewBox="0 0 256 256" xmlns="http://www.w3.org/2000/svg"><path d="M47.5 15a8.481 8.481 0 0 0-8.5 8.5v214c0 4.709 3.791 8.5 8.5 8.5h161c4.709 0 8.5-3.791 8.5-8.5V79.06l-64.447-64.055z" fill="#6f6f6f"/><path d="M216 80v152c0 4.432-3.568 8-8 8H48c-4.432 0-8-3.568-8-8V24c0-4.432 3.568-8 8-8h104" fill="#ececec"/><path d="M216 86h-57c-4.432 0-8-3.568-8-8V16h1l64 64z" fill="#6f6f6f" fill-opacity=".502"/><path d="M216 80h-56c-4.432 0-8-3.568-8-8V16" fill="#fafafa"/><path d="M96 36a8 8 0 0 0-8 8v24.75c-1.266-.454-2.578-.75-4-.75-6.627 0-12 5.372-12 12 0 6.627 5.373 12 12 12s12-5.373 12-12V52h24v16.75c-1.266-.454-2.578-.75-4-.75-6.627 0-12 5.372-12 12 0 6.627 5.373 12 12 12s12-5.373 12-12V44a8 8 0 0 0-8-8z" fill="#474341" fill-opacity=".69"/><path fill="#474341" fill-opacity=".69" d="M100 132h88v16h-88z"/><path fill="#474341" fill-opacity=".69" d="M100 164h88v16h-88z"/><path fill="#474341" fill-opacity=".69" d="M100 196h88v16h-88z"/><path fill="#474341" fill-opacity=".69" d="M68 132h16v16H68z"/><path fill="#474341" fill-opacity=".69" d="M68 164h16v16H68z"/><path fill="#474341" fill-opacity=".69" d="M68 196h16v16H68z"/></svg>