<svg version="1.0" viewBox="0 0 256 256" xmlns="http://www.w3.org/2000/svg"><path d="M47.5 15a8.481 8.481 0 0 0-8.5 8.5v214c0 4.709 3.791 8.5 8.5 8.5h161c4.709 0 8.5-3.791 8.5-8.5V79.06l-64.447-64.055z" fill="#6f6f6f"/><path d="M216 80v152c0 4.432-3.568 8-8 8H48c-4.432 0-8-3.568-8-8V24c0-4.432 3.568-8 8-8h104" fill="#ececec"/><path d="M216 86h-57c-4.432 0-8-3.568-8-8V16h1l64 64z" fill="#6f6f6f" fill-opacity=".502"/><path d="M216 80h-56c-4.432 0-8-3.568-8-8V16" fill="#fafafa"/><path d="M145.41 182.1s4.604 1.389 7.28 2.742c.928.472 2.533 1.408 3.692 2.638a9.976 9.976 0 0 1 1.688 2.426l16.769 26.072h-39.124l-7.566-19.768s-2.808-4.825-4.536-6.224c-1.442-1.168-2.056-1.583-3.482-1.583h-6.968v27.56H81.157l.01-88h51.442c5.998 0 36.446 2.947 36.446 25.53 0 22.584-23.646 28.594-23.646 28.594zm-32.243-38.122v23.994h12.685s9.62 0 10.354-11.74c.766-12.251-10.361-12.241-10.361-12.241z" fill="#3f51b5" fill-rule="evenodd"/></svg>