<svg version="1.0" viewBox="0 0 256 256" xmlns="http://www.w3.org/2000/svg"><path d="M47.5 15a8.481 8.481 0 0 0-8.5 8.5v214c0 4.709 3.791 8.5 8.5 8.5h161c4.709 0 8.5-3.791 8.5-8.5V79.05l-64.447-64.055z" fill="#6f6f6f"/><path d="M216 80v152c0 4.432-3.568 8-8 8H48c-4.432 0-8-3.568-8-8V24c0-4.432 3.568-8 8-8h104" fill="#ececec"/><path d="M216 86h-57c-4.432 0-8-3.568-8-8V16h1l64 64z" fill="#6f6f6f" fill-opacity=".502"/><path d="M216 80h-56c-4.432 0-8-3.568-8-8V16" fill="#fafafa"/><g transform="matrix(4 0 0 4 -1379.55 3412.3)"><g color="#000"><path d="M375.68-825.05c-2.682 0-4.775 1.542-4.775 3.458v1.51h-1.575c-1.916 0-3.495 2.159-3.458 4.84l.033 2.384c.037 2.681 1.575 4.775 3.49 4.775h13.51v-13.509c0-1.916-2.16-3.458-4.842-3.458z" fill="#3776ab"/><path d="M378.06-803.05c2.682 0 4.841-1.542 4.841-3.458v-1.51h1.51c1.915 0 3.42-2.159 3.457-4.84l.033-2.384c.037-2.681-1.64-4.775-3.557-4.775h-1.443v3s.033 3-3 3h-6s-3 0-3 3v4.509c0 1.916 2.094 3.458 4.776 3.458z" fill="#ffd343"/></g><circle cx="373.9" cy="-822.05" r="1" fill="#fff"/><circle cx="379.9" cy="-806.05" r="1" fill="#fff"/></g></svg>