<svg version="1.0" viewBox="0 0 256 256" xmlns="http://www.w3.org/2000/svg" xmlns:xlink="http://www.w3.org/1999/xlink"><defs><linearGradient id="b" x1="500" x2="-.097" y1="579.11" y2="1079.2" gradientTransform="translate(.097 -578.99) scale(.9998)" gradientUnits="userSpaceOnUse" xlink:href="#a"/><linearGradient id="a" x1="500" x2="-.097" y1="579.11" y2="1079.2" gradientTransform="translate(.097 -578.99) scale(.9998)" gradientUnits="userSpaceOnUse"><stop stop-color="#E44857" offset=".003"/><stop stop-color="#C711E1" offset=".469"/><stop stop-color="#7F52FF" offset="1"/></linearGradient></defs><path d="M47.5 15a8.481 8.481 0 0 0-8.5 8.5v214c0 4.709 3.791 8.5 8.5 8.5h161c4.709 0 8.5-3.791 8.5-8.5V79.05l-64.447-64.055z" fill="#6f6f6f"/><path d="M216 80v152c0 4.432-3.568 8-8 8H48c-4.432 0-8-3.568-8-8V24c0-4.432 3.568-8 8-8h104" fill="#ececec"/><path d="M216 86h-57c-4.432 0-8-3.568-8-8V16h1l64 64z" fill="#6f6f6f" fill-opacity=".502"/><path d="M216 80h-56c-4.432 0-8-3.568-8-8V16" fill="#fafafa"/><path transform="matrix(.168 0 0 .168 88 116)" fill="url(#b)" style="fill:url(#a)" d="m250 250 250 250H0V0h500z"/></svg>