<svg version="1.0" viewBox="0 0 256 256" xmlns="http://www.w3.org/2000/svg"><g transform="translate(-464 572)"><path d="M511.5-557a8.481 8.481 0 0 0-8.5 8.5v214c0 4.709 3.791 8.5 8.5 8.5h161c4.709 0 8.5-3.791 8.5-8.5v-158.45l-64.447-64.055z" fill="#6f6f6f"/><path d="M680-492v152c0 4.432-3.568 8-8 8H512c-4.432 0-8-3.568-8-8v-208c0-4.432 3.568-8 8-8h104" fill="#ececec"/><path d="M680-486h-57c-4.432 0-8-3.568-8-8v-62h1l64 64z" fill="#6f6f6f" fill-opacity=".502"/><path d="M680-492h-56c-4.432 0-8-3.568-8-8v-56" fill="#fafafa"/><rect x="536" y="-372" width="72" height="8" ry="3.646" fill="#474341" fill-opacity=".69"/><rect x="536" y="-396" width="112" height="8" ry="3.646" fill="#474341" fill-opacity=".69"/><rect x="536" y="-420" width="112" height="8" ry="3.646" fill="#474341" fill-opacity=".69"/><rect x="536" y="-444" width="112" height="8" ry="3.646" fill="#474341" fill-opacity=".69"/></g></svg>