<svg version="1.0" viewBox="0 0 256 256" xmlns="http://www.w3.org/2000/svg"><path d="M47.5 15a8.481 8.481 0 0 0-8.5 8.5v214c0 4.709 3.791 8.5 8.5 8.5h161c4.709 0 8.5-3.791 8.5-8.5V79.05l-64.447-64.055z" fill="#6f6f6f"/><path d="M216 80v152c0 4.432-3.568 8-8 8H48c-4.432 0-8-3.568-8-8V24c0-4.432 3.568-8 8-8h104" fill="#ececec"/><path d="M216 86h-57c-4.432 0-8-3.568-8-8V16h1l64 64z" fill="#6f6f6f" fill-opacity=".502"/><path d="M216 80h-56c-4.432 0-8-3.568-8-8V16" fill="#fafafa"/><path d="M173.49 181.6q-.523 11.374-6.135 20.13-5.611 8.677-15.786 13.465-10.1 4.788-23.118 4.788-21.472 0-33.817-13.989Q82.29 192 82.29 166.488v-5.387q0-16.01 5.537-27.98 5.61-12.046 16.085-18.555 10.474-6.583 24.24-6.583 19.826 0 31.872 10.474 12.045 10.399 13.69 28.728h-26.185q-.3-9.948-5.013-14.288t-14.365-4.34q-9.8 0-14.365 7.332-4.563 7.33-4.788 23.417v7.706q0 17.433 4.34 24.914 4.413 7.482 15.112 7.482 9.053 0 13.841-4.265 4.789-4.264 5.088-13.543z" fill="#3f51b5"/></svg>