<svg version="1.0" viewBox="0 0 256 256" xmlns="http://www.w3.org/2000/svg"><path d="M47.5 15a8.481 8.481 0 0 0-8.5 8.5v214c0 4.709 3.791 8.5 8.5 8.5h161c4.709 0 8.5-3.791 8.5-8.5V79.05l-64.447-64.055z" fill="#6f6f6f"/><path d="M216 80v152c0 4.432-3.568 8-8 8H48c-4.432 0-8-3.568-8-8V24c0-4.432 3.568-8 8-8h104" fill="#ececec"/><path d="M216 86h-57c-4.432 0-8-3.568-8-8V16h1l64 64z" fill="#6f6f6f" fill-opacity=".502"/><path d="M216 80h-56c-4.432 0-8-3.568-8-8V16" fill="#fafafa"/><path d="M78.619 107.995 87.605 208.8l40.33 11.196 40.442-11.211 8.996-100.79zm18.376 20.606h61.928l-.296 3.316-.562 6.268-.248 2.779h-47.31l1.13 12.66h45.055l-.302 3.32-2.905 32.548-.186 2.089-25.302 7.012-.057.016-25.326-7.03-1.732-19.413h12.411l.88 9.86 13.769 3.718.012-.005 13.789-3.722 1.435-16.034H100.33l-3.038-34.07-.297-3.316z" fill="#e44d26"/><path d="M78.619 107.995 87.605 208.8l40.33 11.196.06-.016v-21.385l-.056.015-25.326-7.03-1.732-19.412h12.411l.88 9.859 13.769 3.719.012-.006.043-.011v-19.744h-27.667l-3.038-34.07-.297-3.314h31.001v-20.605H78.618zm31.888 32.968 1.13 12.66h16.36v-12.66h-.044z" opacity=".1"/></svg>