<svg version="1.0" viewBox="0 0 256 256" xmlns="http://www.w3.org/2000/svg"><path d="M47.5 15a8.481 8.481 0 0 0-8.5 8.5v214c0 4.709 3.791 8.5 8.5 8.5h161c4.709 0 8.5-3.791 8.5-8.5V79.06l-64.447-64.055z" fill="#6f6f6f"/><path d="M216 80v152c0 4.432-3.568 8-8 8H48c-4.432 0-8-3.568-8-8V24c0-4.432 3.568-8 8-8h104" fill="#ececec"/><path d="M216 86h-57c-4.432 0-8-3.568-8-8V16h1l64 64z" fill="#6f6f6f" fill-opacity=".502"/><path d="M216 80h-56c-4.432 0-8-3.568-8-8V16" fill="#fafafa"/><path d="m77.58 114 26.177 48-26.177 48h16l26.177-48-26.177-48zm26.666 0 26.177 48-26.177 48h16l18.177-33.334L156.6 210h16l-19.781-36.271-3.49-6.395-2.906-5.334-26.177-48zm44.116 32 5.823 10.666h24.24V146zm11.635 21.334L165.82 178h12.604v-10.666z" fill="#5f5088" fill-rule="evenodd"/></svg>