<svg version="1.0" viewBox="0 0 256 256" xmlns="http://www.w3.org/2000/svg"><path d="M47.5 15a8.481 8.481 0 0 0-8.5 8.5v214c0 4.709 3.791 8.5 8.5 8.5h161c4.709 0 8.5-3.791 8.5-8.5V79.06l-64.447-64.055z" fill="#6f6f6f"/><path d="M216 80v152c0 4.432-3.568 8-8 8H48c-4.432 0-8-3.568-8-8V24c0-4.432 3.568-8 8-8h104" fill="#ececec"/><path d="M216 86h-57c-4.432 0-8-3.568-8-8V16h1l64 64z" fill="#6f6f6f" fill-opacity=".502"/><path d="M216 80h-56c-4.432 0-8-3.568-8-8V16" fill="#fafafa"/><path d="M552-4028c-4.363 0-8 3.637-8 8v48c0 4.362 3.637 8 8 8h80c4.363 0 8-3.638 8-8v-48c0-4.363-3.637-8-8-8zm0 8h80v48h-80zm8 8v32h8v-17.5l8 12.5 8-12.5v17.5h8v-32h-8l-8 12.5-8-12.5zm48 0v16h-8l12 16 12-16h-8v-16z" color="#000" fill="#455a64" style="isolation:auto;mix-blend-mode:normal;text-decoration-color:#000;text-decoration-line:none;text-decoration-style:solid;text-indent:0;text-transform:none;white-space:normal" transform="translate(-464 4172)"/></svg>