<svg version="1.0" viewBox="0 0 256 256" xmlns="http://www.w3.org/2000/svg"><path d="M47.5 15a8.481 8.481 0 0 0-8.5 8.5v214c0 4.709 3.791 8.5 8.5 8.5h161c4.709 0 8.5-3.791 8.5-8.5V79.05l-64.447-64.055z" fill="#6f6f6f"/><path d="M216 80v152c0 4.432-3.568 8-8 8H48c-4.432 0-8-3.568-8-8V24c0-4.432 3.568-8 8-8h104" fill="#ececec"/><path d="M216 86h-57c-4.432 0-8-3.568-8-8V16h1l64 64z" fill="#6f6f6f" fill-opacity=".502"/><path d="M216 80h-56c-4.432 0-8-3.568-8-8V16" fill="#fafafa"/><g clip-rule="evenodd" fill="#dd4f37" fill-rule="evenodd"><path d="M111.202 192.979s-4.889 2.846 3.483 3.806c10.144 1.158 15.327.99 26.502-1.121 0 0 2.944 1.841 7.048 3.436-25.06 10.737-56.715-.622-37.034-6.121z"/><path d="M108.137 178.966s-5.483 4.06 2.895 4.926c10.836 1.119 19.39 1.21 34.202-1.64 0 0 2.044 2.076 5.263 3.21-30.295 8.862-64.035.698-42.361-6.496z"/><path d="M133.95 155.19c6.177 7.112-1.62 13.506-1.62 13.506s15.677-8.092 8.478-18.23c-6.725-9.449-11.881-14.143 16.034-30.333 0 0-43.82 10.942-22.893 35.057z"/><path d="M167.093 203.345s3.619 2.983-3.986 5.29c-14.461 4.38-60.2 5.701-72.905.175-4.563-1.987 3.999-4.742 6.693-5.324 2.808-.608 4.412-.497 4.412-.497-5.079-3.577-32.828 7.024-14.093 10.064 51.089 8.282 93.13-3.73 79.877-9.708z"/><path d="M113.554 164.445s-23.263 5.527-8.238 7.535c6.346.85 18.99.654 30.774-.335 9.63-.808 19.293-2.536 19.293-2.536s-3.393 1.455-5.85 3.132c-23.628 6.214-69.264 3.32-56.123-3.033 11.107-5.374 20.143-4.763 20.143-4.763z"/><path d="M155.287 187.769c24.017-12.477 12.912-24.468 5.16-22.853-1.895.396-2.745.738-2.745.738s.706-1.106 2.05-1.582c15.335-5.389 27.125 15.898-4.944 24.328 0 0 .368-.334.48-.631z"/><path d="M140.81 93.988s13.298 13.306-12.617 33.76c-20.781 16.414-4.738 25.77-.007 36.465-12.132-10.945-21.03-20.581-15.062-29.547 8.765-13.161 33.05-19.544 27.686-40.678z"/><path d="M115.914 221.59c23.048 1.473 58.452-.82 59.289-11.727 0 0-1.61 4.135-19.05 7.415-19.674 3.704-43.945 3.273-58.335.897 0 0 2.948 2.44 18.096 3.415z"/></g></svg>