<svg version="1.0" viewBox="0 0 256 256" xmlns="http://www.w3.org/2000/svg"><path d="M47.5 15a8.481 8.481 0 0 0-8.5 8.5v214c0 4.709 3.791 8.5 8.5 8.5h161c4.709 0 8.5-3.791 8.5-8.5V79.06l-64.447-64.055z" fill="#6f6f6f"/><path d="M216 80v152c0 4.432-3.568 8-8 8H48c-4.432 0-8-3.568-8-8V24c0-4.432 3.568-8 8-8h104" fill="#ececec"/><path d="M216 86h-57c-4.432 0-8-3.568-8-8V16h1l64 64z" fill="#6f6f6f" fill-opacity=".502"/><path d="M216 80h-56c-4.432 0-8-3.568-8-8V16" fill="#fafafa"/><g fill="#1976d2"><path d="M128 120c-.464 0-.92.2-1.172.608l-2.5 4.047-1.172.112-3.234-3.469c-.655-.704-1.992-.432-2.328.472l-1.656 4.422-1.141.344-3.844-2.766c-.78-.56-2.017-.08-2.172.906l-.765 4.672-1.047.56-4.313-1.969c-.876-.4-2.005.352-1.968 1.313l.172 4.75-.907.752-4.625-1.093c-.938-.216-1.892.736-1.672 1.672l1.094 4.625-.75.906-4.75-.168c-.956-.08-1.71 1.091-1.312 1.969l1.969 4.312-.563 1.047-4.671.768c-.95.152-1.467 1.392-.907 2.172l2.766 3.844-.344 1.14-4.438 1.657c-.9.336-1.156 1.67-.452 2.328l3.468 3.218-.124 1.188-4.032 2.5c-.817.504-.817 1.856 0 2.36l4.032 2.483.124 1.188-3.468 3.235c-.704.656-.448 1.974.452 2.312l4.438 1.657.344 1.14-2.766 3.844c-.561.784-.04 2.034.907 2.187l4.671.752.563 1.047-1.969 4.312c-.4.877.356 2.008 1.313 1.969l4.75-.168.75.906-1.095 4.625c-.22.937.734 1.893 1.672 1.672l4.625-1.094.907.752-.172 4.735c-.04.959 1.092 1.713 1.968 1.312l4.313-1.953 1.047.544.765 4.672c.155.951 1.392 1.466 2.172.906l3.844-2.765 1.14.344 1.657 4.437c.336.899 1.657 1.162 2.312.456l3.235-3.47 1.187.129 2.5 4.031c.503.813 1.855.815 2.36 0l2.484-4.031 1.187-.128 3.235 3.469c.655.704 1.976.44 2.312-.456l1.656-4.437 1.141-.344 3.844 2.765c.78.56 2.017.08 2.172-.906l.765-4.672 1.047-.544 4.313 1.953c.876.4 2.003-.344 1.968-1.312l-.172-4.735.907-.752 4.625 1.094c.938.216 1.892-.736 1.672-1.672l-1.094-4.625.75-.906 4.75.168c.956.08 1.714-1.092 1.312-1.969l-1.969-4.312.563-1.047 4.671-.752c.952-.152 1.47-1.406.907-2.187l-2.766-3.844.344-1.14 4.438-1.657c.901-.336 1.158-1.657.452-2.312l-3.468-3.235.124-1.188 4.032-2.484c.817-.504.817-1.853 0-2.359l-4.032-2.5-.124-1.188 3.468-3.218c.705-.656.45-1.992-.452-2.328l-4.438-1.657-.344-1.14 2.766-3.844c.564-.776.048-2.016-.907-2.172l-4.671-.768-.563-1.047 1.969-4.312c.402-.878-.347-2.005-1.313-1.969l-4.75.168-.75-.906 1.095-4.625c.22-.939-.734-1.892-1.672-1.672l-4.61 1.093-.922-.752.172-4.75c.04-.96-1.092-1.711-1.968-1.313l-4.313 1.969-1.047-.56-.75-4.672c-.154-.947-1.406-1.467-2.187-.906l-3.844 2.766-1.14-.344-1.656-4.422c-.336-.904-1.657-1.168-2.313-.472l-3.234 3.47-1.172-.113-2.5-4.047c-.252-.408-.723-.608-1.188-.608zm0 15.984a32 32 0 0 1 32 32 32 32 0 0 1-32 32 32 32 0 0 1-32-32 32 32 0 0 1 32-32z"/><path d="M96 144v8h8v32h-8v8h32v-8h-8v-16c8 0 8 24 16 24h16c8 0 8-24 8-24h-8s0 16-8 16c-3.771 0-8-16-8-16h4c6.648 0 12-5.352 12-12s-5.352-12-12-12h-12zm24 8h16c2.216 0 4 1.784 4 4s-1.784 4-4 4h-16z"/></g></svg>