<svg version="1.0" viewBox="0 0 256 256" xmlns="http://www.w3.org/2000/svg"><g transform="translate(-464 -28)"><rect x="480" y="84" width="224" height="176" ry="16" fill="#782e11"/><rect x="481" y="85" width="222" height="170" ry="15.5" fill="#f15d22"/><path d="M496.5 85c-8.587 0-15.5 6.913-15.5 15.5V117h222v-16.5c0-8.587-6.913-15.5-15.5-15.5z"/><g fill="#f7f7f7"><path d="m516 85-16 32h24l16-32z"/><path d="m564 85-16 32h24l16-32z"/><path d="m612 85-16 32h24l16-32z"/><path d="m660 85-16 32h24l16-32z"/></g><g transform="matrix(6 0 0 6 -102.84 -1299.8)" fill="#fff"><path d="m120.47 249.3 3.333-2v7.333l-3.333-2z" filter="url(#filter7554)"/><rect x="109.81" y="246.64" width="10.667" height="8" ry="2" filter="url(#filter7554)"/><path d="M119.142 240.636a3.333 3.333 0 0 0-3.334 3.333 3.333 3.333 0 0 0 3.334 3.334 3.333 3.333 0 0 0 3.333-3.334 3.333 3.333 0 0 0-3.333-3.333zm0 2a1.333 1.333 0 0 1 1.333 1.333 1.333 1.333 0 0 1-1.333 1.334 1.333 1.333 0 0 1-1.334-1.334 1.333 1.333 0 0 1 1.334-1.333z"/><path d="M111.14 240.64a3.333 3.333 0 0 0-3.333 3.333 3.333 3.333 0 0 0 3.333 3.334 3.333 3.333 0 0 0 3.333-3.334 3.333 3.333 0 0 0-3.333-3.333zm0 2a1.333 1.333 0 0 1 1.333 1.333 1.333 1.333 0 0 1-1.333 1.334 1.333 1.333 0 0 1-1.333-1.334 1.333 1.333 0 0 1 1.333-1.333z"/></g></g></svg>