<svg version="1.0" viewBox="0 0 256 256" xmlns="http://www.w3.org/2000/svg"><g transform="translate(-464 572)"><path d="M511.5-557a8.481 8.481 0 0 0-8.5 8.5v214c0 4.709 3.791 8.5 8.5 8.5h161c4.709 0 8.5-3.791 8.5-8.5v-158.45l-64.447-64.055z" fill="#671d00"/><path d="M680-492v152c0 4.432-3.568 8-8 8H512c-4.432 0-8-3.568-8-8v-208c0-4.432 3.568-8 8-8h104" fill="#cf3b00"/><path d="M680-486h-57c-4.432 0-8-3.568-8-8v-62h1l64 64z" fill="#671d00" fill-opacity=".502"/><path d="M680-492h-56c-4.432 0-8-3.568-8-8v-56" fill="#f15d22"/><rect x="520" y="-393" width="144" height="16" ry="0" fill="#fff"/><rect x="520" y="-361" width="88" height="16" ry="0" fill="#fff"/><path d="M520-440a32 32 0 0 1 32-32 32 32 0 0 1 32 32 32 32 0 0 1-32 32v-32z" fill="#fffffe"/><rect x="600" y="-464" width="64" height="48" ry="0" fill="#fff"/></g></svg>