<svg version="1.0" viewBox="0 0 256 256" xmlns="http://www.w3.org/2000/svg"><g transform="translate(-464 1172)"><path d="M237.5 223a4.49 4.49 0 0 0-4.5 4.5v51a4.49 4.49 0 0 0 4.5 4.5h37a4.49 4.49 0 0 0 4.5-4.5v-39L262.5 223z" fill="#1f285a"/><path d="M278 240v36c0 2.216-1.784 4-4 4h-36c-2.216 0-4-1.784-4-4v-48c0-2.216 1.784-4 4-4h24" fill="#3f51b5"/><path d="M278 243h-13c-2.216 0-4-1.784-4-4v-15h1l16 16z" fill="#1f285a" fill-opacity=".502"/><path d="M278 240h-12c-2.216 0-4-1.784-4-4v-12" fill="#6a7ce0"/><path d="M339.5 163a8.481 8.481 0 0 0-8.5 8.5v100c0 4.709 3.791 8.5 8.5 8.5h73c4.709 0 8.5-3.791 8.5-8.5v-76L388.5 163z" fill="#1f285a"/><path d="M420 196v72c0 4.432-3.568 8-8 8h-72c-4.432 0-8-3.568-8-8v-96c0-4.432 3.568-8 8-8h48" fill="#3f51b5"/><path d="M420 200h-25c-4.432 0-8-3.568-8-8v-28h1l32 32z" fill="#1f285a" fill-opacity=".502"/><path d="M420 196h-24c-4.432 0-8-3.568-8-8v-24" fill="#6a7ce0"/><path d="M511.5 43a8.481 8.481 0 0 0-8.5 8.5v214c0 4.709 3.791 8.5 8.5 8.5h161c4.709 0 8.5-3.791 8.5-8.5V107.05l-64.447-64.055z" fill="#1f285a"/><path d="M680 108v152c0 4.432-3.568 8-8 8H512c-4.432 0-8-3.568-8-8V52c0-4.432 3.568-8 8-8h104" fill="#3f51b5"/><path d="M680 114h-57c-4.432 0-8-3.568-8-8V44h1l64 64z" fill="#1f285a" fill-opacity=".502"/><path d="M680 108h-56c-4.432 0-8-3.568-8-8V44" fill="#6a7ce0"/><path d="M166.6 238a3.591 3.591 0 0 0-3.6 3.6v37.8c0 1.995 1.606 3.6 3.6 3.6h26.801c1.994 0 3.6-1.605 3.6-3.6V251l-13-13z" fill="#1f285a"/><path d="M196 251v27c0 1.662-1.338 3-3 3h-26c-1.662 0-3-1.338-3-3v-36c0-1.662 1.338-3 3-3h17" fill="#3f51b5"/><path d="M196 253h-10c-1.662 0-3-1.338-3-3v-11h1l12 12z" fill="#1f285a" fill-opacity=".502"/><path d="M196 251h-9c-1.662 0-3-1.338-3-3v-9" fill="#6a7ce0"/><path d="M128 261.5v20c0 1.385-1.115 2.5-2.5 2.5h-19a2.495 2.495 0 0 1-2.5-2.5v-26c0-1.385 1.115-2.5 2.5-2.5h13" fill="#1f285a"/><path d="M127 262v18c0 1.108-.892 2-2 2h-18c-1.108 0-2-.892-2-2v-24c0-1.108.892-2 2-2h12" fill="#3f51b5"/><path d="M127 264h-7c-1.108 0-2-.892-2-2v-8h1l8 8z" fill="#1f285a" fill-opacity=".502"/><path d="M127 262h-6c-1.108 0-2-.892-2-2v-6" fill="#6a7ce0"/><path d="M60.5 260a2.495 2.495 0 0 0-2.5 2.5v19c0 1.385 1.115 2.5 2.5 2.5h15c1.385 0 2.5-1.115 2.5-2.5v-14l-7.5-7.5z" fill="#1f285a"/><path d="M77 268v13c0 1.108-.892 2-2 2H61c-1.108 0-2-.892-2-2v-18c0-1.108.892-2 2-2h9" fill="#3f51b5"/><path d="M77 269h-6c-1.108 0-2-.892-2-2v-6h1l7 7z" fill="#1f285a" fill-opacity=".502"/><path d="M77 268h-5c-1.108 0-2-.892-2-2v-5" fill="#6a7ce0"/><path d="M19.5 268c-.831 0-1.5.669-1.5 1.5v13c0 .831.669 1.5 1.5 1.5h9c.831 0 1.5-.669 1.5-1.5v-10l-4.5-4.5z" fill="#1f285a"/><path d="M29 273v9c0 .554-.446 1-1 1h-8c-.554 0-1-.446-1-1v-12c0-.554.446-1 1-1h5" fill="#3f51b5"/><path d="M29 274h-4c-.554 0-1-.446-1-1v-4h1l4 4z" fill="#1f285a" fill-opacity=".502"/><path d="M29 273h-3c-.554 0-1-.446-1-1v-3" fill="#6a7ce0"/><rect x="238" y="245" width="36" height="4" ry="0" fill="#fff"/><rect x="238" y="253" width="36" height="4" ry="0" fill="#fff"/><rect x="238" y="261" width="36" height="4" ry="0" fill="#fff"/><rect x="238" y="269" width="22" height="4" ry="0" fill="#fff"/><rect x="107" y="265" width="18" height="2" ry="0" fill="#fff"/><rect x="107" y="269" width="18" height="2" ry="0" fill="#fff"/><rect x="107" y="273" width="18" height="2" ry="0" fill="#fff"/><rect x="107" y="277" width="11" height="2" ry="0" fill="#fff"/><rect x="20" y="276" width="8" height="1" ry="0" fill="#fff"/><rect x="20" y="278" width="8" height="1" ry="0" fill="#fff"/><rect x="20" y="280" width="5" height="1" ry="0" fill="#fff"/><rect x="61" y="271" width="14" height="1" ry="0" fill="#fff"/><rect x="61" y="274" width="14" height="1" ry="0" fill="#fff"/><rect x="61" y="280" width="9" height="1" ry="0" fill="#fff"/><rect x="61" y="277" width="14" height="1" ry="0" fill="#fff"/><rect x="167" y="257" width="26" height="3" ry="0" fill="#fff"/><rect x="167" y="263" width="26" height="3" ry="0" fill="#fff"/><rect x="167" y="269" width="26" height="3" ry="0" fill="#fff"/><rect x="167" y="275" width="16" height="3" ry="0" fill="#fff"/><rect x="340" y="210" width="72" height="8" ry="0" fill="#fff"/><rect x="340" y="226" width="72" height="8" ry="0" fill="#fff"/><rect x="340" y="242" width="72" height="8" ry="0" fill="#fff"/><rect x="340" y="258" width="44" height="8" ry="0" fill="#fff"/><rect x="520" y="142" width="144" height="16" ry="0" fill="#fff"/><rect x="520" y="174" width="144" height="16" ry="0" fill="#fff"/><rect x="520" y="206" width="144" height="16" ry="0" fill="#fff"/><rect x="520" y="238" width="88" height="16" ry="0" fill="#fff"/></g><g transform="translate(-464 1172)"><path d="M237.5-377a4.49 4.49 0 0 0-4.5 4.5v51a4.49 4.49 0 0 0 4.5 4.5h37a4.49 4.49 0 0 0 4.5-4.5v-39L262.5-377z" fill="#671d00"/><path d="M278-360v36c0 2.216-1.784 4-4 4h-36c-2.216 0-4-1.784-4-4v-48c0-2.216 1.784-4 4-4h24" fill="#cf3b00"/><path d="M278-357h-13c-2.216 0-4-1.784-4-4v-15h1l16 16z" fill="#671d00" fill-opacity=".502"/><path d="M278-360h-12c-2.216 0-4-1.784-4-4v-12" fill="#f15d22"/><path d="M339.5-437a8.481 8.481 0 0 0-8.5 8.5v100c0 4.709 3.791 8.5 8.5 8.5h73c4.709 0 8.5-3.791 8.5-8.5v-76L388.5-437z" fill="#671d00"/><path d="M420-404v72c0 4.432-3.568 8-8 8h-72c-4.432 0-8-3.568-8-8v-96c0-4.432 3.568-8 8-8h48" fill="#cf3b00"/><path d="M420-400h-25c-4.432 0-8-3.568-8-8v-28h1l32 32z" fill="#671d00" fill-opacity=".502"/><path d="M420-404h-24c-4.432 0-8-3.568-8-8v-24" fill="#f15d22"/><path d="M511.5-557a8.481 8.481 0 0 0-8.5 8.5v214c0 4.709 3.791 8.5 8.5 8.5h161c4.709 0 8.5-3.791 8.5-8.5v-158.45l-64.447-64.055z" fill="#671d00"/><path d="M680-492v152c0 4.432-3.568 8-8 8H512c-4.432 0-8-3.568-8-8v-208c0-4.432 3.568-8 8-8h104" fill="#cf3b00"/><path d="M680-486h-57c-4.432 0-8-3.568-8-8v-62h1l64 64z" fill="#671d00" fill-opacity=".502"/><path d="M680-492h-56c-4.432 0-8-3.568-8-8v-56" fill="#f15d22"/><path d="M166.6-362a3.591 3.591 0 0 0-3.6 3.6v37.8c0 1.995 1.606 3.6 3.6 3.6h26.801c1.994 0 3.6-1.605 3.6-3.6V-349l-13-13z" fill="#671d00"/><path d="M196-349v27c0 1.662-1.338 3-3 3h-26c-1.662 0-3-1.338-3-3v-36c0-1.662 1.338-3 3-3h17" fill="#cf3b00"/><path d="M196-347h-10c-1.662 0-3-1.338-3-3v-11h1l12 12z" fill="#671d00" fill-opacity=".502"/><path d="M196-349h-9c-1.662 0-3-1.338-3-3v-9" fill="#f15d22"/><path d="M128-338.5v20c0 1.385-1.115 2.5-2.5 2.5h-19a2.495 2.495 0 0 1-2.5-2.5v-26c0-1.385 1.115-2.5 2.5-2.5h13" fill="#671d00"/><path d="M127-338v18c0 1.108-.892 2-2 2h-18c-1.108 0-2-.892-2-2v-24c0-1.108.892-2 2-2h12" fill="#cf3b00"/><path d="M127-336h-7c-1.108 0-2-.892-2-2v-8h1l8 8z" fill="#671d00" fill-opacity=".502"/><path d="M127-338h-6c-1.108 0-2-.892-2-2v-6" fill="#f15d22"/><path d="M60.5-340a2.495 2.495 0 0 0-2.5 2.5v19c0 1.385 1.115 2.5 2.5 2.5h15c1.385 0 2.5-1.115 2.5-2.5v-14l-7.5-7.5z" fill="#671d00"/><path d="M77-332v13c0 1.108-.892 2-2 2H61c-1.108 0-2-.892-2-2v-18c0-1.108.892-2 2-2h9" fill="#cf3b00"/><path d="M77-331h-6c-1.108 0-2-.892-2-2v-6h1l7 7z" fill="#671d00" fill-opacity=".502"/><path d="M77-332h-5c-1.108 0-2-.892-2-2v-5" fill="#f15d22"/><path d="M19.5-332c-.831 0-1.5.669-1.5 1.5v13c0 .831.669 1.5 1.5 1.5h9c.831 0 1.5-.669 1.5-1.5v-10l-4.5-4.5z" fill="#671d00"/><path d="M29-327v9c0 .554-.446 1-1 1h-8c-.554 0-1-.446-1-1v-12c0-.554.446-1 1-1h5" fill="#cf3b00"/><path d="M29-326h-4c-.554 0-1-.446-1-1v-4h1l4 4z" fill="#671d00" fill-opacity=".502"/><path d="M29-327h-3c-.554 0-1-.446-1-1v-3" fill="#f15d22"/><path d="M238-348a8 8 0 0 1 8-8 8 8 0 0 1 8 8 8 8 0 0 1-8 8v-8z" fill="#fffffe"/><rect x="258" y="-354" width="16" height="12" ry="0" fill="#fff"/><rect x="238" y="-338" width="36" height="4" ry="0" fill="#fff"/><rect x="238" y="-330" width="22" height="4" ry="0" fill="#fff"/><rect x="107" y="-326" width="18" height="2" ry="0" fill="#fff"/><rect x="107" y="-322" width="11" height="2" ry="0" fill="#fff"/><rect x="20" y="-321" width="8" height="1" ry="0" fill="#fff"/><rect x="20" y="-319" width="5" height="1" ry="0" fill="#fff"/><rect x="61" y="-319" width="9" height="1" ry="0" fill="#fff"/><rect x="61" y="-322" width="14" height="1" ry="0" fill="#fff"/><rect x="167" y="-330" width="26" height="3" ry="0" fill="#fff"/><rect x="167" y="-324" width="16" height="3" ry="0" fill="#fff"/><rect x="340" y="-357" width="72" height="8" ry="0" fill="#fff"/><rect x="340" y="-341" width="44" height="8" ry="0" fill="#fff"/><rect x="520" y="-393" width="144" height="16" ry="0" fill="#fff"/><rect x="520" y="-361" width="88" height="16" ry="0" fill="#fff"/><path d="M166-340a6 6 0 0 1 6-6 6 6 0 0 1 6 6 6 6 0 0 1-6 6v-6z" fill="#fffffe"/><rect x="181" y="-344.5" width="12" height="9" ry="0" fill="#fff"/><path d="M61-327a3 3 0 0 1 3-3 3 3 0 0 1 3 3 3 3 0 0 1-3 3v-3z" fill="#fffffe"/><rect x="69" y="-329" width="6" height="5" ry="0" fill="#fff"/><path d="M107-332a4 4 0 0 1 4-4 4 4 0 0 1 4 4 4 4 0 0 1-4 4v-4z" fill="#fffffe"/><rect x="117" y="-335" width="8" height="6" ry="0" fill="#fff"/><path d="M19.5-324a1.5 1.5 0 0 1 1.5-1.5 1.5 1.5 0 0 1 1.5 1.5 1.5 1.5 0 0 1-1.5 1.5v-1.5z" fill="#fffffe"/><rect x="24" y="-325" width="4" height="3" ry="0" fill="#fff"/><path d="M340-377a16 16 0 0 1 16-16 16 16 0 0 1 16 16 16 16 0 0 1-16 16v-16z" fill="#fffffe"/><rect x="380" y="-389" width="32" height="24" ry="0" fill="#fff"/><path d="M520-440a32 32 0 0 1 32-32 32 32 0 0 1 32 32 32 32 0 0 1-32 32v-32z" fill="#fffffe"/><rect x="600" y="-464" width="64" height="48" ry="0" fill="#fff"/></g><g fill="#fff" transform="translate(-464 1172)"><circle cx="249" cy="-638" r="8"/><path d="M258-650h12v8h-12z"/><path d="M270-638v12h-12z"/></g><g transform="matrix(.75 0 0 .75 -475.656 1017.5)" fill="#fff"><circle cx="248.88" cy="-638" r="8"/><path d="M258.21-650h12v8h-12z"/><path d="M270.21-638v12h-12z"/></g><g transform="matrix(.375 0 0 .375 -491.828 786.75)" fill="#fff"><circle cx="247.54" cy="-636.67" r="8"/><path d="M258.21-650h13.333v8H258.21z"/><path d="M271.54-639.33v13.333h-13.333z"/></g><g transform="matrix(.5 0 0 .5 -476 863)" fill="#fff"><circle cx="250" cy="-636" r="8"/><path d="M258-650h12v8h-12z"/><path d="M270-638v12h-12z"/></g><g transform="matrix(.25 0 0 .25 -503.5 709.5)" fill="#fff"><circle cx="246" cy="-638" r="8"/><path d="M258-650h12v8h-12z"/><path d="M270-638v12h-12z"/></g><g transform="matrix(2 0 0 2 -599 1788)" fill="#fff"><circle cx="249" cy="-638" r="8"/><path d="M258-650h12v8h-12z"/><path d="M270-638v12h-12z"/></g><g transform="matrix(4 0 0 4 -894 3020)" fill="#fff"><circle cx="249" cy="-638" r="8"/><path d="M258-650h12v8h-12z"/><path d="M270-638v12h-12z"/></g><g transform="translate(-464 1172)"><path d="M237.5-977a4.49 4.49 0 0 0-4.5 4.5v51a4.49 4.49 0 0 0 4.5 4.5h37a4.49 4.49 0 0 0 4.5-4.5v-39L262.5-977z" fill="#6f4400"/><path d="M278-960v36c0 2.216-1.784 4-4 4h-36c-2.216 0-4-1.784-4-4v-48c0-2.216 1.784-4 4-4h24" fill="#de8800"/><path d="M278-957h-13c-2.216 0-4-1.784-4-4v-15h1l16 16z" fill="#6f4400" fill-opacity=".502"/><path d="M278-960h-12c-2.216 0-4-1.784-4-4v-12" fill="#faa41a"/><path d="M339.5-1037a8.481 8.481 0 0 0-8.5 8.5v100c0 4.709 3.791 8.5 8.5 8.5h73c4.709 0 8.5-3.791 8.5-8.5v-76l-32.5-32.5z" fill="#6f4400"/><path d="M420-1004v72c0 4.432-3.568 8-8 8h-72c-4.432 0-8-3.568-8-8v-96c0-4.432 3.568-8 8-8h48" fill="#de8800"/><path d="M420-1000h-25c-4.432 0-8-3.568-8-8v-28h1l32 32z" fill="#6f4400" fill-opacity=".502"/><path d="M420-1004h-24c-4.432 0-8-3.568-8-8v-24" fill="#faa41a"/><path d="M511.5-1157a8.481 8.481 0 0 0-8.5 8.5v214c0 4.709 3.791 8.5 8.5 8.5h161c4.709 0 8.5-3.791 8.5-8.5v-158.45l-64.447-64.055z" fill="#6f4400"/><path d="M680-1092v152c0 4.432-3.568 8-8 8H512c-4.432 0-8-3.568-8-8v-208c0-4.432 3.568-8 8-8h104" fill="#de8800"/><path d="M680-1086h-57c-4.432 0-8-3.568-8-8v-62h1l64 64z" fill="#6f4400" fill-opacity=".502"/><path d="M680-1092h-56c-4.432 0-8-3.568-8-8v-56" fill="#faa41a"/><path d="M166.6-962a3.591 3.591 0 0 0-3.6 3.6v37.8c0 1.995 1.606 3.6 3.6 3.6h26.801c1.994 0 3.6-1.605 3.6-3.6V-949l-13-13z" fill="#6f4400"/><path d="M196-949v27c0 1.662-1.338 3-3 3h-26c-1.662 0-3-1.338-3-3v-36c0-1.662 1.338-3 3-3h17" fill="#de8800"/><path d="M196-947h-10c-1.662 0-3-1.338-3-3v-11h1l12 12z" fill="#6f4400" fill-opacity=".502"/><path d="M196-949h-9c-1.662 0-3-1.338-3-3v-9" fill="#faa41a"/><path d="M128-938.5v20c0 1.385-1.115 2.5-2.5 2.5h-19a2.495 2.495 0 0 1-2.5-2.5v-26c0-1.385 1.115-2.5 2.5-2.5h13" fill="#6f4400"/><path d="M127-938v18c0 1.108-.892 2-2 2h-18c-1.108 0-2-.892-2-2v-24c0-1.108.892-2 2-2h12" fill="#de8800"/><path d="M127-936h-7c-1.108 0-2-.892-2-2v-8h1l8 8z" fill="#6f4400" fill-opacity=".502"/><path d="M127-938h-6c-1.108 0-2-.892-2-2v-6" fill="#faa41a"/><path d="M60.5-940a2.495 2.495 0 0 0-2.5 2.5v19c0 1.385 1.115 2.5 2.5 2.5h15c1.385 0 2.5-1.115 2.5-2.5v-14l-7.5-7.5z" fill="#6f4400"/><path d="M77-932v13c0 1.108-.892 2-2 2H61c-1.108 0-2-.892-2-2v-18c0-1.108.892-2 2-2h9" fill="#de8800"/><path d="M77-931h-6c-1.108 0-2-.892-2-2v-6h1l7 7z" fill="#6f4400" fill-opacity=".502"/><path d="M77-932h-5c-1.108 0-2-.892-2-2v-5" fill="#faa41a"/><path d="M19.5-932c-.831 0-1.5.669-1.5 1.5v13c0 .831.669 1.5 1.5 1.5h9c.831 0 1.5-.669 1.5-1.5v-10l-4.5-4.5z" fill="#6f4400"/><path d="M29-927v9c0 .554-.446 1-1 1h-8c-.554 0-1-.446-1-1v-12c0-.554.446-1 1-1h5" fill="#de8800"/><path d="M29-926h-4c-.554 0-1-.446-1-1v-4h1l4 4z" fill="#6f4400" fill-opacity=".502"/><path d="M29-927h-3c-.554 0-1-.446-1-1v-3" fill="#faa41a"/><rect x="107" y="-934" width="18" height="4" ry="2" fill="#fff"/><rect x="107" y="-929" width="18" height="4" ry="2" fill="#fff"/><rect x="107" y="-924" width="18" height="4" ry="2" fill="#fff"/><g fill="#fff"><rect x="107" y="-934" width="18" height="4" ry="2"/><rect x="107" y="-929" width="18" height="4" ry="2"/><rect x="107" y="-924" width="18" height="4" ry="2"/></g><g transform="matrix(.5 0 0 .5 -34 -458)" fill="#fff"><rect x="108" y="-932" width="16" height="4" ry="2"/><rect x="108" y="-926" width="16" height="4" ry="2"/></g><rect x="61" y="-930" width="14" height="3" ry="1.5" fill="#fff"/><rect x="61" y="-926" width="14" height="3" ry="1.5" fill="#fff"/><rect x="61" y="-922" width="14" height="3" ry="1.5" fill="#fff"/><rect x="167" y="-941" width="26" height="5" ry="1.5" fill="#fff" fill-opacity=".978"/><rect x="167" y="-934" width="26" height="5" ry="1.5" fill="#fff" fill-opacity=".978"/><rect x="167" y="-927" width="26" height="5" ry="1.5" fill="#fff" fill-opacity=".978"/><g fill="#fff" fill-opacity=".978"><rect x="239" y="-952" width="34" height="7" ry="2.25"/><rect x="239" y="-942" width="34" height="7" ry="2.25"/><rect x="239" y="-932" width="34" height="7" ry="2.25"/></g><g transform="matrix(2 0 0 2 -136 916)" fill="#fff" fill-opacity=".978"><rect x="239" y="-952" width="34" height="7" ry="2.25"/><rect x="239" y="-942" width="34" height="7" ry="2.25"/><rect x="239" y="-932" width="34" height="7" ry="2.25"/></g><g transform="matrix(4 0 0 4 -432 2744)" fill="#fff" fill-opacity=".978"><rect x="239" y="-952" width="34" height="7" ry="2.25"/><rect x="239" y="-942" width="34" height="7" ry="2.25"/><rect x="239" y="-932" width="34" height="7" ry="2.25"/></g></g><path d="m116-1532.6-7 1v10.75l7 4.25 7-4.25v-10.75zm0 2 5 .75v8l-5 3-5-3v-8z" color="#000" style="font-feature-settings:normal;font-variant-alternates:normal;font-variant-caps:normal;font-variant-ligatures:normal;font-variant-numeric:normal;font-variant-position:normal;isolation:auto;mix-blend-mode:normal;shape-padding:0;text-decoration-color:#000;text-decoration-line:none;text-decoration-style:solid;text-indent:0;text-orientation:mixed;text-transform:none;white-space:normal" transform="translate(-464 1169.625)" fill="#f6f6f6"/><path d="m116-1532.6-8 1v10.75l8 4.25 8-4.25v-10.75zm0 2 6 .75v8l-6 3-6-3v-8z" color="#000" style="font-feature-settings:normal;font-variant-alternates:normal;font-variant-caps:normal;font-variant-ligatures:normal;font-variant-numeric:normal;font-variant-position:normal;isolation:auto;mix-blend-mode:normal;shape-padding:0;text-decoration-color:#000;text-decoration-line:none;text-decoration-style:solid;text-indent:0;text-orientation:mixed;text-transform:none;white-space:normal" transform="matrix(.5 0 0 .5 -454 410.31)" fill="#f6f6f6"/><path d="m116-1532.6-8 1v10.75l8 4.25 8-4.25v-10.75zm0 2 6 .75v8l-6 3-6-3v-8z" color="#000" style="font-feature-settings:normal;font-variant-alternates:normal;font-variant-caps:normal;font-variant-ligatures:normal;font-variant-numeric:normal;font-variant-position:normal;isolation:auto;mix-blend-mode:normal;shape-padding:0;text-decoration-color:#000;text-decoration-line:none;text-decoration-style:solid;text-indent:0;text-orientation:mixed;text-transform:none;white-space:normal" transform="matrix(.5 0 0 .5 -498 413.31)" fill="#f6f6f6"/><path d="m116-1532.6-7 1v10.75l7 4.25 7-4.25v-10.75zm0 2 5 .75v8l-5 3-5-3v-8z" color="#000" style="font-feature-settings:normal;font-variant-alternates:normal;font-variant-caps:normal;font-variant-ligatures:normal;font-variant-numeric:normal;font-variant-position:normal;isolation:auto;mix-blend-mode:normal;shape-padding:0;text-decoration-color:#000;text-decoration-line:none;text-decoration-style:solid;text-indent:0;text-orientation:mixed;text-transform:none;white-space:normal" transform="matrix(2 0 0 2 -440 2683.2)" fill="#f6f6f6"/><path d="m116-1532.6-7.333 1v10.75l7.333 4.25 7.333-4.25v-10.75zm0 2 5.333.75v8l-5.333 3-5.333-3v-8z" color="#000" style="font-feature-settings:normal;font-variant-alternates:normal;font-variant-caps:normal;font-variant-ligatures:normal;font-variant-numeric:normal;font-variant-position:normal;isolation:auto;mix-blend-mode:normal;shape-padding:0;text-decoration-color:#000;text-decoration-line:none;text-decoration-style:solid;text-indent:0;text-orientation:mixed;text-transform:none;white-space:normal" transform="matrix(1.5 0 0 1.5 -458 1927.94)" fill="#f6f6f6"/><path d="m116-1532.6-7 1v10.75l7 4.25 7-4.25v-10.75zm0 2 5 .75v8l-5 3-5-3v-8z" color="#000" style="font-feature-settings:normal;font-variant-alternates:normal;font-variant-caps:normal;font-variant-ligatures:normal;font-variant-numeric:normal;font-variant-position:normal;isolation:auto;mix-blend-mode:normal;shape-padding:0;text-decoration-color:#000;text-decoration-line:none;text-decoration-style:solid;text-indent:0;text-orientation:mixed;text-transform:none;white-space:normal" transform="matrix(4 0 0 4 -552 5710.5)" fill="#f6f6f6"/><path d="m116-1532.6-7 1v10.75l7 4.25 7-4.25v-10.75zm0 2 5 .75v8l-5 3-5-3v-8z" color="#000" style="font-feature-settings:normal;font-variant-alternates:normal;font-variant-caps:normal;font-variant-ligatures:normal;font-variant-numeric:normal;font-variant-position:normal;isolation:auto;mix-blend-mode:normal;shape-padding:0;text-decoration-color:#000;text-decoration-line:none;text-decoration-style:solid;text-indent:0;text-orientation:mixed;text-transform:none;white-space:normal" transform="matrix(8 0 0 8 -800 11765)" fill="#f6f6f6"/><g transform="translate(-464 1172)"><path d="M237.5-1877a4.49 4.49 0 0 0-4.5 4.5v51a4.49 4.49 0 0 0 4.5 4.5h37a4.49 4.49 0 0 0 4.5-4.5v-39l-16.5-16.5z" fill="#245c63"/><path d="M278-1860v36c0 2.216-1.784 4-4 4h-36c-2.216 0-4-1.784-4-4v-48c0-2.216 1.784-4 4-4h24" fill="#48b9c7"/><path d="M278-1857h-13c-2.216 0-4-1.784-4-4v-15h1l16 16z" fill="#245c63" fill-opacity=".502"/><path d="M278-1860h-12c-2.216 0-4-1.784-4-4v-12" fill="#67d8e6"/><path d="M339.5-1937a8.481 8.481 0 0 0-8.5 8.5v100c0 4.709 3.791 8.5 8.5 8.5h73c4.709 0 8.5-3.791 8.5-8.5v-76l-32.5-32.5z" fill="#245c63"/><path d="M420-1904v72c0 4.432-3.568 8-8 8h-72c-4.432 0-8-3.568-8-8v-96c0-4.432 3.568-8 8-8h48" fill="#48b9c7"/><path d="M420-1900h-25c-4.432 0-8-3.568-8-8v-28h1l32 32z" fill="#245c63" fill-opacity=".502"/><path d="M420-1904h-24c-4.432 0-8-3.568-8-8v-24" fill="#67d8e6"/><path d="M511.5-2057a8.481 8.481 0 0 0-8.5 8.5v214c0 4.709 3.791 8.5 8.5 8.5h161c4.709 0 8.5-3.791 8.5-8.5v-158.45l-64.447-64.055z" fill="#245c63"/><path d="M680-1992v152c0 4.432-3.568 8-8 8H512c-4.432 0-8-3.568-8-8v-208c0-4.432 3.568-8 8-8h104" fill="#48b9c7"/><path d="M680-1986h-57c-4.432 0-8-3.568-8-8v-62h1l64 64z" fill="#245c63" fill-opacity=".502"/><path d="M680-1992h-56c-4.432 0-8-3.568-8-8v-56" fill="#67d8e6"/><path d="M166.6-1862a3.591 3.591 0 0 0-3.6 3.6v37.8c0 1.995 1.606 3.6 3.6 3.6h26.801c1.994 0 3.6-1.605 3.6-3.6v-28.4l-13-13z" fill="#245c63"/><path d="M196-1849v27c0 1.662-1.338 3-3 3h-26c-1.662 0-3-1.338-3-3v-36c0-1.662 1.338-3 3-3h17" fill="#48b9c7"/><path d="M196-1847h-10c-1.662 0-3-1.338-3-3v-11h1l12 12z" fill="#245c63" fill-opacity=".502"/><path d="M196-1849h-9c-1.662 0-3-1.338-3-3v-9" fill="#67d8e6"/><path d="M128-1838.5v20c0 1.385-1.115 2.5-2.5 2.5h-19a2.495 2.495 0 0 1-2.5-2.5v-26c0-1.385 1.115-2.5 2.5-2.5h13" fill="#245c63"/><path d="M127-1838v18c0 1.108-.892 2-2 2h-18c-1.108 0-2-.892-2-2v-24c0-1.108.892-2 2-2h12" fill="#48b9c7"/><path d="M127-1836h-7c-1.108 0-2-.892-2-2v-8h1l8 8z" fill="#245c63" fill-opacity=".502"/><path d="M127-1838h-6c-1.108 0-2-.892-2-2v-6" fill="#67d8e6"/><path d="M60.5-1840a2.495 2.495 0 0 0-2.5 2.5v19c0 1.385 1.115 2.5 2.5 2.5h15c1.385 0 2.5-1.115 2.5-2.5v-14l-7.5-7.5z" fill="#245c63"/><path d="M77-1832v13c0 1.108-.892 2-2 2H61c-1.108 0-2-.892-2-2v-18c0-1.108.892-2 2-2h9" fill="#48b9c7"/><path d="M77-1831h-6c-1.108 0-2-.892-2-2v-6h1l7 7z" fill="#245c63" fill-opacity=".502"/><path d="M77-1832h-5c-1.108 0-2-.892-2-2v-5" fill="#67d8e6"/><path d="M19.5-1832c-.831 0-1.5.669-1.5 1.5v13c0 .831.669 1.5 1.5 1.5h9c.831 0 1.5-.669 1.5-1.5v-10l-4.5-4.5z" fill="#245c63"/><path d="M29-1827v9c0 .554-.446 1-1 1h-8c-.554 0-1-.446-1-1v-12c0-.554.446-1 1-1h5" fill="#48b9c7"/><path d="M29-1826h-4c-.554 0-1-.446-1-1v-4h1l4 4z" fill="#245c63" fill-opacity=".502"/><path d="M29-1827h-3c-.554 0-1-.446-1-1v-3" fill="#67d8e6"/><path d="M116-1833a3 3 0 1 1 0 6 3 3 0 0 1 0-6zm0 8c6 0 6 4.003 6 4.003v1h-12v-1s0-4 6-4.003z" color="#000" fill="#f6f7f8" style="text-decoration-line:none;text-indent:0;text-transform:none"/><path d="M256-1850a6 6 0 1 1 0 12 6 6 0 0 1 0-12zm0 16c12 0 12 8.007 12 8.007v2h-24v-2s0-8 12-8.007z" color="#000" fill="#f6f7f8" style="text-decoration-line:none;text-indent:0;text-transform:none"/><path d="M180-1842a4.5 4.5 0 1 1 0 9 4.5 4.5 0 0 1 0-9zm0 12c9 0 9 6.5 9 6.5v1.5h-18v-1.5s0-6.495 9-6.5z" color="#000" fill="#f6f7f8" style="text-decoration-line:none;text-indent:0;text-transform:none"/><circle cx="180" cy="-1837" r="5" fill="#f6f7f8"/><path d="M68-1831a3 3 0 1 1 0 6 3 3 0 0 1 0-6zm0 8c6 0 6 4.003 6 4.003v1H62v-1s0-4 6-4.003z" color="#000" fill="#fff" style="text-decoration-line:none;text-indent:0;text-transform:none"/><path d="M24-1821c3 0 3 2.502 3 2.502v.5h-6v-1s0-2 3-2.002z" color="#000" fill="#f6f7f8" style="text-decoration-line:none;text-indent:0;text-transform:none"/><circle cx="24" cy="-1824" r="2" fill="#fff"/><path d="M376-1882c6.627 0 12 5.373 12 12s-5.373 12-12 12-12-5.373-12-12 5.373-12 12-12zm0 32c23.999 0 23.999 16.013 23.999 16.013v4h-48v-4s0-16 24.001-16.013z" color="#000" fill="#f6f7f8" style="text-decoration-line:none;text-indent:0;text-transform:none"/><path d="M592-1948c13.255 0 24 10.746 24 24s-10.745 24-24 24-24-10.746-24-24 10.745-24 24-24zm0 64c47.998 0 47.998 32.027 47.998 32.027v8h-96v-8s0-32 48.002-32.027z" color="#000" fill="#f6f7f8" style="text-decoration-line:none;text-indent:0;text-transform:none"/></g><g transform="translate(-464 1172)"><rect x="105" y="-2145" width="22" height="26" ry="2" fill="#574f4a"/><rect x="106" y="-2144" width="20" height="24" ry="1.5" fill="#dedede"/><rect x="105" y="-2146" width="20" height="24" ry="2" fill="#574f4a"/><rect x="106" y="-2145" width="18" height="22" ry="1.5" fill="#9f9792"/><path d="M107.5-2145c-.831 0-1.5.669-1.5 1.5v22c0 .831.669 1.5 1.5 1.5h.5v-25z" fill="#342c27"/><rect x="234" y="-2175" width="44" height="53" ry="3" fill="#574f4a"/><rect x="235" y="-2174" width="42" height="51" ry="2.5" fill="#dedede"/><rect x="234" y="-2176" width="42" height="49" ry="3" fill="#574f4a"/><rect x="235" y="-2175" width="40" height="47" ry="2.5" fill="#9f9792"/><path d="M237.5-2175a2.495 2.495 0 0 0-2.5 2.5v47c0 1.385 1.147 2.796 2.5 2.5h.5v-52z" fill="#342c27"/><rect x="332" y="-2235" width="88" height="107" ry="5" fill="#574f4a"/><rect x="333" y="-2234" width="86" height="105" ry="5" fill="#dedede"/><rect x="332" y="-2236" width="86" height="100" ry="5" fill="#574f4a"/><rect x="333" y="-2235" width="84" height="98" ry="4.5" fill="#9f9792"/><path d="M337.5-2235a4.49 4.49 0 0 0-4.5 4.5v97a4.49 4.49 0 0 0 4.5 4.5h1.5v-106z" fill="#342c27"/><rect x="504" y="-2355" width="176" height="215" ry="8" fill="#574f4a"/><rect x="505" y="-2354" width="174" height="213" ry="7.5" fill="#dedede"/><rect x="504" y="-2356" width="174" height="202" ry="8" fill="#574f4a"/><rect x="505" y="-2355" width="172" height="200" ry="7.5" fill="#9f9792"/><path d="M512.5-2355a7.484 7.484 0 0 0-7.5 7.5v199c0 4.155 3.348 7.646 7.5 7.5h3.5v-214z" fill="#342c27"/><rect x="164" y="-2160" width="33" height="39" ry="3" fill="#574f4a"/><rect x="165" y="-2159" width="31" height="37" ry="2.5" fill="#dedede"/><rect x="164" y="-2161" width="31" height="36" ry="3" fill="#574f4a"/><rect x="165" y="-2160" width="29" height="34" ry="2.4" fill="#9f9792"/><path d="M167.4-2160c-1.33 0-2.4 1.07-2.4 2.4v33.2c0 1.329 1.07 2.4 2.4 2.4h.6v-38z" fill="#342c27"/><rect x="58" y="-2139" width="20" height="23" ry="1.5" fill="#574f4a"/><rect x="59" y="-2138" width="18" height="21" ry="1" fill="#dedede"/><rect x="58" y="-2140" width="18" height="21" ry="1.5" fill="#574f4a"/><rect x="59" y="-2139" width="16" height="19" ry="1" fill="#9f9792"/><path d="M60-2139c-.554 0-1 .446-1 1v20c0 .554.446 1 1 1h1v-22z" fill="#342c27"/><rect x="18" y="-2131" width="12" height="15" ry="1.5" fill="#574f4a"/><rect x="19" y="-2130" width="10" height="13" ry="1" fill="#dedede"/><rect x="18" y="-2132" width="10" height="13" ry="1.5" fill="#574f4a"/><rect x="19" y="-2131" width="8" height="11" ry="1" fill="#9f9792"/><path d="M20-2131c-.554 0-1 .446-1 1v12c0 .554.446.992 1 1h1v-14z" fill="#342c27"/></g><g transform="translate(-464 1172)"><rect x="105" y="-2445" width="22" height="26" ry="2" fill="#425c0b"/><rect x="106" y="-2444" width="20" height="24" ry="1.5" fill="#dedede"/><rect x="105" y="-2446" width="20" height="24" ry="2" fill="#425c0b"/><rect x="106" y="-2444.9" width="18" height="22" ry="1.5" fill="#85b916"/><path d="M107.5-2445c-.831 0-1.5.669-1.5 1.5v22c0 .831.669 1.5 1.5 1.5h.5v-25z" fill="#293907"/><rect x="234" y="-2475" width="44" height="53" ry="3" fill="#425c0b"/><rect x="235" y="-2474" width="42" height="51" ry="2.5" fill="#dedede"/><rect x="234" y="-2476" width="42" height="49" ry="3" fill="#425c0b"/><rect x="235" y="-2475" width="40" height="47" ry="2.5" fill="#85b916"/><path d="M237.5-2475a2.495 2.495 0 0 0-2.5 2.5v47c0 1.385 1.147 2.796 2.5 2.5h.5v-52z" fill="#293907"/><rect x="332" y="-2535" width="88" height="107" ry="5" fill="#425c0b"/><rect x="333" y="-2534" width="86" height="105" ry="5" fill="#dedede"/><rect x="332" y="-2536" width="86" height="100" ry="5" fill="#425c0b"/><rect x="333" y="-2535" width="84" height="98" ry="4.5" fill="#85b916"/><path d="M337.5-2535a4.49 4.49 0 0 0-4.5 4.5v97a4.49 4.49 0 0 0 4.5 4.5h1.5v-106z" fill="#293907"/><rect x="504" y="-2655" width="176" height="215" ry="8" fill="#425c0b"/><rect x="505" y="-2654" width="174" height="213" ry="7.5" fill="#dedede"/><rect x="504" y="-2656" width="174" height="202" ry="8" fill="#425c0b"/><rect x="505" y="-2655" width="172" height="200" ry="7.5" fill="#85b916"/><path d="M512.5-2655a7.484 7.484 0 0 0-7.5 7.5v199c0 4.155 3.348 7.646 7.5 7.5h3.5v-214z" fill="#293907"/><rect x="164" y="-2460" width="33" height="39" ry="3" fill="#425c0b"/><rect x="165" y="-2459" width="31" height="37" ry="2.5" fill="#dedede"/><rect x="164" y="-2461" width="31" height="36" ry="3" fill="#425c0b"/><rect x="165" y="-2460" width="29" height="34" ry="2.4" fill="#85b916"/><path d="M167.4-2460c-1.33 0-2.4 1.07-2.4 2.4v33.2c0 1.329 1.07 2.4 2.4 2.4h.6v-38z" fill="#293907"/><rect x="58" y="-2439" width="20" height="23" ry="1.5" fill="#425c0b"/><rect x="59" y="-2438" width="18" height="21" ry="1" fill="#dedede"/><rect x="58" y="-2440" width="18" height="21" ry="1.5" fill="#425c0b"/><rect x="59" y="-2439" width="16" height="19" ry="1" fill="#85b916"/><path d="M60-2439c-.554 0-1 .446-1 1v20c0 .554.446 1 1 1h1v-22z" fill="#293907"/><rect x="18" y="-2431" width="12" height="15" ry="1.5" fill="#425c0b"/><rect x="19" y="-2430" width="10" height="13" ry="1" fill="#dedede"/><rect x="18" y="-2432" width="10" height="13" ry="1.5" fill="#425c0b"/><rect x="19" y="-2431" width="8" height="11" ry="1" fill="#85b916"/><path d="M20-2431c-.554 0-1 .446-1 1v12c0 .554.446.992 1 1h1v-14z" fill="#293907"/><g fill="#fff"><path d="m599.001-2530.65-24.658-24.66 24.658-24.656 8.22 8.219-16.44 16.437 8.22 8.22 24.658-24.655-21.48-21.48a4.492 4.492 0 0 0-6.355 0l-34.742 34.741a4.495 4.495 0 0 0 0 6.355l34.742 34.74a4.492 4.492 0 0 0 6.354 0l34.742-34.74a4.495 4.495 0 0 0 0-6.354l-5.043-5.042z"/><path d="m379.001-2473.31-12.329-12.33 12.329-12.328 4.11 4.11-8.22 8.218 4.11 4.11 12.329-12.328-10.74-10.74a2.246 2.246 0 0 0-3.177 0l-17.371 17.371a2.247 2.247 0 0 0 0 3.177l17.37 17.37c.878.878 2.3.878 3.178 0l17.37-17.37c.878-.877.878-2.3 0-3.177l-2.521-2.52z"/><path d="m257.001-2445.63-6.165-6.165 6.165-6.164 2.055 2.054-4.11 4.11 2.055 2.055 6.164-6.164-5.37-5.37a1.123 1.123 0 0 0-1.588 0l-8.686 8.685a1.124 1.124 0 0 0 0 1.589l8.686 8.685c.439.439 1.15.439 1.588 0l8.686-8.685a1.124 1.124 0 0 0 0-1.589l-1.26-1.26z"/><path d="m116-2430.8-3.082-3.083 3.082-3.082 1.028 1.028-2.056 2.054 1.028 1.028 3.082-3.082-2.685-2.685a.562.562 0 0 0-.794 0l-4.343 4.343a.562.562 0 0 0 0 .794l4.343 4.343c.22.219.575.219.794 0l4.343-4.343a.562.562 0 0 0 0-.794l-.63-.63z"/><path d="m24-2423.88-1.541-1.541 1.541-1.541.514.513-1.028 1.028.514.514 1.541-1.541-1.342-1.343a.28.28 0 0 0-.398 0l-2.17 2.172a.28.28 0 0 0 0 .397l2.17 2.171c.11.11.288.11.398 0l2.171-2.171a.28.28 0 0 0 0-.397l-.315-.316z"/><path d="m68-2425.8-3.082-3.083 3.082-3.082 1.028 1.028-2.056 2.054 1.028 1.028 3.082-3.082-2.685-2.685a.562.562 0 0 0-.794 0l-4.343 4.343a.562.562 0 0 0 0 .794l4.343 4.343c.22.219.575.219.794 0l4.343-4.343a.562.562 0 0 0 0-.794l-.63-.63z"/><path d="m181.001-2435.63-6.165-6.165 6.165-6.164 2.055 2.054-4.11 4.11 2.055 2.055 6.164-6.164-5.37-5.37a1.123 1.123 0 0 0-1.588 0l-8.686 8.685a1.124 1.124 0 0 0 0 1.589l8.686 8.685c.439.439 1.15.439 1.588 0l8.686-8.685a1.124 1.124 0 0 0 0-1.589l-1.26-1.26z"/></g></g></svg>