<svg version="1.0" viewBox="0 0 256 256" xmlns="http://www.w3.org/2000/svg"><path d="M47.5 15a8.481 8.481 0 0 0-8.5 8.5v214c0 4.709 3.791 8.5 8.5 8.5h161c4.709 0 8.5-3.791 8.5-8.5V79.05l-64.447-64.055z" fill="#6f4400"/><path d="M216 80v152c0 4.432-3.568 8-8 8H48c-4.432 0-8-3.568-8-8V24c0-4.432 3.568-8 8-8h104" fill="#de8800"/><path d="M216 86h-57c-4.432 0-8-3.568-8-8V16h1l64 64z" fill="#6f4400" fill-opacity=".502"/><path d="M216 80h-56c-4.432 0-8-3.568-8-8V16" fill="#faa41a"/><g transform="matrix(4 0 0 4 -896 3916)" fill="#fff" fill-opacity=".978"><rect x="239" y="-952" width="34" height="7" ry="2.25"/><rect x="239" y="-942" width="34" height="7" ry="2.25"/><rect x="239" y="-932" width="34" height="7" ry="2.25"/></g></svg>