<svg version="1.0" viewBox="0 0 256 256" xmlns="http://www.w3.org/2000/svg"><g transform="translate(-464 -28)"><path d="M511.5 43a8.481 8.481 0 0 0-8.5 8.5v214c0 4.709 3.791 8.5 8.5 8.5h161c4.709 0 8.5-3.791 8.5-8.5V107.05l-64.447-64.055z" fill="#1f285a"/><path d="M680 108v152c0 4.432-3.568 8-8 8H512c-4.432 0-8-3.568-8-8V52c0-4.432 3.568-8 8-8h104" fill="#3f51b5"/><path d="M680 114h-57c-4.432 0-8-3.568-8-8V44h1l64 64z" fill="#1f285a" fill-opacity=".502"/><path d="M680 108h-56c-4.432 0-8-3.568-8-8V44" fill="#6a7ce0"/><rect x="520" y="142" width="144" height="16" ry="0" fill="#fff"/><rect x="520" y="174" width="144" height="16" ry="0" fill="#fff"/><rect x="520" y="206" width="144" height="16" ry="0" fill="#fff"/><rect x="520" y="238" width="88" height="16" ry="0" fill="#fff"/></g></svg>