<svg version="1.0" viewBox="0 0 256 256" xmlns="http://www.w3.org/2000/svg"><path d="M47.5 15a8.481 8.481 0 0 0-8.5 8.5v214c0 4.709 3.791 8.5 8.5 8.5h161c4.709 0 8.5-3.791 8.5-8.5V79.05l-64.447-64.055z" fill="#245c63"/><path d="M216 80v152c0 4.432-3.568 8-8 8H48c-4.432 0-8-3.568-8-8V24c0-4.432 3.568-8 8-8h104" fill="#48b9c7"/><path d="M216 86h-57c-4.432 0-8-3.568-8-8V16h1l64 64z" fill="#245c63" fill-opacity=".502"/><path d="M216 80h-56c-4.432 0-8-3.568-8-8V16" fill="#67d8e6"/><path d="M592-1948c13.255 0 24 10.746 24 24s-10.745 24-24 24-24-10.746-24-24 10.745-24 24-24zm0 64c47.998 0 47.998 32.027 47.998 32.027v8h-96v-8s0-32 48.002-32.027z" color="#000" fill="#f6f7f8" style="text-decoration-line:none;text-indent:0;text-transform:none" transform="translate(-464 2072)"/></svg>